<?xml version="1.0" encoding="UTF-8" standalone="no"?>
<!-- Created with Inkscape (http://www.inkscape.org/) -->

<svg
   xmlns:dc="http://purl.org/dc/elements/1.1/"
   xmlns:cc="http://creativecommons.org/ns#"
   xmlns:rdf="http://www.w3.org/1999/02/22-rdf-syntax-ns#"
   xmlns:svg="http://www.w3.org/2000/svg"
   xmlns="http://www.w3.org/2000/svg"
   xmlns:xlink="http://www.w3.org/1999/xlink"
   xmlns:sodipodi="http://sodipodi.sourceforge.net/DTD/sodipodi-0.dtd"
   xmlns:inkscape="http://www.inkscape.org/namespaces/inkscape"
   id="svg2"
   height="48"
   width="48"
   version="1.0"
   inkscape:version="0.48.1 r9760"
   sodipodi:docname="stock_timezone.svg">
  <metadata
     id="metadata43">
    <rdf:RDF>
      <cc:Work
         rdf:about="">
        <dc:format>image/svg+xml</dc:format>
        <dc:type
           rdf:resource="http://purl.org/dc/dcmitype/StillImage" />
        <dc:title></dc:title>
      </cc:Work>
    </rdf:RDF>
  </metadata>
  <sodipodi:namedview
     pagecolor="#ffffff"
     bordercolor="#666666"
     borderopacity="1"
     objecttolerance="10"
     gridtolerance="10"
     guidetolerance="10"
     inkscape:pageopacity="0"
     inkscape:pageshadow="2"
     inkscape:window-width="640"
     inkscape:window-height="480"
     id="namedview41"
     showgrid="false"
     inkscape:zoom="6.0208333"
     inkscape:cx="24"
     inkscape:cy="24"
     inkscape:window-x="440"
     inkscape:window-y="80"
     inkscape:window-maximized="0"
     inkscape:current-layer="svg2" />
  <defs
     id="defs4">
    <linearGradient
       id="linearGradient3156">
      <stop
         id="stop3158"
         style="stop-color:#fff"
         offset="0" />
      <stop
         id="stop3160"
         style="stop-color:#fff;stop-opacity:0"
         offset="1" />
    </linearGradient>
    <radialGradient
       id="radialGradient5729"
       gradientUnits="userSpaceOnUse"
       cy="4.625"
       cx="62.625"
       gradientTransform="matrix(1 0 0 .34118 0 3.0471)"
       r="10.625">
      <stop
         id="stop8840"
         offset="0" />
      <stop
         id="stop8842"
         style="stop-opacity:0"
         offset="1" />
    </radialGradient>
    <linearGradient
       id="linearGradient5745"
       y2="20.664"
       xlink:href="#linearGradient3156"
       gradientUnits="userSpaceOnUse"
       x2="28.29"
       y1="61.853"
       x1="24.335" />
    <linearGradient
       id="linearGradient5747"
       y2="20.664"
       xlink:href="#linearGradient3156"
       gradientUnits="userSpaceOnUse"
       x2="28.29"
       y1="-.81503"
       x1="27.889" />
    <linearGradient
       id="linearGradient5749"
       y2="20.664"
       xlink:href="#linearGradient3156"
       gradientUnits="userSpaceOnUse"
       x2="28.29"
       y1="-2.3103"
       x1="28.221" />
    <linearGradient
       id="linearGradient5751"
       y2="24.654"
       xlink:href="#linearGradient3156"
       gradientUnits="userSpaceOnUse"
       x2="29.725"
       y1="55.647"
       x1="30.502" />
    <radialGradient
       id="radialGradient5537"
       fy="4.7612"
       xlink:href="#linearGradient3156"
       gradientUnits="userSpaceOnUse"
       cy="11.223"
       cx="22.945"
       gradientTransform="matrix(1.3571 .010218 -.0063134 .83849 -10.875 1.3058)"
       r="14" />
    <radialGradient
       id="radialGradient5540"
       xlink:href="#linearGradient3156"
       gradientUnits="userSpaceOnUse"
       cy="10.875"
       cx="22.125"
       gradientTransform="matrix(1.01 -0.112 .056688 .51121 -5.8376 1.7935)"
       r="20" />
    <radialGradient
       id="radialGradient5551"
       gradientUnits="userSpaceOnUse"
       cy="12.61"
       cx="20.039"
       gradientTransform="matrix(1.9525 -.050181 .036509 1.4215 -20.408 -5.9089)"
       r="22.464">
      <stop
         id="stop4105"
         style="stop-color:#70adfb"
         offset="0" />
      <stop
         id="stop4107"
         style="stop-color:#3465a4"
         offset="1" />
    </radialGradient>
    <linearGradient
       id="linearGradient5553"
       y2="50"
       gradientUnits="userSpaceOnUse"
       x2="29.75"
       gradientTransform="translate(-5 -6)"
       y1="29"
       x1="29.013">
      <stop
         id="stop6495"
         style="stop-color:#4580d4"
         offset="0" />
      <stop
         id="stop6497"
         style="stop-color:#114796"
         offset="1" />
    </linearGradient>
    <radialGradient
       id="radialGradient6332"
       gradientUnits="userSpaceOnUse"
       cy="15.24"
       cx="26"
       gradientTransform="matrix(2.2555 0 -2.1857e-8 2.0564 -32.642 -17.341)"
       r="15.075">
      <stop
         id="stop6328"
         style="stop-color:#debc8c"
         offset="0" />
      <stop
         id="stop6330"
         style="stop-color:#f4ac72"
         offset="1" />
    </radialGradient>
    <radialGradient
       cx="62.625"
       cy="4.625"
       r="10.625"
       fx="62.625"
       fy="4.625"
       id="radialGradient3225"
       xlink:href="#linearGradient8838"
       gradientUnits="userSpaceOnUse"
       gradientTransform="matrix(1.5069395,0,0,0.56347511,-78.348399,23.406993)" />
    <linearGradient
       id="linearGradient8838">
      <stop
         id="stop8840-2"
         style="stop-color:#000000;stop-opacity:1"
         offset="0" />
      <stop
         id="stop8842-5"
         style="stop-color:#000000;stop-opacity:0"
         offset="1" />
    </linearGradient>
    <radialGradient
       cx="24.011986"
       cy="24.003313"
       r="21"
       fx="24.011986"
       fy="24.003313"
       id="radialGradient3220"
       xlink:href="#linearGradient3334-995-903-143-677-209-356-728"
       gradientUnits="userSpaceOnUse"
       gradientTransform="matrix(0.62857779,0,0,0.62755448,17.950409,17.80311)" />
    <linearGradient
       id="linearGradient3334-995-903-143-677-209-356-728">
      <stop
         id="stop5026"
         style="stop-color:#808080;stop-opacity:1"
         offset="0" />
      <stop
         id="stop5028"
         style="stop-color:#6d6d6d;stop-opacity:1"
         offset="0.87326682" />
      <stop
         id="stop5030"
         style="stop-color:#4f5053;stop-opacity:1"
         offset="1" />
    </linearGradient>
    <linearGradient
       x1="7.5542169"
       y1="2.9999976"
       x2="7.5542169"
       y2="45.184376"
       id="linearGradient3222"
       xlink:href="#linearGradient3227"
       gradientUnits="userSpaceOnUse"
       gradientTransform="matrix(0.65943582,0,0,0.65836229,17.209447,17.063622)" />
    <linearGradient
       id="linearGradient3227">
      <stop
         id="stop3229"
         style="stop-color:#4d4d4d;stop-opacity:1"
         offset="0" />
      <stop
         id="stop3231"
         style="stop-color:#333333;stop-opacity:1"
         offset="1" />
    </linearGradient>
    <radialGradient
       cx="27.411848"
       cy="12.080106"
       r="18.000002"
       fx="27.411848"
       fy="12.080106"
       id="radialGradient3215"
       xlink:href="#linearGradient3268"
       gradientUnits="userSpaceOnUse"
       gradientTransform="matrix(1.1610166e-8,1.1649199,-1.7503627,1.7378386e-8,56.390901,5.2710743)" />
    <linearGradient
       id="linearGradient3268">
      <stop
         id="stop3270"
         style="stop-color:#ffffff;stop-opacity:1"
         offset="0" />
      <stop
         id="stop3272"
         style="stop-color:#d8d8d8;stop-opacity:1"
         offset="1" />
    </linearGradient>
    <linearGradient
       x1="29.050154"
       y1="7.0280032"
       x2="29.050154"
       y2="40.320171"
       id="linearGradient3217"
       xlink:href="#linearGradient2480"
       gradientUnits="userSpaceOnUse"
       gradientTransform="matrix(0.69814498,0,0,0.69681114,16.280427,16.14085)" />
    <linearGradient
       id="linearGradient2480">
      <stop
         id="stop2482"
         style="stop-color:#3d3e40;stop-opacity:1"
         offset="0" />
      <stop
         id="stop2484"
         style="stop-color:#4e4e4e;stop-opacity:1"
         offset="1" />
    </linearGradient>
    <radialGradient
       cx="24"
       cy="24"
       r="17"
       fx="24"
       fy="24"
       id="radialGradient3199"
       xlink:href="#linearGradient3301"
       gradientUnits="userSpaceOnUse"
       gradientTransform="matrix(0.63865488,0,0,0.63598726,17.68618,17.600622)" />
    <linearGradient
       id="linearGradient3301">
      <stop
         id="stop3303"
         style="stop-color:#ffffff;stop-opacity:0"
         offset="0" />
      <stop
         id="stop3309"
         style="stop-color:#ffffff;stop-opacity:0"
         offset="0.69999999" />
      <stop
         id="stop3305"
         style="stop-color:#000000;stop-opacity:1"
         offset="1" />
    </linearGradient>
    <linearGradient
       x1="29.050154"
       y1="7.0280032"
       x2="29.050154"
       y2="26.493914"
       id="linearGradient3201"
       xlink:href="#linearGradient3708"
       gradientUnits="userSpaceOnUse"
       gradientTransform="matrix(0.63865488,0,0,-0.63598726,17.686181,48.128012)" />
    <linearGradient
       id="linearGradient3708">
      <stop
         id="stop3710"
         style="stop-color:#000000;stop-opacity:1"
         offset="0" />
      <stop
         id="stop3712"
         style="stop-color:#000000;stop-opacity:1"
         offset="1" />
    </linearGradient>
    <linearGradient
       x1="24.397675"
       y1="3.6018722"
       x2="24.397675"
       y2="26.091318"
       id="linearGradient3212"
       xlink:href="#linearGradient3996"
       gradientUnits="userSpaceOnUse"
       gradientTransform="matrix(0.64175716,0,0,0.63724275,17.334507,17.802187)" />
    <linearGradient
       id="linearGradient3996">
      <stop
         id="stop3998"
         style="stop-color:#ffffff;stop-opacity:1"
         offset="0" />
      <stop
         id="stop4000"
         style="stop-color:#ffffff;stop-opacity:0"
         offset="1" />
    </linearGradient>
    <radialGradient
       r="10.625"
       fy="4.625"
       fx="62.625"
       cy="4.625"
       cx="62.625"
       gradientTransform="matrix(1.5069395,0,0,0.56347511,-61.320181,40.30381)"
       gradientUnits="userSpaceOnUse"
       id="radialGradient3200"
       xlink:href="#linearGradient8838"
       inkscape:collect="always" />
  </defs>
  <g
     id="layer1">
    <g
       id="g6334">
      <path
         id="path8836"
         style="opacity:.4;fill-rule:evenodd;fill:url(#radialGradient5729)"
         d="m73.25 4.625c0 2.002-4.757 3.625-10.625 3.625s-10.625-1.623-10.625-3.625 4.757-3.625 10.625-3.625 10.625 1.623 10.625 3.625z"
         transform="matrix(1.9262 0 0 2.1088 -97.164 29.602)" />
      <path
         id="path1307"
         style="stroke-linejoin:round;stroke:url(#linearGradient5553);stroke-linecap:round;stroke-width:.99816;fill:url(#radialGradient5551)"
         d="m44.501 23c0 11.317-9.1784 20.501-20.487 20.501s-20.487-9.1844-20.487-20.501 9.1784-20.501 20.487-20.501 20.487 9.1844 20.487 20.501z" />
      <path
         id="path4023"
         style="opacity:.5"
         d="m43.219 19.337-0.187 0.721c-0.553-0.46-1.173-0.846-1.804-1.25l-1.3838 0.1436-1.2642-1.0078v1.2473l1.0831 0.578 0.72093 0.57578 0.96345-0.76841c0.24252 0.32034 0.48172 0.64069 0.72258 0.96103v0.95998l-1.0848 0.86413-1.9852 0.96103-1.5034 1.058-0.96345-0.77074 0.48172-0.86413-0.96196-0.7684-1.6246-2.4489-1.3838-1.1036-0.3622 0.28731 0.54314 1.3932 1.0217 0.81627c0.58353 1.188 1.1608 2.3234 1.9271 3.459 1.1883 0 2.3085-0.08896 3.4886-0.1938v0.67268l-1.4437 2.4974-1.324 1.0557-1.0831 1.6349v2.6882l0.3622 1.058-0.60141 0.47888-1.3257 0.57683-1.3838 0.81627 1.1446 0.91212-1.5649 0.9622 0.30062 0.62248-2.3474 1.8743h-1.5632l-1.324 0.57683h-0.84393v-0.7684l-0.35889-1.5391c-0.46567-0.96453-0.95054-1.9222-1.4437-2.8798 0-0.70688 0.05976-1.4069 0.11969-2.1136l0.60307-0.95998-0.84393-1.1538 0.06142-1.5847-1.1446-0.91212 0.57227-1.3202-0.93117-0.74506h-1.6263l-0.54148-0.43207-1.6246 0.72112-0.66117-0.52955-1.5051 0.91258c-1.0217-0.81685-2.0451-1.6331-3.0683-2.4494l-1.202-2.017 1.0831-1.1514-0.60141-0.47993 1.3223-2.2107c1.0864-0.95309 2.2212-1.8674 3.3691-2.7851l2.0466-0.3842 2.286-0.19158 1.5649 0.28847 2.226 1.5835 0.78251-0.62364 1.0815-0.09573 2.0466 0.47993h1.5649l1.0831-0.67268 0.48172-0.47993-1.0848-0.47993-1.8057-0.09573c-0.50109-0.4902-0.96676-1.0055-1.5617-1.4411l-0.60306 0.19157-0.24086 1.2495-1.0831-0.86413-0.23921-0.9622-1.2028-0.67034h-0.48338l1.2043 0.95998-0.48172 0.86413-0.96196 0.19158 0.60141-0.86413-1.0848-0.38304-0.9603-0.7684-1.8074 0.2873-0.23921 0.38304-1.0831 0.4811-0.60141 1.0569-1.5034 0.5278-0.66282-0.5278h-0.72093v-1.7294l1.5649-0.57683h1.2028l-0.24252-0.67151-0.9603-0.67268 1.6231-0.24061 0.90203-0.71937 0.72093-0.8653h1.3257l-0.36221-0.67151 0.84393-0.3842v0.7684l1.8041 0.28731 1.8041-1.0557 0.12117-0.4811 1.5632-0.76782c-0.56582 0.049618-1.1316 0.08604-1.6845 0.19216v-0.86518l0.60141-0.96057h-0.60141l-1.3217 0.86413-0.36221 0.48052 0.36221 0.67326-0.60307 1.1514-0.96196-0.3842-0.84062-0.67151-1.3257 0.67151-0.48172-1.5362 2.286-1.0563v-0.57683l1.447-0.6729 2.285-0.3848 1.5649 0.38479 2.1663 0.95998h-1.5649l1.5649 1.1526 1.2028-0.95998s4.7862 2.4032 7.2583 5.7266c2.4054 3.2338 3.4122 6.9094 3.5174 7.6733z" />
      <path
         id="path6628"
         style="fill:url(#radialGradient6332)"
         d="m43.219 18.237-0.187 0.721c-0.553-0.46-1.173-0.846-1.804-1.25l-1.3838 0.1436-1.2642-1.0078v1.2473l1.0831 0.578 0.72093 0.57578 0.96345-0.76841c0.24252 0.32034 0.48172 0.64069 0.72258 0.96103v0.95998l-1.0848 0.86413-1.9852 0.96103-1.5034 1.058-0.96345-0.77074 0.48172-0.86413-0.96196-0.7684-1.6246-2.4489-1.3838-1.1036-0.3622 0.28731 0.54314 1.3932 1.0217 0.81627c0.58353 1.188 1.1608 2.3234 1.9271 3.459 1.1883 0 2.3085-0.08896 3.4886-0.1938v0.67268l-1.4437 2.4974-1.324 1.0557-1.0831 1.6349v2.6882l0.3622 1.058-0.60141 0.47888-1.3257 0.57683-1.3838 0.81627 1.1446 0.91212-1.5649 0.9622 0.30062 0.62248-2.3474 1.8743h-1.5632l-1.324 0.57683h-0.84393v-0.7684l-0.35889-1.5391c-0.46567-0.96453-0.95054-1.9222-1.4437-2.8798 0-0.70688 0.05976-1.4069 0.11969-2.1136l0.60307-0.95998-0.84393-1.1538 0.06142-1.5847-1.1446-0.91212 0.57227-1.3202-0.93117-0.74506h-1.6263l-0.54148-0.43207-1.6246 0.72112-0.66117-0.52955-1.5051 0.91258c-1.0217-0.81685-2.0451-1.6331-3.0683-2.4494l-1.202-2.017 1.0831-1.1514-0.60141-0.47993 1.3223-2.2107c1.0864-0.95309 2.2212-1.8674 3.3691-2.7851l2.0466-0.3842 2.286-0.19158 1.5649 0.28847 2.226 1.5835 0.78251-0.62364 1.0815-0.09573 2.0466 0.47993h1.5649l1.0831-0.67268 0.48172-0.47993-1.0848-0.47993-1.8057-0.09573c-0.50109-0.4902-0.96676-1.0055-1.5617-1.4411l-0.60306 0.19157-0.24086 1.2495-1.0831-0.86413-0.23921-0.9622-1.2028-0.67034h-0.48338l1.2043 0.95998-0.48172 0.86413-0.96196 0.19158 0.60141-0.86413-1.0848-0.38304-0.9603-0.7684-1.8074 0.2873-0.23921 0.38304-1.0831 0.4811-0.60141 1.0569-1.5034 0.5278-0.66282-0.5278h-0.72093v-1.7294l1.5649-0.57683h1.2028l-0.24252-0.67151-0.9603-0.67268 1.6231-0.24061 0.90203-0.71937 0.72093-0.8653h1.3257l-0.36221-0.67151 0.84393-0.3842v0.7684l1.8041 0.28731 1.8041-1.0557 0.12117-0.4811 1.5632-0.76782c-0.56582 0.049618-1.1316 0.08604-1.6845 0.19216v-0.86518l0.60141-0.96057h-0.60141l-1.3217 0.86413-0.36221 0.48052 0.36221 0.67326-0.60307 1.1514-0.96196-0.3842-0.84062-0.67151-1.3257 0.67151-0.48172-1.5362 2.286-1.0563v-0.57683l1.447-0.6729 2.285-0.3848 1.5649 0.38479 2.1663 0.95998h-1.5649l1.5649 1.1526 1.2028-0.95998s4.7862 2.4032 7.2583 5.7266c2.4054 3.2338 3.4122 6.9094 3.5174 7.6733z" />
      <path
         id="path3164"
         style="opacity:.4;stroke-linejoin:round;stroke:url(#radialGradient5540);stroke-linecap:round;stroke-width:.99647;fill:none"
         d="m43.502 23c0 10.765-8.7368 19.502-19.502 19.502s-19.502-8.737-19.502-19.502 8.7368-19.502 19.502-19.502 19.502 8.7368 19.502 19.502z" />
      <path
         id="path3154"
         style="opacity:.4;fill:url(#radialGradient5537)"
         d="m43 16.747c0 7.1141-8.512 11.029-19 11.029s-19-3.915-19-11.029c0-7.1144 8.512-14.747 19-14.747s19 7.6326 19 14.747z" />
      <path
         id="path2218"
         style="opacity:.6;stroke:url(#linearGradient5745);stroke-linecap:round;stroke-width:1.0952;fill:none"
         d="m46 24.25c0 9.665-7.835 17.5-17.5 17.5s-17.5-7.835-17.5-17.5 7.835-17.5 17.5-17.5 17.5 7.835 17.5 17.5z"
         transform="matrix(1.0762 -.29129 .19527 .71432 -11.183 14.979)" />
      <path
         id="path2230"
         style="opacity:.6;stroke:url(#linearGradient5747);stroke-linecap:round;stroke-width:1.0903;fill:none"
         d="m46 24.25c0 9.665-7.835 17.5-17.5 17.5s-17.5-7.835-17.5-17.5 7.835-17.5 17.5-17.5 17.5 7.835 17.5 17.5z"
         transform="matrix(1.1247 -.0067908 .0011231 .74292 -7.8874 2.6777)" />
      <path
         id="path2234"
         style="opacity:.6;stroke:url(#linearGradient5749);stroke-linecap:round;stroke-width:1.1289;fill:none"
         d="m46 24.25c0 9.665-7.835 17.5-17.5 17.5s-17.5-7.835-17.5-17.5 7.835-17.5 17.5-17.5 17.5 7.835 17.5 17.5z"
         transform="matrix(-.099401 -1.1198 .69461 -.039988 8.175 56.475)" />
      <path
         id="path2240"
         style="stroke:url(#linearGradient5751);stroke-linecap:round;stroke-width:1.3671;fill:none"
         d="m46 24.25c0 9.665-7.835 17.5-17.5 17.5s-17.5-7.835-17.5-17.5 7.835-17.5 17.5-17.5 17.5 7.835 17.5 17.5z"
         transform="matrix(-.16008 -1.1032 .48564 .016921 16.935 54.089)" />
      <path
         id="path2255"
         style="opacity:.8;fill:#fff"
         d="m31.375 37.875c0 0.9665-0.7835 1.75-1.75 1.75s-1.75-0.7835-1.75-1.75 0.7835-1.75 1.75-1.75 1.75 0.7835 1.75 1.75z"
         transform="matrix(.78734 -.21441 .21417 .78825 1.2604 11.542)" />
      <path
         id="path2275"
         style="opacity:.5;fill:#fff"
         d="m31.375 37.875c0 0.9665-0.7835 1.75-1.75 1.75s-1.75-0.7835-1.75-1.75 0.7835-1.75 1.75-1.75 1.75 0.7835 1.75 1.75z"
         transform="matrix(.67487 -.18378 .21417 .78825 -14.194 12.294)" />
      <path
         id="path2283"
         style="opacity:.8;fill:#fff"
         d="m31.375 37.875c0 0.9665-0.7835 1.75-1.75 1.75s-1.75-0.7835-1.75-1.75 0.7835-1.75 1.75-1.75 1.75 0.7835 1.75 1.75z"
         transform="matrix(.78734 -.21441 .32417 .63735 -8.3661 -9.8985)" />
      <path
         id="path2291"
         style="opacity:.5;fill:#fff"
         d="m31.375 37.875c0 0.9665-0.7835 1.75-1.75 1.75s-1.75-0.7835-1.75-1.75 0.7835-1.75 1.75-1.75 1.75 0.7835 1.75 1.75z"
         transform="matrix(.78734 -.21441 -.013263 .72925 -10.706 -10.743)" />
    </g>
  </g>
  <path
     inkscape:connector-curvature="0"
     d="m 49.063135,42.909886 c 0,3.306491 -7.168473,5.986931 -16.011233,5.986931 -8.842758,0 -16.011231,-2.68044 -16.011231,-5.986931 0,-3.30649 7.168473,-5.986931 16.011231,-5.986931 8.84276,0 16.011233,2.680441 16.011233,5.986931 l 0,0 z"
     id="path8836-8"
     style="opacity:0.3;fill:url(#radialGradient3200);fill-opacity:1;fill-rule:evenodd;stroke:none;stroke-width:0.99999988;marker:none;visibility:visible;display:inline;overflow:visible" />
  <path
     inkscape:connector-curvature="0"
     d="m 46.554341,32.86384 c 0,7.454111 -6.052857,13.496905 -13.518265,13.496905 -7.466093,0 -13.518604,-6.042864 -13.518604,-13.496905 0,-7.453771 6.052511,-13.495951 13.518604,-13.495951 7.465408,0 13.518265,6.04218 13.518265,13.495951 l 0,0 z"
     id="path6495"
     style="fill:url(#radialGradient3220);fill-opacity:1;fill-rule:nonzero;stroke:url(#linearGradient3222);stroke-width:1;stroke-miterlimit:4;stroke-opacity:1;stroke-dasharray:none" />
  <path
     inkscape:connector-curvature="0"
     d="m 44.555299,32.86391 c 0,6.350034 -5.157786,11.49779 -11.519246,11.49779 -6.362045,0 -11.519539,-5.147815 -11.519539,-11.49779 0,-6.349745 5.157494,-11.496978 11.519539,-11.496978 6.36146,0 11.519246,5.147233 11.519246,11.496978 l 0,0 0,0 0,0 z"
     id="path3215"
     style="fill:url(#radialGradient3215);fill-opacity:1;fill-rule:nonzero;stroke:url(#linearGradient3217);stroke-width:1;stroke-miterlimit:4;stroke-dasharray:none" />
  <path
     inkscape:connector-curvature="0"
     d="m 43.551704,32.86469 c 0,-5.795749 -4.718284,-10.494163 -10.537671,-10.494163 -5.819924,0 -10.537941,4.698467 -10.537941,10.494163 0,5.79548 4.718017,10.493417 10.537941,10.493417 5.819387,0 10.537671,-4.697937 10.537671,-10.493417 l 0,0 z"
     id="path3215-4"
     style="opacity:0.2;fill:url(#radialGradient3199);fill-opacity:1;stroke:url(#linearGradient3201);stroke-width:1;stroke-miterlimit:4;stroke-dasharray:none" />
  <path
     inkscape:connector-curvature="0"
     d="m 45.506154,32.841869 c 0,6.863039 -5.603239,12.426672 -12.514107,12.426672 -6.911501,0 -12.514423,-5.563696 -12.514423,-12.426672 0,-6.862726 5.602922,-12.425794 12.514423,-12.425794 6.910868,0 12.514107,5.563068 12.514107,12.425794 l 0,0 z"
     id="path3222"
     style="opacity:0.4;fill:none;stroke:url(#linearGradient3212);stroke-width:1;stroke-miterlimit:4;stroke-opacity:1;stroke-dasharray:none" />
  <path
     inkscape:connector-curvature="0"
     d="m 24.424366,33.199846 c 1.843781,0.03995 2.078388,-0.008 2.078388,-0.008"
     id="path2291-6"
     style="opacity:0.5;fill:none;stroke:#000000;stroke-width:0.667;stroke-linecap:round;stroke-linejoin:miter;stroke-miterlimit:4;stroke-opacity:1;stroke-dasharray:none" />
  <path
     inkscape:connector-curvature="0"
     d="m 39.641717,33.191422 c 1.843398,0.05489 2.078386,0.0088 2.078386,0.0088"
     id="path2296"
     style="opacity:0.5;fill:none;stroke:#000000;stroke-width:0.66666669;stroke-linecap:round;stroke-linejoin:miter;stroke-miterlimit:4;stroke-opacity:1;stroke-dasharray:none" />
  <path
     inkscape:connector-curvature="0"
     d="m 32.679203,41.545085 c 0.05273,-1.843459 0.0064,-2.078394 0.0064,-2.078394"
     id="path2306"
     style="opacity:0.6;fill:none;stroke:#000000;stroke-width:0.66666669;stroke-linecap:round;stroke-linejoin:miter;stroke-miterlimit:4;stroke-opacity:1;stroke-dasharray:none" />
  <path
     inkscape:connector-curvature="0"
     d="m 32.70098,26.239015 c 0.01409,-1.844185 -0.03718,-2.0781 -0.03718,-2.0781"
     id="path2308"
     style="opacity:0.4;fill:none;stroke:#000000;stroke-width:0.66666669;stroke-linecap:round;stroke-linejoin:miter;stroke-miterlimit:4;stroke-opacity:1;stroke-dasharray:none" />
  <path
     inkscape:connector-curvature="0"
     d="m 32.415727,33.888939 7.191466,-7.327646"
     id="path2312"
     style="fill:none;stroke:#000000;stroke-width:0.59999996;stroke-linecap:round;stroke-linejoin:miter;stroke-miterlimit:4;stroke-opacity:1;stroke-dasharray:none" />
  <path
     inkscape:connector-curvature="0"
     d="m 33.514173,33.889022 -4.858312,-4.85831"
     id="path2314"
     style="fill:none;stroke:#000000;stroke-width:0.59999996;stroke-linecap:round;stroke-linejoin:miter;stroke-miterlimit:4;stroke-opacity:1;stroke-dasharray:none" />
  <path
     inkscape:connector-curvature="0"
     d="m 33.461937,33.299914 7.315544,-2.059855"
     id="path2316"
     style="fill:#ff0000;fill-rule:evenodd;stroke:#ff0000;stroke-width:0.59999996;stroke-linecap:round;stroke-linejoin:miter;stroke-miterlimit:4;stroke-opacity:1;stroke-dasharray:none" />
</svg>
