<?xml version="1.0" encoding="UTF-8" standalone="no"?>
<!-- Created with Inkscape (http://www.inkscape.org/) -->

<svg
   xmlns:dc="http://purl.org/dc/elements/1.1/"
   xmlns:cc="http://creativecommons.org/ns#"
   xmlns:rdf="http://www.w3.org/1999/02/22-rdf-syntax-ns#"
   xmlns:svg="http://www.w3.org/2000/svg"
   xmlns="http://www.w3.org/2000/svg"
   xmlns:sodipodi="http://sodipodi.sourceforge.net/DTD/sodipodi-0.dtd"
   xmlns:inkscape="http://www.inkscape.org/namespaces/inkscape"
   id="svg3200"
   height="24"
   width="24"
   version="1.0"
   inkscape:version="0.48.1 r9760"
   sodipodi:docname="1.svg">
  <defs
     id="defs11">
    <linearGradient
       id="linearGradient2628"
       y2="24.558001"
       gradientUnits="userSpaceOnUse"
       x2="-91.513"
       gradientTransform="matrix(1.0173,-0.24356,0.24356,1.0173,110.52,-7.9554)"
       y1="-5.3878999"
       x1="-84.344002">
      <stop
         id="stop2266"
         style="stop-color:#d7e866"
         offset="0" />
      <stop
         id="stop2268"
         style="stop-color:#8cab2a"
         offset="1" />
    </linearGradient>
    <linearGradient
       id="linearGradient3406"
       y2="47.759998"
       gradientUnits="userSpaceOnUse"
       x2="20.493999"
       y1="6.0098"
       x1="20.493999">
      <stop
         id="stop3402"
         style="stop-color:#fff"
         offset="0" />
      <stop
         id="stop3404"
         style="stop-color:#fff;stop-opacity:0"
         offset="1" />
    </linearGradient>
  </defs>
  <sodipodi:namedview
     pagecolor="#ffffff"
     bordercolor="#666666"
     borderopacity="1"
     objecttolerance="10"
     gridtolerance="10"
     guidetolerance="10"
     inkscape:pageopacity="0"
     inkscape:pageshadow="2"
     inkscape:window-width="1654"
     inkscape:window-height="977"
     id="namedview9"
     showgrid="false"
     inkscape:zoom="23.25"
     inkscape:cx="-5.0752688"
     inkscape:cy="13.075268"
     inkscape:window-x="264"
     inkscape:window-y="73"
     inkscape:window-maximized="0"
     inkscape:current-layer="svg3200" />
  <metadata
     id="metadata8">
    <rdf:RDF>
      <cc:Work
         rdf:about="">
        <dc:format>image/svg+xml</dc:format>
        <dc:type
           rdf:resource="http://purl.org/dc/dcmitype/StillImage" />
        <dc:title />
      </cc:Work>
    </rdf:RDF>
  </metadata>
  <path
     sodipodi:type="inkscape:offset"
     inkscape:radius="4.6734624"
     inkscape:original="M 64 -37.1875 L 53.78125 -21.25 L 35.1875 -25.40625 L 39.3125 -7.0625 L 23.21875 3 L 39.3125 13.0625 L 35.1875 31.40625 L 53.78125 27.25 L 64 43.1875 L 74.21875 27.25 L 92.8125 31.40625 L 88.6875 13.0625 L 104.78125 3 L 88.6875 -7.0625 L 92.8125 -25.40625 L 74.21875 -21.25 L 64 -37.1875 z M 64 -22.09375 C 70.602564 -14.217006 77.209936 -6.376741 83.8125 1.5 L 73.5 1.5 L 73.5 22.5 L 54.5 22.5 L 54.5 1.5 L 44.1875 1.5 C 50.790065 -6.376741 57.397436 -14.217006 64 -22.09375 z "
     style="color:#000000;fill:#63a51e;fill-opacity:1;fill-rule:nonzero;stroke:none;stroke-width:0.98542732000000000;marker:none;visibility:visible;display:inline;overflow:visible;enable-background:accumulate;opacity:0.20000000000000001"
     id="path3807-7"
     d="m 64,-41.875 a 4.6739297,4.6739297 0 0 0 -3.9375,2.15625 l -8.46875,13.1875 -15.375,-3.4375 A 4.6739297,4.6739297 0 0 0 30.625,-24.375 L 34.03125,-9.28125 20.75,-0.96875 a 4.6739297,4.6739297 0 0 0 0,7.9375 L 34.03125,15.28125 30.625,30.375 a 4.6739297,4.6739297 0 0 0 5.59375,5.59375 l 15.375,-3.4375 8.46875,13.1875 a 4.6739297,4.6739297 0 0 0 7.875,0 l 8.46875,-13.1875 15.375,3.4375 A 4.6739297,4.6739297 0 0 0 97.375,30.375 L 93.96875,15.28125 107.25,6.96875 a 4.6739297,4.6739297 0 0 0 0,-7.9375 L 93.96875,-9.28125 97.375,-24.375 a 4.6739297,4.6739297 0 0 0 -5.59375,-5.59375 l -15.375,3.4375 -8.46875,-13.1875 A 4.6739297,4.6739297 0 0 0 64,-41.875 z m 0,27.0625 c 3.253901,3.875673 6.498323,7.7549435 9.75,11.625 l -0.25,0 A 4.6739297,4.6739297 0 0 0 68.8125,1.5 l 0,16.3125 -9.625,0 0,-16.3125 A 4.6739297,4.6739297 0 0 0 54.5,-3.1875 l -0.25,0 c 3.251677,-3.8700566 6.496099,-7.749327 9.75,-11.625 z"
     transform="matrix(0.23841876,0,0,-0.23841876,-3.4510133,12.75304)" />
  <path
     transform="matrix(0.22081155,0,0,-0.22081155,-2.4323299,12.657535)"
     d="m 64,-41.875 a 4.6739297,4.6739297 0 0 0 -3.9375,2.15625 l -8.46875,13.1875 -15.375,-3.4375 A 4.6739297,4.6739297 0 0 0 30.625,-24.375 L 34.03125,-9.28125 20.75,-0.96875 a 4.6739297,4.6739297 0 0 0 0,7.9375 L 34.03125,15.28125 30.625,30.375 a 4.6739297,4.6739297 0 0 0 5.59375,5.59375 l 15.375,-3.4375 8.46875,13.1875 a 4.6739297,4.6739297 0 0 0 7.875,0 l 8.46875,-13.1875 15.375,3.4375 A 4.6739297,4.6739297 0 0 0 97.375,30.375 L 93.96875,15.28125 107.25,6.96875 a 4.6739297,4.6739297 0 0 0 0,-7.9375 L 93.96875,-9.28125 97.375,-24.375 a 4.6739297,4.6739297 0 0 0 -5.59375,-5.59375 l -15.375,3.4375 -8.46875,-13.1875 A 4.6739297,4.6739297 0 0 0 64,-41.875 z m 0,27.0625 c 3.253901,3.875673 6.498323,7.7549435 9.75,11.625 l -0.25,0 A 4.6739297,4.6739297 0 0 0 68.8125,1.5 l 0,16.3125 -9.625,0 0,-16.3125 A 4.6739297,4.6739297 0 0 0 54.5,-3.1875 l -0.25,0 c 3.251677,-3.8700566 6.496099,-7.749327 9.75,-11.625 z"
     id="path3798"
     style="color:#000000;fill:#63a51e;fill-opacity:1;fill-rule:nonzero;stroke:none;stroke-width:0.98542732000000000;marker:none;visibility:visible;display:inline;overflow:visible;enable-background:accumulate"
     inkscape:original="M 64 -37.1875 L 53.78125 -21.25 L 35.1875 -25.40625 L 39.3125 -7.0625 L 23.21875 3 L 39.3125 13.0625 L 35.1875 31.40625 L 53.78125 27.25 L 64 43.1875 L 74.21875 27.25 L 92.8125 31.40625 L 88.6875 13.0625 L 104.78125 3 L 88.6875 -7.0625 L 92.8125 -25.40625 L 74.21875 -21.25 L 64 -37.1875 z M 64 -22.09375 C 70.602564 -14.217006 77.209936 -6.376741 83.8125 1.5 L 73.5 1.5 L 73.5 22.5 L 54.5 22.5 L 54.5 1.5 L 44.1875 1.5 C 50.790065 -6.376741 57.397436 -14.217006 64 -22.09375 z "
     inkscape:radius="4.6734624"
     sodipodi:type="inkscape:offset" />
  <path
     style="opacity:1;fill:#cc1919;fill-opacity:1;fill-rule:nonzero;stroke:#cc1919;stroke-width:0;stroke-linecap:round;stroke-linejoin:round;stroke-miterlimit:4;stroke-opacity:1;stroke-dasharray:none;stroke-dashoffset:0;"
     d="m 10.715907,14.684908 c -0.9006953,-1.084069 -0.9475852,-1.15651 -0.7870285,-1.215904 0.093901,-0.03474 0.2506395,-0.137766 0.3483075,-0.228956 0.375528,-0.350617 0.390322,-0.445713 0.390322,-2.509043 l 0,-1.9343591 1.022082,0 1.022082,0 0,1.8635091 c 0,1.746792 0.0099,1.881048 0.15739,2.143546 0.08656,0.15402 0.29098,0.3626 0.454258,0.463512 0.163278,0.100911 0.296869,0.211547 0.296869,0.245858 0,0.05508 -1.88277,2.324585 -1.928461,2.324585 -0.0099,0 -0.449055,-0.518737 -0.975821,-1.152748 z"
     id="path2989"
     inkscape:connector-curvature="0" />
  <rect
     style="fill:#63a51e;fill-opacity:1;fill-rule:nonzero;stroke:#cc1919;stroke-width:0;stroke-linecap:round;stroke-linejoin:round;stroke-miterlimit:4;stroke-opacity:1;stroke-dasharray:none;stroke-dashoffset:0"
     id="rect3767"
     width="6.586751"
     height="8.5552053"
     x="8.706625"
     y="8.4037848"
     rx="3.420985"
     ry="1.2842089" />
  <path
     inkscape:connector-curvature="0"
     id="path1542"
     style="fill:#ffffff;fill-opacity:1;stroke:none;stroke-width:0.30000000999999998;stroke-linecap:round;stroke-linejoin:round;stroke-miterlimit:4;stroke-opacity:1;stroke-dasharray:none"
     d="m 14.221174,7.7521855 c -0.129287,-0.013198 -0.257821,0.050498 -0.324251,0.172775 L 11.06671,13.133869 10.447967,12.639011 9.2470403,11.678535 c -0.1620916,-0.08909 -0.3643268,-0.03177 -0.4528847,0.131263 l -0.8160338,1.053793 c -0.08857,0.163038 -0.028986,0.36639 0.1331029,0.45549 0,0 3.3224333,2.760117 3.3265913,2.762208 0.03799,0.02088 0.07772,0.03139 0.118101,0.03652 0.131918,0.01677 0.266922,-0.04557 0.334738,-0.1704 l 3.817426,-7.025057 c 0.08847,-0.1629354 0.02887,-0.366297 -0.133276,-0.4553968 L 14.350143,7.7909326 c -0.04042,-0.022255 -0.08546,-0.034482 -0.128657,-0.038897 z"
     sodipodi:nodetypes="cccccccccccccccc" />
  <path
     inkscape:connector-curvature="0"
     id="path1544"
     style="opacity:0.40000000000000002;fill:none;stroke:none;stroke-width:1;stroke-linecap:round;stroke-linejoin:round;fill-opacity:1"
     d="m 13.527883,7.4204999 -1.434162,2.6502241 -1.27802,2.337504 c -0.04122,0.04208 -0.0286,0.1752 -0.208507,0.221406 -0.124469,0.03197 -0.146984,-0.01461 -0.278147,-0.09942 L 8.7235887,11.254197 C 8.5449709,11.109764 8.5504109,11.117269 8.4239374,11.245516 l -0.64453,0.818045 c -0.1736545,0.186951 -0.1467563,0.299895 0.069701,0.439342 0,0 3.0207726,2.50455 3.0246996,2.506409 0.03593,0.01975 0.0206,0.02652 0.175051,0.134321 0.09907,0.06915 0.186527,-0.150547 0.250246,-0.267857 l 0.383001,-0.702962 0.468073,-0.859107 0.154282,-0.28317 2.667476,-4.895906 c 0.08315,-0.1532241 0.07691,-0.151156 -0.07645,-0.2354237 L 13.800171,7.3150289 c -0.157992,-0.086288 -0.158684,-0.085313 -0.272327,0.1054796 z"
     sodipodi:nodetypes="cccccccccccccccccccc" />
</svg>
