<?xml version="1.0" encoding="UTF-8" standalone="no"?>
<!-- Created with Inkscape (http://www.inkscape.org/) -->

<svg
   xmlns:dc="http://purl.org/dc/elements/1.1/"
   xmlns:cc="http://creativecommons.org/ns#"
   xmlns:rdf="http://www.w3.org/1999/02/22-rdf-syntax-ns#"
   xmlns:svg="http://www.w3.org/2000/svg"
   xmlns="http://www.w3.org/2000/svg"
   xmlns:xlink="http://www.w3.org/1999/xlink"
   xmlns:sodipodi="http://sodipodi.sourceforge.net/DTD/sodipodi-0.dtd"
   xmlns:inkscape="http://www.inkscape.org/namespaces/inkscape"
   id="svg3200"
   height="24"
   width="24"
   version="1.0"
   inkscape:version="0.48.1 r9760"
   sodipodi:docname="2.svg">
  <defs
     id="defs11">
    <radialGradient
       id="radialGradient5147-5"
       gradientUnits="userSpaceOnUse"
       cy="197.3"
       cx="33.875"
       gradientTransform="matrix(1,0,0,0.33871,0,130.47)"
       r="4.8438001">
      <stop
         id="stop6464-5-9-94-5-4-4"
         offset="0" />
      <stop
         id="stop6466-3-6-1-7-2-8"
         style="stop-opacity:0"
         offset="1" />
    </radialGradient>
    <linearGradient
       gradientTransform="matrix(1.0667,0,0,1.0667,-14.499,-51.366998)"
       id="linearGradient4018"
       y2="75.139"
       gradientUnits="userSpaceOnUse"
       x2="50.683998"
       y1="83.781998"
       x1="39.842999">
      <stop
         id="stop3268"
         style="stop-color:#387ab8"
         offset="0" />
      <stop
         id="stop3270"
         style="stop-color:#387ab8;stop-opacity:0"
         offset="1" />
    </linearGradient>
    <linearGradient
       id="linearGradient4008"
       y2="73.264"
       gradientUnits="userSpaceOnUse"
       x2="53.808998"
       gradientTransform="matrix(1.0667,0,0,1.0667,-19.832499,-51.366998)"
       y1="84.719002"
       x1="42.030998">
      <stop
         id="stop3278"
         style="stop-color:#6396cd"
         offset="0" />
      <stop
         id="stop3280"
         style="stop-color:#83acd5;stop-opacity:0"
         offset="1" />
    </linearGradient>
    <linearGradient
       id="linearGradient4593-5-8-1-5-2-3"
       y2="83.575996"
       xlink:href="#linearGradient3533"
       gradientUnits="userSpaceOnUse"
       x2="35.995998"
       gradientTransform="matrix(1.0667,0,0,1.0667,-19.832499,-51.366998)"
       y1="53.838001"
       x1="34.980999" />
    <linearGradient
       id="linearGradient3533">
      <stop
         id="stop3535"
         style="stop-color:#93b9dd"
         offset="0" />
      <stop
         id="stop3545"
         style="stop-color:#6396cd"
         offset="1" />
    </linearGradient>
    <linearGradient
       id="linearGradient4593-5-8-1-5-2"
       y2="91.942001"
       xlink:href="#linearGradient3533"
       gradientUnits="userSpaceOnUse"
       x2="118.48"
       gradientTransform="translate(-101,-48.999999)"
       y1="55.060001"
       x1="118.48" />
    <linearGradient
       id="linearGradient4688">
      <stop
         id="stop4690"
         style="stop-color:#93b9dd"
         offset="0" />
      <stop
         id="stop4692"
         style="stop-color:#6396cd"
         offset="1" />
    </linearGradient>
    <linearGradient
       id="linearGradient5480"
       y2="72.780998"
       gradientUnits="userSpaceOnUse"
       x2="103.56"
       gradientTransform="translate(-95.998997,-48.999999)"
       y1="49.780998"
       x1="102.56">
      <stop
         id="stop5476"
         style="stop-color:#fff"
         offset="0" />
      <stop
         id="stop5478"
         style="stop-color:#fff;stop-opacity:0"
         offset="1" />
    </linearGradient>
    <linearGradient
       id="linearGradient5497"
       y2="71.780998"
       gradientUnits="userSpaceOnUse"
       x2="108.56"
       gradientTransform="translate(-95.998997,-48.999999)"
       y1="102.78"
       x1="108.56">
      <stop
         id="stop5493"
         style="stop-color:#fff"
         offset="0" />
      <stop
         id="stop5495"
         style="stop-color:#fff;stop-opacity:0"
         offset="1" />
    </linearGradient>
    <radialGradient
       r="4.8438001"
       cy="197.3"
       cx="33.875"
       gradientTransform="matrix(3.3032,0,0,0.56774571,-89.458999,-70.04618)"
       gradientUnits="userSpaceOnUse"
       id="radialGradient4710"
       xlink:href="#radialGradient5147-5"
       inkscape:collect="always" />
    <linearGradient
       gradientTransform="translate(0.56595219,0.58802414)"
       x1="110.58552"
       y1="230.02382"
       x2="114.06341"
       y2="227.41991"
       id="linearGradient3725"
       xlink:href="#linearGradient3719"
       gradientUnits="userSpaceOnUse" />
    <linearGradient
       id="linearGradient3719">
      <stop
         id="stop3721"
         style="stop-color:#538ec6;stop-opacity:1"
         offset="0" />
      <stop
         id="stop3723"
         style="stop-color:#538ec6;stop-opacity:0"
         offset="1" />
    </linearGradient>
  </defs>
  <sodipodi:namedview
     pagecolor="#ffffff"
     bordercolor="#666666"
     borderopacity="1"
     objecttolerance="10"
     gridtolerance="10"
     guidetolerance="10"
     inkscape:pageopacity="0"
     inkscape:pageshadow="2"
     inkscape:window-width="1654"
     inkscape:window-height="977"
     id="namedview9"
     showgrid="false"
     inkscape:zoom="23.25"
     inkscape:cx="3.5268817"
     inkscape:cy="10.817204"
     inkscape:window-x="264"
     inkscape:window-y="73"
     inkscape:window-maximized="0"
     inkscape:current-layer="svg3200" />
  <metadata
     id="metadata8">
    <rdf:RDF>
      <cc:Work
         rdf:about="">
        <dc:format>image/svg+xml</dc:format>
        <dc:type
           rdf:resource="http://purl.org/dc/dcmitype/StillImage" />
        <dc:title></dc:title>
      </cc:Work>
    </rdf:RDF>
  </metadata>
  <path
     sodipodi:type="inkscape:offset"
     inkscape:radius="4.6734624"
     inkscape:original="M 64 -37.1875 L 53.78125 -21.25 L 35.1875 -25.40625 L 39.3125 -7.0625 L 23.21875 3 L 39.3125 13.0625 L 35.1875 31.40625 L 53.78125 27.25 L 64 43.1875 L 74.21875 27.25 L 92.8125 31.40625 L 88.6875 13.0625 L 104.78125 3 L 88.6875 -7.0625 L 92.8125 -25.40625 L 74.21875 -21.25 L 64 -37.1875 z M 64 -22.09375 C 70.602564 -14.217006 77.209936 -6.376741 83.8125 1.5 L 73.5 1.5 L 73.5 22.5 L 54.5 22.5 L 54.5 1.5 L 44.1875 1.5 C 50.790065 -6.376741 57.397436 -14.217006 64 -22.09375 z "
     style="color:#000000;fill:#cc8c19;fill-opacity:1;fill-rule:nonzero;stroke:none;stroke-width:0.98542732000000000;marker:none;visibility:visible;display:inline;overflow:visible;enable-background:accumulate;opacity:0.20000000000000001"
     id="path3807-7"
     d="m 64,-41.875 a 4.6739297,4.6739297 0 0 0 -3.9375,2.15625 l -8.46875,13.1875 -15.375,-3.4375 A 4.6739297,4.6739297 0 0 0 30.625,-24.375 L 34.03125,-9.28125 20.75,-0.96875 a 4.6739297,4.6739297 0 0 0 0,7.9375 L 34.03125,15.28125 30.625,30.375 a 4.6739297,4.6739297 0 0 0 5.59375,5.59375 l 15.375,-3.4375 8.46875,13.1875 a 4.6739297,4.6739297 0 0 0 7.875,0 l 8.46875,-13.1875 15.375,3.4375 A 4.6739297,4.6739297 0 0 0 97.375,30.375 L 93.96875,15.28125 107.25,6.96875 a 4.6739297,4.6739297 0 0 0 0,-7.9375 L 93.96875,-9.28125 97.375,-24.375 a 4.6739297,4.6739297 0 0 0 -5.59375,-5.59375 l -15.375,3.4375 -8.46875,-13.1875 A 4.6739297,4.6739297 0 0 0 64,-41.875 z m 0,27.0625 c 3.253901,3.875673 6.498323,7.7549435 9.75,11.625 l -0.25,0 A 4.6739297,4.6739297 0 0 0 68.8125,1.5 l 0,16.3125 -9.625,0 0,-16.3125 A 4.6739297,4.6739297 0 0 0 54.5,-3.1875 l -0.25,0 c 3.251677,-3.8700566 6.496099,-7.749327 9.75,-11.625 z"
     transform="matrix(0.23841876,0,0,-0.23841876,-3.4510133,12.75304)" />
  <path
     transform="matrix(0.22081155,0,0,-0.22081155,-2.4323299,12.657535)"
     d="m 64,-41.875 a 4.6739297,4.6739297 0 0 0 -3.9375,2.15625 l -8.46875,13.1875 -15.375,-3.4375 A 4.6739297,4.6739297 0 0 0 30.625,-24.375 L 34.03125,-9.28125 20.75,-0.96875 a 4.6739297,4.6739297 0 0 0 0,7.9375 L 34.03125,15.28125 30.625,30.375 a 4.6739297,4.6739297 0 0 0 5.59375,5.59375 l 15.375,-3.4375 8.46875,13.1875 a 4.6739297,4.6739297 0 0 0 7.875,0 l 8.46875,-13.1875 15.375,3.4375 A 4.6739297,4.6739297 0 0 0 97.375,30.375 L 93.96875,15.28125 107.25,6.96875 a 4.6739297,4.6739297 0 0 0 0,-7.9375 L 93.96875,-9.28125 97.375,-24.375 a 4.6739297,4.6739297 0 0 0 -5.59375,-5.59375 l -15.375,3.4375 -8.46875,-13.1875 A 4.6739297,4.6739297 0 0 0 64,-41.875 z m 0,27.0625 c 3.253901,3.875673 6.498323,7.7549435 9.75,11.625 l -0.25,0 A 4.6739297,4.6739297 0 0 0 68.8125,1.5 l 0,16.3125 -9.625,0 0,-16.3125 A 4.6739297,4.6739297 0 0 0 54.5,-3.1875 l -0.25,0 c 3.251677,-3.8700566 6.496099,-7.749327 9.75,-11.625 z"
     id="path3798"
     style="color:#000000;fill:#cc8c19;fill-opacity:1;fill-rule:nonzero;stroke:none;stroke-width:0.98542732000000000;marker:none;visibility:visible;display:inline;overflow:visible;enable-background:accumulate"
     inkscape:original="M 64 -37.1875 L 53.78125 -21.25 L 35.1875 -25.40625 L 39.3125 -7.0625 L 23.21875 3 L 39.3125 13.0625 L 35.1875 31.40625 L 53.78125 27.25 L 64 43.1875 L 74.21875 27.25 L 92.8125 31.40625 L 88.6875 13.0625 L 104.78125 3 L 88.6875 -7.0625 L 92.8125 -25.40625 L 74.21875 -21.25 L 64 -37.1875 z M 64 -22.09375 C 70.602564 -14.217006 77.209936 -6.376741 83.8125 1.5 L 73.5 1.5 L 73.5 22.5 L 54.5 22.5 L 54.5 1.5 L 44.1875 1.5 C 50.790065 -6.376741 57.397436 -14.217006 64 -22.09375 z "
     inkscape:radius="4.6734624"
     sodipodi:type="inkscape:offset" />
  <path
     style="opacity:1;fill:#cc1919;fill-opacity:1;fill-rule:nonzero;stroke:#cc1919;stroke-width:0;stroke-linecap:round;stroke-linejoin:round;stroke-miterlimit:4;stroke-opacity:1;stroke-dasharray:none;stroke-dashoffset:0;"
     d="m 10.715907,14.684908 c -0.9006953,-1.084069 -0.9475852,-1.15651 -0.7870285,-1.215904 0.093901,-0.03474 0.2506395,-0.137766 0.3483075,-0.228956 0.375528,-0.350617 0.390322,-0.445713 0.390322,-2.509043 l 0,-1.9343591 1.022082,0 1.022082,0 0,1.8635091 c 0,1.746792 0.0099,1.881048 0.15739,2.143546 0.08656,0.15402 0.29098,0.3626 0.454258,0.463512 0.163278,0.100911 0.296869,0.211547 0.296869,0.245858 0,0.05508 -1.88277,2.324585 -1.928461,2.324585 -0.0099,0 -0.449055,-0.518737 -0.975821,-1.152748 z"
     id="path2989"
     inkscape:connector-curvature="0" />
  <rect
     style="fill:#cc8c19;fill-opacity:1;fill-rule:nonzero;stroke:#cc1919;stroke-width:0;stroke-linecap:round;stroke-linejoin:round;stroke-miterlimit:4;stroke-opacity:1;stroke-dasharray:none;stroke-dashoffset:0"
     id="rect3767"
     width="6.586751"
     height="8.5552053"
     x="8.706625"
     y="8.4037848"
     rx="3.420985"
     ry="1.2842089" />
  <path
     inkscape:connector-curvature="0"
     id="path6460-6-4-4-3-3"
     style="opacity:0.2;color:#000000;fill:url(#radialGradient4710);enable-background:new"
     d="m 14.299262,14.677302 a 2.4483622,0.43335888 0 1 1 -4.8966733,0 2.4483622,0.43335888 0 1 1 4.8966733,0 z" />
  <path
     inkscape:connector-curvature="0"
     id="path4788-2-3-4"
     style="text-indent:0;text-transform:none;block-progression:tb;opacity:0.3;color:#000000;fill:none;stroke:url(#linearGradient5497);stroke-width:0.99999994;stroke-linecap:round;enable-background:new"
     d="m 13.395574,12.91828 c -0.535271,0.789508 -1.581331,0.979715 -2.347973,0.428477 -0.766641,-0.551238 -0.951339,-1.628499 -0.416067,-2.418008 0.535272,-0.789508 1.581331,-0.9797161 2.347973,-0.428478" />
  <g
     transform="matrix(0.65753135,0,0,0.65753135,-60.917641,-136.83529)"
     id="g6293"
     style="stroke:#ffffff;stroke-width:2.31064148000000014;stroke-opacity:1;display:inline;enable-background:new;fill:none;stroke-miterlimit:4;stroke-dasharray:none;stroke-linejoin:round;stroke-linecap:round;fill-opacity:1">
    <path
       inkscape:connector-curvature="0"
       d="m 112.89199,228.29933 a 4.75,4.75 0 0 1 -6.41224,0.8092"
       transform="matrix(1.1501219,0,0,1.1521155,-15.186827,-33.014002)"
       id="path4517-5"
       style="color:#000000;fill:none;stroke:#ffffff;stroke-width:2.00730153999999983;stroke-linecap:round;stroke-linejoin:round;stroke-miterlimit:4;stroke-opacity:1;stroke-dasharray:none;stroke-dashoffset:0;marker:none;visibility:visible;display:inline;overflow:visible;enable-background:accumulate;fill-opacity:1" />
    <path
       inkscape:connector-curvature="0"
       d="m 116,221 0,4 -4,0"
       id="path4519-1-9"
       style="fill:none;stroke:#ffffff;stroke-width:2.31064148000000014;stroke-linecap:round;stroke-linejoin:round;stroke-miterlimit:4;stroke-opacity:1;stroke-dasharray:none;fill-opacity:1" />
    <path
       inkscape:connector-curvature="0"
       d="m 106.86806,229.35961 a 4.75,4.75 0 1 1 6.22978,-6.89468"
       transform="matrix(1.1501219,0,0,1.1521155,-15.186827,-33.014002)"
       id="path3717"
       style="color:#000000;fill:none;stroke:#ffffff;stroke-width:2.00730153999999983;stroke-linecap:round;stroke-linejoin:round;stroke-miterlimit:4;stroke-opacity:1;stroke-dasharray:none;stroke-dashoffset:0;marker:none;visibility:visible;display:inline;overflow:visible;enable-background:accumulate;fill-opacity:1" />
  </g>
  <path
     inkscape:connector-curvature="0"
     d="M 10.760476,15.58228 A 3.6124479,3.6158248 0 1 1 14.643592,9.9755126"
     id="path4517"
     style="color:#000000;fill:none;stroke:#ffffff;stroke-width:1.72663706000000006;marker:none;visibility:visible;display:inline;overflow:visible;enable-background:accumulate;stroke-miterlimit:4;stroke-dasharray:none;stroke-linejoin:round;stroke-linecap:round;stroke-opacity:1;fill-opacity:1" />
  <path
     inkscape:connector-curvature="0"
     d="m 15.355991,8.4791456 0,2.6301254 -2.630126,0"
     id="path4519-7"
     style="fill:none;stroke:#ffffff;display:inline;enable-background:new;stroke-width:0.99900000000000000;stroke-miterlimit:4;stroke-dasharray:none;stroke-linejoin:round;stroke-linecap:round;stroke-opacity:1;fill-opacity:1" />
  <path
     inkscape:connector-curvature="0"
     d="m 14.479085,14.426289 a 3.6124479,3.6158248 0 0 1 -4.057053,1.044715"
     id="path3707"
     style="color:#000000;fill:none;stroke:#ffffff;stroke-width:1.72663706000000006;marker:none;visibility:visible;display:inline;overflow:visible;enable-background:accumulate;stroke-miterlimit:4;stroke-dasharray:none;stroke-linejoin:round;stroke-linecap:round;stroke-opacity:1;fill-opacity:1" />
</svg>
