<?xml version="1.0" encoding="UTF-8" standalone="no"?>
<!-- Created with Inkscape (http://www.inkscape.org/) -->

<svg
   xmlns:dc="http://purl.org/dc/elements/1.1/"
   xmlns:cc="http://creativecommons.org/ns#"
   xmlns:rdf="http://www.w3.org/1999/02/22-rdf-syntax-ns#"
   xmlns:svg="http://www.w3.org/2000/svg"
   xmlns="http://www.w3.org/2000/svg"
   xmlns:xlink="http://www.w3.org/1999/xlink"
   xmlns:sodipodi="http://sodipodi.sourceforge.net/DTD/sodipodi-0.dtd"
   xmlns:inkscape="http://www.inkscape.org/namespaces/inkscape"
   width="128"
   height="128"
   id="svg3886"
   version="1.1"
   inkscape:version="0.48.1 r9760"
   sodipodi:docname="as-powered.svg">
  <defs
     id="defs3888">
    <linearGradient
       inkscape:collect="always"
       xlink:href="#linearGradient3924"
       id="linearGradient2984"
       gradientUnits="userSpaceOnUse"
       gradientTransform="matrix(2.7297298,0,0,2.7297298,-1.5135108,-62.513486)"
       x1="23.99999"
       y1="4.999989"
       x2="23.99999"
       y2="43" />
    <linearGradient
       id="linearGradient3924">
      <stop
         id="stop3926"
         style="stop-color:#ffffff;stop-opacity:1;"
         offset="0" />
      <stop
         offset="0.06316455"
         style="stop-color:#ffffff;stop-opacity:0.23529412;"
         id="stop3928" />
      <stop
         id="stop3930"
         style="stop-color:#ffffff;stop-opacity:0.15686275;"
         offset="0.95056331" />
      <stop
         id="stop3932"
         style="stop-color:#ffffff;stop-opacity:0.39215687;"
         offset="1" />
    </linearGradient>
    <radialGradient
       inkscape:collect="always"
       xlink:href="#linearGradient7012-661-145-733-759-865-745-661-970-94-8"
       id="radialGradient2990"
       gradientUnits="userSpaceOnUse"
       gradientTransform="matrix(5.131108e-8,6.1720507,-6.5292935,-1.1371273e-7,119.1713,-93.225241)"
       cx="7.4956832"
       cy="8.4497671"
       fx="7.4956832"
       fy="8.4497671"
       r="19.99999" />
    <linearGradient
       id="linearGradient7012-661-145-733-759-865-745-661-970-94-8">
      <stop
         id="stop3618-1"
         style="stop-color:#f08878;stop-opacity:1;"
         offset="0" />
      <stop
         id="stop3270-2"
         style="stop-color:#d31820;stop-opacity:1;"
         offset="0.5" />
      <stop
         id="stop3620-8"
         style="stop-color:#ff0b00;stop-opacity:1;"
         offset="1" />
    </linearGradient>
    <linearGradient
       inkscape:collect="always"
       xlink:href="#linearGradient3390-178-986-453-3"
       id="linearGradient2992"
       gradientUnits="userSpaceOnUse"
       gradientTransform="matrix(2.6410257,0,0,2.6410257,0.6153792,-60.384617)"
       x1="24"
       y1="44"
       x2="24"
       y2="3.8990016" />
    <linearGradient
       id="linearGradient3390-178-986-453-3">
      <stop
         id="stop3624-6"
         style="stop-color:#ba1217;stop-opacity:1;"
         offset="0" />
      <stop
         offset="0.5"
         style="stop-color:#cf1c1c;stop-opacity:1;"
         id="stop3856-8" />
      <stop
         id="stop3626-0"
         style="stop-color:#e23947;stop-opacity:1;"
         offset="1" />
    </linearGradient>
    <radialGradient
       cx="4.9929786"
       cy="43.5"
       r="2.5"
       fx="4.9929786"
       fy="43.5"
       id="radialGradient2455"
       xlink:href="#linearGradient3688-166-749"
       gradientUnits="userSpaceOnUse"
       gradientTransform="matrix(2.003784,0,0,1.4,27.98813,-17.4)" />
    <linearGradient
       id="linearGradient3688-166-749">
      <stop
         id="stop2883"
         style="stop-color:#181818;stop-opacity:1"
         offset="0" />
      <stop
         id="stop2885"
         style="stop-color:#181818;stop-opacity:0"
         offset="1" />
    </linearGradient>
    <radialGradient
       cx="4.9929786"
       cy="43.5"
       r="2.5"
       fx="4.9929786"
       fy="43.5"
       id="radialGradient2457"
       xlink:href="#linearGradient3688-464-309"
       gradientUnits="userSpaceOnUse"
       gradientTransform="matrix(2.003784,0,0,1.4,-20.01187,-104.4)" />
    <linearGradient
       id="linearGradient3688-464-309">
      <stop
         id="stop2889"
         style="stop-color:#181818;stop-opacity:1"
         offset="0" />
      <stop
         id="stop2891"
         style="stop-color:#181818;stop-opacity:0"
         offset="1" />
    </linearGradient>
    <linearGradient
       x1="25.058096"
       y1="47.027729"
       x2="25.058096"
       y2="39.999443"
       id="linearGradient2459"
       xlink:href="#linearGradient3702-501-757"
       gradientUnits="userSpaceOnUse" />
    <linearGradient
       id="linearGradient3702-501-757">
      <stop
         id="stop2895"
         style="stop-color:#181818;stop-opacity:0"
         offset="0" />
      <stop
         id="stop2897"
         style="stop-color:#181818;stop-opacity:1"
         offset="0.5" />
      <stop
         id="stop2899"
         style="stop-color:#181818;stop-opacity:0"
         offset="1" />
    </linearGradient>
    <linearGradient
       x1="-73.494293"
       y1="72.699486"
       x2="-50.243786"
       y2="159.47563"
       id="linearGradient4018"
       xlink:href="#linearGradient3694"
       gradientUnits="userSpaceOnUse"
       gradientTransform="matrix(0.47601028,-0.12754059,-0.12754059,-0.47601028,80.848796,82.669064)" />
    <linearGradient
       id="linearGradient3694">
      <stop
         id="stop3696"
         style="stop-color:#e6e6e6;stop-opacity:1"
         offset="0" />
      <stop
         id="stop3698"
         style="stop-color:#f5f5f5;stop-opacity:1"
         offset="1" />
    </linearGradient>
    <linearGradient
       x1="-73.494293"
       y1="72.699486"
       x2="-50.243786"
       y2="159.47563"
       id="linearGradient4071"
       xlink:href="#linearGradient3694"
       gradientUnits="userSpaceOnUse"
       gradientTransform="matrix(0.47601028,-0.12754059,-0.12754059,-0.47601028,80.848796,83.474004)" />
    <linearGradient
       id="linearGradient3288">
      <stop
         id="stop3290"
         style="stop-color:#e6e6e6;stop-opacity:1"
         offset="0" />
      <stop
         id="stop3292"
         style="stop-color:#f5f5f5;stop-opacity:1"
         offset="1" />
    </linearGradient>
    <linearGradient
       x1="58"
       y1="19"
       x2="58"
       y2="120"
       id="linearGradient4091"
       xlink:href="#linearGradient4085"
       gradientUnits="userSpaceOnUse" />
    <linearGradient
       id="linearGradient4085">
      <stop
         id="stop4087"
         style="stop-color:#782121;stop-opacity:1"
         offset="0" />
      <stop
         id="stop4089"
         style="stop-color:#782121;stop-opacity:0"
         offset="1" />
    </linearGradient>
    <linearGradient
       gradientTransform="matrix(0.8049403,0,0,0.8049403,-2.3450587,-4.5058799)"
       y2="120"
       x2="58"
       y1="19"
       x1="58"
       gradientUnits="userSpaceOnUse"
       id="linearGradient3303"
       xlink:href="#linearGradient4085"
       inkscape:collect="always" />
  </defs>
  <sodipodi:namedview
     id="base"
     pagecolor="#ffffff"
     bordercolor="#666666"
     borderopacity="1.0"
     inkscape:pageopacity="0.0"
     inkscape:pageshadow="2"
     inkscape:zoom="1.375"
     inkscape:cx="82.909091"
     inkscape:cy="50.181818"
     inkscape:current-layer="layer1"
     showgrid="true"
     inkscape:document-units="px"
     inkscape:grid-bbox="true"
     inkscape:window-width="1388"
     inkscape:window-height="838"
     inkscape:window-x="449"
     inkscape:window-y="44"
     inkscape:window-maximized="0" />
  <metadata
     id="metadata3891">
    <rdf:RDF>
      <cc:Work
         rdf:about="">
        <dc:format>image/svg+xml</dc:format>
        <dc:type
           rdf:resource="http://purl.org/dc/dcmitype/StillImage" />
        <dc:title></dc:title>
      </cc:Work>
    </rdf:RDF>
  </metadata>
  <g
     id="layer1"
     inkscape:label="Layer 1"
     inkscape:groupmode="layer"
     transform="translate(0,64)">
    <g
       transform="matrix(2.9499988,0,0,1.2222234,-6.8000012,1.555537)"
       id="g2036"
       style="display:inline">
      <g
         transform="matrix(1.052632,0,0,1.285713,-1.263158,-13.42854)"
         id="g3712"
         style="opacity:0.4">
        <rect
           width="5"
           height="7"
           x="38"
           y="40"
           id="rect2801"
           style="fill:url(#radialGradient2455);fill-opacity:1;stroke:none" />
        <rect
           width="5"
           height="7"
           x="-10"
           y="-47"
           transform="scale(-1,-1)"
           id="rect3696"
           style="fill:url(#radialGradient2457);fill-opacity:1;stroke:none" />
        <rect
           width="28"
           height="7.0000005"
           x="10"
           y="40"
           id="rect3700"
           style="fill:url(#linearGradient2459);fill-opacity:1;stroke:none" />
      </g>
    </g>
    <rect
       style="color:#000000;fill:url(#radialGradient2990);fill-opacity:1;fill-rule:nonzero;stroke:url(#linearGradient2992);stroke-width:0.99999994;stroke-linecap:round;stroke-linejoin:round;stroke-miterlimit:4;stroke-opacity:1;stroke-dasharray:none;stroke-dashoffset:0;marker:none;visibility:visible;display:inline;overflow:visible;enable-background:accumulate"
       id="rect5505-21"
       y="-48.5"
       x="12.5"
       ry="6"
       rx="6"
       height="103"
       width="103" />
    <rect
       style="opacity:0.5;fill:none;stroke:url(#linearGradient2984);stroke-width:0.99999994;stroke-linecap:round;stroke-linejoin:round;stroke-miterlimit:4;stroke-opacity:1;stroke-dasharray:none;stroke-dashoffset:0"
       id="rect6741-7"
       y="-47.5"
       x="13.5"
       ry="5"
       rx="5"
       height="101"
       width="101" />
    <g
       transform="matrix(1.2423282,0,0,1.2423282,2.9133326,-58.402219)"
       id="layer4">
      <path
         d="m 75.463619,59.577234 c -0.1751,-0.236936 -0.45245,-0.569994 -0.76469,-0.890194 -3.24854,-3.333638 -5.674837,-7.269718 -6.981966,-11.629467 -0.06,-0.202651 -0.119999,-0.405302 -0.173876,-0.608565 -0.05633,-0.204487 -0.105305,-0.413261 -0.155508,-0.620809 -1.046315,-4.426483 -0.918358,-9.050719 0.233263,-13.559854 0,0 0.175712,-0.744482 0.221018,-1.051213 0.967948,-5.69749 -2.539565,-11.298246 -8.23032,-12.823944 -5.802182,-1.554473 -11.748853,1.698962 -13.646179,7.310738 -0.07837,0.209385 -0.238161,0.738359 -0.239998,0.746318 -1.247129,4.420361 -3.41384,8.433583 -6.475032,11.718854 -3.477513,3.650164 -7.898486,6.245442 -12.855167,7.573387 -6.037895,1.617534 -9.624999,7.834814 -8.006853,13.875157 1.620595,6.039118 7.828079,9.626223 13.870259,8.00624 4.508523,-1.151008 9.132758,-1.281415 13.561078,-0.235712 0.206324,0.05143 0.413873,0.102244 0.619585,0.157958 0.206325,0.0551 0.410812,0.115101 0.6153,0.173263 4.357912,1.308354 8.298278,3.732814 11.627017,6.983194 0.408975,0.40959 0.762237,0.69795 1.092233,0.93121 4.47485,3.41017 10.842126,3.14874 14.922086,-0.93121 4.14118,-4.13873 4.38118,-10.678052 0.76775,-15.125351 z m -27.437464,2.046713 c -5.911161,-1.583861 -9.420511,-7.662163 -7.83665,-13.573323 1.585085,-5.911773 7.662162,-9.421123 13.573323,-7.837263 5.913609,1.585085 9.421735,7.66155 7.837262,13.573323 -1.584473,5.911773 -7.660325,9.421736 -13.573935,7.837263 z"
         inkscape:connector-curvature="0"
         id="path3860"
         style="fill:url(#linearGradient4018);fill-opacity:1" />
      <path
         d="m 56.375,17 c -4.638502,0.13193 -8.864673,3.159182 -10.40625,7.71875 -0.07837,0.209385 -0.248163,0.710791 -0.25,0.71875 -1.247129,4.420361 -3.407558,8.433479 -6.46875,11.71875 -3.477513,3.650164 -7.887069,6.265805 -12.84375,7.59375 -5.157466,1.38167 -8.510544,6.101872 -8.375,11.21875 0.295987,-4.722895 3.555754,-8.927688 8.375,-10.21875 4.956681,-1.327945 9.366237,-3.943586 12.84375,-7.59375 3.061192,-3.285271 5.221621,-7.298389 6.46875,-11.71875 0.0018,-0.008 0.17163,-0.509365 0.25,-0.71875 1.897326,-5.611776 7.854068,-8.866973 13.65625,-7.3125 4.871375,1.306021 8.10978,5.592307 8.34375,10.375 C 68.177129,23.606427 64.83466,18.802966 59.625,17.40625 58.537091,17.114786 57.445424,16.969555 56.375,17 z m 10.3125,22.78125 c 0.0099,2.039246 0.217627,4.074681 0.6875,6.0625 0.0502,0.207548 0.09992,0.389263 0.15625,0.59375 0.05388,0.203263 0.1275,0.422349 0.1875,0.625 1.307129,4.359749 3.72021,8.291362 6.96875,11.625 0.31224,0.3202 0.60615,0.638064 0.78125,0.875 1.580876,1.945693 2.429514,4.317167 2.53125,6.6875 0.125969,-2.708084 -0.724535,-5.46385 -2.53125,-7.6875 -0.1751,-0.236936 -0.46901,-0.5548 -0.78125,-0.875 -3.24854,-3.333638 -5.661621,-7.265251 -6.96875,-11.625 -0.06,-0.202651 -0.133623,-0.421737 -0.1875,-0.625 -0.05633,-0.204487 -0.106047,-0.386202 -0.15625,-0.59375 -0.392368,-1.659931 -0.617454,-3.363449 -0.6875,-5.0625 z M 61.96875,50.5625 c -0.04416,0.735024 -0.176941,1.479778 -0.375,2.21875 -1.584473,5.911773 -7.64889,9.428223 -13.5625,7.84375 -4.71561,-1.26352 -7.895301,-5.382577 -8.1875,-10 -0.142785,5.014198 3.131252,9.645208 8.1875,11 5.91361,1.584473 11.978027,-1.931977 13.5625,-7.84375 0.2886,-1.076787 0.408066,-2.159171 0.375,-3.21875 z"
         inkscape:connector-curvature="0"
         id="path4060"
         style="opacity:0.3;fill:#000000;fill-opacity:1" />
      <path
         d="m 67.96875,29.78125 c -0.01924,0.477878 -0.04317,0.955836 -0.125,1.4375 -0.04531,0.306731 -0.21875,1.0625 -0.21875,1.0625 -0.661116,2.588577 -0.979598,5.207247 -0.9375,7.8125 0.04515,-2.273011 0.36169,-4.557932 0.9375,-6.8125 0,0 0.173444,-0.755769 0.21875,-1.0625 0.139369,-0.82035 0.164354,-1.633036 0.125,-2.4375 z M 50.4375,39.84375 c -4.72032,0.18809 -8.962118,3.415434 -10.25,8.21875 -0.320341,1.195551 -0.417831,2.391842 -0.34375,3.5625 0.02414,-0.847803 0.114681,-1.707588 0.34375,-2.5625 1.585085,-5.911773 7.651339,-9.42761 13.5625,-7.84375 4.804807,1.287882 8.031239,5.529503 8.21875,10.25 0.262999,-5.109665 -3.076022,-9.871542 -8.21875,-11.25 -1.108343,-0.296974 -2.223195,-0.418405 -3.3125,-0.375 z m -32.40625,17.125 c -0.07485,1.194285 0.01715,2.437107 0.34375,3.65625 1.620595,6.039118 7.83282,9.619983 13.875,8 4.508523,-1.151008 9.13418,-1.295703 13.5625,-0.25 0.206324,0.05143 0.419288,0.100536 0.625,0.15625 0.206325,0.0551 0.420512,0.129338 0.625,0.1875 4.357912,1.308354 8.296261,3.71837 11.625,6.96875 0.408975,0.40959 0.763754,0.70424 1.09375,0.9375 4.47485,3.41017 10.82629,3.14245 14.90625,-0.9375 2.329414,-2.328036 3.443303,-5.389929 3.3125,-8.4375 -0.125969,2.708084 -1.24191,5.368135 -3.3125,7.4375 -4.07996,4.07995 -10.4314,4.34767 -14.90625,0.9375 -0.329996,-0.23326 -0.684775,-0.52791 -1.09375,-0.9375 -3.328739,-3.25038 -7.267088,-5.660396 -11.625,-6.96875 -0.204488,-0.05816 -0.418675,-0.1324 -0.625,-0.1875 -0.205712,-0.05571 -0.418676,-0.10482 -0.625,-0.15625 -4.42832,-1.045703 -9.053977,-0.901008 -13.5625,0.25 -6.04218,1.619983 -12.254405,-1.960882 -13.875,-8 -0.235954,-0.880786 -0.320611,-1.782749 -0.34375,-2.65625 z"
         inkscape:connector-curvature="0"
         id="path4069"
         style="opacity:0.4;fill:url(#linearGradient4071);fill-opacity:1" />
      <path
         d="m 56.375,18 c -4.638502,0.13193 -8.864673,3.159182 -10.40625,7.71875 -0.07837,0.209385 -0.248163,0.710791 -0.25,0.71875 -1.247129,4.420361 -3.407558,8.433479 -6.46875,11.71875 -3.477513,3.650164 -7.887069,6.265805 -12.84375,7.59375 -6.037895,1.617534 -9.649396,7.834657 -8.03125,13.875 1.620595,6.039118 7.83282,9.619983 13.875,8 4.508523,-1.151008 9.13418,-1.295703 13.5625,-0.25 0.206324,0.05143 0.419288,0.100536 0.625,0.15625 0.206325,0.0551 0.420512,0.129338 0.625,0.1875 4.357912,1.308354 8.296261,3.71837 11.625,6.96875 0.408975,0.40959 0.763754,0.70424 1.09375,0.9375 4.47485,3.41017 10.82629,3.14245 14.90625,-0.9375 4.14118,-4.13873 4.39468,-10.677701 0.78125,-15.125 -0.1751,-0.236936 -0.46901,-0.5548 -0.78125,-0.875 -3.24854,-3.333638 -5.661621,-7.265251 -6.96875,-11.625 -0.06,-0.202651 -0.133623,-0.421737 -0.1875,-0.625 -0.05633,-0.204487 -0.106047,-0.386202 -0.15625,-0.59375 -1.046315,-4.426483 -0.901621,-9.053365 0.25,-13.5625 0,0 0.173444,-0.755769 0.21875,-1.0625 C 68.811698,25.52126 65.315755,19.931948 59.625,18.40625 58.537091,18.114786 57.445424,17.969555 56.375,18 z m 0.03125,1.0625 c 0.966465,-0.02631 1.9431,0.07734 2.9375,0.34375 5.186023,1.390379 8.380917,6.439789 7.5,11.625 A 1.0278728,1.0278728 0 0 0 66.8125,31.0625 c -0.02479,0.167828 -0.177359,0.922615 -0.1875,0.96875 -3.16e-4,0.0014 0,0.03125 0,0.03125 -1.181134,4.642945 -1.335704,9.438128 -0.25,14.03125 0.05187,0.214428 0.10259,0.398809 0.15625,0.59375 0.0029,0.01103 -0.003,0.02031 0,0.03125 0.06431,0.237483 0.137529,0.456223 0.1875,0.625 1.358244,4.530237 3.865866,8.621785 7.21875,12.0625 0.299948,0.307594 0.609238,0.633064 0.71875,0.78125 a 1.0278728,1.0278728 0 0 0 0,0.03125 c 3.287681,4.046376 3.085662,9.97907 -0.6875,13.75 -3.718739,3.718729 -9.48118,3.95402 -13.5625,0.84375 A 1.0278728,1.0278728 0 0 0 60.375,74.78125 c -0.280394,-0.198198 -0.595626,-0.438815 -0.96875,-0.8125 a 1.0278728,1.0278728 0 0 0 0,-0.03125 C 55.969279,70.581436 51.871241,68.109266 47.34375,66.75 a 1.0278728,1.0278728 0 0 0 0,-0.03125 c -0.157526,-0.0448 -0.382246,-0.121228 -0.625,-0.1875 -0.01118,-0.0031 -0.01992,0.003 -0.03125,0 C 46.467593,66.472443 46.247998,66.421239 46.0625,66.375 41.457745,65.287634 36.651771,65.437421 32,66.625 a 1.0278728,1.0278728 0 0 0 -0.03125,0 C 26.46268,68.101245 20.851549,64.846085 19.375,59.34375 17.901377,53.842894 21.186507,48.2237 26.6875,46.75 31.822867,45.374183 36.392329,42.661784 40,38.875 a 1.0278728,1.0278728 0 0 0 0,-0.03125 c 3.181357,-3.414232 5.431536,-7.56256 6.71875,-12.125 a 1.0278728,1.0278728 0 0 0 0,-0.0625 c 9.18e-4,-0.004 0.01121,-0.0072 0.0625,-0.15625 0.05129,-0.149085 0.126058,-0.325585 0.15625,-0.40625 a 1.0278728,1.0278728 0 0 0 0,-0.03125 c 1.295105,-3.830571 4.677893,-6.463248 8.5,-6.9375 0.31748,-0.03939 0.646595,-0.05373 0.96875,-0.0625 z m -6,19.75 c -0.398744,0.01454 -0.797335,0.03939 -1.1875,0.09375 -4.678291,0.651803 -8.734476,4.03852 -10.03125,8.875 -1.727793,6.448332 2.115935,13.116431 8.5625,14.84375 6.450472,1.728318 13.115894,-2.115757 14.84375,-8.5625 1.72837,-6.448664 -2.113923,-13.115272 -8.5625,-14.84375 -1.2056,-0.323033 -2.428767,-0.449885 -3.625,-0.40625 z m 0.03125,1.03125 c 1.089305,-0.0434 2.204157,0.07803 3.3125,0.375 5.913609,1.585085 9.428223,7.650727 7.84375,13.5625 -1.584473,5.911773 -7.64889,9.428223 -13.5625,7.84375 -5.911161,-1.583861 -9.427611,-7.65134 -7.84375,-13.5625 1.287882,-4.803316 5.52968,-8.03066 10.25,-8.21875 z"
         inkscape:connector-curvature="0"
         id="path4078"
         style="opacity:0.25;fill:url(#linearGradient3303);fill-opacity:1" />
    </g>
  </g>
</svg>
