<?xml version="1.0" encoding="UTF-8" standalone="no"?>
<!-- Created with Inkscape (http://www.inkscape.org/) -->

<svg
   xmlns:osb="http://www.openswatchbook.org/uri/2009/osb"
   xmlns:dc="http://purl.org/dc/elements/1.1/"
   xmlns:cc="http://creativecommons.org/ns#"
   xmlns:rdf="http://www.w3.org/1999/02/22-rdf-syntax-ns#"
   xmlns:svg="http://www.w3.org/2000/svg"
   xmlns="http://www.w3.org/2000/svg"
   xmlns:xlink="http://www.w3.org/1999/xlink"
   xmlns:sodipodi="http://sodipodi.sourceforge.net/DTD/sodipodi-0.dtd"
   xmlns:inkscape="http://www.inkscape.org/namespaces/inkscape"
   version="1.0"
   width="128"
   height="128"
   id="svg3367"
   inkscape:version="0.48.1 r9760"
   sodipodi:docname="5.svg">
  <metadata
     id="metadata71">
    <rdf:RDF>
      <cc:Work
         rdf:about="">
        <dc:format>image/svg+xml</dc:format>
        <dc:type
           rdf:resource="http://purl.org/dc/dcmitype/StillImage" />
        <dc:title></dc:title>
      </cc:Work>
    </rdf:RDF>
  </metadata>
  <sodipodi:namedview
     pagecolor="#ffffff"
     bordercolor="#666666"
     borderopacity="1"
     objecttolerance="10"
     gridtolerance="10"
     guidetolerance="10"
     inkscape:pageopacity="0"
     inkscape:pageshadow="2"
     inkscape:window-width="1244"
     inkscape:window-height="939"
     id="namedview69"
     showgrid="false"
     inkscape:zoom="5.8671875"
     inkscape:cx="64"
     inkscape:cy="64"
     inkscape:window-x="428"
     inkscape:window-y="24"
     inkscape:window-maximized="0"
     inkscape:current-layer="svg3367" />
  <defs
     id="defs3369">
    <linearGradient
       id="linearGradient4157">
      <stop
         style="stop-color:#1893b9;stop-opacity:1;"
         offset="0"
         id="stop4159" />
      <stop
         style="stop-color:#185eb9;stop-opacity:1;"
         offset="1"
         id="stop4161" />
    </linearGradient>
    <linearGradient
       id="linearGradient4155"
       osb:paint="solid">
      <stop
         style="stop-color:#314253;stop-opacity:1;"
         offset="0"
         id="stop4157" />
    </linearGradient>
    <linearGradient
       id="linearGradient23419">
      <stop
         id="stop23421"
         style="stop-color:#000000;stop-opacity:1"
         offset="0" />
      <stop
         id="stop23423"
         style="stop-color:#000000;stop-opacity:0"
         offset="1" />
    </linearGradient>
    <linearGradient
       id="linearGradient3772">
      <stop
         id="stop3774"
         style="stop-color:#b4b4b4;stop-opacity:1"
         offset="0" />
      <stop
         id="stop3776"
         style="stop-color:#969696;stop-opacity:1"
         offset="1" />
    </linearGradient>
    <linearGradient
       x1="12.2744"
       y1="32.4165"
       x2="35.391201"
       y2="14.2033"
       id="linearGradient3263"
       gradientUnits="userSpaceOnUse">
      <stop
         id="stop3265"
         style="stop-color:#dedbde;stop-opacity:1"
         offset="0" />
      <stop
         id="stop3267"
         style="stop-color:#e6e6e6;stop-opacity:1"
         offset="0.5" />
      <stop
         id="stop3269"
         style="stop-color:#d2d2d2;stop-opacity:1"
         offset="1" />
    </linearGradient>
    <linearGradient
       id="linearGradient3428">
      <stop
         id="stop3430"
         style="stop-color:#aaaaaa;stop-opacity:1"
         offset="0" />
      <stop
         id="stop3432"
         style="stop-color:#d4d4d4;stop-opacity:1"
         offset="1" />
    </linearGradient>
    <linearGradient
       id="linearGradient6036">
      <stop
         id="stop6038"
         style="stop-color:#ffffff;stop-opacity:1"
         offset="0" />
      <stop
         id="stop6040"
         style="stop-color:#ffffff;stop-opacity:0"
         offset="1" />
    </linearGradient>
    <linearGradient
       id="linearGradient3519">
      <stop
         id="stop3521"
         style="stop-color:#fcd9cd;stop-opacity:1"
         offset="0" />
      <stop
         id="stop3523"
         style="stop-color:#fcd9cd;stop-opacity:0"
         offset="1" />
    </linearGradient>
    <linearGradient
       id="linearGradient3511">
      <stop
         id="stop3513"
         style="stop-color:#ebeec7;stop-opacity:1"
         offset="0" />
      <stop
         id="stop3515"
         style="stop-color:#ebeec7;stop-opacity:0"
         offset="1" />
    </linearGradient>
    <linearGradient
       id="linearGradient3503">
      <stop
         id="stop3505"
         style="stop-color:#c4ebdd;stop-opacity:1"
         offset="0" />
      <stop
         id="stop3507"
         style="stop-color:#c4ebdd;stop-opacity:0"
         offset="1" />
    </linearGradient>
    <linearGradient
       id="linearGradient3495">
      <stop
         id="stop3497"
         style="stop-color:#c1cbe4;stop-opacity:1"
         offset="0" />
      <stop
         id="stop3499"
         style="stop-color:#c1cbe4;stop-opacity:0"
         offset="1" />
    </linearGradient>
    <linearGradient
       id="linearGradient3487">
      <stop
         id="stop3489"
         style="stop-color:#e6cde2;stop-opacity:1"
         offset="0" />
      <stop
         id="stop3491"
         style="stop-color:#e6cde2;stop-opacity:0"
         offset="1" />
    </linearGradient>
    <radialGradient
       cx="23.334524"
       cy="41.63604"
       r="22.627417"
       fx="23.334524"
       fy="41.63604"
       id="radialGradient2584"
       xlink:href="#linearGradient23419"
       gradientUnits="userSpaceOnUse"
       gradientTransform="matrix(2.6516504,0,0,0.7954211,2.1249955,72.881817)" />
    <linearGradient
       x1="10.50172"
       y1="3.6100161"
       x2="48.798885"
       y2="54.698483"
       id="linearGradient2642"
       xlink:href="#linearGradient6036"
       gradientUnits="userSpaceOnUse"
       gradientTransform="matrix(2.7528548,0,0,2.7528545,-3.0237572,-4.8213527)" />
    <linearGradient
       x1="18.775953"
       y1="4.0378027"
       x2="18.203465"
       y2="45.962208"
       id="linearGradient2651"
       xlink:href="#linearGradient6036"
       gradientUnits="userSpaceOnUse"
       gradientTransform="matrix(1.0859888,0,0,1.0859883,37.559418,36.850296)" />
    <linearGradient
       x1="21.448364"
       y1="15.5"
       x2="21.448364"
       y2="32.509201"
       id="linearGradient2654"
       xlink:href="#linearGradient3428"
       gradientUnits="userSpaceOnUse"
       gradientTransform="matrix(2.5381093,0,0,2.5381093,3.0853666,3.0853861)" />
    <linearGradient
       x1="12.2744"
       y1="32.4165"
       x2="35.391201"
       y2="14.2033"
       id="linearGradient2658"
       xlink:href="#linearGradient3263"
       gradientUnits="userSpaceOnUse"
       gradientTransform="matrix(0,3.1714559,-3.1714559,0,137.26064,-12.114951)" />
    <linearGradient
       x1="-21.915663"
       y1="3"
       x2="-21.915663"
       y2="45.032898"
       id="linearGradient2660"
       xlink:href="#linearGradient3772"
       gradientUnits="userSpaceOnUse"
       gradientTransform="matrix(2.7073165,0,0,2.7073165,135.10782,-0.9755887)" />
    <linearGradient
       x1="20.580074"
       y1="10.774516"
       x2="24.27351"
       y2="9.8622112"
       id="linearGradient2672"
       xlink:href="#linearGradient3487"
       gradientUnits="userSpaceOnUse"
       spreadMethod="reflect" />
    <linearGradient
       x1="17.494959"
       y1="11.200086"
       x2="21.047453"
       y2="9.7956104"
       id="linearGradient2674"
       xlink:href="#linearGradient3495"
       gradientUnits="userSpaceOnUse"
       spreadMethod="reflect" />
    <linearGradient
       x1="14.084608"
       y1="13.045606"
       x2="16.994024"
       y2="10.732353"
       id="linearGradient2676"
       xlink:href="#linearGradient3503"
       gradientUnits="userSpaceOnUse"
       spreadMethod="reflect" />
    <linearGradient
       x1="12.371647"
       y1="16.188046"
       x2="14.609327"
       y2="13.461712"
       id="linearGradient2678"
       xlink:href="#linearGradient3511"
       gradientUnits="userSpaceOnUse"
       spreadMethod="reflect" />
    <linearGradient
       x1="10.609375"
       y1="17.886322"
       x2="9.7297754"
       y2="20.612656"
       id="linearGradient2680"
       xlink:href="#linearGradient3519"
       gradientUnits="userSpaceOnUse"
       spreadMethod="reflect" />
    <linearGradient
       x1="20.580074"
       y1="10.774516"
       x2="24.27351"
       y2="9.8622112"
       id="linearGradient2682"
       xlink:href="#linearGradient3487"
       gradientUnits="userSpaceOnUse"
       spreadMethod="reflect" />
    <linearGradient
       x1="17.494959"
       y1="11.200086"
       x2="21.047453"
       y2="9.7956104"
       id="linearGradient2684"
       xlink:href="#linearGradient3495"
       gradientUnits="userSpaceOnUse"
       spreadMethod="reflect" />
    <linearGradient
       x1="14.084608"
       y1="13.045606"
       x2="16.994024"
       y2="10.732353"
       id="linearGradient2686"
       xlink:href="#linearGradient3503"
       gradientUnits="userSpaceOnUse"
       spreadMethod="reflect" />
    <linearGradient
       x1="12.371647"
       y1="16.188046"
       x2="14.609327"
       y2="13.461712"
       id="linearGradient2688"
       xlink:href="#linearGradient3511"
       gradientUnits="userSpaceOnUse"
       spreadMethod="reflect" />
    <linearGradient
       x1="10.609375"
       y1="17.886322"
       x2="9.7297754"
       y2="20.612656"
       id="linearGradient2690"
       xlink:href="#linearGradient3519"
       gradientUnits="userSpaceOnUse"
       spreadMethod="reflect" />
    <radialGradient
       cx="4.9929786"
       cy="43.5"
       r="2.5"
       fx="4.9929786"
       fy="43.5"
       id="radialGradient2455"
       xlink:href="#linearGradient3688-166-749"
       gradientUnits="userSpaceOnUse"
       gradientTransform="matrix(2.003784,0,0,3.1044587,27.663048,-100.8976)" />
    <linearGradient
       id="linearGradient3688-166-749">
      <stop
         id="stop2883"
         style="stop-color:#181818;stop-opacity:1"
         offset="0" />
      <stop
         id="stop2885"
         style="stop-color:#181818;stop-opacity:0"
         offset="1" />
    </linearGradient>
    <radialGradient
       cx="4.9929786"
       cy="43.5"
       r="2.5"
       fx="4.9929786"
       fy="43.5"
       id="radialGradient2457"
       xlink:href="#linearGradient3688-464-309"
       gradientUnits="userSpaceOnUse"
       gradientTransform="matrix(2.003784,0,0,3.1044587,-19.686788,-169.19031)" />
    <linearGradient
       id="linearGradient3688-464-309">
      <stop
         id="stop2889"
         style="stop-color:#181818;stop-opacity:1"
         offset="0" />
      <stop
         id="stop2891"
         style="stop-color:#181818;stop-opacity:0"
         offset="1" />
    </linearGradient>
    <linearGradient
       x1="25.058096"
       y1="47.027729"
       x2="25.058096"
       y2="39.999443"
       id="linearGradient2459"
       xlink:href="#linearGradient3702-501-757"
       gradientUnits="userSpaceOnUse"
       gradientTransform="matrix(1,0,0,2.2174705,-0.32508164,-62.31362)" />
    <linearGradient
       id="linearGradient3702-501-757">
      <stop
         id="stop2895"
         style="stop-color:#181818;stop-opacity:0"
         offset="0" />
      <stop
         id="stop2897"
         style="stop-color:#181818;stop-opacity:1"
         offset="0.5" />
      <stop
         id="stop2899"
         style="stop-color:#181818;stop-opacity:0"
         offset="1" />
    </linearGradient>
    <linearGradient
       id="linearGradient2867-449-88-871-390-598-476-591-434-148-9-7">
      <stop
         offset="0"
         style="stop-color:#d3673a;stop-opacity:1;"
         id="stop4627-2-7" />
      <stop
         offset="0.26238"
         style="stop-color:#d33740;stop-opacity:1;"
         id="stop4629-8-6" />
      <stop
         offset="0.704952"
         style="stop-color:#c03939;stop-opacity:1;"
         id="stop4631-3-4" />
      <stop
         offset="1"
         style="stop-color:#5b0000;stop-opacity:1;"
         id="stop4633-0-3" />
    </linearGradient>
    <linearGradient
       inkscape:collect="always"
       xlink:href="#linearGradient3332-412-419-652-471-761-410-156-661-505-7-3"
       id="linearGradient3264"
       gradientUnits="userSpaceOnUse"
       gradientTransform="matrix(2.641026,0,0,2.6410259,0.61538325,3.6153768)"
       x1="24"
       y1="44"
       x2="24"
       y2="3.8990016" />
    <linearGradient
       id="linearGradient3332-412-419-652-471-761-410-156-661-505-7-3">
      <stop
         offset="0"
         style="stop-color:#205886;stop-opacity:1;"
         id="stop8032-8-0" />
      <stop
         offset="1"
         style="stop-color:#547ebe;stop-opacity:1;"
         id="stop8034-9-9" />
    </linearGradient>
    <linearGradient
       x1="23.99999"
       y1="4.999989"
       x2="23.99999"
       y2="43"
       id="linearGradient2470"
       xlink:href="#linearGradient3308-4-6-931-761"
       gradientUnits="userSpaceOnUse"
       gradientTransform="matrix(2.729731,0,0,2.7297289,-1.5135159,1.4865157)" />
    <linearGradient
       id="linearGradient3308-4-6-931-761">
      <stop
         id="stop2919"
         style="stop-color:#ffffff;stop-opacity:1"
         offset="0" />
      <stop
         id="stop2921"
         style="stop-color:#ffffff;stop-opacity:0"
         offset="1" />
    </linearGradient>
    <linearGradient
       inkscape:collect="always"
       xlink:href="#linearGradient4155"
       id="linearGradient4159"
       x1="18.056339"
       y1="99.237598"
       x2="121.1496"
       y2="99.237598"
       gradientUnits="userSpaceOnUse" />
    <radialGradient
       cx="69.447609"
       cy="51.694645"
       r="31.000002"
       fx="69.447609"
       fy="51.694645"
       id="radialGradient2890"
       xlink:href="#linearGradient3242"
       gradientUnits="userSpaceOnUse"
       gradientTransform="matrix(0,-1.2327095,-3.3652315,0,251.8027,190.73164)" />
    <linearGradient
       id="linearGradient3242">
      <stop
         id="stop3244"
         style="stop-color:#7ef8d0;stop-opacity:1;"
         offset="0" />
      <stop
         id="stop3250"
         style="stop-color:#1893b9;stop-opacity:1;"
         offset="1" />
    </linearGradient>
    <linearGradient
       x1="72.421684"
       y1="122.00002"
       x2="72.421684"
       y2="53.997635"
       id="linearGradient2892"
       xlink:href="#linearGradient2490"
       gradientUnits="userSpaceOnUse"
       gradientTransform="matrix(1.2849473,0,0,-0.5162361,-24.782237,137.28776)" />
    <linearGradient
       id="linearGradient2490">
      <stop
         id="stop2492"
         style="stop-color:#80f1e3;stop-opacity:1;"
         offset="0" />
      <stop
         id="stop2494"
         style="stop-color:#1868a7;stop-opacity:1;"
         offset="1" />
    </linearGradient>
    <linearGradient
       x1="83.216866"
       y1="54.000008"
       x2="83.216866"
       y2="122.16803"
       id="linearGradient2887"
       xlink:href="#linearGradient3607"
       gradientUnits="userSpaceOnUse"
       gradientTransform="matrix(1.2923611,0,0,-0.51309666,-17.163275,142.78191)" />
    <linearGradient
       id="linearGradient3607">
      <stop
         id="stop3609"
         style="stop-color:#ffffff;stop-opacity:1"
         offset="0" />
      <stop
         id="stop3611"
         style="stop-color:#ffffff;stop-opacity:0"
         offset="1" />
    </linearGradient>
    <radialGradient
       r="31.000002"
       fy="55.367188"
       fx="132.43513"
       cy="55.367188"
       cx="132.43513"
       gradientTransform="matrix(0.65104477,-0.0166954,-0.02051938,-0.80016266,-20.380506,105.26104)"
       gradientUnits="userSpaceOnUse"
       id="radialGradient3344"
       xlink:href="#linearGradient3242"
       inkscape:collect="always" />
    <linearGradient
       y2="53.997635"
       x2="72.421684"
       y1="122.00002"
       x1="72.421684"
       gradientTransform="matrix(1.2849473,0,0,-0.70099855,-48.216948,144.00966)"
       gradientUnits="userSpaceOnUse"
       id="linearGradient3346"
       xlink:href="#linearGradient2490"
       inkscape:collect="always" />
    <radialGradient
       inkscape:collect="always"
       xlink:href="#radialGradient5147-5"
       id="radialGradient3013"
       gradientUnits="userSpaceOnUse"
       gradientTransform="matrix(9.3840674,0,0,1.6129099,-254.95046,-202.28797)"
       cx="33.875"
       cy="197.3"
       r="4.8438001" />
    <radialGradient
       id="radialGradient5147-5"
       gradientUnits="userSpaceOnUse"
       cy="197.3"
       cx="33.875"
       gradientTransform="matrix(1,0,0,0.33871,0,130.47)"
       r="4.8438001">
      <stop
         id="stop6464-5-9-94-5-4-4"
         offset="0" />
      <stop
         id="stop6466-3-6-1-7-2-8"
         style="stop-opacity:0"
         offset="1" />
    </radialGradient>
    <linearGradient
       id="linearGradient4018"
       y2="75.139"
       gradientUnits="userSpaceOnUse"
       x2="50.683998"
       y1="83.781998"
       x1="39.842999"
       gradientTransform="matrix(3.0303902,0,0,3.0303902,-42.434392,-162.97289)">
      <stop
         id="stop3268"
         style="stop-color:#387ab8"
         offset="0" />
      <stop
         id="stop3270"
         style="stop-color:#387ab8;stop-opacity:0"
         offset="1" />
    </linearGradient>
    <radialGradient
       inkscape:collect="always"
       xlink:href="#radialGradient5147-5"
       id="radialGradient3015"
       gradientUnits="userSpaceOnUse"
       gradientTransform="matrix(12.903093,0,0,1.9062012,-374.59549,-273.88719)"
       cx="33.875"
       cy="197.3"
       r="4.8438001" />
    <radialGradient
       id="radialGradient3035"
       gradientUnits="userSpaceOnUse"
       cy="197.3"
       cx="33.875"
       gradientTransform="matrix(1,0,0,0.33871,0,130.47)"
       r="4.8438001">
      <stop
         id="stop3037"
         offset="0" />
      <stop
         id="stop3039"
         style="stop-opacity:0"
         offset="1" />
    </radialGradient>
    <linearGradient
       id="linearGradient4008"
       y2="73.264"
       gradientUnits="userSpaceOnUse"
       x2="53.808998"
       gradientTransform="matrix(3.0303902,0,0,3.0303902,-57.586343,-162.97289)"
       y1="84.719002"
       x1="42.030998">
      <stop
         id="stop3278"
         style="stop-color:#6396cd"
         offset="0" />
      <stop
         id="stop3280"
         style="stop-color:#83acd5;stop-opacity:0"
         offset="1" />
    </linearGradient>
    <linearGradient
       id="linearGradient4593-5-8-1-5-2-3"
       y2="83.575996"
       xlink:href="#linearGradient3533"
       gradientUnits="userSpaceOnUse"
       x2="35.995998"
       gradientTransform="matrix(3.0303902,0,0,3.0303902,-57.586343,-162.97289)"
       y1="53.838001"
       x1="34.980999" />
    <linearGradient
       id="linearGradient3533">
      <stop
         id="stop3535"
         style="stop-color:#93b9dd"
         offset="0" />
      <stop
         id="stop3545"
         style="stop-color:#6396cd"
         offset="1" />
    </linearGradient>
    <linearGradient
       id="linearGradient4593-5-8-1-5-2"
       y2="91.942001"
       xlink:href="#linearGradient3533"
       gradientUnits="userSpaceOnUse"
       x2="118.48"
       gradientTransform="matrix(2.840902,0,0,2.840902,-288.17525,-156.24848)"
       y1="55.060001"
       x1="118.48" />
    <linearGradient
       id="linearGradient3049">
      <stop
         id="stop3051"
         style="stop-color:#93b9dd"
         offset="0" />
      <stop
         id="stop3053"
         style="stop-color:#6396cd"
         offset="1" />
    </linearGradient>
    <linearGradient
       id="linearGradient5480"
       y2="72.780998"
       gradientUnits="userSpaceOnUse"
       x2="103.56"
       gradientTransform="matrix(2.840902,0,0,2.840902,-273.9679,-156.24848)"
       y1="49.780998"
       x1="102.56">
      <stop
         id="stop5476"
         style="stop-color:#fff"
         offset="0" />
      <stop
         id="stop5478"
         style="stop-color:#fff;stop-opacity:0"
         offset="1" />
    </linearGradient>
    <linearGradient
       id="linearGradient5497"
       y2="71.780998"
       gradientUnits="userSpaceOnUse"
       x2="108.56"
       gradientTransform="matrix(2.840902,0,0,2.840902,-273.9679,-156.24848)"
       y1="102.78"
       x1="108.56">
      <stop
         id="stop5493"
         style="stop-color:#fff"
         offset="0" />
      <stop
         id="stop5495"
         style="stop-color:#fff;stop-opacity:0"
         offset="1" />
    </linearGradient>
    <radialGradient
       r="4.8438001"
       cy="197.3"
       cx="33.875"
       gradientTransform="matrix(9.3840674,0,0,1.6129099,-255.3884,-216.03863)"
       gradientUnits="userSpaceOnUse"
       id="radialGradient3072"
       xlink:href="#radialGradient5147-5"
       inkscape:collect="always" />
    <radialGradient
       inkscape:collect="always"
       xlink:href="#radialGradient5147-5"
       id="radialGradient5280"
       gradientUnits="userSpaceOnUse"
       gradientTransform="matrix(9.8262866,0,0,1.7052248,-272.10707,-219.9332)"
       cx="33.875"
       cy="197.3"
       r="4.8438001" />
    <linearGradient
       inkscape:collect="always"
       xlink:href="#linearGradient4018"
       id="linearGradient5282"
       gradientUnits="userSpaceOnUse"
       gradientTransform="matrix(3.1731958,0,0,3.2038346,-49.117722,-163.83023)"
       x1="39.842999"
       y1="83.781998"
       x2="50.683998"
       y2="75.139" />
    <radialGradient
       inkscape:collect="always"
       xlink:href="#radialGradient5147-5"
       id="radialGradient5284"
       gradientUnits="userSpaceOnUse"
       gradientTransform="matrix(13.511144,0,0,2.0153027,-396.93173,-281.09272)"
       cx="33.875"
       cy="197.3"
       r="4.8438001" />
    <linearGradient
       inkscape:collect="always"
       xlink:href="#linearGradient4008"
       id="linearGradient5286"
       gradientUnits="userSpaceOnUse"
       gradientTransform="matrix(3.1731958,0,0,3.2038346,-64.983701,-163.83023)"
       x1="42.030998"
       y1="84.719002"
       x2="53.808998"
       y2="73.264" />
    <linearGradient
       inkscape:collect="always"
       xlink:href="#linearGradient3533"
       id="linearGradient5288"
       gradientUnits="userSpaceOnUse"
       gradientTransform="matrix(3.1731958,0,0,3.2038346,-64.983701,-163.83023)"
       x1="34.980999"
       y1="53.838001"
       x2="35.995998"
       y2="83.575996" />
    <linearGradient
       inkscape:collect="always"
       xlink:href="#linearGradient3533"
       id="linearGradient5290"
       gradientUnits="userSpaceOnUse"
       gradientTransform="matrix(2.9747781,0,0,3.003501,-306.43899,-156.72095)"
       x1="118.48"
       y1="55.060001"
       x2="118.48"
       y2="91.942001" />
    <linearGradient
       inkscape:collect="always"
       xlink:href="#linearGradient5480"
       id="linearGradient5292"
       gradientUnits="userSpaceOnUse"
       gradientTransform="matrix(2.9747781,0,0,3.003501,-291.56213,-156.72095)"
       x1="102.56"
       y1="49.780998"
       x2="103.56"
       y2="72.780998" />
    <linearGradient
       inkscape:collect="always"
       xlink:href="#linearGradient5497"
       id="linearGradient5294"
       gradientUnits="userSpaceOnUse"
       gradientTransform="matrix(2.9747781,0,0,3.003501,-291.56213,-156.72095)"
       x1="108.56"
       y1="102.78"
       x2="108.56"
       y2="71.780998" />
  </defs>
  <path
     d="M 124,105.99999 C 124.00309,115.94084 97.139272,124 64,124 30.860727,124 3.9969077,115.94084 3.999998,105.99999 3.9969077,96.059149 30.860727,88 64,88 c 33.139272,0 60.00309,8.059149 60,17.99999 z"
     id="path23417"
     style="opacity:0.3;fill:url(#radialGradient2584);fill-opacity:1;fill-rule:evenodd;stroke:none;stroke-width:2;marker:none;visibility:visible;display:inline;overflow:visible" />
  <path
     d="M 119.49998,64.000008 C 119.49998,33.236876 94.763115,8.5000192 63.999988,8.5000192 33.236854,8.5000192 8.5,33.236878 8.5,64.000008 8.4999946,94.763138 33.236857,119.5 63.999988,119.5 c 30.763124,-1e-5 55.499992,-24.73686 55.499992,-55.499992 z m -35.195118,0 c 0,11.176154 -8.905094,20.304874 -20.304874,20.304874 -11.623403,0 -20.304874,-9.354626 -20.304874,-20.304874 0,-11.173915 8.234215,-20.304874 20.304874,-20.304874 12.07066,0 20.304874,9.352343 20.304874,20.304874 z"
     id="path2781"
     style="fill:url(#linearGradient2658);fill-rule:nonzero;stroke:url(#linearGradient2660);stroke-width:1;stroke-miterlimit:4;stroke-opacity:1" />
  <path
     d="m 63.999988,43.000008 c -11.592,0 -21,9.408 -21,21 0,11.592001 9.408,21 21,21 11.592,0 21,-9.407999 21,-21 0,-11.592 -9.408,-21 -21,-21 z m 0,10.500001 c 5.796,0 10.5,4.703999 10.5,10.499999 0,5.796 -4.704,10.5 -10.5,10.5 -5.796,0 -10.5,-4.704 -10.5,-10.5 0,-5.796 4.704,-10.499999 10.5,-10.499999 z"
     id="path2474"
     style="opacity:0.5;fill:#ffffff;fill-opacity:1;fill-rule:nonzero;stroke:none;stroke-width:1;marker:none;visibility:visible;display:inline;overflow:visible;enable-background:accumulate" />
  <path
     d="m 63.999988,43.695134 c -11.20829,0 -20.304874,9.096584 -20.304874,20.304874 0,11.20829 9.096584,20.304874 20.304874,20.304874 11.20829,0 20.304874,-9.096584 20.304874,-20.304874 0,-11.20829 -9.096584,-20.304874 -20.304874,-20.304874 z m 0,10.152436 c 5.604145,0 10.152437,4.548293 10.152437,10.152438 0,5.604145 -4.548292,10.152436 -10.152437,10.152436 -5.604145,0 -10.152437,-4.548291 -10.152437,-10.152436 0,-5.604145 4.548292,-10.152438 10.152437,-10.152438 z"
     id="path3418"
     style="fill:none;stroke:url(#linearGradient2654);stroke-width:1;stroke-linecap:butt;stroke-linejoin:round;stroke-miterlimit:4;stroke-opacity:1;stroke-dasharray:none;stroke-dashoffset:0;marker:none;visibility:visible;display:inline;overflow:visible;enable-background:accumulate" />
  <g
     transform="matrix(2.7320403,0,0,2.7320403,-1.0900842,-1.0742573)"
     id="g3527">
    <path
       d="M 15.856928,5.7307748 20.625,16.34375 C 21.660403,15.885186 22.795334,15.625 24,15.625 c 0.03206,0 0.06178,-3.6e-4 0.09375,0 L 24.10801,4.0047512 c -2.94215,-0.070687 -5.543041,0.6572865 -8.251083,1.7260236 z"
       transform="matrix(0.9996011,0.02824295,-0.02824295,0.9996011,0.6924114,-0.6708346)"
       id="path3296"
       style="opacity:0.8;fill:url(#linearGradient2672);fill-opacity:1;fill-rule:nonzero;stroke:none" />
    <path
       d="m 12.121471,7.9060109 6.931026,9.3601041 c 0.913109,-0.669755 1.965938,-1.167064 3.142629,-1.425169 0.03132,-0.0069 0.06026,-0.01359 0.09157,-0.02009 L 19.857174,4.426276 c -2.888973,0.5613244 -5.31953,1.8556038 -7.735703,3.4797349 z"
       id="path3308"
       style="opacity:0.8;fill:url(#linearGradient2674);fill-opacity:1;fill-rule:nonzero;stroke:none" />
    <path
       d="m 8.2523933,11.646535 9.2137237,7.155818 c 0.70865,-0.883264 1.596891,-1.636119 2.666685,-2.18998 0.02847,-0.01474 0.05469,-0.02872 0.08325,-0.0431 L 14.86585,6.2506132 C 12.220599,7.5405321 10.165881,9.452393 8.2523933,11.646535 z"
       id="path3310"
       style="opacity:0.8;fill:url(#linearGradient2676);fill-opacity:1;fill-rule:nonzero;stroke:none" />
    <path
       d="m 5.6328855,16.073974 c 7.1748065,2.242248 7.8502625,7.031463 12.7767855,1.754127 L 10.499985,9.1321388 C 8.2787249,11.062747 6.9132871,13.459349 5.6328855,16.073974 z"
       id="path3312"
       style="opacity:0.8;fill:url(#linearGradient2678);fill-opacity:1;fill-rule:nonzero;stroke:none" />
    <path
       d="M 7.155289,13.193173 C 5.9722117,14.945185 5.2475768,16.829547 4.6301929,18.837116 L 15.96875,21.8125 C 16.184264,21.049497 16.486796,20.297733 16.9375,19.59375 16.95479,19.56675 16.98246,19.52673 17,19.5 L 7.155289,13.193173 z"
       id="path3314"
       style="opacity:0.8;fill:url(#linearGradient2680);fill-opacity:1;fill-rule:nonzero;stroke:none" />
  </g>
  <path
     d="M 64.000005,9.5000009 C 33.791433,9.5000009 9.5,33.791433 9.5,64.000001 9.5,94.208571 33.791433,118.5 64.000005,118.5 94.208577,118.5 118.5,94.208571 118.5,64.000001 118.5,33.791433 94.208577,9.5000009 64.000005,9.5000009 l 0,0 0,0 z"
     id="path3272"
     style="opacity:0.5;fill:none;stroke:url(#linearGradient2642);stroke-width:0.99999994;stroke-miterlimit:4;stroke-opacity:1" />
  <g
     transform="matrix(-2.7073165,0,0,-2.7073165,128.97558,128.95078)"
     id="g3297">
    <path
       d="M 15.856928,5.7307748 20.625,16.34375 C 21.660403,15.885186 22.795334,15.625 24,15.625 c 0.03206,0 0.06178,-3.6e-4 0.09375,0 L 24.10801,4.0047512 c -2.94215,-0.070687 -5.543041,0.6572865 -8.251083,1.7260236 z"
       transform="matrix(0.9996011,0.02824295,-0.02824295,0.9996011,0.6924114,-0.6708346)"
       id="path3299"
       style="opacity:0.8;fill:url(#linearGradient2682);fill-opacity:1;fill-rule:nonzero;stroke:none" />
    <path
       d="m 12.121471,7.9060109 6.931026,9.3601041 c 0.913109,-0.669755 1.965938,-1.167064 3.142629,-1.425169 0.03132,-0.0069 0.06026,-0.01359 0.09157,-0.02009 L 19.857174,4.426276 c -2.888973,0.5613244 -5.31953,1.8556038 -7.735703,3.4797349 z"
       id="path3301"
       style="opacity:0.8;fill:url(#linearGradient2684);fill-opacity:1;fill-rule:nonzero;stroke:none" />
    <path
       d="m 8.2523933,11.646535 9.2137237,7.155818 c 0.70865,-0.883264 1.596891,-1.636119 2.666685,-2.18998 0.02847,-0.01474 0.05469,-0.02872 0.08325,-0.0431 L 14.86585,6.2506132 C 12.220599,7.5405321 10.165881,9.452393 8.2523933,11.646535 z"
       id="path3303"
       style="opacity:0.8;fill:url(#linearGradient2686);fill-opacity:1;fill-rule:nonzero;stroke:none" />
    <path
       d="m 5.6328855,16.073974 c 7.1748065,2.242248 7.8502625,7.031463 12.7767855,1.754127 L 10.499985,9.1321388 C 8.2787249,11.062747 6.9132871,13.459349 5.6328855,16.073974 z"
       id="path3305"
       style="opacity:0.8;fill:url(#linearGradient2688);fill-opacity:1;fill-rule:nonzero;stroke:none" />
    <path
       d="M 7.155289,13.193173 C 5.9722117,14.945185 5.2475768,16.829547 4.6301929,18.837116 L 15.96875,21.8125 C 16.184264,21.049497 16.486796,20.297733 16.9375,19.59375 16.95479,19.56675 16.98246,19.52673 17,19.5 L 7.155289,13.193173 z"
       id="path3307"
       style="opacity:0.8;fill:url(#linearGradient2690);fill-opacity:1;fill-rule:nonzero;stroke:none" />
  </g>
  <path
     d="m 63.99999,42.500008 c -11.917147,0 -21.500003,9.582855 -21.500003,21.5 0,11.917145 9.582856,21.5 21.500003,21.5 11.917144,0 21.499999,-9.582855 21.499999,-21.5 0,-11.917145 -9.582855,-21.5 -21.499999,-21.5 l 0,0 0,0 z"
     id="path3281"
     style="opacity:0.8;fill:none;stroke:url(#linearGradient2651);stroke-width:1;stroke-miterlimit:4;stroke-opacity:1" />
  <path
     id="path6460-6-4-4-3-3"
     style="opacity:0.2;color:#000000;fill:url(#radialGradient5280);enable-background:new"
     d="m 108.35692,116.52033 a 47.596566,8.2595491 0 1 1 -95.192157,0 47.596566,8.2595491 0 1 1 95.192157,0 z"
     inkscape:connector-curvature="0" />
  <path
     id="path4010"
     style="color:#000000;fill:none;stroke:url(#linearGradient5282);stroke-width:26.90278625;stroke-linecap:round;enable-background:new"
     d="M 98.137596,88.026385 A 41.648195,42.050331 0 0 1 57.587331,105.60264"
     inkscape:connector-curvature="0" />
  <path
     id="path6460-6-4-4-4"
     style="opacity:0.1;color:#000000;fill:url(#radialGradient5284);enable-background:new"
     d="m 126.20626,116.54147 a 65.445279,9.7614645 0 1 1 -130.8892161,0 65.445279,9.7614645 0 1 1 130.8892161,0 z"
     inkscape:connector-curvature="0" />
  <path
     id="path4788-6"
     style="color:#000000;fill:none;stroke:#387ab8;stroke-width:26.90278625;stroke-linecap:round;enable-background:new"
     d="M 63.664,106.09284 A 41.648195,42.050331 0 1 1 100.56828,44.050564"
     inkscape:connector-curvature="0" />
  <path
     id="path4847"
     style="color:#000000;fill:none;stroke:#387ab8;stroke-width:20.92373657;stroke-linecap:round;stroke-linejoin:round;enable-background:new"
     d="M 108.54552,18.982653 V 52.021165 H 75.822956"
     inkscape:connector-curvature="0" />
  <path
     id="path4006"
     style="color:#000000;fill:none;stroke:url(#linearGradient5286);stroke-width:20.92439079;stroke-linecap:round;enable-background:new"
     d="M 98.077313,88.112886 A 41.648195,42.050331 0 0 1 55.515234,105.2246"
     inkscape:connector-curvature="0" />
  <path
     id="path4788"
     style="color:#000000;fill:none;stroke:url(#linearGradient5288);stroke-width:20.92439079;stroke-linecap:round;enable-background:new"
     d="M 69.309117,105.74041 A 41.648195,42.050331 0 1 1 98.939788,41.269634"
     inkscape:connector-curvature="0" />
  <path
     id="path4847-1"
     style="color:#000000;fill:none;stroke:url(#linearGradient5290);stroke-width:14.94552517;stroke-linecap:round;stroke-linejoin:round;enable-background:new"
     d="M 108.54552,18.982653 V 52.021165 H 75.822956"
     inkscape:connector-curvature="0" />
  <path
     id="path4788-2"
     style="text-indent:0;text-transform:none;block-progression:tb;opacity:0.23999999;color:#000000;fill:none;stroke:#ffffff;stroke-width:2.98910522;enable-background:new"
     d="M 82.486458,91.350209 C 71.556826,98.958975 56.715064,99.317895 45.144069,91.16189 30.239242,80.655342 26.65047,60.126713 37.056243,45.07617 47.462314,30.027427 67.794624,26.404005 82.701237,36.91025 c 3.454313,2.434909 6.258338,5.538456 8.552486,9.104213 H 75.822062 c -3.14315,-0.04487 -6.034336,2.833112 -6.034336,6.007002 0,3.17389 2.891068,6.051755 6.034336,6.007002 h 32.722568 c 3.16069,0.844735 6.13548,-2.158766 5.94955,-6.007002 V 18.982954 c 0.0497,-3.207739 -2.86534,-6.15117 -6.04237,-6.101012 -0.18578,-0.0087 -0.372,-0.0087 -0.55777,0 -2.92346,0.324379 -5.36204,3.132051 -5.29867,6.101012 v 12.201723 c -2.836155,-3.38765 -6.14798,-6.463534 -9.760852,-9.010503 L 92.555635,21.986455 C 84.071569,16.096289 74.488916,13.210225 64.853015,13.069662 48.604183,12.833136 32.416036,20.448663 22.462429,34.845043 6.5342769,57.879193 12.198255,89.81512 35.012422,105.89588 c 18.608427,13.11717 43.08371,11.73076 60.117288,-1.72612"
     inkscape:connector-curvature="0" />
  <path
     id="path4788-2-3"
     style="text-indent:0;text-transform:none;block-progression:tb;opacity:0.3;color:#000000;fill:none;stroke:url(#linearGradient5292);stroke-width:2.98910522;enable-background:new"
     d="m 102.59596,31.184076 c -2.836148,-3.38765 -6.147973,-6.463534 -9.760845,-9.010502 l -0.278736,-0.18772 C 84.072312,16.095688 74.489659,13.209625 64.853759,13.06906 48.604927,12.832534 32.416779,20.448061 22.463172,34.844443 6.5350214,57.878592 12.198999,89.814519 35.013166,105.89527"
     inkscape:connector-curvature="0" />
  <path
     id="path4788-2-3-4"
     style="text-indent:0;text-transform:none;block-progression:tb;opacity:0.3;color:#000000;fill:none;stroke:url(#linearGradient5294);stroke-width:2.98910522;stroke-linecap:round;enable-background:new"
     d="M 90.789063,82.99447 C 80.38329,98.04201 60.047707,101.66724 45.144069,91.160989 30.240432,80.654742 26.649875,60.122808 37.055649,45.075268 47.461422,30.027727 67.797004,26.402503 82.700642,36.908749"
     inkscape:connector-curvature="0" />
</svg>
