<?xml version="1.0" encoding="UTF-8" standalone="no"?>
<svg
   xmlns:dc="http://purl.org/dc/elements/1.1/"
   xmlns:cc="http://creativecommons.org/ns#"
   xmlns:rdf="http://www.w3.org/1999/02/22-rdf-syntax-ns#"
   xmlns:svg="http://www.w3.org/2000/svg"
   xmlns="http://www.w3.org/2000/svg"
   xmlns:xlink="http://www.w3.org/1999/xlink"
   xmlns:sodipodi="http://sodipodi.sourceforge.net/DTD/sodipodi-0.dtd"
   xmlns:inkscape="http://www.inkscape.org/namespaces/inkscape"
   version="1.0"
   width="128"
   height="128"
   id="svg2"
   inkscape:version="0.48.1 r9760"
   sodipodi:docname="aqualung.svg">
  <sodipodi:namedview
     pagecolor="#ffffff"
     bordercolor="#666666"
     borderopacity="1"
     objecttolerance="10"
     gridtolerance="10"
     guidetolerance="10"
     inkscape:pageopacity="0"
     inkscape:pageshadow="2"
     inkscape:window-width="1317"
     inkscape:window-height="980"
     id="namedview112"
     showgrid="false"
     inkscape:zoom="6.1875"
     inkscape:cx="64"
     inkscape:cy="64"
     inkscape:window-x="7"
     inkscape:window-y="24"
     inkscape:window-maximized="0"
     inkscape:current-layer="svg2" />
  <metadata
     id="metadata4">
    <rdf:RDF>
      <cc:Work
         rdf:about="">
        <dc:format>image/svg+xml</dc:format>
        <dc:type
           rdf:resource="http://purl.org/dc/dcmitype/StillImage" />
        <dc:title>drop</dc:title>
        <dc:date>24.04.2007</dc:date>
        <dc:creator>
          <cc:Agent>
            <dc:title>Maja Kocon</dc:title>
          </cc:Agent>
        </dc:creator>
        <dc:publisher>
          <cc:Agent>
            <dc:title>http://ironya.ll.pl/aqualung/</dc:title>
          </cc:Agent>
        </dc:publisher>
        <dc:description>app icon for aqualung</dc:description>
        <cc:license
           rdf:resource="http://www.gnu.org/licenses/gpl.html" />
      </cc:Work>
    </rdf:RDF>
  </metadata>
  <defs
     id="defs6">
    <linearGradient
       id="linearGradient4203">
      <stop
         style="stop-color:#000"
         offset="0"
         id="stop9" />
      <stop
         style="stop-color:#93989f"
         offset="1"
         id="stop11" />
    </linearGradient>
    <linearGradient
       id="linearGradient4155">
      <stop
         style="stop-color:#959597"
         offset="0"
         id="stop14" />
      <stop
         style="stop-color:#e3e3e3"
         offset="0.0941293"
         id="stop16" />
      <stop
         style="stop-color:#9a9b9b"
         offset="0.26282299"
         id="stop18" />
      <stop
         style="stop-color:#242121"
         offset="0.80464798"
         id="stop20" />
      <stop
         style="stop-color:#FFF"
         offset="1"
         id="stop22" />
    </linearGradient>
    <linearGradient
       id="linearGradient7186">
      <stop
         style="stop-color:#FFF"
         offset="0"
         id="stop25" />
      <stop
         style="stop-color:#FFF;stop-opacity:0"
         offset="1"
         id="stop27" />
    </linearGradient>
    <filter
       x="-0.47068116"
       y="-0.25594002"
       width="1.9413623"
       height="1.51188"
       color-interpolation-filters="sRGB"
       id="filter8180">
      <feGaussianBlur
         id="feGaussianBlur4002"
         stdDeviation="2.4004827" />
    </filter>
    <filter
       x="-0.17261355"
       y="-0.099601142"
       width="1.3452271"
       height="1.1992023"
       color-interpolation-filters="sRGB"
       id="filter8252">
      <feGaussianBlur
         id="feGaussianBlur4005"
         stdDeviation="1.6010054" />
    </filter>
    <filter
       x="-0.1893082"
       y="-0.09477827"
       width="1.3786165"
       height="1.1895565"
       color-interpolation-filters="sRGB"
       id="filter8337">
      <feGaussianBlur
         id="feGaussianBlur4008"
         stdDeviation="1.2725694" />
    </filter>
    <filter
       x="-0.40065792"
       y="-0.22020891"
       width="1.8013158"
       height="1.4404178"
       color-interpolation-filters="sRGB"
       id="filter8574">
      <feGaussianBlur
         id="feGaussianBlur4011"
         stdDeviation="0.9683307" />
    </filter>
    <filter
       x="-0.31265441"
       y="-0.20106065"
       width="1.6253088"
       height="1.4021213"
       color-interpolation-filters="sRGB"
       id="filter8694">
      <feGaussianBlur
         id="feGaussianBlur4014"
         stdDeviation="0.57684564" />
    </filter>
    <filter
       x="-0.62969953"
       y="-0.15085129"
       width="2.2593989"
       height="1.3017026"
       color-interpolation-filters="sRGB"
       id="filter9607">
      <feGaussianBlur
         id="feGaussianBlur4017"
         stdDeviation="0.70156881" />
    </filter>
    <filter
       x="-0.20658921"
       y="-0.20395403"
       width="1.4131784"
       height="1.407908"
       color-interpolation-filters="sRGB"
       id="filter9687">
      <feGaussianBlur
         id="feGaussianBlur4020"
         stdDeviation="1.2629632" />
    </filter>
    <filter
       x="-0.1071983"
       y="-0.45971537"
       width="1.2143966"
       height="1.9194309"
       color-interpolation-filters="sRGB"
       id="filter11338">
      <feGaussianBlur
         id="feGaussianBlur4023"
         stdDeviation="18.04218" />
    </filter>
    <radialGradient
       cx="303.392"
       cy="505.35101"
       r="204.468"
       id="radialGradient4580"
       gradientUnits="userSpaceOnUse"
       gradientTransform="matrix(1,0,0,0.24256,0,382.773)">
      <stop
         style="stop-color:#000"
         offset="0"
         id="stop46" />
      <stop
         style="stop-color:#000;stop-opacity:0"
         offset="1"
         id="stop48" />
    </radialGradient>
    <linearGradient
       x1="11.2297"
       y1="19.460899"
       x2="11.2297"
       y2="25.3706"
       id="linearGradient4609"
       xlink:href="#linearGradient7186"
       gradientUnits="userSpaceOnUse"
       gradientTransform="matrix(1.23543,0,0,1.15039,3.94106,6.45462)" />
    <linearGradient
       x1="11.2297"
       y1="19.460899"
       x2="11.2297"
       y2="25.3706"
       id="linearGradient125920"
       xlink:href="#linearGradient7186"
       gradientUnits="userSpaceOnUse"
       gradientTransform="matrix(-1.23543,0,0,1.15039,44.7216,6.45462)" />
    <linearGradient
       x1="-42.136101"
       y1="26.5872"
       x2="-40.456699"
       y2="45.546501"
       id="linearGradient4776"
       xlink:href="#linearGradient4155"
       gradientUnits="userSpaceOnUse"
       gradientTransform="matrix(0.388599,0,0,0.788897,22.3827,5.75849)" />
    <linearGradient
       x1="-42.136101"
       y1="26.5872"
       x2="-40.456699"
       y2="45.546501"
       id="linearGradient4779"
       xlink:href="#linearGradient4155"
       gradientUnits="userSpaceOnUse"
       gradientTransform="matrix(1.5365119,0,0,1.6242257,76.755833,30.376205)" />
    <linearGradient
       x1="-61.320099"
       y1="45.142502"
       x2="-61.598202"
       y2="39.574001"
       id="linearGradient4782"
       xlink:href="#linearGradient4203"
       gradientUnits="userSpaceOnUse"
       gradientTransform="matrix(0.621983,0,0,0.658341,46.6194,-0.228865)" />
    <radialGradient
       cx="-41.7341"
       cy="72.871201"
       r="2.55757"
       id="radialGradient4785"
       gradientUnits="userSpaceOnUse"
       gradientTransform="matrix(2.1336518,0,0,5.5853189,97.794579,-329.11642)">
      <stop
         style="stop-color:#e3e3e3"
         offset="0"
         id="stop56" />
      <stop
         style="stop-color:#9a9b9b"
         offset="0.26282299"
         id="stop58" />
      <stop
         style="stop-color:#242121"
         offset="1"
         id="stop60" />
    </radialGradient>
    <linearGradient
       x1="-42.136101"
       y1="26.5872"
       x2="-40.456699"
       y2="45.546501"
       id="linearGradient4789"
       xlink:href="#linearGradient4155"
       gradientUnits="userSpaceOnUse"
       gradientTransform="matrix(-0.388739,0,0,0.786764,26.1961,5.81174)" />
    <linearGradient
       x1="-42.136101"
       y1="26.5872"
       x2="-40.456699"
       y2="45.546501"
       id="linearGradient4792"
       xlink:href="#linearGradient4155"
       gradientUnits="userSpaceOnUse"
       gradientTransform="matrix(-1.6194091,0,0,1.6194091,47.035027,30.119407)" />
    <radialGradient
       cx="-41.7341"
       cy="72.871201"
       r="2.55757"
       id="radialGradient4795"
       gradientUnits="userSpaceOnUse"
       gradientTransform="matrix(-2.1735814,0,0,5.583034,27.598867,-329.39425)">
      <stop
         style="stop-color:#9a9b9b"
         offset="0"
         id="stop65" />
      <stop
         style="stop-color:#242121"
         offset="1"
         id="stop67" />
    </radialGradient>
    <linearGradient
       x1="-61.320099"
       y1="45.142502"
       x2="-61.598202"
       y2="39.574001"
       id="linearGradient4799"
       xlink:href="#linearGradient4203"
       gradientUnits="userSpaceOnUse"
       gradientTransform="matrix(-0.621983,0,0,0.658342,2.04321,-0.228866)" />
    <linearGradient
       inkscape:collect="always"
       xlink:href="#linearGradient7186"
       id="linearGradient3127"
       gradientUnits="userSpaceOnUse"
       gradientTransform="matrix(3.2078466,0,0,2.9870366,10.636589,16.822564)"
       x1="11.2297"
       y1="19.460899"
       x2="11.2297"
       y2="25.3706" />
    <linearGradient
       inkscape:collect="always"
       xlink:href="#linearGradient4203"
       id="linearGradient3131"
       gradientUnits="userSpaceOnUse"
       gradientTransform="matrix(1.6150054,0,0,1.7094105,121.45272,-0.53138972)"
       x1="-61.320099"
       y1="45.142502"
       x2="-61.598202"
       y2="39.574001" />
    <linearGradient
       inkscape:collect="always"
       xlink:href="#linearGradient4155"
       id="linearGradient3135"
       gradientUnits="userSpaceOnUse"
       gradientTransform="matrix(1.0090139,0,0,2.0484047,58.521093,15.015033)"
       x1="-42.136101"
       y1="26.5872"
       x2="-40.456699"
       y2="45.546501" />
  </defs>
  <path
     d="M 12.308867,67.968178 C 11.191471,34.404489 38.414766,14.431624 63.430377,14.672063 99.686941,15.016806 116.21342,45.166639 115.09586,71.760429"
     style="fill:none;stroke:#000000;stroke-width:2.65448546"
     id="path70"
     inkscape:connector-curvature="0" />
  <path
     d="m 102.016,501.774 a 201.959,47.0937 0 1 1 -0.0504,0.15777"
     transform="matrix(0.15296155,0,0,0.24400049,14.840444,-15.293467)"
     style="fill:url(#radialGradient4580);filter:url(#filter11338)"
     id="path72"
     inkscape:connector-curvature="0" />
  <path
     d="M 58.23859,6.5159854 C 67.730252,33.048237 94.731439,51.520041 100.86915,78.331421 102.55119,91.665707 90.821825,103.13619 79.092203,106.9596 59.543353,114.60642 37.919346,109.56575 27.013867,93.192733 20.124071,83.840766 22.958898,71.214817 28.946473,62.175473 38.299739,47.911107 52.116722,35.69749 55.683852,18.432039 56.747136,14.506793 57.552324,10.519179 58.23859,6.5158556 z"
     style="fill:#5891cc;stroke:#0076b2;stroke-width:2.52005768"
     id="path74"
     inkscape:connector-curvature="0" />
  <path
     d="m 23.1031,6.14338 c 3.71759,10.5436 11.4722,15.7204 14.6283,26.5163 -0.05907,7.0813 -4.92978,11.8267 -14.803,12.0617 -19.358,-7.22729 5.03889,0.73029 5.46292,-12.1757 0.478456,-7.48256 -0.339918,-11.948 -4.8948,-20.1948 0.515304,-1.78863 -0.703714,2.49589 -0.393409,-6.20756 z"
     transform="matrix(2.5263996,0,0,2.5263996,0.8950079,-0.74411662)"
     style="fill:#0b71bd;filter:url(#filter8252)"
     id="path76"
     inkscape:connector-curvature="0" />
  <path
     d="m 22.9187,5.69884 c 3.13617,5.7291 11.9953,16.656 13.0312,22.8371 2.634,4.13708 1.69247,14.1686 -5.40937,15.7296 -2.25005,2.01532 -14.0202,-0.76985 -7.35883,-0.94871 15.4246,-3.95869 7.17598,-18.6104 2.49568,-28.5763 L 22.21157,7.11308 22.918676,5.69887 z"
     transform="matrix(2.5263996,0,0,2.5263996,0.8950079,-0.74411662)"
     style="opacity:0.50657893;fill:#1e3a8d;filter:url(#filter8337)"
     id="path78"
     inkscape:connector-curvature="0" />
  <path
     d="M 22.2252,11.7786 C 18.86308,19.66592 7.2132,30.569 11.6186,33.1686 22.4575,38.33979 23.6046,23.48572 22.577,19.0265 21.51813,16.0213 22.402009,11.24832 22.225232,11.77865 z"
     transform="matrix(2.5263996,0,0,2.5263996,0.8950079,-0.74411662)"
     style="fill:#85c8f2;filter:url(#filter8180)"
     id="path80"
     inkscape:connector-curvature="0" />
  <path
     d="m 48.2847,-211.258 c 3.21086,8.27819 -4.26406,13.3576 -13.9168,14.8617 0,0 5.97448,-2.77127 7.87785,-4.26291 4.06044,-4.64887 6.05615,-8.52338 6.03892,-10.5988 z"
     transform="matrix(3.0372538,0,0,2.5864992,-50.885269,620.72485)"
     style="opacity:0.80921056;fill:#c0daf1;filter:url(#filter9687)"
     id="path82"
     inkscape:connector-curvature="0" />
  <path
     d="m 19.5006,18.4109 c -1.41421,2.2981 -6.89429,7.24784 -5.3033,9.36916 1.59099,2.12132 4.24264,1.23743 4.94975,-1.41421 1.55134,-5.81751 -0.707107,-3.35876 0.353553,-7.95495 z"
     transform="matrix(2.5263996,0,0,2.5263996,0.8950079,-0.74411662)"
     style="fill:#c2e2f9;filter:url(#filter8574)"
     id="path84"
     inkscape:connector-curvature="0" />
  <path
     d="m 18.6192,20.5625 c -1.06991,2.49142 -5.97942,4.48457 -3.23885,6.72685 5.1176,1.07446 3.31295,-3.54055 3.23885,-6.72685 z"
     transform="matrix(2.5263996,0,0,2.5263996,-0.4409444,-0.74411662)"
     style="fill:#f0fafa;filter:url(#filter8694)"
     id="path86"
     inkscape:connector-curvature="0" />
  <path
     d="m 47.8078,-206.112 c 0.545093,7.60298 -4.50717,7.70873 -3.08861,8.06375 4.08109,2.96201 3.16271,-4.87745 3.08861,-8.06375 z"
     transform="matrix(2.7868173,-1.5199148,0.58067522,1.0646889,72.331585,378.83613)"
     style="fill:#f0fafa;filter:url(#filter9607)"
     id="path88"
     inkscape:connector-curvature="0" />
  <path
     d="m 35.934289,74.717631 c -5.903344,5.660515 -0.223277,14.671816 10.021979,15.292883 4.836762,0.208243 10.774821,-0.446086 13.118383,-3.792977 2.823325,-3.488715 1.408297,-8.253682 1.581222,-12.133176 -3.978293,-1.721067 -15.861007,-1.341868 -24.721579,0.63327 z"
     id="path4432"
     style="fill:url(#linearGradient3127);stroke:#000000;stroke-width:1.79298961"
     inkscape:connector-curvature="0" />
  <use
     transform="matrix(-1,0,0,1,127.16169,0)"
     xlink:href="#path4432"
     id="use91"
     x="0"
     y="0"
     width="48"
     height="48" />
  <path
     d="M 30.116735,75.436874 C 54.238357,70.750633 74.754938,71.530895 98.712718,74.77839"
     style="fill:none;stroke:#000000;stroke-width:3.92547846;stroke-linecap:round"
     id="path93"
     inkscape:connector-curvature="0" />
  <rect
     width="3.6640074"
     height="7.6428452"
     x="10.209354"
     y="66.421684"
     id="rect4436"
     style="stroke:#000000;stroke-width:1.22825289;stroke-linejoin:round" />
  <path
     d="m 11.043182,71.778345 c -5.77684,0.986167 -7.9757221,10.069912 -7.3004393,15.104348 0.4404775,6.103953 1.9357745,10.728395 8.1207133,12.787713 0.464885,-7.109853 1.428799,-15.060207 2.008581,-22.237051 -0.942934,-1.917027 -1.885895,-3.737983 -2.828855,-5.65501 z"
     style="fill:url(#radialGradient4785);stroke:#000000;stroke-width:1.24973583"
     id="path96"
     inkscape:connector-curvature="0" />
  <path
     d="m 18.83712,66.453615 5.281654,0 c 3.143478,1.399459 3.738086,5.829446 4.710673,9.065517 1.614871,7.08934 1.025751,26.414108 -1.848549,28.243378 -2.030808,0.79194 -5.375726,0.57435 -7.384022,-0.39052 -0.39483,-6.813852 -0.42965,-14.141036 -1.16647,-21.470296 -0.558465,-4.893704 -1.503217,-14.52506 0.406722,-15.448131 z"
     id="path4440"
     style="fill:url(#linearGradient3131);stroke:#000000;stroke-width:1.29231286"
     inkscape:connector-curvature="0" />
  <path
     d="m 11.431235,71.802493 c 0,0 3.802663,-0.646046 4.142187,-0.646046 2.129131,1.536322 1.807926,16.359128 2.172958,24.1903 0.132411,5.436093 -1.100552,5.481453 -5.364483,4.594011 L 11.431225,71.802545 z"
     style="fill:url(#linearGradient4779);stroke:#575a57;stroke-width:1.22870767"
     id="path99"
     inkscape:connector-curvature="0" />
  <path
     d="m 15.62299,67.259842 c 0,0 2.497183,-0.814744 2.720138,-0.814744 1.398181,1.93754 1.187248,20.631453 1.426961,30.507818 0.08696,6.855754 -0.722722,6.912984 -3.522807,5.793774 L 15.622995,67.259997 z"
     id="path4444"
     style="fill:url(#linearGradient3135);stroke:#575a57;stroke-width:1.27547181"
     inkscape:connector-curvature="0" />
  <use
     transform="matrix(-1,0,0,1,127.16143,0)"
     xlink:href="#path4440"
     id="use102"
     x="0"
     y="0"
     width="48"
     height="48" />
  <use
     transform="translate(103.10092,-0.15475654)"
     xlink:href="#rect4436"
     id="use104"
     x="0"
     y="0"
     width="48"
     height="48" />
  <path
     d="m 115.97375,71.336673 c 5.88496,0.985829 8.12498,10.065809 7.43707,15.098117 -0.44872,6.101433 -1.97198,10.724084 -8.27268,12.782467 -0.47359,-7.106815 -1.45555,-15.053975 -2.04618,-22.227833 0.9606,-1.916196 1.9212,-3.73658 2.8818,-5.652751 z"
     style="fill:url(#radialGradient4795);stroke:#000000;stroke-width:1.26111829"
     id="path106"
     inkscape:connector-curvature="0" />
  <path
     d="m 115.88391,71.422619 c 0,0 -4.00784,-0.644125 -4.36567,-0.644125 -2.244,1.531779 -1.90546,16.310624 -2.29019,24.118558 -0.13956,5.419968 1.15993,5.465198 5.65389,4.580379 l 1.00175,-28.054605 z"
     style="fill:url(#linearGradient4792);stroke:#575a57;stroke-width:1.25954556"
     id="path108"
     inkscape:connector-curvature="0" />
  <use
     transform="matrix(-1,0,0,1,126.95838,0)"
     xlink:href="#path4444"
     id="use110"
     x="0"
     y="0"
     width="48"
     height="48" />
</svg>
