<?xml version="1.0" encoding="UTF-8" standalone="no"?>
<!-- Created with Inkscape (http://www.inkscape.org/) -->

<svg
   xmlns:dc="http://purl.org/dc/elements/1.1/"
   xmlns:cc="http://creativecommons.org/ns#"
   xmlns:rdf="http://www.w3.org/1999/02/22-rdf-syntax-ns#"
   xmlns:svg="http://www.w3.org/2000/svg"
   xmlns="http://www.w3.org/2000/svg"
   xmlns:sodipodi="http://sodipodi.sourceforge.net/DTD/sodipodi-0.dtd"
   xmlns:inkscape="http://www.inkscape.org/namespaces/inkscape"
   width="128"
   height="128"
   id="svg3024"
   version="1.1"
   inkscape:version="0.48.1 r9760"
   sodipodi:docname="avastgui.svg">
  <defs
     id="defs3026" />
  <sodipodi:namedview
     id="base"
     pagecolor="#ffffff"
     bordercolor="#666666"
     borderopacity="1.0"
     inkscape:pageopacity="0.0"
     inkscape:pageshadow="2"
     inkscape:zoom="5.546875"
     inkscape:cx="64.540845"
     inkscape:cy="66.253521"
     inkscape:document-units="px"
     inkscape:current-layer="layer1"
     showgrid="false"
     inkscape:window-width="1370"
     inkscape:window-height="901"
     inkscape:window-x="260"
     inkscape:window-y="25"
     inkscape:window-maximized="0" />
  <metadata
     id="metadata3029">
    <rdf:RDF>
      <cc:Work
         rdf:about="">
        <dc:format>image/svg+xml</dc:format>
        <dc:type
           rdf:resource="http://purl.org/dc/dcmitype/StillImage" />
        <dc:title></dc:title>
      </cc:Work>
    </rdf:RDF>
  </metadata>
  <g
     inkscape:label="Livello 1"
     inkscape:groupmode="layer"
     id="layer1"
     transform="translate(0,-924.36218)">
    <g
       id="g3003"
       transform="matrix(1.4851837,0,0,-1.4851837,73.721452,998.48752)">
      <path
         inkscape:connector-curvature="0"
         d="m 0,0 c -5.716,-5.716 -14.984,-5.715 -20.696,-0.003 -5.715,5.714 -5.715,14.982 0,20.697 5.713,5.713 14.98,5.712 20.693,-10e-4 C 5.71,14.979 5.711,5.713 0,0 m 31.453,-9.799 c -2.48,2.473 -5.599,3.908 -8.83,4.317 -2.654,0.331 -5.177,1.625 -7.21,3.642 -2.811,2.804 -4.064,6.549 -3.781,10.209 0.218,2.779 0.148,5.808 -0.081,8.35 -0.263,2.943 0.986,5.947 3.425,8.008 1.348,1.129 2.912,1.834 4.535,2.127 2.505,0.256 4.942,1.339 6.861,3.247 4.01743,3.998407 4.395684,10.247605 1.134763,14.668365 -0.338939,0.459492 -0.717193,0.89923 -1.134763,1.314635 -4.432,4.413 -11.624,4.413 -16.053,0 C 8.465,44.243 7.389,41.925 7.083,39.525 6.835,37.556 5.864,35.681 4.351,34.17 2.25,32.083 -0.576,30.987 -3.302,31.362 c -5.103,0.701 -5.859,0.645 -11.3,0.123 -2.985,-0.286 -3.96,0.863 -4.612,2.233 -0.356,0.755 -0.488,1.558 -0.426,2.337 0.19,1.178 -0.007,2.427 -0.654,3.54 -1.494,2.572 -4.799,3.452 -7.381,1.963 -2.585,-1.484 -3.47,-4.777 -1.974,-7.345 0.62,-1.077 1.558,-1.853 2.628,-2.289 0.879,-0.355 1.628,-1.03 2.138,-1.909 0.702,-1.213 1.308,-2.664 -0.516,-4.619 -4.713,-5.049 -6.934,-11.502 -6.19,-17.846 0.28,-2.982 -2.013,-4.074 -4.048,-4.843 -1.171,-0.439 -2.385,-0.541 -3.541,-0.356 -1.736,0.418 -3.625,0.27 -5.363,-0.554 -4.016,-1.91 -5.719,-6.697 -3.8,-10.693 1.917,-3.997 6.728,-5.692 10.741,-3.784 1.679,0.795 2.947,2.092 3.724,3.626 0.635,1.257 1.729,2.284 3.104,2.937 1.901,0.902 5.077,1.063 6.666,-0.26 4.574,-3.876 10.376,-5.569 16.023,-5.064 3.962,0.353 8.007,-1.314 10.778,-4.57 1.525,-1.797 2.473,-3.882 2.867,-6.048 0.341,-3.338 1.802,-6.589 4.371,-9.152 5.945,-5.912 15.579,-5.912 21.52,0 5.942,5.915 5.942,15.505 0,21.412"
         style="fill:#664a12;fill-opacity:1;fill-rule:nonzero;stroke:none"
         id="path3005"
         sodipodi:nodetypes="ccsccccccccccsccccccccccccccccccccccccccccc" />
      <path
         id="path3763"
         style="fill:#f6a602;fill-opacity:1;fill-rule:nonzero;stroke:none"
         d="M -0.38906294,-0.28227563 C -6.0597975,-5.9530102 -15.254403,-5.9520181 -20.92117,-0.28525188 c -5.669742,5.66875038 -5.669742,14.86335588 0,20.53309888 5.667759,5.667758 14.8613725,5.666766 20.52913082,-9.92e-4 C 5.2757191,14.578104 5.2767112,5.3854827 -0.38906294,-0.28227563 M 30.814858,-10.003677 c -2.46036,2.4534166 -5.554661,3.8770527 -8.760074,4.2828138 -2.632983,0.3283788 -5.136003,1.6121315 -7.152904,3.6131587 -2.788739,2.78179487 -4.031817,6.4971379 -3.751058,10.1281541 0.216274,2.7569924 0.146828,5.7620064 -0.08036,8.2838754 -0.260918,2.919694 0.978192,5.899905 3.397877,7.944584 1.337325,1.12006 2.88894,1.819477 4.499087,2.110156 2.485163,0.253973 4.902864,1.328397 6.806667,3.221287 4.399879,4.379045 4.399879,11.479368 0,15.856429 -4.396903,4.378054 -11.531949,4.378054 -15.9258749,0 C 8.008902,43.61036 6.941423,41.310717 6.6378462,38.929723 6.3918101,36.976315 5.4284996,35.116164 3.9274811,33.617129 c -2.084362,-2.070473 -4.88798265,-3.157793 -7.5923952,-2.785763 -5.062589,0.695449 -5.8126021,0.639892 -11.2105149,0.122026 -2.961361,-0.283735 -3.92864,0.856166 -4.575477,2.215317 -0.353181,0.749021 -0.484135,1.545662 -0.422626,2.318493 0.188495,1.168671 -0.0069,2.40778 -0.648821,3.511966 -1.482169,2.551632 -4.760996,3.424664 -7.322549,1.947455 -2.56453,-1.472248 -3.442521,-4.73917 -1.958368,-7.286834 0.61509,-1.068471 1.545662,-1.838326 2.607189,-2.270873 0.872039,-0.352189 1.615107,-1.021844 2.121069,-1.893883 0.69644,-1.203394 1.297641,-2.642903 -0.511914,-4.582422 -4.675678,-5.009016 -6.879089,-11.410914 -6.140981,-17.7046757 0.277783,-2.9583853 -1.997059,-4.0417377 -4.015944,-4.8046479 -1.161726,-0.4355235 -2.366113,-0.5367158 -3.512958,-0.3531808 -1.722253,0.4146898 -3.596294,0.2678619 -5.32053,-0.5496128 -3.984197,-1.89487458 -5.673711,-6.6439659 -3.769908,-10.6083213 1.901819,-3.9653475 6.674721,-5.6469245 10.655941,-3.7540345 1.665704,0.788705 2.923663,2.075434 3.69451,3.5972857 0.629971,1.2470457 1.715308,2.2659128 3.079419,2.9137417 1.885946,0.894857 5.036795,1.054582 6.613211,-0.2579411 4.537779,-3.8453053 10.293832,-5.5248983 15.896113,-5.0238973 3.9306246,0.350204 7.94359191,-1.303595 10.6926481,-4.53381 1.5129234,-1.78277 2.4534162,-3.851258 2.844296,-6.000106 0.3382996,-3.311566 1.7877298,-6.536821 4.3363857,-9.079524 5.8979212,-5.865183 15.4556282,-5.865183 21.3495812,0 5.894945,5.868158 5.894945,15.382214 0,21.242436"
         inkscape:connector-curvature="0" />
    </g>
    <g
       id="g3011"
       transform="matrix(1.4851837,0,0,-1.4851837,235.42319,966.67785)" />
    <g
       id="g3015"
       transform="matrix(1.4851837,0,0,-1.4851837,325.37335,989.89543)" />
    <g
       id="g3019"
       transform="matrix(1.4851837,0,0,-1.4851837,325.37335,955.71601)" />
    <g
       id="g3023"
       transform="matrix(1.4851837,0,0,-1.4851837,193.74894,966.67785)" />
    <g
       id="g3027"
       transform="matrix(1.4851837,0,0,-1.4851837,310.10714,994.93704)" />
    <g
       id="g3031"
       transform="matrix(1.4851837,0,0,-1.4851837,260.00447,966.73948)" />
    <g
       id="g3035"
       transform="matrix(1.4851837,0,0,-1.4851837,336.22855,954.12775)" />
    <g
       id="g3039"
       transform="matrix(1.4851837,0,0,-1.4851837,336.47806,958.52241)" />
    <g
       id="g3043"
       transform="matrix(1.4851837,0,0,-1.4851837,58.343859,969.61123)">
      <path
         inkscape:connector-curvature="0"
         d="m 0,0 c -5.03,0 -9.111,-4.078 -9.111,-9.111 0,-3.529 2.008,-6.587 4.943,-8.102 0.657,-0.368 1.414,-0.579 2.22,-0.579 2.372,0 4.32,1.811 4.537,4.125 -0.131,0 -2.57,0 -2.589,0 -2.516,0 -4.556,2.042 -4.556,4.556 0,2.517 2.04,4.556 4.556,4.556 2.517,0 4.556,-2.039 4.556,-4.556 l 0,-3.213 0,-4.555 c 2.517,0 4.556,2.039 4.556,4.555 l 0,3.213 C 9.112,-4.078 5.034,0 0,0"
         style="fill:#cacccf;fill-opacity:1;fill-rule:nonzero;stroke:#44535e;stroke-opacity:1"
         id="path3045" />
    </g>
    <g
       id="g3063"
       transform="matrix(1.4851837,0,0,-1.4851837,304.17977,1030.7032)" />
  </g>
</svg>
