<?xml version="1.0" encoding="UTF-8" standalone="no"?>
<!-- Created with Inkscape (http://www.inkscape.org/) -->

<svg
   xmlns:dc="http://purl.org/dc/elements/1.1/"
   xmlns:cc="http://creativecommons.org/ns#"
   xmlns:rdf="http://www.w3.org/1999/02/22-rdf-syntax-ns#"
   xmlns:svg="http://www.w3.org/2000/svg"
   xmlns="http://www.w3.org/2000/svg"
   xmlns:xlink="http://www.w3.org/1999/xlink"
   xmlns:sodipodi="http://sodipodi.sourceforge.net/DTD/sodipodi-0.dtd"
   xmlns:inkscape="http://www.inkscape.org/namespaces/inkscape"
   version="1.0"
   width="128"
   height="128"
   id="svg3367"
   inkscape:version="0.48.1 r9760"
   sodipodi:docname="ubiquity.svg">
  <metadata
     id="metadata3314">
    <rdf:RDF>
      <cc:Work
         rdf:about="">
        <dc:format>image/svg+xml</dc:format>
        <dc:type
           rdf:resource="http://purl.org/dc/dcmitype/StillImage" />
      </cc:Work>
    </rdf:RDF>
  </metadata>
  <sodipodi:namedview
     pagecolor="#ffffff"
     bordercolor="#666666"
     borderopacity="1"
     objecttolerance="10"
     gridtolerance="10"
     guidetolerance="10"
     inkscape:pageopacity="0"
     inkscape:pageshadow="2"
     inkscape:window-width="1920"
     inkscape:window-height="1027"
     id="namedview3312"
     showgrid="false"
     inkscape:zoom="6.546875"
     inkscape:cx="33.451074"
     inkscape:cy="76.21957"
     inkscape:window-x="0"
     inkscape:window-y="24"
     inkscape:window-maximized="1"
     inkscape:current-layer="svg3367" />
  <defs
     id="defs3369">
    <linearGradient
       id="linearGradient3607">
      <stop
         id="stop3609"
         style="stop-color:#ffffff;stop-opacity:1"
         offset="0" />
      <stop
         id="stop3611"
         style="stop-color:#ffffff;stop-opacity:0"
         offset="1" />
    </linearGradient>
    <linearGradient
       x1="83.216866"
       y1="54.000008"
       x2="83.216866"
       y2="122.16803"
       id="linearGradient2887"
       xlink:href="#linearGradient3607"
       gradientUnits="userSpaceOnUse"
       gradientTransform="matrix(1.0057697,0,0,0.9939186,8.492263,3.3302155)" />
    <linearGradient
       id="linearGradient2490">
      <stop
         id="stop2492"
         style="stop-color:#365f0e;stop-opacity:1"
         offset="0" />
      <stop
         id="stop2494"
         style="stop-color:#84a718;stop-opacity:1"
         offset="1" />
    </linearGradient>
    <linearGradient
       x1="72.421684"
       y1="122.00002"
       x2="72.421684"
       y2="53.997635"
       id="linearGradient2892"
       xlink:href="#linearGradient2490"
       gradientUnits="userSpaceOnUse"
       gradientTransform="translate(8.9999991,2.9999863)" />
    <linearGradient
       id="linearGradient3242">
      <stop
         id="stop3244"
         style="stop-color:#eef87e;stop-opacity:1"
         offset="0" />
      <stop
         id="stop3246"
         style="stop-color:#cde34f;stop-opacity:1"
         offset="0.26238" />
      <stop
         id="stop3248"
         style="stop-color:#93b723;stop-opacity:1"
         offset="0.66093999" />
      <stop
         id="stop3250"
         style="stop-color:#5a7e0d;stop-opacity:1"
         offset="1" />
    </linearGradient>
    <radialGradient
       cx="69.447609"
       cy="51.694645"
       r="31.000002"
       fx="69.447609"
       fy="51.694645"
       id="radialGradient2890"
       xlink:href="#linearGradient3242"
       gradientUnits="userSpaceOnUse"
       gradientTransform="matrix(0,2.3878793,-2.6189646,0,224.25002,-100.52605)" />
    <linearGradient
       id="linearGradient23419">
      <stop
         id="stop23421"
         style="stop-color:#000000;stop-opacity:1"
         offset="0" />
      <stop
         id="stop23423"
         style="stop-color:#000000;stop-opacity:0"
         offset="1" />
    </linearGradient>
    <linearGradient
       id="linearGradient3772">
      <stop
         id="stop3774"
         style="stop-color:#b4b4b4;stop-opacity:1"
         offset="0" />
      <stop
         id="stop3776"
         style="stop-color:#969696;stop-opacity:1"
         offset="1" />
    </linearGradient>
    <linearGradient
       x1="12.2744"
       y1="32.4165"
       x2="35.391201"
       y2="14.2033"
       id="linearGradient3263"
       gradientUnits="userSpaceOnUse">
      <stop
         id="stop3265"
         style="stop-color:#dedbde;stop-opacity:1"
         offset="0" />
      <stop
         id="stop3267"
         style="stop-color:#e6e6e6;stop-opacity:1"
         offset="0.5" />
      <stop
         id="stop3269"
         style="stop-color:#d2d2d2;stop-opacity:1"
         offset="1" />
    </linearGradient>
    <linearGradient
       id="linearGradient3428">
      <stop
         id="stop3430"
         style="stop-color:#aaaaaa;stop-opacity:1"
         offset="0" />
      <stop
         id="stop3432"
         style="stop-color:#d4d4d4;stop-opacity:1"
         offset="1" />
    </linearGradient>
    <linearGradient
       id="linearGradient6036">
      <stop
         id="stop6038"
         style="stop-color:#ffffff;stop-opacity:1"
         offset="0" />
      <stop
         id="stop6040"
         style="stop-color:#ffffff;stop-opacity:0"
         offset="1" />
    </linearGradient>
    <linearGradient
       id="linearGradient3519">
      <stop
         id="stop3521"
         style="stop-color:#fcd9cd;stop-opacity:1"
         offset="0" />
      <stop
         id="stop3523"
         style="stop-color:#fcd9cd;stop-opacity:0"
         offset="1" />
    </linearGradient>
    <linearGradient
       id="linearGradient3511">
      <stop
         id="stop3513"
         style="stop-color:#ebeec7;stop-opacity:1"
         offset="0" />
      <stop
         id="stop3515"
         style="stop-color:#ebeec7;stop-opacity:0"
         offset="1" />
    </linearGradient>
    <linearGradient
       id="linearGradient3503">
      <stop
         id="stop3505"
         style="stop-color:#c4ebdd;stop-opacity:1"
         offset="0" />
      <stop
         id="stop3507"
         style="stop-color:#c4ebdd;stop-opacity:0"
         offset="1" />
    </linearGradient>
    <linearGradient
       id="linearGradient3495">
      <stop
         id="stop3497"
         style="stop-color:#c1cbe4;stop-opacity:1"
         offset="0" />
      <stop
         id="stop3499"
         style="stop-color:#c1cbe4;stop-opacity:0"
         offset="1" />
    </linearGradient>
    <linearGradient
       id="linearGradient3487">
      <stop
         id="stop3489"
         style="stop-color:#e6cde2;stop-opacity:1"
         offset="0" />
      <stop
         id="stop3491"
         style="stop-color:#e6cde2;stop-opacity:0"
         offset="1" />
    </linearGradient>
    <radialGradient
       cx="23.334524"
       cy="41.63604"
       r="22.627417"
       fx="23.334524"
       fy="41.63604"
       id="radialGradient2584"
       xlink:href="#linearGradient23419"
       gradientUnits="userSpaceOnUse"
       gradientTransform="matrix(2.6516504,0,0,0.7954211,2.1249955,72.881817)" />
    <linearGradient
       x1="10.50172"
       y1="3.6100161"
       x2="48.798885"
       y2="54.698483"
       id="linearGradient2642"
       xlink:href="#linearGradient6036"
       gradientUnits="userSpaceOnUse"
       gradientTransform="matrix(2.7528548,0,0,2.7528545,-3.0237572,-4.8213527)" />
    <linearGradient
       x1="18.775953"
       y1="4.0378027"
       x2="18.203465"
       y2="45.962208"
       id="linearGradient2651"
       xlink:href="#linearGradient6036"
       gradientUnits="userSpaceOnUse"
       gradientTransform="matrix(1.0859888,0,0,1.0859883,37.559418,36.850296)" />
    <linearGradient
       x1="21.448364"
       y1="15.5"
       x2="21.448364"
       y2="32.509201"
       id="linearGradient2654"
       xlink:href="#linearGradient3428"
       gradientUnits="userSpaceOnUse"
       gradientTransform="matrix(2.5381093,0,0,2.5381093,3.0853666,3.0853861)" />
    <linearGradient
       x1="12.2744"
       y1="32.4165"
       x2="35.391201"
       y2="14.2033"
       id="linearGradient2658"
       xlink:href="#linearGradient3263"
       gradientUnits="userSpaceOnUse"
       gradientTransform="matrix(0,3.1714559,-3.1714559,0,137.26064,-12.114951)" />
    <linearGradient
       x1="-21.915663"
       y1="3"
       x2="-21.915663"
       y2="45.032898"
       id="linearGradient2660"
       xlink:href="#linearGradient3772"
       gradientUnits="userSpaceOnUse"
       gradientTransform="matrix(2.7073165,0,0,2.7073165,135.10782,-0.9755887)" />
    <linearGradient
       x1="20.580074"
       y1="10.774516"
       x2="24.27351"
       y2="9.8622112"
       id="linearGradient2672"
       xlink:href="#linearGradient3487"
       gradientUnits="userSpaceOnUse"
       spreadMethod="reflect" />
    <linearGradient
       x1="17.494959"
       y1="11.200086"
       x2="21.047453"
       y2="9.7956104"
       id="linearGradient2674"
       xlink:href="#linearGradient3495"
       gradientUnits="userSpaceOnUse"
       spreadMethod="reflect" />
    <linearGradient
       x1="14.084608"
       y1="13.045606"
       x2="16.994024"
       y2="10.732353"
       id="linearGradient2676"
       xlink:href="#linearGradient3503"
       gradientUnits="userSpaceOnUse"
       spreadMethod="reflect" />
    <linearGradient
       x1="12.371647"
       y1="16.188046"
       x2="14.609327"
       y2="13.461712"
       id="linearGradient2678"
       xlink:href="#linearGradient3511"
       gradientUnits="userSpaceOnUse"
       spreadMethod="reflect" />
    <linearGradient
       x1="10.609375"
       y1="17.886322"
       x2="9.7297754"
       y2="20.612656"
       id="linearGradient2680"
       xlink:href="#linearGradient3519"
       gradientUnits="userSpaceOnUse"
       spreadMethod="reflect" />
    <linearGradient
       x1="20.580074"
       y1="10.774516"
       x2="24.27351"
       y2="9.8622112"
       id="linearGradient2682"
       xlink:href="#linearGradient3487"
       gradientUnits="userSpaceOnUse"
       spreadMethod="reflect" />
    <linearGradient
       x1="17.494959"
       y1="11.200086"
       x2="21.047453"
       y2="9.7956104"
       id="linearGradient2684"
       xlink:href="#linearGradient3495"
       gradientUnits="userSpaceOnUse"
       spreadMethod="reflect" />
    <linearGradient
       x1="14.084608"
       y1="13.045606"
       x2="16.994024"
       y2="10.732353"
       id="linearGradient2686"
       xlink:href="#linearGradient3503"
       gradientUnits="userSpaceOnUse"
       spreadMethod="reflect" />
    <linearGradient
       x1="12.371647"
       y1="16.188046"
       x2="14.609327"
       y2="13.461712"
       id="linearGradient2688"
       xlink:href="#linearGradient3511"
       gradientUnits="userSpaceOnUse"
       spreadMethod="reflect" />
    <linearGradient
       x1="10.609375"
       y1="17.886322"
       x2="9.7297754"
       y2="20.612656"
       id="linearGradient2690"
       xlink:href="#linearGradient3519"
       gradientUnits="userSpaceOnUse"
       spreadMethod="reflect" />
    <radialGradient
       inkscape:collect="always"
       xlink:href="#linearGradient23419-8"
       id="radialGradient3250"
       gradientUnits="userSpaceOnUse"
       gradientTransform="matrix(1,0,0,0.25,0,31.227)"
       cx="23.334524"
       cy="41.63604"
       fx="23.334524"
       fy="41.63604"
       r="22.627417" />
    <linearGradient
       id="linearGradient23419-8"
       inkscape:collect="always">
      <stop
         id="stop23421-4"
         offset="0"
         style="stop-color:#000000;stop-opacity:1;" />
      <stop
         id="stop23423-3"
         offset="1"
         style="stop-color:#000000;stop-opacity:0;" />
    </linearGradient>
    <linearGradient
       inkscape:collect="always"
       xlink:href="#linearGradient3297"
       id="linearGradient3401"
       x1="38.88414"
       y1="12.518509"
       x2="41.335243"
       y2="31.996395"
       gradientUnits="userSpaceOnUse"
       gradientTransform="matrix(2.48608,0,0,2.5932025,13.460798,2.061905)" />
    <linearGradient
       id="linearGradient3297">
      <stop
         style="stop-color:#fce94f;stop-opacity:0.90494299"
         offset="0"
         id="stop3299" />
      <stop
         style="stop-color:#ffaf45;stop-opacity:1;"
         offset="1"
         id="stop3301" />
    </linearGradient>
    <linearGradient
       inkscape:collect="always"
       xlink:href="#linearGradient3349"
       id="linearGradient3391"
       x1="34.352047"
       y1="17.267895"
       x2="37.590771"
       y2="33.67453"
       gradientUnits="userSpaceOnUse"
       gradientTransform="matrix(2.48608,0,0,2.5932025,13.460798,2.061905)" />
    <linearGradient
       id="linearGradient3349">
      <stop
         style="stop-color:#f5a200;stop-opacity:1"
         offset="0"
         id="stop3351" />
      <stop
         style="stop-color:#f54e00;stop-opacity:1;"
         offset="1"
         id="stop3353" />
    </linearGradient>
    <linearGradient
       inkscape:collect="always"
       xlink:href="#linearGradient3193"
       id="linearGradient3209"
       gradientUnits="userSpaceOnUse"
       gradientTransform="matrix(1.2154022,0,0,1.2197827,63.197811,67.058165)"
       x1="24.533068"
       y1="9.1633615"
       x2="20.155373"
       y2="30.322044" />
    <linearGradient
       inkscape:collect="always"
       id="linearGradient3193">
      <stop
         style="stop-color:#ff4d19;stop-opacity:1;"
         offset="0"
         id="stop3195" />
      <stop
         style="stop-color:#ff4d19;stop-opacity:0.17490494"
         offset="1"
         id="stop3197" />
    </linearGradient>
    <linearGradient
       inkscape:collect="always"
       xlink:href="#linearGradient3343"
       id="linearGradient3341"
       x1="23.41287"
       y1="17.026258"
       x2="23.35877"
       y2="23.209305"
       gradientUnits="userSpaceOnUse"
       gradientTransform="matrix(3.1112685,0,0,2.9024343,-8.2864251,-7.1587355)" />
    <linearGradient
       id="linearGradient3343"
       inkscape:collect="always">
      <stop
         id="stop3345"
         offset="0"
         style="stop-color:#fce94f;stop-opacity:0.8326996" />
      <stop
         id="stop3347"
         offset="1"
         style="stop-color:#fec446;stop-opacity:1" />
    </linearGradient>
    <linearGradient
       inkscape:collect="always"
       xlink:href="#linearGradient3403"
       id="linearGradient3363"
       x1="24.456329"
       y1="10.06987"
       x2="27.001125"
       y2="29.433199"
       gradientUnits="userSpaceOnUse"
       gradientTransform="matrix(3.1112685,0,0,2.9024343,-8.2864251,-7.1587355)" />
    <linearGradient
       id="linearGradient3403"
       inkscape:collect="always">
      <stop
         id="stop3405"
         offset="0"
         style="stop-color:#f5a200;stop-opacity:0.88973385" />
      <stop
         id="stop3407"
         offset="1"
         style="stop-color:#f55f00;stop-opacity:1" />
    </linearGradient>
    <linearGradient
       inkscape:collect="always"
       xlink:href="#linearGradient3297"
       id="linearGradient3303"
       x1="8.0008059"
       y1="19.354666"
       x2="11.765572"
       y2="40.504414"
       gradientUnits="userSpaceOnUse"
       gradientTransform="matrix(2.8187821,0,0,2.6058946,-4.0520576,-0.76734334)" />
    <linearGradient
       id="linearGradient3464">
      <stop
         style="stop-color:#fce94f;stop-opacity:0.90494299"
         offset="0"
         id="stop3466" />
      <stop
         style="stop-color:#ffaf45;stop-opacity:1;"
         offset="1"
         id="stop3468" />
    </linearGradient>
    <linearGradient
       inkscape:collect="always"
       xlink:href="#linearGradient3349"
       id="linearGradient3355"
       x1="11.391339"
       y1="16.274387"
       x2="16.147627"
       y2="35.156826"
       gradientUnits="userSpaceOnUse"
       gradientTransform="matrix(2.8187821,0,0,2.6058946,-4.0520576,-0.76734334)" />
    <linearGradient
       id="linearGradient3471">
      <stop
         style="stop-color:#f5a200;stop-opacity:1"
         offset="0"
         id="stop3473" />
      <stop
         style="stop-color:#f54e00;stop-opacity:1;"
         offset="1"
         id="stop3475" />
    </linearGradient>
    <linearGradient
       inkscape:collect="always"
       xlink:href="#linearGradient3193"
       id="linearGradient3199"
       x1="7.7349529"
       y1="31.255808"
       x2="15.290119"
       y2="45.573547"
       gradientUnits="userSpaceOnUse"
       gradientTransform="matrix(2.8941135,0,0,2.7592371,-4.2377759,-3.0500265)" />
    <linearGradient
       inkscape:collect="always"
       xlink:href="#linearGradient3193"
       id="linearGradient3203"
       gradientUnits="userSpaceOnUse"
       x1="24.53307"
       y1="9.3393259"
       x2="22.546782"
       y2="32.045216"
       gradientTransform="matrix(1.5392435,0,0,1.5465338,28.127972,23.45103)" />
    <radialGradient
       r="22.627417"
       fy="41.63604"
       fx="23.334524"
       cy="41.63604"
       cx="23.334524"
       gradientTransform="matrix(1,0,0,0.25,0,31.227)"
       gradientUnits="userSpaceOnUse"
       id="radialGradient3498"
       xlink:href="#linearGradient23419-8"
       inkscape:collect="always" />
    <linearGradient
       inkscape:collect="always"
       xlink:href="#linearGradient3321"
       id="linearGradient3339"
       x1="22.803511"
       y1="8.6696863"
       x2="24.451988"
       y2="21.817261"
       gradientUnits="userSpaceOnUse" />
    <linearGradient
       id="linearGradient3321">
      <stop
         style="stop-color:#ffffff;stop-opacity:1;"
         offset="0"
         id="stop3323" />
      <stop
         style="stop-color:#ffffff;stop-opacity:0.09467456;"
         offset="1"
         id="stop3325" />
    </linearGradient>
    <linearGradient
       y2="21.817261"
       x2="24.451988"
       y1="8.6696863"
       x1="22.803511"
       gradientUnits="userSpaceOnUse"
       id="linearGradient3616"
       xlink:href="#linearGradient3321"
       inkscape:collect="always" />
    <linearGradient
       inkscape:collect="always"
       xlink:href="#linearGradient3321-9"
       id="linearGradient3383"
       x1="35.672604"
       y1="9.6719131"
       x2="38.559429"
       y2="36.801826"
       gradientUnits="userSpaceOnUse" />
    <linearGradient
       inkscape:collect="always"
       id="linearGradient3321-9">
      <stop
         style="stop-color:#ffffff;stop-opacity:1;"
         offset="0"
         id="stop3323-0" />
      <stop
         style="stop-color:#ffffff;stop-opacity:0.16862746"
         offset="1"
         id="stop3325-3" />
    </linearGradient>
    <linearGradient
       y2="36.801826"
       x2="38.559429"
       y1="9.6719131"
       x1="35.672604"
       gradientUnits="userSpaceOnUse"
       id="linearGradient4418"
       xlink:href="#linearGradient3321-9"
       inkscape:collect="always" />
    <linearGradient
       inkscape:collect="always"
       xlink:href="#linearGradient3321-8"
       id="linearGradient3327"
       x1="7.0854101"
       y1="20.983158"
       x2="14.014328"
       y2="42.130581"
       gradientUnits="userSpaceOnUse" />
    <linearGradient
       id="linearGradient3321-8">
      <stop
         style="stop-color:#ffffff;stop-opacity:1;"
         offset="0"
         id="stop3323-09" />
      <stop
         style="stop-color:#ffffff;stop-opacity:0;"
         offset="1"
         id="stop3325-2" />
    </linearGradient>
    <linearGradient
       y2="42.130581"
       x2="14.014328"
       y1="20.983158"
       x1="7.0854101"
       gradientUnits="userSpaceOnUse"
       id="linearGradient4452"
       xlink:href="#linearGradient3321-8"
       inkscape:collect="always" />
  </defs>
  <path
     style="opacity:0.9;fill:url(#linearGradient3401);fill-opacity:1;fill-rule:nonzero;stroke:url(#linearGradient3391);stroke-width:2.53907609;stroke-linecap:round;stroke-linejoin:round;stroke-miterlimit:4;stroke-opacity:1;stroke-dasharray:none"
     d="m 75.222239,113.72355 c 4.924616,6.94918 41.652031,8.02632 50.062611,-34.234634 C 133.08102,40.315199 102.97035,7.0654742 91.789262,3.3542974 101.73448,33.868416 102.56322,87.050716 75.222239,113.72355 z"
     id="path1066"
     sodipodi:nodetypes="cscc"
     inkscape:connector-curvature="0" />
  <path
     sodipodi:type="inkscape:offset"
     inkscape:radius="-1.0498953"
     inkscape:original="M 91.78125 3.34375 C 101.72647 33.857869 102.55973 87.045916 75.21875 113.71875 C 80.143366 120.66793 116.87067 121.76095 125.28125 79.5 C 133.07742 40.326283 102.96234 7.0549268 91.78125 3.34375 z "
     xlink:href="#path1066"
     style="opacity:0.9;fill:none;stroke:url(#linearGradient4418);stroke-width:1;stroke-linecap:round;stroke-linejoin:miter;stroke-miterlimit:4;stroke-opacity:0.90494301;stroke-dasharray:none"
     id="path3365"
     inkscape:href="#path1066"
     d="m 93.40625,5.4375 c 4.566139,15.178516 7.01115,35.011601 5.125,54.625 -1.940147,20.174927 -8.442368,39.931581 -21.78125,53.5 1.212418,1.11945 3.684813,2.27154 7.28125,2.625 4.096561,0.40261 9.264326,-0.0835 14.53125,-2.09375 10.53385,-4.02053 21.53965,-13.97065 25.6875,-34.8125 3.83647,-19.277241 -1.64324,-37.110187 -9.5,-50.625 -3.92838,-6.757407 -8.4515,-12.440565 -12.65625,-16.625 C 98.772827,8.7263733 95.812346,6.6964581 93.40625,5.4375 z"
     transform="translate(1.0592748,1.2894713)" />
  <path
     style="opacity:0.94636015;fill:url(#linearGradient3209);fill-opacity:1;fill-rule:evenodd;stroke:none"
     d="M 115.35347,59.15939 C 114.09585,69.714615 77.46294,94.585655 90.493025,104.04218 104.78958,104.27314 117.20087,87.647185 115.35347,59.15939 z"
     id="path3207"
     sodipodi:nodetypes="ccc"
     inkscape:connector-curvature="0" />
  <path
     d="M 124,105.99999 C 124.00309,115.94084 97.139272,124 64,124 C 30.860727,124 3.9969077,115.94084 3.999998,105.99999 C 3.9969077,96.059149 30.860727,88 64,88 C 97.139272,88 124.00309,96.059149 124,105.99999 L 124,105.99999 z"
     id="path23417"
     style="opacity:0.3;fill:url(#radialGradient2584);fill-opacity:1;fill-rule:evenodd;stroke:none;stroke-width:2;marker:none;visibility:visible;display:inline;overflow:visible" />
  <path
     d="M 119.49998,64.000008 C 119.49998,33.236876 94.763115,8.5000192 63.999988,8.5000192 C 33.236854,8.5000192 8.5,33.236878 8.5,64.000008 C 8.4999946,94.763138 33.236857,119.5 63.999988,119.5 C 94.763112,119.49999 119.49998,94.76314 119.49998,64.000008 z M 84.304862,64.000008 C 84.304862,75.176162 75.399768,84.304882 63.999988,84.304882 C 52.376585,84.304882 43.695114,74.950256 43.695114,64.000008 C 43.695114,52.826093 51.929329,43.695134 63.999988,43.695134 C 76.070648,43.695134 84.304862,53.047477 84.304862,64.000008 L 84.304862,64.000008 z"
     id="path2781"
     style="fill:url(#linearGradient2658);fill-rule:nonzero;stroke:url(#linearGradient2660);stroke-width:1;stroke-miterlimit:4;stroke-opacity:1" />
  <path
     d="M 63.999988,43.000008 C 52.407988,43.000008 42.999988,52.408008 42.999988,64.000008 C 42.999988,75.592009 52.407988,85.000008 63.999988,85.000008 C 75.591988,85.000008 84.999988,75.592009 84.999988,64.000008 C 84.999988,52.408008 75.591988,43.000008 63.999988,43.000008 L 63.999988,43.000008 z M 63.999988,53.500009 C 69.795988,53.500009 74.499988,58.204008 74.499988,64.000008 C 74.499988,69.796008 69.795988,74.500008 63.999988,74.500008 C 58.203988,74.500008 53.499988,69.796008 53.499988,64.000008 C 53.499988,58.204008 58.203988,53.500009 63.999988,53.500009 L 63.999988,53.500009 z"
     id="path2474"
     style="opacity:0.5;fill:#ffffff;fill-opacity:1;fill-rule:nonzero;stroke:none;stroke-width:1;marker:none;visibility:visible;display:inline;overflow:visible;enable-background:accumulate" />
  <path
     d="M 63.999988,43.695134 C 52.791698,43.695134 43.695114,52.791718 43.695114,64.000008 C 43.695114,75.208298 52.791698,84.304882 63.999988,84.304882 C 75.208278,84.304882 84.304862,75.208298 84.304862,64.000008 C 84.304862,52.791718 75.208278,43.695134 63.999988,43.695134 L 63.999988,43.695134 z M 63.999988,53.84757 C 69.604133,53.84757 74.152425,58.395863 74.152425,64.000008 C 74.152425,69.604153 69.604133,74.152444 63.999988,74.152444 C 58.395843,74.152444 53.847551,69.604153 53.847551,64.000008 C 53.847551,58.395863 58.395843,53.84757 63.999988,53.84757 L 63.999988,53.84757 z"
     id="path3418"
     style="fill:none;stroke:url(#linearGradient2654);stroke-width:1;stroke-linecap:butt;stroke-linejoin:round;marker:none;stroke-miterlimit:4;stroke-dasharray:none;stroke-dashoffset:0;stroke-opacity:1;visibility:visible;display:inline;overflow:visible;enable-background:accumulate" />
  <g
     transform="matrix(2.7320403,0,0,2.7320403,-1.0900842,-1.0742573)"
     id="g3527">
    <path
       d="M 15.856928,5.7307748 L 20.625,16.34375 C 21.660403,15.885186 22.795334,15.625 24,15.625 C 24.03206,15.625 24.06178,15.62464 24.09375,15.625 L 24.10801,4.0047512 C 21.16586,3.9340642 18.564969,4.6620377 15.856927,5.7307748 L 15.856928,5.7307748 z"
       transform="matrix(0.9996011,2.824295e-2,-2.824295e-2,0.9996011,0.6924114,-0.6708346)"
       id="path3296"
       style="opacity:0.8;fill:url(#linearGradient2672);fill-opacity:1;fill-rule:nonzero;stroke:none" />
    <path
       d="M 12.121471,7.9060109 L 19.052497,17.266115 C 19.965606,16.59636 21.018435,16.099051 22.195126,15.840946 C 22.226446,15.834046 22.255386,15.827356 22.286696,15.820856 L 19.857174,4.426276 C 16.968201,4.9876004 14.537644,6.2818798 12.121471,7.9060109 L 12.121471,7.9060109 z"
       id="path3308"
       style="opacity:0.8;fill:url(#linearGradient2674);fill-opacity:1;fill-rule:nonzero;stroke:none" />
    <path
       d="M 8.2523933,11.646535 L 17.466117,18.802353 C 18.174767,17.919089 19.063008,17.166234 20.132802,16.612373 C 20.161272,16.597633 20.187492,16.583653 20.216052,16.569273 L 14.86585,6.2506132 C 12.220599,7.5405321 10.165881,9.452393 8.2523933,11.646535 z"
       id="path3310"
       style="opacity:0.8;fill:url(#linearGradient2676);fill-opacity:1;fill-rule:nonzero;stroke:none" />
    <path
       d="M 5.6328855,16.073974 C 12.807692,18.316222 13.483148,23.105437 18.409671,17.828101 L 10.499985,9.1321388 C 8.2787249,11.062747 6.9132871,13.459349 5.6328855,16.073974 z"
       id="path3312"
       style="opacity:0.8;fill:url(#linearGradient2678);fill-opacity:1;fill-rule:nonzero;stroke:none" />
    <path
       d="M 7.155289,13.193173 C 5.9722117,14.945185 5.2475768,16.829547 4.6301929,18.837116 L 15.96875,21.8125 C 16.184264,21.049497 16.486796,20.297733 16.9375,19.59375 C 16.95479,19.56675 16.98246,19.52673 17,19.5 L 7.155289,13.193173 z"
       id="path3314"
       style="opacity:0.8;fill:url(#linearGradient2680);fill-opacity:1;fill-rule:nonzero;stroke:none" />
  </g>
  <path
     d="M 64.000005,9.5000009 C 33.791433,9.5000009 9.5,33.791433 9.5,64.000001 C 9.5,94.208571 33.791433,118.5 64.000005,118.5 C 94.208577,118.5 118.5,94.208571 118.5,64.000001 C 118.5,33.791433 94.208577,9.5000009 64.000005,9.5000009 L 64.000005,9.5000009 L 64.000005,9.5000009 z"
     id="path3272"
     style="opacity:0.5;fill:none;stroke:url(#linearGradient2642);stroke-width:0.99999994;stroke-miterlimit:4;stroke-opacity:1" />
  <g
     transform="matrix(-2.7073165,0,0,-2.7073165,128.97558,128.95078)"
     id="g3297">
    <path
       d="M 15.856928,5.7307748 L 20.625,16.34375 C 21.660403,15.885186 22.795334,15.625 24,15.625 C 24.03206,15.625 24.06178,15.62464 24.09375,15.625 L 24.10801,4.0047512 C 21.16586,3.9340642 18.564969,4.6620377 15.856927,5.7307748 L 15.856928,5.7307748 z"
       transform="matrix(0.9996011,2.824295e-2,-2.824295e-2,0.9996011,0.6924114,-0.6708346)"
       id="path3299"
       style="opacity:0.8;fill:url(#linearGradient2682);fill-opacity:1;fill-rule:nonzero;stroke:none" />
    <path
       d="M 12.121471,7.9060109 L 19.052497,17.266115 C 19.965606,16.59636 21.018435,16.099051 22.195126,15.840946 C 22.226446,15.834046 22.255386,15.827356 22.286696,15.820856 L 19.857174,4.426276 C 16.968201,4.9876004 14.537644,6.2818798 12.121471,7.9060109 L 12.121471,7.9060109 z"
       id="path3301"
       style="opacity:0.8;fill:url(#linearGradient2684);fill-opacity:1;fill-rule:nonzero;stroke:none" />
    <path
       d="M 8.2523933,11.646535 L 17.466117,18.802353 C 18.174767,17.919089 19.063008,17.166234 20.132802,16.612373 C 20.161272,16.597633 20.187492,16.583653 20.216052,16.569273 L 14.86585,6.2506132 C 12.220599,7.5405321 10.165881,9.452393 8.2523933,11.646535 z"
       id="path3303"
       style="opacity:0.8;fill:url(#linearGradient2686);fill-opacity:1;fill-rule:nonzero;stroke:none" />
    <path
       d="M 5.6328855,16.073974 C 12.807692,18.316222 13.483148,23.105437 18.409671,17.828101 L 10.499985,9.1321388 C 8.2787249,11.062747 6.9132871,13.459349 5.6328855,16.073974 z"
       id="path3305"
       style="opacity:0.8;fill:url(#linearGradient2688);fill-opacity:1;fill-rule:nonzero;stroke:none" />
    <path
       d="M 7.155289,13.193173 C 5.9722117,14.945185 5.2475768,16.829547 4.6301929,18.837116 L 15.96875,21.8125 C 16.184264,21.049497 16.486796,20.297733 16.9375,19.59375 C 16.95479,19.56675 16.98246,19.52673 17,19.5 L 7.155289,13.193173 z"
       id="path3307"
       style="opacity:0.8;fill:url(#linearGradient2690);fill-opacity:1;fill-rule:nonzero;stroke:none" />
  </g>
  <path
     d="M 63.99999,42.500008 C 52.082843,42.500008 42.499987,52.082863 42.499987,64.000008 C 42.499987,75.917153 52.082843,85.500008 63.99999,85.500008 C 75.917134,85.500008 85.499989,75.917153 85.499989,64.000008 C 85.499989,52.082863 75.917134,42.500008 63.99999,42.500008 L 63.99999,42.500008 L 63.99999,42.500008 L 63.99999,42.500008 z"
     id="path3281"
     style="opacity:0.8;fill:none;stroke:url(#linearGradient2651);stroke-width:1;stroke-miterlimit:4;stroke-opacity:1" />
  <path
     style="opacity:0.9;fill:url(#linearGradient3341);fill-opacity:1;fill-rule:evenodd;stroke:url(#linearGradient3363);stroke-width:3.00503755;stroke-linecap:round;stroke-linejoin:round;stroke-miterlimit:4;stroke-opacity:1;stroke-dasharray:none"
     d="M 64.900354,3.0036681 C 64.711322,15.849808 59.13536,23.908971 54.944799,32.782524 47.356461,48.850899 44.580686,65.550171 61.58568,75.386024 77.951565,71.681302 106.81347,36.267818 64.900354,3.0036681 z"
     id="path1067"
     sodipodi:nodetypes="cscc"
     inkscape:connector-curvature="0" />
  <path
     style="opacity:0.9;fill:url(#linearGradient3303);fill-opacity:1;fill-rule:nonzero;stroke:url(#linearGradient3355);stroke-width:2.74925351;stroke-linecap:square;stroke-linejoin:round;stroke-miterlimit:4;stroke-opacity:1;stroke-dasharray:none"
     d="m 31.496988,77.737291 c 5.369646,11.568673 14.189473,15.669868 18.593124,27.804399 1.853165,4.72889 0.18264,10.00163 -3.970596,13.59697 -4.339715,3.75676 -9.969706,3.77696 -15.660989,2.62215 C 17.606056,119.15289 10.054327,110.26684 6.2446835,99.839093 -7.6647139,61.76622 19.149926,30.151178 45.607411,3.315488 37.399228,27.270205 21.109864,51.224477 31.496988,77.737291 z"
     id="path1064"
     sodipodi:nodetypes="ccssscc"
     inkscape:connector-curvature="0" />
  <path
     style="opacity:0.94636015;fill:url(#linearGradient3199);fill-opacity:1;fill-rule:evenodd;stroke:none"
     d="M 19.04055,55.130541 C 1.9482796,96.295734 25.397368,118.60914 38.865494,115.61386 52.793701,100.05959 14.498028,94.479197 19.04055,55.130541 z"
     id="path2220"
     sodipodi:nodetypes="ccc"
     inkscape:connector-curvature="0" />
  <path
     style="opacity:0.94636015;fill:url(#linearGradient3203);fill-opacity:1;fill-rule:evenodd;stroke:none"
     d="M 68.99508,31.544466 C 67.402386,44.927183 46.193911,55.444504 62.695855,67.434208 70.226703,66.008638 83.162065,55.635366 68.99508,31.544466 z"
     id="path3201"
     sodipodi:nodetypes="ccc"
     inkscape:connector-curvature="0" />
  <path
     sodipodi:type="inkscape:offset"
     inkscape:radius="-0.97398376"
     inkscape:original="M 64.90625 3 C 64.717218 15.84614 59.128061 23.907697 54.9375 32.78125 C 47.349162 48.849625 44.588756 65.539147 61.59375 75.375 C 77.959635 71.670278 106.81937 36.26415 64.90625 3 z "
     xlink:href="#path1067"
     style="opacity:0.9;fill:none;stroke:url(#linearGradient3616);stroke-width:1.00124776;stroke-linecap:butt;stroke-linejoin:miter;stroke-miterlimit:4;stroke-opacity:1;stroke-dasharray:none"
     id="path3329"
     inkscape:href="#path1067"
     d="M 65.75,5.03125 C 65.023752,16.969904 59.734563,24.882494 55.8125,33.1875 52.05446,41.145183 49.5309,49.20543 50,56.34375 50.462279,63.378267 53.767116,69.553206 61.78125,74.3125 69.419524,72.354234 80.30583,62.899401 84.15625,50 87.970484,37.221825 85.070436,21.073268 65.75,5.03125 z"
     transform="matrix(0.9186218,0,0,0.95243933,6.3653157,2.9025464)" />
  <path
     sodipodi:type="inkscape:offset"
     inkscape:radius="-1.0358722"
     inkscape:original="M 45.59375 3.3125 C 19.136265 30.14819 -7.6593974 61.770877 6.25 99.84375 C 10.059644 110.2715 17.616279 119.14208 30.46875 121.75 C 36.160033 122.90481 41.785285 122.88176 46.125 119.125 C 50.278236 115.52966 51.946915 110.26014 50.09375 105.53125 C 45.690099 93.396719 36.869646 89.318673 31.5 77.75 C 21.112876 51.237186 37.385567 27.267217 45.59375 3.3125 z "
     xlink:href="#path1064"
     style="fill:none;stroke:url(#linearGradient4452);stroke-width:1;stroke-linecap:square;stroke-linejoin:miter;stroke-miterlimit:6.4000001;stroke-opacity:1;stroke-dasharray:none"
     id="path3293"
     inkscape:href="#path1064"
     d="m 42.6875,7.84375 c -11.948785,12.350743 -23.550094,25.625365 -30.96875,40 -8.1773307,15.844669 -11.34940659,32.90802 -4.5,51.65625 3.723113,10.1909 10.987367,18.71738 23.46875,21.25 5.558285,1.12782 10.743604,1.06197 14.75,-2.40625 3.878365,-3.35739 5.368207,-8.14869 3.6875,-12.4375 a 1.0359758,1.0359758 0 0 1 0,-0.0312 C 46.986137,99.981232 43.789973,96.062446 40.375,92.09375 36.960027,88.125054 33.318945,84.126143 30.5625,78.1875 A 1.0359758,1.0359758 0 0 1 30.53125,78.125 C 25.23199,64.598803 26.761321,51.700868 30.59375,39.28125 33.905356,28.549445 38.756657,18.139807 42.6875,7.84375 z"
     transform="matrix(1.0269604,0,0,0.95571169,-2.4687834,3.0797273)" />
</svg>
