<?xml version="1.0" encoding="UTF-8" standalone="no"?>
<!-- Created with Inkscape (http://www.inkscape.org/) -->

<svg
   xmlns:dc="http://purl.org/dc/elements/1.1/"
   xmlns:cc="http://creativecommons.org/ns#"
   xmlns:rdf="http://www.w3.org/1999/02/22-rdf-syntax-ns#"
   xmlns:svg="http://www.w3.org/2000/svg"
   xmlns="http://www.w3.org/2000/svg"
   xmlns:xlink="http://www.w3.org/1999/xlink"
   xmlns:sodipodi="http://sodipodi.sourceforge.net/DTD/sodipodi-0.dtd"
   xmlns:inkscape="http://www.inkscape.org/namespaces/inkscape"
   width="128"
   height="128"
   id="svg3886"
   version="1.1"
   inkscape:version="0.48.1 r9760"
   sodipodi:docname="5.svg">
  <defs
     id="defs3888">
    <linearGradient
       inkscape:collect="always"
       xlink:href="#linearGradient3924"
       id="linearGradient2984"
       gradientUnits="userSpaceOnUse"
       gradientTransform="matrix(2.7297298,0,0,2.7297298,-1.5135108,-62.513486)"
       x1="23.99999"
       y1="4.999989"
       x2="23.99999"
       y2="43" />
    <linearGradient
       id="linearGradient3924">
      <stop
         id="stop3926"
         style="stop-color:#ffffff;stop-opacity:1;"
         offset="0" />
      <stop
         offset="0.06316455"
         style="stop-color:#ffffff;stop-opacity:0.23529412;"
         id="stop3928" />
      <stop
         id="stop3930"
         style="stop-color:#ffffff;stop-opacity:0.15686275;"
         offset="0.95056331" />
      <stop
         id="stop3932"
         style="stop-color:#ffffff;stop-opacity:0.39215687;"
         offset="1" />
    </linearGradient>
    <radialGradient
       inkscape:collect="always"
       xlink:href="#linearGradient7012-661-145-733-759-865-745-661-970-94-8"
       id="radialGradient2990"
       gradientUnits="userSpaceOnUse"
       gradientTransform="matrix(5.131108e-8,6.1720507,-6.5292935,-1.1371273e-7,119.1713,-93.225241)"
       cx="7.4956832"
       cy="8.4497671"
       fx="7.4956832"
       fy="8.4497671"
       r="19.99999" />
    <linearGradient
       id="linearGradient7012-661-145-733-759-865-745-661-970-94-8">
      <stop
         id="stop3618-1"
         style="stop-color:#4d0a00;stop-opacity:1;"
         offset="0" />
      <stop
         id="stop3270-2"
         style="stop-color:#651307;stop-opacity:1;"
         offset="0.5" />
      <stop
         id="stop3620-8"
         style="stop-color:#360503;stop-opacity:1;"
         offset="1" />
    </linearGradient>
    <linearGradient
       inkscape:collect="always"
       xlink:href="#linearGradient3390-178-986-453-3"
       id="linearGradient2992"
       gradientUnits="userSpaceOnUse"
       gradientTransform="matrix(2.6410257,0,0,2.6410257,0.6153792,-60.384617)"
       x1="24"
       y1="44"
       x2="24"
       y2="3.8990016" />
    <linearGradient
       id="linearGradient3390-178-986-453-3">
      <stop
         id="stop3624-6"
         style="stop-color:#680003;stop-opacity:1;"
         offset="0" />
      <stop
         offset="0.5"
         style="stop-color:#480000;stop-opacity:1;"
         id="stop3856-8" />
      <stop
         id="stop3626-0"
         style="stop-color:#a0000d;stop-opacity:1;"
         offset="1" />
    </linearGradient>
    <radialGradient
       cx="4.9929786"
       cy="43.5"
       r="2.5"
       fx="4.9929786"
       fy="43.5"
       id="radialGradient2455"
       xlink:href="#linearGradient3688-166-749"
       gradientUnits="userSpaceOnUse"
       gradientTransform="matrix(2.003784,0,0,1.4,27.98813,-17.4)" />
    <linearGradient
       id="linearGradient3688-166-749">
      <stop
         id="stop2883"
         style="stop-color:#181818;stop-opacity:1"
         offset="0" />
      <stop
         id="stop2885"
         style="stop-color:#181818;stop-opacity:0"
         offset="1" />
    </linearGradient>
    <radialGradient
       cx="4.9929786"
       cy="43.5"
       r="2.5"
       fx="4.9929786"
       fy="43.5"
       id="radialGradient2457"
       xlink:href="#linearGradient3688-464-309"
       gradientUnits="userSpaceOnUse"
       gradientTransform="matrix(2.003784,0,0,1.4,-20.01187,-104.4)" />
    <linearGradient
       id="linearGradient3688-464-309">
      <stop
         id="stop2889"
         style="stop-color:#181818;stop-opacity:1"
         offset="0" />
      <stop
         id="stop2891"
         style="stop-color:#181818;stop-opacity:0"
         offset="1" />
    </linearGradient>
    <linearGradient
       x1="25.058096"
       y1="47.027729"
       x2="25.058096"
       y2="39.999443"
       id="linearGradient2459"
       xlink:href="#linearGradient3702-501-757"
       gradientUnits="userSpaceOnUse" />
    <linearGradient
       id="linearGradient3702-501-757">
      <stop
         id="stop2895"
         style="stop-color:#181818;stop-opacity:0"
         offset="0" />
      <stop
         id="stop2897"
         style="stop-color:#181818;stop-opacity:1"
         offset="0.5" />
      <stop
         id="stop2899"
         style="stop-color:#181818;stop-opacity:0"
         offset="1" />
    </linearGradient>
    <linearGradient
       x1="62.336792"
       y1="79.015236"
       x2="62.336792"
       y2="12.797539"
       id="linearGradient2936"
       xlink:href="#linearGradient3694"
       gradientUnits="userSpaceOnUse"
       gradientTransform="matrix(0.68397067,0,0,0.70908801,1.2614099,0.63721709)" />
    <linearGradient
       id="linearGradient3694">
      <stop
         id="stop3696"
         style="stop-color:#e6e6e6;stop-opacity:1"
         offset="0" />
      <stop
         id="stop3698"
         style="stop-color:#f5f5f5;stop-opacity:1"
         offset="1" />
    </linearGradient>
    <linearGradient
       gradientTransform="matrix(0.78180691,0,0,0.78180691,-0.89846511,-4.3149669)"
       x1="55"
       y1="18"
       x2="55"
       y2="112"
       id="linearGradient3831"
       xlink:href="#linearGradient3825"
       gradientUnits="userSpaceOnUse" />
    <linearGradient
       id="linearGradient3825">
      <stop
         id="stop3827"
         style="stop-color:#501616;stop-opacity:1"
         offset="0" />
      <stop
         id="stop3829"
         style="stop-color:#501616;stop-opacity:0"
         offset="1" />
    </linearGradient>
    <linearGradient
       x1="47.2644"
       y1="77.865364"
       x2="47.2644"
       y2="12.540652"
       id="linearGradient3718"
       xlink:href="#linearGradient3712"
       gradientUnits="userSpaceOnUse"
       gradientTransform="matrix(0.82057476,0,0,0.82057476,8.1828081,6.7636239)" />
    <linearGradient
       id="linearGradient3712">
      <stop
         id="stop3714"
         style="stop-color:#e7cf93;stop-opacity:1"
         offset="0" />
      <stop
         id="stop3716"
         style="stop-color:#fefef4;stop-opacity:1"
         offset="1" />
    </linearGradient>
  </defs>
  <sodipodi:namedview
     id="base"
     pagecolor="#ffffff"
     bordercolor="#666666"
     borderopacity="1.0"
     inkscape:pageopacity="0.0"
     inkscape:pageshadow="2"
     inkscape:zoom="5.078125"
     inkscape:cx="64"
     inkscape:cy="64"
     inkscape:current-layer="layer1"
     showgrid="true"
     inkscape:document-units="px"
     inkscape:grid-bbox="true"
     inkscape:window-width="1388"
     inkscape:window-height="838"
     inkscape:window-x="456"
     inkscape:window-y="44"
     inkscape:window-maximized="0" />
  <metadata
     id="metadata3891">
    <rdf:RDF>
      <cc:Work
         rdf:about="">
        <dc:format>image/svg+xml</dc:format>
        <dc:type
           rdf:resource="http://purl.org/dc/dcmitype/StillImage" />
        <dc:title></dc:title>
      </cc:Work>
    </rdf:RDF>
  </metadata>
  <g
     id="layer1"
     inkscape:label="Layer 1"
     inkscape:groupmode="layer"
     transform="translate(0,64)">
    <g
       transform="matrix(2.9499988,0,0,1.2222234,-6.8000012,1.555537)"
       id="g2036"
       style="display:inline">
      <g
         transform="matrix(1.052632,0,0,1.285713,-1.263158,-13.42854)"
         id="g3712"
         style="opacity:0.4">
        <rect
           width="5"
           height="7"
           x="38"
           y="40"
           id="rect2801"
           style="fill:url(#radialGradient2455);fill-opacity:1;stroke:none" />
        <rect
           width="5"
           height="7"
           x="-10"
           y="-47"
           transform="scale(-1,-1)"
           id="rect3696"
           style="fill:url(#radialGradient2457);fill-opacity:1;stroke:none" />
        <rect
           width="28"
           height="7.0000005"
           x="10"
           y="40"
           id="rect3700"
           style="fill:url(#linearGradient2459);fill-opacity:1;stroke:none" />
      </g>
    </g>
    <rect
       style="color:#000000;fill:url(#radialGradient2990);fill-opacity:1;fill-rule:nonzero;stroke:url(#linearGradient2992);stroke-width:0.99999994;stroke-linecap:round;stroke-linejoin:round;stroke-miterlimit:4;stroke-opacity:1;stroke-dasharray:none;stroke-dashoffset:0;marker:none;visibility:visible;display:inline;overflow:visible;enable-background:accumulate"
       id="rect5505-21"
       y="-48.5"
       x="12.5"
       ry="6"
       rx="6"
       height="103"
       width="103" />
    <rect
       style="opacity:0.5;fill:none;stroke:url(#linearGradient2984);stroke-width:0.99999994;stroke-linecap:round;stroke-linejoin:round;stroke-miterlimit:4;stroke-opacity:1;stroke-dasharray:none;stroke-dashoffset:0"
       id="rect6741-7"
       y="-47.5"
       x="13.5"
       ry="5"
       rx="5"
       height="101"
       width="101" />
    <g
       id="layer4"
       transform="matrix(1.218658,0,0,1.218658,5.5092302,-55.45695)">
      <path
         d="M 49.78125,10.96875 A 1.0326559,1.0326559 0 0 0 49.6875,11 c -1.428724,0.347094 -2.23332,1.496988 -2.75,2.5 -0.51668,1.003012 -0.895035,1.959633 -1.3125,2.46875 a 1.0326559,1.0326559 0 0 0 -0.03125,0.0625 c -0.729437,1.04734 -1.313951,2.544458 -1.8125,3.96875 -0.248289,-0.214186 -0.473346,-0.445373 -0.8125,-0.5625 -0.0062,-0.0021 0.0062,-0.02916 0,-0.03125 -0.01083,-0.0039 -0.02042,0.0037 -0.03125,0 -1.2026,-0.413837 -2.413064,0.07912 -3.125,0.78125 -0.658927,0.649851 -1.022767,1.437469 -1.3125,2.125 -0.0019,0.0045 -0.02935,-0.0045 -0.03125,0 -0.03676,0.05795 -0.05761,0.128865 -0.09375,0.1875 -2.248258,3.647155 -3.297875,8.602474 -0.59375,12.5625 a 1.0326559,1.0326559 0 0 0 0.03125,0.0625 c 1.436995,1.803717 1.090903,4.247251 0.875,6.875 a 1.0326559,1.0326559 0 0 0 0.03125,0.3125 c 0.16687,0.811185 0.646001,1.336908 1.25,1.71875 -4.182841,-0.01441 -8.373605,-0.06797 -12.5625,0.03125 A 1.0326559,1.0326559 0 0 0 27.125,44.125 c -0.698179,0.225989 -1.287718,0.650824 -1.625,1.1875 -0.337282,0.536676 -0.44852,1.119244 -0.5,1.65625 -0.10296,1.074012 0.04771,2.096698 0,2.6875 A 1.0326559,1.0326559 0 0 0 25,49.75 c -0.07674,6.668443 -0.268673,14.089578 4.03125,20.125 A 1.0326559,1.0326559 0 0 0 29.125,70 c -0.127992,-0.0059 -0.20768,0.007 -0.34375,0 a 1.0326559,1.0326559 0 0 0 -0.0625,0 c -4.399614,0.04439 -8.853109,-0.08894 -13.3125,0.0625 a 1.0326559,1.0326559 0 0 0 -0.3125,0.0625 c -0.812516,0.283687 -1.454023,0.856352 -1.78125,1.53125 -0.327227,0.674898 -0.368279,1.408308 -0.28125,2.09375 0.172971,1.362321 0.875148,2.602511 1.84375,3.4375 l 0,0.03125 C 19.658461,81.394197 26.258629,81.856979 31.96875,82 A 1.0326559,1.0326559 0 0 0 32,82 c 11.507155,-0.04277 23.028858,0.09606 34.5625,-0.0625 a 1.0326559,1.0326559 0 0 0 0.09375,0 c 5.018429,-0.411353 10.90636,-1.079753 14.875,-5.1875 l 0,-0.03125 C 82.421836,75.828077 82.981824,74.591356 83,73.28125 83.00915,72.621687 82.860429,71.917114 82.46875,71.3125 82.077071,70.707886 81.425784,70.249643 80.625,70.0625 a 1.0326559,1.0326559 0 0 0 -0.25,-0.03125 C 75.84366,69.969131 71.328485,70.000536 66.8125,70 c 1.867399,-2.338984 2.709411,-5.257447 3.28125,-8 1.172686,-0.01012 2.454659,0.09464 3.84375,0 1.64884,-0.112341 3.451076,-0.61274 4.71875,-2.1875 a 1.0326559,1.0326559 0 0 0 0,-0.03125 c 1.101006,-1.412625 1.34783,-3.052627 1.375,-4.5625 C 80.058012,53.731581 79.910928,52.336767 80,51.125 80.0034,51.10366 79.9968,51.08383 80,51.0625 80.562071,47.257088 77.322681,43.630273 73.40625,44.03125 73.36131,44.03585 73.32636,43.99432 73.28125,44 L 53,44 c 1.209921,-2.133803 2.221069,-4.474395 2.75,-6.9375 0.497601,0.279437 1.017166,0.537145 1.53125,0.5 0.640236,-0.04626 1.198104,-0.331386 1.65625,-0.65625 0.863015,-0.61195 1.446761,-1.444875 1.875,-2.15625 0.02644,-0.04391 0.09993,-0.08221 0.125,-0.125 L 60.90625,34.59375 C 63.594594,31.188294 63.395879,26.458397 61.09375,23 a 1.0326559,1.0326559 0 0 0 -0.0625,-0.09375 c -0.634279,-0.795431 -0.649968,-1.487118 -0.46875,-2.5 0.181218,-1.012882 0.640709,-2.186329 0.78125,-3.5 a 1.0326559,1.0326559 0 0 0 0,-0.1875 C 61.227595,14.964245 59.581691,13.751146 57.90625,14 A 1.0326559,1.0326559 0 0 0 57.75,14.03125 c -1.273837,0.392537 -2.04458,1.390238 -2.59375,2.3125 -0.54917,0.922262 -0.935977,1.836086 -1.34375,2.4375 a 1.0326559,1.0326559 0 0 0 -0.03125,0.0625 c -0.59128,0.947808 -0.877136,1.916481 -1.0625,2.90625 -0.301429,-2.14071 -0.187939,-4.374915 0.3125,-6.53125 l -0.03125,0 c 0.379057,-1.016554 0.240237,-2.106232 -0.3125,-2.9375 -0.58654,-0.882104 -1.687703,-1.495013 -2.90625,-1.3125 z m -3,27.21875 c 0.168504,1.081202 0.227151,2.154064 0.03125,3.25 l 0.0625,0 c -0.465353,1.030198 -0.321529,2.012867 -0.34375,2.5625 -0.0016,0.04049 0.004,-6.15e-4 0,0.03125 A 1.0326559,1.0326559 0 0 0 46.21875,44 c -0.942512,0.0065 -1.898961,-2.02e-4 -2.84375,0 0.36796,-0.237881 0.671699,-0.555403 0.90625,-0.96875 l 0.0625,0.0625 c 1.14617,-1.394081 1.929485,-3.112567 2.4375,-4.90625 z M 71,53 c 0.01658,0.0013 0.0834,-7.88e-4 0.09375,0 -0.0031,0.06592 -0.0087,0.06692 -0.0625,0.25 a 1.0326559,1.0326559 0 0 0 0,0.125 1.0326559,1.0326559 0 0 0 -0.03125,0 L 71,53 z"
         id="path3736"
         style="opacity:0.05;color:#000000;fill:#280b0b;fill-opacity:1;fill-rule:nonzero;stroke:none;stroke-width:1;marker:none;visibility:visible;display:inline;overflow:visible;enable-background:accumulate"
         inkscape:connector-curvature="0" />
      <path
         d="m 49.9375,12 c -2.051391,0.498364 -2.323795,3.179968 -3.508342,4.624574 -1.388438,1.993546 -2.77058,6.632587 -2.603099,7.493218 0.173398,-1.312047 0.397767,-3.221708 -1.201059,-3.742792 -1.680685,-0.601328 -2.747003,1.201092 -3.271252,2.50487 -2.175659,3.43039 -3.17068,8.016651 -0.727783,11.594125 1.760379,2.209629 1.303856,5.050813 1.092785,7.619755 0.37917,1.843209 3.080747,2.006095 3.825911,0.328591 C 46.113187,39.298256 47.394014,34.658772 45.125,31 c 1.823918,3.22275 3.388805,6.829303 2.710409,10.624477 -0.775838,1.244656 0.593434,4.083814 -1.628251,3.406773 -6.254064,0.04316 -12.52728,-0.08536 -18.769658,0.0625 -2.005876,0.649269 -1.278665,3.068249 -1.40625,4.648185 -0.0768,6.673918 -0.210429,13.858089 3.845657,19.551259 2.417225,1.927037 0.882138,1.842695 -1.150092,1.738056 -4.427117,0.04467 -8.873947,-0.08745 -13.289315,0.0625 -2.356328,0.822703 -1.338882,4.108501 0.109289,5.343913 4.451819,3.900052 10.77497,4.388865 16.453211,4.531087 11.518001,-0.04281 23.0392,0.08814 34.555086,-0.07018 4.996193,-0.40953 10.618425,-1.084455 14.262843,-4.871744 1.31884,-1.303705 1.863215,-4.425375 -0.442929,-4.964321 -5.317745,-0.0729 -10.646695,-0.01043 -15.96875,-0.03125 3.115736,-2.38126 4.189873,-6.393984 4.90625,-10.0625 2.890101,-0.194106 6.417006,0.793857 8.516711,-1.814487 1.826642,-2.343637 0.919391,-5.44949 1.139539,-8.188391 0.506169,-3.186484 -2.271655,-6.347257 -5.549611,-5.934622 -7.379296,0 -14.758593,0 -22.137889,0 C 54.54604,39.961547 56.859682,33.098236 53.583401,27.4626 51.350774,23.700505 51.056909,19.190914 52.03083,14.994399 52.67409,13.548915 51.576574,11.754501 49.9375,12 z m 8.125,3.03125 c -1.859151,0.572904 -2.393845,2.863232 -3.391059,4.333998 -2.409202,3.861897 -0.542678,8.206816 1.305445,11.789157 0.09659,1.618807 -1.778363,3.705755 0.02311,4.970595 1.655884,1.252376 3.269075,-0.702175 4.042753,-2.022827 2.488661,-3.020011 2.296529,-7.363714 0.186059,-10.53419 -1.697349,-2.128597 -0.155515,-4.550833 0.08369,-6.786733 -0.07301,-1.102809 -1.177333,-1.909324 -2.25,-1.75 z M 43.75,25.96875 c 0.123577,1.723117 0.804482,4.392029 0.10145,1.257507 C 43.79612,26.809187 43.76298,26.389245 43.75,25.96875 z m 26.21875,26 c 1.352528,-0.148707 2.563463,-0.155821 2.0625,1.548963 0.539037,1.165914 -2.61908,1.193594 -2.0625,-0.01094 0,-0.512673 0,-1.025346 0,-1.538019 z"
         inkscape:connector-curvature="0"
         id="path3730"
         style="opacity:0.1;color:#000000;fill:#280b0b;fill-opacity:1;fill-rule:nonzero;stroke:none;stroke-width:1;marker:none;visibility:visible;display:inline;overflow:visible;enable-background:accumulate" />
      <path
         d="M 50.09375,13.0625 A 0.91274745,0.91274745 0 0 0 49.4375,13.5 c -2.095266,3.510328 -3.517171,6.141271 -4.21875,8.5625 -0.701579,2.421229 -0.643597,4.635603 0.15625,7 1.4871,4.395955 4.879919,5.995423 3.15625,15.0625 a 0.91274745,0.91274745 0 0 0 1.6875,0.65625 c 2.989975,-4.666295 5.364004,-10.868767 2.84375,-16 C 50.748799,24.070555 49.688497,21.704195 51.125,14.125 a 0.91274745,0.91274745 0 0 0 -1.03125,-1.0625 z m 8.125,3.03125 A 0.91274745,0.91274745 0 0 0 57.625,16.5 c -1.467796,2.170946 -2.42954,3.900584 -2.84375,5.59375 -0.41421,1.693166 -0.233762,3.339286 0.46875,4.96875 0.698508,1.620179 1.375973,2.499153 1.625,3.3125 0.249027,0.813347 0.262837,1.72049 -0.5625,3.84375 a 0.91274745,0.91274745 0 0 0 1.53125,0.9375 C 59.491658,33.297886 60.430764,31.696186 60.75,30.09375 61.069236,28.491314 60.702342,26.990322 60,25.5 c -0.700604,-1.486633 -1.304156,-2.410392 -1.53125,-3.4375 -0.227094,-1.027108 -0.167386,-2.336675 0.75,-4.75 a 0.91274745,0.91274745 0 0 0 -1,-1.21875 z m -16.375,5.25 a 0.91274745,0.91274745 0 0 0 -0.65625,0.4375 c -1.319255,2.265622 -2.209058,3.987479 -2.65625,5.59375 -0.447192,1.606271 -0.420768,3.12995 0.125,4.6875 1.026282,2.92888 3.117173,3.68573 2.09375,9.40625 a 0.91274745,0.91274745 0 0 0 1.625,0.71875 c 1.706512,-2.152919 2.583792,-4.083529 2.8125,-5.875 0.228708,-1.791471 -0.208993,-3.3862 -1,-4.8125 -1.38341,-2.494492 -2.166299,-4.306185 -1.3125,-9.09375 a 0.91274745,0.91274745 0 0 0 -1.03125,-1.0625 z m -14.03125,24.75 A 0.91274745,0.91274745 0 0 0 27.09375,47 l 0,8 c 0,4.554456 0.908101,8.659951 2.4375,11.71875 1.529399,3.058799 3.762925,5.1875 6.46875,5.1875 l 24,0 c 2.283675,0 4.26063,-1.521426 5.71875,-3.8125 1.342312,-2.109111 2.2476,-4.976064 2.75,-8.1875 l 5.53125,0 c 2.151825,0 3.90625,-1.754425 3.90625,-3.90625 l 0,-6 c 0,-2.151825 -1.754425,-3.90625 -3.90625,-3.90625 l -6,0 -40,0 a 0.91274745,0.91274745 0 0 0 -0.1875,0 z m 5.0625,3.78125 0.21875,0 0,5.125 c 0.0084,0.725211 0.0012,1.613427 0,2.46875 C 33.050966,56.649176 32.935661,55.709579 32.875,55 l 0,-0.09375 0,-5.03125 z m 36.03125,1.03125 3.21875,0 c 0.548925,0 0.96875,0.419825 0.96875,0.96875 l 0,2.5 c 0,0.548925 -0.419825,0.96875 -0.96875,0.96875 l -3.21875,0 c 0.002,-0.116467 0,-0.223709 0,-0.34375 l 0,-4.09375 z M 15.8125,72.09375 A 0.91274745,0.91274745 0 0 0 15.09375,73 c 0,1.15755 0.631248,2.202854 1.5625,3.03125 0.931252,0.828396 2.169741,1.493341 3.6875,2.0625 3.035517,1.138319 7.132408,1.8125 11.65625,1.8125 l 32,0 c 4.523842,0 8.620733,-0.674181 11.65625,-1.8125 1.517759,-0.569159 2.756248,-1.234104 3.6875,-2.0625 0.931252,-0.828396 1.5625,-1.8737 1.5625,-3.03125 A 0.91274745,0.91274745 0 0 0 80,72.09375 l -64,0 a 0.91274745,0.91274745 0 0 0 -0.1875,0 z"
         id="path3726"
         style="opacity:0.15;color:#000000;fill:#280b0b;fill-opacity:1;fill-rule:nonzero;stroke:none;stroke-width:1;marker:none;visibility:visible;display:inline;overflow:visible;enable-background:accumulate"
         inkscape:connector-curvature="0" />
      <path
         d="m 50.21875,13.96875 c -4.166912,6.981084 -5.471938,10.368983 -3.96875,14.8125 1.362615,4.027969 4.958328,6.184849 3.1875,15.5 C 52.345649,39.742656 54.533755,33.837222 52.25,29.1875 49.927251,24.458383 48.758167,21.674993 50.21875,13.96875 z M 58.375,17 c -2.882729,4.263705 -3.56807,6.702743 -2.28125,9.6875 1.310285,3.039185 2.783751,3.446912 1.0625,7.875 3.175759,-3.581339 3.339455,-5.911577 2.03125,-8.6875 C 57.852961,23.043202 56.473203,22.002972 58.375,17 z m -16.40625,5.25 c -2.615365,4.491496 -3.429174,6.669894 -2.4375,9.5 0.898933,2.565443 3.192512,3.908042 2.125,9.875 3.276218,-4.133245 3.169375,-7.071815 1.71875,-9.6875 C 41.960761,29.387418 41.088423,27.186318 41.96875,22.25 z M 28,47 l 0,8 c 0,8.864 3.568,16 8,16 l 24,0 c 3.7395,0 6.864919,-5.088026 7.75,-12 L 74,59 c 1.662,0 3,-1.338 3,-3 l 0,-6 c 0,-1.662 -1.338,-3 -3,-3 l -6,0 -40,0 z m 3.96875,1.96875 2.03125,0 L 34,55 c 0.05175,4.461807 -0.542701,11.504655 4,14.03125 l -1.5,0 C 31.892216,66.858893 32.343769,59.241918 31.96875,55 l 0,-6.03125 z M 68,50 72.125,50 C 73.16375,50 74,50.83625 74,51.875 l 0,2.5 c 0,1.03875 -0.83625,1.875 -1.875,1.875 l -4.15625,0 C 67.984947,55.83239 68,55.426201 68,55 l 0,-5 z M 16,73 c 0,3.324 7.136,6 16,6 l 32,0 c 8.864,0 16,-2.676 16,-6 l -64,0 z"
         inkscape:connector-curvature="0"
         id="path3720"
         style="opacity:0.3;color:#000000;fill:#280b0b;fill-opacity:1;fill-rule:nonzero;stroke:none;stroke-width:1;marker:none;visibility:visible;display:inline;overflow:visible;enable-background:accumulate" />
      <path
         d="m 50.21875,12.96875 c -4.166912,6.981084 -5.471938,10.368983 -3.96875,14.8125 1.362615,4.027969 4.958328,6.184849 3.1875,15.5 C 52.345649,38.742656 54.533755,32.837222 52.25,28.1875 49.927251,23.458383 48.758167,20.674993 50.21875,12.96875 z M 58.375,16 c -2.882729,4.263705 -3.56807,6.702743 -2.28125,9.6875 1.310285,3.039185 2.783751,3.446912 1.0625,7.875 3.175759,-3.581339 3.339455,-5.911577 2.03125,-8.6875 C 57.852961,22.043202 56.473203,21.002972 58.375,16 z m -16.40625,5.25 c -2.615365,4.491496 -3.429174,6.669894 -2.4375,9.5 0.898933,2.565443 3.192512,3.908042 2.125,9.875 3.276218,-4.133245 3.169375,-7.071815 1.71875,-9.6875 C 41.960761,28.387418 41.088423,26.186318 41.96875,21.25 z M 28,46 l 0,8 c 0,8.864 3.568,16 8,16 l 24,0 c 3.7395,0 6.864919,-5.088026 7.75,-12 L 74,58 c 1.662,0 3,-1.338 3,-3 l 0,-6 c 0,-1.662 -1.338,-3 -3,-3 l -6,0 -40,0 z m 3.96875,1.96875 2.03125,0 L 34,54 c 0.05175,4.461807 -0.542701,11.504655 4,14.03125 l -1.5,0 C 31.892216,65.858893 32.343769,58.241918 31.96875,54 l 0,-6.03125 z M 68,49 72.125,49 C 73.16375,49 74,49.83625 74,50.875 l 0,2.5 c 0,1.03875 -0.83625,1.875 -1.875,1.875 l -4.15625,0 C 67.984947,54.83239 68,54.426201 68,54 l 0,-5 z M 16,72 c 0,3.324 7.136,6 16,6 l 32,0 c 8.864,0 16,-2.676 16,-6 l -64,0 z"
         inkscape:connector-curvature="0"
         id="rect3675"
         style="color:#000000;fill:url(#linearGradient3718);fill-opacity:1;fill-rule:nonzero;stroke:none;stroke-width:1;marker:none;visibility:visible;display:inline;overflow:visible;enable-background:accumulate" />
      <path
         d="m 50.21875,12.96875 c -3.175193,5.319596 -4.687046,8.546264 -4.5625,11.75 0.188504,-2.815411 1.65008,-5.830738 4.34375,-10.375 0.07225,-0.454123 0.125395,-0.882448 0.21875,-1.375 z M 58.375,16 c -2.14085,3.166428 -3.065727,5.312888 -2.875,7.4375 0.121763,-1.58137 0.876359,-3.272406 2.25,-5.4375 0.149209,-0.599483 0.334696,-1.236311 0.625,-2 z m -8.8125,3.4375 c -0.07356,3.948058 1.015893,6.346609 2.6875,9.75 0.566377,1.153143 0.863981,2.388644 0.9375,3.65625 0.04524,-1.61826 -0.223827,-3.203212 -0.9375,-4.65625 -1.526719,-3.108399 -2.576754,-5.372364 -2.6875,-8.75 z m 7.90625,1.03125 c -0.206764,2.280419 0.767808,3.388419 1.71875,5.40625 0.398445,0.845474 0.636903,1.658023 0.71875,2.46875 0.103835,-1.163172 -0.156473,-2.275637 -0.71875,-3.46875 -0.797515,-1.692272 -1.598918,-2.76554 -1.71875,-4.40625 z m -15.5,0.78125 c -2.063372,3.543531 -2.993741,5.6613 -2.8125,7.78125 0.135223,-1.744141 1.012593,-3.640399 2.625,-6.4375 0.05367,-0.43272 0.101541,-0.861744 0.1875,-1.34375 z m -0.3125,3.96875 c -0.113707,2.978924 0.625502,4.747463 1.71875,6.71875 0.512796,0.924645 0.850632,1.893648 0.9375,2.9375 0.108943,-1.439307 -0.264599,-2.724163 -0.9375,-3.9375 -0.963826,-1.737921 -1.641565,-3.328738 -1.71875,-5.71875 z m 16.25,5.59375 c -0.0737,0.726242 -0.300768,1.594307 -0.75,2.75 0.195616,-0.220599 0.35813,-0.413498 0.53125,-0.625 0.229553,-0.877619 0.288504,-1.540064 0.21875,-2.125 z m -16,7.4375 c -0.02523,0.704967 -0.09038,1.482807 -0.25,2.375 0.0696,-0.0878 0.120938,-0.163268 0.1875,-0.25 0.08902,-0.798256 0.09323,-1.496224 0.0625,-2.125 z m 8,1.03125 c -0.03661,1.176045 -0.180452,2.483456 -0.46875,4 0.07995,-0.12478 0.171213,-0.248209 0.25,-0.375 0.196022,-1.36607 0.243373,-2.560597 0.21875,-3.625 z M 28,46 l 0,1 40,0 6,0 c 1.662,0 3,1.338 3,3 l 0,-1 c 0,-1.662 -1.338,-3 -3,-3 l -6,0 -40,0 z m 46,7.375 c 0,1.03875 -0.83625,1.875 -1.875,1.875 l -4.125,0 c -0.0044,0.335618 -0.01829,0.66586 -0.03125,1 l 4.15625,0 C 73.16375,56.25 74,55.41375 74,54.375 l 0,-1 z M 31.96875,54 l 0,1 C 32.343769,59.241918 31.89222,66.858893 36.5,69.03125 l 1.5,0 c -0.500391,-0.278311 -0.929044,-0.621578 -1.3125,-1 l -0.1875,0 C 31.892216,65.858893 32.343769,58.241918 31.96875,54 z M 16,72 c 0,0.337467 0.0773,0.678013 0.21875,1 l 63.5625,0 C 79.922695,72.678013 80,72.337467 80,72 l -64,0 z"
         inkscape:connector-curvature="0"
         id="path3738"
         style="color:#000000;fill:#ffffff;fill-opacity:1;fill-rule:nonzero;stroke:none;stroke-width:1;marker:none;visibility:visible;display:inline;overflow:visible;enable-background:accumulate" />
    </g>
  </g>
</svg>
