<?xml version="1.0" encoding="UTF-8" standalone="no"?>
<!-- Created with Inkscape (http://www.inkscape.org/) -->

<svg
   xmlns:dc="http://purl.org/dc/elements/1.1/"
   xmlns:cc="http://creativecommons.org/ns#"
   xmlns:rdf="http://www.w3.org/1999/02/22-rdf-syntax-ns#"
   xmlns:svg="http://www.w3.org/2000/svg"
   xmlns="http://www.w3.org/2000/svg"
   xmlns:xlink="http://www.w3.org/1999/xlink"
   xmlns:sodipodi="http://sodipodi.sourceforge.net/DTD/sodipodi-0.dtd"
   xmlns:inkscape="http://www.inkscape.org/namespaces/inkscape"
   width="128"
   height="128"
   id="svg3886"
   version="1.1"
   inkscape:version="0.48.1 r9760"
   sodipodi:docname="1.svg">
  <defs
     id="defs3888">
    <linearGradient
       inkscape:collect="always"
       xlink:href="#linearGradient3924"
       id="linearGradient2984"
       gradientUnits="userSpaceOnUse"
       gradientTransform="matrix(2.7297298,0,0,2.7297298,-1.5135108,-62.513486)"
       x1="23.99999"
       y1="4.999989"
       x2="23.99999"
       y2="43" />
    <linearGradient
       id="linearGradient3924">
      <stop
         id="stop3926"
         style="stop-color:#ffffff;stop-opacity:1;"
         offset="0" />
      <stop
         offset="0.06316455"
         style="stop-color:#ffffff;stop-opacity:0.23529412;"
         id="stop3928" />
      <stop
         id="stop3930"
         style="stop-color:#ffffff;stop-opacity:0.15686275;"
         offset="0.95056331" />
      <stop
         id="stop3932"
         style="stop-color:#ffffff;stop-opacity:0.39215687;"
         offset="1" />
    </linearGradient>
    <radialGradient
       inkscape:collect="always"
       xlink:href="#linearGradient7012-661-145-733-759-865-745-661-970-94-8"
       id="radialGradient2990"
       gradientUnits="userSpaceOnUse"
       gradientTransform="matrix(5.131108e-8,6.1720507,-6.5292935,-1.1371273e-7,119.1713,-93.225241)"
       cx="7.4956832"
       cy="8.4497671"
       fx="7.4956832"
       fy="8.4497671"
       r="19.99999" />
    <linearGradient
       id="linearGradient7012-661-145-733-759-865-745-661-970-94-8">
      <stop
         id="stop3618-1"
         style="stop-color:#f08878;stop-opacity:1;"
         offset="0" />
      <stop
         id="stop3270-2"
         style="stop-color:#d31820;stop-opacity:1;"
         offset="0.5" />
      <stop
         id="stop3620-8"
         style="stop-color:#ff0b00;stop-opacity:1;"
         offset="1" />
    </linearGradient>
    <linearGradient
       inkscape:collect="always"
       xlink:href="#linearGradient3390-178-986-453-3"
       id="linearGradient2992"
       gradientUnits="userSpaceOnUse"
       gradientTransform="matrix(2.6410257,0,0,2.6410257,0.6153792,-60.384617)"
       x1="24"
       y1="44"
       x2="24"
       y2="3.8990016" />
    <linearGradient
       id="linearGradient3390-178-986-453-3">
      <stop
         id="stop3624-6"
         style="stop-color:#ba1217;stop-opacity:1;"
         offset="0" />
      <stop
         offset="0.5"
         style="stop-color:#cf1c1c;stop-opacity:1;"
         id="stop3856-8" />
      <stop
         id="stop3626-0"
         style="stop-color:#e23947;stop-opacity:1;"
         offset="1" />
    </linearGradient>
    <radialGradient
       cx="4.9929786"
       cy="43.5"
       r="2.5"
       fx="4.9929786"
       fy="43.5"
       id="radialGradient2455"
       xlink:href="#linearGradient3688-166-749"
       gradientUnits="userSpaceOnUse"
       gradientTransform="matrix(2.003784,0,0,1.4,27.98813,-17.4)" />
    <linearGradient
       id="linearGradient3688-166-749">
      <stop
         id="stop2883"
         style="stop-color:#181818;stop-opacity:1"
         offset="0" />
      <stop
         id="stop2885"
         style="stop-color:#181818;stop-opacity:0"
         offset="1" />
    </linearGradient>
    <radialGradient
       cx="4.9929786"
       cy="43.5"
       r="2.5"
       fx="4.9929786"
       fy="43.5"
       id="radialGradient2457"
       xlink:href="#linearGradient3688-464-309"
       gradientUnits="userSpaceOnUse"
       gradientTransform="matrix(2.003784,0,0,1.4,-20.01187,-104.4)" />
    <linearGradient
       id="linearGradient3688-464-309">
      <stop
         id="stop2889"
         style="stop-color:#181818;stop-opacity:1"
         offset="0" />
      <stop
         id="stop2891"
         style="stop-color:#181818;stop-opacity:0"
         offset="1" />
    </linearGradient>
    <linearGradient
       x1="25.058096"
       y1="47.027729"
       x2="25.058096"
       y2="39.999443"
       id="linearGradient2459"
       xlink:href="#linearGradient3702-501-757"
       gradientUnits="userSpaceOnUse" />
    <linearGradient
       id="linearGradient3702-501-757">
      <stop
         id="stop2895"
         style="stop-color:#181818;stop-opacity:0"
         offset="0" />
      <stop
         id="stop2897"
         style="stop-color:#181818;stop-opacity:1"
         offset="0.5" />
      <stop
         id="stop2899"
         style="stop-color:#181818;stop-opacity:0"
         offset="1" />
    </linearGradient>
    <linearGradient
       x1="62.336792"
       y1="79.015236"
       x2="62.336792"
       y2="12.797539"
       id="linearGradient2936"
       xlink:href="#linearGradient3694"
       gradientUnits="userSpaceOnUse"
       gradientTransform="matrix(0.68397067,0,0,0.70908801,1.2614099,0.63721709)" />
    <linearGradient
       id="linearGradient3694">
      <stop
         id="stop3696"
         style="stop-color:#e6e6e6;stop-opacity:1"
         offset="0" />
      <stop
         id="stop3698"
         style="stop-color:#f5f5f5;stop-opacity:1"
         offset="1" />
    </linearGradient>
    <linearGradient
       gradientTransform="matrix(0.78180691,0,0,0.78180691,-0.89846511,-4.3149669)"
       x1="55"
       y1="18"
       x2="55"
       y2="112"
       id="linearGradient3831"
       xlink:href="#linearGradient3825"
       gradientUnits="userSpaceOnUse" />
    <linearGradient
       id="linearGradient3825">
      <stop
         id="stop3827"
         style="stop-color:#501616;stop-opacity:1"
         offset="0" />
      <stop
         id="stop3829"
         style="stop-color:#501616;stop-opacity:0"
         offset="1" />
    </linearGradient>
  </defs>
  <sodipodi:namedview
     id="base"
     pagecolor="#ffffff"
     bordercolor="#666666"
     borderopacity="1.0"
     inkscape:pageopacity="0.0"
     inkscape:pageshadow="2"
     inkscape:zoom="1.375"
     inkscape:cx="82.909091"
     inkscape:cy="50.181818"
     inkscape:current-layer="layer1"
     showgrid="true"
     inkscape:document-units="px"
     inkscape:grid-bbox="true"
     inkscape:window-width="1388"
     inkscape:window-height="838"
     inkscape:window-x="449"
     inkscape:window-y="44"
     inkscape:window-maximized="0" />
  <metadata
     id="metadata3891">
    <rdf:RDF>
      <cc:Work
         rdf:about="">
        <dc:format>image/svg+xml</dc:format>
        <dc:type
           rdf:resource="http://purl.org/dc/dcmitype/StillImage" />
        <dc:title></dc:title>
      </cc:Work>
    </rdf:RDF>
  </metadata>
  <g
     id="layer1"
     inkscape:label="Layer 1"
     inkscape:groupmode="layer"
     transform="translate(0,64)">
    <g
       transform="matrix(2.9499988,0,0,1.2222234,-6.8000012,1.555537)"
       id="g2036"
       style="display:inline">
      <g
         transform="matrix(1.052632,0,0,1.285713,-1.263158,-13.42854)"
         id="g3712"
         style="opacity:0.4">
        <rect
           width="5"
           height="7"
           x="38"
           y="40"
           id="rect2801"
           style="fill:url(#radialGradient2455);fill-opacity:1;stroke:none" />
        <rect
           width="5"
           height="7"
           x="-10"
           y="-47"
           transform="scale(-1,-1)"
           id="rect3696"
           style="fill:url(#radialGradient2457);fill-opacity:1;stroke:none" />
        <rect
           width="28"
           height="7.0000005"
           x="10"
           y="40"
           id="rect3700"
           style="fill:url(#linearGradient2459);fill-opacity:1;stroke:none" />
      </g>
    </g>
    <rect
       style="color:#000000;fill:url(#radialGradient2990);fill-opacity:1;fill-rule:nonzero;stroke:url(#linearGradient2992);stroke-width:0.99999994;stroke-linecap:round;stroke-linejoin:round;stroke-miterlimit:4;stroke-opacity:1;stroke-dasharray:none;stroke-dashoffset:0;marker:none;visibility:visible;display:inline;overflow:visible;enable-background:accumulate"
       id="rect5505-21"
       y="-48.5"
       x="12.5"
       ry="6"
       rx="6"
       height="103"
       width="103" />
    <rect
       style="opacity:0.5;fill:none;stroke:url(#linearGradient2984);stroke-width:0.99999994;stroke-linecap:round;stroke-linejoin:round;stroke-miterlimit:4;stroke-opacity:1;stroke-dasharray:none;stroke-dashoffset:0"
       id="rect6741-7"
       y="-47.5"
       x="13.5"
       ry="5"
       rx="5"
       height="101"
       width="101" />
    <path
       d="m 55.42597,-20.172491 c -0.9834,0 -1.951102,0.276411 -2.805202,0.841561 -0.300758,0.195409 -0.589103,0.388731 -0.841562,0.641189 L 21.042183,12.087356 c -2.009423,2.009423 -2.009423,5.244033 0,7.253456 2.009422,2.009423 5.244033,2.009423 7.253455,0 l 22.000817,-21.960741 0,18.35405 c 0,2.841752 2.287764,5.129516 5.129515,5.129516 2.841753,0 5.129517,-2.287764 5.129517,-5.129516 l 0,-30.777096 c 0,-0.356647 -0.04589,-0.691453 -0.120223,-1.041933 -0.06212,-0.305083 -0.127071,-0.599153 -0.240446,-0.881636 -0.251179,-0.617289 -0.619727,-1.220841 -1.122082,-1.723197 -0.479957,-0.479956 -1.056617,-0.831329 -1.643048,-1.082007 -0.30705,-0.12944 -0.627264,-0.212414 -0.961784,-0.280521 -0.350479,-0.07433 -0.685286,-0.120222 -1.041934,-0.120222 z m 12.823791,0 c -2.841752,0 -5.129516,2.287764 -5.129516,5.129516 0,2.841753 2.287764,5.1295153 5.129516,5.1295153 l 5.129516,0 0,25.6475807 c 0,2.841752 2.287764,5.129516 5.129516,5.129516 2.841752,0 5.129516,-2.287764 5.129516,-5.129516 l 0,-25.6475807 5.129516,0 c 2.841752,0 5.129518,-2.2877623 5.129518,-5.1295153 0,-2.841752 -2.287766,-5.129516 -5.129518,-5.129516 l -10.259032,0 -10.259032,0 z m 33.341849,0 c -2.841747,0 -5.129517,2.287764 -5.129517,5.129516 l 0,30.777096 c 0,2.841752 2.28777,5.129516 5.129517,5.129516 2.84176,0 5.12951,-2.287764 5.12951,-5.129516 l 0,-30.777096 c 0,-2.841752 -2.28775,-5.129516 -5.12951,-5.129516 z m 0,1.282379 c 2.12472,0 3.84713,1.722422 3.84713,3.847137 0,2.124715 -1.72241,3.847137 -3.84713,3.847137 -2.124707,0 -3.847127,-1.722422 -3.847127,-3.847137 0,-2.124715 1.72242,-3.847137 3.847127,-3.847137 z M 45.166939,5.4750885 c -2.124715,0 -3.847137,1.7224219 -3.847137,3.847137 0,2.1247155 1.722422,3.8471375 3.847137,3.8471375 2.124715,0 3.847137,-1.722422 3.847137,-3.8471375 0,-2.1247151 -1.722422,-3.847137 -3.847137,-3.847137 z"
       inkscape:connector-curvature="0"
       id="path3931"
       style="opacity:0.2;color:#000000;fill:#000000;fill-opacity:1;fill-rule:nonzero;stroke:none;stroke-width:0.5;marker:none;visibility:visible;display:inline;overflow:visible;enable-background:accumulate" />
    <path
       d="m 55.42597,-21.45487 c -0.9834,0 -1.951102,0.276411 -2.805202,0.841562 -0.300758,0.195408 -0.589103,0.388729 -0.841562,0.641189 L 21.042183,10.804976 c -2.009423,2.009423 -2.009423,5.244035 0,7.253456 2.009422,2.009423 5.244033,2.009423 7.253455,0 l 22.000817,-21.96074 0,18.35405 c 0,2.841751 2.287764,5.129515 5.129515,5.129515 2.841753,0 5.129517,-2.287764 5.129517,-5.129515 l 0,-30.777095 c 0,-0.356648 -0.04589,-0.691455 -0.120223,-1.041934 -0.06212,-0.305083 -0.127071,-0.599152 -0.240446,-0.881635 -0.251179,-0.617291 -0.619727,-1.220842 -1.122082,-1.723197 -0.479957,-0.479958 -1.056617,-0.83133 -1.643048,-1.082008 -0.30705,-0.129441 -0.627264,-0.212414 -0.961784,-0.28052 -0.350479,-0.07433 -0.685286,-0.120223 -1.041934,-0.120223 z m 12.823791,0 c -2.841752,0 -5.129516,2.287765 -5.129516,5.129517 0,2.841751 2.287764,5.129515 5.129516,5.129515 l 5.129516,0 0,25.64758 c 0,2.841751 2.287764,5.129515 5.129516,5.129515 2.841752,0 5.129516,-2.287764 5.129516,-5.129515 l 0,-25.64758 5.129516,0 c 2.841752,0 5.129518,-2.287764 5.129518,-5.129515 0,-2.841752 -2.287766,-5.129517 -5.129518,-5.129517 l -10.259032,0 -10.259032,0 z m 33.341849,0 c -2.841747,0 -5.129517,2.287765 -5.129517,5.129517 l 0,30.777095 c 0,2.841751 2.28777,5.129515 5.129517,5.129515 2.84176,0 5.12951,-2.287764 5.12951,-5.129515 l 0,-30.777095 c 0,-2.841752 -2.28775,-5.129517 -5.12951,-5.129517 z m 0,1.282379 c 2.12472,0 3.84713,1.722423 3.84713,3.847138 0,2.124714 -1.72241,3.847137 -3.84713,3.847137 -2.124707,0 -3.847127,-1.722423 -3.847127,-3.847137 0,-2.124715 1.72242,-3.847138 3.847127,-3.847138 z M 45.166939,4.1927095 c -2.124715,0 -3.847137,1.7224222 -3.847137,3.8471367 0,2.1247158 1.722422,3.8471378 3.847137,3.8471378 2.124715,0 3.847137,-1.722422 3.847137,-3.8471378 0,-2.1247145 -1.722422,-3.8471367 -3.847137,-3.8471367 z"
       inkscape:connector-curvature="0"
       id="rect3868"
       style="color:#000000;fill:#ffffff;fill-opacity:1;fill-rule:nonzero;stroke:none;stroke-width:0.5;marker:none;visibility:visible;display:inline;overflow:visible;enable-background:accumulate" />
  </g>
</svg>
