<?xml version="1.0" encoding="UTF-8" standalone="no"?>
<!-- Created with Inkscape (http://www.inkscape.org/) -->

<svg
   xmlns:dc="http://purl.org/dc/elements/1.1/"
   xmlns:cc="http://creativecommons.org/ns#"
   xmlns:rdf="http://www.w3.org/1999/02/22-rdf-syntax-ns#"
   xmlns:svg="http://www.w3.org/2000/svg"
   xmlns="http://www.w3.org/2000/svg"
   xmlns:xlink="http://www.w3.org/1999/xlink"
   xmlns:sodipodi="http://sodipodi.sourceforge.net/DTD/sodipodi-0.dtd"
   xmlns:inkscape="http://www.inkscape.org/namespaces/inkscape"
   version="1.0"
   width="96"
   height="96"
   id="svg2408"
   inkscape:version="0.48.1 r9760"
   sodipodi:docname="dc++.svg">
  <sodipodi:namedview
     pagecolor="#ffffff"
     bordercolor="#666666"
     borderopacity="1"
     objecttolerance="10"
     gridtolerance="10"
     guidetolerance="10"
     inkscape:pageopacity="0"
     inkscape:pageshadow="2"
     inkscape:window-width="981"
     inkscape:window-height="743"
     id="namedview103"
     showgrid="false"
     inkscape:zoom="3.0104167"
     inkscape:cx="48"
     inkscape:cy="52.152249"
     inkscape:window-x="0"
     inkscape:window-y="24"
     inkscape:window-maximized="0"
     inkscape:current-layer="svg2408" />
  <defs
     id="defs2410">
    <linearGradient
       id="linearGradient4025">
      <stop
         id="stop4027"
         style="stop-color:#464646;stop-opacity:0"
         offset="0" />
      <stop
         id="stop4029"
         style="stop-color:#404040;stop-opacity:0"
         offset="0.88235295" />
      <stop
         id="stop4031"
         style="stop-color:#141414;stop-opacity:1"
         offset="1" />
    </linearGradient>
    <linearGradient
       id="linearGradient3991">
      <stop
         id="stop3993"
         style="stop-color:#787878;stop-opacity:1"
         offset="0" />
      <stop
         id="stop3995"
         style="stop-color:#141414;stop-opacity:1"
         offset="1" />
    </linearGradient>
    <linearGradient
       id="linearGradient3914">
      <stop
         id="stop3916"
         style="stop-color:#ffffff;stop-opacity:1"
         offset="0" />
      <stop
         id="stop3918"
         style="stop-color:#ffffff;stop-opacity:0"
         offset="1" />
    </linearGradient>
    <linearGradient
       id="linearGradient3900">
      <stop
         id="stop3902"
         style="stop-color:#66711a;stop-opacity:0"
         offset="0" />
      <stop
         id="stop3908"
         style="stop-color:#5e6818;stop-opacity:0"
         offset="0.88235295" />
      <stop
         id="stop3904"
         style="stop-color:#3c430f;stop-opacity:1"
         offset="1" />
    </linearGradient>
    <linearGradient
       x1="45.447727"
       y1="92.539597"
       x2="45.447727"
       y2="7.0165396"
       id="ButtonShadow"
       gradientUnits="userSpaceOnUse"
       gradientTransform="scale(1.0058652,0.994169)">
      <stop
         id="stop3750"
         style="stop-color:#000000;stop-opacity:1"
         offset="0" />
      <stop
         id="stop3752"
         style="stop-color:#000000;stop-opacity:0.58823532"
         offset="1" />
    </linearGradient>
    <linearGradient
       id="linearGradient3737">
      <stop
         id="stop3739"
         style="stop-color:#ffffff;stop-opacity:1"
         offset="0" />
      <stop
         id="stop3741"
         style="stop-color:#ffffff;stop-opacity:0"
         offset="1" />
    </linearGradient>
    <linearGradient
       id="linearGradient3700">
      <stop
         id="stop3702"
         style="stop-color:#cacaca;stop-opacity:1"
         offset="0" />
      <stop
         id="stop3704"
         style="stop-color:#fcfcfc;stop-opacity:1"
         offset="1" />
    </linearGradient>
    <filter
       color-interpolation-filters="sRGB"
       id="filter3174">
      <feGaussianBlur
         id="feGaussianBlur3176"
         stdDeviation="1.71" />
    </filter>
    <linearGradient
       x1="36.357143"
       y1="6"
       x2="36.357143"
       y2="63.893143"
       id="linearGradient3188"
       xlink:href="#linearGradient3737"
       gradientUnits="userSpaceOnUse" />
    <filter
       x="-0.192"
       y="-0.192"
       width="1.3839999"
       height="1.3839999"
       color-interpolation-filters="sRGB"
       id="filter3794">
      <feGaussianBlur
         id="feGaussianBlur3796"
         stdDeviation="5.28" />
    </filter>
    <linearGradient
       x1="48"
       y1="20.220806"
       x2="48"
       y2="138.66119"
       id="linearGradient3613"
       xlink:href="#linearGradient3737"
       gradientUnits="userSpaceOnUse" />
    <radialGradient
       cx="48"
       cy="90.171875"
       r="42"
       fx="48"
       fy="90.171875"
       id="radialGradient3619"
       xlink:href="#linearGradient3737"
       gradientUnits="userSpaceOnUse"
       gradientTransform="matrix(1.1573129,0,0,0.99590774,-7.5510206,0.19713193)" />
    <clipPath
       id="clipPath3613">
      <rect
         width="84"
         height="84"
         rx="6"
         ry="6"
         x="6"
         y="6"
         id="rect3615"
         style="fill:#ffffff;fill-opacity:1;fill-rule:nonzero;stroke:none" />
    </clipPath>
    <linearGradient
       x1="48"
       y1="90"
       x2="48"
       y2="5.9877172"
       id="linearGradient3617"
       xlink:href="#linearGradient3700"
       gradientUnits="userSpaceOnUse" />
    <linearGradient
       x1="45.447727"
       y1="92.539597"
       x2="45.447727"
       y2="7.0165396"
       id="ButtonShadow-0"
       gradientUnits="userSpaceOnUse"
       gradientTransform="matrix(1.0058652,0,0,0.994169,100,0)">
      <stop
         id="stop3750-8"
         style="stop-color:#000000;stop-opacity:1"
         offset="0" />
      <stop
         id="stop3752-5"
         style="stop-color:#000000;stop-opacity:0.58823532"
         offset="1" />
    </linearGradient>
    <linearGradient
       x1="32.251034"
       y1="6.1317081"
       x2="32.251034"
       y2="90.238609"
       id="linearGradient3780"
       xlink:href="#ButtonShadow-0"
       gradientUnits="userSpaceOnUse"
       gradientTransform="matrix(1.0238095,0,0,1.0119048,-1.1428571,-98.071429)" />
    <linearGradient
       x1="32.251034"
       y1="6.1317081"
       x2="32.251034"
       y2="90.238609"
       id="linearGradient3772"
       xlink:href="#ButtonShadow-0"
       gradientUnits="userSpaceOnUse"
       gradientTransform="matrix(1.0238095,0,0,1.0119048,-1.1428571,-98.071429)" />
    <linearGradient
       x1="32.251034"
       y1="6.1317081"
       x2="32.251034"
       y2="90.238609"
       id="linearGradient3725"
       xlink:href="#ButtonShadow-0"
       gradientUnits="userSpaceOnUse"
       gradientTransform="matrix(1.0238095,0,0,1.0119048,-1.1428571,-98.071429)" />
    <linearGradient
       x1="32.251034"
       y1="6.1317081"
       x2="32.251034"
       y2="90.238609"
       id="linearGradient3721"
       xlink:href="#ButtonShadow-0"
       gradientUnits="userSpaceOnUse"
       gradientTransform="translate(0,-97)" />
    <linearGradient
       x1="32.251034"
       y1="6.1317081"
       x2="32.251034"
       y2="90.238609"
       id="linearGradient3026"
       xlink:href="#ButtonShadow-0"
       gradientUnits="userSpaceOnUse"
       gradientTransform="matrix(1.0238095,0,0,1.0119048,-1.1428571,-98.071429)" />
    <linearGradient
       id="linearGradient3829-1">
      <stop
         id="stop3831-2"
         style="stop-color:#eaeb54;stop-opacity:1"
         offset="0" />
      <stop
         id="stop3833-4"
         style="stop-color:#92a10a;stop-opacity:1"
         offset="1" />
    </linearGradient>
    <radialGradient
       cx="128"
       cy="34.401249"
       r="16"
       fx="128"
       fy="34.401249"
       id="radialGradient3835-5"
       xlink:href="#linearGradient3829-1"
       gradientUnits="userSpaceOnUse"
       gradientTransform="matrix(1.2934124,3.7128284e-7,-3.7860493e-7,1.2816533,-37.556781,-10.196072)" />
    <radialGradient
       cx="41"
       cy="63"
       r="17"
       fx="41"
       fy="63"
       id="radialGradient3906"
       xlink:href="#linearGradient3900"
       gradientUnits="userSpaceOnUse" />
    <linearGradient
       x1="130.58118"
       y1="7.3500824"
       x2="130.58118"
       y2="45.108036"
       id="linearGradient3920"
       xlink:href="#linearGradient3914"
       gradientUnits="userSpaceOnUse" />
    <linearGradient
       x1="45.147404"
       y1="78.158714"
       x2="45.147404"
       y2="65.368584"
       id="linearGradient3937"
       xlink:href="#linearGradient3914"
       gradientUnits="userSpaceOnUse" />
    <radialGradient
       cx="128"
       cy="34.401249"
       r="16"
       fx="128"
       fy="34.401249"
       id="radialGradient3983"
       xlink:href="#linearGradient3829-1"
       gradientUnits="userSpaceOnUse"
       gradientTransform="matrix(1.2934124,3.7128284e-7,-3.7860493e-7,1.2816533,-37.556781,-10.196072)" />
    <radialGradient
       cx="41"
       cy="63"
       r="17"
       fx="41"
       fy="63"
       id="radialGradient3985"
       xlink:href="#linearGradient3900"
       gradientUnits="userSpaceOnUse" />
    <linearGradient
       x1="130.58118"
       y1="7.3500824"
       x2="130.58118"
       y2="45.108036"
       id="linearGradient3987"
       xlink:href="#linearGradient3914"
       gradientUnits="userSpaceOnUse" />
    <linearGradient
       x1="45.147404"
       y1="78.158714"
       x2="45.147404"
       y2="65.368584"
       id="linearGradient3989"
       xlink:href="#linearGradient3914"
       gradientUnits="userSpaceOnUse" />
    <radialGradient
       cx="128"
       cy="34.401249"
       r="16"
       fx="128"
       fy="34.401249"
       id="radialGradient4017"
       xlink:href="#linearGradient3991"
       gradientUnits="userSpaceOnUse"
       gradientTransform="matrix(1.2934124,3.7128284e-7,-3.7860493e-7,1.2816533,-37.556781,-10.196072)" />
    <radialGradient
       cx="41"
       cy="63"
       r="17"
       fx="41"
       fy="63"
       id="radialGradient4019"
       xlink:href="#linearGradient4025"
       gradientUnits="userSpaceOnUse" />
    <linearGradient
       x1="130.58118"
       y1="7.3500824"
       x2="130.58118"
       y2="45.108036"
       id="linearGradient4021"
       xlink:href="#linearGradient3914"
       gradientUnits="userSpaceOnUse" />
    <linearGradient
       x1="45.147404"
       y1="78.158714"
       x2="45.147404"
       y2="65.368584"
       id="linearGradient4023"
       xlink:href="#linearGradient3914"
       gradientUnits="userSpaceOnUse" />
  </defs>
  <metadata
     id="metadata2413">
    <rdf:RDF>
      <cc:Work
         rdf:about="">
        <dc:format>image/svg+xml</dc:format>
        <dc:type
           rdf:resource="http://purl.org/dc/dcmitype/StillImage" />
        <dc:title />
      </cc:Work>
    </rdf:RDF>
  </metadata>
  <g
     id="layer2"
     style="display:none">
    <rect
       width="86"
       height="85"
       rx="6"
       ry="6"
       x="5"
       y="7"
       id="rect3745"
       style="opacity:0.9;fill:url(#ButtonShadow);fill-opacity:1;fill-rule:nonzero;stroke:none;filter:url(#filter3174)" />
  </g>
  <g
     id="layer4"
     transform="matrix(1.347998,0,0,1.347998,-16.703905,-18.696985)">
    <g
       transform="translate(-8,-29)"
       id="g3965">
      <path
         d="m 128,5.21875 c -10.34628,0 -18.78125,8.434975 -18.78125,18.78125 0,10.346275 8.43497,18.78125 18.78125,18.78125 10.34628,0 18.78125,-8.434975 18.78125,-18.78125 0,-10.346275 -8.43497,-18.78125 -18.78125,-18.78125 z"
         transform="matrix(1.0625,0,0,1.0625,-95,38.5)"
         id="path3967"
         style="opacity:0.05;color:#000000;fill:#000000;fill-opacity:1;fill-rule:nonzero;stroke:none;stroke-width:6;marker:none;visibility:visible;display:inline;overflow:visible;enable-background:accumulate"
         inkscape:connector-curvature="0" />
      <path
         d="m 128,6.15625 c -9.83913,0 -17.84375,8.004626 -17.84375,17.84375 0,9.839124 8.00462,17.84375 17.84375,17.84375 9.83913,0 17.84375,-8.004626 17.84375,-17.84375 0,-9.839124 -8.00462,-17.84375 -17.84375,-17.84375 z"
         transform="matrix(1.0625,0,0,1.0625,-95,38.5)"
         id="path3969"
         style="opacity:0.07999998;color:#000000;fill:#000000;fill-opacity:1;fill-rule:nonzero;stroke:none;stroke-width:6;marker:none;visibility:visible;display:inline;overflow:visible;enable-background:accumulate"
         inkscape:connector-curvature="0" />
      <path
         d="m 128,7.09375 c -9.33354,0 -16.90625,7.572714 -16.90625,16.90625 0,9.333536 7.57271,16.90625 16.90625,16.90625 9.33354,0 16.90625,-7.572714 16.90625,-16.90625 0,-9.333536 -7.57271,-16.90625 -16.90625,-16.90625 z"
         transform="matrix(1.0625,0,0,1.0625,-95,38.5)"
         id="path3971"
         style="opacity:0.15;color:#000000;fill:#000000;fill-opacity:1;fill-rule:nonzero;stroke:none;stroke-width:6;marker:none;visibility:visible;display:inline;overflow:visible;enable-background:accumulate"
         inkscape:connector-curvature="0" />
      <path
         d="m 144,24 a 16,16 0 1 1 -32,0 16,16 0 1 1 32,0 z"
         transform="matrix(1.0625,0,0,1.0625,-95,38.5)"
         id="path3973"
         style="opacity:0.3;color:#000000;fill:#000000;fill-opacity:1;fill-rule:nonzero;stroke:none;stroke-width:6;marker:none;visibility:visible;display:inline;overflow:visible;enable-background:accumulate"
         inkscape:connector-curvature="0" />
      <path
         d="m 144,24 a 16,16 0 1 1 -32,0 16,16 0 1 1 32,0 z"
         transform="matrix(1.0625,0,0,1.0625,-95,37.5)"
         id="path3975"
         style="color:#000000;fill:url(#radialGradient3983);fill-opacity:1;fill-rule:nonzero;stroke:none;stroke-width:6;marker:none;visibility:visible;display:inline;overflow:visible;enable-background:accumulate"
         inkscape:connector-curvature="0" />
      <path
         d="m 41,46 c -9.388841,0 -17,7.611159 -17,17 0,9.388841 7.611159,17 17,17 9.388841,0 17,-7.611159 17,-17 0,-9.388841 -7.611159,-17 -17,-17 z m 0,2 c 8.284271,0 15,6.715729 15,15 0,8.284271 -6.715729,15 -15,15 -8.284271,0 -15,-6.715729 -15,-15 0,-8.284271 6.715729,-15 15,-15 z"
         inkscape:connector-curvature="0"
         id="path3977"
         style="color:#000000;fill:url(#radialGradient3985);fill-opacity:1;fill-rule:nonzero;stroke:none;stroke-width:6;marker:none;visibility:visible;display:inline;overflow:visible;enable-background:accumulate" />
      <path
         d="m 144,24 a 16,16 0 1 1 -32,0 16,16 0 1 1 32,0 z"
         transform="matrix(0.7467197,0,0,0.5,-54.580121,43)"
         id="path3979"
         style="color:#000000;fill:url(#linearGradient3987);fill-opacity:1;fill-rule:nonzero;stroke:none;stroke-width:6;marker:none;visibility:visible;display:inline;overflow:visible;enable-background:accumulate"
         inkscape:connector-curvature="0" />
      <path
         d="M 26.03125,62.5 C 26.02569,62.667863 26,62.830784 26,63 c 0,8.284271 6.715729,15 15,15 8.284271,0 15,-6.715729 15,-15 0,-0.169216 -0.02569,-0.332137 -0.03125,-0.5 C 55.702104,70.550182 49.115055,77 41,77 32.884945,77 26.297896,70.550182 26.03125,62.5 z"
         inkscape:connector-curvature="0"
         id="path3981"
         style="opacity:0.6;color:#000000;fill:url(#linearGradient3989);fill-opacity:1;fill-rule:nonzero;stroke:none;stroke-width:6;marker:none;visibility:visible;display:inline;overflow:visible;enable-background:accumulate" />
    </g>
    <g
       transform="translate(22,-21)"
       id="g3999">
      <path
         d="m 128,5.21875 c -10.34628,0 -18.78125,8.434975 -18.78125,18.78125 0,10.346275 8.43497,18.78125 18.78125,18.78125 10.34628,0 18.78125,-8.434975 18.78125,-18.78125 0,-10.346275 -8.43497,-18.78125 -18.78125,-18.78125 z"
         transform="matrix(1.0625,0,0,1.0625,-95,38.5)"
         id="path4001"
         style="opacity:0.05;color:#000000;fill:#000000;fill-opacity:1;fill-rule:nonzero;stroke:none;stroke-width:6;marker:none;visibility:visible;display:inline;overflow:visible;enable-background:accumulate"
         inkscape:connector-curvature="0" />
      <path
         d="m 128,6.15625 c -9.83913,0 -17.84375,8.004626 -17.84375,17.84375 0,9.839124 8.00462,17.84375 17.84375,17.84375 9.83913,0 17.84375,-8.004626 17.84375,-17.84375 0,-9.839124 -8.00462,-17.84375 -17.84375,-17.84375 z"
         transform="matrix(1.0625,0,0,1.0625,-95,38.5)"
         id="path4003"
         style="opacity:0.07999998;color:#000000;fill:#000000;fill-opacity:1;fill-rule:nonzero;stroke:none;stroke-width:6;marker:none;visibility:visible;display:inline;overflow:visible;enable-background:accumulate"
         inkscape:connector-curvature="0" />
      <path
         d="m 128,7.09375 c -9.33354,0 -16.90625,7.572714 -16.90625,16.90625 0,9.333536 7.57271,16.90625 16.90625,16.90625 9.33354,0 16.90625,-7.572714 16.90625,-16.90625 0,-9.333536 -7.57271,-16.90625 -16.90625,-16.90625 z"
         transform="matrix(1.0625,0,0,1.0625,-95,38.5)"
         id="path4005"
         style="opacity:0.15;color:#000000;fill:#000000;fill-opacity:1;fill-rule:nonzero;stroke:none;stroke-width:6;marker:none;visibility:visible;display:inline;overflow:visible;enable-background:accumulate"
         inkscape:connector-curvature="0" />
      <path
         d="m 144,24 a 16,16 0 1 1 -32,0 16,16 0 1 1 32,0 z"
         transform="matrix(1.0625,0,0,1.0625,-95,38.5)"
         id="path4007"
         style="opacity:0.3;color:#000000;fill:#000000;fill-opacity:1;fill-rule:nonzero;stroke:none;stroke-width:6;marker:none;visibility:visible;display:inline;overflow:visible;enable-background:accumulate"
         inkscape:connector-curvature="0" />
      <path
         d="m 144,24 a 16,16 0 1 1 -32,0 16,16 0 1 1 32,0 z"
         transform="matrix(1.0625,0,0,1.0625,-95,37.5)"
         id="path4009"
         style="color:#000000;fill:url(#radialGradient4017);fill-opacity:1;fill-rule:nonzero;stroke:none;stroke-width:6;marker:none;visibility:visible;display:inline;overflow:visible;enable-background:accumulate"
         inkscape:connector-curvature="0" />
      <path
         d="m 41,46 c -9.388841,0 -17,7.611159 -17,17 0,9.388841 7.611159,17 17,17 9.388841,0 17,-7.611159 17,-17 0,-9.388841 -7.611159,-17 -17,-17 z m 0,2 c 8.284271,0 15,6.715729 15,15 0,8.284271 -6.715729,15 -15,15 -8.284271,0 -15,-6.715729 -15,-15 0,-8.284271 6.715729,-15 15,-15 z"
         inkscape:connector-curvature="0"
         id="path4011"
         style="color:#000000;fill:url(#radialGradient4019);fill-opacity:1;fill-rule:nonzero;stroke:none;stroke-width:6;marker:none;visibility:visible;display:inline;overflow:visible;enable-background:accumulate" />
      <path
         d="m 144,24 a 16,16 0 1 1 -32,0 16,16 0 1 1 32,0 z"
         transform="matrix(0.7467197,0,0,0.5,-54.580121,43)"
         id="path4013"
         style="opacity:0.9;color:#000000;fill:url(#linearGradient4021);fill-opacity:1;fill-rule:nonzero;stroke:none;stroke-width:6;marker:none;visibility:visible;display:inline;overflow:visible;enable-background:accumulate"
         inkscape:connector-curvature="0" />
      <path
         d="M 26.03125,62.5 C 26.02569,62.667863 26,62.830784 26,63 c 0,8.284271 6.715729,15 15,15 8.284271,0 15,-6.715729 15,-15 0,-0.169216 -0.02569,-0.332137 -0.03125,-0.5 C 55.702104,70.550182 49.115055,77 41,77 32.884945,77 26.297896,70.550182 26.03125,62.5 z"
         inkscape:connector-curvature="0"
         id="path4015"
         style="opacity:0.4;color:#000000;fill:url(#linearGradient4023);fill-opacity:1;fill-rule:nonzero;stroke:none;stroke-width:6;marker:none;visibility:visible;display:inline;overflow:visible;enable-background:accumulate" />
    </g>
    <g
       transform="translate(0,1)"
       id="g3955">
      <path
         d="m 128,5.21875 c -10.34628,0 -18.78125,8.434975 -18.78125,18.78125 0,10.346275 8.43497,18.78125 18.78125,18.78125 10.34628,0 18.78125,-8.434975 18.78125,-18.78125 0,-10.346275 -8.43497,-18.78125 -18.78125,-18.78125 z"
         transform="matrix(1.0625,0,0,1.0625,-95,38.5)"
         id="path3953"
         style="opacity:0.05;color:#000000;fill:#000000;fill-opacity:1;fill-rule:nonzero;stroke:none;stroke-width:6;marker:none;visibility:visible;display:inline;overflow:visible;enable-background:accumulate"
         inkscape:connector-curvature="0" />
      <path
         d="m 128,6.15625 c -9.83913,0 -17.84375,8.004626 -17.84375,17.84375 0,9.839124 8.00462,17.84375 17.84375,17.84375 9.83913,0 17.84375,-8.004626 17.84375,-17.84375 0,-9.839124 -8.00462,-17.84375 -17.84375,-17.84375 z"
         transform="matrix(1.0625,0,0,1.0625,-95,38.5)"
         id="path3949"
         style="opacity:0.07999998;color:#000000;fill:#000000;fill-opacity:1;fill-rule:nonzero;stroke:none;stroke-width:6;marker:none;visibility:visible;display:inline;overflow:visible;enable-background:accumulate"
         inkscape:connector-curvature="0" />
      <path
         d="m 128,7.09375 c -9.33354,0 -16.90625,7.572714 -16.90625,16.90625 0,9.333536 7.57271,16.90625 16.90625,16.90625 9.33354,0 16.90625,-7.572714 16.90625,-16.90625 0,-9.333536 -7.57271,-16.90625 -16.90625,-16.90625 z"
         transform="matrix(1.0625,0,0,1.0625,-95,38.5)"
         id="path3945"
         style="opacity:0.15;color:#000000;fill:#000000;fill-opacity:1;fill-rule:nonzero;stroke:none;stroke-width:6;marker:none;visibility:visible;display:inline;overflow:visible;enable-background:accumulate"
         inkscape:connector-curvature="0" />
      <path
         d="m 144,24 a 16,16 0 1 1 -32,0 16,16 0 1 1 32,0 z"
         transform="matrix(1.0625,0,0,1.0625,-95,38.5)"
         id="path3939"
         style="opacity:0.3;color:#000000;fill:#000000;fill-opacity:1;fill-rule:nonzero;stroke:none;stroke-width:6;marker:none;visibility:visible;display:inline;overflow:visible;enable-background:accumulate"
         inkscape:connector-curvature="0" />
      <path
         d="m 144,24 a 16,16 0 1 1 -32,0 16,16 0 1 1 32,0 z"
         transform="matrix(1.0625,0,0,1.0625,-95,37.5)"
         id="path3825"
         style="color:#000000;fill:url(#radialGradient3835-5);fill-opacity:1;fill-rule:nonzero;stroke:none;stroke-width:6;marker:none;visibility:visible;display:inline;overflow:visible;enable-background:accumulate"
         inkscape:connector-curvature="0" />
      <path
         d="m 41,46 c -9.388841,0 -17,7.611159 -17,17 0,9.388841 7.611159,17 17,17 9.388841,0 17,-7.611159 17,-17 0,-9.388841 -7.611159,-17 -17,-17 z m 0,2 c 8.284271,0 15,6.715729 15,15 0,8.284271 -6.715729,15 -15,15 -8.284271,0 -15,-6.715729 -15,-15 0,-8.284271 6.715729,-15 15,-15 z"
         inkscape:connector-curvature="0"
         id="path3837"
         style="color:#000000;fill:url(#radialGradient3906);fill-opacity:1;fill-rule:nonzero;stroke:none;stroke-width:6;marker:none;visibility:visible;display:inline;overflow:visible;enable-background:accumulate" />
      <path
         d="m 144,24 a 16,16 0 1 1 -32,0 16,16 0 1 1 32,0 z"
         transform="matrix(0.7467197,0,0,0.5,-54.580121,43)"
         id="path3910"
         style="color:#000000;fill:url(#linearGradient3920);fill-opacity:1;fill-rule:nonzero;stroke:none;stroke-width:6;marker:none;visibility:visible;display:inline;overflow:visible;enable-background:accumulate"
         inkscape:connector-curvature="0" />
      <path
         d="M 26.03125,62.5 C 26.02569,62.667863 26,62.830784 26,63 c 0,8.284271 6.715729,15 15,15 8.284271,0 15,-6.715729 15,-15 0,-0.169216 -0.02569,-0.332137 -0.03125,-0.5 C 55.702104,70.550182 49.115055,77 41,77 32.884945,77 26.297896,70.550182 26.03125,62.5 z"
         inkscape:connector-curvature="0"
         id="path3926"
         style="opacity:0.6;color:#000000;fill:url(#linearGradient3937);fill-opacity:1;fill-rule:nonzero;stroke:none;stroke-width:6;marker:none;visibility:visible;display:inline;overflow:visible;enable-background:accumulate" />
    </g>
  </g>
</svg>
