<?xml version="1.0" encoding="UTF-8" standalone="no"?>
<!-- Created with Inkscape (http://www.inkscape.org/) -->

<svg
   xmlns:dc="http://purl.org/dc/elements/1.1/"
   xmlns:cc="http://creativecommons.org/ns#"
   xmlns:rdf="http://www.w3.org/1999/02/22-rdf-syntax-ns#"
   xmlns:svg="http://www.w3.org/2000/svg"
   xmlns="http://www.w3.org/2000/svg"
   xmlns:xlink="http://www.w3.org/1999/xlink"
   xmlns:sodipodi="http://sodipodi.sourceforge.net/DTD/sodipodi-0.dtd"
   xmlns:inkscape="http://www.inkscape.org/namespaces/inkscape"
   width="128"
   height="128"
   id="svg3886"
   version="1.1"
   inkscape:version="0.48.1 r9760"
   sodipodi:docname="system.svg">
  <defs
     id="defs3888">
    <linearGradient
       id="linearGradient3924">
      <stop
         id="stop3926"
         style="stop-color:#ffffff;stop-opacity:1;"
         offset="0" />
      <stop
         offset="0.06316455"
         style="stop-color:#ffffff;stop-opacity:0.23529412;"
         id="stop3928" />
      <stop
         id="stop3930"
         style="stop-color:#ffffff;stop-opacity:0.15686275;"
         offset="0.95056331" />
      <stop
         id="stop3932"
         style="stop-color:#ffffff;stop-opacity:0.39215687;"
         offset="1" />
    </linearGradient>
    <radialGradient
       inkscape:collect="always"
       xlink:href="#linearGradient7012-661-145-733-759-865-745-661-970-94-8"
       id="radialGradient2990"
       gradientUnits="userSpaceOnUse"
       gradientTransform="matrix(5.131108e-8,6.1720507,-6.5292935,-1.1371273e-7,119.1713,-93.225241)"
       cx="7.4956832"
       cy="8.4497671"
       fx="7.4956832"
       fy="8.4497671"
       r="19.99999" />
    <linearGradient
       id="linearGradient7012-661-145-733-759-865-745-661-970-94-8">
      <stop
         id="stop3618-1"
         style="stop-color:#f2f2f2;stop-opacity:1;"
         offset="0" />
      <stop
         id="stop3270-2"
         style="stop-color:#e2e2e2;stop-opacity:1;"
         offset="0.5" />
      <stop
         id="stop3620-8"
         style="stop-color:#bfbfbf;stop-opacity:1;"
         offset="1" />
    </linearGradient>
    <linearGradient
       inkscape:collect="always"
       xlink:href="#linearGradient3390-178-986-453-3"
       id="linearGradient2992"
       gradientUnits="userSpaceOnUse"
       gradientTransform="matrix(2.6410257,0,0,2.6410257,0.6153792,-60.384617)"
       x1="24"
       y1="44"
       x2="24"
       y2="3.8990016" />
    <linearGradient
       id="linearGradient3390-178-986-453-3">
      <stop
         id="stop3624-6"
         style="stop-color:#ba4712;stop-opacity:1;"
         offset="0" />
      <stop
         offset="0.5"
         style="stop-color:#cf671c;stop-opacity:1;"
         id="stop3856-8" />
      <stop
         id="stop3626-0"
         style="stop-color:#e27f39;stop-opacity:1;"
         offset="1" />
    </linearGradient>
    <radialGradient
       cx="4.9929786"
       cy="43.5"
       r="2.5"
       fx="4.9929786"
       fy="43.5"
       id="radialGradient2455"
       xlink:href="#linearGradient3688-166-749"
       gradientUnits="userSpaceOnUse"
       gradientTransform="matrix(2.003784,0,0,1.4,27.98813,-17.4)" />
    <linearGradient
       id="linearGradient3688-166-749">
      <stop
         id="stop2883"
         style="stop-color:#181818;stop-opacity:1"
         offset="0" />
      <stop
         id="stop2885"
         style="stop-color:#181818;stop-opacity:0"
         offset="1" />
    </linearGradient>
    <radialGradient
       cx="4.9929786"
       cy="43.5"
       r="2.5"
       fx="4.9929786"
       fy="43.5"
       id="radialGradient2457"
       xlink:href="#linearGradient3688-464-309"
       gradientUnits="userSpaceOnUse"
       gradientTransform="matrix(2.003784,0,0,1.4,-20.01187,-104.4)" />
    <linearGradient
       id="linearGradient3688-464-309">
      <stop
         id="stop2889"
         style="stop-color:#6a6a6a;stop-opacity:1;"
         offset="0" />
      <stop
         id="stop2891"
         style="stop-color:#7d7d7d;stop-opacity:0.78106511;"
         offset="1" />
    </linearGradient>
    <linearGradient
       x1="25.058096"
       y1="47.027729"
       x2="25.058096"
       y2="39.999443"
       id="linearGradient2459"
       xlink:href="#linearGradient3702-501-757"
       gradientUnits="userSpaceOnUse" />
    <linearGradient
       id="linearGradient3702-501-757">
      <stop
         id="stop2895"
         style="stop-color:#181818;stop-opacity:0"
         offset="0" />
      <stop
         id="stop2897"
         style="stop-color:#181818;stop-opacity:1"
         offset="0.5" />
      <stop
         id="stop2899"
         style="stop-color:#181818;stop-opacity:0"
         offset="1" />
    </linearGradient>
    <linearGradient
       inkscape:collect="always"
       xlink:href="#linearGradient3924"
       id="linearGradient3788"
       x1="13"
       y1="3"
       x2="115"
       y2="3"
       gradientUnits="userSpaceOnUse" />
    <linearGradient
       inkscape:collect="always"
       xlink:href="#linearGradient3688-464-309"
       id="linearGradient3809"
       gradientUnits="userSpaceOnUse"
       gradientTransform="matrix(2.6410257,0,0,2.6410257,0.6153792,-60.384617)"
       x1="24"
       y1="44"
       x2="24"
       y2="3.8990016" />
    <radialGradient
       inkscape:collect="always"
       xlink:href="#linearGradient3688-166-749"
       id="radialGradient3813"
       gradientUnits="userSpaceOnUse"
       gradientTransform="matrix(2.003784,0,0,1.4,-20.025737,-17.497434)"
       cx="4.9929786"
       cy="43.5"
       fx="4.9929786"
       fy="43.5"
       r="2.5" />
    <linearGradient
       x1="54.75"
       y1="90"
       x2="54.75"
       y2="5.9794726"
       id="linearGradient3755"
       xlink:href="#linearGradient3746"
       gradientUnits="userSpaceOnUse" />
    <linearGradient
       id="linearGradient3746">
      <stop
         id="stop3748"
         style="stop-color:#8b1717;stop-opacity:1"
         offset="0" />
      <stop
         id="stop3751"
         style="stop-color:#cc2121;stop-opacity:1"
         offset="1" />
    </linearGradient>
    <linearGradient
       x1="88"
       y1="88"
       x2="88"
       y2="8"
       id="linearGradient3773"
       xlink:href="#linearGradient3766"
       gradientUnits="userSpaceOnUse" />
    <linearGradient
       id="linearGradient3766">
      <stop
         id="stop3768"
         style="stop-color:#d9d9d9;stop-opacity:1"
         offset="0" />
      <stop
         id="stop3770"
         style="stop-color:#ffffff;stop-opacity:1"
         offset="1" />
    </linearGradient>
    <linearGradient
       x1="84"
       y1="62"
       x2="84"
       y2="45.968781"
       id="linearGradient3820"
       xlink:href="#linearGradient3814"
       gradientUnits="userSpaceOnUse" />
    <linearGradient
       id="linearGradient3814">
      <stop
         id="stop3816"
         style="stop-color:#2499b6;stop-opacity:1"
         offset="0" />
      <stop
         id="stop3818"
         style="stop-color:#57c3de;stop-opacity:1"
         offset="1" />
    </linearGradient>
    <linearGradient
       x1="83"
       y1="26"
       x2="83"
       y2="9.9687805"
       id="linearGradient3791"
       xlink:href="#linearGradient3785"
       gradientUnits="userSpaceOnUse" />
    <linearGradient
       id="linearGradient3785">
      <stop
         id="stop3787"
         style="stop-color:#ff8e00;stop-opacity:1"
         offset="0" />
      <stop
         id="stop3789"
         style="stop-color:#ffcc0a;stop-opacity:1"
         offset="1" />
    </linearGradient>
    <linearGradient
       x1="84"
       y1="44"
       x2="84"
       y2="28"
       id="linearGradient3812"
       xlink:href="#linearGradient3806"
       gradientUnits="userSpaceOnUse" />
    <linearGradient
       id="linearGradient3806">
      <stop
         id="stop3808"
         style="stop-color:#4baa0c;stop-opacity:1"
         offset="0" />
      <stop
         id="stop3810"
         style="stop-color:#66d819;stop-opacity:1"
         offset="1" />
    </linearGradient>
    <linearGradient
       x1="54.75"
       y1="90"
       x2="54.75"
       y2="5.9794726"
       id="linearGradient3633"
       xlink:href="#linearGradient3627"
       gradientUnits="userSpaceOnUse" />
    <linearGradient
       id="linearGradient3627">
      <stop
         id="stop3629"
         style="stop-color:#a91c1c;stop-opacity:1"
         offset="0" />
      <stop
         id="stop3631"
         style="stop-color:#dd2c2c;stop-opacity:1"
         offset="1" />
    </linearGradient>
    <linearGradient
       x1="16"
       y1="88"
       x2="16"
       y2="8"
       id="linearGradient3646"
       xlink:href="#linearGradient3640"
       gradientUnits="userSpaceOnUse" />
    <linearGradient
       id="linearGradient3640">
      <stop
         id="stop3642"
         style="stop-color:#1a1a1a;stop-opacity:1"
         offset="0" />
      <stop
         id="stop3644"
         style="stop-color:#2a2a2a;stop-opacity:1"
         offset="1" />
    </linearGradient>
    <linearGradient
       x1="36.357143"
       y1="6"
       x2="36.357143"
       y2="63.893143"
       id="linearGradient3741"
       xlink:href="#linearGradient3737"
       gradientUnits="userSpaceOnUse" />
    <linearGradient
       id="linearGradient3737">
      <stop
         id="stop3739"
         style="stop-color:#ffffff;stop-opacity:1"
         offset="0" />
      <stop
         id="stop3741"
         style="stop-color:#ffffff;stop-opacity:0"
         offset="1" />
    </linearGradient>
    <radialGradient
       cx="48"
       cy="90.171875"
       r="42"
       fx="48"
       fy="90.171875"
       id="radialGradient3744"
       xlink:href="#linearGradient3737"
       gradientUnits="userSpaceOnUse"
       gradientTransform="matrix(1.1573129,0,0,0.99590774,-7.5510206,0.19713193)" />
    <linearGradient
       id="linearGradient3769">
      <stop
         id="stop3771"
         style="stop-color:#ffffff;stop-opacity:1"
         offset="0" />
      <stop
         id="stop3773"
         style="stop-color:#ffffff;stop-opacity:0"
         offset="1" />
    </linearGradient>
    <linearGradient
       x1="48"
       y1="20.220806"
       x2="48"
       y2="138.66119"
       id="linearGradient3613"
       xlink:href="#linearGradient3737"
       gradientUnits="userSpaceOnUse" />
    <linearGradient
       id="linearGradient3776">
      <stop
         id="stop3778"
         style="stop-color:#ffffff;stop-opacity:1"
         offset="0" />
      <stop
         id="stop3780"
         style="stop-color:#ffffff;stop-opacity:0"
         offset="1" />
    </linearGradient>
    <clipPath
       id="clipPath3613">
      <rect
         width="84"
         height="84"
         rx="6"
         ry="6"
         x="6"
         y="6"
         id="rect3615"
         style="fill:#ffffff;fill-opacity:1;fill-rule:nonzero;stroke:none" />
    </clipPath>
    <filter
       x="-0.192"
       y="-0.192"
       width="1.3839999"
       height="1.3839999"
       color-interpolation-filters="sRGB"
       id="filter3794">
      <feGaussianBlur
         id="feGaussianBlur3796"
         stdDeviation="5.28" />
    </filter>
    <filter
       color-interpolation-filters="sRGB"
       id="filter3850">
      <feGaussianBlur
         id="feGaussianBlur3852"
         stdDeviation="0.46499996" />
    </filter>
    <linearGradient
       x1="10"
       y1="24"
       x2="18"
       y2="24"
       id="linearGradient3784"
       xlink:href="#linearGradient3778"
       gradientUnits="userSpaceOnUse"
       gradientTransform="matrix(0,1,1,0,-10,10)" />
    <linearGradient
       id="linearGradient3778">
      <stop
         id="stop3790"
         style="stop-color:#000000;stop-opacity:1"
         offset="0" />
      <stop
         id="stop3786"
         style="stop-color:#000000;stop-opacity:0"
         offset="0.5" />
      <stop
         id="stop3782"
         style="stop-color:#ffffff;stop-opacity:1"
         offset="1" />
    </linearGradient>
    <linearGradient
       x1="9"
       y1="22"
       x2="9"
       y2="26"
       id="linearGradient3751"
       xlink:href="#linearGradient3745"
       gradientUnits="userSpaceOnUse" />
    <linearGradient
       id="linearGradient3745">
      <stop
         id="stop3747"
         style="stop-color:#8a8a8a;stop-opacity:1"
         offset="0" />
      <stop
         id="stop3753"
         style="stop-color:#d5d5d5;stop-opacity:1"
         offset="0.40964222" />
      <stop
         id="stop3755"
         style="stop-color:#6f6f6f;stop-opacity:1"
         offset="0.72741055" />
      <stop
         id="stop3749"
         style="stop-color:#373737;stop-opacity:1"
         offset="1" />
    </linearGradient>
    <linearGradient
       x1="4"
       y1="24"
       x2="12"
       y2="24"
       id="linearGradient3767"
       xlink:href="#linearGradient3761"
       gradientUnits="userSpaceOnUse"
       spreadMethod="reflect" />
    <linearGradient
       id="linearGradient3761">
      <stop
         id="stop3763"
         style="stop-color:#000000;stop-opacity:1"
         offset="0" />
      <stop
         id="stop3769"
         style="stop-color:#000000;stop-opacity:0.19379845"
         offset="0.5" />
      <stop
         id="stop3765"
         style="stop-color:#000000;stop-opacity:0"
         offset="1" />
    </linearGradient>
    <linearGradient
       x1="10"
       y1="24"
       x2="18"
       y2="24"
       id="linearGradient3805"
       xlink:href="#linearGradient3778"
       gradientUnits="userSpaceOnUse"
       gradientTransform="matrix(0,1,1,0,-10,10)" />
    <linearGradient
       id="linearGradient3807">
      <stop
         id="stop3809"
         style="stop-color:#000000;stop-opacity:1"
         offset="0" />
      <stop
         id="stop3811"
         style="stop-color:#000000;stop-opacity:0"
         offset="0.5" />
      <stop
         id="stop3813"
         style="stop-color:#ffffff;stop-opacity:1"
         offset="1" />
    </linearGradient>
    <linearGradient
       x1="9"
       y1="22"
       x2="9"
       y2="26"
       id="linearGradient3815"
       xlink:href="#linearGradient3745"
       gradientUnits="userSpaceOnUse" />
    <linearGradient
       id="linearGradient3817">
      <stop
         id="stop3819"
         style="stop-color:#8a8a8a;stop-opacity:1"
         offset="0" />
      <stop
         id="stop3821"
         style="stop-color:#d5d5d5;stop-opacity:1"
         offset="0.40964222" />
      <stop
         id="stop3823"
         style="stop-color:#6f6f6f;stop-opacity:1"
         offset="0.72741055" />
      <stop
         id="stop3825"
         style="stop-color:#373737;stop-opacity:1"
         offset="1" />
    </linearGradient>
    <linearGradient
       x1="4"
       y1="24"
       x2="12"
       y2="24"
       id="linearGradient3827"
       xlink:href="#linearGradient3761"
       gradientUnits="userSpaceOnUse"
       spreadMethod="reflect" />
    <linearGradient
       id="linearGradient3829">
      <stop
         id="stop3831"
         style="stop-color:#000000;stop-opacity:1"
         offset="0" />
      <stop
         id="stop3833"
         style="stop-color:#000000;stop-opacity:0.19379845"
         offset="0.5" />
      <stop
         id="stop3835"
         style="stop-color:#000000;stop-opacity:0"
         offset="1" />
    </linearGradient>
    <linearGradient
       x1="10"
       y1="24"
       x2="18"
       y2="24"
       id="linearGradient3837"
       xlink:href="#linearGradient3778"
       gradientUnits="userSpaceOnUse"
       gradientTransform="matrix(0,1,1,0,-10,10)" />
    <linearGradient
       id="linearGradient3839">
      <stop
         id="stop3841"
         style="stop-color:#000000;stop-opacity:1"
         offset="0" />
      <stop
         id="stop3843"
         style="stop-color:#000000;stop-opacity:0"
         offset="0.5" />
      <stop
         id="stop3845"
         style="stop-color:#ffffff;stop-opacity:1"
         offset="1" />
    </linearGradient>
    <linearGradient
       x1="9"
       y1="22"
       x2="9"
       y2="26"
       id="linearGradient3847"
       xlink:href="#linearGradient3745"
       gradientUnits="userSpaceOnUse" />
    <linearGradient
       id="linearGradient3849">
      <stop
         id="stop3851"
         style="stop-color:#8a8a8a;stop-opacity:1"
         offset="0" />
      <stop
         id="stop3853"
         style="stop-color:#d5d5d5;stop-opacity:1"
         offset="0.40964222" />
      <stop
         id="stop3855"
         style="stop-color:#6f6f6f;stop-opacity:1"
         offset="0.72741055" />
      <stop
         id="stop3857"
         style="stop-color:#373737;stop-opacity:1"
         offset="1" />
    </linearGradient>
    <linearGradient
       x1="4"
       y1="24"
       x2="12"
       y2="24"
       id="linearGradient3859"
       xlink:href="#linearGradient3761"
       gradientUnits="userSpaceOnUse"
       spreadMethod="reflect" />
    <linearGradient
       id="linearGradient3861">
      <stop
         id="stop3863"
         style="stop-color:#000000;stop-opacity:1"
         offset="0" />
      <stop
         id="stop3865"
         style="stop-color:#000000;stop-opacity:0.19379845"
         offset="0.5" />
      <stop
         id="stop3867"
         style="stop-color:#000000;stop-opacity:0"
         offset="1" />
    </linearGradient>
    <linearGradient
       x1="10"
       y1="24"
       x2="18"
       y2="24"
       id="linearGradient3869"
       xlink:href="#linearGradient3778"
       gradientUnits="userSpaceOnUse"
       gradientTransform="matrix(0,1,1,0,-10,10)" />
    <linearGradient
       id="linearGradient3871">
      <stop
         id="stop3873"
         style="stop-color:#000000;stop-opacity:1"
         offset="0" />
      <stop
         id="stop3875"
         style="stop-color:#000000;stop-opacity:0"
         offset="0.5" />
      <stop
         id="stop3877"
         style="stop-color:#ffffff;stop-opacity:1"
         offset="1" />
    </linearGradient>
    <linearGradient
       x1="9"
       y1="22"
       x2="9"
       y2="26"
       id="linearGradient3879"
       xlink:href="#linearGradient3745"
       gradientUnits="userSpaceOnUse" />
    <linearGradient
       id="linearGradient3881">
      <stop
         id="stop3883"
         style="stop-color:#8a8a8a;stop-opacity:1"
         offset="0" />
      <stop
         id="stop3885"
         style="stop-color:#d5d5d5;stop-opacity:1"
         offset="0.40964222" />
      <stop
         id="stop3887"
         style="stop-color:#6f6f6f;stop-opacity:1"
         offset="0.72741055" />
      <stop
         id="stop3889"
         style="stop-color:#373737;stop-opacity:1"
         offset="1" />
    </linearGradient>
    <linearGradient
       x1="4"
       y1="24"
       x2="12"
       y2="24"
       id="linearGradient3891"
       xlink:href="#linearGradient3761"
       gradientUnits="userSpaceOnUse"
       spreadMethod="reflect" />
    <linearGradient
       id="linearGradient3893">
      <stop
         id="stop3895"
         style="stop-color:#000000;stop-opacity:1"
         offset="0" />
      <stop
         id="stop3897"
         style="stop-color:#000000;stop-opacity:0.19379845"
         offset="0.5" />
      <stop
         id="stop3899"
         style="stop-color:#000000;stop-opacity:0"
         offset="1" />
    </linearGradient>
    <linearGradient
       x1="10"
       y1="24"
       x2="18"
       y2="24"
       id="linearGradient3901"
       xlink:href="#linearGradient3778"
       gradientUnits="userSpaceOnUse"
       gradientTransform="matrix(0,1,1,0,-10,10)" />
    <linearGradient
       id="linearGradient3903">
      <stop
         id="stop3905"
         style="stop-color:#000000;stop-opacity:1"
         offset="0" />
      <stop
         id="stop3907"
         style="stop-color:#000000;stop-opacity:0"
         offset="0.5" />
      <stop
         id="stop3909"
         style="stop-color:#ffffff;stop-opacity:1"
         offset="1" />
    </linearGradient>
    <linearGradient
       x1="9"
       y1="22"
       x2="9"
       y2="26"
       id="linearGradient3911"
       xlink:href="#linearGradient3745"
       gradientUnits="userSpaceOnUse" />
    <linearGradient
       id="linearGradient3913">
      <stop
         id="stop3915"
         style="stop-color:#8a8a8a;stop-opacity:1"
         offset="0" />
      <stop
         id="stop3917"
         style="stop-color:#d5d5d5;stop-opacity:1"
         offset="0.40964222" />
      <stop
         id="stop3919"
         style="stop-color:#6f6f6f;stop-opacity:1"
         offset="0.72741055" />
      <stop
         id="stop3921"
         style="stop-color:#373737;stop-opacity:1"
         offset="1" />
    </linearGradient>
    <linearGradient
       x1="4"
       y1="24"
       x2="12"
       y2="24"
       id="linearGradient3923"
       xlink:href="#linearGradient3761"
       gradientUnits="userSpaceOnUse"
       spreadMethod="reflect" />
    <linearGradient
       id="linearGradient3925">
      <stop
         id="stop3927"
         style="stop-color:#000000;stop-opacity:1"
         offset="0" />
      <stop
         id="stop3929"
         style="stop-color:#000000;stop-opacity:0.19379845"
         offset="0.5" />
      <stop
         id="stop3931"
         style="stop-color:#000000;stop-opacity:0"
         offset="1" />
    </linearGradient>
    <radialGradient
       r="42"
       fy="90.171875"
       fx="48"
       cy="90.171875"
       cx="48"
       gradientTransform="matrix(1.1573129,0,0,0.99590774,-7.5510206,0.19713193)"
       gradientUnits="userSpaceOnUse"
       id="radialGradient3968"
       xlink:href="#linearGradient3737"
       inkscape:collect="always" />
    <linearGradient
       inkscape:collect="always"
       xlink:href="#linearGradient3778"
       id="linearGradient4335"
       gradientUnits="userSpaceOnUse"
       gradientTransform="matrix(0,1,1,0,-10,10)"
       x1="10"
       y1="24"
       x2="18"
       y2="24" />
    <linearGradient
       inkscape:collect="always"
       xlink:href="#linearGradient3745"
       id="linearGradient4337"
       gradientUnits="userSpaceOnUse"
       x1="9"
       y1="22"
       x2="9"
       y2="26" />
    <linearGradient
       inkscape:collect="always"
       xlink:href="#linearGradient3761"
       id="linearGradient4339"
       gradientUnits="userSpaceOnUse"
       spreadMethod="reflect"
       x1="4"
       y1="24"
       x2="12"
       y2="24" />
  </defs>
  <sodipodi:namedview
     id="base"
     pagecolor="#ffffff"
     bordercolor="#666666"
     borderopacity="1.0"
     inkscape:pageopacity="0.0"
     inkscape:pageshadow="2"
     inkscape:zoom="6.5546875"
     inkscape:cx="64"
     inkscape:cy="64"
     inkscape:current-layer="layer1"
     showgrid="true"
     inkscape:document-units="px"
     inkscape:grid-bbox="true"
     inkscape:window-width="1920"
     inkscape:window-height="1027"
     inkscape:window-x="0"
     inkscape:window-y="24"
     inkscape:window-maximized="1" />
  <metadata
     id="metadata3891">
    <rdf:RDF>
      <cc:Work
         rdf:about="">
        <dc:format>image/svg+xml</dc:format>
        <dc:type
           rdf:resource="http://purl.org/dc/dcmitype/StillImage" />
        <dc:title></dc:title>
      </cc:Work>
    </rdf:RDF>
  </metadata>
  <g
     id="layer1"
     inkscape:label="Layer 1"
     inkscape:groupmode="layer"
     transform="translate(0,64)">
    <g
       transform="matrix(2.9499988,0,0,1.2222234,-6.8000012,1.555537)"
       id="g2036"
       style="display:inline">
      <g
         transform="matrix(1.052632,0,0,1.285713,-1.263158,-13.42854)"
         id="g3712"
         style="opacity:0.4">
        <rect
           width="5"
           height="7"
           x="38"
           y="40"
           id="rect2801"
           style="fill:url(#radialGradient2455);fill-opacity:1;stroke:none" />
        <rect
           width="28"
           height="7.0000005"
           x="10"
           y="40"
           id="rect3700"
           style="fill:url(#linearGradient2459);fill-opacity:1;stroke:none" />
        <rect
           style="fill:url(#radialGradient3813);fill-opacity:1;stroke:none"
           id="rect3811"
           y="39.902565"
           x="-10.013867"
           height="7"
           width="5"
           transform="scale(-1,1)" />
      </g>
    </g>
    <g
       transform="matrix(1.2332257,0,0,1.2361473,4.8900636,-56.562883)"
       id="layer1-2">
      <path
         d="m 72,6 0,84 12,0 c 3.324,0 6,-2.676 6,-6 L 90,12 C 90,8.676 87.324,6 84,6 L 72,6 z"
         inkscape:connector-curvature="0"
         id="rect3717"
         style="fill:url(#linearGradient3755);fill-opacity:1;fill-rule:nonzero;stroke:none" />
      <path
         inkscape:connector-curvature="0"
         d="m 74.09375,8.09375 0,79.8125 9.90625,0 c 2.197065,0 3.90625,-1.709185 3.90625,-3.90625 l 0,-72 C 87.90625,9.8029353 86.197065,8.09375 84,8.09375 l -9.90625,0 z"
         id="path3729"
         style="fill:url(#linearGradient3773);fill-opacity:1;fill-rule:nonzero;stroke:none" />
      <path
         d="m 66,6 0,84 12,0 c 3.324,0 6,-2.676 6,-6 L 84,12 C 84,8.676 81.324,6 78,6 L 66,6 z"
         inkscape:connector-curvature="0"
         id="path3764"
         style="opacity:0.1;fill:#000000;fill-opacity:1;fill-rule:nonzero;stroke:none" />
      <rect
         width="8"
         height="16"
         rx="2"
         ry="2"
         x="79"
         y="46"
         id="rect3779"
         style="color:#000000;fill:url(#linearGradient3820);fill-opacity:1;fill-rule:nonzero;stroke:none;stroke-width:1;marker:none;visibility:visible;display:inline;overflow:visible;enable-background:accumulate" />
      <path
         d="m 79,59 0,1 c 0,1.108 0.892,2 2,2 l 4,0 c 1.108,0 2,-0.892 2,-2 l 0,-1 c 0,1.108 -0.892,2 -2,2 l -4,0 c -1.108,0 -2,-0.892 -2,-2 z"
         inkscape:connector-curvature="0"
         id="path3804"
         style="opacity:0.2;color:#000000;fill:#000000;fill-opacity:1;fill-rule:nonzero;stroke:none;stroke-width:1;marker:none;visibility:visible;display:inline;overflow:visible;enable-background:accumulate" />
      <rect
         width="8"
         height="16"
         rx="2"
         ry="2"
         x="79"
         y="10"
         id="rect3775"
         style="color:#000000;fill:url(#linearGradient3791);fill-opacity:1;fill-rule:nonzero;stroke:none;stroke-width:1;marker:none;visibility:visible;display:inline;overflow:visible;enable-background:accumulate" />
      <path
         d="m 79,23 0,1 c 0,1.108 0.892,2 2,2 l 4,0 c 1.108,0 2,-0.892 2,-2 l 0,-1 c 0,1.108 -0.892,2 -2,2 l -4,0 c -1.108,0 -2,-0.892 -2,-2 z"
         inkscape:connector-curvature="0"
         id="rect3793"
         style="opacity:0.2;color:#000000;fill:#000000;fill-opacity:1;fill-rule:nonzero;stroke:none;stroke-width:1;marker:none;visibility:visible;display:inline;overflow:visible;enable-background:accumulate" />
      <rect
         width="8"
         height="16"
         rx="2"
         ry="2"
         x="79"
         y="28"
         id="rect3777"
         style="color:#000000;fill:url(#linearGradient3812);fill-opacity:1;fill-rule:nonzero;stroke:none;stroke-width:1;marker:none;visibility:visible;display:inline;overflow:visible;enable-background:accumulate" />
      <path
         d="m 79,41 0,1 c 0,1.108 0.892,2 2,2 l 4,0 c 1.108,0 2,-0.892 2,-2 l 0,-1 c 0,1.108 -0.892,2 -2,2 l -4,0 c -1.108,0 -2,-0.892 -2,-2 z"
         inkscape:connector-curvature="0"
         id="path3802"
         style="opacity:0.2;color:#000000;fill:#000000;fill-opacity:1;fill-rule:nonzero;stroke:none;stroke-width:1;marker:none;visibility:visible;display:inline;overflow:visible;enable-background:accumulate" />
      <path
         d="m 65,6 0,84 12,0 c 3.324,0 6,-2.676 6,-6 L 83,12 C 83,8.676 80.324,6 77,6 L 65,6 z"
         inkscape:connector-curvature="0"
         id="path3759"
         style="opacity:0.3;fill:#000000;fill-opacity:1;fill-rule:nonzero;stroke:none" />
      <rect
         width="76"
         height="84"
         rx="6"
         ry="6"
         x="6"
         y="6"
         id="rect2419"
         style="fill:url(#linearGradient3633);fill-opacity:1;fill-rule:nonzero;stroke:none" />
      <rect
         width="1"
         height="84"
         x="24"
         y="6"
         id="rect3650"
         style="opacity:0.15;fill:#ffffff;fill-opacity:1;stroke:none" />
      <path
         d="M 12,6 C 8.676,6 6,8.676 6,12 l 0,72 c 0,3.324 2.676,6 6,6 L 24,90 24,6 12,6 z"
         inkscape:connector-curvature="0"
         id="rect3635"
         style="fill:url(#linearGradient3646);fill-opacity:1;stroke:none" />
      <rect
         width="1"
         height="84"
         x="23"
         y="6"
         id="rect3648"
         style="opacity:0.4;fill:#000000;fill-opacity:1;stroke:none" />
      <path
         d="M 12,6 C 8.149748,5.8646483 5.4313382,9.7428302 6,13.356285 6.0181568,37.06748 5.9636901,60.780689 6.027225,84.490627 5.1685254,86.788986 10.52047,90.299743 9.3125,89.21875 6.1072859,87.229909 7.1904421,83.196362 7,80.061382 7.0170642,57.536271 6.9658737,35.009464 7.02559,12.485413 7.2344879,9.2262489 10.63885,7.5433157 13.582333,8 34.559537,8.01712 55.538443,7.965797 76.514587,8.02559 79.773751,8.234488 81.456684,11.63885 81,14.582333 c -0.02345,23.652105 0.0469,47.307263 -0.03517,70.957461 0.412935,2.431244 -5.152855,5.528097 -1.087717,2.991175 C 82.940872,86.014204 81.766242,81.819853 82,78.38324 81.979435,56.050697 82.041139,33.716092 81.969136,11.384839 81.718193,7.6506332 77.867802,5.4852044 74.417667,6 53.611778,6 32.805889,6 12,6 z"
         inkscape:connector-curvature="0"
         id="rect3728"
         style="opacity:0.3;fill:url(#linearGradient3741);fill-opacity:1;fill-rule:nonzero;stroke:none" />
      <path
         d="M 12,90 C 8.149748,90.135352 5.4313382,86.25717 6,82.643715 6.0181568,58.93252 5.9636901,35.219311 6.027225,11.509373 5.1685254,9.2110136 10.52047,5.7002575 9.3125,6.78125 6.1072859,8.7700911 7.1904421,12.803638 7,15.938618 7.0170642,38.463729 6.9658737,60.990536 7.02559,83.514587 7.2344879,86.773751 10.63885,88.456684 13.582333,88 34.559537,87.98288 55.538443,88.034203 76.514587,87.97441 79.773751,87.765512 81.456684,84.36115 81,81.417667 80.976551,57.765562 81.046897,34.110404 80.96483,10.460206 81.377765,8.0289616 75.811975,4.932109 79.877113,7.4690313 82.940872,9.9857956 81.766242,14.180147 82,17.61676 81.979435,39.949303 82.041139,62.283908 81.969136,84.615161 81.718193,88.349367 77.867802,90.514796 74.417667,90 53.611778,90 32.805889,90 12,90 z"
         inkscape:connector-curvature="0"
         id="path3615"
         style="opacity:0.2;fill:url(#radialGradient3968);fill-opacity:1;fill-rule:nonzero;stroke:none" />
    </g>
    <g
       transform="matrix(1.2332257,0,0,1.2361473,4.8900636,-56.562883)"
       id="layer5">
      <rect
         width="66"
         height="66"
         rx="12"
         ry="12"
         x="15"
         y="15"
         clip-path="url(#clipPath3613)"
         id="rect3171"
         style="opacity:0.1;fill:url(#linearGradient3613);fill-opacity:1;fill-rule:nonzero;stroke:#ffffff;stroke-width:0.5;stroke-linecap:round;stroke-linejoin:miter;stroke-miterlimit:4;stroke-opacity:1;stroke-dasharray:none;stroke-dashoffset:0;filter:url(#filter3794)" />
    </g>
    <g
       transform="matrix(1.2332257,0,0,1.2361473,4.8900636,-56.562883)"
       id="layer3">
      <path
         inkscape:connector-curvature="0"
         d="M 39.84375,29.1875 A 0.82493746,0.82493746 0 0 0 39.1875,30 l 0,36 A 0.82493746,0.82493746 0 0 0 40,66.8125 l 11.8125,0 c 2.11206,0 4.07769,-0.419464 5.90625,-1.25 1.850525,-0.833863 3.46569,-2.061344 4.8125,-3.6875 1.34637,-1.625674 2.398526,-3.62193 3.15625,-5.96875 0.764006,-2.384233 1.124967,-5.123161 1.125,-8.1875 -3.3e-5,-3.131618 -0.35941,-5.844846 -1.15625,-8.1875 a 0.82493746,0.82493746 0 0 0 0,-0.03125 c -0.790551,-2.323945 -1.918345,-4.237543 -3.375,-5.78125 -1.454127,-1.54091 -3.216892,-2.698014 -5.21875,-3.4375 -1.98635,-0.733655 -4.148282,-1.093709 -6.5,-1.09375 l -10.5625,0 a 0.82493746,0.82493746 0 0 0 -0.15625,0 z m 7.0625,7.4375 3.53125,0 c 1.304044,2.8e-5 2.463342,0.208808 3.5,0.625 a 0.82493746,0.82493746 0 0 0 0,0.03125 c 1.031199,0.409141 1.90539,1.025877 2.65625,1.90625 0.737988,0.850192 1.353049,1.996966 1.78125,3.40625 0.435347,1.390799 0.65623,3.087205 0.65625,5.125 -2e-5,1.986276 -0.210529,3.732672 -0.625,5.1875 -0.405645,1.469649 -0.9827,2.66187 -1.6875,3.625 -0.695482,0.952032 -1.482158,1.628515 -2.40625,2.09375 -0.92289,0.470841 -1.930385,0.750008 -3.03125,0.75 l -4.375,0 0,-22.75 z"
         id="path3854"
         style="font-size:12px;font-style:normal;font-variant:normal;font-weight:bold;font-stretch:normal;text-align:start;line-height:125%;writing-mode:lr-tb;text-anchor:start;opacity:0.3;fill:#ffaaaa;fill-opacity:1;stroke:none;filter:url(#filter3850);font-family:Liberation Sans;-inkscape-font-specification:Abandoned Bitplane Bold" />
      <path
         d="m 65.999997,47.73173 c -3.2e-5,2.997883 -0.365741,5.63805 -1.097134,7.920509 -0.73145,2.265444 -1.73198,4.164664 -3.001594,5.697659 -1.26966,1.533004 -2.773905,2.691273 -4.512735,3.474805 -1.725073,0.783532 -3.588127,1.1753 -5.589173,1.1753 l -11.799358,0 0,-36 10.557322,0 c 2.263251,3.9e-5 4.340212,0.349235 6.23089,1.047554 1.890636,0.698401 3.519084,1.7715 4.885347,3.219303 1.366218,1.447865 2.42885,3.287467 3.187899,5.518807 0.758995,2.231393 1.138504,4.88008 1.138536,7.946063 m -6.14809,0 c -2.1e-5,-2.095082 -0.234621,-3.8921 -0.703823,-5.391057 -0.455434,-1.498913 -1.097151,-2.725311 -1.925155,-3.679205 -0.828047,-0.970874 -1.821677,-1.686273 -2.980891,-2.146205 -1.145454,-0.459871 -2.415089,-0.68982 -3.808916,-0.68985 l -4.326435,0 0,24.34918 5.175159,0 c 1.228223,9e-6 2.359855,-0.263987 3.394902,-0.792048 1.048814,-0.528026 1.952741,-1.311563 2.711786,-2.350605 0.772802,-1.056057 1.373117,-2.359109 1.800953,-3.909154 0.441592,-1.550023 0.662399,-3.347041 0.66242,-5.391056"
         inkscape:connector-curvature="0"
         id="path3827"
         style="font-size:12px;font-style:normal;font-variant:normal;font-weight:bold;font-stretch:normal;text-align:start;line-height:125%;writing-mode:lr-tb;text-anchor:start;fill:#ffffff;fill-opacity:1;stroke:none;font-family:Liberation Sans;-inkscape-font-specification:Abandoned Bitplane Bold" />
      <path
         d="m 40,30 0,1 10.5625,0 c 2.263251,3.9e-5 4.328072,0.364181 6.21875,1.0625 1.890636,0.698401 3.539987,1.770947 4.90625,3.21875 1.366218,1.447865 2.428451,3.26866 3.1875,5.5 0.716269,2.10578 1.084651,4.588449 1.125,7.4375 0.0024,-0.168836 -2e-6,-0.328832 0,-0.5 -3.2e-5,-3.065983 -0.366005,-5.706107 -1.125,-7.9375 -0.759049,-2.23134 -1.821282,-4.052135 -3.1875,-5.5 C 60.321237,32.833447 58.671886,31.760901 56.78125,31.0625 54.890572,30.364181 52.825751,30.000039 50.5625,30 L 40,30 z m 19.84375,18.21875 c -0.03374,1.836034 -0.251441,3.48534 -0.65625,4.90625 -0.427836,1.550045 -1.039698,2.850193 -1.8125,3.90625 -0.759045,1.039042 -1.638686,1.815724 -2.6875,2.34375 -1.035047,0.528061 -2.178027,0.812509 -3.40625,0.8125 l -5.1875,0 0,1 5.1875,0 c 1.228223,9e-6 2.371203,-0.284439 3.40625,-0.8125 1.048814,-0.528026 1.928455,-1.304708 2.6875,-2.34375 0.772802,-1.056057 1.384664,-2.356205 1.8125,-3.90625 0.441592,-1.550023 0.656229,-3.362235 0.65625,-5.40625 -2e-6,-0.174514 0.0033,-0.329622 0,-0.5 z"
         inkscape:connector-curvature="0"
         id="path3838"
         style="font-size:12px;font-style:normal;font-variant:normal;font-weight:bold;font-stretch:normal;text-align:start;line-height:125%;writing-mode:lr-tb;text-anchor:start;opacity:0.25;fill:#000000;fill-opacity:1;stroke:none;font-family:Liberation Sans;-inkscape-font-specification:Abandoned Bitplane Bold" />
      <path
         d="m 40,29 0,1 10.5625,0 c 2.263251,3.9e-5 4.328072,0.364181 6.21875,1.0625 1.890636,0.698401 3.539987,1.770947 4.90625,3.21875 1.366218,1.447865 2.428451,3.26866 3.1875,5.5 0.716269,2.10578 1.084651,4.588449 1.125,7.4375 0.0024,-0.168836 -2e-6,-0.328832 0,-0.5 -3.2e-5,-3.065983 -0.366005,-5.706107 -1.125,-7.9375 -0.759049,-2.23134 -1.821282,-4.052135 -3.1875,-5.5 C 60.321237,31.833447 58.671886,30.760901 56.78125,30.0625 54.890572,29.364181 52.825751,29.000039 50.5625,29 L 40,29 z m 19.84375,18.21875 c -0.03374,1.836034 -0.251441,3.48534 -0.65625,4.90625 -0.427836,1.550045 -1.039698,2.850193 -1.8125,3.90625 -0.759045,1.039042 -1.638686,1.815724 -2.6875,2.34375 -1.035047,0.528061 -2.178027,0.812509 -3.40625,0.8125 l -5.1875,0 0,1 5.1875,0 c 1.228223,9e-6 2.371203,-0.284439 3.40625,-0.8125 1.048814,-0.528026 1.928455,-1.304708 2.6875,-2.34375 0.772802,-1.056057 1.384664,-2.356205 1.8125,-3.90625 0.441592,-1.550023 0.656229,-3.362235 0.65625,-5.40625 -2e-6,-0.174514 0.0033,-0.329622 0,-0.5 z"
         inkscape:connector-curvature="0"
         id="path3843"
         style="font-size:12px;font-style:normal;font-variant:normal;font-weight:bold;font-stretch:normal;text-align:start;line-height:125%;writing-mode:lr-tb;text-anchor:start;fill:#941a1a;fill-opacity:1;stroke:none;font-family:Liberation Sans;-inkscape-font-specification:Abandoned Bitplane Bold" />
    </g>
    <g
       transform="matrix(1.2332257,0,0,1.2361473,4.8900636,-56.562883)"
       id="layer4">
      <g
         id="g3799">
        <path
           d="m 10,24 c 0,-2.209139 1.790861,-4 4,-4 2.209139,0 4,1.790861 4,4 0,2.209139 -1.790861,4 -4,4 -2.209139,0 -4,-1.790861 -4,-4 z m 1,0 c 0,1.656854 1.343146,3 3,3 1.656854,0 3,-1.343146 3,-3 0,-1.656854 -1.343146,-3 -3,-3 -1.656854,0 -3,1.343146 -3,3 z"
           inkscape:connector-curvature="0"
           id="path3773"
           style="opacity:0.3;fill:url(#linearGradient4335);fill-opacity:1;stroke:none" />
        <path
           d="m 6,21 0,7 8,0 c 1.646385,0 3,-1.579217 3,-3.5 C 17,22.579218 15.646385,21 14,21 l -8,0 z"
           inkscape:connector-curvature="0"
           id="path3792"
           style="opacity:0.3;fill:#000000;fill-opacity:1;stroke:none" />
        <path
           inkscape:connector-curvature="0"
           d="m 17,24 a 3,3 0 1 1 -6,0 3,3 0 1 1 6,0 z"
           id="path3771"
           style="opacity:0.6;fill:#000000;fill-opacity:1;stroke:none" />
        <rect
           width="12"
           height="4"
           rx="2"
           ry="2"
           x="4"
           y="22"
           id="rect3733"
           style="fill:url(#linearGradient4337);fill-opacity:1;stroke:none" />
        <rect
           width="12"
           height="4"
           rx="2"
           ry="2"
           x="4"
           y="22"
           id="rect3759"
           style="opacity:0.6;fill:url(#linearGradient4339);fill-opacity:1;stroke:none" />
      </g>
      <use
         transform="translate(0,12)"
         id="use3806"
         x="0"
         y="0"
         width="96"
         height="96"
         xlink:href="#g3799" />
      <use
         transform="translate(0,24)"
         id="use3808"
         x="0"
         y="0"
         width="96"
         height="96"
         xlink:href="#g3799" />
      <use
         transform="translate(0,36)"
         id="use3810"
         x="0"
         y="0"
         width="96"
         height="96"
         xlink:href="#g3799" />
      <use
         transform="translate(0,48)"
         id="use3812"
         x="0"
         y="0"
         width="96"
         height="96"
         xlink:href="#g3799" />
    </g>
  </g>
</svg>
