<?xml version="1.0" encoding="UTF-8" standalone="no"?>
<!-- Created with Inkscape (http://www.inkscape.org/) -->

<svg
   xmlns:dc="http://purl.org/dc/elements/1.1/"
   xmlns:cc="http://creativecommons.org/ns#"
   xmlns:rdf="http://www.w3.org/1999/02/22-rdf-syntax-ns#"
   xmlns:svg="http://www.w3.org/2000/svg"
   xmlns="http://www.w3.org/2000/svg"
   xmlns:xlink="http://www.w3.org/1999/xlink"
   xmlns:sodipodi="http://sodipodi.sourceforge.net/DTD/sodipodi-0.dtd"
   xmlns:inkscape="http://www.inkscape.org/namespaces/inkscape"
   height="128"
   id="svg1"
   inkscape:version="0.48.1 r9760"
   sodipodi:docname="Dolphin.svg"
   sodipodi:version="0.32"
   width="128"
   version="1.1">
  <metadata
     id="metadata3">
    <rdf:RDF>
      <cc:Work
         rdf:about="">
        <dc:title>Etiquette Icons</dc:title>
        <dc:description />
        <dc:subject>
          <rdf:Bag>
            <rdf:li>mammal</rdf:li>
            <rdf:li />
            <rdf:li>animal</rdf:li>
          </rdf:Bag>
        </dc:subject>
        <dc:publisher>
          <cc:Agent
             rdf:about="http://www.openclipart.org">
            <dc:title>Andy Fitzsimon</dc:title>
          </cc:Agent>
        </dc:publisher>
        <dc:creator>
          <cc:Agent>
            <dc:title>Andy Fitzsimon</dc:title>
          </cc:Agent>
        </dc:creator>
        <dc:rights>
          <cc:Agent>
            <dc:title>Andy Fitzsimon</dc:title>
          </cc:Agent>
        </dc:rights>
        <dc:date />
        <dc:format>image/svg+xml</dc:format>
        <dc:type
           rdf:resource="http://purl.org/dc/dcmitype/StillImage" />
        <cc:license
           rdf:resource="http://web.resource.org/cc/PublicDomain" />
        <dc:language>en</dc:language>
      </cc:Work>
      <cc:License
         rdf:about="http://web.resource.org/cc/PublicDomain">
        <cc:permits
           rdf:resource="http://web.resource.org/cc/Reproduction" />
        <cc:permits
           rdf:resource="http://web.resource.org/cc/Distribution" />
        <cc:permits
           rdf:resource="http://web.resource.org/cc/DerivativeWorks" />
      </cc:License>
    </rdf:RDF>
  </metadata>
  <defs
     id="defs3">
    <linearGradient
       id="linearGradient871">
      <stop
         id="stop872"
         offset="0.00000000"
         style="stop-color:#ffffff;stop-opacity:0.00000000;" />
      <stop
         id="stop873"
         offset="0.25000000"
         style="stop-color:#ffffff;stop-opacity:0.00000000;" />
      <stop
         id="stop875"
         offset="1.0000000"
         style="stop-color:#ffffff;stop-opacity:1.0000000;" />
    </linearGradient>
    <linearGradient
       id="linearGradient863">
      <stop
         id="stop864"
         offset="0.00000000"
         style="stop-color:#3d3d3d;stop-opacity:0.00000000;" />
      <stop
         id="stop867"
         offset="0.25000000"
         style="stop-color:#626262;stop-opacity:1.0000000;" />
      <stop
         id="stop866"
         offset="0.67310077"
         style="stop-color:#575757;stop-opacity:1.0000000;" />
      <stop
         id="stop865"
         offset="1.0000000"
         style="stop-color:#222222;stop-opacity:1.0000000;" />
    </linearGradient>
    <linearGradient
       id="linearGradient849">
      <stop
         id="stop850"
         offset="0.00000000"
         style="stop-color:#000000;stop-opacity:0.00000000;" />
      <stop
         id="stop851"
         offset="1.0000000"
         style="stop-color:#000000;stop-opacity:0.68750000;" />
    </linearGradient>
    <linearGradient
       id="linearGradient843">
      <stop
         id="stop844"
         offset="0.00000000"
         style="stop-color:#ffffff;stop-opacity:0.00000000;" />
      <stop
         id="stop845"
         offset="1.0000000"
         style="stop-color:#ffffff;stop-opacity:0.62500000;" />
    </linearGradient>
    <linearGradient
       id="linearGradient838">
      <stop
         id="stop839"
         offset="0.00000000"
         style="stop-color:#000000;stop-opacity:1.0000000;" />
      <stop
         id="stop868"
         offset="0.29868218"
         style="stop-color:#656565;stop-opacity:1.0000000;" />
      <stop
         id="stop840"
         offset="1.0000000"
         style="stop-color:#000000;stop-opacity:1.0000000;" />
    </linearGradient>
    <linearGradient
       id="linearGradient841"
       x1="59.754772"
       x2="73.763008"
       xlink:href="#linearGradient838"
       y1="-42.001186"
       y2="285.71637"
       gradientTransform="scale(1.2799655,0.78127108)"
       gradientUnits="userSpaceOnUse" />
    <linearGradient
       id="linearGradient842"
       x1="45.62088"
       x2="-62.600243"
       xlink:href="#linearGradient843"
       y1="175.91933"
       y2="157.71582"
       gradientTransform="scale(1.8462657,0.54163386)"
       gradientUnits="userSpaceOnUse" />
    <linearGradient
       id="linearGradient846"
       x1="21.57963"
       x2="105.9315"
       xlink:href="#linearGradient843"
       y1="55.661335"
       y2="117.69579"
       gradientTransform="scale(1.1450546,0.87332083)"
       gradientUnits="userSpaceOnUse" />
    <linearGradient
       id="linearGradient848"
       x1="4.3352041"
       x2="6.6167293"
       xlink:href="#linearGradient849"
       y1="55.991253"
       y2="58.473469"
       gradientTransform="scale(0.96477607,1.03651)"
       gradientUnits="userSpaceOnUse" />
    <linearGradient
       id="linearGradient852"
       x1="14.340255"
       x2="-3.122076"
       xlink:href="#linearGradient843"
       y1="53.410858"
       y2="62.753025"
       gradientTransform="scale(0.94531765,1.0578455)"
       gradientUnits="userSpaceOnUse" />
    <linearGradient
       id="linearGradient853"
       x1="-3.0423021"
       x2="-5.8153644"
       xlink:href="#linearGradient843"
       y1="90.654839"
       y2="122.25315"
       gradientTransform="scale(0.98698435,1.0131873)"
       gradientUnits="userSpaceOnUse" />
    <linearGradient
       id="linearGradient854"
       x1="-10.310557"
       x2="-29.788542"
       xlink:href="#linearGradient843"
       y1="88.203247"
       y2="133.70348"
       gradientTransform="scale(0.97326687,1.0274674)"
       gradientUnits="userSpaceOnUse" />
    <linearGradient
       id="linearGradient856"
       x1="18.033831"
       x2="9.1930199"
       xlink:href="#linearGradient843"
       y1="71.331642"
       y2="79.11554"
       gradientTransform="scale(0.94096477,1.062739)"
       gradientUnits="userSpaceOnUse" />
    <linearGradient
       id="linearGradient858"
       xlink:href="#linearGradient849"
       gradientTransform="scale(0.92198159,1.0846204)"
       x1="10.113566"
       y1="66.612053"
       x2="17.602587"
       y2="66.612053"
       gradientUnits="userSpaceOnUse" />
    <linearGradient
       id="linearGradient859"
       x1="70.492432"
       x2="86.036766"
       xlink:href="#linearGradient871"
       y1="23.057989"
       y2="-19.962605"
       gradientTransform="scale(0.86577456,1.1550351)"
       gradientUnits="userSpaceOnUse" />
    <linearGradient
       id="linearGradient860"
       x1="149.60841"
       x2="168.17224"
       xlink:href="#linearGradient843"
       y1="134.58372"
       y2="134.58372"
       gradientTransform="scale(1.3284338,0.75276613)"
       gradientUnits="userSpaceOnUse" />
    <linearGradient
       id="linearGradient861"
       x1="18.033285"
       x2="39.280598"
       xlink:href="#linearGradient843"
       y1="160.44141"
       y2="160.44141"
       gradientTransform="scale(2.1250346,0.47058057)"
       gradientUnits="userSpaceOnUse" />
    <linearGradient
       id="linearGradient862"
       x1="27.840088"
       x2="50.11684"
       xlink:href="#linearGradient863"
       y1="120.86608"
       y2="133.71698"
       gradientTransform="scale(1.6991598,0.58852616)"
       gradientUnits="userSpaceOnUse" />
    <linearGradient
       id="linearGradient870"
       x1="85.117317"
       x2="115.2844"
       xlink:href="#linearGradient871"
       y1="61.419952"
       y2="35.042332"
       gradientTransform="scale(1.2892894,0.77562107)"
       gradientUnits="userSpaceOnUse" />
    <linearGradient
       id="linearGradient877"
       x1="0.08802817"
       x2="-0.13732395"
       xlink:href="#linearGradient843"
       y1="0.78440368"
       y2="0.78440368" />
  </defs>
  <sodipodi:namedview
     bordercolor="#666666"
     borderopacity="1.0"
     id="base"
     inkscape:cx="66.32763"
     inkscape:cy="99.654624"
     inkscape:pageopacity="0.0"
     inkscape:pageshadow="2"
     inkscape:window-height="737"
     inkscape:window-width="990"
     inkscape:window-x="270"
     inkscape:window-y="129"
     inkscape:zoom="2.8284271"
     pagecolor="#ffffff"
     showborder="false"
     showgrid="false"
     inkscape:window-maximized="0"
     inkscape:current-layer="svg1" />
  <g
     id="g1007"
     transform="matrix(0.48819999,0.0357001,-0.01060321,0.46584718,84.829021,-34.280065)">
    <path
       d="m -56.036547,125.72351 c -11.056031,3.56785 -15.595391,16.35207 -21.260036,25.5498 -9.994608,6.08242 -21.953155,10.9273 -32.083987,17.64831 -17.68838,8.50963 -29.09319,25.9844 -34.01315,44.545 -1.21901,10.8396 -13.08589,27.6814 -7.15588,31.95795 5.90843,4.5033 23.99826,-19.90325 39.52526,-22.3303 8.81355,-0.10179 20.63732,6.80164 27.636895,0.84788 -10.479263,-3.52682 -4.040972,-6.35753 3.208678,-4.78923 11.428913,-0.91767 23.125378,-6.57126 29.860969,-15.96066 33.79929,-8.42103 73.722923,0.0607 96.386893,27.77268 1.44908,9.38429 -11.87652,18.89313 -5.60366,30.02543 -0.66112,6.0307 9.25716,19.68079 9.32249,6.71842 2.31085,-8.51358 7.51468,-24.59647 19.44928,-18.00235 7.74959,-3.68175 23.7071,15.7349 20.68521,0.44187 -5.35109,-12.66996 -18.90777,-20.61131 -32.42772,-20.8623 -15.0177,-17.25884 -29.13666,-35.32627 -43.971167,-52.6928 -17.4749301,-16.3623 -40.463302,-28.60727 -65.026991,-26.88972 -12.69275,-0.51094 -5.719521,-18.33281 -3.031582,-23.84605 -0.5005,-0.0446 -1.501502,-0.13393 -1.501502,-0.13393 z"
       id="path923"
       sodipodi:nodetypes="ccccccccccccccccccc"
       style="fill:#000000;fill-opacity:0.05785122;fill-rule:evenodd;stroke-width:0.25"
       inkscape:connector-curvature="0" />
    <path
       d="m -56.78125,124.125 c -11.241688,4.3527 -15.977035,16.22654 -21.71875,25.84375 -15.386482,8.59916 -31.79566,15.81795 -45.42418,27.10992 -12.0471,10.60236 -18.78472,25.81023 -22.39397,41.17453 -2.53853,8.5633 -7.80451,16.61747 -7.24435,25.8093 1.72927,4.76077 8.23257,3.78107 11.1875,0.78125 10.11566,-6.79482 18.96134,-16.16636 30.9375,-19.59375 8.99292,-0.56233 18.151393,5.15713 26.884271,1.28767 1.704638,-0.43722 5.31866,-2.98871 2.356207,-4.14176 -5.158781,-1.37707 -1.766064,-2.02208 1.759522,-1.70841 8.137902,-0.801 16.12277,-3.36916 22.753237,-8.24486 4.639407,-2.97509 7.719167,-8.81627 13.903013,-8.75514 27.269843,-4.96032 57.063657,0.94204 78.781555,18.6359 3.118123,3.26805 7.757314,6.0347 9.194683,10.33968 -0.981583,9.03579 -9.22631,16.90336 -6.326066,26.36157 1.387063,5.22913 2.562545,11.2937 7.13637,14.65314 2.761587,1.92221 6.654923,-0.10639 6.352831,-3.5556 1.366206,-7.3543 3.916621,-15.47328 10.454377,-19.74719 3.500313,-0.71652 6.928058,1.28897 10.461069,0.90412 6.189905,0.96304 11.157055,6.41724 17.445181,6.15838 4.550341,-3.74842 0.975025,-10.26064 -1.734716,-14.0434 C 81.251564,233.9797 69.94277,228.28129 58.4375,227.6875 43.164581,209.55989 28.16115,191.14701 12.465229,173.4116 -4.187352,158.46565 -25.791779,147.61626 -48.619853,148.0204 c -4.255409,0.63413 -9.145795,-2.3022 -8.251823,-7.06394 -0.106619,-5.9295 2.915138,-11.21887 4.809176,-16.67521 -1.562904,-0.021 -3.188464,-0.21355 -4.71875,-0.15625 z"
       id="path973"
       style="fill:#000000;fill-opacity:0.05785122;fill-rule:evenodd;stroke-width:0.25"
       inkscape:connector-curvature="0" />
    <path
       d="m -49.625,122.1875 c -4.246837,0.10726 -8.759191,-0.7885 -12.28125,2.1875 -8.950526,5.69109 -13.131146,15.94832 -18.817592,24.27651 -17.102916,9.74031 -35.693388,17.85151 -49.709528,32.03848 -11.07346,12.33175 -15.59588,28.74402 -20.736,44.05628 -2.5512,6.60616 -4.88869,13.59971 -4.42438,20.72248 3.10286,5.81688 11.21007,4.40281 15.4326,0.72129 9.60406,-6.74227 18.61191,-15.10744 30.16115,-18.31504 9.48722,0.56882 19.806224,4.50026 28.75,-0.375 2.623936,-0.90591 0.545892,-5.27597 3.750545,-4.93315 10.559239,-1.48839 20.166542,-6.7935 27.936955,-13.9731 8.378264,-4.26337 18.050819,-3.79309 27.189085,-3.87888 22.99049366,0.50701 46.215107,9.33459 62.344786,25.95458 3.09611,4.99407 -1.651852,10.33418 -2.807464,15.22132 -2.918076,6.79483 -2.334202,14.50316 0.7219,21.10896 1.540188,4.55919 5.284168,10.41488 10.781681,9.46343 6.050732,-2.00467 4.945549,-9.85101 7.509317,-14.52274 1.782111,-4.9032 6.020155,-10.58726 11.927728,-8.63309 7.488775,0.6422 13.777423,6.05092 21.270467,6.25517 5.272184,-1.33409 5.019111,-8.4381 2.927873,-12.35957 -3.816604,-8.73921 -12.11424,-15.02876 -20.838278,-18.40242 -4.599646,-2.37322 -10.483392,-1.41579 -14.011186,-5.70222 -13.862378,-16.11127 -27.247342,-32.69208 -41.656105,-48.35187 -7.4001551,-8.90869 -17.5425643,-15.07779 -27.793745,-20.12449 -11.699989,-5.71664 -24.644081,-8.54302 -37.630232,-8.86219 -4.903999,-0.0352 -5.813548,-5.88639 -4.077133,-9.51187 1.197711,-4.84836 3.09943,-9.45537 4.922556,-14.09162 -0.191811,0.007 -0.754311,0.0279 -0.84375,0.0312 z"
       id="path978"
       style="fill:#000000;fill-opacity:0.05785122;fill-rule:evenodd;stroke-width:0.25"
       inkscape:connector-curvature="0" />
    <path
       d="m -46.28125,119.875 c -7.082324,0.47107 -15.712695,-0.42015 -20.588133,5.91548 -7.242145,6.2767 -10.852019,15.58246 -17.444116,22.33713 -17.041201,10.04013 -35.625801,18.41309 -49.304701,33.08934 -11.1563,14.68361 -16.23055,32.7926 -21.90421,50.05827 -1.18027,5.32174 -3.5024,11.3813 -1.15488,16.55904 4.48998,5.87456 13.16653,3.65344 18.30279,-0.0743 9.68464,-6.40868 18.77728,-15.12815 30.50972,-17.26275 9.360755,0.75837 19.745816,3.383 28.39603,-1.46601 1.363016,-3.1075 3.753976,-4.96532 7.118724,-5.3592 8.915776,-2.17626 16.893428,-7.10276 23.881276,-12.9533 13.366166,-4.35342 27.776593,-4.27749 41.4903009,-1.77619 C 9.8399662,212.05679 25.67087,220.03288 37.9375,232 c 1.476171,7.72584 -5.361369,14.20872 -4.347664,22.0211 -0.736243,8.15796 2.672691,16.24055 7.691414,22.4789 4.153289,3.34981 11.966546,2.498 13.5,-3.1875 2.533694,-5.99722 3.305531,-13.86806 9.5,-17.375 9.479087,-1.54603 17.576893,7.41434 27.03125,5.09375 5.825624,-3.15353 5.07305,-11.3162 2.123063,-16.28263 C 87.919981,234.444 77.220323,228.12153 66.274136,224.94516 57.458802,222.55351 53.157635,213.7601 47.18162,207.64753 35.04948,193.13011 22.280308,179.12882 9.3499502,165.34454 -7.2306652,152.16119 -28.028563,144.42494 -49.21875,143.5 c -4.648614,-1.89143 -1.827363,-7.89224 -0.614185,-11.30385 1.466254,-4.11707 2.92401,-8.23718 4.395435,-12.3524 -0.191811,0.007 -0.754311,0.0279 -0.84375,0.0312 z"
       id="path983"
       style="fill:#000000;fill-opacity:0.05785122;fill-rule:evenodd;stroke-width:0.25"
       inkscape:connector-curvature="0" />
    <path
       d="m -42.15625,116.90625 c -9.528236,0.58467 -21.151444,-0.26716 -27.782818,8.00325 -8.112433,8.66042 -13.379216,20.40827 -24.46296,25.87394 -14.875302,9.01323 -31.031302,17.03477 -42.550752,30.36641 -10.22434,15.73159 -16.4104,33.60482 -21.71177,51.47888 -1.18598,6.01474 -3.44671,13.91139 1.72705,18.68377 5.43126,4.3888 13.20442,2.71953 18.66682,-0.77184 9.94743,-5.0894 18.20939,-13.84999 29.33318,-16.54066 10.158651,-1.39557 21.154216,2.77773 30.59375,-2.625 5.693973,-6.55198 15.313733,-6.38155 21.92126,-11.65935 6.417531,-4.21373 13.204205,-8.74962 21.211824,-8.56273 23.732092,-2.99119 48.652701,4.32124 67.054416,19.56583 4.206971,2.48808 2.832485,7.46932 1.440114,11.23717 -4.679135,12.1177 -2.2155,26.878 6.528636,36.57533 5.732423,4.69475 16.212492,2.45294 17.919441,-5.25847 2.204578,-5.0543 3.104782,-11.83246 8.580559,-14.49153 9.025526,0.92888 17.632536,7.09651 26.84375,4.46875 6.614853,-4.55585 5.805994,-13.98783 2.23528,-20.21668 C 89.535506,233.55849 79.97736,227.00798 69.655142,223.19727 57.406755,218.30747 50.573467,206.24029 41.759961,197.14289 30.861199,184.82964 19.797872,172.59558 8.1804361,160.98819 -8.0476161,149.17695 -27.624157,142.09052 -47.6875,140.8125 c -2.092153,-5.37939 2.134555,-10.67469 3.414996,-15.81984 0.18488,-2.14156 3.917501,-7.51716 2.116254,-8.08641 z"
       id="path1006"
       style="fill:#000000;fill-opacity:0.05785122;fill-rule:evenodd;stroke-width:0.25"
       inkscape:connector-curvature="0" />
  </g>
  <g
     id="g878"
     transform="matrix(0.4937876,0.03601521,-0.03601521,0.4937876,16.168369,20.489608)">
    <path
       d="m -11.220209,108.88442 c -5.563465,1.75653 2.5703958,-13.443866 2.5703958,-13.443866 0,0 3.562746,-41.73503 30.5378252,-58.530835 26.975079,-16.795804 38.681247,-20.867514 38.681247,-20.867514 0,0 13.17395,-27.24235 21.82634,-26.733386 5.32339,-0.03087 -0.53718,3.1331623 -1.97675,7.9017273 -1.34959,4.858538 -1.13348,14.7599487 2.93823,15.7778757 4.07171,1.017928 10.38653,-1.054098 26.581661,2.544819 17.63469,3.958809 40.7171,21.376476 47.33363,30.537823 6.61653,9.16135 38.68125,46.82467 38.68125,46.82467 25.7875,1.01793 35.16502,23.131706 33.08264,25.957146 -2.08238,3.07992 -0.25448,1.8662 -3.05378,1.01793 -2.7993,-0.84827 -7.25274,-5.8955 -13.74202,-6.10757 -6.74377,-0.21207 -10.73065,-2.37516 -13.74202,-2.03585 -3.13861,0.33931 -2.7993,7.4648 -7.88894,11.8334 -4.96239,4.3686 0.0848,11.74858 -4.32619,13.61478 -4.15654,1.73896 -8.39791,-13.91167 -8.65239,-20.86751 -0.25448,-6.95584 6.95585,-15.35373 8.14343,-18.831646 1.18758,-3.47792 -34.86403,-45.80674 -98.484491,-30.53783 -3.56275,8.65238 -36.77263,15.65063 -36.77263,15.65063 -7.407833,1.19486 9.86907,5.06179 3.35192,6.25664 -14.878447,3.8509 -19.066073,-4.70865 -30.397794,-1.42523 -11.331721,3.28342 -29.1280992,19.707266 -34.691564,21.463796 z"
       id="path826"
       sodipodi:nodetypes="czccczczzczzzzzzzzccczz"
       style="fill:url(#linearGradient841);fill-opacity:1;fill-rule:evenodd;stroke:none"
       inkscape:connector-curvature="0" />
    <path
       d="m 11.156644,84.973234 c 0,0 41.747445,-37.42874 65.140405,-35.98917 23.39296,1.43956 53.983761,0 70.178891,10.07697 16.19512,10.07696 -30.5908,-2.51925 -46.06614,1.79945 -15.475351,4.31871 -69.09922,22.31329 -78.816296,26.63199 -9.717077,4.3187 -16.9149112,3.95881 -10.43686,-2.51924 z"
       id="path837"
       style="fill:url(#linearGradient842);fill-opacity:1;fill-rule:evenodd;stroke:none"
       inkscape:connector-curvature="0" />
    <path
       d="m -4.6785922,82.813884 c 0,0 -2.366424,5.35471 0.872601,5.7146 3.239026,0.35989 7.404908,-4.99482 10.643934,-11.11298 3.2390262,-6.47805 16.1951272,-29.87101 36.7089562,-35.62928 20.51383,-5.758269 34.18971,-7.197834 37.78863,-11.516535 3.59892,-4.318701 2.51924,-10.43686 -16.19513,-8.997293 -18.354476,1.439567 -39.588086,14.755561 -48.225487,23.392958 -8.6374022,8.27751 -15.4753452,18.35448 -21.5935042,38.14853 z"
       id="path833"
       sodipodi:nodetypes="cczzczzc"
       style="fill:url(#linearGradient846);fill-opacity:1;fill-rule:evenodd;stroke:none"
       inkscape:connector-curvature="0" />
    <path
       d="m 61.377229,17.367426 c 2.02895,1.635708 15.76721,-27.2381177 20.31403,-27.0958817 -5.42685,-2.4180053 -22.26965,25.6024077 -20.31403,27.0958817 z"
       id="path827"
       sodipodi:nodetypes="ccz"
       style="fill:url(#linearGradient859);fill-opacity:1;fill-rule:evenodd;stroke:none"
       inkscape:connector-curvature="0" />
    <path
       d="m 9.0366778,55.486894 c -1.081548,-0.89069 -4.962397,1.39965 -6.998252,6.36205 -2.035855,4.96239 7.952559,-5.47136 6.998252,-6.36205 z"
       id="path828"
       sodipodi:nodetypes="ccz"
       style="fill:url(#linearGradient848);fill-opacity:1;fill-rule:evenodd;stroke:none"
       inkscape:connector-curvature="0" />
    <path
       d="m 2.1656668,62.994114 c 0,0 6.728333,-5.06781 6.601091,-7.73987 1.5268922,0.63621 0.906124,3.60454 -1.00249,5.57677 -1.908614,2.09948 -4.707915,3.68999 -5.598601,2.1631 z"
       id="path829"
       sodipodi:nodetypes="cczc"
       style="fill:url(#linearGradient852);fill-opacity:1;fill-rule:evenodd;stroke:none"
       inkscape:connector-curvature="0" />
    <path
       d="m 32.32177,80.171634 26.975079,-16.7958 c 0,0 1.78138,5.5986 7.63446,5.34412 5.85308,-0.25448 21.63096,-5.34412 21.37648,-2.29034 -0.25448,3.05378 -16.28684,17.30477 -33.08265,16.28684 -16.795804,-1.01793 -22.903369,-2.54482 -22.903369,-2.54482 z"
       id="path830"
       style="fill:url(#linearGradient862);fill-opacity:1;fill-rule:evenodd;stroke:none"
       inkscape:connector-curvature="0" />
    <path
       d="m 41.737598,78.008534 c -1.442063,-1.18758 -4.792741,1.44207 -2.7993,1.78138 1.017928,0.50897 31.301271,3.68999 44.534331,-9.28859 -15.01443,5.08964 -16.54132,9.79756 -41.735031,7.50721 z"
       id="path831"
       sodipodi:nodetypes="cccc"
       style="fill:url(#linearGradient861);fill-opacity:1;fill-rule:evenodd;stroke:none"
       inkscape:connector-curvature="0" />
    <path
       d="m 200.15257,94.422624 c -1.10213,-0.46335 -1.92795,0.80648 -1.01793,1.39965 0.99999,0.54818 14.28163,1.8323 24.27105,12.474906 -6.60506,-10.674586 -22.01603,-13.771096 -23.25312,-13.874556 z"
       id="path832"
       sodipodi:nodetypes="czcz"
       style="fill:url(#linearGradient860);fill-opacity:1;fill-rule:evenodd;stroke:none"
       inkscape:connector-curvature="0" />
    <path
       d="m 16.16217,72.664424 c 0,0 -2.035855,-1.52689 -4.326192,1.27241 -2.1630962,2.7993 -3.1810232,4.9624 -2.0358552,6.2348 1.1451682,1.14517 7.1254932,-2.7993 6.3620472,-7.50721 z"
       id="path857"
       sodipodi:nodetypes="czzc"
       style="fill:url(#linearGradient858);fill-opacity:1;fill-rule:evenodd;stroke:none"
       inkscape:connector-curvature="0" />
    <path
       d="m 16.375074,72.916854 c 0,0 0.539837,3.59892 -3.05908,5.93822 -3.5989172,2.33929 1.439567,1.07967 1.439567,1.07967 0,0 4.498646,-2.33929 3.958809,-4.3187 -0.539838,-1.9794 -1.619513,-3.59892 -2.339296,-2.69919 z"
       id="path834"
       style="fill:url(#linearGradient856);fill-opacity:1;fill-rule:evenodd;stroke:none"
       inkscape:connector-curvature="0" />
    <path
       d="m -11.194632,103.96569 c -1.145168,0.6362 -1.526891,1.52689 -0.508964,1.78137 1.017928,0.25448 20.4857908,-13.233056 19.8495868,-20.994746 -6.616529,8.14341 -16.923045,17.940966 -19.3406228,19.213376 z"
       id="path835"
       sodipodi:nodetypes="cccc"
       style="fill:url(#linearGradient853);fill-opacity:1;fill-rule:evenodd;stroke:none"
       inkscape:connector-curvature="0" />
    <path
       d="m -10.553816,106.09283 c -1.654132,1.14517 -2.290337,1.65414 -0.763446,2.54482 0.763446,0.89068 23.921297,-15.141666 25.320947,-27.611276 -5.7258422,12.59684 -22.5216462,24.048536 -24.557501,25.066456 z"
       id="path836"
       sodipodi:nodetypes="cccc"
       style="fill:url(#linearGradient854);fill-opacity:1;fill-rule:evenodd;stroke:none"
       inkscape:connector-curvature="0" />
    <path
       d="m 87.093799,16.593804 c 0,0 39.588091,-2.879134 71.258561,33.82982 31.67047,36.70896 -69.818991,-11.516533 -71.978351,-21.593501 -2.15935,-10.076969 0.71979,-12.236319 0.71979,-12.236319 z"
       id="path869"
       style="fill:url(#linearGradient870);fill-opacity:1;fill-rule:evenodd;stroke:none"
       inkscape:connector-curvature="0" />
  </g>
</svg>
