<?xml version="1.0" encoding="UTF-8" standalone="no"?>
<!-- Created with Inkscape (http://www.inkscape.org/) -->

<svg
   xmlns:dc="http://purl.org/dc/elements/1.1/"
   xmlns:cc="http://creativecommons.org/ns#"
   xmlns:rdf="http://www.w3.org/1999/02/22-rdf-syntax-ns#"
   xmlns:svg="http://www.w3.org/2000/svg"
   xmlns="http://www.w3.org/2000/svg"
   xmlns:xlink="http://www.w3.org/1999/xlink"
   xmlns:sodipodi="http://sodipodi.sourceforge.net/DTD/sodipodi-0.dtd"
   xmlns:inkscape="http://www.inkscape.org/namespaces/inkscape"
   version="1.0"
   width="128"
   height="128"
   id="svg3367"
   inkscape:version="0.48.1 r9760"
   sodipodi:docname="dvdstyler.svg">
  <metadata
     id="metadata120">
    <rdf:RDF>
      <cc:Work
         rdf:about="">
        <dc:format>image/svg+xml</dc:format>
        <dc:type
           rdf:resource="http://purl.org/dc/dcmitype/StillImage" />
        <dc:title></dc:title>
      </cc:Work>
    </rdf:RDF>
  </metadata>
  <sodipodi:namedview
     pagecolor="#ffffff"
     bordercolor="#666666"
     borderopacity="1"
     objecttolerance="10"
     gridtolerance="10"
     guidetolerance="10"
     inkscape:pageopacity="0"
     inkscape:pageshadow="2"
     inkscape:window-width="1289"
     inkscape:window-height="808"
     id="namedview118"
     showgrid="false"
     inkscape:zoom="4.84375"
     inkscape:cx="64"
     inkscape:cy="64"
     inkscape:window-x="407"
     inkscape:window-y="42"
     inkscape:window-maximized="0"
     inkscape:current-layer="svg3367" />
  <defs
     id="defs3369">
    <linearGradient
       id="linearGradient23419">
      <stop
         id="stop23421"
         style="stop-color:#000000;stop-opacity:1"
         offset="0" />
      <stop
         id="stop23423"
         style="stop-color:#000000;stop-opacity:0"
         offset="1" />
    </linearGradient>
    <linearGradient
       id="linearGradient3772">
      <stop
         id="stop3774"
         style="stop-color:#b4b4b4;stop-opacity:1"
         offset="0" />
      <stop
         id="stop3776"
         style="stop-color:#969696;stop-opacity:1"
         offset="1" />
    </linearGradient>
    <linearGradient
       x1="12.2744"
       y1="32.4165"
       x2="35.391201"
       y2="14.2033"
       id="linearGradient3263"
       gradientUnits="userSpaceOnUse">
      <stop
         id="stop3265"
         style="stop-color:#dedbde;stop-opacity:1"
         offset="0" />
      <stop
         id="stop3267"
         style="stop-color:#e6e6e6;stop-opacity:1"
         offset="0.5" />
      <stop
         id="stop3269"
         style="stop-color:#d2d2d2;stop-opacity:1"
         offset="1" />
    </linearGradient>
    <linearGradient
       id="linearGradient3428">
      <stop
         id="stop3430"
         style="stop-color:#aaaaaa;stop-opacity:1"
         offset="0" />
      <stop
         id="stop3432"
         style="stop-color:#d4d4d4;stop-opacity:1"
         offset="1" />
    </linearGradient>
    <linearGradient
       x1="10.609375"
       y1="17.886322"
       x2="9.7297754"
       y2="20.612656"
       id="linearGradient3354"
       xlink:href="#linearGradient3519"
       gradientUnits="userSpaceOnUse"
       spreadMethod="reflect" />
    <linearGradient
       x1="12.371647"
       y1="16.188046"
       x2="14.609327"
       y2="13.461712"
       id="linearGradient3352"
       xlink:href="#linearGradient3511"
       gradientUnits="userSpaceOnUse"
       spreadMethod="reflect" />
    <linearGradient
       x1="14.084608"
       y1="13.045606"
       x2="16.994024"
       y2="10.732353"
       id="linearGradient3350"
       xlink:href="#linearGradient3503"
       gradientUnits="userSpaceOnUse"
       spreadMethod="reflect" />
    <linearGradient
       x1="17.494959"
       y1="11.200086"
       x2="21.047453"
       y2="9.7956104"
       id="linearGradient3348"
       xlink:href="#linearGradient3495"
       gradientUnits="userSpaceOnUse"
       spreadMethod="reflect" />
    <linearGradient
       x1="20.580074"
       y1="10.774516"
       x2="24.27351"
       y2="9.8622112"
       id="linearGradient3346"
       xlink:href="#linearGradient3487"
       gradientUnits="userSpaceOnUse"
       spreadMethod="reflect" />
    <linearGradient
       id="linearGradient6036">
      <stop
         id="stop6038"
         style="stop-color:#ffffff;stop-opacity:1"
         offset="0" />
      <stop
         id="stop6040"
         style="stop-color:#ffffff;stop-opacity:0"
         offset="1" />
    </linearGradient>
    <linearGradient
       id="linearGradient3519">
      <stop
         id="stop3521"
         style="stop-color:#fcd9cd;stop-opacity:1"
         offset="0" />
      <stop
         id="stop3523"
         style="stop-color:#fcd9cd;stop-opacity:0"
         offset="1" />
    </linearGradient>
    <linearGradient
       x1="10.609375"
       y1="17.886322"
       x2="9.7297754"
       y2="20.612656"
       id="linearGradient3319"
       xlink:href="#linearGradient3519"
       gradientUnits="userSpaceOnUse"
       spreadMethod="reflect" />
    <linearGradient
       id="linearGradient3511">
      <stop
         id="stop3513"
         style="stop-color:#ebeec7;stop-opacity:1"
         offset="0" />
      <stop
         id="stop3515"
         style="stop-color:#ebeec7;stop-opacity:0"
         offset="1" />
    </linearGradient>
    <linearGradient
       x1="12.371647"
       y1="16.188046"
       x2="14.609327"
       y2="13.461712"
       id="linearGradient3317"
       xlink:href="#linearGradient3511"
       gradientUnits="userSpaceOnUse"
       spreadMethod="reflect" />
    <linearGradient
       id="linearGradient3503">
      <stop
         id="stop3505"
         style="stop-color:#c4ebdd;stop-opacity:1"
         offset="0" />
      <stop
         id="stop3507"
         style="stop-color:#c4ebdd;stop-opacity:0"
         offset="1" />
    </linearGradient>
    <linearGradient
       x1="14.084608"
       y1="13.045606"
       x2="16.994024"
       y2="10.732353"
       id="linearGradient3315"
       xlink:href="#linearGradient3503"
       gradientUnits="userSpaceOnUse"
       spreadMethod="reflect" />
    <linearGradient
       id="linearGradient3495">
      <stop
         id="stop3497"
         style="stop-color:#c1cbe4;stop-opacity:1"
         offset="0" />
      <stop
         id="stop3499"
         style="stop-color:#c1cbe4;stop-opacity:0"
         offset="1" />
    </linearGradient>
    <linearGradient
       x1="17.494959"
       y1="11.200086"
       x2="21.047453"
       y2="9.7956104"
       id="linearGradient3313"
       xlink:href="#linearGradient3495"
       gradientUnits="userSpaceOnUse"
       spreadMethod="reflect" />
    <linearGradient
       id="linearGradient3487">
      <stop
         id="stop3489"
         style="stop-color:#e6cde2;stop-opacity:1"
         offset="0" />
      <stop
         id="stop3491"
         style="stop-color:#e6cde2;stop-opacity:0"
         offset="1" />
    </linearGradient>
    <linearGradient
       x1="20.580074"
       y1="10.774516"
       x2="24.27351"
       y2="9.8622112"
       id="linearGradient3311"
       xlink:href="#linearGradient3487"
       gradientUnits="userSpaceOnUse"
       spreadMethod="reflect" />
    <linearGradient
       x1="10.50172"
       y1="3.6100161"
       x2="48.798885"
       y2="54.698483"
       id="linearGradient2453"
       xlink:href="#linearGradient6036"
       gradientUnits="userSpaceOnUse"
       gradientTransform="matrix(2.6061197,0,0,2.6061195,-2.820976,0.04071339)" />
    <linearGradient
       x1="18.775953"
       y1="4.0378027"
       x2="18.203465"
       y2="45.962208"
       id="linearGradient2462"
       xlink:href="#linearGradient6036"
       gradientUnits="userSpaceOnUse"
       gradientTransform="matrix(1.1360011,0,0,1.1360006,32.972005,36.793666)" />
    <linearGradient
       x1="21.448364"
       y1="15.5"
       x2="21.448364"
       y2="32.509201"
       id="linearGradient2465"
       xlink:href="#linearGradient3428"
       gradientUnits="userSpaceOnUse"
       gradientTransform="matrix(2.4805285,0,0,2.4805285,1.0975393,5.6610036)" />
    <linearGradient
       x1="12.2744"
       y1="32.4165"
       x2="35.391201"
       y2="14.2033"
       id="linearGradient2470"
       xlink:href="#linearGradient3263"
       gradientUnits="userSpaceOnUse"
       gradientTransform="matrix(0,3.0995068,-3.0995068,0,132.22885,-9.1944915)" />
    <linearGradient
       x1="-21.915663"
       y1="3"
       x2="-21.915663"
       y2="45.032898"
       id="linearGradient2472"
       xlink:href="#linearGradient3772"
       gradientUnits="userSpaceOnUse"
       gradientTransform="matrix(2.6458971,0,0,2.6458971,130.12487,1.692158)" />
    <radialGradient
       cx="23.334524"
       cy="41.63604"
       r="22.627417"
       fx="23.334524"
       fy="41.63604"
       id="radialGradient2475"
       xlink:href="#linearGradient23419"
       gradientUnits="userSpaceOnUse"
       gradientTransform="matrix(2.5725312,0,0,0.75999532,0.60143147,74.561547)" />
    <linearGradient
       x1="32.892288"
       y1="8.0590115"
       x2="36.358372"
       y2="5.4565363"
       id="linearGradient3598"
       xlink:href="#linearGradient8589"
       gradientUnits="userSpaceOnUse"
       gradientTransform="matrix(0.6371285,0,0,0.6445638,18.829693,18.744517)" />
    <linearGradient
       id="linearGradient8589">
      <stop
         id="stop8591"
         style="stop-color:#fefefe;stop-opacity:1"
         offset="0" />
      <stop
         id="stop8593"
         style="stop-color:#cbcbcb;stop-opacity:1"
         offset="1" />
    </linearGradient>
    <filter
       x="-0.14846256"
       y="-0.16434373"
       width="1.2969251"
       height="1.3286875"
       color-interpolation-filters="sRGB"
       id="filter3212">
      <feGaussianBlur
         stdDeviation="0.77391625"
         id="feGaussianBlur3214" />
    </filter>
    <linearGradient
       x1="24"
       y1="1.9999999"
       x2="24"
       y2="46.01725"
       id="linearGradient3602"
       xlink:href="#linearGradient3211"
       gradientUnits="userSpaceOnUse"
       gradientTransform="matrix(0.6363646,0,0,0.6279076,18.727264,16.930216)" />
    <linearGradient
       id="linearGradient3211">
      <stop
         id="stop3213"
         style="stop-color:#ffffff;stop-opacity:1"
         offset="0" />
      <stop
         id="stop3215"
         style="stop-color:#ffffff;stop-opacity:0"
         offset="1" />
    </linearGradient>
    <radialGradient
       cx="102"
       cy="112.3047"
       r="139.55859"
       id="radialGradient3605"
       xlink:href="#XMLID_8_"
       gradientUnits="userSpaceOnUse"
       gradientTransform="matrix(0.2340426,0,0,-0.2542968,19.02129,50.288672)" />
    <radialGradient
       cx="102"
       cy="112.3047"
       r="139.55859"
       id="XMLID_8_"
       gradientUnits="userSpaceOnUse">
      <stop
         id="stop41"
         style="stop-color:#b7b8b9;stop-opacity:1"
         offset="0" />
      <stop
         id="stop47"
         style="stop-color:#ececec;stop-opacity:1"
         offset="0.18851049" />
      <stop
         id="stop49"
         style="stop-color:#fafafa;stop-opacity:0"
         offset="0.25718147" />
      <stop
         id="stop51"
         style="stop-color:#ffffff;stop-opacity:0"
         offset="0.30111277" />
      <stop
         id="stop53"
         style="stop-color:#fafafa;stop-opacity:0"
         offset="0.53130001" />
      <stop
         id="stop55"
         style="stop-color:#ebecec;stop-opacity:0"
         offset="0.84490001" />
      <stop
         id="stop57"
         style="stop-color:#e1e2e3;stop-opacity:0"
         offset="1" />
    </radialGradient>
    <linearGradient
       x1="25.132275"
       y1="0.98520643"
       x2="25.132275"
       y2="47.013336"
       id="linearGradient3608"
       xlink:href="#linearGradient3600"
       gradientUnits="userSpaceOnUse"
       gradientTransform="matrix(0.6571436,0,0,0.6301241,18.228566,15.910352)" />
    <linearGradient
       id="linearGradient3600">
      <stop
         id="stop3602"
         style="stop-color:#f4f4f4;stop-opacity:1"
         offset="0" />
      <stop
         id="stop3604"
         style="stop-color:#dbdbdb;stop-opacity:1"
         offset="1" />
    </linearGradient>
    <linearGradient
       x1="-51.786404"
       y1="50.786446"
       x2="-51.786404"
       y2="2.9062471"
       id="linearGradient3610"
       xlink:href="#linearGradient3104"
       gradientUnits="userSpaceOnUse"
       gradientTransform="matrix(0.5306412,0,0,0.5897023,57.269618,15.208092)" />
    <linearGradient
       id="linearGradient3104">
      <stop
         id="stop3106"
         style="stop-color:#9a9a9a;stop-opacity:1"
         offset="0" />
      <stop
         id="stop3108"
         style="stop-color:#afafaf;stop-opacity:1"
         offset="1" />
    </linearGradient>
    <radialGradient
       cx="605.71429"
       cy="486.64789"
       r="117.14286"
       fx="605.71429"
       fy="486.64789"
       id="radialGradient3613"
       xlink:href="#linearGradient5060"
       gradientUnits="userSpaceOnUse"
       gradientTransform="matrix(0.01566318,0,0,0.00823529,35.610446,42.980566)" />
    <linearGradient
       id="linearGradient5060">
      <stop
         id="stop5062"
         style="stop-color:#000000;stop-opacity:1"
         offset="0" />
      <stop
         id="stop5064"
         style="stop-color:#000000;stop-opacity:0"
         offset="1" />
    </linearGradient>
    <radialGradient
       cx="605.71429"
       cy="486.64789"
       r="117.14286"
       fx="605.71429"
       fy="486.64789"
       id="radialGradient3616"
       xlink:href="#linearGradient5060"
       gradientUnits="userSpaceOnUse"
       gradientTransform="matrix(-0.01566318,0,0,0.00823529,33.389579,42.980566)" />
    <linearGradient
       x1="3.7797408"
       y1="106.37297"
       x2="3.7797408"
       y2="99.720741"
       id="linearGradient3619"
       xlink:href="#linearGradient5048"
       gradientUnits="userSpaceOnUse"
       gradientTransform="matrix(3.1586968,0,0,0.3008283,19.296394,16)" />
    <linearGradient
       id="linearGradient5048">
      <stop
         id="stop5050"
         style="stop-color:#000000;stop-opacity:0"
         offset="0" />
      <stop
         id="stop5056"
         style="stop-color:#000000;stop-opacity:1"
         offset="0.5" />
      <stop
         id="stop5052"
         style="stop-color:#000000;stop-opacity:0"
         offset="1" />
    </linearGradient>
    <linearGradient
       id="linearGradient5060-179">
      <stop
         id="stop2675"
         style="stop-color:#000000;stop-opacity:1"
         offset="0" />
      <stop
         id="stop2677"
         style="stop-color:#000000;stop-opacity:0"
         offset="1" />
    </linearGradient>
    <radialGradient
       cx="605.71429"
       cy="486.64789"
       r="117.14286"
       fx="605.71429"
       fy="486.64789"
       id="radialGradient3717"
       xlink:href="#linearGradient5060-179"
       gradientUnits="userSpaceOnUse"
       gradientTransform="matrix(0.03079083,0,0,0.02470588,24.610252,31.941642)" />
    <radialGradient
       gradientTransform="matrix(-1.4061954,0,0,0.3867044,27.819698,13.522738)"
       gradientUnits="userSpaceOnUse"
       xlink:href="#linearGradient5105-262-943-861"
       id="radialGradient3932"
       fy="19.03125"
       fx="11.25"
       r="8.0625"
       cy="19.03125"
       cx="11.25" />
    <linearGradient
       id="linearGradient5105-262-943-861">
      <stop
         offset="0"
         style="stop-color:#0d0d0d;stop-opacity:1"
         id="stop2487" />
      <stop
         offset="1"
         style="stop-color:#0d0d0d;stop-opacity:0"
         id="stop2489" />
    </linearGradient>
    <linearGradient
       gradientTransform="matrix(-0.5165267,0,0,0.5333212,23.457373,-0.7415553)"
       gradientUnits="userSpaceOnUse"
       xlink:href="#linearGradient7012-661-145-733-759-865-745-661-970-94"
       id="linearGradient3927"
       y2="44.051018"
       x2="22.181572"
       y1="14.499924"
       x1="22.181572" />
    <linearGradient
       id="linearGradient7012-661-145-733-759-865-745-661-970-94">
      <stop
         offset="0"
         style="stop-color:#f0c178;stop-opacity:1"
         id="stop3618" />
      <stop
         offset="0.5"
         style="stop-color:#e18941;stop-opacity:1"
         id="stop3270" />
      <stop
         offset="1"
         style="stop-color:#ec4f18;stop-opacity:1"
         id="stop3620" />
    </linearGradient>
    <linearGradient
       gradientTransform="matrix(-1,0,0,1,24,0)"
       gradientUnits="userSpaceOnUse"
       xlink:href="#linearGradient3390-178-986-453"
       id="linearGradient3929"
       y2="0.98732251"
       x2="17.481928"
       y1="23"
       x1="17.481928" />
    <linearGradient
       id="linearGradient3390-178-986-453">
      <stop
         offset="0"
         style="stop-color:#bb2b12;stop-opacity:1"
         id="stop3624" />
      <stop
         offset="1"
         style="stop-color:#cd7233;stop-opacity:1"
         id="stop3626" />
    </linearGradient>
    <linearGradient
       gradientTransform="matrix(0.599071,0,0,0.6156931,-3.232032,-3.9814102)"
       gradientUnits="userSpaceOnUse"
       xlink:href="#linearGradient4222"
       id="linearGradient3924"
       y2="40.445961"
       x2="29.367338"
       y1="11.491515"
       x1="29.367338" />
    <linearGradient
       id="linearGradient4222">
      <stop
         offset="0"
         style="stop-color:#ffffff;stop-opacity:1"
         id="stop4224" />
      <stop
         offset="1"
         style="stop-color:#ffffff;stop-opacity:0"
         id="stop4226" />
    </linearGradient>
    <radialGradient
       id="radialGradient8402"
       xlink:href="#linearGradient6975"
       gradientUnits="userSpaceOnUse"
       cy="42.342999"
       cx="26.782"
       gradientTransform="matrix(1,0,0,0.28221,0,30.394)"
       r="14.407" />
    <linearGradient
       id="linearGradient6975">
      <stop
         id="stop6977"
         offset="0" />
      <stop
         id="stop6979"
         style="stop-opacity:0"
         offset="1" />
    </linearGradient>
    <linearGradient
       id="linearGradient5665"
       y2="23.743"
       gradientUnits="userSpaceOnUse"
       x2="33.437"
       gradientTransform="matrix(2.6458971,0,0,2.6474846,-5.3085782,5.3363521)"
       y1="18.868"
       x1="28.059">
      <stop
         id="stop6953"
         style="stop-color:#6e3d09"
         offset="0" />
      <stop
         id="stop6959"
         style="stop-color:#ea8113"
         offset=".24242" />
      <stop
         id="stop6961"
         style="stop-color:#5c3307"
         offset=".62121" />
      <stop
         id="stop6955"
         style="stop-color:#e07c12"
         offset="1" />
    </linearGradient>
    <linearGradient
       id="linearGradient5662"
       y2="33.438999"
       gradientUnits="userSpaceOnUse"
       x2="23.108999"
       gradientTransform="matrix(2.6458971,0,0,2.6474846,-5.3085782,5.3363521)"
       y1="30.000999"
       x1="19.395">
      <stop
         id="stop6941"
         style="stop-color:#bdbdbd"
         offset="0" />
      <stop
         id="stop6947"
         style="stop-color:#e2e2e2"
         offset=".33333" />
      <stop
         id="stop6949"
         style="stop-color:#a3a3a3"
         offset=".66667" />
      <stop
         id="stop6943"
         style="stop-color:#ddd"
         offset="1" />
    </linearGradient>
    <radialGradient
       id="radialGradient3317"
       xlink:href="#linearGradient6975"
       gradientUnits="userSpaceOnUse"
       cy="42.342999"
       cx="26.782"
       gradientTransform="matrix(1,0,0,0.28221,0,30.394)"
       r="14.407" />
    <linearGradient
       id="linearGradient3319-7">
      <stop
         id="stop3321"
         offset="0" />
      <stop
         id="stop3323"
         style="stop-opacity:0"
         offset="1" />
    </linearGradient>
    <radialGradient
       id="radialGradient5658"
       gradientUnits="userSpaceOnUse"
       cy="35.356998"
       cx="15.415"
       gradientTransform="matrix(2.6317681,0,0,2.5661763,-7.0972047,10.548593)"
       r="7.5791998">
      <stop
         id="stop6965"
         style="stop-color:#696969"
         offset="0" />
      <stop
         id="stop6967"
         offset="1" />
    </radialGradient>
    <linearGradient
       id="linearGradient5652"
       y2="42.282001"
       gradientUnits="userSpaceOnUse"
       x2="7.7521"
       gradientTransform="matrix(2.2550981,0,0,2.2563682,0.59674665,20.047364)"
       y1="37.751999"
       x1="13.236">
      <stop
         id="stop2448"
         style="stop-color:#fff"
         offset="0" />
      <stop
         id="stop2450"
         style="stop-color:#fff;stop-opacity:0"
         offset="1" />
    </linearGradient>
    <linearGradient
       id="linearGradient8408"
       y2="2.3162"
       xlink:href="#linearGradient4103"
       gradientUnits="userSpaceOnUse"
       x2="67.466003"
       gradientTransform="matrix(0.86248,0,0,0.58072,-16.257,11.013)"
       y1="2.3162"
       x1="52.717999" />
    <linearGradient
       id="linearGradient4103">
      <stop
         id="stop4105"
         style="stop-color:#edd563"
         offset="0" />
      <stop
         id="stop4107"
         style="stop-color:#e08223"
         offset="1" />
    </linearGradient>
    <linearGradient
       id="linearGradient6474"
       y2="11.359"
       gradientUnits="userSpaceOnUse"
       x2="42"
       y1="11.359"
       x1="29.143">
      <stop
         id="stop6470"
         style="stop-color:#cd8033"
         offset="0" />
      <stop
         id="stop6472"
         style="stop-color:#bb5e12"
         offset="1" />
    </linearGradient>
    <linearGradient
       id="linearGradient8410"
       y2="24.245001"
       xlink:href="#linearGradient6651"
       gradientUnits="userSpaceOnUse"
       x2="69.691002"
       gradientTransform="matrix(0.71944,0,0,0.71891,-7.6963,9.4717)"
       y1="24.245001"
       x1="53.168999" />
    <linearGradient
       id="linearGradient6651">
      <stop
         id="stop6653"
         style="stop-color:#f2f2f2"
         offset="0" />
      <stop
         id="stop6655"
         style="stop-color:#c3c3c3"
         offset="1" />
    </linearGradient>
    <linearGradient
       id="linearGradient8412"
       y2="41.459"
       gradientUnits="userSpaceOnUse"
       x2="61.872002"
       gradientTransform="matrix(0.88862,0,0,0.71891,-18.298,9.4717)"
       y1="29.615"
       x1="61.872002">
      <stop
         id="stop6631"
         style="stop-color:#aeaeae"
         offset="0" />
      <stop
         id="stop6633"
         style="stop-color:#c4c4c4;stop-opacity:0"
         offset="1" />
    </linearGradient>
    <linearGradient
       id="linearGradient8414"
       y2="64.519997"
       xlink:href="#linearGradient4103"
       gradientUnits="userSpaceOnUse"
       x2="54.064999"
       gradientTransform="matrix(0.70375,0,0,0.71891,-1.0447,-22.425)"
       y1="64.564003"
       x1="42.816002" />
    <linearGradient
       id="linearGradient3346-2">
      <stop
         id="stop3348"
         style="stop-color:#edd563"
         offset="0" />
      <stop
         id="stop3350"
         style="stop-color:#e08223"
         offset="1" />
    </linearGradient>
    <radialGradient
       id="radialGradient6440"
       gradientUnits="userSpaceOnUse"
       cy="20.34"
       cx="31.410999"
       gradientTransform="matrix(1,0,0,1.5787,0,-15.431)"
       r="7.9889998">
      <stop
         id="stop5115"
         style="stop-color:#fff"
         offset="0" />
      <stop
         id="stop5117"
         style="stop-color:#fff;stop-opacity:0"
         offset="1" />
    </radialGradient>
    <linearGradient
       id="linearGradient8418"
       y2="43.869999"
       xlink:href="#linearGradient6651"
       gradientUnits="userSpaceOnUse"
       x2="60.441002"
       gradientTransform="matrix(0.73731,0,0,0.77085,-8.532,7.1216)"
       y1="40.119999"
       x1="60.168999" />
    <linearGradient
       id="linearGradient3356">
      <stop
         id="stop3358"
         style="stop-color:#f2f2f2"
         offset="0" />
      <stop
         id="stop3360"
         style="stop-color:#c3c3c3"
         offset="1" />
    </linearGradient>
    <linearGradient
       id="linearGradient8420"
       y2="74.5"
       gradientUnits="userSpaceOnUse"
       x2="48.25"
       gradientTransform="matrix(0.71891,0,0,0.71891,-1.8971,-20.686)"
       y1="52"
       x1="48.25">
      <stop
         id="stop6837"
         style="stop-color:#fff"
         offset="0" />
      <stop
         id="stop6839"
         style="stop-color:#fff;stop-opacity:0"
         offset="1" />
    </linearGradient>
    <radialGradient
       r="14.407"
       cy="42.342999"
       cx="26.782"
       gradientTransform="matrix(2.4792585,0,0,0.73501279,26.626343,85.866963)"
       gradientUnits="userSpaceOnUse"
       id="radialGradient3389"
       xlink:href="#linearGradient6975"
       inkscape:collect="always" />
    <radialGradient
       r="14.407"
       cy="42.342999"
       cx="26.782"
       gradientTransform="matrix(3.2496909,0,0,0.73502028,-38.4704,83.220352)"
       gradientUnits="userSpaceOnUse"
       id="radialGradient3391"
       xlink:href="#linearGradient6975"
       inkscape:collect="always" />
  </defs>
  <path
     d="m 118.83996,106.20476 c 0.003,9.49811 -26.059264,17.19833 -58.209735,17.19833 -32.150471,0 -58.2127349,-7.70022 -58.2097369,-17.19833 -0.00299,-9.498112 26.0592659,-17.198334 58.2097369,-17.198334 32.150471,0 58.212735,7.700222 58.209735,17.198334 l 0,0 z"
     id="path23417"
     style="opacity:0.3;fill:url(#radialGradient2475);fill-opacity:1;fill-rule:evenodd;stroke:none;stroke-width:2;marker:none;visibility:visible;display:inline;overflow:visible"
     inkscape:connector-curvature="0" />
  <path
     d="m 114.87112,65.193696 c 0,-30.065227 -24.175674,-54.240892 -54.240895,-54.240892 -30.065229,0 -54.2408911,24.175668 -54.2408911,54.240892 -5.3e-6,30.065223 24.1756651,54.240894 54.2408911,54.240894 30.065218,0 54.240895,-24.175671 54.240895,-54.240894 z m -34.396666,0 c 0,10.922607 -8.70307,19.844228 -19.844229,19.844228 -11.35971,0 -19.844229,-9.142395 -19.844229,-19.844228 0,-10.92042 8.047409,-19.844229 19.844229,-19.844229 11.79682,0 19.844229,9.140172 19.844229,19.844229 z"
     id="path2781"
     style="fill:url(#linearGradient2470);fill-rule:nonzero;stroke:url(#linearGradient2472);stroke-width:2.64589715;stroke-miterlimit:4;stroke-opacity:1"
     inkscape:connector-curvature="0" />
  <path
     d="m 60.630225,44.026518 c -11.684282,0 -21.167177,9.482896 -21.167177,21.167178 0,11.684281 9.482895,21.167177 21.167177,21.167177 11.684282,0 21.167177,-9.482896 21.167177,-21.167177 0,-11.684282 -9.482895,-21.167178 -21.167177,-21.167178 z m 0,10.583589 c 5.842141,0 10.583589,4.741448 10.583589,10.583589 0,5.84214 -4.741448,10.583588 -10.583589,10.583588 -5.842141,0 -10.583589,-4.741448 -10.583589,-10.583588 0,-5.842141 4.741448,-10.583589 10.583589,-10.583589 z"
     id="path2474"
     style="opacity:0.5;fill:#ffffff;fill-opacity:1;fill-rule:nonzero;stroke:none;stroke-width:1;marker:none;visibility:visible;display:inline;overflow:visible;enable-background:accumulate"
     inkscape:connector-curvature="0" />
  <path
     d="m 60.630225,45.349467 c -10.954014,0 -19.844229,8.890214 -19.844229,19.844229 0,10.954014 8.890215,19.844228 19.844229,19.844228 10.954014,0 19.844229,-8.890214 19.844229,-19.844228 0,-10.954015 -8.890215,-19.844229 -19.844229,-19.844229 z m 0,9.922114 c 5.477007,0 9.922114,4.445107 9.922114,9.922115 0,5.477007 -4.445107,9.922114 -9.922114,9.922114 -5.477007,0 -9.922114,-4.445107 -9.922114,-9.922114 0,-5.477008 4.445107,-9.922115 9.922114,-9.922115 z"
     id="path3418"
     style="fill:none;stroke:url(#linearGradient2465);stroke-width:2.64589715;stroke-linecap:butt;stroke-linejoin:round;stroke-miterlimit:4;stroke-opacity:1;stroke-dasharray:none;stroke-dashoffset:0;marker:none;visibility:visible;display:inline;overflow:visible;enable-background:accumulate"
     inkscape:connector-curvature="0" />
  <path
     d="m 60.630225,42.703567 c -12.465956,0 -22.490126,10.024169 -22.490126,22.490129 0,12.465959 10.02417,22.490125 22.490126,22.490125 12.465962,0 22.490126,-10.024166 22.490126,-22.490125 0,-12.46596 -10.024164,-22.490129 -22.490126,-22.490129 l 0,0 0,0 0,0 z"
     id="path3281"
     style="opacity:0.8;fill:none;stroke:url(#linearGradient2462);stroke-width:2.64589667;stroke-miterlimit:4;stroke-opacity:1"
     inkscape:connector-curvature="0" />
  <g
     id="g3527"
     transform="matrix(2.6458971,0,0,2.6458971,-2.8713064,1.6921641)">
    <path
       d="M 15.856928,5.7307748 20.625,16.34375 C 21.660403,15.885186 22.795334,15.625 24,15.625 c 0.03206,0 0.06178,-3.6e-4 0.09375,0 L 24.10801,4.0047512 c -2.94215,-0.070687 -5.543041,0.6572865 -8.251083,1.7260236 l 10e-7,0 z"
       transform="matrix(0.9996011,0.02824295,-0.02824295,0.9996011,0.6924114,-0.6708346)"
       id="path3296"
       style="opacity:0.8;fill:url(#linearGradient3346);fill-opacity:1;fill-rule:nonzero;stroke:none"
       inkscape:connector-curvature="0" />
    <path
       d="m 12.121471,7.9060109 6.931026,9.3601041 c 0.913109,-0.669755 1.965938,-1.167064 3.142629,-1.425169 0.03132,-0.0069 0.06026,-0.01359 0.09157,-0.02009 L 19.857174,4.426276 c -2.888973,0.5613244 -5.31953,1.8556038 -7.735703,3.4797349 l 0,0 z"
       id="path3308"
       style="opacity:0.8;fill:url(#linearGradient3348);fill-opacity:1;fill-rule:nonzero;stroke:none"
       inkscape:connector-curvature="0" />
    <path
       d="m 8.2523933,11.646535 9.2137237,7.155818 c 0.70865,-0.883264 1.596891,-1.636119 2.666685,-2.18998 0.02847,-0.01474 0.05469,-0.02872 0.08325,-0.0431 L 14.86585,6.2506132 C 12.220599,7.5405321 10.165881,9.452393 8.2523933,11.646535 z"
       id="path3310"
       style="opacity:0.8;fill:url(#linearGradient3350);fill-opacity:1;fill-rule:nonzero;stroke:none"
       inkscape:connector-curvature="0" />
    <path
       d="m 5.6328855,16.073974 c 7.1748065,2.242248 7.8502625,7.031463 12.7767855,1.754127 L 10.499985,9.1321388 C 8.2787249,11.062747 6.9132871,13.459349 5.6328855,16.073974 z"
       id="path3312"
       style="opacity:0.8;fill:url(#linearGradient3352);fill-opacity:1;fill-rule:nonzero;stroke:none"
       inkscape:connector-curvature="0" />
    <path
       d="M 7.155289,13.193173 C 5.9722117,14.945185 5.2475768,16.829547 4.6301929,18.837116 L 15.96875,21.8125 C 16.184264,21.049497 16.486796,20.297733 16.9375,19.59375 16.95479,19.56675 16.98246,19.52673 17,19.5 L 7.155289,13.193173 z"
       id="path3314"
       style="opacity:0.8;fill:url(#linearGradient3354);fill-opacity:1;fill-rule:nonzero;stroke:none"
       inkscape:connector-curvature="0" />
  </g>
  <path
     d="m 60.630228,13.598704 c -28.59837,0 -51.5949986,22.99663 -51.5949986,51.594992 0,28.598364 22.9966286,51.594994 51.5949986,51.594994 28.598369,0 51.594992,-22.99663 51.594992,-51.594994 0,-28.598362 -22.996623,-51.594992 -51.594992,-51.594992 l 0,0 0,0 z"
     id="path3272"
     style="opacity:0.4;fill:none;stroke:url(#linearGradient2453);stroke-width:2.64589691;stroke-miterlimit:4;stroke-opacity:1"
     inkscape:connector-curvature="0" />
  <g
     transform="matrix(-2.6458971,0,0,-2.6458971,126.77765,128.67096)"
     id="g3297">
    <path
       d="M 15.856928,5.7307748 20.625,16.34375 C 21.660403,15.885186 22.795334,15.625 24,15.625 c 0.03206,0 0.06178,-3.6e-4 0.09375,0 L 24.10801,4.0047512 c -2.94215,-0.070687 -5.543041,0.6572865 -8.251083,1.7260236 l 10e-7,0 z"
       transform="matrix(0.9996011,0.02824295,-0.02824295,0.9996011,0.6924114,-0.6708346)"
       id="path3299"
       style="opacity:0.8;fill:url(#linearGradient3311);fill-opacity:1;fill-rule:nonzero;stroke:none"
       inkscape:connector-curvature="0" />
    <path
       d="m 12.121471,7.9060109 6.931026,9.3601041 c 0.913109,-0.669755 1.965938,-1.167064 3.142629,-1.425169 0.03132,-0.0069 0.06026,-0.01359 0.09157,-0.02009 L 19.857174,4.426276 c -2.888973,0.5613244 -5.31953,1.8556038 -7.735703,3.4797349 l 0,0 z"
       id="path3301"
       style="opacity:0.8;fill:url(#linearGradient3313);fill-opacity:1;fill-rule:nonzero;stroke:none"
       inkscape:connector-curvature="0" />
    <path
       d="m 8.2523933,11.646535 9.2137237,7.155818 c 0.70865,-0.883264 1.596891,-1.636119 2.666685,-2.18998 0.02847,-0.01474 0.05469,-0.02872 0.08325,-0.0431 L 14.86585,6.2506132 C 12.220599,7.5405321 10.165881,9.452393 8.2523933,11.646535 z"
       id="path3303"
       style="opacity:0.8;fill:url(#linearGradient3315);fill-opacity:1;fill-rule:nonzero;stroke:none"
       inkscape:connector-curvature="0" />
    <path
       d="m 5.6328855,16.073974 c 7.1748065,2.242248 7.8502625,7.031463 12.7767855,1.754127 L 10.499985,9.1321388 C 8.2787249,11.062747 6.9132871,13.459349 5.6328855,16.073974 z"
       id="path3305"
       style="opacity:0.8;fill:url(#linearGradient3317);fill-opacity:1;fill-rule:nonzero;stroke:none"
       inkscape:connector-curvature="0" />
    <path
       d="M 7.155289,13.193173 C 5.9722117,14.945185 5.2475768,16.829547 4.6301929,18.837116 L 15.96875,21.8125 C 16.184264,21.049497 16.486796,20.297733 16.9375,19.59375 16.95479,19.56675 16.98246,19.52673 17,19.5 L 7.155289,13.193173 z"
       id="path3307"
       style="opacity:0.8;fill:url(#linearGradient3319);fill-opacity:1;fill-rule:nonzero;stroke:none"
       inkscape:connector-curvature="0" />
  </g>
  <path
     inkscape:connector-curvature="0"
     id="path6901"
     style="opacity:0.3;fill:url(#radialGradient3389)"
     d="m 128.74452,116.98801 c 0,5.84838 -15.99221,10.58959 -35.718674,10.58959 -19.727214,0 -35.718677,-4.74094 -35.718677,-10.58959 0,-5.84839 15.992207,-10.5896 35.718677,-10.5896 19.727214,0 35.718674,4.74097 35.718674,10.5896 z" />
  <path
     inkscape:connector-curvature="0"
     id="path6937"
     style="fill:url(#linearGradient5665);stroke:#673907;stroke-width:2.64669108;stroke-linecap:round"
     d="M 57.02532,69.905853 67.783273,79.967671 C 86.800659,61.270439 114.83526,16.489955 114.83526,16.489955 c 1.13639,-3.241489 -2.87662,-5.283857 -4.88538,-3.098875 0,0 -36.222334,37.320377 -52.925883,56.513715 z" />
  <path
     inkscape:connector-curvature="0"
     id="path6935"
     style="fill:url(#linearGradient5662);stroke:#787a75;stroke-width:2.64669108;stroke-linecap:round"
     d="m 36.913856,96.981319 5.943478,5.119541 22.471076,-19.503432 0.72778,-1.868612 2.89567,-0.0471 C 67.79428,76.545123 61.168954,69.077079 56.207896,69.077079 l 0.217017,2.88588 -1.772725,1.006076 -17.738359,24.01231 z" />
  <path
     inkscape:connector-curvature="0"
     id="path6973"
     style="opacity:0.2;fill:url(#radialGradient3391)"
     d="m 95.381118,114.34171 c 0,5.84844 -20.961805,10.58968 -46.818298,10.58968 -25.857465,0 -46.8182964,-4.741 -46.8182964,-10.58968 0,-5.84844 20.9618054,-10.5897 46.8182964,-10.5897 25.857466,0 46.818298,4.741 46.818298,10.5897 z" />
  <path
     inkscape:connector-curvature="0"
     id="path6933"
     style="fill:url(#radialGradient5658)"
     d="m 9.6796353,117.92095 c 17.4769457,0 30.7400337,2.08243 33.2509907,-10.63995 2.023555,-10.252584 -12.066085,-15.165222 -19.048078,-6.01227 -6.725343,8.81878 -14.2029127,16.65328 -14.2029127,16.65328 z" />
  <path
     inkscape:connector-curvature="0"
     id="path6971"
     style="opacity:0.52777997;fill:#ffffff"
     d="m 34.921395,102.10573 c 4.41e-4,1.55801 -1.261749,2.82138 -2.81887,2.82138 -1.557124,0 -2.819326,-1.26326 -2.818873,-2.82138 -4.42e-4,-1.55798 1.261749,-2.821343 2.818873,-2.821343 1.557121,0 2.819322,1.263253 2.81887,2.821343 z" />
  <path
     inkscape:connector-curvature="0"
     id="path6983"
     style="opacity:0.6;fill:#ffffff"
     d="m 61.275546,76.343056 c 4.08e-4,1.440215 -1.166367,2.608061 -2.605777,2.608061 -1.439413,0 -2.606196,-1.16774 -2.60578,-2.608061 -4.08e-4,-1.440214 1.166367,-2.608061 2.60578,-2.608061 1.43941,0 2.606195,1.167741 2.605777,2.608061 z" />
  <path
     inkscape:connector-curvature="0"
     id="path6985"
     style="opacity:0.6;fill:none;stroke:#ffffff;stroke-width:2.64669108;stroke-linecap:round;stroke-linejoin:round"
     d="M 55.146733,79.994659 41.114747,96.257666" />
  <path
     inkscape:connector-curvature="0"
     id="path1571"
     style="opacity:0.42778003;fill:url(#linearGradient5652)"
     d="m 13.154227,116.18789 c 0,0 8.840207,-4.34642 12.607172,-10.81934 1.332765,-2.29008 4.350913,-0.33579 2.491562,1.94449 -4.015943,4.92534 -15.098813,8.87487 -15.098813,8.87487 z" />
  <path
     inkscape:connector-curvature="0"
     id="path2454"
     style="opacity:0.53333004;fill:#ffffff"
     d="m 112.3063,15.082073 c 1.3e-4,0.434816 -0.35214,0.787406 -0.78672,0.787406 -0.43458,0 -0.78685,-0.352558 -0.78673,-0.787406 -1.2e-4,-0.434819 0.35215,-0.787408 0.78673,-0.787408 0.43458,0 0.78685,0.352558 0.78672,0.787408 z" />
  <g
     id="g7038"
     transform="matrix(2.6458971,0,0,2.6474847,-3.5159829,11.1889)">
    <path
       inkscape:connector-curvature="0"
       id="path6659"
       style="fill:url(#linearGradient8408);stroke:url(#linearGradient6474);stroke-linecap:round"
       d="m 35.127,7.3501 c -3.0579,0.087289 -5.4844,1.0561 -5.4844,2.2243 v 3.5701 c 0,1.2257 2.6709,2.2243 5.9414,2.2243 3.2705,0 5.916,-0.99863 5.916,-2.2243 V 9.5744 c 0,-1.2257 -2.6455,-2.2243 -5.916,-2.2243 -0.1533,0 -0.30665,-0.00429 -0.45703,0 z" />
    <path
       inkscape:connector-curvature="0"
       id="path6729"
       style="fill:#cd8033"
       d="m 57.375,49.75 c 0,0.82843 -2.4065,1.5 -5.375,1.5 -2.9685,0 -5.375,-0.67157 -5.375,-1.5 0,-0.82843 2.4065,-1.5 5.375,-1.5 2.9685,0 5.375,0.67157 5.375,1.5 z"
       transform="matrix(0.88628,0,0,0.46891,-10.444,-9.7189)" />
    <path
       inkscape:connector-curvature="0"
       id="path6617"
       style="fill:url(#linearGradient8410);stroke:#787878;stroke-linecap:round"
       d="m 27.926,39.155 1.047,-21.349 2.4866,-3.6635 c 1.9713,-0.63544 6.7264,-0.63544 8.5069,0 l 2.4866,3.0319 2.6175,22.486 -17.145,-0.50531 z" />
    <path
       inkscape:connector-curvature="0"
       id="path6619"
       style="fill:url(#linearGradient8412)"
       d="m 28.828,38.896 c 0,0 2.5907,-9.5315 7.5402,-9.5315 5.1066,0 8.1685,9.9128 8.1685,9.9128 l -15.709,-0.381 z" />
    <path
       inkscape:connector-curvature="0"
       id="path6641"
       style="fill:url(#linearGradient8414)"
       d="m 29.377,20.499 -0.28967,6.4747 c 1.6274,-1.0784 11.739,-1.2645 14.041,0.38765 l -0.687,-6.598 c -1.368,-0.953 -10.359,-1.478 -13.064,-0.265 z" />
    <path
       inkscape:connector-curvature="0"
       id="path6670"
       style="opacity:0.6;fill:none;stroke:url(#radialGradient6440);stroke-linecap:round"
       d="m 29.049,38.222 0.8775,-20.194 1.84,-3.0328 c 1.8186,-0.59218 6.2053,-0.59218 7.8478,0 l 1.961,2.533 2.452,21.248 -14.978,-0.554 z" />
    <rect
       id="rect5742"
       style="fill:url(#linearGradient8418);stroke:#787878;stroke-linecap:round"
       rx="0.88388002"
       ry="0.88388002"
       height="3.9277999"
       width="19.974001"
       y="37.535999"
       x="26.513" />
    <path
       inkscape:connector-curvature="0"
       id="path6668"
       style="fill:#f0f0f0"
       d="m 29.395,17.996 c 1.8745,-1.3662 9.0979,-1.6552 12.72,-0.6067 l -2.3374,-2.8856 c -2.4782,-0.66721 -5.9243,-0.37577 -8.2755,0.06904 l -2.1071,3.4233 z" />
    <path
       inkscape:connector-curvature="0"
       id="path6833"
       style="opacity:0.6;fill:url(#linearGradient8420)"
       d="m 31.173,17.416 v 15.457 l 3.2351,-3.5946 -0.35946,-12.581 -2.8757,0.71891 z" />
    <g
       id="g7033"
       style="opacity:0.57778003">
      <path
         inkscape:connector-curvature="0"
         id="path6666"
         style="opacity:0.41111001;fill:#e6e7e6"
         d="m 31.009,9.381 v 3.24 c 0,0 0.61119,-0.34769 0.99061,-0.36132 v -3.26 C 31.51804,9.069143 31.009,9.38065 31.009,9.38065 z" />
      <path
         inkscape:connector-curvature="0"
         id="path7029"
         style="fill:#e6e7e6"
         d="M 33.009,8.76 V 12 c 0,0 0.61119,-0.08252 0.99061,-0.09616 V 8.58894 C 33.48801,8.614745 33.009,8.75999 33.009,8.75999 z" />
      <path
         inkscape:connector-curvature="0"
         id="path7031"
         style="opacity:0.44444;fill:#e6e7e6"
         d="m 35.009,8.5611 v 3.2953 c 0,0 0.55595,-0.0052 0.99061,0.01433 v -3.337 C 35.49906,8.482195 35.009,8.56115 35.009,8.56115 z" />
    </g>
  </g>
</svg>
