<?xml version="1.0" encoding="UTF-8" standalone="no"?>
<!-- Created with Inkscape (http://www.inkscape.org/) -->

<svg
   xmlns:dc="http://purl.org/dc/elements/1.1/"
   xmlns:cc="http://creativecommons.org/ns#"
   xmlns:rdf="http://www.w3.org/1999/02/22-rdf-syntax-ns#"
   xmlns:svg="http://www.w3.org/2000/svg"
   xmlns="http://www.w3.org/2000/svg"
   xmlns:xlink="http://www.w3.org/1999/xlink"
   xmlns:sodipodi="http://sodipodi.sourceforge.net/DTD/sodipodi-0.dtd"
   xmlns:inkscape="http://www.inkscape.org/namespaces/inkscape"
   width="128"
   height="128"
   id="svg3249"
   version="1.1"
   inkscape:version="0.48.1 r9760"
   sodipodi:docname="facebook.svg">
  <defs
     id="defs3251">
    <linearGradient
       inkscape:collect="always"
       xlink:href="#linearGradient3707-319-631-407-1-846-4"
       id="linearGradient3156"
       gradientUnits="userSpaceOnUse"
       gradientTransform="matrix(2.6410259,0,0,2.6410259,0.6153933,-63.025638)"
       x1="19.874987"
       y1="44.520065"
       x2="19.874987"
       y2="5.2502403" />
    <linearGradient
       id="linearGradient3707-319-631-407-1-846-4">
      <stop
         offset="0"
         style="stop-color:#365a7c;stop-opacity:1"
         id="stop3788-5" />
      <stop
         offset="1"
         style="stop-color:#5ea1ca;stop-opacity:1;"
         id="stop3790-9" />
    </linearGradient>
    <linearGradient
       inkscape:collect="always"
       xlink:href="#linearGradient3707-319-631-407-1-846-4-8"
       id="linearGradient3159"
       gradientUnits="userSpaceOnUse"
       gradientTransform="matrix(2.6410259,0,0,2.6410259,0.6153933,-63.025638)"
       x1="19.874987"
       y1="44.520065"
       x2="19.874987"
       y2="5.2502403" />
    <linearGradient
       id="linearGradient3707-319-631-407-1-846-4-8">
      <stop
         offset="0"
         style="stop-color:#365a7c;stop-opacity:1"
         id="stop3788-5-5" />
      <stop
         offset="1"
         style="stop-color:#5ea1ca;stop-opacity:1;"
         id="stop3790-9-0" />
    </linearGradient>
    <linearGradient
       inkscape:collect="always"
       xlink:href="#linearGradient3707-319-631-407-1-846-4-9"
       id="linearGradient3162"
       gradientUnits="userSpaceOnUse"
       gradientTransform="matrix(2.6410259,0,0,2.6410259,0.6153933,-63.025638)"
       x1="19.874987"
       y1="44.520065"
       x2="19.874987"
       y2="5.2502403" />
    <linearGradient
       id="linearGradient3707-319-631-407-1-846-4-9">
      <stop
         offset="0"
         style="stop-color:#365a7c;stop-opacity:1"
         id="stop3788-5-1" />
      <stop
         offset="1"
         style="stop-color:#5ea1ca;stop-opacity:1;"
         id="stop3790-9-8" />
    </linearGradient>
    <linearGradient
       inkscape:collect="always"
       xlink:href="#linearGradient8265-821-176-38-919-66-249-7-7"
       id="linearGradient3165"
       gradientUnits="userSpaceOnUse"
       gradientTransform="matrix(2.2144204,0,0,3.4699564,10.750311,-67.821123)"
       x1="16.626165"
       y1="15.298182"
       x2="20.054544"
       y2="24.627615" />
    <linearGradient
       id="linearGradient8265-821-176-38-919-66-249-7-7">
      <stop
         offset="0"
         style="stop-color:#ffffff;stop-opacity:1"
         id="stop2687-1-9" />
      <stop
         offset="1"
         style="stop-color:#ffffff;stop-opacity:0"
         id="stop2689-5-4" />
    </linearGradient>
    <linearGradient
       y2="43"
       x2="23.99999"
       y1="4.999989"
       x1="23.99999"
       gradientTransform="matrix(2.7297298,0,0,2.7297298,-1.5135111,-62.513486)"
       gradientUnits="userSpaceOnUse"
       id="linearGradient3128"
       xlink:href="#linearGradient3924"
       inkscape:collect="always" />
    <linearGradient
       id="linearGradient3924">
      <stop
         id="stop3926"
         style="stop-color:#ffffff;stop-opacity:1;"
         offset="0" />
      <stop
         offset="0.06316455"
         style="stop-color:#ffffff;stop-opacity:0.23529412;"
         id="stop3928" />
      <stop
         id="stop3930"
         style="stop-color:#ffffff;stop-opacity:0.15686275;"
         offset="0.95056331" />
      <stop
         id="stop3932"
         style="stop-color:#ffffff;stop-opacity:0.39215687;"
         offset="1" />
    </linearGradient>
    <radialGradient
       inkscape:collect="always"
       xlink:href="#linearGradient2867-449-88-871-390-598-476-591-434-148-57-177"
       id="radialGradient3171"
       gradientUnits="userSpaceOnUse"
       gradientTransform="matrix(5.1311087e-8,6.1720513,-6.5292943,-1.1371274e-7,119.17132,-93.225249)"
       cx="7.4956832"
       cy="8.4497671"
       fx="7.4956832"
       fy="8.4497671"
       r="19.99999" />
    <linearGradient
       id="linearGradient2867-449-88-871-390-598-476-591-434-148-57-177">
      <stop
         id="stop3750"
         style="stop-color:#9091ec;stop-opacity:1;"
         offset="0" />
      <stop
         id="stop3752"
         style="stop-color:#6f55ec;stop-opacity:1;"
         offset="0.26238" />
      <stop
         id="stop3754"
         style="stop-color:#4b36e6;stop-opacity:1;"
         offset="0.704952" />
      <stop
         id="stop3756"
         style="stop-color:#412ba0;stop-opacity:1;"
         offset="1" />
    </linearGradient>
    <linearGradient
       inkscape:collect="always"
       xlink:href="#linearGradient3707-319-631-407-324"
       id="linearGradient3173"
       gradientUnits="userSpaceOnUse"
       gradientTransform="matrix(2.641026,0,0,2.641026,0.6153903,-60.384616)"
       x1="24"
       y1="44"
       x2="24"
       y2="3.8990016" />
    <linearGradient
       id="linearGradient3707-319-631-407-324">
      <stop
         id="stop3760"
         style="stop-color:#181b9a;stop-opacity:1;"
         offset="0" />
      <stop
         id="stop3762"
         style="stop-color:#6259c9;stop-opacity:1;"
         offset="1" />
    </linearGradient>
    <radialGradient
       cx="4.9929786"
       cy="43.5"
       r="2.5"
       fx="4.9929786"
       fy="43.5"
       id="radialGradient2455"
       xlink:href="#linearGradient3688-166-749"
       gradientUnits="userSpaceOnUse"
       gradientTransform="matrix(2.003784,0,0,1.4,27.98813,-17.4)" />
    <linearGradient
       id="linearGradient3688-166-749">
      <stop
         id="stop2883"
         style="stop-color:#181818;stop-opacity:1"
         offset="0" />
      <stop
         id="stop2885"
         style="stop-color:#181818;stop-opacity:0"
         offset="1" />
    </linearGradient>
    <radialGradient
       cx="4.9929786"
       cy="43.5"
       r="2.5"
       fx="4.9929786"
       fy="43.5"
       id="radialGradient2457"
       xlink:href="#linearGradient3688-464-309"
       gradientUnits="userSpaceOnUse"
       gradientTransform="matrix(2.003784,0,0,1.4,-20.01187,-104.4)" />
    <linearGradient
       id="linearGradient3688-464-309">
      <stop
         id="stop2889"
         style="stop-color:#181818;stop-opacity:1"
         offset="0" />
      <stop
         id="stop2891"
         style="stop-color:#181818;stop-opacity:0"
         offset="1" />
    </linearGradient>
    <linearGradient
       x1="25.058096"
       y1="47.027729"
       x2="25.058096"
       y2="39.999443"
       id="linearGradient2459"
       xlink:href="#linearGradient3702-501-757"
       gradientUnits="userSpaceOnUse" />
    <linearGradient
       id="linearGradient3702-501-757">
      <stop
         id="stop2895"
         style="stop-color:#181818;stop-opacity:0"
         offset="0" />
      <stop
         id="stop2897"
         style="stop-color:#181818;stop-opacity:1"
         offset="0.5" />
      <stop
         id="stop2899"
         style="stop-color:#181818;stop-opacity:0"
         offset="1" />
    </linearGradient>
    <linearGradient
       inkscape:collect="always"
       xlink:href="#linearGradient2490-3-7-8"
       id="linearGradient2976-3"
       gradientUnits="userSpaceOnUse"
       x1="25.075518"
       y1="45.914536"
       x2="25.075518"
       y2="6.4426208" />
    <linearGradient
       id="linearGradient2490-3-7-8">
      <stop
         offset="0"
         style="stop-color:#0e305f;stop-opacity:1;"
         id="stop2492-3-7-0" />
      <stop
         offset="1"
         style="stop-color:#185ba7;stop-opacity:1;"
         id="stop2494-8-5-9" />
    </linearGradient>
    <linearGradient
       id="linearGradient2490-3-92">
      <stop
         offset="0"
         style="stop-color:#0e395f;stop-opacity:1;"
         id="stop2492-3-5" />
      <stop
         offset="1"
         style="stop-color:#1860a7;stop-opacity:1;"
         id="stop2494-8-7" />
    </linearGradient>
    <linearGradient
       y2="43"
       x2="23.99999"
       y1="4.999989"
       x1="23.99999"
       gradientTransform="matrix(2.7297298,0,0,2.7297298,-1.7423548,-62.843641)"
       gradientUnits="userSpaceOnUse"
       id="linearGradient3234"
       xlink:href="#linearGradient3924-9"
       inkscape:collect="always" />
    <linearGradient
       id="linearGradient3924-9">
      <stop
         id="stop3926-2"
         style="stop-color:#ffffff;stop-opacity:1;"
         offset="0" />
      <stop
         offset="0.06316455"
         style="stop-color:#ffffff;stop-opacity:0.23529412;"
         id="stop3928-5" />
      <stop
         id="stop3930-4"
         style="stop-color:#ffffff;stop-opacity:0.15686275;"
         offset="0.95056331" />
      <stop
         id="stop3932-0"
         style="stop-color:#ffffff;stop-opacity:0.39215687;"
         offset="1" />
    </linearGradient>
    <linearGradient
       x1="48"
       y1="20.220806"
       x2="48"
       y2="138.66119"
       id="linearGradient3613"
       xlink:href="#linearGradient3737"
       gradientUnits="userSpaceOnUse" />
    <linearGradient
       id="linearGradient3737">
      <stop
         id="stop3739"
         style="stop-color:#ffffff;stop-opacity:1"
         offset="0" />
      <stop
         id="stop3741"
         style="stop-color:#ffffff;stop-opacity:0"
         offset="1" />
    </linearGradient>
    <clipPath
       id="clipPath3613">
      <rect
         width="84"
         height="84"
         rx="6"
         ry="6"
         x="6"
         y="6"
         id="rect3615"
         style="fill:#ffffff;fill-opacity:1;fill-rule:nonzero;stroke:none" />
    </clipPath>
    <filter
       x="-0.192"
       y="-0.192"
       width="1.3839999"
       height="1.3839999"
       color-interpolation-filters="sRGB"
       id="filter3794">
      <feGaussianBlur
         id="feGaussianBlur3796"
         stdDeviation="5.28" />
    </filter>
    <radialGradient
       cx="299.70135"
       cy="371.76376"
       r="76.696358"
       fx="299.70135"
       fy="371.76376"
       id="radialGradient3858"
       xlink:href="#linearGradient4966"
       gradientUnits="userSpaceOnUse"
       gradientTransform="matrix(0.35132636,0,0,0.21957897,-55.867109,-41.232151)" />
    <linearGradient
       id="linearGradient4966">
      <stop
         id="stop4968"
         style="stop-color:#b6b3d8;stop-opacity:1"
         offset="0" />
      <stop
         id="stop4970"
         style="stop-color:#b6b3d8;stop-opacity:0"
         offset="1" />
    </linearGradient>
    <radialGradient
       cx="299.70135"
       cy="371.76376"
       r="76.696358"
       fx="299.70135"
       fy="371.76376"
       id="radialGradient3854"
       xlink:href="#linearGradient4966"
       gradientUnits="userSpaceOnUse"
       gradientTransform="matrix(0.27451828,0,0,0.17157392,-32.847623,6.6143846)" />
    <linearGradient
       id="linearGradient3095">
      <stop
         id="stop3097"
         style="stop-color:#b6b3d8;stop-opacity:1"
         offset="0" />
      <stop
         id="stop3099"
         style="stop-color:#b6b3d8;stop-opacity:0"
         offset="1" />
    </linearGradient>
    <linearGradient
       x1="102.76233"
       y1="78.680206"
       x2="142.16823"
       y2="30.335871"
       id="linearGradient3942"
       xlink:href="#linearGradient3936"
       gradientUnits="userSpaceOnUse"
       gradientTransform="matrix(0.98565429,0.16877686,-0.16877686,0.98565429,-45.008735,-15.895389)" />
    <linearGradient
       id="linearGradient3936">
      <stop
         id="stop3938"
         style="stop-color:#000000;stop-opacity:1"
         offset="0" />
      <stop
         id="stop3940"
         style="stop-color:#000000;stop-opacity:0"
         offset="1" />
    </linearGradient>
    <radialGradient
       cx="425.51019"
       cy="356.62274"
       r="143.34167"
       fx="425.51019"
       fy="356.62274"
       id="radialGradient3890"
       xlink:href="#linearGradient3294"
       gradientUnits="userSpaceOnUse"
       gradientTransform="matrix(-0.02122419,-0.01702548,0.22621343,-0.28200081,-136.43035,244.91947)" />
    <linearGradient
       id="linearGradient3294">
      <stop
         id="stop3296"
         style="stop-color:#6376e6;stop-opacity:1"
         offset="0" />
      <stop
         id="stop3302"
         style="stop-color:#222989;stop-opacity:1"
         offset="0.50094414" />
      <stop
         id="stop3298"
         style="stop-color:#00003d;stop-opacity:1"
         offset="1" />
    </linearGradient>
    <radialGradient
       cx="289.44067"
       cy="390.45248"
       r="17.67668"
       fx="289.44067"
       fy="390.45248"
       id="radialGradient3892"
       xlink:href="#linearGradient3202"
       gradientUnits="userSpaceOnUse"
       gradientTransform="matrix(0.08730492,0.06948468,-0.10650365,0.13381795,-66.303078,90.119143)" />
    <linearGradient
       id="linearGradient3202">
      <stop
         id="stop3204"
         style="stop-color:#2b2b2b;stop-opacity:1"
         offset="0" />
      <stop
         id="stop3250"
         style="stop-color:#828383;stop-opacity:1"
         offset="0.5" />
      <stop
         id="stop3206"
         style="stop-color:#dadbdb;stop-opacity:1"
         offset="1" />
    </linearGradient>
    <radialGradient
       cx="283.50717"
       cy="382.14804"
       r="17.67668"
       fx="283.50717"
       fy="382.14804"
       id="radialGradient3894"
       xlink:href="#linearGradient3202"
       gradientUnits="userSpaceOnUse"
       gradientTransform="matrix(0.08730492,0.06948468,-0.10650365,0.13381795,-44.944061,65.934759)" />
    <linearGradient
       id="linearGradient3116">
      <stop
         id="stop3118"
         style="stop-color:#2b2b2b;stop-opacity:1"
         offset="0" />
      <stop
         id="stop3120"
         style="stop-color:#828383;stop-opacity:1"
         offset="0.5" />
      <stop
         id="stop3122"
         style="stop-color:#dadbdb;stop-opacity:1"
         offset="1" />
    </linearGradient>
    <radialGradient
       cx="418.45551"
       cy="181.18982"
       r="63.068935"
       fx="418.45551"
       fy="181.18982"
       id="radialGradient3896"
       xlink:href="#linearGradient3242"
       gradientUnits="userSpaceOnUse"
       gradientTransform="matrix(-0.01380294,-0.0125728,0.35517379,-0.38992442,-103.15415,193.49332)" />
    <linearGradient
       id="linearGradient3242">
      <stop
         id="stop3244"
         style="stop-color:#282828;stop-opacity:1"
         offset="0" />
      <stop
         id="stop3252"
         style="stop-color:#969696;stop-opacity:1"
         offset="0.39253417" />
      <stop
         id="stop3246"
         style="stop-color:#e3e3e3;stop-opacity:1"
         offset="1" />
    </linearGradient>
    <linearGradient
       x1="103.94804"
       y1="79.295097"
       x2="134.48746"
       y2="41.356407"
       id="linearGradient3946"
       xlink:href="#linearGradient3936"
       gradientUnits="userSpaceOnUse"
       gradientTransform="matrix(0.84815852,0.52974252,-0.52974252,0.84815852,-2.1584304,-41.320509)" />
    <linearGradient
       id="linearGradient3130">
      <stop
         id="stop3132"
         style="stop-color:#000000;stop-opacity:1"
         offset="0" />
      <stop
         id="stop3134"
         style="stop-color:#000000;stop-opacity:0"
         offset="1" />
    </linearGradient>
    <linearGradient
       y2="138.66119"
       x2="48"
       y1="20.220806"
       x1="48"
       gradientUnits="userSpaceOnUse"
       id="linearGradient3152"
       xlink:href="#linearGradient3737"
       inkscape:collect="always" />
  </defs>
  <sodipodi:namedview
     id="base"
     pagecolor="#ffffff"
     bordercolor="#666666"
     borderopacity="1.0"
     inkscape:pageopacity="0.0"
     inkscape:pageshadow="2"
     inkscape:zoom="6.5546875"
     inkscape:cx="64.915376"
     inkscape:cy="64"
     inkscape:current-layer="layer1"
     showgrid="true"
     inkscape:document-units="px"
     inkscape:grid-bbox="true"
     inkscape:window-width="1920"
     inkscape:window-height="1027"
     inkscape:window-x="0"
     inkscape:window-y="24"
     inkscape:window-maximized="1" />
  <metadata
     id="metadata3254">
    <rdf:RDF>
      <cc:Work
         rdf:about="">
        <dc:format>image/svg+xml</dc:format>
        <dc:type
           rdf:resource="http://purl.org/dc/dcmitype/StillImage" />
        <dc:title></dc:title>
      </cc:Work>
    </rdf:RDF>
  </metadata>
  <g
     id="layer1"
     inkscape:label="Layer 1"
     inkscape:groupmode="layer"
     transform="translate(0,64)">
    <g
       transform="matrix(2.9499988,0,0,1.2222234,-6.8000012,1.555537)"
       id="g2036"
       style="display:inline">
      <g
         transform="matrix(1.052632,0,0,1.285713,-1.263158,-13.42854)"
         id="g3712"
         style="opacity:0.4">
        <rect
           width="5"
           height="7"
           x="38"
           y="40"
           id="rect2801"
           style="fill:url(#radialGradient2455);fill-opacity:1;stroke:none" />
        <rect
           width="5"
           height="7"
           x="-10"
           y="-47"
           transform="scale(-1,-1)"
           id="rect3696"
           style="fill:url(#radialGradient2457);fill-opacity:1;stroke:none" />
        <rect
           width="28"
           height="7.0000005"
           x="10"
           y="40"
           id="rect3700"
           style="fill:url(#linearGradient2459);fill-opacity:1;stroke:none" />
      </g>
    </g>
    <rect
       style="color:#000000;fill:url(#radialGradient3171);fill-opacity:1;fill-rule:nonzero;stroke:url(#linearGradient3173);stroke-width:1;stroke-linecap:round;stroke-linejoin:round;stroke-miterlimit:4;stroke-opacity:1;stroke-dasharray:none;stroke-dashoffset:0;marker:none;visibility:visible;display:inline;overflow:visible;enable-background:accumulate"
       id="rect5505-21"
       y="-48.5"
       x="12.5"
       ry="6"
       rx="6"
       height="103"
       width="103" />
    <rect
       style="opacity:0.5;fill:none;stroke:url(#linearGradient3128);stroke-width:0.99999994;stroke-linecap:round;stroke-linejoin:round;stroke-miterlimit:4;stroke-opacity:1;stroke-dasharray:none;stroke-dashoffset:0"
       id="rect6741-7"
       y="-47.5"
       x="13.5"
       ry="5"
       rx="5"
       height="101"
       width="101" />
    <g
       transform="translate(6.3905806,-47.160905)"
       id="layer5"
       style="display:inline">
      <rect
         width="66"
         height="66"
         rx="12"
         ry="12"
         x="15"
         y="15"
         clip-path="url(#clipPath3613)"
         id="rect3171"
         style="opacity:0.1;fill:url(#linearGradient3152);fill-opacity:1;fill-rule:nonzero;stroke:#ffffff;stroke-width:0.5;stroke-linecap:round;stroke-linejoin:miter;stroke-miterlimit:4;stroke-opacity:1;stroke-dasharray:none;stroke-dashoffset:0;filter:url(#filter3794)" />
    </g>
    <g
       transform="translate(6.3905806,-47.160905)"
       id="layer4">
      <path
         d="m 76.371331,40.399351 a 26.945453,16.840906 0 1 1 -53.890899,0 26.945453,16.840906 0 1 1 53.890899,0 z"
         inkscape:connector-curvature="0"
         id="path3856"
         style="fill:url(#radialGradient3858);fill-opacity:1;stroke:#7b0000;stroke-width:0;stroke-miterlimit:4;stroke-opacity:1;stroke-dasharray:none" />
      <path
         d="m 70.480429,70.399347 a 21.054553,13.159094 0 1 1 -42.109099,0 21.054553,13.159094 0 1 1 42.109099,0 z"
         inkscape:connector-curvature="0"
         id="path3846"
         style="opacity:0.6;fill:url(#radialGradient3854);fill-opacity:1;stroke:#7b0000;stroke-width:0;stroke-miterlimit:4;stroke-opacity:1;stroke-dasharray:none" />
      <path
         d="m 28.923572,76.714499 c 0,0 3.555645,1.032429 8.288636,1.622642 1.91674,0.239022 9.209592,1.074453 14.801132,1.052526 0,0 6.810011,0.0077 10.569105,-0.526262 3.933284,-0.558737 6.161658,-1.271802 7.401819,-2.694808 0.0323,-0.339293 0.598587,-1.445276 -0.93031,-2.511835 C 65.145165,70.929988 60.091973,70.183604 50.276761,67.85263 39.423031,65.123804 36.179407,62.510732 34.558969,60.619637 33.022675,58.724348 34.847344,54.788198 43.593139,52.857264 48.021224,51.779695 64.513366,51.5817 64.513366,51.5817 59.78187,47.825167 50.899006,41.099705 49.083308,39.669452 47.490857,38.415055 44.924685,36.49005 44.648834,34.769824 c -0.372123,-1.674559 2.263754,-2.480827 3.659217,-2.573858 4.496498,-0.310103 10.63654,0.217073 16.094356,1.302435 2.743402,0.545563 3.225071,0.465155 3.225071,0.465155 3.907302,0.186062 6.946313,-1.860619 6.791261,-6.171055 -0.03101,-4.372453 -4.402683,-7.878523 -9.241074,-8.031671 -4.55634,-0.14422 -15.784252,0.651217 -15.784252,0.651217 13.086354,2.697898 15.225678,3.386384 15.908293,4.96165 0.403133,0.93031 -0.67341,1.855277 -4.279425,1.674557 C 57.09646,26.851505 49.052299,25.900873 49.052299,25.900873 41.392751,24.722481 36.05898,23.606109 33.733206,26.64512 c -1.519459,1.985425 0.217071,4.403466 0.899294,5.829939 3.039015,5.302766 8.294084,8.940866 11.628872,11.50483 1.254747,0.964715 5.085691,3.10103 5.085691,3.10103 -11.90796,-3.256084 -21.397121,-1.426475 -27.413117,1.736577 -6.915305,4.093362 -5.732371,11.000949 5.240738,17.458811 6.481163,3.814267 9.708145,5.646617 20.319819,6.949425 6.202674,0.98902 7.12692,1.393699 7.079779,1.909979 -0.06637,0.726873 -7.341483,1.002327 -9.341161,1.140237 -5.087204,0.350841 -18.243768,0.438551 -18.309549,0.438551 z"
         inkscape:connector-curvature="0"
         id="path3848"
         style="fill:#ffffff;fill-opacity:1;fill-rule:evenodd;stroke:#000000;stroke-width:0;stroke-linecap:butt;stroke-linejoin:miter;stroke-miterlimit:4;stroke-opacity:1;stroke-dasharray:none;display:inline" />
    </g>
    <g
       transform="translate(6.3905806,-47.160905)"
       id="layer6">
      <path
         d="m 103.09531,26.997729 c 0,0 -0.25105,0.203894 -0.25781,0.209493 -2.21993,-0.04859 -8.0462,2.10529 -23.24284,15.201473 -0.0172,-0.01668 -0.138185,-0.118777 -0.138185,-0.118777 l -0.598313,0.531646 c 0.08481,0.07708 0.161928,0.154794 0.24557,0.232278 -10.18625,8.360273 -21.07466,18.13062 -21.944108,18.91139 -7.99e-4,-0.0012 -0.02549,-0.03603 -0.02548,-0.03607 l -0.0202,-0.06687 -0.0413,0.05634 c -7.64e-4,-0.0014 -0.02548,-0.03607 -0.02548,-0.03607 l -0.789241,0.720886 c 0.0081,0.01173 0.01734,0.02434 0.02548,0.03607 l -0.03602,0.02554 0.02548,0.03607 c 4.2e-5,5.8e-5 0.04775,0.06716 0.05106,0.07216 -9.318122,9.495534 -15.121584,16.651535 -14.88398,17.488818 0.319625,1.126286 18.764111,-11.736831 19.526173,-12.382064 0.03176,0.02607 0.194412,0.160022 0.194515,0.160127 l 0.03076,0.0053 0.866667,-0.802742 -0.02548,-0.03607 c -1.53e-4,-1.1e-4 -0.07489,-0.07217 -0.08181,-0.07742 1.842824,-1.41214 11.90943,-9.17401 22.459932,-18.220671 0.170833,0.225729 0.331856,0.468987 0.331856,0.468987 l 0.598313,-0.531645 c -0.02268,-0.03404 -0.05293,-0.07361 -0.07653,-0.10822 0.790201,-0.61736 17.455531,-13.665016 19.329541,-19.010336 0.21345,-0.157476 0.30053,-0.23332 0.51035,-0.388186 0,0 -0.0316,-1.827825 -2.00865,-2.341352 z"
         inkscape:connector-curvature="0"
         id="path3902"
         style="opacity:0.25;fill:url(#linearGradient3942);fill-opacity:1" />
      <g
         transform="matrix(0.89437597,0,0,0.89437597,130.81623,-82.590699)"
         id="g3861"
         style="display:inline">
        <g
           transform="matrix(0.21052296,0,0,0.21052296,-139.34468,79.702555)"
           id="g4820">
          <path
             d="m 279.476,404.243 c -0.007,-0.004 -7.446,-4.112 -16.804,-11.401 l 0,0 c -8.082,-6.285 -13.538,-12.214 -13.544,-12.22 l 0,0 -0.122,-0.133 3.646,-4.669 0.157,-0.205 0.169,0.197 c 0.017,0.01 5.4,6.295 13.725,12.78 l 0,0 c 7.913,6.157 16.594,10.586 16.612,10.595 l 0,0 0.229,0.117 -3.911,5.026 -0.157,-0.087 0,0 z m -16.542,-11.737 c 8.545,6.656 15.469,10.644 16.589,11.275 l 0,0 3.372,-4.334 c -1.423,-0.743 -9.253,-4.919 -16.453,-10.521 l 0,0 c -7.504,-5.845 -12.637,-11.533 -13.614,-12.645 l 0,0 -3.264,4.184 c 0.849,0.905 6.01,6.32 13.37,12.041 l 0,0 z"
             inkscape:connector-curvature="0"
             id="path4824"
             style="fill:#4d4d4d" />
        </g>
        <path
           d="m -80.520491,164.42315 c 0,0 11.20545,-12.0216 22.173568,-25.25929 l 0.479092,0.14793 c 0,0 22.746706,-24.92865 17.182764,-26.94694 0,0 -2.781971,-5.50939 -24.601354,21.00116 l -0.04196,0.39783 c -10.067183,11.61004 -21.252943,25.76582 -21.252943,25.76582 -8.640035,12.42004 -13.770056,21.60008 -13.345768,22.48723 0.576731,1.20589 19.440079,-17.47293 19.4066,-17.59374 z"
           inkscape:connector-curvature="0"
           id="path3254"
           style="fill:url(#radialGradient3890);fill-opacity:1;fill-rule:evenodd;stroke:#000030;stroke-width:0.55904901;stroke-linecap:butt;stroke-linejoin:miter;stroke-miterlimit:4;stroke-opacity:1;stroke-dasharray:none" />
        <path
           d="m -86.947753,159.76108 c 2.449296,2.50716 6.441455,5.05288 6.441455,5.05288 l 0.790716,-1.00286 c -2.709026,-1.41579 -6.480025,-5.0143 -6.480025,-5.0143 l -0.752146,0.96428 z"
           inkscape:connector-curvature="0"
           id="path2430"
           style="fill:url(#radialGradient3892);fill-opacity:1;fill-rule:evenodd;stroke:none" />
        <path
           d="m -65.762308,133.68669 c 4.320018,2.75787 7.714317,6.09431 7.714317,6.09431 l 0.578572,-0.675 c -2.304024,-2.43794 -7.723275,-6.12627 -7.723275,-6.12627 l -0.569614,0.70696 z"
           inkscape:connector-curvature="0"
           id="path3236"
           style="fill:url(#radialGradient3894);fill-opacity:1;fill-rule:evenodd;stroke:none" />
        <path
           d="m -42.031143,111.66232 c 2.275724,0.19285 2.661442,2.19858 2.661442,2.19858 -10.375759,10.80004 -25.572963,26.49868 -25.572963,26.49868 l -0.771432,-0.65572 c 13.384341,-16.04578 23.682953,-28.04154 23.682953,-28.04154"
           inkscape:connector-curvature="0"
           id="path3240"
           style="fill:url(#radialGradient3896);fill-opacity:1;fill-rule:evenodd;stroke:none" />
      </g>
      <path
         d="m 118.64074,54.503216 c 0,0 -0.30959,0.09354 -0.31797,0.09616 -2.03591,-0.886301 -8.24383,-1.101224 -27.270166,5.258549 -0.0096,-0.02195 -0.08286,-0.162287 -0.08286,-0.162287 l -0.75517,0.265228 c 0.04927,0.10347 0.09119,0.204615 0.139219,0.308019 -12.594839,3.876069 -26.373863,8.790906 -27.474357,9.183915 -2.72e-4,-0.0014 -0.0099,-0.043 -0.0099,-0.04304 l 0.0067,-0.06954 -0.05957,0.03648 c -1.62e-4,-0.0016 -0.0099,-0.04303 -0.0099,-0.04303 l -1.003574,0.367989 c 0.0031,0.01393 0.0069,0.02909 0.0099,0.04304 l -0.04302,0.01002 0.0099,0.04303 c 1.6e-5,7e-5 0.01874,0.08025 0.01991,0.08613 -12.22173,5.255654 -20.304328,9.678339 -20.401773,10.54321 -0.131075,1.163401 21.812477,-3.749781 22.762228,-4.058061 0.0195,0.03615 0.119262,0.221763 0.119317,0.221901 l 0.02646,0.01655 1.106248,-0.414396 -0.0099,-0.04304 c -9.9e-5,-1.61e-4 -0.04196,-0.09517 -0.04636,-0.102645 2.24054,-0.608375 14.497869,-3.976027 27.689922,-8.34923 0.07254,0.273634 0.129356,0.559772 0.129356,0.559772 l 0.755169,-0.265228 c -0.0081,-0.04009 -0.02109,-0.08818 -0.0298,-0.129151 0.965228,-0.271823 21.332281,-6.030065 25.092341,-10.266381 0.25721,-0.06483 0.36653,-0.102019 0.6194,-0.16581 0,0 0.66347,-1.703448 -0.97145,-2.92795 z"
         inkscape:connector-curvature="0"
         id="path3944"
         style="opacity:0.4;fill:url(#linearGradient3946);fill-opacity:1" />
    </g>
  </g>
</svg>
