<?xml version="1.0" encoding="UTF-8" standalone="no"?>
<!-- Created with Inkscape (http://www.inkscape.org/) -->

<svg
   xmlns:dc="http://purl.org/dc/elements/1.1/"
   xmlns:cc="http://creativecommons.org/ns#"
   xmlns:rdf="http://www.w3.org/1999/02/22-rdf-syntax-ns#"
   xmlns:svg="http://www.w3.org/2000/svg"
   xmlns="http://www.w3.org/2000/svg"
   xmlns:xlink="http://www.w3.org/1999/xlink"
   xmlns:sodipodi="http://sodipodi.sourceforge.net/DTD/sodipodi-0.dtd"
   xmlns:inkscape="http://www.inkscape.org/namespaces/inkscape"
   width="128"
   height="128"
   id="svg3249"
   version="1.1"
   inkscape:version="0.48.1 r9760"
   sodipodi:docname="file-roller.svg">
  <defs
     id="defs3251">
    <linearGradient
       inkscape:collect="always"
       xlink:href="#linearGradient3707-319-631-407-1-846-4"
       id="linearGradient3156"
       gradientUnits="userSpaceOnUse"
       gradientTransform="matrix(2.6410259,0,0,2.6410259,0.6153933,-63.025638)"
       x1="19.874987"
       y1="44.520065"
       x2="19.874987"
       y2="5.2502403" />
    <linearGradient
       id="linearGradient3707-319-631-407-1-846-4">
      <stop
         offset="0"
         style="stop-color:#365a7c;stop-opacity:1"
         id="stop3788-5" />
      <stop
         offset="1"
         style="stop-color:#5ea1ca;stop-opacity:1;"
         id="stop3790-9" />
    </linearGradient>
    <linearGradient
       inkscape:collect="always"
       xlink:href="#linearGradient3707-319-631-407-1-846-4-8"
       id="linearGradient3159"
       gradientUnits="userSpaceOnUse"
       gradientTransform="matrix(2.6410259,0,0,2.6410259,0.6153933,-63.025638)"
       x1="19.874987"
       y1="44.520065"
       x2="19.874987"
       y2="5.2502403" />
    <linearGradient
       id="linearGradient3707-319-631-407-1-846-4-8">
      <stop
         offset="0"
         style="stop-color:#365a7c;stop-opacity:1"
         id="stop3788-5-5" />
      <stop
         offset="1"
         style="stop-color:#5ea1ca;stop-opacity:1;"
         id="stop3790-9-0" />
    </linearGradient>
    <linearGradient
       inkscape:collect="always"
       xlink:href="#linearGradient3707-319-631-407-1-846-4-9"
       id="linearGradient3162"
       gradientUnits="userSpaceOnUse"
       gradientTransform="matrix(2.6410259,0,0,2.6410259,0.6153933,-63.025638)"
       x1="19.874987"
       y1="44.520065"
       x2="19.874987"
       y2="5.2502403" />
    <linearGradient
       id="linearGradient3707-319-631-407-1-846-4-9">
      <stop
         offset="0"
         style="stop-color:#365a7c;stop-opacity:1"
         id="stop3788-5-1" />
      <stop
         offset="1"
         style="stop-color:#5ea1ca;stop-opacity:1;"
         id="stop3790-9-8" />
    </linearGradient>
    <linearGradient
       inkscape:collect="always"
       xlink:href="#linearGradient8265-821-176-38-919-66-249-7-7"
       id="linearGradient3165"
       gradientUnits="userSpaceOnUse"
       gradientTransform="matrix(2.2144204,0,0,3.4699564,10.750311,-67.821123)"
       x1="16.626165"
       y1="15.298182"
       x2="20.054544"
       y2="24.627615" />
    <linearGradient
       id="linearGradient8265-821-176-38-919-66-249-7-7">
      <stop
         offset="0"
         style="stop-color:#ffffff;stop-opacity:1"
         id="stop2687-1-9" />
      <stop
         offset="1"
         style="stop-color:#ffffff;stop-opacity:0"
         id="stop2689-5-4" />
    </linearGradient>
    <linearGradient
       y2="43"
       x2="23.99999"
       y1="4.999989"
       x1="23.99999"
       gradientTransform="matrix(2.7297298,0,0,2.7297298,-1.5135111,-62.513486)"
       gradientUnits="userSpaceOnUse"
       id="linearGradient3128"
       xlink:href="#linearGradient3924"
       inkscape:collect="always" />
    <linearGradient
       id="linearGradient3924">
      <stop
         id="stop3926"
         style="stop-color:#ffffff;stop-opacity:1;"
         offset="0" />
      <stop
         offset="0.06316455"
         style="stop-color:#ffffff;stop-opacity:0.23529412;"
         id="stop3928" />
      <stop
         id="stop3930"
         style="stop-color:#ffffff;stop-opacity:0.15686275;"
         offset="0.95056331" />
      <stop
         id="stop3932"
         style="stop-color:#ffffff;stop-opacity:0.39215687;"
         offset="1" />
    </linearGradient>
    <radialGradient
       inkscape:collect="always"
       xlink:href="#linearGradient2867-449-88-871-390-598-476-591-434-148-57-177"
       id="radialGradient3171"
       gradientUnits="userSpaceOnUse"
       gradientTransform="matrix(5.1311087e-8,6.1720513,-6.5292943,-1.1371274e-7,119.17132,-93.225249)"
       cx="7.4956832"
       cy="8.4497671"
       fx="7.4956832"
       fy="8.4497671"
       r="19.99999" />
    <linearGradient
       id="linearGradient2867-449-88-871-390-598-476-591-434-148-57-177">
      <stop
         id="stop3750"
         style="stop-color:#90b2ec;stop-opacity:1;"
         offset="0" />
      <stop
         id="stop3752"
         style="stop-color:#5586ec;stop-opacity:1;"
         offset="0.26238" />
      <stop
         id="stop3754"
         style="stop-color:#3653e6;stop-opacity:1;"
         offset="0.704952" />
      <stop
         id="stop3756"
         style="stop-color:#2b38a0;stop-opacity:1;"
         offset="1" />
    </linearGradient>
    <linearGradient
       inkscape:collect="always"
       xlink:href="#linearGradient3707-319-631-407-324"
       id="linearGradient3173"
       gradientUnits="userSpaceOnUse"
       gradientTransform="matrix(2.641026,0,0,2.641026,0.6153903,-60.384616)"
       x1="24"
       y1="44"
       x2="24"
       y2="3.8990016" />
    <linearGradient
       id="linearGradient3707-319-631-407-324">
      <stop
         id="stop3760"
         style="stop-color:#183a9a;stop-opacity:1;"
         offset="0" />
      <stop
         id="stop3762"
         style="stop-color:#597bc9;stop-opacity:1;"
         offset="1" />
    </linearGradient>
    <radialGradient
       cx="4.9929786"
       cy="43.5"
       r="2.5"
       fx="4.9929786"
       fy="43.5"
       id="radialGradient2455"
       xlink:href="#linearGradient3688-166-749"
       gradientUnits="userSpaceOnUse"
       gradientTransform="matrix(2.003784,0,0,1.4,27.98813,-17.4)" />
    <linearGradient
       id="linearGradient3688-166-749">
      <stop
         id="stop2883"
         style="stop-color:#181818;stop-opacity:1"
         offset="0" />
      <stop
         id="stop2885"
         style="stop-color:#181818;stop-opacity:0"
         offset="1" />
    </linearGradient>
    <radialGradient
       cx="4.9929786"
       cy="43.5"
       r="2.5"
       fx="4.9929786"
       fy="43.5"
       id="radialGradient2457"
       xlink:href="#linearGradient3688-464-309"
       gradientUnits="userSpaceOnUse"
       gradientTransform="matrix(2.003784,0,0,1.4,-20.01187,-104.4)" />
    <linearGradient
       id="linearGradient3688-464-309">
      <stop
         id="stop2889"
         style="stop-color:#181818;stop-opacity:1"
         offset="0" />
      <stop
         id="stop2891"
         style="stop-color:#181818;stop-opacity:0"
         offset="1" />
    </linearGradient>
    <linearGradient
       x1="25.058096"
       y1="47.027729"
       x2="25.058096"
       y2="39.999443"
       id="linearGradient2459"
       xlink:href="#linearGradient3702-501-757"
       gradientUnits="userSpaceOnUse" />
    <linearGradient
       id="linearGradient3702-501-757">
      <stop
         id="stop2895"
         style="stop-color:#181818;stop-opacity:0"
         offset="0" />
      <stop
         id="stop2897"
         style="stop-color:#181818;stop-opacity:1"
         offset="0.5" />
      <stop
         id="stop2899"
         style="stop-color:#181818;stop-opacity:0"
         offset="1" />
    </linearGradient>
    <linearGradient
       inkscape:collect="always"
       xlink:href="#linearGradient2490-3-7-8"
       id="linearGradient2976-3"
       gradientUnits="userSpaceOnUse"
       x1="25.075518"
       y1="45.914536"
       x2="25.075518"
       y2="6.4426208" />
    <linearGradient
       id="linearGradient2490-3-7-8">
      <stop
         offset="0"
         style="stop-color:#0e305f;stop-opacity:1;"
         id="stop2492-3-7-0" />
      <stop
         offset="1"
         style="stop-color:#185ba7;stop-opacity:1;"
         id="stop2494-8-5-9" />
    </linearGradient>
    <linearGradient
       id="linearGradient2490-3-92">
      <stop
         offset="0"
         style="stop-color:#0e395f;stop-opacity:1;"
         id="stop2492-3-5" />
      <stop
         offset="1"
         style="stop-color:#1860a7;stop-opacity:1;"
         id="stop2494-8-7" />
    </linearGradient>
    <linearGradient
       y2="43"
       x2="23.99999"
       y1="4.999989"
       x1="23.99999"
       gradientTransform="matrix(2.7297298,0,0,2.7297298,-1.7423548,-62.843641)"
       gradientUnits="userSpaceOnUse"
       id="linearGradient3234"
       xlink:href="#linearGradient3924-9"
       inkscape:collect="always" />
    <linearGradient
       id="linearGradient3924-9">
      <stop
         id="stop3926-2"
         style="stop-color:#ffffff;stop-opacity:1;"
         offset="0" />
      <stop
         offset="0.06316455"
         style="stop-color:#ffffff;stop-opacity:0.23529412;"
         id="stop3928-5" />
      <stop
         id="stop3930-4"
         style="stop-color:#ffffff;stop-opacity:0.15686275;"
         offset="0.95056331" />
      <stop
         id="stop3932-0"
         style="stop-color:#ffffff;stop-opacity:0.39215687;"
         offset="1" />
    </linearGradient>
  </defs>
  <sodipodi:namedview
     id="base"
     pagecolor="#ffffff"
     bordercolor="#666666"
     borderopacity="1.0"
     inkscape:pageopacity="0.0"
     inkscape:pageshadow="2"
     inkscape:zoom="6.5546875"
     inkscape:cx="64.457688"
     inkscape:cy="64"
     inkscape:current-layer="layer1"
     showgrid="true"
     inkscape:document-units="px"
     inkscape:grid-bbox="true"
     inkscape:window-width="1920"
     inkscape:window-height="1027"
     inkscape:window-x="0"
     inkscape:window-y="24"
     inkscape:window-maximized="1" />
  <metadata
     id="metadata3254">
    <rdf:RDF>
      <cc:Work
         rdf:about="">
        <dc:format>image/svg+xml</dc:format>
        <dc:type
           rdf:resource="http://purl.org/dc/dcmitype/StillImage" />
        <dc:title></dc:title>
      </cc:Work>
    </rdf:RDF>
  </metadata>
  <g
     id="layer1"
     inkscape:label="Layer 1"
     inkscape:groupmode="layer"
     transform="translate(0,64)">
    <g
       transform="matrix(2.9499988,0,0,1.2222234,-6.8000012,1.555537)"
       id="g2036"
       style="display:inline">
      <g
         transform="matrix(1.052632,0,0,1.285713,-1.263158,-13.42854)"
         id="g3712"
         style="opacity:0.4">
        <rect
           width="5"
           height="7"
           x="38"
           y="40"
           id="rect2801"
           style="fill:url(#radialGradient2455);fill-opacity:1;stroke:none" />
        <rect
           width="5"
           height="7"
           x="-10"
           y="-47"
           transform="scale(-1,-1)"
           id="rect3696"
           style="fill:url(#radialGradient2457);fill-opacity:1;stroke:none" />
        <rect
           width="28"
           height="7.0000005"
           x="10"
           y="40"
           id="rect3700"
           style="fill:url(#linearGradient2459);fill-opacity:1;stroke:none" />
      </g>
    </g>
    <rect
       style="color:#000000;fill:url(#radialGradient3171);fill-opacity:1;fill-rule:nonzero;stroke:url(#linearGradient3173);stroke-width:1;stroke-linecap:round;stroke-linejoin:round;stroke-miterlimit:4;stroke-opacity:1;stroke-dasharray:none;stroke-dashoffset:0;marker:none;visibility:visible;display:inline;overflow:visible;enable-background:accumulate"
       id="rect5505-21"
       y="-48.5"
       x="12.5"
       ry="6"
       rx="6"
       height="103"
       width="103" />
    <rect
       style="opacity:0.5;fill:none;stroke:url(#linearGradient3128);stroke-width:0.99999994;stroke-linecap:round;stroke-linejoin:round;stroke-miterlimit:4;stroke-opacity:1;stroke-dasharray:none;stroke-dashoffset:0"
       id="rect6741-7"
       y="-47.5"
       x="13.5"
       ry="5"
       rx="5"
       height="101"
       width="101" />
    <path
       d="m 16.617401,31.527372 0,13.804342 c 0,2.085709 1.67911,3.76482 3.76482,3.76482 l 87.845799,0 c 2.08571,0 3.76482,-1.679111 3.76482,-3.76482 l 0,-13.804342 -95.375439,0 z"
       inkscape:connector-curvature="0"
       id="rect3809"
       style="color:#000000;fill:#6683b3;fill-opacity:1;fill-rule:nonzero;stroke:none;stroke-width:3;marker:none;visibility:visible;display:inline;overflow:visible;enable-background:accumulate" />
    <path
       d="m 82.031153,-38.670839 c -7.887773,0 -13.737939,2.071797 -17.490726,6.157049 -3.748876,4.080992 -5.176629,9.82448 -5.176629,16.510306 l 0,6.1962667 -7.568857,0 -0.03921,0 c -0.04844,0.0017 -0.239875,0.0396 -0.235301,0.03921 0.0052,-4.48e-4 -0.24055,9.77e-4 -0.235301,0 0.0052,-9.78e-4 -0.240426,0.07993 -0.235301,0.07844 0.0051,-0.0015 -0.201034,0.08044 -0.196085,0.07844 0.0049,-0.0021 -0.240025,0.080921 -0.235301,0.078438 0.0047,-0.00246 -0.200535,0.1598152 -0.196085,0.1568668 0.0044,-0.00287 -0.200218,0.1210265 -0.196084,0.1176511 0.0041,-0.00339 -0.199859,0.1606424 -0.196085,0.1568678 0.0038,-0.0038 -0.160246,0.2002173 -0.156867,0.1960835 0.0034,-0.00411 -0.1206,0.2005344 -0.117651,0.1960845 0.0029,-0.00441 -0.159355,0.2008084 -0.156867,0.1960845 0.0025,-0.00472 -0.08044,0.2402499 -0.07844,0.2353012 0.0021,-0.00493 -0.07992,0.2012087 -0.07844,0.1960845 0.0015,-0.00513 -0.07941,0.2405495 -0.07844,0.2353012 9.78e-4,-0.00523 -4.48e-4,0.2406214 0,0.2353012 3.85e-4,-0.00452 -0.03741,0.1868605 -0.03921,0.2353012 -2.95e-4,0.0079 1.3e-5,0.039963 0,0.039214 l 0,16.2357876 0,0.039217 c 0.0017,0.048441 0.0396,0.2398755 0.03921,0.2353013 -4.48e-4,-0.00528 9.78e-4,0.2405491 0,0.2353008 -9.78e-4,-0.00523 0.07993,0.2404253 0.07844,0.2353012 -0.0015,-0.00513 0.08044,0.2010331 0.07844,0.1960845 -0.0021,-0.00493 0.08092,0.2400254 0.07844,0.2353014 -0.0025,-0.0047 0.159815,0.200534 0.156867,0.196084 -0.0029,-0.0044 0.121027,0.200219 0.117651,0.196085 -0.0034,-0.0041 0.160642,0.199859 0.156867,0.196085 -0.0038,-0.0038 0.200219,0.160246 0.196085,0.156868 -0.0041,-0.0034 0.200534,0.120599 0.196084,0.11765 -0.0044,-0.0029 0.200808,0.159355 0.196085,0.156868 -0.0047,-0.0026 0.240249,0.08044 0.235301,0.07844 -0.0049,-0.0021 0.201208,0.07993 0.196085,0.07844 -0.0051,-0.0015 0.240549,0.07941 0.235301,0.07844 -0.0052,-9.77e-4 0.24062,4.48e-4 0.235301,0 -0.0045,-3.85e-4 0.18686,0.03741 0.235301,0.03921 0.0079,2.94e-4 0.03995,-1.3e-5 0.03921,0 l 7.568857,0 0,40.1973 0,0.03921 23.530127,0 c 2.95e-4,-0.0079 -1.2e-5,-0.03997 0,-0.03921 l 0,-40.1973 10.039521,0 c -0.0049,7.2e-5 0.240158,-0.03973 0.235302,-0.03921 -0.0049,5.19e-4 0.240088,-0.04018 0.235301,-0.03921 -0.0047,9.63e-4 0.200764,-0.04061 0.196084,-0.03921 -0.0046,0.0014 0.200617,-0.08025 0.196085,-0.07844 -0.0045,0.0017 0.200431,-0.08065 0.196083,-0.07844 -0.0044,0.0023 0.20021,-0.120261 0.196085,-0.117651 -0.0041,0.0027 0.199952,-0.120637 0.196084,-0.11765 -0.0039,0.003 0.160447,-0.160191 0.156868,-0.156868 -0.0036,0.0033 0.160126,-0.160504 0.156868,-0.156867 -0.0033,0.0037 0.159779,-0.160789 0.156867,-0.156868 -0.0029,0.0039 0.120198,-0.200255 0.117651,-0.196085 -0.0025,0.0041 0.08058,-0.2004686 0.07844,-0.1960844 -0.0022,0.00441 0.119395,-0.2006483 0.117651,-0.1960845 -0.0017,0.00452 0.04054,-0.2007878 0.03921,-0.1960845 -0.0012,0.00462 0.07931,-0.2401048 0.07844,-0.2353009 -8.77e-4,0.00477 4.34e-4,-0.2009486 0,-0.1960844 l 1.647109,-16.2750045 0,-0.039214 c 0.0035,-0.037366 0.03936,-0.080387 0.03921,-0.078437 -1.93e-4,0.00277 4.6e-5,-0.1204487 0,-0.1176511 -4.7e-5,0.00277 -1.01e-4,-0.1596634 0,-0.1568668 10e-5,0.00277 -2.48e-4,-0.1204364 0,-0.1176511 2.47e-4,0.00277 -0.0396,-0.1204241 -0.03921,-0.1176501 3.94e-4,0.00277 -5.39e-4,-0.1203995 0,-0.1176511 5.38e-4,0.00277 -0.03989,-0.1203615 -0.03921,-0.1176501 6.82e-4,0.00277 -0.04004,-0.1203245 -0.03921,-0.1176511 8.24e-4,0.00267 -0.04018,-0.1202732 -0.03921,-0.1176501 9.63e-4,0.00267 -0.04032,-0.120224 -0.03921,-0.1176511 0.0011,0.00267 -0.04045,-0.1201604 -0.03921,-0.1176511 0.0012,0.00246 -0.0798,-0.1200978 -0.07844,-0.1176501 0.0013,0.00236 -0.07993,-0.1200229 -0.07844,-0.1176512 0.0015,0.00236 -0.04082,-0.1199345 -0.03921,-0.11765 0.0016,0.00226 -0.08016,-0.080634 -0.07844,-0.078438 0.0017,0.00226 -0.08028,-0.1197591 -0.07844,-0.1176512 0.0018,0.00216 -0.08038,-0.080439 -0.07844,-0.078437 0.0021,0.00205 -0.119709,-0.080326 -0.117651,-0.078437 0.0021,0.00185 -0.08058,-0.080223 -0.07844,-0.078437 0.0022,0.00174 -0.119896,-0.0801 -0.117651,-0.078437 0.0023,0.00164 -0.08076,-0.079987 -0.07844,-0.078437 0.0024,0.00154 -0.12006,-0.079864 -0.11765,-0.078438 0.0024,0.00133 -0.120124,-0.079741 -0.117652,-0.078437 0.0025,0.00123 -0.120198,-0.040384 -0.11765,-0.039214 0.0025,0.0011 -0.120248,-0.04026 -0.117651,-0.03921 0.0027,0.001 -0.120299,-0.04012 -0.117651,-0.03921 0.0027,8.99e-4 -0.120348,-0.03997 -0.11765,-0.03921 0.0027,7.57e-4 -0.120374,-0.03983 -0.117651,-0.03921 0.0028,6.15e-4 -0.120411,-0.03969 -0.11765,-0.03921 0.0028,4.71e-4 -0.120437,-3.24e-4 -0.117651,0 0.0028,3.26e-4 -0.120437,-1.78e-4 -0.11765,0 0.0028,1.8e-4 -0.159667,-0.03925 -0.156868,-0.03921 l -11.68663,0 0.03921,-4.6275916 c 0,-1.932153 0.304624,-3.064462 0.392168,-3.176567 0.07748,-0.09922 0.200386,-0.24368 0.705904,-0.392169 0.505519,-0.148488 1.353332,-0.235301 2.666749,-0.235301 l 7.725724,0 c -7.46e-4,-1.2e-5 0.03133,2.96e-4 0.03921,0 0.04844,-0.0017 0.239876,-0.0396 0.235302,-0.03921 -0.0052,4.49e-4 0.240549,-9.78e-4 0.235301,0 -0.0052,9.78e-4 0.240425,-0.07993 0.235301,-0.07844 -0.0051,0.0015 0.201032,-0.08044 0.196085,-0.07844 -0.0049,0.0021 0.240024,-0.08092 0.235301,-0.07844 -0.0047,0.0025 0.200534,-0.159815 0.196084,-0.156868 -0.0044,0.0029 0.200218,-0.121026 0.196084,-0.11765 -0.0041,0.0034 0.19986,-0.160643 0.196084,-0.156868 -0.0038,0.0038 0.160247,-0.200218 0.156868,-0.196084 -0.0034,0.0041 0.1206,-0.200535 0.117651,-0.196085 -0.0029,0.0044 0.159355,-0.200808 0.156867,-0.196084 -0.0025,0.0047 0.08044,-0.24025 0.07844,-0.235301 -0.0021,0.0049 0.07993,-0.201209 0.07844,-0.196085 -0.0015,0.0051 0.07941,-0.24055 0.07844,-0.235301 -9.78e-4,0.0052 4.48e-4,-0.240622 0,-0.235301 -3.85e-4,0.0045 0.03741,-0.186861 0.03921,-0.235302 2.95e-4,-0.0079 -1.3e-5,-0.03997 0,-0.03921 l 0,-15.490667 c -1.3e-5,7.46e-4 2.95e-4,-0.03133 0,-0.03921 -0.0017,-0.04844 -0.0396,-0.239875 -0.03921,-0.235301 4.48e-4,0.0052 -9.78e-4,-0.240549 0,-0.235301 9.78e-4,0.0052 -0.07993,-0.240425 -0.07844,-0.235301 0.0015,0.0051 -0.08044,-0.201033 -0.07844,-0.196085 0.0021,0.0049 -0.08092,-0.240024 -0.07844,-0.235301 0.0025,0.0047 -0.159815,-0.200535 -0.156867,-0.196085 0.0029,0.0044 -0.121026,-0.200217 -0.117651,-0.196083 0.0034,0.0041 -0.160642,-0.19986 -0.156868,-0.196085 0.0038,0.0038 -0.200218,-0.160246 -0.196084,-0.156867 0.0041,0.0034 -0.200535,-0.1206 -0.196084,-0.117652 0.0044,0.0029 -0.200808,-0.159354 -0.196084,-0.156866 0.0047,0.0025 -0.24025,-0.08044 -0.235301,-0.07844 0.0049,0.0021 -0.201209,-0.07992 -0.196085,-0.07844 0.0051,0.0015 -0.240549,-0.07941 -0.235301,-0.07844 0.0052,9.77e-4 -0.240621,-4.48e-4 -0.235301,0 0.0045,3.85e-4 -0.186862,-0.03741 -0.235302,-0.03921 l -0.03921,0 z"
       inkscape:connector-curvature="0"
       id="path3863"
       style="opacity:0.15;fill:#2c4775;fill-opacity:0.97647059" />
    <path
       d="m 82.031153,-37.376683 c -7.668862,0 -13.098277,1.96867 -16.549521,5.725664 -3.451245,3.756995 -4.823677,9.141598 -4.823677,15.647535 l 0,7.4904235 -8.902231,0 c -0.598076,-0.00965 -1.146978,0.5392145 -1.137289,1.1372894 l 0,16.314221 c -0.0096,0.5980756 0.539213,1.1469781 1.137289,1.1372901 l 8.902231,0 0,40.275733 20.941814,0 0,-40.275733 11.333677,0 c 0.547182,-0.0082 1.049404,-0.4745649 1.098073,-1.0196393 L 95.678627,-7.25812 c 0.07604,-0.6224641 -0.471025,-1.2476704 -1.098072,-1.2549405 l -12.980786,0 0.03921,-5.9217485 c 0,-1.996639 0.150988,-3.300524 0.666687,-3.960904 0.515699,-0.66038 1.618821,-1.13729 4.392291,-1.13729 l 7.764942,0 c 0.598075,0.0096 1.146977,-0.539215 1.137289,-1.13729 l 0,-15.5691 c 0.0096,-0.598076 -0.539214,-1.146978 -1.137289,-1.13729 z"
       inkscape:connector-curvature="0"
       id="path3859"
       style="opacity:0.4;fill:#2c4775;fill-opacity:0.97647059" />
    <path
       d="m 80.461315,49.096534 -18.66607,0 0,-40.1632794 -10.039521,0 0,-16.3090257 10.039521,0 0,-8.6086029 c 0,-12.702082 5.264845,-20.255019 20.226873,-20.255019 l 12.457249,0 0,15.572622 -7.786296,0 c -5.825397,0 -6.208821,2.175539 -6.208821,6.236952 l -0.02259,7.0540479 14.105563,0 -1.650407,16.3090257 -12.455501,0 z"
       inkscape:connector-curvature="0"
       id="path3835"
       style="fill:#ffffff" />
  </g>
</svg>
