<?xml version="1.0" encoding="UTF-8" standalone="no"?>
<!-- Created with Inkscape (http://www.inkscape.org/) -->
<svg id="svg4501" xmlns:rdf="http://www.w3.org/1999/02/22-rdf-syntax-ns#" xmlns="http://www.w3.org/2000/svg" height="128" width="128" version="1.1" xmlns:cc="http://creativecommons.org/ns#" xmlns:xlink="http://www.w3.org/1999/xlink" xmlns:dc="http://purl.org/dc/elements/1.1/">
 <defs id="defs4503">
  <linearGradient id="linearGradient2959" y2="43" gradientUnits="userSpaceOnUse" y1="5" gradientTransform="matrix(2.7838 0 0 2.7838 -3.2021 -66.419)" x2="24" x1="24">
   <stop id="stop3926" style="stop-color:#fff" offset="0"/>
   <stop id="stop3928" style="stop-color:#fff;stop-opacity:.23529" offset=".063165"/>
   <stop id="stop3930" style="stop-color:#fff;stop-opacity:.15686" offset=".95056"/>
   <stop id="stop3932" style="stop-color:#fff;stop-opacity:.39216" offset="1"/>
  </linearGradient>
  <filter id="filter6181">
   <feGaussianBlur id="feGaussianBlur6183" stdDeviation="1.6001681"/>
  </filter>
  <radialGradient id="radialGradient2962-786" gradientUnits="userSpaceOnUse" cx="7.4957" cy="8.4498" r="20" gradientTransform="matrix(5.2307e-8 6.2919 -6.6561 -1.1592e-7 119.85 -97.702)">
   <stop id="stop5843" style="stop-color:#b993ae" offset="0"/>
   <stop id="stop5845" style="stop-color:#a972a6" offset=".26238"/>
   <stop id="stop5847" style="stop-color:#99439f" offset=".66094"/>
   <stop id="stop5849" style="stop-color:#643479" offset="1"/>
  </radialGradient>
  <linearGradient id="linearGradient2964-697" y2="3.899" gradientUnits="userSpaceOnUse" y1="44" gradientTransform="matrix(2.6923 0 0 2.6923 -1.0067 -64.224)" x2="24" x1="24">
   <stop id="stop5853" style="stop-color:#76116c" offset="0"/>
   <stop id="stop5855" style="stop-color:#9d5f98" offset="1"/>
  </linearGradient>
  <linearGradient id="linearGradient6491" y2="609.51" gradientUnits="userSpaceOnUse" x2="302.86" gradientTransform="matrix(.082840 0 0 .037059 -5.9408 25.412)" y1="366.65" x1="302.86">
   <stop id="stop2667-8" style="stop-opacity:0" offset="0"/>
   <stop id="stop2669-1" offset=".5"/>
   <stop id="stop2671-6" style="stop-opacity:0" offset="1"/>
  </linearGradient>
  <radialGradient id="radialGradient6493" gradientUnits="userSpaceOnUse" cy="486.65" cx="605.71" gradientTransform="matrix(.032130 0 0 .037059 24.637 25.412)" r="117.14">
   <stop id="stop2675-9" offset="0"/>
   <stop id="stop2677-9" style="stop-opacity:0" offset="1"/>
  </radialGradient>
  <radialGradient id="radialGradient6495" gradientUnits="userSpaceOnUse" cy="486.65" cx="605.71" gradientTransform="matrix(-.032130 0 0 .037059 23.363 25.412)" r="117.14">
   <stop id="stop2681-45" offset="0"/>
   <stop id="stop2683-4" style="stop-opacity:0" offset="1"/>
  </radialGradient>
  <linearGradient id="linearGradient6509" y2="33.955" gradientUnits="userSpaceOnUse" x2="15.215" gradientTransform="matrix(1.6903 0 0 1.6593 21.949 -43.152)" y1="22.292" x1="11.566">
   <stop id="stop2687-89" style="stop-color:#fff;stop-opacity:.27451" offset="0"/>
   <stop id="stop2689-5" style="stop-color:#fff;stop-opacity:.078431" offset="1"/>
  </linearGradient>
  <radialGradient id="radialGradient6512" gradientUnits="userSpaceOnUse" cy="8.3021" cx="7.2647" gradientTransform="matrix(0 2.0682 -2.7736 0 65.799 -30.917)" r="20.98">
   <stop id="stop2693-8" style="stop-color:#fff;stop-opacity:0.4" offset="0"/>
   <stop id="stop2695-6" style="stop-color:#fff;stop-opacity:0" offset="1"/>
  </radialGradient>
  <linearGradient id="linearGradient6515" y2="36.658" gradientUnits="userSpaceOnUse" x2="22.809" gradientTransform="matrix(1.9416 0 0 1.6552 16.011 -41.436)" y1="49.629" x1="22.935">
   <stop id="stop2661-3" style="stop-color:#0a0a0a;stop-opacity:.498" offset="0"/>
   <stop id="stop2663-6" style="stop-color:#0a0a0a;stop-opacity:0" offset="1"/>
  </linearGradient>
  <radialGradient id="radialGradient6518" gradientUnits="userSpaceOnUse" cy="14.113" cx="63.969" gradientTransform="matrix(2.6522 -1.5971e-7 1.047e-7 1.7053 -124.42 -30.133)" r="23.097">
   <stop id="stop3618-2-1" style="stop-color:#edb763" offset="0"/>
   <stop id="stop2559-0" style="stop-color:#de7f32" offset=".5"/>
   <stop id="stop3620-1-3" style="stop-color:#d24413" offset="1"/>
  </radialGradient>
  <linearGradient id="linearGradient6520" y2="15.944" gradientUnits="userSpaceOnUse" x2="65.34" gradientTransform="matrix(1.695 0 0 1.6786 -69.423 -43.999)" y1="45.114" x1="82.453">
   <stop id="stop3624-5-7" style="stop-color:#bb2b12" offset="0"/>
   <stop id="stop3626-7-0" style="stop-color:#cd7233" offset="1"/>
  </linearGradient>
  <linearGradient id="linearGradient6527" y2="16.19" gradientUnits="userSpaceOnUse" x2="62.989" gradientTransform="matrix(1.7203 0 0 1.6969 -66.668 -44.276)" y1="13.183" x1="62.989">
   <stop id="stop6406-5" style="stop-color:#f9f9f9" offset="0"/>
   <stop id="stop6408-6" style="stop-color:#c9c9c9" offset="1"/>
  </linearGradient>
  <radialGradient id="radialGradient6529" gradientUnits="userSpaceOnUse" cy="5.0172" cx="3" gradientTransform="matrix(-2.1932e-8 2.9089 -3.7146 -2.4774e-8 43 -39.429)" r="21">
   <stop id="stop3486-3" style="stop-color:#bdbdbd" offset="0"/>
   <stop id="stop3488-4" style="stop-color:#d0d0d0" offset="1"/>
  </radialGradient>
  <filter id="filter3212" height="1.3287" width="1.2969" y="-.16434" x="-.14846">
   <feGaussianBlur id="feGaussianBlur3214" stdDeviation="0.77391625"/>
  </filter>
  <linearGradient id="linearGradient3333" y2="609.51" gradientUnits="userSpaceOnUse" y1="366.65" gradientTransform="matrix(.067325 0 0 0.0147 -.34114 37.04)" x2="302.86" x1="302.86">
   <stop id="stop5050-3" style="stop-opacity:0" offset="0"/>
   <stop id="stop5056-6" offset=".5"/>
   <stop id="stop5052-5" style="stop-opacity:0" offset="1"/>
  </linearGradient>
  <radialGradient id="radialGradient3330" gradientUnits="userSpaceOnUse" xlink:href="#linearGradient5060-6" cx="605.71" cy="486.65" r="117.14" gradientTransform="matrix(-.023040 0 0 0.0147 21.623 37.04)"/>
  <radialGradient id="radialGradient3327" gradientUnits="userSpaceOnUse" xlink:href="#linearGradient5060-6" cx="605.71" cy="486.65" r="117.14" gradientTransform="matrix(.023040 0 0 0.0147 26.361 37.04)"/>
  <linearGradient id="linearGradient3324" y2="2.9062" gradientUnits="userSpaceOnUse" y1="50.786" gradientTransform="matrix(.80750 0 0 .89483 59.41 -2.9806)" x2="-51.786" x1="-51.786">
   <stop id="stop3106-81" style="stop-color:#aaa" offset="0"/>
   <stop id="stop3108-2" style="stop-color:#c8c8c8" offset="1"/>
  </linearGradient>
  <linearGradient id="linearGradient3322" y2="47.013" gradientUnits="userSpaceOnUse" y1=".98521" gradientTransform="matrix(1 0 0 .95617 -1.0065e-7 -1.9149)" x2="25.132" x1="25.132">
   <stop id="stop3602-3" style="stop-color:#f4f4f4" offset="0"/>
   <stop id="stop3604-9" style="stop-color:#dbdbdb" offset="1"/>
  </linearGradient>
  <radialGradient id="radialGradient3319" gradientUnits="userSpaceOnUse" cy="112.3" cx="102" gradientTransform="matrix(.36170 0 0 -.39078 .85106 47.517)" r="139.56">
   <stop id="stop41-8" style="stop-color:#b7b8b9" offset="0"/>
   <stop id="stop47-8" style="stop-color:#ececec" offset=".18851"/>
   <stop id="stop49-5" style="stop-color:#fafafa;stop-opacity:0" offset=".25718"/>
   <stop id="stop51-0" style="stop-color:#fff;stop-opacity:0" offset=".30111"/>
   <stop id="stop53-9" style="stop-color:#fafafa;stop-opacity:0" offset=".53130"/>
   <stop id="stop55-6" style="stop-color:#ebecec;stop-opacity:0" offset=".84490"/>
   <stop id="stop57-3" style="stop-color:#e1e2e3;stop-opacity:0" offset="1"/>
  </radialGradient>
  <linearGradient id="linearGradient3316" y2="46.017" gradientUnits="userSpaceOnUse" y1="2" gradientTransform="matrix(1 0 0 .97778 0 -.96667)" x2="24" x1="24">
   <stop id="stop3213-5" style="stop-color:#fff" offset="0"/>
   <stop id="stop3215-6" style="stop-color:#fff;stop-opacity:0" offset="1"/>
  </linearGradient>
  <linearGradient id="linearGradient3312" y2="5.4565" gradientUnits="userSpaceOnUse" y1="8.059" gradientTransform="matrix(.99770 0 0 1.0407 .16380 -1.1058)" x2="36.358" x1="32.892">
   <stop id="stop8591-1" style="stop-color:#fefefe" offset="0"/>
   <stop id="stop8593-5" style="stop-color:#cbcbcb" offset="1"/>
  </linearGradient>
  <linearGradient id="linearGradient5060-6">
   <stop id="stop5062-3" offset="0"/>
   <stop id="stop5064-9" style="stop-opacity:0" offset="1"/>
  </linearGradient>
 </defs>
 <metadata id="metadata4506">
  <rdf:RDF>
   <cc:Work rdf:about="">
    <dc:format>image/svg+xml</dc:format>
    <dc:type rdf:resource="http://purl.org/dc/dcmitype/StillImage"/>
    <dc:title/>
   </cc:Work>
  </rdf:RDF>
 </metadata>
 <g id="layer1" transform="translate(.39130 63.608)">
  <rect id="rect5505-2" style="opacity:.4;color:#000000;filter:url(#filter6181)" rx="3.072" transform="matrix(1.7299 0 0 1.6462 1.3326 -42.965)" ry="3.1624" width="64" y="-3.84" x="4" height="64"/>
  <rect id="rect5505" style="stroke-linejoin:round;color:#000000;stroke:url(#linearGradient2964-697);stroke-linecap:round;fill:url(#radialGradient2962-786)" rx="5" ry="5" height="105" width="105" y="-52.108" x="11.109"/>
  <rect id="rect6741" style="opacity:.5;stroke-linejoin:round;stroke:url(#linearGradient2959);stroke-linecap:round;fill:none" rx="4" ry="4" height="103" width="103" y="-51.108" x="12.109"/>
  <path id="path2856" style="stroke-linejoin:round;stroke:url(#radialGradient6529);stroke-linecap:round;fill:url(#linearGradient6527)" d="m28.219-30.09c-1.1875 0.01302-2.1103 0.83574-2.1103 1.952 0 9.3573 0.0552 16.527 0 25.029 2.4694 0 73-6.2964 73-8.9988v-10.947c0-1.1163-0.8254-2.0669-2.0129-2.0539h-34.845c-3.5222 0-6.0191-5-8.6014-5l-25.43 0.01851z"/>
  <g id="g2858" style="opacity:.4" transform="matrix(1.6421 0 0 1.1331 23.64 -18.902)">
   <rect id="rect2860" style="fill:url(#linearGradient6491)" height="9" width="40.7" y="39" x="4"/>
   <path id="path2862" style="fill:url(#radialGradient6493)" d="m44.7 39v8.9995c1.6546 0.01694 4-2.0163 4-4.5003s-1.8464-4.4992-4-4.4992z"/>
   <path id="path2864" style="fill:url(#radialGradient6495)" d="m4 39v8.9995c-1.6546 0.017-4-2.017-4-4.501s1.8464-4.499 4-4.499z"/>
  </g>
  <path id="path2866" style="stroke-linejoin:round;stroke:url(#linearGradient6520);stroke-linecap:round;stroke-width:.99868;fill:url(#radialGradient6518)" d="m25.376-16.067c-1.8182 0.20764-1.0997 2.3537-1.2447 3.5604 0.66534 14.218 1.5899 28.15 2.2511 42.368 0.57941 1.6211 2.7026 0.79091 4.0479 0.9967h67.089c1.8465-0.17903 1.0788-2.363 1.3385-3.6129 0.66536-14.218 1.5904-28.15 2.2516-42.368-0.42574-1.6019-2.8287-0.71177-4.0891-0.94424h-71.645z"/>
  <path id="path2868" style="opacity:.4;fill:url(#linearGradient6515)" d="m25.381-16.608 74.455 0.000668c1.0756 0 1.7727 0.73756 1.7727 1.6545l-2.112 44.689c0 0.91696-0.86593 1.6552-1.9415 1.6552h-69.896c-1.0756 0-1.9416-0.73821-1.9416-1.6552l-2.1104-44.69c0-0.91697 0.6971-1.6552 1.7727-1.6552z"/>
  <path id="path2870" style="stroke-linejoin:round;stroke:url(#radialGradient6512);stroke-linecap:round;fill:none" d="m100.11-15.108h-75c0.40809 13.432 1.3139 28 1.9709 42"/>
  <path id="path2872" style="fill:url(#linearGradient6509)" d="m99.282-16.603c-24.594 0.12172-49.196-0.0351-73.793 0-3.054 0.68218-1.4104 4.0929-1.6437 6.2582 0.3753 6.9084 0.54609 13.847 1.0488 20.737 25.356-3.9207 50.586-7.645 75.497-11.698 1.3201-4.292 1.3309-9.4094 1.1112-13.987-0.38732-0.83724-1.3303-1.3289-2.2204-1.3101z"/>
  <rect id="rect2874" style="display:block;fill:#eda374" rx="1.3252" ry="1.1026" height="3" width="24" y="-27.608" x="29.609"/>
  <g id="g3318" transform="translate(53.739 -10.608)">
   <rect id="rect2879" style="opacity:.3;fill:url(#linearGradient3333)" height="3.5701" width="32.508" y="42.43" x="7.7378"/>
   <path id="path2881" style="opacity:.3;fill:url(#radialGradient3330)" d="m7.7378 42.43v3.5699c-1.1865 0.0067-2.8684-0.79982-2.8684-1.7852 0-0.98533 1.324-1.7847 2.8684-1.7847z"/>
   <path id="path2883" style="opacity:.3;fill:url(#radialGradient3327)" d="m40.246 42.43v3.5699c1.1865 0.0067 2.8684-0.79982 2.8684-1.7852 0-0.98533-1.324-1.7847-2.8684-1.7847z"/>
   <path id="path4160" style="stroke-linejoin:round;stroke:url(#linearGradient3324);stroke-width:.99992;fill:url(#linearGradient3322)" d="m6.5 0.4972h24.061c1.4069 0.47465 8.9655 5.8822 10.939 9.6264v34.379h-35v-44.006z"/>
   <path id="path4191" style="fill:url(#radialGradient3319)" d="m7.3617 44c-0.1993 0-0.3617-0.17546-0.3617-0.39078v-42.204c0-0.21571 0.1624-0.39078 0.3617-0.39078 7.4833 0.1082 15.775-0.16138 23.249 0.0271l10.283 8.866 0.106 33.702c0 0.216-0.162 0.391-0.362 0.391h-33.276z"/>
   <path id="path2435" style="opacity:.6;stroke-linejoin:round;stroke:url(#linearGradient3316);stroke-width:.99992;fill:none" d="m40.5 10.259v33.263h-33v-42.045h22.866"/>
   <path id="path12038" style="opacity:.4;fill-rule:evenodd;filter:url(#filter3212)" d="m28.617 0.92126c4.2825 0 2.1532 8.4832 2.1532 8.4832s10.358-1.8023 10.358 2.8187c0-2.6097-11.302-10.729-12.511-11.302z"/>
   <path id="path4474" style="fill:url(#linearGradient3312);fill-rule:evenodd" d="m28.617 0.92126c3.1865 0 2.3358 7.6619 2.3358 7.6619s10.175-0.98105 10.175 3.64c0-1.1259 0.08591-1.9322-0.13378-2.2836-1.578-2.5243-8.395-8.1885-10.857-8.9309-0.184-0.05556-0.593-0.08754-1.52-0.08754z"/>
  </g>
 </g>
</svg>
