<?xml version="1.0" encoding="UTF-8" standalone="no"?>
<!-- Created with Inkscape (http://www.inkscape.org/) -->

<svg
   xmlns:dc="http://purl.org/dc/elements/1.1/"
   xmlns:cc="http://creativecommons.org/ns#"
   xmlns:rdf="http://www.w3.org/1999/02/22-rdf-syntax-ns#"
   xmlns:svg="http://www.w3.org/2000/svg"
   xmlns="http://www.w3.org/2000/svg"
   xmlns:xlink="http://www.w3.org/1999/xlink"
   xmlns:sodipodi="http://sodipodi.sourceforge.net/DTD/sodipodi-0.dtd"
   xmlns:inkscape="http://www.inkscape.org/namespaces/inkscape"
   version="1.0"
   width="96"
   height="96"
   id="svg2408"
   style="display:inline"
   inkscape:version="0.48.1 r9760"
   sodipodi:docname="fontmatrix.svg"
   inkscape:export-filename="/home/tobias/Desktop/Faenza Fresh/apps/fontmatrix.png"
   inkscape:export-xdpi="45"
   inkscape:export-ydpi="45">
  <sodipodi:namedview
     pagecolor="#ffffff"
     bordercolor="#666666"
     borderopacity="1"
     objecttolerance="10"
     gridtolerance="10"
     guidetolerance="10"
     inkscape:pageopacity="0"
     inkscape:pageshadow="2"
     inkscape:window-width="1920"
     inkscape:window-height="1027"
     id="namedview87"
     showgrid="false"
     inkscape:zoom="8.7395833"
     inkscape:cx="48"
     inkscape:cy="48"
     inkscape:window-x="0"
     inkscape:window-y="24"
     inkscape:window-maximized="1"
     inkscape:current-layer="svg2408"
     inkscape:snap-global="true"
     inkscape:object-paths="true"
     inkscape:snap-intersection-paths="true"
     inkscape:object-nodes="true"
     inkscape:snap-smooth-nodes="true"
     inkscape:snap-bbox="true"
     inkscape:bbox-paths="true"
     inkscape:bbox-nodes="true"
     inkscape:snap-midpoints="true"
     inkscape:snap-object-midpoints="true"
     inkscape:snap-bbox-edge-midpoints="true">
    <inkscape:grid
       type="xygrid"
       id="grid3850" />
  </sodipodi:namedview>
  <defs
     id="defs2410">
    <linearGradient
       id="linearGradient4080">
      <stop
         style="stop-color:#be0000;stop-opacity:1;"
         offset="0"
         id="stop4082" />
      <stop
         style="stop-color:#810000;stop-opacity:1;"
         offset="1"
         id="stop4084" />
    </linearGradient>
    <linearGradient
       id="linearGradient3895">
      <stop
         offset="0"
         style="stop-color:#efefef;stop-opacity:1;"
         id="stop3897" />
      <stop
         offset="1"
         style="stop-color:#c0c0c0;stop-opacity:1;"
         id="stop3903" />
    </linearGradient>
    <linearGradient
       x1="45.447727"
       y1="92.539597"
       x2="45.447727"
       y2="7.0165396"
       id="ButtonShadow"
       gradientUnits="userSpaceOnUse"
       gradientTransform="matrix(1.0058652,0,0,0.994169,100,0)">
      <stop
         id="stop3750"
         style="stop-color:#000000;stop-opacity:1"
         offset="0" />
      <stop
         id="stop3752"
         style="stop-color:#000000;stop-opacity:0.58823532"
         offset="1" />
    </linearGradient>
    <linearGradient
       id="linearGradient3737">
      <stop
         id="stop3739"
         style="stop-color:#ffffff;stop-opacity:1"
         offset="0" />
      <stop
         id="stop3741"
         style="stop-color:#ffffff;stop-opacity:0"
         offset="1" />
    </linearGradient>
    <linearGradient
       id="linearGradient3700">
      <stop
         id="stop3702"
         style="stop-color:#70a83e;stop-opacity:1"
         offset="0" />
      <stop
         id="stop3704"
         style="stop-color:#9fd058;stop-opacity:1"
         offset="1" />
    </linearGradient>
    <filter
       color-interpolation-filters="sRGB"
       id="filter3174">
      <feGaussianBlur
         id="feGaussianBlur3176"
         stdDeviation="1.71" />
    </filter>
    <linearGradient
       x1="36.357143"
       y1="6"
       x2="36.357143"
       y2="63.893143"
       id="linearGradient3188"
       xlink:href="#linearGradient3737"
       gradientUnits="userSpaceOnUse" />
    <filter
       x="-0.192"
       y="-0.192"
       width="1.3839999"
       height="1.3839999"
       color-interpolation-filters="sRGB"
       id="filter3794">
      <feGaussianBlur
         id="feGaussianBlur3796"
         stdDeviation="5.28" />
    </filter>
    <linearGradient
       x1="48"
       y1="20.220806"
       x2="48"
       y2="138.66119"
       id="linearGradient3613"
       xlink:href="#linearGradient3737"
       gradientUnits="userSpaceOnUse" />
    <radialGradient
       cx="48"
       cy="90.171875"
       r="42"
       fx="48"
       fy="90.171875"
       id="radialGradient3619"
       xlink:href="#linearGradient3737"
       gradientUnits="userSpaceOnUse"
       gradientTransform="matrix(1.1573129,0,0,0.99590774,-7.5510206,0.19713193)" />
    <clipPath
       id="clipPath3613">
      <rect
         width="84"
         height="84"
         rx="6"
         ry="6"
         x="6"
         y="6"
         id="rect3615"
         style="fill:#ffffff;fill-opacity:1;fill-rule:nonzero;stroke:none" />
    </clipPath>
    <linearGradient
       x1="48"
       y1="90"
       x2="48"
       y2="5.9877172"
       id="linearGradient3617"
       xlink:href="#linearGradient3700"
       gradientUnits="userSpaceOnUse" />
    <linearGradient
       x1="48"
       y1="90"
       x2="48"
       y2="5.9877172"
       id="linearGradient3878"
       xlink:href="#linearGradient3700"
       gradientUnits="userSpaceOnUse" />
    <linearGradient
       id="linearGradient3700-4">
      <stop
         id="stop3702-4"
         style="stop-color:#70a83e;stop-opacity:1"
         offset="0" />
      <stop
         id="stop3704-4"
         style="stop-color:#9fd058;stop-opacity:1"
         offset="1" />
    </linearGradient>
    <clipPath
       id="clipPath2973">
      <rect
         width="84"
         height="84"
         rx="6"
         ry="6"
         x="6"
         y="6"
         id="rect2975"
         style="fill:url(#linearGradient2977);fill-opacity:1;fill-rule:nonzero;stroke:none" />
    </clipPath>
    <linearGradient
       x1="48"
       y1="90"
       x2="48"
       y2="5.9877172"
       id="linearGradient2977"
       xlink:href="#linearGradient3700-4"
       gradientUnits="userSpaceOnUse" />
    <linearGradient
       x1="48"
       y1="90"
       x2="48"
       y2="5.9877172"
       id="linearGradient3708"
       xlink:href="#linearGradient3895"
       gradientUnits="userSpaceOnUse"
       gradientTransform="translate(0,-96)" />
    <linearGradient
       id="linearGradient2867-449-88-871-390-598-476-591-434-148">
      <stop
         id="stop4627"
         style="stop-color:#51cfee;stop-opacity:1"
         offset="0" />
      <stop
         id="stop4629"
         style="stop-color:#49a3d2;stop-opacity:1"
         offset="0.26238" />
      <stop
         id="stop4631"
         style="stop-color:#3470b4;stop-opacity:1"
         offset="0.704952" />
      <stop
         id="stop4633"
         style="stop-color:#1b5699;stop-opacity:1"
         offset="1" />
    </linearGradient>
    <linearGradient
       id="linearGradient3202">
      <stop
         id="stop3204"
         style="stop-color:#ffffff;stop-opacity:1"
         offset="0" />
      <stop
         id="stop3206"
         style="stop-color:#ced3d6;stop-opacity:1"
         offset="1" />
    </linearGradient>
    <linearGradient
       x1="116.29638"
       y1="32.374962"
       x2="116.29638"
       y2="226.17993"
       id="linearGradient2928"
       xlink:href="#linearGradient3202"
       gradientUnits="userSpaceOnUse"
       gradientTransform="matrix(0.32811093,0,0,0.34059034,6.3606404,3.973393)" />
    <linearGradient
       x1="32.251034"
       y1="6.1317081"
       x2="32.251034"
       y2="90.238609"
       id="linearGradient3721"
       xlink:href="#ButtonShadow"
       gradientUnits="userSpaceOnUse"
       gradientTransform="translate(0,-97)" />
    <linearGradient
       x1="32.251034"
       y1="6.1317081"
       x2="32.251034"
       y2="90.238609"
       id="linearGradient3725"
       xlink:href="#ButtonShadow"
       gradientUnits="userSpaceOnUse"
       gradientTransform="matrix(1.0238095,0,0,1.0119048,-1.1428571,-98.071429)" />
    <linearGradient
       x1="32.251034"
       y1="6.1317081"
       x2="32.251034"
       y2="90.238609"
       id="linearGradient3772"
       xlink:href="#ButtonShadow"
       gradientUnits="userSpaceOnUse"
       gradientTransform="matrix(1.0238095,0,0,1.0119048,-1.1428571,-98.071429)" />
    <linearGradient
       x1="32.251034"
       y1="6.1317081"
       x2="32.251034"
       y2="90.238609"
       id="linearGradient3780"
       xlink:href="#ButtonShadow"
       gradientUnits="userSpaceOnUse"
       gradientTransform="matrix(1.0238095,0,0,1.0119048,-1.1428571,-98.071429)" />
    <linearGradient
       x1="32.251034"
       y1="6.1317081"
       x2="32.251034"
       y2="90.238609"
       id="linearGradient3788"
       xlink:href="#ButtonShadow"
       gradientUnits="userSpaceOnUse"
       gradientTransform="matrix(1.0238095,0,0,1.0119048,-1.1428571,-98.071429)" />
    <radialGradient
       inkscape:collect="always"
       xlink:href="#linearGradient3737"
       id="radialGradient3982"
       gradientUnits="userSpaceOnUse"
       gradientTransform="matrix(1.1573129,0,0,0.99590774,-7.5510206,0.19713193)"
       cx="48"
       cy="90.171875"
       fx="48"
       fy="90.171875"
       r="42" />
    <linearGradient
       inkscape:collect="always"
       xlink:href="#linearGradient3737"
       id="linearGradient3985"
       gradientUnits="userSpaceOnUse"
       x1="36.357143"
       y1="6"
       x2="36.357143"
       y2="63.893143" />
    <linearGradient
       inkscape:collect="always"
       xlink:href="#linearGradient3895"
       id="linearGradient3988"
       gradientUnits="userSpaceOnUse"
       gradientTransform="translate(0,-96)"
       x1="48"
       y1="90"
       x2="48"
       y2="5.9877172" />
    <linearGradient
       inkscape:collect="always"
       xlink:href="#linearGradient4080"
       id="linearGradient4086"
       x1="20.490465"
       y1="33.621021"
       x2="84.245369"
       y2="33.621021"
       gradientUnits="userSpaceOnUse" />
    <linearGradient
       inkscape:collect="always"
       xlink:href="#linearGradient4080"
       id="linearGradient4094"
       gradientUnits="userSpaceOnUse"
       x1="20.490465"
       y1="33.621021"
       x2="84.245369"
       y2="33.621021" />
    <linearGradient
       inkscape:collect="always"
       xlink:href="#linearGradient4080"
       id="linearGradient4106"
       gradientUnits="userSpaceOnUse"
       x1="20.490465"
       y1="33.621021"
       x2="84.245369"
       y2="33.621021" />
    <linearGradient
       inkscape:collect="always"
       xlink:href="#linearGradient4080"
       id="linearGradient4112"
       gradientUnits="userSpaceOnUse"
       x1="20.490465"
       y1="33.621021"
       x2="84.245369"
       y2="33.621021"
       gradientTransform="matrix(0.96496086,0.26239387,-0.26239387,0.96496086,6.2889591,1.8160083)" />
  </defs>
  <metadata
     id="metadata2413">
    <rdf:RDF>
      <cc:Work
         rdf:about="">
        <dc:format>image/svg+xml</dc:format>
        <dc:type
           rdf:resource="http://purl.org/dc/dcmitype/StillImage" />
        <dc:title />
      </cc:Work>
    </rdf:RDF>
  </metadata>
  <g
     id="layer2"
     style="display:none">
    <rect
       width="86"
       height="85"
       rx="6"
       ry="6"
       x="105"
       y="7"
       id="rect3745"
       style="opacity:0.9;fill:url(#ButtonShadow);fill-opacity:1;fill-rule:nonzero;stroke:none;filter:url(#filter3174)" />
  </g>
  <g
     id="g4123"
     transform="matrix(1.140298,0,0,1.140298,-6.9333488,-4.8956093)"
     style="opacity:0.65">
    <path
       style="opacity:0.07999998;fill:#000000;fill-opacity:1;stroke:#000000;stroke-width:10;stroke-linecap:round;stroke-linejoin:round;stroke-miterlimit:4;stroke-opacity:1;stroke-dasharray:none"
       d="m 25,14.9375 -1.25,4.65625 C 19.836125,18.540042 17.037154,17.890315 16.96875,17.875 l 0.59375,12.25 c 0.860849,0.216151 1.9786,0.513737 3.09375,0.8125 L 11.40625,64.875 71,81.0625 72.1875,76.65625 83,80.0625 c 0,0 0.209351,-6.219821 0.09375,-13.5 C 82.978145,59.282322 82.790967,51.420896 81.0625,45.625 80.992082,45.388875 80.92348,45.161842 80.84375,44.9375 L 84.59375,31.125 25,14.9375 z"
       id="path4121"
       inkscape:connector-curvature="0" />
    <path
       id="path4119"
       d="m 25,14.9375 -1.25,4.65625 C 19.836125,18.540042 17.037154,17.890315 16.96875,17.875 l 0.59375,12.25 c 0.860849,0.216151 1.9786,0.513737 3.09375,0.8125 L 11.40625,64.875 71,81.0625 72.1875,76.65625 83,80.0625 c 0,0 0.209351,-6.219821 0.09375,-13.5 C 82.978145,59.282322 82.790967,51.420896 81.0625,45.625 80.992082,45.388875 80.92348,45.161842 80.84375,44.9375 L 84.59375,31.125 25,14.9375 z"
       style="opacity:0.1;fill:#000000;fill-opacity:1;stroke:#000000;stroke-width:8;stroke-linecap:round;stroke-linejoin:round;stroke-miterlimit:4;stroke-opacity:1;stroke-dasharray:none"
       inkscape:connector-curvature="0" />
    <path
       style="opacity:0.2;fill:#000000;fill-opacity:1;stroke:#000000;stroke-width:6;stroke-linecap:round;stroke-linejoin:round;stroke-miterlimit:4;stroke-opacity:1;stroke-dasharray:none"
       d="m 25,14.9375 -1.25,4.65625 C 19.836125,18.540042 17.037154,17.890315 16.96875,17.875 l 0.59375,12.25 c 0.860849,0.216151 1.9786,0.513737 3.09375,0.8125 L 11.40625,64.875 71,81.0625 72.1875,76.65625 83,80.0625 c 0,0 0.209351,-6.219821 0.09375,-13.5 C 82.978145,59.282322 82.790967,51.420896 81.0625,45.625 80.992082,45.388875 80.92348,45.161842 80.84375,44.9375 L 84.59375,31.125 25,14.9375 z"
       id="path4117"
       inkscape:connector-curvature="0" />
    <path
       id="rect4098"
       d="m 25,14.9375 -1.25,4.65625 C 19.836125,18.540042 17.037154,17.890315 16.96875,17.875 l 0.59375,12.25 c 0.860849,0.216151 1.9786,0.513737 3.09375,0.8125 L 11.40625,64.875 71,81.0625 72.1875,76.65625 83,80.0625 c 0,0 0.209351,-6.219821 0.09375,-13.5 C 82.978145,59.282322 82.790967,51.420896 81.0625,45.625 80.992082,45.388875 80.92348,45.161842 80.84375,44.9375 L 84.59375,31.125 25,14.9375 z"
       style="opacity:0.3;fill:#000000;fill-opacity:1;stroke:#000000;stroke-width:4;stroke-linecap:round;stroke-linejoin:round;stroke-miterlimit:4;stroke-opacity:1;stroke-dasharray:none"
       inkscape:connector-curvature="0" />
  </g>
  <g
     id="g4088"
     transform="matrix(1.140298,0,0,1.140298,1.3782364,-3.9651167)">
    <rect
       transform="matrix(0.96496086,0.26239387,-0.26239387,0.96496086,0,0)"
       style="fill:url(#linearGradient4094);fill-opacity:1;stroke:#000000;stroke-width:2;stroke-linecap:round;stroke-linejoin:round;stroke-miterlimit:4;stroke-opacity:1;stroke-dasharray:none"
       id="rect4078"
       width="61.754906"
       height="51.743858"
       x="21.490465"
       y="7.7490935" />
    <g
       style="stroke:#000000;stroke-width:1.69950187;stroke-opacity:1"
       id="g4067"
       transform="matrix(1.1226538,0.35290642,-0.35290642,1.1226538,-238.23184,-198.46116)">
      <path
         sodipodi:nodetypes="ccccccccccsssccc"
         inkscape:connector-curvature="0"
         id="path4069"
         transform="matrix(0.81064211,-0.25482549,0.25482549,0.81064211,243.69372,100.17343)"
         d="m 10.6875,16.0625 0.59375,12.25 C 13.455849,28.858522 16.558369,29.679121 20,30.71875 L 20.40625,58.25 32.21875,61.96875 31.8125,34.875 c 1.740425,0.728722 3.383294,1.470848 4.75,2.21875 6.419523,2.971546 5.159547,10.926078 4.96875,16.46875 -0.108603,2.814664 -0.319505,5.016943 -0.46875,6.625 l 11.46875,3.59375 c 0,0 0.571596,-4.378962 0.78125,-9.8125 0.209654,-5.433538 0.254881,-11.804886 -1.40625,-17.375 -1.589652,-5.330397 -5.615918,-7.567309 -9.71875,-9.8125 -4.102832,-2.245191 -8.86097,-4.056252 -13.5,-5.625 C 27.527744,20.764048 26.378973,20.385403 25.25,20.03125 17.411724,17.572221 10.796052,16.086804 10.6875,16.0625 z"
         style="font-size:medium;font-style:normal;font-variant:normal;font-weight:normal;font-stretch:normal;text-indent:0;text-align:start;text-decoration:none;line-height:normal;letter-spacing:normal;word-spacing:normal;text-transform:none;direction:ltr;block-progression:tb;writing-mode:lr-tb;text-anchor:start;baseline-shift:baseline;color:#000000;fill:#eeeeec;fill-opacity:1;stroke:#000000;stroke-width:2;stroke-opacity:1;marker:none;visibility:visible;display:inline;overflow:visible;enable-background:accumulate;font-family:Sans;-inkscape-font-specification:Sans" />
      <path
         sodipodi:nodetypes="cscccccssscc"
         inkscape:connector-curvature="0"
         style="font-size:medium;font-style:normal;font-variant:normal;font-weight:normal;font-stretch:normal;text-indent:0;text-align:start;text-decoration:none;line-height:normal;letter-spacing:normal;word-spacing:normal;text-transform:none;direction:ltr;block-progression:tb;writing-mode:lr-tb;text-anchor:start;baseline-shift:baseline;color:#000000;fill:#f4dbbe;fill-opacity:1;stroke:#000000;stroke-width:1.69950187;stroke-opacity:1;marker:none;visibility:visible;display:inline;overflow:visible;enable-background:accumulate;font-family:Sans;-inkscape-font-specification:Sans"
         d="m 291.87926,109.99862 c 2.03163,0.92803 3.98657,2.37488 5.71875,4.9375 1.22059,1.80576 2.19627,3.69517 3,5.59375 0.91424,0.11455 1.77242,0.24926 2.5625,0.40625 6.82135,1.15131 8.08517,10.25226 9.78125,15.3125 1.06165,3.19885 1.85365,5.85571 2.4375,7.8125 l 10.4375,0 c 0,0 -1.42611,-5.09659 -3.375,-10.96875 -1.94889,-5.87216 -4.09064,-12.21081 -6.96875,-16.46875 -2.64696,-3.91596 -6.47694,-4.72546 -10.375,-5.5 -3.89806,-0.77454 -8.21465,-1.03545 -12.375,-1.125 -0.28652,-0.006 -0.55911,0.004 -0.84375,0 z"
         id="path4071" />
    </g>
  </g>
</svg>
