<?xml version="1.0" encoding="UTF-8" standalone="no"?>
<!-- Created with Inkscape (http://www.inkscape.org/) -->
<svg id="svg4501" xmlns:rdf="http://www.w3.org/1999/02/22-rdf-syntax-ns#" xmlns="http://www.w3.org/2000/svg" height="128" width="128" version="1.1" xmlns:cc="http://creativecommons.org/ns#" xmlns:xlink="http://www.w3.org/1999/xlink" xmlns:dc="http://purl.org/dc/elements/1.1/">
 <defs id="defs4503">
  <linearGradient id="linearGradient2959" y2="43" gradientUnits="userSpaceOnUse" x2="24" gradientTransform="matrix(2.7838 0 0 2.7838 -3.2021 -66.419)" y1="5" x1="24">
   <stop id="stop3926" style="stop-color:#fff" offset="0"/>
   <stop id="stop3928" style="stop-color:#fff;stop-opacity:.23529" offset=".063165"/>
   <stop id="stop3930" style="stop-color:#fff;stop-opacity:.15686" offset=".95056"/>
   <stop id="stop3932" style="stop-color:#fff;stop-opacity:.39216" offset="1"/>
  </linearGradient>
  <filter id="filter6181">
   <feGaussianBlur id="feGaussianBlur6183" stdDeviation="1.6001681"/>
  </filter>
  <linearGradient id="linearGradient5060-30">
   <stop id="stop5062-14" offset="0"/>
   <stop id="stop5064-8" style="stop-opacity:0" offset="1"/>
  </linearGradient>
  <radialGradient id="radialGradient2962-243-68" gradientUnits="userSpaceOnUse" cy="8.4498" cx="7.4957" gradientTransform="matrix(5.2307e-8 6.2919 -6.6561 -1.1592e-7 119.85 -97.702)" r="20">
   <stop id="stop4806" style="stop-color:#f6ae98" offset="0"/>
   <stop id="stop4808" style="stop-color:#e17468" offset=".26238"/>
   <stop id="stop4810" style="stop-color:#cf343b" offset=".66094"/>
   <stop id="stop4812" style="stop-color:#7c1036" offset="1"/>
  </radialGradient>
  <linearGradient id="linearGradient2964-20-376" y2="3.899" gradientUnits="userSpaceOnUse" x2="24" gradientTransform="matrix(2.6923 0 0 2.6923 -1.0067 -64.224)" y1="44" x1="24">
   <stop id="stop4816" style="stop-color:#8a193f" offset="0"/>
   <stop id="stop4818" style="stop-color:#da5242" offset="1"/>
  </linearGradient>
  <linearGradient id="linearGradient5031" y2="609.51" gradientUnits="userSpaceOnUse" x2="302.86" gradientTransform="matrix(2.7744 0 0 1.9697 -1892.2 -872.89)" y1="366.65" x1="302.86">
   <stop id="stop5050-6" style="stop-opacity:0" offset="0"/>
   <stop id="stop5056-6" offset=".5"/>
   <stop id="stop5052-61" style="stop-opacity:0" offset="1"/>
  </linearGradient>
  <radialGradient id="radialGradient5033" xlink:href="#linearGradient5060-30" gradientUnits="userSpaceOnUse" cy="486.65" cx="605.71" gradientTransform="matrix(2.7744 0 0 1.9697 -1891.6 -872.89)" r="117.14"/>
  <radialGradient id="radialGradient5035" xlink:href="#linearGradient5060-30" gradientUnits="userSpaceOnUse" cy="486.65" cx="605.71" gradientTransform="matrix(-2.7744 0 0 1.9697 112.76 -872.89)" r="117.14"/>
  <radialGradient id="radialGradient5045" gradientUnits="userSpaceOnUse" cy="27.869" cx="17.237" gradientTransform="matrix(1.1252 0 0 .37506 -2.1576 16.837)" r="3">
   <stop id="stop3037" style="stop-color:#babdb6" offset="0"/>
   <stop id="stop3039" style="stop-color:#fff" offset="1"/>
  </radialGradient>
  <radialGradient id="radialGradient5047" gradientUnits="userSpaceOnUse" cy="27.99" cx="30.155" gradientTransform="matrix(.95238 0 0 .49099 1.4359 14.251)" r="3.7123">
   <stop id="stop5542" offset="0"/>
   <stop id="stop5544" style="stop-opacity:0" offset="1"/>
  </radialGradient>
  <linearGradient id="linearGradient5063" y2="27.734" gradientUnits="userSpaceOnUse" x2="19.724" gradientTransform="matrix(1.9911 0 0 2.0106 16.229 -46.42)" y1="27.734" x1="14.219">
   <stop id="stop2863" style="stop-color:#c00" offset="0"/>
   <stop id="stop2869" style="stop-color:#ef2929" offset=".22989"/>
   <stop id="stop2865" style="stop-color:#c00" offset="1"/>
  </linearGradient>
  <linearGradient id="linearGradient5067" y2="5.6997" gradientUnits="userSpaceOnUse" x2="29.743" gradientTransform="matrix(2.25 0 0 2 8.2335 -46.108)" y1="7.5623" x1="29.743">
   <stop id="stop2850" style="stop-color:#fff" offset="0"/>
   <stop id="stop2852" style="stop-color:#fff;stop-opacity:0" offset="1"/>
  </linearGradient>
  <linearGradient id="linearGradient5070" y2="10.433" gradientUnits="userSpaceOnUse" x2="30" gradientTransform="matrix(3 0 0 2.4364 -15.392 -48.508)" y1="7.9" x1="30">
   <stop id="stop5567" style="stop-color:#f24e4e" offset="0"/>
   <stop id="stop5569" style="stop-color:#c10000" offset="1"/>
  </linearGradient>
  <linearGradient id="linearGradient5073" y2="32.192" gradientUnits="userSpaceOnUse" x2="30" gradientTransform="matrix(2.6 0 0 2.2273 -3.3914 -45.358)" y1="7.8658" x1="27.97">
   <stop id="stop2949" style="stop-color:#fff" offset="0"/>
   <stop id="stop2951" style="stop-color:#fff;stop-opacity:.47104" offset="1"/>
  </linearGradient>
  <linearGradient id="linearGradient5077" y2="17.714" gradientUnits="userSpaceOnUse" x2="34.071" gradientTransform="matrix(2.1429 0 0 2.1667 8.1802 -44.858)" y1="17.714" x1="27.857">
   <stop id="stop2955" style="stop-color:#d3d7cf" offset="0"/>
   <stop id="stop2957" style="stop-color:#eeeeec" offset=".41379"/>
   <stop id="stop2959" style="stop-color:#babdb6" offset="1"/>
  </linearGradient>
  <linearGradient id="linearGradient5083" y2="37.5" gradientUnits="userSpaceOnUse" x2="12.286" gradientTransform="matrix(2.0638 0 0 2 14.098 -45.608)" y1="45.26" x1="41.41">
   <stop id="stop2935" style="stop-color:#babdb6" offset="0"/>
   <stop id="stop2937" style="stop-color:#d3d7cf" offset="1"/>
  </linearGradient>
  <linearGradient id="linearGradient5086" y2="38.364" gradientUnits="userSpaceOnUse" x2="19.211" gradientTransform="matrix(2.0303 0 0 1.9941 31.124 -51.945)" y1="26.6" x1="-.30986">
   <stop id="stop2943" style="stop-color:#fff" offset="0"/>
   <stop id="stop2945" style="stop-color:#eeeeec" offset="1"/>
  </linearGradient>
  <linearGradient id="linearGradient5089" y2="7.0037" gradientUnits="userSpaceOnUse" x2="9.6598" gradientTransform="matrix(2.0106 0 0 2.0106 16.209 -39.713)" y1="13.257" x1="10.788">
   <stop id="stop5026" style="stop-color:#555753" offset="0"/>
   <stop id="stop5028" style="stop-color:#555753;stop-opacity:0" offset="1"/>
  </linearGradient>
  <linearGradient id="linearGradient5092" y2="9.6912" gradientUnits="userSpaceOnUse" x2="10.535" gradientTransform="matrix(2.0106 0 0 2.0106 16.209 -37.703)" y1="17.507" x1="11.163">
   <stop id="stop2920" offset="0"/>
   <stop id="stop2922" style="stop-opacity:0" offset="1"/>
  </linearGradient>
  <radialGradient id="radialGradient5145" gradientUnits="userSpaceOnUse" cy="28.031" cx="17.969" gradientTransform="matrix(1.5422 0 0 .51408 -9.7432 12.934)" r="3">
   <stop id="stop3025" style="stop-color:#f9afaf" offset="0"/>
   <stop id="stop3027" style="stop-color:#ef2929" offset="1"/>
  </radialGradient>
 </defs>
 <metadata id="metadata4506">
  <rdf:RDF>
   <cc:Work rdf:about="">
    <dc:format>image/svg+xml</dc:format>
    <dc:type rdf:resource="http://purl.org/dc/dcmitype/StillImage"/>
    <dc:title/>
   </cc:Work>
  </rdf:RDF>
 </metadata>
 <g id="layer1" transform="translate(.39130 63.608)">
  <rect id="rect5505-2" style="opacity:.4;color:#000000;filter:url(#filter6181)" transform="matrix(1.7299 0 0 1.6462 1.3326 -42.965)" rx="3.072" ry="3.1624" height="64" width="64" y="-3.84" x="4"/>
  <rect id="rect5505" style="stroke-linejoin:round;color:#000000;stroke:url(#linearGradient2964-20-376);stroke-linecap:round;fill:url(#radialGradient2962-243-68)" rx="5" ry="5" height="105" width="105" y="-52.108" x="11.109"/>
  <rect id="rect6741" style="opacity:.5;stroke-linejoin:round;stroke:url(#linearGradient2959);stroke-linecap:round;fill:none" rx="4" ry="4" height="103" width="103" y="-51.108" x="12.109"/>
  <g id="g3952" style="opacity:.5" transform="matrix(.037048 0 0 .065015 96.696 19.508)">
   <rect id="rect3954" style="opacity:.40206;color:#000000;fill:url(#linearGradient5031)" height="478.36" width="1339.6" y="-150.7" x="-1559.3"/>
   <path id="path3956" style="opacity:.40206;color:#000000;fill:url(#radialGradient5033)" d="m-219.62-150.68v478.33c142.87 0.90045 345.4-107.17 345.4-239.2s-159.44-239.13-345.4-239.13z"/>
   <path id="path3958" style="opacity:.40206;color:#000000;fill:url(#radialGradient5035)" d="m-1559.3-150.68v478.33c-142.87 0.90045-345.4-107.17-345.4-239.2s159.44-239.13 345.4-239.13z"/>
  </g>
  <path id="path2912" style="opacity:.1;stroke-linejoin:round;stroke:url(#linearGradient5092);stroke-linecap:round;stroke-width:1px;fill:none" d="m58.431 5.3899c8.155-18.867-28.297-5.1537-31.883-13.27-3.0165-6.828 31.72-6.0052 13.811-19.605"/>
  <path id="path8126" style="stroke-linejoin:round;stroke:url(#linearGradient5089);stroke-linecap:round;stroke-width:1px;fill:none" d="m58.431 3.3793c8.155-18.867-28.297-5.1536-31.883-13.27-3.016-6.8283 31.72-6.0053 13.811-19.605"/>
  <path id="path8137" style="stroke-linejoin:round;fill-rule:evenodd;stroke:#888a85;stroke-width:1px;fill:url(#linearGradient5086)" d="m41.973 0.89168c-2.045 0.0056-2.9237 0.90411-3.4896 2.3125l-8.3116 20.688-0.06342 7.9375c0 1.6831 1.4003 3.0625 3.1089 3.0625h60.782c1.7086 0 3.1089-1.3794 3.1089-3.0625v-7.9375l-8.374-20.75c-0.551-1.3621-2.105-2.2503-3.807-2.2503h-42.954z"/>
  <rect id="rect5213" style="fill:url(#linearGradient5083)" rx="1.0095" ry=".97828" height="10" width="66" y="24.392" x="30.609"/>
  <path id="path3031" style="fill:url(#radialGradient5045)" d="m20 27a3 1 0 1 1 -6 0 3 1 0 1 1 6 0z" transform="matrix(3.351 0 0 4.995 -7.2964 -124.18)"/>
  <path id="path5223" style="stroke:#fff;stroke-linecap:round;stroke-width:1px;fill:none" d="m31.109 24.892h65"/>
  <path id="path5538" style="opacity:.4;fill:url(#radialGradient5047)" d="m33.992 27.999a3.7123 2.0708 0 1 1 -7.4246 0 3.7123 2.0708 0 1 1 7.4246 0z" transform="matrix(3.6388 0 0 4.5815 -34.689 -116.49)"/>
  <path id="path5141" style="stroke-linejoin:round;opacity:.4;stroke:#fff;stroke-width:1px;fill:none" d="m41.969 1.8125c-0.891 0.0024-1.412 0.167-1.781 0.4375-0.37 0.2705-0.629 0.6983-0.876 1.3125l-8.218 20.532-0.094 7.75c0 1.177 0.995 2.156 2.219 2.156h60.781c1.2234 0 2.1875-0.96772 2.1875-2.1562v-7.75l-8.313-20.594c-0.385-0.9508-1.549-1.6875-2.937-1.6875h-42.969z"/>
  <rect id="rect4311" style="stroke-linejoin:bevel;stroke:#888a85;fill:url(#linearGradient5077)" rx="3.2213" ry="3.0065" height="52" width="15" y="-35.108" x="67.109"/>
  <path id="path2965" style="opacity:.8;fill:#fff" d="m73.734-34.522c-3.3854 0-5.9689 2.3279-5.9689 5.0893v5.9689c0 2.7613 2.5835 5.0893 5.9689 5.0893h2.1362c3.3854 0 5.9689-2.3279 5.9689-5.0893v-5.9689c0-2.7613-2.5835-5.0893-5.9689-5.0893h-2.1362z"/>
  <rect id="rect5211" style="stroke-linejoin:bevel;opacity:.4;stroke:url(#linearGradient5073);fill:none" rx="2.676" ry="2.1013" height="49" width="13" y="-33.108" x="68.109"/>
  <rect id="rect4315" style="stroke-linejoin:bevel;stroke:#a40000;fill:url(#linearGradient5070)" rx="1.6813" ry="1.4945" height="14" width="9" y="-35.108" x="70.109"/>
  <rect id="rect1925" style="opacity:.61801;fill:url(#linearGradient5067)" rx="1.057" ry=".93955" height="4" width="6.75" y="-34.108" x="71.234"/>
  <path id="path4316" style="opacity:.7;fill:#fff" d="m31 7.125a0.82143 0.69643 0 1 1 -1.6429 0 0.82143 0.69643 0 1 1 1.6429 0z" transform="matrix(1.3696 0 0 1.4359 31.028 -41.372)"/>
  <path id="path4313" style="stroke-linejoin:bevel;stroke:#a40000;fill:url(#linearGradient5063)" d="m50.078 4.8494c-3.8579 0-6.9689 1.3511-6.9689 3.0159v2.0106c0 1.6648 3.111 3.0159 6.9689 3.0159s7.0311-1.3511 7.0311-3.0159v-2.0106c0-1.6648-3.1732-3.0159-7.0311-3.0159z"/>
  <path id="path2871" style="fill:url(#radialGradient5145)" d="m20 27a3 1 0 1 1 -6 0 3 1 0 1 1 6 0z" transform="matrix(1.9911 0 0 2.0106 16.229 -46.42)"/>
 </g>
</svg>
