<?xml version="1.0" encoding="UTF-8" standalone="no"?>
<!-- Created with Inkscape (http://www.inkscape.org/) -->

<svg
   xmlns:dc="http://purl.org/dc/elements/1.1/"
   xmlns:cc="http://creativecommons.org/ns#"
   xmlns:rdf="http://www.w3.org/1999/02/22-rdf-syntax-ns#"
   xmlns:svg="http://www.w3.org/2000/svg"
   xmlns="http://www.w3.org/2000/svg"
   xmlns:xlink="http://www.w3.org/1999/xlink"
   xmlns:sodipodi="http://sodipodi.sourceforge.net/DTD/sodipodi-0.dtd"
   xmlns:inkscape="http://www.inkscape.org/namespaces/inkscape"
   version="1.0"
   width="128"
   height="128"
   id="svg2408"
   inkscape:version="0.48.1 r9760"
   sodipodi:docname="gnome-glines.svg">
  <sodipodi:namedview
     pagecolor="#ffffff"
     bordercolor="#666666"
     borderopacity="1"
     objecttolerance="10"
     gridtolerance="10"
     guidetolerance="10"
     inkscape:pageopacity="0"
     inkscape:pageshadow="2"
     inkscape:window-width="1279"
     inkscape:window-height="802"
     id="namedview146"
     showgrid="false"
     showguides="true"
     inkscape:guide-bbox="true"
     inkscape:zoom="3.3020833"
     inkscape:cx="48.908517"
     inkscape:cy="51.785489"
     inkscape:window-x="0"
     inkscape:window-y="24"
     inkscape:window-maximized="0"
     inkscape:current-layer="svg2408" />
  <defs
     id="defs2410">
    <linearGradient
       id="linearGradient4426">
      <stop
         id="stop4428"
         style="stop-color:#ff5b2a;stop-opacity:1"
         offset="0" />
      <stop
         id="stop4432"
         style="stop-color:#c21313;stop-opacity:1"
         offset="1" />
    </linearGradient>
    <linearGradient
       id="linearGradient4350">
      <stop
         id="stop4352"
         style="stop-color:#9ee82d;stop-opacity:1"
         offset="0" />
      <stop
         id="stop4356"
         style="stop-color:#328c22;stop-opacity:1"
         offset="1" />
    </linearGradient>
    <linearGradient
       id="linearGradient4250">
      <stop
         id="stop4252"
         style="stop-color:#66c7f1;stop-opacity:1"
         offset="0" />
      <stop
         id="stop4254"
         style="stop-color:#1677bb;stop-opacity:1"
         offset="1" />
    </linearGradient>
    <linearGradient
       id="linearGradient4146">
      <stop
         id="stop4148"
         style="stop-color:#ffffff;stop-opacity:1"
         offset="0" />
      <stop
         id="stop4150"
         style="stop-color:#ffffff;stop-opacity:0"
         offset="1" />
    </linearGradient>
    <linearGradient
       id="linearGradient3895">
      <stop
         id="stop3897"
         style="stop-color:#ffffff;stop-opacity:1"
         offset="0" />
      <stop
         id="stop3899"
         style="stop-color:#ffffff;stop-opacity:0"
         offset="1" />
    </linearGradient>
    <linearGradient
       x1="45.447727"
       y1="92.539597"
       x2="45.447727"
       y2="7.0165396"
       id="ButtonShadow"
       gradientUnits="userSpaceOnUse"
       gradientTransform="scale(1.0058652,0.994169)">
      <stop
         id="stop3750"
         style="stop-color:#000000;stop-opacity:1"
         offset="0" />
      <stop
         id="stop3752"
         style="stop-color:#000000;stop-opacity:0.58823532"
         offset="1" />
    </linearGradient>
    <linearGradient
       id="linearGradient3737">
      <stop
         id="stop3739"
         style="stop-color:#ffffff;stop-opacity:1"
         offset="0" />
      <stop
         id="stop3741"
         style="stop-color:#ffffff;stop-opacity:0"
         offset="1" />
    </linearGradient>
    <filter
       color-interpolation-filters="sRGB"
       id="filter3174">
      <feGaussianBlur
         id="feGaussianBlur3176"
         stdDeviation="1.71" />
    </filter>
    <linearGradient
       x1="36.357143"
       y1="6"
       x2="36.357143"
       y2="63.893143"
       id="linearGradient3188"
       xlink:href="#linearGradient3737"
       gradientUnits="userSpaceOnUse" />
    <filter
       x="-0.192"
       y="-0.192"
       width="1.3839999"
       height="1.3839999"
       color-interpolation-filters="sRGB"
       id="filter3794">
      <feGaussianBlur
         id="feGaussianBlur3796"
         stdDeviation="5.28" />
    </filter>
    <linearGradient
       x1="48"
       y1="20.220806"
       x2="48"
       y2="138.66119"
       id="linearGradient3613"
       xlink:href="#linearGradient3737"
       gradientUnits="userSpaceOnUse" />
    <radialGradient
       cx="48"
       cy="90.171875"
       r="42"
       fx="48"
       fy="90.171875"
       id="radialGradient3619"
       xlink:href="#linearGradient3737"
       gradientUnits="userSpaceOnUse"
       gradientTransform="matrix(1.1573129,0,0,0.99590774,-7.5510206,0.19713193)" />
    <clipPath
       id="clipPath3613">
      <rect
         width="84"
         height="84"
         rx="6"
         ry="6"
         x="6"
         y="6"
         id="rect3615"
         style="fill:#ffffff;fill-opacity:1;fill-rule:nonzero;stroke:none" />
    </clipPath>
    <linearGradient
       x1="48"
       y1="90"
       x2="48"
       y2="5.9877172"
       id="linearGradient3617"
       xlink:href="#linearGradient3700-6"
       gradientUnits="userSpaceOnUse" />
    <linearGradient
       x1="45.447727"
       y1="92.539597"
       x2="45.447727"
       y2="7.0165396"
       id="ButtonShadow-0"
       gradientUnits="userSpaceOnUse"
       gradientTransform="matrix(1.0058652,0,0,0.994169,100,0)">
      <stop
         id="stop3750-8"
         style="stop-color:#000000;stop-opacity:1"
         offset="0" />
      <stop
         id="stop3752-5"
         style="stop-color:#000000;stop-opacity:0.58823532"
         offset="1" />
    </linearGradient>
    <linearGradient
       x1="32.251034"
       y1="6.1317081"
       x2="32.251034"
       y2="90.238609"
       id="linearGradient3780"
       xlink:href="#ButtonShadow-0"
       gradientUnits="userSpaceOnUse"
       gradientTransform="matrix(1.0238095,0,0,1.0119048,-1.1428571,-98.071429)" />
    <linearGradient
       x1="32.251034"
       y1="6.1317081"
       x2="32.251034"
       y2="90.238609"
       id="linearGradient3772"
       xlink:href="#ButtonShadow-0"
       gradientUnits="userSpaceOnUse"
       gradientTransform="matrix(1.0238095,0,0,1.0119048,-1.1428571,-98.071429)" />
    <linearGradient
       x1="32.251034"
       y1="6.1317081"
       x2="32.251034"
       y2="90.238609"
       id="linearGradient3725"
       xlink:href="#ButtonShadow-0"
       gradientUnits="userSpaceOnUse"
       gradientTransform="matrix(1.0238095,0,0,1.0119048,-1.1428571,-98.071429)" />
    <linearGradient
       x1="32.251034"
       y1="6.1317081"
       x2="32.251034"
       y2="90.238609"
       id="linearGradient3721"
       xlink:href="#ButtonShadow-0"
       gradientUnits="userSpaceOnUse"
       gradientTransform="translate(0,-97)" />
    <linearGradient
       x1="32.251034"
       y1="6.1317081"
       x2="32.251034"
       y2="90.238609"
       id="linearGradient3026"
       xlink:href="#ButtonShadow-0"
       gradientUnits="userSpaceOnUse"
       gradientTransform="matrix(1.0238095,0,0,1.0119048,-1.1428571,-98.071429)" />
    <linearGradient
       id="linearGradient3700-6">
      <stop
         id="stop3702-3"
         style="stop-color:#2f2f2f;stop-opacity:1"
         offset="0" />
      <stop
         id="stop3704-9"
         style="stop-color:#4f4f4f;stop-opacity:1"
         offset="1" />
    </linearGradient>
    <linearGradient
       x1="70"
       y1="71"
       x2="77"
       y2="78"
       id="linearGradient4140"
       xlink:href="#linearGradient3895"
       gradientUnits="userSpaceOnUse"
       gradientTransform="matrix(-0.70710678,-0.70710678,0.70710678,-0.70710678,20.293538,182.77339)" />
    <linearGradient
       x1="15.949031"
       y1="32"
       x2="48"
       y2="32"
       id="linearGradient4152"
       xlink:href="#linearGradient4146"
       gradientUnits="userSpaceOnUse" />
    <radialGradient
       cx="32"
       cy="41.676769"
       r="16"
       fx="32"
       fy="41.676769"
       id="radialGradient4240"
       xlink:href="#linearGradient4250"
       gradientUnits="userSpaceOnUse"
       gradientTransform="matrix(0.9062532,0,0,0.78488074,2.9998976,9.1750721)" />
    <radialGradient
       cx="32"
       cy="41.676769"
       r="16"
       fx="32"
       fy="41.676769"
       id="radialGradient4272"
       xlink:href="#linearGradient4250"
       gradientUnits="userSpaceOnUse"
       gradientTransform="matrix(0.9062532,0,0,0.78488074,2.9998976,9.1750721)" />
    <linearGradient
       x1="70"
       y1="71"
       x2="77"
       y2="78"
       id="linearGradient4274"
       xlink:href="#linearGradient3895"
       gradientUnits="userSpaceOnUse"
       gradientTransform="matrix(-0.70710678,-0.70710678,0.70710678,-0.70710678,20.293538,182.77339)" />
    <linearGradient
       x1="15.949031"
       y1="32"
       x2="48"
       y2="32"
       id="linearGradient4276"
       xlink:href="#linearGradient4146"
       gradientUnits="userSpaceOnUse" />
    <radialGradient
       cx="32"
       cy="41.676769"
       r="16"
       fx="32"
       fy="41.676769"
       id="radialGradient4288"
       xlink:href="#linearGradient4250"
       gradientUnits="userSpaceOnUse"
       gradientTransform="matrix(0.9062532,0,0,0.78488074,2.9998976,9.1750721)" />
    <linearGradient
       x1="70"
       y1="71"
       x2="77"
       y2="78"
       id="linearGradient4290"
       xlink:href="#linearGradient3895"
       gradientUnits="userSpaceOnUse"
       gradientTransform="matrix(-0.70710678,-0.70710678,0.70710678,-0.70710678,20.293538,182.77339)" />
    <linearGradient
       x1="15.949031"
       y1="32"
       x2="48"
       y2="32"
       id="linearGradient4292"
       xlink:href="#linearGradient4146"
       gradientUnits="userSpaceOnUse" />
    <radialGradient
       cx="32"
       cy="41.676769"
       r="16"
       fx="32"
       fy="41.676769"
       id="radialGradient4304"
       xlink:href="#linearGradient4250"
       gradientUnits="userSpaceOnUse"
       gradientTransform="matrix(0.9062532,0,0,0.78488074,2.9998976,9.1750721)" />
    <linearGradient
       x1="70"
       y1="71"
       x2="77"
       y2="78"
       id="linearGradient4306"
       xlink:href="#linearGradient3895"
       gradientUnits="userSpaceOnUse"
       gradientTransform="matrix(-0.70710678,-0.70710678,0.70710678,-0.70710678,20.293538,182.77339)" />
    <linearGradient
       x1="15.949031"
       y1="32"
       x2="48"
       y2="32"
       id="linearGradient4308"
       xlink:href="#linearGradient4146"
       gradientUnits="userSpaceOnUse" />
    <radialGradient
       cx="32"
       cy="41.676769"
       r="16"
       fx="32"
       fy="41.676769"
       id="radialGradient4320"
       xlink:href="#linearGradient4250"
       gradientUnits="userSpaceOnUse"
       gradientTransform="matrix(0.9062532,0,0,0.78488074,2.9998976,9.1750721)" />
    <linearGradient
       x1="70"
       y1="71"
       x2="77"
       y2="78"
       id="linearGradient4322"
       xlink:href="#linearGradient3895"
       gradientUnits="userSpaceOnUse"
       gradientTransform="matrix(-0.70710678,-0.70710678,0.70710678,-0.70710678,20.293538,182.77339)" />
    <linearGradient
       x1="15.949031"
       y1="32"
       x2="48"
       y2="32"
       id="linearGradient4324"
       xlink:href="#linearGradient4146"
       gradientUnits="userSpaceOnUse" />
    <radialGradient
       cx="32"
       cy="41.676769"
       r="16"
       fx="32"
       fy="41.676769"
       id="radialGradient4364"
       xlink:href="#linearGradient4350"
       gradientUnits="userSpaceOnUse"
       gradientTransform="matrix(0.9062532,0,0,0.78488074,2.9998976,9.1750721)" />
    <linearGradient
       x1="70"
       y1="71"
       x2="77"
       y2="78"
       id="linearGradient4366"
       xlink:href="#linearGradient3895"
       gradientUnits="userSpaceOnUse"
       gradientTransform="matrix(-0.70710678,-0.70710678,0.70710678,-0.70710678,74.293538,182.77339)" />
    <linearGradient
       x1="15.949031"
       y1="32"
       x2="48"
       y2="32"
       id="linearGradient4368"
       xlink:href="#linearGradient4146"
       gradientUnits="userSpaceOnUse" />
    <radialGradient
       cx="32"
       cy="41.676769"
       r="16"
       fx="32"
       fy="41.676769"
       id="radialGradient4380"
       xlink:href="#linearGradient4350"
       gradientUnits="userSpaceOnUse"
       gradientTransform="matrix(0.9062532,0,0,0.78488074,2.9998976,9.1750721)" />
    <linearGradient
       x1="70"
       y1="71"
       x2="77"
       y2="78"
       id="linearGradient4382"
       xlink:href="#linearGradient3895"
       gradientUnits="userSpaceOnUse"
       gradientTransform="matrix(-0.70710678,-0.70710678,0.70710678,-0.70710678,74.293538,182.77339)" />
    <linearGradient
       x1="15.949031"
       y1="32"
       x2="48"
       y2="32"
       id="linearGradient4384"
       xlink:href="#linearGradient4146"
       gradientUnits="userSpaceOnUse" />
    <radialGradient
       cx="32"
       cy="41.676769"
       r="16"
       fx="32"
       fy="41.676769"
       id="radialGradient4396"
       xlink:href="#linearGradient4350"
       gradientUnits="userSpaceOnUse"
       gradientTransform="matrix(0.9062532,0,0,0.78488074,2.9998976,9.1750721)" />
    <linearGradient
       x1="70"
       y1="71"
       x2="77"
       y2="78"
       id="linearGradient4398"
       xlink:href="#linearGradient3895"
       gradientUnits="userSpaceOnUse"
       gradientTransform="matrix(-0.70710678,-0.70710678,0.70710678,-0.70710678,74.293538,182.77339)" />
    <linearGradient
       x1="15.949031"
       y1="32"
       x2="48"
       y2="32"
       id="linearGradient4400"
       xlink:href="#linearGradient4146"
       gradientUnits="userSpaceOnUse" />
    <radialGradient
       cx="32"
       cy="41.676769"
       r="16"
       fx="32"
       fy="41.676769"
       id="radialGradient4440"
       xlink:href="#linearGradient4426"
       gradientUnits="userSpaceOnUse"
       gradientTransform="matrix(0.9062532,0,0,0.78488074,2.9998976,9.1750721)" />
    <linearGradient
       x1="70"
       y1="71"
       x2="77"
       y2="78"
       id="linearGradient4442"
       xlink:href="#linearGradient3895"
       gradientUnits="userSpaceOnUse"
       gradientTransform="matrix(-0.70710678,-0.70710678,0.70710678,-0.70710678,74.293538,164.77339)" />
    <linearGradient
       x1="15.949031"
       y1="32"
       x2="48"
       y2="32"
       id="linearGradient4444"
       xlink:href="#linearGradient4146"
       gradientUnits="userSpaceOnUse" />
    <radialGradient
       cx="32"
       cy="41.676769"
       r="16"
       fx="32"
       fy="41.676769"
       id="radialGradient4456"
       xlink:href="#linearGradient4426"
       gradientUnits="userSpaceOnUse"
       gradientTransform="matrix(0.9062532,0,0,0.78488074,2.9998976,9.1750721)" />
    <linearGradient
       x1="70"
       y1="71"
       x2="77"
       y2="78"
       id="linearGradient4458"
       xlink:href="#linearGradient3895"
       gradientUnits="userSpaceOnUse"
       gradientTransform="matrix(-0.70710678,-0.70710678,0.70710678,-0.70710678,74.293538,164.77339)" />
    <linearGradient
       x1="15.949031"
       y1="32"
       x2="48"
       y2="32"
       id="linearGradient4460"
       xlink:href="#linearGradient4146"
       gradientUnits="userSpaceOnUse" />
  </defs>
  <metadata
     id="metadata2413">
    <rdf:RDF>
      <cc:Work
         rdf:about="">
        <dc:format>image/svg+xml</dc:format>
        <dc:type
           rdf:resource="http://purl.org/dc/dcmitype/StillImage" />
        <dc:title />
      </cc:Work>
    </rdf:RDF>
  </metadata>
  <g
     id="layer2"
     style="display:none"
     transform="translate(0,32)">
    <rect
       width="86"
       height="85"
       rx="6"
       ry="6"
       x="5"
       y="7"
       id="rect3745"
       style="opacity:0.9;fill:url(#ButtonShadow);fill-opacity:1;fill-rule:nonzero;stroke:none;filter:url(#filter3174)" />
  </g>
  <g
     id="layer5"
     transform="matrix(1.4880952,0,0,1.4880952,-7.168319,-7.9916625)">
    <rect
       width="66"
       height="66"
       rx="12"
       ry="12"
       x="15"
       y="15"
       clip-path="url(#clipPath3613)"
       id="rect3171"
       style="opacity:0.1;fill:url(#linearGradient3613);fill-opacity:1;fill-rule:nonzero;stroke:#ffffff;stroke-width:0.5;stroke-linecap:round;stroke-linejoin:miter;stroke-miterlimit:4;stroke-opacity:1;stroke-dasharray:none;stroke-dashoffset:0;filter:url(#filter3794)" />
  </g>
  <g
     id="layer4"
     transform="matrix(1.4880952,0,0,1.4880952,-7.168319,-7.9916625)">
    <path
       d="m 21,12 c -6.046947,0 -11,4.953053 -11,11 0,6.046947 4.953053,11 11,11 3.818109,0 7.075298,-2.052792 9.03125,-5.03125 0.801699,1.201806 1.798194,2.198301 3,3 C 30.052792,33.924702 28,37.181891 28,41 c 0,3.793234 2.022503,7.038692 4.96875,9 C 30.022503,51.961308 28,55.206766 28,59 c 0,6.046947 4.953053,11 11,11 6.046947,0 11,-4.953053 11,-11 0,-3.818109 -2.052792,-7.075298 -5.03125,-9.03125 1.201806,-0.801699 2.198301,-1.798194 3,-3 C 49.924702,49.947208 53.181891,52 57,52 63.046947,52 68,47.046947 68,41 68,34.953053 63.046947,30 57,30 c -3.818109,0 -7.075298,2.052792 -9.03125,5.03125 -0.801699,-1.201806 -1.798194,-2.198301 -3,-3 C 47.947208,30.075298 50,26.818109 50,23 50,16.953053 45.046947,12 39,12 35.206766,12 31.961308,14.022503 30,16.96875 28.038692,14.022503 24.793234,12 21,12 z m 54,0 c -6.046947,0 -11,4.953053 -11,11 0,6.046947 4.953053,11 11,11 6.046947,0 11,-4.953053 11,-11 0,-6.046947 -4.953053,-11 -11,-11 z m 0,36 c -6.046947,0 -11,4.953053 -11,11 0,3.818109 2.052792,7.075298 5.03125,9.03125 -1.201806,0.801699 -2.198301,1.798194 -3,3 C 64.075298,68.052792 60.818109,66 57,66 c -6.046947,0 -11,4.953053 -11,11 0,6.046947 4.953053,11 11,11 3.793234,0 7.038692,-2.022503 9,-4.96875 C 67.961308,85.977497 71.206766,88 75,88 81.046947,88 86,83.046947 86,77 86,73.206766 83.977497,69.961308 81.03125,68 83.977497,66.038692 86,62.793234 86,59 86,52.953053 81.046947,48 75,48 z M 21,66 c -6.046947,0 -11,4.953053 -11,11 0,6.046947 4.953053,11 11,11 6.046947,0 11,-4.953053 11,-11 0,-6.046947 -4.953053,-11 -11,-11 z"
       id="path4238"
       style="opacity:0.05;color:#000000;fill:#000000;fill-opacity:1;fill-rule:nonzero;stroke:none;stroke-width:0.5;marker:none;visibility:visible;display:inline;overflow:visible;enable-background:accumulate"
       inkscape:connector-curvature="0" />
    <path
       d="m 21,13.0625 c -5.464705,0 -9.9375,4.472795 -9.9375,9.9375 0,5.464705 4.472795,9.9375 9.9375,9.9375 4.00944,0 7.451658,-2.434878 9,-5.875 0.989881,2.19024 2.74726,3.947619 4.9375,4.9375 -3.440122,1.548342 -5.875,4.99056 -5.875,9 0,4.00944 2.434878,7.451658 5.875,9 -3.440122,1.548342 -5.875,4.99056 -5.875,9 0,5.464705 4.472795,9.9375 9.9375,9.9375 5.464705,0 9.9375,-4.472795 9.9375,-9.9375 0,-4.00944 -2.434878,-7.451658 -5.875,-9 2.19024,-0.989881 3.947619,-2.74726 4.9375,-4.9375 1.548342,3.440122 4.99056,5.875 9,5.875 5.464705,0 9.9375,-4.472795 9.9375,-9.9375 0,-5.464705 -4.472795,-9.9375 -9.9375,-9.9375 -4.00944,0 -7.451658,2.434878 -9,5.875 C 47.010119,34.74726 45.25274,32.989881 43.0625,32 c 3.440122,-1.548342 5.875,-4.99056 5.875,-9 0,-5.464705 -4.472795,-9.9375 -9.9375,-9.9375 -4.00944,0 -7.451658,2.434878 -9,5.875 -1.548342,-3.440122 -4.99056,-5.875 -9,-5.875 z m 54,0 c -5.464705,0 -9.9375,4.472795 -9.9375,9.9375 0,5.464705 4.472795,9.9375 9.9375,9.9375 5.464705,0 9.9375,-4.472795 9.9375,-9.9375 0,-5.464705 -4.472795,-9.9375 -9.9375,-9.9375 z m 0,36 c -5.464705,0 -9.9375,4.472795 -9.9375,9.9375 0,4.00944 2.434878,7.451658 5.875,9 -2.19024,0.989881 -3.947619,2.74726 -4.9375,4.9375 -1.548342,-3.440122 -4.99056,-5.875 -9,-5.875 -5.464705,0 -9.9375,4.472795 -9.9375,9.9375 0,5.464705 4.472795,9.9375 9.9375,9.9375 4.00944,0 7.451658,-2.434878 9,-5.875 1.548342,3.440122 4.99056,5.875 9,5.875 5.464705,0 9.9375,-4.472795 9.9375,-9.9375 0,-4.00944 -2.434878,-7.451658 -5.875,-9 3.440122,-1.548342 5.875,-4.99056 5.875,-9 0,-5.464705 -4.472795,-9.9375 -9.9375,-9.9375 z m -54,18 c -5.464705,0 -9.9375,4.472795 -9.9375,9.9375 0,5.464705 4.472795,9.9375 9.9375,9.9375 5.464705,0 9.9375,-4.472795 9.9375,-9.9375 0,-5.464705 -4.472795,-9.9375 -9.9375,-9.9375 z"
       inkscape:connector-curvature="0"
       id="path4233"
       style="opacity:0.1;color:#000000;fill:#000000;fill-opacity:1;fill-rule:nonzero;stroke:none;stroke-width:0.5;marker:none;visibility:visible;display:inline;overflow:visible;enable-background:accumulate" />
    <path
       d="m 21,13.9375 c -4.994952,0 -9.0625,4.067548 -9.0625,9.0625 0,4.994952 4.067548,9.0625 9.0625,9.0625 4.88452,0 8.82543,-3.906889 9,-8.75 0.170624,4.733616 3.953884,8.516876 8.6875,8.6875 -4.843111,0.17457 -8.75,4.11548 -8.75,9 0,4.88452 3.906889,8.82543 8.75,9 -4.843111,0.17457 -8.75,4.11548 -8.75,9 0,4.994952 4.067548,9.0625 9.0625,9.0625 4.994952,0 9.0625,-4.067548 9.0625,-9.0625 0,-4.88452 -3.906889,-8.82543 -8.75,-9 4.733616,-0.170624 8.516876,-3.953884 8.6875,-8.6875 0.17457,4.843111 4.11548,8.75 9,8.75 4.994952,0 9.0625,-4.067548 9.0625,-9.0625 0,-4.994952 -4.067548,-9.0625 -9.0625,-9.0625 -4.88452,0 -8.82543,3.906889 -9,8.75 C 47.829376,35.953884 44.046116,32.170624 39.3125,32 c 4.843111,-0.17457 8.75,-4.11548 8.75,-9 0,-4.994952 -4.067548,-9.0625 -9.0625,-9.0625 -4.88452,0 -8.82543,3.906889 -9,8.75 -0.17457,-4.843111 -4.11548,-8.75 -9,-8.75 z m 54,0 c -4.994952,0 -9.0625,4.067548 -9.0625,9.0625 0,4.994952 4.067548,9.0625 9.0625,9.0625 4.994952,0 9.0625,-4.067548 9.0625,-9.0625 0,-4.994952 -4.067548,-9.0625 -9.0625,-9.0625 z m 0,36 c -4.994952,0 -9.0625,4.067548 -9.0625,9.0625 0,4.88452 3.906889,8.82543 8.75,9 -4.733616,0.170624 -8.516876,3.953884 -8.6875,8.6875 -0.17457,-4.843111 -4.11548,-8.75 -9,-8.75 -4.994952,0 -9.0625,4.067548 -9.0625,9.0625 0,4.994952 4.067548,9.0625 9.0625,9.0625 4.88452,0 8.82543,-3.906889 9,-8.75 0.17457,4.843111 4.11548,8.75 9,8.75 4.994952,0 9.0625,-4.067548 9.0625,-9.0625 0,-4.88452 -3.906889,-8.82543 -8.75,-9 4.843111,-0.17457 8.75,-4.11548 8.75,-9 0,-4.994952 -4.067548,-9.0625 -9.0625,-9.0625 z m -54,18 c -4.994952,0 -9.0625,4.067548 -9.0625,9.0625 0,4.994952 4.067548,9.0625 9.0625,9.0625 4.994952,0 9.0625,-4.067548 9.0625,-9.0625 0,-4.994952 -4.067548,-9.0625 -9.0625,-9.0625 z"
       id="path4229"
       style="opacity:0.15;color:#000000;fill:#000000;fill-opacity:1;fill-rule:nonzero;stroke:none;stroke-width:0.5;marker:none;visibility:visible;display:inline;overflow:visible;enable-background:accumulate"
       inkscape:connector-curvature="0" />
    <path
       d="m 21,15 c -4.418278,0 -8,3.581722 -8,8 0,4.418278 3.581722,8 8,8 4.418278,0 8,-3.581722 8,-8 0,-4.418278 -3.581722,-8 -8,-8 z m 18,0 c -4.418278,0 -8,3.581722 -8,8 0,4.418278 3.581722,8 8,8 4.418278,0 8,-3.581722 8,-8 0,-4.418278 -3.581722,-8 -8,-8 z m 36,0 c -4.418278,0 -8,3.581722 -8,8 0,4.418278 3.581722,8 8,8 4.418278,0 8,-3.581722 8,-8 0,-4.418278 -3.581722,-8 -8,-8 z M 39,33 c -4.418278,0 -8,3.581722 -8,8 0,4.418278 3.581722,8 8,8 4.418278,0 8,-3.581722 8,-8 0,-4.418278 -3.581722,-8 -8,-8 z m 18,0 c -4.418278,0 -8,3.581722 -8,8 0,4.418278 3.581722,8 8,8 4.418278,0 8,-3.581722 8,-8 0,-4.418278 -3.581722,-8 -8,-8 z M 39,51 c -4.418278,0 -8,3.581722 -8,8 0,4.418278 3.581722,8 8,8 4.418278,0 8,-3.581722 8,-8 0,-4.418278 -3.581722,-8 -8,-8 z m 36,0 c -4.418278,0 -8,3.581722 -8,8 0,4.418278 3.581722,8 8,8 4.418278,0 8,-3.581722 8,-8 0,-4.418278 -3.581722,-8 -8,-8 z M 21,69 c -4.418278,0 -8,3.581722 -8,8 0,4.418278 3.581722,8 8,8 4.418278,0 8,-3.581722 8,-8 0,-4.418278 -3.581722,-8 -8,-8 z m 36,0 c -4.418278,0 -8,3.581722 -8,8 0,4.418278 3.581722,8 8,8 4.418278,0 8,-3.581722 8,-8 0,-4.418278 -3.581722,-8 -8,-8 z m 18,0 c -4.418278,0 -8,3.581722 -8,8 0,4.418278 3.581722,8 8,8 4.418278,0 8,-3.581722 8,-8 0,-4.418278 -3.581722,-8 -8,-8 z"
       inkscape:connector-curvature="0"
       id="path4204"
       style="opacity:0.3;color:#000000;fill:#000000;fill-opacity:1;fill-rule:nonzero;stroke:none;stroke-width:0.5;marker:none;visibility:visible;display:inline;overflow:visible;enable-background:accumulate" />
    <g
       id="g4256">
      <path
         d="m 48,32 a 16,16 0 1 1 -32,0 16,16 0 1 1 32,0 z"
         transform="matrix(0.5,0,0,0.5,5,60)"
         id="path3976"
         style="color:#000000;fill:url(#radialGradient4240);fill-opacity:1;fill-rule:nonzero;stroke:none;stroke-width:0.5;marker:none;visibility:visible;display:inline;overflow:visible;enable-background:accumulate"
         inkscape:connector-curvature="0" />
      <path
         d="m 21,68 c -4.418278,0 -8,3.581722 -8,8 0,4.418278 3.581722,8 8,8 4.418278,0 8,-3.581722 8,-8 0,-4.418278 -3.581722,-8 -8,-8 z m 0,1 c 3.865993,0 7,3.134007 7,7 0,3.865993 -3.134007,7 -7,7 -3.865993,0 -7,-3.134007 -7,-7 0,-3.865993 3.134007,-7 7,-7 z"
         inkscape:connector-curvature="0"
         id="path3979"
         style="opacity:0.2;color:#000000;fill:#000000;fill-opacity:1;fill-rule:nonzero;stroke:none;stroke-width:0.5;marker:none;visibility:visible;display:inline;overflow:visible;enable-background:accumulate" />
      <path
         d="m 16.050897,80.950014 c 2.73367,2.73367 7.165825,2.73367 9.899495,0 2.73367,-2.733669 2.73367,-7.165825 0,-9.899495 -0.05931,-0.05931 -0.115915,-0.120016 -0.176777,-0.176776 2.360368,2.549521 2.30133,6.537505 -0.176776,9.015611 -2.538408,2.538408 -6.653981,2.538408 -9.192389,0 -2.478106,-2.478106 -2.537144,-6.46609 -0.176776,-9.015611 -0.06086,0.05676 -0.117461,0.117461 -0.176777,0.176776 -2.73367,2.73367 -2.73367,7.165826 0,9.899495 z"
         inkscape:connector-curvature="0"
         id="path3981"
         style="opacity:0.3;color:#000000;fill:url(#linearGradient4140);fill-opacity:1;fill-rule:nonzero;stroke:none;stroke-width:0.5;marker:none;visibility:visible;display:inline;overflow:visible;enable-background:accumulate" />
      <path
         d="m 48,32 a 16,16 0 1 1 -32,0 16,16 0 1 1 32,0 z"
         transform="matrix(0,0.21971455,-0.30527537,0,30.768812,65.475893)"
         id="path4144"
         style="color:#000000;fill:url(#linearGradient4152);fill-opacity:1;fill-rule:nonzero;stroke:none;stroke-width:0.5;marker:none;visibility:visible;display:inline;overflow:visible;enable-background:accumulate"
         inkscape:connector-curvature="0" />
    </g>
    <g
       transform="translate(36,0)"
       id="g4262">
      <path
         d="m 48,32 a 16,16 0 1 1 -32,0 16,16 0 1 1 32,0 z"
         transform="matrix(0.5,0,0,0.5,5,60)"
         id="path4264"
         style="color:#000000;fill:url(#radialGradient4272);fill-opacity:1;fill-rule:nonzero;stroke:none;stroke-width:0.5;marker:none;visibility:visible;display:inline;overflow:visible;enable-background:accumulate"
         inkscape:connector-curvature="0" />
      <path
         d="m 21,68 c -4.418278,0 -8,3.581722 -8,8 0,4.418278 3.581722,8 8,8 4.418278,0 8,-3.581722 8,-8 0,-4.418278 -3.581722,-8 -8,-8 z m 0,1 c 3.865993,0 7,3.134007 7,7 0,3.865993 -3.134007,7 -7,7 -3.865993,0 -7,-3.134007 -7,-7 0,-3.865993 3.134007,-7 7,-7 z"
         inkscape:connector-curvature="0"
         id="path4266"
         style="opacity:0.2;color:#000000;fill:#000000;fill-opacity:1;fill-rule:nonzero;stroke:none;stroke-width:0.5;marker:none;visibility:visible;display:inline;overflow:visible;enable-background:accumulate" />
      <path
         d="m 16.050897,80.950014 c 2.73367,2.73367 7.165825,2.73367 9.899495,0 2.73367,-2.733669 2.73367,-7.165825 0,-9.899495 -0.05931,-0.05931 -0.115915,-0.120016 -0.176777,-0.176776 2.360368,2.549521 2.30133,6.537505 -0.176776,9.015611 -2.538408,2.538408 -6.653981,2.538408 -9.192389,0 -2.478106,-2.478106 -2.537144,-6.46609 -0.176776,-9.015611 -0.06086,0.05676 -0.117461,0.117461 -0.176777,0.176776 -2.73367,2.73367 -2.73367,7.165826 0,9.899495 z"
         inkscape:connector-curvature="0"
         id="path4268"
         style="opacity:0.3;color:#000000;fill:url(#linearGradient4274);fill-opacity:1;fill-rule:nonzero;stroke:none;stroke-width:0.5;marker:none;visibility:visible;display:inline;overflow:visible;enable-background:accumulate" />
      <path
         d="m 48,32 a 16,16 0 1 1 -32,0 16,16 0 1 1 32,0 z"
         transform="matrix(0,0.21971455,-0.30527537,0,30.768812,65.475893)"
         id="path4270"
         style="color:#000000;fill:url(#linearGradient4276);fill-opacity:1;fill-rule:nonzero;stroke:none;stroke-width:0.5;marker:none;visibility:visible;display:inline;overflow:visible;enable-background:accumulate"
         inkscape:connector-curvature="0" />
    </g>
    <g
       transform="translate(18,-18)"
       id="g4278">
      <path
         d="m 48,32 a 16,16 0 1 1 -32,0 16,16 0 1 1 32,0 z"
         transform="matrix(0.5,0,0,0.5,5,60)"
         id="path4280"
         style="color:#000000;fill:url(#radialGradient4288);fill-opacity:1;fill-rule:nonzero;stroke:none;stroke-width:0.5;marker:none;visibility:visible;display:inline;overflow:visible;enable-background:accumulate"
         inkscape:connector-curvature="0" />
      <path
         d="m 21,68 c -4.418278,0 -8,3.581722 -8,8 0,4.418278 3.581722,8 8,8 4.418278,0 8,-3.581722 8,-8 0,-4.418278 -3.581722,-8 -8,-8 z m 0,1 c 3.865993,0 7,3.134007 7,7 0,3.865993 -3.134007,7 -7,7 -3.865993,0 -7,-3.134007 -7,-7 0,-3.865993 3.134007,-7 7,-7 z"
         inkscape:connector-curvature="0"
         id="path4282"
         style="opacity:0.2;color:#000000;fill:#000000;fill-opacity:1;fill-rule:nonzero;stroke:none;stroke-width:0.5;marker:none;visibility:visible;display:inline;overflow:visible;enable-background:accumulate" />
      <path
         d="m 16.050897,80.950014 c 2.73367,2.73367 7.165825,2.73367 9.899495,0 2.73367,-2.733669 2.73367,-7.165825 0,-9.899495 -0.05931,-0.05931 -0.115915,-0.120016 -0.176777,-0.176776 2.360368,2.549521 2.30133,6.537505 -0.176776,9.015611 -2.538408,2.538408 -6.653981,2.538408 -9.192389,0 -2.478106,-2.478106 -2.537144,-6.46609 -0.176776,-9.015611 -0.06086,0.05676 -0.117461,0.117461 -0.176777,0.176776 -2.73367,2.73367 -2.73367,7.165826 0,9.899495 z"
         inkscape:connector-curvature="0"
         id="path4284"
         style="opacity:0.3;color:#000000;fill:url(#linearGradient4290);fill-opacity:1;fill-rule:nonzero;stroke:none;stroke-width:0.5;marker:none;visibility:visible;display:inline;overflow:visible;enable-background:accumulate" />
      <path
         d="m 48,32 a 16,16 0 1 1 -32,0 16,16 0 1 1 32,0 z"
         transform="matrix(0,0.21971455,-0.30527537,0,30.768812,65.475893)"
         id="path4286"
         style="color:#000000;fill:url(#linearGradient4292);fill-opacity:1;fill-rule:nonzero;stroke:none;stroke-width:0.5;marker:none;visibility:visible;display:inline;overflow:visible;enable-background:accumulate"
         inkscape:connector-curvature="0" />
    </g>
    <g
       transform="translate(36,-36)"
       id="g4294">
      <path
         d="m 48,32 a 16,16 0 1 1 -32,0 16,16 0 1 1 32,0 z"
         transform="matrix(0.5,0,0,0.5,5,60)"
         id="path4296"
         style="color:#000000;fill:url(#radialGradient4304);fill-opacity:1;fill-rule:nonzero;stroke:none;stroke-width:0.5;marker:none;visibility:visible;display:inline;overflow:visible;enable-background:accumulate"
         inkscape:connector-curvature="0" />
      <path
         d="m 21,68 c -4.418278,0 -8,3.581722 -8,8 0,4.418278 3.581722,8 8,8 4.418278,0 8,-3.581722 8,-8 0,-4.418278 -3.581722,-8 -8,-8 z m 0,1 c 3.865993,0 7,3.134007 7,7 0,3.865993 -3.134007,7 -7,7 -3.865993,0 -7,-3.134007 -7,-7 0,-3.865993 3.134007,-7 7,-7 z"
         inkscape:connector-curvature="0"
         id="path4298"
         style="opacity:0.2;color:#000000;fill:#000000;fill-opacity:1;fill-rule:nonzero;stroke:none;stroke-width:0.5;marker:none;visibility:visible;display:inline;overflow:visible;enable-background:accumulate" />
      <path
         d="m 16.050897,80.950014 c 2.73367,2.73367 7.165825,2.73367 9.899495,0 2.73367,-2.733669 2.73367,-7.165825 0,-9.899495 -0.05931,-0.05931 -0.115915,-0.120016 -0.176777,-0.176776 2.360368,2.549521 2.30133,6.537505 -0.176776,9.015611 -2.538408,2.538408 -6.653981,2.538408 -9.192389,0 -2.478106,-2.478106 -2.537144,-6.46609 -0.176776,-9.015611 -0.06086,0.05676 -0.117461,0.117461 -0.176777,0.176776 -2.73367,2.73367 -2.73367,7.165826 0,9.899495 z"
         inkscape:connector-curvature="0"
         id="path4300"
         style="opacity:0.3;color:#000000;fill:url(#linearGradient4306);fill-opacity:1;fill-rule:nonzero;stroke:none;stroke-width:0.5;marker:none;visibility:visible;display:inline;overflow:visible;enable-background:accumulate" />
      <path
         d="m 48,32 a 16,16 0 1 1 -32,0 16,16 0 1 1 32,0 z"
         transform="matrix(0,0.21971455,-0.30527537,0,30.768812,65.475893)"
         id="path4302"
         style="color:#000000;fill:url(#linearGradient4308);fill-opacity:1;fill-rule:nonzero;stroke:none;stroke-width:0.5;marker:none;visibility:visible;display:inline;overflow:visible;enable-background:accumulate"
         inkscape:connector-curvature="0" />
    </g>
    <g
       transform="translate(54,-54)"
       id="g4310">
      <path
         d="m 48,32 a 16,16 0 1 1 -32,0 16,16 0 1 1 32,0 z"
         transform="matrix(0.5,0,0,0.5,5,60)"
         id="path4312"
         style="color:#000000;fill:url(#radialGradient4320);fill-opacity:1;fill-rule:nonzero;stroke:none;stroke-width:0.5;marker:none;visibility:visible;display:inline;overflow:visible;enable-background:accumulate"
         inkscape:connector-curvature="0" />
      <path
         d="m 21,68 c -4.418278,0 -8,3.581722 -8,8 0,4.418278 3.581722,8 8,8 4.418278,0 8,-3.581722 8,-8 0,-4.418278 -3.581722,-8 -8,-8 z m 0,1 c 3.865993,0 7,3.134007 7,7 0,3.865993 -3.134007,7 -7,7 -3.865993,0 -7,-3.134007 -7,-7 0,-3.865993 3.134007,-7 7,-7 z"
         inkscape:connector-curvature="0"
         id="path4314"
         style="opacity:0.2;color:#000000;fill:#000000;fill-opacity:1;fill-rule:nonzero;stroke:none;stroke-width:0.5;marker:none;visibility:visible;display:inline;overflow:visible;enable-background:accumulate" />
      <path
         d="m 16.050897,80.950014 c 2.73367,2.73367 7.165825,2.73367 9.899495,0 2.73367,-2.733669 2.73367,-7.165825 0,-9.899495 -0.05931,-0.05931 -0.115915,-0.120016 -0.176777,-0.176776 2.360368,2.549521 2.30133,6.537505 -0.176776,9.015611 -2.538408,2.538408 -6.653981,2.538408 -9.192389,0 -2.478106,-2.478106 -2.537144,-6.46609 -0.176776,-9.015611 -0.06086,0.05676 -0.117461,0.117461 -0.176777,0.176776 -2.73367,2.73367 -2.73367,7.165826 0,9.899495 z"
         inkscape:connector-curvature="0"
         id="path4316"
         style="opacity:0.3;color:#000000;fill:url(#linearGradient4322);fill-opacity:1;fill-rule:nonzero;stroke:none;stroke-width:0.5;marker:none;visibility:visible;display:inline;overflow:visible;enable-background:accumulate" />
      <path
         d="m 48,32 a 16,16 0 1 1 -32,0 16,16 0 1 1 32,0 z"
         transform="matrix(0,0.21971455,-0.30527537,0,30.768812,65.475893)"
         id="path4318"
         style="color:#000000;fill:url(#linearGradient4324);fill-opacity:1;fill-rule:nonzero;stroke:none;stroke-width:0.5;marker:none;visibility:visible;display:inline;overflow:visible;enable-background:accumulate"
         inkscape:connector-curvature="0" />
    </g>
    <g
       id="g4358">
      <path
         d="m 48,32 a 16,16 0 1 1 -32,0 16,16 0 1 1 32,0 z"
         transform="matrix(0.5,0,0,0.5,59,60)"
         id="path4328"
         style="color:#000000;fill:url(#radialGradient4364);fill-opacity:1;fill-rule:nonzero;stroke:none;stroke-width:0.5;marker:none;visibility:visible;display:inline;overflow:visible;enable-background:accumulate"
         inkscape:connector-curvature="0" />
      <path
         d="m 75,68 c -4.418278,0 -8,3.581722 -8,8 0,4.418278 3.581722,8 8,8 4.418278,0 8,-3.581722 8,-8 0,-4.418278 -3.581722,-8 -8,-8 z m 0,1 c 3.865993,0 7,3.134007 7,7 0,3.865993 -3.134007,7 -7,7 -3.865993,0 -7,-3.134007 -7,-7 0,-3.865993 3.134007,-7 7,-7 z"
         inkscape:connector-curvature="0"
         id="path4330"
         style="opacity:0.2;color:#000000;fill:#000000;fill-opacity:1;fill-rule:nonzero;stroke:none;stroke-width:0.5;marker:none;visibility:visible;display:inline;overflow:visible;enable-background:accumulate" />
      <path
         d="m 70.050897,80.950014 c 2.73367,2.73367 7.165825,2.73367 9.899495,0 2.73367,-2.733669 2.73367,-7.165825 0,-9.899495 -0.05931,-0.05931 -0.115915,-0.120016 -0.176777,-0.176776 2.360368,2.549521 2.30133,6.537505 -0.176776,9.015611 -2.538408,2.538408 -6.653981,2.538408 -9.192389,0 -2.478106,-2.478106 -2.537144,-6.46609 -0.176776,-9.015611 -0.06086,0.05676 -0.117461,0.117461 -0.176777,0.176776 -2.73367,2.73367 -2.73367,7.165826 0,9.899495 z"
         inkscape:connector-curvature="0"
         id="path4332"
         style="opacity:0.3;color:#000000;fill:url(#linearGradient4366);fill-opacity:1;fill-rule:nonzero;stroke:none;stroke-width:0.5;marker:none;visibility:visible;display:inline;overflow:visible;enable-background:accumulate" />
      <path
         d="m 48,32 a 16,16 0 1 1 -32,0 16,16 0 1 1 32,0 z"
         transform="matrix(0,0.21971455,-0.30527537,0,84.768812,65.475893)"
         id="path4334"
         style="color:#000000;fill:url(#linearGradient4368);fill-opacity:1;fill-rule:nonzero;stroke:none;stroke-width:0.5;marker:none;visibility:visible;display:inline;overflow:visible;enable-background:accumulate"
         inkscape:connector-curvature="0" />
    </g>
    <g
       transform="translate(-36,-36)"
       id="g4370">
      <path
         d="m 48,32 a 16,16 0 1 1 -32,0 16,16 0 1 1 32,0 z"
         transform="matrix(0.5,0,0,0.5,59,60)"
         id="path4372"
         style="color:#000000;fill:url(#radialGradient4380);fill-opacity:1;fill-rule:nonzero;stroke:none;stroke-width:0.5;marker:none;visibility:visible;display:inline;overflow:visible;enable-background:accumulate"
         inkscape:connector-curvature="0" />
      <path
         d="m 75,68 c -4.418278,0 -8,3.581722 -8,8 0,4.418278 3.581722,8 8,8 4.418278,0 8,-3.581722 8,-8 0,-4.418278 -3.581722,-8 -8,-8 z m 0,1 c 3.865993,0 7,3.134007 7,7 0,3.865993 -3.134007,7 -7,7 -3.865993,0 -7,-3.134007 -7,-7 0,-3.865993 3.134007,-7 7,-7 z"
         inkscape:connector-curvature="0"
         id="path4374"
         style="opacity:0.2;color:#000000;fill:#000000;fill-opacity:1;fill-rule:nonzero;stroke:none;stroke-width:0.5;marker:none;visibility:visible;display:inline;overflow:visible;enable-background:accumulate" />
      <path
         d="m 70.050897,80.950014 c 2.73367,2.73367 7.165825,2.73367 9.899495,0 2.73367,-2.733669 2.73367,-7.165825 0,-9.899495 -0.05931,-0.05931 -0.115915,-0.120016 -0.176777,-0.176776 2.360368,2.549521 2.30133,6.537505 -0.176776,9.015611 -2.538408,2.538408 -6.653981,2.538408 -9.192389,0 -2.478106,-2.478106 -2.537144,-6.46609 -0.176776,-9.015611 -0.06086,0.05676 -0.117461,0.117461 -0.176777,0.176776 -2.73367,2.73367 -2.73367,7.165826 0,9.899495 z"
         inkscape:connector-curvature="0"
         id="path4376"
         style="opacity:0.3;color:#000000;fill:url(#linearGradient4382);fill-opacity:1;fill-rule:nonzero;stroke:none;stroke-width:0.5;marker:none;visibility:visible;display:inline;overflow:visible;enable-background:accumulate" />
      <path
         d="m 48,32 a 16,16 0 1 1 -32,0 16,16 0 1 1 32,0 z"
         transform="matrix(0,0.21971455,-0.30527537,0,84.768812,65.475893)"
         id="path4378"
         style="color:#000000;fill:url(#linearGradient4384);fill-opacity:1;fill-rule:nonzero;stroke:none;stroke-width:0.5;marker:none;visibility:visible;display:inline;overflow:visible;enable-background:accumulate"
         inkscape:connector-curvature="0" />
    </g>
    <g
       transform="translate(-54,-54)"
       id="g4386">
      <path
         d="m 48,32 a 16,16 0 1 1 -32,0 16,16 0 1 1 32,0 z"
         transform="matrix(0.5,0,0,0.5,59,60)"
         id="path4388"
         style="color:#000000;fill:url(#radialGradient4396);fill-opacity:1;fill-rule:nonzero;stroke:none;stroke-width:0.5;marker:none;visibility:visible;display:inline;overflow:visible;enable-background:accumulate"
         inkscape:connector-curvature="0" />
      <path
         d="m 75,68 c -4.418278,0 -8,3.581722 -8,8 0,4.418278 3.581722,8 8,8 4.418278,0 8,-3.581722 8,-8 0,-4.418278 -3.581722,-8 -8,-8 z m 0,1 c 3.865993,0 7,3.134007 7,7 0,3.865993 -3.134007,7 -7,7 -3.865993,0 -7,-3.134007 -7,-7 0,-3.865993 3.134007,-7 7,-7 z"
         inkscape:connector-curvature="0"
         id="path4390"
         style="opacity:0.2;color:#000000;fill:#000000;fill-opacity:1;fill-rule:nonzero;stroke:none;stroke-width:0.5;marker:none;visibility:visible;display:inline;overflow:visible;enable-background:accumulate" />
      <path
         d="m 70.050897,80.950014 c 2.73367,2.73367 7.165825,2.73367 9.899495,0 2.73367,-2.733669 2.73367,-7.165825 0,-9.899495 -0.05931,-0.05931 -0.115915,-0.120016 -0.176777,-0.176776 2.360368,2.549521 2.30133,6.537505 -0.176776,9.015611 -2.538408,2.538408 -6.653981,2.538408 -9.192389,0 -2.478106,-2.478106 -2.537144,-6.46609 -0.176776,-9.015611 -0.06086,0.05676 -0.117461,0.117461 -0.176777,0.176776 -2.73367,2.73367 -2.73367,7.165826 0,9.899495 z"
         inkscape:connector-curvature="0"
         id="path4392"
         style="opacity:0.3;color:#000000;fill:url(#linearGradient4398);fill-opacity:1;fill-rule:nonzero;stroke:none;stroke-width:0.5;marker:none;visibility:visible;display:inline;overflow:visible;enable-background:accumulate" />
      <path
         d="m 48,32 a 16,16 0 1 1 -32,0 16,16 0 1 1 32,0 z"
         transform="matrix(0,0.21971455,-0.30527537,0,84.768812,65.475893)"
         id="path4394"
         style="color:#000000;fill:url(#linearGradient4400);fill-opacity:1;fill-rule:nonzero;stroke:none;stroke-width:0.5;marker:none;visibility:visible;display:inline;overflow:visible;enable-background:accumulate"
         inkscape:connector-curvature="0" />
    </g>
    <g
       id="g4434">
      <path
         d="m 48,32 a 16,16 0 1 1 -32,0 16,16 0 1 1 32,0 z"
         transform="matrix(0.5,0,0,0.5,59,42)"
         id="path4404"
         style="color:#000000;fill:url(#radialGradient4440);fill-opacity:1;fill-rule:nonzero;stroke:none;stroke-width:0.5;marker:none;visibility:visible;display:inline;overflow:visible;enable-background:accumulate"
         inkscape:connector-curvature="0" />
      <path
         d="m 75,50 c -4.418278,0 -8,3.581722 -8,8 0,4.418278 3.581722,8 8,8 4.418278,0 8,-3.581722 8,-8 0,-4.418278 -3.581722,-8 -8,-8 z m 0,1 c 3.865993,0 7,3.134007 7,7 0,3.865993 -3.134007,7 -7,7 -3.865993,0 -7,-3.134007 -7,-7 0,-3.865993 3.134007,-7 7,-7 z"
         inkscape:connector-curvature="0"
         id="path4406"
         style="opacity:0.2;color:#000000;fill:#000000;fill-opacity:1;fill-rule:nonzero;stroke:none;stroke-width:0.5;marker:none;visibility:visible;display:inline;overflow:visible;enable-background:accumulate" />
      <path
         d="m 70.050897,62.950014 c 2.73367,2.73367 7.165825,2.73367 9.899495,0 2.73367,-2.733669 2.73367,-7.165825 0,-9.899495 -0.05931,-0.05931 -0.115915,-0.120016 -0.176777,-0.176776 2.360368,2.549521 2.30133,6.537505 -0.176776,9.015611 -2.538408,2.538408 -6.653981,2.538408 -9.192389,0 -2.478106,-2.478106 -2.537144,-6.46609 -0.176776,-9.015611 -0.06086,0.05676 -0.117461,0.117461 -0.176777,0.176776 -2.73367,2.73367 -2.73367,7.165826 0,9.899495 z"
         inkscape:connector-curvature="0"
         id="path4408"
         style="opacity:0.3;color:#000000;fill:url(#linearGradient4442);fill-opacity:1;fill-rule:nonzero;stroke:none;stroke-width:0.5;marker:none;visibility:visible;display:inline;overflow:visible;enable-background:accumulate" />
      <path
         d="m 48,32 a 16,16 0 1 1 -32,0 16,16 0 1 1 32,0 z"
         transform="matrix(0,0.21971455,-0.30527537,0,84.768812,47.475893)"
         id="path4410"
         style="color:#000000;fill:url(#linearGradient4444);fill-opacity:1;fill-rule:nonzero;stroke:none;stroke-width:0.5;marker:none;visibility:visible;display:inline;overflow:visible;enable-background:accumulate"
         inkscape:connector-curvature="0" />
    </g>
    <g
       transform="translate(-36,-36)"
       id="g4446">
      <path
         d="m 48,32 a 16,16 0 1 1 -32,0 16,16 0 1 1 32,0 z"
         transform="matrix(0.5,0,0,0.5,59,42)"
         id="path4448"
         style="color:#000000;fill:url(#radialGradient4456);fill-opacity:1;fill-rule:nonzero;stroke:none;stroke-width:0.5;marker:none;visibility:visible;display:inline;overflow:visible;enable-background:accumulate"
         inkscape:connector-curvature="0" />
      <path
         d="m 75,50 c -4.418278,0 -8,3.581722 -8,8 0,4.418278 3.581722,8 8,8 4.418278,0 8,-3.581722 8,-8 0,-4.418278 -3.581722,-8 -8,-8 z m 0,1 c 3.865993,0 7,3.134007 7,7 0,3.865993 -3.134007,7 -7,7 -3.865993,0 -7,-3.134007 -7,-7 0,-3.865993 3.134007,-7 7,-7 z"
         inkscape:connector-curvature="0"
         id="path4450"
         style="opacity:0.2;color:#000000;fill:#000000;fill-opacity:1;fill-rule:nonzero;stroke:none;stroke-width:0.5;marker:none;visibility:visible;display:inline;overflow:visible;enable-background:accumulate" />
      <path
         d="m 70.050897,62.950014 c 2.73367,2.73367 7.165825,2.73367 9.899495,0 2.73367,-2.733669 2.73367,-7.165825 0,-9.899495 -0.05931,-0.05931 -0.115915,-0.120016 -0.176777,-0.176776 2.360368,2.549521 2.30133,6.537505 -0.176776,9.015611 -2.538408,2.538408 -6.653981,2.538408 -9.192389,0 -2.478106,-2.478106 -2.537144,-6.46609 -0.176776,-9.015611 -0.06086,0.05676 -0.117461,0.117461 -0.176777,0.176776 -2.73367,2.73367 -2.73367,7.165826 0,9.899495 z"
         inkscape:connector-curvature="0"
         id="path4452"
         style="opacity:0.3;color:#000000;fill:url(#linearGradient4458);fill-opacity:1;fill-rule:nonzero;stroke:none;stroke-width:0.5;marker:none;visibility:visible;display:inline;overflow:visible;enable-background:accumulate" />
      <path
         d="m 48,32 a 16,16 0 1 1 -32,0 16,16 0 1 1 32,0 z"
         transform="matrix(0,0.21971455,-0.30527537,0,84.768812,47.475893)"
         id="path4454"
         style="color:#000000;fill:url(#linearGradient4460);fill-opacity:1;fill-rule:nonzero;stroke:none;stroke-width:0.5;marker:none;visibility:visible;display:inline;overflow:visible;enable-background:accumulate"
         inkscape:connector-curvature="0" />
    </g>
  </g>
</svg>
