<?xml version="1.0" encoding="UTF-8" standalone="no"?>
<!-- Created with Inkscape (http://www.inkscape.org/) -->

<svg
   xmlns:dc="http://purl.org/dc/elements/1.1/"
   xmlns:cc="http://creativecommons.org/ns#"
   xmlns:rdf="http://www.w3.org/1999/02/22-rdf-syntax-ns#"
   xmlns:svg="http://www.w3.org/2000/svg"
   xmlns="http://www.w3.org/2000/svg"
   xmlns:xlink="http://www.w3.org/1999/xlink"
   xmlns:sodipodi="http://sodipodi.sourceforge.net/DTD/sodipodi-0.dtd"
   xmlns:inkscape="http://www.inkscape.org/namespaces/inkscape"
   version="1.0"
   width="96"
   height="96"
   id="svg2408"
   inkscape:version="0.48.1 r9760"
   sodipodi:docname="gnome-gnibbles.svg">
  <sodipodi:namedview
     pagecolor="#ffffff"
     bordercolor="#666666"
     borderopacity="1"
     objecttolerance="10"
     gridtolerance="10"
     guidetolerance="10"
     inkscape:pageopacity="0"
     inkscape:pageshadow="2"
     inkscape:window-width="1066"
     inkscape:window-height="905"
     id="namedview93"
     showgrid="false"
     inkscape:zoom="3.3020833"
     inkscape:cx="48.908517"
     inkscape:cy="51.785489"
     inkscape:window-x="0"
     inkscape:window-y="24"
     inkscape:window-maximized="0"
     inkscape:current-layer="svg2408" />
  <defs
     id="defs2410">
    <linearGradient
       inkscape:collect="always"
       id="linearGradient3070">
      <stop
         style="stop-color:#d87070;stop-opacity:1;"
         offset="0"
         id="stop3072" />
      <stop
         style="stop-color:#d87070;stop-opacity:0;"
         offset="1"
         id="stop3074" />
    </linearGradient>
    <linearGradient
       id="linearGradient3982">
      <stop
         id="stop3984"
         style="stop-color:#e9ddaf;stop-opacity:1"
         offset="0" />
      <stop
         id="stop3986"
         style="stop-color:#e9ddaf;stop-opacity:0"
         offset="1" />
    </linearGradient>
    <linearGradient
       id="linearGradient3927">
      <stop
         id="stop3929"
         style="stop-color:#5c8947;stop-opacity:1"
         offset="0" />
      <stop
         id="stop3931"
         style="stop-color:#99c376;stop-opacity:1"
         offset="1" />
    </linearGradient>
    <linearGradient
       id="linearGradient3917">
      <stop
         id="stop3919"
         style="stop-color:#f4d7d7;stop-opacity:1"
         offset="0" />
      <stop
         id="stop3921"
         style="stop-color:#e9afaf;stop-opacity:1"
         offset="1" />
    </linearGradient>
    <linearGradient
       id="linearGradient4208">
      <stop
         id="stop4210"
         style="stop-color:#f3840c;stop-opacity:1"
         offset="0" />
      <stop
         id="stop4212"
         style="stop-color:#f2b80c;stop-opacity:1"
         offset="1" />
    </linearGradient>
    <linearGradient
       x1="45.447727"
       y1="92.539597"
       x2="45.447727"
       y2="7.0165396"
       id="ButtonShadow"
       gradientUnits="userSpaceOnUse"
       gradientTransform="scale(1.0058652,0.994169)">
      <stop
         id="stop3750"
         style="stop-color:#000000;stop-opacity:1"
         offset="0" />
      <stop
         id="stop3752"
         style="stop-color:#000000;stop-opacity:0.58823532"
         offset="1" />
    </linearGradient>
    <linearGradient
       id="linearGradient3737">
      <stop
         id="stop3739"
         style="stop-color:#ffffff;stop-opacity:1"
         offset="0" />
      <stop
         id="stop3741"
         style="stop-color:#ffffff;stop-opacity:0"
         offset="1" />
    </linearGradient>
    <filter
       color-interpolation-filters="sRGB"
       id="filter3174">
      <feGaussianBlur
         id="feGaussianBlur3176"
         stdDeviation="1.71" />
    </filter>
    <linearGradient
       x1="36.357143"
       y1="6"
       x2="36.357143"
       y2="63.893143"
       id="linearGradient3188"
       xlink:href="#linearGradient3737"
       gradientUnits="userSpaceOnUse" />
    <filter
       x="-0.192"
       y="-0.192"
       width="1.3839999"
       height="1.3839999"
       color-interpolation-filters="sRGB"
       id="filter3794">
      <feGaussianBlur
         id="feGaussianBlur3796"
         stdDeviation="5.28" />
    </filter>
    <linearGradient
       x1="48"
       y1="20.220806"
       x2="48"
       y2="138.66119"
       id="linearGradient3613"
       xlink:href="#linearGradient3737"
       gradientUnits="userSpaceOnUse" />
    <radialGradient
       cx="48"
       cy="90.171875"
       r="42"
       fx="48"
       fy="90.171875"
       id="radialGradient3619"
       xlink:href="#linearGradient3737"
       gradientUnits="userSpaceOnUse"
       gradientTransform="matrix(1.1573129,0,0,0.99590774,-7.5510206,0.19713193)" />
    <clipPath
       id="clipPath3613">
      <rect
         width="84"
         height="84"
         rx="6"
         ry="6"
         x="6"
         y="6"
         id="rect3615"
         style="fill:#ffffff;fill-opacity:1;fill-rule:nonzero;stroke:none" />
    </clipPath>
    <linearGradient
       x1="48"
       y1="90"
       x2="48"
       y2="5.9877172"
       id="linearGradient4206"
       xlink:href="#linearGradient3927"
       gradientUnits="userSpaceOnUse" />
    <linearGradient
       x1="48"
       y1="90"
       x2="48"
       y2="5.9877172"
       id="linearGradient4214"
       xlink:href="#linearGradient4208"
       gradientUnits="userSpaceOnUse" />
    <linearGradient
       x1="45.447727"
       y1="92.539597"
       x2="45.447727"
       y2="7.0165396"
       id="ButtonShadow-0"
       gradientUnits="userSpaceOnUse"
       gradientTransform="matrix(1.0058652,0,0,0.994169,100,0)">
      <stop
         id="stop3750-8"
         style="stop-color:#000000;stop-opacity:1"
         offset="0" />
      <stop
         id="stop3752-5"
         style="stop-color:#000000;stop-opacity:0.58823532"
         offset="1" />
    </linearGradient>
    <linearGradient
       x1="32.251034"
       y1="6.1317081"
       x2="32.251034"
       y2="90.238609"
       id="linearGradient3780"
       xlink:href="#ButtonShadow-0"
       gradientUnits="userSpaceOnUse"
       gradientTransform="matrix(1.0238095,0,0,1.0119048,-1.1428571,-98.071429)" />
    <linearGradient
       x1="32.251034"
       y1="6.1317081"
       x2="32.251034"
       y2="90.238609"
       id="linearGradient3772"
       xlink:href="#ButtonShadow-0"
       gradientUnits="userSpaceOnUse"
       gradientTransform="matrix(1.0238095,0,0,1.0119048,-1.1428571,-98.071429)" />
    <linearGradient
       x1="32.251034"
       y1="6.1317081"
       x2="32.251034"
       y2="90.238609"
       id="linearGradient3725"
       xlink:href="#ButtonShadow-0"
       gradientUnits="userSpaceOnUse"
       gradientTransform="matrix(1.0238095,0,0,1.0119048,-1.1428571,-98.071429)" />
    <linearGradient
       x1="32.251034"
       y1="6.1317081"
       x2="32.251034"
       y2="90.238609"
       id="linearGradient3721"
       xlink:href="#ButtonShadow-0"
       gradientUnits="userSpaceOnUse"
       gradientTransform="translate(0,-97)" />
    <linearGradient
       x1="32.251034"
       y1="6.1317081"
       x2="32.251034"
       y2="90.238609"
       id="linearGradient3059"
       xlink:href="#ButtonShadow-0"
       gradientUnits="userSpaceOnUse"
       gradientTransform="matrix(1.0238095,0,0,1.0119048,-1.1428571,-98.071429)" />
    <linearGradient
       id="linearGradient2955">
      <stop
         id="stop2957"
         style="stop-color:#d0d0d0;stop-opacity:1"
         offset="0" />
      <stop
         id="stop3689"
         style="stop-color:#ffffff;stop-opacity:1"
         offset="0" />
      <stop
         id="stop3709"
         style="stop-color:#ffffff;stop-opacity:1"
         offset="0.32900786" />
      <stop
         id="stop2959"
         style="stop-color:#d0d0d0;stop-opacity:1"
         offset="1" />
    </linearGradient>
    <linearGradient
       id="linearGradient3714">
      <stop
         id="stop3718"
         style="stop-color:#d0d0d0;stop-opacity:1"
         offset="0" />
      <stop
         id="stop3722"
         style="stop-color:#b0b0b0;stop-opacity:0"
         offset="1" />
    </linearGradient>
    <linearGradient
       id="linearGradient8606">
      <stop
         id="stop8608"
         style="stop-color:#eeeeec;stop-opacity:1"
         offset="0" />
      <stop
         id="stop8610"
         style="stop-color:#eeeeec;stop-opacity:0"
         offset="1" />
    </linearGradient>
    <linearGradient
       x1="301.55588"
       y1="483.00668"
       x2="308.30713"
       y2="497.39062"
       id="linearGradient3121"
       xlink:href="#linearGradient3714"
       gradientUnits="userSpaceOnUse"
       gradientTransform="matrix(0.1041992,0,0,0.1041992,18.875723,-2.8583158)" />
    <linearGradient
       x1="222.58693"
       y1="499.1156"
       x2="294.27078"
       y2="432.7995"
       id="linearGradient3128"
       xlink:href="#linearGradient2955"
       gradientUnits="userSpaceOnUse"
       gradientTransform="matrix(0.1041992,0,0,0.1041992,18.875723,-2.8583158)" />
    <linearGradient
       x1="0.86083812"
       y1="4.9364119"
       x2="45.033524"
       y2="25.572334"
       id="linearGradient3134"
       xlink:href="#linearGradient8606"
       gradientUnits="userSpaceOnUse"
       gradientTransform="matrix(0.88395799,0,0,0.88395799,35.474721,27.336764)" />
    <radialGradient
       cx="40"
       cy="40.301125"
       r="26.875792"
       fx="40"
       fy="40.301125"
       id="radialGradient3925"
       xlink:href="#linearGradient3917"
       gradientUnits="userSpaceOnUse"
       gradientTransform="matrix(0.70806257,0,0,0.73575716,18.945174,14.702004)" />
    <radialGradient
       cx="48"
       cy="48"
       r="42"
       fx="48"
       fy="48"
       id="radialGradient3988"
       xlink:href="#linearGradient3982"
       gradientUnits="userSpaceOnUse"
       gradientTransform="matrix(1.7161502,0,1.3855817e-8,1.7387599,-34.375213,-35.460475)" />
    <linearGradient
       inkscape:collect="always"
       xlink:href="#linearGradient3070"
       id="linearGradient3076"
       x1="130.44827"
       y1="43.47826"
       x2="128.51842"
       y2="43.90712"
       gradientUnits="userSpaceOnUse" />
  </defs>
  <metadata
     id="metadata2413">
    <rdf:RDF>
      <cc:Work
         rdf:about="">
        <dc:format>image/svg+xml</dc:format>
        <dc:type
           rdf:resource="http://purl.org/dc/dcmitype/StillImage" />
        <dc:title />
      </cc:Work>
    </rdf:RDF>
  </metadata>
  <g
     id="layer2"
     style="display:none">
    <rect
       width="86"
       height="85"
       rx="6"
       ry="6"
       x="5"
       y="7"
       id="rect3745"
       style="opacity:0.9;fill:url(#ButtonShadow);fill-opacity:1;fill-rule:nonzero;stroke:none;filter:url(#filter3174)" />
  </g>
  <g
     id="layer3"
     transform="matrix(1.4123046,0,0,1.4123046,-26.756356,-22.641141)">
    <path
       d="m 42.5625,17.9375 c -9.189682,-0.08049 -18.368344,7.400939 -18.46875,17 a 1.056579,1.056579 0 0 0 0,0.03125 C 24.232571,41.319996 26.144425,47.515408 28,53.40625 a 1.056579,1.056579 0 0 0 0,0.03125 c 2.727397,7.814508 5.747831,15.870959 11.03125,22.59375 a 1.056579,1.056579 0 0 0 0.03125,0 c 1.670344,2.088035 4.367419,4.183636 7.4375,3.8125 l 0,0.03125 c 0.05455,5.87e-4 0.101886,-0.03085 0.15625,-0.03125 3.380483,-0.02466 6.368769,-1.91494 8.28125,-4.53125 l 0.03125,0 c 0.0046,-0.0063 -0.0046,-0.02497 0,-0.03125 1.966559,-2.529348 3.500558,-5.223429 5.15625,-7.78125 2.634781,4.940344 6.307872,10.166481 12.5,11.21875 a 1.056579,1.056579 0 0 0 0.03125,0 c 1.862475,0.276465 4.010974,0.29082 6,-0.3125 1.955138,-0.593041 3.775893,-1.866533 4.71875,-3.96875 l 0.03125,0 c 0.01102,-0.02133 0.02056,-0.0411 0.03125,-0.0625 0.0048,-0.0096 -0.0047,-0.02164 0,-0.03125 0.811108,-1.648318 0.681772,-3.508517 -0.0625,-5 -0.754331,-1.511642 -2.100168,-2.734234 -3.75,-3.3125 -0.0088,-0.0032 -0.02249,0.0032 -0.03125,0 -2.628873,-0.974761 -4.970001,-2.646155 -5.75,-5.21875 -1.718745,-5.502883 -3.564799,-11.935704 -8.875,-15.71875 A 1.056579,1.056579 0 0 0 64.875,45.0625 C 64.127353,44.616395 63.174396,44.131142 62.09375,43.90625 61.082733,43.695849 59.886695,43.79369 58.90625,44.5 L 58.875,44.46875 c -0.04791,0.02591 -0.07761,0.06737 -0.125,0.09375 -0.01935,0.01559 -0.04335,0.0151 -0.0625,0.03125 -3.15487,1.777968 -5.143642,4.563401 -6.90625,7.40625 2.337076,-5.499478 5.570571,-11.272419 4.5625,-17.9375 l 0.03125,0 C 56.374275,34.01086 56.34489,33.958006 56.34375,33.90625 56.212196,27.925705 53.348959,21.154059 47.15625,18.875 45.682022,18.305424 44.128774,18.04638 42.625,17.9375 a 1.056579,1.056579 0 0 0 -0.0625,0 z"
       id="path3956"
       style="opacity:0.05;fill:#000000;fill-opacity:1;fill-rule:evenodd;stroke:none"
       inkscape:connector-curvature="0" />
    <path
       d="m 42.5625,19 c -8.602548,-0.07535 -17.318703,7.014992 -17.411975,15.932031 0.134516,6.154287 1.993858,12.281785 3.8471,18.165221 2.721158,7.796633 5.719417,15.726701 10.870266,22.280806 1.555518,1.944495 4.101121,3.811149 6.632109,3.434442 3.052199,0.03282 5.850549,-1.712894 7.622078,-4.154996 2.258675,-2.900116 3.972008,-6.173665 6.065422,-9.188754 2.628166,5.263808 6.345523,11.137029 12.629512,12.204909 3.478765,0.516387 8.064091,-0.03564 9.643157,-3.72824 1.393288,-2.697371 -0.446416,-5.963331 -3.206752,-6.91753 -2.818593,-1.03939 -5.502404,-2.903251 -6.416159,-5.917001 C 71.115944,55.599781 69.287677,49.492511 64.348493,45.973782 62.977024,45.155455 60.77891,44.222425 59.375,45.40625 c -4.724013,2.55443 -6.836277,7.81768 -9.787532,12.020726 -0.974102,0.512164 0.06815,-3.16722 0.531775,-4.246298 C 52.496248,47.04957 56.420939,40.926283 55.3125,34.0625 55.232655,28.374009 52.470503,21.958526 46.774971,19.86244 45.430617,19.343042 43.994292,19.103668 42.5625,19 z m 2.21875,59.3125 c 0.724121,0.643756 0.07982,0.267362 0,0 z"
       inkscape:connector-curvature="0"
       id="path3950"
       style="opacity:0.1;fill:#000000;fill-opacity:1;fill-rule:evenodd;stroke:none" />
    <path
       d="m 42.53125,20.09375 c -1.313648,-0.03256 -2.646392,0.137467 -3.9375,0.46875 -3.44764,0.884632 -6.719169,2.936328 -9.0625,5.71875 -2.328437,2.764738 -3.720696,6.353193 -3.28125,10.15625 -0.01186,-0.158426 -0.01326,-0.144476 0,0.03125 6.79e-4,0.009 -6.89e-4,0.02223 0,0.03125 0.480734,6.289944 3.394561,16.304519 7.03125,24.9375 1.824644,4.331445 3.847944,8.26942 5.875,11.21875 1.013551,1.474698 2.019923,2.71191 3.09375,3.625 1.032494,0.877944 2.181871,1.474354 3.4375,1.5 0.04301,0.0049 0.01151,0.03107 0.0625,0.03125 0.0547,0.0068 0.02733,0.03257 0.09375,0.03125 a 0.96110072,0.96110072 0 0 0 0.375,-0.09375 c 1.788174,0.108145 3.437972,-0.429705 4.78125,-1.46875 1.489706,-1.15231 2.694019,-2.733996 3.8125,-4.4375 1.921985,-2.92728 3.641881,-6.120576 5.4375,-8.4375 0.06541,0.114698 0.08628,0.121712 0.15625,0.25 0.663388,1.216386 1.559317,3.041142 2.71875,4.9375 1.159705,1.896802 2.581899,3.884856 4.4375,5.4375 1.844118,1.543036 4.179006,2.669174 6.90625,2.6875 0.01077,7.2e-5 0.02047,-3.8e-5 0.03125,0 0.01052,6.94e-4 0.02073,-6.68e-4 0.03125,0 1.601314,0.101649 3.236712,-0.09132 4.625,-0.78125 1.450219,-0.720708 2.616619,-2.159999 2.6875,-4 a 0.96110072,0.96110072 0 0 0 0,-0.03125 c 0.01509,-1.521355 -0.906288,-2.670479 -1.9375,-3.3125 -0.970052,-0.603944 -1.990695,-0.936993 -3.03125,-1.46875 -2.102622,-1.074506 -4.303507,-2.628816 -5.75,-7.78125 -1.211146,-4.314124 -2.849554,-7.571547 -4.59375,-9.8125 -1.735052,-2.229205 -3.676283,-3.611596 -5.75,-3.5625 l -0.03125,0 -0.0625,0 a 0.96110072,0.96110072 0 0 0 -0.40625,0.09375 0.96110072,0.96110072 0 0 0 -0.03125,0 l -0.0625,0.03125 0,0.03125 c -1.472442,0.570239 -2.674508,1.744942 -3.84375,3.15625 -1.199438,1.447755 -2.351491,3.19123 -3.4375,4.90625 -1.083489,1.711041 -2.108714,3.389335 -2.96875,4.71875 -0.393129,0.607686 -0.589188,0.803682 -0.875,1.15625 -0.687246,-1.015317 -1.041117,-2.062095 -0.9375,-3.34375 0.150471,-1.861204 0.976237,-4.128068 2.0625,-6.59375 2.108508,-4.786053 5.062115,-10.315942 4.0625,-16.0625 -0.0018,-0.01052 0.0019,-0.02073 0,-0.03125 a 0.96110072,0.96110072 0 0 0 0,-0.09375 0.96110072,0.96110072 0 0 0 0.03125,-0.25 C 53.816492,28.052313 51.729706,24.240351 48.75,22.125 c -1.482292,-1.052308 -3.162749,-1.677825 -4.90625,-1.90625 -0.434458,-0.05692 -0.873816,-0.114127 -1.3125,-0.125 z"
       id="path3946"
       style="opacity:0.15;fill:#000000;fill-opacity:1;fill-rule:evenodd;stroke:none"
       inkscape:connector-curvature="0" />
    <path
       d="m 42.5,21.0625 c -1.21559,-0.03013 -2.441144,0.125718 -3.65625,0.4375 -3.240283,0.831426 -6.354487,2.784501 -8.5625,5.40625 -2.201442,2.613947 -3.48879,5.942222 -3.0625,9.46875 6.66e-4,0.0089 -6.76e-4,0.02229 0,0.03125 0.457792,6.066845 3.328916,16.089987 6.9375,24.65625 1.806958,4.28946 3.812776,8.198406 5.78125,11.0625 0.984237,1.432047 1.963926,2.609657 2.9375,3.4375 0.951637,0.80919 1.896854,1.277882 2.875,1.28125 0.02255,7.8e-5 0.03994,0.0317 0.0625,0.03125 l 0,-0.03125 c 1.734607,0.25135 3.266929,-0.286184 4.59375,-1.3125 1.343763,-1.039421 2.499222,-2.551728 3.59375,-4.21875 2.136769,-3.254407 4.063901,-7.141207 6.28125,-9.59375 0.03842,0.03245 0.06587,0.02376 0.125,0.09375 0.218536,0.258673 0.501671,0.747767 0.84375,1.375 0.684157,1.254467 1.558275,3.0593 2.6875,4.90625 1.129226,1.84695 2.515949,3.736561 4.25,5.1875 1.726535,1.44465 3.831604,2.460094 6.3125,2.46875 0.0108,3.8e-5 0.02044,0 0.03125,0 1.49464,0.102332 2.992047,-0.0934 4.1875,-0.6875 1.203916,-0.598304 2.099688,-1.687965 2.15625,-3.15625 0.01152,-1.161155 -0.633284,-1.979848 -1.46875,-2.5 -0.835466,-0.520152 -1.857821,-0.86978 -2.96875,-1.4375 -2.221858,-1.135439 -4.743799,-3.009883 -6.25,-8.375 -1.184632,-4.219682 -2.762281,-7.356569 -4.40625,-9.46875 -1.643969,-2.112181 -3.379707,-3.237053 -5,-3.1875 l -0.09375,0 -0.0625,0.03125 c -1.225968,0.445415 -2.376079,1.543176 -3.53125,2.9375 -1.155171,1.394324 -2.299814,3.083321 -3.375,4.78125 -1.075186,1.697929 -2.094035,3.397894 -2.96875,4.75 -0.741404,1.146039 -1.318203,1.835471 -1.75,2.25 -1.464435,-1.49291 -1.997258,-3.132477 -1.84375,-5.03125 0.167797,-2.075511 1.057863,-4.413048 2.15625,-6.90625 2.188476,-4.96757 5.130698,-10.505199 3.96875,-15.96875 l 0.03125,0 c -0.44862,-5.439516 -2.416625,-8.952272 -5.125,-10.875 -1.354187,-0.961364 -2.874318,-1.541105 -4.46875,-1.75 C 43.320142,21.104026 42.905197,21.072543 42.5,21.0625 z"
       inkscape:connector-curvature="0"
       id="path3933"
       style="opacity:0.3;fill:#000000;fill-opacity:1;fill-rule:evenodd;stroke:none" />
    <path
       d="m 27.704522,35.331718 c 0.884801,11.890272 11.546048,40.162695 18.111756,40.030581 6.469551,1.012875 9.504137,-10.12875 14.256205,-15.193125 1.648397,-0.988633 5.00858,14.076821 14.457407,14.076821 2.873381,0.204838 5.746762,-0.779352 5.845747,-3.348911 0.0398,-4.011906 -7.604291,-1.208741 -10.680943,-12.167832 C 67.352318,50.385663 63.531894,46.345674 60.797293,46.429305 56.548228,47.973062 51.242251,59.953832 48.974897,61.497588 41.268239,54.713306 55.096184,43.305028 52.806206,32.82155 51.044684,11.463099 26.031077,21.812039 27.704522,35.331718 z"
       inkscape:connector-curvature="0"
       id="path5054"
       style="fill:url(#radialGradient3925);fill-opacity:1;fill-rule:evenodd;stroke:#d87070;stroke-width:0.70806259px;stroke-linecap:butt;stroke-linejoin:miter;stroke-opacity:1" />
    <path
       d="m 29.025663,35.199604 c 0.884802,11.890272 11.678163,38.709439 16.790615,38.709439 6.469551,1.012875 8.97568,-12.506804 14.256205,-15.193124 3.365881,-1.384975 4.876466,14.07682 14.325293,14.07682 2.873381,0.204838 4.557735,-0.118787 4.524605,-1.763541 C 79.358519,68.470548 72.10706,69.659395 68.505667,58.861365 65.766949,50.64989 63.531894,47.79893 60.797293,47.882561 56.548228,49.426317 52.959734,60.614403 48.974897,63.215072 38.493843,54.316963 53.775043,43.437142 51.485065,32.953664 50.384113,14.36961 28.277017,21.812039 29.025663,35.199604 z"
       inkscape:connector-curvature="0"
       id="path6834"
       style="fill:none;stroke:url(#linearGradient3134);stroke-width:0.70806259px;stroke-linecap:butt;stroke-linejoin:miter;stroke-opacity:1" />
    <path
       d="m 50.725987,36.978459 c -0.532533,0.231872 -1.064328,0.632293 -1.557152,0.938298 -4.140004,2.570611 -10.999071,5.713431 -16.036007,7.279896 -0.505728,0.157279 -0.569328,0.658356 -0.492071,0.997939 0.276625,1.215902 1.204143,2.796993 2.432764,4.102127 1.228621,1.305134 3.041667,2.30797 5.578341,2.336188 1.107034,0.01236 2.193154,-0.5356 3.255949,-1.37044 1.062794,-0.834842 2.105013,-1.987851 3.039805,-3.32953 1.86958,-2.683357 3.314919,-5.909004 3.357122,-9.390744 0.0056,-0.463737 0.267351,-1.123382 0.421249,-1.563734 z m -2.017032,2.95257 c -0.357194,2.457616 -1.51499,5.077412 -2.966225,7.160329 -0.865825,1.242692 -1.829335,2.296177 -2.740883,3.012211 -0.911548,0.716034 -1.769269,1.064029 -2.336189,1.057723 -2.173166,-0.02417 -3.514143,-0.802556 -4.520617,-1.87171 -0.805878,-0.856065 -1.338492,-1.907067 -1.793532,-2.915638 4.772469,-1.378605 10.344365,-4.022441 14.357446,-6.442915 z"
       inkscape:connector-curvature="0"
       id="path2951"
       style="fill:#571e00;fill-opacity:0.32203393;stroke:none" />
    <path
       d="m 38.234295,26.570837 c -2.158135,0.0726 -4.16209,0.458638 -5.598395,1.000231 -0.893718,1.240193 -1.651171,2.752796 -2.056423,4.625061 -0.737201,-2.440447 -0.569936,-4.763835 0.574929,-6.808157 2.596877,-0.535959 5.426476,0.223159 7.079889,1.182865 z"
       inkscape:connector-curvature="0"
       id="path2184"
       style="fill:#000000;fill-opacity:1;stroke:none" />
    <path
       d="m 47.820025,25.638919 c -1.821521,-1.159694 -3.692969,-1.973664 -5.184002,-2.338515 -1.438177,0.518128 -2.917877,1.338003 -4.310252,2.653635 0.770922,-2.430006 2.221892,-4.252309 4.321693,-5.291929 2.445336,1.025351 4.35081,3.250671 5.172561,4.976809 z"
       inkscape:connector-curvature="0"
       id="path2186"
       style="fill:#000000;fill-opacity:1;stroke:none" />
    <path
       d="m 33.320496,45.909287 c 5.316643,-1.392015 12.071623,-4.680937 16.246399,-7.373722 -0.06164,6.086747 -5.559321,13.399481 -8.907232,13.362242 -4.709841,-0.05239 -6.311051,-3.56102 -7.339167,-5.98852 z"
       inkscape:connector-curvature="0"
       id="path2196"
       style="fill:url(#linearGradient3128);fill-opacity:1;stroke:url(#linearGradient3076)" />
    <path
       d="m 39.357686,36.133479 c 0.449921,-5.680402 -2.241978,3.386291 -4.127947,5.888544 -1.325364,-0.05624 -3.119327,-2.739221 -3.119327,-5.888544 0,-3.149325 1.623389,-5.705301 3.623636,-5.705301 2.000247,0 3.623638,2.555976 3.623638,5.705301 z"
       inkscape:connector-curvature="0"
       id="path2210"
       style="fill:#571e00;fill-opacity:0.32203393;stroke:none" />
    <path
       d="m 46.469504,32.664046 c 0,2.936532 -1.761551,5.319807 -3.932032,5.319807 -2.170481,0 -3.932031,-2.383275 -3.932031,-5.319807 0,-2.936534 1.76155,-5.319808 3.932031,-5.319808 2.170481,0 3.932032,2.383274 3.932032,5.319808 z"
       inkscape:connector-curvature="0"
       id="path2212"
       style="fill:#571e00;fill-opacity:0.32203393;stroke:none" />
    <path
       d="m 42.88959,27.689306 c -1.905845,0.19359 -3.404672,2.736145 -3.646846,5.92785 -0.805537,-1.729078 -2.020141,-2.821301 -3.260548,-2.690296 -1.903462,0.201033 -3.137728,3.180236 -2.75468,6.64986 0.221932,2.01023 0.947049,3.725748 1.880909,4.791948 1.327016,-1.071621 3.009694,-1.989613 4.939108,-2.658106 0.0384,-0.237959 0.07539,-0.479814 0.09658,-0.731208 0.103556,0.21697 0.232336,0.39032 0.349509,0.584047 0.89345,-0.286011 1.830314,-0.524822 2.809865,-0.694418 1.049003,-0.181621 2.076788,-0.271215 3.076595,-0.294324 0.495443,-1.236822 0.77496,-2.751605 0.712814,-4.382653 -0.145152,-3.809511 -2.030291,-6.72343 -4.203301,-6.5027 z"
       inkscape:connector-curvature="0"
       id="path2198"
       style="fill:#ffffff;fill-opacity:1;stroke:none" />
    <path
       d="m 43.789483,34.521293 a 0.94818856,1.8286495 0 0 1 -1.896377,0 0.94818856,1.8286495 0 1 1 1.896377,0 z"
       inkscape:connector-curvature="0"
       id="path2944"
       style="fill:#000000;fill-opacity:1;stroke:none" />
    <path
       d="m 49.058463,41.816536 c -0.977746,1.401516 -3.031387,2.467727 -6.452112,4.125121 3.900869,-0.902124 3.82533,-0.02891 3.950366,1.273867 0.853044,-1.293697 1.974533,-3.318306 2.501746,-5.398988 z m -8.21805,4.865528 c -3.618311,1.16454 -5.210264,1.435446 -6.723442,0.942754 0.77283,1.606649 2.015086,2.94133 3.426104,3.596259 -0.591955,-1.315561 -0.589712,-2.506812 3.297338,-4.539013 z"
       inkscape:connector-curvature="0"
       id="rect2946"
       style="fill:url(#linearGradient3121);fill-opacity:1;stroke:none" />
    <path
       d="m 37.725318,36.080017 a 0.94818856,1.8286495 0 0 1 -1.896377,0 0.94818856,1.8286495 0 1 1 1.896377,0 z"
       inkscape:connector-curvature="0"
       id="path8632"
       style="fill:#000000;fill-opacity:1;stroke:none" />
    <path
       d="M 60.59375,56.15625 C 60.410028,56.155328 60.202297,56.185034 60,56.21875 55.010012,57.567395 51.9308,70.25 47.75,70.25 40.159245,71.194803 34.9375,59.3125 34.9375,59.3125 l -0.375,0.40625 c 3.60736,8.595161 7.950836,15.722635 11.25,15.65625 6.469551,1.012875 9.497932,-10.154375 14.25,-15.21875 1.648397,-0.988633 5.019923,14.09375 14.46875,14.09375 2.612073,0.18621 5.222152,-0.610767 5.75,-2.6875 L 79.5625,69.15625 c -16.069951,3.135601 -13.273354,-12.971421 -18.96875,-13 z"
       inkscape:connector-curvature="0"
       id="path3968"
       style="opacity:0.15;fill:#d35f5f;stroke:none" />
    <path
       d="M 60.59375,58.15625 C 60.410028,58.155328 60.202297,58.185034 60,58.21875 55.010012,59.567395 51.9308,72.25 47.75,72.25 c -4.69114,0.583895 -8.479316,-3.7118 -10.6875,-7.09375 2.987745,5.947241 6.18528,10.270357 8.75,10.21875 6.469551,1.012875 9.497932,-10.154375 14.25,-15.21875 1.648397,-0.988633 5.019923,14.09375 14.46875,14.09375 2.242716,0.159879 4.482737,-0.397703 5.40625,-1.875 l -0.375,-1.21875 c -16.069951,3.135601 -13.273354,-12.971421 -18.96875,-13 z"
       inkscape:connector-curvature="0"
       id="path3977"
       style="opacity:0.3;fill:#d35f5f;stroke:none" />
  </g>
</svg>
