<?xml version="1.0" encoding="UTF-8" standalone="no"?>
<!-- Created with Inkscape (http://www.inkscape.org/) -->

<svg
   xmlns:dc="http://purl.org/dc/elements/1.1/"
   xmlns:cc="http://creativecommons.org/ns#"
   xmlns:rdf="http://www.w3.org/1999/02/22-rdf-syntax-ns#"
   xmlns:svg="http://www.w3.org/2000/svg"
   xmlns="http://www.w3.org/2000/svg"
   xmlns:xlink="http://www.w3.org/1999/xlink"
   xmlns:sodipodi="http://sodipodi.sourceforge.net/DTD/sodipodi-0.dtd"
   xmlns:inkscape="http://www.inkscape.org/namespaces/inkscape"
   version="1.0"
   width="128"
   height="128"
   id="svg2408"
   style="display:inline"
   inkscape:version="0.48.1 r9760"
   sodipodi:docname="crack-attack.svg">
  <sodipodi:namedview
     pagecolor="#ffffff"
     bordercolor="#666666"
     borderopacity="1"
     objecttolerance="10"
     gridtolerance="10"
     guidetolerance="10"
     inkscape:pageopacity="0"
     inkscape:pageshadow="2"
     inkscape:window-width="1161"
     inkscape:window-height="836"
     id="namedview123"
     showgrid="false"
     inkscape:zoom="3.0104167"
     inkscape:cx="100.76031"
     inkscape:cy="56.304498"
     inkscape:window-x="295"
     inkscape:window-y="30"
     inkscape:window-maximized="0"
     inkscape:current-layer="layer4" />
  <defs
     id="defs2410">
    <linearGradient
       id="linearGradient3802">
      <stop
         id="stop3804"
         style="stop-color:#ed702d;stop-opacity:1"
         offset="0" />
      <stop
         id="stop3806"
         style="stop-color:#f4915c;stop-opacity:1"
         offset="1" />
    </linearGradient>
    <linearGradient
       id="linearGradient3794">
      <stop
         id="stop3796"
         style="stop-color:#dfa716;stop-opacity:1"
         offset="0" />
      <stop
         id="stop3798"
         style="stop-color:#ecbb3d;stop-opacity:1"
         offset="1" />
    </linearGradient>
    <linearGradient
       id="linearGradient3786">
      <stop
         id="stop3788"
         style="stop-color:#d652aa;stop-opacity:1"
         offset="0" />
      <stop
         id="stop3790"
         style="stop-color:#e17fc0;stop-opacity:1"
         offset="1" />
    </linearGradient>
    <linearGradient
       id="linearGradient3715">
      <stop
         id="stop3717"
         style="stop-color:#3c64dc;stop-opacity:1"
         offset="0" />
      <stop
         id="stop3719"
         style="stop-color:#6b89e5;stop-opacity:1"
         offset="1" />
    </linearGradient>
    <linearGradient
       id="linearGradient3707">
      <stop
         id="stop3709"
         style="stop-color:#1bb3c6;stop-opacity:1"
         offset="0" />
      <stop
         id="stop3711"
         style="stop-color:#32cfe3;stop-opacity:1"
         offset="1" />
    </linearGradient>
    <linearGradient
       id="linearGradient3699">
      <stop
         id="stop3701"
         style="stop-color:#45c13d;stop-opacity:1"
         offset="0" />
      <stop
         id="stop3703"
         style="stop-color:#76d56f;stop-opacity:1"
         offset="1" />
    </linearGradient>
    <linearGradient
       x1="45.447727"
       y1="92.539597"
       x2="45.447727"
       y2="7.0165396"
       id="ButtonShadow"
       gradientUnits="userSpaceOnUse"
       gradientTransform="scale(1.0058652,0.994169)">
      <stop
         id="stop3750"
         style="stop-color:#000000;stop-opacity:1"
         offset="0" />
      <stop
         id="stop3752"
         style="stop-color:#000000;stop-opacity:0.58823532"
         offset="1" />
    </linearGradient>
    <linearGradient
       id="linearGradient3700">
      <stop
         id="stop3702"
         style="stop-color:#e6e6e6;stop-opacity:1"
         offset="0" />
      <stop
         id="stop3704"
         style="stop-color:#f5f5f5;stop-opacity:1"
         offset="1" />
    </linearGradient>
    <linearGradient
       x1="48"
       y1="90"
       x2="48"
       y2="5.9877172"
       id="linearGradient3706"
       xlink:href="#linearGradient3700"
       gradientUnits="userSpaceOnUse" />
    <filter
       color-interpolation-filters="sRGB"
       id="filter3174">
      <feGaussianBlur
         id="feGaussianBlur3176"
         stdDeviation="1.71" />
    </filter>
    <linearGradient
       x1="45.447727"
       y1="92.539597"
       x2="45.447727"
       y2="7.0165396"
       id="ButtonShadow-0"
       gradientUnits="userSpaceOnUse"
       gradientTransform="matrix(1.0058652,0,0,0.994169,100,0)">
      <stop
         id="stop3750-8"
         style="stop-color:#000000;stop-opacity:1"
         offset="0" />
      <stop
         id="stop3752-5"
         style="stop-color:#000000;stop-opacity:0.58823532"
         offset="1" />
    </linearGradient>
    <linearGradient
       x1="32.251034"
       y1="6.1317081"
       x2="32.251034"
       y2="90.238609"
       id="linearGradient3780"
       xlink:href="#ButtonShadow-0"
       gradientUnits="userSpaceOnUse"
       gradientTransform="matrix(1.0238095,0,0,1.0119048,-1.1428571,-98.071429)" />
    <linearGradient
       x1="32.251034"
       y1="6.1317081"
       x2="32.251034"
       y2="90.238609"
       id="linearGradient3772"
       xlink:href="#ButtonShadow-0"
       gradientUnits="userSpaceOnUse"
       gradientTransform="matrix(1.0238095,0,0,1.0119048,-1.1428571,-98.071429)" />
    <linearGradient
       x1="32.251034"
       y1="6.1317081"
       x2="32.251034"
       y2="90.238609"
       id="linearGradient3725"
       xlink:href="#ButtonShadow-0"
       gradientUnits="userSpaceOnUse"
       gradientTransform="matrix(1.0238095,0,0,1.0119048,-1.1428571,-98.071429)" />
    <linearGradient
       x1="32.251034"
       y1="6.1317081"
       x2="32.251034"
       y2="90.238609"
       id="linearGradient3721"
       xlink:href="#ButtonShadow-0"
       gradientUnits="userSpaceOnUse"
       gradientTransform="translate(0,-97)" />
    <linearGradient
       x1="32.251034"
       y1="6.1317081"
       x2="32.251034"
       y2="90.238609"
       id="linearGradient3760"
       xlink:href="#ButtonShadow-0"
       gradientUnits="userSpaceOnUse"
       gradientTransform="matrix(1.0238095,0,0,1.0119048,-1.1428571,-98.071429)" />
    <linearGradient
       id="linearGradient3737-1">
      <stop
         id="stop3739-9"
         style="stop-color:#ffffff;stop-opacity:1"
         offset="0" />
      <stop
         id="stop3741-3"
         style="stop-color:#ffffff;stop-opacity:0"
         offset="1" />
    </linearGradient>
    <radialGradient
       cx="48"
       cy="90.171875"
       r="42"
       fx="48"
       fy="90.171875"
       id="radialGradient2886"
       xlink:href="#linearGradient3737-0"
       gradientUnits="userSpaceOnUse"
       gradientTransform="matrix(1.1573129,0,0,0.99590774,-7.551021,0.1971319)" />
    <linearGradient
       id="linearGradient3737-0">
      <stop
         id="stop3739-6"
         style="stop-color:#ffffff;stop-opacity:1"
         offset="0" />
      <stop
         id="stop3741-0"
         style="stop-color:#ffffff;stop-opacity:0"
         offset="1" />
    </linearGradient>
    <linearGradient
       x1="36.357143"
       y1="6"
       x2="36.357143"
       y2="63.893143"
       id="linearGradient3923"
       xlink:href="#linearGradient3737-1"
       gradientUnits="userSpaceOnUse" />
    <linearGradient
       x1="14"
       y1="72"
       x2="34"
       y2="72"
       id="linearGradient3705"
       xlink:href="#linearGradient3699"
       gradientUnits="userSpaceOnUse"
       gradientTransform="matrix(1.8115942,0,0,1.8115942,-118.55072,-110.31884)" />
    <linearGradient
       x1="38"
       y1="72"
       x2="58"
       y2="72"
       id="linearGradient3713"
       xlink:href="#linearGradient3707"
       gradientUnits="userSpaceOnUse"
       gradientTransform="matrix(1.8115942,0,0,1.8115942,-162.02899,-66.84058)" />
    <linearGradient
       x1="62"
       y1="72"
       x2="82"
       y2="72"
       id="linearGradient3722"
       xlink:href="#linearGradient3715"
       gradientUnits="userSpaceOnUse"
       gradientTransform="translate(-144,0)" />
    <linearGradient
       x1="38"
       y1="48"
       x2="58"
       y2="48"
       id="linearGradient3792"
       xlink:href="#linearGradient3786"
       gradientUnits="userSpaceOnUse"
       gradientTransform="matrix(1.8115942,0,0,1.8115942,-118.55072,-23.362319)" />
    <linearGradient
       x1="14"
       y1="48"
       x2="34"
       y2="48"
       id="linearGradient3800"
       xlink:href="#linearGradient3794"
       gradientUnits="userSpaceOnUse"
       gradientTransform="matrix(1.8115942,0,0,1.8115942,-75.072464,-66.84058)" />
    <linearGradient
       x1="14"
       y1="24"
       x2="34"
       y2="24"
       id="linearGradient3808"
       xlink:href="#linearGradient3802"
       gradientUnits="userSpaceOnUse"
       gradientTransform="translate(-48,0)" />
    <linearGradient
       id="linearGradient3737-9">
      <stop
         id="stop3739-2"
         style="stop-color:#ffffff;stop-opacity:1"
         offset="0" />
      <stop
         id="stop3741-1"
         style="stop-color:#ffffff;stop-opacity:0"
         offset="1" />
    </linearGradient>
    <clipPath
       id="clipPath3613">
      <rect
         width="84"
         height="84"
         rx="6"
         ry="6"
         x="6"
         y="6"
         id="rect3615"
         style="fill:#ffffff;fill-opacity:1;fill-rule:nonzero;stroke:none" />
    </clipPath>
    <filter
       x="-0.192"
       y="-0.192"
       width="1.3839999"
       height="1.3839999"
       color-interpolation-filters="sRGB"
       id="filter3794">
      <feGaussianBlur
         id="feGaussianBlur3796"
         stdDeviation="5.28" />
    </filter>
    <linearGradient
       x1="48"
       y1="20.220806"
       x2="48"
       y2="138.66119"
       id="linearGradient4274"
       xlink:href="#linearGradient3737-9"
       gradientUnits="userSpaceOnUse" />
    <linearGradient
       inkscape:collect="always"
       xlink:href="#linearGradient3699"
       id="linearGradient3081"
       gradientUnits="userSpaceOnUse"
       gradientTransform="translate(-96,-48)"
       x1="14"
       y1="72"
       x2="34"
       y2="72" />
    <linearGradient
       inkscape:collect="always"
       xlink:href="#linearGradient3707"
       id="linearGradient3083"
       gradientUnits="userSpaceOnUse"
       gradientTransform="translate(-120,-24)"
       x1="38"
       y1="72"
       x2="58"
       y2="72" />
    <linearGradient
       inkscape:collect="always"
       xlink:href="#linearGradient3715"
       id="linearGradient3085"
       gradientUnits="userSpaceOnUse"
       gradientTransform="translate(-144,0)"
       x1="62"
       y1="72"
       x2="82"
       y2="72" />
    <linearGradient
       inkscape:collect="always"
       xlink:href="#linearGradient3794"
       id="linearGradient3087"
       gradientUnits="userSpaceOnUse"
       gradientTransform="translate(-72,-24)"
       x1="14"
       y1="48"
       x2="34"
       y2="48" />
    <linearGradient
       inkscape:collect="always"
       xlink:href="#linearGradient3786"
       id="linearGradient3089"
       gradientUnits="userSpaceOnUse"
       gradientTransform="translate(-96,0)"
       x1="38"
       y1="48"
       x2="58"
       y2="48" />
    <linearGradient
       inkscape:collect="always"
       xlink:href="#linearGradient3802"
       id="linearGradient3091"
       gradientUnits="userSpaceOnUse"
       gradientTransform="translate(-48,0)"
       x1="14"
       y1="24"
       x2="34"
       y2="24" />
    <linearGradient
       inkscape:collect="always"
       xlink:href="#linearGradient3715"
       id="linearGradient3103"
       gradientUnits="userSpaceOnUse"
       gradientTransform="matrix(1.8115942,0,0,1.8115942,-205.50725,-23.362319)"
       x1="62"
       y1="72"
       x2="82"
       y2="72" />
    <linearGradient
       inkscape:collect="always"
       xlink:href="#linearGradient3802"
       id="linearGradient3105"
       gradientUnits="userSpaceOnUse"
       gradientTransform="matrix(1.8115942,0,0,1.8115942,-31.594203,-23.362319)"
       x1="14"
       y1="24"
       x2="34"
       y2="24" />
    <filter
       color-interpolation-filters="sRGB"
       id="filter3684">
      <feGaussianBlur
         id="feGaussianBlur3686"
         stdDeviation="1.4950258" />
    </filter>
    <radialGradient
       cx="47.984795"
       cy="48.017754"
       r="37.375645"
       fx="47.984795"
       fy="48.017754"
       id="radialGradient3714"
       xlink:href="#linearGradient3684"
       gradientUnits="userSpaceOnUse"
       gradientTransform="matrix(0,-0.71677194,0.71677194,0,-2.417778,34.396986)" />
    <linearGradient
       id="linearGradient3684">
      <stop
         id="stop3686"
         style="stop-color:#98b4d6;stop-opacity:1;"
         offset="0" />
      <stop
         id="stop3688"
         style="stop-color:#1566cc;stop-opacity:1;"
         offset="1" />
    </linearGradient>
    <filter
       color-interpolation-filters="sRGB"
       id="filter3102">
      <feGaussianBlur
         id="feGaussianBlur3104"
         stdDeviation="1.4950258" />
    </filter>
    <radialGradient
       inkscape:collect="always"
       xlink:href="#linearGradient3770"
       id="radialGradient3063"
       gradientUnits="userSpaceOnUse"
       gradientTransform="matrix(0,-0.71677194,0.71677194,0,-2.417778,98.396986)"
       cx="47.984795"
       cy="48.017754"
       fx="47.984795"
       fy="48.017754"
       r="37.375645" />
    <linearGradient
       id="linearGradient3770">
      <stop
         id="stop3772"
         style="stop-color:#ff8080;stop-opacity:1"
         offset="0" />
      <stop
         id="stop3774"
         style="stop-color:#aa0000;stop-opacity:1"
         offset="1" />
    </linearGradient>
    <filter
       color-interpolation-filters="sRGB"
       id="filter3110">
      <feGaussianBlur
         id="feGaussianBlur3112"
         stdDeviation="1.4950258" />
    </filter>
    <radialGradient
       inkscape:collect="always"
       xlink:href="#linearGradient3663"
       id="radialGradient3069"
       gradientUnits="userSpaceOnUse"
       gradientTransform="matrix(0,-0.71677194,0.71677194,0,61.582222,98.396986)"
       cx="47.984795"
       cy="48.017754"
       fx="47.984795"
       fy="48.017754"
       r="37.375645" />
    <linearGradient
       id="linearGradient3663">
      <stop
         id="stop3665"
         style="stop-color:#ffffff;stop-opacity:1;"
         offset="0" />
      <stop
         id="stop3667"
         style="stop-color:#b9b9b9;stop-opacity:1"
         offset="1" />
    </linearGradient>
    <filter
       color-interpolation-filters="sRGB"
       id="filter3118">
      <feGaussianBlur
         id="feGaussianBlur3120"
         stdDeviation="1.4950258" />
    </filter>
    <radialGradient
       inkscape:collect="always"
       xlink:href="#linearGradient3758"
       id="radialGradient3075"
       gradientUnits="userSpaceOnUse"
       gradientTransform="matrix(0,-0.71677194,0.71677194,0,61.582222,34.396986)"
       cx="47.984795"
       cy="48.017754"
       fx="47.984795"
       fy="48.017754"
       r="37.375645" />
    <linearGradient
       id="linearGradient3758">
      <stop
         id="stop3760"
         style="stop-color:#fff6d5;stop-opacity:1"
         offset="0" />
      <stop
         id="stop3762"
         style="stop-color:#f1b31e;stop-opacity:1"
         offset="1" />
    </linearGradient>
    <radialGradient
       r="37.375645"
       fy="48.017754"
       fx="47.984795"
       cy="48.017754"
       cx="47.984795"
       gradientTransform="matrix(0,-0.71677194,0.71677194,0,61.582222,34.396986)"
       gradientUnits="userSpaceOnUse"
       id="radialGradient3135"
       xlink:href="#linearGradient3758"
       inkscape:collect="always" />
  </defs>
  <metadata
     id="metadata2413">
    <rdf:RDF>
      <cc:Work
         rdf:about="">
        <dc:format>image/svg+xml</dc:format>
        <dc:type
           rdf:resource="http://purl.org/dc/dcmitype/StillImage" />
        <dc:title></dc:title>
      </cc:Work>
    </rdf:RDF>
  </metadata>
  <g
     id="layer2"
     style="display:none"
     transform="translate(0,32)">
    <rect
       width="86"
       height="85"
       rx="6"
       ry="6"
       x="5"
       y="7"
       id="rect3745"
       style="opacity:0.9;fill:url(#ButtonShadow);fill-opacity:1;fill-rule:nonzero;stroke:none;filter:url(#filter3174)" />
  </g>
  <g
     id="layer3"
     style="display:none"
     transform="translate(0,32)">
    <path
       d="m 17,14.03125 c -2.185066,0 -3.96875,1.783684 -3.96875,3.96875 l 0,14 c 0,2.185066 1.783684,3.96875 3.96875,3.96875 l 14,0 c 2.185066,0 3.96875,-1.783684 3.96875,-3.96875 l 0,-14 c 0,-2.185066 -1.783684,-3.96875 -3.96875,-3.96875 l -14,0 z m 0,24 c -2.185066,0 -3.96875,1.783684 -3.96875,3.96875 l 0,14 c 0,2.185066 1.783684,3.96875 3.96875,3.96875 l 14,0 c 2.185066,0 3.96875,-1.783684 3.96875,-3.96875 l 0,-14 c 0,-2.185066 -1.783684,-3.96875 -3.96875,-3.96875 l -14,0 z m 24,0 c -2.185066,0 -3.96875,1.783684 -3.96875,3.96875 l 0,14 c 0,2.185066 1.783684,3.96875 3.96875,3.96875 l 14,0 c 2.185066,0 3.96875,-1.783684 3.96875,-3.96875 l 0,-14 c 0,-2.185066 -1.783684,-3.96875 -3.96875,-3.96875 l -14,0 z m -24,24 c -2.185066,0 -3.96875,1.783684 -3.96875,3.96875 l 0,14 c 0,2.185066 1.783684,3.96875 3.96875,3.96875 l 14,0 c 2.185066,0 3.96875,-1.783684 3.96875,-3.96875 l 0,-14 c 0,-2.185066 -1.783684,-3.96875 -3.96875,-3.96875 l -14,0 z m 24,0 c -2.185066,0 -3.96875,1.783684 -3.96875,3.96875 l 0,14 c 0,2.185066 1.783684,3.96875 3.96875,3.96875 l 14,0 c 2.185066,0 3.96875,-1.783684 3.96875,-3.96875 l 0,-14 c 0,-2.185066 -1.783684,-3.96875 -3.96875,-3.96875 l -14,0 z m 24,0 c -2.185066,0 -3.96875,1.783684 -3.96875,3.96875 l 0,14 c 0,2.185066 1.783684,3.96875 3.96875,3.96875 l 14,0 c 2.185066,0 3.96875,-1.783684 3.96875,-3.96875 l 0,-14 c 0,-2.185066 -1.783684,-3.96875 -3.96875,-3.96875 l -14,0 z"
       id="path3784"
       style="opacity:0.07000002;color:#000000;fill:#000000;fill-opacity:1;fill-rule:nonzero;stroke:none;stroke-width:1;marker:none;visibility:visible;display:inline;overflow:visible;enable-background:accumulate"
       inkscape:connector-curvature="0" />
    <path
       d="m 17,15 c -1.662,0 -3,1.338 -3,3 l 0,14 c 0,1.662 1.338,3 3,3 l 14,0 c 1.662,0 3,-1.338 3,-3 l 0,-14 c 0,-1.662 -1.338,-3 -3,-3 l -14,0 z m 0,24 c -1.662,0 -3,1.338 -3,3 l 0,14 c 0,1.662 1.338,3 3,3 l 14,0 c 1.662,0 3,-1.338 3,-3 l 0,-14 c 0,-1.662 -1.338,-3 -3,-3 l -14,0 z m 24,0 c -1.662,0 -3,1.338 -3,3 l 0,14 c 0,1.662 1.338,3 3,3 l 14,0 c 1.662,0 3,-1.338 3,-3 l 0,-14 c 0,-1.662 -1.338,-3 -3,-3 L 41,39 z M 17,63 c -1.662,0 -3,1.338 -3,3 l 0,14 c 0,1.662 1.338,3 3,3 l 14,0 c 1.662,0 3,-1.338 3,-3 l 0,-14 c 0,-1.662 -1.338,-3 -3,-3 l -14,0 z m 24,0 c -1.662,0 -3,1.338 -3,3 l 0,14 c 0,1.662 1.338,3 3,3 l 14,0 c 1.662,0 3,-1.338 3,-3 l 0,-14 c 0,-1.662 -1.338,-3 -3,-3 l -14,0 z m 24,0 c -1.662,0 -3,1.338 -3,3 l 0,14 c 0,1.662 1.338,3 3,3 l 14,0 c 1.662,0 3,-1.338 3,-3 l 0,-14 c 0,-1.662 -1.338,-3 -3,-3 l -14,0 z"
       inkscape:connector-curvature="0"
       id="rect3763"
       style="opacity:0.15;color:#000000;fill:#000000;fill-opacity:1;fill-rule:nonzero;stroke:none;stroke-width:1;marker:none;visibility:visible;display:inline;overflow:visible;enable-background:accumulate" />
    <rect
       width="20"
       height="20"
       rx="3"
       ry="3"
       x="-82"
       y="14"
       transform="matrix(0,-1,1,0,0,0)"
       id="rect3683"
       style="color:#000000;fill:url(#linearGradient3081);fill-opacity:1;fill-rule:nonzero;stroke:none;stroke-width:1;marker:none;visibility:visible;display:inline;overflow:visible;enable-background:accumulate" />
    <rect
       width="20"
       height="20"
       rx="3"
       ry="3"
       x="-82"
       y="38"
       transform="matrix(0,-1,1,0,0,0)"
       id="rect3689"
       style="color:#000000;fill:url(#linearGradient3083);fill-opacity:1;fill-rule:nonzero;stroke:none;stroke-width:1;marker:none;visibility:visible;display:inline;overflow:visible;enable-background:accumulate" />
    <rect
       width="20"
       height="20"
       rx="3"
       ry="3"
       x="-82"
       y="62"
       transform="matrix(0,-1,1,0,0,0)"
       id="rect3691"
       style="color:#000000;fill:url(#linearGradient3085);fill-opacity:1;fill-rule:nonzero;stroke:none;stroke-width:1;marker:none;visibility:visible;display:inline;overflow:visible;enable-background:accumulate" />
    <rect
       width="20"
       height="20"
       rx="3"
       ry="3"
       x="-58"
       y="14"
       transform="matrix(0,-1,1,0,0,0)"
       id="rect3693"
       style="color:#000000;fill:url(#linearGradient3087);fill-opacity:1;fill-rule:nonzero;stroke:none;stroke-width:1;marker:none;visibility:visible;display:inline;overflow:visible;enable-background:accumulate" />
    <rect
       width="20"
       height="20"
       rx="3"
       ry="3"
       x="-58"
       y="38"
       transform="matrix(0,-1,1,0,0,0)"
       id="rect3695"
       style="color:#000000;fill:url(#linearGradient3089);fill-opacity:1;fill-rule:nonzero;stroke:none;stroke-width:1;marker:none;visibility:visible;display:inline;overflow:visible;enable-background:accumulate" />
    <rect
       width="20"
       height="20"
       rx="3"
       ry="3"
       x="-34"
       y="14"
       transform="matrix(0,-1,1,0,0,0)"
       id="rect3697"
       style="color:#000000;fill:url(#linearGradient3091);fill-opacity:1;fill-rule:nonzero;stroke:none;stroke-width:1;marker:none;visibility:visible;display:inline;overflow:visible;enable-background:accumulate" />
    <path
       d="m 17,62 c -1.662,0 -3,1.338 -3,3 l 0,1 c 0,-1.662 1.338,-3 3,-3 l 14,0 c 1.662,0 3,1.338 3,3 l 0,-1 c 0,-1.662 -1.338,-3 -3,-3 l -14,0 z"
       inkscape:connector-curvature="0"
       id="rect3724"
       style="opacity:0.3;color:#000000;fill:#ffffff;fill-opacity:1;fill-rule:nonzero;stroke:none;stroke-width:1;marker:none;visibility:visible;display:inline;overflow:visible;enable-background:accumulate" />
    <path
       d="m 41,62 c -1.662,0 -3,1.338 -3,3 l 0,1 c 0,-1.662 1.338,-3 3,-3 l 14,0 c 1.662,0 3,1.338 3,3 l 0,-1 c 0,-1.662 -1.338,-3 -3,-3 l -14,0 z"
       inkscape:connector-curvature="0"
       id="path3734"
       style="opacity:0.3;color:#000000;fill:#ffffff;fill-opacity:1;fill-rule:nonzero;stroke:none;stroke-width:1;marker:none;visibility:visible;display:inline;overflow:visible;enable-background:accumulate" />
    <path
       d="m 65,62 c -1.662,0 -3,1.338 -3,3 l 0,1 c 0,-1.662 1.338,-3 3,-3 l 14,0 c 1.662,0 3,1.338 3,3 l 0,-1 c 0,-1.662 -1.338,-3 -3,-3 l -14,0 z"
       inkscape:connector-curvature="0"
       id="path3736"
       style="opacity:0.3;color:#000000;fill:#ffffff;fill-opacity:1;fill-rule:nonzero;stroke:none;stroke-width:1;marker:none;visibility:visible;display:inline;overflow:visible;enable-background:accumulate" />
    <path
       d="m 17,38 c -1.662,0 -3,1.338 -3,3 l 0,1 c 0,-1.662 1.338,-3 3,-3 l 14,0 c 1.662,0 3,1.338 3,3 l 0,-1 c 0,-1.662 -1.338,-3 -3,-3 l -14,0 z"
       inkscape:connector-curvature="0"
       id="path3738"
       style="opacity:0.3;color:#000000;fill:#ffffff;fill-opacity:1;fill-rule:nonzero;stroke:none;stroke-width:1;marker:none;visibility:visible;display:inline;overflow:visible;enable-background:accumulate" />
    <path
       d="m 41,38 c -1.662,0 -3,1.338 -3,3 l 0,1 c 0,-1.662 1.338,-3 3,-3 l 14,0 c 1.662,0 3,1.338 3,3 l 0,-1 c 0,-1.662 -1.338,-3 -3,-3 l -14,0 z"
       inkscape:connector-curvature="0"
       id="path3740"
       style="opacity:0.3;color:#000000;fill:#ffffff;fill-opacity:1;fill-rule:nonzero;stroke:none;stroke-width:1;marker:none;visibility:visible;display:inline;overflow:visible;enable-background:accumulate" />
    <path
       d="m 17,14 c -1.662,0 -3,1.338 -3,3 l 0,1 c 0,-1.662 1.338,-3 3,-3 l 14,0 c 1.662,0 3,1.338 3,3 l 0,-1 c 0,-1.662 -1.338,-3 -3,-3 l -14,0 z"
       inkscape:connector-curvature="0"
       id="path3742"
       style="opacity:0.3;color:#000000;fill:#ffffff;fill-opacity:1;fill-rule:nonzero;stroke:none;stroke-width:1;marker:none;visibility:visible;display:inline;overflow:visible;enable-background:accumulate" />
    <path
       d="m 14,78 0,1 c 0,1.662 1.338,3 3,3 l 14,0 c 1.662,0 3,-1.338 3,-3 l 0,-1 c 0,1.662 -1.338,3 -3,3 l -14,0 c -1.662,0 -3,-1.338 -3,-3 z"
       inkscape:connector-curvature="0"
       id="rect3744"
       style="opacity:0.2;color:#000000;fill:#000000;fill-opacity:1;fill-rule:nonzero;stroke:none;stroke-width:1;marker:none;visibility:visible;display:inline;overflow:visible;enable-background:accumulate" />
    <path
       d="m 38,78 0,1 c 0,1.662 1.338,3 3,3 l 14,0 c 1.662,0 3,-1.338 3,-3 l 0,-1 c 0,1.662 -1.338,3 -3,3 l -14,0 c -1.662,0 -3,-1.338 -3,-3 z"
       inkscape:connector-curvature="0"
       id="path3753"
       style="opacity:0.2;color:#000000;fill:#000000;fill-opacity:1;fill-rule:nonzero;stroke:none;stroke-width:1;marker:none;visibility:visible;display:inline;overflow:visible;enable-background:accumulate" />
    <path
       d="m 62,78 0,1 c 0,1.662 1.338,3 3,3 l 14,0 c 1.662,0 3,-1.338 3,-3 l 0,-1 c 0,1.662 -1.338,3 -3,3 l -14,0 c -1.662,0 -3,-1.338 -3,-3 z"
       inkscape:connector-curvature="0"
       id="path3755"
       style="opacity:0.2;color:#000000;fill:#000000;fill-opacity:1;fill-rule:nonzero;stroke:none;stroke-width:1;marker:none;visibility:visible;display:inline;overflow:visible;enable-background:accumulate" />
    <path
       d="m 14,54 0,1 c 0,1.662 1.338,3 3,3 l 14,0 c 1.662,0 3,-1.338 3,-3 l 0,-1 c 0,1.662 -1.338,3 -3,3 l -14,0 c -1.662,0 -3,-1.338 -3,-3 z"
       inkscape:connector-curvature="0"
       id="path3757"
       style="opacity:0.15;color:#000000;fill:#000000;fill-opacity:1;fill-rule:nonzero;stroke:none;stroke-width:1;marker:none;visibility:visible;display:inline;overflow:visible;enable-background:accumulate" />
    <path
       d="m 38,54 0,1 c 0,1.662 1.338,3 3,3 l 14,0 c 1.662,0 3,-1.338 3,-3 l 0,-1 c 0,1.662 -1.338,3 -3,3 l -14,0 c -1.662,0 -3,-1.338 -3,-3 z"
       inkscape:connector-curvature="0"
       id="path3759"
       style="opacity:0.2;color:#000000;fill:#000000;fill-opacity:1;fill-rule:nonzero;stroke:none;stroke-width:1;marker:none;visibility:visible;display:inline;overflow:visible;enable-background:accumulate" />
    <path
       d="m 14,30 0,1 c 0,1.662 1.338,3 3,3 l 14,0 c 1.662,0 3,-1.338 3,-3 l 0,-1 c 0,1.662 -1.338,3 -3,3 l -14,0 c -1.662,0 -3,-1.338 -3,-3 z"
       inkscape:connector-curvature="0"
       id="path3761"
       style="opacity:0.15;color:#000000;fill:#000000;fill-opacity:1;fill-rule:nonzero;stroke:none;stroke-width:1;marker:none;visibility:visible;display:inline;overflow:visible;enable-background:accumulate" />
  </g>
  <g
     id="layer4"
     transform="translate(0,32)">
    <g
       id="layer1"
       transform="translate(-0.13840929,0.21170174)">
      <path
         d="m 83.842663,48.017754 a 37.375645,37.375645 0 1 1 -74.7512896,0 37.375645,37.375645 0 1 1 74.7512896,0 z"
         transform="matrix(0,-0.73228648,0.73228648,0,-3.162752,34.030001)"
         id="path3708"
         style="opacity:0.6;fill:#000000;fill-opacity:1;stroke:none;filter:url(#filter3684)"
         inkscape:connector-curvature="0" />
      <path
         d="m 32,-26.786982 a 26.789813,26.789813 0 0 1 0,53.579627 26.789813,26.789813 0 1 1 0,-53.579627 z"
         id="path3710"
         style="fill:url(#radialGradient3714);fill-opacity:1;stroke:none"
         inkscape:connector-curvature="0" />
      <path
         inkscape:connector-curvature="0"
         style="opacity:0.6;fill:#000000;fill-opacity:1;stroke:none;filter:url(#filter3684)"
         id="path3059"
         transform="matrix(0,-0.73228648,0.73228648,0,-3.162752,98.030001)"
         d="m 83.842663,48.017754 a 37.375645,37.375645 0 1 1 -74.7512896,0 37.375645,37.375645 0 1 1 74.7512896,0 z" />
      <path
         inkscape:connector-curvature="0"
         style="fill:url(#radialGradient3063);fill-opacity:1;stroke:none"
         id="path3061"
         d="m 32,37.213018 a 26.789813,26.789813 0 0 1 0,53.579627 26.789813,26.789813 0 1 1 0,-53.579627 z" />
      <path
         d="m 83.842663,48.017754 a 37.375645,37.375645 0 1 1 -74.7512896,0 37.375645,37.375645 0 1 1 74.7512896,0 z"
         transform="matrix(0,-0.73228648,0.73228648,0,60.837248,98.030001)"
         id="path3065"
         style="opacity:0.6;fill:#000000;fill-opacity:1;stroke:none;filter:url(#filter3684)"
         inkscape:connector-curvature="0" />
      <path
         d="m 96,37.213018 a 26.789813,26.789813 0 0 1 0,53.579627 26.789813,26.789813 0 1 1 0,-53.579627 z"
         id="path3067"
         style="fill:url(#radialGradient3069);fill-opacity:1;stroke:none"
         inkscape:connector-curvature="0" />
      <path
         inkscape:connector-curvature="0"
         style="opacity:0.6;fill:#000000;fill-opacity:1;stroke:none;filter:url(#filter3684)"
         id="path3071"
         transform="matrix(0,-0.73228648,0.73228648,0,60.837248,34.030001)"
         d="m 83.842663,48.017754 a 37.375645,37.375645 0 1 1 -74.7512896,0 37.375645,37.375645 0 1 1 74.7512896,0 z" />
      <path
         inkscape:connector-curvature="0"
         style="fill:url(#radialGradient3135);fill-opacity:1;stroke:none"
         id="path3073"
         d="m 96,-26.786982 a 26.789813,26.789813 0 0 1 0,53.579627 26.789813,26.789813 0 1 1 0,-53.579627 z" />
    </g>
  </g>
</svg>
