<?xml version="1.0" encoding="UTF-8" standalone="no"?>
<!-- Created with Inkscape (http://www.inkscape.org/) -->

<svg
   xmlns:dc="http://purl.org/dc/elements/1.1/"
   xmlns:cc="http://creativecommons.org/ns#"
   xmlns:rdf="http://www.w3.org/1999/02/22-rdf-syntax-ns#"
   xmlns:svg="http://www.w3.org/2000/svg"
   xmlns="http://www.w3.org/2000/svg"
   xmlns:xlink="http://www.w3.org/1999/xlink"
   xmlns:sodipodi="http://sodipodi.sourceforge.net/DTD/sodipodi-0.dtd"
   xmlns:inkscape="http://www.inkscape.org/namespaces/inkscape"
   id="svg11300"
   height="128"
   width="128"
   version="1.0"
   inkscape:version="0.48.1 r9760"
   sodipodi:docname="printer.svg">
  <metadata
     id="metadata67">
    <rdf:RDF>
      <cc:Work
         rdf:about="">
        <dc:format>image/svg+xml</dc:format>
        <dc:type
           rdf:resource="http://purl.org/dc/dcmitype/StillImage" />
        <dc:title></dc:title>
      </cc:Work>
    </rdf:RDF>
  </metadata>
  <sodipodi:namedview
     pagecolor="#ffffff"
     bordercolor="#666666"
     borderopacity="1"
     objecttolerance="10"
     gridtolerance="10"
     guidetolerance="10"
     inkscape:pageopacity="0"
     inkscape:pageshadow="2"
     inkscape:window-width="1478"
     inkscape:window-height="907"
     id="namedview65"
     showgrid="false"
     inkscape:zoom="5.6171875"
     inkscape:cx="64.534075"
     inkscape:cy="66.225313"
     inkscape:window-x="0"
     inkscape:window-y="24"
     inkscape:window-maximized="0"
     inkscape:current-layer="svg11300" />
  <defs
     id="defs3">
    <linearGradient
       id="linearGradient6828">
      <stop
         id="stop6830"
         style="stop-color:#6e6e6e"
         offset="0" />
      <stop
         id="stop6832"
         style="stop-color:#1e1e1e"
         offset="1" />
    </linearGradient>
    <linearGradient
       id="linearGradient2366">
      <stop
         id="stop2368"
         style="stop-color:#2e3436"
         offset="0" />
      <stop
         id="stop2370"
         style="stop-color:#555753"
         offset="1" />
    </linearGradient>
    <linearGradient
       id="linearGradient8589">
      <stop
         id="stop8591"
         style="stop-color:#fefefe"
         offset="0" />
      <stop
         id="stop8593"
         style="stop-color:#bebebe"
         offset="1" />
    </linearGradient>
    <linearGradient
       id="linearGradient3104">
      <stop
         id="stop3106"
         style="stop-color:#969696"
         offset="0" />
      <stop
         id="stop3108"
         style="stop-color:#bebebe"
         offset="1" />
    </linearGradient>
    <linearGradient
       id="linearGradient3161"
       y2="32.485001"
       gradientUnits="userSpaceOnUse"
       x2="24.104"
       gradientTransform="matrix(0.89305,0,0,0.88766,-24.247,42.161)"
       y1="15.169"
       x1="24.104">
      <stop
         id="stop2266"
         style="stop-color:#ff002f;stop-opacity:1;"
         offset="0" />
      <stop
         id="stop2268"
         style="stop-color:#fb002b;stop-opacity:1;"
         offset="1" />
    </linearGradient>
    <linearGradient
       id="linearGradient3163"
       y2="47.272999"
       gradientUnits="userSpaceOnUse"
       x2="24.139"
       gradientTransform="matrix(0.53643,0,0,0.5332,-15.688,50.169)"
       y1="-9.8009005"
       x1="24.139">
      <stop
         id="stop4224"
         style="stop-color:#ff959f;stop-opacity:1;"
         offset="0" />
      <stop
         id="stop4226"
         style="stop-color:#ff0055;stop-opacity:1;"
         offset="1" />
    </linearGradient>
    <linearGradient
       id="linearGradient3166"
       y2="38"
       xlink:href="#linearGradient6828"
       gradientUnits="userSpaceOnUse"
       x2="24.875"
       gradientTransform="matrix(2.3260964,0,0,2.2808854,8.0638119,1.6586968)"
       y1="41"
       x1="24.875" />
    <linearGradient
       id="linearGradient3169"
       y2="43.380001"
       xlink:href="#linearGradient8589"
       gradientUnits="userSpaceOnUse"
       x2="21.062"
       gradientTransform="matrix(2.3260964,0,0,2.2808854,8.0638119,1.6586968)"
       y1="38"
       x1="21.062" />
    <linearGradient
       id="linearGradient3175"
       y2="31.987"
       xlink:href="#linearGradient3104"
       gradientUnits="userSpaceOnUse"
       x2="39.931"
       gradientTransform="matrix(1.3087084,0,0,1.4666549,50.940747,30.687525)"
       y1="28.417"
       x1="39.948002" />
    <radialGradient
       id="radialGradient3178"
       gradientUnits="userSpaceOnUse"
       cy="15.28"
       cx="11.537"
       gradientTransform="matrix(2.3260964,0,0,0.87727414,8.0638119,39.555607)"
       r="13">
      <stop
         id="stop2465"
         style="stop-color:#fff"
         offset="0" />
      <stop
         id="stop2467"
         style="stop-color:#fff;stop-opacity:0"
         offset="1" />
    </radialGradient>
    <linearGradient
       id="linearGradient3181"
       y2="40.875"
       xlink:href="#linearGradient6828"
       gradientUnits="userSpaceOnUse"
       x2="7.4545002"
       gradientTransform="matrix(2.2576859,0,0,1.8247083,9.7057569,20.133868)"
       y1="31.156"
       x1="7.5170002" />
    <linearGradient
       id="linearGradient3183"
       y2="33.5"
       xlink:href="#linearGradient2366"
       gradientUnits="userSpaceOnUse"
       x2="9.5"
       gradientTransform="matrix(2.3260964,0,0,2.2808854,9.2268599,0.5182538)"
       y1="41.375"
       x1="9.5625" />
    <linearGradient
       id="linearGradient3186"
       y2="33"
       xlink:href="#linearGradient6828"
       gradientUnits="userSpaceOnUse"
       x2="22.007999"
       gradientTransform="matrix(2.3260964,0,0,2.2808854,8.0638109,1.6586958)"
       y1="21"
       x1="21.919001" />
    <linearGradient
       id="linearGradient3188"
       y2="21"
       xlink:href="#linearGradient2366"
       gradientUnits="userSpaceOnUse"
       x2="15.335"
       gradientTransform="matrix(2.3260964,0,0,2.2808854,8.0638109,1.6586958)"
       y1="33"
       x1="15.601" />
    <linearGradient
       id="linearGradient3191"
       y2="5.4565001"
       xlink:href="#linearGradient8589"
       gradientUnits="userSpaceOnUse"
       x2="36.358002"
       gradientTransform="matrix(1.8209381,0,0,1.9705025,19.363291,-1.3913722)"
       y1="8.059"
       x1="32.891998" />
    <linearGradient
       id="linearGradient3195"
       y2="47.013"
       gradientUnits="userSpaceOnUse"
       x2="25.132"
       gradientTransform="matrix(1.6614841,0,0,1.5963232,24.01432,0.4046658)"
       y1="6.7287002"
       x1="25.132">
      <stop
         id="stop3602"
         style="stop-color:#f4f4f4"
         offset="0" />
      <stop
         id="stop3604"
         style="stop-color:#dbdbdb"
         offset="1" />
    </linearGradient>
    <linearGradient
       id="linearGradient3197"
       y2="2.9061999"
       xlink:href="#linearGradient3104"
       gradientUnits="userSpaceOnUse"
       x2="-51.785999"
       gradientTransform="matrix(1.3416459,0,0,1.4939115,122.72408,-1.3743572)"
       y1="50.785999"
       x1="-51.785999" />
    <radialGradient
       id="radialGradient3200"
       gradientUnits="userSpaceOnUse"
       cy="11.918"
       cx="3.7591"
       gradientTransform="matrix(2.3256777,0.04279853,-0.02937161,1.5346253,8.4154009,34.706445)"
       r="21">
      <stop
         id="stop6844"
         style="stop-color:#fff"
         offset="0" />
      <stop
         id="stop6846"
         style="stop-color:#fff;stop-opacity:0"
         offset="1" />
    </radialGradient>
    <linearGradient
       id="linearGradient3203"
       y2="37"
       xlink:href="#linearGradient8589"
       gradientUnits="userSpaceOnUse"
       x2="11.506"
       gradientTransform="matrix(2.3260964,0,0,2.2808854,8.0638109,1.6586958)"
       y1="20"
       x1="11.519" />
    <linearGradient
       id="linearGradient3205"
       y2="20"
       gradientUnits="userSpaceOnUse"
       x2="20.278999"
       gradientTransform="matrix(2.625,0,0,2.625,0,3.25)"
       y1="37"
       x1="20.562">
      <stop
         id="stop6868"
         style="stop-color:#8f9cf8;stop-opacity:1;"
         offset="0" />
      <stop
         id="stop6870"
         style="stop-color:#1a30dd;stop-opacity:1;"
         offset="1" />
    </linearGradient>
    <linearGradient
       id="linearGradient3208"
       y2="18.92"
       xlink:href="#linearGradient6828"
       gradientUnits="userSpaceOnUse"
       x2="21.687"
       gradientTransform="matrix(2.0444294,0,0,2.5737511,14.823681,-0.8356572)"
       y1="9.5516005"
       x1="21.586" />
    <linearGradient
       id="linearGradient3210"
       y2="8.9371996"
       xlink:href="#linearGradient2366"
       gradientUnits="userSpaceOnUse"
       x2="7.4375"
       gradientTransform="matrix(2.0444294,0,0,2.5737511,14.823681,-0.8356572)"
       y1="14.105"
       x1="7.4375" />
    <radialGradient
       id="radialGradient3213"
       gradientUnits="userSpaceOnUse"
       cy="41.875"
       cx="24"
       gradientTransform="matrix(3.2941125,0,0,0.89215875,-16.0587,69.5785)"
       r="19.125">
      <stop
         id="stop7614"
         offset="0" />
      <stop
         id="stop7616"
         style="stop-opacity:0"
         offset="1" />
    </radialGradient>
    <linearGradient
       id="linearGradient8408"
       y2="2.3162"
       xlink:href="#linearGradient4103"
       gradientUnits="userSpaceOnUse"
       x2="67.466003"
       gradientTransform="matrix(0.86248,0,0,0.58072,-16.257,11.013)"
       y1="2.3162"
       x1="52.717999" />
    <linearGradient
       id="linearGradient4103">
      <stop
         id="stop4105"
         style="stop-color:#edd563"
         offset="0" />
      <stop
         id="stop4107"
         style="stop-color:#e08223"
         offset="1" />
    </linearGradient>
    <linearGradient
       id="linearGradient6474"
       y2="11.359"
       gradientUnits="userSpaceOnUse"
       x2="42"
       y1="11.359"
       x1="29.143">
      <stop
         id="stop6470"
         style="stop-color:#335acd;stop-opacity:1;"
         offset="0" />
      <stop
         id="stop6472"
         style="stop-color:#1249bb;stop-opacity:1;"
         offset="1" />
    </linearGradient>
    <linearGradient
       id="linearGradient8410"
       y2="24.245001"
       xlink:href="#linearGradient6651"
       gradientUnits="userSpaceOnUse"
       x2="69.691002"
       gradientTransform="matrix(0.71944,0,0,0.71891,-7.6963,9.4717)"
       y1="24.245001"
       x1="53.168999" />
    <linearGradient
       id="linearGradient6651">
      <stop
         id="stop6653"
         style="stop-color:#f2f2f2"
         offset="0" />
      <stop
         id="stop6655"
         style="stop-color:#c3c3c3"
         offset="1" />
    </linearGradient>
    <linearGradient
       id="linearGradient8412"
       y2="41.459"
       gradientUnits="userSpaceOnUse"
       x2="61.872002"
       gradientTransform="matrix(0.88862,0,0,0.71891,-18.298,9.4717)"
       y1="29.615"
       x1="61.872002">
      <stop
         id="stop6631"
         style="stop-color:#aeaeae"
         offset="0" />
      <stop
         id="stop6633"
         style="stop-color:#c4c4c4;stop-opacity:0"
         offset="1" />
    </linearGradient>
    <linearGradient
       id="linearGradient8414"
       y2="64.519997"
       xlink:href="#linearGradient4103"
       gradientUnits="userSpaceOnUse"
       x2="54.064999"
       gradientTransform="matrix(0.70375,0,0,0.71891,-1.0447,-22.425)"
       y1="64.564003"
       x1="42.816002" />
    <linearGradient
       id="linearGradient4214">
      <stop
         id="stop4216"
         style="stop-color:#edd563"
         offset="0" />
      <stop
         id="stop4218"
         style="stop-color:#e08223"
         offset="1" />
    </linearGradient>
    <radialGradient
       id="radialGradient6440"
       gradientUnits="userSpaceOnUse"
       cy="20.34"
       cx="31.410999"
       gradientTransform="matrix(1,0,0,1.5787,0,-15.431)"
       r="7.9889998">
      <stop
         id="stop5115"
         style="stop-color:#fff"
         offset="0" />
      <stop
         id="stop5117"
         style="stop-color:#fff;stop-opacity:0"
         offset="1" />
    </radialGradient>
    <linearGradient
       id="linearGradient8418"
       y2="43.869999"
       xlink:href="#linearGradient6651"
       gradientUnits="userSpaceOnUse"
       x2="60.441002"
       gradientTransform="matrix(0.73731,0,0,0.77085,-8.532,7.1216)"
       y1="40.119999"
       x1="60.168999" />
    <linearGradient
       id="linearGradient4224">
      <stop
         id="stop4226-7"
         style="stop-color:#f2f2f2"
         offset="0" />
      <stop
         id="stop4228"
         style="stop-color:#c3c3c3"
         offset="1" />
    </linearGradient>
    <linearGradient
       id="linearGradient8420"
       y2="74.5"
       gradientUnits="userSpaceOnUse"
       x2="48.25"
       gradientTransform="matrix(0.71891,0,0,0.71891,-1.8971,-20.686)"
       y1="52"
       x1="48.25">
      <stop
         id="stop6837"
         style="stop-color:#fff"
         offset="0" />
      <stop
         id="stop6839"
         style="stop-color:#fff;stop-opacity:0"
         offset="1" />
    </linearGradient>
    <linearGradient
       inkscape:collect="always"
       xlink:href="#linearGradient2366"
       id="linearGradient4984"
       gradientUnits="userSpaceOnUse"
       gradientTransform="matrix(2.3260964,0,0,2.2808854,8.0638119,1.6586958)"
       x1="20.562"
       y1="37"
       x2="20.278999"
       y2="20" />
    <clipPath
       id="clipPath2956">
      <rect
         width="72"
         height="55.999996"
         rx="3"
         ry="3"
         x="12"
         y="20"
         id="rect2958"
         style="opacity:0.65163933;color:#000000;fill:#ff0000;fill-opacity:1;fill-rule:nonzero;stroke:none;stroke-width:1;marker:none;visibility:visible;display:inline;overflow:visible;enable-background:accumulate" />
    </clipPath>
    <clipPath
       id="clipPath2952">
      <rect
         width="72"
         height="55.999996"
         rx="3"
         ry="3"
         x="12"
         y="20"
         id="rect2954"
         style="opacity:0.65163933;color:#000000;fill:#ff0000;fill-opacity:1;fill-rule:nonzero;stroke:none;stroke-width:1;marker:none;visibility:visible;display:inline;overflow:visible;enable-background:accumulate" />
    </clipPath>
    <linearGradient
       x1="48"
       y1="48"
       x2="48"
       y2="72"
       id="linearGradient3938"
       xlink:href="#linearGradient3940"
       gradientUnits="userSpaceOnUse"
       spreadMethod="reflect" />
    <linearGradient
       id="linearGradient3940">
      <stop
         id="stop3942"
         style="stop-color:#5184cf;stop-opacity:1"
         offset="0" />
      <stop
         id="stop3944"
         style="stop-color:#123a76;stop-opacity:1"
         offset="1" />
    </linearGradient>
    <radialGradient
       cx="56"
       cy="24"
       r="16"
       fx="56"
       fy="24"
       id="radialGradient3934"
       xlink:href="#linearGradient3928"
       gradientUnits="userSpaceOnUse" />
    <linearGradient
       id="linearGradient3928">
      <stop
         id="stop3930"
         style="stop-color:#00ce99;stop-opacity:1"
         offset="0" />
      <stop
         id="stop3932"
         style="stop-color:#00805f;stop-opacity:0"
         offset="1" />
    </linearGradient>
    <radialGradient
       cx="60.562889"
       cy="49.720657"
       r="19.437111"
       fx="60.562889"
       fy="49.720657"
       id="radialGradient3867"
       xlink:href="#linearGradient3751"
       gradientUnits="userSpaceOnUse" />
    <linearGradient
       id="linearGradient3751">
      <stop
         id="stop3754"
         style="stop-color:#80e5ff;stop-opacity:1"
         offset="0" />
      <stop
         id="stop3869"
         style="stop-color:#80e5ff;stop-opacity:0.40310079"
         offset="0.5" />
      <stop
         id="stop3756"
         style="stop-color:#80e5ff;stop-opacity:0"
         offset="1" />
    </linearGradient>
    <radialGradient
       cx="47.977352"
       cy="64.057671"
       r="24.022646"
       fx="47.977352"
       fy="64.057671"
       id="radialGradient3747"
       xlink:href="#linearGradient3739"
       gradientUnits="userSpaceOnUse" />
    <linearGradient
       id="linearGradient3739">
      <stop
         id="stop3742"
         style="stop-color:#5fbcd3;stop-opacity:1"
         offset="0" />
      <stop
         id="stop3745"
         style="stop-color:#5fbcd3;stop-opacity:0"
         offset="1" />
    </linearGradient>
    <radialGradient
       cx="60.562889"
       cy="49.720657"
       r="19.437111"
       fx="60.562889"
       fy="49.720657"
       id="radialGradient3758"
       xlink:href="#linearGradient3751"
       gradientUnits="userSpaceOnUse" />
    <linearGradient
       id="linearGradient3474">
      <stop
         id="stop3476"
         style="stop-color:#80e5ff;stop-opacity:1"
         offset="0" />
      <stop
         id="stop3478"
         style="stop-color:#80e5ff;stop-opacity:0.40310079"
         offset="0.5" />
      <stop
         id="stop3480"
         style="stop-color:#80e5ff;stop-opacity:0"
         offset="1" />
    </linearGradient>
    <radialGradient
       cx="58.5"
       cy="37.5"
       r="2.5"
       fx="58.5"
       fy="37.5"
       id="radialGradient3833"
       xlink:href="#linearGradient3827"
       gradientUnits="userSpaceOnUse" />
    <linearGradient
       id="linearGradient3827">
      <stop
         id="stop3829"
         style="stop-color:#ffffff;stop-opacity:1"
         offset="0" />
      <stop
         id="stop3831"
         style="stop-color:#ffffff;stop-opacity:0"
         offset="1" />
    </linearGradient>
    <radialGradient
       cx="58.5"
       cy="37.5"
       r="2.5"
       fx="58.5"
       fy="37.5"
       id="radialGradient3837"
       xlink:href="#linearGradient3827"
       gradientUnits="userSpaceOnUse" />
    <linearGradient
       id="linearGradient3487">
      <stop
         id="stop3489"
         style="stop-color:#ffffff;stop-opacity:1"
         offset="0" />
      <stop
         id="stop3491"
         style="stop-color:#ffffff;stop-opacity:0"
         offset="1" />
    </linearGradient>
    <radialGradient
       cx="58.5"
       cy="37.5"
       r="2.5"
       fx="58.5"
       fy="37.5"
       id="radialGradient3841"
       xlink:href="#linearGradient3827"
       gradientUnits="userSpaceOnUse" />
    <linearGradient
       id="linearGradient3494">
      <stop
         id="stop3496"
         style="stop-color:#ffffff;stop-opacity:1"
         offset="0" />
      <stop
         id="stop3498"
         style="stop-color:#ffffff;stop-opacity:0"
         offset="1" />
    </linearGradient>
    <radialGradient
       cx="58.5"
       cy="37.5"
       r="2.5"
       fx="58.5"
       fy="37.5"
       id="radialGradient3845"
       xlink:href="#linearGradient3827"
       gradientUnits="userSpaceOnUse" />
    <linearGradient
       id="linearGradient3501">
      <stop
         id="stop3503"
         style="stop-color:#ffffff;stop-opacity:1"
         offset="0" />
      <stop
         id="stop3505"
         style="stop-color:#ffffff;stop-opacity:0"
         offset="1" />
    </linearGradient>
    <radialGradient
       cx="58.5"
       cy="37.5"
       r="2.5"
       fx="58.5"
       fy="37.5"
       id="radialGradient3849"
       xlink:href="#linearGradient3827"
       gradientUnits="userSpaceOnUse" />
    <linearGradient
       id="linearGradient3508">
      <stop
         id="stop3510"
         style="stop-color:#ffffff;stop-opacity:1"
         offset="0" />
      <stop
         id="stop3512"
         style="stop-color:#ffffff;stop-opacity:0"
         offset="1" />
    </linearGradient>
    <radialGradient
       cx="58.5"
       cy="37.5"
       r="2.5"
       fx="58.5"
       fy="37.5"
       id="radialGradient3853"
       xlink:href="#linearGradient3827"
       gradientUnits="userSpaceOnUse" />
    <linearGradient
       id="linearGradient3515">
      <stop
         id="stop3517"
         style="stop-color:#ffffff;stop-opacity:1"
         offset="0" />
      <stop
         id="stop3519"
         style="stop-color:#ffffff;stop-opacity:0"
         offset="1" />
    </linearGradient>
    <radialGradient
       cx="58.5"
       cy="37.5"
       r="2.5"
       fx="58.5"
       fy="37.5"
       id="radialGradient3857"
       xlink:href="#linearGradient3827"
       gradientUnits="userSpaceOnUse" />
    <linearGradient
       id="linearGradient3522">
      <stop
         id="stop3524"
         style="stop-color:#ffffff;stop-opacity:1"
         offset="0" />
      <stop
         id="stop3526"
         style="stop-color:#ffffff;stop-opacity:0"
         offset="1" />
    </linearGradient>
    <radialGradient
       cx="58.5"
       cy="37.5"
       r="2.5"
       fx="58.5"
       fy="37.5"
       id="radialGradient3861"
       xlink:href="#linearGradient3827"
       gradientUnits="userSpaceOnUse" />
    <linearGradient
       id="linearGradient3529">
      <stop
         id="stop3531"
         style="stop-color:#ffffff;stop-opacity:1"
         offset="0" />
      <stop
         id="stop3533"
         style="stop-color:#ffffff;stop-opacity:0"
         offset="1" />
    </linearGradient>
    <linearGradient
       x1="48"
       y1="56"
       x2="48"
       y2="0"
       id="linearGradient3982"
       xlink:href="#linearGradient3737"
       gradientUnits="userSpaceOnUse" />
    <linearGradient
       id="linearGradient3737">
      <stop
         id="stop3739"
         style="stop-color:#ffffff;stop-opacity:1"
         offset="0" />
      <stop
         id="stop3741"
         style="stop-color:#ffffff;stop-opacity:0"
         offset="1" />
    </linearGradient>
  </defs>
  <path
     id="rect6333"
     style="fill:url(#linearGradient3181);stroke:url(#linearGradient3183);stroke-width:2.30338001;stroke-linecap:square"
     d="m 16.205149,84.911017 c 0.186321,2.36528 -0.482432,4.90846 0.589898,7.09811 2.011608,2.7804 5.74569,1.86577 8.714488,2.02543 0.05357,1.6411 -0.496529,4.17448 1.797467,4.52368 24.233272,0.089 48.473523,0.0136 72.711448,0.0381 2.50102,0.0726 2.33424,-2.65038 2.25341,-4.37838 0.81683,-0.42564 2.43751,-0.063 3.56567,-0.18339 2.79109,0.37199 6.20393,-1.50499 5.73872,-4.62586 v -4.49764 H 16.206289 z"
     inkscape:connector-curvature="0" />
  <rect
     id="rect6329"
     style="fill:url(#linearGradient3166)"
     height="4.5617709"
     width="65.130699"
     y="88.332344"
     x="31.324776" />
  <path
     id="rect6331"
     style="fill:url(#linearGradient3169)"
     d="m 101.10767,88.332347 v 7.98309 c 0,0.63181 -0.51872,1.14045 -1.163051,1.14045 H 27.835631 c -0.644329,0 -1.163048,-0.50864 -1.163048,-1.14045 v -7.98309 h 74.435087 z"
     inkscape:connector-curvature="0" />
  <g
     style="display:inline"
     id="layer3"
     transform="matrix(0,1.0256246,-1.0762964,0,115.57322,32.180479)">
    <rect
       width="72"
       height="55.999996"
       x="-88"
       y="20"
       clip-path="url(#clipPath2956)"
       id="rect3727"
       style="opacity:0.65163933;color:#000000;fill:#ff0000;fill-opacity:1;fill-rule:nonzero;stroke:none;stroke-width:1;marker:none;visibility:visible;display:inline;overflow:visible;enable-background:accumulate" />
    <g
       clip-path="url(#clipPath2952)"
       id="g3871">
      <rect
         width="72"
         height="55.999996"
         x="12"
         y="20"
         id="rect3966"
         style="color:#000000;fill:url(#linearGradient3938);fill-opacity:1;fill-rule:nonzero;stroke:none;stroke-width:1;marker:none;visibility:visible;display:inline;overflow:visible;enable-background:accumulate" />
      <path
         d="m 72,24 a 16,16 0 1 1 -32,0 16,16 0 1 1 32,0 z"
         transform="matrix(2.75,0,0,2.75,-126,-40)"
         id="path3918"
         style="opacity:0.5;color:#000000;fill:url(#radialGradient3934);fill-opacity:1;fill-rule:nonzero;stroke:none;stroke-width:1;marker:none;visibility:visible;display:inline;overflow:visible;enable-background:accumulate"
         inkscape:connector-curvature="0" />
      <path
         d="m 80,49.720657 a 19.437111,19.437111 0 1 1 -38.874222,0 19.437111,19.437111 0 1 1 38.874222,0 z"
         transform="matrix(0.92606356,0,0,0.92606356,20.477805,-0.04448889)"
         id="path3865"
         style="opacity:0.69672134;color:#000000;fill:url(#radialGradient3867);fill-opacity:1;fill-rule:nonzero;stroke:none;stroke-width:1;marker:none;visibility:visible;display:inline;overflow:visible;enable-background:accumulate"
         inkscape:connector-curvature="0" />
      <path
         d="m 71.999998,64.057671 a 24.022646,24.022646 0 1 1 -48.045292,0 24.022646,24.022646 0 1 1 48.045292,0 z"
         transform="translate(-23.999998,-16.057671)"
         id="path3737"
         style="color:#000000;fill:url(#radialGradient3747);fill-opacity:1;fill-rule:nonzero;stroke:none;stroke-width:1;marker:none;visibility:visible;display:inline;overflow:visible;enable-background:accumulate"
         inkscape:connector-curvature="0" />
      <path
         d="m 80,49.720657 a 19.437111,19.437111 0 1 1 -38.874222,0 19.437111,19.437111 0 1 1 38.874222,0 z"
         transform="translate(-12.562889,-5.1577682)"
         id="path3749"
         style="opacity:0.43442622;color:#000000;fill:url(#radialGradient3758);fill-opacity:1;fill-rule:nonzero;stroke:none;stroke-width:1;marker:none;visibility:visible;display:inline;overflow:visible;enable-background:accumulate"
         inkscape:connector-curvature="0" />
      <path
         d="m 61,37.5 a 2.5,2.5 0 1 1 -5,0 2.5,2.5 0 1 1 5,0 z"
         id="path3779"
         style="opacity:0.4;color:#000000;fill:#ffffff;fill-opacity:1;fill-rule:nonzero;stroke:none;stroke-width:1;marker:none;visibility:visible;display:inline;overflow:visible;enable-background:accumulate"
         inkscape:connector-curvature="0" />
      <path
         d="m 61,37.5 a 2.5,2.5 0 1 1 -5,0 2.5,2.5 0 1 1 5,0 z"
         transform="translate(-33.5,10)"
         id="path3781"
         style="opacity:0.50409833;color:#000000;fill:#ffffff;fill-opacity:1;fill-rule:nonzero;stroke:none;stroke-width:1;marker:none;visibility:visible;display:inline;overflow:visible;enable-background:accumulate"
         inkscape:connector-curvature="0" />
      <path
         d="m 61,37.5 a 2.5,2.5 0 1 1 -5,0 2.5,2.5 0 1 1 5,0 z"
         transform="translate(4,13.5)"
         id="path3783"
         style="opacity:0.3;color:#000000;fill:#ffffff;fill-opacity:1;fill-rule:nonzero;stroke:none;stroke-width:1;marker:none;visibility:visible;display:inline;overflow:visible;enable-background:accumulate"
         inkscape:connector-curvature="0" />
      <path
         d="m 61,37.5 a 2.5,2.5 0 1 1 -5,0 2.5,2.5 0 1 1 5,0 z"
         transform="translate(17,8.5)"
         id="path3785"
         style="opacity:0.50409833;color:#000000;fill:#ffffff;fill-opacity:1;fill-rule:nonzero;stroke:none;stroke-width:1;marker:none;visibility:visible;display:inline;overflow:visible;enable-background:accumulate"
         inkscape:connector-curvature="0" />
      <path
         d="m 61,37.5 a 2.5,2.5 0 1 1 -5,0 2.5,2.5 0 1 1 5,0 z"
         transform="translate(-17,7.5)"
         id="path3787"
         style="opacity:0.50409833;color:#000000;fill:#ffffff;fill-opacity:1;fill-rule:nonzero;stroke:none;stroke-width:1;marker:none;visibility:visible;display:inline;overflow:visible;enable-background:accumulate"
         inkscape:connector-curvature="0" />
      <path
         d="m 61,37.5 a 2.5,2.5 0 1 1 -5,0 2.5,2.5 0 1 1 5,0 z"
         transform="translate(-42,3.5)"
         id="path3789"
         style="opacity:0.50409833;color:#000000;fill:#ffffff;fill-opacity:1;fill-rule:nonzero;stroke:none;stroke-width:1;marker:none;visibility:visible;display:inline;overflow:visible;enable-background:accumulate"
         inkscape:connector-curvature="0" />
      <path
         d="m 61,37.5 a 2.5,2.5 0 1 1 -5,0 2.5,2.5 0 1 1 5,0 z"
         transform="translate(-42,3.5)"
         id="path3791"
         style="opacity:0.3;color:#000000;fill:#ffffff;fill-opacity:1;fill-rule:nonzero;stroke:none;stroke-width:1;marker:none;visibility:visible;display:inline;overflow:visible;enable-background:accumulate"
         inkscape:connector-curvature="0" />
      <path
         d="m 61,37.5 a 2.5,2.5 0 1 1 -5,0 2.5,2.5 0 1 1 5,0 z"
         transform="matrix(0.4,0,0,0.4,-6.4,35)"
         id="path3793"
         style="opacity:0.50409833;color:#000000;fill:#ffffff;fill-opacity:1;fill-rule:nonzero;stroke:none;stroke-width:1;marker:none;visibility:visible;display:inline;overflow:visible;enable-background:accumulate"
         inkscape:connector-curvature="0" />
      <path
         d="m 61,37.5 a 2.5,2.5 0 1 1 -5,0 2.5,2.5 0 1 1 5,0 z"
         transform="matrix(0.4,0,0,0.4,7.6,38)"
         id="path3795"
         style="opacity:0.50409833;color:#000000;fill:#ffffff;fill-opacity:1;fill-rule:nonzero;stroke:none;stroke-width:1;marker:none;visibility:visible;display:inline;overflow:visible;enable-background:accumulate"
         inkscape:connector-curvature="0" />
      <path
         d="m 61,37.5 a 2.5,2.5 0 1 1 -5,0 2.5,2.5 0 1 1 5,0 z"
         transform="matrix(0.4,0,0,0.4,9.6,34)"
         id="path3797"
         style="opacity:0.50409833;color:#000000;fill:#ffffff;fill-opacity:1;fill-rule:nonzero;stroke:none;stroke-width:1;marker:none;visibility:visible;display:inline;overflow:visible;enable-background:accumulate"
         inkscape:connector-curvature="0" />
      <path
         d="m 61,37.5 a 2.5,2.5 0 1 1 -5,0 2.5,2.5 0 1 1 5,0 z"
         transform="matrix(0.4,0,0,0.4,16.6,36)"
         id="path3799"
         style="opacity:0.3;color:#000000;fill:#ffffff;fill-opacity:1;fill-rule:nonzero;stroke:none;stroke-width:1;marker:none;visibility:visible;display:inline;overflow:visible;enable-background:accumulate"
         inkscape:connector-curvature="0" />
      <path
         d="m 61,37.5 a 2.5,2.5 0 1 1 -5,0 2.5,2.5 0 1 1 5,0 z"
         transform="matrix(0.4,0,0,0.4,28.6,28)"
         id="path3801"
         style="opacity:0.50409833;color:#000000;fill:#ffffff;fill-opacity:1;fill-rule:nonzero;stroke:none;stroke-width:1;marker:none;visibility:visible;display:inline;overflow:visible;enable-background:accumulate"
         inkscape:connector-curvature="0" />
      <path
         d="m 61,37.5 a 2.5,2.5 0 1 1 -5,0 2.5,2.5 0 1 1 5,0 z"
         transform="matrix(0.4,0,0,0.4,45.6,33)"
         id="path3803"
         style="opacity:0.50409833;color:#000000;fill:#ffffff;fill-opacity:1;fill-rule:nonzero;stroke:none;stroke-width:1;marker:none;visibility:visible;display:inline;overflow:visible;enable-background:accumulate"
         inkscape:connector-curvature="0" />
      <path
         d="m 61,37.5 a 2.5,2.5 0 1 1 -5,0 2.5,2.5 0 1 1 5,0 z"
         transform="matrix(0.4,0,0,0.4,47.6,29)"
         id="path3805"
         style="opacity:0.50409833;color:#000000;fill:#ffffff;fill-opacity:1;fill-rule:nonzero;stroke:none;stroke-width:1;marker:none;visibility:visible;display:inline;overflow:visible;enable-background:accumulate"
         inkscape:connector-curvature="0" />
      <path
         d="m 61,37.5 a 2.5,2.5 0 1 1 -5,0 2.5,2.5 0 1 1 5,0 z"
         transform="matrix(0.4,0,0,0.4,55.6,23)"
         id="path3807"
         style="opacity:0.50409833;color:#000000;fill:#ffffff;fill-opacity:1;fill-rule:nonzero;stroke:none;stroke-width:1;marker:none;visibility:visible;display:inline;overflow:visible;enable-background:accumulate"
         inkscape:connector-curvature="0" />
      <path
         d="m 61,37.5 a 2.5,2.5 0 1 1 -5,0 2.5,2.5 0 1 1 5,0 z"
         transform="matrix(0.4,0,0,0.4,38.6,30)"
         id="path3809"
         style="opacity:0.50409833;color:#000000;fill:#ffffff;fill-opacity:1;fill-rule:nonzero;stroke:none;stroke-width:1;marker:none;visibility:visible;display:inline;overflow:visible;enable-background:accumulate"
         inkscape:connector-curvature="0" />
      <path
         d="m 61,37.5 a 2.5,2.5 0 1 1 -5,0 2.5,2.5 0 1 1 5,0 z"
         transform="matrix(0.4,0,0,0.4,38.6,30)"
         id="path3811"
         style="opacity:0.50409833;color:#000000;fill:#ffffff;fill-opacity:1;fill-rule:nonzero;stroke:none;stroke-width:1;marker:none;visibility:visible;display:inline;overflow:visible;enable-background:accumulate"
         inkscape:connector-curvature="0" />
      <path
         d="m 61,37.5 a 2.5,2.5 0 1 1 -5,0 2.5,2.5 0 1 1 5,0 z"
         transform="matrix(0.6,0,0,0.6,-1.1,21)"
         id="path3813"
         style="opacity:0.50409833;color:#000000;fill:#ffffff;fill-opacity:1;fill-rule:nonzero;stroke:none;stroke-width:1;marker:none;visibility:visible;display:inline;overflow:visible;enable-background:accumulate"
         inkscape:connector-curvature="0" />
      <path
         d="m 61,37.5 a 2.5,2.5 0 1 1 -5,0 2.5,2.5 0 1 1 5,0 z"
         transform="matrix(0.6,0,0,0.6,-6.6,18.5)"
         id="path3815"
         style="opacity:0.50409833;color:#000000;fill:#ffffff;fill-opacity:1;fill-rule:nonzero;stroke:none;stroke-width:1;marker:none;visibility:visible;display:inline;overflow:visible;enable-background:accumulate"
         inkscape:connector-curvature="0" />
      <path
         d="m 61,37.5 a 2.5,2.5 0 1 1 -5,0 2.5,2.5 0 1 1 5,0 z"
         transform="matrix(0.6,0,0,0.6,15.9,31)"
         id="path3817"
         style="opacity:0.50409833;color:#000000;fill:#ffffff;fill-opacity:1;fill-rule:nonzero;stroke:none;stroke-width:1;marker:none;visibility:visible;display:inline;overflow:visible;enable-background:accumulate"
         inkscape:connector-curvature="0" />
      <path
         d="m 61,37.5 a 2.5,2.5 0 1 1 -5,0 2.5,2.5 0 1 1 5,0 z"
         transform="matrix(0.6,0,0,0.6,19.4,26.5)"
         id="path3819"
         style="opacity:0.50409833;color:#000000;fill:#ffffff;fill-opacity:1;fill-rule:nonzero;stroke:none;stroke-width:1;marker:none;visibility:visible;display:inline;overflow:visible;enable-background:accumulate"
         inkscape:connector-curvature="0" />
      <path
         d="m 61,37.5 a 2.5,2.5 0 1 1 -5,0 2.5,2.5 0 1 1 5,0 z"
         transform="matrix(0.6,0,0,0.6,19.4,26.5)"
         id="path3821"
         style="opacity:0.50409833;color:#000000;fill:#ffffff;fill-opacity:1;fill-rule:nonzero;stroke:none;stroke-width:1;marker:none;visibility:visible;display:inline;overflow:visible;enable-background:accumulate"
         inkscape:connector-curvature="0" />
      <path
         d="m 61,37.5 a 2.5,2.5 0 1 1 -5,0 2.5,2.5 0 1 1 5,0 z"
         transform="matrix(0.6,0,0,0.6,37.9,29)"
         id="path3823"
         style="opacity:0.50409833;color:#000000;fill:#ffffff;fill-opacity:1;fill-rule:nonzero;stroke:none;stroke-width:1;marker:none;visibility:visible;display:inline;overflow:visible;enable-background:accumulate"
         inkscape:connector-curvature="0" />
      <path
         d="m 61,37.5 a 2.5,2.5 0 1 1 -5,0 2.5,2.5 0 1 1 5,0 z"
         transform="matrix(1.6,0,0,1.6,-43.6,-16)"
         id="path3825"
         style="opacity:0.3;color:#000000;fill:url(#radialGradient3833);fill-opacity:1;fill-rule:nonzero;stroke:none;stroke-width:1;marker:none;visibility:visible;display:inline;overflow:visible;enable-background:accumulate"
         inkscape:connector-curvature="0" />
      <path
         d="m 61,37.5 a 2.5,2.5 0 1 1 -5,0 2.5,2.5 0 1 1 5,0 z"
         transform="matrix(1.6,0,0,1.6,-23.6,-10)"
         id="path3835"
         style="opacity:0.3;color:#000000;fill:url(#radialGradient3837);fill-opacity:1;fill-rule:nonzero;stroke:none;stroke-width:1;marker:none;visibility:visible;display:inline;overflow:visible;enable-background:accumulate"
         inkscape:connector-curvature="0" />
      <path
         d="m 61,37.5 a 2.5,2.5 0 1 1 -5,0 2.5,2.5 0 1 1 5,0 z"
         transform="matrix(1.6,0,0,1.6,-72.6,-15)"
         id="path3839"
         style="opacity:0.3;color:#000000;fill:url(#radialGradient3841);fill-opacity:1;fill-rule:nonzero;stroke:none;stroke-width:1;marker:none;visibility:visible;display:inline;overflow:visible;enable-background:accumulate"
         inkscape:connector-curvature="0" />
      <path
         d="m 61,37.5 a 2.5,2.5 0 1 1 -5,0 2.5,2.5 0 1 1 5,0 z"
         transform="matrix(1.6,0,0,1.6,-59.6,-9)"
         id="path3843"
         style="opacity:0.3;color:#000000;fill:url(#radialGradient3845);fill-opacity:1;fill-rule:nonzero;stroke:none;stroke-width:1;marker:none;visibility:visible;display:inline;overflow:visible;enable-background:accumulate"
         inkscape:connector-curvature="0" />
      <path
         d="m 61,37.5 a 2.5,2.5 0 1 1 -5,0 2.5,2.5 0 1 1 5,0 z"
         transform="translate(-27,2.5)"
         id="path3847"
         style="opacity:0.3;color:#000000;fill:url(#radialGradient3849);fill-opacity:1;fill-rule:nonzero;stroke:none;stroke-width:1;marker:none;visibility:visible;display:inline;overflow:visible;enable-background:accumulate"
         inkscape:connector-curvature="0" />
      <path
         d="m 61,37.5 a 2.5,2.5 0 1 1 -5,0 2.5,2.5 0 1 1 5,0 z"
         transform="translate(9,4.5)"
         id="path3851"
         style="opacity:0.3;color:#000000;fill:url(#radialGradient3853);fill-opacity:1;fill-rule:nonzero;stroke:none;stroke-width:1;marker:none;visibility:visible;display:inline;overflow:visible;enable-background:accumulate"
         inkscape:connector-curvature="0" />
      <path
         d="m 61,37.5 a 2.5,2.5 0 1 1 -5,0 2.5,2.5 0 1 1 5,0 z"
         transform="translate(21,6.5)"
         id="path3855"
         style="opacity:0.3;color:#000000;fill:url(#radialGradient3857);fill-opacity:1;fill-rule:nonzero;stroke:none;stroke-width:1;marker:none;visibility:visible;display:inline;overflow:visible;enable-background:accumulate"
         inkscape:connector-curvature="0" />
      <path
         d="m 61,37.5 a 2.5,2.5 0 1 1 -5,0 2.5,2.5 0 1 1 5,0 z"
         transform="translate(-35,12.5)"
         id="path3859"
         style="opacity:0.3;color:#000000;fill:url(#radialGradient3861);fill-opacity:1;fill-rule:nonzero;stroke:none;stroke-width:1;marker:none;visibility:visible;display:inline;overflow:visible;enable-background:accumulate"
         inkscape:connector-curvature="0" />
      <path
         d="m 61,37.5 a 2.5,2.5 0 1 1 -5,0 2.5,2.5 0 1 1 5,0 z"
         transform="matrix(0.4,0,0,0.4,39.6,24)"
         id="path3863"
         style="opacity:0.50409833;color:#000000;fill:#ffffff;fill-opacity:1;fill-rule:nonzero;stroke:none;stroke-width:1;marker:none;visibility:visible;display:inline;overflow:visible;enable-background:accumulate"
         inkscape:connector-curvature="0" />
    </g>
  </g>
  <rect
     id="rect2315"
     style="fill:url(#linearGradient3208);stroke:url(#linearGradient3210);stroke-width:2.29423547;stroke-linecap:round;stroke-linejoin:round"
     rx="1.3114299"
     ry="1.6509961"
     height="50.188602"
     width="67.466095"
     y="21.041664"
     x="30.156845" />
  <path
     id="rect2313"
     style="fill:url(#linearGradient3203);stroke:url(#linearGradient4984);stroke-width:2.30338001;stroke-linecap:round;stroke-linejoin:round"
     d="m 18.715007,48.416848 h 11.446721 l 2.326096,2.280885 h 62.804605 l 2.32609,-2.280885 h 11.446731 c 2.67896,0 4.83595,2.114883 4.83595,4.74196 V 84.911017 H 13.879053 V 53.158808 c 0,-2.626895 2.156803,-4.74196 4.835954,-4.74196 z"
     inkscape:connector-curvature="0" />
  <path
     id="rect2374"
     style="opacity:0.9;fill:none;stroke:url(#radialGradient3200);stroke-width:2.30338001;stroke-linecap:round"
     d="m 18.531246,50.697733 h 90.717764 c 1.20682,0 2.32609,1.097516 2.32609,2.280885 V 82.630129 H 16.205149 V 52.978618 c 0,-1.183369 1.119272,-2.280885 2.326097,-2.280885 z"
     inkscape:connector-curvature="0" />
  <path
     id="rect2594"
     style="fill:url(#linearGradient3195);stroke:url(#linearGradient3197);stroke-width:2.303334;stroke-linejoin:round"
     d="m 34.81392,2.7991388 h 39.976293 c 2.337727,0.774817 14.896089,9.6020722 18.175419,15.7139322 v 34.46646 H 34.813222 V 2.8000518 z"
     inkscape:connector-curvature="0" />
  <path
     id="path8596"
     style="fill-opacity:0.32663;fill-rule:evenodd;stroke:#000000;stroke-width:2.32065535;stroke-linejoin:round;stroke-opacity:0.16583001"
     d="m 73.596926,2.8075788 c 1.073796,7.141909 1.026552,15.6416282 1.026552,15.6416282 0,0 8.202514,-0.193055 18.33499,1.028291 C 84.707805,11.188305 78.927455,7.7320788 73.596042,2.8076468 z"
     inkscape:connector-curvature="0" />
  <path
     id="path12038"
     style="fill:url(#linearGradient3191);fill-rule:evenodd"
     d="m 73.194511,1.6586968 c 2.577547,7.633211 2.363779,15.2958462 2.363779,15.2958462 0,0 14.296422,1.013397 18.571088,2.951237 0,-3.168377 -16.969338,-18.1930262 -20.934867,-18.2470832 z"
     inkscape:connector-curvature="0" />
  <rect
     id="rect2319"
     style="fill:url(#linearGradient3186);stroke:url(#linearGradient3188);stroke-width:2.30338001;stroke-linecap:round"
     height="25.089739"
     width="62.804604"
     y="50.697731"
     x="32.487823" />
  <rect
     id="rect2459"
     style="opacity:0.3;fill:none;stroke:url(#radialGradient3178);stroke-width:2.30338001;stroke-linecap:round"
     height="20.527969"
     width="58.152409"
     y="52.978615"
     x="34.813923" />
  <path
     id="path2726"
     style="fill:none;stroke:url(#linearGradient3175);stroke-width:1.72725856;stroke-linecap:round;stroke-linejoin:round"
     d="m 107.21368,75.787472 c 0,1.417525 -1.17187,2.566681 -2.61733,2.566681 -1.44555,0 -2.61732,-1.149133 -2.61732,-2.566681 0,-1.417524 1.17186,-2.56668 2.61732,-2.56668 1.44555,0 2.61733,1.149133 2.61733,2.56668 z"
     inkscape:connector-curvature="0" />
</svg>
