<?xml version="1.0" encoding="UTF-8" standalone="no"?>
<!-- Created with Inkscape (http://www.inkscape.org/) -->

<svg
   xmlns:dc="http://purl.org/dc/elements/1.1/"
   xmlns:cc="http://creativecommons.org/ns#"
   xmlns:rdf="http://www.w3.org/1999/02/22-rdf-syntax-ns#"
   xmlns:svg="http://www.w3.org/2000/svg"
   xmlns="http://www.w3.org/2000/svg"
   xmlns:xlink="http://www.w3.org/1999/xlink"
   xmlns:sodipodi="http://sodipodi.sourceforge.net/DTD/sodipodi-0.dtd"
   xmlns:inkscape="http://www.inkscape.org/namespaces/inkscape"
   version="1.0"
   width="128"
   height="128"
   id="svg2408"
   inkscape:version="0.48.1 r9760"
   sodipodi:docname="gnome-gnect.svg">
  <sodipodi:namedview
     pagecolor="#ffffff"
     bordercolor="#666666"
     borderopacity="1"
     objecttolerance="10"
     gridtolerance="10"
     guidetolerance="10"
     inkscape:pageopacity="0"
     inkscape:pageshadow="2"
     inkscape:window-width="1320"
     inkscape:window-height="753"
     id="namedview158"
     showgrid="false"
     inkscape:zoom="3.3020833"
     inkscape:cx="48"
     inkscape:cy="51.785489"
     inkscape:window-x="0"
     inkscape:window-y="24"
     inkscape:window-maximized="0"
     inkscape:current-layer="layer4" />
  <defs
     id="defs2410">
    <linearGradient
       id="linearGradient4035">
      <stop
         id="stop4037"
         style="stop-color:#8cd73e;stop-opacity:1"
         offset="0" />
      <stop
         id="stop4039"
         style="stop-color:#5db22b;stop-opacity:1"
         offset="0.71875" />
      <stop
         id="stop4041"
         style="stop-color:#379b26;stop-opacity:1"
         offset="1" />
    </linearGradient>
    <linearGradient
       id="linearGradient3895">
      <stop
         id="stop3897"
         style="stop-color:#ffffff;stop-opacity:1"
         offset="0" />
      <stop
         id="stop3899"
         style="stop-color:#ffffff;stop-opacity:0"
         offset="1" />
    </linearGradient>
    <linearGradient
       id="linearGradient3957">
      <stop
         id="stop3959"
         style="stop-color:#f14848;stop-opacity:1"
         offset="0" />
      <stop
         id="stop3965"
         style="stop-color:#e42323;stop-opacity:1"
         offset="0.671875" />
      <stop
         id="stop3963"
         style="stop-color:#c21313;stop-opacity:1"
         offset="1" />
    </linearGradient>
    <linearGradient
       id="linearGradient3927">
      <stop
         id="stop3929"
         style="stop-color:#5db1eb;stop-opacity:1"
         offset="0" />
      <stop
         id="stop3935"
         style="stop-color:#3ca0e6;stop-opacity:1"
         offset="0.71875" />
      <stop
         id="stop3933"
         style="stop-color:#1b90e2;stop-opacity:1"
         offset="1" />
    </linearGradient>
    <linearGradient
       id="linearGradient3781">
      <stop
         id="stop3783"
         style="stop-color:#ffffff;stop-opacity:1"
         offset="0" />
      <stop
         id="stop3785"
         style="stop-color:#ffffff;stop-opacity:0"
         offset="1" />
    </linearGradient>
    <linearGradient
       x1="45.447727"
       y1="92.539597"
       x2="45.447727"
       y2="7.0165396"
       id="ButtonShadow"
       gradientUnits="userSpaceOnUse"
       gradientTransform="scale(1.0058652,0.994169)">
      <stop
         id="stop3750"
         style="stop-color:#000000;stop-opacity:1"
         offset="0" />
      <stop
         id="stop3752"
         style="stop-color:#000000;stop-opacity:0.58823532"
         offset="1" />
    </linearGradient>
    <linearGradient
       id="linearGradient3737">
      <stop
         id="stop3739"
         style="stop-color:#ffffff;stop-opacity:1"
         offset="0" />
      <stop
         id="stop3741"
         style="stop-color:#ffffff;stop-opacity:0"
         offset="1" />
    </linearGradient>
    <filter
       color-interpolation-filters="sRGB"
       id="filter3174">
      <feGaussianBlur
         id="feGaussianBlur3176"
         stdDeviation="1.71" />
    </filter>
    <linearGradient
       x1="36.357143"
       y1="6"
       x2="36.357143"
       y2="63.893143"
       id="linearGradient3188"
       xlink:href="#linearGradient3737"
       gradientUnits="userSpaceOnUse" />
    <filter
       x="-0.192"
       y="-0.192"
       width="1.3839999"
       height="1.3839999"
       color-interpolation-filters="sRGB"
       id="filter3794">
      <feGaussianBlur
         id="feGaussianBlur3796"
         stdDeviation="5.28" />
    </filter>
    <linearGradient
       x1="48"
       y1="20.220806"
       x2="48"
       y2="138.66119"
       id="linearGradient3613"
       xlink:href="#linearGradient3737"
       gradientUnits="userSpaceOnUse" />
    <radialGradient
       cx="48"
       cy="90.171875"
       r="42"
       fx="48"
       fy="90.171875"
       id="radialGradient3619"
       xlink:href="#linearGradient3737"
       gradientUnits="userSpaceOnUse"
       gradientTransform="matrix(1.1573129,0,0,0.99590774,-7.5510206,0.19713193)" />
    <clipPath
       id="clipPath3613">
      <rect
         width="84"
         height="84"
         rx="6"
         ry="6"
         x="6"
         y="6"
         id="rect3615"
         style="fill:#ffffff;fill-opacity:1;fill-rule:nonzero;stroke:none" />
    </clipPath>
    <linearGradient
       x1="48"
       y1="90"
       x2="48"
       y2="5.9877172"
       id="linearGradient3617"
       xlink:href="#linearGradient3700-6"
       gradientUnits="userSpaceOnUse" />
    <linearGradient
       x1="45.447727"
       y1="92.539597"
       x2="45.447727"
       y2="7.0165396"
       id="ButtonShadow-0"
       gradientUnits="userSpaceOnUse"
       gradientTransform="matrix(1.0058652,0,0,0.994169,100,0)">
      <stop
         id="stop3750-8"
         style="stop-color:#000000;stop-opacity:1"
         offset="0" />
      <stop
         id="stop3752-5"
         style="stop-color:#000000;stop-opacity:0.58823532"
         offset="1" />
    </linearGradient>
    <linearGradient
       x1="32.251034"
       y1="6.1317081"
       x2="32.251034"
       y2="90.238609"
       id="linearGradient3780"
       xlink:href="#ButtonShadow-0"
       gradientUnits="userSpaceOnUse"
       gradientTransform="matrix(1.0238095,0,0,1.0119048,-1.1428571,-98.071429)" />
    <linearGradient
       x1="32.251034"
       y1="6.1317081"
       x2="32.251034"
       y2="90.238609"
       id="linearGradient3772"
       xlink:href="#ButtonShadow-0"
       gradientUnits="userSpaceOnUse"
       gradientTransform="matrix(1.0238095,0,0,1.0119048,-1.1428571,-98.071429)" />
    <linearGradient
       x1="32.251034"
       y1="6.1317081"
       x2="32.251034"
       y2="90.238609"
       id="linearGradient3725"
       xlink:href="#ButtonShadow-0"
       gradientUnits="userSpaceOnUse"
       gradientTransform="matrix(1.0238095,0,0,1.0119048,-1.1428571,-98.071429)" />
    <linearGradient
       x1="32.251034"
       y1="6.1317081"
       x2="32.251034"
       y2="90.238609"
       id="linearGradient3721"
       xlink:href="#ButtonShadow-0"
       gradientUnits="userSpaceOnUse"
       gradientTransform="translate(0,-97)" />
    <linearGradient
       x1="32.251034"
       y1="6.1317081"
       x2="32.251034"
       y2="90.238609"
       id="linearGradient3026"
       xlink:href="#ButtonShadow-0"
       gradientUnits="userSpaceOnUse"
       gradientTransform="matrix(1.0238095,0,0,1.0119048,-1.1428571,-98.071429)" />
    <radialGradient
       cx="32"
       cy="26"
       r="16"
       fx="32"
       fy="26"
       id="radialGradient3679"
       xlink:href="#linearGradient3927"
       gradientUnits="userSpaceOnUse"
       gradientTransform="matrix(1.1875,0,0,1.125,-6,-3.25)" />
    <linearGradient
       x1="61"
       y1="15"
       x2="67.29734"
       y2="38.501991"
       id="linearGradient3791"
       xlink:href="#linearGradient3781"
       gradientUnits="userSpaceOnUse"
       gradientTransform="matrix(1.4880952,0,0,1.4880952,-208.74144,-39.688823)" />
    <linearGradient
       id="linearGradient3700-6">
      <stop
         id="stop3702-3"
         style="stop-color:#2f2f2f;stop-opacity:1"
         offset="0" />
      <stop
         id="stop3704-9"
         style="stop-color:#4f4f4f;stop-opacity:1"
         offset="1" />
    </linearGradient>
    <radialGradient
       cx="32"
       cy="40"
       r="16"
       fx="32"
       fy="40"
       id="radialGradient3984"
       xlink:href="#linearGradient3957"
       gradientUnits="userSpaceOnUse"
       gradientTransform="matrix(1.1875,0,0,1.125,-6,-5)" />
    <radialGradient
       cx="32"
       cy="40"
       r="16"
       fx="32"
       fy="40"
       id="radialGradient3996"
       xlink:href="#linearGradient3957"
       gradientUnits="userSpaceOnUse"
       gradientTransform="matrix(1.1875,0,0,1.125,-6,-5)" />
    <linearGradient
       x1="61"
       y1="15"
       x2="67.29734"
       y2="38.501991"
       id="linearGradient3998"
       xlink:href="#linearGradient3781"
       gradientUnits="userSpaceOnUse" />
    <linearGradient
       x1="61"
       y1="15"
       x2="67.29734"
       y2="38.501991"
       id="linearGradient2960"
       xlink:href="#linearGradient3781"
       gradientUnits="userSpaceOnUse"
       gradientTransform="matrix(1.4880952,0,0,1.4880952,-155.17001,-39.688823)" />
    <linearGradient
       x1="61"
       y1="15"
       x2="67.29734"
       y2="38.501991"
       id="linearGradient3872"
       xlink:href="#linearGradient3781"
       gradientUnits="userSpaceOnUse"
       gradientTransform="translate(-100,36)" />
    <radialGradient
       cx="32"
       cy="40"
       r="16"
       fx="32"
       fy="40"
       id="radialGradient3946"
       xlink:href="#linearGradient3957"
       gradientUnits="userSpaceOnUse"
       gradientTransform="matrix(1.1875,0,0,1.125,-6,-5)" />
    <linearGradient
       x1="70"
       y1="71"
       x2="77"
       y2="78"
       id="linearGradient3948"
       xlink:href="#linearGradient3895"
       gradientUnits="userSpaceOnUse" />
    <radialGradient
       cx="32"
       cy="40"
       r="16"
       fx="32"
       fy="40"
       id="radialGradient3958"
       xlink:href="#linearGradient3957"
       gradientUnits="userSpaceOnUse"
       gradientTransform="matrix(1.1875,0,0,1.125,-6,-5)" />
    <linearGradient
       x1="70"
       y1="71"
       x2="77"
       y2="78"
       id="linearGradient3960"
       xlink:href="#linearGradient3895"
       gradientUnits="userSpaceOnUse" />
    <radialGradient
       cx="32"
       cy="40"
       r="16"
       fx="32"
       fy="40"
       id="radialGradient3970"
       xlink:href="#linearGradient3957"
       gradientUnits="userSpaceOnUse"
       gradientTransform="matrix(1.1875,0,0,1.125,-6,-5)" />
    <linearGradient
       x1="70"
       y1="71"
       x2="77"
       y2="78"
       id="linearGradient3972"
       xlink:href="#linearGradient3895"
       gradientUnits="userSpaceOnUse" />
    <radialGradient
       cx="32"
       cy="40"
       r="16"
       fx="32"
       fy="40"
       id="radialGradient3983"
       xlink:href="#linearGradient3957"
       gradientUnits="userSpaceOnUse"
       gradientTransform="matrix(1.1875,0,0,1.125,-6,-5)" />
    <linearGradient
       x1="70"
       y1="71"
       x2="77"
       y2="78"
       id="linearGradient3985"
       xlink:href="#linearGradient3895"
       gradientUnits="userSpaceOnUse" />
    <radialGradient
       cx="32"
       cy="40"
       r="16"
       fx="32"
       fy="40"
       id="radialGradient3995"
       xlink:href="#linearGradient3957"
       gradientUnits="userSpaceOnUse"
       gradientTransform="matrix(1.1875,0,0,1.125,-6,-5)" />
    <linearGradient
       x1="70"
       y1="71"
       x2="77"
       y2="78"
       id="linearGradient3997"
       xlink:href="#linearGradient3895"
       gradientUnits="userSpaceOnUse" />
    <radialGradient
       cx="32"
       cy="40"
       r="16"
       fx="32"
       fy="40"
       id="radialGradient4007"
       xlink:href="#linearGradient3957"
       gradientUnits="userSpaceOnUse"
       gradientTransform="matrix(1.1875,0,0,1.125,-6,-5)" />
    <linearGradient
       x1="70"
       y1="71"
       x2="77"
       y2="78"
       id="linearGradient4009"
       xlink:href="#linearGradient3895"
       gradientUnits="userSpaceOnUse" />
    <radialGradient
       cx="32"
       cy="40"
       r="16"
       fx="32"
       fy="40"
       id="radialGradient4019"
       xlink:href="#linearGradient3957"
       gradientUnits="userSpaceOnUse"
       gradientTransform="matrix(1.1875,0,0,1.125,-6,-5)" />
    <linearGradient
       x1="70"
       y1="71"
       x2="77"
       y2="78"
       id="linearGradient4021"
       xlink:href="#linearGradient3895"
       gradientUnits="userSpaceOnUse" />
    <radialGradient
       cx="32"
       cy="40"
       r="16"
       fx="32"
       fy="40"
       id="radialGradient4031"
       xlink:href="#linearGradient4035"
       gradientUnits="userSpaceOnUse"
       gradientTransform="matrix(1.1875,0,0,1.125,-6,-5)" />
    <linearGradient
       x1="70"
       y1="71"
       x2="77"
       y2="78"
       id="linearGradient4033"
       xlink:href="#linearGradient3895"
       gradientUnits="userSpaceOnUse" />
    <radialGradient
       cx="32"
       cy="40"
       r="16"
       fx="32"
       fy="40"
       id="radialGradient4051"
       xlink:href="#linearGradient4035"
       gradientUnits="userSpaceOnUse"
       gradientTransform="matrix(1.1875,0,0,1.125,-6,-5)" />
    <linearGradient
       x1="70"
       y1="71"
       x2="77"
       y2="78"
       id="linearGradient4053"
       xlink:href="#linearGradient3895"
       gradientUnits="userSpaceOnUse" />
    <radialGradient
       cx="32"
       cy="40"
       r="16"
       fx="32"
       fy="40"
       id="radialGradient4063"
       xlink:href="#linearGradient4035"
       gradientUnits="userSpaceOnUse"
       gradientTransform="matrix(1.1875,0,0,1.125,-6,-5)" />
    <linearGradient
       x1="70"
       y1="71"
       x2="77"
       y2="78"
       id="linearGradient4065"
       xlink:href="#linearGradient3895"
       gradientUnits="userSpaceOnUse" />
    <radialGradient
       cx="32"
       cy="40"
       r="16"
       fx="32"
       fy="40"
       id="radialGradient4075"
       xlink:href="#linearGradient4035"
       gradientUnits="userSpaceOnUse"
       gradientTransform="matrix(1.1875,0,0,1.125,-6,-5)" />
    <linearGradient
       x1="70"
       y1="71"
       x2="77"
       y2="78"
       id="linearGradient4077"
       xlink:href="#linearGradient3895"
       gradientUnits="userSpaceOnUse" />
  </defs>
  <metadata
     id="metadata2413">
    <rdf:RDF>
      <cc:Work
         rdf:about="">
        <dc:format>image/svg+xml</dc:format>
        <dc:type
           rdf:resource="http://purl.org/dc/dcmitype/StillImage" />
        <dc:title />
      </cc:Work>
    </rdf:RDF>
  </metadata>
  <g
     id="layer2"
     style="display:none"
     transform="translate(0,32)">
    <rect
       width="86"
       height="85"
       rx="6"
       ry="6"
       x="5"
       y="7"
       id="rect3745"
       style="opacity:0.9;fill:url(#ButtonShadow);fill-opacity:1;fill-rule:nonzero;stroke:none;filter:url(#filter3174)" />
  </g>
  <g
     id="layer5"
     transform="matrix(1.4880952,0,0,1.4880952,-6.3604854,-7.6888234)">
    <rect
       width="66"
       height="66"
       rx="12"
       ry="12"
       x="15"
       y="15"
       clip-path="url(#clipPath3613)"
       id="rect3171"
       style="opacity:0.1;fill:url(#linearGradient3613);fill-opacity:1;fill-rule:nonzero;stroke:#ffffff;stroke-width:0.5;stroke-linecap:round;stroke-linejoin:miter;stroke-miterlimit:4;stroke-opacity:1;stroke-dasharray:none;stroke-dashoffset:0;filter:url(#filter3794)" />
  </g>
  <g
     id="layer4"
     transform="translate(0,32)">
    <path
       d="m 105.24666,-21.878184 c -9.00308,0 -16.41555,7.412472 -16.41555,16.4155506 0,5.69315933 3.09405,10.5235224 7.53348,13.4393602 C 94.58485,9.1665393 93.09012,10.661273 91.9003,12.441013 88.98447,8.0015809 84.1541,4.9075304 78.46094,4.9075304 c -9.00308,0 -16.41555,7.4124716 -16.41555,16.4155506 0,5.69316 3.09405,10.523523 7.53349,13.43936 -1.77974,1.189813 -3.27448,2.684547 -4.46429,4.464286 -2.91584,-4.439431 -7.7462,-7.533482 -13.43936,-7.533482 -5.656425,0 -10.469535,3.048377 -13.392858,7.440476 -2.923323,-4.392099 -7.736433,-7.440476 -13.392857,-7.440476 -9.003079,0 -16.4155504,7.412472 -16.4155504,16.415551 0,5.656424 3.0483764,10.469534 7.4404764,13.392857 -4.3921,2.923323 -7.4404764,7.736433 -7.4404764,13.392857 0,9.003079 7.4124714,16.41555 16.4155504,16.41555 5.656424,0 10.469534,-3.048376 13.392857,-7.440476 2.923323,4.3921 7.736433,7.440476 13.392858,7.440476 5.65642,0 10.46953,-3.048376 13.39286,-7.440476 2.92332,4.3921 7.73643,7.440476 13.39285,7.440476 5.65643,0 10.46954,-3.048376 13.39286,-7.440476 2.92332,4.3921 7.73643,7.440476 13.39286,7.440476 9.00308,0 16.41555,-7.412471 16.41555,-16.41555 0,-5.656424 -3.04838,-10.469534 -7.44048,-13.392857 4.3921,-2.923323 7.44048,-7.736433 7.44048,-13.392857 0,-5.656424 -3.04838,-10.469535 -7.44048,-13.392858 4.3921,-2.923322 7.44048,-7.736433 7.44048,-13.392857 0,-5.656424 -3.04838,-10.469534 -7.44048,-13.3928572 4.3921,-2.9233229 7.44048,-7.73643297 7.44048,-13.3928572 0,-9.0030786 -7.41247,-16.4155506 -16.41555,-16.4155506 z M 91.8538,30.112144 c 1.21691,1.845342 2.75845,3.386888 4.6038,4.603794 -1.84535,1.216907 -3.38689,2.758453 -4.6038,4.603795 -1.21691,-1.845342 -2.75845,-3.386888 -4.60379,-4.603795 1.84534,-1.216906 3.38688,-2.758452 4.60379,-4.603794 z M 38.282372,56.897858 c 1.216907,1.845342 2.758453,3.386889 4.603795,4.603795 -1.845342,1.216906 -3.386888,2.758452 -4.603795,4.603794 -1.216906,-1.845342 -2.758452,-3.386888 -4.603794,-4.603794 1.845342,-1.216906 3.386888,-2.758453 4.603794,-4.603795 z m 26.785718,0 c 1.2169,1.845342 2.75845,3.386889 4.60379,4.603795 -1.84534,1.216906 -3.38689,2.758452 -4.60379,4.603794 -1.21691,-1.845342 -2.75846,-3.386888 -4.6038,-4.603794 1.84534,-1.216906 3.38689,-2.758453 4.6038,-4.603795 z m 26.78571,0 c 1.21691,1.845342 2.75845,3.386889 4.6038,4.603795 -1.84586,1.21654 -3.38742,2.757756 -4.6038,4.603794 -1.21691,-1.845342 -2.75845,-3.386888 -4.60379,-4.603794 1.84534,-1.216906 3.38688,-2.758453 4.60379,-4.603795 z"
       id="path4089"
       style="opacity:0.05;color:#000000;fill:#000000;fill-opacity:1;fill-rule:nonzero;stroke:none;stroke-width:0.5;marker:none;visibility:visible;display:inline;overflow:visible;enable-background:accumulate"
       inkscape:connector-curvature="0" />
    <path
       d="m 105.24666,-20.297082 c -8.14911,0 -14.83445,6.685342 -14.83445,14.8344486 0,5.96794953 3.62738,11.0509182 8.74256,13.3928572 -3.24569,1.4860104 -5.81496,4.0552802 -7.30097,7.3009672 -2.34194,-5.115174 -7.42491,-8.7425595 -13.39286,-8.7425595 -8.1491,0 -14.83445,6.6853425 -14.83445,14.8344495 0,5.96795 3.62739,11.050918 8.74256,13.392857 -3.24568,1.486011 -5.81495,4.05528 -7.30096,7.300968 -2.34194,-5.115174 -7.42491,-8.74256 -13.39286,-8.74256 -5.96795,0 -11.050919,3.627386 -13.392858,8.74256 -2.341939,-5.115174 -7.424907,-8.74256 -13.392857,-8.74256 -8.149107,0 -14.834449,6.685342 -14.834449,14.83445 0,5.967949 3.627385,11.050918 8.742559,13.392857 -5.115174,2.341939 -8.742559,7.424907 -8.742559,13.392857 0,8.149107 6.685342,14.834449 14.834449,14.834449 5.96795,0 11.050918,-3.627385 13.392857,-8.742559 2.341939,5.115174 7.424908,8.742559 13.392858,8.742559 5.96795,0 11.05092,-3.627385 13.39286,-8.742559 2.34194,5.115174 7.4249,8.742559 13.39285,8.742559 5.96795,0 11.05092,-3.627385 13.39286,-8.742559 2.34194,5.115174 7.42491,8.742559 13.39286,8.742559 8.14911,0 14.83445,-6.685342 14.83445,-14.834449 0,-5.96795 -3.62739,-11.050918 -8.74256,-13.392857 5.11517,-2.341939 8.74256,-7.424908 8.74256,-13.392857 0,-5.96795 -3.62739,-11.050919 -8.74256,-13.392858 5.11517,-2.341939 8.74256,-7.424907 8.74256,-13.392857 0,-5.967949 -3.62739,-11.050918 -8.74256,-13.3928572 5.11517,-2.341939 8.74256,-7.42490767 8.74256,-13.3928572 0,-8.1491066 -6.68534,-14.8344486 -14.83445,-14.8344486 z M 91.8538,27.414971 c 1.48601,3.245688 4.05528,5.814957 7.30097,7.300967 -3.24569,1.486011 -5.81496,4.05528 -7.30097,7.300968 -1.48601,-3.245688 -4.05528,-5.814957 -7.30097,-7.300968 3.24569,-1.48601 5.81496,-4.055279 7.30097,-7.300967 z M 38.282372,54.200685 c 1.486011,3.245688 4.05528,5.814957 7.300968,7.300968 -3.245688,1.48601 -5.814957,4.05528 -7.300968,7.300967 -1.48601,-3.245687 -4.055279,-5.814957 -7.300967,-7.300967 3.245688,-1.486011 5.814957,-4.05528 7.300967,-7.300968 z m 26.785718,0 c 1.48601,3.245688 4.05528,5.814957 7.30096,7.300968 -3.24568,1.48601 -5.81495,4.05528 -7.30096,7.300967 -1.48601,-3.245687 -4.05528,-5.814957 -7.30097,-7.300967 3.24569,-1.486011 5.81496,-4.05528 7.30097,-7.300968 z m 26.78571,0 c 1.48601,3.245688 4.05528,5.814957 7.30097,7.300968 -3.25051,1.490061 -5.81627,4.049902 -7.30097,7.300967 -1.48601,-3.245687 -4.05528,-5.814957 -7.30097,-7.300967 3.24569,-1.486011 5.81496,-4.05528 7.30097,-7.300968 z"
       id="path4085"
       style="opacity:0.1;color:#000000;fill:#000000;fill-opacity:1;fill-rule:nonzero;stroke:none;stroke-width:0.5;marker:none;visibility:visible;display:inline;overflow:visible;enable-background:accumulate"
       inkscape:connector-curvature="0" />
    <path
       d="m 105.24666,-18.85549 c -7.37414,0 -13.39286,6.018719 -13.39286,13.3928566 0,7.3741384 6.01872,13.3928572 13.39286,13.3928572 7.37414,0 13.39286,-6.0187188 13.39286,-13.3928572 0,-7.3741376 -6.01872,-13.3928566 -13.39286,-13.3928566 z m 0,26.7857138 c -7.37414,0 -13.39286,6.0187192 -13.39286,13.3928572 0,7.374139 6.01872,13.392857 13.39286,13.392857 7.37414,0 13.39286,-6.018718 13.39286,-13.392857 0,-7.374138 -6.01872,-13.3928572 -13.39286,-13.3928572 z m 0,26.7857142 c -7.37414,0 -13.39286,6.018719 -13.39286,13.392858 0,7.374138 6.01872,13.392857 13.39286,13.392857 7.37414,0 13.39286,-6.018719 13.39286,-13.392857 0,-7.374139 -6.01872,-13.392858 -13.39286,-13.392858 z m 0,26.785715 c -0.42485,0 -0.86428,-0.0027 -1.34859,0.0465 -6.74839,0.685336 -12.04427,6.4318 -12.04427,13.346354 0,7.374138 6.01872,13.392857 13.39286,13.392857 7.37414,0 13.39286,-6.018719 13.39286,-13.392857 0,-7.374138 -6.01872,-13.392857 -13.39286,-13.392857 z M 91.8538,74.89451 c 0,-7.374138 -6.01872,-13.392857 -13.39286,-13.392857 -7.37413,0 -13.39285,6.018719 -13.39285,13.392857 0,7.374138 6.01872,13.392857 13.39285,13.392857 7.37414,0 13.39286,-6.018719 13.39286,-13.392857 z m -26.78571,0 c 0,-7.374138 -6.01872,-13.392857 -13.39286,-13.392857 -7.374139,0 -13.392858,6.018719 -13.392858,13.392857 0,7.374138 6.018719,13.392857 13.392858,13.392857 7.37414,0 13.39286,-6.018719 13.39286,-13.392857 z m -26.785718,0 c 0,-7.374138 -6.018718,-13.392857 -13.392857,-13.392857 -7.374138,0 -13.392857,6.018719 -13.392857,13.392857 0,7.374138 6.018719,13.392857 13.392857,13.392857 7.374139,0 13.392857,-6.018719 13.392857,-13.392857 z M 24.889515,61.501653 c 7.374139,0 13.392857,-6.018719 13.392857,-13.392857 0,-7.374139 -6.018718,-13.392858 -13.392857,-13.392858 -7.374138,0 -13.392857,6.018719 -13.392857,13.392858 0,7.374138 6.018719,13.392857 13.392857,13.392857 z M 38.282372,48.108796 c 0,7.374138 6.018719,13.392857 13.392858,13.392857 7.37414,0 13.39286,-6.018719 13.39286,-13.392857 0,-7.374139 -6.01872,-13.392858 -13.39286,-13.392858 -7.374139,0 -13.392858,6.018719 -13.392858,13.392858 z m 26.785718,0 c 0,7.374138 6.01872,13.392857 13.39285,13.392857 7.37414,0 13.39286,-6.018719 13.39286,-13.392857 0,-7.374139 -6.01872,-13.392858 -13.39286,-13.392858 -7.37413,0 -13.39285,6.018719 -13.39285,13.392858 z M 78.46094,34.715938 c 7.37414,0 13.39286,-6.018718 13.39286,-13.392857 0,-7.374138 -6.01872,-13.3928572 -13.39286,-13.3928572 -7.37413,0 -13.39285,6.0187192 -13.39285,13.3928572 0,7.374139 6.01872,13.392857 13.39285,13.392857 z"
       id="path4081"
       style="opacity:0.15;color:#000000;fill:#000000;fill-opacity:1;fill-rule:nonzero;stroke:none;stroke-width:0.5;marker:none;visibility:visible;display:inline;overflow:visible;enable-background:accumulate"
       inkscape:connector-curvature="0" />
    <path
       d="m 105.24666,-17.367395 c -6.57482,0 -11.90476,5.329944 -11.90476,11.9047616 0,6.5748185 5.32994,11.904762 11.90476,11.904762 6.57482,0 11.90476,-5.3299435 11.90476,-11.904762 0,-6.5748176 -5.32994,-11.9047616 -11.90476,-11.9047616 z M 78.46094,9.418319 c -6.57481,0 -11.90476,5.329944 -11.90476,11.904762 0,6.574819 5.32995,11.904762 11.90476,11.904762 6.57482,0 11.90477,-5.329943 11.90477,-11.904762 0,-6.574818 -5.32995,-11.904762 -11.90477,-11.904762 z m 26.78572,0 c -6.57482,0 -11.90476,5.329944 -11.90476,11.904762 0,6.574819 5.32994,11.904762 11.90476,11.904762 6.57482,0 11.90476,-5.329943 11.90476,-11.904762 0,-6.574818 -5.32994,-11.904762 -11.90476,-11.904762 z M 24.889515,36.204034 c -6.574818,0 -11.904762,5.329943 -11.904762,11.904762 0,6.574818 5.329944,11.904762 11.904762,11.904762 6.574819,0 11.904762,-5.329944 11.904762,-11.904762 0,-6.574819 -5.329943,-11.904762 -11.904762,-11.904762 z m 26.785715,0 c -6.574819,0 -11.904762,5.329943 -11.904762,11.904762 0,6.574818 5.329943,11.904762 11.904762,11.904762 6.57482,0 11.90476,-5.329944 11.90476,-11.904762 0,-6.574819 -5.32994,-11.904762 -11.90476,-11.904762 z m 26.78571,0 c -6.57481,0 -11.90476,5.329943 -11.90476,11.904762 0,6.574818 5.32995,11.904762 11.90476,11.904762 6.57482,0 11.90477,-5.329944 11.90477,-11.904762 0,-6.574819 -5.32995,-11.904762 -11.90477,-11.904762 z m 26.78572,0 c -6.57482,0 -11.90476,5.329943 -11.90476,11.904762 0,6.574818 5.32994,11.904762 11.90476,11.904762 6.57482,0 11.90476,-5.329944 11.90476,-11.904762 0,-6.574819 -5.32994,-11.904762 -11.90476,-11.904762 z M 24.889515,62.989748 c -6.574818,0 -11.904762,5.329943 -11.904762,11.904762 0,6.574818 5.329944,11.904762 11.904762,11.904762 6.574819,0 11.904762,-5.329944 11.904762,-11.904762 0,-6.574819 -5.329943,-11.904762 -11.904762,-11.904762 z m 26.785715,0 c -6.574819,0 -11.904762,5.329943 -11.904762,11.904762 0,6.574818 5.329943,11.904762 11.904762,11.904762 6.57482,0 11.90476,-5.329944 11.90476,-11.904762 0,-6.574819 -5.32994,-11.904762 -11.90476,-11.904762 z m 26.78571,0 c -6.57481,0 -11.90476,5.329943 -11.90476,11.904762 0,6.574818 5.32995,11.904762 11.90476,11.904762 6.57482,0 11.90477,-5.329944 11.90477,-11.904762 0,-6.574819 -5.32995,-11.904762 -11.90477,-11.904762 z m 26.78572,0 c -0.41093,0 -0.80888,0.0058 -1.20908,0.0465 -6.00305,0.609643 -10.69568,5.694366 -10.69568,11.858259 0,6.574818 5.32994,11.904762 11.90476,11.904762 6.57482,3e-6 11.90476,-5.329941 11.90476,-11.904759 0,-6.574819 -5.32994,-11.904762 -11.90476,-11.904762 z"
       inkscape:connector-curvature="0"
       id="path3908"
       style="opacity:0.3;color:#000000;fill:#000000;fill-opacity:1;fill-rule:nonzero;stroke:none;stroke-width:0.5;marker:none;visibility:visible;display:inline;overflow:visible;enable-background:accumulate" />
    <path
       d="m -110.52715,-17.367395 c -12.32779,0 -22.32143,9.9936436 -22.32143,22.3214283 0,5.3701447 1.90921,10.2857537 5.06882,14.1369047 -2.26923,-3.416029 -3.58073,-7.496339 -3.58073,-11.9047618 0,-11.9168587 9.66053,-21.5773802 21.57739,-21.5773802 11.536544,0 20.941246,9.0714814 21.530874,20.4613087 0.01851,-0.3727991 0.0465,-0.738677 0.0465,-1.1160714 0,-12.3277847 -9.993644,-22.3214283 -22.321424,-22.3214283 z"
       inkscape:connector-curvature="0"
       id="path3789"
       style="opacity:0.4;color:#000000;fill:url(#linearGradient3791);fill-opacity:1;fill-rule:nonzero;stroke:none;stroke-width:0.5;marker:none;visibility:visible;display:inline;overflow:visible;enable-background:accumulate" />
    <path
       d="m -56.955723,-17.367395 c -12.327784,0 -22.321428,9.9936436 -22.321428,22.3214283 0,5.3701447 1.909206,10.2857537 5.068824,14.1369047 -2.269237,-3.416029 -3.580729,-7.496339 -3.580729,-11.9047618 0,-11.9168587 9.660522,-21.5773802 21.57738,-21.5773802 11.536548,0 20.941251,9.0714814 21.530879,20.4613087 0.01851,-0.3727991 0.0465,-0.738677 0.0465,-1.1160714 0,-12.3277847 -9.993645,-22.3214283 -22.321429,-22.3214283 z"
       inkscape:connector-curvature="0"
       id="path3764"
       style="opacity:0.3;color:#000000;fill:url(#linearGradient2960);fill-opacity:1;fill-rule:nonzero;stroke:none;stroke-width:0.5;marker:none;visibility:visible;display:inline;overflow:visible;enable-background:accumulate" />
    <g
       id="g3941"
       transform="matrix(1.4880952,0,0,1.4880952,-6.3604854,-39.688823)">
      <path
         d="m 48,32 a 16,16 0 1 1 -32,0 16,16 0 1 1 32,0 z"
         transform="matrix(0.5,0,0,0.5,59,60)"
         id="path2973"
         style="color:#000000;fill:url(#radialGradient3946);fill-opacity:1;fill-rule:nonzero;stroke:none;stroke-width:0.5;marker:none;visibility:visible;display:inline;overflow:visible;enable-background:accumulate"
         inkscape:connector-curvature="0" />
      <path
         d="m 75,68 c -4.418278,0 -8,3.581722 -8,8 0,4.418278 3.581722,8 8,8 4.418278,0 8,-3.581722 8,-8 0,-4.418278 -3.581722,-8 -8,-8 z m 0,1 c 3.865993,0 7,3.134007 7,7 0,3.865993 -3.134007,7 -7,7 -3.865993,0 -7,-3.134007 -7,-7 0,-3.865993 3.134007,-7 7,-7 z"
         inkscape:connector-curvature="0"
         id="path3875"
         style="opacity:0.2;color:#000000;fill:#000000;fill-opacity:1;fill-rule:nonzero;stroke:none;stroke-width:0.5;marker:none;visibility:visible;display:inline;overflow:visible;enable-background:accumulate" />
      <path
         d="m 75,69 c -3.865993,0 -7,3.134007 -7,7 0,3.865993 3.134007,7 7,7 0.08388,0 0.166829,0.0029 0.25,0 C 71.778184,82.866248 69,80.004572 69,76.5 69,72.910149 71.910149,70 75.5,70 c 3.504572,0 6.366248,2.778184 6.5,6.25 0.0029,-0.08317 0,-0.166115 0,-0.25 0,-3.865993 -3.134007,-7 -7,-7 z"
         inkscape:connector-curvature="0"
         id="path3888"
         style="opacity:0.3;color:#000000;fill:url(#linearGradient3948);fill-opacity:1;fill-rule:nonzero;stroke:none;stroke-width:0.5;marker:none;visibility:visible;display:inline;overflow:visible;enable-background:accumulate" />
    </g>
    <g
       transform="matrix(1.4880952,0,0,1.4880952,-33.146199,-39.688823)"
       id="g3950">
      <path
         d="m 48,32 a 16,16 0 1 1 -32,0 16,16 0 1 1 32,0 z"
         transform="matrix(0.5,0,0,0.5,59,60)"
         id="path3952"
         style="color:#000000;fill:url(#radialGradient3958);fill-opacity:1;fill-rule:nonzero;stroke:none;stroke-width:0.5;marker:none;visibility:visible;display:inline;overflow:visible;enable-background:accumulate"
         inkscape:connector-curvature="0" />
      <path
         d="m 75,68 c -4.418278,0 -8,3.581722 -8,8 0,4.418278 3.581722,8 8,8 4.418278,0 8,-3.581722 8,-8 0,-4.418278 -3.581722,-8 -8,-8 z m 0,1 c 3.865993,0 7,3.134007 7,7 0,3.865993 -3.134007,7 -7,7 -3.865993,0 -7,-3.134007 -7,-7 0,-3.865993 3.134007,-7 7,-7 z"
         inkscape:connector-curvature="0"
         id="path3954"
         style="opacity:0.2;color:#000000;fill:#000000;fill-opacity:1;fill-rule:nonzero;stroke:none;stroke-width:0.5;marker:none;visibility:visible;display:inline;overflow:visible;enable-background:accumulate" />
      <path
         d="m 75,69 c -3.865993,0 -7,3.134007 -7,7 0,3.865993 3.134007,7 7,7 0.08388,0 0.166829,0.0029 0.25,0 C 71.778184,82.866248 69,80.004572 69,76.5 69,72.910149 71.910149,70 75.5,70 c 3.504572,0 6.366248,2.778184 6.5,6.25 0.0029,-0.08317 0,-0.166115 0,-0.25 0,-3.865993 -3.134007,-7 -7,-7 z"
         inkscape:connector-curvature="0"
         id="path3956"
         style="opacity:0.3;color:#000000;fill:url(#linearGradient3960);fill-opacity:1;fill-rule:nonzero;stroke:none;stroke-width:0.5;marker:none;visibility:visible;display:inline;overflow:visible;enable-background:accumulate" />
    </g>
    <g
       transform="matrix(1.4880952,0,0,1.4880952,-59.931913,-39.688823)"
       id="g3962">
      <path
         d="m 48,32 a 16,16 0 1 1 -32,0 16,16 0 1 1 32,0 z"
         transform="matrix(0.5,0,0,0.5,59,60)"
         id="path3964"
         style="color:#000000;fill:url(#radialGradient3970);fill-opacity:1;fill-rule:nonzero;stroke:none;stroke-width:0.5;marker:none;visibility:visible;display:inline;overflow:visible;enable-background:accumulate"
         inkscape:connector-curvature="0" />
      <path
         d="m 75,68 c -4.418278,0 -8,3.581722 -8,8 0,4.418278 3.581722,8 8,8 4.418278,0 8,-3.581722 8,-8 0,-4.418278 -3.581722,-8 -8,-8 z m 0,1 c 3.865993,0 7,3.134007 7,7 0,3.865993 -3.134007,7 -7,7 -3.865993,0 -7,-3.134007 -7,-7 0,-3.865993 3.134007,-7 7,-7 z"
         inkscape:connector-curvature="0"
         id="path3966"
         style="opacity:0.2;color:#000000;fill:#000000;fill-opacity:1;fill-rule:nonzero;stroke:none;stroke-width:0.5;marker:none;visibility:visible;display:inline;overflow:visible;enable-background:accumulate" />
      <path
         d="m 75,69 c -3.865993,0 -7,3.134007 -7,7 0,3.865993 3.134007,7 7,7 0.08388,0 0.166829,0.0029 0.25,0 C 71.778184,82.866248 69,80.004572 69,76.5 69,72.910149 71.910149,70 75.5,70 c 3.504572,0 6.366248,2.778184 6.5,6.25 0.0029,-0.08317 0,-0.166115 0,-0.25 0,-3.865993 -3.134007,-7 -7,-7 z"
         inkscape:connector-curvature="0"
         id="path3968"
         style="opacity:0.3;color:#000000;fill:url(#linearGradient3972);fill-opacity:1;fill-rule:nonzero;stroke:none;stroke-width:0.5;marker:none;visibility:visible;display:inline;overflow:visible;enable-background:accumulate" />
    </g>
    <g
       transform="matrix(1.4880952,0,0,1.4880952,-86.717628,-39.688823)"
       id="g3974">
      <path
         d="m 48,32 a 16,16 0 1 1 -32,0 16,16 0 1 1 32,0 z"
         transform="matrix(0.5,0,0,0.5,59,60)"
         id="path3976"
         style="color:#000000;fill:url(#radialGradient3983);fill-opacity:1;fill-rule:nonzero;stroke:none;stroke-width:0.5;marker:none;visibility:visible;display:inline;overflow:visible;enable-background:accumulate"
         inkscape:connector-curvature="0" />
      <path
         d="m 75,68 c -4.418278,0 -8,3.581722 -8,8 0,4.418278 3.581722,8 8,8 4.418278,0 8,-3.581722 8,-8 0,-4.418278 -3.581722,-8 -8,-8 z m 0,1 c 3.865993,0 7,3.134007 7,7 0,3.865993 -3.134007,7 -7,7 -3.865993,0 -7,-3.134007 -7,-7 0,-3.865993 3.134007,-7 7,-7 z"
         inkscape:connector-curvature="0"
         id="path3979"
         style="opacity:0.2;color:#000000;fill:#000000;fill-opacity:1;fill-rule:nonzero;stroke:none;stroke-width:0.5;marker:none;visibility:visible;display:inline;overflow:visible;enable-background:accumulate" />
      <path
         d="m 75,69 c -3.865993,0 -7,3.134007 -7,7 0,3.865993 3.134007,7 7,7 0.08388,0 0.166829,0.0029 0.25,0 C 71.778184,82.866248 69,80.004572 69,76.5 69,72.910149 71.910149,70 75.5,70 c 3.504572,0 6.366248,2.778184 6.5,6.25 0.0029,-0.08317 0,-0.166115 0,-0.25 0,-3.865993 -3.134007,-7 -7,-7 z"
         inkscape:connector-curvature="0"
         id="path3981"
         style="opacity:0.3;color:#000000;fill:url(#linearGradient3985);fill-opacity:1;fill-rule:nonzero;stroke:none;stroke-width:0.5;marker:none;visibility:visible;display:inline;overflow:visible;enable-background:accumulate" />
    </g>
    <g
       transform="matrix(1.4880952,0,0,1.4880952,-59.931913,-66.474538)"
       id="g3987">
      <path
         d="m 48,32 a 16,16 0 1 1 -32,0 16,16 0 1 1 32,0 z"
         transform="matrix(0.5,0,0,0.5,59,60)"
         id="path3989"
         style="color:#000000;fill:url(#radialGradient3995);fill-opacity:1;fill-rule:nonzero;stroke:none;stroke-width:0.5;marker:none;visibility:visible;display:inline;overflow:visible;enable-background:accumulate"
         inkscape:connector-curvature="0" />
      <path
         d="m 75,68 c -4.418278,0 -8,3.581722 -8,8 0,4.418278 3.581722,8 8,8 4.418278,0 8,-3.581722 8,-8 0,-4.418278 -3.581722,-8 -8,-8 z m 0,1 c 3.865993,0 7,3.134007 7,7 0,3.865993 -3.134007,7 -7,7 -3.865993,0 -7,-3.134007 -7,-7 0,-3.865993 3.134007,-7 7,-7 z"
         inkscape:connector-curvature="0"
         id="path3991"
         style="opacity:0.2;color:#000000;fill:#000000;fill-opacity:1;fill-rule:nonzero;stroke:none;stroke-width:0.5;marker:none;visibility:visible;display:inline;overflow:visible;enable-background:accumulate" />
      <path
         d="m 75,69 c -3.865993,0 -7,3.134007 -7,7 0,3.865993 3.134007,7 7,7 0.08388,0 0.166829,0.0029 0.25,0 C 71.778184,82.866248 69,80.004572 69,76.5 69,72.910149 71.910149,70 75.5,70 c 3.504572,0 6.366248,2.778184 6.5,6.25 0.0029,-0.08317 0,-0.166115 0,-0.25 0,-3.865993 -3.134007,-7 -7,-7 z"
         inkscape:connector-curvature="0"
         id="path3993"
         style="opacity:0.3;color:#000000;fill:url(#linearGradient3997);fill-opacity:1;fill-rule:nonzero;stroke:none;stroke-width:0.5;marker:none;visibility:visible;display:inline;overflow:visible;enable-background:accumulate" />
    </g>
    <g
       transform="matrix(1.4880952,0,0,1.4880952,-33.146199,-93.260252)"
       id="g3999">
      <path
         d="m 48,32 a 16,16 0 1 1 -32,0 16,16 0 1 1 32,0 z"
         transform="matrix(0.5,0,0,0.5,59,60)"
         id="path4001"
         style="color:#000000;fill:url(#radialGradient4007);fill-opacity:1;fill-rule:nonzero;stroke:none;stroke-width:0.5;marker:none;visibility:visible;display:inline;overflow:visible;enable-background:accumulate"
         inkscape:connector-curvature="0" />
      <path
         d="m 75,68 c -4.418278,0 -8,3.581722 -8,8 0,4.418278 3.581722,8 8,8 4.418278,0 8,-3.581722 8,-8 0,-4.418278 -3.581722,-8 -8,-8 z m 0,1 c 3.865993,0 7,3.134007 7,7 0,3.865993 -3.134007,7 -7,7 -3.865993,0 -7,-3.134007 -7,-7 0,-3.865993 3.134007,-7 7,-7 z"
         inkscape:connector-curvature="0"
         id="path4003"
         style="opacity:0.2;color:#000000;fill:#000000;fill-opacity:1;fill-rule:nonzero;stroke:none;stroke-width:0.5;marker:none;visibility:visible;display:inline;overflow:visible;enable-background:accumulate" />
      <path
         d="m 75,69 c -3.865993,0 -7,3.134007 -7,7 0,3.865993 3.134007,7 7,7 0.08388,0 0.166829,0.0029 0.25,0 C 71.778184,82.866248 69,80.004572 69,76.5 69,72.910149 71.910149,70 75.5,70 c 3.504572,0 6.366248,2.778184 6.5,6.25 0.0029,-0.08317 0,-0.166115 0,-0.25 0,-3.865993 -3.134007,-7 -7,-7 z"
         inkscape:connector-curvature="0"
         id="path4005"
         style="opacity:0.3;color:#000000;fill:url(#linearGradient4009);fill-opacity:1;fill-rule:nonzero;stroke:none;stroke-width:0.5;marker:none;visibility:visible;display:inline;overflow:visible;enable-background:accumulate" />
    </g>
    <g
       transform="matrix(1.4880952,0,0,1.4880952,-6.3604854,-120.04596)"
       id="g4011">
      <path
         d="m 48,32 a 16,16 0 1 1 -32,0 16,16 0 1 1 32,0 z"
         transform="matrix(0.5,0,0,0.5,59,60)"
         id="path4013"
         style="color:#000000;fill:url(#radialGradient4019);fill-opacity:1;fill-rule:nonzero;stroke:none;stroke-width:0.5;marker:none;visibility:visible;display:inline;overflow:visible;enable-background:accumulate"
         inkscape:connector-curvature="0" />
      <path
         d="m 75,68 c -4.418278,0 -8,3.581722 -8,8 0,4.418278 3.581722,8 8,8 4.418278,0 8,-3.581722 8,-8 0,-4.418278 -3.581722,-8 -8,-8 z m 0,1 c 3.865993,0 7,3.134007 7,7 0,3.865993 -3.134007,7 -7,7 -3.865993,0 -7,-3.134007 -7,-7 0,-3.865993 3.134007,-7 7,-7 z"
         inkscape:connector-curvature="0"
         id="path4015"
         style="opacity:0.2;color:#000000;fill:#000000;fill-opacity:1;fill-rule:nonzero;stroke:none;stroke-width:0.5;marker:none;visibility:visible;display:inline;overflow:visible;enable-background:accumulate" />
      <path
         d="m 75,69 c -3.865993,0 -7,3.134007 -7,7 0,3.865993 3.134007,7 7,7 0.08388,0 0.166829,0.0029 0.25,0 C 71.778184,82.866248 69,80.004572 69,76.5 69,72.910149 71.910149,70 75.5,70 c 3.504572,0 6.366248,2.778184 6.5,6.25 0.0029,-0.08317 0,-0.166115 0,-0.25 0,-3.865993 -3.134007,-7 -7,-7 z"
         inkscape:connector-curvature="0"
         id="path4017"
         style="opacity:0.3;color:#000000;fill:url(#linearGradient4021);fill-opacity:1;fill-rule:nonzero;stroke:none;stroke-width:0.5;marker:none;visibility:visible;display:inline;overflow:visible;enable-background:accumulate" />
    </g>
    <g
       transform="matrix(1.4880952,0,0,1.4880952,-86.717628,-66.474538)"
       id="g4023">
      <path
         d="m 48,32 a 16,16 0 1 1 -32,0 16,16 0 1 1 32,0 z"
         transform="matrix(0.5,0,0,0.5,59,60)"
         id="path4025"
         style="color:#000000;fill:url(#radialGradient4031);fill-opacity:1;fill-rule:nonzero;stroke:none;stroke-width:0.5;marker:none;visibility:visible;display:inline;overflow:visible;enable-background:accumulate"
         inkscape:connector-curvature="0" />
      <path
         d="m 75,68 c -4.418278,0 -8,3.581722 -8,8 0,4.418278 3.581722,8 8,8 4.418278,0 8,-3.581722 8,-8 0,-4.418278 -3.581722,-8 -8,-8 z m 0,1 c 3.865993,0 7,3.134007 7,7 0,3.865993 -3.134007,7 -7,7 -3.865993,0 -7,-3.134007 -7,-7 0,-3.865993 3.134007,-7 7,-7 z"
         inkscape:connector-curvature="0"
         id="path4027"
         style="opacity:0.2;color:#000000;fill:#000000;fill-opacity:1;fill-rule:nonzero;stroke:none;stroke-width:0.5;marker:none;visibility:visible;display:inline;overflow:visible;enable-background:accumulate" />
      <path
         d="m 75,69 c -3.865993,0 -7,3.134007 -7,7 0,3.865993 3.134007,7 7,7 0.08388,0 0.166829,0.0029 0.25,0 C 71.778184,82.866248 69,80.004572 69,76.5 69,72.910149 71.910149,70 75.5,70 c 3.504572,0 6.366248,2.778184 6.5,6.25 0.0029,-0.08317 0,-0.166115 0,-0.25 0,-3.865993 -3.134007,-7 -7,-7 z"
         inkscape:connector-curvature="0"
         id="path4029"
         style="opacity:0.3;color:#000000;fill:url(#linearGradient4033);fill-opacity:1;fill-rule:nonzero;stroke:none;stroke-width:0.5;marker:none;visibility:visible;display:inline;overflow:visible;enable-background:accumulate" />
    </g>
    <g
       transform="matrix(1.4880952,0,0,1.4880952,-33.146199,-66.474538)"
       id="g4043">
      <path
         d="m 48,32 a 16,16 0 1 1 -32,0 16,16 0 1 1 32,0 z"
         transform="matrix(0.5,0,0,0.5,59,60)"
         id="path4045"
         style="color:#000000;fill:url(#radialGradient4051);fill-opacity:1;fill-rule:nonzero;stroke:none;stroke-width:0.5;marker:none;visibility:visible;display:inline;overflow:visible;enable-background:accumulate"
         inkscape:connector-curvature="0" />
      <path
         d="m 75,68 c -4.418278,0 -8,3.581722 -8,8 0,4.418278 3.581722,8 8,8 4.418278,0 8,-3.581722 8,-8 0,-4.418278 -3.581722,-8 -8,-8 z m 0,1 c 3.865993,0 7,3.134007 7,7 0,3.865993 -3.134007,7 -7,7 -3.865993,0 -7,-3.134007 -7,-7 0,-3.865993 3.134007,-7 7,-7 z"
         inkscape:connector-curvature="0"
         id="path4047"
         style="opacity:0.2;color:#000000;fill:#000000;fill-opacity:1;fill-rule:nonzero;stroke:none;stroke-width:0.5;marker:none;visibility:visible;display:inline;overflow:visible;enable-background:accumulate" />
      <path
         d="m 75,69 c -3.865993,0 -7,3.134007 -7,7 0,3.865993 3.134007,7 7,7 0.08388,0 0.166829,0.0029 0.25,0 C 71.778184,82.866248 69,80.004572 69,76.5 69,72.910149 71.910149,70 75.5,70 c 3.504572,0 6.366248,2.778184 6.5,6.25 0.0029,-0.08317 0,-0.166115 0,-0.25 0,-3.865993 -3.134007,-7 -7,-7 z"
         inkscape:connector-curvature="0"
         id="path4049"
         style="opacity:0.3;color:#000000;fill:url(#linearGradient4053);fill-opacity:1;fill-rule:nonzero;stroke:none;stroke-width:0.5;marker:none;visibility:visible;display:inline;overflow:visible;enable-background:accumulate" />
    </g>
    <g
       transform="matrix(1.4880952,0,0,1.4880952,-6.3604854,-66.474538)"
       id="g4055">
      <path
         d="m 48,32 a 16,16 0 1 1 -32,0 16,16 0 1 1 32,0 z"
         transform="matrix(0.5,0,0,0.5,59,60)"
         id="path4057"
         style="color:#000000;fill:url(#radialGradient4063);fill-opacity:1;fill-rule:nonzero;stroke:none;stroke-width:0.5;marker:none;visibility:visible;display:inline;overflow:visible;enable-background:accumulate"
         inkscape:connector-curvature="0" />
      <path
         d="m 75,68 c -4.418278,0 -8,3.581722 -8,8 0,4.418278 3.581722,8 8,8 4.418278,0 8,-3.581722 8,-8 0,-4.418278 -3.581722,-8 -8,-8 z m 0,1 c 3.865993,0 7,3.134007 7,7 0,3.865993 -3.134007,7 -7,7 -3.865993,0 -7,-3.134007 -7,-7 0,-3.865993 3.134007,-7 7,-7 z"
         inkscape:connector-curvature="0"
         id="path4059"
         style="opacity:0.2;color:#000000;fill:#000000;fill-opacity:1;fill-rule:nonzero;stroke:none;stroke-width:0.5;marker:none;visibility:visible;display:inline;overflow:visible;enable-background:accumulate" />
      <path
         d="m 75,69 c -3.865993,0 -7,3.134007 -7,7 0,3.865993 3.134007,7 7,7 0.08388,0 0.166829,0.0029 0.25,0 C 71.778184,82.866248 69,80.004572 69,76.5 69,72.910149 71.910149,70 75.5,70 c 3.504572,0 6.366248,2.778184 6.5,6.25 0.0029,-0.08317 0,-0.166115 0,-0.25 0,-3.865993 -3.134007,-7 -7,-7 z"
         inkscape:connector-curvature="0"
         id="path4061"
         style="opacity:0.3;color:#000000;fill:url(#linearGradient4065);fill-opacity:1;fill-rule:nonzero;stroke:none;stroke-width:0.5;marker:none;visibility:visible;display:inline;overflow:visible;enable-background:accumulate" />
    </g>
    <g
       transform="matrix(1.4880952,0,0,1.4880952,-6.3604854,-93.260252)"
       id="g4067">
      <path
         d="m 48,32 a 16,16 0 1 1 -32,0 16,16 0 1 1 32,0 z"
         transform="matrix(0.5,0,0,0.5,59,60)"
         id="path4069"
         style="color:#000000;fill:url(#radialGradient4075);fill-opacity:1;fill-rule:nonzero;stroke:none;stroke-width:0.5;marker:none;visibility:visible;display:inline;overflow:visible;enable-background:accumulate"
         inkscape:connector-curvature="0" />
      <path
         d="m 75,68 c -4.418278,0 -8,3.581722 -8,8 0,4.418278 3.581722,8 8,8 4.418278,0 8,-3.581722 8,-8 0,-4.418278 -3.581722,-8 -8,-8 z m 0,1 c 3.865993,0 7,3.134007 7,7 0,3.865993 -3.134007,7 -7,7 -3.865993,0 -7,-3.134007 -7,-7 0,-3.865993 3.134007,-7 7,-7 z"
         inkscape:connector-curvature="0"
         id="path4071"
         style="opacity:0.2;color:#000000;fill:#000000;fill-opacity:1;fill-rule:nonzero;stroke:none;stroke-width:0.5;marker:none;visibility:visible;display:inline;overflow:visible;enable-background:accumulate" />
      <path
         d="m 75,69 c -3.865993,0 -7,3.134007 -7,7 0,3.865993 3.134007,7 7,7 0.08388,0 0.166829,0.0029 0.25,0 C 71.778184,82.866248 69,80.004572 69,76.5 69,72.910149 71.910149,70 75.5,70 c 3.504572,0 6.366248,2.778184 6.5,6.25 0.0029,-0.08317 0,-0.166115 0,-0.25 0,-3.865993 -3.134007,-7 -7,-7 z"
         inkscape:connector-curvature="0"
         id="path4073"
         style="opacity:0.3;color:#000000;fill:url(#linearGradient4077);fill-opacity:1;fill-rule:nonzero;stroke:none;stroke-width:0.5;marker:none;visibility:visible;display:inline;overflow:visible;enable-background:accumulate" />
    </g>
  </g>
</svg>
