<?xml version="1.0" encoding="UTF-8" standalone="no"?>
<!-- Created with Inkscape (http://www.inkscape.org/) -->

<svg
   xmlns:dc="http://purl.org/dc/elements/1.1/"
   xmlns:cc="http://creativecommons.org/ns#"
   xmlns:rdf="http://www.w3.org/1999/02/22-rdf-syntax-ns#"
   xmlns:svg="http://www.w3.org/2000/svg"
   xmlns="http://www.w3.org/2000/svg"
   xmlns:xlink="http://www.w3.org/1999/xlink"
   xmlns:sodipodi="http://sodipodi.sourceforge.net/DTD/sodipodi-0.dtd"
   xmlns:inkscape="http://www.inkscape.org/namespaces/inkscape"
   version="1.0"
   width="96"
   height="96"
   id="svg2408"
   inkscape:version="0.48.1 r9760"
   sodipodi:docname="gnome-activity-journal.svg">
  <sodipodi:namedview
     pagecolor="#ffffff"
     bordercolor="#666666"
     borderopacity="1"
     objecttolerance="10"
     gridtolerance="10"
     guidetolerance="10"
     inkscape:pageopacity="0"
     inkscape:pageshadow="2"
     inkscape:window-width="1300"
     inkscape:window-height="850"
     id="namedview59"
     showgrid="false"
     inkscape:zoom="3.3020833"
     inkscape:cx="48.908517"
     inkscape:cy="51.785489"
     inkscape:window-x="0"
     inkscape:window-y="24"
     inkscape:window-maximized="0"
     inkscape:current-layer="layer4" />
  <defs
     id="defs2410">
    <linearGradient
       id="linearGradient4933">
      <stop
         id="stop4935"
         style="stop-color:#ebebeb;stop-opacity:1"
         offset="0" />
      <stop
         id="stop4937"
         style="stop-color:#fafafa;stop-opacity:1"
         offset="1" />
    </linearGradient>
    <linearGradient
       id="linearGradient4917">
      <stop
         id="stop4919"
         style="stop-color:#2684a3;stop-opacity:1"
         offset="0" />
      <stop
         id="stop4921"
         style="stop-color:#46b0d4;stop-opacity:1"
         offset="1" />
    </linearGradient>
    <linearGradient
       x1="45.447727"
       y1="92.539597"
       x2="45.447727"
       y2="7.0165396"
       id="ButtonShadow"
       gradientUnits="userSpaceOnUse"
       gradientTransform="scale(1.0058652,0.994169)">
      <stop
         id="stop3750"
         style="stop-color:#000000;stop-opacity:1"
         offset="0" />
      <stop
         id="stop3752"
         style="stop-color:#000000;stop-opacity:0.58823532"
         offset="1" />
    </linearGradient>
    <linearGradient
       id="linearGradient3737">
      <stop
         id="stop3739"
         style="stop-color:#ffffff;stop-opacity:1"
         offset="0" />
      <stop
         id="stop3741"
         style="stop-color:#ffffff;stop-opacity:0"
         offset="1" />
    </linearGradient>
    <filter
       color-interpolation-filters="sRGB"
       id="filter3174">
      <feGaussianBlur
         id="feGaussianBlur3176"
         stdDeviation="1.71" />
    </filter>
    <linearGradient
       x1="36.357143"
       y1="6"
       x2="36.357143"
       y2="63.893143"
       id="linearGradient3188"
       xlink:href="#linearGradient3737"
       gradientUnits="userSpaceOnUse" />
    <filter
       x="-0.192"
       y="-0.192"
       width="1.3839999"
       height="1.3839999"
       color-interpolation-filters="sRGB"
       id="filter3794">
      <feGaussianBlur
         id="feGaussianBlur3796"
         stdDeviation="5.28" />
    </filter>
    <linearGradient
       x1="48"
       y1="20.220806"
       x2="48"
       y2="138.66119"
       id="linearGradient3613"
       xlink:href="#linearGradient3737"
       gradientUnits="userSpaceOnUse" />
    <radialGradient
       cx="48"
       cy="90.171875"
       r="42"
       fx="48"
       fy="90.171875"
       id="radialGradient3619"
       xlink:href="#linearGradient3737"
       gradientUnits="userSpaceOnUse"
       gradientTransform="matrix(1.1573129,0,0,0.99590774,-7.5510206,0.19713193)" />
    <clipPath
       id="clipPath3613">
      <rect
         width="84"
         height="84"
         rx="6"
         ry="6"
         x="6"
         y="6"
         id="rect3615"
         style="fill:#ffffff;fill-opacity:1;fill-rule:nonzero;stroke:none" />
    </clipPath>
    <linearGradient
       x1="48"
       y1="90"
       x2="48"
       y2="5.9877172"
       id="linearGradient3617"
       xlink:href="#linearGradient4917"
       gradientUnits="userSpaceOnUse" />
    <linearGradient
       x1="45.447727"
       y1="92.539597"
       x2="45.447727"
       y2="7.0165396"
       id="ButtonShadow-0"
       gradientUnits="userSpaceOnUse"
       gradientTransform="matrix(1.0058652,0,0,0.994169,100,0)">
      <stop
         id="stop3750-8"
         style="stop-color:#000000;stop-opacity:1"
         offset="0" />
      <stop
         id="stop3752-5"
         style="stop-color:#000000;stop-opacity:0.58823532"
         offset="1" />
    </linearGradient>
    <linearGradient
       x1="32.251034"
       y1="6.1317081"
       x2="32.251034"
       y2="90.238609"
       id="linearGradient3780"
       xlink:href="#ButtonShadow-0"
       gradientUnits="userSpaceOnUse"
       gradientTransform="matrix(1.0238095,0,0,1.0119048,-1.1428571,-98.071429)" />
    <linearGradient
       x1="32.251034"
       y1="6.1317081"
       x2="32.251034"
       y2="90.238609"
       id="linearGradient3772"
       xlink:href="#ButtonShadow-0"
       gradientUnits="userSpaceOnUse"
       gradientTransform="matrix(1.0238095,0,0,1.0119048,-1.1428571,-98.071429)" />
    <linearGradient
       x1="32.251034"
       y1="6.1317081"
       x2="32.251034"
       y2="90.238609"
       id="linearGradient3725"
       xlink:href="#ButtonShadow-0"
       gradientUnits="userSpaceOnUse"
       gradientTransform="matrix(1.0238095,0,0,1.0119048,-1.1428571,-98.071429)" />
    <linearGradient
       x1="32.251034"
       y1="6.1317081"
       x2="32.251034"
       y2="90.238609"
       id="linearGradient3721"
       xlink:href="#ButtonShadow-0"
       gradientUnits="userSpaceOnUse"
       gradientTransform="translate(0,-97)" />
    <linearGradient
       x1="32.251034"
       y1="6.1317081"
       x2="32.251034"
       y2="90.238609"
       id="linearGradient3026"
       xlink:href="#ButtonShadow-0"
       gradientUnits="userSpaceOnUse"
       gradientTransform="matrix(1.0238095,0,0,1.0119048,-1.1428571,-98.071429)" />
    <linearGradient
       x1="48"
       y1="80"
       x2="48"
       y2="15.501938"
       id="linearGradient4939"
       xlink:href="#linearGradient4933"
       gradientUnits="userSpaceOnUse"
       gradientTransform="translate(-10.599369,-1.5141956)" />
  </defs>
  <metadata
     id="metadata2413">
    <rdf:RDF>
      <cc:Work
         rdf:about="">
        <dc:format>image/svg+xml</dc:format>
        <dc:type
           rdf:resource="http://purl.org/dc/dcmitype/StillImage" />
        <dc:title />
      </cc:Work>
    </rdf:RDF>
  </metadata>
  <g
     id="layer2"
     style="display:none">
    <rect
       width="86"
       height="85"
       rx="6"
       ry="6"
       x="5"
       y="7"
       id="rect3745"
       style="opacity:0.9;fill:url(#ButtonShadow);fill-opacity:1;fill-rule:nonzero;stroke:none;filter:url(#filter3174)" />
  </g>
  <g
     id="layer4">
    <path
       d="m 47.5,12.9375 c -15.913164,0 -28.819486,12.826472 -30.28125,28.96875 -0.968198,1.110444 -2.090102,2.251973 -3,3.84375 -1.102341,1.928436 -1.670645,4.380644 -1.25,7.1875 0.455209,3.037483 2.298898,5.177527 4.34375,6.28125 1.150623,0.621057 2.200063,0.775016 3.21875,0.9375 1.850384,7.370379 -0.06223,10.935525 -1.625,14.03125 -0.380888,0.754508 -0.817136,1.538178 -1.125,2.46875 -0.325097,0.982661 -0.528748,2.328362 0.0625,3.6875 0.598052,1.374779 1.795172,2.183425 2.90625,2.6875 1.105737,0.501652 2.392538,0.833287 4,1.15625 11.576925,2.325983 30.040508,0.688562 44.75,-17.0625 5.112179,-6.169251 7.573116,-13.116667 8.34375,-20.65625 0.6247,-0.447066 1.456672,-1.027719 2.5,-2.28125 1.527983,-1.835832 3.096539,-4.580385 2.8125,-7.9375 0.0028,0.03286 -0.0022,-0.04186 0,-0.03125 l 0.03125,0 0,-0.03125 a 1.0188279,1.0188279 0 0 0 -0.03125,-0.0625 1.0188279,1.0188279 0 0 0 0,-0.0625 c 8.3e-5,7.1e-4 -1.4e-4,-0.156951 0,-0.15625 5.8e-5,2.9e-4 -0.02358,-0.03084 -0.03125,-0.0625 -0.0043,-0.02356 -0.0268,-0.03904 -0.03125,-0.0625 -0.0019,-0.0077 -3.4e-5,-0.03137 0,-0.03125 -0.585217,-3.031274 -2.477096,-5.238788 -4.71875,-6.46875 -1.747457,-0.958803 -3.603812,-1.283982 -5.34375,-1.5 C 67.633857,18.977181 58.298475,12.9375 47.5,12.9375 z m 3.71875,11.96875 c 8.446856,0 15.28125,7.001108 15.28125,15.90625 0,5.080195 -2.318646,9.439632 -5.8125,12.34375 -0.124092,-0.952492 -0.287287,-2.083604 -0.5,-3.28125 -0.451132,-2.540029 -0.986625,-5.128234 -1.125,-5.8125 -2.2e-5,-1.28e-4 0.1253,0.507245 0,-0.0625 0.0022,0.0099 -0.06233,-0.186851 -0.0625,-0.1875 -2.07e-4,-7.74e-4 -0.06222,-0.280497 -0.0625,-0.28125 -2.75e-4,-7.53e-4 -0.124659,-0.249275 -0.125,-0.25 -8.5e-5,-1.81e-4 -0.05357,-0.110117 -0.0625,-0.125 -0.0089,-0.01488 -0.01954,-0.01175 -0.03125,-0.03125 -0.02341,-0.039 -0.03105,-0.06215 -0.03125,-0.0625 -4.04e-4,-6.92e-4 -0.124536,-0.249347 -0.125,-0.25 -4.64e-4,-6.53e-4 -0.155729,-0.186891 -0.15625,-0.1875 -8.7e-5,-1.01e-4 -0.02261,-0.0224 -0.03125,-0.03125 0.415893,-0.940262 0.75,-1.961418 0.75,-3.09375 0,-1.349342 -0.456029,-2.529266 -1.03125,-3.59375 4.1e-4,-5.24e-4 0.12463,-0.186947 0.125,-0.1875 0,0 0.06107,-0.09095 0.0625,-0.09375 0.0042,-0.0064 -0.0073,-0.02001 0,-0.03125 0.006,-0.01205 0.02345,-0.01564 0.03125,-0.03125 0.0068,-0.009 0.02579,-0.02397 0.03125,-0.03125 0,0 0.0026,-0.03486 0,-0.03125 0.01964,-0.03282 0.111069,-0.159657 0.125,-0.1875 0.01561,-0.0312 0.06238,-0.15594 0.0625,-0.15625 0,0 0.06173,-0.152575 0.0625,-0.15625 7.71e-4,-0.0037 -3.02e-4,-0.02977 0,-0.03125 0.003,-0.01507 -0.0039,-0.043 0,-0.0625 1.93e-4,-6.37e-4 0.06235,-0.186851 0.0625,-0.1875 1.45e-4,-6.49e-4 0.03115,-0.218092 0.03125,-0.21875 4.8e-5,-3.29e-4 -0.0078,0.0078 0,-0.03125 0.0039,-0.0195 0.02826,-0.04754 0.03125,-0.0625 4.95e-4,-0.0025 -4.91e-4,-0.02875 0,-0.03125 4.8e-5,-6.64e-4 0.03125,-0.343085 0.03125,-0.34375 0,-2.85e-4 6.23e-4,-0.05156 0,-0.09375 -4e-6,2.8e-4 -4e-6,-0.09403 0,-0.09375 a 1.0188279,1.0188279 0 0 0 0,-0.03125 1.0188279,1.0188279 0 0 0 -0.03125,-0.03125 c -0.07916,-0.741062 -0.193699,-2.080992 -0.5,-3.375 C 58.060163,29.736282 57.852131,29.092366 57.5625,28.46875 57.305322,27.915009 56.686158,26.724537 55.28125,26.1875 54.906322,26.044166 54.322829,25.903511 53.59375,26 c -1.075454,0.142265 -1.857643,0.642754 -2.3125,1 -0.508592,0.39945 -0.936356,0.852467 -1.3125,1.25 -0.786571,0.831299 -1.500347,1.717084 -1.9375,2.28125 -3.96e-4,5.25e-4 -0.124643,0.186947 -0.125,0.1875 -2.2e-5,3.5e-5 -0.06143,0.09163 -0.0625,0.09375 -0.0086,0.01142 -0.01954,0.01566 -0.03125,0.03125 -0.0037,0.0074 0.0039,0.02345 0,0.03125 -0.01559,0.03121 -0.03109,0.03096 -0.03125,0.03125 0,0 -0.0028,0.03507 0,0.03125 -0.01984,0.0407 -0.186401,0.339567 -0.1875,0.34375 -0.0012,0.0046 0.0015,0.02512 0,0.03125 -1.14e-4,3.08e-4 0.01561,-0.0077 0,0.03125 -0.0039,0.01561 0.0028,0.01985 0,0.03125 -0.0012,0.0031 -0.02997,-0.0034 -0.03125,0 -0.004,0.01285 3.3e-5,0.03112 0,0.03125 -0.0187,0.05081 -0.03119,0.124795 -0.03125,0.125 -1.82e-4,6.32e-4 -0.06236,0.186856 -0.0625,0.1875 -1.36e-4,6.44e-4 -0.03116,0.249348 -0.03125,0.25 0,0 -0.03123,0.121953 -0.03125,0.125 -6e-6,0.005 10e-7,0.02375 0,0.03125 -10e-7,0.01499 -8e-6,0.043 0,0.0625 -4e-5,6.56e-4 -8e-6,0.186842 0,0.1875 5e-6,4.15e-4 0.03019,0.08865 0.03125,0.15625 -2.436511,1.38851 -4.125,3.982795 -4.125,6.96875 0,2.999779 1.698833,5.607244 4.15625,7 -8.88e-4,0.05792 2e-6,0.155788 0,0.15625 -3e-6,6.47e-4 -4.3e-5,0.218104 0,0.21875 -8e-6,0.01561 -10e-7,0.01909 0,0.03125 0,0.0061 -6e-6,0.02686 0,0.03125 8.9e-5,6.41e-4 0.06236,0.374367 0.0625,0.375 1.35e-4,6.33e-4 0.06232,0.186879 0.0625,0.1875 9e-5,3.1e-4 0.04689,0.148504 0.0625,0.1875 0.01561,0.039 -1.12e-4,0.03095 0,0.03125 0,0 0.0613,0.09131 0.0625,0.09375 0.0012,0.0024 -5.24e-4,0.03019 0,0.03125 0.006,0.012 0.02344,0.0469 0.03125,0.0625 2.67e-4,5.89e-4 0.09344,0.218182 0.09375,0.21875 1.55e-4,2.84e-4 0.01566,3.9e-5 0.03125,0.03125 0.0078,0.01561 0.02526,0.01926 0.03125,0.03125 0.001,0.002 -0.001,0.02919 0,0.03125 0.001,0.0021 0.06248,0.09372 0.0625,0.09375 3.49e-4,5.45e-4 0.124613,0.186982 0.125,0.1875 -0.065,-0.08441 0.46587,0.583354 1.125,1.4375 0.65913,0.854146 1.544543,1.981744 2.4375,3.09375 0.900362,1.121228 1.799753,2.221134 2.53125,3.0625 0.03103,0.03569 0.06321,0.05867 0.09375,0.09375 -1.010551,0.239786 -1.995122,0.5625 -3.0625,0.5625 -8.439839,0 -15.28125,-7.03282 -15.28125,-15.9375 0,-8.905143 6.834393,-15.90625 15.28125,-15.90625 z M 47.78125,45.5 l 0.625,0.4375 -0.71875,-0.25 c 0.0036,-0.0072 -0.0028,-0.0256 0,-0.03125 0.01398,-0.03376 0.01976,-0.07341 0.03125,-0.09375 0.0082,-0.01453 0.02451,-0.02079 0.03125,-0.03125 -0.0025,0.0038 0.03125,-0.03125 0.03125,-0.03125 z"
       id="path4973"
       style="opacity:0.05;fill:#000000;fill-opacity:1" />
    <path
       d="m 47.5,13.96875 c -15.488289,0 -28.094133,12.576445 -29.34375,28.40625 -1.033215,1.204444 -2.190827,2.350093 -3.0625,3.875 -0.994514,1.739803 -1.513414,3.939461 -1.125,6.53125 0.40673,2.713996 2.020479,4.563994 3.8125,5.53125 1.266192,0.683436 2.510751,0.937796 3.625,1.0625 0.01419,0.03083 0.01625,0.06199 0.03125,0.09375 2.130518,7.956501 -0.03621,12.040247 -1.625,15.1875 -0.392462,0.777435 -0.792903,1.497597 -1.0625,2.3125 -0.277275,0.838112 -0.425979,1.91769 0.03125,2.96875 0.460069,1.05759 1.382757,1.706088 2.375,2.15625 0.989616,0.44897 2.207917,0.777644 3.78125,1.09375 11.284496,2.26723 29.318529,0.734514 43.78125,-16.71875 5.075735,-6.125271 7.485025,-12.976225 8.1875,-20.53125 0.621321,-0.441128 1.546585,-1.073017 2.65625,-2.40625 1.431783,-1.72025 2.846925,-4.195173 2.59375,-7.1875 -0.0037,-0.04329 0.0044,-0.0815 0,-0.125 -5e-6,-0.01185 8e-6,-0.03108 0,-0.03125 A 0.99205138,0.99205138 0 0 0 82.125,36.03125 c -0.504213,-2.76778 -2.212806,-4.725972 -4.25,-5.84375 -1.711766,-0.93922 -3.603624,-1.301503 -5.40625,-1.5 C 67.280944,19.933243 58.087351,13.96875 47.5,13.96875 z m 3.71875,9.90625 c 9.01253,0 16.3125,7.506659 16.3125,16.9375 0,6.106177 -3.080959,11.385747 -7.6875,14.375 0.0079,-0.116367 0.03481,-0.224939 0.03125,-0.34375 -0.01261,-0.420699 -0.09703,-0.843831 -0.15625,-1.3125 -0.12276,-0.971571 -0.30557,-2.198094 -0.53125,-3.46875 -0.447681,-2.520601 -0.984463,-5.117541 -1.125,-5.8125 -2.2e-5,-1.28e-4 0.0017,-0.02352 0,-0.03125 -0.0088,-0.03994 -0.03108,-0.155601 -0.03125,-0.15625 -2.07e-4,-7.74e-4 -0.06222,-0.186747 -0.0625,-0.1875 -2.75e-4,-7.53e-4 -0.06216,-0.155525 -0.0625,-0.15625 -3.41e-4,-7.25e-4 -0.09335,-0.155558 -0.09375,-0.15625 -4.04e-4,-6.92e-4 -0.09329,-0.155597 -0.09375,-0.15625 -4.64e-4,-6.53e-4 -0.09323,-0.124391 -0.09375,-0.125 -5.21e-4,-6.09e-4 -0.124427,-0.124439 -0.125,-0.125 -5.73e-4,-5.61e-4 -0.12438,-0.124492 -0.125,-0.125 -6.2e-4,-5.08e-4 -0.155587,-0.12455 -0.15625,-0.125 -2.54e-4,-1.72e-4 -0.03508,-0.01435 -0.0625,-0.03125 0.555985,-1.019751 0.9375,-2.144003 0.9375,-3.375 0,-1.424266 -0.520772,-2.695218 -1.25,-3.8125 5.45e-4,-3.82e-4 0.124485,-0.09333 0.125,-0.09375 5.15e-4,-4.21e-4 0.124517,-0.09329 0.125,-0.09375 4.83e-4,-4.58e-4 0.0933,-0.09326 0.09375,-0.09375 4.47e-4,-4.92e-4 0.09334,-0.124476 0.09375,-0.125 4.1e-4,-5.24e-4 0.09338,-0.124447 0.09375,-0.125 3.7e-4,-5.53e-4 0.06217,-0.124421 0.0625,-0.125 3.28e-4,-5.79e-4 0.09347,-0.124398 0.09375,-0.125 2.84e-4,-6.02e-4 0.06226,-0.124379 0.0625,-0.125 2.39e-4,-6.21e-4 0.03106,-0.155613 0.03125,-0.15625 1.93e-4,-6.37e-4 0.0311,-0.124351 0.03125,-0.125 1.45e-4,-6.49e-4 0.03115,-0.155592 0.03125,-0.15625 9.7e-5,-6.58e-4 0.0312,-0.155586 0.03125,-0.15625 4.8e-5,-6.64e-4 10e-7,-0.155585 0,-0.15625 -10e-7,-6.65e-4 5.1e-5,-0.124337 0,-0.125 a 0.99205138,0.99205138 0 0 0 0,-0.03125 c -0.07924,-0.741756 -0.213997,-2.010494 -0.5,-3.21875 -0.145572,-0.614985 -0.337843,-1.198997 -0.59375,-1.75 -0.228353,-0.491676 -0.708079,-1.394913 -1.71875,-1.78125 -0.231437,-0.08848 -0.664848,-0.19417 -1.1875,-0.125 -0.818236,0.108239 -1.422568,0.506246 -1.8125,0.8125 -0.439467,0.345159 -0.817755,0.734229 -1.1875,1.125 -0.746004,0.788426 -1.447596,1.667165 -1.875,2.21875 -3.96e-4,5.25e-4 -0.09339,0.124447 -0.09375,0.125 -3.57e-4,5.53e-4 -0.06218,0.124423 -0.0625,0.125 -3.15e-4,5.77e-4 -0.09348,0.124401 -0.09375,0.125 -2.72e-4,5.99e-4 -0.03102,0.124383 -0.03125,0.125 -2.28e-4,6.17e-4 -0.06232,0.155618 -0.0625,0.15625 -1.82e-4,6.32e-4 -0.03111,0.124356 -0.03125,0.125 -1.36e-4,6.44e-4 -0.03116,0.155598 -0.03125,0.15625 -8.8e-5,6.52e-4 4e-5,0.155594 0,0.15625 -4e-5,6.56e-4 -8e-6,0.124342 0,0.125 8e-6,6.58e-4 -5.6e-5,0.155595 0,0.15625 5.6e-5,6.55e-4 -1.03e-4,0.1556 0,0.15625 1.03e-4,6.5e-4 0.0311,0.12436 0.03125,0.125 1.51e-4,6.4e-4 0.0623,0.155622 0.0625,0.15625 9.3e-5,2.95e-4 -0.01146,0.03016 0,0.0625 -2.465737,1.078312 -4.1875,3.598466 -4.1875,6.46875 0,2.903283 1.766344,5.465854 4.28125,6.53125 -0.01227,0.03593 -0.03115,0.06217 -0.03125,0.0625 -1.87e-4,6.19e-4 -0.06236,0.124369 -0.0625,0.125 -1.42e-4,6.31e-4 -0.03115,0.15561 -0.03125,0.15625 -9.6e-5,6.4e-4 5e-5,0.155605 0,0.15625 -5e-5,6.45e-4 3e-6,0.124353 0,0.125 -3e-6,6.47e-4 -4.3e-5,0.155604 0,0.15625 4.3e-5,6.46e-4 -8.9e-5,0.124359 0,0.125 8.9e-5,6.41e-4 0.03111,0.155617 0.03125,0.15625 1.35e-4,6.33e-4 0.03107,0.124379 0.03125,0.125 1.8e-4,6.21e-4 0.06228,0.155643 0.0625,0.15625 2.24e-4,6.07e-4 0.06223,0.124411 0.0625,0.125 2.67e-4,5.89e-4 0.06219,0.124432 0.0625,0.125 3.09e-4,5.68e-4 0.06215,0.124455 0.0625,0.125 3.49e-4,5.45e-4 0.09336,0.124482 0.09375,0.125 0.03711,0.04819 1.757723,2.322663 3.53125,4.53125 0.890582,1.109048 1.809079,2.20061 2.53125,3.03125 0.355938,0.409399 0.665937,0.763076 0.96875,1.0625 0.149573,0.147899 0.294324,0.234018 0.4375,0.34375 -1.631753,0.566664 -3.340764,0.9375 -5.15625,0.9375 -9.008154,0 -16.3125,-7.538049 -16.3125,-16.96875 0,-9.430841 7.299969,-16.9375 16.3125,-16.9375 z"
       id="path4969"
       style="opacity:0.1;fill:#000000;fill-opacity:1" />
    <path
       d="m 47.5,14.96875 c -15.054119,0 -27.337978,12.283762 -28.40625,27.78125 -1.112902,1.318067 -2.278177,2.518566 -3.125,4 -0.898949,1.572622 -1.388409,3.491768 -1.03125,5.875 0.360469,2.405312 1.756117,3.972431 3.3125,4.8125 1.316684,0.71069 2.658751,0.948909 3.8125,1.03125 0.111474,0.248645 0.21151,0.488427 0.34375,0.75 2.199383,8.213681 -0.13379,12.735325 -1.71875,15.875 -0.397885,0.788177 -0.767474,1.484651 -1,2.1875 -0.232526,0.702849 -0.327393,1.497401 0,2.25 0.327393,0.752599 0.997452,1.258123 1.875,1.65625 0.877548,0.398127 2.02719,0.722783 3.5625,1.03125 11.003516,2.210777 28.620627,0.789123 42.84375,-16.375 5.02732,-6.066845 7.357322,-12.81953 8,-20.375 0.575884,-0.406594 1.65977,-1.139979 2.84375,-2.5625 1.354972,-1.627963 2.613428,-3.903215 2.34375,-6.59375 a 1.0189446,1.0189446 0 0 0 0,-0.09375 c -0.449871,-2.469482 -1.926935,-4.155961 -3.75,-5.15625 -1.673477,-0.918212 -3.631942,-1.294893 -5.5,-1.46875 C 66.931457,20.876636 57.890497,14.96875 47.5,14.96875 z m 3.71875,7.90625 c 9.565043,0 17.3125,7.991535 17.3125,17.9375 0,9.945964 -7.749552,17.96875 -17.3125,17.96875 -9.562949,0 -17.3125,-8.022786 -17.3125,-17.96875 0,-9.945965 7.747456,-17.9375 17.3125,-17.9375 z m 2.625,5.09375 c -0.593929,0.07857 -0.937972,0.330844 -1.3125,0.625 -0.374528,0.294156 -0.737898,0.655162 -1.09375,1.03125 -0.711705,0.752177 -1.402829,1.5963 -1.8125,2.125 a 1.0189446,1.0189446 0 0 0 0.9375,1.625 c 0.262231,-0.03014 0.479902,-0.03125 0.65625,-0.03125 1.46017,0 2.763763,0.539463 3.8125,1.46875 a 1.0189446,1.0189446 0 0 0 1.6875,-0.84375 C 56.638874,33.221012 56.514519,31.992492 56.25,30.875 c -0.13226,-0.558746 -0.307267,-1.080233 -0.53125,-1.5625 -0.223983,-0.482267 -0.467461,-0.986705 -1.15625,-1.25 -0.169362,-0.06475 -0.404901,-0.135286 -0.71875,-0.09375 z m -2.625,5.5 c -3.243236,0 -5.875,2.731661 -5.875,6.03125 0,3.299589 2.623835,6.0625 5.875,6.0625 3.251161,0 5.875,-2.76291 5.875,-6.0625 0,-3.29959 -2.631768,-6.03125 -5.875,-6.03125 z M 56.0625,43.5625 A 1.0189446,1.0189446 0 0 0 55.375,43.875 c -1.080617,1.105669 -2.539489,1.78125 -4.15625,1.78125 -0.224374,0 -0.443886,0.01918 -0.625,0 a 1.0189446,1.0189446 0 0 0 -0.90625,1.625 c 0.05871,0.07624 1.766866,2.302799 3.53125,4.5 0.882192,1.0986 1.788487,2.181619 2.5,3 0.355756,0.40919 0.645878,0.742542 0.90625,1 0.130186,0.128729 0.263765,0.237255 0.40625,0.34375 0.07124,0.05325 0.139969,0.124375 0.28125,0.1875 0.141281,0.06312 0.402981,0.211221 0.875,0 0.372472,-0.166926 0.499769,-0.442772 0.5625,-0.59375 0.06273,-0.150978 0.08084,-0.252178 0.09375,-0.34375 0.02582,-0.183144 0.0363,-0.331672 0.03125,-0.5 -0.01009,-0.336655 -0.06519,-0.745372 -0.125,-1.21875 -0.119625,-0.946756 -0.307816,-2.14824 -0.53125,-3.40625 -0.446867,-2.51602 -0.986895,-5.160548 -1.125,-5.84375 A 1.0189446,1.0189446 0 0 0 56.0625,43.5625 z"
       id="path4965"
       style="opacity:0.15;fill:#000000;fill-opacity:1" />
    <path
       d="m 47.513508,16 c -14.611711,0 -26.569129,12.004534 -27.442954,27.167878 -2.410134,2.901099 -4.796278,4.940447 -4.142332,9.304067 0.63285,4.222837 4.522391,4.969296 6.812195,5.032287 0.20547,0.449266 0.420882,0.890851 0.647239,1.326841 4.64268,17.108712 -10.062497,19.972974 1.909356,22.378304 10.718804,2.153574 27.898322,0.849227 41.876396,-16.019177 4.981625,-6.011701 7.235823,-12.607969 7.815412,-20.17769 0.722547,-0.487377 5.624963,-3.970604 5.161741,-8.592105 -0.793795,-4.357387 -4.942828,-5.6057 -8.81864,-5.889878 C 66.587001,21.844518 57.708639,16 47.513508,16 z m 3.705446,5.857518 c 10.134117,0 18.349239,8.485975 18.349239,18.964116 0,10.47814 -8.215122,18.980298 -18.349239,18.980298 -10.134118,0 -18.349239,-8.502158 -18.349239,-18.980298 0,-10.478141 8.215121,-18.964116 18.349239,-18.964116 z m 2.750768,7.119633 c -0.906891,0.119967 -2.727741,2.36594 -3.527455,3.398008 0.25479,-0.02929 0.514353,-0.04855 0.776687,-0.04855 1.725323,0 3.299647,0.654886 4.514496,1.731365 -0.155385,-1.454604 -0.613574,-4.705403 -1.553375,-5.064649 -0.06283,-0.02402 -0.132073,-0.02655 -0.210353,-0.01619 z m -2.750768,5.517718 c -2.676837,0 -4.854296,2.24828 -4.854296,5.016105 0,2.767825 2.177459,5.016105 4.854296,5.016105 2.676832,0 4.838113,-2.24828 4.838113,-5.016105 0,-2.767825 -2.161281,-5.016105 -4.838113,-5.016105 z m 4.886658,10.113117 c -1.255194,1.284293 -2.981334,2.087347 -4.886658,2.087347 -0.242026,0 -0.492487,-0.0074 -0.728144,-0.03236 0.09959,0.129321 6.866397,8.891098 7.281447,8.70537 0.452233,-0.202671 -1.390308,-9.393328 -1.666645,-10.760356 z"
       inkscape:connector-curvature="0"
       id="path4959"
       style="opacity:0.3;fill:#000000;fill-opacity:1" />
    <path
       d="M 47.5,15 C 32.888289,15 20.936325,26.992906 20.0625,42.15625 17.81553,44.860947 15.604945,46.836578 15.84375,50.625 16.019791,47.471208 18.022159,45.612226 20.0625,43.15625 20.936325,27.992906 32.888289,16 47.5,16 c 10.195131,0 19.09883,5.845241 23.84375,14.53125 3.875812,0.284178 8.018705,1.517613 8.8125,5.875 0.01896,-0.321374 0.03347,-0.666038 0,-1 -0.793795,-4.357387 -4.936688,-5.590822 -8.8125,-5.875 C 66.59883,20.845241 57.695131,15 47.5,15 z m 6.46875,12.96875 c -0.906891,0.119967 -2.731536,2.374182 -3.53125,3.40625 0.25479,-0.02929 0.518916,-0.0625 0.78125,-0.0625 0.03227,0 0.06159,-4.57e-4 0.09375,0 0.879821,-1.047063 2.000621,-2.257021 2.65625,-2.34375 0.07828,-0.01036 0.15592,0.0072 0.21875,0.03125 0.748606,0.28616 1.178441,2.382462 1.40625,3.96875 0.04026,0.03411 0.08549,0.05874 0.125,0.09375 C 55.563365,31.607896 55.127301,28.359246 54.1875,28 54.12467,27.97598 54.04703,27.95839 53.96875,27.96875 z m -2.75,5.53125 c -2.676837,0 -4.84375,2.232175 -4.84375,5 0,0.162813 -0.01473,0.341134 0,0.5 0.249026,-2.527621 2.334215,-4.5 4.84375,-4.5 2.50953,0 4.565252,1.972379 4.8125,4.5 0.01463,-0.158899 0.03125,-0.337152 0.03125,-0.5 0,-2.767825 -2.166918,-5 -4.84375,-5 z m -18.3125,6.8125 c -0.0043,0.168052 -0.03125,0.330883 -0.03125,0.5 0,10.47814 8.209632,19 18.34375,19 10.134117,0 18.34375,-8.52186 18.34375,-19 0,-0.169117 -0.027,-0.331948 -0.03125,-0.5 -0.259291,10.244595 -8.341948,18.5 -18.3125,18.5 -9.970553,0 -18.053209,-8.255405 -18.3125,-18.5 z m 23.1875,3.28125 c -1.255194,1.284293 -2.969676,2.09375 -4.875,2.09375 -0.242026,0 -0.483093,-0.0063 -0.71875,-0.03125 0.01152,0.01496 0.642785,0.812585 0.8125,1.03125 1.868505,-0.02563 3.546483,-0.830357 4.78125,-2.09375 0.224484,1.110514 1.46571,7.326084 1.6875,9.75 0.39888,-0.390175 -1.414141,-9.397703 -1.6875,-10.75 z M 24.3125,64.875 c -0.162271,7.533953 -4.385358,10.970572 -3.75,13.0625 0.539557,-2.286491 3.926833,-6.003938 3.75,-13.0625 z"
       inkscape:connector-curvature="0"
       id="path4941"
       style="fill:#ffffff;fill-opacity:1" />
    <path
       d="m 51.21875,19.84375 c -10.134118,0 -18.34375,8.490609 -18.34375,18.96875 0,0.169117 0.027,0.33194 0.03125,0.5 0.259291,-10.24409 8.341947,-18.46875 18.3125,-18.46875 9.970552,0 18.053209,8.22466 18.3125,18.46875 0.0043,-0.16806 0.03125,-0.330883 0.03125,-0.5 0,-10.478141 -8.209633,-18.96875 -18.34375,-18.96875 z M 51.3125,30.3125 c -0.337181,0.401275 -0.653432,0.776556 -0.875,1.0625 0.25479,-0.02929 0.518916,-0.0625 0.78125,-0.0625 1.725323,0 3.285151,0.673521 4.5,1.75 -0.03161,-0.295927 -0.06682,-0.68861 -0.125,-1.09375 -1.174594,-0.995088 -2.649732,-1.633085 -4.28125,-1.65625 z m 28.84375,5.21875 C 79.834603,39.592638 75.663477,42.552467 75,43 74.420411,50.569721 72.169125,57.175799 67.1875,63.1875 53.209426,80.055904 36.031304,81.372324 25.3125,79.21875 c -3.159879,-0.634868 -4.46077,-1.328954 -4.75,-2.28125 -0.362408,1.535785 0.574007,2.442229 4.75,3.28125 10.718804,2.153574 27.896926,0.837154 41.875,-16.03125 C 72.169125,58.175799 74.420411,51.569721 75,44 c 0.716104,-0.483031 5.521254,-3.908726 5.15625,-8.46875 z m -33.78125,2.5 c -0.01461,0.158262 0,0.306573 0,0.46875 0,2.767825 2.166913,5.03125 4.84375,5.03125 2.676832,0 4.84375,-2.263425 4.84375,-5.03125 0,-0.162219 -0.01673,-0.310448 -0.03125,-0.46875 -0.247248,2.527621 -2.30297,4.5 -4.8125,4.5 -2.509535,0 -4.594724,-1.972379 -4.84375,-4.5 z m 4.125,7.625 c 0.09959,0.129321 6.8662,8.904478 7.28125,8.71875 0.08486,-0.03803 0.05123,-0.471357 0,-1.03125 -0.0043,0.0042 0.0049,0.02907 0,0.03125 -0.367051,0.164249 -5.17092,-6.015344 -6.46875,-7.6875 -0.03091,4.24e-4 -0.06274,0 -0.09375,0 -0.242026,0 -0.483093,-0.0063 -0.71875,-0.03125 z M 15.84375,49.6875 c -0.02643,0.553674 -0.0029,1.136319 0.09375,1.78125 0.63285,4.222837 4.522696,4.968259 6.8125,5.03125 0.20547,0.449266 0.398643,0.90776 0.625,1.34375 0.580335,2.138589 0.871893,4.029625 0.9375,5.75 0.01657,-1.966036 -0.243929,-4.194125 -0.9375,-6.75 C 23.148643,56.40776 22.95547,55.949266 22.75,55.5 c -2.289804,-0.06299 -6.17965,-0.808413 -6.8125,-5.03125 -0.04087,-0.272726 -0.07589,-0.525904 -0.09375,-0.78125 z"
       inkscape:connector-curvature="0"
       id="path4950"
       style="opacity:0;fill:#000000;fill-opacity:1" />
    <path
       d="m 47.461656,16.132582 c -14.426694,0 -26.232704,11.85253 -27.095465,26.823872 -2.379617,2.864366 -4.735546,4.877886 -4.089882,9.186255 0.624837,4.169372 4.465129,4.906376 6.725938,4.968566 0.202869,0.443583 0.415553,0.879579 0.639045,1.310044 4.583892,16.892078 -9.935085,19.720074 1.88518,22.094947 10.583079,2.126302 27.545065,0.838473 41.346146,-15.816337 4.918552,-5.935578 7.144203,-12.448332 7.716461,-19.9222 0.713397,-0.481205 5.553731,-3.920326 5.096376,-8.483309 C 78.901711,31.992207 74.805209,30.759699 70.978478,30.479119 66.293634,21.903095 57.527699,16.132582 47.461656,16.132582 z m 3.658528,5.783348 c 10.005793,0 18.116898,8.378524 18.116898,18.723989 0,10.345462 -8.111105,18.739969 -18.116898,18.739969 -10.005798,0 -18.116898,-8.394507 -18.116898,-18.739969 0,-10.345465 8.1111,-18.723989 18.116898,-18.723989 z m 2.715936,7.029484 c -0.895408,0.118446 -2.693202,2.335982 -3.48279,3.354981 0.251565,-0.02892 0.507842,-0.04793 0.766854,-0.04793 1.703476,0 3.257867,0.646594 4.457332,1.709443 -0.153417,-1.436185 -0.605804,-4.645822 -1.533706,-5.00052 -0.06203,-0.02371 -0.130401,-0.02621 -0.20769,-0.01598 z m -2.715936,5.44785 c -2.642943,0 -4.792831,2.219814 -4.792831,4.952591 0,2.732778 2.149888,4.952592 4.792831,4.952592 2.642938,0 4.776854,-2.219814 4.776854,-4.952592 0,-2.732777 -2.133916,-4.952591 -4.776854,-4.952591 z m 4.824782,9.985063 c -1.2393,1.268027 -2.943585,2.060921 -4.824782,2.060921 -0.238962,0 -0.486251,-0.0074 -0.718925,-0.03198 0.09833,0.127683 6.779455,8.778518 7.189246,8.595145 0.446507,-0.20011 -1.372703,-9.274392 -1.645539,-10.624111 z"
       inkscape:connector-curvature="0"
       id="path2885"
       style="fill:#298daf;fill-opacity:1" />
  </g>
</svg>
