<?xml version="1.0" encoding="UTF-8" standalone="no"?>
<!-- Created with Inkscape (http://www.inkscape.org/) -->

<svg
   xmlns:dc="http://purl.org/dc/elements/1.1/"
   xmlns:cc="http://creativecommons.org/ns#"
   xmlns:rdf="http://www.w3.org/1999/02/22-rdf-syntax-ns#"
   xmlns:svg="http://www.w3.org/2000/svg"
   xmlns="http://www.w3.org/2000/svg"
   xmlns:xlink="http://www.w3.org/1999/xlink"
   xmlns:sodipodi="http://sodipodi.sourceforge.net/DTD/sodipodi-0.dtd"
   xmlns:inkscape="http://www.inkscape.org/namespaces/inkscape"
   id="svg4501"
   height="128"
   width="128"
   version="1.1"
   inkscape:version="0.48.1 r9760"
   sodipodi:docname="softwarecentre.svg">
  <sodipodi:namedview
     pagecolor="#ffffff"
     bordercolor="#666666"
     borderopacity="1"
     objecttolerance="10"
     gridtolerance="10"
     guidetolerance="10"
     inkscape:pageopacity="0"
     inkscape:pageshadow="2"
     inkscape:window-width="1046"
     inkscape:window-height="857"
     id="namedview30"
     showgrid="false"
     inkscape:zoom="5.6648045"
     inkscape:cx="60.800001"
     inkscape:cy="100.36686"
     inkscape:window-x="584"
     inkscape:window-y="26"
     inkscape:window-maximized="0"
     inkscape:current-layer="svg4501" />
  <defs
     id="defs4503">
    <linearGradient
       id="linearGradient2959"
       y2="43"
       gradientUnits="userSpaceOnUse"
       x2="24"
       gradientTransform="matrix(2.7838 0 0 2.7838 -3.2021 -66.419)"
       y1="5"
       x1="24">
      <stop
         id="stop3926"
         stop-color="#fff"
         offset="0" />
      <stop
         id="stop3928"
         stop-color="#fff"
         stop-opacity=".23529"
         offset=".063165" />
      <stop
         id="stop3930"
         stop-color="#fff"
         stop-opacity=".15686"
         offset=".95056" />
      <stop
         id="stop3932"
         stop-color="#fff"
         stop-opacity=".39216"
         offset="1" />
    </linearGradient>
    <radialGradient
       id="radialGradient2962"
       gradientUnits="userSpaceOnUse"
       cy="8.4498"
       cx="7.4957"
       gradientTransform="matrix(5.2307e-8 6.2919 -6.6561 -1.1592e-7 119.85 -97.702)"
       r="20">
      <stop
         id="stop3618"
         stop-color="#f0c178"
         offset="0" />
      <stop
         id="stop3270"
         stop-color="#e18941"
         offset=".5" />
      <stop
         id="stop3620"
         stop-color="#ec4f18"
         offset="1" />
    </radialGradient>
    <linearGradient
       id="linearGradient2964"
       y2="3.899"
       gradientUnits="userSpaceOnUse"
       x2="24"
       gradientTransform="matrix(2.6923 0 0 2.6923 -1.0067 -64.224)"
       y1="44"
       x1="24">
      <stop
         id="stop3624"
         stop-color="#ba4712"
         offset="0" />
      <stop
         id="stop3856"
         stop-color="#cf671c"
         offset=".5" />
      <stop
         id="stop3626"
         stop-color="#e27f39"
         offset="1" />
    </linearGradient>
    <linearGradient
       id="linearGradient48441"
       y2="6.4426"
       gradientUnits="userSpaceOnUse"
       x2="25.076"
       y1="45.915"
       x1="25.076">
      <stop
         id="stop3624-0"
         stop-color="#bb2b12"
         offset="0" />
      <stop
         id="stop3626-8"
         stop-color="#cd7233"
         offset="1" />
    </linearGradient>
    <filter
       id="filter6181">
      <feGaussianBlur
         id="feGaussianBlur6183"
         stdDeviation="1.6001681" />
    </filter>
    <filter
       x="-0.085959181"
       y="-0.84240001"
       width="1.1719184"
       height="2.6847999"
       color-interpolation-filters="sRGB"
       id="filter4905">
      <feGaussianBlur
         stdDeviation="3.51"
         id="feGaussianBlur4907" />
    </filter>
    <linearGradient
       x1="158"
       y1="49"
       x2="158"
       y2="5"
       id="linearGradient4769"
       xlink:href="#linearGradient3596"
       gradientUnits="userSpaceOnUse"
       gradientTransform="matrix(2.9943596,0,0,2.5352859,-412.3147,-6.2901347)" />
    <linearGradient
       id="linearGradient3596">
      <stop
         id="stop3598"
         style="stop-color:#1e1e1e;stop-opacity:1"
         offset="0" />
      <stop
         id="stop3600"
         style="stop-color:#505050;stop-opacity:1"
         offset="1" />
    </linearGradient>
    <linearGradient
       x1="155"
       y1="49"
       x2="155"
       y2="5"
       id="linearGradient4771"
       xlink:href="#linearGradient3652"
       gradientUnits="userSpaceOnUse"
       gradientTransform="matrix(2.9943596,0,0,2.5352859,-412.3147,-6.2901347)" />
    <linearGradient
       id="linearGradient3652">
      <stop
         id="stop3654"
         style="stop-color:#000000;stop-opacity:1"
         offset="0" />
      <stop
         id="stop3656"
         style="stop-color:#323232;stop-opacity:1"
         offset="1" />
    </linearGradient>
    <linearGradient
       x1="158"
       y1="49"
       x2="158"
       y2="5"
       id="linearGradient4766"
       xlink:href="#linearGradient3922"
       gradientUnits="userSpaceOnUse"
       gradientTransform="matrix(2.7010975,0,0,2.4997877,-362.73799,-3.3849507)" />
    <linearGradient
       id="linearGradient3922">
      <stop
         id="stop3924"
         style="stop-color:#316297;stop-opacity:1"
         offset="0" />
      <stop
         id="stop3926-8"
         style="stop-color:#6da3dd;stop-opacity:1"
         offset="1" />
    </linearGradient>
    <linearGradient
       x1="158"
       y1="49"
       x2="158"
       y2="5"
       id="linearGradient4759"
       xlink:href="#linearGradient3667"
       gradientUnits="userSpaceOnUse"
       gradientTransform="matrix(2.9088741,0,0,0.97336868,-395.56671,6.1938779)" />
    <linearGradient
       id="linearGradient3667">
      <stop
         id="stop3669"
         style="stop-color:#2b4561;stop-opacity:1"
         offset="0" />
      <stop
         id="stop3671"
         style="stop-color:#4a85c4;stop-opacity:1"
         offset="1" />
    </linearGradient>
    <radialGradient
       cx="158"
       cy="11.484326"
       r="19"
       fx="158"
       fy="11.484326"
       id="radialGradient4745"
       xlink:href="#linearGradient5594"
       gradientUnits="userSpaceOnUse"
       gradientTransform="matrix(3.3520546,6.0725339e-8,-5.4821575e-8,4.4418679,-388.44664,-28.488649)" />
    <linearGradient
       id="linearGradient5594">
      <stop
         id="stop5596"
         style="stop-color:#ffffff;stop-opacity:1"
         offset="0" />
      <stop
         id="stop5598"
         style="stop-color:#ffffff;stop-opacity:0"
         offset="1" />
    </linearGradient>
    <radialGradient
       cx="158"
       cy="8.3000002"
       r="14"
       fx="158"
       fy="8.3000002"
       id="radialGradient4742"
       xlink:href="#linearGradient5594"
       gradientUnits="userSpaceOnUse"
       gradientTransform="matrix(2.7782715,0,0,0.34763164,-374.93149,10.122122)" />
    <linearGradient
       id="linearGradient3196">
      <stop
         id="stop3198"
         style="stop-color:#ffffff;stop-opacity:1"
         offset="0" />
      <stop
         id="stop3200"
         style="stop-color:#ffffff;stop-opacity:0"
         offset="1" />
    </linearGradient>
    <linearGradient
       x1="158"
       y1="6"
       x2="158"
       y2="-38"
       id="linearGradient4739"
       xlink:href="#linearGradient3667"
       gradientUnits="userSpaceOnUse"
       gradientTransform="matrix(2.9088741,0,0,0.97336868,-395.56671,111.3177)" />
    <linearGradient
       id="linearGradient3203">
      <stop
         id="stop3205"
         style="stop-color:#2b4561;stop-opacity:1"
         offset="0" />
      <stop
         id="stop3207"
         style="stop-color:#4a85c4;stop-opacity:1"
         offset="1" />
    </linearGradient>
    <radialGradient
       r="19"
       fy="11.484326"
       fx="158"
       cy="11.484326"
       cx="158"
       gradientTransform="matrix(3.3520546,6.0725335e-8,-5.4821575e-8,4.4418678,-465.58919,-27.894651)"
       gradientUnits="userSpaceOnUse"
       id="radialGradient3058"
       xlink:href="#linearGradient3616-8"
       inkscape:collect="always" />
    <linearGradient
       id="linearGradient3616-8">
      <stop
         id="stop3618-9"
         style="stop-color:#000000;stop-opacity:0"
         offset="0" />
      <stop
         id="stop3620-7"
         style="stop-color:#000000;stop-opacity:1"
         offset="1" />
    </linearGradient>
    <radialGradient
       r="19"
       fy="11.484326"
       fx="158"
       cy="11.484326"
       cx="158"
       gradientTransform="matrix(3.3520546,6.0725335e-8,-5.4821575e-8,4.4418678,-465.58919,-27.894651)"
       gradientUnits="userSpaceOnUse"
       id="radialGradient3092"
       xlink:href="#linearGradient3616-1"
       inkscape:collect="always" />
    <linearGradient
       id="linearGradient3616-1">
      <stop
         id="stop3618-1"
         style="stop-color:#000000;stop-opacity:0"
         offset="0" />
      <stop
         id="stop3620-0"
         style="stop-color:#000000;stop-opacity:1"
         offset="1" />
    </linearGradient>
    <linearGradient
       gradientTransform="matrix(1.0255074,0,0,1.0255074,-7.9292817,-3.7294144)"
       inkscape:collect="always"
       xlink:href="#linearGradient3925"
       id="linearGradient3931"
       x1="50.313164"
       y1="77.925743"
       x2="97.459099"
       y2="46.955536"
       gradientUnits="userSpaceOnUse" />
    <linearGradient
       id="linearGradient3925">
      <stop
         style="stop-color:#d4aa00;stop-opacity:1;"
         offset="0"
         id="stop3927" />
      <stop
         style="stop-color:#eed779;stop-opacity:1;"
         offset="1"
         id="stop3929" />
    </linearGradient>
    <linearGradient
       gradientTransform="matrix(1.0255074,0,0,1.0255074,-7.9292817,-3.7294144)"
       inkscape:collect="always"
       xlink:href="#linearGradient5594"
       id="linearGradient3923"
       x1="50.313164"
       y1="77.925743"
       x2="97.459099"
       y2="46.955536"
       gradientUnits="userSpaceOnUse" />
    <linearGradient
       id="linearGradient3222">
      <stop
         id="stop3224"
         style="stop-color:#ffffff;stop-opacity:1"
         offset="0" />
      <stop
         id="stop3226"
         style="stop-color:#ffffff;stop-opacity:0"
         offset="1" />
    </linearGradient>
    <linearGradient
       inkscape:collect="always"
       xlink:href="#linearGradient3925"
       id="linearGradient3228"
       x1="50.313164"
       y1="77.925743"
       x2="97.459099"
       y2="46.955536"
       gradientUnits="userSpaceOnUse" />
    <linearGradient
       id="linearGradient3230">
      <stop
         style="stop-color:#d4aa00;stop-opacity:1;"
         offset="0"
         id="stop3232" />
      <stop
         style="stop-color:#eed779;stop-opacity:1;"
         offset="1"
         id="stop3234" />
    </linearGradient>
    <linearGradient
       inkscape:collect="always"
       xlink:href="#linearGradient5594"
       id="linearGradient3236"
       x1="50.313164"
       y1="77.925743"
       x2="97.459099"
       y2="46.955536"
       gradientUnits="userSpaceOnUse" />
    <linearGradient
       id="linearGradient3238">
      <stop
         id="stop3240"
         style="stop-color:#ffffff;stop-opacity:1"
         offset="0" />
      <stop
         id="stop3242"
         style="stop-color:#ffffff;stop-opacity:0"
         offset="1" />
    </linearGradient>
    <linearGradient
       y2="35.201641"
       x2="24.487631"
       y1="40.57806"
       x1="14.49782"
       gradientTransform="matrix(5.0818824,0,1.9600539,4.7783551,-94.18112,-128.92736)"
       gradientUnits="userSpaceOnUse"
       id="linearGradient3130"
       xlink:href="#linearGradient2831-3-2"
       inkscape:collect="always" />
    <linearGradient
       id="linearGradient2831-3-2">
      <stop
         id="stop2833-9-6"
         style="stop-color:#729fcf;stop-opacity:1"
         offset="0" />
      <stop
         id="stop2835-7-7"
         style="stop-color:#729fcf;stop-opacity:0"
         offset="1" />
    </linearGradient>
  </defs>
  <metadata
     id="metadata4506">
    <rdf:RDF>
      <cc:Work
         rdf:about="">
        <dc:format>image/svg+xml</dc:format>
        <dc:type
           rdf:resource="http://purl.org/dc/dcmitype/StillImage" />
        <dc:title />
      </cc:Work>
    </rdf:RDF>
  </metadata>
  <rect
     width="98"
     height="10"
     rx="5"
     ry="5"
     x="11.800001"
     y="110.88961"
     id="rect4557"
     style="opacity:0.8;fill:#000000;fill-opacity:1;stroke:none;display:inline;filter:url(#filter4905);enable-background:new"
     transform="matrix(1.0804389,0,0,0.97336868,-1.655294,0.46112131)" />
  <g
     transform="matrix(1.0804389,0,0,0.97336868,-8.3540155,-3.5398039)"
     style="display:inline;enable-background:new"
     id="g3996" />
  <g
     transform="matrix(1.0804389,0,0,0.97336868,-8.3540155,-3.5398039)"
     style="display:inline;enable-background:new"
     id="g4085" />
  <g
     style="display:inline;enable-background:new"
     transform="matrix(1.0804389,0,0,0.97336868,-9.4344544,-3.5398039)"
     id="g4238" />
  <g
     transform="matrix(1.0804389,0,0,0.97336868,-8.3540155,-3.5398039)"
     style="display:inline;enable-background:new"
     id="g4600" />
  <rect
     style="fill:#ffffff;fill-opacity:1;fill-rule:nonzero;stroke:none;display:inline;enable-background:new"
     id="rect3825-6"
     width="11.373584"
     height="98.306755"
     x="103.5957"
     y="15.500635" />
  <rect
     style="fill:#ffffff;fill-opacity:1;fill-rule:nonzero;stroke:none;display:inline;enable-background:new"
     id="rect3825"
     width="11.373584"
     height="98.306755"
     x="13.678439"
     y="15.203634" />
  <path
     inkscape:connector-curvature="0"
     d="m 13.794983,11.547411 c -1.197126,0 -2.160878,0.868245 -2.160878,1.946738 l 0,101.230341 c 0,1.0785 0.963752,1.94674 2.160878,1.94674 l 100.480827,0 c 1.19713,0 2.16088,-0.86824 2.16088,-1.94674 l 0,-101.230341 c 0,-1.078493 -0.96375,-1.946738 -2.16088,-1.946738 l -1.08044,0 0,0.973369 c 0,0.539246 -0.48188,0.973369 -1.08044,0.973369 l -6.48264,0 c -0.59856,0 -1.08044,-0.434123 -1.08044,-0.973369 l 0,-0.973369 -81.032916,0 0,0.973369 c 0,0.539246 -0.481876,0.973369 -1.080439,0.973369 l -6.482634,0 c -0.598563,0 -1.080439,-0.434123 -1.080439,-0.973369 l 0,-0.973369 -1.080439,0 z m 2.160878,6.813581 6.482634,0 c 0.598563,0 1.080439,0.434123 1.080439,0.973369 l 0,2.920106 c 0,0.539246 -0.481876,0.973369 -1.080439,0.973369 l -6.482634,0 c -0.598563,0 -1.080439,-0.434123 -1.080439,-0.973369 l 0,-2.920106 c 0,-0.539246 0.481876,-0.973369 1.080439,-0.973369 z m 89.676429,0 6.48264,0 c 0.59856,0 1.08044,0.434123 1.08044,0.973369 l 0,2.920106 c 0,0.539246 -0.48188,0.973369 -1.08044,0.973369 l -6.48264,0 c -0.59856,0 -1.08044,-0.434123 -1.08044,-0.973369 l 0,-2.920106 c 0,-0.539246 0.48188,-0.973369 1.08044,-0.973369 z m -89.676429,9.733687 6.482634,0 c 0.598563,0 1.080439,0.434122 1.080439,0.973369 l 0,2.920106 c 0,0.539246 -0.481876,0.973368 -1.080439,0.973368 l -6.482634,0 c -0.598563,0 -1.080439,-0.434122 -1.080439,-0.973368 l 0,-2.920106 c 0,-0.539247 0.481876,-0.973369 1.080439,-0.973369 z m 89.676429,0 6.48264,0 c 0.59856,0 1.08044,0.434122 1.08044,0.973369 l 0,2.920106 c 0,0.539246 -0.48188,0.973368 -1.08044,0.973368 l -6.48264,0 c -0.59856,0 -1.08044,-0.434122 -1.08044,-0.973368 l 0,-2.920106 c 0,-0.539247 0.48188,-0.973369 1.08044,-0.973369 z m -89.676429,9.733687 6.482634,0 c 0.598563,0 1.080439,0.434122 1.080439,0.973368 l 0,2.920106 c 0,0.539247 -0.481876,0.973369 -1.080439,0.973369 l -6.482634,0 c -0.598563,0 -1.080439,-0.434122 -1.080439,-0.973369 l 0,-2.920106 c 0,-0.539246 0.481876,-0.973368 1.080439,-0.973368 z m 89.676429,0 6.48264,0 c 0.59856,0 1.08044,0.434122 1.08044,0.973368 l 0,2.920106 c 0,0.539247 -0.48188,0.973369 -1.08044,0.973369 l -6.48264,0 c -0.59856,0 -1.08044,-0.434122 -1.08044,-0.973369 l 0,-2.920106 c 0,-0.539246 0.48188,-0.973368 1.08044,-0.973368 z m -89.676429,9.733687 6.482634,0 c 0.598563,0 1.080439,0.434122 1.080439,0.973368 l 0,2.920106 c 0,0.539247 -0.481876,0.973369 -1.080439,0.973369 l -6.482634,0 c -0.598563,0 -1.080439,-0.434122 -1.080439,-0.973369 l 0,-2.920106 c 0,-0.539246 0.481876,-0.973368 1.080439,-0.973368 z m 89.676429,0 6.48264,0 c 0.59856,0 1.08044,0.434122 1.08044,0.973368 l 0,2.920106 c 0,0.539247 -0.48188,0.973369 -1.08044,0.973369 l -6.48264,0 c -0.59856,0 -1.08044,-0.434122 -1.08044,-0.973369 l 0,-2.920106 c 0,-0.539246 0.48188,-0.973368 1.08044,-0.973368 z m -89.676429,9.733686 6.482634,0 c 0.598563,0 1.080439,0.434123 1.080439,0.973369 l 0,2.920106 c 0,0.539246 -0.481876,0.973369 -1.080439,0.973369 l -6.482634,0 c -0.598563,0 -1.080439,-0.434123 -1.080439,-0.973369 l 0,-2.920106 c 0,-0.539246 0.481876,-0.973369 1.080439,-0.973369 z m 89.676429,0 6.48264,0 c 0.59856,0 1.08044,0.434123 1.08044,0.973369 l 0,2.920106 c 0,0.539246 -0.48188,0.973369 -1.08044,0.973369 l -6.48264,0 c -0.59856,0 -1.08044,-0.434123 -1.08044,-0.973369 l 0,-2.920106 c 0,-0.539246 0.48188,-0.973369 1.08044,-0.973369 z m -89.676429,9.733687 6.482634,0 c 0.598563,0 1.080439,0.434123 1.080439,0.973369 l 0,2.920106 c 0,0.539246 -0.481876,0.973369 -1.080439,0.973369 l -6.482634,0 c -0.598563,0 -1.080439,-0.434123 -1.080439,-0.973369 l 0,-2.920106 c 0,-0.539246 0.481876,-0.973369 1.080439,-0.973369 z m 89.676429,0 6.48264,0 c 0.59856,0 1.08044,0.434123 1.08044,0.973369 l 0,2.920106 c 0,0.539246 -0.48188,0.973369 -1.08044,0.973369 l -6.48264,0 c -0.59856,0 -1.08044,-0.434123 -1.08044,-0.973369 l 0,-2.920106 c 0,-0.539246 0.48188,-0.973369 1.08044,-0.973369 z m -89.676429,9.733687 6.482634,0 c 0.598563,0 1.080439,0.434122 1.080439,0.973369 l 0,2.920106 c 0,0.539246 -0.481876,0.973368 -1.080439,0.973368 l -6.482634,0 c -0.598563,0 -1.080439,-0.434122 -1.080439,-0.973368 l 0,-2.920106 c 0,-0.539247 0.481876,-0.973369 1.080439,-0.973369 z m 89.676429,0 6.48264,0 c 0.59856,0 1.08044,0.434122 1.08044,0.973369 l 0,2.920106 c 0,0.539246 -0.48188,0.973368 -1.08044,0.973368 l -6.48264,0 c -0.59856,0 -1.08044,-0.434122 -1.08044,-0.973368 l 0,-2.920106 c 0,-0.539247 0.48188,-0.973369 1.08044,-0.973369 z m -89.676429,9.733687 6.482634,0 c 0.598563,0 1.080439,0.434122 1.080439,0.973369 l 0,2.920106 c 0,0.539246 -0.481876,0.973368 -1.080439,0.973368 l -6.482634,0 c -0.598563,0 -1.080439,-0.434122 -1.080439,-0.973368 l 0,-2.920106 c 0,-0.539247 0.481876,-0.973369 1.080439,-0.973369 z m 89.676429,0 6.48264,0 c 0.59856,0 1.08044,0.434122 1.08044,0.973369 l 0,2.920106 c 0,0.539246 -0.48188,0.973368 -1.08044,0.973368 l -6.48264,0 c -0.59856,0 -1.08044,-0.434122 -1.08044,-0.973368 l 0,-2.920106 c 0,-0.539247 0.48188,-0.973369 1.08044,-0.973369 z m -89.676429,9.733687 6.482634,0 c 0.598563,0 1.080439,0.434122 1.080439,0.973368 l 0,2.920105 c 0,0.53925 -0.481876,0.97337 -1.080439,0.97337 l -6.482634,0 c -0.598563,0 -1.080439,-0.43412 -1.080439,-0.97337 l 0,-2.920105 c 0,-0.539246 0.481876,-0.973368 1.080439,-0.973368 z m 89.676429,0 6.48264,0 c 0.59856,0 1.08044,0.434122 1.08044,0.973368 l 0,2.920105 c 0,0.53925 -0.48188,0.97337 -1.08044,0.97337 l -6.48264,0 c -0.59856,0 -1.08044,-0.43412 -1.08044,-0.97337 l 0,-2.920105 c 0,-0.539246 0.48188,-0.973368 1.08044,-0.973368 z m -89.676429,9.733683 6.482634,0 c 0.598563,0 1.080439,0.43413 1.080439,0.97337 l 0,2.92011 c 0,0.53925 -0.481876,0.97337 -1.080439,0.97337 l -6.482634,0 c -0.598563,0 -1.080439,-0.43412 -1.080439,-0.97337 l 0,-2.92011 c 0,-0.53924 0.481876,-0.97337 1.080439,-0.97337 z m 89.676429,0 6.48264,0 c 0.59856,0 1.08044,0.43413 1.08044,0.97337 l 0,2.92011 c 0,0.53925 -0.48188,0.97337 -1.08044,0.97337 l -6.48264,0 c -0.59856,0 -1.08044,-0.43412 -1.08044,-0.97337 l 0,-2.92011 c 0,-0.53924 0.48188,-0.97337 1.08044,-0.97337 z"
     id="rect3773"
     style="fill:url(#linearGradient4769);fill-opacity:1;stroke:url(#linearGradient4771);stroke-width:1.02550745;stroke-linejoin:round;stroke-miterlimit:4;stroke-opacity:1;stroke-dasharray:none;display:inline;enable-background:new" />
  <path
     inkscape:connector-curvature="0"
     d="m 26.220031,11.060727 0,21.414111 75.630729,0 0,-21.414111 -75.630729,0 z m 0,22.38748 0,61.322227 75.630729,0 0,-61.322227 -75.630729,0 z m 0,62.295595 0,21.414108 75.630729,0 0,-21.414108 -75.630729,0 z"
     id="path2958"
     style="fill:url(#linearGradient4766);fill-opacity:1;stroke:none;display:inline;enable-background:new" />
  <rect
     width="75.63073"
     height="0.9733687"
     x="26.220032"
     y="11.060727"
     id="rect2964"
     style="fill:url(#linearGradient4759);fill-opacity:1;stroke:none;display:inline;enable-background:new" />
  <rect
     width="75.63073"
     height="106.09718"
     x="26.055199"
     y="10.912227"
     id="rect2980"
     style="opacity:0.25;fill:url(#radialGradient4745);fill-opacity:1;stroke:none;display:inline;enable-background:new" />
  <rect
     width="77.791603"
     height="0.97336864"
     x="25.139593"
     y="12.034096"
     id="rect2982"
     style="opacity:0.6;fill:url(#radialGradient4742);fill-opacity:1;stroke:none;display:inline;enable-background:new" />
  <rect
     width="75.63073"
     height="0.9733687"
     x="26.220032"
     y="116.18455"
     id="rect2984"
     style="fill:url(#linearGradient4739);fill-opacity:1;stroke:none;display:inline;enable-background:new" />
  <rect
     width="75.63073"
     height="106.09718"
     x="26.302446"
     y="10.862921"
     id="rect2978-7"
     style="opacity:0.07999998;fill:url(#radialGradient3058);fill-opacity:1;stroke:none;display:inline;enable-background:new" />
  <rect
     width="75.63073"
     height="106.09718"
     x="25.972776"
     y="11.15992"
     id="rect2978"
     style="opacity:0.07999998;fill:url(#radialGradient3092);fill-opacity:1;stroke:none;display:inline;enable-background:new" />
  <text
     xml:space="preserve"
     style="font-size:73.70333862px;font-style:normal;font-weight:normal;line-height:125%;letter-spacing:0px;word-spacing:0px;fill:url(#linearGradient3931);fill-opacity:1;stroke:url(#linearGradient3923);stroke-width:2.25611639;stroke-linejoin:round;stroke-miterlimit:4;stroke-opacity:1;stroke-dasharray:none;display:inline;enable-background:new;font-family:Sans"
     x="29.400988"
     y="93.156441"
     id="text3111"
     sodipodi:linespacing="125%"
     transform="scale(1.0535653,0.9491581)"><tspan
       sodipodi:role="line"
       id="tspan3113"
       x="29.400988"
       y="93.156441"
       style="font-weight:bold;fill:url(#linearGradient3931);fill-opacity:1;stroke:url(#linearGradient3923);stroke-width:2.25611639;stroke-linejoin:round;stroke-miterlimit:4;stroke-opacity:1;stroke-dasharray:none;-inkscape-font-specification:Sans Bold">G</tspan></text>
  <path
     inkscape:connector-curvature="0"
     d="M 65.69533,59.826034 98.111023,33.545079 102.43025,50.269317 65.69533,59.826034 z"
     id="path2970"
     style="opacity:0.5;color:#000000;fill:url(#linearGradient3130);fill-opacity:1;fill-rule:evenodd;stroke:none;stroke-width:1;marker:none;visibility:visible;display:inline;overflow:visible;enable-background:new" />
  <g
     style="display:inline;enable-background:new"
     transform="matrix(1.0804389,0,0,0.97336868,-9.4344544,-3.5398039)"
     id="g4407" />
</svg>
