<?xml version="1.0" encoding="UTF-8" standalone="no"?>
<!-- Created with Inkscape (http://www.inkscape.org/) -->

<svg
   xmlns:dc="http://purl.org/dc/elements/1.1/"
   xmlns:cc="http://creativecommons.org/ns#"
   xmlns:rdf="http://www.w3.org/1999/02/22-rdf-syntax-ns#"
   xmlns:svg="http://www.w3.org/2000/svg"
   xmlns="http://www.w3.org/2000/svg"
   xmlns:xlink="http://www.w3.org/1999/xlink"
   xmlns:sodipodi="http://sodipodi.sourceforge.net/DTD/sodipodi-0.dtd"
   xmlns:inkscape="http://www.inkscape.org/namespaces/inkscape"
   version="1.0"
   width="128"
   height="128"
   id="svg2453"
   inkscape:version="0.48.1 r9760"
   sodipodi:docname="gthumbs.svg">
  <metadata
     id="metadata35">
    <rdf:RDF>
      <cc:Work
         rdf:about="">
        <dc:format>image/svg+xml</dc:format>
        <dc:type
           rdf:resource="http://purl.org/dc/dcmitype/StillImage" />
      </cc:Work>
    </rdf:RDF>
  </metadata>
  <sodipodi:namedview
     pagecolor="#ffffff"
     bordercolor="#666666"
     borderopacity="1"
     objecttolerance="10"
     gridtolerance="10"
     guidetolerance="10"
     inkscape:pageopacity="0"
     inkscape:pageshadow="2"
     inkscape:window-width="1419"
     inkscape:window-height="1017"
     id="namedview33"
     showgrid="false"
     inkscape:zoom="6.453125"
     inkscape:cx="72.136808"
     inkscape:cy="37.768467"
     inkscape:window-x="514"
     inkscape:window-y="24"
     inkscape:window-maximized="0"
     inkscape:current-layer="svg2453" />
  <defs
     id="defs2455">
    <linearGradient
       id="linearGradient3829">
      <stop
         style="stop-color:#fedbc5;stop-opacity:1;"
         offset="0"
         id="stop3831" />
      <stop
         id="stop3837"
         offset="1"
         style="stop-color:#d79171;stop-opacity:1;" />
    </linearGradient>
    <radialGradient
       cx="605.71429"
       cy="486.64789"
       r="117.14286"
       fx="605.71429"
       fy="486.64789"
       id="radialGradient19613"
       xlink:href="#linearGradient5060"
       gradientUnits="userSpaceOnUse"
       gradientTransform="matrix(0.02891661,0,0,0.01235294,26.973101,38.470848)" />
    <linearGradient
       id="linearGradient5060">
      <stop
         id="stop5062"
         style="stop-color:black;stop-opacity:1"
         offset="0" />
      <stop
         id="stop5064"
         style="stop-color:black;stop-opacity:0"
         offset="1" />
    </linearGradient>
    <radialGradient
       cx="605.71429"
       cy="486.64789"
       r="117.14286"
       fx="605.71429"
       fy="486.64789"
       id="radialGradient19616"
       xlink:href="#linearGradient5060"
       gradientUnits="userSpaceOnUse"
       gradientTransform="matrix(-0.0289166,0,0,0.01235294,21.026894,38.470848)" />
    <linearGradient
       id="linearGradient5048">
      <stop
         id="stop5050"
         style="stop-color:black;stop-opacity:0"
         offset="0" />
      <stop
         id="stop5056"
         style="stop-color:black;stop-opacity:1"
         offset="0.5" />
      <stop
         id="stop5052"
         style="stop-color:black;stop-opacity:0"
         offset="1" />
    </linearGradient>
    <linearGradient
       x1="302.85715"
       y1="366.64789"
       x2="302.85715"
       y2="609.50507"
       id="linearGradient19619"
       xlink:href="#linearGradient5048"
       gradientUnits="userSpaceOnUse"
       gradientTransform="matrix(0.08449704,0,0,0.01235294,-6.5396456,38.470822)" />
    <linearGradient
       id="linearGradient259-942">
      <stop
         id="stop3802"
         style="stop-color:white;stop-opacity:1"
         offset="0" />
      <stop
         id="stop3804"
         style="stop-color:#e0e0e0;stop-opacity:1"
         offset="1" />
    </linearGradient>
    <linearGradient
       x1="108.26451"
       y1="110.28094"
       x2="25.817675"
       y2="14.029031"
       id="linearGradient2447"
       xlink:href="#linearGradient259-942"
       gradientUnits="userSpaceOnUse"
       gradientTransform="matrix(0.5066363,0,0,0.3512482,-58.338079,-49.085984)" />
    <linearGradient
       id="linearGradient3610-302">
      <stop
         id="stop3796"
         style="stop-color:#333;stop-opacity:1"
         offset="0" />
      <stop
         id="stop3798"
         style="stop-color:#292929;stop-opacity:1"
         offset="1" />
    </linearGradient>
    <linearGradient
       x1="-24.032034"
       y1="-13.090545"
       x2="-24.097931"
       y2="-40.163883"
       id="linearGradient2444"
       xlink:href="#linearGradient3610-302"
       gradientUnits="userSpaceOnUse"
       gradientTransform="matrix(1.1142851,0,0,1.1111113,2.7514431,3.5103428)" />
    <linearGradient
       id="linearGradient4157-401-351">
      <stop
         id="stop3790"
         style="stop-color:#262626;stop-opacity:1"
         offset="0" />
      <stop
         id="stop3792"
         style="stop-color:#828282;stop-opacity:1"
         offset="1" />
    </linearGradient>
    <linearGradient
       x1="28.938274"
       y1="17.33289"
       x2="105.36545"
       y2="92.823723"
       id="linearGradient2442"
       xlink:href="#linearGradient4157-401-351"
       gradientUnits="userSpaceOnUse"
       gradientTransform="matrix(0.4908393,0,0,0.3803351,-57.357124,-48.338393)" />
    <linearGradient
       inkscape:collect="always"
       xlink:href="#linearGradient3829"
       id="linearGradient3835"
       x1="30.21862"
       y1="12.51428"
       x2="21.268623"
       y2="35.758831"
       gradientUnits="userSpaceOnUse"
       gradientTransform="matrix(2.6458333,0,0,2.6458333,-0.05811138,-18.391142)" />
    <radialGradient
       cx="48.337261"
       cy="29.055613"
       r="34.808697"
       fx="48.337261"
       fy="29.055613"
       id="radialGradient6209"
       xlink:href="#linearGradient6181"
       gradientUnits="userSpaceOnUse"
       gradientTransform="matrix(1,0,0,0.65212081,-3.2048517e-8,14.394561)" />
    <linearGradient
       id="linearGradient6181">
      <stop
         id="stop6183"
         style="stop-color:#ffffff;stop-opacity:1"
         offset="0" />
      <stop
         id="stop6189"
         style="stop-color:#ffffff;stop-opacity:0.7096774"
         offset="0.5" />
      <stop
         id="stop6185"
         style="stop-color:#ffffff;stop-opacity:0"
         offset="1" />
    </linearGradient>
    <radialGradient
       cx="48.674648"
       cy="59.261971"
       r="26.822975"
       fx="48.674648"
       fy="59.261971"
       id="radialGradient6165"
       xlink:href="#linearGradient3767"
       gradientUnits="userSpaceOnUse"
       gradientTransform="matrix(1.2063796,-0.01331481,0.00561402,0.50865426,-10.378151,29.421264)" />
    <linearGradient
       id="linearGradient3767">
      <stop
         id="stop3769"
         style="stop-color:#352822;stop-opacity:1"
         offset="0" />
      <stop
         id="stop3771"
         style="stop-color:#352822;stop-opacity:0"
         offset="1" />
    </linearGradient>
    <linearGradient
       x1="47.349163"
       y1="36.893978"
       x2="6.9577026"
       y2="27.07255"
       id="linearGradient3773"
       xlink:href="#linearGradient3767"
       gradientUnits="userSpaceOnUse" />
    <linearGradient
       id="linearGradient3132">
      <stop
         id="stop3134"
         style="stop-color:#352822;stop-opacity:1"
         offset="0" />
      <stop
         id="stop3136"
         style="stop-color:#352822;stop-opacity:0"
         offset="1" />
    </linearGradient>
    <radialGradient
       cx="47.119976"
       cy="37.319492"
       r="29.694843"
       fx="47.119976"
       fy="37.319492"
       id="radialGradient3700"
       xlink:href="#linearGradient3686"
       gradientUnits="userSpaceOnUse"
       gradientTransform="matrix(0.99999998,0.67851598,-0.26279139,0.38730316,9.8072422,-2.0026105)" />
    <linearGradient
       id="linearGradient3686">
      <stop
         id="stop3688"
         style="stop-color:#5b4f4f;stop-opacity:1"
         offset="0" />
      <stop
         id="stop3698"
         style="stop-color:#5b4f4f;stop-opacity:0.61290324"
         offset="0.5" />
      <stop
         id="stop3690"
         style="stop-color:#5b4f4f;stop-opacity:0"
         offset="1" />
    </linearGradient>
    <radialGradient
       cx="51.765625"
       cy="56.28857"
       r="10.734375"
       fx="51.765625"
       fy="56.28857"
       id="radialGradient3781"
       xlink:href="#linearGradient3775"
       gradientUnits="userSpaceOnUse"
       gradientTransform="matrix(0.9334581,0,0,0.9286754,3.4445831,4.0833333)" />
    <linearGradient
       id="linearGradient3775">
      <stop
         id="stop3777"
         style="stop-color:#b7dde5;stop-opacity:1"
         offset="0" />
      <stop
         id="stop3783"
         style="stop-color:#357099;stop-opacity:1"
         offset="0.88999999" />
      <stop
         id="stop3779"
         style="stop-color:#2e4d6a;stop-opacity:1"
         offset="1" />
    </linearGradient>
    <radialGradient
       cx="50.771"
       cy="77.765167"
       r="22.41276"
       fx="50.771"
       fy="77.765167"
       id="radialGradient6175"
       xlink:href="#linearGradient6169"
       gradientUnits="userSpaceOnUse"
       gradientTransform="matrix(1.7969842,0.48150032,-0.22361051,0.83452608,-23.074576,-21.267538)" />
    <linearGradient
       id="linearGradient6169">
      <stop
         id="stop6171"
         style="stop-color:#ffffff;stop-opacity:0"
         offset="0" />
      <stop
         id="stop6177"
         style="stop-color:#ffffff;stop-opacity:0.49803922"
         offset="0.5" />
      <stop
         id="stop6173"
         style="stop-color:#000000;stop-opacity:1"
         offset="1" />
    </linearGradient>
    <clipPath
       id="clipPath6135">
      <path
         d="m 46.25,77.28125 c -3.114742,1.878588 -5.21875,5.284909 -5.21875,9.1875 0,5.927601 4.822399,10.75 10.75,10.75 5.927601,0 10.71875,-4.822399 10.71875,-10.75 0,-1.241846 -0.205798,-2.421791 -0.59375,-3.53125 C 57.027514,80.502975 51.55638,78.594924 46.25,77.28125 z"
         inkscape:connector-curvature="0"
         id="path6137"
         style="fill:#ff0000;fill-opacity:1;stroke:none" />
    </clipPath>
    <radialGradient
       cx="51.770317"
       cy="56.477783"
       r="10.732871"
       fx="51.770317"
       fy="56.477783"
       id="radialGradient6145"
       xlink:href="#linearGradient6139"
       gradientUnits="userSpaceOnUse" />
    <linearGradient
       id="linearGradient6139">
      <stop
         id="stop6141"
         style="stop-color:#000000;stop-opacity:1"
         offset="0" />
      <stop
         id="stop6147"
         style="stop-color:#000000;stop-opacity:0.90322578"
         offset="0.86000001" />
      <stop
         id="stop6143"
         style="stop-color:#000000;stop-opacity:0.08870967"
         offset="1" />
    </linearGradient>
    <radialGradient
       cx="47.035229"
       cy="28.843788"
       r="30.110098"
       fx="47.035229"
       fy="28.843788"
       id="radialGradient3713"
       xlink:href="#linearGradient3702"
       gradientUnits="userSpaceOnUse"
       gradientTransform="matrix(0.99999991,0.3024614,-0.12745446,0.42139078,3.6762736,14.042378)" />
    <linearGradient
       id="linearGradient3702">
      <stop
         id="stop3705"
         style="stop-color:#000000;stop-opacity:1"
         offset="0" />
      <stop
         id="stop3711"
         style="stop-color:#000000;stop-opacity:0.70161289"
         offset="0.5" />
      <stop
         id="stop3707"
         style="stop-color:#000000;stop-opacity:0"
         offset="1" />
    </linearGradient>
    <filter
       color-interpolation-filters="sRGB"
       id="filter3756">
      <feGaussianBlur
         id="feGaussianBlur3758"
         stdDeviation="0.63548831" />
    </filter>
    <linearGradient
       x1="70.598213"
       y1="64.776787"
       x2="73.64286"
       y2="66.383926"
       id="linearGradient3728"
       xlink:href="#linearGradient3722"
       gradientUnits="userSpaceOnUse" />
    <linearGradient
       id="linearGradient3722">
      <stop
         id="stop3724"
         style="stop-color:#eaac96;stop-opacity:1"
         offset="0" />
      <stop
         id="stop3726"
         style="stop-color:#db6f49;stop-opacity:1"
         offset="1" />
    </linearGradient>
    <linearGradient
       x1="39.120537"
       y1="62.960247"
       x2="69.125"
       y2="69.617165"
       id="linearGradient3738"
       xlink:href="#linearGradient3731"
       gradientUnits="userSpaceOnUse" />
    <linearGradient
       id="linearGradient3731">
      <stop
         id="stop3733"
         style="stop-color:#d35f5f;stop-opacity:1"
         offset="0" />
      <stop
         id="stop3735"
         style="stop-color:#d35f5f;stop-opacity:0"
         offset="1" />
    </linearGradient>
    <linearGradient
       x1="39.120537"
       y1="62.960247"
       x2="69.125"
       y2="69.617165"
       id="linearGradient3175"
       xlink:href="#linearGradient3731"
       gradientUnits="userSpaceOnUse" />
    <linearGradient
       id="linearGradient3177">
      <stop
         id="stop3179"
         style="stop-color:#d35f5f;stop-opacity:1"
         offset="0" />
      <stop
         id="stop3181"
         style="stop-color:#d35f5f;stop-opacity:0"
         offset="1" />
    </linearGradient>
    <radialGradient
       cx="51.770317"
       cy="56.477783"
       r="10.732871"
       fx="51.770317"
       fy="56.477783"
       id="radialGradient3746"
       xlink:href="#linearGradient3739"
       gradientUnits="userSpaceOnUse" />
    <linearGradient
       id="linearGradient3739">
      <stop
         id="stop3742"
         style="stop-color:#ffffff;stop-opacity:1"
         offset="0" />
      <stop
         id="stop3744"
         style="stop-color:#ffffff;stop-opacity:0"
         offset="1" />
    </linearGradient>
    <radialGradient
       cx="51.770317"
       cy="56.477783"
       r="10.732871"
       fx="51.770317"
       fy="56.477783"
       id="radialGradient3750"
       xlink:href="#linearGradient3739"
       gradientUnits="userSpaceOnUse" />
    <linearGradient
       id="linearGradient3188">
      <stop
         id="stop3190"
         style="stop-color:#ffffff;stop-opacity:1"
         offset="0" />
      <stop
         id="stop3192"
         style="stop-color:#ffffff;stop-opacity:0"
         offset="1" />
    </linearGradient>
    <linearGradient
       y2="69.617165"
       x2="69.125"
       y1="62.960247"
       x1="39.120537"
       gradientUnits="userSpaceOnUse"
       id="linearGradient3224"
       xlink:href="#linearGradient3731"
       inkscape:collect="always" />
    <radialGradient
       inkscape:collect="always"
       xlink:href="#linearGradient4919"
       id="radialGradient3414"
       gradientUnits="userSpaceOnUse"
       gradientTransform="matrix(1.459545,0,0,1.345339,-7.403138,-10.82184)"
       cx="17.062258"
       cy="28.851427"
       fx="17.062258"
       fy="28.851427"
       r="13.5" />
    <linearGradient
       id="linearGradient4919">
      <stop
         style="stop-color:#429eff;stop-opacity:1;"
         offset="0"
         id="stop4921" />
      <stop
         style="stop-color:#0044a7;stop-opacity:1;"
         offset="1"
         id="stop4923" />
    </linearGradient>
    <radialGradient
       inkscape:collect="always"
       xlink:href="#linearGradient4952"
       id="radialGradient3219"
       gradientUnits="userSpaceOnUse"
       gradientTransform="matrix(5.3484826,-1.3567491,1.2710361,4.4909681,-25.353634,-1.7612675)"
       cx="16.829521"
       cy="24.743624"
       fx="16.829521"
       fy="24.743624"
       r="16.924616" />
    <linearGradient
       inkscape:collect="always"
       id="linearGradient4952">
      <stop
         style="stop-color:#ffffff;stop-opacity:1;"
         offset="0"
         id="stop4954" />
      <stop
         style="stop-color:#ffffff;stop-opacity:0;"
         offset="1"
         id="stop4956" />
    </linearGradient>
    <radialGradient
       inkscape:collect="always"
       xlink:href="#linearGradient2617"
       id="radialGradient3416"
       gradientUnits="userSpaceOnUse"
       gradientTransform="matrix(0,-1.686609,1.66336,0,41.65431,111.7396)"
       cx="59.787472"
       cy="10.901535"
       fx="59.787472"
       fy="10.901535"
       r="10.55559" />
    <linearGradient
       id="linearGradient2617">
      <stop
         id="stop2619"
         offset="0"
         style="stop-color:#fbfbfa;stop-opacity:1;" />
      <stop
         id="stop2621"
         offset="1"
         style="stop-color:#d3d7cf" />
    </linearGradient>
    <linearGradient
       inkscape:collect="always"
       xlink:href="#linearGradient2698"
       id="linearGradient3420"
       gradientUnits="userSpaceOnUse"
       x1="81.332451"
       y1="55.106758"
       x2="82.919647"
       y2="53.511261" />
    <linearGradient
       id="linearGradient2698">
      <stop
         id="stop2700"
         offset="0"
         style="stop-color:#555753" />
      <stop
         style="stop-color:#a3a5a2;stop-opacity:1;"
         offset="0.70238096"
         id="stop2706" />
      <stop
         id="stop2702"
         offset="1"
         style="stop-color:#888a85" />
    </linearGradient>
    <linearGradient
       inkscape:collect="always"
       xlink:href="#linearGradient2690"
       id="linearGradient3422"
       gradientUnits="userSpaceOnUse"
       x1="81.096306"
       y1="57.148193"
       x2="83.629295"
       y2="54.615208" />
    <linearGradient
       id="linearGradient2690"
       inkscape:collect="always">
      <stop
         id="stop2692"
         offset="0"
         style="stop-color:#2e3436" />
      <stop
         id="stop2694"
         offset="1"
         style="stop-color:#555753" />
    </linearGradient>
    <linearGradient
       inkscape:collect="always"
       xlink:href="#linearGradient19900"
       id="linearGradient3410"
       gradientUnits="userSpaceOnUse"
       gradientTransform="matrix(2.3970371,0,0,2.2692969,47.227388,30.369341)"
       x1="40.25"
       y1="41"
       x2="43.0625"
       y2="38.434578" />
    <linearGradient
       inkscape:collect="always"
       id="linearGradient19900">
      <stop
         style="stop-color:#888a85"
         offset="0"
         id="stop19902" />
      <stop
         style="stop-color:#d3d7cf"
         offset="1"
         id="stop19904" />
    </linearGradient>
    <linearGradient
       inkscape:collect="always"
       xlink:href="#linearGradient19914"
       id="linearGradient3412"
       gradientUnits="userSpaceOnUse"
       gradientTransform="matrix(2.3970371,0,0,2.2692969,47.227385,30.369346)"
       x1="33.985317"
       y1="32.045906"
       x2="37.211494"
       y2="35.272079" />
    <linearGradient
       inkscape:collect="always"
       id="linearGradient19914">
      <stop
         style="stop-color:#000000;stop-opacity:1;"
         offset="0"
         id="stop19916" />
      <stop
         style="stop-color:#000000;stop-opacity:0;"
         offset="1"
         id="stop19918" />
    </linearGradient>
    <radialGradient
       inkscape:collect="always"
       xlink:href="#linearGradient2609"
       id="radialGradient3424"
       gradientUnits="userSpaceOnUse"
       gradientTransform="matrix(0,1.143443,-1.247217,-1.248581e-6,41.735,-54.25682)"
       cx="45.094624"
       cy="-2.6936908"
       fx="45.094624"
       fy="-2.6936908"
       r="10.498367" />
    <linearGradient
       id="linearGradient2609"
       inkscape:collect="always">
      <stop
         id="stop2611"
         offset="0"
         style="stop-color:#ffffff;stop-opacity:1" />
      <stop
         id="stop2613"
         offset="1"
         style="stop-color:#eeeeec" />
    </linearGradient>
    <linearGradient
       inkscape:collect="always"
       xlink:href="#linearGradient23434"
       id="linearGradient3426"
       gradientUnits="userSpaceOnUse"
       x1="55.878288"
       y1="12.472493"
       x2="52.5"
       y2="-4.6213989" />
    <linearGradient
       inkscape:collect="always"
       id="linearGradient23434">
      <stop
         style="stop-color:#2e3436"
         offset="0"
         id="stop23436" />
      <stop
         style="stop-color:#555753"
         offset="1"
         id="stop23438" />
    </linearGradient>
    <linearGradient
       inkscape:collect="always"
       xlink:href="#linearGradient4931"
       id="linearGradient3428"
       gradientUnits="userSpaceOnUse"
       x1="54.1129"
       y1="12.846775"
       x2="50.079948"
       y2="-3.8813655" />
    <linearGradient
       inkscape:collect="always"
       id="linearGradient4931">
      <stop
         style="stop-color:#babdb6;stop-opacity:1;"
         offset="0"
         id="stop4933" />
      <stop
         style="stop-color:#888a85"
         offset="1"
         id="stop4935" />
    </linearGradient>
    <radialGradient
       inkscape:collect="always"
       xlink:href="#linearGradient11102"
       id="radialGradient3217"
       gradientUnits="userSpaceOnUse"
       gradientTransform="matrix(0.946826,0,0,0.946826,0.469351,0.499261)"
       cx="8.0402098"
       cy="9.5280285"
       fx="8.0402098"
       fy="9.5280285"
       r="9.8125" />
    <linearGradient
       inkscape:collect="always"
       id="linearGradient11102">
      <stop
         style="stop-color:#ffffff;stop-opacity:1;"
         offset="0"
         id="stop11104" />
      <stop
         style="stop-color:#ffffff;stop-opacity:0;"
         offset="1"
         id="stop11106" />
    </linearGradient>
    <radialGradient
       inkscape:collect="always"
       xlink:href="#linearGradient4952"
       id="radialGradient4585"
       gradientUnits="userSpaceOnUse"
       gradientTransform="matrix(5.3484826,-1.3567491,1.2710361,4.4909681,-60.14877,-8.4835067)"
       cx="16.829521"
       cy="24.743624"
       fx="16.829521"
       fy="24.743624"
       r="16.924616" />
    <linearGradient
       inkscape:collect="always"
       xlink:href="#linearGradient19900"
       id="linearGradient4587"
       gradientUnits="userSpaceOnUse"
       gradientTransform="matrix(2.3970371,0,0,2.2692969,12.432252,23.647102)"
       x1="40.25"
       y1="41"
       x2="43.0625"
       y2="38.434578" />
    <linearGradient
       inkscape:collect="always"
       xlink:href="#linearGradient19914"
       id="linearGradient4589"
       gradientUnits="userSpaceOnUse"
       gradientTransform="matrix(2.3970371,0,0,2.2692969,12.432249,23.647107)"
       x1="33.985317"
       y1="32.045906"
       x2="37.211494"
       y2="35.272079" />
    <radialGradient
       inkscape:collect="always"
       xlink:href="#linearGradient4919"
       id="radialGradient4591"
       gradientUnits="userSpaceOnUse"
       gradientTransform="matrix(1.459545,0,0,1.345339,-7.403138,-10.82184)"
       cx="17.062258"
       cy="28.851427"
       fx="17.062258"
       fy="28.851427"
       r="13.5" />
    <radialGradient
       inkscape:collect="always"
       xlink:href="#linearGradient2617"
       id="radialGradient4593"
       gradientUnits="userSpaceOnUse"
       gradientTransform="matrix(0,-1.686609,1.66336,0,41.65431,111.7396)"
       cx="59.787472"
       cy="10.901535"
       fx="59.787472"
       fy="10.901535"
       r="10.55559" />
    <linearGradient
       inkscape:collect="always"
       xlink:href="#linearGradient2698"
       id="linearGradient4595"
       gradientUnits="userSpaceOnUse"
       x1="81.332451"
       y1="55.106758"
       x2="82.919647"
       y2="53.511261" />
    <linearGradient
       inkscape:collect="always"
       xlink:href="#linearGradient2690"
       id="linearGradient4597"
       gradientUnits="userSpaceOnUse"
       x1="81.096306"
       y1="57.148193"
       x2="83.629295"
       y2="54.615208" />
    <radialGradient
       inkscape:collect="always"
       xlink:href="#linearGradient2609"
       id="radialGradient4599"
       gradientUnits="userSpaceOnUse"
       gradientTransform="matrix(0,1.143443,-1.247217,-1.248581e-6,41.735,-54.25682)"
       cx="45.094624"
       cy="-2.6936908"
       fx="45.094624"
       fy="-2.6936908"
       r="10.498367" />
    <linearGradient
       inkscape:collect="always"
       xlink:href="#linearGradient23434"
       id="linearGradient4601"
       gradientUnits="userSpaceOnUse"
       x1="55.878288"
       y1="12.472493"
       x2="52.5"
       y2="-4.6213989" />
    <linearGradient
       inkscape:collect="always"
       xlink:href="#linearGradient4931"
       id="linearGradient4603"
       gradientUnits="userSpaceOnUse"
       x1="54.1129"
       y1="12.846775"
       x2="50.079948"
       y2="-3.8813655" />
    <radialGradient
       inkscape:collect="always"
       xlink:href="#linearGradient11102"
       id="radialGradient4605"
       gradientUnits="userSpaceOnUse"
       gradientTransform="matrix(0.946826,0,0,0.946826,0.469351,0.499261)"
       cx="8.0402098"
       cy="9.5280285"
       fx="8.0402098"
       fy="9.5280285"
       r="9.8125" />
  </defs>
  <g
     id="layer1"
     transform="matrix(2.6458333,0,0,2.6458333,-0.05811138,-18.391142)">
    <g
       id="g3257"
       style="opacity:0.4">
      <rect
         width="40.799999"
         height="2.9999998"
         x="3.5999999"
         y="43"
         id="rect2879"
         style="fill:url(#linearGradient19619);fill-opacity:1;fill-rule:nonzero;stroke:none;stroke-width:1;marker:none;visibility:visible;display:inline;overflow:visible" />
      <path
         d="m 3.6,43.00013 c 0,0 0,2.999835 0,2.999835 C 2.1108662,46.005612 0,45.327854 0,44.499854 0,43.671856 1.6617608,43.000131 3.6,43.00013 z"
         id="path2881"
         style="fill:url(#radialGradient19616);fill-opacity:1;fill-rule:nonzero;stroke:none;stroke-width:1;marker:none;visibility:visible;display:inline;overflow:visible"
         inkscape:connector-curvature="0" />
      <path
         d="m 44.4,43.00013 c 0,0 0,2.999835 0,2.999835 1.489133,0.0056 3.6,-0.672111 3.6,-1.500111 0,-0.827998 -1.661761,-1.499723 -3.6,-1.499724 z"
         id="path2883"
         style="fill:url(#radialGradient19613);fill-opacity:1;fill-rule:nonzero;stroke:none;stroke-width:1;marker:none;visibility:visible;display:inline;overflow:visible"
         inkscape:connector-curvature="0" />
    </g>
    <rect
       width="44.965565"
       height="35.922085"
       x="-46.457321"
       y="-44.502605"
       transform="matrix(-0.9999985,0.00173317,-9.6052603e-4,-0.9999995,0,0)"
       id="rect3580"
       style="fill:url(#linearGradient2447);fill-opacity:1;stroke:#c1c1c1;stroke-width:0.99999994;stroke-linecap:round;stroke-linejoin:miter;stroke-miterlimit:4;stroke-opacity:0.96862745;stroke-dasharray:none" />
    <rect
       width="38.927383"
       height="29.853907"
       rx="0"
       ry="0"
       x="-43.528763"
       y="-41.517406"
       transform="matrix(-0.9999929,0.00375523,0.00244093,-0.999997,0,0)"
       id="rect3582"
       style="fill:url(#linearGradient2442);fill-opacity:1;stroke:url(#linearGradient2444);stroke-width:1.00000966;stroke-linecap:round;stroke-linejoin:miter;stroke-miterlimit:4;stroke-opacity:1;stroke-dasharray:none" />
  </g>
  <rect
     style="fill:url(#linearGradient3835);fill-opacity:1;fill-rule:nonzero;stroke:none"
     id="rect3059"
     width="100.24474"
     height="76.168228"
     x="13.32026"
     y="13.689932" />
  <g
     transform="matrix(1.2676407,0,0,1.2676407,0.3229154,-7.4427132)"
     id="layer6"
     style="display:inline" />
  <g
     transform="matrix(1.2676407,0,0,1.2676407,0.3229154,-7.4427132)"
     id="layer1-3" />
  <g
     transform="matrix(1.2676407,0,0,1.2676407,0.3229154,-7.4427132)"
     id="layer5"
     style="display:inline" />
  <g
     transform="matrix(1.2676407,0,0,1.2676407,0.3229154,-7.4427132)"
     id="layer3"
     style="display:inline">
    <path
       d="M 76.645324,62.286159 C 71.594561,50.03806 54.039686,39.033691 34.597724,36.906076 25.33396,35.892304 17.425131,41.072955 17.425131,41.072955 4.2108452,25.537241 15,21.535714 15,21.535714 c 0,0 5.714285,-2.857143 8.928571,-2.857143 33.75,12.678571 56.428572,35.714286 56.428572,35.714286 0,0 1.10961,14.679016 -3.711819,7.893302 z"
       inkscape:connector-curvature="0"
       id="path3649-3"
       style="opacity:0.4;fill:url(#radialGradient6209);fill-opacity:1;stroke:none;display:inline" />
    <path
       d="m 73.392857,67.071429 c 0,0 -38.571429,12.678571 -45,-21.785715 C 19.464286,43.142857 21.071429,51 21.071429,51 c 0,0 7.678571,29.464285 52.678571,18.928571 0,0 2.142857,-1.607142 -0.357143,-2.857142 z"
       inkscape:connector-curvature="0"
       id="path6149"
       style="opacity:0.6;fill:url(#radialGradient6165);fill-opacity:1;stroke:none" />
    <path
       d="m 14.015867,21.900362 c -0.487517,-1.141747 6.207271,-3.958161 9.596449,-3.914341 7.446654,0.09465 19.134573,7.97775 28.536809,12.879445 9.979981,5.202893 29.296555,13.66555 28.53681,24.748737 C 78.305481,57.588435 66.656272,43.569405 52.401663,35.284883 42.50105,29.530826 34.654499,23.66104 24.496199,20.132595 21.149545,18.970148 14.473504,22.972132 14.015867,21.900362 z"
       inkscape:connector-curvature="0"
       id="path3634"
       style="fill:url(#linearGradient3773);fill-opacity:1;stroke:none" />
    <path
       d="m 28.536809,45.239835 c 3.030458,12.500638 9.044178,21.991009 23.785936,23.375561 10.325066,0.969735 20.092566,-1.089071 21.039584,-2.288627 0,0 -0.631345,-6.313453 -6.313454,-10.606602 C 39.143411,41.451763 28.536809,45.239835 28.536809,45.239835 z"
       inkscape:connector-curvature="0"
       id="path3636"
       style="fill:#ffffff;stroke:none" />
    <path
       d="M 28.392857,43.321429 17.425131,41.072955 c 0,0 7.908829,-5.180651 17.172593,-4.166879 19.441962,2.127615 36.996837,13.131984 42.0476,25.380083 0,0 1.033247,2.106699 -2.002467,2.28527 -2.5,-7.678571 -13.392858,-18.571429 -46.25,-21.25 z"
       inkscape:connector-curvature="0"
       id="path3676"
       style="fill:url(#radialGradient3700);fill-opacity:1;stroke:none" />
    <path
       d="m 22.097087,42.461915 c 5.071373,-0.87575 7.870682,-1.101216 11.743023,-0.505076 12.304279,1.894221 25.029233,5.438357 35.102801,12.753176 3.140297,2.280295 7.8061,9.604341 5.682108,11.237947 C 72.825296,67.332166 74.20871,60.614151 67.427682,56.098974 55.578061,48.208852 36.634652,44.136095 27.400388,45.429239 25.823049,43.050604 24.260384,43.116347 22.097087,42.461915 z"
       inkscape:connector-curvature="0"
       id="path3643"
       style="fill:#000000;stroke:none" />
    <path
       d="m 46.25,47.28125 c -3.114742,1.878588 -5.21875,5.284909 -5.21875,9.1875 0,5.927601 4.822399,10.75 10.75,10.75 5.927601,0 10.71875,-4.822399 10.71875,-10.75 0,-1.241846 -0.205798,-2.421791 -0.59375,-3.53125 C 57.027514,50.502975 51.55638,48.594924 46.25,47.28125 z"
       inkscape:connector-curvature="0"
       id="path3651"
       style="fill:url(#radialGradient3781);fill-opacity:1;stroke:none" />
    <path
       d="m 28.536809,45.239835 c 3.030458,12.500638 9.044178,21.991009 23.785936,23.375561 10.325066,0.969735 20.092566,-1.089071 21.039584,-2.288627 0,0 -0.631345,-6.313453 -6.313454,-10.606602 C 39.143411,41.451763 28.536809,45.239835 28.536809,45.239835 z"
       inkscape:connector-curvature="0"
       id="path6167"
       style="opacity:0.3;fill:url(#radialGradient6175);fill-opacity:1;stroke:none" />
    <g
       transform="translate(0,-30)"
       clip-path="url(#clipPath6135)"
       id="g6131">
      <path
         d="m 55.967298,96.892144 c -0.09433,-1.072966 -0.332799,-1.97399 -0.835212,-3.158106 -1.187859,-2.119317 -2.185404,-4.138541 -3.128773,-6.537624 0.272103,-1.173246 0.468199,0.766008 0.226994,1.361196 0.23617,2.667614 -0.161196,6.039299 0.24617,8.67487 0.609862,1.186752 0.807991,-0.66758 0.524606,-1.185671 -0.310074,-3.170373 -0.692667,-6.050296 -0.994487,-9.009408 0.424285,-1.387073 -0.02452,1.225361 -0.363077,1.417148 -0.600944,2.589547 -1.738485,5.608022 -2.08649,8.483691 0.05497,0.985504 0.427388,-0.688462 0.371781,-1.289886 0.786539,-2.848183 1.149701,-6.151502 1.733758,-8.999976 0.677709,-1.157609 -0.08018,1.159001 -0.417294,1.64472 -1.545279,2.234536 -3.463401,5.176391 -4.771732,7.50467 -0.461046,1.183964 0.949469,-0.222269 1.058588,-0.817457 1.265915,-2.741366 2.302747,-5.52089 3.754839,-8.2261 1.266925,-0.716977 -0.43005,1.324489 -0.64739,1.473154 -2.040462,1.689476 -4.687813,3.3195 -6.56474,5.497697 -0.482855,0.85875 1.103486,-0.207983 1.289869,-0.751301 2.073236,-2.260037 4.081205,-4.253672 6.156486,-6.210179 1.038559,-0.356276 -0.757126,1.095359 -1.347303,0.992375 -2.439108,1.032807 -5.446262,1.539465 -7.794628,2.986083 -0.680169,0.744556 0.911673,-0.09587 1.206863,-0.164137 2.869906,-1.354297 5.049816,-3.305902 7.692086,-4.327538 1.183016,0.17952 -1.051876,0.827825 -1.294119,0.692361 -2.909006,0.153298 -5.944146,0.477627 -8.890111,0.879527 -0.941926,0.66418 1.156455,0.51447 1.631212,0.174769 3.148655,-0.574253 5.586506,-1.367778 8.746765,-1.622102 1.161234,0.572399 -1.382561,0.133621 -1.595073,-0.179102 -2.6248,-0.400217 -6.070944,-1.192182 -8.698006,-1.499358 -1.331136,0.300106 0.798818,0.637058 1.365032,0.703221 2.895804,0.208525 5.910279,0.07303 8.691634,0.737739 1.204243,0.591079 -1.047523,-0.238357 -1.223693,-0.414831 -2.715924,-1.306959 -5.041313,-3.028297 -7.810219,-4.034127 -1.053152,-0.01971 0.692915,0.814708 1.230022,0.740431 2.75501,1.054964 5.440571,2.086204 7.95455,3.631148 0.883132,1.201426 -0.745412,-0.569492 -1.087326,-1.112636 -2.066408,-1.801435 -4.344177,-4.068905 -6.316734,-5.919431 -0.878365,-0.566605 0.212126,0.83927 0.714724,0.88155 2.06243,2.08071 4.638686,3.511673 6.939988,5.737907 0.275832,1.146115 -1.015094,-0.218729 -1.052374,-0.858967 -1.231674,-2.339385 -2.340013,-5.53623 -3.692786,-7.840793 -0.934422,-0.617996 -0.650085,1.017369 -0.167815,1.241606 1.737047,2.624563 3.455399,5.05529 5.0482,7.767364 0.135976,1.480263 -0.873939,-0.934442 -0.757325,-1.570868 -0.347045,-2.774245 -0.764327,-6.045849 -1.325908,-8.713138 -0.402202,-1.08327 -0.397306,0.71949 -0.214994,1.274909 0.537199,2.907156 2.06769,5.736437 2.443203,8.689426 -0.185692,1.08847 -0.528607,-0.952243 -0.251802,-1.539389 0.317546,-2.627046 1.105365,-5.57781 1.20966,-8.221956 -0.08732,-1.065623 -0.507819,0.830977 -0.323446,1.057062 0.0126,2.886942 0.178804,6.024454 -0.141888,8.807368 -0.658099,0.918809 0.02511,-1.167048 0.183507,-1.36004 1.290146,-2.708572 2.770242,-5.504457 3.611796,-8.02165 -0.109561,-1.154176 -0.866353,0.44466 -0.861754,1.045823 -1.140051,2.658857 -1.724727,6.12967 -2.883322,8.699219 -0.83499,0.712829 0.635957,-1.231135 0.831733,-1.52194 2.000374,-2.069894 3.815202,-3.850307 5.516851,-6.352026 0.232987,-1.124405 -1.163438,0.397703 -1.155982,0.659866 -1.81514,2.177401 -3.24591,5.219456 -5.109236,7.314091 -1.098816,0.742039 0.809425,-1.367555 1.065932,-1.559398 2.338822,-1.332706 4.650441,-2.656419 7.095596,-4.245036 0.673373,-0.740736 -0.8298,-0.225203 -1.226587,0.232963 -2.43024,1.943319 -4.201821,4.034216 -6.796908,5.448983 -1.479891,0.202513 0.883733,-0.38782 1.189426,-0.499122 2.85811,-0.591518 5.991608,-1.596928 8.583632,-2.378738 0.816351,-0.777368 -1.289166,-0.343767 -1.639527,0.07773 -3.040094,0.913832 -5.407695,1.945152 -8.329083,2.928385 -1.472723,-0.170892 1.585678,-0.436083 1.812061,-0.330994 2.805872,0.278338 5.431404,0.48668 8.461749,0.403682 1.075254,-0.543106 -0.841662,-0.346703 -1.103297,-0.389236 -3.112975,-0.100399 -6.189045,0.915143 -8.990562,0.796326 -0.971339,-0.636785 0.991879,-0.408393 1.543328,-0.156883 2.493924,0.921882 5.189277,2.438678 7.859156,2.989976 1.043838,-0.133555 -0.863896,-0.650231 -1.073991,-0.621676 -2.748176,-0.672195 -5.792231,-1.318336 -8.736495,-2.126637 -0.873809,-1.067309 1.452979,0.245836 1.517181,0.673751 2.239911,1.853839 4.574736,3.758971 7.144274,5.137688 1.017008,0.512995 -0.647292,-0.943521 -1.032862,-1.272876 -2.696815,-1.669685 -5.101366,-2.676841 -7.564064,-4.260282 -0.460862,-1.026422 1.125235,0.314775 1.075331,0.811245 1.564043,2.412628 3.670796,4.921215 5.338905,7.08635 1.083065,0.496078 -0.105993,-1.030055 -0.426255,-1.465619 -2.022113,-2.126673 -4.548212,-4.426653 -6.305214,-6.63202 -0.479065,-1.234254 1.34602,1.223929 1.148639,1.67649 0.759019,2.725468 1.420695,4.904086 2.611522,7.699567 0.205642,0.257032 0.08924,0.375908 0.146885,0.465777 -6.96e-4,-0.199999 0.344686,-0.08298 0.383578,0.113198"
         inkscape:connector-curvature="0"
         id="path3785"
         style="opacity:0.3;fill:#000000;fill-opacity:1;stroke:none" />
      <path
         d="m 50.931665,97.570328 c 0.734269,-1.832199 0.771744,-3.454974 0.73809,-5.107553 -0.05974,-1.98584 -0.203174,-3.706469 0.20869,-5.408472 0.679534,1.048112 -0.957709,2.844738 -1.574038,4.099626 -0.649299,1.567769 -1.75164,2.969389 -2.585876,4.789104 0.42704,0.964132 1.646804,-1.889275 1.777622,-2.670642 0.761186,-2.27368 1.327114,-4.76971 2.227206,-6.585223 0.406426,1.044551 -2.124452,2.611077 -2.735968,3.787176 -1.49112,1.430192 -2.74613,2.909897 -3.895896,4.200516 0.325627,1.215529 1.299718,-1.674085 1.732492,-1.903793 1.622897,-1.966817 2.873975,-4.542196 4.469682,-6.277206 -0.01228,1.268306 -2.314312,1.57992 -3.494685,2.537403 -1.688096,0.740538 -3.55629,1.94607 -4.998631,3.246279 0.899757,0.884044 2.192541,-1.694942 3.260527,-1.952615 1.559202,-1.488784 3.567453,-2.297718 5.361033,-3.658987 -0.489453,0.80316 -2.969373,0.354151 -4.189984,0.992461 -1.618474,0.32415 -3.787209,1.283054 -5.402597,1.718218 -0.260982,1.25915 2.67576,-0.963014 3.319363,-1.009839 1.886736,-0.703206 4.066618,-1.484542 6.121978,-2.222053 -0.793621,1.007328 -2.940944,0.314659 -4.060265,0.316563 -1.911659,-0.369152 -4.101602,-0.08793 -5.824324,-0.168131 -0.45703,0.799224 1.690081,-0.142506 2.300806,0.08713 2.553879,0.04535 5.201344,-0.352338 7.734083,-0.04571 -0.744867,0.655905 -3.164142,-0.987112 -4.285603,-1.203154 -1.579095,-0.669613 -3.400527,-1.342296 -5.407639,-1.978965 -0.007,0.957191 2.296932,1.044475 3.319066,1.356201 2.361157,0.550971 4.703375,0.545155 6.61244,1.331574 -0.851364,0.272344 -2.658179,-1.469093 -3.970791,-2.118562 -1.414607,-0.998853 -2.397768,-2.664395 -4.169924,-3.646175 -1.134041,0.175521 1.276211,1.371125 1.557571,1.615515 1.973069,1.296284 4.479328,2.905137 6.670853,4.2942 -0.948911,0.149784 -2.451841,-2.487759 -3.103525,-3.483018 -1.210249,-1.599083 -2.03969,-3.282278 -3.015664,-4.69344 -1.13263,-0.121528 1.321401,2.667088 1.657123,3.161738 1.332948,1.739146 3.25525,3.158352 4.360536,4.967262 -1.212507,-0.265784 -1.256525,-2.989675 -1.688259,-4.01835 -0.40657,-1.967378 -1.046189,-3.898933 -1.859766,-5.463076 -0.967595,-0.490691 0.632963,1.462785 0.710726,2.176878 0.954392,2.456288 1.973414,4.516721 3.001173,6.973441 -0.68643,-0.594879 0.09176,-2.687253 -0.103409,-4.185961 0.03416,-2.082705 -0.145236,-3.788755 -0.463978,-5.519971 -0.970204,-0.402868 -0.09565,2.049657 -0.232827,2.483173 0.544995,2.477618 0.868257,5.097335 1.146231,7.556094 -0.830273,-0.774568 0.721675,-3.295867 0.769188,-4.6606 0.772435,-1.725301 1.203002,-3.360764 1.427494,-5.328345 -0.646478,-0.621879 -0.950381,1.8767 -0.943615,2.309061 -0.412856,2.700014 -0.401409,5.277526 -0.902437,7.60005 -0.179131,-1.090974 1.489996,-2.689338 1.973807,-4.017445 1.280713,-1.539342 1.937612,-2.965844 2.984257,-4.760585 -0.218743,-1.040125 -1.149981,1.494317 -1.659638,1.939601 -1.208087,2.445631 -2.351966,4.92686 -3.559838,6.930719 -0.184207,-1.24668 2.308809,-1.872711 3.165668,-3.013267 1.55282,-0.984145 3.067811,-2.640289 4.632737,-3.970157 -1.018083,-0.734774 -1.880163,1.698672 -2.685834,2.440769 -1.711679,1.658535 -3.400397,3.330821 -4.923313,4.889886 0.295945,-1.253786 2.936995,-1.937385 4.013579,-2.380902 1.652449,-0.837012 3.522879,-1.285623 5.005134,-2.107166 0.404487,-0.970321 -1.769637,0.681886 -2.102873,0.952367 -2.18343,1.435175 -4.571979,2.696533 -6.695117,3.676915 0.554626,-0.723926 2.847381,-0.669873 4.134554,-1.124725 1.721034,0.01483 3.779867,-0.321384 5.53025,-0.469961 0.316704,-0.969971 -1.386335,0.08481 -2.153689,0.152563 -2.649153,0.436129 -5.061401,1.29157 -7.42416,1.455838 0.653657,-0.617026 2.605602,0.463001 3.994739,0.413564 1.826276,0.246699 3.807446,1.056711 5.535569,1.165906 0.927946,-0.86308 -1.604656,-0.193552 -2.107046,-0.501095 -2.340163,-0.310044 -4.984348,-0.406311 -7.528472,-1.070405 1.174577,-0.377371 2.668149,1.445925 3.770398,2.128197 1.799508,1.0324 3.085085,1.883772 4.845227,2.46675 1.055262,-0.656617 -1.002872,-0.996805 -1.700501,-1.253495 -2.441336,-0.776423 -4.907779,-2.168072 -7.284241,-3.206512 1.264636,0.0084 2.043298,2.354666 3.25319,3.166756 1.253212,1.227662 3.114761,2.876879 4.389096,4.033285 0.606397,-0.92553 -2.010528,-1.937407 -2.429031,-2.780994 -1.924388,-1.458892 -3.296553,-2.4559 -5.067092,-4.010416 1.08127,-0.02535 1.251137,2.418937 1.929018,3.701512 0.636595,1.528608 1.682454,2.814347 2.63283,4.598692 1.315196,0.132038 -0.686214,-2.013468 -1.233019,-2.629468 -1.337479,-1.996165 -2.536254,-3.686507 -3.728686,-5.548655 1.128267,0.639055 0.58073,2.483771 1.077576,3.902452 0.08807,1.998697 0.40996,4.147387 1.086266,6.030618 0.77646,-0.646573 -0.104024,-2.417742 -0.298971,-3.579373 -0.514983,-1.973914 -1.548358,-4.397289 -1.784558,-6.475499 0.958586,0.659487 -0.547483,3.158579 -0.393639,4.369625 -0.19265,1.888012 -0.943307,4.216141 -0.872103,6.094907 -0.0501,-0.193623 0.156922,-0.269622 0.334565,-0.177738 -0.180893,-0.08531 -0.320751,0.356431 -0.24764,0.170273 0.190948,0.05949 0.05362,-0.0058 0.163047,-0.173189"
         inkscape:connector-curvature="0"
         id="path3787"
         style="opacity:0.1;fill:#000000;fill-opacity:1;stroke:none" />
    </g>
    <path
       inkscape:connector-curvature="0"
       d="m 62.503188,56.477783 a 10.732871,10.732871 0 1 1 -21.465742,0 10.732871,10.732871 0 1 1 21.465742,0 z"
       transform="matrix(0.43529413,0,0,0.43529413,29.235002,31.893336)"
       id="path3647"
       style="fill:url(#radialGradient6145);fill-opacity:1;stroke:none" />
    <path
       d="m 17.425131,41.072955 c 0,0 7.908829,-5.180651 17.172593,-4.166879 19.441962,2.127615 36.996837,13.131984 42.0476,25.380083"
       inkscape:connector-curvature="0"
       id="path3649"
       style="fill:none;stroke:url(#radialGradient3713);stroke-width:1;stroke-linecap:butt;stroke-linejoin:miter;stroke-miterlimit:4;stroke-opacity:1;stroke-dasharray:none;filter:url(#filter3756)" />
    <path
       d="m 71.4375,60.8125 c 0.593604,5.114599 -1.140506,6.509827 -7.625,7.75 5.177776,-0.495478 8.991161,-1.526304 9.5625,-2.25 0,0 -0.287731,-2.534632 -1.9375,-5.5 z"
       inkscape:connector-curvature="0"
       id="path3717"
       style="fill:url(#linearGradient3728);fill-opacity:1;stroke:none" />
    <path
       d="m 27.652926,45.366104 c 0,0 -4.166879,0 -7.702413,2.272843 7.323606,-1.894036 8.207489,0 8.207489,0 0,0 -3.409265,0.252538 -4.924494,3.030458 2.272844,-2.399112 5.429571,-1.515229 5.55584,0.126269 0,0 -3.156727,0.883883 -5.303301,4.798224 3.282996,-3.661803 6.060915,-2.525381 6.060915,-2.525381 0,0 -0.953644,0.848098 -2.904189,4.04061 2.525382,-3.030457 4.671956,-2.272843 4.671956,-2.272843 0,0 -2.399112,1.388959 -4.04061,6.439722 3.282996,-5.555839 5.555839,-4.04061 5.555839,-4.04061 0,0 -1.38896,2.020306 -1.767767,4.545687 1.894036,-2.777919 3.914341,-1.515229 3.914341,-1.515229 0,0 -2.146574,1.010153 -3.914341,4.671956 4.166879,-4.16688 4.671956,-2.77792 4.671956,-2.77792 0,0 -0.757616,1.010152 -1.388961,2.777919 2.65165,-1.641498 3.030459,-0.883883 5.682109,-0.126269 C 32.324882,56.477782 27.652926,45.366104 27.652926,45.366104 z"
       inkscape:connector-curvature="0"
       id="path3656"
       style="opacity:0.7;fill:#000000;stroke:none" />
    <path
       d="m 29.25,44.875 c -1.430392,0.132188 -2.09375,0.375 -2.09375,0.375 3.030458,12.500638 9.164492,22.740448 23.90625,24.125 10.325066,0.969735 22.115482,-1.206694 23.0625,-2.40625 0,0 -0.144481,-0.305435 -0.1875,-0.40625 -3.983059,1.119593 -12.899332,2.320383 -20.96875,1.5625 -14.380176,-1.350592 -20.579351,-11.167648 -23.6875,-23.25 -0.0092,8.34e-4 -0.02213,-8.42e-4 -0.03125,0 z"
       inkscape:connector-curvature="0"
       id="path3638"
       style="fill:url(#linearGradient3224);fill-opacity:1;stroke:none" />
    <path
       d="m 29.25,44.875 c -1.430392,0.132188 -2.09375,0.375 -2.09375,0.375 3.030458,12.500638 9.164492,22.740448 23.90625,24.125 10.325066,0.969735 22.115482,-1.206694 23.0625,-2.40625 0,0 -0.144481,-0.305435 -0.1875,-0.40625 -3.983059,1.119593 -12.899332,2.320383 -20.96875,1.5625 -14.380176,-1.350592 -20.579351,-11.167648 -23.6875,-23.25 -0.0092,8.34e-4 -0.02213,-8.42e-4 -0.03125,0 z"
       inkscape:connector-curvature="0"
       id="path3740"
       style="fill:url(#linearGradient3738);fill-opacity:1;stroke:none" />
    <path
       d="m 30.25,43.875 c -1.430392,0.132188 -2.09375,0.375 -2.09375,0.375 0.06133,0.252979 0.123584,0.498928 0.1875,0.75 0.25765,-0.0399 0.560364,-0.09304 0.90625,-0.125 0.0091,-8.42e-4 0.02205,8.34e-4 0.03125,0 3.108149,12.082352 9.307324,21.899408 23.6875,23.25 8.069418,0.757883 16.985691,-0.442907 20.96875,-1.5625 0.609315,-0.214689 1.042488,-0.410068 1.1875,-0.59375 0,0 -0.144481,-0.305435 -0.1875,-0.40625 -3.983059,1.119593 -12.899332,2.320383 -20.96875,1.5625 -14.380176,-1.350592 -20.579351,-11.167648 -23.6875,-23.25 -0.0092,8.34e-4 -0.02213,-8.42e-4 -0.03125,0 z"
       inkscape:connector-curvature="0"
       id="path3732"
       style="opacity:0.2;fill:#000000;fill-opacity:1;stroke:none" />
    <path
       d="m 29.25,44.875 c -1.430392,0.132188 -2.09375,0.375 -2.09375,0.375 3.030458,12.500638 9.164492,22.740448 23.90625,24.125 1.618331,0.151994 3.263317,0.205462 4.90625,0.21875 C 54.656365,69.562798 53.353133,69.496217 52.0625,69.375 37.320742,67.990448 31.186708,57.750638 28.15625,45.25 c 0,0 0.366234,-0.125942 1.15625,-0.25 -0.01079,-0.0416 -0.02053,-0.08335 -0.03125,-0.125 -0.0092,8.34e-4 -0.02213,-8.42e-4 -0.03125,0 z m 44.6875,21.6875 c -2.945845,0.828044 -8.589349,1.68962 -14.59375,1.78125 5.833345,-0.0024 11.393852,-0.761099 14.6875,-1.5625 -0.04327,-0.09263 -0.07088,-0.165146 -0.09375,-0.21875 z"
       inkscape:connector-curvature="0"
       id="path3752"
       style="fill:#000000;fill-opacity:1;stroke:none" />
    <path
       inkscape:connector-curvature="0"
       d="m 62.503188,56.477783 a 10.732871,10.732871 0 1 1 -21.465742,0 10.732871,10.732871 0 1 1 21.465742,0 z"
       transform="matrix(0.43529413,0,0,0.43529413,22.235002,29.893336)"
       id="path3736"
       style="fill:url(#radialGradient3746);fill-opacity:1;stroke:none" />
    <path
       inkscape:connector-curvature="0"
       d="m 62.503188,56.477783 a 10.732871,10.732871 0 1 1 -21.465742,0 10.732871,10.732871 0 1 1 21.465742,0 z"
       transform="matrix(0.60000001,0,0,0.60000001,30.930207,27.939463)"
       id="path3748"
       style="fill:url(#radialGradient3750);fill-opacity:1;stroke:none" />
    <path
       d="m 31.990716,44.18462 c 0,0 -11.061601,0.462842 -12.392481,-8.807785 2.094904,7.466103 14.138049,8.400527 14.138049,8.400527 0,0 -11.124958,0.137243 -10.032309,-12.308417 -0.419091,10.523565 12.112629,12.579464 12.112629,12.579464 0,0 -9.29842,-3.327135 -6.382603,-11.092421 -1.717432,7.498297 8.490027,11.155436 8.490027,11.155436 0,0 -6.535394,-4.236518 -1.638526,-10.156965 -3.345778,5.382068 3.429499,11.025002 3.429499,11.025002 0,0 -3.803875,-4.092187 0.170746,-7.805598 -2.613265,4.631256 1.574822,7.39834 1.574822,7.39834 0,0 -1.727957,-2.975462 1.418938,-7.642971 -2.409633,5.504039 0.372036,8.511008 0.372036,8.511008 0,0 -0.412006,-3.332912 1.771985,-5.481337 -1.654762,2.95785 -0.02642,5.07408 -0.02642,5.07408 0,0 -0.588187,-1.980706 1.817389,-4.206042 -1.962407,2.071514 -0.44248,5.01987 -0.44248,5.01987 0,0 0.338808,-2.600399 1.971213,-3.762873 -1.731673,2.736266 0.082,4.241952 0.082,4.241952 C 32.994271,41.353487 31.99071,44.18462 31.99071,44.18462 z"
       inkscape:connector-curvature="0"
       id="path3770"
       style="fill:#000000;stroke:none" />
    <path
       d="m 33.909988,43.691476 c 0,0 -9.597573,0.357143 -10.752308,-6.796365 1.817639,5.761081 12.266847,6.482112 12.266847,6.482112 0,0 -9.652546,0.105901 -8.704512,-9.497563 -0.363622,8.120315 10.509496,9.706711 10.509496,9.706711 0,0 -8.067753,-2.567322 -5.537851,-8.559262 -1.490126,5.785923 7.366353,8.607887 7.366353,8.607887 0,0 -5.67042,-3.269032 -1.421663,-7.837435 -2.902957,4.152973 2.975597,8.507239 2.975597,8.507239 0,0 -3.300425,-3.15766 0.148148,-6.023046 -2.267394,3.573624 1.36639,5.708793 1.36639,5.708793 0,0 -1.499258,-2.29596 1.231138,-5.897558 -2.090713,4.247091 0.322796,6.567363 0.322796,6.567363 0,0 -0.357476,-2.57178 1.53746,-4.229573 -1.435751,2.282371 -0.02293,3.915321 -0.02293,3.915321 0,0 -0.510339,-1.528376 1.576854,-3.245515 -1.702678,1.598445 -0.383917,3.87349 -0.383917,3.87349 0,0 0.293966,-2.00655 1.710318,-2.903552 -1.502481,2.11139 0.07114,3.273224 0.07114,3.273224 C 34.78072,41.506884 33.909983,43.691476 33.909983,43.691476 z"
       inkscape:connector-curvature="0"
       id="path3772"
       style="fill:#000000;stroke:none" />
    <path
       d="m 48.401455,46.443038 c 0,0 -3.715715,-2.900963 -0.700758,-6.438387 -2.093896,3.256463 1.726455,7.049416 1.726455,7.049416 0,0 -2.121426,-2.709749 0.297996,-4.895226 -1.646315,2.811965 0.733506,4.703765 0.733506,4.703765 0,0 -0.935345,-1.932064 1.024066,-4.747144 -1.549341,3.367527 0.0016,5.358174 0.0016,5.358174 0,0 -0.156435,-2.108067 1.175738,-3.376749 -1.043115,1.796446 -0.144243,3.185287 -0.144243,3.185287 0,0 -0.293823,-1.265438 1.169932,-2.574257 -1.200593,1.228544 -0.38626,3.135928 -0.38626,3.135928 0,0 0.264204,-1.620442 1.248673,-2.290309 -1.082483,1.654472 -0.0597,2.666748 -0.0597,2.666748 -5.190263,-1.318731 -5.763605,-0.54703 -6.087035,-1.777246 z"
       inkscape:connector-curvature="0"
       id="path3774"
       style="fill:#000000;stroke:none" />
    <path
       d="m 51.252975,47.893473 c 0,0 -3.881033,-2.428058 -0.731936,-5.388822 -2.187057,2.725605 1.803269,5.900243 1.803269,5.900243 0,0 -2.215812,-2.268015 0.311254,-4.097222 -1.719563,2.353567 0.766141,3.936972 0.766141,3.936972 0,0 -0.97696,-1.617105 1.069629,-3.97328 -1.618274,2.818564 0.0017,4.484702 0.0017,4.484702 0,0 -0.163395,-1.764417 1.228049,-2.826282 -1.089525,1.503595 -0.150661,2.666032 -0.150661,2.666032 0,0 -0.306896,-1.059151 1.221985,-2.15461 -1.25401,1.02827 -0.403446,2.624719 -0.403446,2.624719 0,0 0.275959,-1.356283 1.304229,-1.91695 -1.130645,1.384765 -0.06236,2.232023 -0.06236,2.232023 -5.421188,-1.103756 -6.020039,-0.457855 -6.357859,-1.487525 z"
       inkscape:connector-curvature="0"
       id="path3776"
       style="fill:#000000;stroke:none" />
  </g>
  <g
     transform="matrix(1.2676407,0,0,1.2676407,0.3229154,-7.4427132)"
     id="layer4" />
  <path
     d="m -34.795137,-6.7222392 166.287617,0 0,160.0401192 -166.287617,0 0,-160.0401192 z"
     id="path4"
     style="fill:none"
     inkscape:export-filename="/home/klaus/Bilder/dvb/dvb-settings64.png"
     inkscape:export-xdpi="23.900415"
     inkscape:export-ydpi="23.900415"
     inkscape:connector-curvature="0" />
  <g
     transform="matrix(2.3970371,0,0,2.2692969,-14.570674,131.43869)"
     style="display:inline"
     inkscape:label="base"
     id="g2637" />
  <path
     sodipodi:type="arc"
     style="opacity:0.5;color:#000000;fill:url(#radialGradient4591);fill-opacity:1;fill-rule:nonzero;stroke:none;stroke-width:2;marker:none;visibility:visible;display:inline;overflow:visible"
     id="path1425"
     sodipodi:cx="17.5"
     sodipodi:cy="18.25"
     sodipodi:rx="13.5"
     sodipodi:ry="13.75"
     d="m 31,18.25 a 13.5,13.75 0 1 1 -27,0 13.5,13.75 0 1 1 27,0 z"
     transform="matrix(2.8409325,0,0,2.6406379,15.238645,23.69927)" />
  <path
     inkscape:connector-curvature="0"
     style="opacity:0.5;color:#000000;fill:url(#radialGradient4585);fill-opacity:1;fill-rule:nonzero;stroke:none;stroke-width:2;marker:none;visibility:visible;display:inline;overflow:visible"
     d="m 62.530053,36.8971 c -20.41355,0.735336 -36.743838,16.677852 -36.743838,36.18249 0,5.484725 3.363313,10.715175 5.971738,15.231262 -1.131563,-12.318162 4.474375,-15.007287 8.196812,-13.913225 11.293638,3.319238 30.891432,6.336325 51.026032,-3.616062 7.05847,-3.488963 11.174663,5.059337 10.892623,-2.62385 C 99.621547,50.469477 83.344407,36.8971 64.00544,36.8971 c -0.49445,0 -0.985462,-0.01702 -1.475387,0 z"
     id="path4939"
     sodipodi:nodetypes="cscsscsc" />
  <path
     transform="matrix(3.8352594,0,0,3.630875,-136.18405,52.6941)"
     d="m 62.5,4.5 a 10,10 0 1 1 -20,0 10,10 0 1 1 20,0 z"
     sodipodi:ry="10"
     sodipodi:rx="10"
     sodipodi:cy="4.5"
     sodipodi:cx="52.5"
     id="path2607"
     style="color:#000000;fill:none;stroke:url(#radialGradient4593);stroke-width:1.87499988;stroke-linecap:round;stroke-linejoin:miter;stroke-miterlimit:4;stroke-opacity:1;stroke-dasharray:none;stroke-dashoffset:0;marker:none;visibility:visible;display:inline;overflow:visible"
     sodipodi:type="arc" />
  <g
     style="display:inline"
     transform="matrix(3.70115,0,0,3.4856764,-190.30328,-77.212133)"
     id="g2708">
    <path
       inkscape:connector-curvature="0"
       style="color:#000000;fill:url(#linearGradient4595);fill-opacity:1;fill-rule:nonzero;stroke:url(#linearGradient4597);stroke-width:0.67653471;stroke-linecap:round;stroke-linejoin:round;stroke-miterlimit:4;stroke-opacity:1;stroke-dashoffset:0;marker:none;visibility:visible;display:inline;overflow:visible"
       d="m 76.796351,49.768459 0.647647,3.255175 5.181173,5.213494 c 0.192503,0.193704 0.97147,0.320302 1.942939,-0.65625 0.97147,-0.976552 0.895574,-1.70388 0.647647,-1.953105 l -5.181173,-5.208279 -3.238233,-0.651035 z"
       id="path2682"
       sodipodi:nodetypes="cczzzcc" />
    <path
       inkscape:connector-curvature="0"
       style="opacity:0.19215686;color:#000000;fill:#ffffff;fill-opacity:1;fill-rule:nonzero;stroke:none;stroke-width:0.99999964;marker:none;visibility:visible;display:inline;overflow:visible"
       d="m 79.567301,51.320041 c -0.003,0.0112 0.294101,0.324318 -0.245291,0.864982 -0.539399,0.540663 -1.007144,0.373988 -0.993486,0.360259 l -0.269149,-1.521577 1.507926,0.296336 z"
       id="path2687"
       sodipodi:nodetypes="csccc" />
  </g>
  <path
     inkscape:connector-curvature="0"
     sodipodi:nodetypes="cczzzcc"
     id="path17267"
     d="m 97.010867,99.166105 1.4923,7.264525 17.976833,17.13041 c 0.88412,0.84249 2.23847,0.49449 4.47695,-1.6247 2.23846,-2.11915 2.81561,-3.17994 1.70417,-4.23834 L 104.6843,100.57888 97.010867,99.166105 z"
     style="color:#000000;fill:none;stroke:url(#linearGradient4587);stroke-width:2.33229113;stroke-linecap:round;stroke-linejoin:miter;stroke-miterlimit:4;stroke-opacity:1;stroke-dasharray:none;stroke-dashoffset:0;marker:none;visibility:visible;display:inline;overflow:visible" />
  <path
     inkscape:connector-curvature="0"
     style="opacity:0.15294118;color:#000000;fill:url(#linearGradient4589);fill-opacity:1;fill-rule:nonzero;stroke:none;stroke-width:0.67653471;marker:none;visibility:visible;display:inline;overflow:visible"
     d="m 93.528667,95.110981 c -0.62285,0.19856 -0.97644,0.81703 -0.80964,1.41605 l 2.42887,11.328469 c 0.0605,0.20791 0.18067,0.39639 0.347,0.54463 l 19.084033,18.19085 c 0.85529,0.81051 2.14647,1.04742 3.70115,0.76251 1.55473,-0.28491 3.38558,-1.21824 5.3204,-3.04996 1.91889,-1.81663 2.90788,-3.4419 3.23852,-4.90174 0.33065,-1.45984 0.0335,-2.79631 -0.80963,-3.59463 l -19.1997,-18.081915 c -0.18876,-0.175304 -0.43176,-0.289834 -0.69397,-0.326784 l -11.913093,-2.28748 c -0.22683,-0.0615 -0.46725,-0.0615 -0.69394,0 z"
     id="path19908"
     sodipodi:nodetypes="cccccsssccccc" />
  <path
     transform="matrix(3.9551113,0,0,3.7443399,-142.47627,52.18351)"
     d="m 62.5,4.5 a 10,10 0 1 1 -20,0 10,10 0 1 1 20,0 z"
     sodipodi:ry="10"
     sodipodi:rx="10"
     sodipodi:cy="4.5"
     sodipodi:cx="52.5"
     id="path2605"
     style="color:#000000;fill:none;stroke:url(#radialGradient4599);stroke-width:0.60606074;stroke-linecap:round;stroke-linejoin:miter;stroke-miterlimit:4;stroke-opacity:1;stroke-dasharray:none;stroke-dashoffset:0;marker:none;visibility:visible;display:inline;overflow:visible"
     sodipodi:type="arc" />
  <path
     transform="matrix(4.194815,0,0,3.9712696,-155.06071,51.16233)"
     d="m 62.5,4.5 a 10,10 0 1 1 -20,0 10,10 0 1 1 20,0 z"
     sodipodi:ry="10"
     sodipodi:rx="10"
     sodipodi:cy="4.5"
     sodipodi:cx="52.5"
     id="path2599"
     style="color:#000000;fill:none;stroke:url(#linearGradient4601);stroke-width:0.57142824;stroke-linecap:round;stroke-linejoin:miter;stroke-miterlimit:4;stroke-opacity:1;stroke-dasharray:none;stroke-dashoffset:0;marker:none;visibility:visible;display:inline;overflow:visible"
     sodipodi:type="arc" />
  <path
     transform="matrix(3.4833073,0,0,3.2976855,-117.70658,54.19343)"
     d="m 62.5,4.5 a 10,10 0 1 1 -20,0 10,10 0 1 1 20,0 z"
     sodipodi:ry="10"
     sodipodi:rx="10"
     sodipodi:cy="4.5"
     sodipodi:cx="52.5"
     id="path4927"
     style="color:#000000;fill:none;stroke:url(#linearGradient4603);stroke-width:0.68814939;stroke-linecap:round;stroke-linejoin:miter;stroke-miterlimit:4;stroke-opacity:1;stroke-dasharray:none;stroke-dashoffset:0;marker:none;visibility:visible;display:inline;overflow:visible"
     sodipodi:type="arc" />
  <path
     sodipodi:type="arc"
     style="opacity:0.16078431;color:#000000;fill:url(#radialGradient4605);fill-opacity:1;fill-rule:nonzero;stroke:none;stroke-width:1;marker:none;visibility:visible;display:inline;overflow:visible"
     id="path11092"
     sodipodi:cx="12.375"
     sodipodi:cy="12.9375"
     sodipodi:rx="9.8125"
     sodipodi:ry="9.8125"
     d="m 22.1875,12.9375 a 9.8125,9.8125 0 1 1 -19.625,0 9.8125,9.8125 0 1 1 19.625,0 z"
     transform="matrix(3.1756955,0,0,3.0064599,23.110525,29.52456)" />
</svg>
