<?xml version="1.0" encoding="UTF-8" standalone="no"?>
<!-- Created with Inkscape (http://www.inkscape.org/) -->

<svg
   xmlns:dc="http://purl.org/dc/elements/1.1/"
   xmlns:cc="http://creativecommons.org/ns#"
   xmlns:rdf="http://www.w3.org/1999/02/22-rdf-syntax-ns#"
   xmlns:svg="http://www.w3.org/2000/svg"
   xmlns="http://www.w3.org/2000/svg"
   xmlns:xlink="http://www.w3.org/1999/xlink"
   xmlns:sodipodi="http://sodipodi.sourceforge.net/DTD/sodipodi-0.dtd"
   xmlns:inkscape="http://www.inkscape.org/namespaces/inkscape"
   width="128"
   height="128"
   id="svg3241"
   version="1.1"
   inkscape:version="0.48.1 r9760"
   sodipodi:docname="5.svg">
  <defs
     id="defs3243">
    <linearGradient
       inkscape:collect="always"
       xlink:href="#linearGradient3882-4"
       id="linearGradient3892-8"
       x1="23.184526"
       y1="4.0244036"
       x2="23.184526"
       y2="42.351448"
       gradientUnits="userSpaceOnUse"
       gradientTransform="matrix(2.6666687,0,0,2.7991166,-0.8424704,-82.11987)" />
    <linearGradient
       id="linearGradient3882-4">
      <stop
         offset="0"
         style="stop-color:#ffffff;stop-opacity:1;"
         id="stop3884-7" />
      <stop
         id="stop3886-2"
         style="stop-color:#ffffff;stop-opacity:0.23529412;"
         offset="0.4393521" />
      <stop
         offset="0.83473867"
         style="stop-color:#ffffff;stop-opacity:0.15686275;"
         id="stop3888-4" />
      <stop
         offset="1"
         style="stop-color:#ffffff;stop-opacity:0.39215687;"
         id="stop3890-0" />
    </linearGradient>
    <linearGradient
       inkscape:collect="always"
       xlink:href="#linearGradient3922"
       id="linearGradient3939"
       gradientUnits="userSpaceOnUse"
       x1="22.642942"
       y1="26.966721"
       x2="22.642942"
       y2="30.98424"
       gradientTransform="matrix(3.0985994,0,0,3.10044,-10.990312,-92.197275)" />
    <linearGradient
       inkscape:collect="always"
       id="linearGradient3922">
      <stop
         style="stop-color:#000000;stop-opacity:1;"
         offset="0"
         id="stop3924" />
      <stop
         style="stop-color:#000000;stop-opacity:0;"
         offset="1"
         id="stop3926" />
    </linearGradient>
    <linearGradient
       inkscape:collect="always"
       xlink:href="#linearGradient3922"
       id="linearGradient3180"
       gradientUnits="userSpaceOnUse"
       gradientTransform="matrix(2.6666687,0,0,2.6666687,-0.8424704,-79.157631)"
       x1="21.493771"
       y1="8.049592"
       x2="21.493771"
       y2="23.482838" />
    <linearGradient
       inkscape:collect="always"
       xlink:href="#linearGradient3707-319-631-407-324-3-8-1"
       id="linearGradient3900-6"
       x1="25.845604"
       y1="43.546593"
       x2="25.845604"
       y2="2.8090379"
       gradientUnits="userSpaceOnUse"
       gradientTransform="matrix(2.6666688,0,0,2.5946916,14,-77.852552)" />
    <linearGradient
       id="linearGradient3707-319-631-407-324-3-8-1">
      <stop
         id="stop3760-7-3-3"
         style="stop-color:#185f9a;stop-opacity:1;"
         offset="0" />
      <stop
         id="stop3762-8-4-2"
         style="stop-color:#599ec9;stop-opacity:1;"
         offset="1" />
    </linearGradient>
    <radialGradient
       inkscape:collect="always"
       xlink:href="#linearGradient3725-941-985"
       id="radialGradient3125"
       gradientUnits="userSpaceOnUse"
       gradientTransform="matrix(0.8727907,-0.60614934,0.32165836,0.46315389,-67.838943,65.212175)"
       cx="88.940742"
       cy="28.628538"
       fx="88.940742"
       fy="28.628538"
       r="23" />
    <linearGradient
       id="linearGradient3725-941-985">
      <stop
         id="stop4651"
         style="stop-color:#54e1fa;stop-opacity:1"
         offset="0" />
      <stop
         id="stop4653"
         style="stop-color:#05a4dd;stop-opacity:0"
         offset="1" />
    </linearGradient>
    <radialGradient
       inkscape:collect="always"
       xlink:href="#linearGradient2867-449-88-871-390-598-476-591-434-148-57-177-3-8"
       id="radialGradient2897"
       gradientUnits="userSpaceOnUse"
       gradientTransform="matrix(0,4.7598855,-4.0013267,0,80.579965,-169.25269)"
       cx="20.248743"
       cy="4.9115634"
       fx="20.248743"
       fy="4.9115634"
       r="23" />
    <linearGradient
       id="linearGradient2867-449-88-871-390-598-476-591-434-148-57-177-3-8">
      <stop
         id="stop3750-8-9"
         style="stop-color:#90dbec;stop-opacity:1;"
         offset="0" />
      <stop
         id="stop3752-3-2"
         style="stop-color:#55c1ec;stop-opacity:1;"
         offset="0.26238" />
      <stop
         id="stop3754-7-2"
         style="stop-color:#3689e6;stop-opacity:1;"
         offset="0.704952" />
      <stop
         id="stop3756-9-3"
         style="stop-color:#2b63a0;stop-opacity:1;"
         offset="1" />
    </linearGradient>
    <linearGradient
       inkscape:collect="always"
       xlink:href="#linearGradient3707-319-631-407-324-3-8"
       id="linearGradient2899"
       gradientUnits="userSpaceOnUse"
       x1="18.138792"
       y1="45.21809"
       x2="18.138792"
       y2="2.9999995"
       gradientTransform="matrix(2.6887109,0,0,2.6886487,-0.5290558,-80.906262)" />
    <linearGradient
       id="linearGradient3707-319-631-407-324-3-8">
      <stop
         id="stop3760-7-3"
         style="stop-color:#185f9a;stop-opacity:1;"
         offset="0" />
      <stop
         id="stop3762-8-4"
         style="stop-color:#599ec9;stop-opacity:1;"
         offset="1" />
    </linearGradient>
    <linearGradient
       id="linearGradient8838-561-565">
      <stop
         id="stop4621"
         style="stop-color:#0a0a0a;stop-opacity:1"
         offset="0" />
      <stop
         id="stop4623"
         style="stop-color:#0a0a0a;stop-opacity:0"
         offset="1" />
    </linearGradient>
    <radialGradient
       r="10.625"
       fy="4.625"
       fx="62.625"
       cy="4.625"
       cx="62.625"
       gradientTransform="matrix(5.7725537,0,0,2.0078422,-297.50613,17.380364)"
       gradientUnits="userSpaceOnUse"
       id="radialGradient3239"
       xlink:href="#linearGradient8838-561-565"
       inkscape:collect="always" />
    <radialGradient
       cx="62.625"
       cy="4.625"
       r="10.625"
       fx="62.625"
       fy="4.625"
       id="radialGradient3765"
       xlink:href="#linearGradient8838"
       gradientUnits="userSpaceOnUse"
       gradientTransform="matrix(2.1647059,0,0,0.7529402,-111.56471,36.517647)" />
    <linearGradient
       id="linearGradient8838">
      <stop
         id="stop8840"
         style="stop-color:#000000;stop-opacity:1"
         offset="0" />
      <stop
         id="stop8842"
         style="stop-color:#000000;stop-opacity:0"
         offset="1" />
    </linearGradient>
    <radialGradient
       cx="20.248743"
       cy="4.9115634"
       r="23"
       fx="20.248743"
       fy="4.9115634"
       id="radialGradient2939"
       xlink:href="#linearGradient3671"
       gradientUnits="userSpaceOnUse"
       gradientTransform="matrix(0.02752373,1.6045792,-1.4879811,0.0249604,29.608137,-29.624717)" />
    <linearGradient
       id="linearGradient3671">
      <stop
         id="stop3673"
         style="stop-color:#84dbe3;stop-opacity:1;"
         offset="0" />
      <stop
         id="stop3675"
         style="stop-color:#67b7c4;stop-opacity:1;"
         offset="0.26238" />
      <stop
         id="stop3677"
         style="stop-color:#39769a;stop-opacity:1;"
         offset="0.704952" />
      <stop
         id="stop3679"
         style="stop-color:#397c9a;stop-opacity:1;"
         offset="1" />
    </linearGradient>
    <linearGradient
       x1="18.138792"
       y1="45.21809"
       x2="18.138792"
       y2="2.9999995"
       id="linearGradient2941"
       xlink:href="#linearGradient3707"
       gradientUnits="userSpaceOnUse" />
    <linearGradient
       id="linearGradient3707">
      <stop
         id="stop3709"
         style="stop-color:#2a464e;stop-opacity:1;"
         offset="0" />
      <stop
         id="stop3711"
         style="stop-color:#53a0a8;stop-opacity:1;"
         offset="1" />
    </linearGradient>
    <radialGradient
       cx="24.016491"
       cy="2.2461414"
       r="21.995602"
       fx="24.016491"
       fy="2.2461414"
       id="radialGradient2936"
       xlink:href="#linearGradient4593"
       gradientUnits="userSpaceOnUse"
       gradientTransform="matrix(-1.4868718e-8,1.4132436,-1.2268499,-1.2907672e-8,26.77217,-29.044021)" />
    <linearGradient
       id="linearGradient4593">
      <stop
         id="stop12409"
         style="stop-color:#ffffff;stop-opacity:0.70200002"
         offset="0" />
      <stop
         id="stop12411"
         style="stop-color:#ffffff;stop-opacity:0"
         offset="1" />
    </linearGradient>
    <radialGradient
       cx="90.746872"
       cy="32.164093"
       r="23"
       fx="90.746872"
       fy="32.164093"
       id="radialGradient2917"
       xlink:href="#linearGradient3718"
       gradientUnits="userSpaceOnUse"
       gradientTransform="matrix(0.32729625,-0.22730582,0.12062179,0.17368257,-25.12377,54.473017)" />
    <linearGradient
       id="linearGradient3718">
      <stop
         id="stop3720"
         style="stop-color:#9ff1f4;stop-opacity:1;"
         offset="0" />
      <stop
         id="stop3722"
         style="stop-color:#46959c;stop-opacity:0;"
         offset="1" />
    </linearGradient>
    <radialGradient
       r="23"
       fy="32.164093"
       fx="90.746872"
       cy="32.164093"
       cx="90.746872"
       gradientTransform="matrix(0.32729625,-0.22730582,0.12062179,0.17368257,-25.12377,54.473017)"
       gradientUnits="userSpaceOnUse"
       id="radialGradient3242"
       xlink:href="#linearGradient3718"
       inkscape:collect="always" />
    <linearGradient
       x1="49.767765"
       y1="59.788071"
       x2="49.767765"
       y2="28.564911"
       id="linearGradient3760"
       xlink:href="#linearGradient3754"
       gradientUnits="userSpaceOnUse"
       gradientTransform="translate(1,-1)" />
    <linearGradient
       id="linearGradient3754">
      <stop
         id="stop3756"
         style="stop-color:#6bd9f7;stop-opacity:1"
         offset="0" />
      <stop
         id="stop3758"
         style="stop-color:#a5e8fa;stop-opacity:1"
         offset="1" />
    </linearGradient>
    <linearGradient
       gradientTransform="translate(1,-1)"
       x1="41"
       y1="29"
       x2="41"
       y2="32"
       id="linearGradient3782"
       xlink:href="#linearGradient3774"
       gradientUnits="userSpaceOnUse" />
    <linearGradient
       id="linearGradient3774">
      <stop
         id="stop3776"
         style="stop-color:#ffffff;stop-opacity:1"
         offset="0" />
      <stop
         id="stop3778"
         style="stop-color:#ffffff;stop-opacity:0"
         offset="1" />
    </linearGradient>
    <radialGradient
       cx="51.012329"
       cy="32.414516"
       r="5.9876709"
       fx="51.012329"
       fy="32.414516"
       id="radialGradient3794"
       xlink:href="#linearGradient3737"
       gradientUnits="userSpaceOnUse"
       gradientTransform="matrix(1,0,0,0.24820503,1,27.954504)" />
    <linearGradient
       id="linearGradient3737">
      <stop
         id="stop3739"
         style="stop-color:#ffffff;stop-opacity:1"
         offset="0" />
      <stop
         id="stop3741"
         style="stop-color:#ffffff;stop-opacity:0"
         offset="1" />
    </linearGradient>
    <linearGradient
       inkscape:collect="always"
       xlink:href="#linearGradient3754"
       id="linearGradient4263"
       gradientUnits="userSpaceOnUse"
       gradientTransform="matrix(0.37585694,0,0,0.37168634,0.20672336,0.03657542)"
       x1="49.461533"
       y1="49.223083"
       x2="49.767765"
       y2="28.564911" />
    <linearGradient
       inkscape:collect="always"
       xlink:href="#linearGradient3774"
       id="linearGradient4265"
       gradientUnits="userSpaceOnUse"
       gradientTransform="matrix(0.37585694,0,0,0.37168634,0.20672336,0.03657542)"
       x1="41"
       y1="29"
       x2="41"
       y2="32" />
    <radialGradient
       inkscape:collect="always"
       xlink:href="#linearGradient3737"
       id="radialGradient4267"
       gradientUnits="userSpaceOnUse"
       gradientTransform="matrix(0.37585694,0,0,0.09225443,0.20672336,10.798568)"
       cx="51.012329"
       cy="32.414516"
       fx="51.012329"
       fy="32.414516"
       r="5.9876709" />
  </defs>
  <sodipodi:namedview
     id="base"
     pagecolor="#ffffff"
     bordercolor="#666666"
     borderopacity="1.0"
     inkscape:pageopacity="0.0"
     inkscape:pageshadow="2"
     inkscape:zoom="6.5310069"
     inkscape:cx="66.229441"
     inkscape:cy="65.031447"
     inkscape:current-layer="layer1-5"
     showgrid="true"
     inkscape:grid-bbox="true"
     inkscape:document-units="px"
     inkscape:window-width="1920"
     inkscape:window-height="1027"
     inkscape:window-x="0"
     inkscape:window-y="24"
     inkscape:window-maximized="1" />
  <metadata
     id="metadata3246">
    <rdf:RDF>
      <cc:Work
         rdf:about="">
        <dc:format>image/svg+xml</dc:format>
        <dc:type
           rdf:resource="http://purl.org/dc/dcmitype/StillImage" />
        <dc:title></dc:title>
      </cc:Work>
    </rdf:RDF>
  </metadata>
  <g
     id="layer1"
     inkscape:label="Layer 1"
     inkscape:groupmode="layer"
     transform="translate(0,80)">
    <path
       inkscape:connector-curvature="0"
       style="opacity:0.3;fill:url(#radialGradient3239);fill-opacity:1;fill-rule:evenodd;stroke:none;stroke-width:0.99999988;marker:none;visibility:visible;display:inline;overflow:visible"
       id="path8836"
       d="M 125.33343,26.666646 C 125.33343,38.44873 97.873533,48 64.000043,48 30.126554,48 2.6666602,38.44873 2.6666602,26.666646 c 0,-11.782085 27.4598938,-21.333351 61.3333828,-21.333351 33.87349,0 61.333387,9.551266 61.333387,21.333351 l 0,0 z" />
    <path
       inkscape:connector-curvature="0"
       style="fill:url(#radialGradient2897);fill-opacity:1;fill-rule:evenodd;stroke:url(#linearGradient2899);stroke-width:0.99525023;stroke-linecap:butt;stroke-linejoin:round;stroke-miterlimit:4;stroke-opacity:1;stroke-dasharray:none;stroke-dashoffset:0;marker:none;visibility:visible;display:inline;overflow:visible"
       id="path6145"
       d="M 55.430223,-70.73418 C 24.461704,-66.168552 1.5468793,-44.83185 3.6289414,-21.729854 4.977166,-6.770367 16.459282,5.542571 32.879161,12.039045 l -5.52885,21.542995 c 0,0 -0.589968,2.01686 0.256853,2.72934 0.846814,0.71249 2.886375,-0.79786 2.886375,-0.79786 l 25.852825,-18.696923 0.209612,-0.01909 c 3.741842,0.178849 7.501044,0.238134 11.402026,-0.117762 33.288328,-3.036977 58.597428,-25.186937 56.412948,-49.425084 -2.18444,-24.238158 -31.04072,-41.446518 -64.329052,-38.409571 -1.560388,0.142357 -3.088628,0.196191 -4.611675,0.42073 z"
       sodipodi:nodetypes="sscczcccssss" />
    <path
       transform="translate(0.8424704,-0.84247399)"
       sodipodi:type="inkscape:offset"
       inkscape:radius="1.0854453"
       inkscape:original="M 71.25 -68.5625 C 67.369654 -68.784101 63.388318 -68.684351 59.3125 -68.3125 C 57.720808 -68.167283 56.23482 -68.115943 54.8125 -67.90625 C 39.679434 -65.675159 26.567738 -59.335265 17.5 -50.8125 C 8.4322626 -42.289736 3.4120997 -31.593577 4.40625 -20.5625 C 5.6936918 -6.2771118 16.768234 5.6142174 32.75 11.9375 A 1.2000395 1.2000395 0 0 1 33.5 13.34375 L 27.5 36.59375 L 54.90625 16.75 A 1.2000395 1.2000395 0 0 1 55.5625 16.59375 L 55.75 16.59375 A 1.2000395 1.2000395 0 0 1 55.8125 16.59375 C 59.487048 16.769377 63.202746 16.783927 67 16.4375 C 83.272564 14.952881 97.573928 8.771805 107.5 0.09375 C 117.42609 -8.584305 122.94934 -19.738425 121.90625 -31.3125 C 120.99362 -41.439041 115.18587 -50.308601 106.15625 -56.90625 C 97.126641 -63.503896 84.854473 -67.785566 71.25 -68.5625 z "
       style="fill:url(#radialGradient3125);fill-opacity:1;fill-rule:evenodd;stroke:none;stroke-width:0.99525028;marker:none;visibility:visible;display:inline;overflow:visible"
       id="path3123"
       d="m 71.3125,-69.65625 c -3.941052,-0.225068 -7.971731,-0.126066 -12.09375,0.25 -1.55387,0.141766 -3.057548,0.215625 -4.5625,0.4375 -15.337102,2.261172 -28.653766,8.678592 -37.90625,17.375 -9.2522962,8.696231 -14.4666017,19.706103 -13.4375,31.125 1.3325561,14.7859747 12.776104,26.9748029 29.03125,33.40625 l 0.40625,-1 0.375,-1.03125 c -0.01082,-0.004 0.197908,0.09872 0.1875,0.09375 -0.01041,-0.005 0.197414,0.09964 0.1875,0.09375 -0.0099,-0.0059 0.19684,0.131766 0.1875,0.125 -0.0093,-0.0068 0.164938,0.132585 0.15625,0.125 -0.0087,-0.0076 0.164214,0.164591 0.15625,0.15625 -0.008,-0.0083 0.132175,0.165279 0.125,0.15625 -0.0072,-0.009 0.131327,0.165892 0.125,0.15625 -0.0063,-0.0096 0.09918,0.197676 0.09375,0.1875 -0.0054,-0.01018 0.09823,0.198126 0.09375,0.1875 -0.0045,-0.01063 0.066,0.198489 0.0625,0.1875 -0.0035,-0.01099 0.06499,0.198761 0.0625,0.1875 -0.0025,-0.01126 0.03271,0.23019 0.03125,0.21875 -0.0015,-0.01144 0.03167,0.199025 0.03125,0.1875 -4.16e-4,-0.01153 -6.31e-4,0.230266 0,0.21875 2.77e-4,-0.0051 -0.02649,0.04659 -0.03125,0.09375 A 1.0855538,1.0855538 0 0 0 32.4375,13.0625 l -6,23.25 a 1.0855538,1.0855538 0 0 0 1.6875,1.15625 L 55.5,17.65625 a 1.0855538,1.0855538 0 0 0 0.03125,0 1.0855538,1.0855538 0 0 0 0.03125,0 l 0,0.03125 0.1875,0 c 3.706547,0.177156 7.479956,0.196247 11.34375,-0.15625 16.48673,-1.504158 31.002262,-7.7750061 41.125,-16.625 10.12285,-8.8500797 15.86068,-20.335176 14.78125,-32.3125 -0.9445,-10.480119 -6.99398,-19.634761 -16.21875,-26.375 -9.227257,-6.742061 -21.674739,-11.087242 -35.46875,-11.875 z M 55.46875,15.5 c 0.05208,0 0.15625,0.02083 0.15625,0.03125 a 1.0855538,1.0855538 0 0 0 -0.4375,0.1875 1.0855538,1.0855538 0 0 0 -0.75,0.0625 c 0.04628,-0.0242 0.07627,-0.06911 0.0625,-0.0625 -0.02459,0.0118 0.181622,-0.07252 0.15625,-0.0625 -0.02537,0.01002 0.182271,-0.03944 0.15625,-0.03125 -0.02602,0.0082 0.182788,-0.06882 0.15625,-0.0625 -0.02654,0.0063 0.18317,-0.03566 0.15625,-0.03125 -0.02692,0.0044 0.183416,-0.0025 0.15625,0 -0.02717,0.0025 0.214774,-0.0318 0.1875,-0.03125 z" />
    <path
       inkscape:connector-curvature="0"
       style="font-size:62.4582634px;font-style:normal;font-variant:normal;font-weight:normal;font-stretch:normal;text-align:start;line-height:125%;writing-mode:lr-tb;text-anchor:start;color:#000000;fill:url(#linearGradient3900-6);fill-opacity:1;fill-rule:nonzero;stroke:none;marker:none;visibility:visible;display:inline;overflow:visible;enable-background:accumulate;font-family:Georgia"
       id="path3393-7"
       d="m 61.799643,-59.949094 c -2.822294,-0.415552 -5.718954,1.780743 -5.797065,4.111871 9.66e-4,0.02795 9.66e-4,0.05597 0,0.08393 -0.01489,0.190039 0.03769,0.450964 0.08165,0.839156 0.0044,0.03848 -0.0044,0.04278 0,0.08393 2.549464,12.36733 3.418213,24.778697 5.960363,36.922936 1.541286,-0.169335 3.936059,-0.494065 5.552118,-0.671326 -0.3502,-11.984241 -1.411094,-23.88986 -1.551326,-35.999862 -9.67e-4,-0.02795 -9.67e-4,-0.05597 0,-0.08393 0.230498,-2.358047 -1.313711,-5.020989 -4.16409,-5.286692 -0.0272,9.84e-4 -0.05446,9.84e-4 -0.08166,0 l 0,0 z m 5.307174,50.936867 c -1.609212,-0.170329 -3.200512,0.26925 -4.24574,1.510483 9.68e-4,0.02795 9.68e-4,0.05596 0,0.08392 -1.121603,1.198089 -1.766051,2.920988 -1.551327,4.531451 9.67e-4,0.02795 9.67e-4,0.05596 0,0.08392 0.260022,3.49938601 4.422416,5.812059 7.430043,4.363619 0.0272,-0.001 0.05446,-0.001 0.08165,0 2.929481,-1.13828099 4.16189,-5.46892 2.286168,-8.139828 -0.02858,-0.02658 -0.05584,-0.05454 -0.08165,-0.08392 C 70.16587,-8.053444 68.7025,-8.843318 67.106818,-9.012223 z" />
    <path
       inkscape:connector-curvature="0"
       style="font-size:62.4582634px;font-style:normal;font-variant:normal;font-weight:normal;font-stretch:normal;text-align:start;line-height:125%;writing-mode:lr-tb;text-anchor:start;fill:#ffffff;fill-opacity:1;stroke:none;font-family:Georgia"
       id="path3393"
       d="m 61.799643,-58.949088 c -2.822294,-0.415552 -5.718954,1.780743 -5.797065,4.111871 9.66e-4,0.02795 9.66e-4,0.05597 0,0.08393 -0.01489,0.190039 0.03769,0.450964 0.08165,0.839156 0.0044,0.03848 -0.0044,0.04278 0,0.08393 2.549464,12.36733 3.418213,24.778697 5.960363,36.922936 1.541286,-0.169335 3.936059,-0.494065 5.552117,-0.671326 -0.3502,-11.984241 -1.411094,-23.88986 -1.551326,-35.999862 -9.67e-4,-0.02795 -9.67e-4,-0.05597 0,-0.08393 0.230498,-2.358047 -1.31371,-5.020989 -4.164089,-5.286692 -0.0272,9.84e-4 -0.05446,9.84e-4 -0.08166,0 l 0,0 z m 5.307173,50.936867 c -1.609211,-0.170329 -3.200511,0.26925 -4.245739,1.510483 9.68e-4,0.02795 9.68e-4,0.05596 0,0.08392 -1.121603,1.198089 -1.766051,2.920989 -1.551327,4.531452 9.67e-4,0.02795 9.67e-4,0.05596 0,0.08392 0.260022,3.499386 4.422416,5.812059 7.430042,4.36362 0.0272,-10e-4 0.05446,-10e-4 0.08165,0 2.929481,-1.138282 4.16189,-5.468921 2.286168,-8.139829 -0.02858,-0.02658 -0.05584,-0.05454 -0.08165,-0.08392 -0.860091,-1.390862 -2.323461,-2.180736 -3.919143,-2.349641 z" />
    <path
       transform="translate(0.8424704,-0.84247399)"
       sodipodi:type="inkscape:offset"
       inkscape:radius="0.61600173"
       inkscape:original="M 60.75 -56.8125 C 58.848313 -57.049654 56.179211 -55.797115 56.1875 -53.65625 C 57.451868 -47.069103 58.513892 -40.429748 59.4375 -33.78125 C 60.227954 -28.359491 61.047331 -22.930086 62.15625 -17.5625 C 63.877965 -17.773541 66.352204 -17.31663 65.5 -19.78125 C 65.043314 -31.124275 64.161952 -42.461807 64.03125 -53.8125 C 63.796693 -55.42523 62.424923 -56.81867 60.75 -56.8125 z "
       style="font-size:62.4582634px;font-style:normal;font-variant:normal;font-weight:normal;font-stretch:normal;text-align:start;line-height:125%;writing-mode:lr-tb;text-anchor:start;opacity:0.07000002;fill:#ffffff;fill-opacity:1;stroke:url(#linearGradient3180);stroke-width:0.99999994;stroke-opacity:1;font-family:Georgia"
       id="path3178"
       d="m 60.75,-57.4375 c -1.102357,-0.121912 -2.301942,0.165157 -3.3125,0.78125 -1.029172,0.627441 -1.880137,1.67311 -1.875,3 a 0.61606333,0.61606333 0 0 0 0.03125,0.125 c 1.261961,6.574607 2.296307,13.203636 3.21875,19.84375 0.790752,5.4238 1.636593,10.86069 2.75,16.25 a 0.61606333,0.61606333 0 0 0 0.65625,0.5 c 0.772201,-0.09465 1.835063,-0.03543 2.75,-0.3125 0.457468,-0.138533 0.925007,-0.395512 1.15625,-0.90625 0.212572,-0.4695 0.192567,-1.028892 0,-1.65625 -0.457304,-11.358371 -1.338361,-22.676466 -1.46875,-34 a 0.61606333,0.61606333 0 0 0 0,-0.09375 c -0.273563,-1.880918 -1.85646,-3.50407 -3.84375,-3.53125 -0.02146,-2.94e-4 -0.04094,-7.9e-5 -0.0625,0 z" />
    <path
       inkscape:connector-curvature="0"
       style="font-size:62.4582634px;font-style:normal;font-variant:normal;font-weight:normal;font-stretch:normal;text-align:start;line-height:125%;writing-mode:lr-tb;text-anchor:start;opacity:0.1;fill:#ffffff;fill-opacity:1;stroke:url(#linearGradient3939);stroke-width:1;stroke-opacity:1;font-family:Georgia"
       d="M 66.958832,-7.419617 C 62.708387,-8.266146 59.723503,-2.214149 62.703305,0.76511701 64.850781,3.247192 69.551581,3.161462 70.885536,-0.11230799 72.52316,-2.954959 70.712231,-6.747516 67.52499,-7.33199 l -0.566158,-0.08762 z"
       id="path3920" />
    <path
       sodipodi:type="inkscape:offset"
       inkscape:radius="-0.93855149"
       inkscape:original="M 71.4375 -70.53125 C 67.458397 -70.758486 63.348542 -70.692118 59.1875 -70.3125 C 57.627112 -70.170143 56.116797 -70.130789 54.59375 -69.90625 C 23.625231 -65.340622 0.6991879 -43.976996 2.78125 -20.875 C 4.1294746 -5.915513 15.611371 6.378526 32.03125 12.875 L 26.5 34.4375 C 26.5 34.4375 25.903179 36.44377 26.75 37.15625 C 27.596814 37.86874 29.65625 36.34375 29.65625 36.34375 L 55.5 17.65625 L 55.71875 17.625 C 59.460592 17.803849 63.224018 17.887146 67.125 17.53125 C 100.41333 14.494273 125.71573 -7.668103 123.53125 -31.90625 C 121.61987 -53.114638 99.29122 -68.940599 71.4375 -70.53125 z "
       style="opacity:0.4;color:#000000;fill:none;stroke:url(#linearGradient3892-8);stroke-width:0.99650294;stroke-linecap:butt;stroke-linejoin:miter;stroke-miterlimit:4;stroke-opacity:1;stroke-dasharray:none;stroke-dashoffset:0;marker:none;visibility:visible;display:inline;overflow:visible;enable-background:accumulate"
       id="path3078"
       d="m 71.375,-69.59375 c -3.931991,-0.224546 -7.978536,-0.156687 -12.09375,0.21875 -1.599372,0.145914 -3.11237,0.192461 -4.5625,0.40625 -15.308351,2.25688 -28.599322,8.664208 -37.78125,17.3125 C 7.7555715,-43.007958 2.7076839,-32.187265 3.71875,-20.96875 5.0283408,-6.437932 16.192603,5.5974849 32.375,12 a 0.93864534,0.93864534 0 0 1 0.5625,1.09375 l -5.53125,21.5625 a 0.93864534,0.93864534 0 0 1 0,0.0625 c 0,0 -0.121567,0.402481 -0.15625,0.875 -0.03468,0.472519 0.08554,0.836841 0.09375,0.84375 -0.05791,-0.04872 -0.06699,-0.0092 0.09375,-0.03125 0.160745,-0.02203 0.428992,-0.128313 0.6875,-0.25 0.517016,-0.243374 0.96875,-0.5625 0.96875,-0.5625 L 54.9375,16.90625 a 0.93864534,0.93864534 0 0 1 0.4375,-0.1875 l 0.21875,-0.03125 a 0.93864534,0.93864534 0 0 1 0.15625,0 c 3.725747,0.17808 7.447854,0.25598 11.28125,-0.09375 C 83.491129,15.092074 97.956753,8.8632232 108,0.0625 c 10.04325,-8.8007232 15.65462,-20.104045 14.59375,-31.875 -0.92824,-10.299577 -6.80528,-19.318437 -15.9375,-26 C 97.524034,-64.494063 85.139223,-68.807712 71.375,-69.59375 z"
       transform="matrix(0.99894582,0,0,0.99854012,0.9103402,-0.88192899)" />
    <g
       transform="matrix(2.6605868,0,0,2.6904406,0.44999585,-81.098403)"
       id="layer1-5">
      <path
         inkscape:connector-curvature="0"
         d="m 46.999997,40 c 0,4.418278 -10.297452,8 -23,8 -12.702548,0 -23.0000002,-3.581722 -23.0000002,-8 0,-4.418278 10.2974522,-8 23.0000002,-8 12.702548,0 23,3.581722 23,8 l 0,0 z"
         id="path8836-6"
         style="opacity:0.3;fill:url(#radialGradient3765);fill-opacity:1;fill-rule:evenodd;stroke:none;stroke-width:0.99999988;marker:none;visibility:visible;display:inline;overflow:visible" />
      <path
         inkscape:connector-curvature="0"
         d="M 20.81268,3.7833432 C 9.2946995,5.4814553 0.77209309,13.417302 1.546465,22.009721 2.047904,27.573663 6.3183954,32.153264 12.425366,34.569524 l -2.5491339,9.93285 11.2771819,-8.155916 0.07796,-0.0071 c 1.391686,0.06652 2.789829,0.08857 4.240703,-0.0438 C 37.852856,35.166003 47.265956,26.927679 46.453494,17.912686 45.641037,8.8976905 34.908657,2.4973151 22.527879,3.6268593 21.947531,3.6798066 21.37914,3.6998293 20.81268,3.7833432 z"
         id="path6145-6"
         style="fill:url(#radialGradient2939);fill-opacity:1;fill-rule:evenodd;stroke:url(#linearGradient2941);stroke-width:0.99525028000000004;stroke-linecap:butt;stroke-linejoin:round;stroke-miterlimit:4;stroke-opacity:1;stroke-dasharray:none;stroke-dashoffset:0;marker:none;visibility:visible;display:inline;overflow:visible" />
      <path
         inkscape:connector-curvature="0"
         d="M 21.094648,4.7623218 C 10.865769,6.2520739 1.8465467,12.882583 2.5579487,21.860582 3.035775,27.890821 7.7403327,31.982834 13.574223,33.88514 l -1.960294,8.057691 9.157595,-6.58386 c 1.235244,0.05367 3.135772,0.14938 4.424056,0.03185 C 34.936452,34.502119 46.288627,27.267434 45.472921,18.272449 44.923988,12.25589 40.195929,8.0073845 34.105873,5.9381842 30.553505,4.7312067 26.537724,4.2657297 22.617637,4.6233737 c -0.51531,0.047014 -1.01993,0.065683 -1.522989,0.1389481 z"
         id="path6179"
         style="opacity:0.4;fill:none;stroke:url(#radialGradient2936);stroke-width:0.99525028;stroke-linecap:butt;stroke-linejoin:miter;stroke-miterlimit:4;stroke-opacity:1;stroke-dasharray:none;stroke-dashoffset:0;marker:none;visibility:visible;display:inline;overflow:visible"
         sodipodi:nodetypes="sscccscsss" />
      <path
         inkscape:connector-curvature="0"
         d="m 10.734546,43.374545 2.148178,-9.062717 8.029091,1.570909 -10.177269,7.491808 z"
         id="path3705"
         style="fill:#397c9a;fill-opacity:1;stroke-width:1px" />
      <path
         inkscape:connector-curvature="0"
         d="m 27.088687,3.6202016 c -1.455129,-0.083101 -2.940319,-0.045694 -4.46875,0.09375 -0.596884,0.054456 -1.15413,0.077615 -1.6875,0.15625 -5.674895,0.8366579 -10.599601,3.2102162 -14.0000005,6.4062494 -3.400399,3.196033 -5.2790561,7.207098 -4.90625,11.343749 0.48279,5.357016 4.631842,9.816271 10.6250005,12.1875 a 0.45001441,0.45001441 0 0 1 0.28125,0.53125 l -2.25,8.71875 10.28125,-7.4375 a 0.45001441,0.45001441 0 0 1 0.25,-0.0625 l 0.0625,0 a 0.45001441,0.45001441 0 0 1 0.03125,0 c 1.377954,0.06586 2.763531,0.06741 4.1875,-0.0625 6.102208,-0.556732 11.465224,-2.870732 15.1875,-6.125 3.722276,-3.254268 5.79741,-7.440976 5.40625,-11.78125 -0.342237,-3.79745 -2.520149,-7.119633 -5.90625,-9.5937484 -3.386101,-2.474116 -7.992077,-4.0836503 -13.09375,-4.375 z"
         id="path3845"
         style="fill:url(#radialGradient3242);fill-opacity:1;fill-rule:evenodd;stroke:none;stroke-width:0.99525028;marker:none;visibility:visible;display:inline;overflow:visible" />
      <path
         d="m 20.46601,6.8399627 c -3.136694,0 -5.712541,2.5472626 -5.712541,5.6491523 l 0,12.510234 c 0,4.480138 3.712255,8.151201 8.242663,8.151201 l 6.325304,0 c 3.136694,0 5.712541,-2.547264 5.712541,-5.649153 0,-2.200406 -1.329375,-4.07349 -3.202186,-5.004094 1.872811,-0.930605 3.202186,-2.803688 3.202186,-5.004095 0,-3.101888 -2.575847,-5.649152 -5.712541,-5.649152 l -3.281252,0 C 25.698515,9.056912 23.371345,6.8399627 20.46601,6.8399627 z"
         inkscape:connector-curvature="0"
         id="path3750"
         style="opacity:0.1;fill:#006680;fill-opacity:1;stroke:none;display:inline" />
      <path
         inkscape:connector-curvature="0"
         d="m 20.46601,7.6744499 c -2.780804,0 -5.060245,2.254147 -5.060245,5.0040951 l 0,12.510233 c 0,4.128961 3.415077,7.506141 7.590367,7.506141 l 6.325304,0 c 2.780804,0 5.060243,-2.254146 5.060243,-5.004092 0,-2.749949 -2.279439,-5.004095 -5.060243,-5.004095 2.780804,0 5.060243,-2.254147 5.060243,-5.004093 0,-2.749948 -2.279439,-5.004094 -5.060243,-5.004094 l -3.795183,0 c 0,-2.7499481 -2.279439,-5.0040951 -5.060243,-5.0040951 z"
         id="path3746"
         style="opacity:0.2;fill:#006680;fill-opacity:1;stroke:none;display:inline" />
      <path
         inkscape:connector-curvature="0"
         d="m 20.46601,8.2999628 c -2.431981,0 -4.427714,1.9735862 -4.427714,4.3785822 l 0,12.510233 c 0,3.785206 3.130158,6.88063 6.957836,6.88063 l 6.325304,0 c 2.431981,0 4.427714,-1.973586 4.427714,-4.378581 0,-2.404996 -1.995733,-4.378584 -4.427714,-4.378584 l -4.427714,0 0,-1.251022 4.427714,0 c 2.431981,0 4.427714,-1.973587 4.427714,-4.378582 0,-2.404995 -1.995733,-4.378583 -4.427714,-4.378583 l -4.427714,0 0,-0.625511 c 0,-2.404996 -1.995732,-4.3785822 -4.427712,-4.3785822 z"
         id="path3814"
         style="fill:#006680;fill-opacity:1;stroke:none;display:inline" />
      <path
         inkscape:connector-curvature="0"
         d="m 20.46601,7.6744499 c -2.431981,0 -4.427714,1.9735882 -4.427714,4.3785831 l 0,12.510234 c 0,3.785206 3.130158,6.88063 6.957836,6.88063 l 6.325304,0 c 2.431981,0 4.427714,-1.973588 4.427714,-4.378583 0,-2.404996 -1.995733,-4.378582 -4.427714,-4.378582 l -4.427714,0 0,-1.251022 4.427714,0 c 2.431981,0 4.427714,-1.973589 4.427714,-4.378584 0,-2.404995 -1.995733,-4.378581 -4.427714,-4.378581 l -4.427714,0 0,-0.625512 c 0,-2.4049949 -1.995732,-4.3785831 -4.427712,-4.3785831 z"
         id="path3812"
         style="fill:#ffffff;fill-opacity:1;stroke:none;display:inline" />
      <g
         transform="matrix(0.59529732,0,0,0.58936408,-3.1969039,-5.7143918)"
         id="g3709"
         style="font-size:48px;font-style:normal;font-variant:normal;font-weight:normal;font-stretch:normal;text-align:start;line-height:125%;writing-mode:tb-rl;text-anchor:start;fill:#ff00ff;fill-opacity:1;stroke:none;display:inline;font-family:American Participants;-inkscape-font-specification:American Participants" />
      <path
         d="m 20.46601,9.5509852 c -1.401688,0 -2.530122,1.1159138 -2.530122,2.5020478 l 0,12.510234 c 0,2.763686 2.265548,5.004095 5.060244,5.004095 l 6.325304,0 c 1.401688,0 2.530122,-1.115914 2.530122,-2.502048 0,-1.386135 -1.128434,-2.502047 -2.530122,-2.502047 l -6.325304,0 0,-5.004093 6.325304,0 c 1.401688,0 2.530122,-1.115914 2.530122,-2.502048 0,-1.386134 -1.128434,-2.502046 -2.530122,-2.502046 l -6.325304,0 0,-2.502047 c 0,-1.386134 -1.128435,-2.5020478 -2.530122,-2.5020478 z"
         inkscape:connector-curvature="0"
         id="rect3734"
         style="fill:url(#linearGradient4263);fill-opacity:1;stroke:none;display:inline" />
      <path
         inkscape:connector-curvature="0"
         d="m 22.363602,12.053033 a 1.897592,1.8765359 0 0 1 -3.795184,0 1.897592,1.8765359 0 1 1 3.795184,0 z"
         id="path3772"
         style="opacity:0.5;fill:url(#linearGradient4265);fill-opacity:1;stroke:none;display:inline" />
      <rect
         width="7.5747685"
         height="1.8592336"
         rx="1.2650609"
         ry="1.2510235"
         x="23.01173"
         y="15.197893"
         id="rect3784"
         style="opacity:0.5;fill:url(#radialGradient4267);fill-opacity:1;stroke:none;display:inline" />
    </g>
  </g>
</svg>
