<?xml version="1.0" encoding="UTF-8" standalone="no"?>
<svg
   xmlns:dc="http://purl.org/dc/elements/1.1/"
   xmlns:cc="http://creativecommons.org/ns#"
   xmlns:rdf="http://www.w3.org/1999/02/22-rdf-syntax-ns#"
   xmlns:svg="http://www.w3.org/2000/svg"
   xmlns="http://www.w3.org/2000/svg"
   xmlns:sodipodi="http://sodipodi.sourceforge.net/DTD/sodipodi-0.dtd"
   xmlns:inkscape="http://www.inkscape.org/namespaces/inkscape"
   version="1.1"
   id="Layer_1"
   x="0px"
   y="0px"
   width="128"
   height="128"
   viewBox="0 0 128 128"
   enable-background="new 0 0 1080 1080"
   xml:space="preserve"
   inkscape:version="0.48.1 r9760"
   sodipodi:docname="hplip-gui.svg"><metadata
   id="metadata13"><rdf:RDF><cc:Work
       rdf:about=""><dc:format>image/svg+xml</dc:format><dc:type
         rdf:resource="http://purl.org/dc/dcmitype/StillImage" /></cc:Work></rdf:RDF></metadata><defs
   id="defs11" /><sodipodi:namedview
   pagecolor="#ffffff"
   bordercolor="#666666"
   borderopacity="1"
   objecttolerance="10"
   gridtolerance="10"
   guidetolerance="10"
   inkscape:pageopacity="0"
   inkscape:pageshadow="2"
   inkscape:window-width="1163"
   inkscape:window-height="819"
   id="namedview9"
   showgrid="false"
   inkscape:zoom="4.9296875"
   inkscape:cx="64"
   inkscape:cy="64"
   inkscape:window-x="0"
   inkscape:window-y="24"
   inkscape:window-maximized="0"
   inkscape:current-layer="Layer_1" />
<path
   d="m 127.4191,64.190769 c 0,-34.796034 -28.204114,-63.0021895 -62.998694,-63.0021895 -0.950282,0 -1.891819,0.024804 -2.829275,0.0659 L 48.703249,36.675094 h 11.220003 c 6.680857,0 10.277297,5.139529 7.991835,11.42091 l -15.89299,43.683338 -13.347134,-0.0032 17.052925,-46.82111 H 45.69698 L 28.638806,91.776132 H 15.285838 l 20.05686,-55.101038 h 0.0032 L 47.411222,3.514286 C 20.879073,10.936356 1.4199684,35.287723 1.4199684,64.190769 c 0,29.758566 20.6324536,54.692231 48.3729426,61.288241 l 11.69383,-32.127137 h 0.007 L 82.119488,36.674805 h 24.579392 c 6.68465,0 10.28459,5.139524 7.99737,11.420906 l -13.96851,38.36857 c -1.062252,2.919377 -4.477035,5.311562 -7.584484,5.311562 H 75.422885 L 62.549579,127.16088 c 0.621668,0.016 1.244789,0.0277 1.870827,0.0277 34.79458,0 62.998694,-28.205279 62.998694,-62.997815 z"
   id="path17"
   inkscape:connector-curvature="0"
   style="fill:#005295"
   clip-path="none" /><polygon
   points="341.465,594.931 389.648,462.739 355.234,462.739 307.062,594.931 "
   id="polygon19"
   style="fill:#005295"
   clip-path="none"
   transform="matrix(0.29158778,0,0,0.29158778,-11.0763,-90.007687)" />
</svg>