<?xml version="1.0" encoding="UTF-8" standalone="no"?>
<!-- Created with Inkscape (http://www.inkscape.org/) -->

<svg
   xmlns:dc="http://purl.org/dc/elements/1.1/"
   xmlns:cc="http://creativecommons.org/ns#"
   xmlns:rdf="http://www.w3.org/1999/02/22-rdf-syntax-ns#"
   xmlns:svg="http://www.w3.org/2000/svg"
   xmlns="http://www.w3.org/2000/svg"
   xmlns:xlink="http://www.w3.org/1999/xlink"
   xmlns:sodipodi="http://sodipodi.sourceforge.net/DTD/sodipodi-0.dtd"
   xmlns:inkscape="http://www.inkscape.org/namespaces/inkscape"
   id="svg11300"
   height="128"
   width="128"
   version="1.0"
   inkscape:version="0.48.1 r9760"
   sodipodi:docname="gnome-dev-printer-new.svg">
  <metadata
     id="metadata67">
    <rdf:RDF>
      <cc:Work
         rdf:about="">
        <dc:format>image/svg+xml</dc:format>
        <dc:type
           rdf:resource="http://purl.org/dc/dcmitype/StillImage" />
        <dc:title></dc:title>
      </cc:Work>
    </rdf:RDF>
  </metadata>
  <sodipodi:namedview
     pagecolor="#ffffff"
     bordercolor="#666666"
     borderopacity="1"
     objecttolerance="10"
     gridtolerance="10"
     guidetolerance="10"
     inkscape:pageopacity="0"
     inkscape:pageshadow="2"
     inkscape:window-width="1478"
     inkscape:window-height="907"
     id="namedview65"
     showgrid="false"
     inkscape:zoom="5.6171875"
     inkscape:cx="64"
     inkscape:cy="64"
     inkscape:window-x="0"
     inkscape:window-y="24"
     inkscape:window-maximized="0"
     inkscape:current-layer="svg11300" />
  <defs
     id="defs3">
    <linearGradient
       id="linearGradient6828">
      <stop
         id="stop6830"
         style="stop-color:#6e6e6e"
         offset="0" />
      <stop
         id="stop6832"
         style="stop-color:#1e1e1e"
         offset="1" />
    </linearGradient>
    <linearGradient
       id="linearGradient2366">
      <stop
         id="stop2368"
         style="stop-color:#2e3436"
         offset="0" />
      <stop
         id="stop2370"
         style="stop-color:#555753"
         offset="1" />
    </linearGradient>
    <linearGradient
       id="linearGradient8589">
      <stop
         id="stop8591"
         style="stop-color:#fefefe"
         offset="0" />
      <stop
         id="stop8593"
         style="stop-color:#bebebe"
         offset="1" />
    </linearGradient>
    <linearGradient
       id="linearGradient3104">
      <stop
         id="stop3106"
         style="stop-color:#969696"
         offset="0" />
      <stop
         id="stop3108"
         style="stop-color:#bebebe"
         offset="1" />
    </linearGradient>
    <linearGradient
       id="linearGradient3161"
       y2="32.485001"
       gradientUnits="userSpaceOnUse"
       x2="24.104"
       gradientTransform="matrix(0.89305,0,0,0.88766,-24.247,42.161)"
       y1="15.169"
       x1="24.104">
      <stop
         id="stop2266"
         style="stop-color:#ff002f;stop-opacity:1;"
         offset="0" />
      <stop
         id="stop2268"
         style="stop-color:#fb002b;stop-opacity:1;"
         offset="1" />
    </linearGradient>
    <linearGradient
       id="linearGradient3163"
       y2="47.272999"
       gradientUnits="userSpaceOnUse"
       x2="24.139"
       gradientTransform="matrix(0.53643,0,0,0.5332,-15.688,50.169)"
       y1="-9.8009005"
       x1="24.139">
      <stop
         id="stop4224"
         style="stop-color:#ff959f;stop-opacity:1;"
         offset="0" />
      <stop
         id="stop4226"
         style="stop-color:#ff0055;stop-opacity:1;"
         offset="1" />
    </linearGradient>
    <linearGradient
       id="linearGradient3166"
       y2="38"
       xlink:href="#linearGradient6828"
       gradientUnits="userSpaceOnUse"
       x2="24.875"
       gradientTransform="matrix(2.625,0,0,2.625,0,3.25)"
       y1="41"
       x1="24.875" />
    <linearGradient
       id="linearGradient3169"
       y2="43.380001"
       xlink:href="#linearGradient8589"
       gradientUnits="userSpaceOnUse"
       x2="21.062"
       gradientTransform="matrix(2.625,0,0,2.625,0,3.25)"
       y1="38"
       x1="21.062" />
    <linearGradient
       id="linearGradient3175"
       y2="31.987"
       xlink:href="#linearGradient3104"
       gradientUnits="userSpaceOnUse"
       x2="39.931"
       gradientTransform="matrix(1.4768775,0,0,1.6879275,48.386625,36.658375)"
       y1="28.417"
       x1="39.948002" />
    <radialGradient
       id="radialGradient3178"
       gradientUnits="userSpaceOnUse"
       cy="15.28"
       cx="11.537"
       gradientTransform="matrix(2.625,0,0,1.0096275,0,46.864375)"
       r="13">
      <stop
         id="stop2465"
         style="stop-color:#fff"
         offset="0" />
      <stop
         id="stop2467"
         style="stop-color:#fff;stop-opacity:0"
         offset="1" />
    </radialGradient>
    <linearGradient
       id="linearGradient3181"
       y2="40.875"
       xlink:href="#linearGradient6828"
       gradientUnits="userSpaceOnUse"
       x2="7.4545002"
       gradientTransform="matrix(2.5477987,0,0,2.1,1.852935,24.5125)"
       y1="31.156"
       x1="7.5170002" />
    <linearGradient
       id="linearGradient3183"
       y2="33.5"
       xlink:href="#linearGradient2366"
       gradientUnits="userSpaceOnUse"
       x2="9.5"
       gradientTransform="matrix(2.625,0,0,2.625,1.3125,1.9375)"
       y1="41.375"
       x1="9.5625" />
    <linearGradient
       id="linearGradient3186"
       y2="33"
       xlink:href="#linearGradient6828"
       gradientUnits="userSpaceOnUse"
       x2="22.007999"
       gradientTransform="matrix(2.625,0,0,2.625,-6.5625e-7,3.25)"
       y1="21"
       x1="21.919001" />
    <linearGradient
       id="linearGradient3188"
       y2="21"
       xlink:href="#linearGradient2366"
       gradientUnits="userSpaceOnUse"
       x2="15.335"
       gradientTransform="matrix(2.625,0,0,2.625,-6.5625e-7,3.25)"
       y1="33"
       x1="15.601" />
    <linearGradient
       id="linearGradient3191"
       y2="5.4565001"
       xlink:href="#linearGradient8589"
       gradientUnits="userSpaceOnUse"
       x2="36.358002"
       gradientTransform="matrix(2.0549288,0,0,2.26779,12.751463,-0.2602287)"
       y1="8.059"
       x1="32.891998" />
    <linearGradient
       id="linearGradient3195"
       y2="47.013"
       gradientUnits="userSpaceOnUse"
       x2="25.132"
       gradientTransform="matrix(1.874985,0,0,1.8371587,18.00015,1.806775)"
       y1="6.7287002"
       x1="25.132">
      <stop
         id="stop3602"
         style="stop-color:#f4f4f4"
         offset="0" />
      <stop
         id="stop3604"
         style="stop-color:#dbdbdb"
         offset="1" />
    </linearGradient>
    <linearGradient
       id="linearGradient3197"
       y2="2.9061999"
       xlink:href="#linearGradient3104"
       gradientUnits="userSpaceOnUse"
       x2="-51.785999"
       gradientTransform="matrix(1.5140475,0,0,1.7192963,129.39412,-0.2406462)"
       y1="50.785999"
       x1="-51.785999" />
    <radialGradient
       id="radialGradient3200"
       gradientUnits="userSpaceOnUse"
       cy="11.918"
       cx="3.7591"
       gradientTransform="matrix(2.6245275,0.0492555,-0.03314587,1.7661525,0.39676875,41.283625)"
       r="21">
      <stop
         id="stop6844"
         style="stop-color:#fff"
         offset="0" />
      <stop
         id="stop6846"
         style="stop-color:#fff;stop-opacity:0"
         offset="1" />
    </radialGradient>
    <linearGradient
       id="linearGradient3203"
       y2="37"
       xlink:href="#linearGradient8589"
       gradientUnits="userSpaceOnUse"
       x2="11.506"
       gradientTransform="matrix(2.625,0,0,2.625,-6.5625e-7,3.25)"
       y1="20"
       x1="11.519" />
    <linearGradient
       id="linearGradient3205"
       y2="20"
       gradientUnits="userSpaceOnUse"
       x2="20.278999"
       gradientTransform="matrix(2.625,0,0,2.625,0,3.25)"
       y1="37"
       x1="20.562">
      <stop
         id="stop6868"
         style="stop-color:#8f9cf8;stop-opacity:1;"
         offset="0" />
      <stop
         id="stop6870"
         style="stop-color:#1a30dd;stop-opacity:1;"
         offset="1" />
    </linearGradient>
    <linearGradient
       id="linearGradient3208"
       y2="18.92"
       xlink:href="#linearGradient6828"
       gradientUnits="userSpaceOnUse"
       x2="21.687"
       gradientTransform="matrix(2.3071388,0,0,2.96205,7.6285125,0.3793262)"
       y1="9.5516005"
       x1="21.586" />
    <linearGradient
       id="linearGradient3210"
       y2="8.9371996"
       xlink:href="#linearGradient2366"
       gradientUnits="userSpaceOnUse"
       x2="7.4375"
       gradientTransform="matrix(2.3071388,0,0,2.96205,7.6285125,0.3793262)"
       y1="14.105"
       x1="7.4375" />
    <radialGradient
       id="radialGradient3213"
       gradientUnits="userSpaceOnUse"
       cy="41.875"
       cx="24"
       gradientTransform="matrix(3.2941125,0,0,0.89215875,-16.0587,69.5785)"
       r="19.125">
      <stop
         id="stop7614"
         offset="0" />
      <stop
         id="stop7616"
         style="stop-opacity:0"
         offset="1" />
    </radialGradient>
    <linearGradient
       id="linearGradient8408"
       y2="2.3162"
       xlink:href="#linearGradient4103"
       gradientUnits="userSpaceOnUse"
       x2="67.466003"
       gradientTransform="matrix(0.86248,0,0,0.58072,-16.257,11.013)"
       y1="2.3162"
       x1="52.717999" />
    <linearGradient
       id="linearGradient4103">
      <stop
         id="stop4105"
         style="stop-color:#edd563"
         offset="0" />
      <stop
         id="stop4107"
         style="stop-color:#e08223"
         offset="1" />
    </linearGradient>
    <linearGradient
       id="linearGradient6474"
       y2="11.359"
       gradientUnits="userSpaceOnUse"
       x2="42"
       y1="11.359"
       x1="29.143">
      <stop
         id="stop6470"
         style="stop-color:#335acd;stop-opacity:1;"
         offset="0" />
      <stop
         id="stop6472"
         style="stop-color:#1249bb;stop-opacity:1;"
         offset="1" />
    </linearGradient>
    <linearGradient
       id="linearGradient8410"
       y2="24.245001"
       xlink:href="#linearGradient6651"
       gradientUnits="userSpaceOnUse"
       x2="69.691002"
       gradientTransform="matrix(0.71944,0,0,0.71891,-7.6963,9.4717)"
       y1="24.245001"
       x1="53.168999" />
    <linearGradient
       id="linearGradient6651">
      <stop
         id="stop6653"
         style="stop-color:#f2f2f2"
         offset="0" />
      <stop
         id="stop6655"
         style="stop-color:#c3c3c3"
         offset="1" />
    </linearGradient>
    <linearGradient
       id="linearGradient8412"
       y2="41.459"
       gradientUnits="userSpaceOnUse"
       x2="61.872002"
       gradientTransform="matrix(0.88862,0,0,0.71891,-18.298,9.4717)"
       y1="29.615"
       x1="61.872002">
      <stop
         id="stop6631"
         style="stop-color:#aeaeae"
         offset="0" />
      <stop
         id="stop6633"
         style="stop-color:#c4c4c4;stop-opacity:0"
         offset="1" />
    </linearGradient>
    <linearGradient
       id="linearGradient8414"
       y2="64.519997"
       xlink:href="#linearGradient4103"
       gradientUnits="userSpaceOnUse"
       x2="54.064999"
       gradientTransform="matrix(0.70375,0,0,0.71891,-1.0447,-22.425)"
       y1="64.564003"
       x1="42.816002" />
    <linearGradient
       id="linearGradient4214">
      <stop
         id="stop4216"
         style="stop-color:#edd563"
         offset="0" />
      <stop
         id="stop4218"
         style="stop-color:#e08223"
         offset="1" />
    </linearGradient>
    <radialGradient
       id="radialGradient6440"
       gradientUnits="userSpaceOnUse"
       cy="20.34"
       cx="31.410999"
       gradientTransform="matrix(1,0,0,1.5787,0,-15.431)"
       r="7.9889998">
      <stop
         id="stop5115"
         style="stop-color:#fff"
         offset="0" />
      <stop
         id="stop5117"
         style="stop-color:#fff;stop-opacity:0"
         offset="1" />
    </radialGradient>
    <linearGradient
       id="linearGradient8418"
       y2="43.869999"
       xlink:href="#linearGradient6651"
       gradientUnits="userSpaceOnUse"
       x2="60.441002"
       gradientTransform="matrix(0.73731,0,0,0.77085,-8.532,7.1216)"
       y1="40.119999"
       x1="60.168999" />
    <linearGradient
       id="linearGradient4224">
      <stop
         id="stop4226-7"
         style="stop-color:#f2f2f2"
         offset="0" />
      <stop
         id="stop4228"
         style="stop-color:#c3c3c3"
         offset="1" />
    </linearGradient>
    <linearGradient
       id="linearGradient8420"
       y2="74.5"
       gradientUnits="userSpaceOnUse"
       x2="48.25"
       gradientTransform="matrix(0.71891,0,0,0.71891,-1.8971,-20.686)"
       y1="52"
       x1="48.25">
      <stop
         id="stop6837"
         style="stop-color:#fff"
         offset="0" />
      <stop
         id="stop6839"
         style="stop-color:#fff;stop-opacity:0"
         offset="1" />
    </linearGradient>
    <linearGradient
       inkscape:collect="always"
       xlink:href="#linearGradient3163"
       id="linearGradient4364"
       gradientUnits="userSpaceOnUse"
       gradientTransform="matrix(0.86248,0,0,0.58072,-16.257,11.013)"
       x1="52.717999"
       y1="2.3162"
       x2="67.466003"
       y2="2.3162" />
    <linearGradient
       inkscape:collect="always"
       xlink:href="#linearGradient3163"
       id="linearGradient4366"
       gradientUnits="userSpaceOnUse"
       x1="29.143"
       y1="11.359"
       x2="42"
       y2="11.359" />
    <linearGradient
       inkscape:collect="always"
       xlink:href="#linearGradient6651"
       id="linearGradient4368"
       gradientUnits="userSpaceOnUse"
       gradientTransform="matrix(0.71944,0,0,0.71891,-7.6963,9.4717)"
       x1="53.168999"
       y1="24.245001"
       x2="69.691002"
       y2="24.245001" />
    <linearGradient
       inkscape:collect="always"
       xlink:href="#linearGradient8412"
       id="linearGradient4370"
       gradientUnits="userSpaceOnUse"
       gradientTransform="matrix(0.88862,0,0,0.71891,-18.298,9.4717)"
       x1="61.872002"
       y1="29.615"
       x2="61.872002"
       y2="41.459" />
    <linearGradient
       inkscape:collect="always"
       xlink:href="#linearGradient3163"
       id="linearGradient4372"
       gradientUnits="userSpaceOnUse"
       gradientTransform="matrix(0.70375,0,0,0.71891,-1.0447,-22.425)"
       x1="42.816002"
       y1="64.564003"
       x2="54.064999"
       y2="64.519997" />
    <radialGradient
       inkscape:collect="always"
       xlink:href="#radialGradient6440"
       id="radialGradient4374"
       gradientUnits="userSpaceOnUse"
       gradientTransform="matrix(1,0,0,1.5787,0,-15.431)"
       cx="31.410999"
       cy="20.34"
       r="7.9889998" />
    <linearGradient
       inkscape:collect="always"
       xlink:href="#linearGradient6651"
       id="linearGradient4376"
       gradientUnits="userSpaceOnUse"
       gradientTransform="matrix(0.73731,0,0,0.77085,-8.532,7.1216)"
       x1="60.168999"
       y1="40.119999"
       x2="60.441002"
       y2="43.869999" />
    <linearGradient
       inkscape:collect="always"
       xlink:href="#linearGradient8420"
       id="linearGradient4378"
       gradientUnits="userSpaceOnUse"
       gradientTransform="matrix(0.71891,0,0,0.71891,-1.8971,-20.686)"
       x1="48.25"
       y1="52"
       x2="48.25"
       y2="74.5" />
    <linearGradient
       inkscape:collect="always"
       xlink:href="#linearGradient3205"
       id="linearGradient4408"
       gradientUnits="userSpaceOnUse"
       gradientTransform="matrix(0.86248,0,0,0.58072,-16.257,11.013)"
       x1="52.717999"
       y1="2.3162"
       x2="67.466003"
       y2="2.3162" />
    <linearGradient
       inkscape:collect="always"
       xlink:href="#linearGradient3205"
       id="linearGradient4410"
       gradientUnits="userSpaceOnUse"
       x1="29.143"
       y1="11.359"
       x2="42"
       y2="11.359" />
    <linearGradient
       inkscape:collect="always"
       xlink:href="#linearGradient6651"
       id="linearGradient4412"
       gradientUnits="userSpaceOnUse"
       gradientTransform="matrix(0.71944,0,0,0.71891,-7.6963,9.4717)"
       x1="53.168999"
       y1="24.245001"
       x2="69.691002"
       y2="24.245001" />
    <linearGradient
       inkscape:collect="always"
       xlink:href="#linearGradient8412"
       id="linearGradient4414"
       gradientUnits="userSpaceOnUse"
       gradientTransform="matrix(0.88862,0,0,0.71891,-18.298,9.4717)"
       x1="61.872002"
       y1="29.615"
       x2="61.872002"
       y2="41.459" />
    <linearGradient
       inkscape:collect="always"
       xlink:href="#linearGradient3205"
       id="linearGradient4416"
       gradientUnits="userSpaceOnUse"
       gradientTransform="matrix(0.70375,0,0,0.71891,-1.0447,-22.425)"
       x1="42.816002"
       y1="64.564003"
       x2="54.064999"
       y2="64.519997" />
    <radialGradient
       inkscape:collect="always"
       xlink:href="#radialGradient6440"
       id="radialGradient4418"
       gradientUnits="userSpaceOnUse"
       gradientTransform="matrix(1,0,0,1.5787,0,-15.431)"
       cx="31.410999"
       cy="20.34"
       r="7.9889998" />
    <linearGradient
       inkscape:collect="always"
       xlink:href="#linearGradient6651"
       id="linearGradient4420"
       gradientUnits="userSpaceOnUse"
       gradientTransform="matrix(0.73731,0,0,0.77085,-8.532,7.1216)"
       x1="60.168999"
       y1="40.119999"
       x2="60.441002"
       y2="43.869999" />
    <linearGradient
       inkscape:collect="always"
       xlink:href="#linearGradient8420"
       id="linearGradient4422"
       gradientUnits="userSpaceOnUse"
       gradientTransform="matrix(0.71891,0,0,0.71891,-1.8971,-20.686)"
       x1="48.25"
       y1="52"
       x2="48.25"
       y2="74.5" />
    <linearGradient
       inkscape:collect="always"
       xlink:href="#linearGradient6828"
       id="linearGradient4452"
       gradientUnits="userSpaceOnUse"
       gradientTransform="matrix(0.86248,0,0,0.58072,-16.257,11.013)"
       x1="52.717999"
       y1="2.3162"
       x2="67.466003"
       y2="2.3162" />
    <linearGradient
       inkscape:collect="always"
       xlink:href="#linearGradient6828"
       id="linearGradient4454"
       gradientUnits="userSpaceOnUse"
       x1="29.143"
       y1="11.359"
       x2="42"
       y2="11.359" />
    <linearGradient
       inkscape:collect="always"
       xlink:href="#linearGradient6651"
       id="linearGradient4456"
       gradientUnits="userSpaceOnUse"
       gradientTransform="matrix(0.71944,0,0,0.71891,-7.6963,9.4717)"
       x1="53.168999"
       y1="24.245001"
       x2="69.691002"
       y2="24.245001" />
    <linearGradient
       inkscape:collect="always"
       xlink:href="#linearGradient8412"
       id="linearGradient4458"
       gradientUnits="userSpaceOnUse"
       gradientTransform="matrix(0.88862,0,0,0.71891,-18.298,9.4717)"
       x1="61.872002"
       y1="29.615"
       x2="61.872002"
       y2="41.459" />
    <linearGradient
       inkscape:collect="always"
       xlink:href="#linearGradient6828"
       id="linearGradient4460"
       gradientUnits="userSpaceOnUse"
       gradientTransform="matrix(0.70375,0,0,0.71891,-1.0447,-22.425)"
       x1="42.816002"
       y1="64.564003"
       x2="54.064999"
       y2="64.519997" />
    <radialGradient
       inkscape:collect="always"
       xlink:href="#radialGradient6440"
       id="radialGradient4462"
       gradientUnits="userSpaceOnUse"
       gradientTransform="matrix(1,0,0,1.5787,0,-15.431)"
       cx="31.410999"
       cy="20.34"
       r="7.9889998" />
    <linearGradient
       inkscape:collect="always"
       xlink:href="#linearGradient6651"
       id="linearGradient4464"
       gradientUnits="userSpaceOnUse"
       gradientTransform="matrix(0.73731,0,0,0.77085,-8.532,7.1216)"
       x1="60.168999"
       y1="40.119999"
       x2="60.441002"
       y2="43.869999" />
    <linearGradient
       inkscape:collect="always"
       xlink:href="#linearGradient8420"
       id="linearGradient4466"
       gradientUnits="userSpaceOnUse"
       gradientTransform="matrix(0.71891,0,0,0.71891,-1.8971,-20.686)"
       x1="48.25"
       y1="52"
       x2="48.25"
       y2="74.5" />
    <linearGradient
       inkscape:collect="always"
       xlink:href="#linearGradient4103"
       id="linearGradient4468"
       gradientUnits="userSpaceOnUse"
       x1="29.143"
       y1="11.359"
       x2="42"
       y2="11.359" />
    <linearGradient
       inkscape:collect="always"
       xlink:href="#linearGradient8412"
       id="linearGradient4470"
       gradientUnits="userSpaceOnUse"
       gradientTransform="matrix(0.88862,0,0,0.71891,-18.298,9.4717)"
       x1="61.872002"
       y1="29.615"
       x2="61.872002"
       y2="41.459" />
    <radialGradient
       inkscape:collect="always"
       xlink:href="#radialGradient6440"
       id="radialGradient4472"
       gradientUnits="userSpaceOnUse"
       gradientTransform="matrix(1,0,0,1.5787,0,-15.431)"
       cx="31.410999"
       cy="20.34"
       r="7.9889998" />
    <linearGradient
       inkscape:collect="always"
       xlink:href="#linearGradient8420"
       id="linearGradient4474"
       gradientUnits="userSpaceOnUse"
       gradientTransform="matrix(0.71891,0,0,0.71891,-1.8971,-20.686)"
       x1="48.25"
       y1="52"
       x2="48.25"
       y2="74.5" />
    <linearGradient
       inkscape:collect="always"
       xlink:href="#linearGradient2366"
       id="linearGradient4984"
       gradientUnits="userSpaceOnUse"
       gradientTransform="matrix(2.625,0,0,2.625,0,3.25)"
       x1="20.562"
       y1="37"
       x2="20.278999"
       y2="20" />
  </defs>
  <path
     id="path3087"
     style="opacity:0.5;fill:url(#radialGradient3213)"
     d="M 126,106.9375 C 126,116.36125 97.794375,124 63,124 28.205625,124 0,116.36125 0,106.9375 1.3125e-7,97.51375 28.205625,89.875 63,89.875 c 34.794375,0 63,7.63928 63,17.0625 z"
     inkscape:connector-curvature="0" />
  <rect
     id="rect2315"
     style="fill:url(#linearGradient3208);stroke:url(#linearGradient3210);stroke-width:2.61457872;stroke-linecap:round;stroke-linejoin:round"
     rx="1.4799488"
     ry="1.90008"
     height="57.760498"
     width="76.135498"
     y="25.557253"
     x="24.931988" />
  <path
     id="rect2313"
     style="fill:url(#linearGradient3203);stroke:url(#linearGradient4984);stroke-width:2.62500000000000000;stroke-linecap:round;stroke-linejoin:round"
     d="M 12.019875,57.0625 H 24.9375 l 2.625,2.625 h 70.875 l 2.625,-2.625 h 12.91763 c 3.02321,0 5.45737,2.433953 5.45737,5.457375 V 99.0625 H 6.5625 V 62.519875 c 0,-3.023212 2.4339525,-5.457375 5.457375,-5.457375 z"
     inkscape:connector-curvature="0" />
  <path
     id="rect2374"
     style="opacity:0.9;fill:none;stroke:url(#radialGradient3200);stroke-width:2.625;stroke-linecap:round"
     d="m 11.8125,59.6875 h 102.375 c 1.3619,0 2.625,1.263097 2.625,2.625 v 34.125 H 9.1875 v -34.125 c 0,-1.361903 1.263098,-2.625 2.625,-2.625 z"
     inkscape:connector-curvature="0" />
  <path
     id="rect2594"
     style="fill:url(#linearGradient3195);stroke:url(#linearGradient3197);stroke-width:2.62494755;stroke-linejoin:round"
     d="m 30.1875,4.5625 h 45.11325 c 2.638125,0.8917125 16.810238,11.050725 20.510962,18.084675 V 62.31355 h -65.625 v -57.75 z"
     inkscape:connector-curvature="0" />
  <path
     id="path8596"
     style="fill-opacity:0.32663;fill-rule:evenodd;stroke:#000000;stroke-width:2.64468765;stroke-linejoin:round;stroke-opacity:0.16583001"
     d="m 73.954125,4.5722125 c 1.211779,8.2194005 1.158465,18.0014625 1.158465,18.0014625 0,0 9.256537,-0.22218 20.691038,1.183429 -9.310875,-9.539775 -15.834,-13.517438 -21.8505,-19.1848128 z"
     inkscape:connector-curvature="0" />
  <path
     id="path12038"
     style="fill:url(#linearGradient3191);fill-rule:evenodd"
     d="m 73.5,3.25 c 2.908762,8.784825 2.667525,17.603513 2.667525,17.603513 0,0 16.133513,1.166287 20.957475,3.396487 0,-3.646387 -19.1499,-20.9377875 -23.625,-21 z"
     inkscape:connector-curvature="0" />
  <rect
     id="rect2319"
     style="fill:url(#linearGradient3186);stroke:url(#linearGradient3188);stroke-width:2.625;stroke-linecap:round"
     height="28.875"
     width="70.875"
     y="59.6875"
     x="27.5625" />
  <path
     id="rect6333"
     style="fill:url(#linearGradient3181);stroke:url(#linearGradient3183);stroke-width:2.625;stroke-linecap:square"
     d="m 9.1875,99.0625 c 0.2102625,2.72213 -0.544425,5.649 0.6657,8.169 2.2701,3.19987 6.484012,2.14725 9.8343,2.331 0.06046,1.88869 -0.560333,4.80428 2.028442,5.20616 27.34725,0.10238 54.702375,0.0157 82.054878,0.0438 2.8224,0.0835 2.63419,-3.05025 2.54297,-5.03895 0.92179,-0.48985 2.75073,-0.0725 4.02386,-0.21105 3.14974,0.42811 7.00114,-1.73205 6.47614,-5.32376 V 99.0625 H 9.1887862 z"
     inkscape:connector-curvature="0" />
  <rect
     id="rect2459"
     style="opacity:0.3;fill:none;stroke:url(#radialGradient3178);stroke-width:2.625;stroke-linecap:round"
     height="23.625"
     width="65.625"
     y="62.3125"
     x="30.1875" />
  <path
     id="path2726"
     style="fill:none;stroke:url(#linearGradient3175);stroke-width:1.96843505;stroke-linecap:round;stroke-linejoin:round"
     d="m 111.89063,88.5625 c 0,1.631385 -1.32245,2.953913 -2.95365,2.953913 -1.63131,0 -2.95365,-1.322502 -2.95365,-2.953913 0,-1.631385 1.32244,-2.953912 2.95365,-2.953912 1.6313,0 2.95365,1.322501 2.95365,2.953912 z"
     inkscape:connector-curvature="0" />
  <path
     id="rect6331"
     style="fill:url(#linearGradient3169)"
     d="m 105,103 v 9.1875 c 0,0.72713 -0.58537,1.3125 -1.3125,1.3125 H 22.3125 C 21.585375,113.5 21,112.91463 21,112.1875 V 103 h 84 z"
     inkscape:connector-curvature="0" />
  <rect
     id="rect6329"
     style="fill:url(#linearGradient3166)"
     height="5.25"
     width="73.5"
     y="103"
     x="26.25" />
  <g
     id="g7038"
     transform="matrix(1.3310641,0,0,-1.3318627,59.235355,133.91575)">
    <path
       id="path6659"
       style="fill:url(#linearGradient8408);stroke:url(#linearGradient4468);stroke-linecap:round"
       d="m 35.127,7.3501 c -3.0579,0.087289 -5.4844,1.0561 -5.4844,2.2243 l 0,3.5701 c 0,1.2257 2.6709,2.2243 5.9414,2.2243 3.2705,0 5.916,-0.99863 5.916,-2.2243 l 0,-3.5701 C 41.5,8.669136 40.056922,7.8877515 37.98478,7.5410665 37.251304,7.4183505 36.43901,7.3501 35.584,7.3501 c -0.1533,0 -0.30665,-0.00429 -0.45703,0 z"
       inkscape:connector-curvature="0"
       sodipodi:nodetypes="cssssssscc" />
    <path
       id="path6729"
       style="fill:#cd8033"
       d="m 57.375,49.75 c 0,0.82843 -2.4065,1.5 -5.375,1.5 -2.9685,0 -5.375,-0.67157 -5.375,-1.5 0,-0.82843 2.4065,-1.5 5.375,-1.5 2.9685,0 5.375,0.67157 5.375,1.5 z"
       transform="matrix(0.88628,0,0,0.46891,-10.444,-9.7189)"
       inkscape:connector-curvature="0" />
    <path
       id="path6617"
       style="fill:url(#linearGradient8410);stroke:#787878;stroke-linecap:round"
       d="m 27.926,39.155 1.047,-21.349 2.4866,-3.6635 c 1.9713,-0.63544 6.7264,-0.63544 8.5069,0 l 2.4866,3.0319 2.6175,22.486 -17.145,-0.50531 z"
       inkscape:connector-curvature="0" />
    <path
       id="path6619"
       style="fill:url(#linearGradient4470)"
       d="m 28.828,38.896 c 0,0 2.5907,-9.5315 7.5402,-9.5315 5.1066,0 8.1685,9.9128 8.1685,9.9128 l -15.709,-0.381 z"
       inkscape:connector-curvature="0" />
    <path
       id="path6641"
       style="fill:url(#linearGradient8414)"
       d="m 29.377,20.499 -0.28967,6.4747 c 1.6274,-1.0784 11.739,-1.2645 14.041,0.38765 l -0.687,-6.598 c -1.368,-0.953 -10.359,-1.478 -13.064,-0.265 z"
       inkscape:connector-curvature="0" />
    <path
       id="path6670"
       style="opacity:0.6;fill:none;stroke:url(#radialGradient4472);stroke-linecap:round"
       d="m 29.049,38.222 0.8775,-20.194 1.84,-3.0328 c 1.8186,-0.59218 6.2053,-0.59218 7.8478,0 l 1.961,2.533 2.452,21.248 -14.978,-0.554 z"
       inkscape:connector-curvature="0" />
    <rect
       id="rect5742"
       style="fill:url(#linearGradient8418);stroke:#787878;stroke-linecap:round"
       rx="0.88388002"
       ry="0.88388002"
       height="3.9277999"
       width="19.974001"
       y="37.535999"
       x="26.513" />
    <path
       id="path6668"
       style="fill:#f0f0f0"
       d="m 29.395,17.996 c 1.8745,-1.3662 9.0979,-1.6552 12.72,-0.6067 l -2.3374,-2.8856 c -2.4782,-0.66721 -5.9243,-0.37577 -8.2755,0.06904 l -2.1071,3.4233 z"
       inkscape:connector-curvature="0" />
    <path
       id="path6833"
       style="opacity:0.6;fill:url(#linearGradient4474)"
       d="m 31.173,17.416 v 15.457 l 3.2351,-3.5946 -0.35946,-12.581 -2.8757,0.71891 z"
       inkscape:connector-curvature="0" />
    <g
       id="g7033"
       style="opacity:0.57778003">
      <path
         id="path6666"
         style="opacity:0.41111001;fill:#e6e7e6"
         d="m 31.009,9.381 v 3.24 c 0,0 0.61119,-0.34769 0.99061,-0.36132 v -3.26 C 31.51804,9.069143 31.009,9.38065 31.009,9.38065 z"
         inkscape:connector-curvature="0" />
      <path
         id="path7029"
         style="fill:#e6e7e6"
         d="M 33.009,8.76 V 12 c 0,0 0.61119,-0.08252 0.99061,-0.09616 V 8.58894 C 33.48801,8.614745 33.009,8.75999 33.009,8.75999 z"
         inkscape:connector-curvature="0" />
      <path
         id="path7031"
         style="opacity:0.44444;fill:#e6e7e6"
         d="m 35.009,8.5611 v 3.2953 c 0,0 0.55595,-0.0052 0.99061,0.01433 v -3.337 C 35.49906,8.482195 35.009,8.56115 35.009,8.56115 z"
         inkscape:connector-curvature="0" />
    </g>
  </g>
  <g
     transform="matrix(1.3310641,0,0,-1.3318627,29.235355,133.91575)"
     id="g4336">
    <path
       inkscape:connector-curvature="0"
       d="m 35.127,7.3501 c -3.0579,0.087289 -5.4844,1.0561 -5.4844,2.2243 v 3.5701 c 0,1.2257 2.6709,2.2243 5.9414,2.2243 3.2705,0 5.916,-0.99863 5.916,-2.2243 V 9.5744 c 0,-1.2257 -2.6455,-2.2243 -5.916,-2.2243 -0.1533,0 -0.30665,-0.00429 -0.45703,0 z"
       style="fill:url(#linearGradient4364);stroke:url(#linearGradient4366);stroke-linecap:round;fill-opacity:1.0"
       id="path4338" />
    <path
       inkscape:connector-curvature="0"
       transform="matrix(0.88628,0,0,0.46891,-10.444,-9.7189)"
       d="m 57.375,49.75 c 0,0.82843 -2.4065,1.5 -5.375,1.5 -2.9685,0 -5.375,-0.67157 -5.375,-1.5 0,-0.82843 2.4065,-1.5 5.375,-1.5 2.9685,0 5.375,0.67157 5.375,1.5 z"
       style="fill:#ff0051;fill-opacity:1"
       id="path4340" />
    <path
       inkscape:connector-curvature="0"
       d="m 27.926,39.155 1.047,-21.349 2.4866,-3.6635 c 1.9713,-0.63544 6.7264,-0.63544 8.5069,0 l 2.4866,3.0319 2.6175,22.486 -17.145,-0.50531 z"
       style="fill:url(#linearGradient4368);stroke:#787878;stroke-linecap:round"
       id="path4342" />
    <path
       inkscape:connector-curvature="0"
       d="m 28.828,38.896 c 0,0 2.5907,-9.5315 7.5402,-9.5315 5.1066,0 8.1685,9.9128 8.1685,9.9128 l -15.709,-0.381 z"
       style="fill:url(#linearGradient4370)"
       id="path4344" />
    <path
       inkscape:connector-curvature="0"
       d="m 29.377,20.499 -0.28967,6.4747 c 1.6274,-1.0784 11.739,-1.2645 14.041,0.38765 l -0.687,-6.598 c -1.368,-0.953 -10.359,-1.478 -13.064,-0.265 z"
       style="fill:url(#linearGradient4372);fill-opacity:1.0"
       id="path4346" />
    <path
       inkscape:connector-curvature="0"
       d="m 29.049,38.222 0.8775,-20.194 1.84,-3.0328 c 1.8186,-0.59218 6.2053,-0.59218 7.8478,0 l 1.961,2.533 2.452,21.248 -14.978,-0.554 z"
       style="opacity:0.6;fill:none;stroke:url(#radialGradient4374);stroke-linecap:round"
       id="path4348" />
    <rect
       x="26.513"
       y="37.535999"
       width="19.974001"
       height="3.9277999"
       ry="0.88388002"
       rx="0.88388002"
       style="fill:url(#linearGradient4376);stroke:#787878;stroke-linecap:round"
       id="rect4350" />
    <path
       inkscape:connector-curvature="0"
       d="m 29.395,17.996 c 1.8745,-1.3662 9.0979,-1.6552 12.72,-0.6067 l -2.3374,-2.8856 c -2.4782,-0.66721 -5.9243,-0.37577 -8.2755,0.06904 l -2.1071,3.4233 z"
       style="fill:#f0f0f0"
       id="path4352" />
    <path
       inkscape:connector-curvature="0"
       d="m 31.173,17.416 v 15.457 l 3.2351,-3.5946 -0.35946,-12.581 -2.8757,0.71891 z"
       style="opacity:0.6;fill:url(#linearGradient4378)"
       id="path4354" />
    <g
       style="opacity:0.57778003"
       id="g4356">
      <path
         inkscape:connector-curvature="0"
         d="m 31.009,9.381 v 3.24 c 0,0 0.61119,-0.34769 0.99061,-0.36132 v -3.26 C 31.51804,9.069143 31.009,9.38065 31.009,9.38065 z"
         style="opacity:0.41111001;fill:#e6e7e6"
         id="path4358" />
      <path
         inkscape:connector-curvature="0"
         d="M 33.009,8.76 V 12 c 0,0 0.61119,-0.08252 0.99061,-0.09616 V 8.58894 C 33.48801,8.614745 33.009,8.75999 33.009,8.75999 z"
         style="fill:#e6e7e6"
         id="path4360" />
      <path
         inkscape:connector-curvature="0"
         d="m 35.009,8.5611 v 3.2953 c 0,0 0.55595,-0.0052 0.99061,0.01433 v -3.337 C 35.49906,8.482195 35.009,8.56115 35.009,8.56115 z"
         style="opacity:0.44444;fill:#e6e7e6"
         id="path4362" />
    </g>
  </g>
  <g
     id="g4380"
     transform="matrix(1.3310641,0,0,-1.3318627,-0.764645,133.91575)">
    <path
       id="path4382"
       style="fill:url(#linearGradient4408);stroke:url(#linearGradient4410);stroke-linecap:round;fill-opacity:1.0"
       d="m 35.127,7.3501 c -3.0579,0.087289 -5.4844,1.0561 -5.4844,2.2243 v 3.5701 c 0,1.2257 2.6709,2.2243 5.9414,2.2243 3.2705,0 5.916,-0.99863 5.916,-2.2243 V 9.5744 c 0,-1.2257 -2.6455,-2.2243 -5.916,-2.2243 -0.1533,0 -0.30665,-0.00429 -0.45703,0 z"
       inkscape:connector-curvature="0" />
    <path
       id="path4384"
       style="fill:#cd8033;stroke:#002dff;stroke-opacity:1"
       d="m 57.375,49.75 c 0,0.82843 -2.4065,1.5 -5.375,1.5 -2.9685,0 -5.375,-0.67157 -5.375,-1.5 0,-0.82843 2.4065,-1.5 5.375,-1.5 1.365667,0 2.612387,0.142137 3.560563,0.376294 0.257613,0.06362 0.493189,0.13403 0.703124,0.210229 C 56.960633,49.089489 57.375,49.40624 57.375,49.75 z"
       transform="matrix(0.88628,0,0,0.46891,-10.444,-9.7189)"
       inkscape:connector-curvature="0"
       sodipodi:nodetypes="sssssss" />
    <path
       id="path4386"
       style="fill:url(#linearGradient4412);stroke:#787878;stroke-linecap:round"
       d="m 27.926,39.155 1.047,-21.349 2.4866,-3.6635 c 1.9713,-0.63544 6.7264,-0.63544 8.5069,0 l 2.4866,3.0319 2.6175,22.486 -17.145,-0.50531 z"
       inkscape:connector-curvature="0" />
    <path
       id="path4388"
       style="fill:url(#linearGradient4414)"
       d="m 28.828,38.896 c 0,0 2.5907,-9.5315 7.5402,-9.5315 5.1066,0 8.1685,9.9128 8.1685,9.9128 l -15.709,-0.381 z"
       inkscape:connector-curvature="0" />
    <path
       id="path4390"
       style="fill:url(#linearGradient4416);fill-opacity:1.0"
       d="m 29.377,20.499 -0.28967,6.4747 c 1.6274,-1.0784 11.739,-1.2645 14.041,0.38765 l -0.687,-6.598 c -1.368,-0.953 -10.359,-1.478 -13.064,-0.265 z"
       inkscape:connector-curvature="0" />
    <path
       id="path4392"
       style="opacity:0.6;fill:none;stroke:url(#radialGradient4418);stroke-linecap:round"
       d="m 29.049,38.222 0.8775,-20.194 1.84,-3.0328 c 1.8186,-0.59218 6.2053,-0.59218 7.8478,0 l 1.961,2.533 2.452,21.248 -14.978,-0.554 z"
       inkscape:connector-curvature="0" />
    <rect
       id="rect4394"
       style="fill:url(#linearGradient4420);stroke:#787878;stroke-linecap:round"
       rx="0.88388002"
       ry="0.88388002"
       height="3.9277999"
       width="19.974001"
       y="37.535999"
       x="26.513" />
    <path
       id="path4396"
       style="fill:#f0f0f0"
       d="m 29.395,17.996 c 1.8745,-1.3662 9.0979,-1.6552 12.72,-0.6067 l -2.3374,-2.8856 c -2.4782,-0.66721 -5.9243,-0.37577 -8.2755,0.06904 l -2.1071,3.4233 z"
       inkscape:connector-curvature="0" />
    <path
       id="path4398"
       style="opacity:0.6;fill:url(#linearGradient4422)"
       d="m 31.173,17.416 v 15.457 l 3.2351,-3.5946 -0.35946,-12.581 -2.8757,0.71891 z"
       inkscape:connector-curvature="0" />
    <g
       id="g4400"
       style="opacity:0.57778003">
      <path
         id="path4402"
         style="opacity:0.41111001;fill:#e6e7e6"
         d="m 31.009,9.381 v 3.24 c 0,0 0.61119,-0.34769 0.99061,-0.36132 v -3.26 C 31.51804,9.069143 31.009,9.38065 31.009,9.38065 z"
         inkscape:connector-curvature="0" />
      <path
         id="path4404"
         style="fill:#e6e7e6"
         d="M 33.009,8.76 V 12 c 0,0 0.61119,-0.08252 0.99061,-0.09616 V 8.58894 C 33.48801,8.614745 33.009,8.75999 33.009,8.75999 z"
         inkscape:connector-curvature="0" />
      <path
         id="path4406"
         style="opacity:0.44444;fill:#e6e7e6"
         d="m 35.009,8.5611 v 3.2953 c 0,0 0.55595,-0.0052 0.99061,0.01433 v -3.337 C 35.49906,8.482195 35.009,8.56115 35.009,8.56115 z"
         inkscape:connector-curvature="0" />
    </g>
  </g>
  <g
     transform="matrix(1.3310641,0,0,-1.3318627,-30.764645,133.91575)"
     id="g4424">
    <path
       inkscape:connector-curvature="0"
       d="m 35.127,7.3501 c -3.0579,0.087289 -5.4844,1.0561 -5.4844,2.2243 v 3.5701 c 0,1.2257 2.6709,2.2243 5.9414,2.2243 3.2705,0 5.916,-0.99863 5.916,-2.2243 V 9.5744 c 0,-1.2257 -2.6455,-2.2243 -5.916,-2.2243 -0.1533,0 -0.30665,-0.00429 -0.45703,0 z"
       style="fill:url(#linearGradient4452);stroke:url(#linearGradient4454);stroke-linecap:round;fill-opacity:1;stroke-width:0.99965201;stroke-miterlimit:4;stroke-dasharray:none"
       id="path4426" />
    <path
       inkscape:connector-curvature="0"
       transform="matrix(0.88628,0,0,0.46891,-10.444,-9.7189)"
       d="m 57.375,49.75 c 0,0.82843 -2.4065,1.5 -5.375,1.5 -2.9685,0 -5.375,-0.67157 -5.375,-1.5 0,-0.82843 2.4065,-1.5 5.375,-1.5 1.634708,0 3.098988,0.203656 4.084812,0.525013 C 56.889166,49.037215 57.375,49.377774 57.375,49.75 z"
       style="fill:#cd8033;stroke:#000000;stroke-opacity:1"
       id="path4428"
       sodipodi:nodetypes="ssssss" />
    <path
       inkscape:connector-curvature="0"
       d="m 27.926,39.155 1.047,-21.349 2.4866,-3.6635 c 1.9713,-0.63544 6.7264,-0.63544 8.5069,0 l 2.4866,3.0319 2.6175,22.486 -17.145,-0.50531 z"
       style="fill:url(#linearGradient4456);stroke:#787878;stroke-linecap:round"
       id="path4430" />
    <path
       inkscape:connector-curvature="0"
       d="m 28.828,38.896 c 0,0 2.5907,-9.5315 7.5402,-9.5315 5.1066,0 8.1685,9.9128 8.1685,9.9128 l -15.709,-0.381 z"
       style="fill:url(#linearGradient4458)"
       id="path4432" />
    <path
       inkscape:connector-curvature="0"
       d="m 29.377,20.499 -0.28967,6.4747 c 1.6274,-1.0784 11.739,-1.2645 14.041,0.38765 l -0.687,-6.598 c -1.368,-0.953 -10.359,-1.478 -13.064,-0.265 z"
       style="fill:url(#linearGradient4460);fill-opacity:1.0"
       id="path4434" />
    <path
       inkscape:connector-curvature="0"
       d="m 29.049,38.222 0.8775,-20.194 1.84,-3.0328 c 1.8186,-0.59218 6.2053,-0.59218 7.8478,0 l 1.961,2.533 2.452,21.248 -14.978,-0.554 z"
       style="opacity:0.6;fill:none;stroke:url(#radialGradient4462);stroke-linecap:round"
       id="path4436" />
    <rect
       x="26.513"
       y="37.535999"
       width="19.974001"
       height="3.9277999"
       ry="0.88388002"
       rx="0.88388002"
       style="fill:url(#linearGradient4464);stroke:#787878;stroke-linecap:round"
       id="rect4438" />
    <path
       inkscape:connector-curvature="0"
       d="m 29.395,17.996 c 1.8745,-1.3662 9.0979,-1.6552 12.72,-0.6067 l -2.3374,-2.8856 c -2.4782,-0.66721 -5.9243,-0.37577 -8.2755,0.06904 l -2.1071,3.4233 z"
       style="fill:#f0f0f0"
       id="path4440" />
    <path
       inkscape:connector-curvature="0"
       d="m 31.173,17.416 v 15.457 l 3.2351,-3.5946 -0.35946,-12.581 -2.8757,0.71891 z"
       style="opacity:0.6;fill:url(#linearGradient4466)"
       id="path4442" />
    <g
       style="opacity:0.57778003"
       id="g4444">
      <path
         inkscape:connector-curvature="0"
         d="m 31.009,9.381 v 3.24 c 0,0 0.61119,-0.34769 0.99061,-0.36132 v -3.26 C 31.51804,9.069143 31.009,9.38065 31.009,9.38065 z"
         style="opacity:0.41111001;fill:#e6e7e6"
         id="path4446" />
      <path
         inkscape:connector-curvature="0"
         d="M 33.009,8.76 V 12 c 0,0 0.61119,-0.08252 0.99061,-0.09616 V 8.58894 C 33.48801,8.614745 33.009,8.75999 33.009,8.75999 z"
         style="fill:#e6e7e6"
         id="path4448" />
      <path
         inkscape:connector-curvature="0"
         d="m 35.009,8.5611 v 3.2953 c 0,0 0.55595,-0.0052 0.99061,0.01433 v -3.337 C 35.49906,8.482195 35.009,8.56115 35.009,8.56115 z"
         style="opacity:0.44444;fill:#e6e7e6"
         id="path4450" />
    </g>
  </g>
</svg>
