<?xml version="1.0" encoding="UTF-8" standalone="no"?>
<!-- Created with Inkscape (http://www.inkscape.org/) -->

<svg
   xmlns:dc="http://purl.org/dc/elements/1.1/"
   xmlns:cc="http://creativecommons.org/ns#"
   xmlns:rdf="http://www.w3.org/1999/02/22-rdf-syntax-ns#"
   xmlns:svg="http://www.w3.org/2000/svg"
   xmlns="http://www.w3.org/2000/svg"
   xmlns:xlink="http://www.w3.org/1999/xlink"
   xmlns:sodipodi="http://sodipodi.sourceforge.net/DTD/sodipodi-0.dtd"
   xmlns:inkscape="http://www.inkscape.org/namespaces/inkscape"
   version="1.0"
   width="128"
   height="128"
   id="svg3367"
   inkscape:version="0.48.1 r9760"
   sodipodi:docname="k3b.svg">
  <metadata
     id="metadata3314">
    <rdf:RDF>
      <cc:Work
         rdf:about="">
        <dc:format>image/svg+xml</dc:format>
        <dc:type
           rdf:resource="http://purl.org/dc/dcmitype/StillImage" />
        <dc:title></dc:title>
      </cc:Work>
    </rdf:RDF>
  </metadata>
  <sodipodi:namedview
     pagecolor="#ffffff"
     bordercolor="#666666"
     borderopacity="1"
     objecttolerance="10"
     gridtolerance="10"
     guidetolerance="10"
     inkscape:pageopacity="0"
     inkscape:pageshadow="2"
     inkscape:window-width="1920"
     inkscape:window-height="1027"
     id="namedview3312"
     showgrid="false"
     inkscape:zoom="6.5546875"
     inkscape:cx="11.484572"
     inkscape:cy="64"
     inkscape:window-x="0"
     inkscape:window-y="24"
     inkscape:window-maximized="1"
     inkscape:current-layer="svg3367" />
  <defs
     id="defs3369">
    <linearGradient
       id="linearGradient3924">
      <stop
         id="stop3926"
         offset="0"
         style="stop-color:#b41616;stop-opacity:1;" />
      <stop
         id="stop3928"
         offset="1"
         style="stop-color:#f37a7a;stop-opacity:1" />
    </linearGradient>
    <linearGradient
       id="linearGradient4388">
      <stop
         style="stop-color:#b41616;stop-opacity:1;"
         offset="0"
         id="stop4390" />
      <stop
         style="stop-color:#b41616;stop-opacity:0.47928995;"
         offset="1"
         id="stop4392" />
    </linearGradient>
    <linearGradient
       id="linearGradient4178">
      <stop
         style="stop-color:#fa830c;stop-opacity:1;"
         offset="0"
         id="stop4180" />
      <stop
         style="stop-color:#fa9c0c;stop-opacity:0.62721896;"
         offset="1"
         id="stop4182" />
    </linearGradient>
    <linearGradient
       id="linearGradient4162">
      <stop
         style="stop-color:#e7342c;stop-opacity:0.74556214;"
         offset="0"
         id="stop4164" />
      <stop
         style="stop-color:#a3120b;stop-opacity:0.147929;"
         offset="1"
         id="stop4166" />
    </linearGradient>
    <linearGradient
       id="linearGradient3607">
      <stop
         id="stop3609"
         style="stop-color:#ffffff;stop-opacity:1"
         offset="0" />
      <stop
         id="stop3611"
         style="stop-color:#ffffff;stop-opacity:0"
         offset="1" />
    </linearGradient>
    <linearGradient
       x1="83.216866"
       y1="54.000008"
       x2="83.216866"
       y2="122.16803"
       id="linearGradient2887"
       xlink:href="#linearGradient3607"
       gradientUnits="userSpaceOnUse"
       gradientTransform="matrix(1.0057697,0,0,0.9939186,8.492263,3.3302155)" />
    <linearGradient
       id="linearGradient2490">
      <stop
         id="stop2492"
         style="stop-color:#365f0e;stop-opacity:1"
         offset="0" />
      <stop
         id="stop2494"
         style="stop-color:#84a718;stop-opacity:1"
         offset="1" />
    </linearGradient>
    <linearGradient
       x1="72.421684"
       y1="122.00002"
       x2="72.421684"
       y2="53.997635"
       id="linearGradient2892"
       xlink:href="#linearGradient2490"
       gradientUnits="userSpaceOnUse"
       gradientTransform="translate(8.9999991,2.9999863)" />
    <linearGradient
       id="linearGradient3242">
      <stop
         id="stop3244"
         style="stop-color:#eef87e;stop-opacity:1"
         offset="0" />
      <stop
         id="stop3246"
         style="stop-color:#cde34f;stop-opacity:1"
         offset="0.26238" />
      <stop
         id="stop3248"
         style="stop-color:#93b723;stop-opacity:1"
         offset="0.66093999" />
      <stop
         id="stop3250"
         style="stop-color:#5a7e0d;stop-opacity:1"
         offset="1" />
    </linearGradient>
    <radialGradient
       cx="69.447609"
       cy="51.694645"
       r="31.000002"
       fx="69.447609"
       fy="51.694645"
       id="radialGradient2890"
       xlink:href="#linearGradient3242"
       gradientUnits="userSpaceOnUse"
       gradientTransform="matrix(0,2.3878793,-2.6189646,0,224.25002,-100.52605)" />
    <linearGradient
       id="linearGradient23419">
      <stop
         id="stop23421"
         style="stop-color:#000000;stop-opacity:1"
         offset="0" />
      <stop
         id="stop23423"
         style="stop-color:#000000;stop-opacity:0"
         offset="1" />
    </linearGradient>
    <linearGradient
       id="linearGradient3772">
      <stop
         id="stop3774"
         style="stop-color:#b4b4b4;stop-opacity:1"
         offset="0" />
      <stop
         id="stop3776"
         style="stop-color:#969696;stop-opacity:1"
         offset="1" />
    </linearGradient>
    <linearGradient
       x1="12.2744"
       y1="32.4165"
       x2="35.391201"
       y2="14.2033"
       id="linearGradient3263"
       gradientUnits="userSpaceOnUse">
      <stop
         id="stop3265"
         style="stop-color:#dedbde;stop-opacity:1"
         offset="0" />
      <stop
         id="stop3267"
         style="stop-color:#e6e6e6;stop-opacity:1"
         offset="0.5" />
      <stop
         id="stop3269"
         style="stop-color:#d2d2d2;stop-opacity:1"
         offset="1" />
    </linearGradient>
    <linearGradient
       id="linearGradient3428">
      <stop
         id="stop3430"
         style="stop-color:#aaaaaa;stop-opacity:1"
         offset="0" />
      <stop
         id="stop3432"
         style="stop-color:#d4d4d4;stop-opacity:1"
         offset="1" />
    </linearGradient>
    <linearGradient
       id="linearGradient6036">
      <stop
         id="stop6038"
         style="stop-color:#ffffff;stop-opacity:1"
         offset="0" />
      <stop
         id="stop6040"
         style="stop-color:#ffffff;stop-opacity:0"
         offset="1" />
    </linearGradient>
    <linearGradient
       id="linearGradient3519">
      <stop
         id="stop3521"
         style="stop-color:#fcd9cd;stop-opacity:1"
         offset="0" />
      <stop
         id="stop3523"
         style="stop-color:#fcd9cd;stop-opacity:0"
         offset="1" />
    </linearGradient>
    <linearGradient
       id="linearGradient3511">
      <stop
         id="stop3513"
         style="stop-color:#ebeec7;stop-opacity:1"
         offset="0" />
      <stop
         id="stop3515"
         style="stop-color:#ebeec7;stop-opacity:0"
         offset="1" />
    </linearGradient>
    <linearGradient
       id="linearGradient3503">
      <stop
         id="stop3505"
         style="stop-color:#c4ebdd;stop-opacity:1"
         offset="0" />
      <stop
         id="stop3507"
         style="stop-color:#c4ebdd;stop-opacity:0"
         offset="1" />
    </linearGradient>
    <linearGradient
       id="linearGradient3495">
      <stop
         id="stop3497"
         style="stop-color:#c1cbe4;stop-opacity:1"
         offset="0" />
      <stop
         id="stop3499"
         style="stop-color:#c1cbe4;stop-opacity:0"
         offset="1" />
    </linearGradient>
    <linearGradient
       id="linearGradient3487">
      <stop
         id="stop3489"
         style="stop-color:#e6cde2;stop-opacity:1"
         offset="0" />
      <stop
         id="stop3491"
         style="stop-color:#e6cde2;stop-opacity:0"
         offset="1" />
    </linearGradient>
    <radialGradient
       cx="23.334524"
       cy="41.63604"
       r="22.627417"
       fx="23.334524"
       fy="41.63604"
       id="radialGradient2584"
       xlink:href="#linearGradient23419"
       gradientUnits="userSpaceOnUse"
       gradientTransform="matrix(2.6516504,0,0,0.7954211,2.1249955,72.881817)" />
    <linearGradient
       x1="10.50172"
       y1="3.6100161"
       x2="48.798885"
       y2="54.698483"
       id="linearGradient2642"
       xlink:href="#linearGradient6036"
       gradientUnits="userSpaceOnUse"
       gradientTransform="matrix(2.7528548,0,0,2.7528545,-3.0237572,-4.8213527)" />
    <linearGradient
       x1="18.775953"
       y1="4.0378027"
       x2="18.203465"
       y2="45.962208"
       id="linearGradient2651"
       xlink:href="#linearGradient6036"
       gradientUnits="userSpaceOnUse"
       gradientTransform="matrix(1.0859888,0,0,1.0859883,37.559418,36.850296)" />
    <linearGradient
       x1="21.448364"
       y1="15.5"
       x2="21.448364"
       y2="32.509201"
       id="linearGradient2654"
       xlink:href="#linearGradient3428"
       gradientUnits="userSpaceOnUse"
       gradientTransform="matrix(2.5381093,0,0,2.5381093,3.0853666,3.0853861)" />
    <linearGradient
       x1="12.2744"
       y1="32.4165"
       x2="35.391201"
       y2="14.2033"
       id="linearGradient2658"
       xlink:href="#linearGradient3263"
       gradientUnits="userSpaceOnUse"
       gradientTransform="matrix(0,3.1714559,-3.1714559,0,137.26064,-12.114951)" />
    <linearGradient
       x1="-21.915663"
       y1="3"
       x2="-21.915663"
       y2="45.032898"
       id="linearGradient2660"
       xlink:href="#linearGradient4162"
       gradientUnits="userSpaceOnUse"
       gradientTransform="matrix(2.7073165,0,0,2.7073165,135.10782,-0.9755887)" />
    <linearGradient
       x1="20.580074"
       y1="10.774516"
       x2="24.27351"
       y2="9.8622112"
       id="linearGradient2672"
       xlink:href="#linearGradient3487"
       gradientUnits="userSpaceOnUse"
       spreadMethod="reflect" />
    <linearGradient
       x1="17.494959"
       y1="11.200086"
       x2="21.047453"
       y2="9.7956104"
       id="linearGradient2674"
       xlink:href="#linearGradient3495"
       gradientUnits="userSpaceOnUse"
       spreadMethod="reflect" />
    <linearGradient
       x1="14.084608"
       y1="13.045606"
       x2="16.994024"
       y2="10.732353"
       id="linearGradient2676"
       xlink:href="#linearGradient3503"
       gradientUnits="userSpaceOnUse"
       spreadMethod="reflect" />
    <linearGradient
       x1="12.371647"
       y1="16.188046"
       x2="14.609327"
       y2="13.461712"
       id="linearGradient2678"
       xlink:href="#linearGradient3511"
       gradientUnits="userSpaceOnUse"
       spreadMethod="reflect" />
    <linearGradient
       x1="10.609375"
       y1="17.886322"
       x2="9.7297754"
       y2="20.612656"
       id="linearGradient2680"
       xlink:href="#linearGradient3519"
       gradientUnits="userSpaceOnUse"
       spreadMethod="reflect" />
    <linearGradient
       x1="20.580074"
       y1="10.774516"
       x2="24.27351"
       y2="9.8622112"
       id="linearGradient2682"
       xlink:href="#linearGradient3487"
       gradientUnits="userSpaceOnUse"
       spreadMethod="reflect" />
    <linearGradient
       x1="17.494959"
       y1="11.200086"
       x2="21.047453"
       y2="9.7956104"
       id="linearGradient2684"
       xlink:href="#linearGradient3495"
       gradientUnits="userSpaceOnUse"
       spreadMethod="reflect" />
    <linearGradient
       x1="14.084608"
       y1="13.045606"
       x2="16.994024"
       y2="10.732353"
       id="linearGradient2686"
       xlink:href="#linearGradient3503"
       gradientUnits="userSpaceOnUse"
       spreadMethod="reflect" />
    <linearGradient
       x1="12.371647"
       y1="16.188046"
       x2="14.609327"
       y2="13.461712"
       id="linearGradient2688"
       xlink:href="#linearGradient3511"
       gradientUnits="userSpaceOnUse"
       spreadMethod="reflect" />
    <linearGradient
       x1="10.609375"
       y1="17.886322"
       x2="9.7297754"
       y2="20.612656"
       id="linearGradient2690"
       xlink:href="#linearGradient3519"
       gradientUnits="userSpaceOnUse"
       spreadMethod="reflect" />
    <radialGradient
       inkscape:collect="always"
       xlink:href="#linearGradient23419-8"
       id="radialGradient3250"
       gradientUnits="userSpaceOnUse"
       gradientTransform="matrix(1,0,0,0.25,0,31.227)"
       cx="23.334524"
       cy="41.63604"
       fx="23.334524"
       fy="41.63604"
       r="22.627417" />
    <linearGradient
       id="linearGradient23419-8"
       inkscape:collect="always">
      <stop
         id="stop23421-4"
         offset="0"
         style="stop-color:#000000;stop-opacity:1;" />
      <stop
         id="stop23423-3"
         offset="1"
         style="stop-color:#000000;stop-opacity:0;" />
    </linearGradient>
    <linearGradient
       id="linearGradient3297">
      <stop
         style="stop-color:#fce94f;stop-opacity:0.90494299"
         offset="0"
         id="stop3299" />
      <stop
         style="stop-color:#ffaf45;stop-opacity:1;"
         offset="1"
         id="stop3301" />
    </linearGradient>
    <linearGradient
       id="linearGradient3349">
      <stop
         style="stop-color:#f5a200;stop-opacity:1"
         offset="0"
         id="stop3351" />
      <stop
         style="stop-color:#f54e00;stop-opacity:1;"
         offset="1"
         id="stop3353" />
    </linearGradient>
    <linearGradient
       inkscape:collect="always"
       xlink:href="#linearGradient3193"
       id="linearGradient3209"
       gradientUnits="userSpaceOnUse"
       gradientTransform="matrix(1.2154022,0,0,1.2197827,63.197811,67.058165)"
       x1="24.533068"
       y1="9.1633615"
       x2="20.155373"
       y2="30.322044" />
    <linearGradient
       inkscape:collect="always"
       id="linearGradient3193">
      <stop
         style="stop-color:#ff4d19;stop-opacity:1;"
         offset="0"
         id="stop3195" />
      <stop
         style="stop-color:#ff4d19;stop-opacity:0.17490494"
         offset="1"
         id="stop3197" />
    </linearGradient>
    <linearGradient
       id="linearGradient3464">
      <stop
         style="stop-color:#fce94f;stop-opacity:0.90494299"
         offset="0"
         id="stop3466" />
      <stop
         style="stop-color:#ffaf45;stop-opacity:1;"
         offset="1"
         id="stop3468" />
    </linearGradient>
    <linearGradient
       id="linearGradient3471">
      <stop
         style="stop-color:#f5a200;stop-opacity:1"
         offset="0"
         id="stop3473" />
      <stop
         style="stop-color:#f54e00;stop-opacity:1;"
         offset="1"
         id="stop3475" />
    </linearGradient>
    <radialGradient
       r="22.627417"
       fy="41.63604"
       fx="23.334524"
       cy="41.63604"
       cx="23.334524"
       gradientTransform="matrix(1,0,0,0.25,0,31.227)"
       gradientUnits="userSpaceOnUse"
       id="radialGradient3498"
       xlink:href="#linearGradient23419-8"
       inkscape:collect="always" />
    <linearGradient
       inkscape:collect="always"
       xlink:href="#linearGradient3321"
       id="linearGradient3339"
       x1="22.803511"
       y1="8.6696863"
       x2="24.451988"
       y2="21.817261"
       gradientUnits="userSpaceOnUse" />
    <linearGradient
       id="linearGradient3321">
      <stop
         style="stop-color:#ffffff;stop-opacity:1;"
         offset="0"
         id="stop3323" />
      <stop
         style="stop-color:#ffffff;stop-opacity:0.09467456;"
         offset="1"
         id="stop3325" />
    </linearGradient>
    <linearGradient
       inkscape:collect="always"
       xlink:href="#linearGradient3321-9"
       id="linearGradient3383"
       x1="35.672604"
       y1="9.6719131"
       x2="38.559429"
       y2="36.801826"
       gradientUnits="userSpaceOnUse" />
    <linearGradient
       inkscape:collect="always"
       id="linearGradient3321-9">
      <stop
         style="stop-color:#ffffff;stop-opacity:1;"
         offset="0"
         id="stop3323-0" />
      <stop
         style="stop-color:#ffffff;stop-opacity:0.16862746"
         offset="1"
         id="stop3325-3" />
    </linearGradient>
    <linearGradient
       inkscape:collect="always"
       xlink:href="#linearGradient3321-8"
       id="linearGradient3327"
       x1="7.0854101"
       y1="20.983158"
       x2="14.014328"
       y2="42.130581"
       gradientUnits="userSpaceOnUse" />
    <linearGradient
       id="linearGradient3321-8">
      <stop
         style="stop-color:#ffffff;stop-opacity:1;"
         offset="0"
         id="stop3323-09" />
      <stop
         style="stop-color:#ffffff;stop-opacity:0;"
         offset="1"
         id="stop3325-2" />
    </linearGradient>
    <linearGradient
       inkscape:collect="always"
       xlink:href="#linearGradient3308"
       id="linearGradient3095"
       gradientUnits="userSpaceOnUse"
       x1="21.310946"
       y1="11.446488"
       x2="6.589735"
       y2="11.788887" />
    <linearGradient
       id="linearGradient3308">
      <stop
         id="stop3310"
         style="stop-color:#fc0000;stop-opacity:1"
         offset="0" />
      <stop
         id="stop3312"
         style="stop-color:#fc0000;stop-opacity:0"
         offset="1" />
    </linearGradient>
    <radialGradient
       inkscape:collect="always"
       xlink:href="#linearGradient3293"
       id="radialGradient3097"
       gradientUnits="userSpaceOnUse"
       cx="5.9628973"
       cy="10.957597"
       fx="5.9628973"
       fy="10.957597"
       r="1.5017668" />
    <linearGradient
       id="linearGradient3293">
      <stop
         id="stop3296"
         style="stop-color:#ffc64e;stop-opacity:1"
         offset="0" />
      <stop
         id="stop3839"
         style="stop-color:#f30000;stop-opacity:0.83064514"
         offset="0.30000001" />
      <stop
         id="stop3302"
         style="stop-color:#fb0000;stop-opacity:0.47580644"
         offset="0.43782738" />
      <stop
         id="stop3298"
         style="stop-color:#ffb56f;stop-opacity:0"
         offset="1" />
    </linearGradient>
    <radialGradient
       r="1.5017668"
       fy="10.957597"
       fx="5.9628973"
       cy="10.957597"
       cx="5.9628973"
       gradientUnits="userSpaceOnUse"
       id="radialGradient3333"
       xlink:href="#linearGradient3293"
       inkscape:collect="always" />
    <linearGradient
       inkscape:collect="always"
       xlink:href="#linearGradient3308"
       id="linearGradient3370"
       gradientUnits="userSpaceOnUse"
       x1="21.310946"
       y1="11.446488"
       x2="6.589735"
       y2="11.788887" />
    <radialGradient
       inkscape:collect="always"
       xlink:href="#linearGradient3293"
       id="radialGradient3372"
       gradientUnits="userSpaceOnUse"
       cx="5.9628973"
       cy="10.957597"
       fx="5.9628973"
       fy="10.957597"
       r="1.5017668" />
    <linearGradient
       inkscape:collect="always"
       xlink:href="#linearGradient4162"
       id="linearGradient4168"
       x1="62.980286"
       y1="88.868942"
       x2="63.379375"
       y2="120.29683"
       gradientUnits="userSpaceOnUse" />
    <linearGradient
       inkscape:collect="always"
       xlink:href="#linearGradient4178"
       id="linearGradient4184"
       x1="63.379375"
       y1="120.29683"
       x2="62.980286"
       y2="88.868942"
       gradientUnits="userSpaceOnUse" />
    <linearGradient
       inkscape:collect="always"
       xlink:href="#linearGradient4388"
       id="linearGradient4394"
       x1="8"
       y1="64.00001"
       x2="119.99998"
       y2="64.00001"
       gradientUnits="userSpaceOnUse"
       gradientTransform="translate(-0.30512525,-0.15256257)" />
    <linearGradient
       inkscape:collect="always"
       xlink:href="#linearGradient4162"
       id="linearGradient4396"
       gradientUnits="userSpaceOnUse"
       gradientTransform="matrix(2.7073165,0,0,2.7073165,134.8027,-1.1281513)"
       x1="-21.915663"
       y1="3"
       x2="-21.915663"
       y2="45.032898" />
    <linearGradient
       inkscape:collect="always"
       xlink:href="#linearGradient6028"
       id="linearGradient10578"
       gradientUnits="userSpaceOnUse"
       x1="28.702885"
       y1="31.494707"
       x2="17.742729"
       y2="18.366575" />
    <linearGradient
       id="linearGradient6028"
       inkscape:collect="always">
      <stop
         id="stop6030"
         offset="0"
         style="stop-color:#ffffff;stop-opacity:1;" />
      <stop
         id="stop6032"
         offset="1"
         style="stop-color:#ffffff;stop-opacity:0;" />
    </linearGradient>
    <linearGradient
       y2="18.366575"
       x2="17.742729"
       y1="31.494707"
       x1="28.702885"
       gradientUnits="userSpaceOnUse"
       id="linearGradient4441"
       xlink:href="#linearGradient6028"
       inkscape:collect="always" />
    <linearGradient
       inkscape:collect="always"
       xlink:href="#linearGradient3924"
       id="linearGradient3154"
       gradientUnits="userSpaceOnUse"
       gradientTransform="translate(-0.30512525,-0.15256257)"
       x1="24.629322"
       y1="27.690115"
       x2="103.21809"
       y2="99.089401" />
  </defs>
  <path
     d="M 124,105.99999 C 124.00309,115.94084 97.139272,124 64,124 C 30.860727,124 3.9969077,115.94084 3.999998,105.99999 C 3.9969077,96.059149 30.860727,88 64,88 C 97.139272,88 124.00309,96.059149 124,105.99999 L 124,105.99999 z"
     id="path23417"
     style="opacity:0.3;fill:url(#radialGradient2584);fill-opacity:1;fill-rule:evenodd;stroke:none;stroke-width:2;marker:none;visibility:visible;display:inline;overflow:visible" />
  <path
     d="m 119.19485,63.847445 c 0,-30.763132 -24.73686,-55.4999884 -55.499987,-55.4999884 -30.763134,0 -55.4999883,24.7368584 -55.4999883,55.4999884 -5e-6,30.76313 24.7368573,55.499995 55.4999883,55.499995 30.763124,-1e-5 55.499987,-24.736863 55.499987,-55.499995 z m -35.195113,0 c 0,11.176154 -8.905094,20.304874 -20.304874,20.304874 -11.623403,0 -20.304874,-9.354626 -20.304874,-20.304874 0,-11.173915 8.234215,-20.304874 20.304874,-20.304874 12.07066,0 20.304874,9.352343 20.304874,20.304874 l 0,0 z"
     id="path2781"
     style="fill:url(#linearGradient3154);fill-opacity:1;fill-rule:nonzero;stroke:url(#linearGradient4396);stroke-width:1;stroke-miterlimit:4;stroke-opacity:1"
     inkscape:connector-curvature="0" />
  <path
     d="M 63.999988,43.000008 C 52.407988,43.000008 42.999988,52.408008 42.999988,64.000008 C 42.999988,75.592009 52.407988,85.000008 63.999988,85.000008 C 75.591988,85.000008 84.999988,75.592009 84.999988,64.000008 C 84.999988,52.408008 75.591988,43.000008 63.999988,43.000008 L 63.999988,43.000008 z M 63.999988,53.500009 C 69.795988,53.500009 74.499988,58.204008 74.499988,64.000008 C 74.499988,69.796008 69.795988,74.500008 63.999988,74.500008 C 58.203988,74.500008 53.499988,69.796008 53.499988,64.000008 C 53.499988,58.204008 58.203988,53.500009 63.999988,53.500009 L 63.999988,53.500009 z"
     id="path2474"
     style="opacity:0.5;fill:#ffffff;fill-opacity:1;fill-rule:nonzero;stroke:none;stroke-width:1;marker:none;visibility:visible;display:inline;overflow:visible;enable-background:accumulate" />
  <path
     d="M 63.999988,43.695134 C 52.791698,43.695134 43.695114,52.791718 43.695114,64.000008 C 43.695114,75.208298 52.791698,84.304882 63.999988,84.304882 C 75.208278,84.304882 84.304862,75.208298 84.304862,64.000008 C 84.304862,52.791718 75.208278,43.695134 63.999988,43.695134 L 63.999988,43.695134 z M 63.999988,53.84757 C 69.604133,53.84757 74.152425,58.395863 74.152425,64.000008 C 74.152425,69.604153 69.604133,74.152444 63.999988,74.152444 C 58.395843,74.152444 53.847551,69.604153 53.847551,64.000008 C 53.847551,58.395863 58.395843,53.84757 63.999988,53.84757 L 63.999988,53.84757 z"
     id="path3418"
     style="fill:none;stroke:url(#linearGradient2654);stroke-width:1;stroke-linecap:butt;stroke-linejoin:round;marker:none;stroke-miterlimit:4;stroke-dasharray:none;stroke-dashoffset:0;stroke-opacity:1;visibility:visible;display:inline;overflow:visible;enable-background:accumulate" />
  <g
     transform="matrix(2.7320403,0,0,2.7320403,-1.0900842,-1.0742573)"
     id="g3527"
     style="opacity:0.3">
    <path
       d="M 15.856928,5.7307748 L 20.625,16.34375 C 21.660403,15.885186 22.795334,15.625 24,15.625 C 24.03206,15.625 24.06178,15.62464 24.09375,15.625 L 24.10801,4.0047512 C 21.16586,3.9340642 18.564969,4.6620377 15.856927,5.7307748 L 15.856928,5.7307748 z"
       transform="matrix(0.9996011,2.824295e-2,-2.824295e-2,0.9996011,0.6924114,-0.6708346)"
       id="path3296"
       style="opacity:0.80000000000000004;fill:url(#linearGradient2672);fill-opacity:1;fill-rule:nonzero;stroke:none" />
    <path
       d="M 12.121471,7.9060109 L 19.052497,17.266115 C 19.965606,16.59636 21.018435,16.099051 22.195126,15.840946 C 22.226446,15.834046 22.255386,15.827356 22.286696,15.820856 L 19.857174,4.426276 C 16.968201,4.9876004 14.537644,6.2818798 12.121471,7.9060109 L 12.121471,7.9060109 z"
       id="path3308"
       style="opacity:0.80000000000000004;fill:url(#linearGradient2674);fill-opacity:1;fill-rule:nonzero;stroke:none" />
    <path
       d="M 8.2523933,11.646535 L 17.466117,18.802353 C 18.174767,17.919089 19.063008,17.166234 20.132802,16.612373 C 20.161272,16.597633 20.187492,16.583653 20.216052,16.569273 L 14.86585,6.2506132 C 12.220599,7.5405321 10.165881,9.452393 8.2523933,11.646535 z"
       id="path3310"
       style="opacity:0.80000000000000004;fill:url(#linearGradient2676);fill-opacity:1;fill-rule:nonzero;stroke:none" />
    <path
       d="M 5.6328855,16.073974 C 12.807692,18.316222 13.483148,23.105437 18.409671,17.828101 L 10.499985,9.1321388 C 8.2787249,11.062747 6.9132871,13.459349 5.6328855,16.073974 z"
       id="path3312"
       style="opacity:0.80000000000000004;fill:url(#linearGradient2678);fill-opacity:1;fill-rule:nonzero;stroke:none" />
    <path
       d="M 7.155289,13.193173 C 5.9722117,14.945185 5.2475768,16.829547 4.6301929,18.837116 L 15.96875,21.8125 C 16.184264,21.049497 16.486796,20.297733 16.9375,19.59375 C 16.95479,19.56675 16.98246,19.52673 17,19.5 L 7.155289,13.193173 z"
       id="path3314"
       style="opacity:0.80000000000000004;fill:url(#linearGradient2680);fill-opacity:1;fill-rule:nonzero;stroke:none" />
  </g>
  <path
     d="M 64.000005,9.5000009 C 33.791433,9.5000009 9.5,33.791433 9.5,64.000001 C 9.5,94.208571 33.791433,118.5 64.000005,118.5 C 94.208577,118.5 118.5,94.208571 118.5,64.000001 C 118.5,33.791433 94.208577,9.5000009 64.000005,9.5000009 L 64.000005,9.5000009 L 64.000005,9.5000009 z"
     id="path3272"
     style="opacity:0.5;fill:none;stroke:url(#linearGradient2642);stroke-width:0.99999994;stroke-miterlimit:4;stroke-opacity:1" />
  <g
     transform="matrix(-2.7073165,0,0,-2.7073165,128.97558,128.95078)"
     id="g3297"
     style="opacity:0.3">
    <path
       d="M 15.856928,5.7307748 20.625,16.34375 C 21.660403,15.885186 22.795334,15.625 24,15.625 c 0.03206,0 0.06178,-3.6e-4 0.09375,0 L 24.10801,4.0047512 c -2.94215,-0.070687 -5.543041,0.6572865 -8.251083,1.7260236 l 10e-7,0 z"
       transform="matrix(0.9996011,0.02824295,-0.02824295,0.9996011,0.6924114,-0.6708346)"
       id="path3299"
       style="opacity:0.8;fill:url(#linearGradient2682);fill-opacity:1;fill-rule:nonzero;stroke:none"
       inkscape:connector-curvature="0" />
    <path
       d="m 12.121471,7.9060109 6.931026,9.3601041 c 0.913109,-0.669755 1.965938,-1.167064 3.142629,-1.425169 0.03132,-0.0069 0.06026,-0.01359 0.09157,-0.02009 L 19.857174,4.426276 c -2.888973,0.5613244 -5.31953,1.8556038 -7.735703,3.4797349 l 0,0 z"
       id="path3301"
       style="opacity:0.8;fill:url(#linearGradient2684);fill-opacity:1;fill-rule:nonzero;stroke:none"
       inkscape:connector-curvature="0" />
    <path
       d="m 8.2523933,11.646535 9.2137237,7.155818 c 0.70865,-0.883264 1.596891,-1.636119 2.666685,-2.18998 0.02847,-0.01474 0.05469,-0.02872 0.08325,-0.0431 L 14.86585,6.2506132 C 12.220599,7.5405321 10.165881,9.452393 8.2523933,11.646535 z"
       id="path3303"
       style="opacity:0.8;fill:url(#linearGradient2686);fill-opacity:1;fill-rule:nonzero;stroke:none"
       inkscape:connector-curvature="0" />
    <path
       d="m 5.6328855,16.073974 c 7.1748065,2.242248 7.8502625,7.031463 12.7767855,1.754127 L 10.499985,9.1321388 C 8.2787249,11.062747 6.9132871,13.459349 5.6328855,16.073974 z"
       id="path3305"
       style="opacity:0.8;fill:url(#linearGradient2688);fill-opacity:1;fill-rule:nonzero;stroke:none"
       inkscape:connector-curvature="0" />
    <path
       d="M 7.155289,13.193173 C 5.9722117,14.945185 5.2475768,16.829547 4.6301929,18.837116 L 15.96875,21.8125 C 16.184264,21.049497 16.486796,20.297733 16.9375,19.59375 16.95479,19.56675 16.98246,19.52673 17,19.5 L 7.155289,13.193173 z"
       id="path3307"
       style="opacity:0.8;fill:url(#linearGradient2690);fill-opacity:1;fill-rule:nonzero;stroke:none"
       inkscape:connector-curvature="0" />
  </g>
  <path
     d="M 63.99999,42.500008 C 52.082843,42.500008 42.499987,52.082863 42.499987,64.000008 C 42.499987,75.917153 52.082843,85.500008 63.99999,85.500008 C 75.917134,85.500008 85.499989,75.917153 85.499989,64.000008 C 85.499989,52.082863 75.917134,42.500008 63.99999,42.500008 L 63.99999,42.500008 L 63.99999,42.500008 L 63.99999,42.500008 z"
     id="path3281"
     style="opacity:0.8;fill:none;stroke:url(#linearGradient2651);stroke-width:1;stroke-miterlimit:4;stroke-opacity:1" />
  <path
     inkscape:connector-curvature="0"
     style="opacity:0.47849462;fill:none;stroke:#ffffff;stroke-width:2.08286142px;stroke-linecap:round;stroke-linejoin:miter;stroke-opacity:1"
     d="m 53.160968,28.143154 0,17.853098"
     id="path15227" />
  <path
     inkscape:connector-curvature="0"
     style="opacity:0.47849462;fill:none;stroke:#ffffff;stroke-width:2.0828619px;stroke-linecap:round;stroke-linejoin:miter;stroke-opacity:1"
     d="m 61.554544,36.623376 -16.787249,0"
     id="path15955" />
  <path
     sodipodi:type="arc"
     style="opacity:0.47849462;fill:#ffffff;fill-opacity:1;stroke:none"
     id="path15957"
     sodipodi:cx="23.385031"
     sodipodi:cy="12.518392"
     sodipodi:rx="1.0606601"
     sodipodi:ry="1.0354064"
     d="m 24.445691,12.518392 a 1.0606601,1.0354064 0 1 1 -2.12132,0 1.0606601,1.0354064 0 1 1 2.12132,0 z"
     transform="matrix(2.9456034,0,0,3.0174622,-15.72207,-1.1503084)" />
  <g
     id="g15965"
     transform="matrix(2.0828614,0,0,2.0828614,150.44268,18.666451)">
    <path
       inkscape:connector-curvature="0"
       id="path15959"
       d="m -55.675924,6.621277 0,8.571429"
       style="opacity:0.47849462;fill:none;stroke:#ffffff;stroke-width:1px;stroke-linecap:round;stroke-linejoin:miter;stroke-opacity:1" />
    <path
       inkscape:connector-curvature="0"
       id="path15961"
       d="m -51.646098,10.692706 -8.059705,0"
       style="opacity:0.47849462;fill:none;stroke:#ffffff;stroke-width:1.00000024px;stroke-linecap:round;stroke-linejoin:miter;stroke-opacity:1" />
    <path
       transform="matrix(1.41421,0,0,1.44871,-88.7473,-7.44277)"
       d="m 24.445691,12.518392 c 0,0.571839 -0.474874,1.035406 -1.06066,1.035406 -0.585787,0 -1.06066,-0.463567 -1.06066,-1.035406 0,-0.57184 0.474873,-1.035407 1.06066,-1.035407 0.585786,0 1.06066,0.463567 1.06066,1.035407 z"
       sodipodi:ry="1.0354064"
       sodipodi:rx="1.0606601"
       sodipodi:cy="12.518392"
       sodipodi:cx="23.385031"
       id="path15963"
       style="opacity:0.47849462;fill:#ffffff;fill-opacity:1;stroke:none"
       sodipodi:type="arc" />
  </g>
  <g
     transform="matrix(2.0828614,0,0,2.0828614,180.53388,-1.2695105)"
     id="g15970">
    <path
       inkscape:connector-curvature="0"
       id="path15972"
       d="m -55.675924,6.621277 0,8.571429"
       style="opacity:0.47849462;fill:none;stroke:#ffffff;stroke-width:1px;stroke-linecap:round;stroke-linejoin:miter;stroke-opacity:1" />
    <path
       inkscape:connector-curvature="0"
       id="path15974"
       d="m -51.646098,10.692706 -8.059705,0"
       style="opacity:0.47849462;fill:none;stroke:#ffffff;stroke-width:1.00000024px;stroke-linecap:round;stroke-linejoin:miter;stroke-opacity:1" />
    <path
       transform="matrix(1.41421,0,0,1.44871,-88.7473,-7.44277)"
       d="m 24.445691,12.518392 c 0,0.571839 -0.474874,1.035406 -1.06066,1.035406 -0.585787,0 -1.06066,-0.463567 -1.06066,-1.035406 0,-0.57184 0.474873,-1.035407 1.06066,-1.035407 0.585786,0 1.06066,0.463567 1.06066,1.035407 z"
       sodipodi:ry="1.0354064"
       sodipodi:rx="1.0606601"
       sodipodi:cy="12.518392"
       sodipodi:cx="23.385031"
       id="path15976"
       style="opacity:0.47849462;fill:#ffffff;fill-opacity:1;stroke:none"
       sodipodi:type="arc" />
  </g>
  <g
     transform="matrix(2.0828614,0,0,2.0828614,153.42233,37.412203)"
     id="g15978">
    <path
       inkscape:connector-curvature="0"
       id="path15980"
       d="m -55.675924,6.621277 0,8.571429"
       style="opacity:0.47849462;fill:none;stroke:#ffffff;stroke-width:1px;stroke-linecap:round;stroke-linejoin:miter;stroke-opacity:1" />
    <path
       inkscape:connector-curvature="0"
       id="path15982"
       d="m -51.646098,10.692706 -8.059705,0"
       style="opacity:0.47849462;fill:none;stroke:#ffffff;stroke-width:1.00000024px;stroke-linecap:round;stroke-linejoin:miter;stroke-opacity:1" />
    <path
       transform="matrix(1.41421,0,0,1.44871,-88.7473,-7.44277)"
       d="m 24.445691,12.518392 c 0,0.571839 -0.474874,1.035406 -1.06066,1.035406 -0.585787,0 -1.06066,-0.463567 -1.06066,-1.035406 0,-0.57184 0.474873,-1.035407 1.06066,-1.035407 0.585786,0 1.06066,0.463567 1.06066,1.035407 z"
       sodipodi:ry="1.0354064"
       sodipodi:rx="1.0606601"
       sodipodi:cy="12.518392"
       sodipodi:cx="23.385031"
       id="path15984"
       style="opacity:0.47849462;fill:#ffffff;fill-opacity:1;stroke:none"
       sodipodi:type="arc" />
  </g>
  <g
     transform="matrix(2.0828614,0,0,2.0828614,154.68821,6.1692827)"
     id="g15986"
     style="fill:#3465a4;stroke:#3465a4">
    <g
       id="g15994">
      <path
         inkscape:connector-curvature="0"
         style="opacity:0.47849462;fill:#3465a4;fill-opacity:0.75;fill-rule:evenodd;stroke:#ffffff;stroke-width:1px;stroke-linecap:round;stroke-linejoin:miter;stroke-opacity:1"
         d="m -55.675924,6.621277 0,8.571429"
         id="path15988" />
      <path
         inkscape:connector-curvature="0"
         style="opacity:0.47849462;fill:#3465a4;fill-opacity:0.75;fill-rule:evenodd;stroke:#ffffff;stroke-width:1.00000024px;stroke-linecap:round;stroke-linejoin:miter;stroke-opacity:1"
         d="m -51.646098,10.692706 -8.059705,0"
         id="path15990" />
      <path
         sodipodi:type="arc"
         style="opacity:0.47849462;fill:#ffffff;fill-opacity:1;stroke:none"
         id="path15992"
         sodipodi:cx="23.385031"
         sodipodi:cy="12.518392"
         sodipodi:rx="1.0606601"
         sodipodi:ry="1.0354064"
         d="m 24.445691,12.518392 c 0,0.571839 -0.474874,1.035406 -1.06066,1.035406 -0.585787,0 -1.06066,-0.463567 -1.06066,-1.035406 0,-0.57184 0.474873,-1.035407 1.06066,-1.035407 0.585786,0 1.06066,0.463567 1.06066,1.035407 z"
         transform="matrix(1.41421,0,0,1.44871,-88.7473,-7.44277)" />
    </g>
    <g
       transform="translate(-7.53157,3)"
       style="fill:#ffffff;fill-opacity:1;stroke:#ffffff;stroke-opacity:1"
       id="g15999">
      <path
         inkscape:connector-curvature="0"
         style="opacity:0.47849462;fill:#ffffff;fill-opacity:1;fill-rule:evenodd;stroke:#ffffff;stroke-width:1px;stroke-linecap:round;stroke-linejoin:miter;stroke-opacity:1"
         d="m -55.675924,6.621277 0,8.571429"
         id="path16001" />
      <path
         inkscape:connector-curvature="0"
         style="opacity:0.47849462;fill:#ffffff;fill-opacity:1;fill-rule:evenodd;stroke:#ffffff;stroke-width:1.00000024px;stroke-linecap:round;stroke-linejoin:miter;stroke-opacity:1"
         d="m -51.646098,10.692706 -8.059705,0"
         id="path16003" />
      <path
         sodipodi:type="arc"
         style="opacity:0.47849462;fill:#ffffff;fill-opacity:1;stroke:none"
         id="path16005"
         sodipodi:cx="23.385031"
         sodipodi:cy="12.518392"
         sodipodi:rx="1.0606601"
         sodipodi:ry="1.0354064"
         d="m 24.445691,12.518392 c 0,0.571839 -0.474874,1.035406 -1.06066,1.035406 -0.585787,0 -1.06066,-0.463567 -1.06066,-1.035406 0,-0.57184 0.474873,-1.035407 1.06066,-1.035407 0.585786,0 1.06066,0.463567 1.06066,1.035407 z"
         transform="matrix(1.41421,0,0,1.44871,-88.7473,-7.44277)" />
    </g>
    <g
       transform="translate(-10.5913,-3.57143)"
       style="fill:#ffffff;fill-opacity:1;stroke:#ffffff;stroke-opacity:1"
       id="g16007">
      <path
         inkscape:connector-curvature="0"
         style="opacity:0.47849462;fill:#ffffff;fill-opacity:1;fill-rule:evenodd;stroke:#ffffff;stroke-width:1px;stroke-linecap:round;stroke-linejoin:miter;stroke-opacity:1"
         d="m -55.675924,6.621277 0,8.571429"
         id="path16009" />
      <path
         inkscape:connector-curvature="0"
         style="opacity:0.47849462;fill:#ffffff;fill-opacity:1;fill-rule:evenodd;stroke:#ffffff;stroke-width:1.00000024px;stroke-linecap:round;stroke-linejoin:miter;stroke-opacity:1"
         d="m -51.646098,10.692706 -8.059705,0"
         id="path16011" />
      <path
         sodipodi:type="arc"
         style="opacity:0.47849462;fill:#ffffff;fill-opacity:1;stroke:none"
         id="path16013"
         sodipodi:cx="23.385031"
         sodipodi:cy="12.518392"
         sodipodi:rx="1.0606601"
         sodipodi:ry="1.0354064"
         d="m 24.445691,12.518392 c 0,0.571839 -0.474874,1.035406 -1.06066,1.035406 -0.585787,0 -1.06066,-0.463567 -1.06066,-1.035406 0,-0.57184 0.474873,-1.035407 1.06066,-1.035407 0.585786,0 1.06066,0.463567 1.06066,1.035407 z"
         transform="matrix(1.41421,0,0,1.44871,-88.7473,-7.44277)" />
    </g>
  </g>
</svg>
