<?xml version="1.0" encoding="UTF-8" standalone="no"?>
<!-- Created with Inkscape (http://www.inkscape.org/) -->

<svg
   xmlns:dc="http://purl.org/dc/elements/1.1/"
   xmlns:cc="http://creativecommons.org/ns#"
   xmlns:rdf="http://www.w3.org/1999/02/22-rdf-syntax-ns#"
   xmlns:svg="http://www.w3.org/2000/svg"
   xmlns="http://www.w3.org/2000/svg"
   xmlns:xlink="http://www.w3.org/1999/xlink"
   xmlns:sodipodi="http://sodipodi.sourceforge.net/DTD/sodipodi-0.dtd"
   xmlns:inkscape="http://www.inkscape.org/namespaces/inkscape"
   version="1.0"
   width="96"
   height="96"
   id="svg2408"
   inkscape:version="0.48.1 r9760"
   sodipodi:docname="keepassx.svg">
  <sodipodi:namedview
     pagecolor="#ffffff"
     bordercolor="#666666"
     borderopacity="1"
     objecttolerance="10"
     gridtolerance="10"
     guidetolerance="10"
     inkscape:pageopacity="0"
     inkscape:pageshadow="2"
     inkscape:window-width="1061"
     inkscape:window-height="877"
     id="namedview89"
     showgrid="false"
     inkscape:zoom="3.3020833"
     inkscape:cx="48.908517"
     inkscape:cy="51.785489"
     inkscape:window-x="0"
     inkscape:window-y="24"
     inkscape:window-maximized="0"
     inkscape:current-layer="layer4" />
  <defs
     id="defs2410">
    <linearGradient
       id="linearGradient3813">
      <stop
         id="stop3815"
         style="stop-color:#666666;stop-opacity:1"
         offset="0" />
      <stop
         id="stop3817"
         style="stop-color:#666666;stop-opacity:0"
         offset="1" />
    </linearGradient>
    <linearGradient
       id="linearGradient3790">
      <stop
         id="stop3792"
         style="stop-color:#969696;stop-opacity:1"
         offset="0" />
      <stop
         id="stop3794"
         style="stop-color:#ffffff;stop-opacity:0.79069769"
         offset="1" />
    </linearGradient>
    <linearGradient
       id="linearGradient3749">
      <stop
         id="stop3751"
         style="stop-color:#000000;stop-opacity:0.5271318"
         offset="0" />
      <stop
         id="stop3757"
         style="stop-color:#7f7f7f;stop-opacity:0"
         offset="0.5" />
      <stop
         id="stop3753"
         style="stop-color:#ffffff;stop-opacity:1"
         offset="1" />
    </linearGradient>
    <linearGradient
       id="linearGradient3714">
      <stop
         id="stop3716"
         style="stop-color:#d7d7d7;stop-opacity:1"
         offset="0" />
      <stop
         id="stop3718"
         style="stop-color:#c8c8c8;stop-opacity:1"
         offset="1" />
    </linearGradient>
    <linearGradient
       x1="45.447727"
       y1="92.539597"
       x2="45.447727"
       y2="7.0165396"
       id="ButtonShadow"
       gradientUnits="userSpaceOnUse"
       gradientTransform="scale(1.0058652,0.994169)">
      <stop
         id="stop3750"
         style="stop-color:#000000;stop-opacity:1"
         offset="0" />
      <stop
         id="stop3752"
         style="stop-color:#000000;stop-opacity:0.58823532"
         offset="1" />
    </linearGradient>
    <linearGradient
       id="linearGradient3737">
      <stop
         id="stop3739"
         style="stop-color:#ffffff;stop-opacity:1"
         offset="0" />
      <stop
         id="stop3741"
         style="stop-color:#ffffff;stop-opacity:0"
         offset="1" />
    </linearGradient>
    <linearGradient
       id="linearGradient3700">
      <stop
         id="stop3702"
         style="stop-color:#236f23;stop-opacity:1"
         offset="0" />
      <stop
         id="stop3704"
         style="stop-color:#61a939;stop-opacity:1"
         offset="1" />
    </linearGradient>
    <filter
       color-interpolation-filters="sRGB"
       id="filter3174">
      <feGaussianBlur
         id="feGaussianBlur3176"
         stdDeviation="1.71" />
    </filter>
    <linearGradient
       x1="36.357143"
       y1="6"
       x2="36.357143"
       y2="63.893143"
       id="linearGradient3188"
       xlink:href="#linearGradient3737"
       gradientUnits="userSpaceOnUse" />
    <filter
       x="-0.192"
       y="-0.192"
       width="1.3839999"
       height="1.3839999"
       color-interpolation-filters="sRGB"
       id="filter3794">
      <feGaussianBlur
         id="feGaussianBlur3796"
         stdDeviation="5.28" />
    </filter>
    <linearGradient
       x1="48"
       y1="20.220806"
       x2="48"
       y2="138.66119"
       id="linearGradient3613"
       xlink:href="#linearGradient3737"
       gradientUnits="userSpaceOnUse" />
    <radialGradient
       cx="48"
       cy="90.171875"
       r="42"
       fx="48"
       fy="90.171875"
       id="radialGradient3619"
       xlink:href="#linearGradient3737"
       gradientUnits="userSpaceOnUse"
       gradientTransform="matrix(1.1573129,0,0,0.99590774,-7.5510206,0.19713193)" />
    <clipPath
       id="clipPath3613">
      <rect
         width="84"
         height="84"
         rx="6"
         ry="6"
         x="6"
         y="6"
         id="rect3615"
         style="fill:#ffffff;fill-opacity:1;fill-rule:nonzero;stroke:none" />
    </clipPath>
    <linearGradient
       x1="48"
       y1="90"
       x2="48"
       y2="5.9877172"
       id="linearGradient3617"
       xlink:href="#linearGradient3700"
       gradientUnits="userSpaceOnUse" />
    <linearGradient
       x1="45.447727"
       y1="92.539597"
       x2="45.447727"
       y2="7.0165396"
       id="ButtonShadow-0"
       gradientUnits="userSpaceOnUse"
       gradientTransform="matrix(1.0058652,0,0,0.994169,100,0)">
      <stop
         id="stop3750-8"
         style="stop-color:#000000;stop-opacity:1"
         offset="0" />
      <stop
         id="stop3752-5"
         style="stop-color:#000000;stop-opacity:0.58823532"
         offset="1" />
    </linearGradient>
    <linearGradient
       x1="32.251034"
       y1="6.1317081"
       x2="32.251034"
       y2="90.238609"
       id="linearGradient3780"
       xlink:href="#ButtonShadow-0"
       gradientUnits="userSpaceOnUse"
       gradientTransform="matrix(1.0238095,0,0,1.0119048,-1.1428571,-98.071429)" />
    <linearGradient
       x1="32.251034"
       y1="6.1317081"
       x2="32.251034"
       y2="90.238609"
       id="linearGradient3772"
       xlink:href="#ButtonShadow-0"
       gradientUnits="userSpaceOnUse"
       gradientTransform="matrix(1.0238095,0,0,1.0119048,-1.1428571,-98.071429)" />
    <linearGradient
       x1="32.251034"
       y1="6.1317081"
       x2="32.251034"
       y2="90.238609"
       id="linearGradient3725"
       xlink:href="#ButtonShadow-0"
       gradientUnits="userSpaceOnUse"
       gradientTransform="matrix(1.0238095,0,0,1.0119048,-1.1428571,-98.071429)" />
    <linearGradient
       x1="32.251034"
       y1="6.1317081"
       x2="32.251034"
       y2="90.238609"
       id="linearGradient3721"
       xlink:href="#ButtonShadow-0"
       gradientUnits="userSpaceOnUse"
       gradientTransform="translate(0,-97)" />
    <linearGradient
       x1="32.251034"
       y1="6.1317081"
       x2="32.251034"
       y2="90.238609"
       id="linearGradient3026"
       xlink:href="#ButtonShadow-0"
       gradientUnits="userSpaceOnUse"
       gradientTransform="matrix(1.0238095,0,0,1.0119048,-1.1428571,-98.071429)" />
    <linearGradient
       x1="48"
       y1="72"
       x2="48"
       y2="24"
       id="linearGradient3720"
       xlink:href="#linearGradient3714"
       gradientUnits="userSpaceOnUse"
       gradientTransform="translate(4,-4)" />
    <linearGradient
       x1="62.823048"
       y1="53.023079"
       x2="62.823048"
       y2="22.999353"
       id="linearGradient3742"
       xlink:href="#linearGradient3749"
       gradientUnits="userSpaceOnUse"
       gradientTransform="matrix(1,0,0,-1,4,66)" />
    <linearGradient
       x1="59"
       y1="32"
       x2="69.1875"
       y2="32"
       id="linearGradient3755"
       xlink:href="#linearGradient3749"
       gradientUnits="userSpaceOnUse"
       gradientTransform="matrix(0.25881905,0.96592583,-0.96592583,0.25881905,82.414693,-42.192018)" />
    <linearGradient
       x1="34"
       y1="58"
       x2="36"
       y2="60"
       id="linearGradient3808"
       xlink:href="#linearGradient3790"
       gradientUnits="userSpaceOnUse"
       gradientTransform="translate(4,-4)" />
    <linearGradient
       x1="24"
       y1="75"
       x2="59.503521"
       y2="39.496479"
       id="linearGradient3819"
       xlink:href="#linearGradient3813"
       gradientUnits="userSpaceOnUse"
       gradientTransform="translate(4,-4)" />
    <radialGradient
       cx="57"
       cy="37"
       r="15"
       fx="57"
       fy="37"
       id="radialGradient3827"
       xlink:href="#linearGradient3737"
       gradientUnits="userSpaceOnUse"
       gradientTransform="matrix(1.2,7.0502532e-8,-6.070424e-8,1.0332266,-7.399999,-5.2293852)" />
    <linearGradient
       x1="48"
       y1="72"
       x2="48"
       y2="-8"
       id="linearGradient3863"
       xlink:href="#linearGradient3700"
       gradientUnits="userSpaceOnUse"
       gradientTransform="translate(4,-4)" />
    <linearGradient
       inkscape:collect="always"
       xlink:href="#linearGradient3714"
       id="linearGradient3066"
       gradientUnits="userSpaceOnUse"
       gradientTransform="translate(3.9999994,-4.0000007)"
       x1="48"
       y1="72"
       x2="48"
       y2="24" />
    <radialGradient
       inkscape:collect="always"
       xlink:href="#linearGradient3737"
       id="radialGradient3068"
       gradientUnits="userSpaceOnUse"
       gradientTransform="matrix(1.2,7.0502532e-8,-6.070424e-8,1.0332266,-7.3999995,-5.2293847)"
       cx="57"
       cy="37"
       fx="57"
       fy="37"
       r="15" />
    <linearGradient
       inkscape:collect="always"
       xlink:href="#linearGradient3749"
       id="linearGradient3070"
       gradientUnits="userSpaceOnUse"
       gradientTransform="matrix(1,0,0,-1,3.9999994,66)"
       x1="62.823048"
       y1="53.023079"
       x2="62.823048"
       y2="22.999353" />
    <linearGradient
       inkscape:collect="always"
       xlink:href="#linearGradient3749"
       id="linearGradient3072"
       gradientUnits="userSpaceOnUse"
       gradientTransform="matrix(0.25881904,0.96592583,-0.96592583,0.25881904,82.414693,-42.192018)"
       x1="59"
       y1="32"
       x2="69.1875"
       y2="32" />
    <linearGradient
       inkscape:collect="always"
       xlink:href="#linearGradient3790"
       id="linearGradient3074"
       gradientUnits="userSpaceOnUse"
       gradientTransform="translate(3.9999994,-4.0000007)"
       x1="34"
       y1="58"
       x2="36"
       y2="60" />
    <linearGradient
       inkscape:collect="always"
       xlink:href="#linearGradient3813"
       id="linearGradient3076"
       gradientUnits="userSpaceOnUse"
       gradientTransform="translate(3.9999994,-4.0000007)"
       x1="24"
       y1="75"
       x2="59.503521"
       y2="39.496479" />
  </defs>
  <metadata
     id="metadata2413">
    <rdf:RDF>
      <cc:Work
         rdf:about="">
        <dc:format>image/svg+xml</dc:format>
        <dc:type
           rdf:resource="http://purl.org/dc/dcmitype/StillImage" />
        <dc:title />
      </cc:Work>
    </rdf:RDF>
  </metadata>
  <g
     id="layer2"
     style="display:none">
    <rect
       width="86"
       height="85"
       rx="6"
       ry="6"
       x="5"
       y="7"
       id="rect3745"
       style="opacity:0.9;fill:url(#ButtonShadow);fill-opacity:1;fill-rule:nonzero;stroke:none;filter:url(#filter3174)" />
  </g>
  <g
     id="layer4">
    <path
       d="m 8.6100103,27.251496 0,1.414879 59.4249107,59.42491 8.489273,0 0,-1.414879 -8.489273,0 -59.4249107,-59.42491 z"
       inkscape:connector-curvature="0"
       id="path3865"
       style="opacity:0.2;fill:#ffffff;fill-opacity:1;stroke:none" />
    <path
       d="M 66.620043,4.6134353 C 54.190662,4.3521923 42.694909,14.493251 41.357354,26.843664 c -0.595212,4.162998 0.09886,8.431665 1.696113,12.301657 -12.662952,12.710427 -25.435025,25.340666 -38.0305821,38.100444 -1.294474,2.291645 -0.3873782,5.067441 -0.6575111,7.567041 0.032457,2.31076 -0.5307083,5.291262 1.7685985,6.771461 2.1967126,1.428919 4.9846677,0.474889 7.4386987,0.751655 2.325882,-0.09576 5.277632,0.608763 6.884143,-1.588932 1.591798,-1.704676 4.132748,-3.280829 3.716864,-5.981728 -0.407478,-1.693521 1.759786,-0.501057 2.697113,-1.095473 1.576262,-0.284051 2.260085,-2.088597 3.564255,-2.652898 2.361072,-0.112638 5.363002,0.640912 7.000314,-1.588931 1.591798,-1.704676 4.132748,-3.28083 3.716864,-5.981729 0.333818,-1.133932 -0.800119,-3.64495 0.849985,-3.74837 2.345108,-0.05041 5.378106,0.567294 6.887633,-1.768599 1.438909,-1.896774 0.307618,-4.518764 0.927111,-6.542411 2.579673,-2.579673 5.159348,-5.159348 7.739022,-7.739022 C 68.958169,58.738953 83.333361,53.155337 89.007887,42.207205 94.988533,31.708779 91.959417,17.276016 82.302119,10.030427 77.873232,6.5376235 72.261955,4.5931483 66.620043,4.6134353 z m 4.244636,19.8083037 c 4.131556,1.025006 -2.010686,5.077541 -1.316541,0.825596 0.177595,-0.544328 0.77,-0.850938 1.316541,-0.825596 z"
       inkscape:connector-curvature="0"
       id="path3849"
       style="opacity:0.05;fill:#000000;fill-opacity:1;stroke:none" />
    <path
       d="M 66.620043,6.1167433 C 54.708868,5.8560003 43.747933,15.768139 42.779564,27.635603 42.316387,31.696004 43.117676,35.829281 44.777851,39.543256 31.971055,52.408984 19.039859,65.163369 6.3108322,78.098704 5.3652149,80.113333 6.100277,82.477759 5.8686825,84.633879 c 0.1433697,2.010531 -0.7152934,4.984379 1.6801686,5.977659 2.5225409,0.529118 5.1928879,0.0652 7.7703139,0.221075 1.717441,0.226461 3.543394,-0.10671 4.572736,-1.643028 1.347349,-1.332516 3.241487,-2.717255 2.778468,-4.886508 -0.585597,-2.037552 0.690741,-2.213167 2.396127,-1.959737 2.029845,0.307661 3.201335,-1.651923 4.501407,-2.829758 2.120331,-0.286249 4.668382,0.707262 6.455385,-0.795869 1.457213,-1.705328 4.129158,-3.100381 3.625627,-5.733666 0.195529,-1.58206 -0.638591,-3.590615 1.01659,-4.568067 1.652135,-0.609607 3.750871,0.106145 5.527224,-0.354073 2.223696,-0.579792 2.042682,-3.209603 1.945459,-5.00481 -0.371329,-1.657119 0.402601,-2.839854 1.694317,-3.808117 2.441845,-2.441844 4.883691,-4.88369 7.325535,-7.325535 10.322621,5.015177 23.693302,0.752253 29.644215,-8.937863 C 93.255951,33.374649 91.188069,19.308484 82.264441,11.94183 77.968945,8.2070858 72.314328,6.0924843 66.620043,6.1167433 z M 70.864679,22.91843 c 5.007224,-0.01927 2.543688,8.171907 -1.649212,5.34857 -2.356294,-1.473476 -1.176573,-5.500074 1.649212,-5.34857 z"
       inkscape:connector-curvature="0"
       id="path3845"
       style="opacity:0.1;fill:#000000;fill-opacity:1;stroke:none" />
    <path
       d="m 66.620043,7.4874076 c -12.463374,0 -22.593847,10.1304734 -22.593847,22.5938464 0,3.524548 0.900305,6.837598 2.343393,9.815721 L 7.6372811,78.629283 a 1.3733396,1.3733396 0 0 0 -0.3979347,0.972729 l 0,8.489273 a 1.3733396,1.3733396 0 0 0 1.3706639,1.370664 l 8.4892727,0 a 1.3733396,1.3733396 0 0 0 0.972729,-0.397935 l 2.829759,-2.829757 a 1.3733396,1.3733396 0 0 0 0.397934,-0.972729 l 0,-4.288852 4.288852,0 a 1.3733396,1.3733396 0 0 0 0.972729,-0.397934 l 2.431823,-2.431823 5.084721,0 a 1.3733396,1.3733396 0 0 0 0.972729,-0.397935 l 2.829757,-2.829758 a 1.3733396,1.3733396 0 0 0 0.397935,-0.972729 l 0,-5.084721 2.033888,-2.033888 5.084721,0 a 1.3733396,1.3733396 0 0 0 1.370664,-1.370664 l 0,-5.084721 10.036797,-10.036796 c 2.978123,1.443088 6.291173,2.343393 9.815722,2.343393 12.463373,0 22.593846,-10.130473 22.593846,-22.593846 l 0,-0.08843 C 89.174208,17.557488 79.053808,7.4874076 66.620043,7.4874076 z m 4.244636,14.0603584 c 2.372728,0 4.281263,1.910825 4.288851,4.288851 0,2.38353 -1.905321,4.288852 -4.288851,4.288852 -2.38353,0 -4.288851,-1.905322 -4.288851,-4.288852 0,-2.38353 1.905321,-4.288851 4.288851,-4.288851 z"
       id="path3841"
       style="opacity:0.15;fill:#000000;fill-opacity:1;stroke:none"
       inkscape:connector-curvature="0" />
    <path
       d="m 66.620043,8.8580715 c -11.72124,0 -21.223183,9.5019425 -21.223183,21.2231825 0,3.662887 0.930869,7.118044 2.564468,10.125226 0.0061,0.01118 -0.0061,0.03304 0,0.04422 l -39.3513177,39.351312 0,8.489273 8.4892727,0 2.829758,-2.829757 0,-5.659516 5.659516,0 2.829757,-2.829757 5.659516,0 2.829757,-2.829758 0,-5.659515 2.829758,-2.829758 5.659515,0 0,-5.659515 11.053741,-11.053741 c 0.01118,0.0061 0.03302,-0.0061 0.04422,0 3.007182,1.633599 6.462339,2.564468 10.125227,2.564468 11.721239,0 21.223182,-9.501943 21.223182,-21.223182 l 0,-0.08843 C 87.805907,18.298082 78.314845,8.8580715 66.620043,8.8580715 z m 4.244636,11.3190305 c 3.118614,0 5.649564,2.540917 5.659515,5.659515 0,3.125664 -2.533851,5.659515 -5.659515,5.659515 -3.125664,0 -5.659515,-2.533851 -5.659515,-5.659515 0,-3.125664 2.533851,-5.659515 5.659515,-5.659515 z"
       inkscape:connector-curvature="0"
       id="path3835"
       style="opacity:0.3;fill:#000000;fill-opacity:1;stroke:none" />
    <path
       d="m 66.620043,7.4431927 c -11.72124,0 -21.223183,9.5019423 -21.223183,21.2231823 0,3.662888 0.930869,7.118044 2.564468,10.125226 0.0061,0.01118 -0.0061,0.03304 0,0.04421 l -39.3513177,39.351318 0,8.489272 8.4892727,0 2.829758,-2.829757 0,-5.659515 5.659516,0 2.829757,-2.829758 5.659516,0 2.829757,-2.829758 0,-5.659515 2.829758,-2.829758 5.659515,0 0,-5.659515 11.053741,-11.053741 c 0.01118,0.0061 0.03302,-0.0061 0.04422,0 3.007182,1.633599 6.462339,2.564468 10.125227,2.564468 11.721239,0 21.223182,-9.501943 21.223182,-21.223182 l 0,-0.08843 C 87.805907,16.883203 78.314845,7.4431927 66.620043,7.4431927 z m 4.244636,11.3190303 c 3.118614,0 5.649564,2.540918 5.659515,5.659516 0,3.125663 -2.533851,5.659515 -5.659515,5.659515 -3.125664,0 -5.659515,-2.533852 -5.659515,-5.659515 0,-3.125664 2.533851,-5.659516 5.659515,-5.659516 z"
       inkscape:connector-curvature="0"
       id="path3666"
       style="fill:url(#linearGradient3066);fill-opacity:1;stroke:none" />
    <path
       d="m 66.620043,7.4431927 c -11.72124,0 -21.223183,9.5019423 -21.223183,21.2231823 0,11.721239 9.501943,21.223182 21.223183,21.223182 11.721239,0 21.223182,-9.501943 21.223182,-21.223182 l 0,-0.08843 C 87.805907,16.883203 78.314845,7.4431927 66.620043,7.4431927 z m 4.244636,11.3632453 c 3.118632,0 5.649564,2.521501 5.659515,5.615301 0,3.100808 -2.533834,5.6153 -5.659515,5.6153 -3.125681,0 -5.659515,-2.514492 -5.659515,-5.6153 0,-3.100809 2.533834,-5.615301 5.659515,-5.615301 z"
       inkscape:connector-curvature="0"
       id="path3759"
       style="opacity:0.4;color:#000000;fill:url(#radialGradient3068);fill-opacity:1;fill-rule:nonzero;stroke:none;stroke-width:1;marker:none;visibility:visible;display:inline;overflow:visible;enable-background:accumulate" />
    <path
       d="m 66.620043,7.4431927 c -11.72127,0 -21.223183,9.5019133 -21.223183,21.2231823 0,6.040579 2.537607,11.477638 6.58803,15.342592 -3.634687,-3.809106 -5.88059,-8.954462 -5.88059,-14.635153 0,-11.721269 9.501913,-21.2231819 21.223182,-21.2231819 5.667877,0 10.827862,2.2146859 14.635153,5.8363749 C 78.098602,9.9508234 72.646996,7.4431927 66.620043,7.4431927 z"
       inkscape:connector-curvature="0"
       id="path3722"
       style="opacity:0.8;color:#000000;fill:#ffffff;fill-opacity:1;fill-rule:nonzero;stroke:none;stroke-width:1;marker:none;visibility:visible;display:inline;overflow:visible;enable-background:accumulate" />
    <path
       d="m 66.620043,47.059799 c -10.158439,0 -18.393425,-8.234986 -18.393425,-18.393424 0,-10.158438 8.234986,-18.393425 18.393425,-18.393425 10.158438,0 18.393424,8.234987 18.393424,18.393425 l 0,0.04422 c -0.03234,10.135474 -8.257899,18.349209 -18.393424,18.349209 z m 0,-1.414878 c 9.355811,0 16.948691,-7.578568 16.978545,-16.934331 l 0,-0.04422 c 0,-9.376961 -7.601585,-16.978546 -16.978545,-16.978546 -9.376961,0 -16.978546,7.601585 -16.978546,16.978546 0,9.376961 7.601585,16.978546 16.978546,16.978546 z"
       inkscape:connector-curvature="0"
       id="path3726"
       style="opacity:0.6;color:#000000;fill:url(#linearGradient3070);fill-opacity:1;fill-rule:nonzero;stroke:none;stroke-width:1;marker:none;visibility:visible;display:inline;overflow:visible;enable-background:accumulate" />
    <path
       d="M 61.175289,49.230409 C 72.497166,52.264097 84.134586,45.54523 87.168274,34.223354 88.73169,28.388601 87.687765,22.480025 84.77568,17.69844 c 2.524969,4.62004 3.362629,10.171355 1.892358,15.65848 -3.033687,11.321877 -14.671106,18.040744 -25.992984,15.007057 -5.474749,-1.466955 -9.885709,-4.94168 -12.625907,-9.425363 2.687728,4.898741 7.304552,8.731905 13.126142,10.291795 z"
       inkscape:connector-curvature="0"
       id="path3734"
       style="opacity:0.3;color:#000000;fill:#000000;fill-opacity:1;fill-rule:nonzero;stroke:none;stroke-width:1;marker:none;visibility:visible;display:inline;overflow:visible;enable-background:accumulate" />
    <path
       d="m 77.958789,22.556419 c -1.030046,-3.844179 -4.982604,-6.126191 -8.826785,-5.096146 -3.844179,1.030046 -6.12619,4.982605 -5.096146,8.826785 1.030046,3.844179 4.982605,6.12619 8.826786,5.096146 l 0.04272,-0.01146 c 3.832209,-1.039955 6.081159,-4.979831 5.053438,-8.815341 z m -1.58021,0.423417 c 0.790776,2.951216 -0.959409,5.968816 -3.908088,6.769006 l -0.04272,0.01146 c -2.957882,0.792563 -5.976437,-0.9502 -6.769001,-3.908087 -0.792563,-2.957888 0.938756,-6.019151 3.896644,-6.811715 2.957887,-0.792564 6.030594,0.981465 6.823158,3.939353 z"
       inkscape:connector-curvature="0"
       id="path3744"
       style="opacity:0.8;color:#000000;fill:url(#linearGradient3072);fill-opacity:1;fill-rule:nonzero;stroke:none;stroke-width:1;marker:none;visibility:visible;display:inline;overflow:visible;enable-background:accumulate" />
    <path
       d="m 47.961328,38.835816 -39.3513177,39.351318 0,1.414878 39.9261127,-39.926111 c -0.178582,-0.292585 -0.410206,-0.538404 -0.574795,-0.840085 z"
       inkscape:connector-curvature="0"
       id="path3772"
       style="opacity:0.6;fill:#ffffff;stroke:none" />
    <path
       d="m 55.079937,45.91021 -0.04422,0 -11.053741,11.053741 0,5.659515 -5.659515,0 -2.829758,2.829758 0,5.659515 -2.829757,2.829758 -5.659516,0 -2.829757,2.829758 -5.659516,0 0,5.659515 -2.829758,2.829758 -7.0743937,0 0,1.414878 8.4892727,0 2.829758,-2.829757 0,-5.659515 5.659516,0 2.829757,-2.829758 5.659516,0 2.829757,-2.829758 0,-5.659515 2.829758,-2.829758 5.659515,0 0,-5.659515 11.053741,-11.053741 0.04422,0 -1.414879,-1.414879 z"
       inkscape:connector-curvature="0"
       id="path3779"
       style="opacity:0.3;fill:#000000;fill-opacity:1;stroke:none" />
    <path
       d="m 49.066702,40.5602 -40.4566917,40.456691 0,4.244637 L 51.586955,43.611032 C 50.658758,42.677383 49.809362,41.652636 49.066702,40.5602 z"
       inkscape:connector-curvature="0"
       id="path3788"
       style="fill:url(#linearGradient3074);fill-opacity:1;stroke:none" />
    <path
       d="m 53.090264,45.025911 -33.161223,33.161223 2.829758,0 31.967418,-31.967419 c -0.546362,-0.371428 -1.083473,-0.774346 -1.591738,-1.193804 -0.0083,-0.0069 -0.03581,0.0069 -0.04421,0 z m -33.161223,33.161223 -8.489273,8.489272 2.829758,0 5.659515,-5.659515 0,-2.829757 z"
       inkscape:connector-curvature="0"
       id="path3798"
       style="opacity:0.49590167;fill:url(#linearGradient3076);fill-opacity:1;stroke:none" />
  </g>
</svg>
