<?xml version="1.0" encoding="UTF-8" standalone="no"?>
<!-- Created with Inkscape (http://www.inkscape.org/) -->

<svg
   xmlns:dc="http://purl.org/dc/elements/1.1/"
   xmlns:cc="http://creativecommons.org/ns#"
   xmlns:rdf="http://www.w3.org/1999/02/22-rdf-syntax-ns#"
   xmlns:svg="http://www.w3.org/2000/svg"
   xmlns="http://www.w3.org/2000/svg"
   xmlns:xlink="http://www.w3.org/1999/xlink"
   xmlns:sodipodi="http://sodipodi.sourceforge.net/DTD/sodipodi-0.dtd"
   xmlns:inkscape="http://www.inkscape.org/namespaces/inkscape"
   version="1.0"
   width="96"
   height="96"
   id="svg2408"
   inkscape:version="0.48.1 r9760"
   sodipodi:docname="meld.svg">
  <sodipodi:namedview
     pagecolor="#ffffff"
     bordercolor="#666666"
     borderopacity="1"
     objecttolerance="10"
     gridtolerance="10"
     guidetolerance="10"
     inkscape:pageopacity="0"
     inkscape:pageshadow="2"
     inkscape:window-width="1600"
     inkscape:window-height="1026"
     id="namedview104"
     showgrid="false"
     inkscape:zoom="3.3020833"
     inkscape:cx="48.598608"
     inkscape:cy="63.899054"
     inkscape:window-x="0"
     inkscape:window-y="24"
     inkscape:window-maximized="0"
     inkscape:current-layer="layer1" />
  <defs
     id="defs2410">
    <linearGradient
       x1="45.447727"
       y1="92.539597"
       x2="45.447727"
       y2="7.0165396"
       id="ButtonShadow"
       gradientUnits="userSpaceOnUse"
       gradientTransform="scale(1.0058652,0.994169)">
      <stop
         id="stop3750"
         style="stop-color:#000000;stop-opacity:1"
         offset="0" />
      <stop
         id="stop3752"
         style="stop-color:#000000;stop-opacity:0.58823532"
         offset="1" />
    </linearGradient>
    <linearGradient
       id="linearGradient3737">
      <stop
         id="stop3739"
         style="stop-color:#ffffff;stop-opacity:1"
         offset="0" />
      <stop
         id="stop3741"
         style="stop-color:#ffffff;stop-opacity:0"
         offset="1" />
    </linearGradient>
    <filter
       color-interpolation-filters="sRGB"
       id="filter3174">
      <feGaussianBlur
         id="feGaussianBlur3176"
         stdDeviation="1.71" />
    </filter>
    <linearGradient
       x1="36.357143"
       y1="6"
       x2="36.357143"
       y2="63.893143"
       id="linearGradient3188"
       xlink:href="#linearGradient3737"
       gradientUnits="userSpaceOnUse" />
    <filter
       x="-0.192"
       y="-0.192"
       width="1.3839999"
       height="1.3839999"
       color-interpolation-filters="sRGB"
       id="filter3794">
      <feGaussianBlur
         id="feGaussianBlur3796"
         stdDeviation="5.28" />
    </filter>
    <linearGradient
       x1="48"
       y1="20.220806"
       x2="48"
       y2="138.66119"
       id="linearGradient3613"
       xlink:href="#linearGradient3737"
       gradientUnits="userSpaceOnUse" />
    <radialGradient
       cx="48"
       cy="90.171875"
       r="42"
       fx="48"
       fy="90.171875"
       id="radialGradient3619"
       xlink:href="#linearGradient3737"
       gradientUnits="userSpaceOnUse"
       gradientTransform="matrix(1.1573129,0,0,0.99590774,-7.5510206,0.19713193)" />
    <clipPath
       id="clipPath3613">
      <rect
         width="84"
         height="84"
         rx="6"
         ry="6"
         x="6"
         y="6"
         id="rect3615"
         style="fill:#ffffff;fill-opacity:1;fill-rule:nonzero;stroke:none" />
    </clipPath>
    <linearGradient
       x1="48"
       y1="90"
       x2="48"
       y2="5.9877172"
       id="linearGradient3617"
       xlink:href="#linearGradient6455"
       gradientUnits="userSpaceOnUse"
       gradientTransform="translate(0,-96)" />
    <linearGradient
       x1="45.447727"
       y1="92.539597"
       x2="45.447727"
       y2="7.0165396"
       id="ButtonShadow-0"
       gradientUnits="userSpaceOnUse"
       gradientTransform="matrix(1.0058652,0,0,0.994169,100,0)">
      <stop
         id="stop3750-8"
         style="stop-color:#000000;stop-opacity:1"
         offset="0" />
      <stop
         id="stop3752-5"
         style="stop-color:#000000;stop-opacity:0.58823532"
         offset="1" />
    </linearGradient>
    <linearGradient
       x1="32.251034"
       y1="6.1317081"
       x2="32.251034"
       y2="90.238609"
       id="linearGradient3780"
       xlink:href="#ButtonShadow-0"
       gradientUnits="userSpaceOnUse"
       gradientTransform="matrix(1.0238095,0,0,1.0119048,-1.1428571,-98.071429)" />
    <linearGradient
       x1="32.251034"
       y1="6.1317081"
       x2="32.251034"
       y2="90.238609"
       id="linearGradient3772"
       xlink:href="#ButtonShadow-0"
       gradientUnits="userSpaceOnUse"
       gradientTransform="matrix(1.0238095,0,0,1.0119048,-1.1428571,-98.071429)" />
    <linearGradient
       x1="32.251034"
       y1="6.1317081"
       x2="32.251034"
       y2="90.238609"
       id="linearGradient3725"
       xlink:href="#ButtonShadow-0"
       gradientUnits="userSpaceOnUse"
       gradientTransform="matrix(1.0238095,0,0,1.0119048,-1.1428571,-98.071429)" />
    <linearGradient
       x1="32.251034"
       y1="6.1317081"
       x2="32.251034"
       y2="90.238609"
       id="linearGradient3721"
       xlink:href="#ButtonShadow-0"
       gradientUnits="userSpaceOnUse"
       gradientTransform="translate(0,-97)" />
    <linearGradient
       x1="32.251034"
       y1="6.1317081"
       x2="32.251034"
       y2="90.238609"
       id="linearGradient3026"
       xlink:href="#ButtonShadow-0"
       gradientUnits="userSpaceOnUse"
       gradientTransform="matrix(1.0238095,0,0,1.0119048,-1.1428571,-98.071429)" />
    <linearGradient
       id="linearGradient5060">
      <stop
         id="stop5062"
         style="stop-color:#000000;stop-opacity:1"
         offset="0" />
      <stop
         id="stop5064"
         style="stop-color:#000000;stop-opacity:0"
         offset="1" />
    </linearGradient>
    <linearGradient
       id="linearGradient5048">
      <stop
         id="stop5050"
         style="stop-color:#000000;stop-opacity:0"
         offset="0" />
      <stop
         id="stop5056"
         style="stop-color:#000000;stop-opacity:1"
         offset="0.5" />
      <stop
         id="stop5052"
         style="stop-color:#000000;stop-opacity:0"
         offset="1" />
    </linearGradient>
    <linearGradient
       id="linearGradient8955">
      <stop
         id="stop8957"
         style="stop-color:#729fcf;stop-opacity:1"
         offset="0" />
      <stop
         id="stop8959"
         style="stop-color:#3465a4;stop-opacity:1"
         offset="1" />
    </linearGradient>
    <linearGradient
       id="linearGradient9543">
      <stop
         id="stop9545"
         style="stop-color:#ffffff;stop-opacity:1"
         offset="0" />
      <stop
         id="stop9547"
         style="stop-color:#ffffff;stop-opacity:0"
         offset="1" />
    </linearGradient>
    <linearGradient
       id="linearGradient6121">
      <stop
         id="stop6123"
         style="stop-color:#000000;stop-opacity:1"
         offset="0" />
      <stop
         id="stop6125"
         style="stop-color:#000000;stop-opacity:0"
         offset="1" />
    </linearGradient>
    <linearGradient
       id="linearGradient6455">
      <stop
         id="stop6457"
         style="stop-color:#fdb245;stop-opacity:1"
         offset="0" />
      <stop
         id="stop6459"
         style="stop-color:#f57900;stop-opacity:1"
         offset="1" />
    </linearGradient>
    <linearGradient
       id="linearGradient6661">
      <stop
         id="stop6663"
         style="stop-color:#a4c1e0;stop-opacity:1"
         offset="0" />
      <stop
         id="stop6665"
         style="stop-color:#3465a4;stop-opacity:1"
         offset="1" />
    </linearGradient>
    <linearGradient
       x1="19.249098"
       y1="-1.4776937"
       x2="19.249098"
       y2="20.913509"
       id="linearGradient3938"
       xlink:href="#linearGradient9543"
       gradientUnits="userSpaceOnUse"
       gradientTransform="matrix(0.9523804,0,0,1.0004356,99.742416,-67.902598)" />
    <linearGradient
       x1="19.904659"
       y1="63.610905"
       x2="19.904659"
       y2="39.999737"
       id="linearGradient3941"
       xlink:href="#linearGradient6121"
       gradientUnits="userSpaceOnUse"
       gradientTransform="translate(98.551936,-68.894757)" />
    <linearGradient
       x1="105.14954"
       y1="42.16304"
       x2="105.14954"
       y2="15.314641"
       id="linearGradient3946"
       xlink:href="#linearGradient6455"
       gradientUnits="userSpaceOnUse"
       gradientTransform="matrix(-0.8846462,0,0,-0.8754386,205.99466,-23.874985)" />
    <linearGradient
       x1="108.45969"
       y1="16.108488"
       x2="108.45969"
       y2="55.454102"
       id="linearGradient3951"
       xlink:href="#linearGradient6455"
       gradientUnits="userSpaceOnUse"
       gradientTransform="matrix(0.8846462,0,0,0.8754386,41.096186,-65.910204)" />
    <linearGradient
       x1="30.738016"
       y1="13.826383"
       x2="30.738016"
       y2="54.581482"
       id="linearGradient3955"
       xlink:href="#linearGradient8955"
       gradientUnits="userSpaceOnUse"
       gradientTransform="matrix(0.8754869,0,0,0.8755139,102.46634,-65.771982)" />
    <radialGradient
       cx="605.71429"
       cy="486.64789"
       r="117.14286"
       fx="605.71429"
       fy="486.64789"
       id="radialGradient3968"
       xlink:href="#linearGradient5060"
       gradientUnits="userSpaceOnUse"
       gradientTransform="matrix(-0.04819433,0,0,0.02877211,136.59675,-38.431436)" />
    <radialGradient
       cx="605.71429"
       cy="486.64789"
       r="117.14286"
       fx="605.71429"
       fy="486.64789"
       id="radialGradient3971"
       xlink:href="#linearGradient5060"
       gradientUnits="userSpaceOnUse"
       gradientTransform="matrix(0.04819435,0,0,0.02877211,111.50711,-38.44399)" />
    <linearGradient
       x1="302.85715"
       y1="366.64789"
       x2="302.85715"
       y2="609.50507"
       id="linearGradient3974"
       xlink:href="#linearGradient5048"
       gradientUnits="userSpaceOnUse"
       gradientTransform="matrix(0.06834319,0,0,0.02877211,99.35075,-38.44399)" />
    <linearGradient
       x1="19.249098"
       y1="-1.4776937"
       x2="19.249098"
       y2="20.913509"
       id="linearGradient3978"
       xlink:href="#linearGradient9543"
       gradientUnits="userSpaceOnUse"
       gradientTransform="matrix(2.333332,0,0,2.4510672,-3.3333338,-3.7367477)" />
    <clipPath
       id="clipPath4000">
      <rect
         width="84"
         height="84"
         rx="6"
         ry="6"
         x="36"
         y="-90"
         transform="scale(1,-1)"
         id="rect4002"
         style="fill:#ff00ff;fill-opacity:1;fill-rule:nonzero;stroke:none" />
    </clipPath>
    <radialGradient
       cx="48"
       cy="48"
       r="42"
       fx="48"
       fy="48"
       id="radialGradient4004"
       xlink:href="#linearGradient6661"
       gradientUnits="userSpaceOnUse"
       gradientTransform="translate(30,0)" />
    <clipPath
       id="clipPath4101">
      <path
         d="m 131.8125,6 c -10.56514,7.479706 -17.8135,19.080305 -17.21875,33.0625 0.61551,14.470158 12.41706,28.991205 28.5,27.25 9.18833,-0.994766 16.53558,-9.730037 11.84375,-17.1875 -1.49046,-2.369027 -5.11021,-2.573218 -6.8125,-1.4375 8.17954,-0.230773 4.1866,9.512607 -3,11 -9.81719,2.031839 -17.35122,-7.454397 -18.03125,-16.28125 -1.27081,-16.49509 14.68104,-28.178464 29.9375,-28.125 14.38906,0.05043 26.05971,8.295863 32.96875,19.75 L 190,12 c 0,-3.324 -2.676,-6 -6,-6 l -52.1875,0 z m 24.03125,23.53125 c -0.47014,-0.006 -0.95892,0.0088 -1.4375,0.03125 -0.49402,0.02315 -0.99741,0.07059 -1.5,0.125 -9.18833,0.994766 -16.53558,9.730037 -11.84375,17.1875 1.49046,2.369027 5.11021,2.573218 6.8125,1.4375 -8.17954,0.230773 -4.1866,-9.512607 3,-11 9.81719,-2.031839 17.35122,7.454397 18.03125,16.28125 1.27081,16.49509 -14.68104,28.178464 -29.9375,28.125 C 124.57969,81.668325 112.90904,73.422887 106,61.96875 L 106,84 c 0,3.324 2.676,6 6,6 l 52.1875,0 C 174.75264,82.520294 182.001,70.919695 181.40625,56.9375 180.82861,43.357595 170.41799,29.717653 155.84375,29.53125 z"
         inkscape:connector-curvature="0"
         id="path4103"
         style="fill:#ff00ff;fill-opacity:1;stroke:none" />
    </clipPath>
    <linearGradient
       inkscape:collect="always"
       xlink:href="#linearGradient5048"
       id="linearGradient3083"
       gradientUnits="userSpaceOnUse"
       gradientTransform="matrix(0.13411363,0,0,0.05646111,-0.28176319,58.534919)"
       x1="302.85715"
       y1="366.64789"
       x2="302.85715"
       y2="609.50507" />
    <radialGradient
       inkscape:collect="always"
       xlink:href="#linearGradient5060"
       id="radialGradient3085"
       gradientUnits="userSpaceOnUse"
       gradientTransform="matrix(0.09457444,0,0,0.05646111,23.573336,58.534919)"
       cx="605.71429"
       cy="486.64789"
       fx="605.71429"
       fy="486.64789"
       r="117.14286" />
    <radialGradient
       inkscape:collect="always"
       xlink:href="#linearGradient5060"
       id="radialGradient3087"
       gradientUnits="userSpaceOnUse"
       gradientTransform="matrix(-0.09457441,0,0,0.05646111,72.808127,58.559554)"
       cx="605.71429"
       cy="486.64789"
       fx="605.71429"
       fy="486.64789"
       r="117.14286" />
    <linearGradient
       inkscape:collect="always"
       xlink:href="#linearGradient8955"
       id="linearGradient3089"
       gradientUnits="userSpaceOnUse"
       gradientTransform="matrix(1.7180165,0,0,1.7180695,5.8321324,4.9076849)"
       x1="30.738016"
       y1="13.826383"
       x2="30.738016"
       y2="54.581482" />
    <linearGradient
       inkscape:collect="always"
       xlink:href="#linearGradient6455"
       id="linearGradient3091"
       gradientUnits="userSpaceOnUse"
       gradientTransform="matrix(1.7359903,0,0,1.7179217,-114.59792,4.6364441)"
       x1="108.45969"
       y1="16.108488"
       x2="108.45969"
       y2="55.454102" />
    <linearGradient
       inkscape:collect="always"
       xlink:href="#linearGradient6455"
       id="linearGradient3093"
       gradientUnits="userSpaceOnUse"
       gradientTransform="matrix(-1.7359903,0,0,-1.7179217,208.99149,87.124485)"
       x1="105.14954"
       y1="42.16304"
       x2="105.14954"
       y2="15.314641" />
    <linearGradient
       inkscape:collect="always"
       xlink:href="#linearGradient6121"
       id="linearGradient3095"
       gradientUnits="userSpaceOnUse"
       gradientTransform="matrix(1.9623554,0,0,1.9623554,-1.8493199,-1.2203092)"
       x1="19.904659"
       y1="63.610905"
       x2="19.904659"
       y2="39.999737" />
    <linearGradient
       inkscape:collect="always"
       xlink:href="#linearGradient9543"
       id="linearGradient3097"
       gradientUnits="userSpaceOnUse"
       gradientTransform="matrix(1.8689088,0,0,1.9632102,0.48682432,0.72665943)"
       x1="19.249098"
       y1="-1.4776937"
       x2="19.249098"
       y2="20.913509" />
  </defs>
  <metadata
     id="metadata2413">
    <rdf:RDF>
      <cc:Work
         rdf:about="">
        <dc:format>image/svg+xml</dc:format>
        <dc:type
           rdf:resource="http://purl.org/dc/dcmitype/StillImage" />
        <dc:title />
      </cc:Work>
    </rdf:RDF>
  </metadata>
  <g
     id="layer2"
     style="display:none">
    <rect
       width="86"
       height="85"
       rx="6"
       ry="6"
       x="5"
       y="7"
       id="rect3745"
       style="opacity:0.9;fill:url(#ButtonShadow);fill-opacity:1;fill-rule:nonzero;stroke:none;filter:url(#filter3174)" />
  </g>
  <g
     id="layer1">
    <rect
       width="64.757721"
       height="13.711982"
       x="15.811873"
       y="79.236259"
       id="rect6469"
       style="opacity:0.18435148;color:#000000;fill:url(#linearGradient3083);fill-opacity:1;fill-rule:nonzero;stroke:none;stroke-width:1;marker:none;visibility:visible;display:inline;overflow:visible" />
    <path
       d="m 80.569596,79.236735 c 0,0 0,13.711225 0,13.711225 4.870349,0.0258 11.774132,-3.07199 11.774132,-6.856496 0,-3.784505 -5.43494,-6.854729 -11.774132,-6.854729 z"
       inkscape:connector-curvature="0"
       id="path6471"
       style="opacity:0.18435148;color:#000000;fill:url(#radialGradient3085);fill-opacity:1;fill-rule:nonzero;stroke:none;stroke-width:1;marker:none;visibility:visible;display:inline;overflow:visible" />
    <path
       d="m 15.811866,79.261368 c 0,0 0,13.711225 0,13.711225 -4.87035,0.0258 -11.7741314,-3.07199 -11.7741314,-6.856494 0,-3.784506 5.4349393,-6.854729 11.7741314,-6.854731 z"
       inkscape:connector-curvature="0"
       id="path6473"
       style="opacity:0.18435148;color:#000000;fill:url(#radialGradient3087);fill-opacity:1;fill-rule:nonzero;stroke:none;stroke-width:1;marker:none;visibility:visible;display:inline;overflow:visible" />
    <path
       d="m 73.103108,5.6479349 c 7.93292,0 14.319366,6.3757851 14.319366,14.2954791 l 0,66.045631 -66.121821,0.102573 C 13.367734,86.09161 6.9812873,79.715827 6.9812873,71.796131 l 0,-66.1414976 66.1218207,-0.00663 z"
       inkscape:connector-curvature="0"
       id="path6475"
       style="color:#000000;fill:url(#linearGradient3089);fill-opacity:1;fill-rule:evenodd;stroke:#204a87;stroke-width:1.96235538px;stroke-linecap:butt;stroke-linejoin:miter;stroke-miterlimit:4;stroke-opacity:1;stroke-dashoffset:0;marker:none;visibility:visible;display:inline;overflow:visible;enable-background:accumulate" />
    <path
       d="m 56.898703,15.459712 c -7.642255,0.112286 -15.239456,3.232491 -21.340615,10.854279 -6.241547,7.797153 -1.96944,19.304969 3.495445,22.444439 4.418812,2.047687 9.779006,-2.069352 8.868591,-1.970245 -5.0773,0.552704 -6.608644,-0.264292 -7.542234,-3.362871 C 39.399771,36.225822 44.235996,30.051957 50.950313,29.318848 62.289489,28.08077 71.138908,39.323512 72.045633,49.92358 73.324403,64.873253 61.713891,79.803451 48.00678,84.080829 l 39.431079,0.04964 0,-53.953094 C 84.931401,27.333636 82.053253,24.724132 78.729907,22.511931 72.263769,18.207748 64.540939,15.347428 56.898703,15.459717 z"
       inkscape:connector-curvature="0"
       id="path6183"
       style="color:#000000;fill:none;stroke:#ffffff;stroke-width:1.96235514px;stroke-linecap:butt;stroke-linejoin:miter;stroke-miterlimit:4;stroke-opacity:0.42792795;stroke-dasharray:none;stroke-dashoffset:0;marker:none;visibility:visible;display:inline;overflow:visible;enable-background:accumulate" />
    <path
       d="m 56.873114,17.433746 c -7.642237,0.112285 -15.239437,3.23249 -21.340615,10.854278 -6.241527,7.797153 -1.794811,18.751982 3.670076,21.891453 4.418831,2.047686 8.294679,-1.341736 8.86861,-3.512799 -1.584739,0.727331 -6.69597,0.783481 -7.62956,-2.315099 C 39.461527,37.152088 44.210407,32.02599 50.924724,31.292881 62.2639,30.054803 71.113319,41.297548 72.020045,51.897615 73.298833,66.847288 61.688322,81.777486 47.981191,86.054864 l 39.431079,0.04964 0,-53.953096 C 84.905813,29.307671 82.027684,26.698165 78.704318,24.485964 72.2382,20.181781 64.51537,17.321461 56.873114,17.43375 z"
       inkscape:connector-curvature="0"
       id="path6190"
       style="color:#000000;fill:url(#linearGradient3091);fill-opacity:1;fill-rule:evenodd;stroke:#ce5c00;stroke-width:1.96235538px;stroke-linecap:butt;stroke-linejoin:miter;stroke-miterlimit:4;stroke-opacity:1;stroke-dasharray:none;stroke-dashoffset:0;marker:none;visibility:visible;display:inline;overflow:visible;enable-background:accumulate" />
    <path
       d="m 37.520444,72.364829 c 7.642235,-0.112286 15.239435,-3.23249 21.340615,-10.854278 6.241526,-7.797153 1.794809,-18.75198 -3.670076,-21.89145 -4.418833,-2.047687 -8.29468,1.341734 -8.86861,3.512797 1.584739,-0.727331 6.783273,-1.831249 7.716864,1.26733 0.980118,7.19949 -3.856107,13.373357 -10.570403,14.106466 C 32.129656,59.743771 23.280238,48.501028 22.373512,37.900962 21.094724,22.951289 32.705235,9.9834455 46.412367,5.7060678 l -39.4310797,-0.049645 0,51.9907402 c 2.5064576,2.843745 5.3845847,5.45325 8.7079517,7.66545 6.466118,4.304184 14.188968,7.164503 21.831205,7.052215 z"
       inkscape:connector-curvature="0"
       id="path6188"
       style="color:#000000;fill:none;stroke:#ffffff;stroke-width:1.96235514px;stroke-linecap:butt;stroke-linejoin:miter;stroke-miterlimit:4;stroke-opacity:0.46846846;stroke-dasharray:none;stroke-dashoffset:0;marker:none;visibility:visible;display:inline;overflow:visible;enable-background:accumulate" />
    <path
       d="M 57.01976,19.38424 C 49.926395,19.490205 42.470426,22.257837 36.952616,29.562127 32.520578,35.429104 34.783369,47.74749 43.062703,49.043106 33.796658,45.752499 38.452954,30.308252 52.276433,29.221519 63.852035,28.3115 73.15407,41.903454 73.995666,51.906271 75.182596,66.013617 66.018063,78.352458 56.358153,84.13896 l 28.998805,-0.02373 0.0078,-50.842581 C 83.038454,30.589136 80.367041,28.126662 77.282375,26.039106 71.280668,21.977437 64.112517,19.278279 57.019172,19.38424 z"
       inkscape:connector-curvature="0"
       id="path6192"
       style="color:#000000;fill:none;stroke:#ffffff;stroke-width:1.96235514px;stroke-linecap:butt;stroke-linejoin:miter;stroke-miterlimit:4;stroke-opacity:0.30630631;stroke-dasharray:none;stroke-dashoffset:0;marker:none;visibility:visible;display:inline;overflow:visible;enable-background:accumulate" />
    <path
       d="m 37.520444,74.327185 c 7.642235,-0.112287 15.239435,-3.232491 21.340615,-10.854279 6.241526,-7.797153 1.794809,-18.75198 -3.670076,-21.89145 -4.418833,-2.047687 -8.29468,1.341734 -8.86861,3.512798 1.584739,-0.727331 6.715376,-1.074526 7.648967,2.024052 0.980098,7.199492 -3.78819,12.616635 -10.502506,13.349743 C 32.129656,61.706126 23.280238,50.463384 22.373512,39.863318 21.094724,24.913645 32.705235,9.9834455 46.412367,5.7060678 l -39.4310797,-0.049645 0,53.9530952 c 2.5064576,2.843745 5.3845847,5.45325 8.7079517,7.66545 6.466118,4.304184 14.188968,7.164503 21.831205,7.052216 z"
       inkscape:connector-curvature="0"
       id="path6167"
       style="color:#000000;fill:url(#linearGradient3093);fill-opacity:1;fill-rule:evenodd;stroke:#ce5c00;stroke-width:1.96235538px;stroke-linecap:butt;stroke-linejoin:miter;stroke-miterlimit:4;stroke-opacity:1;stroke-dasharray:none;stroke-dashoffset:0;marker:none;visibility:visible;display:inline;overflow:visible;enable-background:accumulate" />
    <path
       d="M 37.289375,72.361817 C 44.382722,72.255852 51.838691,69.48822 57.356501,62.183931 61.788559,56.316953 60.166064,44.794098 51.935239,42.605936 60.260237,45.780125 56.088996,62.019902 42.032683,62.524538 30.428882,62.942283 21.155065,49.842603 20.313471,39.839786 19.12652,25.732441 28.291053,13.393599 37.950964,7.6070972 L 8.9521789,7.6308232 8.9443701,58.473404 c 2.3264309,2.683518 4.9978439,5.145991 8.0825089,7.233547 6.001708,4.061668 13.169859,6.760826 20.263225,6.654865 z"
       inkscape:connector-curvature="0"
       id="path6169"
       style="color:#000000;fill:none;stroke:#ffffff;stroke-width:1.96235514px;stroke-linecap:butt;stroke-linejoin:miter;stroke-miterlimit:4;stroke-opacity:0.30630631;stroke-dasharray:none;stroke-dashoffset:0;marker:none;visibility:visible;display:inline;overflow:visible;enable-background:accumulate" />
    <path
       d="m 12.607085,7.6390802 61.503476,0 c 4.859774,0 11.364942,5.7733358 11.364942,10.6298748 l 0,63.611101 c -0.168369,2.836537 0.523341,2.20131 -3.32576,2.20131 l -61.926757,0.07683 c -4.859773,0 -11.2406854,-5.323921 -11.2406854,-11.468326 l 0,-62.568917 c 0,-2.9620778 -0.6758744,-2.4818666 3.6247844,-2.4818666 z"
       inkscape:connector-curvature="0"
       id="path6489"
       style="color:#000000;fill:none;stroke:#ffffff;stroke-width:1.96235549;stroke-linecap:butt;stroke-linejoin:miter;stroke-miterlimit:4;stroke-opacity:0.37387384;stroke-dasharray:none;stroke-dashoffset:0;marker:none;visibility:visible;display:inline;overflow:visible;enable-background:accumulate" />
    <path
       d="m 46.958294,67.462131 c -15.37796,0 -29.515906,1.968431 -40.9581844,5.262236 l 0,0.166526 c 0,6.946243 7.0000744,14.194792 14.6997094,14.194792 l 65.756196,-0.128044 c 2.0205,0 2.005683,0.009 1.963021,-3.394572 l 0,-10.731315 C 76.903013,69.462066 62.530584,67.462131 46.958294,67.462131 z"
       inkscape:connector-curvature="0"
       id="path6491"
       style="opacity:0.65065505;color:#000000;fill:url(#linearGradient3095);fill-opacity:1;fill-rule:evenodd;stroke:none;stroke-width:0.99999994px;marker:none;visibility:visible;display:inline;overflow:visible;enable-background:accumulate" />
    <path
       d="m 7.962465,6.6291126 0,25.1137054 c 7.446863,2.288958 27.664894,5.406856 44.452138,3.946451 12.583741,-1.094721 29.082539,-5.676272 34.042078,-10.673785 l 0,-5.582226 c 0,-7.097011 -6.260286,-12.8041454 -13.999738,-12.8041454 l -64.494478,0 z"
       inkscape:connector-curvature="0"
       id="path6511"
       style="opacity:0.74347821;color:#000000;fill:url(#linearGradient3097);fill-opacity:1;fill-rule:evenodd;stroke:none;stroke-width:0.99999994px;marker:none;visibility:visible;display:inline;overflow:visible;enable-background:accumulate" />
  </g>
</svg>
