<?xml version="1.0" encoding="UTF-8" standalone="no"?>
<!-- Created with Inkscape (http://www.inkscape.org/) -->

<svg
   xmlns:dc="http://purl.org/dc/elements/1.1/"
   xmlns:cc="http://creativecommons.org/ns#"
   xmlns:rdf="http://www.w3.org/1999/02/22-rdf-syntax-ns#"
   xmlns:svg="http://www.w3.org/2000/svg"
   xmlns="http://www.w3.org/2000/svg"
   xmlns:xlink="http://www.w3.org/1999/xlink"
   xmlns:sodipodi="http://sodipodi.sourceforge.net/DTD/sodipodi-0.dtd"
   xmlns:inkscape="http://www.inkscape.org/namespaces/inkscape"
   width="128"
   height="128"
   id="svg3241"
   version="1.1"
   inkscape:version="0.48.1 r9760"
   sodipodi:docname="empathy.svg">
  <defs
     id="defs3243">
    <linearGradient
       inkscape:collect="always"
       xlink:href="#linearGradient3882-4"
       id="linearGradient3892-8"
       x1="23.184526"
       y1="4.0244036"
       x2="23.184526"
       y2="42.351448"
       gradientUnits="userSpaceOnUse"
       gradientTransform="matrix(2.6666687,0,0,2.7991166,-0.8424704,-82.11987)" />
    <linearGradient
       id="linearGradient3882-4">
      <stop
         offset="0"
         style="stop-color:#ffffff;stop-opacity:1;"
         id="stop3884-7" />
      <stop
         id="stop3886-2"
         style="stop-color:#ffffff;stop-opacity:0.23529412;"
         offset="0.4393521" />
      <stop
         offset="0.83473867"
         style="stop-color:#ffffff;stop-opacity:0.15686275;"
         id="stop3888-4" />
      <stop
         offset="1"
         style="stop-color:#ffffff;stop-opacity:0.39215687;"
         id="stop3890-0" />
    </linearGradient>
    <linearGradient
       id="linearGradient3707-319-631-407-324-3-8-1">
      <stop
         id="stop3760-7-3-3"
         style="stop-color:#185f9a;stop-opacity:1;"
         offset="0" />
      <stop
         id="stop3762-8-4-2"
         style="stop-color:#599ec9;stop-opacity:1;"
         offset="1" />
    </linearGradient>
    <radialGradient
       inkscape:collect="always"
       xlink:href="#linearGradient3725-941-985"
       id="radialGradient3125"
       gradientUnits="userSpaceOnUse"
       gradientTransform="matrix(0.8727907,-0.60614934,0.32165836,0.46315389,-67.838943,65.212175)"
       cx="88.940742"
       cy="28.628538"
       fx="88.940742"
       fy="28.628538"
       r="23" />
    <linearGradient
       id="linearGradient3725-941-985">
      <stop
         id="stop4651"
         style="stop-color:#54e1fa;stop-opacity:1"
         offset="0" />
      <stop
         id="stop4653"
         style="stop-color:#05a4dd;stop-opacity:0"
         offset="1" />
    </linearGradient>
    <radialGradient
       inkscape:collect="always"
       xlink:href="#linearGradient2867-449-88-871-390-598-476-591-434-148-57-177-3-8"
       id="radialGradient2897"
       gradientUnits="userSpaceOnUse"
       gradientTransform="matrix(0,4.7598855,-4.0013267,0,80.579965,-169.25269)"
       cx="20.248743"
       cy="4.9115634"
       fx="20.248743"
       fy="4.9115634"
       r="23" />
    <linearGradient
       id="linearGradient2867-449-88-871-390-598-476-591-434-148-57-177-3-8">
      <stop
         id="stop3750-8-9"
         style="stop-color:#90dbec;stop-opacity:1;"
         offset="0" />
      <stop
         id="stop3752-3-2"
         style="stop-color:#55c1ec;stop-opacity:1;"
         offset="0.26238" />
      <stop
         id="stop3754-7-2"
         style="stop-color:#3689e6;stop-opacity:1;"
         offset="0.704952" />
      <stop
         id="stop3756-9-3"
         style="stop-color:#2b63a0;stop-opacity:1;"
         offset="1" />
    </linearGradient>
    <linearGradient
       inkscape:collect="always"
       xlink:href="#linearGradient3707-319-631-407-324-3-8"
       id="linearGradient2899"
       gradientUnits="userSpaceOnUse"
       x1="18.138792"
       y1="45.21809"
       x2="18.138792"
       y2="2.9999995"
       gradientTransform="matrix(2.6887109,0,0,2.6886487,-0.5290558,-80.906262)" />
    <linearGradient
       id="linearGradient3707-319-631-407-324-3-8">
      <stop
         id="stop3760-7-3"
         style="stop-color:#185f9a;stop-opacity:1;"
         offset="0" />
      <stop
         id="stop3762-8-4"
         style="stop-color:#599ec9;stop-opacity:1;"
         offset="1" />
    </linearGradient>
    <linearGradient
       id="linearGradient8838-561-565">
      <stop
         id="stop4621"
         style="stop-color:#0a0a0a;stop-opacity:1"
         offset="0" />
      <stop
         id="stop4623"
         style="stop-color:#0a0a0a;stop-opacity:0"
         offset="1" />
    </linearGradient>
    <radialGradient
       r="10.625"
       fy="4.625"
       fx="62.625"
       cy="4.625"
       cx="62.625"
       gradientTransform="matrix(5.7725537,0,0,2.0078422,-297.50613,17.380364)"
       gradientUnits="userSpaceOnUse"
       id="radialGradient3239"
       xlink:href="#linearGradient8838-561-565"
       inkscape:collect="always" />
    <linearGradient
       gradientTransform="matrix(1.7250559,0,0,1.7250559,-17.588397,-106.46993)"
       x1="49"
       y1="56"
       x2="49"
       y2="24.983875"
       id="linearGradient3832"
       xlink:href="#linearGradient3800"
       gradientUnits="userSpaceOnUse" />
    <linearGradient
       id="linearGradient3800">
      <stop
         id="stop3802"
         style="stop-color:#005b59;stop-opacity:1"
         offset="0" />
      <stop
         id="stop3804"
         style="stop-color:#00555b;stop-opacity:0"
         offset="1" />
    </linearGradient>
    <linearGradient
       gradientTransform="matrix(1.7250559,0,0,1.7250559,-17.588397,-106.46993)"
       x1="49"
       y1="56"
       x2="49"
       y2="24.983875"
       id="linearGradient3830"
       xlink:href="#linearGradient3800"
       gradientUnits="userSpaceOnUse" />
    <linearGradient
       id="linearGradient3549">
      <stop
         id="stop3551"
         style="stop-color:#005b59;stop-opacity:1"
         offset="0" />
      <stop
         id="stop3553"
         style="stop-color:#00555b;stop-opacity:0"
         offset="1" />
    </linearGradient>
  </defs>
  <sodipodi:namedview
     id="base"
     pagecolor="#ffffff"
     bordercolor="#666666"
     borderopacity="1.0"
     inkscape:pageopacity="0.0"
     inkscape:pageshadow="2"
     inkscape:zoom="7"
     inkscape:cx="24.428571"
     inkscape:cy="58.285714"
     inkscape:current-layer="layer1"
     showgrid="true"
     inkscape:grid-bbox="true"
     inkscape:document-units="px"
     inkscape:window-width="1920"
     inkscape:window-height="1027"
     inkscape:window-x="0"
     inkscape:window-y="24"
     inkscape:window-maximized="1" />
  <metadata
     id="metadata3246">
    <rdf:RDF>
      <cc:Work
         rdf:about="">
        <dc:format>image/svg+xml</dc:format>
        <dc:type
           rdf:resource="http://purl.org/dc/dcmitype/StillImage" />
        <dc:title></dc:title>
      </cc:Work>
    </rdf:RDF>
  </metadata>
  <g
     id="layer1"
     inkscape:label="Layer 1"
     inkscape:groupmode="layer"
     transform="translate(0,80)">
    <path
       inkscape:connector-curvature="0"
       style="opacity:0.3;fill:url(#radialGradient3239);fill-opacity:1;fill-rule:evenodd;stroke:none;stroke-width:0.99999988;marker:none;visibility:visible;display:inline;overflow:visible"
       id="path8836"
       d="M 125.33343,26.666646 C 125.33343,38.44873 97.873533,48 64.000043,48 30.126554,48 2.6666602,38.44873 2.6666602,26.666646 c 0,-11.782085 27.4598938,-21.333351 61.3333828,-21.333351 33.87349,0 61.333387,9.551266 61.333387,21.333351 l 0,0 z" />
    <path
       inkscape:connector-curvature="0"
       style="fill:url(#radialGradient2897);fill-opacity:1;fill-rule:evenodd;stroke:url(#linearGradient2899);stroke-width:0.99525023;stroke-linecap:butt;stroke-linejoin:round;stroke-miterlimit:4;stroke-opacity:1;stroke-dasharray:none;stroke-dashoffset:0;marker:none;visibility:visible;display:inline;overflow:visible"
       id="path6145"
       d="M 55.430223,-70.73418 C 24.461704,-66.168552 1.5468793,-44.83185 3.6289414,-21.729854 4.977166,-6.770367 16.459282,5.542571 32.879161,12.039045 l -5.52885,21.542995 c 0,0 -0.589968,2.01686 0.256853,2.72934 0.846814,0.71249 2.886375,-0.79786 2.886375,-0.79786 l 25.852825,-18.696923 0.209612,-0.01909 c 3.741842,0.178849 7.501044,0.238134 11.402026,-0.117762 33.288328,-3.036977 58.597428,-25.186937 56.412948,-49.425084 -2.18444,-24.238158 -31.04072,-41.446518 -64.329052,-38.409571 -1.560388,0.142357 -3.088628,0.196191 -4.611675,0.42073 z"
       sodipodi:nodetypes="sscczcccssss" />
    <path
       transform="translate(1.8424707,-1.8424739)"
       sodipodi:type="inkscape:offset"
       inkscape:radius="1.0854453"
       inkscape:original="M 71.25 -68.5625 C 67.369654 -68.784101 63.388318 -68.684351 59.3125 -68.3125 C 57.720808 -68.167283 56.23482 -68.115943 54.8125 -67.90625 C 39.679434 -65.675159 26.567738 -59.335265 17.5 -50.8125 C 8.4322626 -42.289736 3.4120997 -31.593577 4.40625 -20.5625 C 5.6936918 -6.2771118 16.768234 5.6142174 32.75 11.9375 A 1.2000395 1.2000395 0 0 1 33.5 13.34375 L 27.5 36.59375 L 54.90625 16.75 A 1.2000395 1.2000395 0 0 1 55.5625 16.59375 L 55.75 16.59375 A 1.2000395 1.2000395 0 0 1 55.8125 16.59375 C 59.487048 16.769377 63.202746 16.783927 67 16.4375 C 83.272564 14.952881 97.573928 8.771805 107.5 0.09375 C 117.42609 -8.584305 122.94934 -19.738425 121.90625 -31.3125 C 120.99362 -41.439041 115.18587 -50.308601 106.15625 -56.90625 C 97.126641 -63.503896 84.854473 -67.785566 71.25 -68.5625 z "
       style="fill:url(#radialGradient3125);fill-opacity:1;fill-rule:evenodd;stroke:none;stroke-width:0.99525028;marker:none;visibility:visible;display:inline;overflow:visible"
       id="path3123"
       d="m 71.3125,-69.65625 c -3.941052,-0.225068 -7.971731,-0.126066 -12.09375,0.25 -1.55387,0.141766 -3.057548,0.215625 -4.5625,0.4375 -15.337102,2.261172 -28.653766,8.678592 -37.90625,17.375 -9.2522962,8.696231 -14.4666017,19.706103 -13.4375,31.125 1.3325561,14.7859747 12.776104,26.9748029 29.03125,33.40625 l 0.40625,-1 0.375,-1.03125 c -0.01082,-0.004 0.197908,0.09872 0.1875,0.09375 -0.01041,-0.005 0.197414,0.09964 0.1875,0.09375 -0.0099,-0.0059 0.19684,0.131766 0.1875,0.125 -0.0093,-0.0068 0.164938,0.132585 0.15625,0.125 -0.0087,-0.0076 0.164214,0.164591 0.15625,0.15625 -0.008,-0.0083 0.132175,0.165279 0.125,0.15625 -0.0072,-0.009 0.131327,0.165892 0.125,0.15625 -0.0063,-0.0096 0.09918,0.197676 0.09375,0.1875 -0.0054,-0.01018 0.09823,0.198126 0.09375,0.1875 -0.0045,-0.01063 0.066,0.198489 0.0625,0.1875 -0.0035,-0.01099 0.06499,0.198761 0.0625,0.1875 -0.0025,-0.01126 0.03271,0.23019 0.03125,0.21875 -0.0015,-0.01144 0.03167,0.199025 0.03125,0.1875 -4.16e-4,-0.01153 -6.31e-4,0.230266 0,0.21875 2.77e-4,-0.0051 -0.02649,0.04659 -0.03125,0.09375 A 1.0855538,1.0855538 0 0 0 32.4375,13.0625 l -6,23.25 a 1.0855538,1.0855538 0 0 0 1.6875,1.15625 L 55.5,17.65625 a 1.0855538,1.0855538 0 0 0 0.03125,0 1.0855538,1.0855538 0 0 0 0.03125,0 l 0,0.03125 0.1875,0 c 3.706547,0.177156 7.479956,0.196247 11.34375,-0.15625 16.48673,-1.504158 31.002262,-7.7750061 41.125,-16.625 10.12285,-8.8500797 15.86068,-20.335176 14.78125,-32.3125 -0.9445,-10.480119 -6.99398,-19.634761 -16.21875,-26.375 -9.227257,-6.742061 -21.674739,-11.087242 -35.46875,-11.875 z M 55.46875,15.5 c 0.05208,0 0.15625,0.02083 0.15625,0.03125 a 1.0855538,1.0855538 0 0 0 -0.4375,0.1875 1.0855538,1.0855538 0 0 0 -0.75,0.0625 c 0.04628,-0.0242 0.07627,-0.06911 0.0625,-0.0625 -0.02459,0.0118 0.181622,-0.07252 0.15625,-0.0625 -0.02537,0.01002 0.182271,-0.03944 0.15625,-0.03125 -0.02602,0.0082 0.182788,-0.06882 0.15625,-0.0625 -0.02654,0.0063 0.18317,-0.03566 0.15625,-0.03125 -0.02692,0.0044 0.183416,-0.0025 0.15625,0 -0.02717,0.0025 0.214774,-0.0318 0.1875,-0.03125 z" />
    <path
       sodipodi:type="inkscape:offset"
       inkscape:radius="-0.93855149"
       inkscape:original="M 71.4375 -70.53125 C 67.458397 -70.758486 63.348542 -70.692118 59.1875 -70.3125 C 57.627112 -70.170143 56.116797 -70.130789 54.59375 -69.90625 C 23.625231 -65.340622 0.6991879 -43.976996 2.78125 -20.875 C 4.1294746 -5.915513 15.611371 6.378526 32.03125 12.875 L 26.5 34.4375 C 26.5 34.4375 25.903179 36.44377 26.75 37.15625 C 27.596814 37.86874 29.65625 36.34375 29.65625 36.34375 L 55.5 17.65625 L 55.71875 17.625 C 59.460592 17.803849 63.224018 17.887146 67.125 17.53125 C 100.41333 14.494273 125.71573 -7.668103 123.53125 -31.90625 C 121.61987 -53.114638 99.29122 -68.940599 71.4375 -70.53125 z "
       style="opacity:0.4;color:#000000;fill:none;stroke:url(#linearGradient3892-8);stroke-width:0.99650294;stroke-linecap:butt;stroke-linejoin:miter;stroke-miterlimit:4;stroke-opacity:1;stroke-dasharray:none;stroke-dashoffset:0;marker:none;visibility:visible;display:inline;overflow:visible;enable-background:accumulate"
       id="path3078"
       d="m 71.375,-69.59375 c -3.931991,-0.224546 -7.978536,-0.156687 -12.09375,0.21875 -1.599372,0.145914 -3.11237,0.192461 -4.5625,0.40625 -15.308351,2.25688 -28.599322,8.664208 -37.78125,17.3125 C 7.7555715,-43.007958 2.7076839,-32.187265 3.71875,-20.96875 5.0283408,-6.437932 16.192603,5.5974849 32.375,12 a 0.93864534,0.93864534 0 0 1 0.5625,1.09375 l -5.53125,21.5625 a 0.93864534,0.93864534 0 0 1 0,0.0625 c 0,0 -0.121567,0.402481 -0.15625,0.875 -0.03468,0.472519 0.08554,0.836841 0.09375,0.84375 -0.05791,-0.04872 -0.06699,-0.0092 0.09375,-0.03125 0.160745,-0.02203 0.428992,-0.128313 0.6875,-0.25 0.517016,-0.243374 0.96875,-0.5625 0.96875,-0.5625 L 54.9375,16.90625 a 0.93864534,0.93864534 0 0 1 0.4375,-0.1875 l 0.21875,-0.03125 a 0.93864534,0.93864534 0 0 1 0.15625,0 c 3.725747,0.17808 7.447854,0.25598 11.28125,-0.09375 C 83.491129,15.092074 97.956753,8.8632232 108,0.0625 c 10.04325,-8.8007232 15.65462,-20.104045 14.59375,-31.875 -0.92824,-10.299577 -6.80528,-19.318437 -15.9375,-26 C 97.524034,-64.494063 85.139223,-68.807712 71.375,-69.59375 z"
       transform="matrix(0.99894582,0,0,0.99854012,0.9103402,-0.88192899)" />
    <path
       d="m 51.413839,-52.939285 c -13.273733,0 -24.096875,10.823142 -24.096875,24.096874 l 0,13.800447 c 0,5.6625504 4.633878,10.2964283 10.296427,10.2964283 5.66255,0 10.296428,-4.6338779 10.296428,-10.2964283 l 0,-13.800447 c 0,-1.994927 1.509092,-3.504019 3.50402,-3.504019 1.994927,0 3.504019,1.509092 3.504019,3.504019 l 0,13.800447 c 0,5.6625504 4.633878,10.2964283 10.296428,10.2964283 5.662549,0 10.296427,-4.6338779 10.296427,-10.2964283 l 0,-13.800447 c 0,-1.994927 1.509093,-3.504019 3.50402,-3.504019 1.994927,0 3.504019,1.509092 3.504019,3.504019 l 0,13.800447 c 0,5.6625504 4.633878,10.2964283 10.296428,10.2964283 5.662549,0 10.29643,-4.6338779 10.29643,-10.2964283 l 0,-13.800447 c 0,-13.273732 -10.823145,-24.096874 -24.096877,-24.096874 -5.233975,0 -9.901749,1.928019 -13.800447,4.743904 -3.898699,-2.815885 -8.566473,-4.743904 -13.800447,-4.743904 z"
       inkscape:connector-curvature="0"
       id="path3789"
       style="opacity:0.12000002;color:#000000;fill:#006680;fill-opacity:1;fill-rule:nonzero;stroke:none;stroke-width:0.5;marker:none;visibility:visible;display:inline;overflow:visible;enable-background:accumulate" />
    <path
       inkscape:connector-curvature="0"
       d="m 51.413839,-51.322045 c -12.385614,0 -22.479635,10.094021 -22.479635,22.479634 l 0,13.800447 c 0,4.769084 3.910105,8.6791884 8.679187,8.6791884 4.769083,0 8.679188,-3.9101044 8.679188,-8.6791884 l 0,-13.800447 c 0,-2.857939 2.26332,-5.121259 5.12126,-5.121259 2.857939,0 5.121259,2.26332 5.121259,5.121259 l 0,13.800447 c 0,4.769084 3.910105,8.6791884 8.679188,8.6791884 4.769082,0 8.679187,-3.9101044 8.679187,-8.6791884 l 0,-13.800447 c 0,-2.857939 2.26332,-5.121259 5.12126,-5.121259 2.857939,0 5.121259,2.26332 5.121259,5.121259 l 0,13.800447 c 0,4.769084 3.910105,8.6791884 8.679188,8.6791884 4.769082,0 8.67919,-3.9101044 8.67919,-8.6791884 l 0,-13.800447 c 0,-12.385613 -10.094024,-22.479634 -22.479637,-22.479634 -5.245342,0 -9.976585,1.993531 -13.800447,5.013444 -3.823863,-3.019913 -8.555106,-5.013444 -13.800447,-5.013444 z"
       id="path3784"
       style="opacity:0.2;color:#000000;fill:#006680;fill-opacity:1;fill-rule:nonzero;stroke:none;stroke-width:0.5;marker:none;visibility:visible;display:inline;overflow:visible;enable-background:accumulate" />
    <path
       d="m 51.413839,-49.543081 c -11.432665,0 -20.700671,9.268006 -20.700671,20.70067 l 0,13.800447 c 0,3.822725 3.0775,6.9002245 6.900223,6.9002245 3.822724,0 6.900224,-3.0774995 6.900224,-6.9002245 l 0,-13.800447 c 0,-3.810888 3.089335,-6.900223 6.900224,-6.900223 3.810888,0 6.900223,3.089335 6.900223,6.900223 l 0,13.800447 c 0,3.822725 3.0775,6.9002245 6.900224,6.9002245 3.822723,0 6.900223,-3.0774995 6.900223,-6.9002245 l 0,-13.800447 c 0,-3.810888 3.089335,-6.900223 6.900224,-6.900223 3.810888,0 6.900223,3.089335 6.900223,6.900223 l 0,13.800447 c 0,3.822725 3.0775,6.9002245 6.900224,6.9002245 3.822724,0 6.900223,-3.0774995 6.900223,-6.9002245 l 0,-13.800447 c 0,-11.432664 -9.268006,-20.70067 -20.70067,-20.70067 -5.304421,0 -10.137464,2.002231 -13.800447,5.282983 -3.662984,-3.280752 -8.496027,-5.282983 -13.800447,-5.282983 z"
       inkscape:connector-curvature="0"
       id="path3780"
       style="color:#000000;fill:#006680;fill-opacity:1;fill-rule:nonzero;stroke:none;stroke-width:0.5;marker:none;visibility:visible;display:inline;overflow:visible;enable-background:accumulate" />
    <g
       transform="matrix(1.6235126,0,0,1.6253667,-9.6702536,-101.99275)"
       id="g3709"
       style="font-size:48px;font-style:normal;font-variant:normal;font-weight:normal;font-stretch:normal;text-align:start;line-height:125%;writing-mode:tb-rl;text-anchor:start;fill:#ff00ff;fill-opacity:1;stroke:none;display:inline;font-family:American Participants;-inkscape-font-specification:American Participants" />
    <path
       d="m 51.413839,-51.268137 c -11.432665,0 -20.700671,9.268006 -20.700671,20.70067 l 0,13.800448 c 0,3.822724 3.0775,6.9002236 6.900223,6.9002236 3.822724,0 6.900224,-3.0774996 6.900224,-6.9002236 l 0,-13.800448 c 0,-3.810888 3.089335,-6.900223 6.900224,-6.900223 3.810888,0 6.900223,3.089335 6.900223,6.900223 l 0,13.800448 c 0,3.822724 3.0775,6.9002236 6.900224,6.9002236 3.822723,0 6.900223,-3.0774996 6.900223,-6.9002236 l 0,-13.800448 c 0,-3.810888 3.089335,-6.900223 6.900224,-6.900223 3.810888,0 6.900223,3.089335 6.900223,6.900223 l 0,13.800448 c 0,3.822724 3.0775,6.9002236 6.900224,6.9002236 3.822724,0 6.900223,-3.0774996 6.900223,-6.9002236 l 0,-13.800448 c 0,-11.432664 -9.268006,-20.70067 -20.70067,-20.70067 -5.304421,0 -10.137464,2.002231 -13.800447,5.282984 -3.662984,-3.280753 -8.496027,-5.282984 -13.800447,-5.282984 z"
       inkscape:connector-curvature="0"
       id="path3729"
       style="color:#000000;fill:#ffffff;fill-opacity:1;fill-rule:nonzero;stroke:none;stroke-width:0.5;marker:none;visibility:visible;display:inline;overflow:visible;enable-background:accumulate" />
    <path
       d="m 51.413839,-39.192746 c -3.810889,0 -6.900224,3.089335 -6.900224,6.900224 l 0,1.725055 c 0,-3.810888 3.089335,-6.900223 6.900224,-6.900223 3.810888,0 6.900223,3.089335 6.900223,6.900223 l 0,-1.725055 c 0,-3.810889 -3.089335,-6.900224 -6.900223,-6.900224 z m 27.600894,0 c -3.810889,0 -6.900224,3.089335 -6.900224,6.900224 l 0,1.725055 c 0,-3.810888 3.089335,-6.900223 6.900224,-6.900223 3.810888,0 6.900223,3.089335 6.900223,6.900223 l 0,-1.725055 c 0,-3.810889 -3.089335,-6.900224 -6.900223,-6.900224 z m -48.301565,20.700671 0,1.725056 c 0,3.822724 3.0775,6.9002236 6.900223,6.9002236 3.822724,0 6.900224,-3.0774996 6.900224,-6.9002236 l 0,-1.725056 c 0,3.822723 -3.0775,6.900224 -6.900224,6.900224 -3.822723,0 -6.900223,-3.077501 -6.900223,-6.900224 z m 27.600894,0 0,1.725056 c 0,3.822724 3.0775,6.9002236 6.900224,6.9002236 3.822723,0 6.900223,-3.0774996 6.900223,-6.9002236 l 0,-1.725056 c 0,3.822723 -3.0775,6.900224 -6.900223,6.900224 -3.822724,0 -6.900224,-3.077501 -6.900224,-6.900224 z m 27.600894,0 0,1.725056 c 0,3.822724 3.0775,6.9002236 6.900224,6.9002236 3.822724,0 6.900223,-3.0774996 6.900223,-6.9002236 l 0,-1.725056 c 0,3.822723 -3.077499,6.900224 -6.900223,6.900224 -3.822724,0 -6.900224,-3.077501 -6.900224,-6.900224 z"
       inkscape:connector-curvature="0"
       id="path3792"
       style="opacity:0.2;color:#000000;fill:#003737;fill-opacity:1;fill-rule:nonzero;stroke:none;stroke-width:0.5;marker:none;visibility:visible;display:inline;overflow:visible;enable-background:accumulate" />
    <path
       d="m 51.413839,-51.268137 c -11.432665,0 -20.700671,9.268006 -20.700671,20.70067 l 0,13.800448 c 0,3.822724 3.0775,6.9002236 6.900223,6.9002236 3.822724,0 6.900224,-3.0774996 6.900224,-6.9002236 l 0,-13.800448 c 0,-3.810888 3.089335,-6.900223 6.900224,-6.900223 3.810888,0 6.900223,3.089335 6.900223,6.900223 l 0,13.800448 c 0,3.822724 3.0775,6.9002236 6.900224,6.9002236 3.822723,0 6.900223,-3.0774996 6.900223,-6.9002236 l 0,-13.800448 c 0,-3.810888 3.089335,-6.900223 6.900224,-6.900223 3.810888,0 6.900223,3.089335 6.900223,6.900223 l 0,13.800448 c 0,3.822724 3.0775,6.9002236 6.900224,6.9002236 3.822724,0 6.900223,-3.0774996 6.900223,-6.9002236 l 0,-13.800448 c 0,-11.432664 -9.268006,-20.70067 -20.70067,-20.70067 -5.304421,0 -10.137464,2.002231 -13.800447,5.282984 -3.662984,-3.280753 -8.496027,-5.282984 -13.800447,-5.282984 z m 0,3.396204 c 4.445945,0 8.470384,1.674458 11.536311,4.420455 a 3.411821,3.411821 0 0 0 4.528271,0 c 3.065927,-2.745997 7.090367,-4.420455 11.536312,-4.420455 9.588964,0 17.304466,7.715502 17.304466,17.304466 l 0,13.800448 c 0,1.991773 -1.512246,3.50402 -3.504019,3.50402 -1.991774,0 -3.50402,-1.512247 -3.50402,-3.50402 l 0,-13.800448 c 0,-5.654588 -4.641839,-10.296427 -10.296427,-10.296427 -5.654589,0 -10.296428,4.641839 -10.296428,10.296427 l 0,13.800448 c 0,1.991773 -1.512246,3.50402 -3.504019,3.50402 -1.991774,0 -3.50402,-1.512247 -3.50402,-3.50402 l 0,-13.800448 c 0,-5.654588 -4.641839,-10.296427 -10.296427,-10.296427 -5.654589,0 -10.296428,4.641839 -10.296428,10.296427 l 0,13.800448 c 0,1.991773 -1.512246,3.50402 -3.50402,3.50402 -1.991773,0 -3.504019,-1.512247 -3.504019,-3.50402 l 0,-13.800448 c 0,-9.588964 7.715502,-17.304466 17.304467,-17.304466 z"
       inkscape:connector-curvature="0"
       id="path3810"
       style="opacity:0.1;color:#000000;fill:url(#linearGradient3832);fill-opacity:1;fill-rule:nonzero;stroke:none;stroke-width:0.5;marker:none;visibility:visible;display:inline;overflow:visible;enable-background:accumulate" />
    <path
       d="m 51.413839,-51.268137 c -11.432665,0 -20.700671,9.268006 -20.700671,20.70067 l 0,13.800448 c 0,3.822724 3.0775,6.9002236 6.900223,6.9002236 3.822724,0 6.900224,-3.0774996 6.900224,-6.9002236 l 0,-13.800448 c 0,-3.810888 3.089335,-6.900223 6.900224,-6.900223 3.810888,0 6.900223,3.089335 6.900223,6.900223 l 0,13.800448 c 0,3.822724 3.0775,6.9002236 6.900224,6.9002236 3.822723,0 6.900223,-3.0774996 6.900223,-6.9002236 l 0,-13.800448 c 0,-3.810888 3.089335,-6.900223 6.900224,-6.900223 3.810888,0 6.900223,3.089335 6.900223,6.900223 l 0,13.800448 c 0,3.822724 3.0775,6.9002236 6.900224,6.9002236 3.822724,0 6.900223,-3.0774996 6.900223,-6.9002236 l 0,-13.800448 c 0,-11.432664 -9.268006,-20.70067 -20.70067,-20.70067 -5.304421,0 -10.137464,2.002231 -13.800447,5.282984 -3.662984,-3.280753 -8.496027,-5.282984 -13.800447,-5.282984 z m 0,1.61724 c 4.895006,0 9.344044,1.825996 12.722287,4.851719 a 1.6271277,1.6271277 0 0 0 2.156319,0 c 3.378243,-3.025723 7.827281,-4.851719 12.722288,-4.851719 10.553388,0 19.08343,8.530042 19.08343,19.08343 l 0,13.800448 c 0,2.949527 -2.333457,5.282984 -5.282983,5.282984 -2.949527,0 -5.282984,-2.333457 -5.282984,-5.282984 l 0,-13.800448 c 0,-4.690164 -3.827299,-8.517463 -8.517463,-8.517463 -4.690165,0 -8.517464,3.827299 -8.517464,8.517463 l 0,13.800448 c 0,2.949527 -2.333457,5.282984 -5.282983,5.282984 -2.949527,0 -5.282984,-2.333457 -5.282984,-5.282984 l 0,-13.800448 c 0,-4.690164 -3.827299,-8.517463 -8.517463,-8.517463 -4.690165,0 -8.517464,3.827299 -8.517464,8.517463 l 0,13.800448 c 0,2.949527 -2.333457,5.282984 -5.282984,5.282984 -2.949526,0 -5.282983,-2.333457 -5.282983,-5.282984 l 0,-13.800448 c 0,-10.553388 8.530042,-19.08343 19.083431,-19.08343 z"
       inkscape:connector-curvature="0"
       id="path3798"
       style="opacity:0.2;color:#000000;fill:url(#linearGradient3830);fill-opacity:1;fill-rule:nonzero;stroke:none;stroke-width:0.5;marker:none;visibility:visible;display:inline;overflow:visible;enable-background:accumulate" />
  </g>
</svg>
