<?xml version="1.0" encoding="UTF-8" standalone="no"?>
<!-- Created with Inkscape (http://www.inkscape.org/) -->

<svg
   xmlns:dc="http://purl.org/dc/elements/1.1/"
   xmlns:cc="http://creativecommons.org/ns#"
   xmlns:rdf="http://www.w3.org/1999/02/22-rdf-syntax-ns#"
   xmlns:svg="http://www.w3.org/2000/svg"
   xmlns="http://www.w3.org/2000/svg"
   xmlns:xlink="http://www.w3.org/1999/xlink"
   xmlns:sodipodi="http://sodipodi.sourceforge.net/DTD/sodipodi-0.dtd"
   xmlns:inkscape="http://www.inkscape.org/namespaces/inkscape"
   id="svg4501"
   height="128"
   width="128"
   version="1.1"
   inkscape:version="0.48.1 r9760"
   sodipodi:docname="2.svg">
  <sodipodi:namedview
     pagecolor="#ffffff"
     bordercolor="#666666"
     borderopacity="1"
     objecttolerance="10"
     gridtolerance="10"
     guidetolerance="10"
     inkscape:pageopacity="0"
     inkscape:pageshadow="2"
     inkscape:window-width="871"
     inkscape:window-height="729"
     id="namedview40"
     showgrid="false"
     inkscape:zoom="2.4765625"
     inkscape:cx="64"
     inkscape:cy="69.047319"
     inkscape:window-x="382"
     inkscape:window-y="65"
     inkscape:window-maximized="0"
     inkscape:current-layer="layer1" />
  <defs
     id="defs4503">
    <linearGradient
       id="linearGradient2959"
       y2="43"
       gradientUnits="userSpaceOnUse"
       x2="24"
       gradientTransform="matrix(2.7838 0 0 2.7838 -3.2021 -66.419)"
       y1="5"
       x1="24">
      <stop
         id="stop3926"
         style="stop-color:#fff"
         offset="0" />
      <stop
         id="stop3928"
         style="stop-color:#fff;stop-opacity:.23529"
         offset=".063165" />
      <stop
         id="stop3930"
         style="stop-color:#fff;stop-opacity:.15686"
         offset=".95056" />
      <stop
         id="stop3932"
         style="stop-color:#fff;stop-opacity:.39216"
         offset="1" />
    </linearGradient>
    <radialGradient
       id="radialGradient2962"
       gradientUnits="userSpaceOnUse"
       cy="8.4498"
       cx="7.4957"
       gradientTransform="matrix(5.2307e-8 6.2919 -6.6561 -1.1592e-7 119.85 -97.702)"
       r="20">
      <stop
         id="stop5616"
         style="stop-color:#717171;stop-opacity:1;"
         offset="0" />
      <stop
         id="stop5938"
         style="stop-color:#4b4b4b;stop-opacity:1;"
         offset="0.5" />
      <stop
         id="stop5618"
         style="stop-color:#181818;stop-opacity:1;"
         offset="1" />
    </radialGradient>
    <linearGradient
       id="linearGradient2964"
       y2="3.899"
       gradientUnits="userSpaceOnUse"
       x2="24"
       gradientTransform="matrix(2.6923 0 0 2.6923 -1.0067 -64.224)"
       y1="44"
       x1="24">
      <stop
         id="stop5622"
         style="stop-color:#494949;stop-opacity:1;"
         offset="0" />
      <stop
         id="stop5624"
         style="stop-color:#878787;stop-opacity:1;"
         offset="1" />
    </linearGradient>
    <filter
       id="filter6181">
      <feGaussianBlur
         id="feGaussianBlur6183"
         stdDeviation="1.6001681" />
    </filter>
    <linearGradient
       id="linearGradient4631"
       y2="35"
       gradientUnits="userSpaceOnUse"
       x2="30"
       gradientTransform="matrix(3.0659 0 0 3.0673 -13.331 -69.007)"
       y1="24"
       x1="30">
      <stop
         id="stop3795-4"
         style="stop-color:#ffb100"
         offset="0" />
      <stop
         id="stop3797-1"
         style="stop-color:#ffb100;stop-opacity:0"
         offset="1" />
    </linearGradient>
    <linearGradient
       id="linearGradient4634"
       y2="28"
       gradientUnits="userSpaceOnUse"
       x2="25"
       gradientTransform="matrix(3.0659 0 0 3.0673 -13.331 -69.007)"
       y1="11.489"
       x1="25">
      <stop
         id="stop3736-5"
         style="stop-color:#cbf44b"
         offset="0" />
      <stop
         id="stop3738-0"
         style="stop-color:#cbf44b;stop-opacity:0"
         offset="1" />
    </linearGradient>
    <linearGradient
       id="linearGradient4640"
       y2="10.979"
       gradientUnits="userSpaceOnUse"
       x2="17"
       gradientTransform="matrix(3.0667 0 0 3.0833 35.509 -68.025)"
       y1="35"
       x1="17">
      <stop
         id="stop4487-2"
         style="stop-color:#fff"
         offset="0" />
      <stop
         id="stop4489-0"
         style="stop-color:#fff;stop-opacity:0"
         offset="1" />
    </linearGradient>
    <linearGradient
       x1="48"
       y1="20.220806"
       x2="48"
       y2="138.66119"
       id="linearGradient2885"
       xlink:href="#linearGradient3737-1"
       gradientUnits="userSpaceOnUse" />
    <linearGradient
       id="linearGradient3737-1">
      <stop
         id="stop3739-1"
         style="stop-color:#ffffff;stop-opacity:1"
         offset="0" />
      <stop
         id="stop3741-5"
         style="stop-color:#ffffff;stop-opacity:0"
         offset="1" />
    </linearGradient>
    <clipPath
       id="clipPath3613">
      <rect
         width="84"
         height="84"
         rx="6"
         ry="6"
         x="6"
         y="6"
         id="rect3615"
         style="fill:#ffffff;fill-opacity:1;fill-rule:nonzero;stroke:none" />
    </clipPath>
    <filter
       x="-0.192"
       y="-0.192"
       width="1.3839999"
       height="1.3839999"
       color-interpolation-filters="sRGB"
       id="filter3794">
      <feGaussianBlur
         id="feGaussianBlur3796"
         stdDeviation="5.28" />
    </filter>
    <linearGradient
       y2="138.66119"
       x2="48"
       y1="20.220806"
       x1="48"
       gradientUnits="userSpaceOnUse"
       id="linearGradient4697"
       xlink:href="#linearGradient3737-1"
       inkscape:collect="always" />
    <radialGradient
       inkscape:collect="always"
       xlink:href="#linearGradient4845"
       id="radialGradient3197"
       gradientUnits="userSpaceOnUse"
       gradientTransform="matrix(1.7293917,-0.38409835,0.52409478,2.3597216,-45.79905,-90.92812)"
       cx="54.487667"
       cy="37.907238"
       fx="54.487667"
       fy="37.907238"
       r="33.0625" />
    <linearGradient
       id="linearGradient4845">
      <stop
         style="stop-color:#fbfbfb;stop-opacity:1;"
         offset="0"
         id="stop4847" />
      <stop
         style="stop-color:#ababab;stop-opacity:1;"
         offset="1"
         id="stop4849" />
    </linearGradient>
  </defs>
  <metadata
     id="metadata4506">
    <rdf:RDF>
      <cc:Work
         rdf:about="">
        <dc:format>image/svg+xml</dc:format>
        <dc:type
           rdf:resource="http://purl.org/dc/dcmitype/StillImage" />
        <dc:title></dc:title>
      </cc:Work>
    </rdf:RDF>
  </metadata>
  <g
     id="layer1"
     transform="translate(.39130 63.608)">
    <rect
       id="rect5505-2"
       style="opacity:.4;color:#000000;filter:url(#filter6181)"
       transform="matrix(1.7299 0 0 1.6462 1.3326 -42.965)"
       rx="3.072"
       ry="3.1624"
       height="64"
       width="64"
       y="-3.84"
       x="4" />
    <rect
       id="rect5505"
       style="stroke-linejoin:round;color:#000000;stroke:url(#linearGradient2964);stroke-linecap:round;fill:url(#radialGradient2962)"
       rx="5"
       ry="5"
       height="105"
       width="105"
       y="-52.108"
       x="11.109" />
    <rect
       id="rect6741"
       style="opacity:.5;stroke-linejoin:round;stroke:url(#linearGradient2959);stroke-linecap:round;fill:none"
       rx="4"
       ry="4"
       height="103"
       width="103"
       y="-51.108"
       x="12.109" />
    <g
       transform="matrix(1.2263749,0,0,1.2263749,3.0607565,-57.51721)"
       id="g4865"
       style="opacity:0.9;display:inline">
      <path
         style="opacity:0.1;fill:#ffffff;fill-opacity:1;fill-rule:evenodd;stroke:#ffffff;stroke-width:6;stroke-opacity:1;display:inline"
         d="m 29.162696,17.604939 c -5.985213,1.329317 -9.779967,7.334492 -8.450649,13.319705 l 2.113857,9.517583 0.29379,1.322782 c -6.393805,3.072138 -9.792337,11.851656 -7.741784,21.084214 2.183982,9.833318 9.780168,16.612602 17.351623,15.781797 l -7.989665,-35.973236 1.064679,-0.236465 7.810524,35.166661 c 0.09624,0.433326 0.554594,0.723187 1.017979,0.620269 l 1.19373,-0.265128 c 0.463384,-0.102923 0.75594,-0.559556 0.659697,-0.992881 L 28.396494,40.525322 c -0.0513,-0.230972 -0.186178,-0.418045 -0.387085,-0.52341 L 27.858931,39.32439 25.745073,29.806807 c -0.730628,-3.289632 1.245825,-6.438213 4.535459,-7.168841 l 22.842199,-5.073258 c 3.289633,-0.730629 6.445379,1.278089 7.176007,4.567722 l 2.113857,9.517582 0.08599,0.387156 c -0.214784,0.191575 -0.331927,0.487083 -0.268941,0.770676 l 8.089983,36.424918 c 0.09624,0.4333 0.570252,0.685855 1.043076,0.58084 l 1.19373,-0.265128 c -0.06342,0.08937 -0.09634,0.184162 -0.175681,0.276001 -0.577723,0.668793 -1.141138,1.290895 -1.742379,1.910434 -0.539848,0.556276 -1.102956,1.176564 -1.670651,1.623668 -0.446718,0.351818 -0.878302,0.465907 -0.878302,0.465907 l -7.097859,1.576436 c -0.02138,0.0048 -0.04389,0.0081 -0.06452,0.01433 -0.886709,-1.528041 -3.63718,-2.239084 -6.613559,-1.57803 -3.355483,0.745254 -5.74309,2.950949 -5.309487,4.903231 0.433602,1.952282 3.53044,2.939881 6.885923,2.194627 2.712255,-0.602392 4.798751,-2.14087 5.262752,-3.741798 0.07512,0.0042 0.156043,-8.02e-4 0.233007,-0.01789 l 7.485013,-1.662424 c 0.172257,-0.03826 0.755738,-0.335982 1.089812,-0.580592 0.832877,-0.609825 1.307443,-1.285889 2.229925,-2.154137 0.969412,-0.973674 2.696043,-3.104023 2.696043,-3.104023 0.202979,-0.20627 0.26558,-0.498842 0.204414,-0.756345 C 81.967551,66.19654 85.733311,57.083021 83.603408,47.493196 81.552831,38.260528 74.750234,31.712805 67.656991,31.636283 L 67.41336,30.539341 65.299502,21.021758 C 63.970185,15.036546 57.990105,11.202364 52.004894,12.531681 l -22.842198,5.073258 z m -1.262743,8.033131 3.561313,16.034707 3.613455,-0.80255 -2.235674,-10.066053 -0.150477,-0.677523 0.193578,-0.04299 0.311792,0.641696 4.719924,9.5143 1.677676,-0.372612 0.248577,-10.617806 -0.02143,-0.706185 0.225841,-0.05016 0.150478,0.677524 2.235673,10.066052 3.613455,-0.802548 -3.561313,-16.034708 -4.774922,1.060511 -0.664077,7.832459 -1.06e-4,0.914094 -0.06452,0.01433 -0.38705,-0.828107 -3.917268,-6.81494 -4.774923,1.060512 z m 18.131802,-4.027079 2.830419,12.743883 c 0,0 0.724279,3.461567 5.961064,2.298476 5.236788,-1.163093 4.459882,-4.612971 4.459882,-4.612971 l -2.830418,-12.743882 -3.903823,0.86704 2.83042,12.743882 c 0,0 0.30758,1.150448 -1.064821,1.455258 -1.372399,0.304811 -1.548482,-0.874843 -1.548482,-0.874843 l -2.830419,-12.743882 -3.903822,0.867039 z m 19.456272,11.996616 1.129205,-0.250796 7.738869,34.844032 c -0.118104,-0.0268 -0.257508,-0.04316 -0.376391,-0.01797 -0.136002,0.02869 -0.585215,0.05674 -0.781476,0.139712 L 65.488027,33.607607 z m -33.654149,9.742846 2.816088,12.679356 3.613455,-0.80255 -1.769908,-7.968958 -0.121815,-0.548472 0.193578,-0.04299 0.28313,0.512643 4.254159,7.417206 1.677675,-0.372612 0.714343,-8.520712 0.0072,-0.577134 0.225841,-0.05016 0.121816,0.548472 1.769907,7.968958 3.613456,-0.80255 -2.816089,-12.679355 -4.774923,1.060511 -1.000861,6.316098 -0.05027,0.688254 -0.06452,0.01433 -0.33689,-0.602267 -3.580484,-5.298579 -4.774922,1.060512 z m 18.164064,-4.034244 2.816089,12.679357 4.807185,-1.067679 c 4.639802,-1.120905 5.651103,-3.060266 5.237797,-4.921162 -0.558729,-2.515656 -3.405157,-2.527598 -3.405157,-2.527598 1.70581,-1.192483 2.099538,-1.979049 1.83931,-3.150724 -0.558729,-2.515656 -3.184147,-2.813665 -7.843083,-1.778915 l -3.452141,0.766721 z m 4.312263,0.97195 c 0.722315,-0.160425 2.89693,-0.675247 3.283447,1.065033 0.386517,1.740284 -1.808742,2.162156 -2.531057,2.322582 l -0.75239,-3.387615 z m 1.132168,5.097554 c 0.722315,-0.160426 2.870551,-0.79402 3.333606,1.290874 0.463055,2.084893 -1.744251,2.452521 -2.466567,2.612947 l -0.867039,-3.903821 z m -20.641928,11.321619 3.962586,17.841434 12.905198,-2.866247 -0.537422,-2.419725 -7.355963,1.633761 -3.425166,-15.421711 -5.549233,1.232488 z m 16.131495,-3.58281 3.962588,17.841435 12.711618,-2.823254 -0.601911,-2.710092 -7.162385,1.590768 -1.089174,-4.903975 5.162079,-1.146499 -0.63774,-2.871407 -5.162079,1.146499 -1.039015,-4.678133 7.162385,-1.590767 -0.594747,-2.677829 -12.711619,2.823254 z"
         id="path4863"
         inkscape:connector-curvature="0" />
      <path
         inkscape:connector-curvature="0"
         id="path4861"
         d="m 29.162696,17.604939 c -5.985213,1.329317 -9.779967,7.334492 -8.450649,13.319705 l 2.113857,9.517583 0.29379,1.322782 c -6.393805,3.072138 -9.792337,11.851656 -7.741784,21.084214 2.183982,9.833318 9.780168,16.612602 17.351623,15.781797 l -7.989665,-35.973236 1.064679,-0.236465 7.810524,35.166661 c 0.09624,0.433326 0.554594,0.723187 1.017979,0.620269 l 1.19373,-0.265128 c 0.463384,-0.102923 0.75594,-0.559556 0.659697,-0.992881 L 28.396494,40.525322 c -0.0513,-0.230972 -0.186178,-0.418045 -0.387085,-0.52341 L 27.858931,39.32439 25.745073,29.806807 c -0.730628,-3.289632 1.245825,-6.438213 4.535459,-7.168841 l 22.842199,-5.073258 c 3.289633,-0.730629 6.445379,1.278089 7.176007,4.567722 l 2.113857,9.517582 0.08599,0.387156 c -0.214784,0.191575 -0.331927,0.487083 -0.268941,0.770676 l 8.089983,36.424918 c 0.09624,0.4333 0.570252,0.685855 1.043076,0.58084 l 1.19373,-0.265128 c -0.06342,0.08937 -0.09634,0.184162 -0.175681,0.276001 -0.577723,0.668793 -1.141138,1.290895 -1.742379,1.910434 -0.539848,0.556276 -1.102956,1.176564 -1.670651,1.623668 -0.446718,0.351818 -0.878302,0.465907 -0.878302,0.465907 l -7.097859,1.576436 c -0.02138,0.0048 -0.04389,0.0081 -0.06452,0.01433 -0.886709,-1.528041 -3.63718,-2.239084 -6.613559,-1.57803 -3.355483,0.745254 -5.74309,2.950949 -5.309487,4.903231 0.433602,1.952282 3.53044,2.939881 6.885923,2.194627 2.712255,-0.602392 4.798751,-2.14087 5.262752,-3.741798 0.07512,0.0042 0.156043,-8.02e-4 0.233007,-0.01789 l 7.485013,-1.662424 c 0.172257,-0.03826 0.755738,-0.335982 1.089812,-0.580592 0.832877,-0.609825 1.307443,-1.285889 2.229925,-2.154137 0.969412,-0.973674 2.696043,-3.104023 2.696043,-3.104023 0.202979,-0.20627 0.26558,-0.498842 0.204414,-0.756345 C 81.967551,66.19654 85.733311,57.083021 83.603408,47.493196 81.552831,38.260528 74.750234,31.712805 67.656991,31.636283 L 67.41336,30.539341 65.299502,21.021758 C 63.970185,15.036546 57.990105,11.202364 52.004894,12.531681 l -22.842198,5.073258 z m -1.262743,8.033131 3.561313,16.034707 3.613455,-0.80255 -2.235674,-10.066053 -0.150477,-0.677523 0.193578,-0.04299 0.311792,0.641696 4.719924,9.5143 1.677676,-0.372612 0.248577,-10.617806 -0.02143,-0.706185 0.225841,-0.05016 0.150478,0.677524 2.235673,10.066052 3.613455,-0.802548 -3.561313,-16.034708 -4.774922,1.060511 -0.664077,7.832459 -1.06e-4,0.914094 -0.06452,0.01433 -0.38705,-0.828107 -3.917268,-6.81494 -4.774923,1.060512 z m 18.131802,-4.027079 2.830419,12.743883 c 0,0 0.724279,3.461567 5.961064,2.298476 5.236788,-1.163093 4.459882,-4.612971 4.459882,-4.612971 l -2.830418,-12.743882 -3.903823,0.86704 2.83042,12.743882 c 0,0 0.30758,1.150448 -1.064821,1.455258 -1.372399,0.304811 -1.548482,-0.874843 -1.548482,-0.874843 l -2.830419,-12.743882 -3.903822,0.867039 z m 19.456272,11.996616 1.129205,-0.250796 7.738869,34.844032 c -0.118104,-0.0268 -0.257508,-0.04316 -0.376391,-0.01797 -0.136002,0.02869 -0.585215,0.05674 -0.781476,0.139712 L 65.488027,33.607607 z m -33.654149,9.742846 2.816088,12.679356 3.613455,-0.80255 -1.769908,-7.968958 -0.121815,-0.548472 0.193578,-0.04299 0.28313,0.512643 4.254159,7.417206 1.677675,-0.372612 0.714343,-8.520712 0.0072,-0.577134 0.225841,-0.05016 0.121816,0.548472 1.769907,7.968958 3.613456,-0.80255 -2.816089,-12.679355 -4.774923,1.060511 -1.000861,6.316098 -0.05027,0.688254 -0.06452,0.01433 -0.33689,-0.602267 -3.580484,-5.298579 -4.774922,1.060512 z m 18.164064,-4.034244 2.816089,12.679357 4.807185,-1.067679 c 4.639802,-1.120905 5.651103,-3.060266 5.237797,-4.921162 -0.558729,-2.515656 -3.405157,-2.527598 -3.405157,-2.527598 1.70581,-1.192483 2.099538,-1.979049 1.83931,-3.150724 -0.558729,-2.515656 -3.184147,-2.813665 -7.843083,-1.778915 l -3.452141,0.766721 z m 4.312263,0.97195 c 0.722315,-0.160425 2.89693,-0.675247 3.283447,1.065033 0.386517,1.740284 -1.808742,2.162156 -2.531057,2.322582 l -0.75239,-3.387615 z m 1.132168,5.097554 c 0.722315,-0.160426 2.870551,-0.79402 3.333606,1.290874 0.463055,2.084893 -1.744251,2.452521 -2.466567,2.612947 l -0.867039,-3.903821 z m -20.641928,11.321619 3.962586,17.841434 12.905198,-2.866247 -0.537422,-2.419725 -7.355963,1.633761 -3.425166,-15.421711 -5.549233,1.232488 z m 16.131495,-3.58281 3.962588,17.841435 12.711618,-2.823254 -0.601911,-2.710092 -7.162385,1.590768 -1.089174,-4.903975 5.162079,-1.146499 -0.63774,-2.871407 -5.162079,1.146499 -1.039015,-4.678133 7.162385,-1.590767 -0.594747,-2.677829 -12.711619,2.823254 z"
         style="opacity:0.1;fill:#ffffff;fill-opacity:1;fill-rule:evenodd;stroke:#ffffff;stroke-width:4;stroke-opacity:1;display:inline" />
      <path
         style="opacity:0.1;fill:#ffffff;fill-opacity:1;fill-rule:evenodd;stroke:#ffffff;stroke-width:2;stroke-opacity:1;display:inline"
         d="m 29.162696,17.604939 c -5.985213,1.329317 -9.779967,7.334492 -8.450649,13.319705 l 2.113857,9.517583 0.29379,1.322782 c -6.393805,3.072138 -9.792337,11.851656 -7.741784,21.084214 2.183982,9.833318 9.780168,16.612602 17.351623,15.781797 l -7.989665,-35.973236 1.064679,-0.236465 7.810524,35.166661 c 0.09624,0.433326 0.554594,0.723187 1.017979,0.620269 l 1.19373,-0.265128 c 0.463384,-0.102923 0.75594,-0.559556 0.659697,-0.992881 L 28.396494,40.525322 c -0.0513,-0.230972 -0.186178,-0.418045 -0.387085,-0.52341 L 27.858931,39.32439 25.745073,29.806807 c -0.730628,-3.289632 1.245825,-6.438213 4.535459,-7.168841 l 22.842199,-5.073258 c 3.289633,-0.730629 6.445379,1.278089 7.176007,4.567722 l 2.113857,9.517582 0.08599,0.387156 c -0.214784,0.191575 -0.331927,0.487083 -0.268941,0.770676 l 8.089983,36.424918 c 0.09624,0.4333 0.570252,0.685855 1.043076,0.58084 l 1.19373,-0.265128 c -0.06342,0.08937 -0.09634,0.184162 -0.175681,0.276001 -0.577723,0.668793 -1.141138,1.290895 -1.742379,1.910434 -0.539848,0.556276 -1.102956,1.176564 -1.670651,1.623668 -0.446718,0.351818 -0.878302,0.465907 -0.878302,0.465907 l -7.097859,1.576436 c -0.02138,0.0048 -0.04389,0.0081 -0.06452,0.01433 -0.886709,-1.528041 -3.63718,-2.239084 -6.613559,-1.57803 -3.355483,0.745254 -5.74309,2.950949 -5.309487,4.903231 0.433602,1.952282 3.53044,2.939881 6.885923,2.194627 2.712255,-0.602392 4.798751,-2.14087 5.262752,-3.741798 0.07512,0.0042 0.156043,-8.02e-4 0.233007,-0.01789 l 7.485013,-1.662424 c 0.172257,-0.03826 0.755738,-0.335982 1.089812,-0.580592 0.832877,-0.609825 1.307443,-1.285889 2.229925,-2.154137 0.969412,-0.973674 2.696043,-3.104023 2.696043,-3.104023 0.202979,-0.20627 0.26558,-0.498842 0.204414,-0.756345 C 81.967551,66.19654 85.733311,57.083021 83.603408,47.493196 81.552831,38.260528 74.750234,31.712805 67.656991,31.636283 L 67.41336,30.539341 65.299502,21.021758 C 63.970185,15.036546 57.990105,11.202364 52.004894,12.531681 l -22.842198,5.073258 z m -1.262743,8.033131 3.561313,16.034707 3.613455,-0.80255 -2.235674,-10.066053 -0.150477,-0.677523 0.193578,-0.04299 0.311792,0.641696 4.719924,9.5143 1.677676,-0.372612 0.248577,-10.617806 -0.02143,-0.706185 0.225841,-0.05016 0.150478,0.677524 2.235673,10.066052 3.613455,-0.802548 -3.561313,-16.034708 -4.774922,1.060511 -0.664077,7.832459 -1.06e-4,0.914094 -0.06452,0.01433 -0.38705,-0.828107 -3.917268,-6.81494 -4.774923,1.060512 z m 18.131802,-4.027079 2.830419,12.743883 c 0,0 0.724279,3.461567 5.961064,2.298476 5.236788,-1.163093 4.459882,-4.612971 4.459882,-4.612971 l -2.830418,-12.743882 -3.903823,0.86704 2.83042,12.743882 c 0,0 0.30758,1.150448 -1.064821,1.455258 -1.372399,0.304811 -1.548482,-0.874843 -1.548482,-0.874843 l -2.830419,-12.743882 -3.903822,0.867039 z m 19.456272,11.996616 1.129205,-0.250796 7.738869,34.844032 c -0.118104,-0.0268 -0.257508,-0.04316 -0.376391,-0.01797 -0.136002,0.02869 -0.585215,0.05674 -0.781476,0.139712 L 65.488027,33.607607 z m -33.654149,9.742846 2.816088,12.679356 3.613455,-0.80255 -1.769908,-7.968958 -0.121815,-0.548472 0.193578,-0.04299 0.28313,0.512643 4.254159,7.417206 1.677675,-0.372612 0.714343,-8.520712 0.0072,-0.577134 0.225841,-0.05016 0.121816,0.548472 1.769907,7.968958 3.613456,-0.80255 -2.816089,-12.679355 -4.774923,1.060511 -1.000861,6.316098 -0.05027,0.688254 -0.06452,0.01433 -0.33689,-0.602267 -3.580484,-5.298579 -4.774922,1.060512 z m 18.164064,-4.034244 2.816089,12.679357 4.807185,-1.067679 c 4.639802,-1.120905 5.651103,-3.060266 5.237797,-4.921162 -0.558729,-2.515656 -3.405157,-2.527598 -3.405157,-2.527598 1.70581,-1.192483 2.099538,-1.979049 1.83931,-3.150724 -0.558729,-2.515656 -3.184147,-2.813665 -7.843083,-1.778915 l -3.452141,0.766721 z m 4.312263,0.97195 c 0.722315,-0.160425 2.89693,-0.675247 3.283447,1.065033 0.386517,1.740284 -1.808742,2.162156 -2.531057,2.322582 l -0.75239,-3.387615 z m 1.132168,5.097554 c 0.722315,-0.160426 2.870551,-0.79402 3.333606,1.290874 0.463055,2.084893 -1.744251,2.452521 -2.466567,2.612947 l -0.867039,-3.903821 z m -20.641928,11.321619 3.962586,17.841434 12.905198,-2.866247 -0.537422,-2.419725 -7.355963,1.633761 -3.425166,-15.421711 -5.549233,1.232488 z m 16.131495,-3.58281 3.962588,17.841435 12.711618,-2.823254 -0.601911,-2.710092 -7.162385,1.590768 -1.089174,-4.903975 5.162079,-1.146499 -0.63774,-2.871407 -5.162079,1.146499 -1.039015,-4.678133 7.162385,-1.590767 -0.594747,-2.677829 -12.711619,2.823254 z"
         id="path4859"
         inkscape:connector-curvature="0" />
    </g>
    <path
       style="opacity:0.96660007;fill:url(#radialGradient3197);fill-opacity:1;fill-rule:evenodd;stroke:none;display:inline"
       d="m 38.825154,-35.926955 c -7.340114,1.630241 -11.993907,8.994837 -10.363664,16.334951 l 2.592382,11.672125 0.360297,1.6222267 C 23.572965,-2.5300594 19.405091,8.2369214 21.919838,19.559499 24.598219,31.618833 33.913992,39.932777 43.199434,38.913898 l -9.798325,-44.1166735 1.305696,-0.2899947 9.57863,43.1275102 c 0.118027,0.53142 0.680141,0.886899 1.248424,0.760682 l 1.463961,-0.325146 c 0.568282,-0.126222 0.927066,-0.686225 0.809036,-1.217644 L 37.885504,-7.8179733 c -0.06291,-0.2832583 -0.228324,-0.51268 -0.474712,-0.641897 L 37.22625,-9.290766 34.633867,-20.962891 c -0.896023,-4.034322 1.527849,-7.895662 5.562173,-8.791686 l 28.0131,-6.221716 c 4.034323,-0.896025 7.904451,1.567416 8.800474,5.601739 l 2.592382,11.672123 0.105456,0.474799 c -0.263406,0.234943 -0.407067,0.597346 -0.329823,0.945137 l 9.921352,44.670606 c 0.118026,0.531388 0.699343,0.841115 1.279202,0.712327 l 1.463961,-0.325146 c -0.07778,0.109601 -0.118149,0.225852 -0.215451,0.338481 -0.708505,0.820191 -1.399463,1.583121 -2.13681,2.342908 -0.662056,0.682203 -1.352637,1.442908 -2.048844,1.991226 -0.547844,0.43146 -1.077128,0.571376 -1.077128,0.571376 l -8.704636,1.933302 c -0.02622,0.0059 -0.05383,0.0099 -0.07913,0.01757 -1.087438,-1.873951 -4.460547,-2.745957 -8.110703,-1.935257 -4.11508,0.913961 -7.043182,3.61897 -6.511422,6.0132 0.531759,2.394229 4.329643,3.605396 8.444723,2.691435 3.326242,-0.738758 5.885068,-2.625509 6.454107,-4.588847 0.09213,0.0052 0.191367,-9.84e-4 0.285754,-0.02194 l 9.179432,-2.038755 c 0.211252,-0.04692 0.926818,-0.41204 1.336518,-0.712023 1.02142,-0.747874 1.603415,-1.576982 2.734724,-2.64178 1.188863,-1.194089 3.30636,-3.806696 3.30636,-3.806696 0.248928,-0.252964 0.3257,-0.611767 0.250688,-0.927562 C 103.58369,23.664564 108.20192,12.487973 105.58987,0.72725233 103.07509,-10.59546 94.732566,-18.625423 86.033591,-18.719268 l -0.298783,-1.345262 -2.592382,-11.672124 c -1.630241,-7.340114 -8.964061,-12.042258 -16.304174,-10.412017 l -28.013098,6.221716 z m -1.548596,9.85163 4.367505,19.6645617 4.43145,-0.9842272 -2.741774,-12.3447545 -0.184541,-0.830897 0.237399,-0.05272 0.382374,0.78696 5.788396,11.6680982 2.05746,-0.456962 0.304848,-13.0214102 -0.02628,-0.866047 0.276966,-0.06151 0.184542,0.830898 2.741774,12.344753 4.43145,-0.984225 -4.367505,-19.664563 -5.855844,1.300585 -0.814407,9.60553 -1.3e-4,1.121022 -0.07913,0.01757 -0.474669,-1.01557 -4.804039,-8.35767 -5.855845,1.300585 z m 22.236387,-4.938708 3.471155,15.628777 c 0,0 0.888237,4.245179 7.310499,2.818793 6.422265,-1.426388 5.469487,-5.657231 5.469487,-5.657231 l -3.471153,-15.628777 -4.787551,1.063316 3.471156,15.628777 c 0,0 0.377208,1.41088 -1.30587,1.784692 -1.683075,0.373812 -1.899019,-1.072886 -1.899019,-1.072886 l -3.471155,-15.628776 -4.787549,1.063315 z m 23.860683,14.712348 1.384829,-0.30757 9.490754,42.731846 c -0.144839,-0.03287 -0.315801,-0.05293 -0.461596,-0.02204 -0.166789,0.03519 -0.717693,0.06959 -0.958383,0.171339 l -9.455604,-42.573577 z m -41.272603,11.9483814 3.45358,15.5496446 4.43145,-0.984228 -2.170571,-9.77293 -0.14939,-0.67263232 0.237399,-0.052722 0.347223,0.62869248 5.217194,9.09627564 2.057458,-0.456962 0.876053,-10.4495877 0.0088,-0.7077826 0.276965,-0.061515 0.149393,0.6726323 2.170569,9.7729305 L 63.4386,7.2242851 59.985019,-8.325358 54.129173,-7.0247739 52.901742,0.72113006 52.840092,1.5651875 52.760962,1.5827615 52.347808,0.84415636 47.956793,-5.6538879 42.100948,-4.3533026 z M 64.376977,-9.300799 67.830558,6.2488463 73.725969,4.9394716 c 5.690136,-1.3746497 6.930371,-3.7530339 6.423502,-6.03519 -0.685211,-3.0851373 -4.175999,-3.0997827 -4.175999,-3.0997827 2.091963,-1.4624312 2.574821,-2.427056 2.255684,-3.8639688 -0.685211,-3.0851371 -3.904958,-3.4506081 -9.61856,-2.1816171 l -4.233619,0.940288 z m 5.288451,1.1919749 c 0.885829,-0.1967412 3.552722,-0.828106 4.026737,1.3061297 0.474015,2.1342406 -2.218196,2.6516139 -3.104025,2.8483563 l -0.922712,-4.154486 z m 1.388462,6.2515122 c 0.885829,-0.1967424 3.520372,-0.9737662 4.088251,1.58309548 C 75.71002,2.282644 73.003035,2.7334937 72.117205,2.9302366 L 71.05389,-1.8573119 z m -25.314742,13.8845499 4.859616,21.880286 15.826611,-3.515093 -0.659081,-2.96749 -9.021168,2.003604 -4.200538,-18.9128 -6.80544,1.511493 z M 65.522409,7.6333696 70.382027,29.513657 85.971236,26.05129 85.233068,22.727701 76.449299,24.678579 75.113563,18.664467 81.444207,17.258429 80.662099,13.737008 74.331455,15.143046 73.057233,9.4059008 81.841002,7.4550241 81.111619,4.1710018 65.522409,7.6333696 z"
       id="path4796"
       inkscape:connector-curvature="0" />
  </g>
</svg>
