<?xml version="1.0" encoding="UTF-8" standalone="no"?>
<!-- Created with Inkscape (http://www.inkscape.org/) -->

<svg
   xmlns:dc="http://purl.org/dc/elements/1.1/"
   xmlns:cc="http://creativecommons.org/ns#"
   xmlns:rdf="http://www.w3.org/1999/02/22-rdf-syntax-ns#"
   xmlns:svg="http://www.w3.org/2000/svg"
   xmlns="http://www.w3.org/2000/svg"
   xmlns:xlink="http://www.w3.org/1999/xlink"
   xmlns:sodipodi="http://sodipodi.sourceforge.net/DTD/sodipodi-0.dtd"
   xmlns:inkscape="http://www.inkscape.org/namespaces/inkscape"
   version="1.0"
   width="128"
   height="128"
   id="svg2"
   inkscape:version="0.48.1 r9760"
   sodipodi:docname="neverputt.svg">
  <metadata
     id="metadata103">
    <rdf:RDF>
      <cc:Work
         rdf:about="">
        <dc:format>image/svg+xml</dc:format>
        <dc:type
           rdf:resource="http://purl.org/dc/dcmitype/StillImage" />
      </cc:Work>
    </rdf:RDF>
  </metadata>
  <sodipodi:namedview
     pagecolor="#ffffff"
     bordercolor="#666666"
     borderopacity="1"
     objecttolerance="10"
     gridtolerance="10"
     guidetolerance="10"
     inkscape:pageopacity="0"
     inkscape:pageshadow="2"
     inkscape:window-width="1918"
     inkscape:window-height="1026"
     id="namedview101"
     showgrid="false"
     inkscape:zoom="6.546875"
     inkscape:cx="64"
     inkscape:cy="64"
     inkscape:window-x="0"
     inkscape:window-y="24"
     inkscape:window-maximized="0"
     inkscape:current-layer="svg2" />
  <defs
     id="defs5">
    <linearGradient
       id="linearGradient2863">
      <stop
         style="stop-color:white;stop-opacity:1"
         offset="0"
         id="stop2865" />
      <stop
         style="stop-color:white;stop-opacity:0.74226803"
         offset="0.43697613"
         id="stop2873" />
      <stop
         style="stop-color:#1f1f1f;stop-opacity:0.64948452"
         offset="0.81568879"
         id="stop2875" />
      <stop
         style="stop-color:black;stop-opacity:0.86597937"
         offset="1"
         id="stop2867" />
    </linearGradient>
    <linearGradient
       id="linearGradient2781">
      <stop
         style="stop-color:#747474;stop-opacity:1"
         offset="0"
         id="stop2783" />
      <stop
         style="stop-color:#888;stop-opacity:1"
         offset="0.5"
         id="stop2792" />
      <stop
         style="stop-color:white;stop-opacity:1"
         offset="1"
         id="stop2785" />
    </linearGradient>
    <radialGradient
       cx="205.30925"
       cy="175.82935"
       r="17.154898"
       fx="205.30925"
       fy="175.82935"
       id="radialGradient2787"
       xlink:href="#linearGradient2781"
       gradientUnits="userSpaceOnUse"
       gradientTransform="matrix(1.63258,-0.106196,0.100146,1.53958,-147.955,-72.8068)" />
    <radialGradient
       cx="187.16451"
       cy="26.252256"
       r="173"
       fx="187.16451"
       fy="26.252256"
       id="radialGradient2871"
       xlink:href="#linearGradient2863"
       gradientUnits="userSpaceOnUse"
       gradientTransform="matrix(2.84809,0,0,1.8838,-367.771,-15.454)" />
    <radialGradient
       inkscape:collect="always"
       xlink:href="#linearGradient2781"
       id="radialGradient3090"
       gradientUnits="userSpaceOnUse"
       gradientTransform="matrix(1.63258,-0.106196,0.100146,1.53958,-147.955,-72.8068)"
       cx="205.30925"
       cy="175.82935"
       fx="205.30925"
       fy="175.82935"
       r="17.154898" />
  </defs>
  <g
     id="g2879"
     transform="matrix(0.35311441,0,0,0.35311441,-7.7857631,-7.1958172)">
    <path
       d="m 372,207 a 173,173 0 1 1 -346,0 173,173 0 1 1 346,0 z"
       transform="matrix(1.00865,0,0,1.00865,2.77955,-6.28945)"
       style="fill:#ffffff;fill-opacity:1;fill-rule:nonzero;stroke:none"
       id="path1956"
       inkscape:connector-curvature="0" />
    <path
       d="m 218.86638,192.35753 a 14.029897,14.029897 0 1 1 -28.05979,0 14.029897,14.029897 0 1 1 28.05979,0 z"
       transform="matrix(1.16085,0,0,1.16085,-32.5506,-30.5434)"
       style="fill:url(#radialGradient3090);fill-opacity:1;fill-rule:evenodd;stroke:none"
       id="path1891"
       inkscape:connector-curvature="0" />
    <use
       transform="translate(37.5038,-9.30788)"
       id="use2790"
       x="0"
       y="0"
       width="400"
       height="400"
       xlink:href="#path1891" />
    <use
       transform="matrix(0.753992,-0.202503,0.259383,0.965775,73.1108,32.2844)"
       id="use2794"
       x="0"
       y="0"
       width="400"
       height="400"
       xlink:href="#path1891" />
    <use
       transform="matrix(0.701629,-0.160714,0.206956,0.903504,126.304,29.7584)"
       id="use2796"
       x="0"
       y="0"
       width="400"
       height="400"
       xlink:href="#path1891" />
    <use
       transform="matrix(0.521918,-0.0556688,0.0944314,0.885336,211.067,7.53527)"
       id="use2798"
       x="0"
       y="0"
       width="400"
       height="400"
       xlink:href="#path1891" />
    <use
       transform="matrix(0.409723,-0.104482,0.219428,0.860476,226.359,11.5528)"
       id="use2800"
       x="0"
       y="0"
       width="400"
       height="400"
       xlink:href="#path1891" />
    <use
       transform="matrix(0.189875,-0.0424124,0.2054,0.563909,280.37,37.7657)"
       id="use2802"
       x="0"
       y="0"
       width="400"
       height="400"
       xlink:href="#path1891" />
    <use
       transform="matrix(0.88566,0.126853,-0.165948,0.988186,14.4863,-15.9006)"
       id="use2804"
       x="0"
       y="0"
       width="400"
       height="400"
       xlink:href="#path1891" />
    <use
       transform="matrix(0.812812,0.101284,-0.123653,0.992326,-12.8081,-14.2567)"
       id="use2806"
       x="0"
       y="0"
       width="400"
       height="400"
       xlink:href="#path1891" />
    <use
       transform="matrix(0.784467,0.117741,-0.142035,0.946328,-34.1731,-16.4846)"
       id="use2808"
       x="0"
       y="0"
       width="400"
       height="400"
       xlink:href="#path1891" />
    <use
       transform="matrix(0.651478,0.104031,-0.142744,0.893916,-33.0485,-12.8279)"
       id="use2810"
       x="0"
       y="0"
       width="400"
       height="400"
       xlink:href="#path1891" />
    <use
       transform="matrix(0.402183,0.052588,-0.184584,0.880125,7.44993,-7.04748)"
       id="use2812"
       x="0"
       y="0"
       width="400"
       height="400"
       xlink:href="#path1891" />
    <use
       transform="matrix(0.266668,0.0243348,-0.124344,0.793854,10.7432,10.4696)"
       id="use2814"
       x="0"
       y="0"
       width="400"
       height="400"
       xlink:href="#path1891" />
    <use
       transform="matrix(0.938707,-0.134645,0.141983,0.989869,9.06248,57.0849)"
       id="use1889"
       x="0"
       y="0"
       width="400"
       height="400"
       xlink:href="#path1891" />
    <use
       transform="matrix(0.913856,0,0,0.931085,1.12434,46.9554)"
       id="use1891"
       x="0"
       y="0"
       width="400"
       height="400"
       xlink:href="#path1891" />
    <use
       transform="matrix(0.879398,0,0,1,-35.0159,38.1613)"
       id="use1893"
       x="0"
       y="0"
       width="400"
       height="400"
       xlink:href="#path1891" />
    <use
       transform="matrix(0.73423,-0.104066,0.135497,0.955987,-66.1342,60.146)"
       id="use1895"
       x="0"
       y="0"
       width="400"
       height="400"
       xlink:href="#path1891" />
    <use
       transform="matrix(0.56928,0,0,0.931085,-36.4681,33.4868)"
       id="use1897"
       x="0"
       y="0"
       width="400"
       height="400"
       xlink:href="#path1891" />
    <use
       transform="matrix(0.479504,0.176428,-0.148288,0.988944,-11.9077,-21.7316)"
       id="use1899"
       x="0"
       y="0"
       width="400"
       height="400"
       xlink:href="#path1891" />
    <use
       transform="matrix(0.275581,0.0211252,-0.0593136,0.773755,-4.88395,43.483)"
       id="use1901"
       x="0"
       y="0"
       width="400"
       height="400"
       xlink:href="#path1891" />
    <use
       transform="matrix(0.858466,-0.0798361,0.0925991,0.995703,71.8079,35.7327)"
       id="use1903"
       x="0"
       y="0"
       width="400"
       height="400"
       xlink:href="#path1891" />
    <use
       transform="matrix(0.755279,-0.178241,0.229685,0.973265,102.197,53.5194)"
       id="use1905"
       x="0"
       y="0"
       width="400"
       height="400"
       xlink:href="#path1891" />
    <use
       transform="matrix(0.569583,-0.233973,0.278362,0.834753,160.669,84.3605)"
       id="use1907"
       x="0"
       y="0"
       width="400"
       height="400"
       xlink:href="#path1891" />
    <use
       transform="matrix(0.502131,-0.125571,0.200807,0.802984,212.285,61.7161)"
       id="use1909"
       x="0"
       y="0"
       width="400"
       height="400"
       xlink:href="#path1891" />
    <use
       transform="matrix(0.304323,-0.0633546,0.188386,0.735847,268.088,42.5937)"
       id="use1911"
       x="0"
       y="0"
       width="400"
       height="400"
       xlink:href="#path1891" />
    <use
       transform="matrix(0.859256,-0.0707372,0.0722095,0.87714,59.8623,96.2829)"
       id="use1913"
       x="0"
       y="0"
       width="400"
       height="400"
       xlink:href="#path1891" />
    <use
       transform="matrix(0.879399,0,0,0.879398,30.0828,87.5034)"
       id="use1915"
       x="0"
       y="0"
       width="400"
       height="400"
       xlink:href="#path1891" />
    <use
       transform="matrix(0.788811,0.0838405,-0.0838405,0.788811,21.9034,91.4053)"
       id="use1917"
       x="0"
       y="0"
       width="400"
       height="400"
       xlink:href="#path1891" />
    <use
       transform="matrix(0.740769,0.164422,-0.164422,0.740769,7.4509,82.4443)"
       id="use1919"
       x="0"
       y="0"
       width="400"
       height="400"
       xlink:href="#path1891" />
    <use
       transform="matrix(0.638195,0.103373,0,0.827712,-35.4594,70.3581)"
       id="use1921"
       x="0"
       y="0"
       width="400"
       height="400"
       xlink:href="#path1891" />
    <use
       transform="matrix(0.538246,0.134383,0,0.756621,-42.7257,71.2432)"
       id="use1923"
       x="0"
       y="0"
       width="400"
       height="400"
       xlink:href="#path1891" />
    <use
       transform="matrix(0.328077,0.172288,0,0.689882,-21.1981,63.7011)"
       id="use1925"
       x="0"
       y="0"
       width="400"
       height="400"
       xlink:href="#path1891" />
    <use
       transform="matrix(0.810179,-0.169405,0.169405,0.810179,89.3611,122.425)"
       id="use1927"
       x="0"
       y="0"
       width="400"
       height="400"
       xlink:href="#path1891" />
    <use
       transform="matrix(0.557912,-0.342164,0.183777,0.789372,171.475,150.948)"
       id="use1929"
       x="0"
       y="0"
       width="400"
       height="400"
       xlink:href="#path1891" />
    <use
       transform="matrix(0.383175,-0.262696,0.162598,0.723523,238.076,136.108)"
       id="use1931"
       x="0"
       y="0"
       width="400"
       height="400"
       xlink:href="#path1891" />
    <use
       transform="matrix(0.238256,-0.163351,0.125181,0.590661,292.988,133.191)"
       id="use1933"
       x="0"
       y="0"
       width="400"
       height="400"
       xlink:href="#path1891" />
    <use
       transform="matrix(0.739049,0,0,0.800449,37.8059,137.214)"
       id="use1935"
       x="0"
       y="0"
       width="400"
       height="400"
       xlink:href="#path1891" />
    <use
       transform="matrix(0.734832,0.0788342,-0.0771968,0.71957,17.0513,136.375)"
       id="use1937"
       x="0"
       y="0"
       width="400"
       height="400"
       xlink:href="#path1891" />
    <use
       transform="matrix(0.642922,0.0720664,-0.082326,0.734449,1.40301,129.646)"
       id="use1939"
       x="0"
       y="0"
       width="400"
       height="400"
       xlink:href="#path1891" />
    <use
       transform="matrix(0.472773,0.263231,-0.10105,0.623463,7.18239,103.555)"
       id="use1941"
       x="0"
       y="0"
       width="400"
       height="400"
       xlink:href="#path1891" />
    <use
       transform="matrix(0.280812,0.216615,0.111914,0.652774,-18.3456,99.9726)"
       id="use1943"
       x="0"
       y="0"
       width="400"
       height="400"
       xlink:href="#path1891" />
    <use
       transform="matrix(0.77058,-0.150288,0.150288,0.77058,42.6159,170.566)"
       id="use1945"
       x="0"
       y="0"
       width="400"
       height="400"
       xlink:href="#path1891" />
    <use
       transform="matrix(0.70515,-0.263078,0.0847782,0.725971,110.672,195.812)"
       id="use1947"
       x="0"
       y="0"
       width="400"
       height="400"
       xlink:href="#path1891" />
    <use
       transform="matrix(0.640843,-0.199455,0.0686465,0.790315,163.729,160.352)"
       id="use1949"
       x="0"
       y="0"
       width="400"
       height="400"
       xlink:href="#path1891" />
    <use
       transform="matrix(0.54093,-0.231699,0.0255185,0.711559,222.048,168.9)"
       id="use1951"
       x="0"
       y="0"
       width="400"
       height="400"
       xlink:href="#path1891" />
    <use
       transform="matrix(0.401347,-0.153501,0,0.585548,278.613,168.141)"
       id="use1953"
       x="0"
       y="0"
       width="400"
       height="400"
       xlink:href="#path1891" />
    <use
       transform="matrix(0.769749,0,0,0.769749,51.5052,171.382)"
       id="use1955"
       x="0"
       y="0"
       width="400"
       height="400"
       xlink:href="#path1891" />
    <use
       transform="matrix(0.712493,0.0710185,-0.0710185,0.712493,40.3201,167.218)"
       id="use1957"
       x="0"
       y="0"
       width="400"
       height="400"
       xlink:href="#path1891" />
    <use
       transform="matrix(0.750099,-0.080599,0.080599,0.750099,79.0022,188.461)"
       id="use1959"
       x="0"
       y="0"
       width="400"
       height="400"
       xlink:href="#path1891" />
    <use
       transform="matrix(0.691481,0.147996,-0.0159267,0.661953,0.138365,158.536)"
       id="use1961"
       x="0"
       y="0"
       width="400"
       height="400"
       xlink:href="#path1891" />
    <use
       transform="matrix(0.740186,-0.147919,0.06777,0.723806,117.26,198.595)"
       id="use1963"
       x="0"
       y="0"
       width="400"
       height="400"
       xlink:href="#path1891" />
    <use
       transform="matrix(0.577895,0.11697,-0.0227429,0.558147,-7.73604,178.163)"
       id="use1965"
       x="0"
       y="0"
       width="400"
       height="400"
       xlink:href="#path1891" />
    <use
       transform="matrix(0.629166,-0.155676,0.0450865,0.600497,177.917,212.456)"
       id="use1967"
       x="0"
       y="0"
       width="400"
       height="400"
       xlink:href="#path1891" />
    <use
       transform="matrix(0.389933,0.134792,0.163246,0.652166,-32.6355,150.383)"
       id="use1969"
       x="0"
       y="0"
       width="400"
       height="400"
       xlink:href="#path1891" />
    <use
       transform="matrix(0.409182,-0.229934,0.0830293,0.571822,244.751,217.473)"
       id="use1971"
       x="0"
       y="0"
       width="400"
       height="400"
       xlink:href="#path1891" />
    <use
       transform="matrix(0.753252,0.0415884,-0.0280489,0.508024,41.2975,232.795)"
       id="use1973"
       x="0"
       y="0"
       width="400"
       height="400"
       xlink:href="#path1891" />
    <use
       transform="matrix(0.752993,-0.0579592,0.0337798,0.438856,69.9326,267.308)"
       id="use1975"
       x="0"
       y="0"
       width="400"
       height="400"
       xlink:href="#path1891" />
    <use
       transform="matrix(0.626371,0.142577,-0.115577,0.465868,51.959,218.695)"
       id="use1977"
       x="0"
       y="0"
       width="400"
       height="400"
       xlink:href="#path1891" />
    <use
       transform="matrix(0.690373,-0.265041,0.175567,0.457312,88.0227,300.868)"
       id="use1979"
       x="0"
       y="0"
       width="400"
       height="400"
       xlink:href="#path1891" />
    <use
       transform="matrix(0.656425,0.178223,-0.0474465,0.376612,-0.841647,223.083)"
       id="use1981"
       x="0"
       y="0"
       width="400"
       height="400"
       xlink:href="#path1891" />
    <use
       transform="matrix(0.653561,-0.382662,0.22483,0.383995,121.289,327.72)"
       id="use1983"
       x="0"
       y="0"
       width="400"
       height="400"
       xlink:href="#path1891" />
    <use
       transform="matrix(0.519087,0.402,-0.228474,0.188396,36.1136,208.936)"
       id="use1985"
       x="0"
       y="0"
       width="400"
       height="400"
       xlink:href="#path1891" />
    <use
       transform="matrix(0.478429,-0.350072,0.198082,0.270711,190.609,329.332)"
       id="use1987"
       x="0"
       y="0"
       width="400"
       height="400"
       xlink:href="#path1891" />
    <use
       transform="matrix(0.644127,-0.0603471,0.0324261,0.346106,73.2866,302.801)"
       id="use1989"
       x="0"
       y="0"
       width="400"
       height="400"
       xlink:href="#path1891" />
    <use
       transform="matrix(0.658316,0.0725194,-0.041425,0.376047,53.3598,271.261)"
       id="use1991"
       x="0"
       y="0"
       width="400"
       height="400"
       xlink:href="#path1891" />
    <use
       transform="matrix(0.696188,-0.151037,0.0687399,0.31685,85.2274,325.928)"
       id="use1993"
       x="0"
       y="0"
       width="400"
       height="400"
       xlink:href="#path1891" />
    <use
       transform="matrix(0.580415,0.207075,-0.110127,0.308678,52.3403,250.558)"
       id="use1995"
       x="0"
       y="0"
       width="400"
       height="400"
       xlink:href="#path1891" />
    <use
       transform="matrix(0.586363,-0.223879,0.101881,0.266838,130.996,342.756)"
       id="use1997"
       x="0"
       y="0"
       width="400"
       height="400"
       xlink:href="#path1891" />
    <use
       transform="matrix(0.559698,-0.323142,0.0974506,0.168789,168.581,369.914)"
       id="use1999"
       x="0"
       y="0"
       width="400"
       height="400"
       xlink:href="#path1891" />
    <use
       transform="matrix(0.543102,0.257541,-0.0915038,0.192963,32.4083,256.954)"
       id="use2001"
       x="0"
       y="0"
       width="400"
       height="400"
       xlink:href="#path1891" />
    <use
       transform="matrix(0.788295,0.138959,-0.15628,0.886555,18.0725,-33.7771)"
       id="use2003"
       x="0"
       y="0"
       width="400"
       height="400"
       xlink:href="#path1891" />
    <use
       transform="matrix(0.769749,0,0,0.9079,25.7552,-14.7472)"
       id="use2005"
       x="0"
       y="0"
       width="400"
       height="400"
       xlink:href="#path1891" />
    <use
       transform="matrix(0.723699,0,0,0.915575,67.9562,-24.1016)"
       id="use2007"
       x="0"
       y="0"
       width="400"
       height="400"
       xlink:href="#path1891" />
    <use
       transform="matrix(0.629211,0.0469344,-0.061468,0.824044,131.08,-21.6782)"
       id="use2009"
       x="0"
       y="0"
       width="400"
       height="400"
       xlink:href="#path1891" />
    <use
       transform="matrix(0.717792,0,0,0.804625,133.225,-13.606)"
       id="use2011"
       x="0"
       y="0"
       width="400"
       height="400"
       xlink:href="#path1891" />
    <use
       transform="matrix(0.573963,-0.0559913,0.0739067,0.757613,174.837,2.70461)"
       id="use2013"
       x="0"
       y="0"
       width="400"
       height="400"
       xlink:href="#path1891" />
    <use
       transform="matrix(0.463318,-0.145981,0.226707,0.719529,192.031,23.6166)"
       id="use2015"
       x="0"
       y="0"
       width="400"
       height="400"
       xlink:href="#path1891" />
    <use
       transform="matrix(0.212327,-0.0739043,0.207622,0.596497,263.012,24.1945)"
       id="use2017"
       x="0"
       y="0"
       width="400"
       height="400"
       xlink:href="#path1891" />
    <use
       transform="matrix(0.525141,0.0840414,-0.139832,0.873756,39.0353,-24.789)"
       id="use2019"
       x="0"
       y="0"
       width="400"
       height="400"
       xlink:href="#path1891" />
    <use
       transform="matrix(0.43287,0.0773195,-0.147496,0.825755,34.9492,-21.407)"
       id="use2021"
       x="0"
       y="0"
       width="400"
       height="400"
       xlink:href="#path1891" />
    <use
       transform="matrix(0.364641,0.0908675,-0.187719,0.753297,36.0806,-15.5962)"
       id="use2023"
       x="0"
       y="0"
       width="400"
       height="400"
       xlink:href="#path1891" />
    <use
       transform="matrix(0.281148,0.10909,-0.281225,0.724776,53.8645,-19.2133)"
       id="use2025"
       x="0"
       y="0"
       width="400"
       height="400"
       xlink:href="#path1891" />
    <path
       d="m 372,207 a 173,173 0 1 1 -346,0 173,173 0 1 1 346,0 z"
       transform="matrix(1.00865,0,0,1.00865,2.77955,-6.28945)"
       style="fill:url(#radialGradient2871);fill-opacity:1;fill-rule:nonzero;stroke:none"
       id="path2845"
       inkscape:connector-curvature="0" />
    <path
       d="m 372,207 a 173,173 0 1 1 -346,0 173,173 0 1 1 346,0 z"
       transform="matrix(1.00865,0,0,1.00865,2.77955,-6.28945)"
       style="fill:none;stroke:#000000;stroke-width:4.95714045;stroke-linecap:butt;stroke-linejoin:round;stroke-miterlimit:4;stroke-opacity:1;stroke-dasharray:none"
       id="path2877"
       inkscape:connector-curvature="0" />
  </g>
</svg>
