<?xml version="1.0" encoding="UTF-8" standalone="no"?>
<!-- Created with Inkscape (http://www.inkscape.org/) -->

<svg
   xmlns:dc="http://purl.org/dc/elements/1.1/"
   xmlns:cc="http://creativecommons.org/ns#"
   xmlns:rdf="http://www.w3.org/1999/02/22-rdf-syntax-ns#"
   xmlns:svg="http://www.w3.org/2000/svg"
   xmlns="http://www.w3.org/2000/svg"
   xmlns:xlink="http://www.w3.org/1999/xlink"
   xmlns:sodipodi="http://sodipodi.sourceforge.net/DTD/sodipodi-0.dtd"
   xmlns:inkscape="http://www.inkscape.org/namespaces/inkscape"
   version="1.0"
   width="96"
   height="96"
   id="svg2408"
   inkscape:version="0.48.1 r9760"
   sodipodi:docname="omgwords.svg"
   inkscape:export-filename="/media/Daten/projekte/ICONS/Faenza-Fresh/apps/omgwords.png"
   inkscape:export-xdpi="45"
   inkscape:export-ydpi="45">
  <sodipodi:namedview
     pagecolor="#ffffff"
     bordercolor="#666666"
     borderopacity="1"
     objecttolerance="10"
     gridtolerance="10"
     guidetolerance="10"
     inkscape:pageopacity="0"
     inkscape:pageshadow="2"
     inkscape:window-width="638"
     inkscape:window-height="500"
     id="namedview61"
     showgrid="false"
     inkscape:zoom="2.4121705"
     inkscape:cx="60.258626"
     inkscape:cy="38.110498"
     inkscape:window-x="865"
     inkscape:window-y="542"
     inkscape:window-maximized="0"
     inkscape:current-layer="svg2408"
     inkscape:snap-bbox="true"
     inkscape:bbox-paths="true"
     inkscape:bbox-nodes="true"
     inkscape:snap-bbox-edge-midpoints="true"
     inkscape:snap-bbox-midpoints="true"
     inkscape:snap-global="false" />
  <defs
     id="defs2410">
    <linearGradient
       id="linearGradient3932">
      <stop
         id="stop3934"
         style="stop-color:#c8c8c8;stop-opacity:1;"
         offset="0" />
      <stop
         id="stop3936"
         style="stop-color:#e1e1e1;stop-opacity:1;"
         offset="1" />
    </linearGradient>
    <linearGradient
       id="linearGradient3916">
      <stop
         offset="0"
         style="stop-color:#4d1f41;stop-opacity:1;"
         id="stop3918" />
      <stop
         offset="1"
         style="stop-color:#7d2755;stop-opacity:1;"
         id="stop3920" />
    </linearGradient>
    <linearGradient
       id="linearGradient4085">
      <stop
         id="stop4087"
         style="stop-color:#782121;stop-opacity:1"
         offset="0" />
      <stop
         id="stop4089"
         style="stop-color:#782121;stop-opacity:0"
         offset="1" />
    </linearGradient>
    <linearGradient
       id="linearGradient3694">
      <stop
         id="stop3696"
         style="stop-color:#e6e6e6;stop-opacity:1"
         offset="0" />
      <stop
         id="stop3698"
         style="stop-color:#f5f5f5;stop-opacity:1"
         offset="1" />
    </linearGradient>
    <linearGradient
       id="linearGradient3688">
      <stop
         id="stop3690"
         style="stop-color:#ad0d0d;stop-opacity:1"
         offset="0" />
      <stop
         id="stop3692"
         style="stop-color:#e02f11;stop-opacity:1"
         offset="1" />
    </linearGradient>
    <linearGradient
       x1="45.447727"
       y1="92.539597"
       x2="45.447727"
       y2="7.0165396"
       id="ButtonShadow"
       gradientUnits="userSpaceOnUse"
       gradientTransform="scale(1.0058652,0.994169)">
      <stop
         id="stop3750"
         style="stop-color:#000000;stop-opacity:1"
         offset="0" />
      <stop
         id="stop3752"
         style="stop-color:#000000;stop-opacity:0.58823532"
         offset="1" />
    </linearGradient>
    <linearGradient
       id="linearGradient3737">
      <stop
         id="stop3739"
         style="stop-color:#ffffff;stop-opacity:1"
         offset="0" />
      <stop
         id="stop3741"
         style="stop-color:#ffffff;stop-opacity:0"
         offset="1" />
    </linearGradient>
    <filter
       color-interpolation-filters="sRGB"
       id="filter3174">
      <feGaussianBlur
         id="feGaussianBlur3176"
         stdDeviation="1.71" />
    </filter>
    <linearGradient
       x1="36.357143"
       y1="6"
       x2="36.357143"
       y2="63.893143"
       id="linearGradient3188"
       xlink:href="#linearGradient3737"
       gradientUnits="userSpaceOnUse" />
    <filter
       x="-0.192"
       y="-0.192"
       width="1.3839999"
       height="1.3839999"
       color-interpolation-filters="sRGB"
       id="filter3794">
      <feGaussianBlur
         id="feGaussianBlur3796"
         stdDeviation="5.28" />
    </filter>
    <linearGradient
       x1="48"
       y1="20.220806"
       x2="48"
       y2="138.66119"
       id="linearGradient3613"
       xlink:href="#linearGradient3737"
       gradientUnits="userSpaceOnUse" />
    <radialGradient
       cx="48"
       cy="90.171875"
       r="42"
       fx="48"
       fy="90.171875"
       id="radialGradient3619"
       xlink:href="#linearGradient3737"
       gradientUnits="userSpaceOnUse"
       gradientTransform="matrix(1.1573129,0,0,0.99590774,-7.5510206,0.19713193)" />
    <clipPath
       id="clipPath3613">
      <rect
         width="84"
         height="84"
         rx="6"
         ry="6"
         x="6"
         y="6"
         id="rect3615"
         style="fill:#ffffff;fill-opacity:1;fill-rule:nonzero;stroke:none" />
    </clipPath>
    <linearGradient
       x1="48"
       y1="90"
       x2="48"
       y2="5.9877172"
       id="linearGradient3617"
       xlink:href="#linearGradient3932"
       gradientUnits="userSpaceOnUse" />
    <linearGradient
       x1="45.447727"
       y1="92.539597"
       x2="45.447727"
       y2="7.0165396"
       id="ButtonShadow-0"
       gradientUnits="userSpaceOnUse"
       gradientTransform="matrix(1.0058652,0,0,0.994169,100,0)">
      <stop
         id="stop3750-8"
         style="stop-color:#000000;stop-opacity:1"
         offset="0" />
      <stop
         id="stop3752-5"
         style="stop-color:#000000;stop-opacity:0.58823532"
         offset="1" />
    </linearGradient>
    <linearGradient
       x1="32.251034"
       y1="6.1317081"
       x2="32.251034"
       y2="90.238609"
       id="linearGradient3780"
       xlink:href="#ButtonShadow-0"
       gradientUnits="userSpaceOnUse"
       gradientTransform="matrix(1.0238095,0,0,1.0119048,-1.1428571,-98.071429)" />
    <linearGradient
       x1="32.251034"
       y1="6.1317081"
       x2="32.251034"
       y2="90.238609"
       id="linearGradient3772"
       xlink:href="#ButtonShadow-0"
       gradientUnits="userSpaceOnUse"
       gradientTransform="matrix(1.0238095,0,0,1.0119048,-1.1428571,-98.071429)" />
    <linearGradient
       x1="32.251034"
       y1="6.1317081"
       x2="32.251034"
       y2="90.238609"
       id="linearGradient3725"
       xlink:href="#ButtonShadow-0"
       gradientUnits="userSpaceOnUse"
       gradientTransform="matrix(1.0238095,0,0,1.0119048,-1.1428571,-98.071429)" />
    <linearGradient
       x1="32.251034"
       y1="6.1317081"
       x2="32.251034"
       y2="90.238609"
       id="linearGradient3721"
       xlink:href="#ButtonShadow-0"
       gradientUnits="userSpaceOnUse"
       gradientTransform="translate(0,-97)" />
    <linearGradient
       x1="32.251034"
       y1="6.1317081"
       x2="32.251034"
       y2="90.238609"
       id="linearGradient3026"
       xlink:href="#ButtonShadow-0"
       gradientUnits="userSpaceOnUse"
       gradientTransform="matrix(1.0238095,0,0,1.0119048,-1.1428571,-98.071429)" />
    <linearGradient
       x1="-73.494293"
       y1="72.699486"
       x2="-50.243786"
       y2="159.47563"
       id="linearGradient4018"
       xlink:href="#linearGradient3694"
       gradientUnits="userSpaceOnUse"
       gradientTransform="matrix(0.59136097,-0.15844727,-0.15844727,-0.59136097,103.35407,108.29989)" />
    <linearGradient
       x1="-73.494293"
       y1="72.699486"
       x2="-50.243786"
       y2="159.47563"
       id="linearGradient4071"
       xlink:href="#linearGradient3694"
       gradientUnits="userSpaceOnUse"
       gradientTransform="matrix(0.59136097,-0.15844727,-0.15844727,-0.59136097,103.35407,109.29989)" />
    <linearGradient
       x1="58"
       y1="19"
       x2="58"
       y2="120"
       id="linearGradient4091"
       xlink:href="#linearGradient4085"
       gradientUnits="userSpaceOnUse" />
    <filter
       id="filter3712"
       inkscape:collect="always"
       color-interpolation-filters="sRGB">
      <feGaussianBlur
         id="feGaussianBlur3714"
         stdDeviation="1.5889298"
         inkscape:collect="always" />
    </filter>
    <inkscape:perspective
       sodipodi:type="inkscape:persp3d"
       inkscape:vp_x="0 : 0.5 : 1"
       inkscape:vp_y="0 : 1000 : 0"
       inkscape:vp_z="1 : 0.5 : 1"
       inkscape:persp3d-origin="0.5 : 0.33333333 : 1"
       id="perspective3120" />
    <inkscape:perspective
       id="perspective3079"
       inkscape:persp3d-origin="32 : 21.333333 : 1"
       inkscape:vp_z="64 : 32 : 1"
       inkscape:vp_y="0 : 1000 : 0"
       inkscape:vp_x="0 : 32 : 1"
       sodipodi:type="inkscape:persp3d" />
    <radialGradient
       inkscape:collect="always"
       xlink:href="#linearGradient3737"
       id="radialGradient4098"
       gradientUnits="userSpaceOnUse"
       gradientTransform="matrix(1.1573129,0,0,0.99590774,-7.5510206,0.19713193)"
       cx="48"
       cy="90.171875"
       fx="48"
       fy="90.171875"
       r="42" />
    <linearGradient
       inkscape:collect="always"
       xlink:href="#linearGradient3737"
       id="linearGradient4101"
       gradientUnits="userSpaceOnUse"
       x1="36.357143"
       y1="6"
       x2="36.357143"
       y2="63.893143" />
    <linearGradient
       inkscape:collect="always"
       xlink:href="#linearGradient3932"
       id="linearGradient4104"
       gradientUnits="userSpaceOnUse"
       x1="48"
       y1="90"
       x2="48"
       y2="5.9877172" />
    <linearGradient
       inkscape:collect="always"
       xlink:href="#ButtonShadow-0"
       id="linearGradient4168"
       gradientUnits="userSpaceOnUse"
       gradientTransform="matrix(1.0238095,0,0,1.0119048,-1.1428571,-98.071429)"
       x1="32.251034"
       y1="6.1317081"
       x2="32.251034"
       y2="90.238609" />
    <linearGradient
       inkscape:collect="always"
       xlink:href="#ButtonShadow-0"
       id="linearGradient4170"
       gradientUnits="userSpaceOnUse"
       gradientTransform="matrix(1.0238095,0,0,1.0119048,-1.1428571,-98.071429)"
       x1="32.251034"
       y1="6.1317081"
       x2="32.251034"
       y2="90.238609" />
    <linearGradient
       inkscape:collect="always"
       xlink:href="#ButtonShadow-0"
       id="linearGradient4172"
       gradientUnits="userSpaceOnUse"
       gradientTransform="matrix(1.0238095,0,0,1.0119048,-1.1428571,-98.071429)"
       x1="32.251034"
       y1="6.1317081"
       x2="32.251034"
       y2="90.238609" />
    <linearGradient
       inkscape:collect="always"
       xlink:href="#ButtonShadow-0"
       id="linearGradient4174"
       gradientUnits="userSpaceOnUse"
       gradientTransform="matrix(1.0238095,0,0,1.0119048,-1.1428571,-98.071429)"
       x1="32.251034"
       y1="6.1317081"
       x2="32.251034"
       y2="90.238609" />
    <linearGradient
       inkscape:collect="always"
       xlink:href="#ButtonShadow-0"
       id="linearGradient4176"
       gradientUnits="userSpaceOnUse"
       gradientTransform="translate(0,-97)"
       x1="32.251034"
       y1="6.1317081"
       x2="32.251034"
       y2="90.238609" />
    <linearGradient
       inkscape:collect="always"
       xlink:href="#linearGradient3932"
       id="linearGradient4178"
       gradientUnits="userSpaceOnUse"
       x1="48"
       y1="90"
       x2="48"
       y2="5.9877172"
       gradientTransform="translate(0,118.7586)" />
    <linearGradient
       inkscape:collect="always"
       xlink:href="#linearGradient3737"
       id="linearGradient4180"
       gradientUnits="userSpaceOnUse"
       x1="36.357143"
       y1="6"
       x2="36.357143"
       y2="63.893143"
       gradientTransform="translate(0,118.7586)" />
    <radialGradient
       inkscape:collect="always"
       xlink:href="#linearGradient3737"
       id="radialGradient4182"
       gradientUnits="userSpaceOnUse"
       gradientTransform="matrix(1.1573129,0,0,0.99590774,-7.5510206,118.95573)"
       cx="48"
       cy="90.171875"
       fx="48"
       fy="90.171875"
       r="42" />
    <linearGradient
       inkscape:collect="always"
       xlink:href="#linearGradient3916"
       id="linearGradient4184"
       gradientUnits="userSpaceOnUse"
       gradientTransform="translate(0,119.42002)"
       x1="44.392879"
       y1="68.681305"
       x2="44.392879"
       y2="25.995842" />
    <linearGradient
       inkscape:collect="always"
       xlink:href="#linearGradient3916"
       id="linearGradient4200"
       gradientUnits="userSpaceOnUse"
       gradientTransform="translate(0,0.66142654)"
       x1="44.392879"
       y1="68.681305"
       x2="44.392879"
       y2="25.995842" />
  </defs>
  <metadata
     id="metadata2413">
    <rdf:RDF>
      <cc:Work
         rdf:about="">
        <dc:format>image/svg+xml</dc:format>
        <dc:type
           rdf:resource="http://purl.org/dc/dcmitype/StillImage" />
        <dc:title></dc:title>
      </cc:Work>
    </rdf:RDF>
  </metadata>
  <g
     id="layer2"
     style="display:none">
    <rect
       width="86"
       height="85"
       rx="6"
       ry="6"
       x="5"
       y="7"
       id="rect3745"
       style="opacity:0.9;fill:url(#ButtonShadow);fill-opacity:1;fill-rule:nonzero;stroke:none;filter:url(#filter3174)" />
  </g>
  <g
     id="g4221"
     transform="matrix(0.94349959,0,0,0.94349959,2.7120099,3.9580833)">
    <path
       sodipodi:type="arc"
       style="fill:#000000;fill-opacity:0.25490196;stroke:none;filter:url(#filter3712)"
       id="path3097"
       sodipodi:cx="-1239"
       sodipodi:cy="-246"
       sodipodi:rx="78"
       sodipodi:ry="78"
       d="m -1161,-246 c 0,43.07821 -34.9218,78 -78,78 -43.0782,0 -78,-34.92179 -78,-78 0,-43.07821 34.9218,-78 78,-78 43.0782,0 78,34.92179 78,78 z"
       transform="matrix(0.50114022,0,0,0.48402479,668.91274,165.66983)" />
    <path
       transform="matrix(0.50114022,0,0,0.48402479,115.97284,41.839683)"
       style="fill:#000000;fill-opacity:0.25490196;stroke:none;filter:url(#filter3712)"
       d="m -83.63637,63.62025 12,30 -34,-13"
       id="path3099"
       inkscape:connector-curvature="0" />
    <path
       transform="matrix(0.50114022,0,0,0.48402479,668.91274,164.70178)"
       d="m -1161,-246 c 0,43.07821 -34.9218,78 -78,78 -43.0782,0 -78,-34.92179 -78,-78 0,-43.07821 34.9218,-78 78,-78 43.0782,0 78,34.92179 78,78 z"
       sodipodi:ry="78"
       sodipodi:rx="78"
       sodipodi:cy="-246"
       sodipodi:cx="-1239"
       id="path3101"
       style="fill:#f15d22;fill-opacity:1;stroke:none"
       sodipodi:type="arc" />
    <path
       id="path3103"
       d="M 74.059292,71.66541 80.072977,86.186154 63.034208,79.893833"
       style="fill:#f15d22;fill-opacity:1;stroke:none"
       inkscape:connector-curvature="0" />
    <g
       id="g3105"
       style="font-size:1.00904107px;font-style:normal;font-weight:normal;fill:#ffffff;fill-opacity:1;stroke:none;font-family:monospace;-inkscape-font-specification:monospace"
       transform="matrix(3.9670751,-0.21299769,0.22052921,3.8315874,5.0475991,-158.95238)">
      <path
         id="path3107"
         style="font-variant:normal;font-weight:bold;font-stretch:normal;fill:#ffffff;fill-opacity:1;font-family:Arial Black;-inkscape-font-specification:'Arial Black, Bold'"
         d="m -0.71990286,52.193645 c -3.1e-7,-0.795947 0.2217126,-1.415634 0.66513941,-1.859064 0.44342485,-0.443422 1.06089535,-0.665135 1.85241325,-0.66514 0.8114664,5e-6 1.4366968,0.218392 1.8756931,0.655163 0.4389869,0.434561 0.6584827,1.044272 0.658488,1.829133 -5.3e-6,0.569805 -0.09645,1.037619 -0.2893356,1.403444 -0.1906782,0.36361 -0.4678193,0.647403 -0.8314243,0.851379 -0.3613963,0.201759 -0.812582,0.302638 -1.3535587,0.302638 -0.5498509,0 -1.00547091,-0.08758 -1.36686144,-0.26273 -0.35917644,-0.175153 -0.65072892,-0.452294 -0.87465832,-0.831424 -0.22393069,-0.379128 -0.33589571,-0.853594 -0.3358954,-1.423399 m 1.50654075,0.0067 c -1.81e-6,0.492205 0.0909005,0.845837 0.27270721,1.060897 0.1840196,0.215063 0.4334466,0.322594 0.7482818,0.322593 0.323698,10e-7 0.5742336,-0.105313 0.7516075,-0.315942 0.1773668,-0.210625 0.2660519,-0.588646 0.2660558,-1.134062 -3.9e-6,-0.458943 -0.093123,-0.79373 -0.2793586,-1.004361 -0.1840253,-0.212841 -0.4345609,-0.319263 -0.7516075,-0.319267 -0.3037495,4e-6 -0.5476337,0.107535 -0.7316534,0.322593 -0.18402376,0.215065 -0.27603462,0.570914 -0.27603281,1.067549"
         inkscape:connector-curvature="0" />
      <path
         id="path3109"
         style="font-variant:normal;font-weight:bold;font-stretch:normal;fill:#ffffff;fill-opacity:1;font-family:Arial Black;-inkscape-font-specification:'Arial Black, Bold'"
         d="m 4.3765435,49.752584 1.9821154,0 0.7649103,2.966521 0.7615846,-2.966521 1.9754641,0 0,4.875472 -1.2305079,0 0,-3.71813 -0.9544751,3.71813 -1.1141085,0 -0.9511493,-3.71813 0,3.71813 -1.2338336,0 0,-4.875472"
         inkscape:connector-curvature="0" />
      <path
         id="path3111"
         style="font-variant:normal;font-weight:bold;font-stretch:normal;fill:#ffffff;fill-opacity:1;font-family:Arial Black;-inkscape-font-specification:'Arial Black, Bold'"
         d="m 12.638807,52.86211 0,-1.014337 2.327988,0 0,2.07856 c -0.445648,0.303748 -0.840297,0.511049 -1.183948,0.621906 -0.341442,0.108639 -0.747177,0.162959 -1.217205,0.162959 -0.578674,0 -1.050923,-0.09866 -1.416747,-0.295987 -0.363611,-0.197324 -0.646295,-0.491094 -0.848053,-0.88131 -0.199542,-0.390213 -0.299313,-0.838073 -0.299313,-1.343581 0,-0.532109 0.109748,-0.99438 0.329244,-1.386816 0.219495,-0.394645 0.540979,-0.693958 0.964452,-0.897938 0.330351,-0.157412 0.774885,-0.23612 1.333605,-0.236125 0.538759,5e-6 0.941168,0.04878 1.207228,0.146331 0.268268,0.09756 0.489981,0.249432 0.665139,0.45562 0.177366,0.203981 0.310393,0.463385 0.399084,0.778214 l -1.45333,0.259404 c -0.05987,-0.184018 -0.161854,-0.324806 -0.305964,-0.422364 -0.1419,-0.09755 -0.323704,-0.146326 -0.545414,-0.14633 -0.330355,4e-6 -0.594194,0.115294 -0.791516,0.345872 -0.19511,0.228368 -0.292663,0.590869 -0.292661,1.087503 -2e-6,0.527679 0.09866,0.904591 0.295987,1.130737 0.199539,0.226149 0.47668,0.339222 0.831424,0.339221 0.168499,10e-7 0.329241,-0.02439 0.482226,-0.07317 0.152978,-0.04878 0.328132,-0.131918 0.52546,-0.249427 l 0,-0.458947 -1.007686,0"
         inkscape:connector-curvature="0" />
      <path
         id="path3113"
         style="font-variant:normal;font-weight:bold;font-stretch:normal;fill:#ffffff;fill-opacity:1;font-family:Arial Black;-inkscape-font-specification:'Arial Black, Bold'"
         d="m 15.02481,49.752584 1.446678,0 0,1.110783 -0.279359,2.231542 -0.894612,0 -0.272707,-2.231542 0,-1.110783 m 0.04988,3.681546 1.350233,0 0,1.193926 -1.350233,0 0,-1.193926"
         inkscape:connector-curvature="0" />
    </g>
    <g
       id="g3115"
       style="font-size:2.16666675px;font-style:normal;font-weight:normal;fill:#ffffff;fill-opacity:1;stroke:none;font-family:monospace;-inkscape-font-specification:monospace"
       transform="matrix(3.9669506,-0.21514742,0.22275508,3.8314673,5.0475991,-158.95238)">
      <path
         id="path3117"
         style="font-size:2.16666675px;fill:#ffffff;font-family:ARIAL BLACK;-inkscape-font-specification:ARIAL BLACK"
         d="m -0.73902862,54.841792 0.90040163,0 0.32456337,1.714951 0.47323435,-1.714951 0.89830767,0 0.4753283,1.714951 0.3245634,-1.714951 0.8962137,0 -0.6763482,3.069741 -0.929717,0 -0.5381471,-1.932722 -0.53605302,1.932722 -0.92971703,0 -0.68263007,-3.069741"
         inkscape:connector-curvature="0" />
      <path
         id="path3119"
         style="font-size:2.16666675px;fill:#ffffff;font-family:ARIAL BLACK;-inkscape-font-specification:ARIAL BLACK"
         d="m 3.3678375,56.378757 c -2e-7,-0.501152 0.1395969,-0.891326 0.4187915,-1.170522 0.2791934,-0.279192 0.6679711,-0.418789 1.1663342,-0.418792 0.5109233,3e-6 0.9045869,0.137506 1.1809919,0.41251 0.2763991,0.273612 0.4146002,0.657504 0.4146035,1.151676 -3.3e-6,0.358766 -0.060728,0.653316 -0.1821742,0.88365 -0.1200567,0.22894 -0.2945529,0.407624 -0.5234894,0.536053 -0.2275458,0.127034 -0.5116257,0.19055 -0.8522406,0.19055 -0.3462024,0 -0.6330742,-0.05514 -0.8606164,-0.165422 C 3.9038899,57.688178 3.7203198,57.513682 3.5793272,57.27497 3.4383338,57.03626 3.3678373,56.737522 3.3678375,56.378757 m 0.9485627,0.0042 c -1.2e-6,0.309906 0.057234,0.532564 0.1717045,0.667972 0.1158642,0.13541 0.2729108,0.203114 0.4711404,0.203114 0.2038098,0 0.3615544,-0.06631 0.4732343,-0.198926 0.1116754,-0.132616 0.1675142,-0.370629 0.1675166,-0.71404 -2.4e-6,-0.288964 -0.058633,-0.499755 -0.1758924,-0.632375 -0.1158678,-0.134011 -0.2736124,-0.201017 -0.4732344,-0.20102 -0.1912496,3e-6 -0.3448064,0.06771 -0.4606706,0.203114 -0.1158668,0.135412 -0.1737996,0.359465 -0.1737984,0.672161"
         inkscape:connector-curvature="0" />
      <path
         id="path3121"
         style="font-size:2.16666675px;fill:#ffffff;font-family:ARIAL BLACK;-inkscape-font-specification:ARIAL BLACK"
         d="m 6.6978455,57.911533 0,-3.069741 1.5809377,0 c 0.2931519,3e-6 0.5172051,0.02513 0.6721603,0.07538 0.1549501,0.05026 0.2798895,0.143788 0.3748184,0.280591 0.094923,0.135412 0.142386,0.300834 0.1423891,0.496268 -3.1e-6,0.17031 -0.036298,0.317585 -0.1088858,0.441825 -0.072593,0.122847 -0.1724053,0.222659 -0.2994359,0.299435 -0.080969,0.04886 -0.1919486,0.08934 -0.3329392,0.12145 0.1130712,0.03769 0.1954335,0.07538 0.247087,0.113074 0.034897,0.02513 0.085151,0.07887 0.1507649,0.161234 0.067004,0.08236 0.1116748,0.14588 0.1340132,0.190551 l 0.4585767,0.889931 -1.0721061,0 L 8.1384881,56.97344 C 8.0742717,56.851992 8.0170369,56.77312 7.9667836,56.736823 7.8983795,56.689362 7.8209031,56.66563 7.7343543,56.665629 l -0.083758,0 0,1.245904 -0.9527506,0 m 0.9527506,-1.82593 0.3999458,0 c 0.043273,10e-7 0.1270316,-0.01396 0.2512749,-0.04188 0.062817,-0.01256 0.1137696,-0.04467 0.1528588,-0.09632 0.040481,-0.05165 0.060723,-0.110977 0.060725,-0.177986 -2.1e-6,-0.09911 -0.031412,-0.175192 -0.094228,-0.228241 -0.062821,-0.05304 -0.1807801,-0.07957 -0.3538787,-0.07957 l -0.4166975,0 0,0.624"
         inkscape:connector-curvature="0" />
      <path
         id="path3123"
         style="font-size:2.16666675px;fill:#ffffff;font-family:ARIAL BLACK;-inkscape-font-specification:ARIAL BLACK"
         d="m 9.7791653,54.841792 1.4092337,0 c 0.277796,3e-6 0.501849,0.03769 0.67216,0.113074 0.171702,0.07538 0.313393,0.183573 0.425073,0.324563 0.111675,0.140996 0.192641,0.305022 0.242899,0.49208 0.05025,0.187062 0.07538,0.38529 0.07538,0.594684 -3e-6,0.328054 -0.03769,0.582819 -0.113074,0.764294 -0.07399,0.180081 -0.177291,0.331544 -0.309906,0.454389 -0.13262,0.12145 -0.275009,0.202416 -0.427167,0.242899 -0.208002,0.05584 -0.396458,0.08376 -0.565368,0.08376 l -1.4092337,0 0,-3.069741 m 0.9485627,0.695194 0,1.67726 0.232429,0 c 0.198226,0 0.339219,-0.02164 0.42298,-0.06491 0.08376,-0.04467 0.149366,-0.121449 0.196832,-0.230335 0.04746,-0.110281 0.07119,-0.288267 0.07119,-0.533959 -2e-6,-0.32526 -0.05305,-0.547917 -0.159141,-0.667973 -0.106095,-0.120051 -0.281988,-0.180078 -0.527677,-0.18008 l -0.236617,0"
         inkscape:connector-curvature="0" />
      <path
         id="path3125"
         style="font-size:2.16666675px;fill:#ffffff;font-family:ARIAL BLACK;-inkscape-font-specification:ARIAL BLACK"
         d="m 12.682499,56.895964 0.902495,-0.05654 c 0.01954,0.146578 0.05933,0.258256 0.119356,0.335033 0.09772,0.124242 0.237314,0.186363 0.418791,0.186363 0.135408,0 0.239408,-0.03141 0.312,-0.09423 0.07398,-0.06421 0.110978,-0.138201 0.11098,-0.22196 -2e-6,-0.07957 -0.0349,-0.150764 -0.104698,-0.213584 -0.0698,-0.06282 -0.231733,-0.122146 -0.485798,-0.177986 -0.416001,-0.09353 -0.712644,-0.21777 -0.889932,-0.372724 -0.178685,-0.154951 -0.268027,-0.352481 -0.268027,-0.59259 0,-0.157743 0.04537,-0.306413 0.136108,-0.446013 0.09213,-0.14099 0.229636,-0.251272 0.412509,-0.330845 0.184267,-0.08096 0.43624,-0.121447 0.755919,-0.12145 0.392266,3e-6 0.691003,0.07329 0.896213,0.219866 0.206602,0.145183 0.329447,0.376914 0.368537,0.695193 l -0.89412,0.05235 c -0.02373,-0.138199 -0.07399,-0.238708 -0.150765,-0.30153 -0.07538,-0.06282 -0.180082,-0.09422 -0.314093,-0.09423 -0.110283,3e-6 -0.193344,0.02373 -0.249181,0.0712 -0.05584,0.04607 -0.08376,0.102606 -0.08376,0.16961 -1e-6,0.04886 0.02303,0.09284 0.0691,0.13192 0.04467,0.04049 0.150764,0.07818 0.318282,0.113073 0.414601,0.08935 0.711245,0.180083 0.889931,0.272215 0.180078,0.09074 0.310601,0.203813 0.39157,0.339221 0.08236,0.135411 0.123541,0.286873 0.123544,0.454389 -3e-6,0.196833 -0.05445,0.378309 -0.163329,0.544429 -0.108888,0.166121 -0.261049,0.292456 -0.456482,0.379006 -0.195439,0.08515 -0.441827,0.127731 -0.739167,0.127731 -0.522095,0 -0.883651,-0.10051 -1.08467,-0.30153 -0.20102,-0.201019 -0.314792,-0.456482 -0.341315,-0.766388"
         inkscape:connector-curvature="0" />
      <path
         id="path3127"
         style="font-size:2.16666675px;fill:#ffffff;font-family:ARIAL BLACK;-inkscape-font-specification:ARIAL BLACK"
         d="m 15.45108,54.841792 0.910871,0 0,0.699382 -0.175892,1.405045 -0.563275,0 -0.171704,-1.405045 0,-0.699382 m 0.03141,2.318011 0.850147,0 0,0.75173 -0.850147,0 0,-0.75173"
         inkscape:connector-curvature="0" />
    </g>
  </g>
  <text
     sodipodi:linespacing="125%"
     id="text3144"
     y="49.228157"
     x="38.019218"
     style="font-size:72px;font-style:normal;font-variant:normal;font-weight:normal;font-stretch:normal;text-align:start;line-height:125%;letter-spacing:-12.18000031px;word-spacing:0px;text-anchor:start;fill:#000000;fill-opacity:1;stroke:none;font-family:ReservoirGrunge;-inkscape-font-specification:ReservoirGrunge"
     xml:space="preserve"><tspan
       y="49.228157"
       x="38.019218"
       id="tspan3146"
       sodipodi:role="line" /></text>
  <g
     id="layer5" />
</svg>
