<?xml version="1.0" encoding="UTF-8" standalone="no"?>
<!-- Created with Inkscape (http://www.inkscape.org/) -->

<svg
   xmlns:dc="http://purl.org/dc/elements/1.1/"
   xmlns:cc="http://creativecommons.org/ns#"
   xmlns:rdf="http://www.w3.org/1999/02/22-rdf-syntax-ns#"
   xmlns:svg="http://www.w3.org/2000/svg"
   xmlns="http://www.w3.org/2000/svg"
   xmlns:xlink="http://www.w3.org/1999/xlink"
   xmlns:sodipodi="http://sodipodi.sourceforge.net/DTD/sodipodi-0.dtd"
   xmlns:inkscape="http://www.inkscape.org/namespaces/inkscape"
   width="128"
   height="128"
   id="svg3886"
   version="1.1"
   inkscape:version="0.48.1 r9760"
   sodipodi:docname="6.svg">
  <defs
     id="defs3888">
    <linearGradient
       inkscape:collect="always"
       xlink:href="#linearGradient3924"
       id="linearGradient2984"
       gradientUnits="userSpaceOnUse"
       gradientTransform="matrix(2.7297298,0,0,2.7297298,-1.5135108,-62.513486)"
       x1="23.99999"
       y1="4.999989"
       x2="23.99999"
       y2="43" />
    <linearGradient
       id="linearGradient3924">
      <stop
         id="stop3926"
         style="stop-color:#ffffff;stop-opacity:1;"
         offset="0" />
      <stop
         offset="0.06316455"
         style="stop-color:#ffffff;stop-opacity:0.23529412;"
         id="stop3928" />
      <stop
         id="stop3930"
         style="stop-color:#ffffff;stop-opacity:0.15686275;"
         offset="0.95056331" />
      <stop
         id="stop3932"
         style="stop-color:#ffffff;stop-opacity:0.39215687;"
         offset="1" />
    </linearGradient>
    <radialGradient
       inkscape:collect="always"
       xlink:href="#linearGradient7012-661-145-733-759-865-745-661-970-94-8"
       id="radialGradient2990"
       gradientUnits="userSpaceOnUse"
       gradientTransform="matrix(5.131108e-8,6.1720507,-6.5292935,-1.1371273e-7,119.1713,-93.225241)"
       cx="7.4956832"
       cy="8.4497671"
       fx="7.4956832"
       fy="8.4497671"
       r="19.99999" />
    <linearGradient
       id="linearGradient7012-661-145-733-759-865-745-661-970-94-8">
      <stop
         id="stop3618-1"
         style="stop-color:#f0c178;stop-opacity:1"
         offset="0" />
      <stop
         id="stop3270-2"
         style="stop-color:#e18941;stop-opacity:1"
         offset="0.5" />
      <stop
         id="stop3620-8"
         style="stop-color:#ec4f18;stop-opacity:1"
         offset="1" />
    </linearGradient>
    <linearGradient
       inkscape:collect="always"
       xlink:href="#linearGradient3390-178-986-453-3"
       id="linearGradient2992"
       gradientUnits="userSpaceOnUse"
       gradientTransform="matrix(2.6410257,0,0,2.6410257,0.6153792,-60.384617)"
       x1="24"
       y1="44"
       x2="24"
       y2="3.8990016" />
    <linearGradient
       id="linearGradient3390-178-986-453-3">
      <stop
         id="stop3624-6"
         style="stop-color:#ba4712;stop-opacity:1;"
         offset="0" />
      <stop
         offset="0.5"
         style="stop-color:#cf671c;stop-opacity:1;"
         id="stop3856-8" />
      <stop
         id="stop3626-0"
         style="stop-color:#e27f39;stop-opacity:1;"
         offset="1" />
    </linearGradient>
    <radialGradient
       cx="4.9929786"
       cy="43.5"
       r="2.5"
       fx="4.9929786"
       fy="43.5"
       id="radialGradient2455"
       xlink:href="#linearGradient3688-166-749"
       gradientUnits="userSpaceOnUse"
       gradientTransform="matrix(2.003784,0,0,1.4,27.98813,-17.4)" />
    <linearGradient
       id="linearGradient3688-166-749">
      <stop
         id="stop2883"
         style="stop-color:#181818;stop-opacity:1"
         offset="0" />
      <stop
         id="stop2885"
         style="stop-color:#181818;stop-opacity:0"
         offset="1" />
    </linearGradient>
    <radialGradient
       cx="4.9929786"
       cy="43.5"
       r="2.5"
       fx="4.9929786"
       fy="43.5"
       id="radialGradient2457"
       xlink:href="#linearGradient3688-464-309"
       gradientUnits="userSpaceOnUse"
       gradientTransform="matrix(2.003784,0,0,1.4,-20.01187,-104.4)" />
    <linearGradient
       id="linearGradient3688-464-309">
      <stop
         id="stop2889"
         style="stop-color:#181818;stop-opacity:1"
         offset="0" />
      <stop
         id="stop2891"
         style="stop-color:#181818;stop-opacity:0"
         offset="1" />
    </linearGradient>
    <linearGradient
       x1="25.058096"
       y1="47.027729"
       x2="25.058096"
       y2="39.999443"
       id="linearGradient2459"
       xlink:href="#linearGradient3702-501-757"
       gradientUnits="userSpaceOnUse" />
    <linearGradient
       id="linearGradient3702-501-757">
      <stop
         id="stop2895"
         style="stop-color:#181818;stop-opacity:0"
         offset="0" />
      <stop
         id="stop2897"
         style="stop-color:#181818;stop-opacity:1"
         offset="0.5" />
      <stop
         id="stop2899"
         style="stop-color:#181818;stop-opacity:0"
         offset="1" />
    </linearGradient>
    <linearGradient
       x1="48"
       y1="90"
       x2="48"
       y2="5.9877172"
       id="linearGradient3706"
       xlink:href="#linearGradient4694"
       gradientUnits="userSpaceOnUse"
       gradientTransform="translate(12,0)" />
    <linearGradient
       x1="58.650177"
       y1="122"
       x2="58.650177"
       y2="5.4252338"
       id="linearGradient4694"
       xlink:href="#linearGradient4688"
       gradientUnits="userSpaceOnUse"
       gradientTransform="matrix(1.0172414,0,0,1.0172414,-1.1034483,-1.1034483)"
       spreadMethod="pad">
      <stop
         id="stop4696"
         style="stop-color:#6c8f11;stop-opacity:1"
         offset="0" />
      <stop
         id="stop4698"
         style="stop-color:#c9ed64;stop-opacity:1"
         offset="1" />
    </linearGradient>
    <linearGradient
       x1="58.650177"
       y1="122"
       x2="58.650177"
       y2="5.4252338"
       id="linearGradient4688"
       xlink:href="#linearGradient4682"
       gradientUnits="userSpaceOnUse"
       gradientTransform="matrix(1.0172414,0,0,1.0172414,-1.1034483,-1.1034483)"
       spreadMethod="pad">
      <stop
         id="stop4690"
         style="stop-color:#67831d;stop-opacity:1"
         offset="0" />
      <stop
         id="stop4692"
         style="stop-color:#c2df71;stop-opacity:1"
         offset="1" />
    </linearGradient>
    <linearGradient
       x1="58.650177"
       y1="122"
       x2="58.650177"
       y2="5.4252338"
       id="linearGradient4682"
       xlink:href="#linearGradient4676"
       gradientUnits="userSpaceOnUse"
       gradientTransform="matrix(1.0172414,0,0,1.0172414,-1.1034483,-1.1034483)"
       spreadMethod="pad">
      <stop
         id="stop4684"
         style="stop-color:#67831d;stop-opacity:1"
         offset="0" />
      <stop
         id="stop4686"
         style="stop-color:#c2df71;stop-opacity:1"
         offset="1" />
    </linearGradient>
    <linearGradient
       x1="58.650177"
       y1="122"
       x2="58.650177"
       y2="5.4252338"
       id="linearGradient4676"
       xlink:href="#linearGradient4664"
       gradientUnits="userSpaceOnUse"
       gradientTransform="matrix(1.0172414,0,0,1.0172414,-1.1034483,-1.1034483)"
       spreadMethod="pad">
      <stop
         id="stop4678"
         style="stop-color:#67831d;stop-opacity:1"
         offset="0" />
      <stop
         id="stop4680"
         style="stop-color:#c2df71;stop-opacity:1"
         offset="1" />
    </linearGradient>
    <linearGradient
       x1="58.650177"
       y1="122"
       x2="58.650177"
       y2="5.4252338"
       id="linearGradient4664"
       xlink:href="#linearGradient4658"
       gradientUnits="userSpaceOnUse"
       gradientTransform="matrix(1.0172414,0,0,1.0172414,-1.1034483,-1.1034483)"
       spreadMethod="pad">
      <stop
         id="stop4666"
         style="stop-color:#67831d;stop-opacity:1"
         offset="0" />
      <stop
         id="stop4668"
         style="stop-color:#c2df71;stop-opacity:1"
         offset="1" />
    </linearGradient>
    <linearGradient
       x1="58.650177"
       y1="122"
       x2="58.650177"
       y2="5.4252338"
       id="linearGradient4658"
       gradientUnits="userSpaceOnUse"
       gradientTransform="matrix(1.0172414,0,0,1.0172414,-1.1034483,-1.1034483)">
      <stop
         id="stop4660"
         style="stop-color:#67831d;stop-opacity:1"
         offset="0" />
      <stop
         id="stop4662"
         style="stop-color:#c2df71;stop-opacity:1"
         offset="1" />
    </linearGradient>
    <linearGradient
       x1="18.637215"
       y1="89.20327"
       x2="18.637215"
       y2="6"
       id="linearGradient3708"
       xlink:href="#linearGradient3513"
       gradientUnits="userSpaceOnUse" />
    <linearGradient
       id="linearGradient3513">
      <stop
         id="stop3515"
         style="stop-color:#102340;stop-opacity:1"
         offset="0" />
      <stop
         id="stop3517"
         style="stop-color:#27599c;stop-opacity:1"
         offset="1" />
    </linearGradient>
    <linearGradient
       x1="36.357143"
       y1="6"
       x2="36.357143"
       y2="63.893143"
       id="linearGradient3188"
       xlink:href="#linearGradient3737"
       gradientUnits="userSpaceOnUse" />
    <linearGradient
       id="linearGradient3737">
      <stop
         id="stop3739"
         style="stop-color:#ffffff;stop-opacity:1"
         offset="0" />
      <stop
         id="stop3741"
         style="stop-color:#ffffff;stop-opacity:0"
         offset="1" />
    </linearGradient>
    <filter
       x="-0.20999999"
       y="-0.28"
       width="1.42"
       height="1.5599999"
       color-interpolation-filters="sRGB"
       id="filter3673">
      <feGaussianBlur
         id="feGaussianBlur3675"
         stdDeviation="2.8" />
    </filter>
    <radialGradient
       cx="48"
       cy="90.171875"
       r="42"
       fx="48"
       fy="90.171875"
       id="radialGradient2874"
       xlink:href="#linearGradient3737-6"
       gradientUnits="userSpaceOnUse"
       gradientTransform="matrix(1.1573129,0,0,0.99590774,-7.551021,0.1971319)" />
    <linearGradient
       id="linearGradient3737-6">
      <stop
         id="stop3739-1"
         style="stop-color:#ffffff;stop-opacity:1"
         offset="0" />
      <stop
         id="stop3741-5"
         style="stop-color:#ffffff;stop-opacity:0"
         offset="1" />
    </linearGradient>
    <radialGradient
       cx="48.193913"
       cy="58.66795"
       r="33.906048"
       fx="48.193913"
       fy="58.66795"
       id="radialGradient3787-7"
       xlink:href="#linearGradient3601-2"
       gradientUnits="userSpaceOnUse"
       gradientTransform="matrix(0.9473764,-0.3327843,0.2051643,0.5840656,-9.5004368,28.453781)" />
    <linearGradient
       id="linearGradient3601-2">
      <stop
         id="stop3603-0"
         style="stop-color:#b8d9f4;stop-opacity:1"
         offset="0" />
      <stop
         id="stop3605-5"
         style="stop-color:#ebf4fc;stop-opacity:1"
         offset="1" />
    </linearGradient>
    <radialGradient
       cx="48.241459"
       cy="38.667461"
       r="25.550245"
       fx="48.241459"
       fy="38.667461"
       id="radialGradient3789-0"
       xlink:href="#linearGradient3601-2"
       gradientUnits="userSpaceOnUse"
       gradientTransform="matrix(0.8476225,-0.3415184,0.2499426,0.620338,-2.3137345,16.411146)" />
    <linearGradient
       id="linearGradient3114">
      <stop
         id="stop3116"
         style="stop-color:#b8d9f4;stop-opacity:1"
         offset="0" />
      <stop
         id="stop3118"
         style="stop-color:#ebf4fc;stop-opacity:1"
         offset="1" />
    </linearGradient>
    <radialGradient
       r="42"
       fy="90.171875"
       fx="48"
       cy="90.171875"
       cx="48"
       gradientTransform="matrix(1.1573129,0,0,0.99590774,-7.551021,0.1971319)"
       gradientUnits="userSpaceOnUse"
       id="radialGradient3141"
       xlink:href="#linearGradient3737-6"
       inkscape:collect="always" />
    <linearGradient
       inkscape:collect="always"
       xlink:href="#linearGradient4694"
       id="linearGradient4158"
       gradientUnits="userSpaceOnUse"
       gradientTransform="translate(12,0)"
       x1="48"
       y1="90"
       x2="48"
       y2="5.9877172" />
    <linearGradient
       inkscape:collect="always"
       xlink:href="#linearGradient3513"
       id="linearGradient4160"
       gradientUnits="userSpaceOnUse"
       x1="18.637215"
       y1="89.20327"
       x2="18.637215"
       y2="6" />
    <linearGradient
       inkscape:collect="always"
       xlink:href="#linearGradient3737"
       id="linearGradient4162"
       gradientUnits="userSpaceOnUse"
       x1="36.357143"
       y1="6"
       x2="36.357143"
       y2="63.893143" />
  </defs>
  <sodipodi:namedview
     id="base"
     pagecolor="#ffffff"
     bordercolor="#666666"
     borderopacity="1.0"
     inkscape:pageopacity="0.0"
     inkscape:pageshadow="2"
     inkscape:zoom="4.765625"
     inkscape:cx="64"
     inkscape:cy="64"
     inkscape:current-layer="layer1"
     showgrid="true"
     inkscape:document-units="px"
     inkscape:grid-bbox="true"
     inkscape:window-width="926"
     inkscape:window-height="798"
     inkscape:window-x="499"
     inkscape:window-y="218"
     inkscape:window-maximized="0" />
  <metadata
     id="metadata3891">
    <rdf:RDF>
      <cc:Work
         rdf:about="">
        <dc:format>image/svg+xml</dc:format>
        <dc:type
           rdf:resource="http://purl.org/dc/dcmitype/StillImage" />
        <dc:title></dc:title>
      </cc:Work>
    </rdf:RDF>
  </metadata>
  <g
     id="layer1"
     inkscape:label="Layer 1"
     inkscape:groupmode="layer"
     transform="translate(0,64)">
    <g
       transform="matrix(2.9499988,0,0,1.2222234,-6.8000012,1.555537)"
       id="g2036"
       style="display:inline">
      <g
         transform="matrix(1.052632,0,0,1.285713,-1.263158,-13.42854)"
         id="g3712"
         style="opacity:0.4">
        <rect
           width="5"
           height="7"
           x="38"
           y="40"
           id="rect2801"
           style="fill:url(#radialGradient2455);fill-opacity:1;stroke:none" />
        <rect
           width="5"
           height="7"
           x="-10"
           y="-47"
           transform="scale(-1,-1)"
           id="rect3696"
           style="fill:url(#radialGradient2457);fill-opacity:1;stroke:none" />
        <rect
           width="28"
           height="7.0000005"
           x="10"
           y="40"
           id="rect3700"
           style="fill:url(#linearGradient2459);fill-opacity:1;stroke:none" />
      </g>
    </g>
    <rect
       style="color:#000000;fill:url(#radialGradient2990);fill-opacity:1;fill-rule:nonzero;stroke:url(#linearGradient2992);stroke-width:0.99999994;stroke-linecap:round;stroke-linejoin:round;stroke-miterlimit:4;stroke-opacity:1;stroke-dasharray:none;stroke-dashoffset:0;marker:none;visibility:visible;display:inline;overflow:visible;enable-background:accumulate"
       id="rect5505-21"
       y="-48.5"
       x="12.5"
       ry="6"
       rx="6"
       height="103"
       width="103" />
    <rect
       style="opacity:0.5;fill:none;stroke:url(#linearGradient2984);stroke-width:0.99999994;stroke-linecap:round;stroke-linejoin:round;stroke-miterlimit:4;stroke-opacity:1;stroke-dasharray:none;stroke-dashoffset:0"
       id="rect6741-7"
       y="-47.5"
       x="13.5"
       ry="5"
       rx="5"
       height="101"
       width="101" />
    <g
       transform="matrix(1.2423107,0,0,1.2448087,4.4740051,-56.603278)"
       id="layer1-1">
      <rect
         width="72"
         height="84"
         rx="6"
         ry="6"
         x="18"
         y="6"
         id="rect2419"
         style="fill:url(#linearGradient4158);fill-opacity:1;fill-rule:nonzero;stroke:none" />
      <path
         d="M 12,6 C 8.676,6 6,8.676 6,12 L 6,12.53125 6,83.46875 6,84 c 0,3.324 2.676,6 6,6 l 0.53125,0 1.75,0 13.4375,0 c 7.39089,-14.512671 8.1682,-26.256563 4,-41.8125 C 27.15238,31.145588 26.38061,21.149961 34.5625,6.03125 L 35.0625,6 15.53125,6 l -3,0 L 12,6 z"
         inkscape:connector-curvature="0"
         id="path2400"
         style="fill:url(#linearGradient4160);fill-opacity:1;stroke:none;display:inline" />
      <path
         d="M 32.53125,8 C 32.859458,7.3483329 33.199493,6.7020232 33.5625,6.03125 L 34.0625,6 32.53125,8 z M 31.875,9.34375 c -7.430268,14.387763 -6.587556,24.305905 -2.15625,40.84375 3.907688,14.583691 3.472539,25.819738 -2.6875,39.125 7.069338,-14.199366 7.789946,-25.81446 3.6875,-41.125 C 26.494557,32.422609 25.520732,22.682512 31.875,9.34375 z"
         inkscape:connector-curvature="0"
         id="path3755"
         style="opacity:0.3;fill:#000000;fill-opacity:1;stroke:none;display:inline" />
      <path
         d="m 34.0625,6 -0.5,0.03125 c -8.18189,15.118711 -7.41012,25.114338 -2.84375,42.15625 4.1682,15.555937 3.39089,27.299829 -4,41.8125 l 1,0 c 7.39089,-14.512671 8.1682,-26.256563 4,-41.8125 C 27.15238,31.145588 26.38061,21.149961 34.5625,6.03125 L 35.0625,6 l -1,0 z"
         inkscape:connector-curvature="0"
         id="path3521"
         style="fill:#0c1b2f;fill-opacity:1;stroke:none;display:inline" />
      <path
         d="M 12,6 C 8.676,6 6,8.676 6,12 l 0,2 0,68 0,2 c 0,0.334721 0.04135,0.6507 0.09375,0.96875 0.0487,0.295596 0.09704,0.596915 0.1875,0.875 0.00988,0.03038 0.020892,0.0636 0.03125,0.09375 0.098865,0.287771 0.2348802,0.547452 0.375,0.8125 0.1445918,0.273507 0.3156161,0.535615 0.5,0.78125 0.1843839,0.245635 0.3737765,0.473472 0.59375,0.6875 0.439947,0.428056 0.94291,0.814526 1.5,1.09375 0.278545,0.139612 0.5734731,0.246947 0.875,0.34375 -0.2562018,-0.100222 -0.4867109,-0.236272 -0.71875,-0.375 -0.00741,-0.0044 -0.023866,0.0045 -0.03125,0 -0.031933,-0.0193 -0.062293,-0.04251 -0.09375,-0.0625 -0.120395,-0.0767 -0.2310226,-0.163513 -0.34375,-0.25 -0.1061728,-0.0808 -0.2132809,-0.161112 -0.3125,-0.25 C 8.4783201,88.557317 8.3087904,88.373362 8.15625,88.1875 8.0486711,88.057245 7.9378561,87.922215 7.84375,87.78125 7.818661,87.74287 7.805304,87.69538 7.78125,87.65625 7.716487,87.553218 7.6510225,87.451733 7.59375,87.34375 7.4927417,87.149044 7.3880752,86.928049 7.3125,86.71875 7.30454,86.69694 7.288911,86.6782 7.28125,86.65625 7.2494249,86.5643 7.2454455,86.469419 7.21875,86.375 7.1884177,86.268382 7.1483606,86.171969 7.125,86.0625 7.0521214,85.720988 7,85.364295 7,85 L 7,83 7,15 7,13 C 7,10.218152 9.2181517,8 12,8 l 2,0 68,0 2,0 c 2.781848,0 5,2.218152 5,5 l 0,2 0,68 0,2 c 0,0.364295 -0.05212,0.720988 -0.125,1.0625 -0.04415,0.206893 -0.08838,0.397658 -0.15625,0.59375 -0.0077,0.02195 -0.0233,0.04069 -0.03125,0.0625 -0.06274,0.173739 -0.138383,0.367449 -0.21875,0.53125 -0.04158,0.0828 -0.07904,0.169954 -0.125,0.25 -0.0546,0.09721 -0.126774,0.18835 -0.1875,0.28125 -0.09411,0.140965 -0.204921,0.275995 -0.3125,0.40625 -0.143174,0.17445 -0.303141,0.346998 -0.46875,0.5 -0.01117,0.0102 -0.01998,0.02115 -0.03125,0.03125 -0.138386,0.125556 -0.285091,0.234436 -0.4375,0.34375 -0.102571,0.07315 -0.204318,0.153364 -0.3125,0.21875 -0.0074,0.0045 -0.02384,-0.0044 -0.03125,0 -0.232039,0.138728 -0.462548,0.274778 -0.71875,0.375 0.301527,-0.0968 0.596455,-0.204138 0.875,-0.34375 0.55709,-0.279224 1.060053,-0.665694 1.5,-1.09375 0.219973,-0.214028 0.409366,-0.441865 0.59375,-0.6875 0.184384,-0.245635 0.355408,-0.507743 0.5,-0.78125 0.14012,-0.265048 0.276135,-0.524729 0.375,-0.8125 0.01041,-0.03078 0.02133,-0.06274 0.03125,-0.09375 0.09046,-0.278085 0.1388,-0.579404 0.1875,-0.875 C 89.95865,84.6507 90,84.334721 90,84 l 0,-2 0,-68 0,-2 C 90,8.676 87.324,6 84,6 L 12,6 z"
         inkscape:connector-curvature="0"
         id="rect3728"
         style="opacity:0.35;fill:url(#linearGradient4162);fill-opacity:1;fill-rule:nonzero;stroke:none" />
      <path
         d="m 48,58 0,4 0,6 0,4 0,10 4,0 28,0 0,-4 0,-16 0,-4 -4,0 -10,0 -4,0 -10,0 -4,0 z m 4,4 10,0 0,6 -10,0 0,-6 z m 14,0 10,0 0,6 -10,0 0,-6 z m -14,10 10,0 0,6 -10,0 0,-6 z m 14,0 10,0 0,6 -10,0 0,-6 z"
         inkscape:connector-curvature="0"
         id="path3671"
         style="fill:#5e7c10;fill-opacity:1;fill-rule:nonzero;stroke:none;filter:url(#filter3673)" />
      <path
         d="m 48,58 0,4 0,6 0,4 0,10 4,0 28,0 0,-4 0,-16 0,-4 -4,0 -10,0 -4,0 -10,0 -4,0 z m 4,4 10,0 0,6 -10,0 0,-6 z m 14,0 10,0 0,6 -10,0 0,-6 z m -14,10 10,0 0,6 -10,0 0,-6 z m 14,0 10,0 0,6 -10,0 0,-6 z"
         inkscape:connector-curvature="0"
         id="rect3669"
         style="fill:#a3c843;fill-opacity:1;fill-rule:nonzero;stroke:none" />
      <path
         d="m 36.625,6 -2.0625,0.03125 c -8.18189,15.118711 -7.41012,25.114338 -2.84375,42.15625 4.1682,15.555937 3.39089,27.299829 -4,41.8125 l 1.96875,0 C 36.15288,76.392953 36.69339,65.021045 32.71875,50.1875 28.15238,33.145588 27.38061,23.149961 35.5625,8.03125 L 36.625,6 z"
         inkscape:connector-curvature="0"
         id="path3762"
         style="opacity:0.2;fill:#ffffff;fill-opacity:1;fill-rule:nonzero;stroke:none" />
      <path
         d="M 12,90 C 8.676,90 6,87.324 6,84 L 6,82 6,14 6,12 c 0,-0.334721 0.04135,-0.6507 0.09375,-0.96875 0.0487,-0.295596 0.09704,-0.596915 0.1875,-0.875 C 6.29113,10.12587 6.302142,10.09265 6.3125,10.0625 6.411365,9.774729 6.5473802,9.515048 6.6875,9.25 6.8320918,8.976493 7.0031161,8.714385 7.1875,8.46875 7.3718839,8.223115 7.5612765,7.995278 7.78125,7.78125 8.221197,7.353194 8.72416,6.966724 9.28125,6.6875 9.559795,6.547888 9.8547231,6.440553 10.15625,6.34375 9.9000482,6.443972 9.6695391,6.580022 9.4375,6.71875 c -0.00741,0.0044 -0.023866,-0.0045 -0.03125,0 -0.031933,0.0193 -0.062293,0.04251 -0.09375,0.0625 -0.120395,0.0767 -0.2310226,0.163513 -0.34375,0.25 -0.1061728,0.0808 -0.2132809,0.161112 -0.3125,0.25 C 8.4783201,7.442683 8.3087904,7.626638 8.15625,7.8125 8.0486711,7.942755 7.9378561,8.077785 7.84375,8.21875 7.818661,8.25713 7.805304,8.30462 7.78125,8.34375 7.716487,8.446782 7.6510225,8.548267 7.59375,8.65625 7.4927417,8.850956 7.3880752,9.071951 7.3125,9.28125 7.30454,9.30306 7.288911,9.3218 7.28125,9.34375 7.2494249,9.4357 7.2454455,9.530581 7.21875,9.625 7.1884177,9.731618 7.1483606,9.828031 7.125,9.9375 7.0521214,10.279012 7,10.635705 7,11 l 0,2 0,68 0,2 c 0,2.781848 2.2181517,5 5,5 l 2,0 68,0 2,0 c 2.781848,0 5,-2.218152 5,-5 l 0,-2 0,-68 0,-2 C 89,10.635705 88.94788,10.279012 88.875,9.9375 88.83085,9.730607 88.78662,9.539842 88.71875,9.34375 88.71105,9.3218 88.69545,9.30306 88.6875,9.28125 88.62476,9.107511 88.549117,8.913801 88.46875,8.75 88.42717,8.6672 88.38971,8.580046 88.34375,8.5 88.28915,8.40279 88.216976,8.31165 88.15625,8.21875 88.06214,8.077785 87.951329,7.942755 87.84375,7.8125 87.700576,7.63805 87.540609,7.465502 87.375,7.3125 87.36383,7.3023 87.35502,7.29135 87.34375,7.28125 87.205364,7.155694 87.058659,7.046814 86.90625,6.9375 86.803679,6.86435 86.701932,6.784136 86.59375,6.71875 c -0.0074,-0.0045 -0.02384,0.0044 -0.03125,0 -0.232039,-0.138728 -0.462548,-0.274778 -0.71875,-0.375 0.301527,0.0968 0.596455,0.204138 0.875,0.34375 0.55709,0.279224 1.060053,0.665694 1.5,1.09375 0.219973,0.214028 0.409366,0.441865 0.59375,0.6875 0.184384,0.245635 0.355408,0.507743 0.5,0.78125 0.14012,0.265048 0.276135,0.524729 0.375,0.8125 0.01041,0.03078 0.02133,0.06274 0.03125,0.09375 0.09046,0.278085 0.1388,0.579404 0.1875,0.875 C 89.95865,11.3493 90,11.665279 90,12 l 0,2 0,68 0,2 c 0,3.324 -2.676,6 -6,6 l -72,0 z"
         inkscape:connector-curvature="0"
         id="path3615"
         style="opacity:0.2;fill:url(#radialGradient3141);fill-opacity:1;fill-rule:nonzero;stroke:none" />
    </g>
    <g
       transform="matrix(1.2423107,0,0,1.2448087,4.4740051,-56.603278)"
       id="layer4">
      <path
         inkscape:connector-curvature="0"
         d="M 60.96875,10.125 C 55.177231,10.164713 49.477697,12.476746 45.28125,16.5 36.97073,13.758797 26.987056,14.02251 19.9375,20 a 1.0216974,1.0216974 0 0 0 -0.0625,0.03125 c -0.889734,0.85338 -2.237955,1.970869 -3.21875,3.34375 -0.980795,1.372881 -1.582315,3.254174 -0.625,5.0625 a 1.0216974,1.0216974 0 0 0 0.25,0.3125 c 0.76419,0.628575 1.667333,0.897124 2.5,0.875 0.832667,-0.02212 1.58723,-0.27533 2.28125,-0.59375 1.388039,-0.63684 2.665043,-1.475736 3.5625,-1.6875 a 1.0216974,1.0216974 0 0 0 0.15625,-0.0625 C 31.496508,24.405653 39.559831,24.196479 45.875,27.9375 l 0.03125,-0.03125 c 0.94975,0.68611 2.140473,0.735537 3.03125,0.3125 0.86623,-0.411379 1.506656,-1.155655 1.90625,-2 L 50.875,26.25 c 3.770546,-5.233473 10.393693,-7.611864 16.8125,-7.78125 1.956527,0.370232 3.722452,-0.716627 4.40625,-2.21875 0.360326,-0.791542 0.436353,-1.7569 0.0625,-2.625 -0.362604,-0.841979 -1.150125,-1.510886 -2.21875,-1.875 -0.03064,-0.01385 -0.06305,-0.01761 -0.09375,-0.03125 -2.841739,-1.261939 -5.926815,-1.598731 -8.875,-1.59375 z m 9.25,14.78125 C 60.645062,24.865971 50.920542,28.945317 44.9375,36.65625 34.36837,34.006245 22.529318,36.126072 14.125,43.3125 a 1.0216974,1.0216974 0 0 0 -0.03125,0 c -2.710812,2.389267 -5.5818756,5.18231 -6.96875,8.875 a 1.0216974,1.0216974 0 0 0 -0.0625,0.28125 c -0.075487,1.164515 0.2522028,2.172728 0.9375,2.8125 0.6852972,0.639772 1.5716377,0.793199 2.40625,0.75 1.604753,-0.08306 3.168497,-0.832081 4.28125,-1.75 0.04471,-0.03688 0.113137,-0.05637 0.15625,-0.09375 8.299187,-4.653996 18.224685,-7.640614 27.4375,-4.9375 a 1.0216974,1.0216974 0 0 0 0.15625,0.03125 c 0.792566,0.0904 1.700362,0.546673 2.71875,1.03125 1.018388,0.484577 2.222925,1.007666 3.625,0.8125 a 1.0216974,1.0216974 0 0 0 0.3125,-0.09375 c 1.202178,-0.6001 1.80778,-1.671872 2.28125,-2.59375 0.47347,-0.921878 0.857619,-1.744306 1.375,-2.25 a 1.0216974,1.0216974 0 0 0 0.125,-0.125 c 5.16595,-7.276132 13.867553,-11.213913 22.59375,-12.875 l 0,-0.0625 c 1.841408,0.147664 3.579592,-0.696039 4.5625,-2.0625 0.523622,-0.727952 0.858351,-1.669154 0.625,-2.625 -0.233351,-0.955846 -0.996607,-1.761536 -2.125,-2.28125 A 1.0216974,1.0216974 0 0 0 78.4375,26.125 c -2.689408,-1.010632 -5.521791,-1.19708 -8.21875,-1.21875 z"
         id="path3741"
         style="opacity:0.05;fill:#000000;fill-opacity:1;fill-rule:evenodd;stroke:none" />
      <path
         d="m 60.96875,11.15625 c -5.721092,0.03923 -11.410438,2.353956 -15.4375,6.4375 -8.158387,-2.855226 -18.078363,-2.608454 -24.928206,3.199695 -1.863973,1.787812 -5.173892,4.326102 -3.665544,7.175305 2.370051,1.949455 5.033352,-1.044583 7.447069,-1.614123 6.970329,-2.984823 15.353704,-3.23235 22.008973,0.710142 1.345342,1.104322 3.075852,-0.03529 3.644107,-1.417814 4.014085,-5.571503 10.965803,-8.033894 17.618601,-8.209455 3.192891,0.862781 5.510476,-3.59722 1.875,-4.75 -2.66913,-1.206816 -5.660951,-1.536152 -8.5625,-1.53125 z m 9.25,14.78125 C 60.72378,25.89755 51.027682,29.997279 45.3125,37.75 34.894419,34.930364 23.073384,37.024139 14.788662,44.108302 c -2.682742,2.364526 -5.4274204,5.004929 -6.7082098,8.415157 -0.2520905,3.888924 4.2666508,2.460679 6.1006568,0.87069 8.469558,-4.782514 18.717145,-7.949246 28.373312,-5.116049 2.119087,0.241693 3.932002,2.144586 6.070579,1.8469 1.780098,-0.888584 2.001594,-3.272496 3.419121,-4.658003 5.378051,-7.574872 14.34364,-11.586565 23.237129,-13.279497 2.975243,0.47385 6.585371,-3.372532 2.815327,-5.108933 C 75.591713,26.137283 72.871603,25.958816 70.21875,25.9375 z"
         inkscape:connector-curvature="0"
         id="path3735"
         style="opacity:0.1;fill:#000000;fill-opacity:1;fill-rule:evenodd;stroke:none" />
      <path
         inkscape:connector-curvature="0"
         d="m 60.96875,12.09375 c -4.708676,0.05114 -10.512391,1.586787 -15.1875,6.5 -9.493493,-3.323402 -16.729783,-1.836649 -21.4375,0.78125 -2.408176,1.339154 -4.17055,2.950194 -5.3125,4.28125 -0.570975,0.665528 -0.974482,1.245933 -1.25,1.75 -0.137759,0.252033 -0.240642,0.469046 -0.3125,0.71875 -0.03593,0.124852 -0.0608,0.253007 -0.0625,0.4375 -0.0017,0.184493 -0.0053,0.483918 0.25,0.78125 0.250452,0.291688 0.605945,0.391524 0.8125,0.40625 0.206555,0.01473 0.340807,-0.03326 0.46875,-0.0625 0.255886,-0.05849 0.461752,-0.141712 0.71875,-0.25 0.513996,-0.216576 1.17435,-0.538528 1.96875,-0.90625 1.5888,-0.735443 3.745646,-1.667731 6.34375,-2.375 5.196209,-1.414537 12.025191,-1.884198 19.21875,2.28125 a 1.0135596,1.0135596 0 0 0 1.34375,-0.3125 c 3.951629,-5.832466 9.250593,-8.016286 13.59375,-8.9375 2.171578,-0.460607 4.094371,-0.586569 5.46875,-0.6875 0.68719,-0.05046 1.219508,-0.09295 1.6875,-0.1875 0.233996,-0.04728 0.46066,-0.07127 0.78125,-0.3125 0.160295,-0.120616 0.358705,-0.320314 0.4375,-0.625 0.07879,-0.304686 -0.0017,-0.62077 -0.09375,-0.8125 -0.183138,-0.381665 -0.389393,-0.513741 -0.59375,-0.65625 -0.204357,-0.142509 -0.425731,-0.252525 -0.6875,-0.375 -0.523537,-0.244949 -1.196458,-0.501949 -2,-0.71875 -1.607084,-0.433603 -3.728082,-0.745121 -6.15625,-0.71875 z m 9.25,14.78125 C 63.08698,26.886663 52.593923,29.208819 45.65625,38.78125 33.603046,35.566516 24.249,38.685962 18.09375,42.8125 14.956632,44.915653 12.636557,47.259353 11.125,49.15625 10.369221,50.104698 9.8258334,50.925766 9.46875,51.59375 9.2902083,51.927742 9.1496498,52.207847 9.0625,52.5 9.018925,52.646076 8.973432,52.797247 8.96875,53 c -0.00468,0.202753 0.017575,0.548827 0.34375,0.875 0.3003644,0.300364 0.6603593,0.349555 0.875,0.34375 0.214641,-0.0058 0.355503,-0.04846 0.5,-0.09375 0.288993,-0.09059 0.578822,-0.242865 0.90625,-0.40625 0.654856,-0.32677 1.487402,-0.780319 2.53125,-1.34375 2.087696,-1.126862 4.958709,-2.596758 8.375,-3.8125 6.832581,-2.431483 15.779431,-3.841822 25.0625,0.625 A 1.0135596,1.0135596 0 0 0 48.90625,48.75 c 4.722596,-8.878477 12.114573,-13.080944 18.3125,-15.3125 3.098963,-1.115778 5.887014,-1.725982 7.875,-2.15625 0.993993,-0.215134 1.772309,-0.399168 2.375,-0.59375 0.301345,-0.09729 0.569228,-0.163755 0.875,-0.40625 0.152886,-0.121248 0.34084,-0.304622 0.4375,-0.625 0.09666,-0.320378 0.0071,-0.708653 -0.125,-0.9375 -0.382189,-0.66197 -0.748885,-0.693869 -1.21875,-0.875 -0.469865,-0.181131 -1.048307,-0.356287 -1.75,-0.5 -1.403387,-0.287425 -3.284268,-0.472323 -5.46875,-0.46875 z"
         id="path3731"
         style="opacity:0.15;fill:#000000;fill-opacity:1;fill-rule:evenodd;stroke:none" />
      <path
         d="m 60.96875,13.09375 c -4.652392,0.05053 -10.376947,1.537521 -14.90625,6.59375 -19.154119,-7.088229 -28.215328,6.312485 -27.625,7 0.672915,0.783707 14.321535,-9.769365 29.25,-1.125 C 55.935879,13.388182 70.130221,16.313382 69.5,15 69.216303,14.408766 65.621142,13.043223 60.96875,13.09375 z m 9.25,14.78125 C 63.157454,27.88655 52.754642,30.172228 46.0625,39.90625 21.844932,33.008441 9.239756,52.36476 10.03125,53.15625 10.933475,54.058475 28.825082,39.054674 48,48.28125 57.734026,29.981289 78.681956,30.778811 77.78125,29.21875 77.477152,28.692038 74.455528,27.868071 70.21875,27.875 z"
         inkscape:connector-curvature="0"
         id="path2948"
         style="opacity:0.3;fill:#000000;fill-opacity:1;fill-rule:evenodd;stroke:none" />
      <path
         d="M 10.037308,52.159801 C 9.245814,51.368311 21.835629,32.023724 46.053197,38.921533 56.760624,23.347098 76.975179,26.809542 77.786108,28.214106 78.686814,29.774167 57.734026,28.992825 48,47.292786 28.825082,38.06621 10.939533,53.062026 10.037308,52.159801 z"
         inkscape:connector-curvature="0"
         id="path3597"
         style="fill:url(#radialGradient3787-7);fill-opacity:1;fill-rule:evenodd;stroke:none" />
      <path
         d="M 18.432554,25.696015 C 17.842226,25.0085 26.90898,11.589679 46.063099,18.677908 55.121705,8.5654504 68.918272,12.828338 69.485666,14.010807 70.115887,15.324189 55.942554,12.395003 47.694175,24.569321 32.76571,15.924956 19.105469,26.479722 18.432554,25.696015 z"
         inkscape:connector-curvature="0"
         id="path3599"
         style="fill:url(#radialGradient3789-0);fill-opacity:1;fill-rule:evenodd;stroke:none" />
      <path
         d="m 60.96875,12.09375 c -4.652392,0.05053 -10.376947,1.537521 -14.90625,6.59375 -19.154119,-7.088229 -28.215328,6.312486 -27.625,7 0.04696,0.0547 0.174251,0.04538 0.34375,0 1.873215,-3.130367 10.87228,-12.072351 27.28125,-6 7.836774,-8.748481 19.20455,-6.748387 22.5,-5.28125 C 69.228385,14.332875 69.608713,14.226558 69.5,14 69.216303,13.408765 65.621142,12.043223 60.96875,12.09375 z"
         inkscape:connector-curvature="0"
         id="path3617"
         style="fill:#ffffff;fill-opacity:1;fill-rule:evenodd;stroke:none" />
      <path
         d="m 70.21875,26.875 c -7.061296,0.01155 -17.464107,2.297229 -24.15625,12.03125 -24.217568,-6.897809 -36.8227437,12.45851 -36.03125,13.25 0.189082,0.189082 1.276032,-0.411865 2.8125,-1.25 4.257341,-5.426257 15.906619,-15.215783 34.21875,-10 8.229009,-11.969463 22.038769,-12.693014 28.375,-11.75 1.616413,-0.354649 2.5453,-0.588406 2.34375,-0.9375 -0.304098,-0.526712 -3.325722,-1.350679 -7.5625,-1.34375 z"
         inkscape:connector-curvature="0"
         id="path3622"
         style="fill:#ffffff;fill-opacity:1;fill-rule:evenodd;stroke:none" />
      <path
         d="m 77,27.78125 c -3.821437,1.140091 -20.586914,2.683405 -29,18.5 -18.123985,-8.720888 -35.088431,4.19453 -37.65625,4.875 -0.284707,0.548175 -0.4070987,0.905402 -0.3125,1 C 10.933475,53.058475 28.825082,38.054674 48,47.28125 57.734026,28.981289 78.681954,29.778811 77.78125,28.21875 77.70435,28.085559 77.401211,27.933464 77,27.78125 z"
         inkscape:connector-curvature="0"
         id="path3627"
         style="opacity:0.5;fill:#ffffff;fill-opacity:1;fill-rule:evenodd;stroke:none" />
      <path
         d="m 68.5625,13.40625 c -3.194317,0.351988 -14.049466,0.082 -20.875,10.15625 -13.886583,-8.04106 -26.647102,0.520169 -28.90625,1.125 -0.313381,0.523697 -0.428355,0.901466 -0.34375,1 0.672915,0.783707 14.321534,-9.769365 29.25,-1.125 C 55.935879,12.388182 70.130223,15.313382 69.5,14 69.42347,13.840508 69.076294,13.634991 68.5625,13.40625 z"
         inkscape:connector-curvature="0"
         id="path3633"
         style="opacity:0.3;fill:#ffffff;fill-opacity:1;fill-rule:evenodd;stroke:none" />
    </g>
  </g>
</svg>
