<?xml version="1.0" encoding="UTF-8" standalone="no"?>
<!-- Created with Inkscape (http://www.inkscape.org/) -->

<svg
   xmlns:dc="http://purl.org/dc/elements/1.1/"
   xmlns:cc="http://creativecommons.org/ns#"
   xmlns:rdf="http://www.w3.org/1999/02/22-rdf-syntax-ns#"
   xmlns:svg="http://www.w3.org/2000/svg"
   xmlns="http://www.w3.org/2000/svg"
   xmlns:xlink="http://www.w3.org/1999/xlink"
   xmlns:sodipodi="http://sodipodi.sourceforge.net/DTD/sodipodi-0.dtd"
   xmlns:inkscape="http://www.inkscape.org/namespaces/inkscape"
   width="128"
   height="128"
   id="svg3886"
   version="1.1"
   inkscape:version="0.48.1 r9760"
   sodipodi:docname="1.svg">
  <defs
     id="defs3888">
    <linearGradient
       inkscape:collect="always"
       xlink:href="#linearGradient3924"
       id="linearGradient2984"
       gradientUnits="userSpaceOnUse"
       gradientTransform="matrix(2.7297298,0,0,2.7297298,0.58484986,-62.723322)"
       x1="23.99999"
       y1="4.999989"
       x2="23.99999"
       y2="43" />
    <linearGradient
       id="linearGradient3924">
      <stop
         id="stop3926"
         style="stop-color:#ffffff;stop-opacity:1;"
         offset="0" />
      <stop
         offset="0.06316455"
         style="stop-color:#ffffff;stop-opacity:0.23529412;"
         id="stop3928" />
      <stop
         id="stop3930"
         style="stop-color:#ffffff;stop-opacity:0.15686275;"
         offset="0.95056331" />
      <stop
         id="stop3932"
         style="stop-color:#ffffff;stop-opacity:0.39215687;"
         offset="1" />
    </linearGradient>
    <radialGradient
       inkscape:collect="always"
       xlink:href="#linearGradient7012-661-145-733-759-865-745-661-970-94-8"
       id="radialGradient2990"
       gradientUnits="userSpaceOnUse"
       gradientTransform="matrix(5.131108e-8,6.1720507,-6.5292935,-1.1371273e-7,119.1713,-93.225241)"
       cx="7.4956832"
       cy="8.4497671"
       fx="7.4956832"
       fy="8.4497671"
       r="19.99999" />
    <linearGradient
       id="linearGradient7012-661-145-733-759-865-745-661-970-94-8">
      <stop
         id="stop3618-1"
         style="stop-color:#f0c178;stop-opacity:1"
         offset="0" />
      <stop
         id="stop3270-2"
         style="stop-color:#e18941;stop-opacity:1"
         offset="0.5" />
      <stop
         id="stop3620-8"
         style="stop-color:#ec4f18;stop-opacity:1"
         offset="1" />
    </linearGradient>
    <linearGradient
       inkscape:collect="always"
       xlink:href="#linearGradient3390-178-986-453-3"
       id="linearGradient2992"
       gradientUnits="userSpaceOnUse"
       gradientTransform="matrix(2.6410257,0,0,2.6410257,0.6153792,-60.384617)"
       x1="24"
       y1="44"
       x2="24"
       y2="3.8990016" />
    <linearGradient
       id="linearGradient3390-178-986-453-3">
      <stop
         id="stop3624-6"
         style="stop-color:#ba4712;stop-opacity:1;"
         offset="0" />
      <stop
         offset="0.5"
         style="stop-color:#cf671c;stop-opacity:1;"
         id="stop3856-8" />
      <stop
         id="stop3626-0"
         style="stop-color:#e27f39;stop-opacity:1;"
         offset="1" />
    </linearGradient>
    <radialGradient
       cx="4.9929786"
       cy="43.5"
       r="2.5"
       fx="4.9929786"
       fy="43.5"
       id="radialGradient2455"
       xlink:href="#linearGradient3688-166-749"
       gradientUnits="userSpaceOnUse"
       gradientTransform="matrix(2.003784,0,0,1.4,27.98813,-17.4)" />
    <linearGradient
       id="linearGradient3688-166-749">
      <stop
         id="stop2883"
         style="stop-color:#181818;stop-opacity:1"
         offset="0" />
      <stop
         id="stop2885"
         style="stop-color:#181818;stop-opacity:0"
         offset="1" />
    </linearGradient>
    <radialGradient
       cx="4.9929786"
       cy="43.5"
       r="2.5"
       fx="4.9929786"
       fy="43.5"
       id="radialGradient2457"
       xlink:href="#linearGradient3688-464-309"
       gradientUnits="userSpaceOnUse"
       gradientTransform="matrix(2.003784,0,0,1.4,-20.01187,-104.4)" />
    <linearGradient
       id="linearGradient3688-464-309">
      <stop
         id="stop2889"
         style="stop-color:#181818;stop-opacity:1"
         offset="0" />
      <stop
         id="stop2891"
         style="stop-color:#181818;stop-opacity:0"
         offset="1" />
    </linearGradient>
    <linearGradient
       x1="25.058096"
       y1="47.027729"
       x2="25.058096"
       y2="39.999443"
       id="linearGradient2459"
       xlink:href="#linearGradient3702-501-757"
       gradientUnits="userSpaceOnUse" />
    <linearGradient
       id="linearGradient3702-501-757">
      <stop
         id="stop2895"
         style="stop-color:#181818;stop-opacity:0"
         offset="0" />
      <stop
         id="stop2897"
         style="stop-color:#181818;stop-opacity:1"
         offset="0.5" />
      <stop
         id="stop2899"
         style="stop-color:#181818;stop-opacity:0"
         offset="1" />
    </linearGradient>
    <linearGradient
       x1="48"
       y1="90"
       x2="48"
       y2="5.9877172"
       id="linearGradient3706"
       xlink:href="#linearGradient3700"
       gradientUnits="userSpaceOnUse"
       gradientTransform="translate(12,0)" />
    <linearGradient
       id="linearGradient3700">
      <stop
         id="stop3702"
         style="stop-color:#7e8c9a;stop-opacity:1"
         offset="0" />
      <stop
         id="stop3704"
         style="stop-color:#c9d2de;stop-opacity:1"
         offset="1" />
    </linearGradient>
    <linearGradient
       gradientTransform="translate(-6,-6)"
       x1="18.637215"
       y1="89.20327"
       x2="18.637215"
       y2="6"
       id="linearGradient3708"
       xlink:href="#linearGradient3513"
       gradientUnits="userSpaceOnUse" />
    <linearGradient
       id="linearGradient3513">
      <stop
         id="stop3515"
         style="stop-color:#102340;stop-opacity:1"
         offset="0" />
      <stop
         id="stop3517"
         style="stop-color:#27599c;stop-opacity:1"
         offset="1" />
    </linearGradient>
    <linearGradient
       gradientTransform="translate(-6,-6)"
       x1="36.357143"
       y1="6"
       x2="36.357143"
       y2="63.893143"
       id="linearGradient3188"
       xlink:href="#linearGradient3737"
       gradientUnits="userSpaceOnUse" />
    <linearGradient
       id="linearGradient3737">
      <stop
         id="stop3739"
         style="stop-color:#ffffff;stop-opacity:1"
         offset="0" />
      <stop
         id="stop3741"
         style="stop-color:#ffffff;stop-opacity:0"
         offset="1" />
    </linearGradient>
    <filter
       x="-0.25"
       y="-0.23076923"
       width="1.5"
       height="1.4615386"
       color-interpolation-filters="sRGB"
       id="filter3660">
      <feGaussianBlur
         id="feGaussianBlur3662"
         stdDeviation="2.5" />
    </filter>
    <radialGradient
       cx="48"
       cy="90.171875"
       r="42"
       fx="48"
       fy="90.171875"
       id="radialGradient2874"
       xlink:href="#linearGradient3737-4"
       gradientUnits="userSpaceOnUse"
       gradientTransform="matrix(1.1573129,0,0,0.99590774,-13.551021,-5.8028681)" />
    <linearGradient
       id="linearGradient3737-4">
      <stop
         id="stop3739-9"
         style="stop-color:#ffffff;stop-opacity:1"
         offset="0" />
      <stop
         id="stop3741-2"
         style="stop-color:#ffffff;stop-opacity:0"
         offset="1" />
    </linearGradient>
    <radialGradient
       cx="48.193913"
       cy="58.66795"
       r="33.906048"
       fx="48.193913"
       fy="58.66795"
       id="radialGradient3787-1"
       xlink:href="#linearGradient3601-2"
       gradientUnits="userSpaceOnUse"
       gradientTransform="matrix(0.9473764,-0.3327843,0.2051643,0.5840656,-9.5004368,28.453781)" />
    <linearGradient
       id="linearGradient3601-2">
      <stop
         id="stop3603-8"
         style="stop-color:#b8d9f4;stop-opacity:1"
         offset="0" />
      <stop
         id="stop3605-5"
         style="stop-color:#ebf4fc;stop-opacity:1"
         offset="1" />
    </linearGradient>
    <radialGradient
       cx="48.241459"
       cy="38.667461"
       r="25.550245"
       fx="48.241459"
       fy="38.667461"
       id="radialGradient3789-7"
       xlink:href="#linearGradient3601-2"
       gradientUnits="userSpaceOnUse"
       gradientTransform="matrix(0.8476225,-0.3415184,0.2499426,0.620338,-2.3137345,16.411146)" />
    <linearGradient
       id="linearGradient3084">
      <stop
         id="stop3086"
         style="stop-color:#b8d9f4;stop-opacity:1"
         offset="0" />
      <stop
         id="stop3088"
         style="stop-color:#ebf4fc;stop-opacity:1"
         offset="1" />
    </linearGradient>
    <linearGradient
       y2="5.9877172"
       x2="48"
       y1="90"
       x1="48"
       gradientTransform="translate(6,-6)"
       gradientUnits="userSpaceOnUse"
       id="linearGradient3110"
       xlink:href="#linearGradient3700"
       inkscape:collect="always" />
    <linearGradient
       inkscape:collect="always"
       xlink:href="#linearGradient3700"
       id="linearGradient3450"
       gradientUnits="userSpaceOnUse"
       gradientTransform="matrix(1.2398125,0,0,1.2398126,19.786416,-56.573303)"
       x1="48"
       y1="90"
       x2="48"
       y2="5.9877172" />
    <linearGradient
       inkscape:collect="always"
       xlink:href="#linearGradient3513"
       id="linearGradient3452"
       gradientUnits="userSpaceOnUse"
       gradientTransform="matrix(1.2398125,0,0,1.2398126,4.908666,-56.573303)"
       x1="18.637215"
       y1="89.20327"
       x2="18.637215"
       y2="6" />
    <linearGradient
       inkscape:collect="always"
       xlink:href="#linearGradient3737"
       id="linearGradient3454"
       gradientUnits="userSpaceOnUse"
       gradientTransform="matrix(1.2398125,0,0,1.2398126,4.908666,-56.573303)"
       x1="36.357143"
       y1="6"
       x2="36.357143"
       y2="63.893143" />
    <radialGradient
       inkscape:collect="always"
       xlink:href="#linearGradient3737-4"
       id="radialGradient3456"
       gradientUnits="userSpaceOnUse"
       gradientTransform="matrix(1.434851,0,0,1.234739,-4.4531842,-56.328896)"
       cx="48"
       cy="90.171875"
       fx="48"
       fy="90.171875"
       r="42" />
    <radialGradient
       inkscape:collect="always"
       xlink:href="#linearGradient3601-2"
       id="radialGradient3458"
       gradientUnits="userSpaceOnUse"
       gradientTransform="matrix(0.9473764,-0.3327843,0.2051643,0.5840656,-9.5004368,28.453781)"
       cx="48.193913"
       cy="58.66795"
       fx="48.193913"
       fy="58.66795"
       r="33.906048" />
    <radialGradient
       inkscape:collect="always"
       xlink:href="#linearGradient3601-2"
       id="radialGradient3460"
       gradientUnits="userSpaceOnUse"
       gradientTransform="matrix(0.8476225,-0.3415184,0.2499426,0.620338,-2.3137345,16.411146)"
       cx="48.241459"
       cy="38.667461"
       fx="48.241459"
       fy="38.667461"
       r="25.550245" />
    <radialGradient
       inkscape:collect="always"
       xlink:href="#linearGradient7012-661-145-733-759-865-745-661-970-94-8"
       id="radialGradient3462"
       gradientUnits="userSpaceOnUse"
       gradientTransform="matrix(5.131108e-8,6.1720507,-6.5292935,-1.1371273e-7,119.1713,-93.015405)"
       cx="7.4956832"
       cy="8.4497671"
       fx="7.4956832"
       fy="8.4497671"
       r="19.99999" />
    <linearGradient
       inkscape:collect="always"
       xlink:href="#linearGradient3390-178-986-453-3"
       id="linearGradient3464"
       gradientUnits="userSpaceOnUse"
       gradientTransform="matrix(2.6410257,0,0,2.6410257,0.6153792,-60.174781)"
       x1="24"
       y1="44"
       x2="24"
       y2="3.8990016" />
  </defs>
  <sodipodi:namedview
     id="base"
     pagecolor="#ffffff"
     bordercolor="#666666"
     borderopacity="1.0"
     inkscape:pageopacity="0.0"
     inkscape:pageshadow="2"
     inkscape:zoom="4.765625"
     inkscape:cx="64"
     inkscape:cy="64"
     inkscape:current-layer="layer1"
     showgrid="true"
     inkscape:document-units="px"
     inkscape:grid-bbox="true"
     inkscape:window-width="926"
     inkscape:window-height="798"
     inkscape:window-x="363"
     inkscape:window-y="185"
     inkscape:window-maximized="0" />
  <metadata
     id="metadata3891">
    <rdf:RDF>
      <cc:Work
         rdf:about="">
        <dc:format>image/svg+xml</dc:format>
        <dc:type
           rdf:resource="http://purl.org/dc/dcmitype/StillImage" />
        <dc:title></dc:title>
      </cc:Work>
    </rdf:RDF>
  </metadata>
  <g
     id="layer1"
     inkscape:label="Layer 1"
     inkscape:groupmode="layer"
     transform="translate(0,64)">
    <g
       transform="matrix(2.9499988,0,0,1.2222234,-6.7016405,1.3457009)"
       id="g2036"
       style="display:inline">
      <g
         transform="matrix(1.052632,0,0,1.285713,-1.263158,-13.42854)"
         id="g3712"
         style="opacity:0.4">
        <rect
           width="5"
           height="7"
           x="38"
           y="40"
           id="rect2801"
           style="fill:url(#radialGradient2455);fill-opacity:1;stroke:none" />
        <rect
           width="5"
           height="7"
           x="-10"
           y="-47"
           transform="scale(-1,-1)"
           id="rect3696"
           style="fill:url(#radialGradient2457);fill-opacity:1;stroke:none" />
        <rect
           width="28"
           height="7.0000005"
           x="10"
           y="40"
           id="rect3700"
           style="fill:url(#linearGradient2459);fill-opacity:1;stroke:none" />
      </g>
    </g>
    <rect
       style="opacity:0.5;fill:none;stroke:url(#linearGradient2984);stroke-width:0.99999994;stroke-linecap:round;stroke-linejoin:round;stroke-miterlimit:4;stroke-opacity:1;stroke-dasharray:none;stroke-dashoffset:0"
       id="rect6741-7"
       y="-47.709835"
       x="15.598361"
       ry="5"
       rx="5"
       height="101"
       width="101" />
    <rect
       width="89.266502"
       height="104.14426"
       rx="7.4388752"
       ry="7.4388757"
       x="27.22529"
       y="-49.134426"
       id="rect2419"
       style="fill:url(#linearGradient3450);fill-opacity:1;fill-rule:nonzero;stroke:none" />
    <path
       d="m 19.786416,-49.134427 c -4.121137,0 -7.438875,3.317739 -7.438875,7.438876 l 0,0.65865 0,87.94921 0,0.65865 c 0,4.121137 3.317738,7.438876 7.438875,7.438876 l 0.65865,0 2.169672,0 16.659981,0 C 48.438036,37.016842 49.401755,22.456617 44.233969,3.1701699 38.572526,-17.958609 37.615676,-30.351314 47.759685,-49.095683 l 0.619907,-0.03874 -24.215088,0 -3.719438,0 -0.65865,0 z"
       inkscape:connector-curvature="0"
       id="path2400"
       style="fill:url(#linearGradient3452);fill-opacity:1;stroke:none;display:inline" />
    <path
       d="m 45.241316,-46.654802 c 0.406917,-0.807945 0.828496,-1.609248 1.278557,-2.440881 l 0.619906,-0.03874 -1.898463,2.479625 z m -0.813627,1.665999 C 35.21555,-27.150673 36.260355,-14.854035 41.754344,5.6497952 46.599144,23.730839 46.059641,37.661432 38.422348,54.157464 47.187001,36.55291 48.08042,22.15237 42.994156,3.1701699 37.756949,-16.375342 36.549588,-28.451238 44.427689,-44.988803 z"
       inkscape:connector-curvature="0"
       id="path3755"
       style="opacity:0.3;fill:#000000;fill-opacity:1;stroke:none;display:inline" />
    <path
       d="m 47.139779,-49.134427 -0.619906,0.03874 c -10.14401,18.744369 -9.187159,31.137074 -3.525717,52.2658529 5.167787,19.2864471 4.204068,33.8466721 -4.95925,51.8396651 l 1.239813,0 C 48.438036,37.016842 49.401755,22.456617 44.233969,3.1701699 38.572526,-17.958609 37.615676,-30.351314 47.759685,-49.095683 l 0.619907,-0.03874 -1.239813,0 z"
       inkscape:connector-curvature="0"
       id="path3521"
       style="fill:#0c1b2f;fill-opacity:1;stroke:none;display:inline" />
    <path
       d="m 19.786416,-49.134427 c -4.121137,0 -7.438875,3.317739 -7.438875,7.438876 l 0,2.479625 0,84.30726 0,2.479625 c 0,0.414992 0.05127,0.806746 0.116232,1.201069 0.06038,0.366483 0.120312,0.740062 0.232465,1.084836 0.01227,0.03766 0.0259,0.07885 0.03874,0.116232 0.122568,0.356782 0.291208,0.678738 0.46493,1.007348 0.179267,0.339097 0.391305,0.664062 0.619906,0.968604 0.228602,0.304541 0.463414,0.587016 0.736139,0.852371 0.545452,0.530709 1.169032,1.009859 1.859719,1.356045 0.345343,0.173093 0.710999,0.306168 1.084836,0.426185 -0.317643,-0.124256 -0.603431,-0.292933 -0.891116,-0.464929 -0.0092,-0.0055 -0.02959,0.0056 -0.03874,0 -0.03959,-0.02393 -0.07723,-0.05271 -0.116232,-0.07749 C 16.305153,53.94614 16.167995,53.838505 16.028234,53.731277 15.8966,53.6311 15.763806,53.531529 15.640793,53.421324 15.420193,53.221177 15.210008,52.993108 15.020887,52.762674 14.887509,52.601182 14.750119,52.43377 14.633445,52.259 c -0.03111,-0.04758 -0.04767,-0.106463 -0.07749,-0.154977 -0.08029,-0.12774 -0.161457,-0.253563 -0.232465,-0.387441 -0.125231,-0.241399 -0.254998,-0.515392 -0.348697,-0.774883 -0.0099,-0.02704 -0.02925,-0.05027 -0.03874,-0.07749 -0.03946,-0.114001 -0.04439,-0.231636 -0.07749,-0.348698 -0.0376,-0.132186 -0.08727,-0.25172 -0.116232,-0.387441 -0.09036,-0.423411 -0.154977,-0.865644 -0.154977,-1.317301 l 0,-2.479625 0,-84.30726 0,-2.479625 c 0,-3.448971 2.750093,-6.199064 6.199063,-6.199064 l 2.479625,0 84.307248,0 2.47963,0 c 3.44897,0 6.19906,2.750093 6.19906,6.199064 l 0,2.479625 0,84.30726 0,2.479625 c 0,0.451657 -0.0646,0.89389 -0.15498,1.317301 -0.0548,0.256508 -0.1096,0.493021 -0.19372,0.736139 -0.01,0.02721 -0.0289,0.05045 -0.0387,0.07749 -0.0777,0.215404 -0.17158,0.455568 -0.27121,0.65865 -0.0516,0.102657 -0.0979,0.210711 -0.15498,0.309953 -0.0677,0.120523 -0.15718,0.233519 -0.23246,0.348698 -0.11667,0.17477 -0.25406,0.342182 -0.38744,0.503674 -0.17752,0.216285 -0.37584,0.430212 -0.58116,0.619906 -0.0139,0.01265 -0.0248,0.02622 -0.0387,0.03874 -0.17157,0.155666 -0.35345,0.290657 -0.54241,0.426186 -0.12717,0.09069 -0.25332,0.190142 -0.38745,0.271209 -0.009,0.0056 -0.0295,-0.0055 -0.0387,0 -0.28768,0.171996 -0.57347,0.340673 -0.89111,0.464929 0.37383,-0.120013 0.73948,-0.253092 1.08483,-0.426185 0.69069,-0.346186 1.31427,-0.825336 1.85972,-1.356045 0.27272,-0.265355 0.50753,-0.54783 0.73614,-0.852371 0.2286,-0.304542 0.44064,-0.629507 0.61991,-0.968604 0.17372,-0.32861 0.34235,-0.650566 0.46493,-1.007348 0.0129,-0.03816 0.0264,-0.07779 0.0387,-0.116232 0.1122,-0.344774 0.17208,-0.718353 0.23246,-1.084836 0.065,-0.394323 0.11617,-0.786077 0.11617,-1.201069 l 0,-2.479625 0,-84.30726 0,-2.479625 c 0,-4.121137 -3.31773,-7.438876 -7.43887,-7.438876 l -89.266501,0 z"
       inkscape:connector-curvature="0"
       id="rect3728"
       style="opacity:0.35;fill:url(#linearGradient3454);fill-opacity:1;fill-rule:nonzero;stroke:none" />
    <path
       d="m 59.927869,0.86557378 0,3.84375002 0,0.15625 0.15625,0 9,8.9999992 -9,9 -0.15625,0 0,0.15625 0,3.84375 24,0 0,-4 -18.15625,0 9.0625,-8.9375 -0.0625,-0.0625 0.0625,-0.0625 -9.0625,-8.9374992 18.15625,0 0,-4.00000002 -24,0 z"
       inkscape:connector-curvature="0"
       id="path3669"
       style="fill:#6d8092;fill-opacity:1;fill-rule:nonzero;stroke:none;filter:url(#filter3660)"
       transform="matrix(1.2398125,0,0,1.2398126,-2.4407798,11.783057)" />
    <path
       d="m 71.858541,12.856206 0,4.76553 0,0.193721 0.19372,0 11.158313,11.158313 -11.158313,11.158313 -0.19372,0 0,0.193721 0,4.76553 29.755499,0 0,-4.959251 -22.510345,0 11.235801,-11.080825 -0.07749,-0.07749 0.07749,-0.07749 -11.235801,-11.080824 22.510345,0 0,-4.959251 -29.755499,0 z"
       inkscape:connector-curvature="0"
       id="path3220"
       style="fill:#b4bec7;fill-opacity:1;fill-rule:nonzero;stroke:none" />
    <path
       d="m 50.316799,-49.134427 -2.557114,0.03874 c -10.144009,18.744369 -9.187159,31.137074 -3.525716,52.2658529 5.167786,19.2864471 4.204067,33.8466721 -4.95925,51.8396651 l 2.44088,0 C 49.731458,38.139646 50.401589,24.040611 45.473781,5.6497952 39.812339,-15.478984 38.855488,-27.871689 48.999498,-46.616058 l 1.317301,-2.518369 z"
       inkscape:connector-curvature="0"
       id="path3762"
       style="opacity:0.2;fill:#ffffff;fill-opacity:1;fill-rule:nonzero;stroke:none" />
    <path
       d="m 19.786416,55.009835 c -4.121137,0 -7.438875,-3.317739 -7.438875,-7.438876 l 0,-2.479625 0,-84.30726 0,-2.479625 c 0,-0.414991 0.05127,-0.806746 0.116232,-1.201069 0.06038,-0.366483 0.120312,-0.740062 0.232465,-1.084836 0.01227,-0.03766 0.0259,-0.07885 0.03874,-0.116232 0.122568,-0.356782 0.291208,-0.678738 0.46493,-1.007348 0.179267,-0.339097 0.391305,-0.664062 0.619906,-0.968604 0.228602,-0.304541 0.463414,-0.587016 0.736139,-0.852371 0.545452,-0.530709 1.169032,-1.009859 1.859719,-1.356045 0.345343,-0.173093 0.710999,-0.306168 1.084836,-0.426185 -0.317643,0.124256 -0.603431,0.292933 -0.891116,0.464929 -0.0092,0.0055 -0.02959,-0.0056 -0.03874,0 -0.03959,0.02393 -0.07723,0.05271 -0.116232,0.07749 -0.149267,0.09509 -0.286425,0.202725 -0.426186,0.309953 -0.131634,0.100177 -0.264428,0.199748 -0.387441,0.309953 -0.2206,0.200147 -0.430785,0.428216 -0.619906,0.65865 -0.133378,0.161492 -0.270768,0.328904 -0.387442,0.503674 -0.03111,0.04758 -0.04767,0.106463 -0.07749,0.154977 -0.08029,0.12774 -0.161457,0.253563 -0.232465,0.387441 -0.125231,0.241399 -0.254998,0.515392 -0.348697,0.774883 -0.0099,0.02704 -0.02925,0.05027 -0.03874,0.07749 -0.03946,0.114 -0.04439,0.231635 -0.07749,0.348697 -0.0376,0.132186 -0.08727,0.25172 -0.116232,0.387441 -0.09036,0.423411 -0.154977,0.865644 -0.154977,1.317301 l 0,2.479626 0,84.307259 0,2.479626 c 0,3.44897 2.750093,6.199063 6.199063,6.199063 l 2.479625,0 84.307248,0 2.47963,0 c 3.44897,0 6.19906,-2.750093 6.19906,-6.199063 l 0,-2.479626 0,-84.307259 0,-2.479626 c 0,-0.451657 -0.0646,-0.89389 -0.15498,-1.317301 -0.0548,-0.256508 -0.1096,-0.493021 -0.19372,-0.736138 -0.01,-0.02721 -0.0289,-0.05045 -0.0387,-0.07749 -0.0777,-0.215404 -0.17158,-0.455568 -0.27121,-0.65865 -0.0516,-0.102657 -0.0979,-0.210711 -0.15498,-0.309953 -0.0677,-0.120523 -0.15718,-0.233519 -0.23246,-0.348698 -0.11667,-0.17477 -0.25406,-0.342182 -0.38744,-0.503674 -0.17752,-0.216285 -0.37584,-0.430212 -0.58116,-0.619906 -0.0139,-0.01265 -0.0248,-0.02622 -0.0387,-0.03874 -0.17157,-0.155666 -0.35345,-0.290657 -0.54241,-0.426186 -0.12717,-0.09069 -0.25332,-0.190142 -0.38745,-0.271209 -0.009,-0.0056 -0.0295,0.0055 -0.0387,0 -0.28768,-0.171996 -0.57347,-0.340673 -0.89111,-0.464929 0.37383,0.120013 0.73948,0.253092 1.08483,0.426185 0.69069,0.346186 1.31427,0.825336 1.85972,1.356045 0.27272,0.265355 0.50753,0.54783 0.73614,0.852371 0.2286,0.304542 0.44064,0.629507 0.61991,0.968604 0.17372,0.32861 0.34235,0.650566 0.46493,1.007348 0.0129,0.03816 0.0264,0.07779 0.0387,0.116232 0.1122,0.344774 0.17208,0.718353 0.23246,1.084836 0.065,0.394323 0.11617,0.786078 0.11617,1.201069 l 0,2.479625 0,84.30726 0,2.479625 c 0,4.121137 -3.31773,7.438876 -7.43887,7.438876 l -89.266501,0 z"
       inkscape:connector-curvature="0"
       id="path3615"
       style="opacity:0.2;fill:url(#radialGradient3456);fill-opacity:1;fill-rule:nonzero;stroke:none" />
    <g
       transform="matrix(1.2398125,0,0,1.2398126,4.908666,-56.573303)"
       id="layer4">
      <path
         inkscape:connector-curvature="0"
         d="M 60.96875,10.125 C 55.177231,10.164713 49.477697,12.476746 45.28125,16.5 36.97073,13.758797 26.987056,14.02251 19.9375,20 a 1.0216974,1.0216974 0 0 0 -0.0625,0.03125 c -0.889734,0.85338 -2.237955,1.970869 -3.21875,3.34375 -0.980795,1.372881 -1.582315,3.254174 -0.625,5.0625 a 1.0216974,1.0216974 0 0 0 0.25,0.3125 c 0.76419,0.628575 1.667333,0.897124 2.5,0.875 0.832667,-0.02212 1.58723,-0.27533 2.28125,-0.59375 1.388039,-0.63684 2.665043,-1.475736 3.5625,-1.6875 a 1.0216974,1.0216974 0 0 0 0.15625,-0.0625 C 31.496508,24.405653 39.559831,24.196479 45.875,27.9375 l 0.03125,-0.03125 c 0.94975,0.68611 2.140473,0.735537 3.03125,0.3125 0.86623,-0.411379 1.506656,-1.155655 1.90625,-2 L 50.875,26.25 c 3.770546,-5.233473 10.393693,-7.611864 16.8125,-7.78125 1.956527,0.370232 3.722452,-0.716627 4.40625,-2.21875 0.360326,-0.791542 0.436353,-1.7569 0.0625,-2.625 -0.362604,-0.841979 -1.150125,-1.510886 -2.21875,-1.875 -0.03064,-0.01385 -0.06305,-0.01761 -0.09375,-0.03125 -2.841739,-1.261939 -5.926815,-1.598731 -8.875,-1.59375 z m 9.25,14.78125 C 60.645062,24.865971 50.920542,28.945317 44.9375,36.65625 34.36837,34.006245 22.529318,36.126072 14.125,43.3125 a 1.0216974,1.0216974 0 0 0 -0.03125,0 c -2.710812,2.389267 -5.5818756,5.18231 -6.96875,8.875 a 1.0216974,1.0216974 0 0 0 -0.0625,0.28125 c -0.075487,1.164515 0.2522028,2.172728 0.9375,2.8125 0.6852972,0.639772 1.5716377,0.793199 2.40625,0.75 1.604753,-0.08306 3.168497,-0.832081 4.28125,-1.75 0.04471,-0.03688 0.113137,-0.05637 0.15625,-0.09375 8.299187,-4.653996 18.224685,-7.640614 27.4375,-4.9375 a 1.0216974,1.0216974 0 0 0 0.15625,0.03125 c 0.792566,0.0904 1.700362,0.546673 2.71875,1.03125 1.018388,0.484577 2.222925,1.007666 3.625,0.8125 a 1.0216974,1.0216974 0 0 0 0.3125,-0.09375 c 1.202178,-0.6001 1.80778,-1.671872 2.28125,-2.59375 0.47347,-0.921878 0.857619,-1.744306 1.375,-2.25 a 1.0216974,1.0216974 0 0 0 0.125,-0.125 c 5.16595,-7.276132 13.867553,-11.213913 22.59375,-12.875 l 0,-0.0625 c 1.841408,0.147664 3.579592,-0.696039 4.5625,-2.0625 0.523622,-0.727952 0.858351,-1.669154 0.625,-2.625 -0.233351,-0.955846 -0.996607,-1.761536 -2.125,-2.28125 A 1.0216974,1.0216974 0 0 0 78.4375,26.125 c -2.689408,-1.010632 -5.521791,-1.19708 -8.21875,-1.21875 z"
         id="path3741"
         style="opacity:0.05;fill:#000000;fill-opacity:1;fill-rule:evenodd;stroke:none" />
      <path
         d="m 60.96875,11.15625 c -5.721092,0.03923 -11.410438,2.353956 -15.4375,6.4375 -8.158387,-2.855226 -18.078363,-2.608454 -24.928206,3.199695 -1.863973,1.787812 -5.173892,4.326102 -3.665544,7.175305 2.370051,1.949455 5.033352,-1.044583 7.447069,-1.614123 6.970329,-2.984823 15.353704,-3.23235 22.008973,0.710142 1.345342,1.104322 3.075852,-0.03529 3.644107,-1.417814 4.014085,-5.571503 10.965803,-8.033894 17.618601,-8.209455 3.192891,0.862781 5.510476,-3.59722 1.875,-4.75 -2.66913,-1.206816 -5.660951,-1.536152 -8.5625,-1.53125 z m 9.25,14.78125 C 60.72378,25.89755 51.027682,29.997279 45.3125,37.75 34.894419,34.930364 23.073384,37.024139 14.788662,44.108302 c -2.682742,2.364526 -5.4274204,5.004929 -6.7082098,8.415157 -0.2520905,3.888924 4.2666508,2.460679 6.1006568,0.87069 8.469558,-4.782514 18.717145,-7.949246 28.373312,-5.116049 2.119087,0.241693 3.932002,2.144586 6.070579,1.8469 1.780098,-0.888584 2.001594,-3.272496 3.419121,-4.658003 5.378051,-7.574872 14.34364,-11.586565 23.237129,-13.279497 2.975243,0.47385 6.585371,-3.372532 2.815327,-5.108933 C 75.591713,26.137283 72.871603,25.958816 70.21875,25.9375 z"
         inkscape:connector-curvature="0"
         id="path3735"
         style="opacity:0.1;fill:#000000;fill-opacity:1;fill-rule:evenodd;stroke:none" />
      <path
         inkscape:connector-curvature="0"
         d="m 60.96875,12.09375 c -4.708676,0.05114 -10.512391,1.586787 -15.1875,6.5 -9.493493,-3.323402 -16.729783,-1.836649 -21.4375,0.78125 -2.408176,1.339154 -4.17055,2.950194 -5.3125,4.28125 -0.570975,0.665528 -0.974482,1.245933 -1.25,1.75 -0.137759,0.252033 -0.240642,0.469046 -0.3125,0.71875 -0.03593,0.124852 -0.0608,0.253007 -0.0625,0.4375 -0.0017,0.184493 -0.0053,0.483918 0.25,0.78125 0.250452,0.291688 0.605945,0.391524 0.8125,0.40625 0.206555,0.01473 0.340807,-0.03326 0.46875,-0.0625 0.255886,-0.05849 0.461752,-0.141712 0.71875,-0.25 0.513996,-0.216576 1.17435,-0.538528 1.96875,-0.90625 1.5888,-0.735443 3.745646,-1.667731 6.34375,-2.375 5.196209,-1.414537 12.025191,-1.884198 19.21875,2.28125 a 1.0135596,1.0135596 0 0 0 1.34375,-0.3125 c 3.951629,-5.832466 9.250593,-8.016286 13.59375,-8.9375 2.171578,-0.460607 4.094371,-0.586569 5.46875,-0.6875 0.68719,-0.05046 1.219508,-0.09295 1.6875,-0.1875 0.233996,-0.04728 0.46066,-0.07127 0.78125,-0.3125 0.160295,-0.120616 0.358705,-0.320314 0.4375,-0.625 0.07879,-0.304686 -0.0017,-0.62077 -0.09375,-0.8125 -0.183138,-0.381665 -0.389393,-0.513741 -0.59375,-0.65625 -0.204357,-0.142509 -0.425731,-0.252525 -0.6875,-0.375 -0.523537,-0.244949 -1.196458,-0.501949 -2,-0.71875 -1.607084,-0.433603 -3.728082,-0.745121 -6.15625,-0.71875 z m 9.25,14.78125 C 63.08698,26.886663 52.593923,29.208819 45.65625,38.78125 33.603046,35.566516 24.249,38.685962 18.09375,42.8125 14.956632,44.915653 12.636557,47.259353 11.125,49.15625 10.369221,50.104698 9.8258334,50.925766 9.46875,51.59375 9.2902083,51.927742 9.1496498,52.207847 9.0625,52.5 9.018925,52.646076 8.973432,52.797247 8.96875,53 c -0.00468,0.202753 0.017575,0.548827 0.34375,0.875 0.3003644,0.300364 0.6603593,0.349555 0.875,0.34375 0.214641,-0.0058 0.355503,-0.04846 0.5,-0.09375 0.288993,-0.09059 0.578822,-0.242865 0.90625,-0.40625 0.654856,-0.32677 1.487402,-0.780319 2.53125,-1.34375 2.087696,-1.126862 4.958709,-2.596758 8.375,-3.8125 6.832581,-2.431483 15.779431,-3.841822 25.0625,0.625 A 1.0135596,1.0135596 0 0 0 48.90625,48.75 c 4.722596,-8.878477 12.114573,-13.080944 18.3125,-15.3125 3.098963,-1.115778 5.887014,-1.725982 7.875,-2.15625 0.993993,-0.215134 1.772309,-0.399168 2.375,-0.59375 0.301345,-0.09729 0.569228,-0.163755 0.875,-0.40625 0.152886,-0.121248 0.34084,-0.304622 0.4375,-0.625 0.09666,-0.320378 0.0071,-0.708653 -0.125,-0.9375 -0.382189,-0.66197 -0.748885,-0.693869 -1.21875,-0.875 -0.469865,-0.181131 -1.048307,-0.356287 -1.75,-0.5 -1.403387,-0.287425 -3.284268,-0.472323 -5.46875,-0.46875 z"
         id="path3731"
         style="opacity:0.15;fill:#000000;fill-opacity:1;fill-rule:evenodd;stroke:none" />
      <path
         d="m 60.96875,13.09375 c -4.652392,0.05053 -10.376947,1.537521 -14.90625,6.59375 -19.154119,-7.088229 -28.215328,6.312485 -27.625,7 0.672915,0.783707 14.321535,-9.769365 29.25,-1.125 C 55.935879,13.388182 70.130221,16.313382 69.5,15 69.216303,14.408766 65.621142,13.043223 60.96875,13.09375 z m 9.25,14.78125 C 63.157454,27.88655 52.754642,30.172228 46.0625,39.90625 21.844932,33.008441 9.239756,52.36476 10.03125,53.15625 10.933475,54.058475 28.825082,39.054674 48,48.28125 57.734026,29.981289 78.681956,30.778811 77.78125,29.21875 77.477152,28.692038 74.455528,27.868071 70.21875,27.875 z"
         inkscape:connector-curvature="0"
         id="path2948"
         style="opacity:0.3;fill:#000000;fill-opacity:1;fill-rule:evenodd;stroke:none" />
      <path
         d="M 10.037308,52.159801 C 9.245814,51.368311 21.835629,32.023724 46.053197,38.921533 56.760624,23.347098 76.975179,26.809542 77.786108,28.214106 78.686814,29.774167 57.734026,28.992825 48,47.292786 28.825082,38.06621 10.939533,53.062026 10.037308,52.159801 z"
         inkscape:connector-curvature="0"
         id="path3597"
         style="fill:url(#radialGradient3458);fill-opacity:1;fill-rule:evenodd;stroke:none" />
      <path
         d="M 18.432554,25.696015 C 17.842226,25.0085 26.90898,11.589679 46.063099,18.677908 55.121705,8.5654504 68.918272,12.828338 69.485666,14.010807 70.115887,15.324189 55.942554,12.395003 47.694175,24.569321 32.76571,15.924956 19.105469,26.479722 18.432554,25.696015 z"
         inkscape:connector-curvature="0"
         id="path3599"
         style="fill:url(#radialGradient3460);fill-opacity:1;fill-rule:evenodd;stroke:none" />
      <path
         d="m 60.96875,12.09375 c -4.652392,0.05053 -10.376947,1.537521 -14.90625,6.59375 -19.154119,-7.088229 -28.215328,6.312486 -27.625,7 0.04696,0.0547 0.174251,0.04538 0.34375,0 1.873215,-3.130367 10.87228,-12.072351 27.28125,-6 7.836774,-8.748481 19.20455,-6.748387 22.5,-5.28125 C 69.228385,14.332875 69.608713,14.226558 69.5,14 69.216303,13.408765 65.621142,12.043223 60.96875,12.09375 z"
         inkscape:connector-curvature="0"
         id="path3617"
         style="fill:#ffffff;fill-opacity:1;fill-rule:evenodd;stroke:none" />
      <path
         d="m 70.21875,26.875 c -7.061296,0.01155 -17.464107,2.297229 -24.15625,12.03125 -24.217568,-6.897809 -36.8227437,12.45851 -36.03125,13.25 0.189082,0.189082 1.276032,-0.411865 2.8125,-1.25 4.257341,-5.426257 15.906619,-15.215783 34.21875,-10 8.229009,-11.969463 22.038769,-12.693014 28.375,-11.75 1.616413,-0.354649 2.5453,-0.588406 2.34375,-0.9375 -0.304098,-0.526712 -3.325722,-1.350679 -7.5625,-1.34375 z"
         inkscape:connector-curvature="0"
         id="path3622"
         style="fill:#ffffff;fill-opacity:1;fill-rule:evenodd;stroke:none" />
      <path
         d="m 77,27.78125 c -3.821437,1.140091 -20.586914,2.683405 -29,18.5 -18.123985,-8.720888 -35.088431,4.19453 -37.65625,4.875 -0.284707,0.548175 -0.4070987,0.905402 -0.3125,1 C 10.933475,53.058475 28.825082,38.054674 48,47.28125 57.734026,28.981289 78.681954,29.778811 77.78125,28.21875 77.70435,28.085559 77.401211,27.933464 77,27.78125 z"
         inkscape:connector-curvature="0"
         id="path3627"
         style="opacity:0.5;fill:#ffffff;fill-opacity:1;fill-rule:evenodd;stroke:none" />
      <path
         d="m 68.5625,13.40625 c -3.194317,0.351988 -14.049466,0.082 -20.875,10.15625 -13.886583,-8.04106 -26.647102,0.520169 -28.90625,1.125 -0.313381,0.523697 -0.428355,0.901466 -0.34375,1 0.672915,0.783707 14.321534,-9.769365 29.25,-1.125 C 55.935879,12.388182 70.130223,15.313382 69.5,14 69.42347,13.840508 69.076294,13.634991 68.5625,13.40625 z"
         inkscape:connector-curvature="0"
         id="path3633"
         style="opacity:0.3;fill:#ffffff;fill-opacity:1;fill-rule:evenodd;stroke:none" />
    </g>
  </g>
</svg>
