<?xml version="1.0" encoding="UTF-8" standalone="no"?>
<!-- Created with Inkscape (http://www.inkscape.org/) -->

<svg
   xmlns:dc="http://purl.org/dc/elements/1.1/"
   xmlns:cc="http://creativecommons.org/ns#"
   xmlns:rdf="http://www.w3.org/1999/02/22-rdf-syntax-ns#"
   xmlns:svg="http://www.w3.org/2000/svg"
   xmlns="http://www.w3.org/2000/svg"
   xmlns:xlink="http://www.w3.org/1999/xlink"
   xmlns:sodipodi="http://sodipodi.sourceforge.net/DTD/sodipodi-0.dtd"
   xmlns:inkscape="http://www.inkscape.org/namespaces/inkscape"
   id="svg11300"
   height="128"
   width="128"
   version="1.0"
   inkscape:version="0.48.1 r9760"
   sodipodi:docname="mtinkc.svg">
  <metadata
     id="metadata67">
    <rdf:RDF>
      <cc:Work
         rdf:about="">
        <dc:format>image/svg+xml</dc:format>
        <dc:type
           rdf:resource="http://purl.org/dc/dcmitype/StillImage" />
        <dc:title />
      </cc:Work>
    </rdf:RDF>
  </metadata>
  <sodipodi:namedview
     pagecolor="#ffffff"
     bordercolor="#666666"
     borderopacity="1"
     objecttolerance="10"
     gridtolerance="10"
     guidetolerance="10"
     inkscape:pageopacity="0"
     inkscape:pageshadow="2"
     inkscape:window-width="1478"
     inkscape:window-height="907"
     id="namedview65"
     showgrid="false"
     inkscape:zoom="5.6171875"
     inkscape:cx="65.602225"
     inkscape:cy="70.675939"
     inkscape:window-x="256"
     inkscape:window-y="24"
     inkscape:window-maximized="0"
     inkscape:current-layer="svg11300" />
  <defs
     id="defs3">
    <linearGradient
       id="linearGradient6828">
      <stop
         id="stop6830"
         style="stop-color:#6e6e6e"
         offset="0" />
      <stop
         id="stop6832"
         style="stop-color:#1e1e1e"
         offset="1" />
    </linearGradient>
    <linearGradient
       id="linearGradient2366">
      <stop
         id="stop2368"
         style="stop-color:#2e3436"
         offset="0" />
      <stop
         id="stop2370"
         style="stop-color:#555753"
         offset="1" />
    </linearGradient>
    <linearGradient
       id="linearGradient8589">
      <stop
         id="stop8591"
         style="stop-color:#fefefe"
         offset="0" />
      <stop
         id="stop8593"
         style="stop-color:#bebebe"
         offset="1" />
    </linearGradient>
    <linearGradient
       id="linearGradient3104">
      <stop
         id="stop3106"
         style="stop-color:#969696"
         offset="0" />
      <stop
         id="stop3108"
         style="stop-color:#bebebe"
         offset="1" />
    </linearGradient>
    <linearGradient
       id="linearGradient3161"
       y2="32.485001"
       gradientUnits="userSpaceOnUse"
       x2="24.104"
       gradientTransform="matrix(0.89305,0,0,0.88766,-24.247,42.161)"
       y1="15.169"
       x1="24.104">
      <stop
         id="stop2266"
         style="stop-color:#ff002f;stop-opacity:1;"
         offset="0" />
      <stop
         id="stop2268"
         style="stop-color:#fb002b;stop-opacity:1;"
         offset="1" />
    </linearGradient>
    <linearGradient
       id="linearGradient3163"
       y2="47.272999"
       gradientUnits="userSpaceOnUse"
       x2="24.139"
       gradientTransform="matrix(0.53643,0,0,0.5332,-15.688,50.169)"
       y1="-9.8009005"
       x1="24.139">
      <stop
         id="stop4224"
         style="stop-color:#ff959f;stop-opacity:1;"
         offset="0" />
      <stop
         id="stop4226"
         style="stop-color:#ff0055;stop-opacity:1;"
         offset="1" />
    </linearGradient>
    <linearGradient
       id="linearGradient3166"
       y2="38"
       xlink:href="#linearGradient6828"
       gradientUnits="userSpaceOnUse"
       x2="24.875"
       gradientTransform="matrix(2.625,0,0,2.625,0,3.25)"
       y1="41"
       x1="24.875" />
    <linearGradient
       id="linearGradient3169"
       y2="43.380001"
       xlink:href="#linearGradient8589"
       gradientUnits="userSpaceOnUse"
       x2="21.062"
       gradientTransform="matrix(2.625,0,0,2.625,0,3.25)"
       y1="38"
       x1="21.062" />
    <linearGradient
       id="linearGradient3175"
       y2="31.987"
       xlink:href="#linearGradient3104"
       gradientUnits="userSpaceOnUse"
       x2="39.931"
       gradientTransform="matrix(1.4768775,0,0,1.6879275,48.386625,36.658375)"
       y1="28.417"
       x1="39.948002" />
    <radialGradient
       id="radialGradient3178"
       gradientUnits="userSpaceOnUse"
       cy="15.28"
       cx="11.537"
       gradientTransform="matrix(2.625,0,0,1.0096275,0,46.864375)"
       r="13">
      <stop
         id="stop2465"
         style="stop-color:#fff"
         offset="0" />
      <stop
         id="stop2467"
         style="stop-color:#fff;stop-opacity:0"
         offset="1" />
    </radialGradient>
    <linearGradient
       id="linearGradient3181"
       y2="40.875"
       xlink:href="#linearGradient6828"
       gradientUnits="userSpaceOnUse"
       x2="7.4545002"
       gradientTransform="matrix(2.5477987,0,0,2.1,1.852935,24.5125)"
       y1="31.156"
       x1="7.5170002" />
    <linearGradient
       id="linearGradient3183"
       y2="33.5"
       xlink:href="#linearGradient2366"
       gradientUnits="userSpaceOnUse"
       x2="9.5"
       gradientTransform="matrix(2.625,0,0,2.625,1.3125,1.9375)"
       y1="41.375"
       x1="9.5625" />
    <linearGradient
       id="linearGradient3186"
       y2="33"
       xlink:href="#linearGradient6828"
       gradientUnits="userSpaceOnUse"
       x2="22.007999"
       gradientTransform="matrix(2.625,0,0,2.625,-6.5625e-7,3.25)"
       y1="21"
       x1="21.919001" />
    <linearGradient
       id="linearGradient3188"
       y2="21"
       xlink:href="#linearGradient2366"
       gradientUnits="userSpaceOnUse"
       x2="15.335"
       gradientTransform="matrix(2.625,0,0,2.625,-6.5625e-7,3.25)"
       y1="33"
       x1="15.601" />
    <linearGradient
       id="linearGradient3191"
       y2="5.4565001"
       xlink:href="#linearGradient8589"
       gradientUnits="userSpaceOnUse"
       x2="36.358002"
       gradientTransform="matrix(2.0549288,0,0,2.26779,12.751463,-0.2602287)"
       y1="8.059"
       x1="32.891998" />
    <linearGradient
       id="linearGradient3195"
       y2="47.013"
       gradientUnits="userSpaceOnUse"
       x2="25.132"
       gradientTransform="matrix(1.874985,0,0,1.8371587,18.00015,1.806775)"
       y1="6.7287002"
       x1="25.132">
      <stop
         id="stop3602"
         style="stop-color:#f4f4f4"
         offset="0" />
      <stop
         id="stop3604"
         style="stop-color:#dbdbdb"
         offset="1" />
    </linearGradient>
    <linearGradient
       id="linearGradient3197"
       y2="2.9061999"
       xlink:href="#linearGradient3104"
       gradientUnits="userSpaceOnUse"
       x2="-51.785999"
       gradientTransform="matrix(1.5140475,0,0,1.7192963,129.39412,-0.2406462)"
       y1="50.785999"
       x1="-51.785999" />
    <radialGradient
       id="radialGradient3200"
       gradientUnits="userSpaceOnUse"
       cy="11.918"
       cx="3.7591"
       gradientTransform="matrix(2.6245275,0.0492555,-0.03314587,1.7661525,0.39676875,41.283625)"
       r="21">
      <stop
         id="stop6844"
         style="stop-color:#fff"
         offset="0" />
      <stop
         id="stop6846"
         style="stop-color:#fff;stop-opacity:0"
         offset="1" />
    </radialGradient>
    <linearGradient
       id="linearGradient3203"
       y2="37"
       xlink:href="#linearGradient8589"
       gradientUnits="userSpaceOnUse"
       x2="11.506"
       gradientTransform="matrix(2.625,0,0,2.625,-6.5625e-7,3.25)"
       y1="20"
       x1="11.519" />
    <linearGradient
       id="linearGradient3205"
       y2="20"
       gradientUnits="userSpaceOnUse"
       x2="20.278999"
       gradientTransform="matrix(2.625,0,0,2.625,0,3.25)"
       y1="37"
       x1="20.562">
      <stop
         id="stop6868"
         style="stop-color:#8f9cf8;stop-opacity:1;"
         offset="0" />
      <stop
         id="stop6870"
         style="stop-color:#1a30dd;stop-opacity:1;"
         offset="1" />
    </linearGradient>
    <linearGradient
       id="linearGradient3208"
       y2="18.92"
       xlink:href="#linearGradient6828"
       gradientUnits="userSpaceOnUse"
       x2="21.687"
       gradientTransform="matrix(2.3071388,0,0,2.96205,7.6285125,0.3793262)"
       y1="9.5516005"
       x1="21.586" />
    <linearGradient
       id="linearGradient3210"
       y2="8.9371996"
       xlink:href="#linearGradient2366"
       gradientUnits="userSpaceOnUse"
       x2="7.4375"
       gradientTransform="matrix(2.3071388,0,0,2.96205,7.6285125,0.3793262)"
       y1="14.105"
       x1="7.4375" />
    <radialGradient
       id="radialGradient3213"
       gradientUnits="userSpaceOnUse"
       cy="41.875"
       cx="24"
       gradientTransform="matrix(3.2941125,0,0,0.89215875,-16.0587,69.5785)"
       r="19.125">
      <stop
         id="stop7614"
         offset="0" />
      <stop
         id="stop7616"
         style="stop-opacity:0"
         offset="1" />
    </radialGradient>
    <linearGradient
       id="linearGradient8408"
       y2="2.3162"
       xlink:href="#linearGradient4103"
       gradientUnits="userSpaceOnUse"
       x2="67.466003"
       gradientTransform="matrix(0.86248,0,0,0.58072,-16.257,11.013)"
       y1="2.3162"
       x1="52.717999" />
    <linearGradient
       id="linearGradient4103">
      <stop
         id="stop4105"
         style="stop-color:#edd563"
         offset="0" />
      <stop
         id="stop4107"
         style="stop-color:#e08223"
         offset="1" />
    </linearGradient>
    <linearGradient
       id="linearGradient6474"
       y2="11.359"
       gradientUnits="userSpaceOnUse"
       x2="42"
       y1="11.359"
       x1="29.143">
      <stop
         id="stop6470"
         style="stop-color:#335acd;stop-opacity:1;"
         offset="0" />
      <stop
         id="stop6472"
         style="stop-color:#1249bb;stop-opacity:1;"
         offset="1" />
    </linearGradient>
    <linearGradient
       id="linearGradient8410"
       y2="24.245001"
       xlink:href="#linearGradient6651"
       gradientUnits="userSpaceOnUse"
       x2="69.691002"
       gradientTransform="matrix(0.71944,0,0,0.71891,-7.6963,9.4717)"
       y1="24.245001"
       x1="53.168999" />
    <linearGradient
       id="linearGradient6651">
      <stop
         id="stop6653"
         style="stop-color:#f2f2f2"
         offset="0" />
      <stop
         id="stop6655"
         style="stop-color:#c3c3c3"
         offset="1" />
    </linearGradient>
    <linearGradient
       id="linearGradient8412"
       y2="41.459"
       gradientUnits="userSpaceOnUse"
       x2="61.872002"
       gradientTransform="matrix(0.88862,0,0,0.71891,-18.298,9.4717)"
       y1="29.615"
       x1="61.872002">
      <stop
         id="stop6631"
         style="stop-color:#aeaeae"
         offset="0" />
      <stop
         id="stop6633"
         style="stop-color:#c4c4c4;stop-opacity:0"
         offset="1" />
    </linearGradient>
    <linearGradient
       id="linearGradient8414"
       y2="64.519997"
       xlink:href="#linearGradient4103"
       gradientUnits="userSpaceOnUse"
       x2="54.064999"
       gradientTransform="matrix(0.70375,0,0,0.71891,-1.0447,-22.425)"
       y1="64.564003"
       x1="42.816002" />
    <linearGradient
       id="linearGradient4214">
      <stop
         id="stop4216"
         style="stop-color:#edd563"
         offset="0" />
      <stop
         id="stop4218"
         style="stop-color:#e08223"
         offset="1" />
    </linearGradient>
    <radialGradient
       id="radialGradient6440"
       gradientUnits="userSpaceOnUse"
       cy="20.34"
       cx="31.410999"
       gradientTransform="matrix(1,0,0,1.5787,0,-15.431)"
       r="7.9889998">
      <stop
         id="stop5115"
         style="stop-color:#fff"
         offset="0" />
      <stop
         id="stop5117"
         style="stop-color:#fff;stop-opacity:0"
         offset="1" />
    </radialGradient>
    <linearGradient
       id="linearGradient8418"
       y2="43.869999"
       xlink:href="#linearGradient6651"
       gradientUnits="userSpaceOnUse"
       x2="60.441002"
       gradientTransform="matrix(0.73731,0,0,0.77085,-8.532,7.1216)"
       y1="40.119999"
       x1="60.168999" />
    <linearGradient
       id="linearGradient4224">
      <stop
         id="stop4226-7"
         style="stop-color:#f2f2f2"
         offset="0" />
      <stop
         id="stop4228"
         style="stop-color:#c3c3c3"
         offset="1" />
    </linearGradient>
    <linearGradient
       id="linearGradient8420"
       y2="74.5"
       gradientUnits="userSpaceOnUse"
       x2="48.25"
       gradientTransform="matrix(0.71891,0,0,0.71891,-1.8971,-20.686)"
       y1="52"
       x1="48.25">
      <stop
         id="stop6837"
         style="stop-color:#fff"
         offset="0" />
      <stop
         id="stop6839"
         style="stop-color:#fff;stop-opacity:0"
         offset="1" />
    </linearGradient>
    <linearGradient
       inkscape:collect="always"
       xlink:href="#linearGradient3163"
       id="linearGradient4364"
       gradientUnits="userSpaceOnUse"
       gradientTransform="matrix(0.86248,0,0,0.58072,-16.257,11.013)"
       x1="52.717999"
       y1="2.3162"
       x2="67.466003"
       y2="2.3162" />
    <linearGradient
       inkscape:collect="always"
       xlink:href="#linearGradient3163"
       id="linearGradient4366"
       gradientUnits="userSpaceOnUse"
       x1="29.143"
       y1="11.359"
       x2="42"
       y2="11.359" />
    <linearGradient
       inkscape:collect="always"
       xlink:href="#linearGradient6651"
       id="linearGradient4368"
       gradientUnits="userSpaceOnUse"
       gradientTransform="matrix(0.71944,0,0,0.71891,-7.6963,9.4717)"
       x1="53.168999"
       y1="24.245001"
       x2="69.691002"
       y2="24.245001" />
    <linearGradient
       inkscape:collect="always"
       xlink:href="#linearGradient8412"
       id="linearGradient4370"
       gradientUnits="userSpaceOnUse"
       gradientTransform="matrix(0.88862,0,0,0.71891,-18.298,9.4717)"
       x1="61.872002"
       y1="29.615"
       x2="61.872002"
       y2="41.459" />
    <linearGradient
       inkscape:collect="always"
       xlink:href="#linearGradient3163"
       id="linearGradient4372"
       gradientUnits="userSpaceOnUse"
       gradientTransform="matrix(0.70375,0,0,0.71891,-1.0447,-22.425)"
       x1="42.816002"
       y1="64.564003"
       x2="54.064999"
       y2="64.519997" />
    <radialGradient
       inkscape:collect="always"
       xlink:href="#radialGradient6440"
       id="radialGradient4374"
       gradientUnits="userSpaceOnUse"
       gradientTransform="matrix(1,0,0,1.5787,0,-15.431)"
       cx="31.410999"
       cy="20.34"
       r="7.9889998" />
    <linearGradient
       inkscape:collect="always"
       xlink:href="#linearGradient6651"
       id="linearGradient4376"
       gradientUnits="userSpaceOnUse"
       gradientTransform="matrix(0.73731,0,0,0.77085,-8.532,7.1216)"
       x1="60.168999"
       y1="40.119999"
       x2="60.441002"
       y2="43.869999" />
    <linearGradient
       inkscape:collect="always"
       xlink:href="#linearGradient8420"
       id="linearGradient4378"
       gradientUnits="userSpaceOnUse"
       gradientTransform="matrix(0.71891,0,0,0.71891,-1.8971,-20.686)"
       x1="48.25"
       y1="52"
       x2="48.25"
       y2="74.5" />
    <linearGradient
       inkscape:collect="always"
       xlink:href="#linearGradient3205"
       id="linearGradient4408"
       gradientUnits="userSpaceOnUse"
       gradientTransform="matrix(0.86248,0,0,0.58072,-16.257,11.013)"
       x1="52.717999"
       y1="2.3162"
       x2="67.466003"
       y2="2.3162" />
    <linearGradient
       inkscape:collect="always"
       xlink:href="#linearGradient3205"
       id="linearGradient4410"
       gradientUnits="userSpaceOnUse"
       x1="29.143"
       y1="11.359"
       x2="42"
       y2="11.359" />
    <linearGradient
       inkscape:collect="always"
       xlink:href="#linearGradient6651"
       id="linearGradient4412"
       gradientUnits="userSpaceOnUse"
       gradientTransform="matrix(0.71944,0,0,0.71891,-7.6963,9.4717)"
       x1="53.168999"
       y1="24.245001"
       x2="69.691002"
       y2="24.245001" />
    <linearGradient
       inkscape:collect="always"
       xlink:href="#linearGradient8412"
       id="linearGradient4414"
       gradientUnits="userSpaceOnUse"
       gradientTransform="matrix(0.88862,0,0,0.71891,-18.298,9.4717)"
       x1="61.872002"
       y1="29.615"
       x2="61.872002"
       y2="41.459" />
    <linearGradient
       inkscape:collect="always"
       xlink:href="#linearGradient3205"
       id="linearGradient4416"
       gradientUnits="userSpaceOnUse"
       gradientTransform="matrix(0.70375,0,0,0.71891,-1.0447,-22.425)"
       x1="42.816002"
       y1="64.564003"
       x2="54.064999"
       y2="64.519997" />
    <radialGradient
       inkscape:collect="always"
       xlink:href="#radialGradient6440"
       id="radialGradient4418"
       gradientUnits="userSpaceOnUse"
       gradientTransform="matrix(1,0,0,1.5787,0,-15.431)"
       cx="31.410999"
       cy="20.34"
       r="7.9889998" />
    <linearGradient
       inkscape:collect="always"
       xlink:href="#linearGradient6651"
       id="linearGradient4420"
       gradientUnits="userSpaceOnUse"
       gradientTransform="matrix(0.73731,0,0,0.77085,-8.532,7.1216)"
       x1="60.168999"
       y1="40.119999"
       x2="60.441002"
       y2="43.869999" />
    <linearGradient
       inkscape:collect="always"
       xlink:href="#linearGradient8420"
       id="linearGradient4422"
       gradientUnits="userSpaceOnUse"
       gradientTransform="matrix(0.71891,0,0,0.71891,-1.8971,-20.686)"
       x1="48.25"
       y1="52"
       x2="48.25"
       y2="74.5" />
    <linearGradient
       inkscape:collect="always"
       xlink:href="#linearGradient6828"
       id="linearGradient4452"
       gradientUnits="userSpaceOnUse"
       gradientTransform="matrix(0.86248,0,0,0.58072,-16.257,11.013)"
       x1="52.717999"
       y1="2.3162"
       x2="67.466003"
       y2="2.3162" />
    <linearGradient
       inkscape:collect="always"
       xlink:href="#linearGradient6828"
       id="linearGradient4454"
       gradientUnits="userSpaceOnUse"
       x1="29.143"
       y1="11.359"
       x2="42"
       y2="11.359" />
    <linearGradient
       inkscape:collect="always"
       xlink:href="#linearGradient6651"
       id="linearGradient4456"
       gradientUnits="userSpaceOnUse"
       gradientTransform="matrix(0.71944,0,0,0.71891,-7.6963,9.4717)"
       x1="53.168999"
       y1="24.245001"
       x2="69.691002"
       y2="24.245001" />
    <linearGradient
       inkscape:collect="always"
       xlink:href="#linearGradient8412"
       id="linearGradient4458"
       gradientUnits="userSpaceOnUse"
       gradientTransform="matrix(0.88862,0,0,0.71891,-18.298,9.4717)"
       x1="61.872002"
       y1="29.615"
       x2="61.872002"
       y2="41.459" />
    <linearGradient
       inkscape:collect="always"
       xlink:href="#linearGradient6828"
       id="linearGradient4460"
       gradientUnits="userSpaceOnUse"
       gradientTransform="matrix(0.70375,0,0,0.71891,-1.0447,-22.425)"
       x1="42.816002"
       y1="64.564003"
       x2="54.064999"
       y2="64.519997" />
    <radialGradient
       inkscape:collect="always"
       xlink:href="#radialGradient6440"
       id="radialGradient4462"
       gradientUnits="userSpaceOnUse"
       gradientTransform="matrix(1,0,0,1.5787,0,-15.431)"
       cx="31.410999"
       cy="20.34"
       r="7.9889998" />
    <linearGradient
       inkscape:collect="always"
       xlink:href="#linearGradient6651"
       id="linearGradient4464"
       gradientUnits="userSpaceOnUse"
       gradientTransform="matrix(0.73731,0,0,0.77085,-8.532,7.1216)"
       x1="60.168999"
       y1="40.119999"
       x2="60.441002"
       y2="43.869999" />
    <linearGradient
       inkscape:collect="always"
       xlink:href="#linearGradient8420"
       id="linearGradient4466"
       gradientUnits="userSpaceOnUse"
       gradientTransform="matrix(0.71891,0,0,0.71891,-1.8971,-20.686)"
       x1="48.25"
       y1="52"
       x2="48.25"
       y2="74.5" />
    <linearGradient
       inkscape:collect="always"
       xlink:href="#linearGradient4103"
       id="linearGradient4468"
       gradientUnits="userSpaceOnUse"
       x1="29.143"
       y1="11.359"
       x2="42"
       y2="11.359" />
    <linearGradient
       inkscape:collect="always"
       xlink:href="#linearGradient8412"
       id="linearGradient4470"
       gradientUnits="userSpaceOnUse"
       gradientTransform="matrix(0.88862,0,0,0.71891,-18.298,9.4717)"
       x1="61.872002"
       y1="29.615"
       x2="61.872002"
       y2="41.459" />
    <radialGradient
       inkscape:collect="always"
       xlink:href="#radialGradient6440"
       id="radialGradient4472"
       gradientUnits="userSpaceOnUse"
       gradientTransform="matrix(1,0,0,1.5787,0,-15.431)"
       cx="31.410999"
       cy="20.34"
       r="7.9889998" />
    <linearGradient
       inkscape:collect="always"
       xlink:href="#linearGradient8420"
       id="linearGradient4474"
       gradientUnits="userSpaceOnUse"
       gradientTransform="matrix(0.71891,0,0,0.71891,-1.8971,-20.686)"
       x1="48.25"
       y1="52"
       x2="48.25"
       y2="74.5" />
    <linearGradient
       inkscape:collect="always"
       xlink:href="#linearGradient2366"
       id="linearGradient4984"
       gradientUnits="userSpaceOnUse"
       gradientTransform="matrix(2.625,0,0,2.625,0,3.25)"
       x1="20.562"
       y1="37"
       x2="20.278999"
       y2="20" />
    <radialGradient
       cx="48.193913"
       cy="58.66795"
       r="33.906048"
       fx="48.193913"
       fy="58.66795"
       id="radialGradient3787"
       xlink:href="#linearGradient3601"
       gradientUnits="userSpaceOnUse"
       gradientTransform="matrix(0.9473764,-0.3327843,0.2051643,0.5840656,-9.5004367,28.453781)" />
    <linearGradient
       id="linearGradient3601">
      <stop
         id="stop3603"
         style="stop-color:#b8d9f4;stop-opacity:1"
         offset="0" />
      <stop
         id="stop3605"
         style="stop-color:#ebf4fc;stop-opacity:1"
         offset="1" />
    </linearGradient>
    <radialGradient
       cx="48.241459"
       cy="38.667461"
       r="25.550245"
       fx="48.241459"
       fy="38.667461"
       id="radialGradient3789"
       xlink:href="#linearGradient3601"
       gradientUnits="userSpaceOnUse"
       gradientTransform="matrix(0.8476225,-0.3415184,0.2499426,0.620338,-2.3137345,16.411146)" />
    <linearGradient
       id="linearGradient3507">
      <stop
         id="stop3509"
         style="stop-color:#b8d9f4;stop-opacity:1"
         offset="0" />
      <stop
         id="stop3511"
         style="stop-color:#ebf4fc;stop-opacity:1"
         offset="1" />
    </linearGradient>
  </defs>
  <rect
     id="rect2315"
     style="fill:url(#linearGradient3208);stroke:url(#linearGradient3210);stroke-width:2.61457872;stroke-linecap:round;stroke-linejoin:round"
     rx="1.4799488"
     ry="1.90008"
     height="57.760498"
     width="76.135498"
     y="25.557253"
     x="24.931988" />
  <path
     id="rect2313"
     style="fill:url(#linearGradient3203);stroke:url(#linearGradient4984);stroke-width:2.62500000000000000;stroke-linecap:round;stroke-linejoin:round"
     d="M 12.019875,57.0625 H 24.9375 l 2.625,2.625 h 70.875 l 2.625,-2.625 h 12.91763 c 3.02321,0 5.45737,2.433953 5.45737,5.457375 V 99.0625 H 6.5625 V 62.519875 c 0,-3.023212 2.4339525,-5.457375 5.457375,-5.457375 z"
     inkscape:connector-curvature="0" />
  <path
     id="rect2374"
     style="opacity:0.9;fill:none;stroke:url(#radialGradient3200);stroke-width:2.625;stroke-linecap:round"
     d="m 11.8125,59.6875 h 102.375 c 1.3619,0 2.625,1.263097 2.625,2.625 v 34.125 H 9.1875 v -34.125 c 0,-1.361903 1.263098,-2.625 2.625,-2.625 z"
     inkscape:connector-curvature="0" />
  <path
     id="rect2594"
     style="fill:url(#linearGradient3195);stroke:url(#linearGradient3197);stroke-width:2.62494755;stroke-linejoin:round"
     d="m 30.1875,4.5625 h 45.11325 c 2.638125,0.8917125 16.810238,11.050725 20.510962,18.084675 V 62.31355 h -65.625 v -57.75 z"
     inkscape:connector-curvature="0" />
  <path
     id="path8596"
     style="fill-opacity:0.32663;fill-rule:evenodd;stroke:#000000;stroke-width:2.64468765;stroke-linejoin:round;stroke-opacity:0.16583001"
     d="m 73.954125,4.5722125 c 1.211779,8.2194005 1.158465,18.0014625 1.158465,18.0014625 0,0 9.256537,-0.22218 20.691038,1.183429 -9.310875,-9.539775 -15.834,-13.517438 -21.8505,-19.1848128 z"
     inkscape:connector-curvature="0" />
  <path
     id="path12038"
     style="fill:url(#linearGradient3191);fill-rule:evenodd"
     d="m 73.5,3.25 c 2.908762,8.784825 2.667525,17.603513 2.667525,17.603513 0,0 16.133513,1.166287 20.957475,3.396487 0,-3.646387 -19.1499,-20.9377875 -23.625,-21 z"
     inkscape:connector-curvature="0" />
  <rect
     id="rect2319"
     style="fill:url(#linearGradient3186);stroke:url(#linearGradient3188);stroke-width:2.625;stroke-linecap:round"
     height="28.875"
     width="70.875"
     y="59.6875"
     x="27.5625" />
  <path
     id="rect6333"
     style="fill:url(#linearGradient3181);stroke:url(#linearGradient3183);stroke-width:2.625;stroke-linecap:square"
     d="m 9.1875,99.0625 c 0.2102625,2.72213 -0.544425,5.649 0.6657,8.169 2.2701,3.19987 6.484012,2.14725 9.8343,2.331 0.06046,1.88869 -0.560333,4.80428 2.028442,5.20616 27.34725,0.10238 54.702375,0.0157 82.054878,0.0438 2.8224,0.0835 2.63419,-3.05025 2.54297,-5.03895 0.92179,-0.48985 2.75073,-0.0725 4.02386,-0.21105 3.14974,0.42811 7.00114,-1.73205 6.47614,-5.32376 V 99.0625 H 9.1887862 z"
     inkscape:connector-curvature="0" />
  <rect
     id="rect2459"
     style="opacity:0.3;fill:none;stroke:url(#radialGradient3178);stroke-width:2.625;stroke-linecap:round"
     height="23.625"
     width="65.625"
     y="62.3125"
     x="30.1875" />
  <path
     id="path2726"
     style="fill:none;stroke:url(#linearGradient3175);stroke-width:1.96843505;stroke-linecap:round;stroke-linejoin:round"
     d="m 111.89063,88.5625 c 0,1.631385 -1.32245,2.953913 -2.95365,2.953913 -1.63131,0 -2.95365,-1.322502 -2.95365,-2.953913 0,-1.631385 1.32244,-2.953912 2.95365,-2.953912 1.6313,0 2.95365,1.322501 2.95365,2.953912 z"
     inkscape:connector-curvature="0" />
  <path
     id="rect6331"
     style="fill:url(#linearGradient3169)"
     d="m 105,103 v 9.1875 c 0,0.72713 -0.58537,1.3125 -1.3125,1.3125 H 22.3125 C 21.585375,113.5 21,112.91463 21,112.1875 V 103 h 84 z"
     inkscape:connector-curvature="0" />
  <rect
     id="rect6329"
     style="fill:url(#linearGradient3166)"
     height="5.25"
     width="73.5"
     y="103"
     x="26.25" />
  <g
     transform="matrix(1.2423107,0,0,1.2398126,12.05406,29.839122)"
     id="layer4">
    <path
       inkscape:connector-curvature="0"
       d="M 60.96875,10.125 C 55.177231,10.164713 49.477697,12.476746 45.28125,16.5 36.97073,13.758797 26.987056,14.02251 19.9375,20 a 1.0216974,1.0216974 0 0 0 -0.0625,0.03125 c -0.889734,0.85338 -2.237955,1.970869 -3.21875,3.34375 -0.980795,1.372881 -1.582315,3.254174 -0.625,5.0625 a 1.0216974,1.0216974 0 0 0 0.25,0.3125 c 0.76419,0.628575 1.667333,0.897124 2.5,0.875 0.832667,-0.02212 1.58723,-0.27533 2.28125,-0.59375 1.388039,-0.63684 2.665043,-1.475736 3.5625,-1.6875 a 1.0216974,1.0216974 0 0 0 0.15625,-0.0625 C 31.496508,24.405653 39.559831,24.196479 45.875,27.9375 l 0.03125,-0.03125 c 0.94975,0.68611 2.140473,0.735537 3.03125,0.3125 0.86623,-0.411379 1.506656,-1.155655 1.90625,-2 L 50.875,26.25 c 3.770546,-5.233473 10.393693,-7.611864 16.8125,-7.78125 1.956527,0.370232 3.722452,-0.716627 4.40625,-2.21875 0.360326,-0.791542 0.436353,-1.7569 0.0625,-2.625 -0.362604,-0.841979 -1.150125,-1.510886 -2.21875,-1.875 -0.03064,-0.01385 -0.06305,-0.01761 -0.09375,-0.03125 -2.841739,-1.261939 -5.926815,-1.598731 -8.875,-1.59375 z m 9.25,14.78125 C 60.645062,24.865971 50.920542,28.945317 44.9375,36.65625 34.36837,34.006245 22.529318,36.126072 14.125,43.3125 a 1.0216974,1.0216974 0 0 0 -0.03125,0 c -2.710812,2.389267 -5.5818756,5.18231 -6.96875,8.875 a 1.0216974,1.0216974 0 0 0 -0.0625,0.28125 c -0.075487,1.164515 0.2522028,2.172728 0.9375,2.8125 0.6852972,0.639772 1.5716377,0.793199 2.40625,0.75 1.604753,-0.08306 3.168497,-0.832081 4.28125,-1.75 0.04471,-0.03688 0.113137,-0.05637 0.15625,-0.09375 8.299187,-4.653996 18.224685,-7.640614 27.4375,-4.9375 a 1.0216974,1.0216974 0 0 0 0.15625,0.03125 c 0.792566,0.0904 1.700362,0.546673 2.71875,1.03125 1.018388,0.484577 2.222925,1.007666 3.625,0.8125 a 1.0216974,1.0216974 0 0 0 0.3125,-0.09375 c 1.202178,-0.6001 1.80778,-1.671872 2.28125,-2.59375 0.47347,-0.921878 0.857619,-1.744306 1.375,-2.25 a 1.0216974,1.0216974 0 0 0 0.125,-0.125 c 5.16595,-7.276132 13.867553,-11.213913 22.59375,-12.875 l 0,-0.0625 c 1.841408,0.147664 3.579592,-0.696039 4.5625,-2.0625 0.523622,-0.727952 0.858351,-1.669154 0.625,-2.625 -0.233351,-0.955846 -0.996607,-1.761536 -2.125,-2.28125 A 1.0216974,1.0216974 0 0 0 78.4375,26.125 c -2.689408,-1.010632 -5.521791,-1.19708 -8.21875,-1.21875 z"
       id="path3741"
       style="opacity:0.05;fill:#000000;fill-opacity:1;fill-rule:evenodd;stroke:none" />
    <path
       d="m 60.96875,11.15625 c -5.721092,0.03923 -11.410438,2.353956 -15.4375,6.4375 -8.158387,-2.855226 -18.078363,-2.608454 -24.928206,3.199695 -1.863973,1.787812 -5.173892,4.326102 -3.665544,7.175305 2.370051,1.949455 5.033352,-1.044583 7.447069,-1.614123 6.970329,-2.984823 15.353704,-3.23235 22.008973,0.710142 1.345342,1.104322 3.075852,-0.03529 3.644107,-1.417814 4.014085,-5.571503 10.965803,-8.033894 17.618601,-8.209455 3.192891,0.862781 5.510476,-3.59722 1.875,-4.75 -2.66913,-1.206816 -5.660951,-1.536152 -8.5625,-1.53125 z m 9.25,14.78125 C 60.72378,25.897552 51.027682,29.997279 45.3125,37.75 34.894419,34.930364 23.073384,37.024139 14.788662,44.108302 c -2.682742,2.364526 -5.4274204,5.004929 -6.7082098,8.415157 -0.2520905,3.888924 4.2666508,2.460679 6.1006568,0.87069 8.469558,-4.782514 18.717145,-7.949246 28.373312,-5.116049 2.119087,0.241693 3.932002,2.144586 6.070579,1.8469 1.780098,-0.888584 2.001594,-3.272496 3.419121,-4.658003 5.378051,-7.574872 14.34364,-11.586565 23.237129,-13.279497 2.975243,0.47385 6.585371,-3.372532 2.815327,-5.108933 C 75.591713,26.137283 72.871603,25.958816 70.21875,25.9375 z"
       inkscape:connector-curvature="0"
       id="path3735"
       style="opacity:0.1;fill:#000000;fill-opacity:1;fill-rule:evenodd;stroke:none" />
    <path
       inkscape:connector-curvature="0"
       d="m 60.96875,12.09375 c -4.708676,0.05114 -10.512391,1.586787 -15.1875,6.5 -9.493493,-3.323402 -16.729783,-1.836649 -21.4375,0.78125 -2.408176,1.339154 -4.17055,2.950194 -5.3125,4.28125 -0.570975,0.665528 -0.974482,1.245933 -1.25,1.75 -0.137759,0.252033 -0.240642,0.469046 -0.3125,0.71875 -0.03593,0.124852 -0.0608,0.253007 -0.0625,0.4375 -0.0017,0.184493 -0.0053,0.483918 0.25,0.78125 0.250452,0.291688 0.605945,0.391524 0.8125,0.40625 0.206555,0.01473 0.340807,-0.03326 0.46875,-0.0625 0.255886,-0.05849 0.461752,-0.141712 0.71875,-0.25 0.513996,-0.216576 1.17435,-0.538528 1.96875,-0.90625 1.5888,-0.735443 3.745646,-1.667731 6.34375,-2.375 5.196209,-1.414537 12.025191,-1.884198 19.21875,2.28125 a 1.0135596,1.0135596 0 0 0 1.34375,-0.3125 c 3.951629,-5.832466 9.250593,-8.016286 13.59375,-8.9375 2.171578,-0.460607 4.094371,-0.586569 5.46875,-0.6875 0.68719,-0.05046 1.219508,-0.09295 1.6875,-0.1875 0.233996,-0.04728 0.46066,-0.07127 0.78125,-0.3125 0.160295,-0.120616 0.358705,-0.320314 0.4375,-0.625 0.07879,-0.304686 -0.0017,-0.62077 -0.09375,-0.8125 -0.183138,-0.381665 -0.389393,-0.513741 -0.59375,-0.65625 -0.204357,-0.142509 -0.425731,-0.252525 -0.6875,-0.375 -0.523537,-0.244949 -1.196458,-0.501949 -2,-0.71875 -1.607084,-0.433603 -3.728082,-0.745121 -6.15625,-0.71875 z m 9.25,14.78125 C 63.08698,26.886663 52.593923,29.208819 45.65625,38.78125 33.603046,35.566516 24.249,38.685962 18.09375,42.8125 14.956632,44.915653 12.636557,47.259353 11.125,49.15625 10.369221,50.104698 9.8258334,50.925766 9.46875,51.59375 9.2902083,51.927742 9.1496498,52.207847 9.0625,52.5 9.018925,52.646076 8.973432,52.797247 8.96875,53 c -0.00468,0.202753 0.017575,0.548827 0.34375,0.875 0.3003644,0.300364 0.6603593,0.349555 0.875,0.34375 0.214641,-0.0058 0.355503,-0.04846 0.5,-0.09375 0.288993,-0.09059 0.578822,-0.242865 0.90625,-0.40625 0.654856,-0.32677 1.487402,-0.780319 2.53125,-1.34375 2.087696,-1.126862 4.958709,-2.596758 8.375,-3.8125 6.832581,-2.431483 15.779431,-3.841822 25.0625,0.625 A 1.0135596,1.0135596 0 0 0 48.90625,48.75 c 4.722596,-8.878477 12.114573,-13.080944 18.3125,-15.3125 3.098963,-1.115778 5.887014,-1.725982 7.875,-2.15625 0.993993,-0.215134 1.772309,-0.399168 2.375,-0.59375 0.301345,-0.09729 0.569228,-0.163755 0.875,-0.40625 0.152886,-0.121248 0.34084,-0.304622 0.4375,-0.625 0.09666,-0.320378 0.0071,-0.708653 -0.125,-0.9375 -0.382189,-0.66197 -0.748885,-0.693869 -1.21875,-0.875 -0.469865,-0.181131 -1.048307,-0.356287 -1.75,-0.5 -1.403387,-0.287425 -3.284268,-0.472323 -5.46875,-0.46875 z"
       id="path3731"
       style="opacity:0.15;fill:#000000;fill-opacity:1;fill-rule:evenodd;stroke:none" />
    <path
       d="m 60.96875,13.09375 c -4.652392,0.05053 -10.376947,1.537521 -14.90625,6.59375 -19.154119,-7.088229 -28.215328,6.312485 -27.625,7 0.672915,0.783707 14.321535,-9.769365 29.25,-1.125 C 55.935879,13.388182 70.130221,16.313382 69.5,15 69.216303,14.408766 65.621142,13.043223 60.96875,13.09375 z m 9.25,14.78125 C 63.157454,27.886548 52.754642,30.172228 46.0625,39.90625 21.844932,33.008441 9.239756,52.36476 10.03125,53.15625 10.933475,54.058475 28.825082,39.054674 48,48.28125 57.734026,29.981289 78.681956,30.778811 77.78125,29.21875 77.477152,28.692038 74.455528,27.868071 70.21875,27.875 z"
       inkscape:connector-curvature="0"
       id="path2948"
       style="opacity:0.3;fill:#000000;fill-opacity:1;fill-rule:evenodd;stroke:none" />
    <path
       d="M 10.037308,52.159801 C 9.245814,51.368311 21.835629,32.023724 46.053197,38.921533 56.760624,23.347098 76.975179,26.809542 77.786108,28.214106 78.686814,29.774167 57.734026,28.992825 48,47.292786 28.825082,38.06621 10.939533,53.062026 10.037308,52.159801 z"
       inkscape:connector-curvature="0"
       id="path3597"
       style="fill:url(#radialGradient3787);fill-opacity:1;fill-rule:evenodd;stroke:none" />
    <path
       d="M 18.432554,25.696015 C 17.842226,25.0085 26.90898,11.589679 46.063099,18.677908 55.121705,8.56545 68.918272,12.828338 69.485666,14.010807 70.115887,15.324189 55.942554,12.395003 47.694175,24.569321 32.76571,15.924956 19.105469,26.479722 18.432554,25.696015 z"
       inkscape:connector-curvature="0"
       id="path3599"
       style="fill:url(#radialGradient3789);fill-opacity:1;fill-rule:evenodd;stroke:none" />
    <path
       d="m 60.96875,12.09375 c -4.652392,0.05053 -10.376947,1.537521 -14.90625,6.59375 -19.154119,-7.088229 -28.215328,6.312486 -27.625,7 0.04696,0.0547 0.174251,0.04538 0.34375,0 1.873215,-3.130367 10.87228,-12.072351 27.28125,-6 7.836774,-8.748481 19.20455,-6.748387 22.5,-5.28125 C 69.228385,14.332875 69.608713,14.226558 69.5,14 69.216303,13.408765 65.621142,12.043223 60.96875,12.09375 z"
       inkscape:connector-curvature="0"
       id="path3617"
       style="fill:#ffffff;fill-opacity:1;fill-rule:evenodd;stroke:none" />
    <path
       d="m 70.21875,26.875 c -7.061296,0.01155 -17.464107,2.297229 -24.15625,12.03125 -24.217568,-6.897809 -36.8227437,12.45851 -36.03125,13.25 0.189082,0.189082 1.276032,-0.411865 2.8125,-1.25 4.257341,-5.426257 15.906619,-15.215783 34.21875,-10 8.229009,-11.969463 22.038769,-12.693014 28.375,-11.75 1.616413,-0.354649 2.5453,-0.588406 2.34375,-0.9375 -0.304098,-0.526712 -3.325722,-1.350679 -7.5625,-1.34375 z"
       inkscape:connector-curvature="0"
       id="path3622"
       style="fill:#ffffff;fill-opacity:1;fill-rule:evenodd;stroke:none" />
    <path
       d="m 77,27.78125 c -3.821437,1.140091 -20.586914,2.683405 -29,18.5 -18.123985,-8.720888 -35.088431,4.19453 -37.65625,4.875 -0.284707,0.548175 -0.4070987,0.905402 -0.3125,1 C 10.933475,53.058475 28.825082,38.054674 48,47.28125 57.734026,28.981289 78.681954,29.778811 77.78125,28.21875 77.704352,28.085559 77.401211,27.933464 77,27.78125 z"
       inkscape:connector-curvature="0"
       id="path3627"
       style="opacity:0.5;fill:#ffffff;fill-opacity:1;fill-rule:evenodd;stroke:none" />
    <path
       d="m 68.5625,13.40625 c -3.194317,0.351988 -14.049466,0.082 -20.875,10.15625 -13.886583,-8.04106 -26.647102,0.520169 -28.90625,1.125 -0.313381,0.523697 -0.428355,0.901466 -0.34375,1 0.672915,0.783707 14.321534,-9.769365 29.25,-1.125 C 55.935879,12.388182 70.130223,15.313382 69.5,14 69.423469,13.840508 69.076294,13.634991 68.5625,13.40625 z"
       inkscape:connector-curvature="0"
       id="path3633"
       style="opacity:0.3;fill:#ffffff;fill-opacity:1;fill-rule:evenodd;stroke:none" />
  </g>
</svg>
