<?xml version="1.0" encoding="UTF-8" standalone="no"?>
<!-- Created with Inkscape (http://www.inkscape.org/) -->

<svg
   xmlns:dc="http://purl.org/dc/elements/1.1/"
   xmlns:cc="http://creativecommons.org/ns#"
   xmlns:rdf="http://www.w3.org/1999/02/22-rdf-syntax-ns#"
   xmlns:svg="http://www.w3.org/2000/svg"
   xmlns="http://www.w3.org/2000/svg"
   xmlns:xlink="http://www.w3.org/1999/xlink"
   xmlns:sodipodi="http://sodipodi.sourceforge.net/DTD/sodipodi-0.dtd"
   xmlns:inkscape="http://www.inkscape.org/namespaces/inkscape"
   version="1.0"
   width="96"
   height="96"
   id="svg2408"
   inkscape:version="0.48.1 r9760"
   sodipodi:docname="openbravo-erp.svg">
  <sodipodi:namedview
     pagecolor="#ffffff"
     bordercolor="#666666"
     borderopacity="1"
     objecttolerance="10"
     gridtolerance="10"
     guidetolerance="10"
     inkscape:pageopacity="0"
     inkscape:pageshadow="2"
     inkscape:window-width="1301"
     inkscape:window-height="840"
     id="namedview64"
     showgrid="false"
     inkscape:zoom="3.3020833"
     inkscape:cx="48.908517"
     inkscape:cy="51.785489"
     inkscape:window-x="0"
     inkscape:window-y="24"
     inkscape:window-maximized="0"
     inkscape:current-layer="layer1" />
  <defs
     id="defs2410">
    <linearGradient
       inkscape:collect="always"
       id="linearGradient3859">
      <stop
         style="stop-color:#d9d9d9;stop-opacity:1;"
         offset="0"
         id="stop3861" />
      <stop
         style="stop-color:#d9d9d9;stop-opacity:0;"
         offset="1"
         id="stop3863" />
    </linearGradient>
    <linearGradient
       id="linearGradient3849">
      <stop
         style="stop-color:#e4e4e4;stop-opacity:1;"
         offset="0"
         id="stop3851" />
      <stop
         id="stop3857"
         offset="0.5"
         style="stop-color:#a3a3a3;stop-opacity:1;" />
      <stop
         style="stop-color:#7a7a7a;stop-opacity:1;"
         offset="1"
         id="stop3853" />
    </linearGradient>
    <linearGradient
       id="linearGradient4018">
      <stop
         id="stop4020"
         style="stop-color:#ffffff;stop-opacity:1"
         offset="0" />
      <stop
         id="stop4026"
         style="stop-color:#ffffff;stop-opacity:0.49803922"
         offset="0.69999999" />
      <stop
         id="stop4022"
         style="stop-color:#ffffff;stop-opacity:0"
         offset="1" />
    </linearGradient>
    <linearGradient
       id="linearGradient3940">
      <stop
         id="stop3942"
         style="stop-color:#34870c;stop-opacity:1"
         offset="0" />
      <stop
         id="stop3944"
         style="stop-color:#a0ce72;stop-opacity:1"
         offset="1" />
    </linearGradient>
    <linearGradient
       x1="45.447727"
       y1="92.539597"
       x2="45.447727"
       y2="7.0165396"
       id="ButtonShadow"
       gradientUnits="userSpaceOnUse"
       gradientTransform="scale(1.0058652,0.994169)">
      <stop
         id="stop3750"
         style="stop-color:#000000;stop-opacity:1"
         offset="0" />
      <stop
         id="stop3752"
         style="stop-color:#000000;stop-opacity:0.58823532"
         offset="1" />
    </linearGradient>
    <linearGradient
       id="linearGradient3737">
      <stop
         id="stop3739"
         style="stop-color:#ffffff;stop-opacity:1"
         offset="0" />
      <stop
         id="stop3741"
         style="stop-color:#ffffff;stop-opacity:0"
         offset="1" />
    </linearGradient>
    <linearGradient
       id="linearGradient3700">
      <stop
         id="stop3702"
         style="stop-color:#c8c8c8;stop-opacity:1"
         offset="0" />
      <stop
         id="stop3704"
         style="stop-color:#f0f0f0;stop-opacity:1"
         offset="1" />
    </linearGradient>
    <filter
       color-interpolation-filters="sRGB"
       id="filter3174">
      <feGaussianBlur
         id="feGaussianBlur3176"
         stdDeviation="1.71" />
    </filter>
    <linearGradient
       x1="36.357143"
       y1="6"
       x2="36.357143"
       y2="63.893143"
       id="linearGradient3188"
       xlink:href="#linearGradient3737"
       gradientUnits="userSpaceOnUse" />
    <filter
       x="-0.192"
       y="-0.192"
       width="1.3839999"
       height="1.3839999"
       color-interpolation-filters="sRGB"
       id="filter3794">
      <feGaussianBlur
         id="feGaussianBlur3796"
         stdDeviation="5.28" />
    </filter>
    <linearGradient
       x1="48"
       y1="20.220806"
       x2="48"
       y2="138.66119"
       id="linearGradient3613"
       xlink:href="#linearGradient3737"
       gradientUnits="userSpaceOnUse" />
    <radialGradient
       cx="48"
       cy="90.171875"
       r="42"
       fx="48"
       fy="90.171875"
       id="radialGradient3619"
       xlink:href="#linearGradient3737"
       gradientUnits="userSpaceOnUse"
       gradientTransform="matrix(1.1573129,0,0,0.99590774,-7.5510206,0.19713193)" />
    <clipPath
       id="clipPath3613">
      <rect
         width="84"
         height="84"
         rx="6"
         ry="6"
         x="6"
         y="6"
         id="rect3615"
         style="fill:#ffffff;fill-opacity:1;fill-rule:nonzero;stroke:none" />
    </clipPath>
    <linearGradient
       x1="48"
       y1="90"
       x2="48"
       y2="5.9877172"
       id="linearGradient3617"
       xlink:href="#linearGradient3700"
       gradientUnits="userSpaceOnUse" />
    <linearGradient
       x1="45.447727"
       y1="92.539597"
       x2="45.447727"
       y2="7.0165396"
       id="ButtonShadow-0"
       gradientUnits="userSpaceOnUse"
       gradientTransform="matrix(1.0058652,0,0,0.994169,100,0)">
      <stop
         id="stop3750-8"
         style="stop-color:#000000;stop-opacity:1"
         offset="0" />
      <stop
         id="stop3752-5"
         style="stop-color:#000000;stop-opacity:0.58823532"
         offset="1" />
    </linearGradient>
    <linearGradient
       x1="32.251034"
       y1="6.1317081"
       x2="32.251034"
       y2="90.238609"
       id="linearGradient3780"
       xlink:href="#ButtonShadow-0"
       gradientUnits="userSpaceOnUse"
       gradientTransform="matrix(1.0238095,0,0,1.0119048,-1.1428571,-98.071429)" />
    <linearGradient
       x1="32.251034"
       y1="6.1317081"
       x2="32.251034"
       y2="90.238609"
       id="linearGradient3772"
       xlink:href="#ButtonShadow-0"
       gradientUnits="userSpaceOnUse"
       gradientTransform="matrix(1.0238095,0,0,1.0119048,-1.1428571,-98.071429)" />
    <linearGradient
       x1="32.251034"
       y1="6.1317081"
       x2="32.251034"
       y2="90.238609"
       id="linearGradient3725"
       xlink:href="#ButtonShadow-0"
       gradientUnits="userSpaceOnUse"
       gradientTransform="matrix(1.0238095,0,0,1.0119048,-1.1428571,-98.071429)" />
    <linearGradient
       x1="32.251034"
       y1="6.1317081"
       x2="32.251034"
       y2="90.238609"
       id="linearGradient3721"
       xlink:href="#ButtonShadow-0"
       gradientUnits="userSpaceOnUse"
       gradientTransform="translate(0,-97)" />
    <linearGradient
       x1="32.251034"
       y1="6.1317081"
       x2="32.251034"
       y2="90.238609"
       id="linearGradient3026"
       xlink:href="#ButtonShadow-0"
       gradientUnits="userSpaceOnUse"
       gradientTransform="matrix(1.0238095,0,0,1.0119048,-1.1428571,-98.071429)" />
    <linearGradient
       x1="40"
       y1="64"
       x2="88"
       y2="40"
       id="linearGradient3977"
       xlink:href="#linearGradient3940"
       gradientUnits="userSpaceOnUse"
       gradientTransform="matrix(0.90326004,0,0,0.90326004,6.3281572,14.63117)" />
    <linearGradient
       x1="40"
       y1="64"
       x2="88"
       y2="40"
       id="linearGradient3979"
       xlink:href="#linearGradient3940"
       gradientUnits="userSpaceOnUse"
       gradientTransform="matrix(0,-0.90326004,0.90326004,0,-3.0428258,97.671845)" />
    <radialGradient
       cx="48"
       cy="48"
       r="32"
       fx="48"
       fy="48"
       id="radialGradient4024"
       xlink:href="#linearGradient4018"
       gradientUnits="userSpaceOnUse"
       gradientTransform="matrix(0.90326004,0,0,0.90326004,4.1832542,3.7327991)" />
    <radialGradient
       inkscape:collect="always"
       xlink:href="#linearGradient3849"
       id="radialGradient3855"
       cx="34.058342"
       cy="26.491037"
       fx="34.058342"
       fy="26.491037"
       r="40.429649"
       gradientTransform="matrix(1,0,0,0.97752847,0,1.1024516)"
       gradientUnits="userSpaceOnUse" />
    <linearGradient
       inkscape:collect="always"
       xlink:href="#linearGradient3859"
       id="linearGradient3865"
       x1="127.02409"
       y1="11.863379"
       x2="122.00746"
       y2="8.8673391"
       gradientUnits="userSpaceOnUse" />
  </defs>
  <metadata
     id="metadata2413">
    <rdf:RDF>
      <cc:Work
         rdf:about="">
        <dc:format>image/svg+xml</dc:format>
        <dc:type
           rdf:resource="http://purl.org/dc/dcmitype/StillImage" />
        <dc:title></dc:title>
      </cc:Work>
    </rdf:RDF>
  </metadata>
  <g
     id="layer2"
     style="display:none">
    <rect
       width="86"
       height="85"
       rx="6"
       ry="6"
       x="5"
       y="7"
       id="rect3745"
       style="opacity:0.9;fill:url(#ButtonShadow);fill-opacity:1;fill-rule:nonzero;stroke:none;filter:url(#filter3174)" />
  </g>
  <g
     id="layer3" />
  <g
     id="layer5"
     style="display:none">
    <rect
       width="66"
       height="66"
       rx="12"
       ry="12"
       x="15"
       y="15"
       clip-path="url(#clipPath3613)"
       id="rect3171"
       style="opacity:0.1;fill:url(#linearGradient3613);fill-opacity:1;fill-rule:nonzero;stroke:#ffffff;stroke-width:0.5;stroke-linecap:round;stroke-linejoin:miter;stroke-miterlimit:4;stroke-opacity:1;stroke-dasharray:none;stroke-dashoffset:0;filter:url(#filter3794)" />
  </g>
  <path
     sodipodi:type="arc"
     style="fill:url(#radialGradient3855);fill-opacity:1;fill-rule:nonzero;stroke:url(#linearGradient3865);stroke-width:0.90977686999999996;stroke-linecap:round;stroke-linejoin:round;stroke-miterlimit:4;stroke-opacity:1;stroke-dasharray:none;stroke-dashoffset:0"
     id="path3041"
     sodipodi:cx="49.665615"
     sodipodi:cy="49.059937"
     sodipodi:rx="39.974762"
     sodipodi:ry="39.066246"
     d="m 89.640377,49.059937 a 39.974762,39.066246 0 1 1 -79.9495239,0 39.974762,39.066246 0 1 1 79.9495239,0 z"
     transform="matrix(1.0866083,0,0,1.1118782,-5.6847346,-6.225332)" />
  <g
     id="layer1"
     transform="matrix(1.1071009,0,0,1.1071009,-4.6312845,-4.1325853)">
    <path
       d="m 80,48 a 32,32 0 1 1 -64,0 32,32 0 1 1 64,0 z"
       id="path4016"
       style="color:#000000;fill:url(#radialGradient4024);fill-opacity:1;fill-rule:nonzero;stroke:none;stroke-width:3;marker:none;visibility:visible;display:inline;overflow:visible;enable-background:accumulate"
       inkscape:connector-curvature="0" />
    <path
       d="m 48,16 c -3.489588,0 -6.855862,0.561149 -10,1.59375 L 38,48 c 0,5.522847 4.477153,10 10,10 5.522847,0 10,-4.477153 10,-10 C 58,42.477153 53.522847,38 48,38 L 48,28 C 59.045695,28 68,36.954305 68,48 68,59.045695 59.045695,68 48,68 36.954305,68 28,59.045695 28,48 L 28,23.03125 C 20.689718,28.895918 16,37.898815 16,48 16,65.673112 30.326888,80 48,80 65.673112,80 80,65.673112 80,48 80,30.326888 65.673112,16 48,16 z"
       inkscape:connector-curvature="0"
       id="path3938"
       style="color:#000000;fill:url(#linearGradient3979);fill-opacity:1;fill-rule:nonzero;stroke:none;stroke-width:3;marker:none;visibility:visible;display:inline;overflow:visible;enable-background:accumulate" />
    <path
       d="m -72,8 0,40 c 0,11.045695 8.954305,20 20,20 11.045695,0 20,-8.954305 20,-20 0,-11.045695 -8.954305,-20 -20,-20 l 0,10 c 5.522847,0 10,4.477153 10,10 0,5.522847 -4.477153,10 -10,10 -5.522847,0 -10,-4.477153 -10,-10 l 0,-40 -10,0 z"
       inkscape:connector-curvature="0"
       id="path3975"
       style="color:#000000;fill:#ffffff;fill-opacity:1;fill-rule:nonzero;stroke:none;stroke-width:3;marker:none;visibility:visible;display:inline;overflow:visible;enable-background:accumulate" />
    <path
       d="m 48,28 0,1 c 10.87849,0 19.734559,8.685418 20,19.5 0.0041,-0.166223 0,-0.332795 0,-0.5 C 68,36.954305 59.045695,28 48,28 z m -10,20 0,1 c 0,5.522847 4.477153,10 10,10 5.522847,0 10,-4.477153 10,-10 0,-0.167378 -0.02312,-0.334638 -0.03125,-0.5 C 57.708657,53.790951 53.355469,58 48,58 42.477153,58 38,53.522847 38,48 z m 42,0.5 C 79.733293,65.942958 65.506444,80 48,80 30.535223,80 16.332288,66.010307 16,48.625 c -0.0015,0.125778 0,0.248875 0,0.375 0,17.673112 14.326888,32 32,32 17.673112,0 32,-14.326888 32,-32 0,-0.166668 0.0025,-0.333936 0,-0.5 z"
       inkscape:connector-curvature="0"
       id="path3982"
       style="opacity:0.7;color:#000000;fill:#ffffff;fill-opacity:1;fill-rule:nonzero;stroke:none;stroke-width:3;marker:none;visibility:visible;display:inline;overflow:visible;enable-background:accumulate" />
    <path
       d="m 48,15 c -3.489588,0 -6.855862,0.561149 -10,1.59375 l 0,1 C 41.144138,16.561149 44.510412,16 48,16 65.506444,16 79.733293,30.057042 80,47.5 80.002539,47.333936 80,47.166668 80,47 80,29.326888 65.673112,15 48,15 z M 28,22.03125 C 20.689718,27.895918 16,36.898815 16,47 c 0,0.208335 -0.004,0.417613 0,0.625 0.115332,-9.947662 4.780995,-18.802309 12,-24.59375 l 0,-1 z M 48,37 l 0,1 c 5.355469,0 9.708657,4.209049 9.96875,9.5 C 57.976879,47.334638 58,47.167378 58,47 58,41.477153 53.522847,37 48,37 z m -20,10 0,1 c 0,11.045695 8.954305,20 20,20 11.045695,0 20,-8.954305 20,-20 0,-0.167205 0.0041,-0.333777 0,-0.5 C 67.734559,58.314582 58.87849,67 48,67 36.954305,67 28,58.045695 28,47 z"
       inkscape:connector-curvature="0"
       id="path3991"
       style="opacity:0.3;color:#000000;fill:#000000;fill-opacity:1;fill-rule:nonzero;stroke:none;stroke-width:3;marker:none;visibility:visible;display:inline;overflow:visible;enable-background:accumulate" />
    <path
       d="m 48,16 c -3.489588,0 -6.855862,0.561149 -10,1.59375 l 0,1 C 41.144138,17.561149 44.510412,17 48,17 65.506444,17 79.733293,31.057042 80,48.5 80.002539,48.333936 80,48.166668 80,48 80,30.326888 65.673112,16 48,16 z M 28,23.03125 C 20.689718,28.895918 16,37.898815 16,48 c 0,0.208335 -0.004,0.417613 0,0.625 0.115332,-9.947662 4.780995,-18.802309 12,-24.59375 l 0,-1 z M 48,38 l 0,1 c 5.355469,0 9.708657,4.209049 9.96875,9.5 C 57.976879,48.334638 58,48.167378 58,48 58,42.477153 53.522847,38 48,38 z m -20,10 0,1 c 0,11.045695 8.954305,20 20,20 11.045695,0 20,-8.954305 20,-20 0,-0.167205 0.0041,-0.333777 0,-0.5 C 67.734559,59.314582 58.87849,68 48,68 36.954305,68 28,59.045695 28,48 z"
       inkscape:connector-curvature="0"
       id="path4000"
       style="opacity:0.3;color:#000000;fill:#000000;fill-opacity:1;fill-rule:nonzero;stroke:none;stroke-width:3;marker:none;visibility:visible;display:inline;overflow:visible;enable-background:accumulate" />
    <path
       d="m 48,16 c -3.489588,0 -6.855862,0.561149 -10,1.59375 L 38,48 c 0,5.522847 4.477153,10 10,10 5.522847,0 10,-4.477153 10,-10 C 58,42.477153 53.522847,38 48,38 L 48,28 C 59.045695,28 68,36.954305 68,48 68,59.045695 59.045695,68 48,68 36.954305,68 28,59.045695 28,48 L 28,23.03125 C 20.689718,28.895918 16,37.898815 16,48 16,65.673112 30.326888,80 48,80 65.673112,80 80,65.673112 80,48 80,30.326888 65.673112,16 48,16 z m 0,1.0625 C 65.101166,17.0625 78.9375,30.898834 78.9375,48 78.9375,65.101166 65.101166,78.9375 48,78.9375 30.898834,78.9375 17.0625,65.101166 17.0625,48 c 0,-8.898147 3.866381,-16.794259 9.875,-22.4375 l 0,22.4375 C 26.9375,59.617641 36.382359,69.0625 48,69.0625 59.617641,69.0625 69.0625,59.617641 69.0625,48 69.0625,36.382359 59.617641,26.9375 48,26.9375 A 1.0584033,1.0584033 0 0 0 46.9375,28 l 0,10 A 1.0584033,1.0584033 0 0 0 48,39.0625 c 4.9509,0 8.9375,3.9866 8.9375,8.9375 0,4.9509 -3.9866,8.9375 -8.9375,8.9375 -4.9509,0 -8.9375,-3.9866 -8.9375,-8.9375 l 0,-29.59375 C 41.8978,17.550189 44.883929,17.0625 48,17.0625 z"
       inkscape:connector-curvature="0"
       id="path4009"
       style="opacity:0.12000002;color:#000000;fill:#000000;fill-opacity:1;fill-rule:nonzero;stroke:none;stroke-width:3;marker:none;visibility:visible;display:inline;overflow:visible;enable-background:accumulate" />
  </g>
</svg>
