<?xml version="1.0" encoding="UTF-8" standalone="no"?>
<!-- Generator: Adobe Illustrator 14.0.0, SVG Export Plug-In . SVG Version: 6.00 Build 43363)  -->

<svg
   xmlns:dc="http://purl.org/dc/elements/1.1/"
   xmlns:cc="http://creativecommons.org/ns#"
   xmlns:rdf="http://www.w3.org/1999/02/22-rdf-syntax-ns#"
   xmlns:svg="http://www.w3.org/2000/svg"
   xmlns="http://www.w3.org/2000/svg"
   xmlns:sodipodi="http://sodipodi.sourceforge.net/DTD/sodipodi-0.dtd"
   xmlns:inkscape="http://www.inkscape.org/namespaces/inkscape"
   id="Layer_1"
   enable-background="new 0 0 841.89 595.28"
   xml:space="preserve"
   height="128"
   viewBox="0 0 127.99999 127.99999"
   width="128"
   version="1.1"
   y="0px"
   x="0px"
   inkscape:version="0.48.1 r9760"
   sodipodi:docname="partner.svg"><defs
   id="defs9" /><sodipodi:namedview
   pagecolor="#ffffff"
   bordercolor="#666666"
   borderopacity="1"
   objecttolerance="10"
   gridtolerance="10"
   guidetolerance="10"
   inkscape:pageopacity="0"
   inkscape:pageshadow="2"
   inkscape:window-width="870"
   inkscape:window-height="653"
   id="namedview7"
   showgrid="false"
   inkscape:zoom="1.4088889"
   inkscape:cx="112.5"
   inkscape:cy="121.37224"
   inkscape:window-x="0"
   inkscape:window-y="24"
   inkscape:window-maximized="0"
   inkscape:current-layer="Layer_1" /><metadata
   id="metadata11"><rdf:RDF><cc:Work
       rdf:about=""><dc:format>image/svg+xml</dc:format><dc:type
         rdf:resource="http://purl.org/dc/dcmitype/StillImage" /><dc:title /></cc:Work></rdf:RDF></metadata>
<g
   id="g3615"
   transform="matrix(0.60975605,0,0,0.60975605,-4.61491,-4.5801965)"><path
     id="path3"
     style="fill:#772953"
     d="M 215,112.5 C 215,169.108 169.109,215 112.5,215 55.893,215 10,169.106 10,112.5 10,55.895 55.896,10 112.5,10 169.107,10 215,55.893 215,112.5 z"
     inkscape:connector-curvature="0" /><path
     id="path5"
     style="fill:none;stroke:#ffffff;stroke-width:13.65200043"
     d="m 34.826,112.5 c 0,-42.892 34.775,-77.673 77.672,-77.673 42.894,0 77.676,34.78 77.676,77.673 0,42.897 -34.782,77.675 -77.676,77.675 C 69.601,190.174 34.826,155.398 34.826,112.5 z"
     inkscape:connector-curvature="0" /></g>
</svg>