<?xml version="1.0" encoding="UTF-8" standalone="no"?>
<!-- Created with Inkscape (http://www.inkscape.org/) -->

<svg
   xmlns:dc="http://purl.org/dc/elements/1.1/"
   xmlns:cc="http://creativecommons.org/ns#"
   xmlns:rdf="http://www.w3.org/1999/02/22-rdf-syntax-ns#"
   xmlns:svg="http://www.w3.org/2000/svg"
   xmlns="http://www.w3.org/2000/svg"
   xmlns:xlink="http://www.w3.org/1999/xlink"
   xmlns:sodipodi="http://sodipodi.sourceforge.net/DTD/sodipodi-0.dtd"
   xmlns:inkscape="http://www.inkscape.org/namespaces/inkscape"
   width="128"
   height="128"
   id="svg3886"
   version="1.1"
   inkscape:version="0.48.1 r9760"
   sodipodi:docname="remmina.svg">
  <defs
     id="defs3888">
    <linearGradient
       id="linearGradient3924">
      <stop
         id="stop3926"
         style="stop-color:#ffffff;stop-opacity:1;"
         offset="0" />
      <stop
         offset="0.06316455"
         style="stop-color:#ffffff;stop-opacity:0.23529412;"
         id="stop3928" />
      <stop
         id="stop3930"
         style="stop-color:#ffffff;stop-opacity:0.15686275;"
         offset="0.95056331" />
      <stop
         id="stop3932"
         style="stop-color:#ffffff;stop-opacity:0.39215687;"
         offset="1" />
    </linearGradient>
    <radialGradient
       inkscape:collect="always"
       xlink:href="#linearGradient7012-661-145-733-759-865-745-661-970-94-8"
       id="radialGradient2990"
       gradientUnits="userSpaceOnUse"
       gradientTransform="matrix(5.131108e-8,6.1720507,-6.5292935,-1.1371273e-7,119.1713,-93.225241)"
       cx="10.838043"
       cy="8.5736685"
       fx="10.838043"
       fy="8.5736685"
       r="19.99999" />
    <linearGradient
       id="linearGradient7012-661-145-733-759-865-745-661-970-94-8">
      <stop
         id="stop3618-1"
         style="stop-color:#741e00;stop-opacity:1;"
         offset="0" />
      <stop
         id="stop3270-2"
         style="stop-color:#220b00;stop-opacity:1;"
         offset="0.50163841" />
      <stop
         id="stop3620-8"
         style="stop-color:#000000;stop-opacity:1;"
         offset="1" />
    </linearGradient>
    <linearGradient
       inkscape:collect="always"
       xlink:href="#linearGradient3390-178-986-453-3"
       id="linearGradient2992"
       gradientUnits="userSpaceOnUse"
       gradientTransform="matrix(2.6410257,0,0,2.6410257,0.6153792,-60.384617)"
       x1="24"
       y1="44"
       x2="24"
       y2="3.8990016" />
    <linearGradient
       id="linearGradient3390-178-986-453-3">
      <stop
         id="stop3624-6"
         style="stop-color:#ba4712;stop-opacity:1;"
         offset="0" />
      <stop
         offset="0.5"
         style="stop-color:#cf671c;stop-opacity:1;"
         id="stop3856-8" />
      <stop
         id="stop3626-0"
         style="stop-color:#e27f39;stop-opacity:1;"
         offset="1" />
    </linearGradient>
    <radialGradient
       cx="4.9929786"
       cy="43.5"
       r="2.5"
       fx="4.9929786"
       fy="43.5"
       id="radialGradient2455"
       xlink:href="#linearGradient3688-166-749"
       gradientUnits="userSpaceOnUse"
       gradientTransform="matrix(2.003784,0,0,1.4,27.98813,-17.4)" />
    <linearGradient
       id="linearGradient3688-166-749">
      <stop
         id="stop2883"
         style="stop-color:#181818;stop-opacity:1"
         offset="0" />
      <stop
         id="stop2885"
         style="stop-color:#181818;stop-opacity:0"
         offset="1" />
    </linearGradient>
    <radialGradient
       cx="4.9929786"
       cy="43.5"
       r="2.5"
       fx="4.9929786"
       fy="43.5"
       id="radialGradient2457"
       xlink:href="#linearGradient3688-464-309"
       gradientUnits="userSpaceOnUse"
       gradientTransform="matrix(2.003784,0,0,1.4,-20.01187,-104.4)" />
    <linearGradient
       id="linearGradient3688-464-309">
      <stop
         id="stop2889"
         style="stop-color:#220900;stop-opacity:1;"
         offset="0" />
      <stop
         id="stop2891"
         style="stop-color:#000000;stop-opacity:1;"
         offset="1" />
    </linearGradient>
    <linearGradient
       x1="25.058096"
       y1="47.027729"
       x2="25.058096"
       y2="39.999443"
       id="linearGradient2459"
       xlink:href="#linearGradient3702-501-757"
       gradientUnits="userSpaceOnUse" />
    <linearGradient
       id="linearGradient3702-501-757">
      <stop
         id="stop2895"
         style="stop-color:#181818;stop-opacity:0"
         offset="0" />
      <stop
         id="stop2897"
         style="stop-color:#181818;stop-opacity:1"
         offset="0.5" />
      <stop
         id="stop2899"
         style="stop-color:#181818;stop-opacity:0"
         offset="1" />
    </linearGradient>
    <linearGradient
       inkscape:collect="always"
       xlink:href="#linearGradient3924"
       id="linearGradient3788"
       x1="13"
       y1="3"
       x2="115"
       y2="3"
       gradientUnits="userSpaceOnUse" />
    <linearGradient
       inkscape:collect="always"
       xlink:href="#linearGradient3688-464-309"
       id="linearGradient3809"
       gradientUnits="userSpaceOnUse"
       gradientTransform="matrix(2.6410257,0,0,2.6410257,0.6153792,-60.384617)"
       x1="23.693684"
       y1="34.351044"
       x2="23.693796"
       y2="12.893599" />
    <radialGradient
       inkscape:collect="always"
       xlink:href="#linearGradient3688-166-749"
       id="radialGradient3813"
       gradientUnits="userSpaceOnUse"
       gradientTransform="matrix(2.003784,0,0,1.4,-20.025737,-17.497434)"
       cx="4.9929786"
       cy="43.5"
       fx="4.9929786"
       fy="43.5"
       r="2.5" />
    <linearGradient
       x1="40.192078"
       y1="74.529732"
       x2="55.878113"
       y2="74.529732"
       id="linearGradient4222"
       xlink:href="#linearGradient4024"
       gradientUnits="userSpaceOnUse" />
    <linearGradient
       id="linearGradient4024">
      <stop
         id="stop4026"
         style="stop-color:#ffffff;stop-opacity:0.53125"
         offset="0" />
      <stop
         id="stop4028"
         style="stop-color:#ffffff;stop-opacity:0"
         offset="1" />
    </linearGradient>
    <linearGradient
       x1="40.192078"
       y1="74.529732"
       x2="55.878113"
       y2="74.529732"
       id="linearGradient4224"
       xlink:href="#linearGradient4016"
       gradientUnits="userSpaceOnUse" />
    <linearGradient
       id="linearGradient4016">
      <stop
         id="stop4018"
         style="stop-color:#ffffff;stop-opacity:1"
         offset="0" />
      <stop
         id="stop4020"
         style="stop-color:#ffffff;stop-opacity:0"
         offset="1" />
    </linearGradient>
    <linearGradient
       x1="40.192078"
       y1="74.529732"
       x2="58.29702"
       y2="74.529732"
       id="linearGradient4226"
       xlink:href="#linearGradient4024"
       gradientUnits="userSpaceOnUse" />
    <linearGradient
       id="linearGradient6357">
      <stop
         id="stop6359"
         style="stop-color:#ffffff;stop-opacity:0.53125"
         offset="0" />
      <stop
         id="stop6361"
         style="stop-color:#ffffff;stop-opacity:0"
         offset="1" />
    </linearGradient>
    <linearGradient
       x1="40.192078"
       y1="74.529732"
       x2="58.29702"
       y2="74.529732"
       id="linearGradient4228"
       xlink:href="#linearGradient4016"
       gradientUnits="userSpaceOnUse" />
    <linearGradient
       id="linearGradient6364">
      <stop
         id="stop6366"
         style="stop-color:#ffffff;stop-opacity:1"
         offset="0" />
      <stop
         id="stop6368"
         style="stop-color:#ffffff;stop-opacity:0"
         offset="1" />
    </linearGradient>
    <linearGradient
       x1="40.281487"
       y1="74.529732"
       x2="61.561863"
       y2="74.529732"
       id="linearGradient4230"
       xlink:href="#linearGradient4024"
       gradientUnits="userSpaceOnUse" />
    <linearGradient
       id="linearGradient6371">
      <stop
         id="stop6373"
         style="stop-color:#ffffff;stop-opacity:0.53125"
         offset="0" />
      <stop
         id="stop6375"
         style="stop-color:#ffffff;stop-opacity:0"
         offset="1" />
    </linearGradient>
    <linearGradient
       x1="40.281487"
       y1="74.529732"
       x2="61.561863"
       y2="74.529732"
       id="linearGradient4232"
       xlink:href="#linearGradient4016"
       gradientUnits="userSpaceOnUse" />
    <linearGradient
       id="linearGradient6378">
      <stop
         id="stop6380"
         style="stop-color:#ffffff;stop-opacity:1"
         offset="0" />
      <stop
         id="stop6382"
         style="stop-color:#ffffff;stop-opacity:0"
         offset="1" />
    </linearGradient>
    <linearGradient
       x1="40.084454"
       y1="74.529732"
       x2="69.177147"
       y2="74.529732"
       id="linearGradient4234"
       xlink:href="#linearGradient4024"
       gradientUnits="userSpaceOnUse" />
    <linearGradient
       id="linearGradient6385">
      <stop
         id="stop6387"
         style="stop-color:#ffffff;stop-opacity:0.53125"
         offset="0" />
      <stop
         id="stop6389"
         style="stop-color:#ffffff;stop-opacity:0"
         offset="1" />
    </linearGradient>
    <linearGradient
       x1="40.084454"
       y1="74.529732"
       x2="69.177147"
       y2="74.529732"
       id="linearGradient4236"
       xlink:href="#linearGradient4016"
       gradientUnits="userSpaceOnUse" />
    <linearGradient
       id="linearGradient6392">
      <stop
         id="stop6394"
         style="stop-color:#ffffff;stop-opacity:1"
         offset="0" />
      <stop
         id="stop6396"
         style="stop-color:#ffffff;stop-opacity:0"
         offset="1" />
    </linearGradient>
    <linearGradient
       x1="40.23082"
       y1="74.529732"
       x2="80.705589"
       y2="74.529732"
       id="linearGradient4238"
       xlink:href="#linearGradient4024"
       gradientUnits="userSpaceOnUse" />
    <linearGradient
       id="linearGradient6399">
      <stop
         id="stop6401"
         style="stop-color:#ffffff;stop-opacity:0.53125"
         offset="0" />
      <stop
         id="stop6403"
         style="stop-color:#ffffff;stop-opacity:0"
         offset="1" />
    </linearGradient>
    <linearGradient
       x1="40.23082"
       y1="74.529732"
       x2="80.705589"
       y2="74.529732"
       id="linearGradient4240"
       xlink:href="#linearGradient4016"
       gradientUnits="userSpaceOnUse" />
    <linearGradient
       id="linearGradient6406">
      <stop
         id="stop6408"
         style="stop-color:#ffffff;stop-opacity:1"
         offset="0" />
      <stop
         id="stop6410"
         style="stop-color:#ffffff;stop-opacity:0"
         offset="1" />
    </linearGradient>
    <linearGradient
       x1="135.73611"
       y1="71.252129"
       x2="234.53244"
       y2="77.807335"
       id="linearGradient3081"
       xlink:href="#linearGradient4016"
       gradientUnits="userSpaceOnUse" />
    <linearGradient
       id="linearGradient6413">
      <stop
         id="stop6415"
         style="stop-color:#ffffff;stop-opacity:1"
         offset="0" />
      <stop
         id="stop6417"
         style="stop-color:#ffffff;stop-opacity:0"
         offset="1" />
    </linearGradient>
    <linearGradient
       x1="135.73611"
       y1="71.252129"
       x2="238.96693"
       y2="74.529732"
       id="linearGradient3083"
       xlink:href="#linearGradient4016"
       gradientUnits="userSpaceOnUse" />
    <linearGradient
       id="linearGradient6420">
      <stop
         id="stop6422"
         style="stop-color:#ffffff;stop-opacity:1"
         offset="0" />
      <stop
         id="stop6424"
         style="stop-color:#ffffff;stop-opacity:0"
         offset="1" />
    </linearGradient>
    <linearGradient
       x1="24.790335"
       y1="64.485451"
       x2="94.680679"
       y2="44.223976"
       id="linearGradient4593"
       xlink:href="#linearGradient7175"
       gradientUnits="userSpaceOnUse"
       gradientTransform="matrix(0.9800587,-0.1987084,0.1987084,0.9800587,-12.275551,20.870047)" />
    <linearGradient
       id="linearGradient7175">
      <stop
         id="stop7177"
         style="stop-color:#000000;stop-opacity:1"
         offset="0" />
      <stop
         id="stop7179"
         style="stop-color:#000000;stop-opacity:0"
         offset="1" />
    </linearGradient>
    <linearGradient
       x1="23.204918"
       y1="51.635754"
       x2="89.898247"
       y2="51.635754"
       id="linearGradient4589"
       xlink:href="#linearGradient7175"
       gradientUnits="userSpaceOnUse"
       gradientTransform="translate(0,15)" />
    <linearGradient
       id="linearGradient6431">
      <stop
         id="stop6433"
         style="stop-color:#000000;stop-opacity:1"
         offset="0" />
      <stop
         id="stop6435"
         style="stop-color:#000000;stop-opacity:0"
         offset="1" />
    </linearGradient>
    <linearGradient
       x1="-31"
       y1="0"
       x2="-27"
       y2="0"
       id="linearGradient4531"
       xlink:href="#linearGradient4304"
       gradientUnits="userSpaceOnUse" />
    <linearGradient
       id="linearGradient4304">
      <stop
         id="stop4306"
         style="stop-color:#1a1a1a;stop-opacity:1"
         offset="0" />
      <stop
         id="stop4312"
         style="stop-color:#666666;stop-opacity:1"
         offset="0.30357143" />
      <stop
         id="stop4308"
         style="stop-color:#000000;stop-opacity:1"
         offset="1" />
    </linearGradient>
    <linearGradient
       x1="-29"
       y1="0"
       x2="-29"
       y2="-2.5"
       id="linearGradient4533"
       xlink:href="#linearGradient7175"
       gradientUnits="userSpaceOnUse" />
    <linearGradient
       id="linearGradient6443">
      <stop
         id="stop6445"
         style="stop-color:#000000;stop-opacity:1"
         offset="0" />
      <stop
         id="stop6447"
         style="stop-color:#000000;stop-opacity:0"
         offset="1" />
    </linearGradient>
    <linearGradient
       x1="-32"
       y1="56.09375"
       x2="-26"
       y2="56.09375"
       id="linearGradient4535"
       xlink:href="#linearGradient4304"
       gradientUnits="userSpaceOnUse" />
    <linearGradient
       id="linearGradient6450">
      <stop
         id="stop6452"
         style="stop-color:#1a1a1a;stop-opacity:1"
         offset="0" />
      <stop
         id="stop6454"
         style="stop-color:#666666;stop-opacity:1"
         offset="0.30357143" />
      <stop
         id="stop6456"
         style="stop-color:#000000;stop-opacity:1"
         offset="1" />
    </linearGradient>
    <linearGradient
       x1="-29"
       y1="35.764431"
       x2="-29.236725"
       y2="74.234039"
       id="linearGradient4537"
       xlink:href="#linearGradient7175"
       gradientUnits="userSpaceOnUse" />
    <linearGradient
       id="linearGradient6459">
      <stop
         id="stop6461"
         style="stop-color:#000000;stop-opacity:1"
         offset="0" />
      <stop
         id="stop6463"
         style="stop-color:#000000;stop-opacity:0"
         offset="1" />
    </linearGradient>
    <linearGradient
       x1="-33"
       y1="17.75"
       x2="-25"
       y2="17.75"
       id="linearGradient4539"
       xlink:href="#linearGradient4294"
       gradientUnits="userSpaceOnUse" />
    <linearGradient
       id="linearGradient4294">
      <stop
         id="stop4296"
         style="stop-color:#999999;stop-opacity:1"
         offset="0" />
      <stop
         id="stop4302"
         style="stop-color:#e6e6e6;stop-opacity:1"
         offset="0.35267857" />
      <stop
         id="stop4298"
         style="stop-color:#1f1f1f;stop-opacity:1"
         offset="1" />
    </linearGradient>
    <linearGradient
       x1="-29"
       y1="35.5"
       x2="-29"
       y2="0"
       id="linearGradient4541"
       xlink:href="#linearGradient4316"
       gradientUnits="userSpaceOnUse" />
    <linearGradient
       id="linearGradient4316">
      <stop
         id="stop4318"
         style="stop-color:#000000;stop-opacity:0.7681818"
         offset="0" />
      <stop
         id="stop4326"
         style="stop-color:#000000;stop-opacity:0"
         offset="0.06176317" />
      <stop
         id="stop4324"
         style="stop-color:#ffffff;stop-opacity:0"
         offset="0.93853289" />
      <stop
         id="stop4320"
         style="stop-color:#ffffff;stop-opacity:1"
         offset="1" />
    </linearGradient>
    <filter
       x="-0.36000001"
       y="-0.025714286"
       width="1.72"
       height="1.0514286"
       color-interpolation-filters="sRGB"
       id="filter4459">
      <feGaussianBlur
         id="feGaussianBlur4461"
         stdDeviation="0.3" />
    </filter>
    <linearGradient
       x1="-36"
       y1="16"
       x2="-32"
       y2="16"
       id="linearGradient4543"
       xlink:href="#linearGradient4490"
       gradientUnits="userSpaceOnUse"
       gradientTransform="matrix(-1,0,0,1,-66,0)" />
    <linearGradient
       id="linearGradient4490">
      <stop
         id="stop4492"
         style="stop-color:#ececec;stop-opacity:0"
         offset="0" />
      <stop
         id="stop4498"
         style="stop-color:#cccccc;stop-opacity:1"
         offset="0.23398043" />
      <stop
         id="stop4496"
         style="stop-color:#e6e6e6;stop-opacity:1"
         offset="0.50230217" />
      <stop
         id="stop4494"
         style="stop-color:#aaaaaa;stop-opacity:1"
         offset="1" />
    </linearGradient>
    <radialGradient
       cx="48"
       cy="90.171875"
       r="42"
       fx="48"
       fy="90.171875"
       id="radialGradient3619"
       xlink:href="#linearGradient3737"
       gradientUnits="userSpaceOnUse"
       gradientTransform="matrix(1.1573129,0,0,0.99590774,-7.5510206,0.19713193)" />
    <linearGradient
       id="linearGradient3737">
      <stop
         id="stop3739"
         style="stop-color:#ffffff;stop-opacity:1"
         offset="0" />
      <stop
         id="stop3741"
         style="stop-color:#ffffff;stop-opacity:0"
         offset="1" />
    </linearGradient>
    <linearGradient
       gradientTransform="matrix(1.1450559,0,0,1.1450559,8.9723625,-52.844884)"
       x1="47.997025"
       y1="15.5"
       x2="90"
       y2="15.5"
       id="linearGradient4058"
       xlink:href="#linearGradient4052"
       gradientUnits="userSpaceOnUse"
       spreadMethod="reflect" />
    <linearGradient
       id="linearGradient4052">
      <stop
         id="stop4054"
         style="stop-color:#f4a615;stop-opacity:1"
         offset="0" />
      <stop
         id="stop4056"
         style="stop-color:#f47d15;stop-opacity:1"
         offset="1" />
    </linearGradient>
    <linearGradient
       gradientTransform="matrix(1.1450559,0,0,1.1450559,8.9723625,-52.844884)"
       x1="47.973225"
       y1="25.5"
       x2="90"
       y2="25.5"
       id="linearGradient4076"
       xlink:href="#linearGradient4052"
       gradientUnits="userSpaceOnUse"
       spreadMethod="reflect" />
    <linearGradient
       id="linearGradient4752">
      <stop
         id="stop4754"
         style="stop-color:#f4a615;stop-opacity:1"
         offset="0" />
      <stop
         id="stop4756"
         style="stop-color:#f47d15;stop-opacity:1"
         offset="1" />
    </linearGradient>
    <linearGradient
       x1="47.997025"
       y1="15.5"
       x2="90"
       y2="15.5"
       id="linearGradient4122"
       xlink:href="#linearGradient4052"
       gradientUnits="userSpaceOnUse"
       gradientTransform="matrix(1.1450559,0,0,-1.1450559,8.9723625,57.080481)"
       spreadMethod="reflect" />
    <linearGradient
       id="linearGradient4759">
      <stop
         id="stop4761"
         style="stop-color:#f4a615;stop-opacity:1"
         offset="0" />
      <stop
         id="stop4763"
         style="stop-color:#f47d15;stop-opacity:1"
         offset="1" />
    </linearGradient>
    <linearGradient
       gradientTransform="matrix(1.1450559,0,0,1.1450559,8.9723625,-52.844884)"
       x1="47.973225"
       y1="70.5"
       x2="90"
       y2="70.5"
       id="linearGradient4074"
       xlink:href="#linearGradient4052"
       gradientUnits="userSpaceOnUse"
       spreadMethod="reflect" />
    <linearGradient
       id="linearGradient4766">
      <stop
         id="stop4768"
         style="stop-color:#f4a615;stop-opacity:1"
         offset="0" />
      <stop
         id="stop4770"
         style="stop-color:#f47d15;stop-opacity:1"
         offset="1" />
    </linearGradient>
    <linearGradient
       x1="48"
       y1="41"
       x2="48"
       y2="64.021729"
       id="linearGradient4148"
       xlink:href="#linearGradient4142"
       gradientUnits="userSpaceOnUse" />
    <linearGradient
       id="linearGradient4142">
      <stop
         id="stop4144"
         style="stop-color:#f4a615;stop-opacity:1"
         offset="0" />
      <stop
         id="stop4146"
         style="stop-color:#f4a615;stop-opacity:0"
         offset="1" />
    </linearGradient>
    <linearGradient
       x1="48"
       y1="43"
       x2="58"
       y2="43"
       id="linearGradient4168"
       xlink:href="#linearGradient4052"
       gradientUnits="userSpaceOnUse"
       spreadMethod="reflect" />
    <linearGradient
       id="linearGradient4777">
      <stop
         id="stop4779"
         style="stop-color:#f4a615;stop-opacity:1"
         offset="0" />
      <stop
         id="stop4781"
         style="stop-color:#f47d15;stop-opacity:1"
         offset="1" />
    </linearGradient>
    <linearGradient
       x1="48"
       y1="31.772171"
       x2="48"
       y2="67"
       id="linearGradient4176"
       xlink:href="#linearGradient4052"
       gradientUnits="userSpaceOnUse" />
    <linearGradient
       id="linearGradient4784">
      <stop
         id="stop4786"
         style="stop-color:#f4a615;stop-opacity:1"
         offset="0" />
      <stop
         id="stop4788"
         style="stop-color:#f47d15;stop-opacity:1"
         offset="1" />
    </linearGradient>
    <radialGradient
       r="42"
       fy="90.171875"
       fx="48"
       cy="90.171875"
       cx="48"
       gradientTransform="matrix(1.325188,0,0,1.14037,0.32602135,-52.619157)"
       gradientUnits="userSpaceOnUse"
       id="radialGradient4808"
       xlink:href="#linearGradient3737"
       inkscape:collect="always" />
  </defs>
  <sodipodi:namedview
     id="base"
     pagecolor="#ffffff"
     bordercolor="#666666"
     borderopacity="1.0"
     inkscape:pageopacity="0.0"
     inkscape:pageshadow="2"
     inkscape:zoom="4.9444443"
     inkscape:cx="73.426025"
     inkscape:cy="58.999999"
     inkscape:current-layer="layer1"
     showgrid="true"
     inkscape:document-units="px"
     inkscape:grid-bbox="true"
     inkscape:window-width="931"
     inkscape:window-height="722"
     inkscape:window-x="929"
     inkscape:window-y="177"
     inkscape:window-maximized="0" />
  <metadata
     id="metadata3891">
    <rdf:RDF>
      <cc:Work
         rdf:about="">
        <dc:format>image/svg+xml</dc:format>
        <dc:type
           rdf:resource="http://purl.org/dc/dcmitype/StillImage" />
        <dc:title />
      </cc:Work>
    </rdf:RDF>
  </metadata>
  <g
     id="layer1"
     inkscape:label="Layer 1"
     inkscape:groupmode="layer"
     transform="translate(0,64)">
    <g
       transform="matrix(2.9499988,0,0,1.2222234,-6.8000012,1.555537)"
       id="g2036"
       style="display:inline">
      <g
         transform="matrix(1.052632,0,0,1.285713,-1.263158,-13.42854)"
         id="g3712"
         style="opacity:0.4">
        <rect
           width="5"
           height="7"
           x="38"
           y="40"
           id="rect2801"
           style="fill:url(#radialGradient2455);fill-opacity:1;stroke:none" />
        <rect
           width="28"
           height="7.0000005"
           x="10"
           y="40"
           id="rect3700"
           style="fill:url(#linearGradient2459);fill-opacity:1;stroke:none" />
        <rect
           style="fill:url(#radialGradient3813);fill-opacity:1;stroke:none"
           id="rect3811"
           y="39.902565"
           x="-10.013867"
           height="7"
           width="5"
           transform="scale(-1,1)" />
      </g>
    </g>
    <rect
       style="color:#000000;fill:url(#radialGradient2990);fill-opacity:1;fill-rule:nonzero;stroke:url(#linearGradient3809);stroke-width:0.99999994000000003;stroke-linecap:round;stroke-linejoin:round;stroke-miterlimit:4;stroke-opacity:1;stroke-dasharray:none;stroke-dashoffset:0;marker:none;visibility:visible;display:inline;overflow:visible;enable-background:accumulate"
       id="rect5505-21"
       y="-48.5"
       x="12.5"
       ry="6"
       rx="6"
       height="103"
       width="103" />
    <path
       d="m 16.951971,-42.539381 0,9.160447 0,1.145056 8.015391,0 0,-1.145056 -6.870335,0 0,-8.015391 13.74067,0 0,0.03578 1.145056,0 0,13.704888 0.03578,0 1.109273,0 0.03578,0 1.145056,0 13.740671,0 1.145056,0 0,-9.160448 0,-1.145055 -8.015392,0 0,1.145055 6.870336,0 0,8.015392 -13.740671,0 0,-0.03578 -1.145056,0 0,-13.704888 -0.03578,0 -1.109273,0 -0.03578,0 -1.145056,0 -13.74067,0 -1.145056,0 z m 20.611006,0 0,9.160447 0,1.145056 8.015391,0 0,-1.145056 -6.870335,0 0,-8.015391 13.74067,0 0,0.03578 1.145056,0 0,13.704888 0.03578,0 1.109273,0 0.03578,0 1.145056,0 13.740671,0 1.145056,0 0,-9.160448 0,-1.145055 -8.015392,0 0,1.145055 6.870336,0 0,8.015392 -13.740671,0 0,-0.03578 -1.145056,0 0,-13.704888 -0.03578,0 -1.109273,0 -0.03578,0 -1.145056,0 -13.74067,0 -1.145056,0 z m 20.611006,0 0,9.160447 0,1.145056 8.015391,0 0,-1.145056 -6.870335,0 0,-8.015391 13.74067,0 0,0.03578 1.145056,0 0,13.704888 0.03578,0 1.109273,0 0.03578,0 1.145056,0 13.740671,0 1.145056,0 0,-9.160448 0,-1.145055 -8.015392,0 0,1.145055 6.870336,0 0,8.015392 -13.740671,0 0,-0.03578 -1.145056,0 0,-13.704888 -0.03578,0 -1.109273,0 -0.03578,0 -1.145056,0 -13.74067,0 -1.145056,0 z m 20.611006,0 0,9.160447 0,1.145056 8.015391,0 0,-1.145056 -6.870335,0 0,-8.015391 13.74067,0 0,0.03578 1.145056,0 0,13.704888 0.03578,0 1.109273,0 0.03578,0 1.145056,0 13.74067,0 1.14505,0 0,-9.160448 0,-1.145055 -8.01539,0 0,1.145055 6.87034,0 0,8.015392 -13.74067,0 0,-0.03578 -1.145056,0 0,-13.704888 -0.03578,0 -1.109273,0 -0.03578,0 -1.145056,0 -13.74067,0 -1.145056,0 z m 20.611006,0 0,9.160447 0,1.145056 8.015395,0 0,-1.145056 -6.87034,0 0,-8.015391 11.09273,0 c -0.14108,-0.401031 -0.32743,-0.782417 -0.53674,-1.145056 l -10.55599,0 -1.145055,0 z m -77.828018,4.580224 0,1.145055 6.870336,0 0,8.015392 -12.595615,0 0,1.145056 12.595615,0 1.145056,0 0,-9.160448 0,-1.145055 -8.015392,0 z"
       inkscape:connector-curvature="0"
       id="path3935"
       style="color:#000000;fill:url(#linearGradient4058);fill-opacity:1;fill-rule:nonzero;stroke:none;stroke-width:1;marker:none;visibility:visible;display:inline;overflow:visible;enable-background:accumulate" />
    <path
       d="m 15.842698,-23.073431 0,-1.145056 96.184692,0 0,1.145056 -96.184692,0 z"
       inkscape:connector-curvature="0"
       id="path3933"
       style="color:#000000;fill:url(#linearGradient4076);fill-opacity:1;fill-rule:nonzero;stroke:none;stroke-width:1;marker:none;visibility:visible;display:inline;overflow:visible;enable-background:accumulate" />
    <path
       d="m 16.951971,46.774978 0,-9.160447 0,-1.145056 8.015391,0 0,1.145056 -6.870335,0 0,8.015391 13.74067,0 0,-0.03578 1.145056,0 0,-13.704887 0.03578,0 1.109273,0 0.03578,0 1.145056,0 13.740671,0 1.145056,0 0,9.160447 0,1.145056 -8.015392,0 0,-1.145056 6.870336,0 0,-8.015391 -13.740671,0 0,0.03578 -1.145056,0 0,13.704887 -0.03578,0 -1.109273,0 -0.03578,0 -1.145056,0 -13.74067,0 -1.145056,0 z m 20.611006,0 0,-9.160447 0,-1.145056 8.015391,0 0,1.145056 -6.870335,0 0,8.015391 13.74067,0 0,-0.03578 1.145056,0 0,-13.704887 0.03578,0 1.109273,0 0.03578,0 1.145056,0 13.740671,0 1.145056,0 0,9.160447 0,1.145056 -8.015392,0 0,-1.145056 6.870336,0 0,-8.015391 -13.740671,0 0,0.03578 -1.145056,0 0,13.704887 -0.03578,0 -1.109273,0 -0.03578,0 -1.145056,0 -13.74067,0 -1.145056,0 z m 20.611006,0 0,-9.160447 0,-1.145056 8.015391,0 0,1.145056 -6.870335,0 0,8.015391 13.74067,0 0,-0.03578 1.145056,0 0,-13.704887 0.03578,0 1.109273,0 0.03578,0 1.145056,0 13.740671,0 1.145056,0 0,9.160447 0,1.145056 -8.015392,0 0,-1.145056 6.870336,0 0,-8.015391 -13.740671,0 0,0.03578 -1.145056,0 0,13.704887 -0.03578,0 -1.109273,0 -0.03578,0 -1.145056,0 -13.74067,0 -1.145056,0 z m 20.611006,0 0,-9.160447 0,-1.145056 8.015391,0 0,1.145056 -6.870335,0 0,8.015391 13.74067,0 0,-0.03578 1.145056,0 0,-13.704887 0.03578,0 1.109273,0 0.03578,0 1.145056,0 13.74067,0 1.14505,0 0,9.160447 0,1.145056 -8.01539,0 0,-1.145056 6.87034,0 0,-8.015391 -13.74067,0 0,0.03578 -1.145056,0 0,13.704887 -0.03578,0 -1.109273,0 -0.03578,0 -1.145056,0 -13.74067,0 -1.145056,0 z m 20.611006,0 0,-9.160447 0,-1.145056 8.015395,0 0,1.145056 -6.87034,0 0,8.015391 11.09273,0 c -0.14108,0.401031 -0.32743,0.782417 -0.53674,1.145056 l -10.55599,0 -1.145055,0 z m -77.828018,-4.580223 0,-1.145056 6.870336,0 0,-8.015391 -12.595615,0 0,-1.145056 12.595615,0 1.145056,0 0,9.160447 0,1.145056 -8.015392,0 z"
       inkscape:connector-curvature="0"
       id="path4060"
       style="color:#000000;fill:url(#linearGradient4122);fill-opacity:1;fill-rule:nonzero;stroke:none;stroke-width:1;marker:none;visibility:visible;display:inline;overflow:visible;enable-background:accumulate" />
    <path
       d="m 15.842698,27.309028 0,1.145056 96.184692,0 0,-1.145056 -96.184692,0 z"
       inkscape:connector-curvature="0"
       id="path3931"
       style="color:#000000;fill:url(#linearGradient4074);fill-opacity:1;fill-rule:nonzero;stroke:none;stroke-width:1;marker:none;visibility:visible;display:inline;overflow:visible;enable-background:accumulate" />
    <g
       transform="matrix(1.1450559,0,0,1.1450559,8.9723625,-52.844884)"
       id="layer5"
       style="display:inline" />
    <g
       transform="matrix(1.1450559,0,0,1.1450559,8.9723625,-52.844884)"
       id="layer4"
       style="display:inline">
      <path
         d="m 31.6875,30.8125 c -1.341838,0.149004 -2.068776,1.559615 -1.875,2.805608 0.01949,2.272486 -0.03984,4.550573 0.03125,6.819392 0.245198,1.328555 1.644174,1.934829 2.877376,1.75 0.9809,-0.06804 1.871046,-0.105364 0.726395,0.965668 -2.036645,2.978405 -3.104141,6.6678 -2.471282,10.264761 0.628677,5.267819 4.301702,9.908093 9.148362,11.98611 5.634108,2.699482 12.556215,2.246908 17.836433,-1.067835 C 62.585929,61.628303 65.400055,56.329178 65.28125,51 65.307818,47.772357 63.821902,44.767684 62,42.1875 c 1.337952,-0.08341 3.054204,0.38597 3.90625,-0.96875 0.664699,-1.103862 0.265807,-2.463605 0.375,-3.691183 -0.05071,-1.725593 0.108533,-3.475992 -0.09375,-5.183817 -0.344522,-1.215957 -1.660856,-1.685594 -2.814876,-1.53125 -4.238065,0.02065 -8.482007,-0.04142 -12.716374,0.03125 -1.328555,0.245198 -1.934829,1.644174 -1.75,2.877376 0.102649,1.409789 -0.41966,3.173567 0.946859,4.136199 4.173983,3.802766 6.4821,9.640182 5.995174,15.269871 -0.263544,3.275644 -2.196931,6.793419 -5.659522,7.458883 -3.079039,0.69193 -6.807651,-0.07258 -8.492084,-2.989598 -2.422301,-4.12718 -1.686327,-9.327486 0.126039,-13.539457 1.099617,-2.602601 2.861441,-4.87397 4.958534,-6.744524 0.707701,-1.176061 0.295776,-2.613169 0.40625,-3.919201 0.246963,-1.473066 -1.130045,-2.833167 -2.599572,-2.580799 -4.300143,0 -8.600285,0 -12.900428,0 z"
         inkscape:connector-curvature="0"
         id="path4158"
         style="opacity:0.11000001;fill:#000000;fill-opacity:1;stroke:none" />
      <path
         d="m 42,41 0,21 1,0 0,-21 -1,0 z m 4,0 0,21 1,0 0,-21 -1,0 z m 4,0 0,21 1,0 0,-21 -1,0 z m 4,0 0,21 1,0 0,-21 -1,0 z"
         inkscape:connector-curvature="0"
         id="rect4135"
         style="color:#000000;fill:url(#linearGradient4148);fill-opacity:1;fill-rule:nonzero;stroke:none;stroke-width:1;marker:none;visibility:visible;display:inline;overflow:visible;enable-background:accumulate" />
      <rect
         width="20"
         height="2"
         x="38"
         y="42"
         id="rect4131"
         style="color:#000000;fill:url(#linearGradient4168);fill-opacity:1;fill-rule:nonzero;stroke:none;stroke-width:1;marker:none;visibility:visible;display:inline;overflow:visible;enable-background:accumulate" />
      <path
         inkscape:connector-curvature="0"
         d="M 31.8125,32 A 1.0110418,1.0110418 0 0 0 31,33 l 0,7 a 1.0110418,1.0110418 0 0 0 1,1 l 3,0 a 1.0110418,1.0110418 0 0 0 1,-1 c 0,-1.293505 0.151082,-2.117454 0.34375,-2.53125 0.192668,-0.413796 0.322402,-0.510447 0.75,-0.625 0.464024,-0.124311 2.065149,0.02804 3.1875,0.09375 -0.900822,0.77508 -1.932149,1.665989 -3.03125,2.875 C 34.667945,42.652761 32,46.578775 32,51 c 0,5.604033 2.625782,9.424561 5.84375,11.71875 3.196467,2.27886 6.901633,3.142827 9.46875,3.25 0.01727,7.21e-4 0.04534,-6.51e-4 0.0625,0 0.220429,0.01744 0.436585,0.02702 0.6875,0.03125 a 1.0110418,1.0110418 0 0 0 0.0625,0 c 0.212096,-0.0053 0.406755,-0.01628 0.59375,-0.03125 0.01716,-6.51e-4 0.04523,7.21e-4 0.0625,0 2.567117,-0.107173 6.272283,-0.97114 9.46875,-3.25 3.217968,-2.294189 5.84375,-6.114717 5.84375,-11.71875 0,-4.421225 -2.667945,-8.347239 -5.25,-11.1875 -1.099101,-1.209011 -2.130428,-2.09992 -3.03125,-2.875 1.122351,-0.06571 2.723476,-0.218061 3.1875,-0.09375 0.427598,0.114553 0.557332,0.211204 0.75,0.625 0.192668,0.413796 0.34375,1.237745 0.34375,2.53125 a 1.0110418,1.0110418 0 0 0 1,1 l 3,0 a 1.0110418,1.0110418 0 0 0 1,-1 l 0,-7 a 1.0110418,1.0110418 0 0 0 -1,-1 l -13,0 a 1.0110418,1.0110418 0 0 0 -1,1 l 0,3 a 1.0110418,1.0110418 0 0 0 0.34375,0.78125 c 4.572924,3.872987 6.977003,10.348082 6.65625,15.71875 -0.160376,2.685334 -0.972925,5.06917 -2.4375,6.75 -1.447369,1.661084 -3.521148,2.706703 -6.46875,2.75 -0.03504,5.15e-4 -0.05846,-2.31e-4 -0.09375,0 C 48.066469,62.000989 47.972898,61.999793 48,62 44.995903,61.980349 42.902075,60.93083 41.4375,59.25 39.972925,57.56917 39.160376,55.185334 39,52.5 38.679247,47.129332 41.083326,40.654237 45.65625,36.78125 A 1.0110418,1.0110418 0 0 0 46,36 l 0,-3 a 1.0110418,1.0110418 0 0 0 -1,-1 l -13,0 a 1.0110418,1.0110418 0 0 0 -0.1875,0 z"
         id="path4154"
         style="opacity:0.15;fill:#000000;fill-opacity:1;stroke:none" />
      <path
         d="m 32,33 0,7 3,0 c 0,-5.452199 2.250408,-4.198262 8,-4 0,0 -10,7 -10,15 0,10.59279 9.670425,13.789042 14.40625,13.96875 0.205365,0.01793 0.427245,0.02686 0.6875,0.03125 0.218151,-0.0055 0.416332,-0.01575 0.59375,-0.03125 C 53.423325,64.789042 63.09375,61.59279 63.09375,51 c 0,-8 -10,-15 -10,-15 5.749592,-0.198262 8,-1.452199 8,4 l 3,0 0,-7 -13,0 0,3 c 9.714827,8.227864 9.986247,26.91505 -3,27 C 48.06721,62.9977 48.02419,63.000185 48,63 35.013753,62.91505 35.285173,44.227864 45,36 l 0,-3 -13,0 z"
         inkscape:connector-curvature="0"
         id="path4150"
         style="opacity:0.3;fill:#000000;fill-opacity:1;stroke:none" />
      <path
         d="m 32,32 0,7 3,0 c 0,-5.452199 2.250408,-4.198262 8,-4 0,0 -10,7 -10,15 0,10.59279 9.670425,13.789042 14.40625,13.96875 0.205365,0.01794 0.427245,0.02686 0.6875,0.03125 0.218151,-0.0055 0.416332,-0.01575 0.59375,-0.03125 C 53.423325,63.789042 63.09375,60.59279 63.09375,50 c 0,-8 -10,-15 -10,-15 5.749592,-0.198262 8,-1.452199 8,4 l 3,0 0,-7 -13,0 0,3 c 9.714827,8.227864 9.986247,26.91505 -3,27 C 48.06721,61.9977 48.02419,62.000185 48,62 35.013753,61.91505 35.285173,43.227864 45,35 l 0,-3 -13,0 z"
         inkscape:connector-curvature="0"
         id="path4126"
         style="fill:url(#linearGradient4176);fill-opacity:1;stroke:none" />
      <path
         d="m 32,32 0,1 13,0 0,-1 -13,0 z m 19.09375,0 0,1 13,0 0,-1 -13,0 z m -9.3125,3.9375 C 39.150919,38.061064 33,43.69256 33,50 c 0,0.192352 0.02496,0.374999 0.03125,0.5625 C 33.383081,42.746313 43,36 43,36 42.561953,35.9849 42.179227,35.96143 41.78125,35.9375 z m 12.53125,0 c -0.397977,0.02393 -0.780703,0.0474 -1.21875,0.0625 0,0 9.616919,6.746313 9.96875,14.5625 0.0063,-0.187501 0.03125,-0.370148 0.03125,-0.5625 0,-6.30744 -6.150919,-11.938936 -8.78125,-14.0625 z M 37.96875,50.96875 C 37.78142,57.368984 40.91569,62.953658 48,63 c 0.02419,1.85e-4 0.06721,-0.0023 0.09375,0 C 55.17806,62.953658 58.31233,57.368984 58.125,50.96875 57.971007,56.940678 54.807327,61.956083 48.09375,62 48.067209,61.997655 48.024186,62.000185 48,62 41.286423,61.956083 38.122743,56.940678 37.96875,50.96875 z"
         inkscape:connector-curvature="0"
         id="path4178"
         style="opacity:0.3;fill:#ffffff;fill-opacity:1;stroke:none" />
      <rect
         width="1"
         height="1"
         x="42"
         y="41"
         id="rect4187"
         style="color:#000000;fill:#ffda45;fill-opacity:1;fill-rule:nonzero;stroke:none;stroke-width:1;marker:none;visibility:visible;display:inline;overflow:visible;enable-background:accumulate" />
      <rect
         width="1"
         height="1"
         x="46"
         y="41"
         id="rect4189"
         style="color:#000000;fill:#ffda45;fill-opacity:1;fill-rule:nonzero;stroke:none;stroke-width:1;marker:none;visibility:visible;display:inline;overflow:visible;enable-background:accumulate" />
      <rect
         width="1"
         height="1"
         x="50"
         y="41"
         id="rect4191"
         style="color:#000000;fill:#ffda45;fill-opacity:1;fill-rule:nonzero;stroke:none;stroke-width:1;marker:none;visibility:visible;display:inline;overflow:visible;enable-background:accumulate" />
      <rect
         width="1"
         height="1"
         x="54"
         y="41"
         id="rect4193"
         style="color:#000000;fill:#ffda45;fill-opacity:1;fill-rule:nonzero;stroke:none;stroke-width:1;marker:none;visibility:visible;display:inline;overflow:visible;enable-background:accumulate" />
    </g>
  </g>
</svg>
