<?xml version="1.0" encoding="UTF-8" standalone="no"?>
<!-- Created with Inkscape (http://www.inkscape.org/) -->

<svg
   xmlns:dc="http://purl.org/dc/elements/1.1/"
   xmlns:cc="http://creativecommons.org/ns#"
   xmlns:rdf="http://www.w3.org/1999/02/22-rdf-syntax-ns#"
   xmlns:svg="http://www.w3.org/2000/svg"
   xmlns="http://www.w3.org/2000/svg"
   xmlns:xlink="http://www.w3.org/1999/xlink"
   xmlns:sodipodi="http://sodipodi.sourceforge.net/DTD/sodipodi-0.dtd"
   xmlns:inkscape="http://www.inkscape.org/namespaces/inkscape"
   width="128"
   height="128"
   id="svg3886"
   version="1.1"
   inkscape:version="0.48.1 r9760"
   sodipodi:docname="system-software-update.svg">
  <defs
     id="defs3888">
    <linearGradient
       inkscape:collect="always"
       xlink:href="#linearGradient3924"
       id="linearGradient2984"
       gradientUnits="userSpaceOnUse"
       gradientTransform="matrix(2.7297298,0,0,2.7297298,-1.5135108,-62.513486)"
       x1="23.99999"
       y1="4.999989"
       x2="23.99999"
       y2="43" />
    <linearGradient
       id="linearGradient3924">
      <stop
         id="stop3926"
         style="stop-color:#ffffff;stop-opacity:1;"
         offset="0" />
      <stop
         offset="0.06316455"
         style="stop-color:#ffffff;stop-opacity:0.23529412;"
         id="stop3928" />
      <stop
         id="stop3930"
         style="stop-color:#ffffff;stop-opacity:0.15686275;"
         offset="0.95056331" />
      <stop
         id="stop3932"
         style="stop-color:#ffffff;stop-opacity:0.39215687;"
         offset="1" />
    </linearGradient>
    <radialGradient
       inkscape:collect="always"
       xlink:href="#linearGradient7012-661-145-733-759-865-745-661-970-94-8"
       id="radialGradient2990"
       gradientUnits="userSpaceOnUse"
       gradientTransform="matrix(5.131108e-8,6.1720507,-6.5292935,-1.1371273e-7,119.1713,-93.225241)"
       cx="7.4956832"
       cy="8.4497671"
       fx="7.4956832"
       fy="8.4497671"
       r="19.99999" />
    <linearGradient
       id="linearGradient7012-661-145-733-759-865-745-661-970-94-8">
      <stop
         id="stop3618-1"
         style="stop-color:#f0c178;stop-opacity:1"
         offset="0" />
      <stop
         id="stop3270-2"
         style="stop-color:#e18941;stop-opacity:1"
         offset="0.5" />
      <stop
         id="stop3620-8"
         style="stop-color:#ec4f18;stop-opacity:1"
         offset="1" />
    </linearGradient>
    <linearGradient
       inkscape:collect="always"
       xlink:href="#linearGradient3390-178-986-453-3"
       id="linearGradient2992"
       gradientUnits="userSpaceOnUse"
       gradientTransform="matrix(2.6410257,0,0,2.6410257,0.6153792,-60.384617)"
       x1="24"
       y1="44"
       x2="24"
       y2="3.8990016" />
    <linearGradient
       id="linearGradient3390-178-986-453-3">
      <stop
         id="stop3624-6"
         style="stop-color:#ba4712;stop-opacity:1;"
         offset="0" />
      <stop
         offset="0.5"
         style="stop-color:#cf671c;stop-opacity:1;"
         id="stop3856-8" />
      <stop
         id="stop3626-0"
         style="stop-color:#e27f39;stop-opacity:1;"
         offset="1" />
    </linearGradient>
    <radialGradient
       cx="4.9929786"
       cy="43.5"
       r="2.5"
       fx="4.9929786"
       fy="43.5"
       id="radialGradient2455"
       xlink:href="#linearGradient3688-166-749"
       gradientUnits="userSpaceOnUse"
       gradientTransform="matrix(2.003784,0,0,1.4,27.98813,-17.4)" />
    <linearGradient
       id="linearGradient3688-166-749">
      <stop
         id="stop2883"
         style="stop-color:#181818;stop-opacity:1"
         offset="0" />
      <stop
         id="stop2885"
         style="stop-color:#181818;stop-opacity:0"
         offset="1" />
    </linearGradient>
    <radialGradient
       cx="4.9929786"
       cy="43.5"
       r="2.5"
       fx="4.9929786"
       fy="43.5"
       id="radialGradient2457"
       xlink:href="#linearGradient3688-464-309"
       gradientUnits="userSpaceOnUse"
       gradientTransform="matrix(2.003784,0,0,1.4,-20.01187,-104.4)" />
    <linearGradient
       id="linearGradient3688-464-309">
      <stop
         id="stop2889"
         style="stop-color:#181818;stop-opacity:1"
         offset="0" />
      <stop
         id="stop2891"
         style="stop-color:#181818;stop-opacity:0"
         offset="1" />
    </linearGradient>
    <linearGradient
       x1="25.058096"
       y1="47.027729"
       x2="25.058096"
       y2="39.999443"
       id="linearGradient2459"
       xlink:href="#linearGradient3702-501-757"
       gradientUnits="userSpaceOnUse" />
    <linearGradient
       id="linearGradient3702-501-757">
      <stop
         id="stop2895"
         style="stop-color:#181818;stop-opacity:0"
         offset="0" />
      <stop
         id="stop2897"
         style="stop-color:#181818;stop-opacity:1"
         offset="0.5" />
      <stop
         id="stop2899"
         style="stop-color:#181818;stop-opacity:0"
         offset="1" />
    </linearGradient>
    <clipPath
       id="clipPath3871">
      <path
         d="M 0,95.999997 0,156 l 96.000001,0 0,-60.000003 -96.000001,0 z M 68,116 c 9.941125,0 18,8.05888 18,18 0,9.94112 -8.058875,18 -18,18 -9.941125,0 -18,-8.05888 -18,-18 0,-9.94112 8.058875,-18 18,-18 z"
         inkscape:connector-curvature="0"
         id="path3873"
         style="fill:#ffffff;fill-opacity:1;stroke:none" />
    </clipPath>
    <linearGradient
       x1="51.42857"
       y1="72.785713"
       x2="90.714287"
       y2="72.785713"
       id="linearGradient3844"
       xlink:href="#linearGradient3157"
       gradientUnits="userSpaceOnUse" />
    <linearGradient
       id="linearGradient3157">
      <stop
         id="stop3159"
         style="stop-color:#c3c3c3;stop-opacity:1"
         offset="0" />
      <stop
         id="stop3161"
         style="stop-color:#ebebeb;stop-opacity:1"
         offset="1" />
    </linearGradient>
    <linearGradient
       x1="64.321426"
       y1="55.310268"
       x2="64.321426"
       y2="84.889679"
       id="linearGradient3857-6"
       xlink:href="#linearGradient3737-1"
       gradientUnits="userSpaceOnUse"
       gradientTransform="translate(-2,0)" />
    <linearGradient
       id="linearGradient3737-1">
      <stop
         id="stop3739-5"
         style="stop-color:#ffffff;stop-opacity:1"
         offset="0" />
      <stop
         id="stop3741-9"
         style="stop-color:#ffffff;stop-opacity:0"
         offset="1" />
    </linearGradient>
  </defs>
  <sodipodi:namedview
     id="base"
     pagecolor="#ffffff"
     bordercolor="#666666"
     borderopacity="1.0"
     inkscape:pageopacity="0.0"
     inkscape:pageshadow="2"
     inkscape:zoom="1.375"
     inkscape:cx="34.181818"
     inkscape:cy="41.090909"
     inkscape:current-layer="layer1"
     showgrid="true"
     inkscape:document-units="px"
     inkscape:grid-bbox="true"
     inkscape:window-width="1514"
     inkscape:window-height="957"
     inkscape:window-x="0"
     inkscape:window-y="46"
     inkscape:window-maximized="0" />
  <metadata
     id="metadata3891">
    <rdf:RDF>
      <cc:Work
         rdf:about="">
        <dc:format>image/svg+xml</dc:format>
        <dc:type
           rdf:resource="http://purl.org/dc/dcmitype/StillImage" />
        <dc:title />
      </cc:Work>
    </rdf:RDF>
  </metadata>
  <g
     id="layer1"
     inkscape:label="Layer 1"
     inkscape:groupmode="layer"
     transform="translate(0,64)">
    <g
       transform="matrix(3.125,0,0,3.125,-148.90909,-234.69318)"
       style="display:inline"
       id="layer6">
      <path
         inkscape:connector-curvature="0"
         d="m 68,116 c -11.060103,0 -20,8.93989 -20,20 0,11.06011 8.939897,20 20,20 11.060103,0 20,-8.93989 20,-20 0,-11.06011 -8.939897,-20 -20,-20 z"
         transform="translate(1.373291e-7,-61)"
         id="path3950"
         style="opacity:0.05;fill:#000000;fill-opacity:1;stroke:none;display:inline" />
      <path
         inkscape:connector-curvature="0"
         d="m 68,117 c -10.515528,0 -19,8.48447 -19,19 0,10.51553 8.484472,19 19,19 10.515528,0 19,-8.48447 19,-19 0,-10.51553 -8.484472,-19 -19,-19 z"
         transform="translate(1.373291e-7,-61)"
         id="path3946"
         style="opacity:0.15;fill:#000000;fill-opacity:1;stroke:none;display:inline" />
      <rect
         width="36"
         height="36"
         rx="18"
         ry="18"
         x="50"
         y="118"
         transform="translate(1.373291e-7,-61)"
         clip-path="url(#clipPath3871)"
         id="rect3859"
         style="opacity:0.31000001;fill:#000000;fill-opacity:1;stroke:none;display:inline" />
      <path
         inkscape:connector-curvature="0"
         d="m 90.714283,72.785713 a 19.642857,19.642857 0 1 1 -39.285713,0 19.642857,19.642857 0 1 1 39.285713,0 z"
         transform="matrix(0,-0.91636366,0.91636366,0,1.3018175,139.12727)"
         id="path3836"
         style="fill:url(#linearGradient3844);fill-opacity:1;stroke:none" />
      <g
         id="g4106"
         style="display:inline">
        <path
           d="m 68,56 c -9.941125,0 -18,8.058875 -18,18 0,3.6617 1.09067,7.063961 2.96875,9.90625 C 51.722125,81.541769 51,78.858787 51,76 c 0,-9.388841 7.611159,-17 17,-17 9.388841,0 17,7.611159 17,17 0,2.858787 -0.722125,5.541769 -1.96875,7.90625 C 84.90933,81.063961 86,77.6617 86,74 86,64.058875 77.941125,56 68,56 z"
           inkscape:connector-curvature="0"
           id="path3846"
           style="opacity:0.2;fill:url(#linearGradient3857-6);fill-opacity:1;stroke:none" />
        <path
           d="m 68,56 c -9.94112,0 -18,8.05887 -18,18 0,0.168593 0.02664,0.33252 0.03125,0.5 C 50.298212,64.79197 58.227473,57 68,57 c 9.73052,0 17.63723,7.725255 17.96875,17.375 l 0,-1 C 85.63723,63.725255 77.73052,56 68,56 z"
           inkscape:connector-curvature="0"
           id="path4097"
           style="opacity:0.3;fill:#ffffff;fill-opacity:1;stroke:none;display:inline" />
      </g>
      <path
         inkscape:connector-curvature="0"
         d="m 59.530143,76.486558 10e-7,-8.474062 7.338753,-4.237031 7.338753,4.237031 -10e-7,8.474062 -7.338753,4.237031 z"
         transform="matrix(0.81757759,0,0,0.81757759,13.329489,14.930404)"
         id="path3942"
         style="color:#000000;fill:#f8c300;fill-opacity:1;fill-rule:nonzero;stroke:none;stroke-width:1;marker:none;visibility:visible;display:inline;overflow:visible;enable-background:accumulate" />
      <path
         d="m 69,59.59375 0,6 5.6875,3.375 L 80,66 69,59.59375 z"
         inkscape:connector-curvature="0"
         id="path3944"
         style="fill:#8fb635;fill-opacity:1;stroke:none" />
      <path
         d="m 80.976178,67.6629 -5.196152,3 -0.07909,6.61302 5.227263,3.116385 0.04798,-12.729405 z"
         inkscape:connector-curvature="0"
         id="path3966"
         style="fill:#d18c3b;fill-opacity:1;stroke:none" />
      <path
         d="m 79.976178,82.06915 -5.196152,-2.999999 -5.766588,3.238016 -0.08524,6.085135 11.047978,-6.323151 z"
         inkscape:connector-curvature="0"
         id="path3968"
         style="fill:#a02c35;fill-opacity:1;stroke:none" />
      <path
         d="m 67,88.40625 -10e-7,-5.999999 L 61.312501,79.031247 56,81.999994 66.999998,88.406249 z"
         inkscape:connector-curvature="0"
         id="path3970"
         style="fill:#bb3a84;fill-opacity:1;stroke:none" />
      <path
         d="m 55.023821,80.3371 5.196151,-3 0.07909,-6.61302 -5.227261,-3.116387 -0.04798,12.729405 z"
         inkscape:connector-curvature="0"
         id="path3972"
         style="fill:#3941bf;fill-opacity:1;stroke:none" />
      <path
         d="m 56.023821,65.93085 5.196151,2.999999 5.766589,-3.238017 0.08524,-6.085134 -11.047979,6.323151 z"
         inkscape:connector-curvature="0"
         id="path3974"
         style="fill:#3895bd;fill-opacity:1;stroke:none" />
    </g>
  </g>
</svg>
