<?xml version="1.0" encoding="UTF-8" standalone="no"?>
<!-- Created with Inkscape (http://www.inkscape.org/) -->

<svg
   xmlns:dc="http://purl.org/dc/elements/1.1/"
   xmlns:cc="http://creativecommons.org/ns#"
   xmlns:rdf="http://www.w3.org/1999/02/22-rdf-syntax-ns#"
   xmlns:svg="http://www.w3.org/2000/svg"
   xmlns="http://www.w3.org/2000/svg"
   xmlns:xlink="http://www.w3.org/1999/xlink"
   xmlns:sodipodi="http://sodipodi.sourceforge.net/DTD/sodipodi-0.dtd"
   xmlns:inkscape="http://www.inkscape.org/namespaces/inkscape"
   width="128"
   height="128"
   id="svg3886"
   version="1.1"
   inkscape:version="0.48.1 r9760"
   sodipodi:docname="system.svg">
  <defs
     id="defs3888">
    <linearGradient
       id="linearGradient3924">
      <stop
         id="stop3926"
         style="stop-color:#ffffff;stop-opacity:1;"
         offset="0" />
      <stop
         offset="0.06316455"
         style="stop-color:#ffffff;stop-opacity:0.23529412;"
         id="stop3928" />
      <stop
         id="stop3930"
         style="stop-color:#ffffff;stop-opacity:0.15686275;"
         offset="0.95056331" />
      <stop
         id="stop3932"
         style="stop-color:#ffffff;stop-opacity:0.39215687;"
         offset="1" />
    </linearGradient>
    <radialGradient
       inkscape:collect="always"
       xlink:href="#linearGradient7012-661-145-733-759-865-745-661-970-94-8"
       id="radialGradient2990"
       gradientUnits="userSpaceOnUse"
       gradientTransform="matrix(5.131108e-8,6.1720507,-6.5292935,-1.1371273e-7,119.1713,-93.225241)"
       cx="7.4956832"
       cy="8.4497671"
       fx="7.4956832"
       fy="8.4497671"
       r="19.99999" />
    <linearGradient
       id="linearGradient7012-661-145-733-759-865-745-661-970-94-8">
      <stop
         id="stop3618-1"
         style="stop-color:#515151;stop-opacity:1;"
         offset="0" />
      <stop
         id="stop3270-2"
         style="stop-color:#262626;stop-opacity:1;"
         offset="0.5" />
      <stop
         id="stop3620-8"
         style="stop-color:#000000;stop-opacity:1;"
         offset="1" />
    </linearGradient>
    <linearGradient
       inkscape:collect="always"
       xlink:href="#linearGradient3390-178-986-453-3"
       id="linearGradient2992"
       gradientUnits="userSpaceOnUse"
       gradientTransform="matrix(2.6410257,0,0,2.6410257,0.6153792,-60.384617)"
       x1="24"
       y1="44"
       x2="24"
       y2="3.8990016" />
    <linearGradient
       id="linearGradient3390-178-986-453-3">
      <stop
         id="stop3624-6"
         style="stop-color:#ba4712;stop-opacity:1;"
         offset="0" />
      <stop
         offset="0.5"
         style="stop-color:#cf671c;stop-opacity:1;"
         id="stop3856-8" />
      <stop
         id="stop3626-0"
         style="stop-color:#e27f39;stop-opacity:1;"
         offset="1" />
    </linearGradient>
    <radialGradient
       cx="4.9929786"
       cy="43.5"
       r="2.5"
       fx="4.9929786"
       fy="43.5"
       id="radialGradient2455"
       xlink:href="#linearGradient3688-166-749"
       gradientUnits="userSpaceOnUse"
       gradientTransform="matrix(2.003784,0,0,1.4,27.98813,-17.4)" />
    <linearGradient
       id="linearGradient3688-166-749">
      <stop
         id="stop2883"
         style="stop-color:#181818;stop-opacity:1"
         offset="0" />
      <stop
         id="stop2885"
         style="stop-color:#181818;stop-opacity:0"
         offset="1" />
    </linearGradient>
    <radialGradient
       cx="4.9929786"
       cy="43.5"
       r="2.5"
       fx="4.9929786"
       fy="43.5"
       id="radialGradient2457"
       xlink:href="#linearGradient3688-464-309"
       gradientUnits="userSpaceOnUse"
       gradientTransform="matrix(2.003784,0,0,1.4,-20.01187,-104.4)" />
    <linearGradient
       id="linearGradient3688-464-309">
      <stop
         id="stop2889"
         style="stop-color:#000000;stop-opacity:1;"
         offset="0" />
      <stop
         id="stop2891"
         style="stop-color:#1d1d1d;stop-opacity:0.78106511;"
         offset="1" />
    </linearGradient>
    <linearGradient
       x1="25.058096"
       y1="47.027729"
       x2="25.058096"
       y2="39.999443"
       id="linearGradient2459"
       xlink:href="#linearGradient3702-501-757"
       gradientUnits="userSpaceOnUse" />
    <linearGradient
       id="linearGradient3702-501-757">
      <stop
         id="stop2895"
         style="stop-color:#181818;stop-opacity:0"
         offset="0" />
      <stop
         id="stop2897"
         style="stop-color:#181818;stop-opacity:1"
         offset="0.5" />
      <stop
         id="stop2899"
         style="stop-color:#181818;stop-opacity:0"
         offset="1" />
    </linearGradient>
    <linearGradient
       inkscape:collect="always"
       xlink:href="#linearGradient3924"
       id="linearGradient3788"
       x1="13"
       y1="3"
       x2="115"
       y2="3"
       gradientUnits="userSpaceOnUse" />
    <linearGradient
       inkscape:collect="always"
       xlink:href="#linearGradient3688-464-309"
       id="linearGradient3809"
       gradientUnits="userSpaceOnUse"
       gradientTransform="matrix(2.6410257,0,0,2.6410257,0.6153792,-60.384617)"
       x1="24"
       y1="44"
       x2="24"
       y2="3.8990016" />
    <radialGradient
       inkscape:collect="always"
       xlink:href="#linearGradient3688-166-749"
       id="radialGradient3813"
       gradientUnits="userSpaceOnUse"
       gradientTransform="matrix(2.003784,0,0,1.4,-20.025737,-17.497434)"
       cx="4.9929786"
       cy="43.5"
       fx="4.9929786"
       fy="43.5"
       r="2.5" />
    <clipPath
       id="clipPath4328">
      <rect
         width="507.33817"
         height="218.71115"
         ry="30.476145"
         x="-813.89233"
         y="4035.4387"
         transform="matrix(0.976886,-0.21376,0.21376,0.976886,0,0)"
         id="rect4330"
         style="fill:#ff0000;fill-opacity:1;stroke:none" />
    </clipPath>
    <filter
       color-interpolation-filters="sRGB"
       id="filter4046">
      <feGaussianBlur
         id="feGaussianBlur4048"
         stdDeviation="1.5806688" />
    </filter>
    <clipPath
       id="clipPath4324">
      <rect
         width="507.33817"
         height="218.71115"
         ry="30.476145"
         x="-813.89233"
         y="4035.4387"
         transform="matrix(0.976886,-0.21376,0.21376,0.976886,0,0)"
         id="rect4326"
         style="fill:#ff0000;fill-opacity:1;stroke:none" />
    </clipPath>
    <filter
       color-interpolation-filters="sRGB"
       id="filter4042">
      <feGaussianBlur
         id="feGaussianBlur4044"
         stdDeviation="1.5806688" />
    </filter>
    <clipPath
       id="clipPath4320">
      <rect
         width="507.33817"
         height="218.71115"
         ry="30.476145"
         x="-813.89233"
         y="4035.4387"
         id="rect4322"
         style="fill:#ff0000;fill-opacity:1;stroke:none" />
    </clipPath>
    <clipPath
       id="clipPath4316">
      <rect
         width="507.33817"
         height="218.71115"
         ry="30.476145"
         x="-813.89233"
         y="4035.4387"
         transform="matrix(0.976886,-0.21376,0.21376,0.976886,0,0)"
         id="rect4318"
         style="fill:#ff0000;fill-opacity:1;stroke:none" />
    </clipPath>
    <filter
       color-interpolation-filters="sRGB"
       id="filter4038">
      <feGaussianBlur
         id="feGaussianBlur4040"
         stdDeviation="1.5806688" />
    </filter>
    <clipPath
       id="clipPath4312">
      <rect
         width="507.33817"
         height="218.71115"
         ry="30.476145"
         x="-813.89233"
         y="4035.4387"
         id="rect4314"
         style="fill:#ff0000;fill-opacity:1;stroke:none" />
    </clipPath>
    <clipPath
       id="clipPath4308">
      <rect
         width="507.33817"
         height="218.71115"
         ry="30.476145"
         x="-813.89233"
         y="4035.4387"
         transform="matrix(0.976886,-0.21376,0.21376,0.976886,0,0)"
         id="rect4310"
         style="fill:#ff0000;fill-opacity:1;stroke:none" />
    </clipPath>
    <filter
       color-interpolation-filters="sRGB"
       id="filter4034">
      <feGaussianBlur
         id="feGaussianBlur4036"
         stdDeviation="1.5806688" />
    </filter>
    <clipPath
       id="clipPath4304">
      <rect
         width="507.33817"
         height="218.71115"
         ry="30.476145"
         x="-813.89233"
         y="4035.4387"
         id="rect4306"
         style="fill:#ff0000;fill-opacity:1;stroke:none" />
    </clipPath>
    <clipPath
       id="clipPath4300">
      <rect
         width="507.33817"
         height="218.71115"
         ry="30.476145"
         x="-813.89233"
         y="4035.4387"
         transform="matrix(0.976886,-0.21376,0.21376,0.976886,0,0)"
         id="rect4302"
         style="fill:#ff0000;fill-opacity:1;stroke:none" />
    </clipPath>
    <filter
       color-interpolation-filters="sRGB"
       id="filter4030">
      <feGaussianBlur
         id="feGaussianBlur4032"
         stdDeviation="1.5806688" />
    </filter>
    <clipPath
       id="clipPath4296">
      <rect
         width="507.33817"
         height="218.71115"
         ry="30.476145"
         x="-813.89233"
         y="4035.4387"
         id="rect4298"
         style="fill:#ff0000;fill-opacity:1;stroke:none" />
    </clipPath>
    <clipPath
       id="clipPath4292">
      <rect
         width="507.33817"
         height="218.71115"
         ry="30.476145"
         x="-813.89233"
         y="4035.4387"
         transform="matrix(0.976886,-0.21376,0.21376,0.976886,0,0)"
         id="rect4294"
         style="fill:#ff0000;fill-opacity:1;stroke:none" />
    </clipPath>
    <filter
       color-interpolation-filters="sRGB"
       id="filter4026">
      <feGaussianBlur
         id="feGaussianBlur4028"
         stdDeviation="1.5806688" />
    </filter>
    <clipPath
       id="clipPath4288">
      <rect
         width="507.33817"
         height="218.71115"
         ry="30.476145"
         x="-813.89233"
         y="4035.4387"
         id="rect4290"
         style="fill:#ff0000;fill-opacity:1;stroke:none" />
    </clipPath>
    <clipPath
       id="clipPath4284">
      <rect
         width="507.33817"
         height="218.71115"
         ry="30.476145"
         x="-813.89233"
         y="4035.4387"
         id="rect4286"
         style="fill:#ff0000;fill-opacity:1;stroke:none" />
    </clipPath>
    <filter
       color-interpolation-filters="sRGB"
       id="filter3835">
      <feGaussianBlur
         id="feGaussianBlur3837"
         stdDeviation="2.4284379" />
    </filter>
    <linearGradient
       inkscape:collect="always"
       xlink:href="#linearGradient3852"
       id="linearGradient4215"
       gradientUnits="userSpaceOnUse"
       x1="-920.30701"
       y1="3705.5337"
       x2="-774.52838"
       y2="4212.5898"
       gradientTransform="matrix(0.10755554,0,0,0.10755554,147.96226,-439.84071)" />
    <linearGradient
       id="linearGradient3852">
      <stop
         id="stop3854"
         style="stop-color:#ffffff;stop-opacity:1"
         offset="0" />
      <stop
         id="stop3856"
         style="stop-color:#ffffff;stop-opacity:0"
         offset="1" />
    </linearGradient>
    <linearGradient
       inkscape:collect="always"
       xlink:href="#linearGradient3852"
       id="linearGradient4217"
       gradientUnits="userSpaceOnUse"
       x1="-920.30701"
       y1="3705.5337"
       x2="-774.52838"
       y2="4212.5898"
       gradientTransform="matrix(0.10755554,0,0,0.10755554,147.96226,-439.84071)" />
    <linearGradient
       id="linearGradient4272">
      <stop
         id="stop4274"
         style="stop-color:#ffffff;stop-opacity:1"
         offset="0" />
      <stop
         id="stop4276"
         style="stop-color:#ffffff;stop-opacity:0"
         offset="1" />
    </linearGradient>
  </defs>
  <sodipodi:namedview
     id="base"
     pagecolor="#ffffff"
     bordercolor="#666666"
     borderopacity="1.0"
     inkscape:pageopacity="0.0"
     inkscape:pageshadow="2"
     inkscape:zoom="6.53125"
     inkscape:cx="33.837321"
     inkscape:cy="57.875598"
     inkscape:current-layer="layer1"
     showgrid="true"
     inkscape:document-units="px"
     inkscape:grid-bbox="true"
     inkscape:window-width="1920"
     inkscape:window-height="1027"
     inkscape:window-x="0"
     inkscape:window-y="24"
     inkscape:window-maximized="1" />
  <metadata
     id="metadata3891">
    <rdf:RDF>
      <cc:Work
         rdf:about="">
        <dc:format>image/svg+xml</dc:format>
        <dc:type
           rdf:resource="http://purl.org/dc/dcmitype/StillImage" />
        <dc:title></dc:title>
      </cc:Work>
    </rdf:RDF>
  </metadata>
  <g
     id="layer1"
     inkscape:label="Layer 1"
     inkscape:groupmode="layer"
     transform="translate(0,64)">
    <g
       transform="matrix(2.9499988,0,0,1.2222234,-6.8000012,1.555537)"
       id="g2036"
       style="display:inline">
      <g
         transform="matrix(1.052632,0,0,1.285713,-1.263158,-13.42854)"
         id="g3712"
         style="opacity:0.4">
        <rect
           width="5"
           height="7"
           x="38"
           y="40"
           id="rect2801"
           style="fill:url(#radialGradient2455);fill-opacity:1;stroke:none" />
        <rect
           width="28"
           height="7.0000005"
           x="10"
           y="40"
           id="rect3700"
           style="fill:url(#linearGradient2459);fill-opacity:1;stroke:none" />
        <rect
           style="fill:url(#radialGradient3813);fill-opacity:1;stroke:none"
           id="rect3811"
           y="39.902565"
           x="-10.013867"
           height="7"
           width="5"
           transform="scale(-1,1)" />
      </g>
    </g>
    <rect
       style="color:#000000;fill:url(#radialGradient2990);fill-opacity:1;fill-rule:nonzero;stroke:url(#linearGradient3809);stroke-width:0.99999994000000003;stroke-linecap:round;stroke-linejoin:round;stroke-miterlimit:4;stroke-opacity:1;stroke-dasharray:none;stroke-dashoffset:0;marker:none;visibility:visible;display:inline;overflow:visible;enable-background:accumulate"
       id="rect5505-21"
       y="-48.5"
       x="12.5"
       ry="6"
       rx="6"
       height="103"
       width="103" />
    <path
       d="m 147.32607,4126.1978 460.1535,0 0,12.5071 -460.1535,0 z"
       transform="matrix(0.10506951,0.02299108,-0.02299108,0.10506951,147.96224,-439.84071)"
       clip-path="url(#clipPath4328)"
       id="rect2999"
       style="fill:#fe3035;fill-opacity:1;stroke:none;filter:url(#filter4046)"
       inkscape:connector-curvature="0" />
    <path
       d="m 147.32607,4138.5791 460.1535,0 0,12.5071 -460.1535,0 z"
       transform="matrix(0.10506951,0.02299108,-0.02299108,0.10506951,147.96224,-439.84071)"
       clip-path="url(#clipPath4324)"
       id="rect3001"
       style="fill:#f3bb1c;fill-opacity:1;stroke:none;filter:url(#filter4042)"
       inkscape:connector-curvature="0" />
    <path
       d="m -738.66547,4073.1872 c 148.68004,32.5339 297.36007,65.0678 446.04011,97.6017 3.89228,-7.8052 0.011,-10.628 -7.85171,-10.899 -145.42374,-31.8214 -290.84748,-63.6428 -436.27124,-95.4641 -0.63904,2.9204 -1.2781,5.8409 -1.91716,8.7614 z"
       clip-path="url(#clipPath4320)"
       id="rect4050"
       style="fill:#fe3035;fill-opacity:1;stroke:none"
       inkscape:connector-curvature="0"
       transform="matrix(0.10755554,0,0,0.10755554,147.96224,-439.84071)" />
    <path
       d="m 147.32607,4150.9604 460.1535,0 0,12.5072 -460.1535,0 z"
       transform="matrix(0.10506951,0.02299108,-0.02299108,0.10506951,147.96224,-439.84071)"
       clip-path="url(#clipPath4316)"
       id="rect3003"
       style="fill:#ffff26;fill-opacity:1;stroke:none;filter:url(#filter4038)"
       inkscape:connector-curvature="0" />
    <path
       d="m -741.31075,4085.2762 c 148.68004,32.5339 297.36007,65.0677 446.04011,97.6016 3.90463,-7.8043 -0.0225,-10.589 -7.85838,-10.8685 -145.42375,-31.8213 -290.8475,-63.6427 -436.27125,-95.464 -0.63683,2.9103 -1.27365,5.8206 -1.91048,8.7309 z"
       clip-path="url(#clipPath4312)"
       id="rect4052"
       style="fill:#f3bb1c;fill-opacity:1;stroke:none"
       inkscape:connector-curvature="0"
       transform="matrix(0.10755554,0,0,0.10755554,147.96224,-439.84071)" />
    <path
       d="m 147.32607,4161.5723 460.1535,0 0,12.5071 -460.1535,0 z"
       transform="matrix(0.10506951,0.02299108,-0.02299108,0.10506951,147.96224,-439.84071)"
       clip-path="url(#clipPath4308)"
       id="rect3005"
       style="fill:#75bf2a;fill-opacity:1;stroke:none;filter:url(#filter4034)"
       inkscape:connector-curvature="0" />
    <path
       d="m -743.95603,4097.3652 c 148.68003,32.5338 297.36006,65.0677 446.0401,97.6016 3.90464,-7.8043 -0.0225,-10.5891 -7.85838,-10.8685 -145.42374,-31.8214 -290.8475,-63.6427 -436.27124,-95.4641 -0.63684,2.9104 -1.27365,5.8206 -1.91048,8.731 z"
       clip-path="url(#clipPath4304)"
       id="rect4054"
       style="fill:#ffff26;fill-opacity:1;stroke:none"
       inkscape:connector-curvature="0"
       transform="matrix(0.10755554,0,0,0.10755554,147.96224,-439.84071)" />
    <path
       d="m 147.32607,4172.1846 460.1535,0 0,12.5071 -460.1535,0 z"
       transform="matrix(0.10506951,0.02299108,-0.02299108,0.10506951,147.96224,-439.84071)"
       clip-path="url(#clipPath4300)"
       id="rect3007"
       style="fill:#48a0f9;fill-opacity:1;stroke:none;filter:url(#filter4030)"
       inkscape:connector-curvature="0" />
    <path
       d="m -746.22724,4107.7446 c 148.68004,32.5339 297.36007,65.0677 446.04011,97.6016 3.89228,-7.8052 0.011,-10.628 -7.85171,-10.899 -145.42375,-31.8213 -290.84748,-63.6428 -436.27125,-95.464 -0.63903,2.9204 -1.27809,5.8409 -1.91715,8.7614 z"
       clip-path="url(#clipPath4296)"
       id="rect4056"
       style="fill:#75bf2a;fill-opacity:1;stroke:none"
       inkscape:connector-curvature="0"
       transform="matrix(0.10755554,0,0,0.10755554,147.96224,-439.84071)" />
    <path
       d="m 147.32607,4184.5659 460.1535,0 0,12.5071 -460.1535,0 z"
       transform="matrix(0.10506951,0.02299108,-0.02299108,0.10506951,147.96224,-439.84071)"
       clip-path="url(#clipPath4292)"
       id="rect3009"
       style="fill:#907ac5;fill-opacity:1;stroke:none;filter:url(#filter4026)"
       inkscape:connector-curvature="0" />
    <path
       d="M 13.358774,8.5605707 57.624437,1.5355835 c 0.243272,-0.038436 0.520884,0.1109576 0.62239,0.3353909 0.101575,0.2244336 -0.0126,0.4362022 -0.255812,0.4748261 L 13.725354,9.370851 C 13.48208,9.4092859 13.204468,9.2598386 13.102898,9.0353971 13.001393,8.8109637 13.115496,8.5991947 13.358774,8.5605707 z"
       id="rect2997"
       style="fill:#ffffff;fill-opacity:1;stroke:none"
       inkscape:connector-curvature="0" />
    <path
       d="m -748.49175,4118.0934 c 148.68004,32.5339 297.36007,65.0678 446.04011,97.6016 3.90463,-7.8043 -0.0226,-10.5889 -7.8584,-10.8684 -145.42375,-31.8213 -290.84748,-63.6428 -436.27125,-95.464 -0.63681,2.9102 -1.27365,5.8206 -1.91046,8.7308 z"
       clip-path="url(#clipPath4288)"
       id="rect4058"
       style="fill:#48a0f9;fill-opacity:1;stroke:none"
       inkscape:connector-curvature="0"
       transform="matrix(0.10755554,0,0,0.10755554,147.96224,-439.84071)" />
    <path
       d="M 79.674191,15.906708 64.50671,15.875839 49.33923,15.844971 56.949497,2.7248636 64.559827,-10.395243 72.117039,2.7555485 z"
       id="path2995"
       style="fill:#ececec;fill-opacity:1;stroke:none"
       inkscape:connector-curvature="0" />
    <path
       d="m -751.13703,4130.1824 c 148.68003,32.5339 297.36004,65.0678 446.0401,97.6016 3.90464,-7.8043 -0.0226,-10.589 -7.8584,-10.8684 -145.42374,-31.8214 -290.84748,-63.6428 -436.27124,-95.464 -0.63682,2.9102 -1.27365,5.8205 -1.91046,8.7308 z"
       clip-path="url(#clipPath4284)"
       id="rect4060"
       style="fill:#907ac5;fill-opacity:1;stroke:none"
       inkscape:connector-curvature="0"
       transform="matrix(0.10755554,0,0,0.10755554,147.96224,-439.84071)" />
    <path
       d="m -966.21516,4319.461 c -21.75,37.4792 -43.50004,74.9584 -65.25004,112.4376 86.71879,0.1979 173.43754,0.3958 260.15629,0.5937 -43.20833,-75.1771 -86.41667,-150.3542 -129.625,-225.5313 -21.76042,37.5 -43.52083,75.0001 -65.28125,112.5 z"
       transform="matrix(0.12263698,0,0,0.12263698,175.05394,-527.49515)"
       id="path3805"
       style="fill:#ffffff;fill-opacity:1;stroke:none;filter:url(#filter3835)"
       inkscape:connector-curvature="0" />
    <path
       d="m 64.442,-9.9210545 c -4.952471,8.539379 -9.907969,17.0769935 -14.862837,25.6150485 9.954409,0.04977 19.909004,0.05104 29.863474,0.07724 -4.960664,-8.6326306 -9.922336,-17.264693 -14.883001,-25.897324 -0.03906,0.06837 -0.07843,0.1366639 -0.11763,0.2050274 z"
       id="path3013"
       style="fill:#1a1a1a;fill-opacity:1;stroke:none"
       inkscape:connector-curvature="0" />
    <path
       d="m 64.442,-8.6539055 c -2.47967,4.4202471 -5.049315,8.78914193 -7.59949,13.1688116 2.962812,3.9802003 9.234038,4.9170628 13.195399,1.9202863 0.833026,-0.4638626 1.627493,-0.9945759 2.440481,-1.4799879 -2.662267,-4.59383359 -5.338459,-9.180231 -7.918754,-13.8208795 -0.03906,0.070574 -0.07843,0.1411371 -0.11763,0.2117695 z"
       id="path3847"
       style="fill:url(#linearGradient4215);fill-opacity:1;stroke:none"
       inkscape:connector-curvature="0" />
    <path
       d="m 64.442,-8.6539055 c -2.47967,4.4202471 -5.049315,8.78914193 -7.59949,13.1688116 2.962812,3.9802003 9.234038,4.9170628 13.195399,1.9202863 0.833026,-0.4638626 1.627493,-0.9945759 2.440481,-1.4799879 -2.662267,-4.59383359 -5.338459,-9.180231 -7.918754,-13.8208795 -0.03906,0.070574 -0.07843,0.1411371 -0.11763,0.2117695 z"
       id="path4166"
       style="fill:url(#linearGradient4217);fill-opacity:1;stroke:none"
       inkscape:connector-curvature="0" />
  </g>
</svg>
