<?xml version="1.0" encoding="UTF-8" standalone="no"?>
<!-- Created with Inkscape (http://www.inkscape.org/) -->
<svg id="svg7542" xmlns="http://www.w3.org/2000/svg" height="128" width="128" version="1.1" xmlns:xlink="http://www.w3.org/1999/xlink">
 <defs id="defs7544">
  <linearGradient id="linearGradient2959" y2="43" gradientUnits="userSpaceOnUse" x2="24" gradientTransform="matrix(2.7838 0 0 2.7838 -2.8108 -66.811)" y1="5" x1="24">
   <stop id="stop3926" style="stop-color:#fff" offset="0"/>
   <stop id="stop3928" style="stop-color:#fff;stop-opacity:.23529" offset=".063165"/>
   <stop id="stop3930" style="stop-color:#fff;stop-opacity:.15686" offset=".95056"/>
   <stop id="stop3932" style="stop-color:#fff;stop-opacity:.39216" offset="1"/>
  </linearGradient>
  <radialGradient id="radialGradient7372" xlink:href="#linearGradient3543" gradientUnits="userSpaceOnUse" cy="67.125" cx="74.375" r="3.125"/>
  <linearGradient id="linearGradient3543">
   <stop id="stop3545" style="stop-color:#fff" offset="0"/>
   <stop id="stop3555" style="stop-color:#fff" offset=".30645"/>
   <stop id="stop3551" style="stop-color:#fff;stop-opacity:.64062" offset=".51899"/>
   <stop id="stop3547" style="stop-color:#fff;stop-opacity:0" offset="1"/>
  </linearGradient>
  <radialGradient id="radialGradient7384" xlink:href="#linearGradient5226-0" gradientUnits="userSpaceOnUse" cy="2.2173" cx="63.875" gradientTransform="matrix(.84391 0 0 .33117 -5.8162 32.793)" r="58.375"/>
  <linearGradient id="linearGradient5226-0">
   <stop id="stop5228-7" style="stop-color:#fff" offset="0"/>
   <stop id="stop5230-6" style="stop-color:#fff;stop-opacity:0" offset="1"/>
  </linearGradient>
  <radialGradient id="radialGradient7386" xlink:href="#linearGradient5226-0" gradientUnits="userSpaceOnUse" cy="68.449" cx="64.23" gradientTransform="matrix(.97474 0 0 .92611 -14.268 -12.601)" r="43.77"/>
  <radialGradient id="radialGradient7388" xlink:href="#linearGradient5226-0" gradientUnits="userSpaceOnUse" cy="70.608" cx="49.234" gradientTransform="matrix(.51922 -.47906 1.2027 1.3 -72.744 -19.888)" r="25.484"/>
  <radialGradient id="radialGradient7390" xlink:href="#linearGradient5226-0" gradientUnits="userSpaceOnUse" cy="75.974" cx="69.75" gradientTransform="matrix(.70690 0 0 .26398 2.9353 34.088)" r="58.5"/>
  <radialGradient id="radialGradient2962" gradientUnits="userSpaceOnUse" cy="8.4498" cx="7.4957" gradientTransform="matrix(5.2307e-8 6.2919 -6.6561 -1.1592e-7 120.24 -98.094)" r="20">
   <stop id="stop3976-3" style="stop-color:#a2cdf3" offset="0"/>
   <stop id="stop3978-4" style="stop-color:#66a8e5" offset=".26238"/>
   <stop id="stop3980-1" style="stop-color:#3b85c9" offset=".66094"/>
   <stop id="stop3982-5" style="stop-color:#175389" offset="1"/>
  </radialGradient>
  <linearGradient id="linearGradient2964" y2="3.899" gradientUnits="userSpaceOnUse" x2="24" gradientTransform="matrix(2.6923 0 0 2.6923 -.61538 -64.615)" y1="44" x1="24">
   <stop id="stop2492-3" style="stop-color:#124a79" offset="0"/>
   <stop id="stop2494-5" style="stop-color:#2789dd" offset="1"/>
  </linearGradient>
  <filter id="filter6181" color-interpolation-filters="sRGB">
   <feGaussianBlur id="feGaussianBlur6183" stdDeviation="1.6001681"/>
  </filter>
 </defs>
 <g id="layer1" transform="translate(0,64)">
  <rect id="rect5505-2" style="opacity:.4;color:#000000;filter:url(#filter6181)" transform="matrix(1.7299 0 0 1.6462 1.7239 -43.357)" rx="3.072" ry="3.1624" height="64" width="64" y="-3.84" x="4"/>
  <rect id="rect5505" style="stroke-linejoin:round;color:#000000;stroke:url(#linearGradient2964);stroke-linecap:round;fill:url(#radialGradient2962)" rx="5" ry="5" height="105" width="105" y="-52.5" x="11.5"/>
  <path id="path3522-3" style="opacity:.2;fill:#fff" d="m49.482-51.768c2.043 2.7379 0.13939 7.3099 3.2209 7.2646 1.5004 2.117-2.9906 0.63152 0.25206 2.2632 1.8647 1.4656-1.9728 2.303 0.3365 3.6182-2.6615 1.3706 0.43141 7.1687 2.4082 8.6198 3.2537 2.7336 1.4389-5.7875 5.0694-6.2308 1.9727-2.2476 5.4375-3.6903 7.8982-5.9513-2.4048-0.19483-3.809-1.6886-1.5316-2.6139 4.1915 4.2864 1.051-2.03-1.2692-3.0301 2.2451-0.71272 4.4286-0.1908 4.1171-2.0397 2.3726-1.7323-2.2809-2.2916-3.942-1.9h-16.56zm-34.421 1.7882c-3.033 0.86236-3.2446 8.0962-0.19605 4.0793 0.74824-1.6494 4.2059-3.6371 0.19605-4.0793zm14.172 0.25147c-1.7485 2.7362 0.25371 4.93 1.7085 1.5926 1.0297-1.3937-0.76506-1.5416-1.7085-1.5926zm4.3692 0.61469c-3.3785 1.5627-0.83275 5.2068-0.74912 6.0172 3.559 1.2287 5.5383-0.80338 6.8847 2.6697 3.3864 1.9477-0.0666 5.3322-1.3378 6.2136 2.2897-1.99 6.6909 5.4105 5.5371 1.5006-1.3765-1.003 3.6959 1.6113 1.0643-1.6485-2.4218-3.894 0.19224-1.7433 1.2133-0.83447 3.4727-3.1077-3.9292-3.4833-2.0815-6.6815-1.6191-1.3087-3.7426-5.2734-6.6098-4.4984-1.9194 2.4771-0.26515-5.3975-3.0811-1.4569-0.14597 2.2028-0.0531 4.9979-0.87374 1.1818-0.54981-0.66805 0.9459-2.2211 0.0338-2.4631zm-6.8899 0.0279c-2.2677 0.75449-2.1459 3.8122 0.64251 4.1401 0.95511-1.0865 0.37947-3.9343-0.64251-4.1401zm-8.8504 0.97792c-2.9455 0.69647-1.7432 3.0667-0.84138 3.7342-3.6461 0.91143 5.5661 1.1649 0.98141 1.7421-3.8143 1.5202 3.673 3.3113 4.9013 1.5088 4.7102 1.1496 0.1695-3.7629-0.24396-6.4258-1.9967-2.1386-0.0788 4.9301-1.8842 0.22777-0.62992 1.3964-2.6328 0.20577-2.9132-0.78709zm93.601 0.30735c-3.9526 1.5437 2.4566 7.3693 0.86374 2.0695-0.15868-0.63996 0.35682-2.3308-0.86374-2.0695zm-82.538 2.347c-2.8403 2.6638 3.6103 4.8667-0.81578 6.8512-0.66364-2.4739-1.8055 1.2377-4.3376-0.76012-4.353 1.8088-6.5791-0.9422-10.224-2.8279-2.189-0.27193-1.3666 2.0757-1.5116 4.2738v18.224c2.1462 2.2535 0.83736 0.99426 0 0.37271 1.178 4.0039-0.51947 9.8566 4.1239 12.186 0.78936 1.4612 4.1017 7.6863 4.2544 5.8237-1.6606-1.7354-3.3644-6.9382-0.55454-2.3011 2.5168 4.4079 5.9116 7.2669 10.871 8.3158 2.7115 0.92046 4.9415 4.0845 7.326 3.3884 1.3484 3.5473-3.9958 6.9537 0.17942 10.262 2.1797 3.3494 5.8391 5.5462 3.8579 10.249-1.3855 4.5926-0.79229 9.5967-1.9906 13.876-0.37191 2.6046 3.6376 9.2154 3.2902 3.9217 1.1707-3.6787 1.1398-7.7265 3.897-10.332 3.7726 0.0298 0.72104-4.0484 4.4658-3.5157 2.2851-2.9891 2.947-6.555 6.8032-7.7419 0.46063-3.6283 6.4119-9.1852 0.26389-10.598-1.671-0.82192-5.9732-1.1175-5.6444-1.523 0.66613-3.6003-5.5634-4.6252-8.2138-6.0982-3.48-2.4651-8.7091 4.0952-9.9351-1.5575-0.73156-1.7785-3.4064-1.8074-2.1771-4.5517-2.213 2.1981-6.546 1.5298-5.411-2.7168 1.7229-3.5764 8.3394-3.7457 9.4668 0.55615-1.5654-4.7444 3.0258-8.4377 5.5746-11.813 0.51896-1.6133 3.6025-2.9994 2.5414-0.85523 1.8078-0.0651 4.5479-3.3208 1.3364-1.8181-0.0454-2.9691-2.8142-2.1248-3.7118-1.7032 1.6637-2.6352 10.208-1.1945 6.6301-5.502-2.7725-1.1211-2.5418-7.6633-5.3461-4.0186 0.23597-2.2456-5.7076-6.6415-5.5779-2.8758 0.72551 3.3696 0.13264 7.2513-1.4113 9.46-0.32221-4.9376-8.7604-3.8463-7.6755-9.1079 1.5717-2.5077 3.4083-5.9755 3.5833-5.6635 2.8167-1.0733 5.0819-4.1951 1.8173-6.2474-0.17447 1.7887-2.4552 5.4792-2.1341 1.0157-2.1119 2.4989-1.6296-3.9764-3.6075-4.648zm67.414 1.7323c-4.9474 1.2078-6.9087 5.9235-9.3561 9.8294-3.6076 1.6233-3.4703 8.5944 0.56013 6.3679 1.0787 1.8802-0.75463 4.8438 2.3874 2.3853 2.5344-3.3471 0.44316-8.7605 4.756-10.871 0.31415 1.6411-3.9784 7.7688 1.0363 6.7616 4.5334 0.1707-3.2956 0.45078-1.0908 3.3407-2.2908-1.3564-1.1005 3.7046-4.0906 2.5268-2.5905 1.4062-4.2892-0.65293-3.6958-2.9087-2.0378 1.1864 0.64096 4.5335-2.8966 4.7346-0.79244 2.8083-7.309 2.385-3.6031 5.2446 1.6453 4.2555-6.1305 0.26677-3.923 5.3735 1.8886 5.0498 5.8468-1.6733 7.4526-2.9722 3.0983-2.3985 7.6894 4.0896 4.9013 4.3308 3.1263-0.4186 2.4839-3.3858-0.021-4.5345-1.3528-3.5015 4.2826 1.7172 3.9701 3.4728 1.9883 3.7157 1.1695-3.8043 3.1929-0.47499-0.23623 3.512 8.1395 0.82576 4.1407 5.3017-3.438 0.69107-6.8221-0.88454-9.782 0.12465-2.7549-0.0243-2.6167-2.9618-3.6197-3.6974-3.5043 0.28413-7.8346 0.252-10.181 3.0772-2.5369 3.4736-6.1952 8.3295-3.4302 12.765 2.767 6.5727 9.6289 0.34093 13.573 4.2226 1.1724 1.6185-1.016 3.5424 1.6054 5.2955 0.9864 3.7345-1.1198 7.2803 1.3028 10.85 1.2528 3.3573 2.0302 8.3824 6.6928 5.3146 4.9348-2.9636 3.6204-8.427 7.6922-11.453-3.2219-6.2227 3.9416-8.9511 5.7289-14.003-3.9049 0.57052-7.3837-3.3148-8.3272-7.2255-1.6404-1.8995-1.2179-4.7003 0.6145-1.132 2.5186 2.4356 2.573 9.6625 7.2321 5.9447 2.13-0.88909 7.9468-4.2806 3.312-5.824-2.9876 2.1595-6.2836-6.4527-1.8965-1.4574 3.1894 1.3504 5.4228 2.155 5.4228-2.3222v-36.433c-0.99345 1.0132-3.5457 2.8843-4.8339 1.641-2.2166 0.30805-5.1429 4.6123-4.4463 0.45149-1.9268-0.12734-0.34491 3.7308-2.992 3.8387-0.26654 1.9835-2.6741 0.3673-1.7698 2.2509-1.858-1.3153-3.4304-5.468 0.23046-2.8615 5.4365-1.6277-3.585-5.2992-4.2814-6.1867 1.1706-0.2799-1.2735-1.4973-1.5684-1.0897zm-44.868 1.0897c-1.8095 1.5046 3.4401 1.788 0 0zm-24.171 0.81028c-2.0239 2.1127 3.2231 1.9422 0 0zm11.735 2.0955c-1.5326 2.5056 2.2645 0.92505 0 0zm33.553 2.9617c-1.7943 2.0615-4.1625-0.54255-4.2012 1.2294 0.32518 0.5354 1.6277 4.3567 4.4812 1.5367 1.5315-0.64438 0.92853-2.2688-0.28007-2.7661zm-38.202 1.2294c-3.4033 2.9661 5.7798 3.2394 0.72098 0.34019l-0.72098-0.34019zm44.896 8.2145c-2.4503 1.5946 1.1755 4.981-0.0533 6.5718-1.5354 2.6697 5.7056-0.18806 1.8381-2.318-0.27556-1.83-2.2658-4.0628-1.7848-4.2538zm-1.6524 3.2132c-3.4139 0.96323-0.775 5.9364 0.43415 1.2524 0.0681-0.27155 0.16016-1.2615-0.43415-1.2524zm-27.335 3.6043c-3.176 2.1613-0.49329 4.3186 1.8343 3.3461-0.47786-1.304-1.8128-2.1256-1.8343-3.3461zm59.992 3.6323c1.5847 0.79814-2.904 2.1616-0.0617 3.5663 1.6541 1.9412 1.0305 6.1083-1.6581 3.159 0.4995-3.2928-3.6444-5.752 1.7198-6.7253zm-8.1502 0.028c-0.21501 2.1155 4.5735 5.4039-0.58815 4.3308-2.7297 0.31956-6.8182-0.0832-3.3793-3.4777 1.0866-0.65102 3.9397 2.2461 2.455-0.46188 0.52636-0.0335 1.0166-0.2318 1.5124-0.39116zm-15.768 4.5822c-1.991 1.2801 1.3767 2.2617 0 0zm-49.994 11.931c-0.33565 1.1176 6.297 2.2501 1.7201 0.45966l-0.68227-0.23968-1.0378-0.21998zm5.1534 1.5926c-2.0118 2.0382 4.1449 0.60894 0 0zm67.274 18.692c-4.3714 0.11257-3.7902 11.365-0.74302 4.7069 0.28898-1.4449 1.4472-3.3519 0.74302-4.7069z"/>
  <path id="path3522" style="opacity:.5;fill:#0a3865" d="m49.482-52.768c2.043 2.7379 0.13939 7.3099 3.2209 7.2646 1.5004 2.117-2.9906 0.63152 0.25206 2.2632 1.8647 1.4656-1.9728 2.303 0.3365 3.6182-2.6615 1.3706 0.43141 7.1687 2.4082 8.6198 3.2537 2.7336 1.4389-5.7875 5.0694-6.2308 1.9727-2.2476 5.4375-3.6903 7.8982-5.9513-2.4048-0.19483-3.809-1.6886-1.5316-2.6139 4.1915 4.2864 1.051-2.03-1.2692-3.0301 2.2451-0.71272 4.4286-0.1908 4.1171-2.0397 2.3726-1.7323-2.2809-2.2916-3.942-1.9h-16.56zm-34.421 1.7882c-3.033 0.86236-3.2446 8.0962-0.19605 4.0793 0.74824-1.6494 4.2059-3.6371 0.19605-4.0793zm14.172 0.25147c-1.7485 2.7362 0.25371 4.93 1.7085 1.5926 1.0297-1.3937-0.76506-1.5416-1.7085-1.5926zm4.3692 0.61469c-3.3785 1.5627-0.83275 5.2068-0.74912 6.0172 3.559 1.2287 5.5383-0.80338 6.8847 2.6697 3.3864 1.9477-0.0666 5.3322-1.3378 6.2136 2.2897-1.99 6.6909 5.4105 5.5371 1.5006-1.3765-1.003 3.6959 1.6113 1.0643-1.6485-2.4218-3.894 0.19224-1.7433 1.2133-0.83447 3.4727-3.1077-3.9292-3.4833-2.0815-6.6815-1.6191-1.3087-3.7426-5.2734-6.6098-4.4984-1.9194 2.4771-0.26515-5.3975-3.0811-1.4569-0.14597 2.2028-0.0531 4.9979-0.87374 1.1818-0.54981-0.66805 0.9459-2.2211 0.0338-2.4631zm-6.8899 0.0279c-2.2677 0.75449-2.1459 3.8122 0.64251 4.1401 0.95511-1.0865 0.37947-3.9343-0.64251-4.1401zm-8.8504 0.97792c-2.9455 0.69647-1.7432 3.0667-0.84138 3.7342-3.6461 0.91143 5.5661 1.1649 0.98141 1.7421-3.8143 1.5202 3.673 3.3113 4.9013 1.5088 4.7102 1.1496 0.1695-3.7629-0.24396-6.4258-1.9967-2.1386-0.0788 4.9301-1.8842 0.22777-0.62992 1.3964-2.6328 0.20577-2.9132-0.78709zm93.601 0.30735c-3.9526 1.5437 2.4566 7.3693 0.86374 2.0695-0.15868-0.63996 0.35682-2.3308-0.86374-2.0695zm-82.538 2.347c-2.8403 2.6638 3.6103 4.8667-0.81578 6.8512-0.66364-2.4739-1.8055 1.2377-4.3376-0.76012-4.353 1.8088-6.5791-0.9422-10.224-2.8279-2.189-0.27193-1.3666 2.0757-1.5116 4.2738v18.224c2.1462 2.2535 0.83736 0.99426 0 0.37271 1.178 4.0039-0.51947 9.8566 4.1239 12.186 0.78936 1.4612 4.1017 7.6863 4.2544 5.8237-1.6606-1.7354-3.3644-6.9382-0.55454-2.3011 2.5168 4.4079 5.9116 7.2669 10.871 8.3158 2.7115 0.92046 4.9415 4.0845 7.326 3.3884 1.3484 3.5473-3.9958 6.9537 0.17942 10.262 2.1797 3.3494 5.8391 5.5462 3.8579 10.249-1.3855 4.5926-0.79229 9.5967-1.9906 13.876-0.37191 2.6046 3.6376 9.2154 3.2902 3.9217 1.1707-3.6787 1.1398-7.7265 3.897-10.332 3.7726 0.0298 0.72104-4.0484 4.4658-3.5157 2.2851-2.9891 2.947-6.555 6.8032-7.7419 0.46063-3.6283 6.4119-9.1852 0.26389-10.598-1.671-0.82192-5.9732-1.1175-5.6444-1.523 0.66613-3.6003-5.5634-4.6252-8.2138-6.0982-3.48-2.4651-8.7091 4.0952-9.9351-1.5575-0.73156-1.7785-3.4064-1.8074-2.1771-4.5517-2.213 2.1979-6.546 1.5296-5.411-2.717 1.7229-3.5764 8.3394-3.7457 9.4668 0.55615-1.5654-4.7444 3.0258-8.4377 5.5746-11.813 0.51896-1.6133 3.6025-2.9994 2.5414-0.85523 1.8078-0.0651 4.5479-3.3208 1.3364-1.8181-0.0454-2.9691-2.8142-2.1248-3.7118-1.7032 1.6637-2.6352 10.208-1.1945 6.6301-5.502-2.7725-1.1211-2.5418-7.6633-5.3461-4.0186 0.23597-2.2456-5.7076-6.6415-5.5779-2.8758 0.72551 3.3696 0.13264 7.2513-1.4113 9.46-0.32221-4.9376-8.7604-3.8463-7.6755-9.1079 1.5717-2.5077 3.4083-5.9755 3.5833-5.6635 2.8167-1.0733 5.0819-4.1951 1.8173-6.2474-0.17447 1.7887-2.4552 5.4792-2.1341 1.0157-2.1119 2.4989-1.6296-3.9764-3.6075-4.648zm67.414 1.7323c-4.9474 1.2078-6.9087 5.9235-9.3561 9.8294-3.6076 1.6233-3.4703 8.5944 0.56013 6.3679 1.0787 1.8802-0.75463 4.8438 2.3874 2.3853 2.5344-3.3471 0.44316-8.7605 4.756-10.871 0.31415 1.6411-3.9784 7.7688 1.0363 6.7616 4.5334 0.1707-3.2956 0.45078-1.0908 3.3407-2.2908-1.3564-1.1005 3.7046-4.0906 2.5268-2.5905 1.4062-4.2892-0.65293-3.6958-2.9087-2.0378 1.1864 0.64096 4.5335-2.8966 4.7346-0.79244 2.8083-7.309 2.385-3.6031 5.2446 1.6453 4.2555-6.1305 0.26677-3.923 5.3735 1.8886 5.0498 5.8468-1.6733 7.4526-2.9722 3.0983-2.3985 7.6894 4.0896 4.9013 4.3308 3.1263-0.4186 2.4839-3.3858-0.021-4.5345-1.3528-3.5015 4.2826 1.7172 3.9701 3.4728 1.9883 3.7157 1.1695-3.8043 3.1929-0.47499-0.23623 3.512 8.1395 0.82576 4.1407 5.3017-3.438 0.69107-6.8221-0.88454-9.782 0.12465-2.7549-0.0243-2.6167-2.9618-3.6197-3.6974-3.5043 0.28413-7.8346 0.252-10.181 3.0772-2.5369 3.4736-6.1952 8.3295-3.4302 12.765 2.767 6.5727 9.6289 0.34093 13.573 4.2226 1.1724 1.6185-1.016 3.5424 1.6054 5.2955 0.9864 3.7345-1.1198 7.2803 1.3028 10.85 1.2528 3.3573 2.0302 8.3824 6.6928 5.3146 4.9348-2.9636 3.6204-8.427 7.6922-11.453-3.2219-6.2227 3.9416-8.9511 5.7289-14.003-3.9049 0.57052-7.3837-3.3148-8.3272-7.2255-1.6404-1.8995-1.2179-4.7003 0.6145-1.132 2.5186 2.4356 2.573 9.6625 7.2321 5.9447 2.13-0.88909 7.9468-4.2806 3.312-5.824-2.9876 2.1595-6.2836-6.4527-1.8965-1.4574 3.1894 1.3504 5.4228 2.155 5.4228-2.3222v-36.433c-0.99345 1.0132-3.5457 2.8843-4.8339 1.641-2.2166 0.30805-5.1429 4.6123-4.4463 0.45149-1.9268-0.12734-0.34491 3.7308-2.992 3.8387-0.26654 1.9835-2.6741 0.3673-1.7698 2.2509-1.858-1.3153-3.4304-5.468 0.23046-2.8615 5.4365-1.6277-3.585-5.2992-4.2814-6.1867 1.1706-0.2799-1.2735-1.4973-1.5684-1.0897zm-44.868 1.0897c-1.8095 1.5046 3.4401 1.788 0 0zm-24.171 0.81028c-2.0239 2.1127 3.2231 1.9422 0 0zm11.735 2.0955c-1.5326 2.5056 2.2645 0.92505 0 0zm33.553 2.9617c-1.7943 2.0615-4.1625-0.54255-4.2012 1.2294 0.32518 0.5354 1.6277 4.3567 4.4812 1.5367 1.5315-0.64438 0.92853-2.2688-0.28007-2.7661zm-38.202 1.2294c-3.4033 2.9661 5.7798 3.2394 0.72098 0.34019l-0.72098-0.34019zm44.896 8.2145c-2.4503 1.5946 1.1755 4.981-0.0533 6.5718-1.5354 2.6697 5.7056-0.18806 1.8381-2.318-0.27556-1.83-2.2658-4.0628-1.7848-4.2538zm-1.6524 3.2132c-3.4139 0.96323-0.775 5.9364 0.43415 1.2524 0.0681-0.27155 0.16016-1.2615-0.43415-1.2524zm-27.335 3.6043c-3.176 2.1613-0.49329 4.3186 1.8343 3.3461-0.47786-1.304-1.8128-2.1256-1.8343-3.3461zm59.992 3.6323c1.5847 0.79814-2.904 2.1616-0.0617 3.5663 1.6541 1.9412 1.0305 6.1083-1.6581 3.159 0.4995-3.2928-3.6444-5.752 1.7198-6.7253zm-8.1502 0.028c-0.21501 2.1155 4.5735 5.4039-0.58815 4.3308-2.7297 0.31956-6.8182-0.0832-3.3793-3.4777 1.0866-0.65102 3.9397 2.2461 2.455-0.46188 0.52636-0.0335 1.0166-0.2318 1.5124-0.39116zm-15.768 4.5822c-1.991 1.2801 1.3767 2.2617 0 0zm-49.994 11.931c-0.33565 1.1176 6.297 2.2501 1.7201 0.45966l-0.68227-0.23968-1.0378-0.21998zm5.1534 1.5926c-2.0118 2.0382 4.1449 0.60894 0 0zm67.279 18.692c-4.3714 0.11257-3.7902 11.365-0.74302 4.7069 0.28898-1.4449 1.4472-3.3519 0.74302-4.7069z"/>
  <g id="layer4" style="opacity:.8" transform="matrix(1.2381 0 0 1.2381 4.5714 -60.316)">
   <path id="path3537" style="fill:url(#radialGradient7372);fill-rule:evenodd" d="m77.5 67.125a3.125 3.125 0 1 1 -6.25 0 3.125 3.125 0 1 1 6.25 0z" transform="matrix(1.3572 0 0 1.3554 -73.268 -53.872)"/>
   <path id="path3557" style="fill-rule:evenodd;fill:url(#radialGradient7372)" d="m77.5 67.125a3.125 3.125 0 1 1 -6.25 0 3.125 3.125 0 1 1 6.25 0z" transform="matrix(1.0745 0 0 1.0731 -39.514 -14.091)"/>
   <path id="path3561" style="fill-rule:evenodd;fill:url(#radialGradient7372)" d="m77.5 67.125a3.125 3.125 0 1 1 -6.25 0 3.125 3.125 0 1 1 6.25 0z" transform="matrix(1.5834 0 0 1.5813 -53.334 -72.389)"/>
   <path id="path3565" style="opacity:.6;fill-rule:evenodd;fill:url(#radialGradient7372)" d="m77.5 67.125a3.125 3.125 0 1 1 -6.25 0 3.125 3.125 0 1 1 6.25 0z" transform="matrix(1.0219 0 0 1.0206 -15.636 -16.922)"/>
   <path id="path3569" style="opacity:.6;fill-rule:evenodd;fill:url(#radialGradient7372)" d="m77.5 67.125a3.125 3.125 0 1 1 -6.25 0 3.125 3.125 0 1 1 6.25 0z" transform="matrix(.79409 0 0 .79303 -44.285 -21.768)"/>
   <path id="path3573" style="opacity:.6;fill-rule:evenodd;fill:url(#radialGradient7372)" d="m77.5 67.125a3.125 3.125 0 1 1 -6.25 0 3.125 3.125 0 1 1 6.25 0z" transform="matrix(.56552 0 0 .56477 38.457 3.2615)"/>
   <path id="path3577" style="stroke:url(#radialGradient7384);stroke-width:1.0769;fill:none" d="m7.1767 47.702c28.099-19.414 65.211-20.473 81.823 1.588"/>
   <path id="path3581" style="stroke:url(#radialGradient7386);stroke-width:1.0769;fill:none" d="m27.677 88.824c-1.061-15.532 28.452-60.183 61.146-67.949"/>
   <path id="path3583" style="stroke:url(#radialGradient7388);stroke-width:1.0769;fill:none" d="m7 29.523c51.25 8.825 31.634 59.477 31.634 59.477"/>
   <path id="path3585" style="opacity:.6;stroke:url(#radialGradient7390);stroke-width:.80769;fill:none" d="m7.1767 67.821c51.25-11.472 82-30.179 82-30.179"/>
  </g>
  <rect id="rect6741" style="opacity:.5;stroke-linejoin:round;stroke:url(#linearGradient2959);stroke-linecap:round;fill:none" rx="4" ry="4" height="103" width="103" y="-51.5" x="12.5"/>
 </g>
</svg>
