<?xml version="1.0" encoding="UTF-8" standalone="no"?>
<!-- Created with Inkscape (http://www.inkscape.org/) -->

<svg
   xmlns:dc="http://purl.org/dc/elements/1.1/"
   xmlns:cc="http://creativecommons.org/ns#"
   xmlns:rdf="http://www.w3.org/1999/02/22-rdf-syntax-ns#"
   xmlns:svg="http://www.w3.org/2000/svg"
   xmlns="http://www.w3.org/2000/svg"
   xmlns:xlink="http://www.w3.org/1999/xlink"
   xmlns:sodipodi="http://sodipodi.sourceforge.net/DTD/sodipodi-0.dtd"
   xmlns:inkscape="http://www.inkscape.org/namespaces/inkscape"
   id="svg7777"
   height="128"
   width="128"
   version="1.1"
   inkscape:version="0.48.1 r9760"
   sodipodi:docname="screenie.svg">
  <metadata
     id="metadata168">
    <rdf:RDF>
      <cc:Work
         rdf:about="">
        <dc:format>image/svg+xml</dc:format>
        <dc:type
           rdf:resource="http://purl.org/dc/dcmitype/StillImage" />
      </cc:Work>
    </rdf:RDF>
  </metadata>
  <sodipodi:namedview
     pagecolor="#ffffff"
     bordercolor="#666666"
     borderopacity="1"
     objecttolerance="10"
     gridtolerance="10"
     guidetolerance="10"
     inkscape:pageopacity="0"
     inkscape:pageshadow="2"
     inkscape:window-width="1125"
     inkscape:window-height="812"
     id="namedview166"
     showgrid="false"
     inkscape:zoom="4.875"
     inkscape:cx="64"
     inkscape:cy="64"
     inkscape:window-x="0"
     inkscape:window-y="24"
     inkscape:window-maximized="0"
     inkscape:current-layer="svg7777" />
  <defs
     id="defs7779">
    <linearGradient
       id="linearGradient9779">
      <stop
         id="stop9781"
         style="stop-color:#fff"
         offset="0" />
      <stop
         id="stop9783"
         style="stop-color:#fff;stop-opacity:0"
         offset="1" />
    </linearGradient>
    <linearGradient
       id="linearGradient9739">
      <stop
         id="stop9741"
         style="stop-color:#eeeeec"
         offset="0" />
      <stop
         id="stop9743"
         style="stop-color:#cdcdcd"
         offset="1" />
    </linearGradient>
    <clipPath
       id="clipPath10731">
      <path
         id="path10733"
         style="color:#000000;enable-background:new"
         d="m 225.55,397.97 h 35.506 c 0.13661,0 0.24657,0.11972 0.24657,0.2685 4.1015,9.6068 2.9062,22.295 0,28.982 0,0.14878 -0.10994,0.26851 -0.24657,0.26851 H 225.55 c -0.13659,0 -0.24656,-0.11973 -0.24656,-0.26851 -4.1457,-8.194 -4.0808,-21.376 0,-28.982 0,-0.14878 0.10994,-0.2685 0.24656,-0.2685 z"
         inkscape:connector-curvature="0" />
    </clipPath>
    <linearGradient
       id="linearGradient9396">
      <stop
         id="stop9398"
         style="stop-color:#cfcfcf"
         offset="0" />
      <stop
         id="stop9408"
         style="stop-color:#dfdfdf"
         offset=".17611" />
      <stop
         id="stop9410"
         style="stop-color:#b3b3b3"
         offset=".26417" />
      <stop
         id="stop9412"
         style="stop-color:#fff"
         offset=".36968" />
      <stop
         id="stop9404"
         style="stop-color:#f0f0f0"
         offset=".47518" />
      <stop
         id="stop9406"
         style="stop-color:#999"
         offset=".75" />
      <stop
         id="stop9400"
         style="stop-color:#d9d9d9"
         offset="1" />
    </linearGradient>
    <filter
       id="filter9723"
       height="1.2292"
       width="1.0563999"
       color-interpolation-filters="sRGB"
       y="-0.11459"
       x="-0.028217001">
      <feGaussianBlur
         id="feGaussianBlur9725"
         stdDeviation="0.14622642" />
    </filter>
    <clipPath
       id="clipPath9796">
      <rect
         id="rect9798"
         style="color:#000000;fill:url(#linearGradient9800);enable-background:new"
         rx="3.1888001"
         ry="3.1888001"
         height="6.3775001"
         width="17.919001"
         y="89.935997"
         x="111.3" />
    </clipPath>
    <linearGradient
       id="linearGradient9760">
      <stop
         id="stop9762"
         style="stop-color:#555"
         offset="0" />
      <stop
         id="stop9764"
         style="stop-color:#242424"
         offset="1" />
    </linearGradient>
    <radialGradient
       id="radialGradient8272"
       xlink:href="#linearGradient5060"
       gradientUnits="userSpaceOnUse"
       cy="486.64999"
       cx="605.71002"
       gradientTransform="matrix(-2.7744,0,0,1.9697,112.76,-872.89)"
       r="117.14" />
    <linearGradient
       id="linearGradient5060">
      <stop
         id="stop5062"
         offset="0" />
      <stop
         id="stop5064"
         style="stop-opacity:0"
         offset="1" />
    </linearGradient>
    <radialGradient
       id="radialGradient8270"
       xlink:href="#linearGradient5060"
       gradientUnits="userSpaceOnUse"
       cy="486.64999"
       cx="605.71002"
       gradientTransform="matrix(2.7744,0,0,1.9697,-1891.6,-872.89)"
       r="117.14" />
    <linearGradient
       id="linearGradient8268"
       y2="609.51001"
       gradientUnits="userSpaceOnUse"
       x2="302.85999"
       gradientTransform="matrix(2.7744,0,0,1.9697,-1892.2,-872.89)"
       y1="366.64999"
       x1="302.85999">
      <stop
         id="stop5050"
         style="stop-opacity:0"
         offset="0" />
      <stop
         id="stop5056"
         offset=".5" />
      <stop
         id="stop5052"
         style="stop-opacity:0"
         offset="1" />
    </linearGradient>
    <radialGradient
       id="radialGradient4081"
       gradientUnits="userSpaceOnUse"
       cy="188.5"
       cx="171.25"
       gradientTransform="matrix(1.2634,0,0,1.2634,-45.113,-49.657)"
       r="19">
      <stop
         id="stop10697"
         style="stop-color:#0052cb"
         offset="0" />
      <stop
         id="stop10699"
         style="stop-color:#204a87;stop-opacity:0"
         offset="1" />
    </radialGradient>
    <linearGradient
       id="linearGradient4095"
       y2="92.843002"
       gradientUnits="userSpaceOnUse"
       x2="125.59"
       gradientTransform="matrix(1,0,0,0.89694,-0.5,10.85)"
       y1="92.843002"
       x1="111.77">
      <stop
         id="stop9729"
         style="stop-color:#bfbfbf"
         offset="0" />
      <stop
         id="stop9731"
         style="stop-color:#6e6e6e"
         offset=".10442" />
      <stop
         id="stop9734"
         style="stop-color:#f5f5f5"
         offset=".35096" />
      <stop
         id="stop9736"
         style="stop-color:#3b3b3b"
         offset=".44291" />
      <stop
         id="stop9738"
         style="stop-color:#8d8d8d"
         offset=".50115" />
      <stop
         id="stop9740"
         style="stop-color:#343434"
         offset=".62146" />
      <stop
         id="stop9752"
         style="stop-color:silver"
         offset=".77173" />
      <stop
         id="stop9742"
         style="stop-color:#505050"
         offset="1" />
    </linearGradient>
    <radialGradient
       id="radialGradient4097"
       xlink:href="#linearGradient9779"
       gradientUnits="userSpaceOnUse"
       cy="93.125"
       cx="117.12"
       r="0.875" />
    <radialGradient
       id="radialGradient3050"
       xlink:href="#linearGradient9779"
       gradientUnits="userSpaceOnUse"
       cy="82.641998"
       cx="90.583"
       gradientTransform="matrix(0.77486096,0,0,0.41999522,-34.255435,-8.7983995)"
       r="15.472" />
    <linearGradient
       id="linearGradient3053"
       y2="103"
       gradientUnits="userSpaceOnUse"
       x2="100.09"
       gradientTransform="matrix(0.63928959,0,0,0.61861274,-23.995656,-26.206277)"
       y1="103"
       x1="59.312">
      <stop
         id="stop9845"
         style="stop-color:#bfbfbf"
         offset="0" />
      <stop
         id="stop9865"
         offset=".30804" />
      <stop
         id="stop9859"
         style="stop-color:#f5f5f5"
         offset=".35096" />
      <stop
         id="stop9861"
         style="stop-color:#3b3b3b"
         offset=".44291" />
      <stop
         id="stop9867"
         style="stop-color:#8d8d8d"
         offset=".50115" />
      <stop
         id="stop9863"
         style="stop-color:#343434"
         offset=".66666" />
      <stop
         id="stop9847"
         style="stop-color:#8f8f8f"
         offset="1" />
    </linearGradient>
    <radialGradient
       id="radialGradient3056"
       gradientUnits="userSpaceOnUse"
       cy="95.124001"
       cx="79.688004"
       gradientTransform="matrix(0.58168608,-8.7743791e-8,3.8395396e-8,0.23833843,-19.406385,11.861258)"
       r="6.9375">
      <stop
         id="stop9877"
         style="stop-color:#fff"
         offset="0" />
      <stop
         id="stop9879"
         style="stop-color:#d9d9d9"
         offset="1" />
    </radialGradient>
    <radialGradient
       id="radialGradient3059"
       xlink:href="#linearGradient5060"
       gradientUnits="userSpaceOnUse"
       cy="74.847"
       cx="79.561996"
       gradientTransform="matrix(1.5112588,8.9579708e-7,-1.3427972e-7,0.22653908,-93.371948,8.5120783)"
       r="14.938" />
    <radialGradient
       id="radialGradient3062"
       xlink:href="#linearGradient9739"
       gradientUnits="userSpaceOnUse"
       cy="87.75"
       cx="79"
       gradientTransform="matrix(0.63928959,0,0,0.30931939,-23.543578,1.4379663)"
       r="15" />
    <radialGradient
       id="radialGradient3065"
       xlink:href="#linearGradient9739"
       gradientUnits="userSpaceOnUse"
       cy="99.142998"
       cx="77.987999"
       gradientTransform="matrix(0.86889634,0,0,0.4954631,-41.682433,-14.297297)"
       r="15" />
    <radialGradient
       id="radialGradient3077"
       gradientUnits="userSpaceOnUse"
       cy="72.530998"
       cx="330.57999"
       gradientTransform="matrix(5.0926503,9.2683839e-6,-1.2928498e-5,5.0848379,-1605.123,-307.24474)"
       r="2.5156">
      <stop
         id="stop10948"
         style="stop-color:#999a97"
         offset="0" />
      <stop
         id="stop10950"
         style="stop-color:#999a97;stop-opacity:0"
         offset="1" />
    </radialGradient>
    <radialGradient
       id="radialGradient3080"
       xlink:href="#linearGradient9779"
       gradientUnits="userSpaceOnUse"
       cy="86.375"
       cx="190.75"
       gradientTransform="matrix(1.9712275,0,0,0.42194831,-301.72635,-8.9439731)"
       r="27.625" />
    <radialGradient
       id="radialGradient3083"
       xlink:href="#linearGradient9779"
       gradientUnits="userSpaceOnUse"
       cy="164.25"
       cx="33.5"
       gradientTransform="matrix(18.879993,-2.4026549e-4,0.00292965,31.353809,-749.66792,-5086.0445)"
       r="1" />
    <radialGradient
       id="radialGradient3086"
       xlink:href="#linearGradient9779"
       gradientUnits="userSpaceOnUse"
       cy="164.25"
       cx="33.5"
       gradientTransform="matrix(18.879993,-2.4026549e-4,0.00292965,31.353809,-642.8983,-5086.0445)"
       r="1" />
    <linearGradient
       id="linearGradient3102"
       y2="215.47"
       gradientUnits="userSpaceOnUse"
       x2="202.41"
       gradientTransform="matrix(0.56895185,0,0,0.63358653,-23.027959,-57.763209)"
       y1="215.47"
       x1="157.06">
      <stop
         id="stop11019"
         style="stop-color:#67767d"
         offset="0" />
      <stop
         id="stop11025"
         style="stop-color:#eef0f1"
         offset=".17504" />
      <stop
         id="stop11027"
         style="stop-color:#f1f3f4"
         offset=".82561" />
      <stop
         id="stop11021"
         style="stop-color:#89939d"
         offset="1" />
    </linearGradient>
    <linearGradient
       id="linearGradient3106"
       y2="160.24001"
       xlink:href="#linearGradient9396"
       gradientUnits="userSpaceOnUse"
       x2="284.32001"
       gradientTransform="matrix(0.40064647,0,0,0.38580289,2.0240473,7.1068853)"
       y1="230.27"
       x1="175.11" />
    <linearGradient
       id="linearGradient3109"
       y2="185"
       gradientUnits="userSpaceOnUse"
       x2="244"
       gradientTransform="matrix(0.4858278,0,0,0.53017625,-8.2580751,-33.193174)"
       y1="185"
       x1="140">
      <stop
         id="stop9519-6"
         style="stop-color:#ababab"
         offset="0" />
      <stop
         id="stop9525-3"
         style="stop-color:#fff"
         offset=".36251" />
      <stop
         id="stop9521-8"
         style="stop-color:#52544e"
         offset="1" />
    </linearGradient>
    <linearGradient
       id="linearGradient3111"
       y2="173.92999"
       gradientUnits="userSpaceOnUse"
       x2="160.06"
       gradientTransform="matrix(0.45390108,0,0,0.46887487,-3.3732349,-12.272839)"
       y1="138.42"
       x1="169.89">
      <stop
         id="stop11465"
         style="stop-color:#202121"
         offset="0" />
      <stop
         id="stop11467"
         style="stop-color:#667377"
         offset="1" />
    </linearGradient>
    <linearGradient
       id="linearGradient3114"
       y2="185"
       xlink:href="#linearGradient9396"
       gradientUnits="userSpaceOnUse"
       x2="249.38"
       gradientTransform="matrix(0.60095669,0,0,0.55660824,-36.437702,-33.714004)"
       y1="224.42"
       x1="181.96001" />
    <linearGradient
       id="linearGradient3129"
       y2="102.52"
       xlink:href="#linearGradient9779"
       gradientUnits="userSpaceOnUse"
       x2="146.07001"
       gradientTransform="matrix(0.48590592,0,0,0.4805414,-8.1445347,-15.084528)"
       y1="116.32"
       x1="146.07001" />
    <radialGradient
       id="radialGradient3132"
       xlink:href="#linearGradient9779"
       gradientUnits="userSpaceOnUse"
       cy="246.5"
       cx="160.5"
       gradientTransform="matrix(0.48590592,0,0,0.23540096,-8.1445347,45.191347)"
       r="88.5" />
    <linearGradient
       id="linearGradient3136"
       y2="62.195"
       gradientUnits="userSpaceOnUse"
       x2="311.12"
       gradientTransform="matrix(2.7528332,0,0,2.5252316,-828.15264,-120.8953)"
       y1="57.490002"
       x1="311.12">
      <stop
         id="stop11058"
         style="stop-color:#222"
         offset="0" />
      <stop
         id="stop11060"
         style="stop-color:#222;stop-opacity:0"
         offset="1" />
    </linearGradient>
    <linearGradient
       id="linearGradient3140"
       y2="91.75"
       xlink:href="#linearGradient9779"
       gradientUnits="userSpaceOnUse"
       x2="163.25"
       gradientTransform="matrix(0.4782758,0,0,0.4805414,-7.0044435,-15.084528)"
       y1="107.25"
       x1="163.25" />
    <linearGradient
       id="linearGradient3144"
       y2="207.78"
       gradientUnits="userSpaceOnUse"
       x2="188.8"
       gradientTransform="matrix(0.64991447,0,0,0.60280563,-45.895927,-42.154011)"
       y1="135.56"
       x1="188.8">
      <stop
         id="stop11073"
         style="stop-color:#fff"
         offset="0" />
      <stop
         id="stop11075"
         style="stop-color:#060606"
         offset="1" />
    </linearGradient>
    <radialGradient
       id="radialGradient3147"
       xlink:href="#linearGradient5060"
       gradientUnits="userSpaceOnUse"
       cy="95.75"
       cx="146.25"
       gradientTransform="matrix(1.2910269,-2.8372072e-7,0,0.0288955,-125.89502,28.160291)"
       r="112.25" />
    <radialGradient
       id="radialGradient3150"
       gradientUnits="userSpaceOnUse"
       cy="163.67"
       cx="171.86"
       gradientTransform="matrix(0.80116275,-0.21581785,0.30049137,1.1086592,-112.37955,-73.377612)"
       r="106.11">
      <stop
         id="stop9129"
         style="stop-color:#f0f0f0"
         offset="0" />
      <stop
         id="stop9131"
         style="stop-color:#a9a9a9"
         offset="1" />
    </radialGradient>
    <linearGradient
       id="linearGradient3152"
       y2="23.164"
       gradientUnits="userSpaceOnUse"
       x2="46.129002"
       gradientTransform="matrix(2.626793,0,0,2.6296575,-0.54764208,5.8490903)"
       y1="23.164"
       x1="2.4999001">
      <stop
         id="stop10171"
         style="stop-color:#8f8f8f"
         offset="0" />
      <stop
         id="stop10177"
         style="stop-color:#5f5f5f"
         offset=".088032" />
      <stop
         id="stop10179"
         style="stop-color:#616161"
         offset=".92656" />
      <stop
         id="stop10173"
         style="stop-color:#9e9e9e"
         offset="1" />
    </linearGradient>
    <linearGradient
       id="linearGradient3155"
       y2="83"
       xlink:href="#linearGradient9760"
       gradientUnits="userSpaceOnUse"
       x2="163.5"
       gradientTransform="matrix(0.48590592,0,0,0.52632212,-8.1445347,-19.891244)"
       y1="87.5"
       x1="163.5" />
    <linearGradient
       id="linearGradient3976"
       y2="232.28"
       gradientUnits="userSpaceOnUse"
       x2="250.5"
       gradientTransform="matrix(0.50546299,0,0,0.49989013,-13.821814,-20.709464)"
       y1="232.28"
       x1="234.87">
      <stop
         id="stop11549"
         style="stop-color:#c17d11"
         offset="0" />
      <stop
         id="stop11551"
         style="stop-color:#eda32c"
         offset="1" />
    </linearGradient>
    <linearGradient
       id="linearGradient4125"
       y2="91.811996"
       xlink:href="#linearGradient9760"
       gradientUnits="userSpaceOnUse"
       x2="129.22"
       gradientTransform="matrix(0.9784003,0,0,0.96759314,-63.783744,-58.992361)"
       y1="91.811996"
       x1="124.14" />
    <linearGradient
       id="linearGradient4128"
       y2="95.25"
       gradientUnits="userSpaceOnUse"
       x2="126.34"
       gradientTransform="matrix(0.9784003,0,0,0.96759314,-63.783744,-58.992361)"
       y1="92.375"
       x1="126.42">
      <stop
         id="stop9788"
         style="stop-color:#949494"
         offset="0" />
      <stop
         id="stop9790"
         style="stop-color:#f1f1f1"
         offset="1" />
    </linearGradient>
    <radialGradient
       inkscape:collect="always"
       xlink:href="#linearGradient9779"
       id="radialGradient3145"
       gradientUnits="userSpaceOnUse"
       cx="117.12"
       cy="93.125"
       r="0.875" />
  </defs>
  <g
     id="g5022"
     transform="matrix(0.0615618,0,0,0.02721844,118.07616,103.41464)">
    <rect
       id="rect4173"
       style="opacity:0.40206;fill:url(#linearGradient8268)"
       height="478.35999"
       width="1339.6"
       y="-150.7"
       x="-1559.3" />
    <path
       id="path5058"
       style="opacity:0.40206;fill:url(#radialGradient8270)"
       d="m -219.62,-150.68 v 478.33 c 142.87,0.90045 345.4,-107.17 345.4,-239.2 0,-132.03 -159.44,-239.13 -345.4,-239.13 z"
       inkscape:connector-curvature="0" />
    <path
       id="path5018"
       style="opacity:0.40206;fill:url(#radialGradient8272)"
       d="m -1559.3,-150.68 v 478.33 c -142.87,0.90045 -345.4,-107.17 -345.4,-239.2 0,-132.03 159.44,-239.13 345.4,-239.13 z"
       inkscape:connector-curvature="0" />
  </g>
  <path
     id="path9722"
     style="fill:url(#linearGradient3155);enable-background:new"
     d="m 42.389525,23.792633 c -1.095795,0 -2.104299,0.394657 -2.915331,1.052618 H 19.886396 c -3.68225,0 -6.650705,2.347343 -6.650705,5.263221 0,2.915878 2.968455,5.263221 6.650705,5.263221 h 92.381754 c 3.68225,0 6.65071,-2.347343 6.65071,-5.263221 0,-2.753614 -2.64763,-4.989006 -6.04342,-5.230149 -0.8151,-0.674471 -1.83332,-1.085144 -2.94528,-1.085144 H 42.391869 z"
     inkscape:connector-curvature="0" />
  <rect
     id="rect9736"
     style="fill:url(#radialGradient3150);stroke:url(#linearGradient3152);stroke-width:2.60413694;enable-background:new"
     rx="4.7851014"
     ry="5.0897856"
     height="78.124107"
     width="111.97789"
     y="27.699358"
     x="7.3326325" />
  <rect
     id="rect9740"
     style="opacity:0.32691997;fill:url(#radialGradient3147);fill-rule:evenodd"
     rx="3.2799106"
     ry="3.2437129"
     height="6.4871659"
     width="109.08469"
     y="27.683744"
     x="8.3758497" />
  <path
     id="path9744"
     style="opacity:0.60095999;fill:url(#linearGradient3144);enable-background:new"
     d="m 112.6856,69.365551 a 33.796492,32.551714 0 0 1 -67.592981,0 33.796492,32.551714 0 1 1 67.592981,0 z"
     inkscape:connector-curvature="0" />
  <path
     id="path9759"
     style="fill:url(#linearGradient3140);enable-background:new"
     d="m 118.00585,31.165465 c 0,0 0.17976,2.810385 -3.5872,2.833822 l -77.660571,0.480541 c -4.065319,2.628877 -8.29027,2.628877 -12.674595,0 H 11.408888 c -3.617146,-0.10953 -2.6603861,-4.3812 -2.6603861,-4.3812 0,0 1.6440961,1.862063 4.2147961,1.752533 H 113.64183 c 2.9294,0.10953 4.36428,-0.685461 4.36428,-0.685461 z"
     inkscape:connector-curvature="0" />
  <path
     id="path9782"
     style="fill:#ffffff;enable-background:new"
     d="m 118.00845,32.368576 c 0,0 -1.99008,3.003352 -3.61819,3.003352 H 36.115117 c -4.100734,1.441598 -8.362404,1.441598 -12.78475,0 H 11.148735 c -1.9322697,-0.05989 -3.1382455,-2.403619 -3.1382455,-2.403619 0,0 1.5076391,1.021134 4.1007345,0.961057 h 10.613681 c 4.743957,2.8833 10.473058,2.8833 14.412857,0 h 76.527768 c 2.95492,0.06008 4.34188,-1.561727 4.34188,-1.561727 z"
     inkscape:connector-curvature="0" />
  <path
     id="path11054"
     style="opacity:0.80769001;fill:none;stroke:url(#linearGradient3136);stroke-width:2.60413694;enable-background:new"
     d="m 41.186414,30.303496 a 14.322753,7.8124115 0 0 1 -28.645507,0 14.322753,7.8124115 0 1 1 28.645507,0 z"
     inkscape:connector-curvature="0" />
  <rect
     id="rect9790"
     style="opacity:0.4;fill:url(#radialGradient3132);fill-rule:evenodd"
     height="2.6041369"
     width="86.004227"
     y="101.91727"
     x="26.839962" />
  <path
     id="path9792"
     style="opacity:0.32691997;fill:url(#linearGradient3129);enable-background:new"
     d="m 116.57097,35.282606 c 0,0 -1.58173,2.011852 -4.51792,2.011852 l -98.769704,-0.0625 c -1.943571,-0.06005 -3.5541261,-1.592639 -3.5541261,-1.592639 0,0 1.0030611,0.511453 3.6148031,0.451376 h 9.85171 c 4.428856,1.26186 8.843389,1.250714 13.240735,0 h 76.611102 c 1.68779,0 3.52288,-0.810538 3.52288,-0.810538 z"
     inkscape:connector-curvature="0" />
  <rect
     id="rect9757"
     style="fill:url(#linearGradient4128);enable-background:new"
     rx="2.7530935"
     ry="2.7530935"
     height="6.170763"
     width="17.531311"
     y="28.027479"
     x="45.10564" />
  <path
     id="path9826"
     style="fill:url(#linearGradient4125);enable-background:new"
     d="m 48.241021,28.030084 c -1.728392,0 -3.149183,1.37488 -3.149183,3.08434 0,0.183748 0.06086,0.369527 0.09164,0.544265 0.24294,-1.035483 1.503577,-1.81425 3.057518,-1.81425 h 11.282163 c 1.554826,0 2.815593,0.777855 3.057517,1.81425 0.03068,-0.174451 0.06117,-0.360856 0.06117,-0.544265 0,-1.709329 -1.390245,-3.08434 -3.118714,-3.08434 h -11.282163 6.5e-5 z"
     inkscape:connector-curvature="0" />
  <g
     id="g9828"
     transform="matrix(0.9784003,0,0,0.89926058,-63.783744,-52.40129)">
    <path
       id="path9830"
       style="fill:url(#linearGradient4095);enable-background:new"
       d="m 118.12,87.625 c -1.0041,0 -1.8125,0.80925 -1.8125,1.8125 0,0.43764 -0.6875,0.5 -0.6875,0.5 h -1.125 c -1.7666,0 -3.2188,1.3254 -3.2188,2.9688 v 0.4375 c 0,1.6433 1.4522,2.9688 3.2188,2.9688 h 7.4062 c 1.7666,0 3.1875,-1.3254 3.1875,-2.9688 v -0.4375 c 0,-1.6433 -1.4209,-2.9688 -3.1875,-2.9688 H 120.87 c 0,0 -0.9375,0 -0.9375,-0.5 0,-1.0041 -0.80837,-1.8125 -1.8125,-1.8125 z"
       inkscape:connector-curvature="0" />
    <path
       id="path9834"
       style="fill:url(#radialGradient3145);enable-background:new"
       d="m 118,93.125 a 0.875,0.875 0 1 1 -1.75,0 0.875,0.875 0 1 1 1.75,0 z"
       transform="matrix(1.7857,0,0,1.7857,-92.027,-73.545)"
       inkscape:connector-curvature="0" />
    <path
       id="path9836"
       style="fill:url(#radialGradient4097);enable-background:new"
       d="m 118,93.125 a 0.875,0.875 0 1 1 -1.75,0 0.875,0.875 0 1 1 1.75,0 z"
       transform="translate(-1.125,1.6875)"
       inkscape:connector-curvature="0" />
    <rect
       id="rect9840"
       style="fill:#ffffff;enable-background:new"
       rx="0.34143001"
       ry="0.34143001"
       height="4.875"
       width="1.375"
       y="88.125"
       x="116.75" />
    <path
       id="path9844"
       style="fill:#191919;filter:url(#filter9723);enable-background:new"
       clip-path="url(#clipPath9796)"
       d="m 111.94,94.956 c 0,0 0.31125,1.4375 1.875,1.4375 h 8.0625 c 1.4375,0 2.5,-1.3125 2.5,-1.3125 0,0 -1.625,1.125 -2.5625,1 h -2 c -0.875,0 -0.5625,-2.6875 -1.5,-2.75 h -1.0625 c -0.75,0.125 -0.5,2.625 -1.4375,2.5625 h -2 c -1,0.0625 -1.875,-0.9375 -1.875,-0.9375 z"
       transform="translate(0,-0.067249)"
       inkscape:connector-curvature="0" />
  </g>
  <path
     id="path9884"
     style="fill:url(#linearGradient3114);fill-rule:evenodd"
     d="m 110.19604,69.256177 a 31.249644,30.056949 0 0 1 -62.499284,0 31.249644,30.056949 0 1 1 62.499284,0 z"
     inkscape:connector-curvature="0" />
  <path
     id="path9909"
     style="fill:url(#linearGradient3109);fill-rule:evenodd;stroke:url(#linearGradient3111);stroke-width:2.60413694"
     d="m 78.9464,48.532455 c -12.009238,0 -21.887511,10.50587 -21.887511,23.251558 l -0.247654,5.622852 c 0,12.890218 9.989209,23.208065 22.135165,23.208065 12.145955,0 22.13516,-10.318107 22.13516,-23.208065 l -0.24765,-5.622852 c 0,-12.745949 -9.878272,-23.251558 -21.88751,-23.251558 z"
     inkscape:connector-curvature="0" />
  <path
     id="path9911"
     style="fill:url(#linearGradient3106);fill-rule:evenodd"
     d="m 99.779496,78.48003 a 20.833096,20.833096 0 0 1 -41.666192,0 20.833096,20.833096 0 1 1 41.666192,0 z"
     inkscape:connector-curvature="0" />
  <path
     id="path9915"
     style="fill:#999999;fill-rule:evenodd"
     d="m 94.571222,78.48003 a 15.624822,15.624822 0 0 1 -31.249644,0 15.624822,15.624822 0 1 1 31.249644,0 z"
     inkscape:connector-curvature="0" />
  <path
     id="path9917"
     style="fill:url(#linearGradient3102);enable-background:new"
     d="m 68.391833,68.592122 h 21.950531 c 0.08443,0 0.152394,0.08255 0.152394,0.184894 2.535622,6.613726 1.796646,15.349043 0,19.952637 0,0.102342 -0.06797,0.184893 -0.152394,0.184893 H 68.391833 c -0.08443,0 -0.152395,-0.08255 -0.152395,-0.184893 -2.562965,-5.641082 -2.522809,-14.715978 0,-19.952637 0,-0.102343 0.06797,-0.184894 0.152395,-0.184894 z"
     inkscape:connector-curvature="0" />
  <path
     id="path9919"
     style="enable-background:new"
     d="m 68.032462,67.402031 h 21.039604 c 0.08096,0 0.146118,0.07474 0.146118,0.167707 2.430363,6.000973 1.722063,13.926664 0,18.1037 0,0.09297 -0.06516,0.167706 -0.146118,0.167706 H 68.032462 c -0.08094,0 -0.146092,-0.07474 -0.146092,-0.167706 -2.456587,-5.118432 -2.418098,-13.352452 0,-18.1037 0,-0.09297 0.06516,-0.167707 0.146092,-0.167707 z"
     inkscape:connector-curvature="0" />
  <path
     id="path9923"
     style="fill:none;enable-background:new"
     d="M 58.386738,88.529395 A 27.658539,27.353855 0 1 1 100.73261,53.334483 27.658539,27.353855 0 1 1 58.386738,88.529395 z"
     inkscape:connector-curvature="0" />
  <rect
     id="rect9945"
     style="fill:url(#linearGradient3976);enable-background:new"
     rx="1.0919406"
     ry="1.0798836"
     height="7.8124108"
     width="7.8996496"
     y="91.500717"
     x="104.89922" />
  <path
     id="path9983"
     style="fill:#555555;enable-background:new"
     d="m 114.30016,42.097632 a 3.401265,3.3637654 0 0 1 -6.80253,0 3.401265,3.3637654 0 1 1 6.80253,0 z"
     inkscape:connector-curvature="0" />
  <path
     id="path9985"
     style="enable-background:new"
     d="m 114.30016,41.618471 a 3.401265,3.3637654 0 0 1 -6.80253,0 3.401265,3.3637654 0 1 1 6.80253,0 z"
     inkscape:connector-curvature="0" />
  <path
     id="path9987"
     style="fill:#696969;enable-background:new"
     d="m 110.89916,39.365893 c -1.26113,0 -2.27763,1.005301 -2.27763,2.2525 0,0.193617 0.0295,0.37622 0.0759,0.555619 0.16921,-0.668118 0.62916,-1.217434 1.24511,-1.50165 -0.0245,0.0856 -0.0455,0.176951 -0.0455,0.270309 0,0.543848 0.45226,0.976083 1.00215,0.976083 0.54992,0 1.00215,-0.432235 1.00215,-0.976083 0,-0.09333 -0.0211,-0.184711 -0.0455,-0.270309 0.61596,0.284242 1.0759,0.833532 1.24512,1.50165 0.0464,-0.179399 0.0759,-0.362002 0.0759,-0.555619 0,-1.247199 -1.01652,-2.2525 -2.27763,-2.2525 h -5e-5 z"
     inkscape:connector-curvature="0" />
  <path
     id="path9989"
     style="opacity:0.26923002;fill:#454545;fill-rule:evenodd"
     d="m 112.27675,41.858052 a 1.37707,1.3618613 0 0 1 -2.75414,0 1.37707,1.3618613 0 1 1 2.75414,0 z"
     inkscape:connector-curvature="0" />
  <g
     id="g10001"
     transform="matrix(0.5120775,0,0,0.52054094,-46.372484,-136.68419)"
     clip-path="url(#clipPath10731)">
    <path
       id="path10003"
       style="fill-rule:evenodd"
       d="m 200,201 a 19,19 0 1 1 -38,0 19,19 0 1 1 38,0 z"
       transform="translate(62.194,210.14)"
       inkscape:connector-curvature="0" />
    <path
       id="path10013"
       style="fill:url(#radialGradient4081);fill-rule:evenodd"
       d="m 200,201 a 19,19 0 1 1 -38,0 19,19 0 1 1 38,0 z"
       transform="translate(62.194,210.14)"
       inkscape:connector-curvature="0" />
  </g>
  <rect
     id="rect10015"
     style="opacity:0.4;fill:url(#radialGradient3086);enable-background:new"
     transform="scale(-1,1)"
     rx="13.09933"
     ry="5.0897856"
     height="62.71022"
     width="2.6041369"
     y="32.488358"
     x="-11.238578" />
  <rect
     id="rect10017"
     style="opacity:0.4;fill:url(#radialGradient3083);enable-background:new"
     transform="scale(-1,1)"
     rx="3.9999545"
     ry="5.0897856"
     height="62.71022"
     width="2.6041369"
     y="32.488358"
     x="-118.00845" />
  <rect
     id="rect10019"
     style="opacity:0.75480999;fill:url(#radialGradient3080);enable-background:new"
     rx="0.84840178"
     ry="0.42046395"
     height="2.9997056"
     width="74.077278"
     y="26.000944"
     x="37.246357" />
  <rect
     id="rect10944"
     style="fill:url(#radialGradient3077);enable-background:new"
     height="2.6041369"
     width="14.575355"
     y="60.251072"
     x="71.133987" />
  <path
     id="path10956"
     style="opacity:0.51923002;fill:none;stroke:#2e3436;stroke-width:2.60413694;enable-background:new"
     d="m 83.675513,43.324181 a 26.270534,27.174169 0 0 1 14.916236,7.693922"
     inkscape:connector-curvature="0" />
  <path
     id="path9796"
     style="opacity:0.25;fill:#ffffff;enable-background:new"
     d="m 73.738126,32.907633 a 3.9062055,3.9062055 0 0 1 -7.812411,0 3.9062055,3.9062055 0 1 1 7.812411,0 z"
     inkscape:connector-curvature="0" />
  <path
     id="path9798"
     style="opacity:0.40799997;enable-background:new"
     d="m 72.436057,31.605564 a 2.604137,2.604137 0 0 1 -5.208274,0 2.604137,2.604137 0 1 1 5.208274,0 z"
     inkscape:connector-curvature="0" />
  <path
     id="path10987"
     style="opacity:0.25;fill:#ffffff;enable-background:new"
     d="m 78.9464,32.907633 a 3.9062055,3.9062055 0 0 1 -7.812411,0 3.9062055,3.9062055 0 1 1 7.812411,0 z"
     inkscape:connector-curvature="0" />
  <path
     id="path10989"
     style="opacity:0.40799997;enable-background:new"
     d="m 77.644331,31.605564 a 2.604137,2.604137 0 0 1 -5.208274,0 2.604137,2.604137 0 1 1 5.208274,0 z"
     inkscape:connector-curvature="0" />
  <path
     id="path10997"
     style="opacity:0.25;fill:#ffffff;enable-background:new"
     d="m 84.154674,32.907633 a 3.9062055,3.9062055 0 0 1 -7.812411,0 3.9062055,3.9062055 0 1 1 7.812411,0 z"
     inkscape:connector-curvature="0" />
  <path
     id="path10999"
     style="opacity:0.40799997;enable-background:new"
     d="m 82.852605,31.605564 a 2.604137,2.604137 0 0 1 -5.208274,0 2.604137,2.604137 0 1 1 5.208274,0 z"
     inkscape:connector-curvature="0" />
  <path
     id="path11007"
     style="opacity:0.20499998;fill:#ffffff;enable-background:new"
     d="m 89.362948,32.907633 a 3.9062055,3.9062055 0 0 1 -7.812411,0 3.9062055,3.9062055 0 1 1 7.812411,0 z"
     inkscape:connector-curvature="0" />
  <path
     id="path11009"
     style="opacity:0.40799997;enable-background:new"
     d="m 88.060879,31.605564 a 2.604137,2.604137 0 0 1 -5.208274,0 2.604137,2.604137 0 1 1 5.208274,0 z"
     inkscape:connector-curvature="0" />
  <path
     id="path9764"
     style="fill:url(#radialGradient3065);enable-background:new"
     d="m 39.993719,31.037862 a 13.033706,7.4323554 0 0 1 -26.067411,0 13.033706,7.4323554 0 1 1 26.067411,0 z"
     inkscape:connector-curvature="0" />
  <path
     id="path9766"
     style="fill:url(#radialGradient3062);enable-background:new"
     d="m 36.548446,29.738398 a 9.589214,4.6395306 0 0 1 -19.178428,0 9.589214,4.6395306 0 1 1 19.178428,0 z"
     inkscape:connector-curvature="0" />
  <path
     id="path9770"
     style="fill:url(#radialGradient3059);enable-background:new"
     d="m 17.317675,29.2358 c 2.904394,-4.785623 18.819317,-3.164027 19.09796,-0.153644 -4.393179,-0.216144 -13.31938,-0.114582 -19.09796,0.153644 z"
     inkscape:connector-curvature="0" />
  <path
     id="path9776"
     style="fill:url(#radialGradient3056);enable-background:new"
     d="m 31.381838,35.925828 a 4.4351057,1.8171928 0 0 1 -8.869951,0 4.4351057,1.8171928 0 1 1 8.869951,0 z"
     inkscape:connector-curvature="0" />
  <path
     id="path9778"
     style="fill:url(#linearGradient3053);enable-background:new"
     d="m 14.081254,29.892042 c -0.102155,0.374683 -0.159819,0.749653 -0.159819,1.14056 0,2.639814 2.835645,5.026766 5.667384,6.053837 3.476002,3.138246 11.795438,2.610908 15.320398,-0.156795 2.644761,-1.165533 5.082754,-3.499439 5.082754,-5.897068 0,-0.390751 -0.03779,-0.766059 -0.139842,-1.14056 -0.739054,2.669501 -3.984069,4.855153 -8.310582,5.780143 v -0.01927 c -2.018206,-1.213528 -7.366322,-1.270819 -9.028803,0.07552 v -0.01927 c -4.386669,-0.91145 -7.684027,-3.124966 -8.430633,-5.820248 z"
     inkscape:connector-curvature="0" />
  <path
     id="path9780"
     style="fill:none;stroke:url(#radialGradient3050);stroke-width:2.60413694;enable-background:new"
     d="m 38.582277,29.631629 a 11.622785,4.5002093 0 1 1 -23.245569,0 11.622785,4.5002093 0 1 1 23.245569,0 z"
     inkscape:connector-curvature="0" />
  <path
     id="path11469"
     style="opacity:0.80769001;fill:none;stroke:#2e3436;stroke-width:2.60413694;enable-background:new"
     d="m 101.96436,55.298003 a 26.270534,27.174169 0 0 1 4.22469,12.583189"
     inkscape:connector-curvature="0" />
</svg>
