<?xml version="1.0" encoding="UTF-8" standalone="no"?>
<!-- Created with Inkscape (http://www.inkscape.org/) -->

<svg
   xmlns:dc="http://purl.org/dc/elements/1.1/"
   xmlns:cc="http://creativecommons.org/ns#"
   xmlns:rdf="http://www.w3.org/1999/02/22-rdf-syntax-ns#"
   xmlns:svg="http://www.w3.org/2000/svg"
   xmlns="http://www.w3.org/2000/svg"
   xmlns:xlink="http://www.w3.org/1999/xlink"
   xmlns:sodipodi="http://sodipodi.sourceforge.net/DTD/sodipodi-0.dtd"
   xmlns:inkscape="http://www.inkscape.org/namespaces/inkscape"
   width="128"
   height="128"
   id="svg2160"
   sodipodi:version="0.32"
   inkscape:version="0.48.1 r9760"
   version="1.0"
   sodipodi:docname="skype.svg"
   inkscape:output_extension="org.inkscape.output.svg.inkscape"
   inkscape:export-filename="/home/bertrand/thèmes/icons/skype.png"
   inkscape:export-xdpi="960"
   inkscape:export-ydpi="960"
   sodipodi:modified="true">
  <defs
     id="defs2162">
    <linearGradient
       id="linearGradient3791">
      <stop
         style="stop-color:#147da3;stop-opacity:1"
         offset="0"
         id="stop3793" />
      <stop
         id="stop3795"
         offset="0.91627175"
         style="stop-color:#00aff0;stop-opacity:1;" />
      <stop
         style="stop-color:#b0eaff;stop-opacity:1;"
         offset="1"
         id="stop3797" />
    </linearGradient>
    <linearGradient
       id="linearGradient3013">
      <stop
         id="stop3015"
         offset="0"
         style="stop-color:#00aff0;stop-opacity:1;" />
      <stop
         style="stop-color:#00aff0;stop-opacity:1;"
         offset="0.91627175"
         id="stop3017" />
      <stop
         id="stop3019"
         offset="1"
         style="stop-color:#b0eaff;stop-opacity:1;" />
    </linearGradient>
    <linearGradient
       id="linearGradient3276">
      <stop
         style="stop-color:#ffffff;stop-opacity:0;"
         offset="0"
         id="stop3278" />
      <stop
         id="stop3292"
         offset="0.09740455"
         style="stop-color:#ffffff;stop-opacity:0;" />
      <stop
         id="stop3323"
         offset="0.8592869"
         style="stop-color:#ffffff;stop-opacity:0.55555558;" />
      <stop
         style="stop-color:#ffffff;stop-opacity:0.62962961;"
         offset="1"
         id="stop3280" />
    </linearGradient>
    <linearGradient
       id="linearGradient3168">
      <stop
         style="stop-color:#00aff0;stop-opacity:1;"
         offset="0"
         id="stop3170" />
      <stop
         id="stop3176"
         offset="0.72000003"
         style="stop-color:#00aff0;stop-opacity:1;" />
      <stop
         style="stop-color:#b0eaff;stop-opacity:1;"
         offset="1"
         id="stop3172" />
    </linearGradient>
    <linearGradient
       inkscape:collect="always"
       xlink:href="#linearGradient3168"
       id="linearGradient3234"
       x1="46"
       y1="3"
       x2="46"
       y2="47"
       gradientUnits="userSpaceOnUse"
       gradientTransform="translate(50,-1)" />
    <radialGradient
       inkscape:collect="always"
       xlink:href="#linearGradient3276"
       id="radialGradient3325"
       gradientUnits="userSpaceOnUse"
       gradientTransform="matrix(-0.147663,-0.67136,1.71637,-0.377509,74.9467,74.6294)"
       cx="86.017921"
       cy="14.77215"
       fx="86.017921"
       fy="14.77215"
       r="21.296875" />
    <radialGradient
       inkscape:collect="always"
       xlink:href="#linearGradient3276"
       id="radialGradient3396"
       gradientUnits="userSpaceOnUse"
       gradientTransform="matrix(-0.147663,-0.67136,1.71637,-0.377509,74.9467,74.6294)"
       cx="86.017921"
       cy="14.77215"
       fx="86.017921"
       fy="14.77215"
       r="21.296875" />
    <linearGradient
       inkscape:collect="always"
       xlink:href="#linearGradient3168"
       id="linearGradient3399"
       gradientUnits="userSpaceOnUse"
       gradientTransform="translate(50,-1)"
       x1="46"
       y1="3"
       x2="46"
       y2="47" />
    <linearGradient
       inkscape:collect="always"
       xlink:href="#linearGradient3168"
       id="linearGradient3409"
       gradientUnits="userSpaceOnUse"
       gradientTransform="translate(50,-1)"
       x1="46"
       y1="3"
       x2="46"
       y2="47" />
    <radialGradient
       inkscape:collect="always"
       xlink:href="#linearGradient3276"
       id="radialGradient3411"
       gradientUnits="userSpaceOnUse"
       gradientTransform="matrix(-0.147663,-0.67136,1.71637,-0.377509,74.9467,74.6294)"
       cx="86.017921"
       cy="14.77215"
       fx="86.017921"
       fy="14.77215"
       r="21.296875" />
    <linearGradient
       inkscape:collect="always"
       xlink:href="#linearGradient3013"
       id="linearGradient3421"
       gradientUnits="userSpaceOnUse"
       gradientTransform="translate(1,-1)"
       x1="27.548271"
       y1="41.104885"
       x2="33.784267"
       y2="-0.43027562" />
    <linearGradient
       inkscape:collect="always"
       xlink:href="#linearGradient3791"
       id="linearGradient3789"
       gradientUnits="userSpaceOnUse"
       gradientTransform="matrix(2.7021277,0,0,2.7021277,1.8510639,-83.553192)"
       x1="19.13826"
       y1="46.13945"
       x2="33.784267"
       y2="-0.43027562" />
  </defs>
  <sodipodi:namedview
     id="base"
     pagecolor="#ffffff"
     bordercolor="#666666"
     borderopacity="1.0"
     inkscape:pageopacity="0.0"
     inkscape:pageshadow="2"
     inkscape:zoom="6.9765625"
     inkscape:cx="64"
     inkscape:cy="75.466965"
     inkscape:current-layer="layer1"
     showgrid="false"
     inkscape:grid-bbox="true"
     inkscape:document-units="px"
     inkscape:window-width="1870"
     inkscape:window-height="1056"
     inkscape:window-x="50"
     inkscape:window-y="24"
     inkscape:window-maximized="1" />
  <metadata
     id="metadata2165">
    <rdf:RDF>
      <cc:Work
         rdf:about="">
        <dc:format>image/svg+xml</dc:format>
        <dc:type
           rdf:resource="http://purl.org/dc/dcmitype/StillImage" />
      </cc:Work>
    </rdf:RDF>
  </metadata>
  <g
     id="layer1"
     inkscape:label="Layer 1"
     inkscape:groupmode="layer"
     style="display:inline"
     transform="translate(0,80)">
    <path
       style="fill:url(#linearGradient3789);fill-opacity:1;fill-rule:nonzero;stroke:#00aff0;stroke-width:2.7021277;stroke-opacity:0.42352941;display:inline"
       d="m 35.62766,-78.148939 c -18.644681,0 -33.7765962,15.131914 -33.7765962,33.776593 0,5.758797 1.4239241,11.213269 3.9687501,15.959443 -0.849603,3.999422 -1.2666223,8.161455 -1.2666223,12.412899 0,32.814644 26.6321714,59.446815 59.4468094,59.446812 4.251447,0 8.41348,-0.417019 12.412899,-1.266622 4.762414,2.567657 10.173003,3.96875 15.959442,3.96875 18.644688,0 33.776598,-15.131913 33.776598,-33.776596 0,-5.7864393 -1.4011,-11.1970285 -3.96875,-15.9594422 0.84961,-3.9994192 1.26662,-8.1614518 1.26662,-12.4129018 0,-32.814639 -26.63217,-59.446808 -59.446809,-59.446808 -4.252457,0 -8.412599,0.501066 -12.412899,1.351064 -4.746592,-2.545406 -10.199943,-4.053191 -15.959442,-4.053191 z"
       id="path3225"
       inkscape:connector-curvature="0" />
    <path
       style="fill:#ffffff;fill-opacity:1;fill-rule:evenodd;stroke:#ffffff;stroke-width:2.7021277px;stroke-linecap:butt;stroke-linejoin:miter;stroke-opacity:1;display:inline"
       d="m 62.902262,-53.534245 c -18.577128,0 -29.554522,8.359709 -29.554522,22.714762 0,15.615623 20.354717,19.64859 32.932182,21.3636972 11.772708,3.1544882 12.159577,4.9904462 12.159574,10.13297897 0,6.40927673 -8.093648,8.86635153 -13.59508,8.86635663 -16.610249,0 -15.383818,-12.0751333 -24.234707,-12.0751333 -4.559841,0 -6.75532,1.5199468 -6.75532,7.2619682 0,5.7420223 11.821809,16.8038573 30.398937,16.8038573 18.577128,0 30.398937,-7.177527 30.398937,-21.5325808 0,-14.7782262 -12.227404,-19.1487112 -28.372341,-23.4747352 -10.73901,-2.607185 -16.719419,-4.483797 -16.719416,-9.62633 0,-6.409276 6.827026,-8.866355 12.328458,-8.866355 16.61025,0 12.935015,10.639627 21.785905,10.639627 4.559841,0 7.34641,-0.928857 7.34641,-6.670877 0,-5.742022 -9.541889,-15.537236 -28.119017,-15.537236 z"
       id="path3337"
       inkscape:connector-curvature="0" />
    <path
       style="fill:#00aff0;fill-opacity:0.42414862;fill-rule:evenodd;stroke:none;display:inline"
       d="m 62.902262,-56.194151 c -9.693884,0 -17.688531,2.130643 -23.390293,6.501995 -5.701762,4.37135 -8.866356,10.964148 -8.866356,18.830452 0,8.981873 6.101696,14.99786 13.257314,18.408245 7.041477,3.3559835 15.362654,4.6996408 21.701462,5.5731386 0.102763,0.014051 0.236059,0.070579 0.337767,0.084442 5.366036,1.4760265 8.130761,2.8486939 8.950798,3.6309842 0.424661,0.4051138 0.548694,0.6381291 0.675531,1.1821809 0.126839,0.5440518 0.168884,1.36593364 0.168884,2.61768618 0,2.06721962 -1.119127,3.34032982 -3.293219,4.47539902 -2.174091,1.1350693 -5.251295,1.7732686 -7.599734,1.7732714 -7.650337,0 -10.421677,-2.4362573 -13.088431,-5.2353726 -1.333378,-1.39955885 -2.509569,-2.9954679 -4.222074,-4.3909575 -1.712506,-1.3954895 -4.097069,-2.4488032 -6.924202,-2.4488032 -2.580157,0 -5.142017,0.3640711 -7.008645,2.1954787 -1.866626,1.8314077 -2.448803,4.5532177 -2.448803,7.7686172 0,2.3627054 1.078136,4.5290471 2.702128,6.6708773 1.623992,2.141831 3.893242,4.190817 6.75532,6.079788 5.724154,3.777942 13.818721,6.670878 23.643617,6.670878 9.636566,0 17.714917,-1.794948 23.643618,-5.826463 5.9287,-4.031515 9.457446,-10.4045159 9.457446,-18.32380375 0,-8.13435295 -3.677933,-14.05356025 -9.288564,-17.90159525 -5.61063,-3.848036 -12.982891,-6.013073 -21.110372,-8.190826 l 0,-0.08444 c -5.336816,-1.295657 -9.433648,-2.420804 -11.821809,-3.630984 -1.194081,-0.605091 -1.976629,-1.188585 -2.364362,-1.688829 -0.387734,-0.500246 -0.506649,-0.842487 -0.506649,-1.604389 0,-2.245222 0.971737,-3.487034 2.78657,-4.559841 1.814832,-1.072807 4.491324,-1.68883 6.83976,-1.68883 7.72818,0 9.720432,2.021146 11.737367,4.390958 1.008467,1.184904 1.920084,2.642381 3.462102,3.96875 1.542017,1.326369 3.832344,2.279921 6.586436,2.279921 2.463397,0 4.908085,-0.113409 7.008644,-1.68883 2.100558,-1.575419 3.039893,-4.376056 3.039893,-7.684176 0,-4.367779 -3.06929,-8.657798 -8.275266,-12.159575 -5.205976,-3.501778 -12.782393,-5.995347 -22.545878,-5.995347 z m 0,2.702127 c 18.577128,0 28.119017,9.795214 28.119017,15.537234 0,5.742022 -2.786569,6.586437 -7.34641,6.586437 -8.85089,0 -5.175655,-10.639627 -21.785905,-10.639627 -5.501432,0 -12.328458,2.541521 -12.328458,8.950797 -3e-6,5.142533 5.980406,7.019145 16.719416,9.62633 16.144937,4.326023 28.372341,8.696509 28.372341,23.47473495 0,14.35505405 -11.821809,21.44813905 -30.398937,21.44813905 -18.577128,0 -30.398937,-10.977395 -30.398937,-16.7194156 0,-5.74202134 2.195479,-7.2619682 6.75532,-7.2619682 8.850889,0 7.624458,11.9906917 24.234707,11.9906917 5.501432,-5.1e-6 13.59508,-2.3726383 13.59508,-8.78191504 C 78.439499,-4.4231189 78.05263,-6.2590769 66.279922,-9.413565 53.702457,-11.128673 33.34774,-15.246081 33.34774,-30.861704 c 0,-14.355053 10.977394,-22.63032 29.554522,-22.63032 z"
       id="path3356"
       inkscape:connector-curvature="0" />
  </g>
</svg>
