<?xml version="1.0" encoding="UTF-8" standalone="no"?>
<!-- Created with Inkscape (http://www.inkscape.org/) -->

<svg
   xmlns:dc="http://purl.org/dc/elements/1.1/"
   xmlns:cc="http://creativecommons.org/ns#"
   xmlns:rdf="http://www.w3.org/1999/02/22-rdf-syntax-ns#"
   xmlns:svg="http://www.w3.org/2000/svg"
   xmlns="http://www.w3.org/2000/svg"
   xmlns:xlink="http://www.w3.org/1999/xlink"
   xmlns:sodipodi="http://sodipodi.sourceforge.net/DTD/sodipodi-0.dtd"
   xmlns:inkscape="http://www.inkscape.org/namespaces/inkscape"
   version="1.0"
   width="128"
   height="128"
   id="svg11300"
   style="display:inline;enable-background:new"
   inkscape:version="0.48.1 r9760"
   sodipodi:docname="gmplayer.svg">
  <metadata
     id="metadata62">
    <rdf:RDF>
      <cc:Work
         rdf:about="">
        <dc:format>image/svg+xml</dc:format>
        <dc:type
           rdf:resource="http://purl.org/dc/dcmitype/StillImage" />
        <dc:title>Candy Icon Theme</dc:title>
      </cc:Work>
    </rdf:RDF>
  </metadata>
  <sodipodi:namedview
     pagecolor="#ffffff"
     bordercolor="#666666"
     borderopacity="1"
     objecttolerance="10"
     gridtolerance="10"
     guidetolerance="10"
     inkscape:pageopacity="0"
     inkscape:pageshadow="2"
     inkscape:window-width="1920"
     inkscape:window-height="1027"
     id="namedview60"
     showgrid="false"
     inkscape:zoom="6.5546875"
     inkscape:cx="55.207876"
     inkscape:cy="64"
     inkscape:window-x="0"
     inkscape:window-y="24"
     inkscape:window-maximized="1"
     inkscape:current-layer="layer1-6" />
  <title
     id="title2897">Candy Icon Theme</title>
  <defs
     id="defs3">
    <linearGradient
       id="linearGradient3616">
      <stop
         id="stop3618"
         style="stop-color:#000000;stop-opacity:0"
         offset="0" />
      <stop
         id="stop3620"
         style="stop-color:#000000;stop-opacity:1"
         offset="1" />
    </linearGradient>
    <linearGradient
       id="linearGradient2831-3">
      <stop
         id="stop2833-9"
         style="stop-color:#729fcf;stop-opacity:1"
         offset="0" />
      <stop
         id="stop2835-7"
         style="stop-color:#729fcf;stop-opacity:0"
         offset="1" />
    </linearGradient>
    <linearGradient
       id="linearGradient3922">
      <stop
         id="stop3924"
         style="stop-color:#316297;stop-opacity:1"
         offset="0" />
      <stop
         id="stop3926"
         style="stop-color:#6da3dd;stop-opacity:1"
         offset="1" />
    </linearGradient>
    <linearGradient
       id="linearGradient3596">
      <stop
         id="stop3598"
         style="stop-color:#1e1e1e;stop-opacity:1"
         offset="0" />
      <stop
         id="stop3600"
         style="stop-color:#505050;stop-opacity:1"
         offset="1" />
    </linearGradient>
    <linearGradient
       id="linearGradient3652">
      <stop
         id="stop3654"
         style="stop-color:#000000;stop-opacity:1"
         offset="0" />
      <stop
         id="stop3656"
         style="stop-color:#323232;stop-opacity:1"
         offset="1" />
    </linearGradient>
    <linearGradient
       id="linearGradient5594">
      <stop
         id="stop5596"
         style="stop-color:#ffffff;stop-opacity:1"
         offset="0" />
      <stop
         id="stop5598"
         style="stop-color:#ffffff;stop-opacity:0"
         offset="1" />
    </linearGradient>
    <linearGradient
       id="linearGradient3667">
      <stop
         id="stop3669"
         style="stop-color:#2b4561;stop-opacity:1"
         offset="0" />
      <stop
         id="stop3671"
         style="stop-color:#4a85c4;stop-opacity:1"
         offset="1" />
    </linearGradient>
    <linearGradient
       x1="158"
       y1="6"
       x2="158"
       y2="-38"
       id="linearGradient4739"
       xlink:href="#linearGradient3667"
       gradientUnits="userSpaceOnUse"
       gradientTransform="matrix(2.6923077,0,0,1,-358.38462,118)" />
    <radialGradient
       cx="158"
       cy="8.3000002"
       r="14"
       fx="158"
       fy="8.3000002"
       id="radialGradient4742"
       xlink:href="#linearGradient5594"
       gradientUnits="userSpaceOnUse"
       gradientTransform="matrix(2.5714285,0,0,0.35714282,-339.2857,14.035715)" />
    <radialGradient
       cx="158"
       cy="11.484326"
       r="19"
       fx="158"
       fy="11.484326"
       id="radialGradient4745"
       xlink:href="#linearGradient5594"
       gradientUnits="userSpaceOnUse"
       gradientTransform="matrix(3.1024933,6.2386781e-8,-5.0740095e-8,4.5633972,-423.19392,-25.021195)" />
    <radialGradient
       cx="158"
       cy="11.484326"
       r="19"
       fx="158"
       fy="11.484326"
       id="radialGradient4748"
       xlink:href="#linearGradient3616"
       gradientUnits="userSpaceOnUse"
       gradientTransform="matrix(3.1024933,6.2386777e-8,-5.0740095e-8,4.5633971,-423.19391,-25.021195)" />
    <linearGradient
       x1="14.875"
       y1="37.75"
       x2="23.375"
       y2="37.75"
       id="linearGradient4754"
       xlink:href="#linearGradient2831-3"
       gradientUnits="userSpaceOnUse"
       gradientTransform="matrix(4.703535,0,1.8141274,4.9090907,-79.43726,-128.81816)" />
    <linearGradient
       x1="158"
       y1="49"
       x2="158"
       y2="5"
       id="linearGradient4759"
       xlink:href="#linearGradient3667"
       gradientUnits="userSpaceOnUse"
       gradientTransform="matrix(2.6923077,0,0,1,-358.38462,9.9999943)" />
    <linearGradient
       x1="158"
       y1="49"
       x2="158"
       y2="5"
       id="linearGradient4766"
       xlink:href="#linearGradient3922"
       gradientUnits="userSpaceOnUse"
       gradientTransform="matrix(2.5000001,0,0,2.5681818,-328.00001,0.15909)" />
    <linearGradient
       x1="158"
       y1="49"
       x2="158"
       y2="5"
       id="linearGradient4769"
       xlink:href="#linearGradient3596"
       gradientUnits="userSpaceOnUse"
       gradientTransform="matrix(2.7714289,0,0,2.6046512,-373.88573,-2.8255809)" />
    <linearGradient
       x1="155"
       y1="49"
       x2="155"
       y2="5"
       id="linearGradient4771"
       xlink:href="#linearGradient3652"
       gradientUnits="userSpaceOnUse"
       gradientTransform="matrix(2.7714289,0,0,2.6046512,-373.88573,-2.8255809)" />
    <filter
       x="-0.085959181"
       y="-0.84240001"
       width="1.1719184"
       height="2.6847999"
       color-interpolation-filters="sRGB"
       id="filter4905">
      <feGaussianBlur
         stdDeviation="3.51"
         id="feGaussianBlur4907" />
    </filter>
    <radialGradient
       cx="62.625"
       cy="4.625"
       r="10.625"
       fx="62.625"
       fy="4.625"
       id="radialGradient3534"
       xlink:href="#linearGradient8838"
       gradientUnits="userSpaceOnUse"
       gradientTransform="matrix(2.1647059,0,0,0.7529402,-111.56471,36.517647)" />
    <linearGradient
       id="linearGradient8838">
      <stop
         id="stop8840"
         style="stop-color:black;stop-opacity:1"
         offset="0" />
      <stop
         id="stop8842"
         style="stop-color:black;stop-opacity:0"
         offset="1" />
    </linearGradient>
    <radialGradient
       cx="23.895569"
       cy="3.9900031"
       r="20.397499"
       fx="23.895569"
       fy="3.9900031"
       id="radialGradient3529"
       xlink:href="#linearGradient3242-187-536"
       gradientUnits="userSpaceOnUse"
       gradientTransform="matrix(0,2.2874593,-3.0194057,0,36.047437,-50.630156)" />
    <linearGradient
       id="linearGradient3242-187-536">
      <stop
         id="stop2782"
         style="stop-color:#ffffff;stop-opacity:1;"
         offset="0" />
      <stop
         id="stop2784"
         style="stop-color:#d8d5d5;stop-opacity:1;"
         offset="1" />
    </linearGradient>
    <linearGradient
       x1="18.379412"
       y1="44.980297"
       x2="18.379412"
       y2="3.0816143"
       id="linearGradient3531"
       xlink:href="#linearGradient2490-182-124"
       gradientUnits="userSpaceOnUse"
       gradientTransform="matrix(0.9584364,0,0,0.9584366,0.9975246,1.9975253)" />
    <linearGradient
       id="linearGradient2490-182-124">
      <stop
         id="stop2788"
         style="stop-color:#7f7f7f;stop-opacity:1;"
         offset="0" />
      <stop
         id="stop2790"
         style="stop-color:#b7b7b7;stop-opacity:1;"
         offset="1" />
    </linearGradient>
    <linearGradient
       x1="63.397362"
       y1="-12.489107"
       x2="63.397362"
       y2="5.4675598"
       id="linearGradient3526"
       xlink:href="#linearGradient4873"
       gradientUnits="userSpaceOnUse"
       gradientTransform="matrix(2.1153735,0,0,2.1153253,-107.57709,32.426559)" />
    <linearGradient
       id="linearGradient4873">
      <stop
         id="stop4875"
         style="stop-color:white;stop-opacity:1"
         offset="0" />
      <stop
         id="stop4877"
         style="stop-color:white;stop-opacity:0"
         offset="1" />
    </linearGradient>
    <radialGradient
       r="10.625"
       fy="4.625"
       fx="62.625"
       cy="4.625"
       cx="62.625"
       gradientTransform="matrix(2.1647059,0,0,0.7529402,-111.56471,36.517647)"
       gradientUnits="userSpaceOnUse"
       id="radialGradient3969"
       xlink:href="#linearGradient8838"
       inkscape:collect="always" />
    <radialGradient
       inkscape:collect="always"
       xlink:href="#linearGradient8838"
       id="radialGradient4619"
       gradientUnits="userSpaceOnUse"
       gradientTransform="matrix(2.1647059,0,0,0.75294021,-108.56471,40.517648)"
       cx="62.625"
       cy="4.625"
       fx="62.625"
       fy="4.625"
       r="10.625" />
    <linearGradient
       inkscape:collect="always"
       xlink:href="#linearGradient2490-182-124"
       id="linearGradient4623"
       gradientUnits="userSpaceOnUse"
       gradientTransform="matrix(0.95843639,0,0,0.95843662,3.9975241,5.997525)"
       x1="18.379412"
       y1="44.980297"
       x2="18.379412"
       y2="3.0816143" />
    <linearGradient
       inkscape:collect="always"
       xlink:href="#linearGradient4873"
       id="linearGradient4625"
       gradientUnits="userSpaceOnUse"
       gradientTransform="matrix(2.1153734,0,0,2.1153253,-104.57709,36.42656)"
       x1="63.397362"
       y1="-12.489107"
       x2="63.397362"
       y2="5.4675598" />
    <linearGradient
       inkscape:collect="always"
       xlink:href="#linearGradient3242-187-536"
       id="linearGradient4627"
       x1="94.842674"
       y1="59.380211"
       x2="96.520859"
       y2="121.16806"
       gradientUnits="userSpaceOnUse" />
    <linearGradient
       id="linearGradient3343"
       y2="92.621162"
       gradientUnits="userSpaceOnUse"
       x2="78.94915"
       gradientTransform="matrix(1.1476,0,0,1.0201,-71.942133,-65.101347)"
       y1="76.020393"
       x1="79.480911"
       spreadMethod="pad">
      <stop
         id="stop2266"
         style="stop-color:#d7e866"
         offset="0" />
      <stop
         id="stop2268"
         style="stop-color:#8cab2a"
         offset="1" />
    </linearGradient>
    <linearGradient
       id="linearGradient3339"
       y2="46.874001"
       gradientUnits="userSpaceOnUse"
       x2="13.759"
       gradientTransform="matrix(0.9547,0,0,0.92917,0.89918,2.1998)"
       y1="14.66"
       x1="34.403999">
      <stop
         id="stop4224"
         style="stop-color:#fff"
         offset="0" />
      <stop
         id="stop4226"
         style="stop-color:#fff;stop-opacity:0"
         offset="1" />
    </linearGradient>
    <linearGradient
       y2="46.874001"
       x2="13.759"
       y1="14.66"
       x1="34.403999"
       gradientTransform="matrix(0.9547,0,0,0.92917,-67.096453,-63.160057)"
       gradientUnits="userSpaceOnUse"
       id="linearGradient4654"
       xlink:href="#linearGradient3339"
       inkscape:collect="always" />
  </defs>
  <g
     transform="translate(-3,-4)"
     id="layer1"
     style="display:inline">
    <g
       id="layer6"
       style="display:none" />
    <rect
       width="98"
       height="10"
       rx="5"
       ry="5"
       x="18"
       y="115"
       id="rect4557"
       style="opacity:0.8;fill:#000000;fill-opacity:1;stroke:none;filter:url(#filter4905)" />
    <g
       id="g3996" />
    <g
       id="g4085" />
    <g
       transform="translate(-1,0)"
       id="g4238" />
    <g
       id="g4600" />
    <g
       id="g4909">
      <rect
         y="19.561382"
         x="103.99642"
         height="100.38618"
         width="9.7640047"
         id="rect3073"
         style="fill:#ffffff;fill-opacity:1;fill-rule:evenodd;stroke:#ffffff;stroke-width:0.1;stroke-linecap:round;stroke-linejoin:round;stroke-miterlimit:4;stroke-opacity:1;stroke-dasharray:none" />
      <rect
         style="fill:#ffffff;fill-opacity:1;fill-rule:evenodd;stroke:#ffffff;stroke-width:0.10000000000000001;stroke-linecap:round;stroke-linejoin:round;stroke-miterlimit:4;stroke-opacity:1;stroke-dasharray:none"
         id="rect3071"
         width="9.7640047"
         height="100.38618"
         x="17.087008"
         y="15.40882"
         transform="translate(3,4)" />
      <path
         d="m 20.5,15.5 c -1.108,0 -2,0.892 -2,2 l 0,104 c 0,1.108 0.892,2 2,2 l 93,0 c 1.108,0 2,-0.892 2,-2 l 0,-104 c 0,-1.108 -0.892,-2 -2,-2 l -1,0 0,1 c 0,0.554 -0.446,1 -1,1 l -6,0 c -0.554,0 -1,-0.446 -1,-1 l 0,-1 -75,0 0,1 c 0,0.554 -0.446,1 -1,1 l -6,0 c -0.554,0 -1,-0.446 -1,-1 l 0,-1 -1,0 z m 2,7 6,0 c 0.554,0 1,0.446 1,1 l 0,3 c 0,0.554 -0.446,1 -1,1 l -6,0 c -0.554,0 -1,-0.446 -1,-1 l 0,-3 c 0,-0.554 0.446,-1 1,-1 z m 83,0 6,0 c 0.554,0 1,0.446 1,1 l 0,3 c 0,0.554 -0.446,1 -1,1 l -6,0 c -0.554,0 -1,-0.446 -1,-1 l 0,-3 c 0,-0.554 0.446,-1 1,-1 z m -83,10 6,0 c 0.554,0 1,0.446 1,1 l 0,3 c 0,0.554 -0.446,1 -1,1 l -6,0 c -0.554,0 -1,-0.446 -1,-1 l 0,-3 c 0,-0.554 0.446,-1 1,-1 z m 83,0 6,0 c 0.554,0 1,0.446 1,1 l 0,3 c 0,0.554 -0.446,1 -1,1 l -6,0 c -0.554,0 -1,-0.446 -1,-1 l 0,-3 c 0,-0.554 0.446,-1 1,-1 z m -83,10 6,0 c 0.554,0 1,0.446 1,1 l 0,3 c 0,0.554 -0.446,1 -1,1 l -6,0 c -0.554,0 -1,-0.446 -1,-1 l 0,-3 c 0,-0.554 0.446,-1 1,-1 z m 83,0 6,0 c 0.554,0 1,0.446 1,1 l 0,3 c 0,0.554 -0.446,1 -1,1 l -6,0 c -0.554,0 -1,-0.446 -1,-1 l 0,-3 c 0,-0.554 0.446,-1 1,-1 z m -83,10 6,0 c 0.554,0 1,0.446 1,1 l 0,3 c 0,0.554 -0.446,1 -1,1 l -6,0 c -0.554,0 -1,-0.446 -1,-1 l 0,-3 c 0,-0.554 0.446,-1 1,-1 z m 83,0 6,0 c 0.554,0 1,0.446 1,1 l 0,3 c 0,0.554 -0.446,1 -1,1 l -6,0 c -0.554,0 -1,-0.446 -1,-1 l 0,-3 c 0,-0.554 0.446,-1 1,-1 z m -83,10 6,0 c 0.554,0 1,0.446 1,1 l 0,3 c 0,0.554 -0.446,1 -1,1 l -6,0 c -0.554,0 -1,-0.446 -1,-1 l 0,-3 c 0,-0.554 0.446,-1 1,-1 z m 83,0 6,0 c 0.554,0 1,0.446 1,1 l 0,3 c 0,0.554 -0.446,1 -1,1 l -6,0 c -0.554,0 -1,-0.446 -1,-1 l 0,-3 c 0,-0.554 0.446,-1 1,-1 z m -83,10 6,0 c 0.554,0 1,0.446 1,1 l 0,3 c 0,0.554 -0.446,1 -1,1 l -6,0 c -0.554,0 -1,-0.446 -1,-1 l 0,-3 c 0,-0.554 0.446,-1 1,-1 z m 83,0 6,0 c 0.554,0 1,0.446 1,1 l 0,3 c 0,0.554 -0.446,1 -1,1 l -6,0 c -0.554,0 -1,-0.446 -1,-1 l 0,-3 c 0,-0.554 0.446,-1 1,-1 z m -83,10 6,0 c 0.554,0 1,0.446 1,1 l 0,3 c 0,0.554 -0.446,1 -1,1 l -6,0 c -0.554,0 -1,-0.446 -1,-1 l 0,-3 c 0,-0.554 0.446,-1 1,-1 z m 83,0 6,0 c 0.554,0 1,0.446 1,1 l 0,3 c 0,0.554 -0.446,1 -1,1 l -6,0 c -0.554,0 -1,-0.446 -1,-1 l 0,-3 c 0,-0.554 0.446,-1 1,-1 z m -83,10 6,0 c 0.554,0 1,0.446 1,1 l 0,3 c 0,0.554 -0.446,1 -1,1 l -6,0 c -0.554,0 -1,-0.446 -1,-1 l 0,-3 c 0,-0.554 0.446,-1 1,-1 z m 83,0 6,0 c 0.554,0 1,0.446 1,1 l 0,3 c 0,0.554 -0.446,1 -1,1 l -6,0 c -0.554,0 -1,-0.446 -1,-1 l 0,-3 c 0,-0.554 0.446,-1 1,-1 z m -83,10 6,0 c 0.554,0 1,0.446 1,1 l 0,3 c 0,0.554 -0.446,1 -1,1 l -6,0 c -0.554,0 -1,-0.446 -1,-1 l 0,-3 c 0,-0.554 0.446,-1 1,-1 z m 83,0 6,0 c 0.554,0 1,0.446 1,1 l 0,3 c 0,0.554 -0.446,1 -1,1 l -6,0 c -0.554,0 -1,-0.446 -1,-1 l 0,-3 c 0,-0.554 0.446,-1 1,-1 z m -83,10 6,0 c 0.554,0 1,0.446 1,1 l 0,3 c 0,0.554 -0.446,1 -1,1 l -6,0 c -0.554,0 -1,-0.446 -1,-1 l 0,-3 c 0,-0.554 0.446,-1 1,-1 z m 83,0 6,0 c 0.554,0 1,0.446 1,1 l 0,3 c 0,0.554 -0.446,1 -1,1 l -6,0 c -0.554,0 -1,-0.446 -1,-1 l 0,-3 c 0,-0.554 0.446,-1 1,-1 z"
         id="rect3773"
         style="fill:url(#linearGradient4769);fill-opacity:1;stroke:url(#linearGradient4771);stroke-width:1;stroke-linejoin:round;stroke-miterlimit:4;stroke-opacity:1;stroke-dasharray:none"
         inkscape:connector-curvature="0" />
      <path
         d="m 32,15 0,22 70,0 0,-22 -70,0 z m 0,23 0,63 70,0 0,-63 -70,0 z m 0,64 0,22 70,0 0,-22 -70,0 z"
         id="path2958"
         style="fill:url(#linearGradient4766);fill-opacity:1;stroke:none"
         inkscape:connector-curvature="0" />
      <rect
         width="70"
         height="1"
         x="32"
         y="15"
         id="rect2964"
         style="fill:url(#linearGradient4759);fill-opacity:1;stroke:none" />
      <rect
         width="72"
         height="0.99999994"
         x="31"
         y="16"
         id="rect2982"
         style="opacity:0.6;fill:url(#radialGradient4742);fill-opacity:1;stroke:none" />
      <rect
         width="70"
         height="1"
         x="32"
         y="123.00001"
         id="rect2984"
         style="fill:url(#linearGradient4739);fill-opacity:1;stroke:none" />
      <path
         inkscape:connector-curvature="0"
         d="m 130.10046,117.55424 c 0,7.58008 -17.65509,13.72497 -39.43374,13.72497 -21.778648,0 -39.433735,-6.14489 -39.433735,-13.72497 0,-7.5801 17.655087,-13.72497 39.433735,-13.72497 21.77865,0 39.43374,6.14487 39.43374,13.72497 l 0,0 z"
         id="path8836"
         style="opacity:0.3;fill:url(#radialGradient4619);fill-opacity:1;fill-rule:evenodd;stroke:none;stroke-width:0.99999988;marker:none;visibility:visible;display:inline;overflow:visible" />
      <path
         inkscape:connector-curvature="0"
         d="m 90.666735,58.368386 c -18.445444,0 -33.42986,14.994126 -33.42986,33.451531 0,18.457393 14.984416,33.451523 33.42986,33.451523 18.445425,0 33.429865,-14.99413 33.429845,-33.451523 0,-18.457405 -14.98442,-33.451531 -33.429845,-33.451531 z"
         id="path2555"
         style="fill:url(#linearGradient4627);fill-opacity:1.0;stroke:url(#linearGradient4623);stroke-width:1.00365400000000005;stroke-linecap:round;stroke-linejoin:round;stroke-miterlimit:4;stroke-opacity:1;stroke-dasharray:none;stroke-dashoffset:0" />
      <path
         inkscape:connector-curvature="0"
         d="m 122.38518,91.818784 c 0,17.529536 -14.20188,31.740136 -31.718051,31.740136 -17.51777,0 -31.718843,-14.21077 -31.718843,-31.740136 0,-17.528723 14.201073,-31.737879 31.718843,-31.737879 17.516171,0 31.718051,14.209156 31.718051,31.737879 l 0,0 z"
         id="path8655"
         style="opacity:0.4;fill:none;stroke:url(#linearGradient4625);stroke-width:1;stroke-miterlimit:4;stroke-opacity:1;stroke-dasharray:none" />
      <g
         transform="matrix(1.7145103,0,0,1.7156219,45.218736,48.929361)"
         id="g3538" />
      <g
         transform="translate(72.080257,67.071419)"
         id="layer1-6">
        <path
           inkscape:connector-curvature="0"
           id="path3375"
           style="fill:url(#linearGradient3343);fill-opacity:1;fill-rule:evenodd;stroke:#326400;stroke-width:1.00720000000000010;stroke-linecap:round;stroke-linejoin:round;stroke-opacity:1"
           d="M 4.5036,44.496 V 4.503 L 43.4956,24.5 4.5036,44.496 z" />
        <path
           inkscape:connector-curvature="0"
           id="path2294"
           style="opacity:0.41000001;fill:none;stroke:url(#linearGradient4654);stroke-width:1.0072;stroke-linecap:round"
           d="M 5.4368,42.692 5.5,6.169 41.324,24.5 5.437,42.692 z" />
      </g>
    </g>
    <g
       transform="translate(-1,0)"
       id="g4407" />
  </g>
</svg>
