<?xml version="1.0" encoding="UTF-8" standalone="no"?>
<!-- Created with Inkscape (http://www.inkscape.org/) -->
<svg id="svg4501" xmlns:rdf="http://www.w3.org/1999/02/22-rdf-syntax-ns#" xmlns="http://www.w3.org/2000/svg" height="128" width="128" version="1.1" xmlns:cc="http://creativecommons.org/ns#" xmlns:xlink="http://www.w3.org/1999/xlink" xmlns:dc="http://purl.org/dc/elements/1.1/">
 <defs id="defs4503">
  <linearGradient id="linearGradient2959" y2="43" gradientUnits="userSpaceOnUse" x2="24" gradientTransform="matrix(2.7838 0 0 2.7838 -3.2021 -66.419)" y1="5" x1="24">
   <stop id="stop3926" style="stop-color:#fff" offset="0"/>
   <stop id="stop3928" style="stop-color:#fff;stop-opacity:.23529" offset=".063165"/>
   <stop id="stop3930" style="stop-color:#fff;stop-opacity:.15686" offset=".95056"/>
   <stop id="stop3932" style="stop-color:#fff;stop-opacity:.39216" offset="1"/>
  </linearGradient>
  <radialGradient id="radialGradient2962" gradientUnits="userSpaceOnUse" cy="8.4498" cx="7.4957" gradientTransform="matrix(5.2307e-8 6.2919 -6.6561 -1.1592e-7 119.85 -97.702)" r="20">
   <stop id="stop3618" style="stop-color:#f0c178" offset="0"/>
   <stop id="stop3270" style="stop-color:#e18941" offset=".5"/>
   <stop id="stop3620" style="stop-color:#ec4f18" offset="1"/>
  </radialGradient>
  <linearGradient id="linearGradient2964" y2="3.899" gradientUnits="userSpaceOnUse" x2="24" gradientTransform="matrix(2.6923 0 0 2.6923 -1.0067 -64.224)" y1="44" x1="24">
   <stop id="stop3624" style="stop-color:#ba4712" offset="0"/>
   <stop id="stop3856" style="stop-color:#cf671c" offset=".5"/>
   <stop id="stop3626" style="stop-color:#e27f39" offset="1"/>
  </linearGradient>
  <linearGradient id="linearGradient48441" y2="6.4426" gradientUnits="userSpaceOnUse" x2="25.076" y1="45.915" x1="25.076">
   <stop id="stop3624-0" style="stop-color:#bb2b12" offset="0"/>
   <stop id="stop3626-8" style="stop-color:#cd7233" offset="1"/>
  </linearGradient>
  <filter id="filter6181">
   <feGaussianBlur id="feGaussianBlur6183" stdDeviation="1.6001681"/>
  </filter>
 </defs>
 <metadata id="metadata4506">
  <rdf:RDF>
   <cc:Work rdf:about="">
    <dc:format>image/svg+xml</dc:format>
    <dc:type rdf:resource="http://purl.org/dc/dcmitype/StillImage"/>
    <dc:title/>
   </cc:Work>
  </rdf:RDF>
 </metadata>
 <g id="layer1" transform="translate(.39130 63.608)">
  <rect id="rect5505-2" style="opacity:.4;color:#000000;filter:url(#filter6181)" transform="matrix(1.7299 0 0 1.6462 1.3326 -42.965)" rx="3.072" ry="3.1624" height="64" width="64" y="-3.84" x="4"/>
  <rect id="rect5505" style="stroke-linejoin:round;color:#000000;stroke:url(#linearGradient2964);stroke-linecap:round;fill:url(#radialGradient2962)" rx="5" ry="5" height="105" width="105" y="-52.108" x="11.109"/>
  <rect id="rect6741" style="opacity:.5;stroke-linejoin:round;stroke:url(#linearGradient2959);stroke-linecap:round;fill:none" rx="4" ry="4" height="103" width="103" y="-51.108" x="12.109"/>
  <path id="path3107-6" style="opacity:0.08;color:#000000;fill:url(#linearGradient48441)" d="m50.594 37.094a3.9183 3.9183 0 0 0 -3.5 3.906v19.094h-9.0938a3.9183 3.9183 0 0 0 -2.9688 6.4688l26 30a3.9183 3.9183 0 0 0 5.9375 0l26-30a3.9183 3.9183 0 0 0 -2.968 -6.469h-9.0938v-19.094a3.9183 3.9183 0 0 0 -3.906 -3.906h-26a3.9183 3.9183 0 0 0 -0.40625 0z" transform="translate(-.47891 -63.532)"/>
  <path id="path3107" style="opacity:.15;color:#000000;fill:url(#linearGradient48441)" d="m50.812 39.031a1.9782 1.9782 0 0 0 -1.781 1.969v21.031h-11.031a1.9782 1.9782 0 0 0 -1.5 3.25l26 30a1.9782 1.9782 0 0 0 3 0l26-30a1.9782 1.9782 0 0 0 -1.5 -3.25h-11.031v-21.031a1.9782 1.9782 0 0 0 -1.969 -1.969h-26a1.9782 1.9782 0 0 0 -0.1875 0z" transform="translate(-.47891 -63.578)"/>
  <path id="path3288-2-0" style="stroke:#fff;stroke-width:.98543;fill:#f2f2f2" d="m88.021 0.89897-24.5 29-24.5-29h12v-23h25v23h12z"/>
 </g>
</svg>
