<?xml version="1.0" encoding="UTF-8" standalone="no"?>
<!-- Created with Inkscape (http://www.inkscape.org/) -->

<svg
   xmlns:dc="http://purl.org/dc/elements/1.1/"
   xmlns:cc="http://creativecommons.org/ns#"
   xmlns:rdf="http://www.w3.org/1999/02/22-rdf-syntax-ns#"
   xmlns:svg="http://www.w3.org/2000/svg"
   xmlns="http://www.w3.org/2000/svg"
   xmlns:xlink="http://www.w3.org/1999/xlink"
   xmlns:sodipodi="http://sodipodi.sourceforge.net/DTD/sodipodi-0.dtd"
   xmlns:inkscape="http://www.inkscape.org/namespaces/inkscape"
   id="svg4501"
   height="128"
   width="128"
   version="1.1"
   inkscape:version="0.48.1 r9760"
   sodipodi:docname="softwarecentre.svg">
  <sodipodi:namedview
     pagecolor="#ffffff"
     bordercolor="#666666"
     borderopacity="1"
     objecttolerance="10"
     gridtolerance="10"
     guidetolerance="10"
     inkscape:pageopacity="0"
     inkscape:pageshadow="2"
     inkscape:window-width="813"
     inkscape:window-height="480"
     id="namedview30"
     showgrid="false"
     inkscape:zoom="2.2578125"
     inkscape:cx="60.963062"
     inkscape:cy="64"
     inkscape:window-x="545"
     inkscape:window-y="27"
     inkscape:window-maximized="0"
     inkscape:current-layer="layer1" />
  <defs
     id="defs4503">
    <linearGradient
       id="linearGradient2959"
       y2="43"
       gradientUnits="userSpaceOnUse"
       x2="24"
       gradientTransform="matrix(2.7838 0 0 2.7838 -3.2021 -66.419)"
       y1="5"
       x1="24">
      <stop
         id="stop3926"
         stop-color="#fff"
         offset="0" />
      <stop
         id="stop3928"
         stop-color="#fff"
         stop-opacity=".23529"
         offset=".063165" />
      <stop
         id="stop3930"
         stop-color="#fff"
         stop-opacity=".15686"
         offset=".95056" />
      <stop
         id="stop3932"
         stop-color="#fff"
         stop-opacity=".39216"
         offset="1" />
    </linearGradient>
    <radialGradient
       id="radialGradient2962"
       gradientUnits="userSpaceOnUse"
       cy="8.4498"
       cx="7.4957"
       gradientTransform="matrix(5.2307e-8 6.2919 -6.6561 -1.1592e-7 119.85 -97.702)"
       r="20">
      <stop
         id="stop3618"
         stop-color="#f0c178"
         offset="0"
         style="stop-color:#f09278;stop-opacity:1;" />
      <stop
         id="stop3270"
         stop-color="#e18941"
         offset="0.5"
         style="stop-color:#ed2b21;stop-opacity:1;" />
      <stop
         id="stop3620"
         stop-color="#ec4f18"
         offset="1"
         style="stop-color:#f82911;stop-opacity:1;" />
    </radialGradient>
    <linearGradient
       id="linearGradient2964"
       y2="3.8989999"
       gradientUnits="userSpaceOnUse"
       x2="24"
       gradientTransform="matrix(2.6923,0,0,2.6923,-1.0067,-64.224)"
       y1="44"
       x1="24"
       xlink:href="#radialGradient2962">
      <stop
         id="stop3624"
         stop-color="#ba4712"
         offset="0"
         style="stop-color:#ba1e12;stop-opacity:1;" />
      <stop
         id="stop3856"
         stop-color="#cf671c"
         offset="0.5"
         style="stop-color:#cf311c;stop-opacity:1;" />
      <stop
         id="stop3626"
         stop-color="#e27f39"
         offset="1"
         style="stop-color:#e24339;stop-opacity:1;" />
    </linearGradient>
    <linearGradient
       id="linearGradient48441"
       y2="6.4426"
       gradientUnits="userSpaceOnUse"
       x2="25.076"
       y1="45.915"
       x1="25.076">
      <stop
         id="stop3624-0"
         stop-color="#bb2b12"
         offset="0" />
      <stop
         id="stop3626-8"
         stop-color="#cd7233"
         offset="1" />
    </linearGradient>
    <filter
       id="filter6181">
      <feGaussianBlur
         id="feGaussianBlur6183"
         stdDeviation="1.6001681" />
    </filter>
    <radialGradient
       cx="17.058823"
       cy="41.058823"
       r="5.7384715"
       fx="14.757765"
       fy="37.841019"
       id="radialGradient3019"
       xlink:href="#linearGradient3668"
       gradientUnits="userSpaceOnUse"
       gradientTransform="matrix(2.0040184,-0.3318837,0.04374149,1.9132533,40.862219,-54.284381)" />
    <linearGradient
       id="linearGradient3668">
      <stop
         id="stop3670"
         style="stop-color:#ffffff;stop-opacity:1"
         offset="0" />
      <stop
         id="stop3672"
         style="stop-color:#ffffff;stop-opacity:0"
         offset="1" />
    </linearGradient>
    <linearGradient
       x1="33.399887"
       y1="120.82745"
       x2="33.399887"
       y2="233.02061"
       id="linearGradient3016"
       xlink:href="#linearGradient2372"
       gradientUnits="userSpaceOnUse"
       gradientTransform="matrix(0.5927395,0,0,0.5905239,36.681776,-100.8096)" />
    <linearGradient
       id="linearGradient2372">
      <stop
         id="stop2374"
         style="stop-color:#ffffff;stop-opacity:1"
         offset="0" />
      <stop
         id="stop2376"
         style="stop-color:#ffffff;stop-opacity:0"
         offset="1" />
    </linearGradient>
    <radialGradient
       cx="17.058823"
       cy="41.058823"
       r="5.7384715"
       fx="14.68769"
       fy="37.45607"
       id="radialGradient3013"
       xlink:href="#linearGradient7067"
       gradientUnits="userSpaceOnUse"
       gradientTransform="matrix(1.9168866,-0.3433748,0.067302,1.8255217,7.8812191,-42.986186)" />
    <linearGradient
       id="linearGradient7067">
      <stop
         id="stop7069"
         style="stop-color:#ffffff;stop-opacity:1"
         offset="0" />
      <stop
         id="stop7071"
         style="stop-color:#ffffff;stop-opacity:0"
         offset="1" />
    </linearGradient>
    <radialGradient
       r="10.625"
       fy="4.625"
       fx="62.625"
       cy="4.625"
       cx="62.625"
       gradientTransform="matrix(2.1647059,0,0,0.84705771,-111.56471,35.082353)"
       gradientUnits="userSpaceOnUse"
       id="radialGradient3690"
       xlink:href="#linearGradient8838"
       inkscape:collect="always" />
    <linearGradient
       id="linearGradient8838">
      <stop
         id="stop8840"
         style="stop-color:#000000;stop-opacity:1"
         offset="0" />
      <stop
         id="stop8842"
         style="stop-color:#000000;stop-opacity:0"
         offset="1" />
    </linearGradient>
    <radialGradient
       inkscape:collect="always"
       xlink:href="#linearGradient3690"
       id="radialGradient3627"
       gradientUnits="userSpaceOnUse"
       gradientTransform="matrix(0,2.6540647,-3.1628087,0,100.69442,-89.538162)"
       cx="13.138569"
       cy="25.625349"
       fx="13.138569"
       fy="25.625349"
       r="13.931416" />
    <linearGradient
       id="linearGradient3690">
      <stop
         id="stop3692"
         style="stop-color:#ffeb9f;stop-opacity:1"
         offset="0" />
      <stop
         id="stop3694"
         style="stop-color:#ffd57e;stop-opacity:1"
         offset="0.26238" />
      <stop
         id="stop3696"
         style="stop-color:#ffbc43;stop-opacity:1"
         offset="0.66093999" />
      <stop
         id="stop3698"
         style="stop-color:#ff921a;stop-opacity:1"
         offset="1" />
    </linearGradient>
    <linearGradient
       inkscape:collect="always"
       xlink:href="#linearGradient3603"
       id="linearGradient3629"
       gradientUnits="userSpaceOnUse"
       gradientTransform="matrix(1.6508808,0,0,1.6568311,-7.9546793,-77.908084)"
       x1="21.483376"
       y1="36.255058"
       x2="21.483376"
       y2="9.5799999" />
    <linearGradient
       id="linearGradient3603">
      <stop
         id="stop3605"
         style="stop-color:#a7651c;stop-opacity:1"
         offset="0" />
      <stop
         id="stop3607"
         style="stop-color:#c8a700;stop-opacity:1"
         offset="1" />
    </linearGradient>
    <linearGradient
       gradientTransform="translate(3.5118145,-62.862325)"
       inkscape:collect="always"
       xlink:href="#linearGradient3642"
       id="linearGradient3648"
       x1="29.646643"
       y1="2"
       x2="29.646643"
       y2="43.443626"
       gradientUnits="userSpaceOnUse" />
    <linearGradient
       id="linearGradient3642">
      <stop
         style="stop-color:#ffffff;stop-opacity:1;"
         offset="0"
         id="stop3644" />
      <stop
         style="stop-color:#ffffff;stop-opacity:0;"
         offset="1"
         id="stop3646" />
    </linearGradient>
    <linearGradient
       inkscape:collect="always"
       xlink:href="#linearGradient8265-821-176-38-919-66-249"
       id="linearGradient3619"
       gradientUnits="userSpaceOnUse"
       gradientTransform="translate(6.4917271,-65.98398)"
       x1="11.566265"
       y1="22.292103"
       x2="15.214532"
       y2="33.95525" />
    <linearGradient
       id="linearGradient8265-821-176-38-919-66-249">
      <stop
         id="stop2687"
         style="stop-color:#ffffff;stop-opacity:0.27450982"
         offset="0" />
      <stop
         id="stop2689"
         style="stop-color:#ffffff;stop-opacity:0"
         offset="1" />
    </linearGradient>
    <radialGradient
       r="10.625"
       fy="4.625"
       fx="62.625"
       cy="4.625"
       cx="62.625"
       gradientTransform="matrix(2.1647059,0,0,0.84705771,-108.0529,-27.779972)"
       gradientUnits="userSpaceOnUse"
       id="radialGradient4184"
       xlink:href="#linearGradient8838"
       inkscape:collect="always" />
  </defs>
  <metadata
     id="metadata4506">
    <rdf:RDF>
      <cc:Work
         rdf:about="">
        <dc:format>image/svg+xml</dc:format>
        <dc:type
           rdf:resource="http://purl.org/dc/dcmitype/StillImage" />
        <dc:title></dc:title>
      </cc:Work>
    </rdf:RDF>
  </metadata>
  <g
     id="layer1"
     transform="translate(.39130 63.608)">
    <rect
       id="rect5505-2"
       opacity=".4"
       style="enable-background:accumulate;color:#000000;"
       transform="matrix(1.7299 0 0 1.6462 1.3326 -42.965)"
       fill-rule="nonzero"
       rx="3.072"
       ry="3.1624"
       height="64"
       filter="url(#filter6181)"
       width="64"
       y="-3.84"
       x="4"
       fill="#000" />
    <rect
       id="rect5505"
       stroke-linejoin="round"
       style="enable-background:accumulate;color:#000000;"
       stroke-dasharray="none"
       fill-rule="nonzero"
       stroke-dashoffset="0"
       rx="5"
       ry="5"
       height="105"
       width="105"
       stroke="url(#linearGradient2964)"
       stroke-linecap="round"
       stroke-miterlimit="4"
       y="-52.108"
       x="11.109"
       stroke-width="1"
       fill="url(#radialGradient2962)" />
    <rect
       id="rect6741"
       opacity=".5"
       stroke-linejoin="round"
       stroke-dasharray="none"
       stroke-dashoffset="0"
       rx="4"
       ry="4"
       height="103"
       width="103"
       stroke="url(#linearGradient2959)"
       stroke-linecap="round"
       stroke-miterlimit="4"
       y="-51.108"
       x="12.109"
       stroke-width="1"
       fill="none" />
    <path
       inkscape:connector-curvature="0"
       d="m 84.808514,-35.88369 c 0,0 -33.443785,7.273649 -33.443785,7.273649 -2.384861,0.915767 -2.463347,2.809305 -2.520345,6.14492 0,0 0,37.848412 0,37.848412 -7.779166,-1.72718 -16.918764,4.31897 -16.985279,12.53209 -0.350247,5.27431 5.299249,9.6446 10.438231,9.16156 6.966078,-0.35589 13.292932,-7.07828 12.547048,-14.25637 0,-11.742062 0,-25.8347318 0,-37.576788 0,0 28,-6.350756 28,-6.350756 0,0 0,19.9329792 0,28.9845492 -7.4543,-2.139358 -16.552438,2.7648668 -17.787659,10.6048248 -0.873621,5.59589 1.929316,9.83715 6.356112,11.15758 8.286477,2.70598 17.335357,-5.84822 16.358047,-14.38278 -0.0231,-16.00840476 0.0698,-32.016856 0,-48.025209 -0.19473,-1.591208 -1.22263,-3.196138 -2.96237,-3.115682 l 0,0 z"
       id="path3406"
       style="fill:#4d4d4d;fill-opacity:1;stroke:#333333;stroke-width:1;stroke-linecap:round;stroke-linejoin:round;stroke-miterlimit:4;stroke-opacity:1;stroke-dasharray:none" />
    <path
       inkscape:connector-curvature="0"
       d="m 88.344384,16.610721 c 0,5.97284 -5.14871,11.70993 -11.5,12.81415 -6.351271,1.1042 -11.5,-2.8426 -11.5,-8.81543 0,-5.97285 5.148729,-11.7099548 11.5,-12.8141638 6.35129,-1.10422 11.5,2.8425928 11.5,8.8154438 l 0,0 z"
       id="path2716"
       style="opacity:0.6;fill:url(#radialGradient3019);fill-opacity:1;stroke:none" />
    <path
       inkscape:connector-curvature="0"
       d="m 49.344384,-24.389924 c -0.04607,-1.796782 1,-4 3,-4 0.168813,0.289981 32.70773,-6.993323 32.70773,-6.993323 -5.98157,5.126652 -32.746395,6.006198 -33.70773,11.085466 0,0 0,19.6454492 0,41.716502 -0.431619,-0.36529 -2,-1.30864 -2,-1.30864 l 0,-40.500005 0,0 z m 34,32.8329842 0,-30.1446042 c 0,0 2,-0.393683 2,-0.393683 0,0 0,31.6880632 0,31.6880632 l -2,-1.149776 0,0 z"
       id="path2720"
       style="opacity:0.3;fill:url(#linearGradient3016);fill-opacity:1;fill-rule:evenodd;stroke:none" />
    <path
       inkscape:connector-curvature="0"
       d="m 54.344384,24.201591 c 0,5.70135 -4.924864,11.17767 -10.999995,12.2317 -6.075129,1.05402 -11.000005,-2.71337 -11.000005,-8.41473 0,-5.70135 4.924876,-11.17767 11.000005,-12.2317 6.075131,-1.05403 10.999995,2.71338 10.999995,8.41473 z"
       id="path2712"
       style="opacity:0.6;fill:url(#radialGradient3013);fill-opacity:1;stroke:none" />
    <path
       inkscape:connector-curvature="0"
       style="opacity:0.3;fill:url(#radialGradient4184);fill-opacity:1;fill-rule:evenodd;stroke:none;stroke-width:0.99999988;marker:none;visibility:visible;display:inline;overflow:visible"
       id="path8836"
       d="m 50.511815,-23.862325 c 0,4.970563 -10.297453,9 -23,9 -12.702548,0 -23.0000005,-4.029437 -23.0000005,-9 0,-4.970563 10.2974525,-9 23.0000005,-9 12.702547,0 23,4.029437 23,9 l 0,0 z" />
    <path
       inkscape:connector-curvature="0"
       style="fill:url(#radialGradient3627);fill-opacity:1;fill-rule:nonzero;stroke:url(#linearGradient3629);stroke-width:0.9922713;stroke-linecap:butt;stroke-linejoin:round;stroke-miterlimit:4;stroke-opacity:1;stroke-dasharray:none;stroke-dashoffset:0;marker:none;visibility:visible;display:inline;overflow:visible"
       id="path1307"
       d="m 27.511814,-61.36619 c 1.518797,0 6.415369,12.275472 7.644103,13.171417 1.228732,0.895944 14.374596,1.776317 14.843931,3.225986 0.469334,1.449669 -9.650283,9.916699 -10.119617,11.366368 -0.469334,1.449669 2.758685,14.269241 1.529951,15.165186 -1.228733,0.895944 -12.379571,-6.146615 -13.89837,-6.146615 -1.518797,0 -12.669635,7.042559 -13.89837,6.146615 -1.228732,-0.895945 1.999287,-13.715518 1.529953,-15.165186 -0.469334,-1.449669 -10.5889507,-9.916701 -10.1196159,-11.36637 0.469334,-1.449667 13.6151979,-2.33004 14.8439319,-3.225984 1.228732,-0.895945 6.125306,-13.171417 7.644103,-13.171417 z" />
    <path
       inkscape:connector-curvature="0"
       style="opacity:0.3;fill:none;stroke:#ffffff;stroke-width:1;stroke-linecap:butt;stroke-linejoin:miter;stroke-miterlimit:4;stroke-opacity:1;stroke-dasharray:none;display:inline"
       id="path11014"
       d="m 39.969781,-20.007749 c 0,0 -4.318414,-3.742625 -10.076299,-4.894202" />
    <path
       inkscape:connector-curvature="0"
       style="opacity:0.3;fill:none;stroke:#ffffff;stroke-width:1;stroke-linecap:butt;stroke-linejoin:miter;stroke-miterlimit:4;stroke-opacity:1;stroke-dasharray:none;display:inline"
       id="path11985"
       d="m 14.687433,-20.007749 c 0,0 4.318413,-3.742625 10.076298,-4.894202" />
    <path
       inkscape:connector-curvature="0"
       style="opacity:0.4;fill:none;stroke:url(#linearGradient3648);stroke-width:0.99999994;stroke-linecap:butt;stroke-linejoin:round;stroke-miterlimit:4;stroke-opacity:1;stroke-dasharray:none;stroke-dashoffset:0;marker:none;visibility:visible;display:inline;overflow:visible"
       id="path1309"
       d="m 27.511815,-60.362325 c 2.255601,4.317111 4.478429,8.952433 6.73403,13.269542 4.843973,0.789864 10.26201,1.380836 14.771263,2.50542 -3.449934,3.457984 -6.875961,7.131147 -10.325895,10.589132 0.738138,4.805274 1.213021,9.259541 1.95116,14.064815 -4.387777,-2.179957 -8.775555,-4.359915 -13.163332,-6.539874 -4.387779,2.179959 -8.775556,4.359917 -13.163335,6.539874 0.738138,-4.805274 1.125272,-9.347292 1.863409,-14.152566 -3.449934,-3.457985 -6.7317419,-7.084097 -10.1816749,-10.542081 4.8439709,-0.789864 9.8708239,-1.674856 14.7147949,-2.46472 2.255601,-4.317109 4.543978,-8.952431 6.79958,-13.269542 z" />
    <path
       inkscape:connector-curvature="0"
       style="opacity:0.8;fill:url(#linearGradient3619);fill-opacity:1;fill-rule:nonzero;stroke:none;stroke-width:1;marker:none;visibility:visible;display:inline;overflow:visible;enable-background:accumulate"
       id="path3382"
       d="m 27.535724,-60.840496 c 0,0 4.502337,7.470103 7.020932,13.317359 4.843973,0.789864 10.309827,1.404745 14.914715,2.720597 0,0 -2.463879,2.468624 -3.480641,3.487759 0,0 -31.7823,5.712288 -31.7823,5.712288 -2.896682,-2.97635 -6.1845159,-5.865152 -8.7350729,-9.211535 3.55291,-1.076767 10.1319129,-1.943153 14.9758839,-2.733017 3.355394,-7.903391 7.086483,-13.293451 7.086483,-13.293451 z" />
  </g>
</svg>
