<?xml version="1.0" encoding="UTF-8" standalone="no"?>
<!-- Created with Inkscape (http://www.inkscape.org/) -->

<svg
   xmlns:dc="http://purl.org/dc/elements/1.1/"
   xmlns:cc="http://creativecommons.org/ns#"
   xmlns:rdf="http://www.w3.org/1999/02/22-rdf-syntax-ns#"
   xmlns:svg="http://www.w3.org/2000/svg"
   xmlns="http://www.w3.org/2000/svg"
   xmlns:xlink="http://www.w3.org/1999/xlink"
   xmlns:sodipodi="http://sodipodi.sourceforge.net/DTD/sodipodi-0.dtd"
   xmlns:inkscape="http://www.inkscape.org/namespaces/inkscape"
   width="128"
   height="128"
   id="svg4559"
   version="1.1"
   inkscape:version="0.47 r22583"
   sodipodi:docname="steadyflow.svg">
  <defs
     id="defs4561">
    <linearGradient
       x1="83.216866"
       y1="54.000008"
       x2="83.216866"
       y2="122.16803"
       id="linearGradient2887"
       xlink:href="#linearGradient4115"
       gradientUnits="userSpaceOnUse"
       gradientTransform="matrix(1.0057697,0,0,0.9939186,8.492263,-60.669788)" />
    <linearGradient
       id="linearGradient4115">
      <stop
         id="stop4117"
         style="stop-color:#ffffff;stop-opacity:1"
         offset="0" />
      <stop
         offset="0.43306902"
         style="stop-color:#ffffff;stop-opacity:0.49803922;"
         id="stop4119" />
      <stop
         offset="0.45473564"
         style="stop-color:#ffffff;stop-opacity:0.66666669;"
         id="stop4121" />
      <stop
         id="stop4123"
         style="stop-color:#ffffff;stop-opacity:0.3137255;"
         offset="1" />
    </linearGradient>
    <radialGradient
       r="10"
       fy="25.499998"
       fx="36.000004"
       cy="25.499998"
       cx="36.000004"
       gradientTransform="matrix(-1.2434844e-6,9.4542178,-10.391464,-1.3659662e-6,361.96347,-347.3996)"
       gradientUnits="userSpaceOnUse"
       id="radialGradient2904-5"
       xlink:href="#linearGradient2867-449-88-871-390-598-476-591-434-148-958-144-827-141-2-5"
       inkscape:collect="always" />
    <linearGradient
       id="linearGradient2867-449-88-871-390-598-476-591-434-148-958-144-827-141-2-5">
      <stop
         offset="0"
         style="stop-color:#6af7f7;stop-opacity:1;"
         id="stop10190-0-0" />
      <stop
         offset="0.26238"
         style="stop-color:#62c5f5;stop-opacity:1;"
         id="stop10192-7-1" />
      <stop
         offset="0.704952"
         style="stop-color:#4a8ad2;stop-opacity:1;"
         id="stop10194-4-2" />
      <stop
         offset="1"
         style="stop-color:#2b6bb1;stop-opacity:1;"
         id="stop10196-7-6" />
    </linearGradient>
    <linearGradient
       y2="24.999998"
       x2="31.157192"
       y1="46.001011"
       x1="31.157192"
       gradientTransform="matrix(3.1959499,0,0,3.1950241,-18.073087,-86.923407)"
       gradientUnits="userSpaceOnUse"
       id="linearGradient2906-4"
       xlink:href="#linearGradient3707-319-631-396-347-895-373-0-8"
       inkscape:collect="always" />
    <linearGradient
       id="linearGradient3707-319-631-396-347-895-373-0-8">
      <stop
         offset="0"
         style="stop-color:#345676;stop-opacity:1;"
         id="stop10200-1-5" />
      <stop
         offset="1"
         style="stop-color:#78b0d2;stop-opacity:1;"
         id="stop10204-6-6" />
    </linearGradient>
    <linearGradient
       y2="74.308716"
       x2="18.424301"
       y1="37.787579"
       x1="18.424301"
       gradientTransform="matrix(2.6603277,0,0,2.6628414,14.98532,-79.747329)"
       gradientUnits="userSpaceOnUse"
       id="linearGradient3128"
       xlink:href="#linearGradient4222-7"
       inkscape:collect="always" />
    <linearGradient
       id="linearGradient4222-7">
      <stop
         id="stop4224-9"
         style="stop-color:#ffffff;stop-opacity:1"
         offset="0" />
      <stop
         id="stop4226-3"
         style="stop-color:#ffffff;stop-opacity:0"
         offset="1" />
    </linearGradient>
    <linearGradient
       inkscape:collect="always"
       xlink:href="#linearGradient4222-7"
       id="linearGradient3713"
       gradientUnits="userSpaceOnUse"
       x1="17.422222"
       y1="7.2707062"
       x2="17.422222"
       y2="15.822222" />
    <linearGradient
       y2="57.06485"
       x2="-67.486389"
       y1="23.898327"
       x1="-67.701897"
       gradientTransform="matrix(0.4503686,2.452074e-4,-2.742051e-4,0.40274137,52.788895,-1.9657329)"
       gradientUnits="userSpaceOnUse"
       id="linearGradient4770"
       xlink:href="#linearGradient4747"
       inkscape:collect="always" />
    <linearGradient
       id="linearGradient4747">
      <stop
         id="stop4749"
         style="stop-color:#ffffff;stop-opacity:1;"
         offset="0" />
      <stop
         id="stop4751"
         style="stop-color:#d2d2d2;stop-opacity:1;"
         offset="1" />
    </linearGradient>
    <linearGradient
       y2="64.665039"
       x2="-67.677078"
       y1="23.898327"
       x1="-67.701897"
       gradientTransform="matrix(0.4503686,2.452074e-4,-2.742051e-4,0.40274137,52.788895,-1.9657329)"
       gradientUnits="userSpaceOnUse"
       id="linearGradient4808-0"
       xlink:href="#linearGradient4747"
       inkscape:collect="always" />
    <linearGradient
       y2="59.932281"
       x2="-68.2659"
       y1="23.898327"
       x1="-67.701897"
       gradientTransform="matrix(0.4503686,2.452074e-4,-2.742051e-4,0.40274137,52.788895,-1.9657329)"
       gradientUnits="userSpaceOnUse"
       id="linearGradient4808"
       xlink:href="#linearGradient4747"
       inkscape:collect="always" />
    <linearGradient
       y2="64.665039"
       x2="-67.677078"
       y1="23.898327"
       x1="-67.701897"
       gradientTransform="matrix(0.4503686,2.452074e-4,-2.742051e-4,0.40274137,52.788895,-1.9657329)"
       gradientUnits="userSpaceOnUse"
       id="linearGradient4558-3"
       xlink:href="#linearGradient4747"
       inkscape:collect="always" />
    <linearGradient
       y2="64.665039"
       x2="-67.677078"
       y1="23.898327"
       x1="-67.701897"
       gradientTransform="matrix(0.4503686,2.452074e-4,-2.742051e-4,0.40274137,52.788895,-1.9657329)"
       gradientUnits="userSpaceOnUse"
       id="linearGradient4558-3-7"
       xlink:href="#linearGradient4747"
       inkscape:collect="always" />
    <linearGradient
       inkscape:collect="always"
       xlink:href="#linearGradient4747-1"
       id="linearGradient3103"
       gradientUnits="userSpaceOnUse"
       gradientTransform="matrix(1.198128,7.2356339e-4,-7.294754e-4,1.1884181,139.50934,-98.489796)"
       x1="-57.955254"
       y1="98.056259"
       x2="-56.512287"
       y2="183.06851" />
    <linearGradient
       id="linearGradient4747-1">
      <stop
         id="stop4749-37"
         style="stop-color:#ffffff;stop-opacity:1;"
         offset="0" />
      <stop
         id="stop4751-7"
         style="stop-color:#d2d2d2;stop-opacity:1;"
         offset="1" />
    </linearGradient>
    <linearGradient
       inkscape:collect="always"
       xlink:href="#linearGradient3104-9-4"
       id="linearGradient4523-26"
       gradientUnits="userSpaceOnUse"
       gradientTransform="matrix(2.6603277,0,0,2.6628414,14.98532,-79.747329)"
       x1="13.161792"
       y1="74.261818"
       x2="13.161792"
       y2="36.707947" />
    <linearGradient
       id="linearGradient3104-9-4">
      <stop
         offset="0"
         style="stop-color:#a0a0a0;stop-opacity:1"
         id="stop3106-9-5" />
      <stop
         offset="1"
         style="stop-color:#c8c8c8;stop-opacity:1"
         id="stop3108-3-2" />
    </linearGradient>
    <radialGradient
       inkscape:collect="always"
       xlink:href="#linearGradient3688"
       id="radialGradient3622"
       gradientUnits="userSpaceOnUse"
       gradientTransform="matrix(2.003784,0,0,1.4,27.98813,-17.4)"
       cx="4.9929786"
       cy="43.5"
       fx="4.9929786"
       fy="43.5"
       r="2.5" />
    <linearGradient
       id="linearGradient3688">
      <stop
         offset="0"
         style="stop-color:black;stop-opacity:1"
         id="stop3690" />
      <stop
         offset="1"
         style="stop-color:black;stop-opacity:0"
         id="stop3692" />
    </linearGradient>
    <radialGradient
       inkscape:collect="always"
       xlink:href="#linearGradient3688"
       id="radialGradient3624"
       gradientUnits="userSpaceOnUse"
       gradientTransform="matrix(2.003784,0,0,1.4,-20.01187,-104.4)"
       cx="4.9929786"
       cy="43.5"
       fx="4.9929786"
       fy="43.5"
       r="2.5" />
    <linearGradient
       inkscape:collect="always"
       xlink:href="#linearGradient3702"
       id="linearGradient3626"
       gradientUnits="userSpaceOnUse"
       x1="25.058096"
       y1="47.027729"
       x2="25.058096"
       y2="39.999443" />
    <linearGradient
       id="linearGradient3702">
      <stop
         offset="0"
         style="stop-color:black;stop-opacity:0"
         id="stop3704" />
      <stop
         offset="0.5"
         style="stop-color:black;stop-opacity:1"
         id="stop3710" />
      <stop
         offset="1"
         style="stop-color:black;stop-opacity:0"
         id="stop3706" />
    </linearGradient>
  </defs>
  <sodipodi:namedview
     id="base"
     pagecolor="#ffffff"
     bordercolor="#666666"
     borderopacity="1.0"
     inkscape:pageopacity="0.0"
     inkscape:pageshadow="2"
     inkscape:zoom="2.75"
     inkscape:cx="32"
     inkscape:cy="32"
     inkscape:current-layer="layer1"
     showgrid="true"
     inkscape:document-units="px"
     inkscape:grid-bbox="true"
     inkscape:window-width="1280"
     inkscape:window-height="753"
     inkscape:window-x="0"
     inkscape:window-y="24"
     inkscape:window-maximized="1" />
  <metadata
     id="metadata4564">
    <rdf:RDF>
      <cc:Work
         rdf:about="">
        <dc:format>image/svg+xml</dc:format>
        <dc:type
           rdf:resource="http://purl.org/dc/dcmitype/StillImage" />
        <dc:title></dc:title>
      </cc:Work>
    </rdf:RDF>
  </metadata>
  <g
     id="layer1"
     inkscape:label="Layer 1"
     inkscape:groupmode="layer"
     transform="translate(0,64)">
    <g
       transform="matrix(2.9332775,0,0,2.6666712,-6.399882,-64.000153)"
       id="g2036"
       style="opacity:0.6;display:inline">
      <g
         transform="matrix(1.052632,0,0,1.285713,-1.263158,-13.42854)"
         id="g3712"
         style="opacity:0.4">
        <rect
           width="5"
           height="7"
           x="38"
           y="40"
           id="rect2801"
           style="fill:url(#radialGradient3622);fill-opacity:1;stroke:none" />
        <rect
           width="5"
           height="7"
           x="-10"
           y="-47"
           transform="scale(-1,-1)"
           id="rect3696"
           style="fill:url(#radialGradient3624);fill-opacity:1;stroke:none" />
        <rect
           width="28"
           height="7.0000005"
           x="10"
           y="40"
           id="rect3700"
           style="fill:url(#linearGradient3626);fill-opacity:1;stroke:none" />
      </g>
    </g>
    <path
       transform="translate(0,-64.00011)"
       sodipodi:type="inkscape:offset"
       inkscape:radius="0.53306943"
       inkscape:original="M 74.5 21 C 62.730418 21 52.577502 27.906013 47.84375 37.875 C 44.528413 35.434931 40.432195 34 36 34 C 24.954305 34 16 42.954297 16 54 C 16 56.245331 16.380139 58.391403 17.0625 60.40625 C 8.0401766 65.826297 2 75.708293 2 87 C 2 104.12116 15.879173 118 33 118 L 95 118 C 112.12083 118 126 104.12116 126 87 C 126 72.73689 116.36429 60.738342 103.25 57.125 C 103.73932 54.994043 104 52.779442 104 50.5 C 104 34.207283 90.7924 21 74.5 21 z "
       style="color:#000000;fill:url(#linearGradient3103);fill-opacity:1;fill-rule:nonzero;stroke:url(#linearGradient4523-26);stroke-width:0.99999988;stroke-linecap:round;stroke-linejoin:round;stroke-miterlimit:4;stroke-opacity:1;stroke-dasharray:none;stroke-dashoffset:0;marker:none;visibility:visible;display:inline;overflow:visible;enable-background:accumulate"
       id="path3038"
       d="m 74.5,20.46875 c -11.762971,0 -21.917275,6.800232 -26.84375,16.65625 C 44.340693,34.829551 40.334926,33.46875 36,33.46875 24.666213,33.46875 15.46875,42.666205 15.46875,54 c 0,2.159427 0.3814,4.204141 1,6.15625 -8.9960066,5.554135 -15,15.498936 -15,26.84375 0,17.40925 14.122338,31.53125 31.53125,31.53125 l 62,0 c 17.40892,0 31.53125,-14.122 31.53125,-31.53125 0,-14.328331 -9.56118,-26.384806 -22.65625,-30.21875 0.4318,-2.02621 0.65625,-4.126141 0.65625,-6.28125 0,-16.580804 -13.450765,-30.03125 -30.03125,-30.03125 z" />
    <path
       sodipodi:type="arc"
       style="color:#000000;fill:url(#linearGradient4558-3-7);fill-opacity:1;fill-rule:nonzero;stroke:none;stroke-width:0.97800875;marker:none;visibility:visible;display:inline;overflow:visible;enable-background:accumulate"
       id="path4527"
       sodipodi:cx="17.422222"
       sodipodi:cy="15.822222"
       sodipodi:rx="8.1797104"
       sodipodi:ry="8.1797104"
       d="m 25.601933,15.822222 c 0,4.517529 -3.662182,8.17971 -8.179711,8.17971 -4.517529,0 -8.1797103,-3.662181 -8.1797103,-8.17971 0,-4.51753 3.6621813,-8.1797106 8.1797103,-8.1797106 4.517529,0 8.179711,3.6621806 8.179711,8.1797106 z"
       transform="matrix(2.4450743,0,0,2.4450762,-6.5986279,-48.686556)" />
    <path
       sodipodi:type="arc"
       style="color:#000000;fill:url(#linearGradient4558-3);fill-opacity:1;fill-rule:nonzero;stroke:none;stroke-width:0.71127909;marker:none;visibility:visible;display:inline;overflow:visible;enable-background:accumulate"
       id="path4527-0"
       sodipodi:cx="17.422222"
       sodipodi:cy="15.822222"
       sodipodi:rx="8.1797104"
       sodipodi:ry="8.1797104"
       d="m 25.601933,15.822222 c 0,4.517529 -3.662182,8.17971 -8.179711,8.17971 -4.517529,0 -8.1797103,-3.662181 -8.1797103,-8.17971 0,-4.51753 3.6621813,-8.1797106 8.1797103,-8.1797106 4.517529,0 8.179711,3.6621806 8.179711,8.1797106 z"
       transform="matrix(3.6064847,0,0,3.6065549,11.667023,-70.564328)" />
    <path
       sodipodi:type="arc"
       style="color:#000000;fill:url(#linearGradient4808);fill-opacity:1;fill-rule:nonzero;stroke:none;stroke-width:0.71127909;marker:none;visibility:visible;display:inline;overflow:visible;enable-background:accumulate"
       id="path4527-0-6-6"
       sodipodi:cx="17.422222"
       sodipodi:cy="15.822222"
       sodipodi:rx="8.1797104"
       sodipodi:ry="8.1797104"
       d="m 25.601933,15.822222 c 0,4.517529 -3.662182,8.17971 -8.179711,8.17971 -4.517529,0 -8.1797103,-3.662181 -8.1797103,-8.17971 0,-4.51753 3.6621813,-8.1797106 8.1797103,-8.1797106 4.517529,0 8.179711,3.6621806 8.179711,8.1797106 z"
       transform="matrix(3.7898652,0,0,3.789939,28.972126,-36.965862)" />
    <path
       sodipodi:type="arc"
       style="color:#000000;fill:url(#linearGradient4808-0);fill-opacity:1;fill-rule:nonzero;stroke:none;stroke-width:0.71127909;marker:none;visibility:visible;display:inline;overflow:visible;enable-background:accumulate"
       id="path4527-0-6-7"
       sodipodi:cx="17.422222"
       sodipodi:cy="15.822222"
       sodipodi:rx="8.1797104"
       sodipodi:ry="8.1797104"
       d="m 25.601933,15.822222 c 0,4.517529 -3.662182,8.17971 -8.179711,8.17971 -4.517529,0 -8.1797103,-3.662181 -8.1797103,-8.17971 0,-4.51753 3.6621813,-8.1797106 8.1797103,-8.1797106 4.517529,0 8.179711,3.6621806 8.179711,8.1797106 z"
       transform="matrix(2.6284549,0,0,2.6285061,26.706475,-31.089252)" />
    <path
       sodipodi:type="arc"
       style="color:#000000;fill:url(#linearGradient4770);fill-opacity:1;fill-rule:nonzero;stroke:none;stroke-width:0.71127909;marker:none;visibility:visible;display:inline;overflow:visible;enable-background:accumulate"
       id="path4527-0-6"
       sodipodi:cx="17.422222"
       sodipodi:cy="15.822222"
       sodipodi:rx="8.1797104"
       sodipodi:ry="8.1797104"
       d="m 25.601933,15.822222 c 0,4.517529 -3.662182,8.17971 -8.179711,8.17971 -4.517529,0 -8.1797103,-3.662181 -8.1797103,-8.17971 0,-4.51753 3.6621813,-8.1797106 8.1797103,-8.1797106 4.517529,0 8.179711,3.6621806 8.179711,8.1797106 z"
       transform="matrix(3.7898652,0,0,3.789939,-33.027873,-36.965862)" />
    <path
       sodipodi:type="arc"
       style="opacity:0.4;color:#000000;fill:none;stroke:url(#linearGradient3713);stroke-width:0.26818722;marker:none;visibility:visible;display:inline;overflow:visible;enable-background:accumulate"
       id="path4527-0-6-8"
       sodipodi:cx="17.422222"
       sodipodi:cy="15.822222"
       sodipodi:rx="8.1797104"
       sodipodi:ry="8.1797104"
       d="m 25.601933,15.822222 c 0,4.517529 -3.662182,8.17971 -8.179711,8.17971 -4.517529,0 -8.1797103,-3.662181 -8.1797103,-8.17971 0,-4.51753 3.6621813,-8.1797106 8.1797103,-8.1797106 4.517529,0 8.179711,3.6621806 8.179711,8.1797106 z"
       transform="matrix(3.7287384,0,0,3.7287384,-31.962908,-35.997533)" />
    <path
       transform="translate(0,-64.000113)"
       sodipodi:type="inkscape:offset"
       inkscape:radius="-0.38616177"
       inkscape:original="M 74.5 21 C 62.730418 21 52.577502 27.906013 47.84375 37.875 C 44.528413 35.434931 40.432195 34 36 34 C 24.954305 34 16 42.954297 16 54 C 16 56.245331 16.380139 58.391403 17.0625 60.40625 C 8.0401766 65.826297 2 75.708293 2 87 C 2 104.12116 15.879173 118 33 118 L 95 118 C 112.12083 118 126 104.12116 126 87 C 126 72.73689 116.36429 60.738342 103.25 57.125 C 103.73932 54.994043 104 52.779442 104 50.5 C 104 34.207283 90.7924 21 74.5 21 z "
       style="opacity:1;color:#000000;fill:none;stroke:url(#linearGradient3128);stroke-width:0.99999987999999995;stroke-linecap:round;stroke-linejoin:round;stroke-miterlimit:4;stroke-opacity:1;stroke-dasharray:none;stroke-dashoffset:0;marker:none;visibility:visible;display:inline;overflow:visible;enable-background:accumulate"
       id="path3038-1"
       d="m 74.5,21.375 c -11.618524,0 -21.640879,6.818107 -26.3125,16.65625 A 0.38620039,0.38620039 0 0 1 47.625,38.1875 C 44.373751,35.794599 40.348848,34.375 36,34.375 25.163002,34.375 16.375,43.162994 16.375,54 c 0,2.201746 0.392885,4.30404 1.0625,6.28125 A 0.38620039,0.38620039 0 0 1 17.25,60.75 C 8.3400713,66.102527 2.375,75.846004 2.375,87 c 0,16.91247 13.712865,30.625 30.625,30.625 l 62,0 c 16.91214,0 30.625,-13.71253 30.625,-30.625 0,-14.089191 -9.51881,-25.931942 -22.46875,-29.5 A 0.38620039,0.38620039 0 0 1 102.875,57.03125 c 0.48295,-2.103236 0.75,-4.281249 0.75,-6.53125 0,-16.084024 -13.041292,-29.125 -29.125,-29.125 z" />
    <path
       d="M 127.50728,23.499983 96.923359,60.50729 66.492714,23.499983 l 14.007286,0 0,-30.0072801 32.99999,0 0,30.0072801 14.00729,0 0,0 z"
       id="path3288"
       style="color:#000000;fill:url(#radialGradient2904-5);fill-opacity:1;fill-rule:nonzero;stroke:url(#linearGradient2906-4);stroke-width:0.98542726;stroke-linecap:round;stroke-linejoin:round;stroke-miterlimit:4;stroke-opacity:1;stroke-dasharray:none;stroke-dashoffset:0;marker:none;visibility:visible;display:inline;overflow:visible;enable-background:accumulate" />
    <path
       d="m 81.5,-5.5000171 c 0,0 0,30.0000001 0,30.0000001 0,0 -13.007287,0 -13.007287,0 0,0 28.444424,34.000007 28.444424,34.000007 0,0 28.570133,-34.000007 28.570133,-34.000007 0,0 -13.00728,0 -13.00728,0 0,0 0,-30.0000001 0,-30.0000001 0,0 -30.99999,0 -30.99999,0 l 0,0 z"
       id="path4188"
       style="opacity:0.4;fill:none;stroke:url(#linearGradient2887);stroke-width:0.9854275;stroke-linecap:round;stroke-linejoin:round;stroke-miterlimit:4;stroke-opacity:1;stroke-dasharray:none;stroke-dashoffset:0;marker:none;visibility:visible;display:inline;overflow:visible" />
  </g>
</svg>
