<?xml version="1.0" encoding="UTF-8" standalone="no"?>
<!-- Created with Inkscape (http://www.inkscape.org/) -->

<svg
   xmlns:dc="http://purl.org/dc/elements/1.1/"
   xmlns:cc="http://creativecommons.org/ns#"
   xmlns:rdf="http://www.w3.org/1999/02/22-rdf-syntax-ns#"
   xmlns:svg="http://www.w3.org/2000/svg"
   xmlns="http://www.w3.org/2000/svg"
   xmlns:xlink="http://www.w3.org/1999/xlink"
   xmlns:sodipodi="http://sodipodi.sourceforge.net/DTD/sodipodi-0.dtd"
   xmlns:inkscape="http://www.inkscape.org/namespaces/inkscape"
   version="1.0"
   width="128"
   height="128"
   id="svg2408"
   inkscape:version="0.48.1 r9760"
   sodipodi:docname="gnome-swell-foop.svg">
  <sodipodi:namedview
     pagecolor="#ffffff"
     bordercolor="#666666"
     borderopacity="1"
     objecttolerance="10"
     gridtolerance="10"
     guidetolerance="10"
     inkscape:pageopacity="0"
     inkscape:pageshadow="2"
     inkscape:window-width="1128"
     inkscape:window-height="821"
     id="namedview85"
     showgrid="false"
     inkscape:zoom="3.3020833"
     inkscape:cx="48.908517"
     inkscape:cy="51.785489"
     inkscape:window-x="231"
     inkscape:window-y="50"
     inkscape:window-maximized="0"
     inkscape:current-layer="svg2408" />
  <defs
     id="defs2410">
    <linearGradient
       id="linearGradient3957">
      <stop
         id="stop3959"
         style="stop-color:#f14848;stop-opacity:1"
         offset="0" />
      <stop
         id="stop3965"
         style="stop-color:#e42323;stop-opacity:1"
         offset="0.671875" />
      <stop
         id="stop3963"
         style="stop-color:#c21313;stop-opacity:1"
         offset="1" />
    </linearGradient>
    <linearGradient
       id="linearGradient3927">
      <stop
         id="stop3929"
         style="stop-color:#5db1eb;stop-opacity:1"
         offset="0" />
      <stop
         id="stop3935"
         style="stop-color:#3ca0e6;stop-opacity:1"
         offset="0.71875" />
      <stop
         id="stop3933"
         style="stop-color:#1b90e2;stop-opacity:1"
         offset="1" />
    </linearGradient>
    <linearGradient
       id="linearGradient3781">
      <stop
         id="stop3783"
         style="stop-color:#ffffff;stop-opacity:1"
         offset="0" />
      <stop
         id="stop3785"
         style="stop-color:#ffffff;stop-opacity:0"
         offset="1" />
    </linearGradient>
    <linearGradient
       x1="45.447727"
       y1="92.539597"
       x2="45.447727"
       y2="7.0165396"
       id="ButtonShadow"
       gradientUnits="userSpaceOnUse"
       gradientTransform="scale(1.0058652,0.994169)">
      <stop
         id="stop3750"
         style="stop-color:#000000;stop-opacity:1"
         offset="0" />
      <stop
         id="stop3752"
         style="stop-color:#000000;stop-opacity:0.58823532"
         offset="1" />
    </linearGradient>
    <linearGradient
       id="linearGradient3737">
      <stop
         id="stop3739"
         style="stop-color:#ffffff;stop-opacity:1"
         offset="0" />
      <stop
         id="stop3741"
         style="stop-color:#ffffff;stop-opacity:0"
         offset="1" />
    </linearGradient>
    <filter
       color-interpolation-filters="sRGB"
       id="filter3174">
      <feGaussianBlur
         id="feGaussianBlur3176"
         stdDeviation="1.71" />
    </filter>
    <linearGradient
       x1="36.357143"
       y1="6"
       x2="36.357143"
       y2="63.893143"
       id="linearGradient3188"
       xlink:href="#linearGradient3737"
       gradientUnits="userSpaceOnUse" />
    <filter
       x="-0.192"
       y="-0.192"
       width="1.3839999"
       height="1.3839999"
       color-interpolation-filters="sRGB"
       id="filter3794">
      <feGaussianBlur
         id="feGaussianBlur3796"
         stdDeviation="5.28" />
    </filter>
    <linearGradient
       x1="48"
       y1="20.220806"
       x2="48"
       y2="138.66119"
       id="linearGradient3613"
       xlink:href="#linearGradient3737"
       gradientUnits="userSpaceOnUse" />
    <radialGradient
       cx="48"
       cy="90.171875"
       r="42"
       fx="48"
       fy="90.171875"
       id="radialGradient3619"
       xlink:href="#linearGradient3737"
       gradientUnits="userSpaceOnUse"
       gradientTransform="matrix(1.1573129,0,0,0.99590774,-7.5510206,0.19713193)" />
    <clipPath
       id="clipPath3613">
      <rect
         width="84"
         height="84"
         rx="6"
         ry="6"
         x="6"
         y="6"
         id="rect3615"
         style="fill:#ffffff;fill-opacity:1;fill-rule:nonzero;stroke:none" />
    </clipPath>
    <linearGradient
       x1="48"
       y1="90"
       x2="48"
       y2="5.9877172"
       id="linearGradient3617"
       xlink:href="#linearGradient3700-6"
       gradientUnits="userSpaceOnUse" />
    <linearGradient
       x1="45.447727"
       y1="92.539597"
       x2="45.447727"
       y2="7.0165396"
       id="ButtonShadow-0"
       gradientUnits="userSpaceOnUse"
       gradientTransform="matrix(1.0058652,0,0,0.994169,100,0)">
      <stop
         id="stop3750-8"
         style="stop-color:#000000;stop-opacity:1"
         offset="0" />
      <stop
         id="stop3752-5"
         style="stop-color:#000000;stop-opacity:0.58823532"
         offset="1" />
    </linearGradient>
    <linearGradient
       x1="32.251034"
       y1="6.1317081"
       x2="32.251034"
       y2="90.238609"
       id="linearGradient3780"
       xlink:href="#ButtonShadow-0"
       gradientUnits="userSpaceOnUse"
       gradientTransform="matrix(1.0238095,0,0,1.0119048,-1.1428571,-98.071429)" />
    <linearGradient
       x1="32.251034"
       y1="6.1317081"
       x2="32.251034"
       y2="90.238609"
       id="linearGradient3772"
       xlink:href="#ButtonShadow-0"
       gradientUnits="userSpaceOnUse"
       gradientTransform="matrix(1.0238095,0,0,1.0119048,-1.1428571,-98.071429)" />
    <linearGradient
       x1="32.251034"
       y1="6.1317081"
       x2="32.251034"
       y2="90.238609"
       id="linearGradient3725"
       xlink:href="#ButtonShadow-0"
       gradientUnits="userSpaceOnUse"
       gradientTransform="matrix(1.0238095,0,0,1.0119048,-1.1428571,-98.071429)" />
    <linearGradient
       x1="32.251034"
       y1="6.1317081"
       x2="32.251034"
       y2="90.238609"
       id="linearGradient3721"
       xlink:href="#ButtonShadow-0"
       gradientUnits="userSpaceOnUse"
       gradientTransform="translate(0,-97)" />
    <linearGradient
       x1="32.251034"
       y1="6.1317081"
       x2="32.251034"
       y2="90.238609"
       id="linearGradient3026"
       xlink:href="#ButtonShadow-0"
       gradientUnits="userSpaceOnUse"
       gradientTransform="matrix(1.0238095,0,0,1.0119048,-1.1428571,-98.071429)" />
    <radialGradient
       cx="32"
       cy="26"
       r="16"
       fx="32"
       fy="26"
       id="radialGradient3679"
       xlink:href="#linearGradient3927"
       gradientUnits="userSpaceOnUse"
       gradientTransform="matrix(1.1875,0,0,1.125,-6,-3.25)" />
    <linearGradient
       x1="61"
       y1="15"
       x2="67.29734"
       y2="38.501991"
       id="linearGradient3791"
       xlink:href="#linearGradient3781"
       gradientUnits="userSpaceOnUse"
       gradientTransform="translate(-36,0)" />
    <linearGradient
       id="linearGradient3700-6">
      <stop
         id="stop3702-3"
         style="stop-color:#2f2f2f;stop-opacity:1"
         offset="0" />
      <stop
         id="stop3704-9"
         style="stop-color:#4f4f4f;stop-opacity:1"
         offset="1" />
    </linearGradient>
    <radialGradient
       cx="32"
       cy="40"
       r="16"
       fx="32"
       fy="40"
       id="radialGradient3972"
       xlink:href="#linearGradient3957"
       gradientUnits="userSpaceOnUse"
       gradientTransform="matrix(1.1875,0,0,1.125,-6,-5)" />
    <linearGradient
       x1="61"
       y1="15"
       x2="67.29734"
       y2="38.501991"
       id="linearGradient3974"
       xlink:href="#linearGradient3781"
       gradientUnits="userSpaceOnUse" />
    <radialGradient
       cx="32"
       cy="40"
       r="16"
       fx="32"
       fy="40"
       id="radialGradient3984"
       xlink:href="#linearGradient3957"
       gradientUnits="userSpaceOnUse"
       gradientTransform="matrix(1.1875,0,0,1.125,-6,-5)" />
    <linearGradient
       x1="61"
       y1="15"
       x2="67.29734"
       y2="38.501991"
       id="linearGradient3986"
       xlink:href="#linearGradient3781"
       gradientUnits="userSpaceOnUse" />
    <radialGradient
       cx="32"
       cy="40"
       r="16"
       fx="32"
       fy="40"
       id="radialGradient3996"
       xlink:href="#linearGradient3957"
       gradientUnits="userSpaceOnUse"
       gradientTransform="matrix(1.1875,0,0,1.125,-6,-5)" />
    <linearGradient
       x1="61"
       y1="15"
       x2="67.29734"
       y2="38.501991"
       id="linearGradient3998"
       xlink:href="#linearGradient3781"
       gradientUnits="userSpaceOnUse" />
  </defs>
  <metadata
     id="metadata2413">
    <rdf:RDF>
      <cc:Work
         rdf:about="">
        <dc:format>image/svg+xml</dc:format>
        <dc:type
           rdf:resource="http://purl.org/dc/dcmitype/StillImage" />
        <dc:title />
      </cc:Work>
    </rdf:RDF>
  </metadata>
  <g
     id="layer2"
     style="display:none"
     transform="translate(0,32)">
    <rect
       width="86"
       height="85"
       rx="6"
       ry="6"
       x="5"
       y="7"
       id="rect3745"
       style="opacity:0.9;fill:url(#ButtonShadow);fill-opacity:1;fill-rule:nonzero;stroke:none;filter:url(#filter3174)" />
  </g>
  <g
     id="layer5"
     transform="matrix(1.4880952,0,0,1.4880952,-6.5626408,-7.9916625)">
    <rect
       width="66"
       height="66"
       rx="12"
       ry="12"
       x="15"
       y="15"
       clip-path="url(#clipPath3613)"
       id="rect3171"
       style="opacity:0.1;fill:url(#linearGradient3613);fill-opacity:1;fill-rule:nonzero;stroke:#ffffff;stroke-width:0.5;stroke-linecap:round;stroke-linejoin:miter;stroke-miterlimit:4;stroke-opacity:1;stroke-dasharray:none;stroke-dashoffset:0;filter:url(#filter3794)" />
  </g>
  <g
     id="layer4"
     transform="matrix(1.4880952,0,0,1.4880952,-6.1119874,-7.9916625)">
    <path
       d="m 30,12.125 c -10.397851,0 -18.875,8.477149 -18.875,18.875 0,8.553553 5.770333,15.712139 13.59375,18 -7.823417,2.287861 -13.59375,9.446447 -13.59375,18 0,10.397851 8.477149,18.875 18.875,18.875 8.553553,0 15.712139,-5.770333 18,-13.59375 2.287861,7.823417 9.446447,13.59375 18,13.59375 10.397851,0 18.875,-8.477149 18.875,-18.875 0,-8.553553 -5.770333,-15.712139 -13.59375,-18 C 79.104667,46.712139 84.875,39.553553 84.875,31 84.875,20.602149 76.397851,12.125 66,12.125 57.446447,12.125 50.287861,17.895333 48,25.71875 45.712139,17.895333 38.553553,12.125 30,12.125 z M 48,36.25 C 49.792518,42.39822 54.60178,47.207482 60.75,49 54.60178,50.792518 49.792518,55.60178 48,61.75 46.207482,55.60178 41.39822,50.792518 35.25,49 41.39822,47.207482 46.207482,42.39822 48,36.25 z"
       id="path3752"
       style="opacity:0.05;color:#000000;fill:#000000;fill-opacity:1;fill-rule:nonzero;stroke:none;stroke-width:0.5;marker:none;visibility:visible;display:inline;overflow:visible;enable-background:accumulate"
       inkscape:connector-curvature="0" />
    <path
       d="m 30,12.90625 c -9.980488,0 -18.09375,8.113262 -18.09375,18.09375 0,9.639284 7.584009,17.470463 17.09375,18 -9.509741,0.529537 -17.09375,8.360716 -17.09375,18 0,9.980488 8.113262,18.09375 18.09375,18.09375 9.639284,0 17.470463,-7.584009 18,-17.09375 0.529537,9.509741 8.360716,17.09375 18,17.09375 9.980488,0 18.09375,-8.113262 18.09375,-18.09375 C 84.09375,57.360716 76.509741,49.529537 67,49 76.509741,48.470463 84.09375,40.639284 84.09375,31 84.09375,21.019512 75.980488,12.90625 66,12.90625 56.360716,12.90625 48.529537,20.490259 48,30 47.470463,20.490259 39.639284,12.90625 30,12.90625 z M 48,32 c 0.510793,9.173121 7.826879,16.489207 17,17 C 55.826879,49.510793 48.510793,56.826879 48,66 47.489207,56.826879 40.173121,49.510793 31,49 40.173121,48.489207 47.489207,41.173121 48,32 z"
       id="path3748"
       style="opacity:0.1;color:#000000;fill:#000000;fill-opacity:1;fill-rule:nonzero;stroke:none;stroke-width:0.5;marker:none;visibility:visible;display:inline;overflow:visible;enable-background:accumulate"
       inkscape:connector-curvature="0" />
    <path
       d="m 30,14 c -9.381434,0 -17,7.618566 -17,17 0,9.381434 7.618566,17 17,17 9.381434,0 17,-7.618566 17,-17 0,-9.381434 -7.618566,-17 -17,-17 z m 36,0 c -9.381434,0 -17,7.618566 -17,17 0,9.381434 7.618566,17 17,17 9.381434,0 17,-7.618566 17,-17 C 83,21.618566 75.381434,14 66,14 z M 30,50 c -9.381434,0 -17,7.618566 -17,17 0,9.381434 7.618566,17 17,17 9.381434,0 17,-7.618566 17,-17 0,-9.381434 -7.618566,-17 -17,-17 z m 36,0 c -9.381434,0 -17,7.618566 -17,17 0,9.381434 7.618566,17 17,17 9.381434,0 17,-7.618566 17,-17 0,-9.381434 -7.618566,-17 -17,-17 z"
       id="path3744"
       style="opacity:0.15;color:#000000;fill:#000000;fill-opacity:1;fill-rule:nonzero;stroke:none;stroke-width:0.5;marker:none;visibility:visible;display:inline;overflow:visible;enable-background:accumulate"
       inkscape:connector-curvature="0" />
    <path
       d="m 30,15 c -8.836556,0 -16,7.163444 -16,16 0,8.836556 7.163444,16 16,16 8.836556,0 16,-7.163444 16,-16 0,-8.836556 -7.163444,-16 -16,-16 z m 36,0 c -8.836556,0 -16,7.163444 -16,16 0,8.836556 7.163444,16 16,16 8.836556,0 16,-7.163444 16,-16 C 82,22.163444 74.836556,15 66,15 z M 30,51 c -8.836556,0 -16,7.163444 -16,16 0,8.836556 7.163444,16 16,16 8.836556,0 16,-7.163444 16,-16 0,-8.836556 -7.163444,-16 -16,-16 z m 36,0 c -8.836556,0 -16,7.163444 -16,16 0,8.836556 7.163444,16 16,16 8.836556,0 16,-7.163444 16,-16 0,-8.836556 -7.163444,-16 -16,-16 z"
       inkscape:connector-curvature="0"
       id="path3729"
       style="opacity:0.3;color:#000000;fill:#000000;fill-opacity:1;fill-rule:nonzero;stroke:none;stroke-width:0.5;marker:none;visibility:visible;display:inline;overflow:visible;enable-background:accumulate" />
    <path
       d="m 48,32 a 16,16 0 1 1 -32,0 16,16 0 1 1 32,0 z"
       transform="matrix(1,0,0,-1,-2,62)"
       id="path3663"
       style="color:#000000;fill:url(#radialGradient3679);fill-opacity:1;fill-rule:nonzero;stroke:none;stroke-width:0.5;marker:none;visibility:visible;display:inline;overflow:visible;enable-background:accumulate"
       inkscape:connector-curvature="0" />
    <path
       d="m 30,15 c -8.284271,0 -15,6.715729 -15,15 0,3.608737 1.282987,6.912026 3.40625,9.5 C 16.881323,37.204428 16,34.46246 16,31.5 16,23.491871 22.491871,17 30.5,17 38.25256,17 44.57252,23.096036 44.96875,30.75 44.98119,30.499479 45,30.253609 45,30 45,21.715729 38.284271,15 30,15 z"
       inkscape:connector-curvature="0"
       id="path3789"
       style="opacity:0.4;color:#000000;fill:url(#linearGradient3791);fill-opacity:1;fill-rule:nonzero;stroke:none;stroke-width:0.5;marker:none;visibility:visible;display:inline;overflow:visible;enable-background:accumulate" />
    <path
       d="m 30,14 c -8.836556,0 -16,7.163444 -16,16 0,8.836556 7.163444,16 16,16 8.836556,0 16,-7.163444 16,-16 0,-8.836556 -7.163444,-16 -16,-16 z m 0,0.96875 c 8.320146,0 15.03125,6.711104 15.03125,15.03125 0,8.320146 -6.711104,15.03125 -15.03125,15.03125 -8.320146,0 -15.03125,-6.711104 -15.03125,-15.03125 0,-8.320146 6.711104,-15.03125 15.03125,-15.03125 z"
       inkscape:connector-curvature="0"
       id="path3795"
       style="opacity:0.2;color:#000000;fill:#000000;fill-opacity:1;fill-rule:nonzero;stroke:none;stroke-width:0.5;marker:none;visibility:visible;display:inline;overflow:visible;enable-background:accumulate" />
    <g
       id="g3967">
      <path
         d="m 48,32 a 16,16 0 1 1 -32,0 16,16 0 1 1 32,0 z"
         transform="translate(34,-2)"
         id="path3667"
         style="color:#000000;fill:url(#radialGradient3972);fill-opacity:1;fill-rule:nonzero;stroke:none;stroke-width:0.5;marker:none;visibility:visible;display:inline;overflow:visible;enable-background:accumulate"
         inkscape:connector-curvature="0" />
      <path
         d="m 66,15 c -8.284271,0 -15,6.715729 -15,15 0,3.608737 1.282987,6.912026 3.40625,9.5 C 52.881323,37.204428 52,34.46246 52,31.5 52,23.491871 58.491871,17 66.5,17 74.25256,17 80.57252,23.096036 80.96875,30.75 80.98119,30.499479 81,30.253609 81,30 81,21.715729 74.284271,15 66,15 z"
         inkscape:connector-curvature="0"
         id="path3764"
         style="opacity:0.3;color:#000000;fill:url(#linearGradient3974);fill-opacity:1;fill-rule:nonzero;stroke:none;stroke-width:0.5;marker:none;visibility:visible;display:inline;overflow:visible;enable-background:accumulate" />
      <path
         d="m 66,14 c -8.836556,0 -16,7.163444 -16,16 0,8.836556 7.163444,16 16,16 8.836556,0 16,-7.163444 16,-16 0,-8.836556 -7.163444,-16 -16,-16 z m 0,0.96875 c 8.320146,0 15.03125,6.711104 15.03125,15.03125 0,8.320146 -6.711104,15.03125 -15.03125,15.03125 -8.320146,0 -15.03125,-6.711104 -15.03125,-15.03125 0,-8.320146 6.711104,-15.03125 15.03125,-15.03125 z"
         inkscape:connector-curvature="0"
         id="path3802"
         style="opacity:0.2;color:#000000;fill:#000000;fill-opacity:1;fill-rule:nonzero;stroke:none;stroke-width:0.5;marker:none;visibility:visible;display:inline;overflow:visible;enable-background:accumulate" />
    </g>
    <g
       transform="translate(0,36)"
       id="g3976">
      <path
         d="m 48,32 a 16,16 0 1 1 -32,0 16,16 0 1 1 32,0 z"
         transform="translate(34,-2)"
         id="path3978"
         style="color:#000000;fill:url(#radialGradient3984);fill-opacity:1;fill-rule:nonzero;stroke:none;stroke-width:0.5;marker:none;visibility:visible;display:inline;overflow:visible;enable-background:accumulate"
         inkscape:connector-curvature="0" />
      <path
         d="m 66,15 c -8.284271,0 -15,6.715729 -15,15 0,3.608737 1.282987,6.912026 3.40625,9.5 C 52.881323,37.204428 52,34.46246 52,31.5 52,23.491871 58.491871,17 66.5,17 74.25256,17 80.57252,23.096036 80.96875,30.75 80.98119,30.499479 81,30.253609 81,30 81,21.715729 74.284271,15 66,15 z"
         inkscape:connector-curvature="0"
         id="path3980"
         style="opacity:0.3;color:#000000;fill:url(#linearGradient3986);fill-opacity:1;fill-rule:nonzero;stroke:none;stroke-width:0.5;marker:none;visibility:visible;display:inline;overflow:visible;enable-background:accumulate" />
      <path
         d="m 66,14 c -8.836556,0 -16,7.163444 -16,16 0,8.836556 7.163444,16 16,16 8.836556,0 16,-7.163444 16,-16 0,-8.836556 -7.163444,-16 -16,-16 z m 0,0.96875 c 8.320146,0 15.03125,6.711104 15.03125,15.03125 0,8.320146 -6.711104,15.03125 -15.03125,15.03125 -8.320146,0 -15.03125,-6.711104 -15.03125,-15.03125 0,-8.320146 6.711104,-15.03125 15.03125,-15.03125 z"
         inkscape:connector-curvature="0"
         id="path3982"
         style="opacity:0.2;color:#000000;fill:#000000;fill-opacity:1;fill-rule:nonzero;stroke:none;stroke-width:0.5;marker:none;visibility:visible;display:inline;overflow:visible;enable-background:accumulate" />
    </g>
    <g
       transform="translate(-36,36)"
       id="g3988">
      <path
         d="m 48,32 a 16,16 0 1 1 -32,0 16,16 0 1 1 32,0 z"
         transform="translate(34,-2)"
         id="path3990"
         style="color:#000000;fill:url(#radialGradient3996);fill-opacity:1;fill-rule:nonzero;stroke:none;stroke-width:0.5;marker:none;visibility:visible;display:inline;overflow:visible;enable-background:accumulate"
         inkscape:connector-curvature="0" />
      <path
         d="m 66,15 c -8.284271,0 -15,6.715729 -15,15 0,3.608737 1.282987,6.912026 3.40625,9.5 C 52.881323,37.204428 52,34.46246 52,31.5 52,23.491871 58.491871,17 66.5,17 74.25256,17 80.57252,23.096036 80.96875,30.75 80.98119,30.499479 81,30.253609 81,30 81,21.715729 74.284271,15 66,15 z"
         inkscape:connector-curvature="0"
         id="path3992"
         style="opacity:0.3;color:#000000;fill:url(#linearGradient3998);fill-opacity:1;fill-rule:nonzero;stroke:none;stroke-width:0.5;marker:none;visibility:visible;display:inline;overflow:visible;enable-background:accumulate" />
      <path
         d="m 66,14 c -8.836556,0 -16,7.163444 -16,16 0,8.836556 7.163444,16 16,16 8.836556,0 16,-7.163444 16,-16 0,-8.836556 -7.163444,-16 -16,-16 z m 0,0.96875 c 8.320146,0 15.03125,6.711104 15.03125,15.03125 0,8.320146 -6.711104,15.03125 -15.03125,15.03125 -8.320146,0 -15.03125,-6.711104 -15.03125,-15.03125 0,-8.320146 6.711104,-15.03125 15.03125,-15.03125 z"
         inkscape:connector-curvature="0"
         id="path3994"
         style="opacity:0.2;color:#000000;fill:#000000;fill-opacity:1;fill-rule:nonzero;stroke:none;stroke-width:0.5;marker:none;visibility:visible;display:inline;overflow:visible;enable-background:accumulate" />
    </g>
  </g>
</svg>
