<?xml version="1.0" encoding="UTF-8" standalone="no"?>
<!-- Created with Inkscape (http://www.inkscape.org/) -->

<svg
   xmlns:dc="http://purl.org/dc/elements/1.1/"
   xmlns:cc="http://creativecommons.org/ns#"
   xmlns:rdf="http://www.w3.org/1999/02/22-rdf-syntax-ns#"
   xmlns:svg="http://www.w3.org/2000/svg"
   xmlns="http://www.w3.org/2000/svg"
   xmlns:xlink="http://www.w3.org/1999/xlink"
   xmlns:sodipodi="http://sodipodi.sourceforge.net/DTD/sodipodi-0.dtd"
   xmlns:inkscape="http://www.inkscape.org/namespaces/inkscape"
   id="svg4501"
   height="128"
   width="128"
   version="1.1"
   inkscape:version="0.48.1 r9760"
   sodipodi:docname="6.svg">
  <sodipodi:namedview
     pagecolor="#ffffff"
     bordercolor="#666666"
     borderopacity="1"
     objecttolerance="10"
     gridtolerance="10"
     guidetolerance="10"
     inkscape:pageopacity="0"
     inkscape:pageshadow="2"
     inkscape:window-width="871"
     inkscape:window-height="729"
     id="namedview40"
     showgrid="false"
     inkscape:zoom="2.4765625"
     inkscape:cx="64"
     inkscape:cy="69.047319"
     inkscape:window-x="382"
     inkscape:window-y="65"
     inkscape:window-maximized="0"
     inkscape:current-layer="layer1" />
  <defs
     id="defs4503">
    <linearGradient
       id="linearGradient2959"
       y2="43"
       gradientUnits="userSpaceOnUse"
       x2="24"
       gradientTransform="matrix(2.7838 0 0 2.7838 -3.2021 -66.419)"
       y1="5"
       x1="24">
      <stop
         id="stop3926"
         style="stop-color:#fff"
         offset="0" />
      <stop
         id="stop3928"
         style="stop-color:#fff;stop-opacity:.23529"
         offset=".063165" />
      <stop
         id="stop3930"
         style="stop-color:#fff;stop-opacity:.15686"
         offset=".95056" />
      <stop
         id="stop3932"
         style="stop-color:#fff;stop-opacity:.39216"
         offset="1" />
    </linearGradient>
    <radialGradient
       id="radialGradient2962"
       gradientUnits="userSpaceOnUse"
       cy="8.4498"
       cx="7.4957"
       gradientTransform="matrix(5.2307e-8 6.2919 -6.6561 -1.1592e-7 119.85 -97.702)"
       r="20">
      <stop
         id="stop5616"
         style="stop-color:#71a0cf"
         offset="0" />
      <stop
         id="stop5938"
         style="stop-color:#4178af"
         offset=".5" />
      <stop
         id="stop5618"
         style="stop-color:#315680"
         offset="1" />
    </radialGradient>
    <linearGradient
       id="linearGradient2964"
       y2="3.899"
       gradientUnits="userSpaceOnUse"
       x2="24"
       gradientTransform="matrix(2.6923 0 0 2.6923 -1.0067 -64.224)"
       y1="44"
       x1="24">
      <stop
         id="stop5622"
         style="stop-color:#203142"
         offset="0" />
      <stop
         id="stop5624"
         style="stop-color:#5279a4"
         offset="1" />
    </linearGradient>
    <filter
       id="filter6181">
      <feGaussianBlur
         id="feGaussianBlur6183"
         stdDeviation="1.6001681" />
    </filter>
    <linearGradient
       id="linearGradient4631"
       y2="35"
       gradientUnits="userSpaceOnUse"
       x2="30"
       gradientTransform="matrix(3.0659 0 0 3.0673 -13.331 -69.007)"
       y1="24"
       x1="30">
      <stop
         id="stop3795-4"
         style="stop-color:#ffb100"
         offset="0" />
      <stop
         id="stop3797-1"
         style="stop-color:#ffb100;stop-opacity:0"
         offset="1" />
    </linearGradient>
    <linearGradient
       id="linearGradient4634"
       y2="28"
       gradientUnits="userSpaceOnUse"
       x2="25"
       gradientTransform="matrix(3.0659 0 0 3.0673 -13.331 -69.007)"
       y1="11.489"
       x1="25">
      <stop
         id="stop3736-5"
         style="stop-color:#cbf44b"
         offset="0" />
      <stop
         id="stop3738-0"
         style="stop-color:#cbf44b;stop-opacity:0"
         offset="1" />
    </linearGradient>
    <linearGradient
       id="linearGradient4640"
       y2="10.979"
       gradientUnits="userSpaceOnUse"
       x2="17"
       gradientTransform="matrix(3.0667 0 0 3.0833 35.509 -68.025)"
       y1="35"
       x1="17">
      <stop
         id="stop4487-2"
         style="stop-color:#fff"
         offset="0" />
      <stop
         id="stop4489-0"
         style="stop-color:#fff;stop-opacity:0"
         offset="1" />
    </linearGradient>
    <linearGradient
       x1="48"
       y1="20.220806"
       x2="48"
       y2="138.66119"
       id="linearGradient2885"
       xlink:href="#linearGradient3737-1"
       gradientUnits="userSpaceOnUse" />
    <linearGradient
       id="linearGradient3737-1">
      <stop
         id="stop3739-1"
         style="stop-color:#ffffff;stop-opacity:1"
         offset="0" />
      <stop
         id="stop3741-5"
         style="stop-color:#ffffff;stop-opacity:0"
         offset="1" />
    </linearGradient>
    <clipPath
       id="clipPath3613">
      <rect
         width="84"
         height="84"
         rx="6"
         ry="6"
         x="6"
         y="6"
         id="rect3615"
         style="fill:#ffffff;fill-opacity:1;fill-rule:nonzero;stroke:none" />
    </clipPath>
    <filter
       x="-0.192"
       y="-0.192"
       width="1.3839999"
       height="1.3839999"
       color-interpolation-filters="sRGB"
       id="filter3794">
      <feGaussianBlur
         id="feGaussianBlur3796"
         stdDeviation="5.28" />
    </filter>
    <linearGradient
       y2="138.66119"
       x2="48"
       y1="20.220806"
       x1="48"
       gradientUnits="userSpaceOnUse"
       id="linearGradient4697"
       xlink:href="#linearGradient3737-1"
       inkscape:collect="always" />
    <clipPath
       clipPathUnits="userSpaceOnUse"
       id="clipPath4055">
      <path
         style="fill:url(#linearGradient4059);fill-opacity:1;fill-rule:nonzero;stroke:none"
         d="m 164.83386,402.02972 c -17.13212,0 -30.92441,13.79229 -30.92441,30.92441 l 0,371.09287 c 0,17.13213 13.79229,30.92441 30.92441,30.92441 l 371.09287,0 c 17.13212,0 30.92441,-13.79228 30.92441,-30.92441 l 0,-371.09287 c 0,-17.13212 -13.79229,-30.92441 -30.92441,-30.92441 l -371.09287,0 z m 185.54644,28.83057 c 103.60284,0 187.64027,84.03743 187.64027,187.64028 0,103.60284 -84.03743,187.47921 -187.64027,187.47921 -103.60285,0 -187.64028,-83.87637 -187.64028,-187.47921 0,-103.60285 84.03743,-187.64028 187.64028,-187.64028 z"
         id="path4057"
         inkscape:connector-curvature="0" />
    </clipPath>
    <radialGradient
       inkscape:collect="always"
       xlink:href="#linearGradient3630"
       id="radialGradient3931"
       gradientUnits="userSpaceOnUse"
       gradientTransform="matrix(4.8417716e-8,-1.7996756,0.9373413,-6.2464348e-8,-188.71787,1320.5)"
       cx="377.23792"
       cy="603.78839"
       fx="377.23792"
       fy="603.78839"
       r="329.17609" />
    <linearGradient
       id="linearGradient3630">
      <stop
         style="stop-color:#469ff9;stop-opacity:1"
         offset="0"
         id="stop3638" />
      <stop
         id="stop3642"
         offset="0.67284548"
         style="stop-color:#c2cfdc;stop-opacity:0.49803922;" />
      <stop
         id="stop3634"
         offset="1"
         style="stop-color:#47a0fa;stop-opacity:0;" />
    </linearGradient>
    <radialGradient
       inkscape:collect="always"
       xlink:href="#linearGradient2427"
       id="radialGradient3933"
       gradientUnits="userSpaceOnUse"
       gradientTransform="matrix(0.8517704,1.0562398e-7,0,0.9613861,-1122.4773,348.03689)"
       cx="1760.7036"
       cy="513.24353"
       fx="1760.7036"
       fy="513.24353"
       r="336.14325" />
    <linearGradient
       id="linearGradient2427">
      <stop
         id="stop2429"
         offset="0"
         style="stop-color:#a6c0ce;stop-opacity:1;" />
      <stop
         style="stop-color:#ffffff;stop-opacity:0;"
         offset="1"
         id="stop2433" />
    </linearGradient>
    <radialGradient
       inkscape:collect="always"
       xlink:href="#linearGradient3821"
       id="radialGradient3935"
       gradientUnits="userSpaceOnUse"
       gradientTransform="matrix(2.0136983,5.331676e-6,-2.11093e-8,2.2175999,-382.40542,-635.95221)"
       cx="377.23792"
       cy="525.66876"
       fx="377.23792"
       fy="525.66876"
       r="335.63123" />
    <linearGradient
       id="linearGradient3821">
      <stop
         id="stop3823"
         offset="0"
         style="stop-color:#000000;stop-opacity:0;" />
      <stop
         style="stop-color:#000000;stop-opacity:0;"
         offset="0.19851486"
         id="stop3825" />
      <stop
         id="stop3827"
         offset="1"
         style="stop-color:#000000;stop-opacity:1;" />
    </linearGradient>
    <linearGradient
       inkscape:collect="always"
       xlink:href="#linearGradient3854"
       id="linearGradient3937"
       gradientUnits="userSpaceOnUse"
       x1="377.23792"
       y1="139.97688"
       x2="377.23792"
       y2="331.37125" />
    <linearGradient
       id="linearGradient3854">
      <stop
         style="stop-color:#e4e6e8;stop-opacity:1;"
         offset="0"
         id="stop3856" />
      <stop
         id="stop3858"
         offset="1"
         style="stop-color:#4f7b8c;stop-opacity:0;" />
    </linearGradient>
  </defs>
  <metadata
     id="metadata4506">
    <rdf:RDF>
      <cc:Work
         rdf:about="">
        <dc:format>image/svg+xml</dc:format>
        <dc:type
           rdf:resource="http://purl.org/dc/dcmitype/StillImage" />
        <dc:title></dc:title>
      </cc:Work>
    </rdf:RDF>
  </metadata>
  <g
     id="layer1"
     transform="translate(.39130 63.608)">
    <rect
       id="rect5505-2"
       style="opacity:.4;color:#000000;filter:url(#filter6181)"
       transform="matrix(1.7299 0 0 1.6462 1.3326 -42.965)"
       rx="3.072"
       ry="3.1624"
       height="64"
       width="64"
       y="-3.84"
       x="4" />
    <rect
       id="rect5505"
       style="stroke-linejoin:round;color:#000000;stroke:url(#linearGradient2964);stroke-linecap:round;fill:url(#radialGradient2962)"
       rx="5"
       ry="5"
       height="105"
       width="105"
       y="-52.108"
       x="11.109" />
    <rect
       id="rect6741"
       style="opacity:.5;stroke-linejoin:round;stroke:url(#linearGradient2959);stroke-linecap:round;fill:none"
       rx="4"
       ry="4"
       height="103"
       width="103"
       y="-51.108"
       x="12.109" />
    <g
       transform="matrix(0.22972808,0,0,0.22972808,-16.883491,-142.50252)"
       id="g4008"
       style="opacity:0.5;display:inline;enable-background:new"
       clip-path="url(#clipPath4055)" />
    <path
       sodipodi:type="arc"
       style="fill:#ffffff;fill-opacity:1;stroke:none;display:inline"
       id="path3939"
       sodipodi:cx="55.71838"
       sodipodi:cy="59.116001"
       sodipodi:rx="44.927849"
       sodipodi:ry="44.927849"
       d="m 100.64623,59.116001 a 44.927849,44.927849 0 1 1 -89.855699,0 44.927849,44.927849 0 1 1 89.855699,0 z"
       transform="matrix(0.95919539,0,0,0.95919539,10.163887,-57.119366)" />
    <g
       transform="matrix(0.07995162,0,0,0.07995162,32.272553,-43.191177)"
       id="g3901"
       style="display:inline;enable-background:new">
      <g
         id="g3903"
         inkscape:label="shadow" />
      <g
         inkscape:label="Layer 1"
         id="g3907"
         style="display:inline">
        <g
           id="g3909">
          <path
             inkscape:connector-curvature="0"
             style="fill:#0278dc;fill-opacity:1"
             d="m 378.1875,50.78125 c -2.96236,-0.09066 -5.82424,1.079077 -7.875,3.21875 -29.59003,30.877495 -59.66374,65.52306 -86.84375,98.5 -0.0316,0.0414 -0.0628,0.0831 -0.0937,0.125 C 216.39692,236.15433 165.48764,321.98049 128.5938,413.875 94.225952,499.47777 74.132038,573.53187 55.8438,681.40625 51.838929,705.02896 47.791912,733.65373 45,756.6875 c -1.395956,11.51688 -2.479806,21.62104 -3.09375,29.09375 -0.306972,3.73635 -0.485823,6.80156 -0.53125,9.28125 -0.02271,1.23984 -0.0263,2.27355 0.09375,3.5625 0.06003,0.64448 0.116328,1.33217 0.4375,2.5 0.321172,1.16783 0.05906,3.53835 4.75,6.4375 2.53132,1.5645 2.872036,1.25545 3.5,1.40625 0.627964,0.1508 1.114391,0.26043 1.625,0.34375 1.021219,0.16665 2.105586,0.27412 3.34375,0.40625 2.476327,0.26426 5.542631,0.51019 8.78125,0.6875 25.680126,1.40591 63.54914,7.93128 88.65625,15.28125 16.95014,4.96204 28.10958,9.06713 44.65625,16.40625 3.82288,1.6956 7.32851,3.24619 9.9375,4.375 1.3045,0.5644 2.37544,1.00367 3.1875,1.34375 0.38203,0.15999 0.72066,0.28279 1.03125,0.40625 0.0195,0.008 0.043,0.0236 0.0625,0.0312 0.005,0.002 0.0258,-0.003 0.0312,0 0.011,0.004 0.0203,0.0269 0.0312,0.0312 0.11631,0.0604 0.23661,0.11198 0.4375,0.21875 -0.0119,-0.0275 -0.0543,-0.0784 -0.0937,-0.0937 0.0588,0.0218 0.0827,0.0363 0.15625,0.0625 0.13196,0.047 0.27515,0.12393 0.59375,0.21875 0.12568,0.0374 0.22161,0.10822 0.375,0.1875 -0.0737,-0.0173 -0.35088,-0.0129 -0.40625,-0.0312 0.73325,0.39462 1.60371,0.88375 2.78125,1.53125 2.80093,1.54016 6.64897,3.67379 10.84375,6.03125 40.52196,22.77336 70.82614,46.25776 119.21875,92.625 6.37566,6.1088 12.31679,11.65041 16.8125,15.75 2.24786,2.04979 4.11468,3.73663 5.59375,5 0.73953,0.63168 1.36465,1.14641 2.03125,1.65625 0.3333,0.25492 0.65593,0.51682 1.21875,0.875 0.28141,0.17909 0.62679,0.38732 1.25,0.6875 0.62321,0.30018 1.24332,0.89056 4.125,1.03125 3.45229,0.16841 4.16872,-0.59022 4.875,-0.90625 0.70628,-0.31603 1.069,-0.53075 1.375,-0.71875 0.612,-0.376 0.95595,-0.63916 1.3125,-0.90625 0.7131,-0.53419 1.35659,-1.07749 2.15625,-1.75 1.59932,-1.34501 3.6419,-3.16839 6.09375,-5.375 4.9037,-4.41321 11.39113,-10.40884 18.375,-17.03125 40.03124,-37.95938 59.4088,-54.00555 87.28125,-72.5 60.86863,-40.3887 115.10891,-58.3158 198.375,-65.34375 l 6.75,-0.5625 c 5.42647,-0.45316 9.59853,-4.99215 9.59375,-10.4375 l 0,-3.96875 C 712.62502,786.25729 710.65608,769.16852 708,748 705.34392,726.83148 701.94618,702.73759 698.875,684.4375 680.6084,575.5932 659.84081,498.93313 625.03125,412.25 593.67267,334.16054 548.77858,255.27854 495.125,183.875 c -0.12049,-0.1598 -0.24554,-0.31612 -0.375,-0.46875 C 458.63494,140.6552 423.70101,95.784759 385.59375,54.1875 c -1.90683,-2.089856 -4.57856,-3.318629 -7.40625,-3.40625 l 0,0 z"
             id="path3911" />
          <path
             inkscape:connector-curvature="0"
             style="opacity:0.5;fill:url(#radialGradient3931);fill-opacity:1;fill-rule:evenodd;stroke:none;stroke-width:2.5;marker:none;visibility:visible;display:inline;overflow:visible"
             d="M 377.23791,641.59412 455.54373,132.18981 380.26869,47.829869 298.50444,138.67904 377.23791,641.59412 197.2725,290.52695 137.21247,402.04484 377.23791,641.59412 99.878778,497.18819 75.716718,592.98024 377.23791,641.59412 54.509504,692.85901 44.679072,810.46593 377.23791,641.59412 184.73574,833.57864 l 76.13118,39.68088 116.37099,-231.6654 -46.70831,289.2923 46.70831,42.71443 47.61717,-42.05859 -47.61717,-289.94814 119.06633,232.31313 71.92438,-40.643 L 377.23791,641.59412 703.03125,808.9375 697.51097,692.49576 377.23791,641.59412 677.85811,598.19576 652.74509,499.85524 377.23791,641.59412 619.25532,403.87847 560.18251,281.08748 377.23791,641.59412 z"
             id="path3913"
             sodipodi:nodetypes="ccccccccccccccccccccccccccccccccc" />
        </g>
      </g>
      <g
         id="g3915"
         inkscape:label="light"
         style="opacity:0.70089285;display:inline">
        <path
           inkscape:connector-curvature="0"
           sodipodi:nodetypes="cszsccc"
           id="path3917"
           d="M 42.001947,807.89203 C 61.382244,679.31376 115.78309,424.1632 200.81173,273.69532 251.26093,184.4197 332.87192,141.4927 377.23791,141.4927 c 43.06907,0 138.86641,59.21847 181.76909,142.85311 77.65686,151.38456 112.1055,344.94641 155.28145,526.34478 C 507.95007,821.53594 504.6193,891.72269 377.23791,973.02113 304.95556,922.91817 214.67646,822.20717 42.001947,807.89203 z"
           style="fill:url(#radialGradient3933);fill-opacity:1;fill-rule:evenodd;stroke:none;stroke-width:2.5;marker:none;visibility:visible;display:inline;overflow:visible" />
      </g>
      <g
         id="g3919"
         inkscape:label="multiply"
         style="display:inline">
        <path
           inkscape:connector-curvature="0"
           style="fill:url(#radialGradient3935);fill-opacity:1;display:inline;enable-background:new"
           d="m 377.23791,49.968329 c -16.16689,5.66019 -23.42632,22.93617 -35.99129,33.42733 C 258.97773,173.16121 187.3679,273.88754 138.96706,386.04199 92.12883,491.98789 64.86936,605.49804 48.82688,719.92297 c -3.4497,25.4676 -7.18762,51.0071 -8.62066,76.6557 3.07735,17.2491 23.87483,12.0584 36.21337,14.1432 67.91553,6.2362 134.45722,29.7834 189.44355,70.4695 36.13024,25.9498 68.59989,56.6893 100.15541,87.8394 14.59618,10.4447 26.41704,-6.2663 35.811,-15.3404 44.01333,-42.125 90.465,-83.3159 146.37982,-108.9463 47.76452,-23.2468 100.73851,-32.7934 153.33265,-36.6084 16.01415,-4.0116 8.97998,-24.2255 8.22159,-35.9056 C 693.50611,621.33867 658.59469,470.56066 589.05822,334.80497 555.48623,268.91345 515.18219,206.27077 466.92313,150.13913 439.39513,117.06631 412.54806,83.369619 383.08012,51.973019 l -2.76998,-1.44283 -3.07223,-0.56186 0,0 z"
           id="path3921" />
      </g>
      <g
         id="g3923"
         inkscape:label="light2"
         style="display:inline">
        <path
           inkscape:connector-curvature="0"
           style="fill:url(#linearGradient3937);fill-opacity:1;fill-rule:evenodd;stroke:none;stroke-width:2.5;marker:none;visibility:visible;display:inline;overflow:visible;enable-background:new"
           d="M 44.997827,817.20366 C 77.816727,575.404 141.97182,433.93311 208.14904,312.7767 c 58.982,-107.9835 125.04164,-172.55131 169.40763,-172.55131 43.06907,0 120.40398,82.54206 178.88839,178.87373 94.52885,155.7017 121.4569,253.82429 156.4988,492.62784 l -667.946033,5.4767 z"
           id="path3925"
           sodipodi:nodetypes="cszscc" />
      </g>
      <g
         id="g3927"
         inkscape:label="black"
         style="display:inline">
        <path
           inkscape:connector-curvature="0"
           style="fill:#040608;display:inline"
           d="M 354.17823,967.2099 C 318.79601,932.51308 296.72295,912.94036 272.47167,894.75871 226.63,860.39032 176.96633,837.82949 124.17823,827.39312 103.68028,823.34061 72.40056,819.4785 51.09117,818.36906 41.08212,817.84795 32.69521,817.2239 32.45359,816.98229 31.20575,815.73444 43.7195,720.73078 50.2161,682.13035 80.6638,501.22129 133.78962,360.66359 221.53106,228.87359 261.27894,169.17122 316.72781,101.766 367.13478,51.873587 l 10.10313,-10 20.27887,20.5 C 501.89476,167.88978 582.30219,289.45409 634.97853,421.38112 c 36.37904,91.11072 61.66524,191.95155 78.60936,313.49247 5.32686,38.20986 9.7533,75.95616 9.40409,80.19315 l -0.31375,3.80685 -7,0.23327 c -54.98111,1.8322 -91.01424,7.62163 -129.51485,20.80911 -57.05843,19.54402 -103.78299,50.51021 -165.98515,110.00483 -21.51519,20.57868 -42.06098,39.46577 -42.86347,39.40302 -0.35009,-0.0274 -10.76153,-9.97864 -23.13653,-22.11392 z m 49.30341,-25.7288 c 40.19052,-38.11039 60.32311,-54.83028 88.67035,-73.63977 62.09949,-41.2054 118.87022,-59.93305 203.27624,-67.05721 l 6.75,-0.56972 0,-3.94323 c 0,-12.26504 -7.51772,-72.26699 -13.58127,-108.39758 -18.18552,-108.36115 -38.69267,-183.95468 -73.2461,-270 -30.97906,-77.1444 -75.44684,-155.31597 -128.55977,-226 -36.29597,-42.96521 -71.16336,-87.71614 -108.8879,-128.895633 -29.33704,30.61348 -59.27568,65.069383 -86.33149,97.895633 -66.40834,82.81873 -116.71721,167.74909 -153.21148,258.64835 -34.11835,84.98134 -53.96246,157.9413 -72.17203,265.35165 -7.9307,46.77975 -16.10421,114.20569 -14.00176,115.50507 0.61957,0.38291 6.15868,0.97169 12.30914,1.30841 26.83731,1.46924 64.85029,8.01812 91.0346,15.68344 17.26421,5.054 29.12597,9.40957 45.96086,16.87653 7.59704,3.3696 13.96849,6.12655 14.15877,6.12655 0.19029,0 7.248,3.87894 15.68381,8.61986 41.27213,23.19495 72.64316,47.55233 121.34462,94.21549 12.65,12.12056 23.58653,22.06602 24.30341,22.10102 0.71687,0.035 12.64187,-10.68799 26.5,-23.82886 z m -92.3365,-47.30966 c 2.42451,-6.90393 33.81837,-52.28215 50.17539,-71.9466 4.87173,-5.85682 8.8577,-11.33492 8.8577,-12.17356 0,-1.95004 -32.91053,-30.80077 -50.16219,-45.12282 -7.32721,-6.08293 -24.26849,-16.72987 -23.78729,-16.72987 2.64893,0 52.62908,33.35244 69.44948,47.029 5.5,4.47202 10.675,8.12784 11.5,8.12404 0.825,-0.004 7.35,-4.75278 14.5,-10.55331 13.02287,-10.56498 61.50994,-47.44448 63.68655,-47.42364 0.63715,0.006 -0.41655,1.24335 -2.34155,2.74945 -18.73752,14.66001 -68.845,59.42709 -68.845,61.95334 0,0.85305 3.07637,5.20615 6.83637,9.67356 16.07679,19.10149 44.95664,50.89168 52.37313,64.46256 4.08561,7.47594 2.52791,5.93908 -8.10848,-8 -15.29908,-20.04956 -54.93657,-58.84 -58.23507,-58.84 -3.08277,0 -40.99581,46.00323 -57.16627,67.01 -8.37787,10.88354 -9.59767,12.25072 -8.73277,9.78785 z M 523.22899,820.0392 c -20.12601,-26.59637 -44.06648,-55.37958 -70.42075,-84.66561 -19.24107,-21.38154 -73.19238,-75 -75.46557,-75 -2.39068,0 -39.57854,36.18195 -62.80518,61.10635 -29.93545,32.12358 -63.11315,69.43903 -85.07276,98.29715 -16.20626,21.29738 -16.85469,20.5382 -2.31647,-2.71212 31.78496,-50.83221 80.08501,-113.48108 121.39785,-161.56645 5.84767,-6.80629 10.6409,-12.88129 10.65163,-13.5 0.0243,-1.40082 -21.81635,-22.70834 -39.35227,-38.39168 C 265.75884,555.23419 187.5272,501.47983 133.22314,475.77667 c -7.2725,-3.44222 -12.43645,-6.99169 -11.82088,-7.19688 3.17371,-1.05791 76.59156,34.30914 102.27597,48.81304 48.78235,27.54723 106.83009,67.66422 144.06041,99.56065 4.76352,4.08106 9.01133,7.42011 9.43959,7.42011 0.42826,0 4.67607,-3.33905 9.43959,-7.42011 37.32854,-31.98057 95.15014,-71.94181 144.04812,-99.55348 26.20939,-14.7999 89.97165,-44.48688 95.4372,-44.45092 0.95971,0.006 -23.91861,12.4372 -33.07758,17.31353 -51.91797,27.64169 -105.8344,66.19151 -158.51457,113.33664 -17.5536,15.70927 -39.37655,37.001 -39.35227,38.39434 0.0107,0.61601 5.84372,7.92265 12.9622,16.23699 23.93886,27.96045 49.27259,60.37552 71.23204,91.14301 24.46247,34.27447 59.73246,85.76969 58.31901,87.17854 -0.17806,0.17748 -9.7959,-10.37184 -14.44298,-16.51293 z m -381.1532,-17.70812 c -0.11053,-5.64316 19.21809,-77.40139 29.73947,-109.26704 4.14219,-12.54525 7.27098,-23.4878 6.95287,-24.31678 -1.25652,-3.27442 -36.82118,-18.52017 -62.5899,-26.83083 -18.82583,-6.07151 -40.22777,-10.4934 -39.69109,-11.03008 0.8236,-0.8236 37.13741,5.54541 53.19109,9.45879 17.3313,4.22482 33.27353,8.98605 46.18101,13.79217 7.56364,2.81634 8.29144,2.92133 9.64426,1.39125 0.80478,-0.91023 6.46389,-11.66967 12.57579,-23.90987 12.78477,-25.60383 38.16692,-71.33896 43.20186,-78.5901 4.17878,-6.01812 -1.32356,4.82462 -11.23348,27.84 -7.41833,17.22874 -32.11096,74.63479 -33.41354,79.82467 -0.49915,1.98878 0.42529,2.96935 6.73275,7.14153 19.21803,12.7121 67.17191,50.05525 77.26812,60.76469 4.83122,5.12467 -3.69335,-1.01816 -16.87399,-10.49161 -22.04676,-15.84589 -70.45579,-44.91449 -73.06705,-42.74733 -3.26282,2.7079 -24.78833,55.81389 -35.5638,87.7401 -6.85196,20.30142 -12.99395,42.31548 -13.05437,39.23044 z m 470.3984,2.88751 c -0.33379,-0.825 -9.38141,-30.57 -13.17582,-41.845 -10.76654,-31.99248 -32.34205,-85.27942 -35.63587,-88.01305 -2.6225,-2.17648 -54.50141,30.10355 -76.07541,45.7183 -13.84059,10.01749 -14.39352,10.06721 -4.49037,0.4038 12.94244,-12.62913 52.19849,-43.50046 73.07225,-57.20498 l 2.43081,-1.59592 -3.8315,-10.40408 c -8.44373,-22.92815 -21.80864,-55.00498 -27.85044,-68.61739 -3.51369,-7.91649 -17.42022,-32.87089 -17.42022,-33.24664 0,-1.20962 18.16991,25.86444 24.25931,36.64742 3.25672,5.76693 12.4463,24.61478 20.4213,40.29785 16.97791,33.38758 13.26031,30.77576 33.65025,23.64117 19.75906,-6.91384 63.6948,-17.91657 79.68975,-19.96184 8.92164,-1.14081 -9.22525,3.60469 -28.675,9.80955 -28.65081,9.14018 -61.90746,24.38811 -63.26499,27.9258 -0.32367,0.84344 2.57667,11.11099 6.44519,22.81677 13.50376,40.86112 32.81787,110.46823 31.48511,113.99658 -0.26894,0.712 -0.65251,0.57541 -1.03435,-0.36834 z m -353.73278,-287.245 c 17.6087,-31.73538 60.90684,-94.83692 104.30805,-143.75345 2.27082,-2.5594 4.12877,-5.32396 4.12877,-6.14348 0,-2.43567 -25.19748,-25.9716 -42.96833,-40.13494 -18.91285,-15.07351 -52.10902,-34.14974 -69.46167,-45.75497 -6.7375,-4.50596 -32.095,-19.7374 -32.095,-19.98766 0,-1.01339 35.60806,18.16917 49.04692,25.86876 23.43837,13.42866 69.91739,41.50229 92.64644,60.53498 6.41759,5.37392 12.19183,9.77076 12.83164,9.77076 0.63981,0 6.61824,-4.57086 13.28541,-10.15747 25.0937,-21.02672 66.50412,-53.03432 92.88959,-67.3929 9.20365,-5.00848 42.68,-18.50219 42.68,-17.74647 0,0.25835 -28.6425,14.9126 -35.93,19.79064 -15.75006,10.54261 -51.12716,37.64461 -66.66514,50.36205 -13.92082,11.39384 -36.25986,32.87087 -36.25986,34.86069 0,0.81211 1.85795,3.57061 4.12877,6.13001 36.46783,41.10207 77.11367,95.38259 92.37769,125.03772 7.76152,15.07919 16.28044,26.79587 15.40629,26.79587 -0.29755,0 -3.7999,-4.6125 -7.78302,-10.25 -8.70704,-12.3235 -39.68114,-59.65057 -50.0422,-71.90207 -20.15935,-23.83755 -61.45377,-66.52807 -64.35242,-66.52807 -1.54026,0 -36.74087,35.78156 -51.15573,52 -15.62569,17.58078 -51.09417,68.90263 -61.80657,84.1 -4.36148,6.1875 -8.16058,11.25 -8.44245,11.25 -0.28187,0 1.1729,-3.0375 3.23282,-6.75 z"
           id="path3929"
           sodipodi:nodetypes="csssssscccsscccsssccscccsscccssssssssssccsssssssssssssssccssssssssssssssssssssssccssssssssssssssssccsssscccssssssssssccsssssssssssssssssssssssc" />
      </g>
    </g>
    <path
       transform="matrix(0.95919539,0,0,0.95919539,10.163887,-57.119366)"
       d="m 100.64623,59.116001 a 44.927849,44.927849 0 1 1 -89.855699,0 44.927849,44.927849 0 1 1 89.855699,0 z"
       sodipodi:ry="44.927849"
       sodipodi:rx="44.927849"
       sodipodi:cy="59.116001"
       sodipodi:cx="55.71838"
       id="path3941"
       style="opacity:0.2;fill:none;stroke:#ffffff;stroke-width:4.93761349;display:inline"
       sodipodi:type="arc" />
  </g>
</svg>
