<?xml version="1.0" encoding="UTF-8" standalone="no"?>
<!-- Created with Inkscape (http://www.inkscape.org/) -->

<svg
   xmlns:dc="http://purl.org/dc/elements/1.1/"
   xmlns:cc="http://creativecommons.org/ns#"
   xmlns:rdf="http://www.w3.org/1999/02/22-rdf-syntax-ns#"
   xmlns:svg="http://www.w3.org/2000/svg"
   xmlns="http://www.w3.org/2000/svg"
   xmlns:xlink="http://www.w3.org/1999/xlink"
   xmlns:sodipodi="http://sodipodi.sourceforge.net/DTD/sodipodi-0.dtd"
   xmlns:inkscape="http://www.inkscape.org/namespaces/inkscape"
   id="svg3006"
   height="128"
   width="128"
   version="1.1"
   inkscape:version="0.48.1 r9760"
   sodipodi:docname="guake.svg">
  <sodipodi:namedview
     pagecolor="#ffffff"
     bordercolor="#666666"
     borderopacity="1"
     objecttolerance="10"
     gridtolerance="10"
     guidetolerance="10"
     inkscape:pageopacity="0"
     inkscape:pageshadow="2"
     inkscape:window-width="1617"
     inkscape:window-height="883"
     id="namedview61"
     showgrid="false"
     inkscape:zoom="5.4296875"
     inkscape:cx="64"
     inkscape:cy="64"
     inkscape:window-x="0"
     inkscape:window-y="24"
     inkscape:window-maximized="0"
     inkscape:current-layer="layer1" />
  <defs
     id="defs3008">
    <linearGradient
       id="linearGradient2880"
       y2="44"
       gradientUnits="userSpaceOnUse"
       x2="16.143"
       gradientTransform="matrix(2.5386 0 0 1.9745 3.0734 -42.388)"
       y1="4"
       x1="16.143">
      <stop
         id="stop2225-6-4-7-2"
         style="stop-color:#fff"
         offset="0" />
      <stop
         id="stop2229-2-5-5-8"
         style="stop-color:#fff;stop-opacity:0"
         offset="1" />
    </linearGradient>
    <linearGradient
       id="linearGradient2883"
       y2="24.628"
       gradientUnits="userSpaceOnUse"
       x2="20.055"
       gradientTransform="matrix(2.5687 0 0 2.7869 2.351 -60.634)"
       y1="15.298"
       x1="16.626">
      <stop
         id="stop2687-1-9-0-2"
         style="stop-color:#fff"
         offset="0" />
      <stop
         id="stop2689-5-4-3-1"
         style="stop-color:#fff;stop-opacity:0"
         offset="1" />
    </linearGradient>
    <linearGradient
       id="linearGradient2886"
       y2="16"
       xlink:href="#linearGradient3680-6"
       gradientUnits="userSpaceOnUse"
       x2="16"
       gradientTransform="matrix(2.6286 0 0 2.6364 -2.2857 -63.182)"
       y1="27.045"
       x1="16" />
    <linearGradient
       id="linearGradient3680-6">
      <stop
         id="stop3682-4"
         style="stop-color:#dcdcdc"
         offset="0" />
      <stop
         id="stop3684-8"
         style="stop-color:#fff"
         offset="1" />
    </linearGradient>
    <linearGradient
       id="linearGradient2890"
       y2="26"
       xlink:href="#linearGradient3680-6"
       gradientUnits="userSpaceOnUse"
       x2="20"
       gradientTransform="matrix(2.625 0 0 2.5 .74999 -57)"
       y1="28"
       x1="20" />
    <linearGradient
       id="linearGradient2894"
       y2="47.279"
       gradientUnits="userSpaceOnUse"
       x2="12.213"
       gradientTransform="matrix(2.5977 0 0 2.4848 1.6531 -52.136)"
       y1="2.9165"
       x1="12.579">
      <stop
         id="stop2240-1-6-7-0"
         style="stop-color:#fff"
         offset="0" />
      <stop
         id="stop2242-7-3-7-2"
         style="stop-color:#fff;stop-opacity:0"
         offset="1" />
    </linearGradient>
    <linearGradient
       id="linearGradient2897"
       y2="33.296"
       gradientUnits="userSpaceOnUse"
       x2="23.071"
       gradientTransform="matrix(2.6175 0 0 2.643 1.1955 -47.751)"
       y1="36.047"
       x1="23.071">
      <stop
         id="stop2225-6-4-7"
         style="stop-color:#fff"
         offset="0" />
      <stop
         id="stop2229-2-5-5"
         style="stop-color:#fff;stop-opacity:0"
         offset="1" />
    </linearGradient>
    <radialGradient
       id="radialGradient2900"
       gradientUnits="userSpaceOnUse"
       cy="8.4498"
       cx="7.4957"
       gradientTransform="matrix(0 4.6588 -7.9722 -1.9658e-7 131.36 -68.244)"
       r="20">
      <stop
         id="stop2749"
         style="stop-color:#d79b8e;stop-opacity:1;"
         offset="0" />
      <stop
         id="stop2751"
         style="stop-color:#c56a64;stop-opacity:1;"
         offset="0.26238" />
      <stop
         id="stop2753"
         style="stop-color:#a43e40;stop-opacity:1;"
         offset="0.66093999" />
      <stop
         id="stop2755"
         style="stop-color:#732c36;stop-opacity:1;"
         offset="1" />
    </radialGradient>
    <linearGradient
       id="linearGradient2902"
       y2="4.0607"
       gradientUnits="userSpaceOnUse"
       x2="9.8948"
       gradientTransform="matrix(2.5899 0 0 2.0258 1.8426 -43.619)"
       y1="43.491"
       x1="9.5438">
      <stop
         id="stop2759"
         style="stop-color:#650e0d;stop-opacity:1;"
         offset="0" />
      <stop
         id="stop2761"
         style="stop-color:#5e312c;stop-opacity:1;"
         offset="1" />
    </linearGradient>
    <linearGradient
       id="linearGradient2905"
       y2="43.865"
       gradientUnits="userSpaceOnUse"
       x2="24"
       gradientTransform="matrix(2.6445 0 0 2.6758 .53145 -64.57)"
       y1="7.96"
       x1="24">
      <stop
         id="stop4324-9-7"
         style="stop-color:#f0f0f0"
         offset="0" />
      <stop
         id="stop2860-4-4"
         style="stop-color:#d7d7d8"
         offset=".085525" />
      <stop
         id="stop2862-5-9"
         style="stop-color:#b2b2b3"
         offset=".92166" />
      <stop
         id="stop4326-1-1"
         style="stop-color:#979798"
         offset="1" />
    </linearGradient>
    <linearGradient
       id="linearGradient2907"
       y2="2.8765"
       gradientUnits="userSpaceOnUse"
       x2="10.014"
       gradientTransform="matrix(2.532 0 0 2.4175 3.232 -53.049)"
       y1="44.96"
       x1="10.014">
      <stop
         id="stop4334-7-6"
         style="stop-color:#595959"
         offset="0" />
      <stop
         id="stop4336-8-0"
         style="stop-color:#b3b3b3"
         offset="1" />
    </linearGradient>
    <radialGradient
       id="radialGradient2910"
       xlink:href="#linearGradient5060-6-6-5"
       gradientUnits="userSpaceOnUse"
       cy="486.65"
       cx="605.71"
       gradientTransform="matrix(-.11245 0 0 .057647 81.771 24.864)"
       r="117.14" />
    <linearGradient
       id="linearGradient5060-6-6-5">
      <stop
         id="stop5062-3-0-3"
         offset="0" />
      <stop
         id="stop5064-1-4-9"
         style="stop-opacity:0"
         offset="1" />
    </linearGradient>
    <radialGradient
       id="radialGradient2913"
       xlink:href="#linearGradient5060-6-6-5"
       gradientUnits="userSpaceOnUse"
       cy="486.65"
       cx="605.71"
       gradientTransform="matrix(.11245 0 0 .057647 46.229 24.864)"
       r="117.14" />
    <linearGradient
       id="linearGradient3004"
       y2="609.51"
       gradientUnits="userSpaceOnUse"
       x2="302.86"
       gradientTransform="matrix(.20710 0 0 .057647 -10.852 24.864)"
       y1="366.65"
       x1="302.86">
      <stop
         id="stop5050-5-6-4"
         style="stop-opacity:0"
         offset="0" />
      <stop
         id="stop5056-9-0-1"
         offset=".5" />
      <stop
         id="stop5052-6-9-5"
         style="stop-opacity:0"
         offset="1" />
    </linearGradient>
    <linearGradient
       x1="48"
       y1="64"
       x2="48"
       y2="80"
       id="linearGradient3946"
       xlink:href="#linearGradient3940"
       gradientUnits="userSpaceOnUse"
       spreadMethod="reflect" />
    <linearGradient
       id="linearGradient3940">
      <stop
         id="stop3942"
         style="stop-color:#ffedb8;stop-opacity:1"
         offset="0" />
      <stop
         id="stop3944"
         style="stop-color:#ffffff;stop-opacity:0"
         offset="1" />
    </linearGradient>
    <linearGradient
       gradientTransform="translate(-4.7949524,-85.102524)"
       y2="80"
       x2="48"
       y1="64"
       x1="48"
       spreadMethod="reflect"
       gradientUnits="userSpaceOnUse"
       id="linearGradient3079"
       xlink:href="#linearGradient3940"
       inkscape:collect="always" />
    <linearGradient
       inkscape:collect="always"
       xlink:href="#linearGradient3940"
       id="linearGradient3839"
       gradientUnits="userSpaceOnUse"
       gradientTransform="matrix(1.6660911,0,0,1.6071558,-16.047901,-115.8833)"
       spreadMethod="reflect"
       x1="48"
       y1="64"
       x2="48"
       y2="80" />
    <linearGradient
       inkscape:collect="always"
       xlink:href="#linearGradient3940"
       id="linearGradient3843"
       gradientUnits="userSpaceOnUse"
       gradientTransform="matrix(1.6660911,0,0,1.6071558,-16.047901,-77.8833)"
       spreadMethod="reflect"
       x1="48"
       y1="64"
       x2="48"
       y2="80" />
  </defs>
  <metadata
     id="metadata3011">
    <rdf:RDF>
      <cc:Work
         rdf:about="">
        <dc:format>image/svg+xml</dc:format>
        <dc:type
           rdf:resource="http://purl.org/dc/dcmitype/StillImage" />
        <dc:title></dc:title>
      </cc:Work>
    </rdf:RDF>
  </metadata>
  <g
     id="layer1"
     transform="translate(0,64)">
    <rect
       id="rect2512-9-5"
       style="opacity:.40206;fill:url(#linearGradient3004)"
       height="14"
       width="100"
       y="46"
       x="14" />
    <path
       id="path2514-7-4"
       style="opacity:.40206;fill:url(#radialGradient2913)"
       d="m114 46v13.999c5.7911 0.0263 14-3.1365 14-7.0005s-6.4624-6.9987-14-6.9987z" />
    <path
       id="path2516-8-9"
       style="opacity:.40206;fill:url(#radialGradient2910)"
       d="m14 46v13.999c-5.7911 0.0263-14-3.1365-14-7.0005s6.4624-6.9987 14-6.9987z" />
    <rect
       id="rect2551-5-8"
       style="stroke-linejoin:round;fill-rule:evenodd;stroke:url(#linearGradient2907);stroke-linecap:round;stroke-width:1.0021;fill:url(#linearGradient2905)"
       rx="3"
       ry="3"
       height="98.998"
       width="119"
       y="-44.499"
       x="4.5011" />
    <rect
       id="rect1314-3-3"
       style="stroke-linejoin:round;color:#000000;stroke:url(#linearGradient2902);stroke-linecap:round;fill:url(#radialGradient2900)"
       rx="0"
       ry="0"
       height="79"
       width="101"
       y="-34.5"
       x="13.5" />
    <rect
       id="rect2221-3-8"
       style="opacity:.4;stroke-linejoin:round;stroke:url(#linearGradient2897);stroke-linecap:round;stroke-width:1.0021;fill:none"
       rx="0"
       ry="0"
       height="80.998"
       width="103"
       y="-35.499"
       x="12.501" />
    <rect
       id="rect2556-8-5"
       style="opacity:.8;stroke-linejoin:round;stroke:url(#linearGradient2894);stroke-linecap:round;stroke-width:1.0037;fill:none"
       rx="2"
       ry="2"
       height="96.996"
       width="117"
       y="-43.498"
       x="5.5019" />
    <path
       id="path3651-7-2"
       style="opacity:.4"
       d="m69 15v-5h-21v5h21z" />
    <path
       id="path3651-2"
       style="fill:url(#linearGradient2890)"
       d="m69 13v-5h-21v5h21z" />
    <path
       id="path3653-3-2"
       style="opacity:.4"
       d="m29.257 10-5.2571-5.2727 11.829-9.2273-11.829-9.2273 5.2571-5.2727 17.743 14.5-17.743 14.5z" />
    <path
       id="path3653-7"
       style="fill:url(#linearGradient2886)"
       d="m29.257 8-5.2571-5.2727 11.829-9.2273-11.829-9.2273 5.2571-5.2727 17.743 14.5-17.743 14.5z" />
    <path
       id="path3333-3-0"
       style="opacity:.2;fill:url(#linearGradient2883);fill-rule:evenodd"
       d="m10.619-44c-3.1037 0-5.619 2.729-5.619 6.096v44.59c0.00805 0.37512 0.15876 0.72986 0.41807 0.9781 0.25933 0.24823 0.6026 0.36729 0.94655 0.32824l115.6-19.856c0.59462-0.10173 1.0352-0.65334 1.0436-1.3063v-24.734c0-3.3673-2.5153-6.0963-5.6191-6.0963h-106.76z" />
    <rect
       id="rect1314-3-3-9"
       style="opacity:.1;stroke-linejoin:round;color:#000000;stroke:url(#linearGradient2880);stroke-linecap:round;fill:none"
       rx="0"
       ry="0"
       height="77"
       width="99"
       y="-33.5"
       x="14.5" />
    <path
       d="m 14.410327,-33.91835 c -0.283868,0.47339 -0.468588,1.018778 -0.468588,1.607156 l 46.650557,0 c 0,-0.588378 -0.18472,-1.133766 -0.468588,-1.607156 z m 53.314921,0 c -0.283868,0.47339 -0.468588,1.018778 -0.468588,1.607156 l 46.65055,0 c 0,-0.588378 -0.18472,-1.133766 -0.46859,-1.607156 z m -53.783509,6.428623 0,1.607156 46.650557,0 0,-1.607156 z m 53.314921,0 0,1.607156 46.65055,0 0,-1.607156 z m -53.314921,6.428624 0,1.607156 46.650557,0 0,-1.607156 z m 53.314921,0 0,1.607156 46.65055,0 0,-1.607156 z m -53.314921,6.428623 0,1.607156 46.650557,0 0,-1.607156 z m 53.314921,0 0,1.607156 46.65055,0 0,-1.607156 z m -53.314921,6.428623 0,1.6071558 46.650557,0 0,-1.6071558 z m 53.314921,0 0,1.6071558 46.65055,0 0,-1.6071558 z m -53.314921,6.4286233 0,1.6071558 46.650557,0 0,-1.6071558 z m 53.314921,0 0,1.6071558 46.65055,0 0,-1.6071558 z m -53.314921,6.4286233 0,1.6071554 46.650557,0 0,-1.6071554 z m 53.314921,0 0,1.6071554 10.908675,0 35.741875,0 0,-1.6071554 z"
       inkscape:connector-curvature="0"
       id="rect3922"
       style="opacity:0.3;color:#000000;fill:url(#linearGradient3839);fill-opacity:1;fill-rule:nonzero;stroke:none;stroke-width:1;marker:none;visibility:visible;display:inline;overflow:visible;enable-background:accumulate"
       sodipodi:nodetypes="ccccccccccccccccccccccccccccccccccccccccccccccccccccccccccccccccccccccc" />
    <path
       sodipodi:nodetypes="ccccccccccccccccccccccccccccccccccccccccccccccccccccccccccccccccccccccc"
       style="opacity:0.3;color:#000000;fill:url(#linearGradient3843);fill-opacity:1;fill-rule:nonzero;stroke:none;stroke-width:1;marker:none;visibility:visible;display:inline;overflow:visible;enable-background:accumulate"
       id="path3841"
       inkscape:connector-curvature="0"
       d="m 14.410327,4.08165 c -0.283868,0.47339 -0.468588,1.018778 -0.468588,1.607156 l 46.650557,0 c 0,-0.588378 -0.18472,-1.133766 -0.468588,-1.607156 z m 53.314921,0 C 67.44138,4.55504 67.25666,5.100428 67.25666,5.688806 l 46.65055,0 c 0,-0.588378 -0.18472,-1.133766 -0.46859,-1.607156 z m -53.783509,6.428623 0,1.607156 46.650557,0 0,-1.607156 z m 53.314921,0 0,1.607156 46.65055,0 0,-1.607156 z m -53.314921,6.428624 0,1.607156 46.650557,0 0,-1.607156 z m 53.314921,0 0,1.607156 46.65055,0 0,-1.607156 z m -53.314921,6.428623 0,1.607156 46.650557,0 0,-1.607156 z m 53.314921,0 0,1.607156 46.65055,0 0,-1.607156 z m -53.314921,6.428623 0,1.607156 46.650557,0 0,-1.607156 z m 53.314921,0 0,1.607156 46.65055,0 0,-1.607156 z m -53.314921,6.428623 0,1.607156 46.650557,0 0,-1.607156 z m 53.314921,0 0,1.607156 46.65055,0 0,-1.607156 z m -53.314921,6.428624 0,1.607155 46.650557,0 0,-1.607155 z m 53.314921,0 0,1.607155 10.908675,0 35.741875,0 0,-1.607155 z" />
  </g>
</svg>
