<?xml version="1.0" encoding="UTF-8" standalone="no"?>
<!-- Created with Inkscape (http://www.inkscape.org/) -->

<svg
   xmlns:dc="http://purl.org/dc/elements/1.1/"
   xmlns:cc="http://creativecommons.org/ns#"
   xmlns:rdf="http://www.w3.org/1999/02/22-rdf-syntax-ns#"
   xmlns:svg="http://www.w3.org/2000/svg"
   xmlns="http://www.w3.org/2000/svg"
   xmlns:sodipodi="http://sodipodi.sourceforge.net/DTD/sodipodi-0.dtd"
   xmlns:inkscape="http://www.inkscape.org/namespaces/inkscape"
   width="128"
   height="128"
   id="svg2837"
   version="1.1"
   inkscape:version="0.48.1 r9760"
   sodipodi:docname="censored-internet-solution.svg">
  <defs
     id="defs2839">
    <inkscape:perspective
       sodipodi:type="inkscape:persp3d"
       inkscape:vp_x="0 : 382.5 : 1"
       inkscape:vp_y="0 : 1000 : 0"
       inkscape:vp_z="990 : 382.5 : 1"
       inkscape:persp3d-origin="495 : 255 : 1"
       id="perspective2846" />
    <inkscape:perspective
       id="perspective5866"
       inkscape:persp3d-origin="128.5 : 90.481669 : 1"
       inkscape:vp_z="257 : 135.7225 : 1"
       inkscape:vp_y="0 : 1000 : 0"
       inkscape:vp_x="0 : 135.7225 : 1"
       sodipodi:type="inkscape:persp3d" />
    <inkscape:perspective
       id="perspective2613"
       inkscape:persp3d-origin="248.12399 : 126.85667 : 1"
       inkscape:vp_z="496.24799 : 190.285 : 1"
       inkscape:vp_y="0 : 1000 : 0"
       inkscape:vp_x="0 : 190.285 : 1"
       sodipodi:type="inkscape:persp3d" />
  </defs>
  <sodipodi:namedview
     inkscape:document-units="in"
     pagecolor="#ffffff"
     bordercolor="#666666"
     borderopacity="1.0"
     inkscape:pageopacity="0.0"
     inkscape:pageshadow="2"
     inkscape:zoom="6.5546875"
     inkscape:cx="64"
     inkscape:cy="64"
     inkscape:current-layer="layer1"
     id="namedview2841"
     showgrid="false"
     inkscape:window-width="1920"
     inkscape:window-height="1027"
     inkscape:window-x="0"
     inkscape:window-y="24"
     inkscape:window-maximized="1"
     units="px" />
  <metadata
     id="metadata2843">
    <rdf:RDF>
      <cc:Work
         rdf:about="">
        <dc:format>image/svg+xml</dc:format>
        <dc:type
           rdf:resource="http://purl.org/dc/dcmitype/StillImage" />
        <dc:title></dc:title>
      </cc:Work>
    </rdf:RDF>
  </metadata>
  <g
     inkscape:label="Layer 1"
     inkscape:groupmode="layer"
     id="layer1"
     transform="translate(0,-637)">
    <g
       id="g7119"
       transform="matrix(0.68106321,0,0,0.68106321,-108.44137,603.21722)">
      <path
         id="path2524"
         d="m 269.429,70.852 c 5.737,-6.555 12.565,-12.292 19.94,-17.618 -7.785,8.877 -14.75,17.891 -19.94,26.769 v -9.151 l 0,0 z m 0,10.925 v 13.249 c 8.604,-11.336 18.711,-22.262 30.729,-33.051 -11.745,4.097 -22.398,9.97 -30.729,19.802 l 0,0 z m 0,44.797 c 2.459,3.414 5.6,5.6 7.239,6.556 7.647,4.233 15.023,8.604 20.895,13.93 11.062,10.107 17.345,24.311 17.345,39.333 0,14.886 -6.828,29.226 -18.301,38.786 -7.511,6.283 -17.208,10.107 -27.178,11.745 v -83.309 c 1.639,4.78 2.869,9.56 3.961,14.478 -0.683,-5.053 -1.775,-9.833 -3.142,-14.34 -0.273,-0.82 -0.545,-1.502 -0.82,-2.322 v -24.857 z m -11.882,-14.614 3.278,0.956 -6.555,-3.277 2.048,0.272 -6.282,-2.731 c 1.502,-13.521 6.009,-26.768 13.521,-40.152 l -4.916,19.53 c 3.004,-5.872 6.555,-10.925 10.788,-15.706 v 9.151 c -1.092,1.912 -2.048,3.823 -3.004,5.599 0.957,-1.365 1.913,-2.594 3.004,-3.824 v 13.249 c -3.823,5.053 -7.375,10.105 -10.652,15.296 l 7.511,0.956 c -1.912,6.282 0.273,11.472 3.141,15.296 v 24.856 c -1.092,-2.731 -2.458,-5.327 -3.96,-7.785 1.502,3.278 2.732,6.556 3.96,9.969 v 83.309 c -4.233,0.82 -8.604,1.093 -12.974,1.093 -8.74,0 -16.798,-0.41 -25.266,-3.141 -10.243,-2.731 -17.754,-7.921 -23.218,-14.477 -7.785,-8.058 -12.701,-18.437 -13.383,-29.91 -1.093,-15.979 2.458,-28.133 14.886,-40.835 6.419,-6.691 19.394,-14.34 28.271,-20.485 4.37,-3.004 9.014,-11.473 0.136,-27.451 l 1.775,-1.366 11.473,8.331 -9.424,-4.097 0.136,0.136 11.199,5.327 h 0.273 v 0.136 l 0.273,0.137 3.414,1.639 c 0,1.093 0,2.731 0,4.644 0,0.956 0.137,1.775 0.273,2.594 0.138,-2.185 0.411,-4.643 0.274,-7.239 z"
         clip-rule="evenodd"
         style="fill:#ffffff;fill-rule:evenodd"
         inkscape:connector-curvature="0" />
      <path
         id="path2534"
         d="m 241.841,103.356 16.116,7.648 c 0,4.098 -0.273,16.116 2.049,19.803 24.037,37.285 22.534,103.112 -5.189,104.887 -45.343,3.142 -58.317,-28.679 -58.317,-55.038 0,-24.037 28.816,-40.016 46.025,-54.219 4.37,-3.824 3.551,-12.155 -0.684,-23.081 z"
         clip-rule="evenodd"
         style="fill:#fffcdb;fill-rule:evenodd"
         inkscape:connector-curvature="0" />
      <path
         id="path2536"
         d="m 258.503,111.004 5.327,1.64 c -0.546,3.823 0.273,12.292 4.096,14.476 16.936,10.516 32.914,21.988 39.197,33.46 22.398,40.426 -15.706,77.846 -48.62,74.295 17.891,-13.248 23.081,-40.425 16.389,-70.062 -2.731,-11.609 -6.966,-22.125 -14.478,-34.007 -4.096,-6.554 -1.637,-11.743 -1.911,-19.802 z"
         clip-rule="evenodd"
         style="fill:#7d4698;fill-rule:evenodd"
         inkscape:connector-curvature="0" />
      <path
         id="path2538"
         d="m 255.226,108.683 12.018,1.639 c -3.551,11.745 6.966,19.939 10.38,21.852 7.648,4.234 15.023,8.604 20.896,13.93 11.063,10.106 17.345,24.31 17.345,39.333 0,14.886 -6.829,29.226 -18.301,38.786 -10.789,9.014 -25.675,12.838 -40.152,12.838 -9.014,0 -17.072,-0.409 -25.812,-3.278 -19.939,-6.692 -34.826,-23.763 -36.055,-44.25 -1.093,-15.979 2.458,-28.134 14.887,-40.835 6.418,-6.692 19.393,-14.34 28.271,-20.486 4.371,-3.005 9.014,-11.473 0.136,-27.451 l 1.776,-1.366 11.473,8.331 -9.424,-4.097 c 0.956,1.366 3.551,7.512 4.098,9.287 1.229,5.053 0.683,9.971 -0.41,12.155 -5.599,10.107 -15.159,12.838 -22.124,18.574 -12.292,10.106 -25.676,18.164 -24.174,45.888 0.683,13.657 11.336,30.319 27.314,38.104 9.014,4.371 19.394,6.146 29.91,6.692 9.423,0.41 27.451,-5.19 37.284,-13.384 10.516,-8.74 16.389,-21.988 16.389,-35.508 0,-13.658 -5.463,-26.632 -15.706,-35.783 -5.873,-5.326 -15.569,-11.745 -21.578,-15.16 -6.009,-3.414 -13.521,-12.974 -11.063,-22.124 l -7.378,-3.687 z"
         inkscape:connector-curvature="0" />
      <path
         id="path2540"
         d="m 251.539,128.896 c -1.229,6.283 -2.595,17.618 -8.058,21.852 -2.322,1.638 -4.644,3.278 -7.102,4.916 -9.833,6.693 -19.667,12.974 -24.173,29.09 -0.956,3.415 -0.136,7.102 0.684,10.516 2.458,9.833 9.423,20.486 14.886,26.769 0,0.273 1.093,0.956 1.093,1.229 4.507,5.327 5.873,6.829 22.944,10.652 l -0.41,1.913 c -10.243,-2.731 -18.71,-5.189 -24.037,-11.336 0,-0.136 -0.956,-1.093 -0.956,-1.093 -5.736,-6.556 -12.702,-17.481 -15.296,-27.724 -0.956,-4.098 -1.775,-7.238 -0.683,-11.473 4.643,-16.661 14.75,-23.217 24.993,-30.182 2.322,-1.502 5.053,-2.869 7.238,-4.644 4.233,-3.14 6.554,-12.701 8.877,-20.485 z"
         inkscape:connector-curvature="0" />
      <path
         id="path2542"
         d="m 252.221,156.893 c -1.775,8.741 -3.688,14.204 -11.882,18.984 -9.696,5.599 -16.661,16.661 -15.979,24.172 0.82,9.151 7.238,19.667 14.476,25.949 3.824,3.278 10.38,5.189 15.843,6.282 v 2.458 c -4.78,-0.82 -12.428,-3.824 -16.525,-6.692 -9.696,-6.693 -14.613,-15.023 -15.432,-27.314 -0.546,-9.56 5.326,-19.667 16.798,-25.676 7.921,-4.097 10.243,-10.515 12.701,-18.163 z"
         inkscape:connector-curvature="0" />
      <path
         id="path2544"
         d="m 253.997,182.705 c -1.229,6.009 -2.049,6.419 -5.6,11.609 -4.643,6.556 -4.78,12.975 -4.234,17.072 0.411,2.731 1.366,5.053 2.185,7.102 1.093,2.731 2.186,5.053 3.824,7.375 1.366,1.775 2.185,2.868 4.371,3.823 v 2.322 c -1.366,-0.273 -4.371,-2.185 -6.693,-5.6 -1.502,-2.048 -2.458,-4.78 -3.55,-7.512 -0.957,-2.594 -1.913,-5.326 -1.913,-7.785 0,-5.872 0.684,-13.11 4.917,-18.027 3.825,-4.506 5.053,-5.053 6.693,-10.379 z"
         inkscape:connector-curvature="0" />
      <path
         id="path2546"
         d="m 255.089,181.613 c 0.136,4.78 2.049,10.925 2.868,17.208 0.684,4.644 0.41,9.287 0.273,13.385 -0.136,4.78 -1.775,13.384 -3.96,17.48 l 0.136,2.322 c 2.732,-3.005 4.371,-6.009 4.917,-9.014 0.683,-3.551 0.819,-7.102 1.229,-11.336 0.409,-3.551 0.136,-8.331 -0.82,-13.247 -1.365,-6.146 -3.687,-12.429 -4.643,-16.798 z"
         inkscape:connector-curvature="0" />
      <path
         id="path2548"
         d="m 255.908,154.844 c 0.137,7.102 -0.545,10.653 1.23,15.707 1.092,3.004 4.779,7.102 5.872,11.063 1.502,5.327 3.142,11.199 3.004,14.75 0,4.098 -0.273,11.745 -2.048,19.94 -1.365,6.828 -4.507,12.701 -9.833,15.979 v 1.912 c 3.687,-0.136 8.74,-6.282 11.198,-14.75 2.049,-7.238 2.869,-16.525 2.731,-22.398 -0.137,-3.414 -1.639,-10.789 -4.371,-17.481 -1.502,-3.687 -3.823,-7.375 -5.326,-9.97 -1.637,-2.597 -1.637,-8.197 -2.457,-14.752 z"
         inkscape:connector-curvature="0" />
      <path
         id="path2550"
         d="m 255.499,123.16 c 0.137,7.101 0.683,20.35 2.595,25.539 0.546,1.775 5.599,9.56 9.149,18.983 2.459,6.556 3.005,12.565 3.415,14.34 1.639,7.785 -0.41,20.896 -3.142,33.324 -1.365,6.692 -6.009,15.023 -11.335,18.301 l -1.092,1.912 c 3.005,-0.137 10.379,-7.375 12.974,-16.389 4.371,-15.296 6.146,-22.398 4.098,-39.333 -0.273,-1.64 -0.956,-7.238 -3.551,-13.248 -3.824,-9.151 -9.287,-17.891 -9.969,-19.667 -1.23,-2.867 -2.869,-15.295 -3.142,-23.762 z"
         inkscape:connector-curvature="0" />
      <path
         id="path2552"
         d="m 257.821,113.327 c 0.136,7.238 -0.273,10.106 1.092,15.432 1.502,5.873 9.151,14.34 12.292,24.037 6.009,18.574 4.507,42.884 0.136,61.867 -1.638,6.691 -9.424,16.389 -17.208,19.529 l 5.736,1.366 c 3.141,-0.137 11.198,-7.648 14.34,-16.252 5.052,-13.521 6.009,-29.636 3.96,-46.571 -0.137,-1.639 -2.869,-16.252 -5.463,-22.398 -3.688,-9.15 -10.244,-17.345 -10.926,-19.119 -1.228,-3.005 -3.686,-9.424 -3.959,-17.891 z"
         inkscape:connector-curvature="0" />
      <path
         id="path2554"
         d="m 264.513,66.072 -4.917,19.529 c 6.965,-13.793 18.027,-24.172 30.729,-33.323 -9.287,10.789 -17.754,21.579 -22.944,32.368 8.741,-12.292 20.486,-19.12 33.733,-23.627 -17.618,15.706 -31.001,31.958 -41.654,48.893 l -8.467,-3.687 c 1.501,-13.521 6.008,-26.768 13.52,-40.153 z"
         clip-rule="evenodd"
         style="fill:#abcd03;fill-rule:evenodd"
         inkscape:connector-curvature="0" />
      <rect
         id="rect2556"
         height="125.237"
         width="0.54699999"
         y="109.093"
         x="253.72301" />
    </g>
  </g>
</svg>
