<?xml version="1.0" encoding="UTF-8" standalone="no"?>
<!-- Created with Inkscape (http://www.inkscape.org/) -->

<svg
   xmlns:dc="http://purl.org/dc/elements/1.1/"
   xmlns:cc="http://creativecommons.org/ns#"
   xmlns:rdf="http://www.w3.org/1999/02/22-rdf-syntax-ns#"
   xmlns:svg="http://www.w3.org/2000/svg"
   xmlns="http://www.w3.org/2000/svg"
   xmlns:sodipodi="http://sodipodi.sourceforge.net/DTD/sodipodi-0.dtd"
   xmlns:inkscape="http://www.inkscape.org/namespaces/inkscape"
   version="1.0"
   width="128"
   height="128"
   id="svg2"
   inkscape:version="0.48.1 r9760"
   sodipodi:docname="Toucan.svg">
  <metadata
     id="metadata18">
    <rdf:RDF>
      <cc:Work
         rdf:about="">
        <dc:format>image/svg+xml</dc:format>
        <dc:type
           rdf:resource="http://purl.org/dc/dcmitype/StillImage" />
      </cc:Work>
    </rdf:RDF>
  </metadata>
  <sodipodi:namedview
     pagecolor="#ffffff"
     bordercolor="#666666"
     borderopacity="1"
     objecttolerance="10"
     gridtolerance="10"
     guidetolerance="10"
     inkscape:pageopacity="0"
     inkscape:pageshadow="2"
     inkscape:window-width="1183"
     inkscape:window-height="737"
     id="namedview16"
     showgrid="false"
     inkscape:zoom="4.2890625"
     inkscape:cx="64"
     inkscape:cy="64"
     inkscape:window-x="0"
     inkscape:window-y="24"
     inkscape:window-maximized="0"
     inkscape:current-layer="svg2" />
  <defs
     id="defs5" />
  <g
     transform="matrix(0.11584422,0,0,0.11584422,0.99642352,3.9319766)"
     id="g2384">
    <path
       d="m 210.01988,315.70951 c 59.47658,45.28668 228.65425,24.60375 290.5477,-17.59426 C 555.94295,256.57241 483.97621,164.6094 477.39792,102.36024 444.43111,-21.738931 356.10099,12.589846 246.28019,74.545607"
       id="joue_jaune"
       style="fill:#e7db0b;fill-opacity:1;fill-rule:evenodd;stroke:#000000;stroke-width:1px;stroke-linecap:butt;stroke-linejoin:miter;stroke-opacity:1"
       inkscape:connector-curvature="0" />
    <path
       d="m 697.90269,196.5997 c -6.55921,-22.63713 -7.90772,-57.69026 -2.68027,-82.76138 67.78767,-26.10482 180.28833,-20.896215 248.60459,11.82661 21.34504,2.04361 -3.44715,38.84285 -7.04147,53.50011 C 860.0945,167.51385 772.855,204.54122 697.90269,196.5997 z"
       id="bec_orange"
       style="fill:#fb7e41"
       inkscape:connector-curvature="0" />
    <path
       d="m 571.83756,335.60479 c -24.00961,-22.82312 -23.42891,-70.94758 6.00988,-89.39596 101.27789,-3.59568 200.82706,-18.89675 301.68457,-27.35482 29.07751,8.84544 120.19253,-25.76424 143.56429,-11.31445 -43.09057,66.29859 -108.95118,83.95024 -180.57111,106.65637 -86.8103,18.6889 -181.48268,22.87202 -270.68763,21.40886 z"
       id="bec_vert"
       style="fill:#adc801"
       inkscape:connector-curvature="0" />
    <path
       d="m 124.10154,862.31807 c -56.591203,-32.83385 2.08254,-111.64764 65.15213,-142.06148 23.15261,-7.75698 37.87013,35.41154 57.13509,52.75901 20.57546,22.27014 -50.14582,93.02964 -62.3239,119.92406 -26.16904,21.95812 -19.56995,-23.88189 -59.96332,-30.62159 z"
       id="plume_rouge"
       style="fill:#d92b20;fill-opacity:1;fill-rule:evenodd;stroke:#000000;stroke-width:1px;stroke-linecap:butt;stroke-linejoin:miter;stroke-opacity:1"
       inkscape:connector-curvature="0" />
    <path
       d="M 550.4268,261.52063 C 507.5036,198.22546 499.92008,145.77453 492.07707,72.054164 570.87017,6.4857108 743.44158,19.751703 841.90305,34.045994 c 43.60848,7.301553 119.85647,35.828996 131.66258,42.858071 41.50757,14.780757 15.64646,42.698095 -30.2724,44.130965 -36.82624,-5.83498 -187.1267,-26.787997 -246.56132,-8.00458 -13.62043,23.146 8.39923,62.25052 -5.46039,87.56532"
       id="bec_jaune"
       style="fill:#e7db0b;fill-opacity:1;fill-rule:evenodd;stroke:none"
       inkscape:connector-curvature="0" />
    <path
       d="m 936.01077,174.20855 c -8.05307,-13.9028 28.37512,-83.177836 35.2343,-95.951471 29.03613,-0.795657 137.66113,84.980761 120.22513,86.722971 -40.9585,14.95544 -109.58231,11.16512 -155.45943,9.2285 z"
       id="pointe_bec"
       style="fill:#d7291e"
       inkscape:connector-curvature="0" />
    <path
       d="m 325.6514,926.37873 c -3.47051,-10.31615 -23.31883,-28.83506 -24.32198,-39.92686 3.96097,-35.4567 34.84686,-68.82667 69.30923,-65.36641 14.97411,1.58706 35.10006,34.31657 40.61231,48.73273 -17.08261,19.01623 -58.33439,55.47765 -85.59956,56.56054 z"
       id="branche3"
       style="fill:#ab4324"
       inkscape:connector-curvature="0" />
    <path
       d="m 378.3104,802.2771 c -2.4951,-8.94948 48.50582,-34.97549 55.28009,-37.83123 18.77083,-1.74994 53.47942,33.81731 61.18363,49.73526 7.34542,15.87701 -45.221,34.21319 -57.72604,39.38895 C 420.86163,828.67283 404.8217,813.2561 378.3104,802.2771 z"
       id="branche2"
       style="fill:#ab4324"
       inkscape:connector-curvature="0" />
    <path
       d="m 514.38522,808.62017 c -4.64751,-22.08786 -34.09622,-47.25 -52.93366,-55.54472 10.73814,-29.38664 70.839,-65.27133 99.52042,-77.90773 19.93771,-8.61343 42.51604,31.21049 47.43414,45.74576 -2.6137,21.17228 -71.02878,92.33032 -94.0209,87.70669 z"
       id="branche1"
       style="fill:#ab4324"
       inkscape:connector-curvature="0" />
    <path
       d="m 398.58494,105.6637 a 35.405437,38.325474 0 1 1 -70.81087,0 35.405437,38.325474 0 1 1 70.81087,0 z"
       id="path2729"
       style="fill:#ffffff;fill-opacity:1;fill-rule:evenodd;stroke:none"
       inkscape:connector-curvature="0" />
    <path
       d="M 338.0625,0.03125 C 281.13579,2.7180975 241.43434,18.630549 208.1817,66.592296 167.84078,139.90873 161.13012,226.9431 153.89215,308.67529 c 0.0533,2.70143 -0.41987,5.61435 -2.99421,7.05482 -30.20125,25.8723 -62.647689,51.24852 -68.318589,92.69968 -11.635627,50.28537 -35.963667,96.53615 -48.061886,146.68913 -16.94838,65.08985 0.651697,130.721 17.614793,193.80185 24.763458,51.6814 7.998699,104.16573 -20.909072,149.61862 -17.212242,26.08108 -39.9205915,53.34796 -28.5966113,86.02285 17.1892893,17.54116 46.7997343,-3.29003 62.6131543,-13.69289 16.453498,-8.69176 22.817862,-30.30601 41.193081,-35.3381 17.99585,6.35476 22.56322,48.55436 33.61889,67.58025 7.93594,8.6151 15.94139,17.4042 28.41519,16.9567 27.43263,1.2318 35.6343,-10.9661 38.1549,-36.77649 2.91317,-18.95768 -4.10214,-49.92549 13.36723,-63.85133 30.48642,10.56105 42.17163,57.09903 63.44518,82.94922 14.62249,13.3592 38.13991,24.6723 52.8646,5.9327 13.43863,-24.45605 10.09879,-54.45646 1.16995,-79.91605 21.22469,-13.27122 54.98479,-40.58906 69.73251,-47.80368 7.412,-0.6692 17.00677,4.82343 24.59511,9.11108 2.39863,0.12019 12.85222,-30.62281 26.11709,-37.58412 10.04224,-5.2701 18.39725,-16.61409 30.60806,-17.48916 14.94939,-0.70237 16.94741,18.76159 19.59879,9.40495 6.366,-21.31159 20.28322,-37.83899 41.8322,-49.02574 23.30349,-19.85998 42.93593,-23.47689 59.84852,-53.99651 5.28275,-19.08109 -0.11012,-40.36475 -12.44585,-55.61138 -10.87384,-13.53756 -25.2851,-15.60859 -41.17099,-13.22681 19.29483,-33.65406 37.58338,-68.81962 44.81222,-107.29572 7.99464,-69.95997 -20.11278,-141.50192 -29.34016,-212.20166 9.59528,-10.47968 24.40241,-13.29923 37.94271,-14.4436 39.59818,1.34053 78.42408,-0.6436 117.80251,-1.87455 61.41198,-1.73246 120.70457,-19.85956 178.83382,-38.22548 41.0788,-11.17887 76.74512,-35.90079 105.88271,-66.46089 8.2955,-10.0074 15.2519,-21.33688 19.0382,-33.83923 -66.42366,5.48519 -132.19907,17.15642 -198.73234,21.51186 -64.75163,5.38458 -129.1642,14.20678 -193.91168,19.62112 -6.98728,0.77071 -32.16817,4.58749 -38.81279,1.52554 l 50.99529,-18.41794 c 62.5545,-21.58556 128.40185,-31.21333 193.96497,-38.22135 15.82664,-1.50541 31.75514,-1.25249 47.62943,-1.87379 64.85174,-1.73544 129.82042,-2.3995 194.46092,-8.36419 4.1735,-0.47924 10.005,-3.06839 9.0266,-8.17926 -9.5405,-16.05496 -38.9494,-38.78943 -59.6744,-55.55264 C 984.39035,71.117697 941.84589,52.124138 879.86942,37.303457 838.82204,27.741932 788.35862,20.883999 746.05173,20.600216 698.01067,19.435463 649.936,22.65537 602.28638,28.643672 562.62687,27.368481 521.88161,53.414887 493.18408,57.532389 487.45587,58.139557 487.63911,54.337809 471.83706,43.615846 433.3201,15.58844 385.84041,-0.62991736 338.0625,0.03125 z m 440.83084,30.378342 c 20.2391,-3.807948 172.43812,33.423744 189.05327,48.073328 -11.5966,13.918886 -17.30264,34.55346 -21.25797,40.70458 -68.89257,-15.96484 -148.76264,-25.102887 -253.1237,-11.05593 -11.24898,33.42154 -2.24983,61.13224 -1.75244,89.49343 -38.72078,16.72075 -81.24055,24.11532 -117.97104,45.49726 -4.84857,2.61316 -13.4168,5.94373 -17.73593,9.28568 -1.90726,-5.89774 -6.49324,-41.88485 -12.40689,-54.09457 -8.74005,-41.16578 -17.86564,-83.30949 -39.69587,-119.849707 2.103,-26.083935 102.49747,-41.57122 128.09719,-44.923479 46.87272,0.44321 100.41425,-11.383793 146.79338,-3.130592 z M 410.4389,63.713465 c 53.99945,21.032157 77.73562,72.233995 87.05179,125.898005 6.42226,36.29349 15.02343,84.47856 -21.00744,107.70373 -54.03798,13.17039 -108.89143,30.69653 -164.07174,38.28147 -32.28074,2.91964 -53.9358,-0.54408 -71.43802,-30.68094 -17.48583,-48.54486 -12.71192,-120.73137 -3.12996,-169.96632 13.09932,-51.591595 42.34967,-77.57599 95.33245,-85.010404 26.66533,-2.656169 52.69168,3.94836 77.26292,13.774459 z M 363.8125,70.8125 c -14.41125,-0.165367 -26.01073,15.710417 -28.71099,30.07901 -3.49737,18.61012 14.66526,30.55611 30.54601,31.82356 10.98592,0.87679 23.17899,-11.28476 25.68266,-22.42246 4.32136,-19.223808 -6.45607,-39.238431 -27.51768,-39.48011 z m 725.6898,94.2233 c -131.19578,9.15994 -98.60754,5.80053 -147.05088,8.59489 -2.13359,-21.89835 20.02409,-69.61758 31.57983,-91.38069 43.05885,18.13748 88.59605,53.64629 115.47105,82.7858 z M 374.125,92 c 3.0904,0.678188 3.0936,5.991048 1.65625,7.875 -1.51981,1.99203 -5.19884,2.37616 -7.79375,2.07404 -2.72168,-0.31688 -2.01136,-6.462044 -0.70944,-8.154279 C 368.96211,91.605832 371.2733,91.374192 374.125,92 z m 566.44496,33.44547 c 1.95605,8.70925 -5.68024,13.04548 -7.44241,49.53368 -56.38244,1.79375 -54.57991,-8.53437 -232.11099,18.49868 1.12892,-6.04409 -13.33583,-42.56692 -1.97618,-73.64842 77.74165,-23.456297 210.10477,-4.76424 241.52958,5.61606 z m 79.54974,82.52174 c -32.23683,54.20908 -105.23581,81.64792 -163.0158,95.17088 -69.47383,25.61361 -144.17553,25.38655 -217.22212,27.42262 -17.80815,-3.50437 -43.30323,4.24581 -70.28803,-1.93571 -7.63159,-20.05568 -18.80562,-45.55818 -5.84058,-65.31172 9.3171,-11.59377 20.24612,-10.39958 34.52353,-12.2752 113.79651,-11.23828 228.40769,-23.24363 342.62374,-35.11164 l 79.21926,-7.95923 z M 569.4375,679.59375 c 11.66972,0.37384 20.96689,9.28358 26.47503,18.90379 6.93293,11.02677 10.1312,25.50518 4.37144,37.72529 -6.66751,15.01926 -20.39917,25.1233 -33.54394,34.17859 -13.56765,9.04613 -26.75222,20.22681 -40.20789,29.41334 -3.11831,2.65674 -6.28885,-14.68971 -21.94508,-23.85516 -10.01221,-7.51834 -22.26434,-12.03401 -30.99331,-21.2096 -2.56673,-3.24024 -2.09669,-8.20375 1.30257,-10.67757 25.42542,-19.29684 47.02598,-42.79642 74.45616,-59.46367 6.23102,-3.05731 13.06772,-5.28836 20.08502,-5.01501 z m -346.36497,70.65254 c 24.05498,34.56812 -0.37692,68.84811 -24.29246,95.40134 -7.50355,5.55853 -34.40643,40.19604 -42.27545,35.46479 -17.4924,-30.96855 -14.14107,-69.88126 -4.06611,-102.58654 14.28605,-32.33481 37.92141,-52.13302 70.63402,-28.27959 z m 206.33827,26.03154 c 17.72421,0.98042 60.80871,27.57899 58.51082,47.18007 -4.0357,-3.99977 -34.52896,23.13887 -41.73424,23.04265 -4.7074,-7.11739 -16.91302,-26.3274 -25.34906,-29.67142 -3.21799,-7.53282 -19.85451,-6.73616 -31.30707,-14.92288 -0.99525,-6.42852 14.15555,-12.26213 19.07275,-15.25114 7.76769,-4.79727 11.51799,-10.63812 20.8068,-10.37728 z m -78.47785,54.84375 c 15.81471,-0.0803 55.71715,21.04059 56.0699,39.34676 -6.27301,-6.84569 -57.44154,37.48307 -74.30771,46.18646 -3.36475,-1.58233 -5.69884,-4.87226 -8.0639,-7.67106 -11.30362,-15.54819 -14.61119,-40.48503 -5.72954,-56.95591 7.96785,-4.90016 19.05746,-14.76858 32.03125,-20.90625 z"
       id="path2386"
       style="fill:#36322e"
       inkscape:connector-curvature="0" />
  </g>
</svg>
