<?xml version="1.0" encoding="UTF-8" standalone="no"?>
<!-- Created with Inkscape (http://www.inkscape.org/) -->

<svg
   xmlns:dc="http://purl.org/dc/elements/1.1/"
   xmlns:cc="http://creativecommons.org/ns#"
   xmlns:rdf="http://www.w3.org/1999/02/22-rdf-syntax-ns#"
   xmlns:svg="http://www.w3.org/2000/svg"
   xmlns="http://www.w3.org/2000/svg"
   xmlns:xlink="http://www.w3.org/1999/xlink"
   xmlns:sodipodi="http://sodipodi.sourceforge.net/DTD/sodipodi-0.dtd"
   xmlns:inkscape="http://www.inkscape.org/namespaces/inkscape"
   id="svg2"
   height="128"
   width="128"
   version="1.0"
   inkscape:version="0.48.1 r9760"
   sodipodi:docname="tsclient-applet.svg">
  <metadata
     id="metadata67">
    <rdf:RDF>
      <cc:Work
         rdf:about="">
        <dc:format>image/svg+xml</dc:format>
        <dc:type
           rdf:resource="http://purl.org/dc/dcmitype/StillImage" />
      </cc:Work>
    </rdf:RDF>
  </metadata>
  <sodipodi:namedview
     pagecolor="#ffffff"
     bordercolor="#666666"
     borderopacity="1"
     objecttolerance="10"
     gridtolerance="10"
     guidetolerance="10"
     inkscape:pageopacity="0"
     inkscape:pageshadow="2"
     inkscape:window-width="1162"
     inkscape:window-height="852"
     id="namedview65"
     showgrid="false"
     inkscape:zoom="5.1875"
     inkscape:cx="64"
     inkscape:cy="79.421687"
     inkscape:window-x="0"
     inkscape:window-y="24"
     inkscape:window-maximized="0"
     inkscape:current-layer="svg2" />
  <defs
     id="defs4">
    <linearGradient
       id="linearGradient3156">
      <stop
         id="stop3158"
         style="stop-color:#fff"
         offset="0" />
      <stop
         id="stop3160"
         style="stop-color:#fff;stop-opacity:0"
         offset="1" />
    </linearGradient>
    <linearGradient
       id="linearGradient6544">
      <stop
         id="stop6546"
         style="stop-color:#f0f0f0"
         offset="0" />
      <stop
         id="stop6548"
         style="stop-color:#d2d2d2"
         offset="1" />
    </linearGradient>
    <linearGradient
       id="linearGradient5547"
       y2="19.812"
       gradientUnits="userSpaceOnUse"
       x2="15.25"
       gradientTransform="matrix(0.61956,0,0,0.65031,14.141,16.076)"
       y1="8.4375"
       x1="12.938">
      <stop
         id="stop6594"
         style="stop-color:#fff;stop-opacity:.27451"
         offset="0" />
      <stop
         id="stop6596"
         style="stop-color:#fff;stop-opacity:0"
         offset="1" />
    </linearGradient>
    <linearGradient
       id="linearGradient5550"
       y2="99.960999"
       gradientUnits="userSpaceOnUse"
       x2="316.97"
       gradientTransform="matrix(0.56809,0,0,0.68244,-152.86,-19.372)"
       y1="81.681999"
       x1="310.59">
      <stop
         id="stop4576"
         style="stop-color:#787878"
         offset="0" />
      <stop
         id="stop4578"
         style="stop-color:#abada9"
         offset="1" />
    </linearGradient>
    <linearGradient
       id="linearGradient5553"
       y2="416.82999"
       xlink:href="#linearGradient6544"
       gradientUnits="userSpaceOnUse"
       x2="145.44"
       gradientTransform="matrix(0.12643,0,0,0.1056,10.613,0.81479)"
       y1="372.67001"
       x1="145.44" />
    <radialGradient
       id="radialGradient5556"
       gradientUnits="userSpaceOnUse"
       cy="4.8631001"
       cx="12.244"
       gradientTransform="matrix(0.84641,0.010763,-0.0078808,0.60166,11.491,18.793)"
       r="21">
      <stop
         id="stop6707"
         style="stop-color:#5a5a5a"
         offset="0" />
      <stop
         id="stop6709"
         style="stop-color:#1e1e1e"
         offset="1" />
    </radialGradient>
    <linearGradient
       id="linearGradient5559"
       y2="31.983"
       xlink:href="#linearGradient6544"
       gradientUnits="userSpaceOnUse"
       x2="20.104"
       gradientTransform="matrix(0.66064,0,0,0.67812,13.144,15.15)"
       y1="-0.0004971"
       x1="20.146999" />
    <linearGradient
       id="linearGradient5562"
       y2="93.379997"
       gradientUnits="userSpaceOnUse"
       x2="320.28"
       gradientTransform="matrix(0.70358,0,0,0.65181,-196.17,-19.863)"
       y1="86.913002"
       x1="320.28">
      <stop
         id="stop6534"
         style="stop-color:#787878"
         offset="0" />
      <stop
         id="stop6536"
         style="stop-color:#bebebe"
         offset=".26105" />
      <stop
         id="stop6538"
         style="stop-color:#c8c8c8"
         offset=".43423" />
      <stop
         id="stop6540"
         style="stop-color:#e6e6e6"
         offset=".61838" />
      <stop
         id="stop6542"
         style="stop-color:#8c8c8c"
         offset="1" />
    </linearGradient>
    <linearGradient
       id="linearGradient5568"
       y2="24.653999"
       xlink:href="#linearGradient3156"
       gradientUnits="userSpaceOnUse"
       x2="29.725"
       gradientTransform="matrix(-0.16008,-1.1032,0.48564,0.016921,16.935,53.089)"
       y1="55.646999"
       x1="30.502001" />
    <linearGradient
       id="linearGradient5571"
       y2="20.664"
       xlink:href="#linearGradient3156"
       gradientUnits="userSpaceOnUse"
       x2="28.290001"
       gradientTransform="matrix(-0.099401,-1.1198,0.69461,-0.039988,8.175,55.475)"
       y1="-2.3103001"
       x1="28.221001" />
    <linearGradient
       id="linearGradient5574"
       y2="20.664"
       xlink:href="#linearGradient3156"
       gradientUnits="userSpaceOnUse"
       x2="28.290001"
       gradientTransform="matrix(1.1247,-0.0067908,0.0011231,0.74292,-7.8874,1.6777)"
       y1="-0.81502998"
       x1="27.889" />
    <linearGradient
       id="linearGradient5577"
       y2="20.664"
       xlink:href="#linearGradient3156"
       gradientUnits="userSpaceOnUse"
       x2="28.290001"
       gradientTransform="matrix(1.0762,-0.29129,0.19527,0.71432,-11.183,13.979)"
       y1="61.853001"
       x1="24.334999" />
    <radialGradient
       id="radialGradient5580"
       fy="4.7612"
       xlink:href="#linearGradient3156"
       gradientUnits="userSpaceOnUse"
       cy="11.223"
       cx="22.945"
       gradientTransform="matrix(1.3571,0.010218,-0.0063134,0.83849,-10.875,0.3058)"
       r="14" />
    <radialGradient
       id="radialGradient5583"
       xlink:href="#linearGradient3156"
       gradientUnits="userSpaceOnUse"
       cy="10.875"
       cx="22.125"
       gradientTransform="matrix(1.01,-0.112,0.056688,0.51121,-5.8376,0.79347)"
       r="20" />
    <radialGradient
       id="radialGradient5586"
       gradientUnits="userSpaceOnUse"
       cy="12.61"
       cx="20.039"
       gradientTransform="matrix(1.9525,-0.050181,0.036509,1.4215,-20.408,-6.9089)"
       r="22.464001">
      <stop
         id="stop8649"
         style="stop-color:#8fb1dc"
         offset="0" />
      <stop
         id="stop8651"
         style="stop-color:#3465a4"
         offset="1" />
    </radialGradient>
    <linearGradient
       id="linearGradient5588"
       y2="50"
       gradientUnits="userSpaceOnUse"
       x2="29.75"
       gradientTransform="translate(-5,-7)"
       y1="29"
       x1="29.013">
      <stop
         id="stop14112"
         style="stop-color:#557695"
         offset="0" />
      <stop
         id="stop14114"
         style="stop-color:#15395c"
         offset="1" />
    </linearGradient>
    <radialGradient
       id="radialGradient5591"
       gradientUnits="userSpaceOnUse"
       cy="4.625"
       cx="62.625"
       gradientTransform="matrix(1.8353,0,0,0.56471,-91.435,36.388)"
       r="10.625">
      <stop
         id="stop10693"
         offset="0" />
      <stop
         id="stop10695"
         style="stop-opacity:0"
         offset="1" />
    </radialGradient>
    <radialGradient
       id="radialGradient2887"
       gradientUnits="userSpaceOnUse"
       cy="47.044998"
       cx="20.914"
       gradientTransform="matrix(1.3826,3.5814e-5,0,0.1715,5.9578,35.097)"
       r="19.5">
      <stop
         id="stop3909"
         style="stop-color:#fff"
         offset="0" />
      <stop
         id="stop3911"
         style="stop-color:#fff;stop-opacity:0"
         offset="1" />
    </radialGradient>
  </defs>
  <g
     id="g5618"
     transform="matrix(2.8409039,0,0,2.8409039,-5.1885676,-2.0695923)">
    <path
       id="path8836"
       style="opacity:0.4;fill:url(#radialGradient5591);fill-rule:evenodd"
       d="m 43,39 c 0,3.3137 -8.7304,6 -19.5,6 C 12.7304,45 4,42.314 4,39 4,35.686 12.73,33 23.5,33 34.27,33 43,35.686 43,39 z"
       inkscape:connector-curvature="0" />
    <path
       id="path1307"
       style="fill:url(#radialGradient5586);stroke:url(#linearGradient5588);stroke-width:0.99816;stroke-linecap:round;stroke-linejoin:round"
       d="m 44.501,22 c 0,11.317 -9.1784,20.501 -20.487,20.501 C 12.7054,42.501 3.527,33.3166 3.527,22 3.527,10.6834 12.7054,1.499 24.014,1.499 35.3226,1.499 44.501,10.6834 44.501,22 z"
       inkscape:connector-curvature="0" />
    <path
       id="path3164"
       style="opacity:0.7;fill:none;stroke:url(#radialGradient5583);stroke-width:0.99646997;stroke-linecap:round;stroke-linejoin:round"
       d="M 43.502,22 C 43.502,32.765 34.7652,41.502 24,41.502 13.2348,41.502 4.498,32.765 4.498,22 4.498,11.235 13.2348,2.498 24,2.498 34.7652,2.498 43.502,11.2348 43.502,22 z"
       inkscape:connector-curvature="0" />
    <path
       id="path3154"
       style="opacity:0.4;fill:url(#radialGradient5580)"
       d="M 43,15.747 C 43,22.8611 34.488,26.776 24,26.776 13.512,26.776 5,22.861 5,15.747 5,8.6326 13.512,1 24,1 34.488,1 43,8.6326 43,15.747 z"
       inkscape:connector-curvature="0" />
    <path
       id="path2218"
       style="opacity:0.6;fill:none;stroke:url(#linearGradient5577);stroke-width:0.99518001;stroke-linecap:round"
       d="M 43.058,17.902 C 44.945,24.806 38.043,32.685 27.641,35.501 17.24,38.316 7.278,35.001 5.391,28.098 3.5034,21.194 10.405,13.315 20.807,10.499 31.208,7.6837 41.17,10.99817 43.058,17.902 z"
       inkscape:connector-curvature="0" />
    <path
       id="path2230"
       style="opacity:0.6;fill:none;stroke:url(#linearGradient5574);stroke-width:0.99664003;stroke-linecap:round"
       d="m 43.877,19.381 c 0.011,7.18 -8.792,13.054 -19.663,13.12 C 13.344,32.567 4.523,26.799 4.512,19.619 4.501,12.439 13.304,6.565 24.175,6.499 35.045,6.4332 43.866,12.201 43.877,19.381 z"
       inkscape:connector-curvature="0" />
    <path
       id="path2234"
       style="opacity:0.6;fill:none;stroke:url(#linearGradient5571);stroke-width:0.99816;stroke-linecap:round"
       d="m 20.447,2.9958 c 6.7134,-0.38648 12.934,8.0736 13.895,18.896 0.96071,10.823 -3.7028,19.909 -10.416,20.296 -6.714,0.386 -12.935,-8.074 -13.895,-18.896 -0.9611,-10.823 3.702,-19.91 10.416,-20.296 z"
       inkscape:connector-curvature="0" />
    <path
       id="path2240"
       style="opacity:0.6;fill:none;stroke:url(#linearGradient5568);stroke-width:0.99816;stroke-linecap:round"
       d="m 21.349,2.7503 c 4.6937,0.16354 9.7529,8.9401 11.3,19.603 1.5471,10.6629 -1.0036,19.174 -5.6973,19.011 -4.694,-0.164 -9.754,-8.94 -11.301,-19.603 -1.547,-10.663 1.004,-19.174 5.698,-19.011 z"
       inkscape:connector-curvature="0" />
    <path
       id="path2275"
       style="opacity:0.4;fill:#ffffff"
       d="m 15.092,35.382 c 0.20699,0.76184 -0.15396,1.5234 -0.80622,1.7011 -0.65226,0.17763 -1.3488,-0.29597 -1.5558,-1.0578 -0.20699,-0.76184 0.15396,-1.5234 0.80622,-1.7011 0.65226,-0.17763 1.3488,0.29597 1.5558,1.0578 z"
       inkscape:connector-curvature="0" />
    <path
       id="path2283"
       style="opacity:0.4;fill:#ffffff"
       d="m 28.615,6.514 c 0.31331,0.616 -0.04959,1.2834 -0.81055,1.4906 -0.76097,0.20723 -1.6318,-0.12414 -1.9451,-0.74015 -0.31331,-0.616 0.04959,-1.2834 0.81055,-1.4906 0.76097,-0.20723 1.6318,0.12414 1.9451,0.74015 z"
       inkscape:connector-curvature="0" />
    <path
       id="path2291"
       style="opacity:0.4;fill:#ffffff"
       d="m 13.495,9.1501 c -0.01282,0.70482 -0.64009,1.4442 -1.4011,1.6514 -0.76097,0.20723 -1.3675,-0.19614 -1.3546,-0.90096 0.01282,-0.70482 0.64009,-1.4442 1.4011,-1.6514 0.76097,-0.20723 1.3675,0.19614 1.3546,0.90096 z"
       inkscape:connector-curvature="0" />
    <g
       id="g5595">
      <path
         id="path4675"
         style="fill:url(#linearGradient5562);stroke:#8c8c8c;stroke-linecap:round;stroke-linejoin:round;stroke-dashoffset:0.5;enable-background:new"
         d="m 25.5,33.911 v 4.5626 c -0.016,1.175 -1.711,2.126 -1.711,2.126 -0.52864,0.05764 10.951,0.05764 10.422,0 0,0 -1.6955,-0.95149 -1.7111,-2.126 V 33.911 h -7 z"
         inkscape:connector-curvature="0" />
      <rect
         id="rect2722"
         style="fill:url(#linearGradient5559);stroke:#8c8c8c;stroke-width:1.00049996;stroke-linecap:round;stroke-linejoin:round;stroke-dashoffset:0.5"
         height="21"
         width="31"
         y="15.5"
         x="13.5" />
      <rect
         id="rect2716"
         style="fill:url(#radialGradient5556);fill-rule:evenodd;stroke:#141414;stroke-width:0.90802997;enable-background:new"
         height="15.075"
         width="25.091999"
         y="18.471001"
         x="16.465" />
      <path
         id="path3698"
         style="fill:url(#linearGradient5553);stroke:#8c8c8c;stroke-width:1.00010002;stroke-linecap:square;stroke-dashoffset:0.3612;enable-background:new"
         d="m 16.788,40.5 c -0.17807,0.01522 -0.33349,0.10286 -0.41879,0.2343 l -1.8056,2.7852 c -0.04238,0.0668 -0.06467,0.14294 -0.06321,0.2178 -1.59e-4,-0.0082 -4.63e-4,-0.0059 0,0.0066 v 0.3102 0.033 c -5.14e-4,0.04597 0.01605,0.09093 0.04741,0.1287 0.0096,0.02322 0.0093,0.04032 0.02765,0.066 0.09605,0.13414 0.27152,0.21693 0.46226,0.2178 h 27.921 c 0.19115,3.67e-4 0.3682,-0.08287 0.4662,-0.2211 0.04174,-0.05886 0.0549,-0.11356 0.06322,-0.1551 0.01435,-0.07167 0.01185,-0.1221 0.01185,-0.1221 4.1e-5,-0.0022 4.1e-5,-0.0044 0,-0.0066 v -0.2211 c 0,-0.063 -7.42e-4,-0.16005 -0.06716,-0.2607 l -1.8767,-2.7852 c -0.0013,-9e-6 -0.0026,-9e-6 -0.0039,0 C 41.45495,40.5855 41.2742,40.49839 41.07813,40.5 h -24.223 c -0.0042,-1.79e-4 -0.0077,9.8e-5 -0.01185,0 -0.01398,-3.19e-4 -0.02547,-5.92e-4 -0.03951,0 -0.0053,-1.32e-4 -0.01054,-1.32e-4 -0.0158,0 z"
         inkscape:connector-curvature="0" />
      <path
         id="path3704"
         style="fill:url(#linearGradient5550);fill-rule:evenodd;enable-background:new"
         d="M 18.438,40 17,43 H 41 L 39.456,40 H 18.438 z"
         inkscape:connector-curvature="0" />
      <path
         id="rect6588"
         style="fill:url(#linearGradient5547)"
         d="m 16,18.027 h 26.022 v 5.2025 L 16,27.7815 v -9.755 z"
         inkscape:connector-curvature="0" />
      <path
         id="rect2312"
         style="fill:url(#radialGradient2887)"
         d="m 19.938,40 c -0.78836,0.4545 0.19552,1.5246 0.73489,0.814 0.138,-0.657 -0.091,-0.907 -0.735,-0.814 z m 2,0 c -0.78836,0.4545 0.19552,1.5246 0.73489,0.814 0.138,-0.657 -0.091,-0.907 -0.735,-0.814 z m 2,0 c -0.78836,0.4545 0.19552,1.5246 0.73489,0.814 0.138,-0.657 -0.091,-0.907 -0.735,-0.814 z m 2,0 c -0.78836,0.4545 0.19552,1.5246 0.73489,0.814 0.138,-0.657 -0.091,-0.907 -0.735,-0.814 z m 2,0 c -0.78836,0.4545 0.19552,1.5246 0.73489,0.814 0.138,-0.657 -0.091,-0.907 -0.735,-0.814 z m 2,0 c -0.78836,0.4545 0.19552,1.5246 0.73489,0.814 0.138,-0.657 -0.091,-0.907 -0.735,-0.814 z m 2,0 c -0.78836,0.4545 0.19552,1.5246 0.73489,0.814 0.182,-0.616 -0.162,-0.929 -0.735,-0.814 z m 2,0 c -0.78836,0.4545 0.19552,1.5246 0.73489,0.814 0.138,-0.657 -0.091,-0.907 -0.735,-0.814 z m 2,0 c -0.78836,0.4545 0.19552,1.5246 0.73489,0.814 0.138,-0.657 -0.091,-0.907 -0.735,-0.814 z m 2,0 c -0.78836,0.4545 0.19552,1.5246 0.73489,0.814 0.138,-0.657 -0.091,-0.907 -0.735,-0.814 z m -19,1 c -0.78836,0.4545 0.19552,1.5246 0.73489,0.814 0.138,-0.657 -0.091,-0.907 -0.735,-0.814 z m 2,0 c -0.78836,0.4545 0.19552,1.5246 0.73489,0.814 0.138,-0.657 -0.091,-0.907 -0.735,-0.814 z m 2,0 c -0.78836,0.4545 0.19552,1.5246 0.73489,0.814 0.138,-0.657 -0.091,-0.907 -0.735,-0.814 z m 2,0 c -0.78836,0.4545 0.19552,1.5246 0.73489,0.814 0.138,-0.657 -0.091,-0.907 -0.735,-0.814 z m 2,0 c -0.78836,0.4545 0.19552,1.5246 0.73489,0.814 0.138,-0.657 -0.091,-0.907 -0.735,-0.814 z m 2,0 c -0.78836,0.4545 0.19552,1.5246 0.73489,0.814 0.138,-0.657 -0.091,-0.907 -0.735,-0.814 z m 2,0 c -0.78836,0.4545 0.19552,1.5246 0.73489,0.814 0.138,-0.657 -0.091,-0.907 -0.735,-0.814 z m 2,0 c -0.78836,0.4545 0.19552,1.5246 0.73489,0.814 0.138,-0.657 -0.091,-0.907 -0.735,-0.814 z m 2,0 c -0.78836,0.4545 0.19552,1.5246 0.73489,0.814 0.138,-0.657 -0.091,-0.907 -0.735,-0.814 z m 2,0 c -0.78836,0.4545 0.19552,1.5246 0.73489,0.814 0.138,-0.657 -0.091,-0.907 -0.735,-0.814 z m 2,0 c -0.78836,0.4545 0.19552,1.5246 0.73489,0.814 0.138,-0.657 -0.091,-0.907 -0.735,-0.814 z m -19,1 c -0.78836,0.4545 0.19552,1.5246 0.73489,0.814 0.138,-0.657 -0.091,-0.907 -0.735,-0.814 z m 2,0 c -0.78836,0.4545 0.19552,1.5246 0.73489,0.814 0.138,-0.657 -0.091,-0.907 -0.735,-0.814 z m 2,0 c -0.78836,0.4545 0.19552,1.5246 0.73489,0.814 0.138,-0.657 -0.091,-0.907 -0.735,-0.814 z m 2,0 c -0.78836,0.4545 0.19552,1.5246 0.73489,0.814 0.138,-0.657 -0.091,-0.907 -0.735,-0.814 z m 2,0 c -0.78836,0.4545 0.19552,1.5246 0.73489,0.814 0.138,-0.657 -0.091,-0.907 -0.735,-0.814 z m 2,0 c -0.78836,0.4545 0.19552,1.5246 0.73489,0.814 0.138,-0.657 -0.091,-0.907 -0.735,-0.814 z m 2,0 c -0.78836,0.4545 0.19552,1.5246 0.73489,0.814 0.182,-0.616 -0.162,-0.929 -0.735,-0.814 z m 2,0 c -0.78836,0.4545 0.19552,1.5246 0.73489,0.814 0.138,-0.657 -0.091,-0.907 -0.735,-0.814 z m 2,0 c -0.78836,0.4545 0.19552,1.5246 0.73489,0.814 0.138,-0.657 -0.091,-0.907 -0.735,-0.814 z m 2,0 c -0.78836,0.4545 0.19552,1.5246 0.73489,0.814 0.138,-0.657 -0.091,-0.907 -0.735,-0.814 z"
         inkscape:connector-curvature="0" />
    </g>
  </g>
</svg>
