<?xml version="1.0" encoding="UTF-8" standalone="no"?>
<!-- Created with Inkscape (http://www.inkscape.org/) -->

<svg
   xmlns:dc="http://purl.org/dc/elements/1.1/"
   xmlns:cc="http://creativecommons.org/ns#"
   xmlns:rdf="http://www.w3.org/1999/02/22-rdf-syntax-ns#"
   xmlns:svg="http://www.w3.org/2000/svg"
   xmlns="http://www.w3.org/2000/svg"
   xmlns:xlink="http://www.w3.org/1999/xlink"
   xmlns:sodipodi="http://sodipodi.sourceforge.net/DTD/sodipodi-0.dtd"
   xmlns:inkscape="http://www.inkscape.org/namespaces/inkscape"
   width="128"
   height="128"
   id="svg3886"
   version="1.1"
   inkscape:version="0.48.1 r9760"
   sodipodi:docname="system-software-update.svg">
  <defs
     id="defs3888">
    <linearGradient
       inkscape:collect="always"
       xlink:href="#linearGradient3924"
       id="linearGradient2984"
       gradientUnits="userSpaceOnUse"
       gradientTransform="matrix(2.7297298,0,0,2.7297298,-1.5135108,-62.513486)"
       x1="23.99999"
       y1="4.999989"
       x2="23.99999"
       y2="43" />
    <linearGradient
       id="linearGradient3924">
      <stop
         id="stop3926"
         style="stop-color:#ffffff;stop-opacity:1;"
         offset="0" />
      <stop
         offset="0.06316455"
         style="stop-color:#ffffff;stop-opacity:0.23529412;"
         id="stop3928" />
      <stop
         id="stop3930"
         style="stop-color:#ffffff;stop-opacity:0.15686275;"
         offset="0.95056331" />
      <stop
         id="stop3932"
         style="stop-color:#ffffff;stop-opacity:0.39215687;"
         offset="1" />
    </linearGradient>
    <radialGradient
       inkscape:collect="always"
       xlink:href="#linearGradient7012-661-145-733-759-865-745-661-970-94-8"
       id="radialGradient2990"
       gradientUnits="userSpaceOnUse"
       gradientTransform="matrix(5.131108e-8,6.1720507,-6.5292935,-1.1371273e-7,119.1713,-93.225241)"
       cx="7.4956832"
       cy="8.4497671"
       fx="7.4956832"
       fy="8.4497671"
       r="19.99999" />
    <linearGradient
       id="linearGradient7012-661-145-733-759-865-745-661-970-94-8">
      <stop
         id="stop3618-1"
         style="stop-color:#c0f988;stop-opacity:1;"
         offset="0" />
      <stop
         id="stop3620-8"
         style="stop-color:#68d003;stop-opacity:1;"
         offset="1" />
    </linearGradient>
    <linearGradient
       inkscape:collect="always"
       xlink:href="#linearGradient3390-178-986-453-3"
       id="linearGradient2992"
       gradientUnits="userSpaceOnUse"
       gradientTransform="matrix(2.6410257,0,0,2.6410257,0.6153792,-60.384617)"
       x1="24"
       y1="44"
       x2="24"
       y2="3.8990016" />
    <linearGradient
       id="linearGradient3390-178-986-453-3">
      <stop
         id="stop3624-6"
         style="stop-color:#c0f988;stop-opacity:1;"
         offset="0" />
      <stop
         offset="0.5"
         style="stop-color:#8dbd5e;stop-opacity:1;"
         id="stop3856-8" />
      <stop
         id="stop3626-0"
         style="stop-color:#578925;stop-opacity:1;"
         offset="1" />
    </linearGradient>
    <radialGradient
       cx="4.9929786"
       cy="43.5"
       r="2.5"
       fx="4.9929786"
       fy="43.5"
       id="radialGradient2455"
       xlink:href="#linearGradient3688-166-749"
       gradientUnits="userSpaceOnUse"
       gradientTransform="matrix(2.003784,0,0,1.4,27.98813,-17.4)" />
    <linearGradient
       id="linearGradient3688-166-749">
      <stop
         id="stop2883"
         style="stop-color:#181818;stop-opacity:1"
         offset="0" />
      <stop
         id="stop2885"
         style="stop-color:#181818;stop-opacity:0"
         offset="1" />
    </linearGradient>
    <radialGradient
       cx="4.9929786"
       cy="43.5"
       r="2.5"
       fx="4.9929786"
       fy="43.5"
       id="radialGradient2457"
       xlink:href="#linearGradient3688-464-309"
       gradientUnits="userSpaceOnUse"
       gradientTransform="matrix(2.003784,0,0,1.4,-20.01187,-104.4)" />
    <linearGradient
       id="linearGradient3688-464-309">
      <stop
         id="stop2889"
         style="stop-color:#181818;stop-opacity:1"
         offset="0" />
      <stop
         id="stop2891"
         style="stop-color:#181818;stop-opacity:0"
         offset="1" />
    </linearGradient>
    <linearGradient
       x1="25.058096"
       y1="47.027729"
       x2="25.058096"
       y2="39.999443"
       id="linearGradient2459"
       xlink:href="#linearGradient3702-501-757"
       gradientUnits="userSpaceOnUse" />
    <linearGradient
       id="linearGradient3702-501-757">
      <stop
         id="stop2895"
         style="stop-color:#181818;stop-opacity:0"
         offset="0" />
      <stop
         id="stop2897"
         style="stop-color:#181818;stop-opacity:1"
         offset="0.5" />
      <stop
         id="stop2899"
         style="stop-color:#181818;stop-opacity:0"
         offset="1" />
    </linearGradient>
    <linearGradient
       x1="48"
       y1="20.220806"
       x2="48"
       y2="138.66119"
       id="linearGradient3613"
       xlink:href="#linearGradient3737"
       gradientUnits="userSpaceOnUse" />
    <linearGradient
       id="linearGradient3737">
      <stop
         id="stop3739"
         style="stop-color:#ffffff;stop-opacity:1"
         offset="0" />
      <stop
         id="stop3741"
         style="stop-color:#ffffff;stop-opacity:0"
         offset="1" />
    </linearGradient>
    <clipPath
       id="clipPath3613">
      <rect
         width="84"
         height="84"
         rx="6"
         ry="6"
         x="6"
         y="6"
         id="rect3615"
         style="fill:#ffffff;fill-opacity:1;fill-rule:nonzero;stroke:none" />
    </clipPath>
    <filter
       x="-0.192"
       y="-0.192"
       width="1.3839999"
       height="1.3839999"
       color-interpolation-filters="sRGB"
       id="filter3794">
      <feGaussianBlur
         id="feGaussianBlur3796"
         stdDeviation="5.28" />
    </filter>
    <linearGradient
       x1="12.75"
       y1="48"
       x2="83.25"
       y2="48"
       id="linearGradient3709"
       xlink:href="#linearGradient3703"
       gradientUnits="userSpaceOnUse"
       gradientTransform="matrix(0,-1,1,0,0,96)" />
    <linearGradient
       id="linearGradient3703">
      <stop
         id="stop3705"
         style="stop-color:#a8e66c;stop-opacity:1"
         offset="0" />
      <stop
         id="stop3707"
         style="stop-color:#dbfabd;stop-opacity:1"
         offset="1" />
    </linearGradient>
    <radialGradient
       cx="48"
       cy="48"
       r="35.25"
       fx="48"
       fy="48"
       id="radialGradient3773"
       xlink:href="#linearGradient3767"
       gradientUnits="userSpaceOnUse" />
    <linearGradient
       id="linearGradient3767">
      <stop
         id="stop3769"
         style="stop-color:#6bd107;stop-opacity:1"
         offset="0" />
      <stop
         id="stop3771"
         style="stop-color:#6bd107;stop-opacity:0"
         offset="1" />
    </linearGradient>
    <linearGradient
       y2="138.66119"
       x2="48"
       y1="20.220806"
       x1="48"
       gradientUnits="userSpaceOnUse"
       id="linearGradient3846"
       xlink:href="#linearGradient3737"
       inkscape:collect="always" />
    <linearGradient
       inkscape:collect="always"
       xlink:href="#linearGradient3737"
       id="linearGradient3908"
       gradientUnits="userSpaceOnUse"
       x1="48"
       y1="20.220806"
       x2="48"
       y2="138.66119" />
    <linearGradient
       inkscape:collect="always"
       xlink:href="#linearGradient3703"
       id="linearGradient3910"
       gradientUnits="userSpaceOnUse"
       gradientTransform="matrix(0,-1,1,0,0,96)"
       x1="12.75"
       y1="48"
       x2="83.25"
       y2="48" />
    <radialGradient
       inkscape:collect="always"
       xlink:href="#linearGradient3767"
       id="radialGradient3912"
       gradientUnits="userSpaceOnUse"
       cx="48"
       cy="48"
       fx="48"
       fy="48"
       r="35.25" />
  </defs>
  <sodipodi:namedview
     id="base"
     pagecolor="#ffffff"
     bordercolor="#666666"
     borderopacity="1.0"
     inkscape:pageopacity="0.0"
     inkscape:pageshadow="2"
     inkscape:zoom="1.375"
     inkscape:cx="78.545455"
     inkscape:cy="32"
     inkscape:current-layer="layer1"
     showgrid="true"
     inkscape:document-units="px"
     inkscape:grid-bbox="true"
     inkscape:window-width="1490"
     inkscape:window-height="804"
     inkscape:window-x="0"
     inkscape:window-y="46"
     inkscape:window-maximized="0" />
  <metadata
     id="metadata3891">
    <rdf:RDF>
      <cc:Work
         rdf:about="">
        <dc:format>image/svg+xml</dc:format>
        <dc:type
           rdf:resource="http://purl.org/dc/dcmitype/StillImage" />
        <dc:title></dc:title>
      </cc:Work>
    </rdf:RDF>
  </metadata>
  <g
     id="layer1"
     inkscape:label="Layer 1"
     inkscape:groupmode="layer"
     transform="translate(0,64)">
    <g
       transform="matrix(2.9499988,0,0,1.2222234,-6.8000012,1.555537)"
       id="g2036"
       style="display:inline">
      <g
         transform="matrix(1.052632,0,0,1.285713,-1.263158,-13.42854)"
         id="g3712"
         style="opacity:0.4">
        <rect
           width="5"
           height="7"
           x="38"
           y="40"
           id="rect2801"
           style="fill:url(#radialGradient2455);fill-opacity:1;stroke:none" />
        <rect
           width="5"
           height="7"
           x="-10"
           y="-47"
           transform="scale(-1,-1)"
           id="rect3696"
           style="fill:url(#radialGradient2457);fill-opacity:1;stroke:none" />
        <rect
           width="28"
           height="7.0000005"
           x="10"
           y="40"
           id="rect3700"
           style="fill:url(#linearGradient2459);fill-opacity:1;stroke:none" />
      </g>
    </g>
    <rect
       style="color:#000000;fill:url(#radialGradient2990);fill-opacity:1.0;fill-rule:nonzero;stroke:url(#linearGradient2992);stroke-width:0.99999994000000003;stroke-linecap:round;stroke-linejoin:round;stroke-miterlimit:4;stroke-opacity:1;stroke-dasharray:none;stroke-dashoffset:0;marker:none;visibility:visible;display:inline;overflow:visible;enable-background:accumulate"
       id="rect5505-21"
       y="-48.5"
       x="12.5"
       ry="6"
       rx="6"
       height="103"
       width="103" />
    <rect
       style="opacity:0.5;fill:none;stroke:url(#linearGradient2984);stroke-width:0.99999994;stroke-linecap:round;stroke-linejoin:round;stroke-miterlimit:4;stroke-opacity:1;stroke-dasharray:none;stroke-dashoffset:0"
       id="rect6741-7"
       y="-47.5"
       x="13.5"
       ry="5"
       rx="5"
       height="101"
       width="101" />
    <g
       transform="matrix(1.2164502,0,0,1.2164502,4.519481,-58.753247)"
       id="layer5">
      <rect
         width="66"
         height="66"
         rx="12"
         ry="12"
         x="15"
         y="15"
         clip-path="url(#clipPath3613)"
         id="rect3171"
         style="opacity:0.1;fill:url(#linearGradient3908);fill-opacity:1;fill-rule:nonzero;stroke:#ffffff;stroke-width:0.5;stroke-linecap:round;stroke-linejoin:miter;stroke-miterlimit:4;stroke-opacity:1;stroke-dasharray:none;stroke-dashoffset:0;filter:url(#filter3794)" />
    </g>
    <g
       transform="matrix(1.2164502,0,0,1.2164502,5.2467537,-55.844156)"
       id="layer4">
      <path
         d="m 40.40625,10.96875 c -5.054613,1.083133 -9.969932,3.044903 -14.1875,6.0625 -0.971439,3.482739 -1.364126,8.341395 -5.917044,9.142502 -4.807593,-0.435986 -6.418063,4.348898 -8.079588,7.975864 -1.093884,3.636344 -4.0825231,7.867541 -0.299766,10.744208 2.397093,3.003637 1.288734,7.500856 -1.453602,9.887426 -1.1640396,4.404343 1.888355,8.910348 3.603221,12.888833 1.154869,5.385401 7.612964,2.613843 10.027408,6.695854 1.830106,3.362596 1.089957,7.967239 5.937087,8.928933 3.87269,1.486077 8.550156,4.937568 12.629793,2.872963 2.810008,-3.508272 8.393346,-2.923332 11.114991,0.363417 3.126479,1.15036 6.400915,-0.941658 9.386265,-1.883238 2.654873,-1.556388 6.964274,-2.357981 7.367525,-5.925696 -0.376357,-4.252315 3.708806,-7.395603 7.691584,-7.297849 4.16798,-1.611112 5.082988,-7.354953 6.889049,-11.134287 3.010794,-4.500389 -2.384438,-7.062123 -2.357497,-11.285612 -0.378885,-3.924137 5.028197,-6.066947 2.672106,-10.062267 C 84.256436,34.742513 82.453695,30.653402 79.875,27.125 76.158433,26.39798 71.303298,25.471357 70.673107,20.815021 71.137378,15.890553 65.577433,14.645409 62.057854,12.886553 58.730949,11.58123 56.462382,11.100891 54.353907,11.180056 51.689304,13.95952 47.253822,15.476384 43.876625,12.893537 42.716909,12.185741 41.972656,10.75107 40.40625,10.96875 z M 48,43.78125 c 5.353703,-0.411982 7.26932,8.062465 2.223736,10.005472 C 45.81513,55.947215 40.740993,50.541344 43.471595,46.372506 44.385389,44.795861 46.153422,43.699686 48,43.78125 z"
         inkscape:connector-curvature="0"
         id="path3752"
         style="opacity:0.05;color:#000000;fill:#000000;fill-opacity:1;fill-rule:nonzero;stroke:none;stroke-width:1;marker:none;visibility:visible;display:inline;overflow:visible;enable-background:accumulate" />
      <path
         inkscape:connector-curvature="0"
         d="m 40.59375,11.9375 c -0.0024,4.2e-5 -0.09134,0.03107 -0.09375,0.03125 a 0.83025681,0.83025681 0 0 0 -0.09375,0 c -0.0028,5.06e-4 -0.09097,0.03056 -0.09375,0.03125 -6.53e-4,1.63e-4 -0.0215,-0.0028 -0.03125,0 -0.03168,0.009 -0.09167,0.03058 -0.09375,0.03125 -4.662205,0.984631 -9.029436,2.853993 -12.875,5.375 -0.0076,0.005 -0.02361,-0.005 -0.03125,0 -0.02595,0.01793 -0.06079,0.06123 -0.0625,0.0625 -0.0022,0.0016 -0.09164,0.06072 -0.09375,0.0625 -0.0021,0.0018 -0.09176,0.09183 -0.09375,0.09375 -0.002,0.0019 -0.09189,0.06046 -0.09375,0.0625 -0.0019,0.002 -0.06078,0.09159 -0.0625,0.09375 -0.0017,0.0022 -0.06092,0.09148 -0.0625,0.09375 -0.0016,0.0023 -0.06107,0.09139 -0.0625,0.09375 -0.0014,0.0024 -0.06123,0.0913 -0.0625,0.09375 -0.0013,0.0024 -0.06139,0.122473 -0.0625,0.125 -0.0011,0.0025 -0.03031,0.09116 -0.03125,0.09375 -9.43e-4,0.0026 -0.03048,0.12235 -0.03125,0.125 -7.72e-4,0.0026 -0.03065,0.09106 -0.03125,0.09375 -5.99e-4,0.0027 -0.03083,0.122273 -0.03125,0.125 -4.23e-4,0.0027 2.45e-4,0.122251 0,0.125 -2.45e-4,0.0027 -0.03118,0.09099 -0.03125,0.09375 -6.6e-5,0.0028 -1.13e-4,0.122242 0,0.125 0.08905,2.22648 -0.679664,4.429664 -2.375,6.125 -1.695336,1.695336 -3.89852,2.464054 -6.125,2.375 -0.0028,-1.13e-4 -0.122241,-6.6e-5 -0.125,0 -0.0028,6.6e-5 -0.091,0.03101 -0.09375,0.03125 -0.0027,2.45e-4 -0.122273,-4.23e-4 -0.125,0 -0.0027,4.23e-4 -0.122306,0.03065 -0.125,0.03125 -0.0027,5.99e-4 -0.0911,0.03048 -0.09375,0.03125 -0.0026,7.72e-4 -0.122406,0.03031 -0.125,0.03125 -0.0026,9.43e-4 -0.09122,0.03014 -0.09375,0.03125 -0.0025,0.0011 -0.12255,0.06123 -0.125,0.0625 -0.0024,0.0013 -0.09139,0.06107 -0.09375,0.0625 -0.0024,0.0014 -0.09148,0.06092 -0.09375,0.0625 -0.0023,0.0016 -0.09159,0.06078 -0.09375,0.0625 -0.0022,0.0017 -0.09171,0.06064 -0.09375,0.0625 -0.002,0.0019 -0.06058,0.09176 -0.0625,0.09375 -0.0019,0.002 -0.09197,0.09164 -0.09375,0.09375 -0.0018,0.0021 -0.06086,0.09153 -0.0625,0.09375 -0.0013,0.0017 -0.04457,0.03655 -0.0625,0.0625 -0.0054,0.0078 3.45e-4,0.03072 0,0.03125 C 13.872952,32.176814 11.980861,36.561962 11,41.25 c -0.0021,0.0098 0.0021,0.02141 0,0.03125 -0.0059,0.03115 -0.03093,0.09167 -0.03125,0.09375 -4.19e-4,0.0027 2.42e-4,0.122256 0,0.125 -2.42e-4,0.0027 6.3e-5,0.091 0,0.09375 -6.3e-5,0.0028 -1.15e-4,0.122247 0,0.125 1.15e-4,0.0028 -2.93e-4,0.122261 0,0.125 2.93e-4,0.0027 0.03078,0.09103 0.03125,0.09375 4.7e-4,0.0027 -6.45e-4,0.122322 0,0.125 6.45e-4,0.0027 0.03043,0.122369 0.03125,0.125 8.17e-4,0.0026 0.03026,0.09118 0.03125,0.09375 9.85e-4,0.0026 0.06135,0.09125 0.0625,0.09375 0.0012,0.0025 0.06119,0.122576 0.0625,0.125 0.0013,0.0024 0.02979,0.09142 0.03125,0.09375 0.0015,0.0023 0.09214,0.09152 0.09375,0.09375 0.0016,0.0022 0.06075,0.09163 0.0625,0.09375 0.0018,0.0021 0.06061,0.09174 0.0625,0.09375 0.0019,0.002 0.09174,0.06062 0.09375,0.0625 a 0.83025681,0.83025681 0 0 0 0,0.03125 c 1.646151,1.506276 2.65625,3.618858 2.65625,6.03125 0,2.412392 -1.010099,4.524974 -2.65625,6.03125 a 0.83025681,0.83025681 0 0 0 0,0.03125 c -0.002,0.0019 -0.09186,0.06049 -0.09375,0.0625 -0.0019,0.002 -0.06075,0.09163 -0.0625,0.09375 -0.0018,0.0021 -0.06089,0.09152 -0.0625,0.09375 -0.0016,0.0022 -0.09229,0.09142 -0.09375,0.09375 -0.0015,0.0023 -0.02994,0.09133 -0.03125,0.09375 -0.0013,0.0024 -0.06135,0.122496 -0.0625,0.125 -0.0012,0.0025 -0.06151,0.09118 -0.0625,0.09375 -9.85e-4,0.0026 -0.03043,0.09112 -0.03125,0.09375 -8.17e-4,0.0026 -0.0306,0.122322 -0.03125,0.125 -6.45e-4,0.0027 4.7e-4,0.122285 0,0.125 -4.7e-4,0.0027 -0.03096,0.09101 -0.03125,0.09375 -2.93e-4,0.0027 1.15e-4,0.122247 0,0.125 -1.15e-4,0.0028 -6.3e-5,0.122246 0,0.125 6.3e-5,0.0028 -2.42e-4,0.09101 0,0.09375 2.42e-4,0.0027 -4.19e-4,0.122277 0,0.125 3.2e-4,0.0021 0.02538,0.0626 0.03125,0.09375 0.0021,0.0098 -0.0021,0.02141 0,0.03125 0.980861,4.688038 2.872952,9.073186 5.40625,12.9375 3.45e-4,5.35e-4 -0.0054,0.02346 0,0.03125 0.01793,0.02595 0.06123,0.06079 0.0625,0.0625 0.0016,0.0022 0.06072,0.09164 0.0625,0.09375 0.0018,0.0021 0.09183,0.09176 0.09375,0.09375 0.0019,0.002 0.06046,0.09189 0.0625,0.09375 0.002,0.0019 0.09159,0.06078 0.09375,0.0625 0.0022,0.0017 0.09148,0.06092 0.09375,0.0625 0.0023,0.0016 0.09139,0.06107 0.09375,0.0625 0.0024,0.0014 0.0913,0.06123 0.09375,0.0625 0.0024,0.0013 0.122473,0.06139 0.125,0.0625 0.0025,0.0011 0.09116,0.03031 0.09375,0.03125 0.0026,9.43e-4 0.12235,0.03048 0.125,0.03125 0.0026,7.72e-4 0.09106,0.03065 0.09375,0.03125 0.0027,5.99e-4 0.122273,0.03083 0.125,0.03125 0.0027,4.23e-4 0.122251,-2.45e-4 0.125,0 0.0027,2.45e-4 0.09099,0.03118 0.09375,0.03125 0.0028,6.6e-5 0.122242,1.13e-4 0.125,0 2.22648,-0.08905 4.429664,0.679664 6.125,2.375 1.695336,1.695336 2.464054,3.89852 2.375,6.125 -1.13e-4,0.0028 -6.6e-5,0.122241 0,0.125 6.6e-5,0.0028 0.03101,0.091 0.03125,0.09375 2.45e-4,0.0027 -4.23e-4,0.122273 0,0.125 4.23e-4,0.0027 0.03065,0.122306 0.03125,0.125 5.99e-4,0.0027 0.03048,0.0911 0.03125,0.09375 7.72e-4,0.0027 0.03031,0.122406 0.03125,0.125 9.43e-4,0.0026 0.03014,0.09122 0.03125,0.09375 0.0011,0.0025 0.06123,0.12255 0.0625,0.125 0.0013,0.0024 0.06107,0.09139 0.0625,0.09375 0.0014,0.0024 0.06092,0.09149 0.0625,0.09375 0.0016,0.0023 0.06078,0.09159 0.0625,0.09375 0.0017,0.0022 0.06064,0.09171 0.0625,0.09375 0.0019,0.002 0.09176,0.06058 0.09375,0.0625 0.002,0.0019 0.09164,0.09197 0.09375,0.09375 0.0021,0.0018 0.09153,0.06086 0.09375,0.0625 0.0017,0.0013 0.03655,0.04457 0.0625,0.0625 0.0078,0.0054 0.03072,-3.45e-4 0.03125,0 3.864314,2.533298 8.249462,4.425389 12.9375,5.40625 0.0098,0.0021 0.02141,-0.0021 0.03125,0 0.03115,0.0059 0.09167,0.03093 0.09375,0.03125 0.0027,4.19e-4 0.122256,-2.42e-4 0.125,0 0.0027,2.42e-4 0.091,-6.3e-5 0.09375,0 0.0028,6.3e-5 0.122247,1.15e-4 0.125,0 0.0028,-1.15e-4 0.122261,2.93e-4 0.125,0 0.0027,-2.93e-4 0.09103,-0.03078 0.09375,-0.03125 0.0027,-4.7e-4 0.122322,6.45e-4 0.125,0 0.0027,-6.45e-4 0.122369,-0.03043 0.125,-0.03125 0.0026,-8.17e-4 0.09118,-0.03026 0.09375,-0.03125 0.0026,-9.85e-4 0.09125,-0.06135 0.09375,-0.0625 0.0025,-0.0011 0.122576,-0.06119 0.125,-0.0625 0.0024,-0.0013 0.09142,-0.02979 0.09375,-0.03125 0.0023,-0.0015 0.09152,-0.09214 0.09375,-0.09375 0.0022,-0.0016 0.09163,-0.06075 0.09375,-0.0625 0.0021,-0.0018 0.09174,-0.06061 0.09375,-0.0625 0.002,-0.0019 0.06062,-0.09174 0.0625,-0.09375 a 0.83025681,0.83025681 0 0 0 0.03125,0 C 43.475026,83.822599 45.587608,82.8125 48,82.8125 c 2.412392,0 4.524974,1.010099 6.03125,2.65625 a 0.83025681,0.83025681 0 0 0 0.03125,0 c 0.0019,0.002 0.06049,0.09186 0.0625,0.09375 0.002,0.0019 0.09163,0.06075 0.09375,0.0625 0.0021,0.0018 0.09152,0.06089 0.09375,0.0625 0.0022,0.0016 0.09142,0.09229 0.09375,0.09375 0.0023,0.0015 0.09133,0.02994 0.09375,0.03125 0.0024,0.0013 0.122496,0.06135 0.125,0.0625 0.0025,0.0011 0.09118,0.06151 0.09375,0.0625 0.0026,9.85e-4 0.09112,0.03043 0.09375,0.03125 0.0026,8.17e-4 0.122322,0.0306 0.125,0.03125 0.0027,6.45e-4 0.122285,-4.7e-4 0.125,0 0.0027,4.7e-4 0.09101,0.03096 0.09375,0.03125 0.0027,2.93e-4 0.122247,-1.15e-4 0.125,0 0.0028,1.15e-4 0.122246,6.3e-5 0.125,0 0.0028,-6.3e-5 0.09101,2.42e-4 0.09375,0 0.0027,-2.42e-4 0.122277,4.19e-4 0.125,0 0.0021,-3.2e-4 0.0626,-0.02538 0.09375,-0.03125 0.0099,-0.0021 0.02138,0.0021 0.03125,0 4.670756,-0.977222 9.049293,-2.853121 12.90625,-5.375 5.35e-4,-3.45e-4 0.02346,0.0054 0.03125,0 0.02595,-0.01793 0.06079,-0.06123 0.0625,-0.0625 0.0022,-0.0016 0.09164,-0.06072 0.09375,-0.0625 0.0021,-0.0018 0.09176,-0.09183 0.09375,-0.09375 0.002,-0.0019 0.09189,-0.06046 0.09375,-0.0625 0.0019,-0.002 0.06078,-0.09159 0.0625,-0.09375 0.0017,-0.0022 0.06092,-0.09149 0.0625,-0.09375 0.0016,-0.0023 0.06107,-0.09139 0.0625,-0.09375 0.0014,-0.0024 0.06123,-0.0913 0.0625,-0.09375 0.0013,-0.0024 0.06139,-0.122473 0.0625,-0.125 0.0011,-0.0025 0.03031,-0.09116 0.03125,-0.09375 9.43e-4,-0.0026 0.03048,-0.12235 0.03125,-0.125 7.72e-4,-0.0027 0.03065,-0.09106 0.03125,-0.09375 5.99e-4,-0.0027 0.03083,-0.122273 0.03125,-0.125 4.23e-4,-0.0027 -2.45e-4,-0.122251 0,-0.125 2.45e-4,-0.0027 0.03118,-0.09099 0.03125,-0.09375 6.6e-5,-0.0028 1.13e-4,-0.122242 0,-0.125 -0.001,-0.0238 0,-0.190476 0,-0.375 0,-2.101906 0.789836,-4.164836 2.40625,-5.78125 1.695336,-1.695336 3.89852,-2.464054 6.125,-2.375 0.0028,1.13e-4 0.122241,6.6e-5 0.125,0 0.0028,-6.6e-5 0.091,-0.031 0.09375,-0.03125 0.0027,-2.45e-4 0.122273,4.23e-4 0.125,0 0.0027,-4.23e-4 0.122306,-0.03065 0.125,-0.03125 0.0027,-5.99e-4 0.0911,-0.03048 0.09375,-0.03125 0.0027,-7.72e-4 0.122406,-0.03031 0.125,-0.03125 0.0026,-9.43e-4 0.09122,-0.03014 0.09375,-0.03125 0.0025,-0.0011 0.12255,-0.06123 0.125,-0.0625 0.0024,-0.0013 0.09139,-0.06107 0.09375,-0.0625 0.0024,-0.0014 0.09149,-0.06092 0.09375,-0.0625 0.0023,-0.0016 0.09159,-0.06078 0.09375,-0.0625 0.0022,-0.0017 0.09171,-0.06064 0.09375,-0.0625 0.002,-0.0019 0.06058,-0.09176 0.0625,-0.09375 0.0019,-0.002 0.09197,-0.09164 0.09375,-0.09375 0.0018,-0.0021 0.06086,-0.09153 0.0625,-0.09375 0.0013,-0.0017 0.04457,-0.03655 0.0625,-0.0625 0.0054,-0.0078 -3.45e-4,-0.03072 0,-0.03125 C 82.127048,65.823186 84.019139,61.438038 85,56.75 c 0.0021,-0.0098 -0.0021,-0.02141 0,-0.03125 0.0059,-0.03115 0.03093,-0.09167 0.03125,-0.09375 4.19e-4,-0.0027 -2.42e-4,-0.122256 0,-0.125 2.42e-4,-0.0027 -6.3e-5,-0.091 0,-0.09375 6.3e-5,-0.0028 1.15e-4,-0.122247 0,-0.125 -1.15e-4,-0.0028 2.93e-4,-0.122261 0,-0.125 C 85.030957,56.15355 85.00047,56.06522 85,56.0625 c -4.7e-4,-0.0027 6.45e-4,-0.122322 0,-0.125 -6.45e-4,-0.0027 -0.03043,-0.122369 -0.03125,-0.125 C 84.967933,55.8099 84.93849,55.72132 84.9375,55.71875 84.936515,55.71615 84.87615,55.6275 84.875,55.625 84.8739,55.6225 84.81381,55.502424 84.8125,55.5 84.8112,55.4976 84.78271,55.40858 84.78125,55.40625 84.77975,55.40395 84.68911,55.31473 84.6875,55.3125 84.6859,55.3103 84.62675,55.22087 84.625,55.21875 84.6232,55.21665 84.56439,55.12701 84.5625,55.125 84.5606,55.123 84.47076,55.06438 84.46875,55.0625 a 0.83025681,0.83025681 0 0 0 0,-0.03125 C 82.822599,53.524974 81.8125,51.412392 81.8125,49 c 0,-2.412392 1.010099,-4.524974 2.65625,-6.03125 a 0.83025681,0.83025681 0 0 0 0,-0.03125 c 0.002,-0.0019 0.09186,-0.06049 0.09375,-0.0625 0.0019,-0.002 0.06075,-0.09163 0.0625,-0.09375 0.0018,-0.0021 0.06089,-0.09152 0.0625,-0.09375 0.0016,-0.0022 0.09229,-0.09142 0.09375,-0.09375 0.0015,-0.0023 0.02994,-0.09133 0.03125,-0.09375 0.0013,-0.0024 0.06135,-0.122496 0.0625,-0.125 0.0011,-0.0025 0.06151,-0.09118 0.0625,-0.09375 9.85e-4,-0.0026 0.03043,-0.09112 0.03125,-0.09375 8.17e-4,-0.0026 0.0306,-0.122322 0.03125,-0.125 6.45e-4,-0.0027 -4.7e-4,-0.122285 0,-0.125 4.7e-4,-0.0027 0.03096,-0.09101 0.03125,-0.09375 2.93e-4,-0.0027 -1.15e-4,-0.122247 0,-0.125 1.15e-4,-0.0028 6.3e-5,-0.122246 0,-0.125 -6.3e-5,-0.0028 2.42e-4,-0.09101 0,-0.09375 -2.42e-4,-0.0027 4.19e-4,-0.122277 0,-0.125 C 85.03093,41.3729 85.00587,41.3124 85,41.28125 84.9979,41.27145 85.0021,41.25984 85,41.25 84.019139,36.561962 82.127048,32.176814 79.59375,28.3125 c -3.45e-4,-5.35e-4 0.0054,-0.02346 0,-0.03125 -0.01793,-0.02595 -0.06123,-0.06079 -0.0625,-0.0625 -0.0016,-0.0022 -0.06072,-0.09164 -0.0625,-0.09375 C 79.46695,28.1229 79.37692,28.03324 79.375,28.03125 79.3731,28.02925 79.31454,27.93936 79.3125,27.9375 79.3105,27.9356 79.22091,27.87672 79.21875,27.875 79.21655,27.8733 79.12726,27.81408 79.125,27.8125 79.1227,27.8109 79.03361,27.75143 79.03125,27.75 79.02885,27.7486 78.93995,27.68877 78.9375,27.6875 78.9351,27.6862 78.815027,27.62611 78.8125,27.625 78.81,27.6239 78.72134,27.59469 78.71875,27.59375 78.71615,27.592807 78.5964,27.56327 78.59375,27.5625 78.59105,27.561728 78.50269,27.53185 78.5,27.53125 78.4973,27.530651 78.377727,27.50042 78.375,27.5 c -0.0027,-4.23e-4 -0.122251,2.45e-4 -0.125,0 -0.0027,-2.45e-4 -0.09099,-0.03118 -0.09375,-0.03125 -0.0028,-6.6e-5 -0.122242,-1.13e-4 -0.125,0 -2.22648,0.08905 -4.429664,-0.679664 -6.125,-2.375 C 70.289836,23.477336 69.5,21.414406 69.5,19.3125 c 0,-0.184524 -0.001,-0.351205 0,-0.375 1.13e-4,-0.0028 6.6e-5,-0.122241 0,-0.125 -6.6e-5,-0.0028 -0.031,-0.091 -0.03125,-0.09375 -2.45e-4,-0.0027 4.23e-4,-0.122273 0,-0.125 -4.23e-4,-0.0027 -0.03065,-0.122306 -0.03125,-0.125 -5.99e-4,-0.0027 -0.03048,-0.0911 -0.03125,-0.09375 -7.72e-4,-0.0026 -0.03031,-0.122406 -0.03125,-0.125 -9.43e-4,-0.0026 -0.03014,-0.09122 -0.03125,-0.09375 -0.0011,-0.0025 -0.06123,-0.12255 -0.0625,-0.125 -0.0013,-0.0024 -0.06107,-0.09139 -0.0625,-0.09375 -0.0014,-0.0024 -0.06092,-0.09148 -0.0625,-0.09375 -0.0016,-0.0023 -0.06078,-0.09159 -0.0625,-0.09375 -0.0017,-0.0022 -0.06064,-0.09171 -0.0625,-0.09375 -0.0019,-0.002 -0.09176,-0.06058 -0.09375,-0.0625 C 68.9355,17.59185 68.84586,17.50178 68.84375,17.5 68.84165,17.4982 68.75222,17.43914 68.75,17.4375 68.7483,17.4362 68.71345,17.39293 68.6875,17.375 68.6799,17.37 68.66388,17.38 68.65625,17.375 64.799293,14.853121 60.420756,12.977222 55.75,12 c -6.33e-4,-1.4e-4 -0.02166,0.0018 -0.03125,0 -0.03115,-0.0059 -0.09167,-0.03093 -0.09375,-0.03125 -0.0027,-4.19e-4 -0.122256,2.42e-4 -0.125,0 -0.0027,-2.42e-4 -0.091,6.3e-5 -0.09375,0 -0.0028,-6.3e-5 -0.122247,-1.15e-4 -0.125,0 -0.0028,1.15e-4 -0.122261,-2.93e-4 -0.125,0 -0.0027,2.93e-4 -0.09103,0.03078 -0.09375,0.03125 -0.0027,4.7e-4 -0.122322,-6.45e-4 -0.125,0 -0.0027,6.45e-4 -0.122369,0.03043 -0.125,0.03125 -0.0026,8.17e-4 -0.09118,0.03026 -0.09375,0.03125 -0.0026,9.85e-4 -0.09125,0.06135 -0.09375,0.0625 -0.0025,0.0012 -0.122576,0.06119 -0.125,0.0625 -0.0024,0.0013 -0.09142,0.02979 -0.09375,0.03125 -0.0023,0.0015 -0.09152,0.09214 -0.09375,0.09375 -0.0022,0.0016 -0.09163,0.06075 -0.09375,0.0625 -0.0021,0.0018 -0.09174,0.06061 -0.09375,0.0625 -0.002,0.0019 -0.06062,0.09174 -0.0625,0.09375 a 0.83025681,0.83025681 0 0 0 -0.03125,0 C 52.524974,14.177401 50.412392,15.1875 48,15.1875 c -2.412392,0 -4.524974,-1.010099 -6.03125,-2.65625 -0.0016,-0.0018 -0.09203,-0.0608 -0.09375,-0.0625 -0.0017,-0.0017 -0.06068,-0.0609 -0.0625,-0.0625 -0.0018,-0.0016 -0.0606,-0.06101 -0.0625,-0.0625 -0.0019,-0.0015 -0.09177,-0.06112 -0.09375,-0.0625 -0.002,-0.0014 -0.09169,-0.06123 -0.09375,-0.0625 -0.0021,-0.0013 -0.09162,-0.06135 -0.09375,-0.0625 -0.0021,-0.0011 -0.06031,-0.03023 -0.0625,-0.03125 -0.0022,-10e-4 -0.0915,-0.0616 -0.09375,-0.0625 -0.0022,-8.98e-4 -0.122708,-0.03048 -0.125,-0.03125 C 41.1852,12.030481 41.09608,12.00064 41.09375,12 41.09145,11.999363 41.00236,12.000504 41,12 c -0.0024,-5.04e-4 -0.09136,-0.03088 -0.09375,-0.03125 -0.0024,-3.69e-4 -0.09134,2.32e-4 -0.09375,0 -0.0024,-2.32e-4 -0.09133,-0.03116 -0.09375,-0.03125 -0.0024,-9.5e-5 -0.122583,-4.2e-5 -0.125,0 z M 48,42.8125 c 3.456552,0 6.1875,2.730948 6.1875,6.1875 0,3.456552 -2.730948,6.1875 -6.1875,6.1875 -3.456552,0 -6.1875,-2.730948 -6.1875,-6.1875 0,-3.456552 2.730948,-6.1875 6.1875,-6.1875 z"
         id="path3748"
         style="opacity:0.1;color:#000000;fill:#000000;fill-opacity:1;fill-rule:nonzero;stroke:none;stroke-width:1;marker:none;visibility:visible;display:inline;overflow:visible;enable-background:accumulate" />
      <path
         inkscape:connector-curvature="0"
         d="m 40.5625,12.78125 a 0.95775024,0.95775024 0 0 0 -0.125,0.03125 c -4.602795,0.959109 -8.893462,2.790136 -12.6875,5.28125 a 0.95775024,0.95775024 0 0 0 -0.4375,0.84375 c 0.09772,2.443134 -0.763174,4.888174 -2.625,6.75 -1.861826,1.861826 -4.306866,2.72272 -6.75,2.625 A 0.95775024,0.95775024 0 0 0 17.09375,28.75 c -2.491114,3.794038 -4.322141,8.084705 -5.28125,12.6875 a 0.95775024,0.95775024 0 0 0 0.28125,0.90625 c 1.808369,1.654711 2.9375,4.007894 2.9375,6.65625 0,2.648356 -1.129131,5.001539 -2.9375,6.65625 A 0.95775024,0.95775024 0 0 0 11.8125,56.5625 c 0.959109,4.602795 2.790136,8.893462 5.28125,12.6875 a 0.95775024,0.95775024 0 0 0 0.84375,0.4375 c 2.443134,-0.09772 4.888174,0.763174 6.75,2.625 1.861826,1.861826 2.72272,4.306866 2.625,6.75 a 0.95775024,0.95775024 0 0 0 0.4375,0.84375 c 3.794038,2.491114 8.084705,4.322141 12.6875,5.28125 a 0.95775024,0.95775024 0 0 0 0.90625,-0.28125 c 1.654711,-1.808369 4.007894,-2.9375 6.65625,-2.9375 2.648356,0 5.001539,1.129131 6.65625,2.9375 a 0.95775024,0.95775024 0 0 0 0.90625,0.28125 c 4.586765,-0.955769 8.87028,-2.770634 12.65625,-5.25 a 0.95775024,0.95775024 0 0 0 0.4375,-0.84375 c -0.0038,-0.08792 0,-0.234059 0,-0.40625 0,-2.31353 0.884631,-4.603381 2.65625,-6.375 1.861826,-1.861826 4.306866,-2.72272 6.75,-2.625 A 0.95775024,0.95775024 0 0 0 78.90625,69.25 c 2.491114,-3.794038 4.322141,-8.084705 5.28125,-12.6875 A 0.95775024,0.95775024 0 0 0 83.90625,55.65625 C 82.097881,54.001539 80.96875,51.648356 80.96875,49 c 0,-2.648356 1.129131,-5.001539 2.9375,-6.65625 A 0.95775024,0.95775024 0 0 0 84.1875,41.4375 C 83.228391,36.834705 81.397364,32.544038 78.90625,28.75 A 0.95775024,0.95775024 0 0 0 78.0625,28.3125 c -2.443134,0.09772 -4.888174,-0.763174 -6.75,-2.625 -1.771619,-1.771619 -2.65625,-4.06147 -2.65625,-6.375 0,-0.172191 -0.0038,-0.318333 0,-0.40625 a 0.95775024,0.95775024 0 0 0 -0.4375,-0.84375 c -3.78597,-2.479366 -8.069485,-4.294231 -12.65625,-5.25 a 0.95775024,0.95775024 0 0 0 -0.90625,0.28125 c -1.654711,1.808369 -4.007894,2.9375 -6.65625,2.9375 -2.648356,0 -5.001539,-1.129131 -6.65625,-2.9375 A 0.95775024,0.95775024 0 0 0 40.5625,12.78125 z M 48,41.96875 c 3.900723,0 7.03125,3.130527 7.03125,7.03125 0,3.900723 -3.130527,7.03125 -7.03125,7.03125 -3.900723,0 -7.03125,-3.130527 -7.03125,-7.03125 0,-3.900723 3.130527,-7.03125 7.03125,-7.03125 z"
         id="path3744"
         style="opacity:0.15;color:#000000;fill:#000000;fill-opacity:1;fill-rule:nonzero;stroke:none;stroke-width:1;marker:none;visibility:visible;display:inline;overflow:visible;enable-background:accumulate" />
      <path
         d="m 40.625,13.75 c -4.47894,0.933301 -8.644572,2.72742 -12.34375,5.15625 0.107811,2.695429 -0.851192,5.413692 -2.90625,7.46875 -2.055058,2.055058 -4.773321,3.014061 -7.46875,2.90625 C 15.47742,32.980428 13.683301,37.14606 12.75,41.625 14.748159,43.453374 16,46.078115 16,49 c 0,2.921885 -1.251841,5.546626 -3.25,7.375 0.933301,4.47894 2.72742,8.644572 5.15625,12.34375 2.695429,-0.107811 5.413692,0.851192 7.46875,2.90625 2.055058,2.055058 3.014061,4.773321 2.90625,7.46875 C 31.980428,81.52258 36.14606,83.316699 40.625,84.25 42.453374,82.251841 45.078115,81 48,81 c 2.921885,0 5.546626,1.251841 7.375,3.25 4.464448,-0.930281 8.622233,-2.708308 12.3125,-5.125 -0.0063,-0.144349 0,-0.293178 0,-0.4375 0,-2.559223 0.984879,-5.109879 2.9375,-7.0625 2.055058,-2.055058 4.773321,-3.014061 7.46875,-2.90625 C 80.52258,65.019572 82.316699,60.85394 83.25,56.375 81.251841,54.546626 80,51.921885 80,49 80,46.078115 81.251841,43.453374 83.25,41.625 82.316699,37.14606 80.52258,32.980428 78.09375,29.28125 75.398321,29.389061 72.680058,28.430058 70.625,26.375 c -1.952621,-1.952621 -2.9375,-4.503277 -2.9375,-7.0625 0,-0.144322 -0.0063,-0.293151 0,-0.4375 C 63.997233,16.458308 59.839448,14.680281 55.375,13.75 53.546626,15.748159 50.921885,17 48,17 45.078115,17 42.453374,15.748159 40.625,13.75 z M 48,41 c 4.418278,0 8,3.581722 8,8 0,4.418278 -3.581722,8 -8,8 -4.418278,0 -8,-3.581722 -8,-8 0,-4.418278 3.581722,-8 8,-8 z"
         inkscape:connector-curvature="0"
         id="path3738"
         style="opacity:0.3;color:#000000;fill:#000000;fill-opacity:1;fill-rule:nonzero;stroke:none;stroke-width:1;marker:none;visibility:visible;display:inline;overflow:visible;enable-background:accumulate" />
      <path
         d="m 40.625,12.75 c -4.47894,0.933301 -8.644572,2.72742 -12.34375,5.15625 0.107811,2.695429 -0.851192,5.413692 -2.90625,7.46875 -2.055058,2.055058 -4.773321,3.014061 -7.46875,2.90625 C 15.47742,31.980428 13.683301,36.14606 12.75,40.625 14.748159,42.453374 16,45.078115 16,48 c 0,2.921885 -1.251841,5.546626 -3.25,7.375 0.933301,4.47894 2.72742,8.644572 5.15625,12.34375 2.695429,-0.107811 5.413692,0.851192 7.46875,2.90625 2.055058,2.055058 3.014061,4.773321 2.90625,7.46875 C 31.980428,80.52258 36.14606,82.316699 40.625,83.25 42.453374,81.251841 45.078115,80 48,80 c 2.921885,0 5.546626,1.251841 7.375,3.25 4.464448,-0.930281 8.622233,-2.708308 12.3125,-5.125 -0.0063,-0.144349 0,-0.293178 0,-0.4375 0,-2.559223 0.984879,-5.109879 2.9375,-7.0625 2.055058,-2.055058 4.773321,-3.014061 7.46875,-2.90625 C 80.52258,64.019572 82.316699,59.85394 83.25,55.375 81.251841,53.546626 80,50.921885 80,48 80,45.078115 81.251841,42.453374 83.25,40.625 82.316699,36.14606 80.52258,31.980428 78.09375,28.28125 75.398321,28.389061 72.680058,27.430058 70.625,25.375 c -1.952621,-1.952621 -2.9375,-4.503277 -2.9375,-7.0625 0,-0.144322 -0.0063,-0.293151 0,-0.4375 C 63.997233,15.458308 59.839448,13.680281 55.375,12.75 53.546626,14.748159 50.921885,16 48,16 45.078115,16 42.453374,14.748159 40.625,12.75 z M 48,40 c 4.418278,0 8,3.581722 8,8 0,4.418278 -3.581722,8 -8,8 -4.418278,0 -8,-3.581722 -8,-8 0,-4.418278 3.581722,-8 8,-8 z"
         inkscape:connector-curvature="0"
         id="path3683"
         style="color:#000000;fill:url(#linearGradient3910);fill-opacity:1;fill-rule:nonzero;stroke:none;stroke-width:1;marker:none;visibility:visible;display:inline;overflow:visible;enable-background:accumulate" />
      <path
         d="m 40.625,12.75 c -4.47894,0.933301 -8.644572,2.72742 -12.34375,5.15625 0.107811,2.695429 -0.851192,5.413692 -2.90625,7.46875 -2.055058,2.055058 -4.773321,3.014061 -7.46875,2.90625 C 15.47742,31.980428 13.683301,36.14606 12.75,40.625 14.748159,42.453374 16,45.078115 16,48 c 0,2.921885 -1.251841,5.546626 -3.25,7.375 0.933301,4.47894 2.72742,8.644572 5.15625,12.34375 2.695429,-0.107811 5.413692,0.851192 7.46875,2.90625 2.055058,2.055058 3.014061,4.773321 2.90625,7.46875 C 31.980428,80.52258 36.14606,82.316699 40.625,83.25 42.453374,81.251841 45.078115,80 48,80 c 2.921885,0 5.546626,1.251841 7.375,3.25 4.464448,-0.930281 8.622233,-2.708308 12.3125,-5.125 -0.0063,-0.144349 0,-0.293178 0,-0.4375 0,-2.559223 0.984879,-5.109879 2.9375,-7.0625 2.055058,-2.055058 4.773321,-3.014061 7.46875,-2.90625 C 80.52258,64.019572 82.316699,59.85394 83.25,55.375 81.251841,53.546626 80,50.921885 80,48 80,45.078115 81.251841,42.453374 83.25,40.625 82.316699,36.14606 80.52258,31.980428 78.09375,28.28125 75.398321,28.389061 72.680058,27.430058 70.625,25.375 c -1.952621,-1.952621 -2.9375,-4.503277 -2.9375,-7.0625 0,-0.144322 -0.0063,-0.293151 0,-0.4375 C 63.997233,15.458308 59.839448,13.680281 55.375,12.75 53.546626,14.748159 50.921885,16 48,16 45.078115,16 42.453374,14.748159 40.625,12.75 z M 48,40 c 4.418278,0 8,3.581722 8,8 0,4.418278 -3.581722,8 -8,8 -4.418278,0 -8,-3.581722 -8,-8 0,-4.418278 3.581722,-8 8,-8 z"
         inkscape:connector-curvature="0"
         id="path3765"
         style="color:#000000;fill:url(#radialGradient3912);fill-opacity:1;fill-rule:nonzero;stroke:none;stroke-width:1;marker:none;visibility:visible;display:inline;overflow:visible;enable-background:accumulate" />
      <path
         d="m 58.193287,25.127183 c -2.625083,0 -4.750691,2.137213 -4.750691,4.771917 0,2.634704 2.125608,4.771918 4.750691,4.771918 2.625083,0 4.750691,-2.137214 4.750691,-4.771918 0,-2.634704 -2.125608,-4.771917 -4.750691,-4.771917 z M 48.16036,28.864629 c -2.929768,3.82e-4 -5.900152,0.74311 -8.571177,2.068943 -0.09498,0.04732 -0.154222,0.13131 -0.182719,0.233591 -0.02887,0.10228 -0.023,0.210262 0.03323,0.30033 l 3.853706,6.123406 c 0.09764,0.15571 0.296027,0.221533 0.465103,0.150164 1.42632,-0.605668 2.906393,-0.90099 4.401864,-0.90099 5.500867,0 10.299983,4.094443 11.162462,9.527149 0.02887,0.182427 0.181923,0.317018 0.365437,0.317018 l 7.242313,0 c 0.105624,0 0.211333,-0.03817 0.282383,-0.116796 0.07105,-0.07862 0.109543,-0.177548 0.09967,-0.283647 -0.390586,-4.030926 -2.106215,-7.933715 -4.817134,-10.962062 -0.122342,-0.137392 -0.327075,-0.150427 -0.481715,-0.05006 -1.093106,0.709095 -2.333349,1.084527 -3.587932,1.084527 -3.660027,0 -6.627333,-2.986779 -6.627713,-6.640641 3.8e-4,-0.0019 0,-0.127373 0,-0.13348 0,-0.182044 -0.135889,-0.352461 -0.315604,-0.383756 -1.1444,-0.199219 -2.255273,-0.333701 -3.322162,-0.333701 z m -11.627565,4.004406 c -0.05015,0.01236 -0.108273,0.03449 -0.149496,0.06673 -3.141399,2.430312 -5.497265,5.84822 -6.644324,9.627262 -0.04483,0.147697 -0.0049,0.304267 0.116276,0.400441 1.578678,1.255992 2.524843,3.189335 2.524843,5.172358 0,1.983024 -0.945784,3.916367 -2.524843,5.172358 -0.120443,0.0958 -0.161109,0.252364 -0.116276,0.400442 1.13794,3.747366 3.475237,7.152238 6.57788,9.577205 0.08321,0.06526 0.178279,0.101747 0.282384,0.08342 0.103726,-0.01793 0.192549,-0.09461 0.249162,-0.183534 l 3.886928,-6.106721 c 0.09916,-0.156092 0.07224,-0.361358 -0.06645,-0.483866 -2.435079,-2.152092 -3.837098,-5.23785 -3.837098,-8.459309 0,-3.245504 1.409784,-6.339823 3.870319,-8.492678 0.138681,-0.121746 0.181459,-0.327012 0.08305,-0.483867 l -3.853706,-6.123399 c -0.05623,-0.08931 -0.145437,-0.148532 -0.249163,-0.166851 -0.05186,-0.0092 -0.09934,-0.01236 -0.149496,0 z M 25.818826,43.347233 c -2.686566,0 -4.866967,2.192041 -4.866967,4.888714 0,2.696671 2.180401,4.872026 4.866967,4.872026 2.686563,0 4.866966,-2.175355 4.866966,-4.872026 0,-2.696673 -2.180403,-4.888714 -4.866966,-4.888714 z m 41.111746,6.306939 -7.242312,0.01669 c -0.182753,3.82e-4 -0.352793,0.136116 -0.382049,0.317015 -0.874257,5.392253 -5.660182,9.460413 -11.145851,9.460413 -1.512949,0 -3.009419,-0.313809 -4.451696,-0.934362 -0.168697,-0.07213 -0.365937,-0.02108 -0.465102,0.133479 l -3.886929,6.123405 c -0.05661,0.08969 -0.06133,0.197669 -0.03323,0.30033 0.0281,0.102282 0.08811,0.186267 0.182718,0.233592 2.691922,1.353692 5.690648,2.068942 8.654231,2.068942 1.099185,0 2.246759,-0.110545 3.405215,-0.317015 0.162618,-0.02862 0.279618,-0.152528 0.298995,-0.317015 0.386026,-3.348929 3.20558,-5.87313 6.561269,-5.87313 1.040294,0 2.110974,0.263741 3.072998,0.767511 0.14628,0.07671 0.315997,0.05195 0.431881,-0.06674 3.033875,-3.107729 4.951803,-7.205051 5.381901,-11.512669 0.01064,-0.105717 -0.02824,-0.204644 -0.09966,-0.283645 -0.07144,-0.079 -0.176759,-0.117177 -0.282383,-0.116797 z m -8.554566,12.897529 c -2.686565,0 -4.866966,2.172582 -4.866966,4.855343 0,2.682761 2.180401,4.855343 4.866966,4.855343 2.686566,0 4.866966,-2.172582 4.866966,-4.855343 0,-2.682761 -2.1804,-4.855343 -4.866966,-4.855343 z"
         inkscape:connector-curvature="0"
         id="path3324"
         style="fill:#000000;overflow:visible" />
      <path
         d="m 40.625,12.75 c -4.47894,0.933301 -8.644572,2.72742 -12.34375,5.15625 0.107811,2.695429 -0.851192,5.413692 -2.90625,7.46875 -2.055058,2.055058 -4.773321,3.014061 -7.46875,2.90625 C 15.47742,31.980428 13.683301,36.14606 12.75,40.625 14.748159,42.453374 16,45.078115 16,48 c 0,2.921885 -1.251841,5.546626 -3.25,7.375 0.933301,4.47894 2.72742,8.644572 5.15625,12.34375 2.695429,-0.107811 5.413692,0.851192 7.46875,2.90625 2.055058,2.055058 3.014061,4.773321 2.90625,7.46875 C 31.980428,80.52258 36.14606,82.316699 40.625,83.25 42.453374,81.251841 45.078115,80 48,80 c 2.921885,0 5.546626,1.251841 7.375,3.25 4.464448,-0.930281 8.622233,-2.708308 12.3125,-5.125 -0.0063,-0.144349 0,-0.293178 0,-0.4375 0,-2.559223 0.984879,-5.109879 2.9375,-7.0625 2.055058,-2.055058 4.773321,-3.014061 7.46875,-2.90625 C 80.52258,64.019572 82.316699,59.85394 83.25,55.375 81.251841,53.546626 80,50.921885 80,48 80,45.078115 81.251841,42.453374 83.25,40.625 82.316699,36.14606 80.52258,31.980428 78.09375,28.28125 75.398321,28.389061 72.680058,27.430058 70.625,25.375 c -1.952621,-1.952621 -2.9375,-4.503277 -2.9375,-7.0625 0,-0.144322 -0.0063,-0.293151 0,-0.4375 C 63.997233,15.458308 59.839448,13.680281 55.375,12.75 53.546626,14.748159 50.921885,16 48,16 45.078115,16 42.453374,14.748159 40.625,12.75 z m -0.15625,1.15625 c 1.978403,1.87706 4.593547,3.125 7.53125,3.125 2.937703,0 5.552847,-1.24794 7.53125,-3.125 4.020606,0.887442 7.782051,2.480073 11.15625,4.625 0.05544,2.75148 1.094541,5.500791 3.1875,7.59375 2.07834,2.07834 4.804992,2.992809 7.53125,3.0625 2.183669,3.404955 3.789691,7.215438 4.6875,11.28125 -1.87706,1.978403 -3.125,4.593547 -3.125,7.53125 0,2.937703 1.24794,5.552847 3.125,7.53125 -0.897809,4.065812 -2.503831,7.876295 -4.6875,11.28125 -2.726258,0.06969 -5.45291,0.98416 -7.53125,3.0625 -2.092959,2.092959 -3.132063,4.84227 -3.1875,7.59375 -3.374199,2.144927 -7.135644,3.737558 -11.15625,4.625 -1.978403,-1.87706 -4.593547,-3.125 -7.53125,-3.125 -2.937703,0 -5.552847,1.24794 -7.53125,3.125 -4.065812,-0.897809 -7.876295,-2.503831 -11.28125,-4.6875 -0.06969,-2.726258 -0.98416,-5.45291 -3.0625,-7.53125 -2.07834,-2.07834 -4.804992,-2.992809 -7.53125,-3.0625 -2.183669,-3.404955 -3.789691,-7.215438 -4.6875,-11.28125 1.87706,-1.978403 3.125,-4.593547 3.125,-7.53125 0,-2.937703 -1.24794,-5.552847 -3.125,-7.53125 0.897809,-4.065812 2.503831,-7.876295 4.6875,-11.28125 2.726258,-0.06969 5.45291,-0.98416 7.53125,-3.0625 2.07834,-2.07834 2.992809,-4.804992 3.0625,-7.53125 3.404955,-2.183669 7.215438,-3.789691 11.28125,-4.6875 z M 48,39 c -4.970563,0 -9,4.029437 -9,9 0,4.970563 4.029437,9 9,9 4.970563,0 9,-4.029437 9,-9 0,-4.970563 -4.029437,-9 -9,-9 z m 0,1 c 4.418278,0 8,3.581722 8,8 0,4.418278 -3.581722,8 -8,8 -4.418278,0 -8,-3.581722 -8,-8 0,-4.418278 3.581722,-8 8,-8 z"
         inkscape:connector-curvature="0"
         id="path3711"
         style="opacity:0.4;color:#000000;fill:#ffffff;fill-opacity:1;fill-rule:nonzero;stroke:none;stroke-width:1;marker:none;visibility:visible;display:inline;overflow:visible;enable-background:accumulate" />
    </g>
  </g>
</svg>
