<?xml version="1.0" encoding="UTF-8" standalone="no"?>
<!-- Created with Inkscape (http://www.inkscape.org/) -->

<svg
   xmlns:dc="http://purl.org/dc/elements/1.1/"
   xmlns:cc="http://creativecommons.org/ns#"
   xmlns:rdf="http://www.w3.org/1999/02/22-rdf-syntax-ns#"
   xmlns:svg="http://www.w3.org/2000/svg"
   xmlns="http://www.w3.org/2000/svg"
   xmlns:xlink="http://www.w3.org/1999/xlink"
   xmlns:sodipodi="http://sodipodi.sourceforge.net/DTD/sodipodi-0.dtd"
   xmlns:inkscape="http://www.inkscape.org/namespaces/inkscape"
   version="1.0"
   width="128"
   height="128"
   id="svg3367"
   inkscape:version="0.48.1 r9760"
   sodipodi:docname="media-optical.svg">
  <metadata
     id="metadata71">
    <rdf:RDF>
      <cc:Work
         rdf:about="">
        <dc:format>image/svg+xml</dc:format>
        <dc:type
           rdf:resource="http://purl.org/dc/dcmitype/StillImage" />
      </cc:Work>
    </rdf:RDF>
  </metadata>
  <sodipodi:namedview
     pagecolor="#ffffff"
     bordercolor="#666666"
     borderopacity="1"
     objecttolerance="10"
     gridtolerance="10"
     guidetolerance="10"
     inkscape:pageopacity="0"
     inkscape:pageshadow="2"
     inkscape:window-width="1354"
     inkscape:window-height="969"
     id="namedview69"
     showgrid="false"
     inkscape:zoom="6.1015625"
     inkscape:cx="64"
     inkscape:cy="64"
     inkscape:window-x="0"
     inkscape:window-y="24"
     inkscape:window-maximized="0"
     inkscape:current-layer="svg3367" />
  <defs
     id="defs3369">
    <linearGradient
       id="linearGradient23419">
      <stop
         id="stop23421"
         style="stop-color:#000000;stop-opacity:1"
         offset="0" />
      <stop
         id="stop23423"
         style="stop-color:#000000;stop-opacity:0"
         offset="1" />
    </linearGradient>
    <linearGradient
       id="linearGradient3772">
      <stop
         id="stop3774"
         style="stop-color:#b4b4b4;stop-opacity:1"
         offset="0" />
      <stop
         id="stop3776"
         style="stop-color:#969696;stop-opacity:1"
         offset="1" />
    </linearGradient>
    <linearGradient
       x1="12.2744"
       y1="32.4165"
       x2="35.391201"
       y2="14.2033"
       id="linearGradient3263"
       gradientUnits="userSpaceOnUse">
      <stop
         id="stop3265"
         style="stop-color:#dedbde;stop-opacity:1"
         offset="0" />
      <stop
         id="stop3267"
         style="stop-color:#e6e6e6;stop-opacity:1"
         offset="0.5" />
      <stop
         id="stop3269"
         style="stop-color:#d2d2d2;stop-opacity:1"
         offset="1" />
    </linearGradient>
    <linearGradient
       id="linearGradient3428">
      <stop
         id="stop3430"
         style="stop-color:#aaaaaa;stop-opacity:1"
         offset="0" />
      <stop
         id="stop3432"
         style="stop-color:#d4d4d4;stop-opacity:1"
         offset="1" />
    </linearGradient>
    <linearGradient
       id="linearGradient6036">
      <stop
         id="stop6038"
         style="stop-color:#ffffff;stop-opacity:1"
         offset="0" />
      <stop
         id="stop6040"
         style="stop-color:#ffffff;stop-opacity:0"
         offset="1" />
    </linearGradient>
    <linearGradient
       id="linearGradient3519">
      <stop
         id="stop3521"
         style="stop-color:#fcd9cd;stop-opacity:1"
         offset="0" />
      <stop
         id="stop3523"
         style="stop-color:#fcd9cd;stop-opacity:0"
         offset="1" />
    </linearGradient>
    <linearGradient
       id="linearGradient3511">
      <stop
         id="stop3513"
         style="stop-color:#ebeec7;stop-opacity:1"
         offset="0" />
      <stop
         id="stop3515"
         style="stop-color:#ebeec7;stop-opacity:0"
         offset="1" />
    </linearGradient>
    <linearGradient
       id="linearGradient3503">
      <stop
         id="stop3505"
         style="stop-color:#c4ebdd;stop-opacity:1"
         offset="0" />
      <stop
         id="stop3507"
         style="stop-color:#c4ebdd;stop-opacity:0"
         offset="1" />
    </linearGradient>
    <linearGradient
       id="linearGradient3495">
      <stop
         id="stop3497"
         style="stop-color:#c1cbe4;stop-opacity:1"
         offset="0" />
      <stop
         id="stop3499"
         style="stop-color:#c1cbe4;stop-opacity:0"
         offset="1" />
    </linearGradient>
    <linearGradient
       id="linearGradient3487">
      <stop
         id="stop3489"
         style="stop-color:#e6cde2;stop-opacity:1"
         offset="0" />
      <stop
         id="stop3491"
         style="stop-color:#e6cde2;stop-opacity:0"
         offset="1" />
    </linearGradient>
    <radialGradient
       cx="23.334524"
       cy="41.63604"
       r="22.627417"
       fx="23.334524"
       fy="41.63604"
       id="radialGradient2584"
       xlink:href="#linearGradient23419"
       gradientUnits="userSpaceOnUse"
       gradientTransform="matrix(2.6516504,0,0,0.7954211,2.1249955,72.881817)" />
    <linearGradient
       x1="10.50172"
       y1="3.6100161"
       x2="48.798885"
       y2="54.698483"
       id="linearGradient2642"
       xlink:href="#linearGradient6036"
       gradientUnits="userSpaceOnUse"
       gradientTransform="matrix(2.7528548,0,0,2.7528545,-3.0237572,-4.8213527)" />
    <linearGradient
       x1="18.775953"
       y1="4.0378027"
       x2="18.203465"
       y2="45.962208"
       id="linearGradient2651"
       xlink:href="#linearGradient6036"
       gradientUnits="userSpaceOnUse"
       gradientTransform="matrix(1.0859888,0,0,1.0859883,37.559418,36.850296)" />
    <linearGradient
       x1="21.448364"
       y1="15.5"
       x2="21.448364"
       y2="32.509201"
       id="linearGradient2654"
       xlink:href="#linearGradient3428"
       gradientUnits="userSpaceOnUse"
       gradientTransform="matrix(2.5381093,0,0,2.5381093,3.0853666,3.0853861)" />
    <linearGradient
       x1="12.2744"
       y1="32.4165"
       x2="35.391201"
       y2="14.2033"
       id="linearGradient2658"
       xlink:href="#linearGradient3263"
       gradientUnits="userSpaceOnUse"
       gradientTransform="matrix(0,3.1714559,-3.1714559,0,137.26064,-12.114951)" />
    <linearGradient
       x1="-21.915663"
       y1="3"
       x2="-21.915663"
       y2="45.032898"
       id="linearGradient2660"
       xlink:href="#linearGradient3772"
       gradientUnits="userSpaceOnUse"
       gradientTransform="matrix(2.7073165,0,0,2.7073165,135.10782,-0.9755887)" />
    <linearGradient
       x1="20.580074"
       y1="10.774516"
       x2="24.27351"
       y2="9.8622112"
       id="linearGradient2672"
       xlink:href="#linearGradient3487"
       gradientUnits="userSpaceOnUse"
       spreadMethod="reflect" />
    <linearGradient
       x1="17.494959"
       y1="11.200086"
       x2="21.047453"
       y2="9.7956104"
       id="linearGradient2674"
       xlink:href="#linearGradient3495"
       gradientUnits="userSpaceOnUse"
       spreadMethod="reflect" />
    <linearGradient
       x1="14.084608"
       y1="13.045606"
       x2="16.994024"
       y2="10.732353"
       id="linearGradient2676"
       xlink:href="#linearGradient3503"
       gradientUnits="userSpaceOnUse"
       spreadMethod="reflect" />
    <linearGradient
       x1="12.371647"
       y1="16.188046"
       x2="14.609327"
       y2="13.461712"
       id="linearGradient2678"
       xlink:href="#linearGradient3511"
       gradientUnits="userSpaceOnUse"
       spreadMethod="reflect" />
    <linearGradient
       x1="10.609375"
       y1="17.886322"
       x2="9.7297754"
       y2="20.612656"
       id="linearGradient2680"
       xlink:href="#linearGradient3519"
       gradientUnits="userSpaceOnUse"
       spreadMethod="reflect" />
    <linearGradient
       x1="20.580074"
       y1="10.774516"
       x2="24.27351"
       y2="9.8622112"
       id="linearGradient2682"
       xlink:href="#linearGradient3487"
       gradientUnits="userSpaceOnUse"
       spreadMethod="reflect" />
    <linearGradient
       x1="17.494959"
       y1="11.200086"
       x2="21.047453"
       y2="9.7956104"
       id="linearGradient2684"
       xlink:href="#linearGradient3495"
       gradientUnits="userSpaceOnUse"
       spreadMethod="reflect" />
    <linearGradient
       x1="14.084608"
       y1="13.045606"
       x2="16.994024"
       y2="10.732353"
       id="linearGradient2686"
       xlink:href="#linearGradient3503"
       gradientUnits="userSpaceOnUse"
       spreadMethod="reflect" />
    <linearGradient
       x1="12.371647"
       y1="16.188046"
       x2="14.609327"
       y2="13.461712"
       id="linearGradient2688"
       xlink:href="#linearGradient3511"
       gradientUnits="userSpaceOnUse"
       spreadMethod="reflect" />
    <linearGradient
       x1="10.609375"
       y1="17.886322"
       x2="9.7297754"
       y2="20.612656"
       id="linearGradient2690"
       xlink:href="#linearGradient3519"
       gradientUnits="userSpaceOnUse"
       spreadMethod="reflect" />
    <radialGradient
       inkscape:collect="always"
       xlink:href="#linearGradient3938"
       id="radialGradient4755"
       gradientUnits="userSpaceOnUse"
       gradientTransform="matrix(3.0928859,0,0,3.0927056,148.30739,121.82401)"
       cx="42.864628"
       cy="47.295021"
       fx="42.864628"
       fy="47.295021"
       r="36.000004" />
    <linearGradient
       id="linearGradient3938">
      <stop
         style="stop-color:#ffffff;stop-opacity:0;"
         offset="0"
         id="stop3940" />
      <stop
         id="stop3915"
         offset="0.32766014"
         style="stop-color:#ffffff;stop-opacity:0.27599999;" />
      <stop
         style="stop-color:#ffffff;stop-opacity:0.92799997;"
         offset="1"
         id="stop3942" />
    </linearGradient>
    <clipPath
       id="clipPath4187">
      <path
         d="m 48,102 c -19.88225,0 -36,16.11775 -36,36 0,19.88225 16.11775,36 36,36 19.88225,0 36,-16.11775 36,-36 0,-19.88225 -16.11775,-36 -36,-36 z m 0,24 c 6.62742,0 12,5.37258 12,12 0,6.62742 -5.37258,12 -12,12 -6.62742,0 -12,-5.37258 -12,-12 0,-6.62742 5.37258,-12 12,-12 z"
         inkscape:connector-curvature="0"
         id="path4189"
         style="fill:#bbb1bf;fill-opacity:1;stroke:none" />
    </clipPath>
    <filter
       x="-0.18000001"
       y="-0.18000001"
       width="1.36"
       height="1.36"
       color-interpolation-filters="sRGB"
       id="filter4195">
      <feGaussianBlur
         id="feGaussianBlur4197"
         stdDeviation="5.2159999" />
    </filter>
    <radialGradient
       r="36.000004"
       fy="47.295021"
       fx="42.864628"
       cy="47.295021"
       cx="42.864628"
       gradientTransform="matrix(2.6071098,0,0,2.6069579,159.04952,134.33532)"
       gradientUnits="userSpaceOnUse"
       id="radialGradient3971"
       xlink:href="#linearGradient3938"
       inkscape:collect="always" />
  </defs>
  <path
     d="M 124,105.99999 C 124.00309,115.94084 97.139272,124 64,124 30.860727,124 3.9969077,115.94084 3.999998,105.99999 3.9969077,96.059149 30.860727,88 64,88 c 33.139272,0 60.00309,8.059149 60,17.99999 z"
     id="path23417"
     style="opacity:0.3;fill:url(#radialGradient2584);fill-opacity:1;fill-rule:evenodd;stroke:none;stroke-width:2;marker:none;visibility:visible;display:inline;overflow:visible" />
  <path
     d="M 119.49998,64.000008 C 119.49998,33.236876 94.763115,8.5000192 63.999988,8.5000192 33.236854,8.5000192 8.5,33.236878 8.5,64.000008 8.4999946,94.763138 33.236857,119.5 63.999988,119.5 c 30.763124,-1e-5 55.499992,-24.73686 55.499992,-55.499992 z m -35.195118,0 c 0,11.176154 -8.905094,20.304874 -20.304874,20.304874 -11.623403,0 -20.304874,-9.354626 -20.304874,-20.304874 0,-11.173915 8.234215,-20.304874 20.304874,-20.304874 12.07066,0 20.304874,9.352343 20.304874,20.304874 z"
     id="path2781"
     style="fill:url(#linearGradient2658);fill-rule:nonzero;stroke:url(#linearGradient2660);stroke-width:1;stroke-miterlimit:4;stroke-opacity:1" />
  <path
     d="m 63.999988,43.000008 c -11.592,0 -21,9.408 -21,21 0,11.592001 9.408,21 21,21 11.592,0 21,-9.407999 21,-21 0,-11.592 -9.408,-21 -21,-21 z m 0,10.500001 c 5.796,0 10.5,4.703999 10.5,10.499999 0,5.796 -4.704,10.5 -10.5,10.5 -5.796,0 -10.5,-4.704 -10.5,-10.5 0,-5.796 4.704,-10.499999 10.5,-10.499999 z"
     id="path2474"
     style="opacity:0.5;fill:#ffffff;fill-opacity:1;fill-rule:nonzero;stroke:none;stroke-width:1;marker:none;visibility:visible;display:inline;overflow:visible;enable-background:accumulate" />
  <path
     d="m 63.999988,43.695134 c -11.20829,0 -20.304874,9.096584 -20.304874,20.304874 0,11.20829 9.096584,20.304874 20.304874,20.304874 11.20829,0 20.304874,-9.096584 20.304874,-20.304874 0,-11.20829 -9.096584,-20.304874 -20.304874,-20.304874 z m 0,10.152436 c 5.604145,0 10.152437,4.548293 10.152437,10.152438 0,5.604145 -4.548292,10.152436 -10.152437,10.152436 -5.604145,0 -10.152437,-4.548291 -10.152437,-10.152436 0,-5.604145 4.548292,-10.152438 10.152437,-10.152438 z"
     id="path3418"
     style="fill:none;stroke:url(#linearGradient2654);stroke-width:1;stroke-linecap:butt;stroke-linejoin:round;stroke-miterlimit:4;stroke-opacity:1;stroke-dasharray:none;stroke-dashoffset:0;marker:none;visibility:visible;display:inline;overflow:visible;enable-background:accumulate" />
  <g
     transform="matrix(2.7320403,0,0,2.7320403,-1.0900842,-1.0742573)"
     id="g3527">
    <path
       d="M 15.856928,5.7307748 20.625,16.34375 C 21.660403,15.885186 22.795334,15.625 24,15.625 c 0.03206,0 0.06178,-3.6e-4 0.09375,0 L 24.10801,4.0047512 c -2.94215,-0.070687 -5.543041,0.6572865 -8.251083,1.7260236 z"
       transform="matrix(0.9996011,0.02824295,-0.02824295,0.9996011,0.6924114,-0.6708346)"
       id="path3296"
       style="opacity:0.8;fill:url(#linearGradient2672);fill-opacity:1;fill-rule:nonzero;stroke:none" />
    <path
       d="m 12.121471,7.9060109 6.931026,9.3601041 c 0.913109,-0.669755 1.965938,-1.167064 3.142629,-1.425169 0.03132,-0.0069 0.06026,-0.01359 0.09157,-0.02009 L 19.857174,4.426276 c -2.888973,0.5613244 -5.31953,1.8556038 -7.735703,3.4797349 z"
       id="path3308"
       style="opacity:0.8;fill:url(#linearGradient2674);fill-opacity:1;fill-rule:nonzero;stroke:none" />
    <path
       d="m 8.2523933,11.646535 9.2137237,7.155818 c 0.70865,-0.883264 1.596891,-1.636119 2.666685,-2.18998 0.02847,-0.01474 0.05469,-0.02872 0.08325,-0.0431 L 14.86585,6.2506132 C 12.220599,7.5405321 10.165881,9.452393 8.2523933,11.646535 z"
       id="path3310"
       style="opacity:0.8;fill:url(#linearGradient2676);fill-opacity:1;fill-rule:nonzero;stroke:none" />
    <path
       d="m 5.6328855,16.073974 c 7.1748065,2.242248 7.8502625,7.031463 12.7767855,1.754127 L 10.499985,9.1321388 C 8.2787249,11.062747 6.9132871,13.459349 5.6328855,16.073974 z"
       id="path3312"
       style="opacity:0.8;fill:url(#linearGradient2678);fill-opacity:1;fill-rule:nonzero;stroke:none" />
    <path
       d="M 7.155289,13.193173 C 5.9722117,14.945185 5.2475768,16.829547 4.6301929,18.837116 L 15.96875,21.8125 C 16.184264,21.049497 16.486796,20.297733 16.9375,19.59375 16.95479,19.56675 16.98246,19.52673 17,19.5 L 7.155289,13.193173 z"
       id="path3314"
       style="opacity:0.8;fill:url(#linearGradient2680);fill-opacity:1;fill-rule:nonzero;stroke:none" />
  </g>
  <path
     d="M 64.000005,9.5000009 C 33.791433,9.5000009 9.5,33.791433 9.5,64.000001 9.5,94.208571 33.791433,118.5 64.000005,118.5 94.208577,118.5 118.5,94.208571 118.5,64.000001 118.5,33.791433 94.208577,9.5000009 64.000005,9.5000009 l 0,0 0,0 z"
     id="path3272"
     style="opacity:0.5;fill:none;stroke:url(#linearGradient2642);stroke-width:0.99999994;stroke-miterlimit:4;stroke-opacity:1" />
  <g
     transform="matrix(-2.7073165,0,0,-2.7073165,128.97558,128.95078)"
     id="g3297">
    <path
       d="M 15.856928,5.7307748 20.625,16.34375 C 21.660403,15.885186 22.795334,15.625 24,15.625 c 0.03206,0 0.06178,-3.6e-4 0.09375,0 L 24.10801,4.0047512 c -2.94215,-0.070687 -5.543041,0.6572865 -8.251083,1.7260236 z"
       transform="matrix(0.9996011,0.02824295,-0.02824295,0.9996011,0.6924114,-0.6708346)"
       id="path3299"
       style="opacity:0.8;fill:url(#linearGradient2682);fill-opacity:1;fill-rule:nonzero;stroke:none" />
    <path
       d="m 12.121471,7.9060109 6.931026,9.3601041 c 0.913109,-0.669755 1.965938,-1.167064 3.142629,-1.425169 0.03132,-0.0069 0.06026,-0.01359 0.09157,-0.02009 L 19.857174,4.426276 c -2.888973,0.5613244 -5.31953,1.8556038 -7.735703,3.4797349 z"
       id="path3301"
       style="opacity:0.8;fill:url(#linearGradient2684);fill-opacity:1;fill-rule:nonzero;stroke:none" />
    <path
       d="m 8.2523933,11.646535 9.2137237,7.155818 c 0.70865,-0.883264 1.596891,-1.636119 2.666685,-2.18998 0.02847,-0.01474 0.05469,-0.02872 0.08325,-0.0431 L 14.86585,6.2506132 C 12.220599,7.5405321 10.165881,9.452393 8.2523933,11.646535 z"
       id="path3303"
       style="opacity:0.8;fill:url(#linearGradient2686);fill-opacity:1;fill-rule:nonzero;stroke:none" />
    <path
       d="m 5.6328855,16.073974 c 7.1748065,2.242248 7.8502625,7.031463 12.7767855,1.754127 L 10.499985,9.1321388 C 8.2787249,11.062747 6.9132871,13.459349 5.6328855,16.073974 z"
       id="path3305"
       style="opacity:0.8;fill:url(#linearGradient2688);fill-opacity:1;fill-rule:nonzero;stroke:none" />
    <path
       d="M 7.155289,13.193173 C 5.9722117,14.945185 5.2475768,16.829547 4.6301929,18.837116 L 15.96875,21.8125 C 16.184264,21.049497 16.486796,20.297733 16.9375,19.59375 16.95479,19.56675 16.98246,19.52673 17,19.5 L 7.155289,13.193173 z"
       id="path3307"
       style="opacity:0.8;fill:url(#linearGradient2690);fill-opacity:1;fill-rule:nonzero;stroke:none" />
  </g>
  <path
     d="m 63.99999,42.500008 c -11.917147,0 -21.500003,9.582855 -21.500003,21.5 0,11.917145 9.582856,21.5 21.500003,21.5 11.917144,0 21.499999,-9.582855 21.499999,-21.5 0,-11.917145 -9.582855,-21.5 -21.499999,-21.5 l 0,0 0,0 z"
     id="path3281"
     style="opacity:0.8;fill:none;stroke:url(#linearGradient2651);stroke-width:1;stroke-miterlimit:4;stroke-opacity:1" />
  <g
     style="display:inline"
     id="g4731"
     transform="matrix(1.5286999,0,0,1.5286999,-369.29019,-346.75596)">
    <g
       id="g4733">
      <path
         inkscape:connector-curvature="0"
         style="fill:#f57900;fill-opacity:1;stroke:none;display:inline"
         d="m 301.39438,299.87301 a 36.000005,36.000005 0 0 0 13.12279,-49.14566 l -20.73049,11.96875 a 12,12 0 0 1 -4.3923,16.39231 l 12,20.7846 z"
         id="path4735" />
      <path
         style="fill:#e9b913;fill-opacity:1;stroke:none;display:inline"
         d="m 301.4029,237.51175 a 36.000005,36.000005 0 0 0 -49.12278,13.20817 36.000005,36.000005 0 0 0 13.12278,49.14566 l 12,-20.78461 a 12,12 0 0 1 -4.3923,-16.3923 12,12 0 0 1 16.3923,-4.39231 l 12,-20.78461 z"
         id="path4737"
         inkscape:connector-curvature="0" />
      <path
         id="path4739"
         d="m 247.40088,268.6875 a 36.000005,36.000005 0 0 0 36,35.9375 l 0,-23.9375 a 12,12 0 0 1 -12,-12 l -24,0 z"
         style="fill:#a40000;fill-opacity:1;stroke:none;display:inline"
         inkscape:connector-curvature="0" />
      <path
         id="path4741"
         d="m 247.42022,268.6875 a 36.000005,36.000005 0 0 0 36.00001,35.93749 36.000005,36.000005 0 0 0 36,-35.93749 l -24,0 a 12,12 0 0 1 -12,11.99999 12,12 0 0 1 -12.00001,-11.99999 l -24,0 z"
         style="fill:#a40000;fill-opacity:1;stroke:none;display:inline"
         inkscape:connector-curvature="0" />
      <path
         id="path4743"
         d="m 301.42036,299.91801 a 36.000005,36.000005 0 0 0 13.12278,-49.14566 36.000005,36.000005 0 0 0 -49.12278,-13.20817 l 12,20.78461 a 12,12 0 0 1 16.3923,4.39231 12,12 0 0 1 -4.3923,16.3923 l 12,20.78461 z"
         style="fill:#f57900;fill-opacity:1;stroke:none;display:inline"
         inkscape:connector-curvature="0" />
      <path
         id="path4745"
         d="m 295.40088,268.6875 a 12,12 0 0 1 -12,12 l 0,23.9375 a 36.000005,36.000005 0 0 0 36,-35.9375 l -8.46875,0 c 1.15222,1.01695 1.875,2.49862 1.875,4.15625 0,3.06514 -2.4661,5.53125 -5.53125,5.53125 -3.06514,0 -5.5625,-2.46611 -5.5625,-5.53125 0,-1.65214 0.72942,-3.13956 1.875,-4.15625 l -8.1875,0 z"
         style="fill:#a40000;fill-opacity:1;stroke:none;display:inline"
         inkscape:connector-curvature="0" />
      <path
         id="path4747"
         d="m 301.40291,237.51176 a 36.000005,36.000005 0 0 0 -49.12279,13.20816 l 20.73048,11.96875 a 12,12 0 0 1 16.39231,-4.39231 l 12,-20.7846 z"
         style="fill:#e9b913;fill-opacity:1;stroke:none;display:inline"
         inkscape:connector-curvature="0" />
      <path
         inkscape:connector-curvature="0"
         style="fill:#f57900;fill-opacity:1;stroke:none;display:inline"
         d="m 277.39438,258.3038 a 12,12 0 0 1 16.3923,4.3923 l 20.73049,-11.96875 a 36.000005,36.000005 0 0 0 -49.12279,-13.20816 l 4.23437,7.33415 c 0.3046,-1.50633 1.22637,-2.87311 2.66192,-3.70192 2.65449,-1.53257 6.02326,-0.62992 7.55583,2.02457 1.53257,2.65449 0.64554,6.05033 -2.00895,7.5829 -1.4308,0.82607 -3.08365,0.93808 -4.53692,0.45432 l 4.09375,7.09059 z"
         id="path4749" />
      <path
         id="path4751"
         d="m 277.40291,279.08097 a 12,12 0 0 1 -4.39231,-16.3923 l -20.73048,-11.96875 a 36.000005,36.000005 0 0 0 13.12279,49.14566 l 4.23437,-7.33415 c -1.45681,0.48938 -3.10136,0.37449 -4.53692,-0.45433 -2.65448,-1.53257 -3.55714,-4.90133 -2.02457,-7.55582 1.53257,-2.65449 4.91696,-3.58422 7.57145,-2.05165 1.43079,0.82607 2.35423,2.20148 2.66192,3.70193 l 4.09375,-7.09059 z"
         style="fill:#e9b913;fill-opacity:1;stroke:none;display:inline"
         inkscape:connector-curvature="0" />
    </g>
    <path
       inkscape:connector-curvature="0"
       id="path4753"
       d="m 284.4418,232.68931 a 36.000005,36.000005 0 0 0 -37.03125,36 36.000005,36.000005 0 0 0 72,0 36.000005,36.000005 0 0 0 -34.96875,-36 z m -0.6875,24 a 12,12 0 0 1 11.65625,12 12,12 0 0 1 -24,0 12,12 0 0 1 12.34375,-12 z"
       style="fill:url(#radialGradient3971);fill-opacity:1;stroke:none;display:inline" />
  </g>
  <g
     style="opacity:0.6;display:inline;filter:url(#filter4195)"
     id="g4175"
     clip-path="url(#clipPath4187)"
     transform="matrix(1.5241471,0,0,1.5241471,-9.3634937,-146.5326)" />
  <path
     style="opacity:0.2;fill:#000000;fill-opacity:1;stroke:none;display:inline"
     id="path3986"
     inkscape:connector-curvature="0"
     d="m 63.795566,41.699577 c -12.205566,0 -22.100132,9.894566 -22.100132,22.100131 0,12.205567 9.894566,22.100129 22.100132,22.100129 12.205567,0 22.100134,-9.894562 22.100134,-22.100129 0,-12.205565 -9.894567,-22.100131 -22.100134,-22.100131 z m 0,3.810367 c 10.101158,0 18.289766,8.188607 18.289766,18.289764 0,10.10116 -8.188608,18.289769 -18.289766,18.289769 -10.101158,0 -18.289765,-8.188609 -18.289765,-18.289769 0,-10.101157 8.188607,-18.289764 18.289765,-18.289764 z" />
  <path
     style="opacity:0.4;fill:#ffffff;fill-opacity:1;stroke:none;display:inline"
     id="path4199"
     inkscape:connector-curvature="0"
     d="m 63.795566,8.9304145 c -30.303474,0 -54.8692959,24.5658185 -54.8692959,54.8692935 0,0.513744 0.03353,1.013796 0.04755,1.524148 C 9.7873961,35.730688 34.005835,11.97871 63.795564,11.97871 c 29.789732,0 54.008156,23.751978 54.821666,53.345146 0.0141,-0.510352 0.0477,-1.010404 0.0477,-1.524148 0,-30.303475 -24.565822,-54.8692935 -54.869299,-54.8692935 z" />
  <g
     style="display:inline"
     id="g4200"
     transform="matrix(1.5241471,0,0,-1.5241471,306.17565,657.1435)" />
</svg>
