<?xml version="1.0" encoding="UTF-8" standalone="no"?>
<!-- Created with Inkscape (http://www.inkscape.org/) -->

<svg
   xmlns:dc="http://purl.org/dc/elements/1.1/"
   xmlns:cc="http://creativecommons.org/ns#"
   xmlns:rdf="http://www.w3.org/1999/02/22-rdf-syntax-ns#"
   xmlns:svg="http://www.w3.org/2000/svg"
   xmlns="http://www.w3.org/2000/svg"
   xmlns:xlink="http://www.w3.org/1999/xlink"
   xmlns:sodipodi="http://sodipodi.sourceforge.net/DTD/sodipodi-0.dtd"
   xmlns:inkscape="http://www.inkscape.org/namespaces/inkscape"
   width="128"
   height="128"
   id="svg3249"
   version="1.1"
   inkscape:version="0.48.1 r9760"
   sodipodi:docname="file-roller.svg">
  <defs
     id="defs3251">
    <linearGradient
       inkscape:collect="always"
       xlink:href="#linearGradient3707-319-631-407-1-846-4"
       id="linearGradient3156"
       gradientUnits="userSpaceOnUse"
       gradientTransform="matrix(2.6410259,0,0,2.6410259,0.6153933,-63.025638)"
       x1="19.874987"
       y1="44.520065"
       x2="19.874987"
       y2="5.2502403" />
    <linearGradient
       id="linearGradient3707-319-631-407-1-846-4">
      <stop
         offset="0"
         style="stop-color:#365a7c;stop-opacity:1"
         id="stop3788-5" />
      <stop
         offset="1"
         style="stop-color:#5ea1ca;stop-opacity:1;"
         id="stop3790-9" />
    </linearGradient>
    <linearGradient
       inkscape:collect="always"
       xlink:href="#linearGradient3707-319-631-407-1-846-4-8"
       id="linearGradient3159"
       gradientUnits="userSpaceOnUse"
       gradientTransform="matrix(2.6410259,0,0,2.6410259,0.6153933,-63.025638)"
       x1="19.874987"
       y1="44.520065"
       x2="19.874987"
       y2="5.2502403" />
    <linearGradient
       id="linearGradient3707-319-631-407-1-846-4-8">
      <stop
         offset="0"
         style="stop-color:#365a7c;stop-opacity:1"
         id="stop3788-5-5" />
      <stop
         offset="1"
         style="stop-color:#5ea1ca;stop-opacity:1;"
         id="stop3790-9-0" />
    </linearGradient>
    <linearGradient
       inkscape:collect="always"
       xlink:href="#linearGradient3707-319-631-407-1-846-4-9"
       id="linearGradient3162"
       gradientUnits="userSpaceOnUse"
       gradientTransform="matrix(2.6410259,0,0,2.6410259,0.6153933,-63.025638)"
       x1="19.874987"
       y1="44.520065"
       x2="19.874987"
       y2="5.2502403" />
    <linearGradient
       id="linearGradient3707-319-631-407-1-846-4-9">
      <stop
         offset="0"
         style="stop-color:#365a7c;stop-opacity:1"
         id="stop3788-5-1" />
      <stop
         offset="1"
         style="stop-color:#5ea1ca;stop-opacity:1;"
         id="stop3790-9-8" />
    </linearGradient>
    <linearGradient
       inkscape:collect="always"
       xlink:href="#linearGradient8265-821-176-38-919-66-249-7-7"
       id="linearGradient3165"
       gradientUnits="userSpaceOnUse"
       gradientTransform="matrix(2.2144204,0,0,3.4699564,10.750311,-67.821123)"
       x1="16.626165"
       y1="15.298182"
       x2="20.054544"
       y2="24.627615" />
    <linearGradient
       id="linearGradient8265-821-176-38-919-66-249-7-7">
      <stop
         offset="0"
         style="stop-color:#ffffff;stop-opacity:1"
         id="stop2687-1-9" />
      <stop
         offset="1"
         style="stop-color:#ffffff;stop-opacity:0"
         id="stop2689-5-4" />
    </linearGradient>
    <linearGradient
       y2="43"
       x2="23.99999"
       y1="4.999989"
       x1="23.99999"
       gradientTransform="matrix(2.7297298,0,0,2.7297298,-1.5135111,-62.513486)"
       gradientUnits="userSpaceOnUse"
       id="linearGradient3128"
       xlink:href="#linearGradient3924"
       inkscape:collect="always" />
    <linearGradient
       id="linearGradient3924">
      <stop
         id="stop3926"
         style="stop-color:#ffffff;stop-opacity:1;"
         offset="0" />
      <stop
         offset="0.06316455"
         style="stop-color:#ffffff;stop-opacity:0.23529412;"
         id="stop3928" />
      <stop
         id="stop3930"
         style="stop-color:#ffffff;stop-opacity:0.15686275;"
         offset="0.95056331" />
      <stop
         id="stop3932"
         style="stop-color:#ffffff;stop-opacity:0.39215687;"
         offset="1" />
    </linearGradient>
    <radialGradient
       inkscape:collect="always"
       xlink:href="#linearGradient2867-449-88-871-390-598-476-591-434-148-57-177"
       id="radialGradient3171"
       gradientUnits="userSpaceOnUse"
       gradientTransform="matrix(5.1311087e-8,6.1720513,-6.5292943,-1.1371274e-7,119.17132,-93.225249)"
       cx="7.4956832"
       cy="8.4497671"
       fx="7.4956832"
       fy="8.4497671"
       r="19.99999" />
    <linearGradient
       id="linearGradient2867-449-88-871-390-598-476-591-434-148-57-177">
      <stop
         id="stop3750"
         style="stop-color:#90dbec;stop-opacity:1;"
         offset="0" />
      <stop
         id="stop3752"
         style="stop-color:#55c1ec;stop-opacity:1;"
         offset="0.26238" />
      <stop
         id="stop3754"
         style="stop-color:#3689e6;stop-opacity:1;"
         offset="0.704952" />
      <stop
         id="stop3756"
         style="stop-color:#2b63a0;stop-opacity:1;"
         offset="1" />
    </linearGradient>
    <linearGradient
       inkscape:collect="always"
       xlink:href="#linearGradient3707-319-631-407-324"
       id="linearGradient3173"
       gradientUnits="userSpaceOnUse"
       gradientTransform="matrix(2.641026,0,0,2.641026,0.6153903,-60.384616)"
       x1="24"
       y1="44"
       x2="24"
       y2="3.8990016" />
    <linearGradient
       id="linearGradient3707-319-631-407-324">
      <stop
         id="stop3760"
         style="stop-color:#185f9a;stop-opacity:1;"
         offset="0" />
      <stop
         id="stop3762"
         style="stop-color:#599ec9;stop-opacity:1;"
         offset="1" />
    </linearGradient>
    <radialGradient
       cx="4.9929786"
       cy="43.5"
       r="2.5"
       fx="4.9929786"
       fy="43.5"
       id="radialGradient2455"
       xlink:href="#linearGradient3688-166-749"
       gradientUnits="userSpaceOnUse"
       gradientTransform="matrix(2.003784,0,0,1.4,27.98813,-17.4)" />
    <linearGradient
       id="linearGradient3688-166-749">
      <stop
         id="stop2883"
         style="stop-color:#181818;stop-opacity:1"
         offset="0" />
      <stop
         id="stop2885"
         style="stop-color:#181818;stop-opacity:0"
         offset="1" />
    </linearGradient>
    <radialGradient
       cx="4.9929786"
       cy="43.5"
       r="2.5"
       fx="4.9929786"
       fy="43.5"
       id="radialGradient2457"
       xlink:href="#linearGradient3688-464-309"
       gradientUnits="userSpaceOnUse"
       gradientTransform="matrix(2.003784,0,0,1.4,-20.01187,-104.4)" />
    <linearGradient
       id="linearGradient3688-464-309">
      <stop
         id="stop2889"
         style="stop-color:#181818;stop-opacity:1"
         offset="0" />
      <stop
         id="stop2891"
         style="stop-color:#181818;stop-opacity:0"
         offset="1" />
    </linearGradient>
    <linearGradient
       x1="25.058096"
       y1="47.027729"
       x2="25.058096"
       y2="39.999443"
       id="linearGradient2459"
       xlink:href="#linearGradient3702-501-757"
       gradientUnits="userSpaceOnUse" />
    <linearGradient
       id="linearGradient3702-501-757">
      <stop
         id="stop2895"
         style="stop-color:#181818;stop-opacity:0"
         offset="0" />
      <stop
         id="stop2897"
         style="stop-color:#181818;stop-opacity:1"
         offset="0.5" />
      <stop
         id="stop2899"
         style="stop-color:#181818;stop-opacity:0"
         offset="1" />
    </linearGradient>
    <linearGradient
       inkscape:collect="always"
       xlink:href="#linearGradient2490-3-7-8"
       id="linearGradient2976-3"
       gradientUnits="userSpaceOnUse"
       x1="25.075518"
       y1="45.914536"
       x2="25.075518"
       y2="6.4426208" />
    <linearGradient
       id="linearGradient2490-3-7-8">
      <stop
         offset="0"
         style="stop-color:#0e305f;stop-opacity:1;"
         id="stop2492-3-7-0" />
      <stop
         offset="1"
         style="stop-color:#185ba7;stop-opacity:1;"
         id="stop2494-8-5-9" />
    </linearGradient>
    <linearGradient
       inkscape:collect="always"
       xlink:href="#linearGradient2490-3-92"
       id="linearGradient2974-4"
       gradientUnits="userSpaceOnUse"
       x1="25.075518"
       y1="45.914536"
       x2="25.075518"
       y2="6.4426208" />
    <linearGradient
       id="linearGradient2490-3-92">
      <stop
         offset="0"
         style="stop-color:#0e395f;stop-opacity:1;"
         id="stop2492-3-5" />
      <stop
         offset="1"
         style="stop-color:#1860a7;stop-opacity:1;"
         id="stop2494-8-7" />
    </linearGradient>
    <linearGradient
       y2="43"
       x2="23.99999"
       y1="4.999989"
       x1="23.99999"
       gradientTransform="matrix(2.7297298,0,0,2.7297298,-1.7423548,-62.843641)"
       gradientUnits="userSpaceOnUse"
       id="linearGradient3234"
       xlink:href="#linearGradient3924-9"
       inkscape:collect="always" />
    <linearGradient
       id="linearGradient3924-9">
      <stop
         id="stop3926-2"
         style="stop-color:#ffffff;stop-opacity:1;"
         offset="0" />
      <stop
         offset="0.06316455"
         style="stop-color:#ffffff;stop-opacity:0.23529412;"
         id="stop3928-5" />
      <stop
         id="stop3930-4"
         style="stop-color:#ffffff;stop-opacity:0.15686275;"
         offset="0.95056331" />
      <stop
         id="stop3932-0"
         style="stop-color:#ffffff;stop-opacity:0.39215687;"
         offset="1" />
    </linearGradient>
    <linearGradient
       y2="6.4426208"
       x2="25.075518"
       y1="45.914536"
       x1="25.075518"
       gradientUnits="userSpaceOnUse"
       id="linearGradient3059"
       xlink:href="#linearGradient2490-3-7-8"
       inkscape:collect="always" />
  </defs>
  <sodipodi:namedview
     id="base"
     pagecolor="#ffffff"
     bordercolor="#666666"
     borderopacity="1.0"
     inkscape:pageopacity="0.0"
     inkscape:pageshadow="2"
     inkscape:zoom="6.5546875"
     inkscape:cx="64.457688"
     inkscape:cy="64"
     inkscape:current-layer="layer1"
     showgrid="true"
     inkscape:document-units="px"
     inkscape:grid-bbox="true"
     inkscape:window-width="1920"
     inkscape:window-height="1027"
     inkscape:window-x="0"
     inkscape:window-y="24"
     inkscape:window-maximized="1" />
  <metadata
     id="metadata3254">
    <rdf:RDF>
      <cc:Work
         rdf:about="">
        <dc:format>image/svg+xml</dc:format>
        <dc:type
           rdf:resource="http://purl.org/dc/dcmitype/StillImage" />
        <dc:title />
      </cc:Work>
    </rdf:RDF>
  </metadata>
  <g
     id="layer1"
     inkscape:label="Layer 1"
     inkscape:groupmode="layer"
     transform="translate(0,64)">
    <g
       transform="matrix(2.9499988,0,0,1.2222234,-6.8000012,1.555537)"
       id="g2036"
       style="display:inline">
      <g
         transform="matrix(1.052632,0,0,1.285713,-1.263158,-13.42854)"
         id="g3712"
         style="opacity:0.4">
        <rect
           width="5"
           height="7"
           x="38"
           y="40"
           id="rect2801"
           style="fill:url(#radialGradient2455);fill-opacity:1;stroke:none" />
        <rect
           width="5"
           height="7"
           x="-10"
           y="-47"
           transform="scale(-1,-1)"
           id="rect3696"
           style="fill:url(#radialGradient2457);fill-opacity:1;stroke:none" />
        <rect
           width="28"
           height="7.0000005"
           x="10"
           y="40"
           id="rect3700"
           style="fill:url(#linearGradient2459);fill-opacity:1;stroke:none" />
      </g>
    </g>
    <rect
       style="color:#000000;fill:url(#radialGradient3171);fill-opacity:1;fill-rule:nonzero;stroke:url(#linearGradient3173);stroke-width:1;stroke-linecap:round;stroke-linejoin:round;stroke-miterlimit:4;stroke-opacity:1;stroke-dasharray:none;stroke-dashoffset:0;marker:none;visibility:visible;display:inline;overflow:visible;enable-background:accumulate"
       id="rect5505-21"
       y="-48.5"
       x="12.5"
       ry="6"
       rx="6"
       height="103"
       width="103" />
    <rect
       style="opacity:0.5;fill:none;stroke:url(#linearGradient3128);stroke-width:0.99999994;stroke-linecap:round;stroke-linejoin:round;stroke-miterlimit:4;stroke-opacity:1;stroke-dasharray:none;stroke-dashoffset:0"
       id="rect6741-7"
       y="-47.5"
       x="13.5"
       ry="5"
       rx="5"
       height="101"
       width="101" />
    <g
       transform="matrix(1.2012089,0,0,1.2012089,6.34767,-54.758755)"
       id="layer1-7">
      <path
         inkscape:connector-curvature="0"
         d="M 11.625,9 C 10.942945,9.0766125 10.3617,9.3547182 9.9375,9.78125 9.5132999,10.207782 9.2603006,10.743325 9.125,11.25 8.8604675,12.240624 8.9490934,13.218893 9,13.96875 c 1.85e-5,0.02083 -1.84e-5,0.04167 0,0.0625 0.020683,23.455706 -0.041638,46.916913 0.03125,70.375 a 0.98129583,0.98129583 0 0 0 0.03125,0.25 c 0.1931205,0.760046 0.6053781,1.369967 1.15625,1.75 0.550872,0.380033 1.17373,0.531161 1.75,0.59375 1.15254,0.125178 2.294558,-0.05058 2.96875,0 A 0.98129583,0.98129583 0 0 0 15,87 c 23.128342,-0.02085 46.275417,0.0417 69.40625,-0.03125 a 0.98129583,0.98129583 0 0 0 0.25,-0.03125 c 0.760046,-0.19312 1.369967,-0.605378 1.75,-1.15625 0.380033,-0.550872 0.531161,-1.17373 0.59375,-1.75 0.125178,-1.15254 -0.05058,-2.294558 0,-2.96875 A 0.98129583,0.98129583 0 0 0 87,81 C 86.97916,57.871657 87.0417,34.724582 86.96875,11.59375 a 0.98129583,0.98129583 0 0 0 -0.03125,-0.25 C 86.74438,10.583704 86.332122,9.9737832 85.78125,9.59375 85.230378,9.2137168 84.60752,9.062589 84.03125,9 82.87871,8.8748219 81.736692,9.0505767 81.0625,9 A 0.98129583,0.98129583 0 0 0 81,9 L 11.75,9 A 0.98129583,0.98129583 0 0 0 11.625,9 z M 21,21 41.90625,21 c -0.151571,0.371763 -0.292857,0.735753 -0.375,1.09375 -0.226111,0.985442 -0.337308,1.915698 -0.59375,2.53125 A 0.98129583,0.98129583 0 0 0 40.90625,24.75 C 39.094307,31.709069 37.263862,38.666524 35.4375,45.625 34.502414,42.459134 33.61841,39.251647 32.5,36.125 a 0.98129583,0.98129583 0 0 0 -0.125,-0.21875 c -0.807796,-1.191872 -2.167891,-1.467898 -3.25,-1.46875 -1.082109,-8.52e-4 -2.065485,0.156677 -2.6875,0.0625 a 0.98129583,0.98129583 0 0 0 -0.15625,0 L 21,34.5 21,21 z m 26.5625,0 9.34375,0 c -0.151918,0.277089 -0.319395,0.542014 -0.375,0.875 l -0.0625,-0.03125 c -1.456609,4.164646 -2.920055,8.333316 -4.375,12.5 C 50.61067,29.909073 49.177517,25.421379 47.5625,21 z M 62.21875,21 75,21 l 0,29.5 -3.03125,0 C 68.71655,40.675524 65.562571,30.811826 62.21875,21 z M 21,45.5 l 2.90625,0 c 2.967462,9.823952 5.958154,19.737096 8.90625,29.5 L 21,75 21,45.5 z m 38.3125,1.65625 c 1.387865,4.231204 2.734905,8.479639 4.21875,12.6875 a 0.98129583,0.98129583 0 0 0 0.125,0.25 c 0.802476,1.189023 2.141615,1.466623 3.21875,1.46875 1.077135,0.0021 2.069008,-0.155436 2.6875,-0.0625 a 0.98129583,0.98129583 0 0 0 0.15625,0 L 75,61.5 75,75 39.125,75 c 2.234718,-8.367762 4.429586,-16.748438 6.625,-25.125 1.175322,3.581117 2.299033,7.197045 3.65625,10.75 A 0.98129583,0.98129583 0 0 0 49.5,60.84375 c 1.53251,2.202797 5.004041,1.130802 5.4375,-1.375 L 55,59.5 c 1.457254,-4.1081 2.879944,-8.227788 4.3125,-12.34375 z"
         id="path3695"
         style="opacity:0.05;fill:#005a80;fill-opacity:1;fill-rule:nonzero;stroke:none" />
      <path
         inkscape:connector-curvature="0"
         d="M 11.90625,11.0625 A 0.93232674,0.93232674 0 0 0 11.0625,12 l 0,72 A 0.93232674,0.93232674 0 0 0 12,84.9375 l 72,0 A 0.93232674,0.93232674 0 0 0 84.9375,84 l 0,-72 A 0.93232674,0.93232674 0 0 0 84,11.0625 l -72,0 a 0.93232674,0.93232674 0 0 0 -0.09375,0 z m 7.03125,7.875 58.125,0 0,33.625 -6.59375,0 -7.75,-23.59375 -2.3125,-7 a 0.93232674,0.93232674 0 0 0 -1.75,-0.03125 L 56.21875,28.90625 52.0625,40.75 48.3125,29.5 45.65625,21.5 A 0.93232674,0.93232674 0 0 0 43.875,21.53125 L 41.75,29.6875 35.59375,53.21875 31.3125,39 a 0.93232674,0.93232674 0 0 0 -0.03125,0 l -0.5625,-1.78125 a 0.93232674,0.93232674 0 0 0 -0.875,-0.65625 l -1.84375,0 -9.0625,0 0,-17.625 z m 40.4375,21.75 5.375,16.375 0.5625,1.71875 a 0.93232674,0.93232674 0 0 0 0.875,0.65625 l 1.8125,0 9.0625,0 0,17.625 -58.125,0 0,-33.625 6.46875,0 7.125,23.53125 2.5625,8.5 a 0.93232674,0.93232674 0 0 0 1.8125,-0.03125 l 2.25,-8.59375 L 45.5,42.625 l 3.25,9.8125 2.3125,6.9375 a 0.93232674,0.93232674 0 0 0 1.75,0.03125 L 55.25,52.5 59.375,40.6875 z"
         id="path3681"
         style="opacity:0.3;fill:#005a80;fill-opacity:1;fill-rule:nonzero;stroke:none" />
      <path
         d="m 12,12 0,72 72,0 0,-72 -72,0 z m 6,6 60,0 0,35.5 -8.1875,0 -7.96875,-24.25 -2.3125,-7 -2.4375,6.96875 -5.03125,14.375 -4.625,-13.8125 -2.65625,-8 -2.125,8.15625 -7,26.78125 -5.25,-17.4375 L 29.84375,37.5 28,37.5 18,37.5 18,18 z M 59.40625,37.8125 65.625,56.78125 66.1875,58.5 68,58.5 l 10,0 0,19.5 -60,0 0,-35.5 8.125,0 7.3125,24.1875 2.5625,8.5 2.25,-8.59375 7.125,-27.21875 4.25,12.78125 2.3125,6.9375 2.4375,-6.90625 5.03125,-14.375 z"
         inkscape:connector-curvature="0"
         id="path3618"
         style="fill:#ffffff;fill-opacity:1;fill-rule:nonzero;stroke:none" />
    </g>
    <g
       transform="matrix(1.2012089,0,0,1.2012089,6.34767,-54.758755)"
       id="layer5" />
  </g>
</svg>
