<?xml version="1.0" encoding="UTF-8" standalone="no"?>
<!-- Created with Inkscape (http://www.inkscape.org/) -->

<svg
   xmlns:dc="http://purl.org/dc/elements/1.1/"
   xmlns:cc="http://creativecommons.org/ns#"
   xmlns:rdf="http://www.w3.org/1999/02/22-rdf-syntax-ns#"
   xmlns:svg="http://www.w3.org/2000/svg"
   xmlns="http://www.w3.org/2000/svg"
   xmlns:xlink="http://www.w3.org/1999/xlink"
   xmlns:sodipodi="http://sodipodi.sourceforge.net/DTD/sodipodi-0.dtd"
   xmlns:inkscape="http://www.inkscape.org/namespaces/inkscape"
   version="1.0"
   width="96"
   height="96"
   id="svg2408"
   inkscape:version="0.48.1 r9760"
   sodipodi:docname="wordpress.svg">
  <sodipodi:namedview
     pagecolor="#ffffff"
     bordercolor="#666666"
     borderopacity="1"
     objecttolerance="10"
     gridtolerance="10"
     guidetolerance="10"
     inkscape:pageopacity="0"
     inkscape:pageshadow="2"
     inkscape:window-width="1437"
     inkscape:window-height="1026"
     id="namedview54"
     showgrid="false"
     inkscape:zoom="3.3020833"
     inkscape:cx="48.908517"
     inkscape:cy="51.785489"
     inkscape:window-x="0"
     inkscape:window-y="24"
     inkscape:window-maximized="0"
     inkscape:current-layer="layer4" />
  <defs
     id="defs2410">
    <linearGradient
       x1="45.447727"
       y1="92.539597"
       x2="45.447727"
       y2="7.0165396"
       id="ButtonShadow"
       gradientUnits="userSpaceOnUse"
       gradientTransform="scale(1.0058652,0.994169)">
      <stop
         id="stop3750"
         style="stop-color:#000000;stop-opacity:1"
         offset="0" />
      <stop
         id="stop3752"
         style="stop-color:#000000;stop-opacity:0.58823532"
         offset="1" />
    </linearGradient>
    <linearGradient
       id="linearGradient3737">
      <stop
         id="stop3739"
         style="stop-color:#ffffff;stop-opacity:1"
         offset="0" />
      <stop
         id="stop3741"
         style="stop-color:#ffffff;stop-opacity:0"
         offset="1" />
    </linearGradient>
    <filter
       color-interpolation-filters="sRGB"
       id="filter3174">
      <feGaussianBlur
         id="feGaussianBlur3176"
         stdDeviation="1.71" />
    </filter>
    <linearGradient
       x1="36.357143"
       y1="6"
       x2="36.357143"
       y2="63.893143"
       id="linearGradient3188"
       xlink:href="#linearGradient3737"
       gradientUnits="userSpaceOnUse" />
    <filter
       x="-0.192"
       y="-0.192"
       width="1.3839999"
       height="1.3839999"
       color-interpolation-filters="sRGB"
       id="filter3794">
      <feGaussianBlur
         id="feGaussianBlur3796"
         stdDeviation="5.28" />
    </filter>
    <linearGradient
       x1="48"
       y1="20.220806"
       x2="48"
       y2="138.66119"
       id="linearGradient3613"
       xlink:href="#linearGradient3737"
       gradientUnits="userSpaceOnUse"
       gradientTransform="matrix(0.87542838,0,0,0.87542838,5.8468809,6.1119948)" />
    <radialGradient
       cx="48"
       cy="90.171875"
       r="42"
       fx="48"
       fy="90.171875"
       id="radialGradient3619"
       xlink:href="#linearGradient3737"
       gradientUnits="userSpaceOnUse"
       gradientTransform="matrix(1.1573129,0,0,0.99590774,-7.5510206,0.19713193)" />
    <clipPath
       id="clipPath3613">
      <rect
         width="84"
         height="84"
         rx="6"
         ry="6"
         x="6"
         y="6"
         id="rect3615"
         style="fill:#ffffff;fill-opacity:1;fill-rule:nonzero;stroke:none" />
    </clipPath>
    <linearGradient
       x1="48"
       y1="90"
       x2="48"
       y2="5.9877172"
       id="linearGradient3617"
       xlink:href="#linearGradient3645"
       gradientUnits="userSpaceOnUse" />
    <linearGradient
       x1="45.447727"
       y1="92.539597"
       x2="45.447727"
       y2="7.0165396"
       id="ButtonShadow-0"
       gradientUnits="userSpaceOnUse"
       gradientTransform="matrix(1.0058652,0,0,0.994169,100,0)">
      <stop
         id="stop3750-8"
         style="stop-color:#000000;stop-opacity:1"
         offset="0" />
      <stop
         id="stop3752-5"
         style="stop-color:#000000;stop-opacity:0.58823532"
         offset="1" />
    </linearGradient>
    <linearGradient
       x1="32.251034"
       y1="6.1317081"
       x2="32.251034"
       y2="90.238609"
       id="linearGradient3780"
       xlink:href="#ButtonShadow-0"
       gradientUnits="userSpaceOnUse"
       gradientTransform="matrix(1.0238095,0,0,1.0119048,-1.1428571,-98.071429)" />
    <linearGradient
       x1="32.251034"
       y1="6.1317081"
       x2="32.251034"
       y2="90.238609"
       id="linearGradient3772"
       xlink:href="#ButtonShadow-0"
       gradientUnits="userSpaceOnUse"
       gradientTransform="matrix(1.0238095,0,0,1.0119048,-1.1428571,-98.071429)" />
    <linearGradient
       x1="32.251034"
       y1="6.1317081"
       x2="32.251034"
       y2="90.238609"
       id="linearGradient3725"
       xlink:href="#ButtonShadow-0"
       gradientUnits="userSpaceOnUse"
       gradientTransform="matrix(1.0238095,0,0,1.0119048,-1.1428571,-98.071429)" />
    <linearGradient
       x1="32.251034"
       y1="6.1317081"
       x2="32.251034"
       y2="90.238609"
       id="linearGradient3721"
       xlink:href="#ButtonShadow-0"
       gradientUnits="userSpaceOnUse"
       gradientTransform="translate(0,-97)" />
    <linearGradient
       x1="32.251034"
       y1="6.1317081"
       x2="32.251034"
       y2="90.238609"
       id="linearGradient3026"
       xlink:href="#ButtonShadow-0"
       gradientUnits="userSpaceOnUse"
       gradientTransform="matrix(1.0238095,0,0,1.0119048,-1.1428571,-98.071429)" />
    <linearGradient
       id="linearGradient3645">
      <stop
         id="stop3647"
         style="stop-color:#0f466f;stop-opacity:1"
         offset="0" />
      <stop
         id="stop3649"
         style="stop-color:#2e72a7;stop-opacity:1"
         offset="1" />
    </linearGradient>
    <linearGradient
       id="linearGradient4062">
      <stop
         id="stop4064"
         style="stop-color:#dfdfdf;stop-opacity:1"
         offset="0" />
      <stop
         id="stop4066"
         style="stop-color:#ffffff;stop-opacity:1"
         offset="1" />
    </linearGradient>
    <linearGradient
       x1="48"
       y1="84"
       x2="48"
       y2="12"
       id="linearGradient2928"
       xlink:href="#linearGradient4062"
       gradientUnits="userSpaceOnUse" />
  </defs>
  <metadata
     id="metadata2413">
    <rdf:RDF>
      <cc:Work
         rdf:about="">
        <dc:format>image/svg+xml</dc:format>
        <dc:type
           rdf:resource="http://purl.org/dc/dcmitype/StillImage" />
        <dc:title />
      </cc:Work>
    </rdf:RDF>
  </metadata>
  <g
     id="layer2"
     style="display:none">
    <rect
       width="86"
       height="85"
       rx="6"
       ry="6"
       x="5"
       y="7"
       id="rect3745"
       style="opacity:0.9;fill:url(#ButtonShadow);fill-opacity:1;fill-rule:nonzero;stroke:none;filter:url(#filter3174)" />
  </g>
  <g
     id="layer5"
     transform="matrix(1.1422979,0,0,1.1422979,-6.6788797,-6.9817188)">
    <rect
       width="66"
       height="66"
       rx="12"
       ry="12"
       x="15"
       y="15"
       clip-path="url(#clipPath3613)"
       id="rect3171"
       style="opacity:0.1;fill:url(#linearGradient3613);fill-opacity:1;fill-rule:nonzero;stroke:#ffffff;stroke-width:0.43771419;stroke-linecap:round;stroke-linejoin:miter;stroke-miterlimit:4;stroke-opacity:1;stroke-dasharray:none;stroke-dashoffset:0;filter:url(#filter3794)" />
  </g>
  <g
     id="layer4">
    <path
       d="m 48.139066,6.725856 c -22.672962,0 -41.1103709,18.462114 -41.1103709,41.135077 0,22.673946 18.4374089,41.110372 41.1103709,41.110372 22.673951,0 41.135078,-18.436426 41.135078,-41.110372 0,-22.672963 -18.461127,-41.135077 -41.135078,-41.135077 z m 0,4.150567 c 9.625361,0 18.399856,3.683133 24.977516,9.709359 -0.159105,-0.0099 -0.305364,-0.02471 -0.469409,-0.02471 -3.631747,0 -6.22585,3.173208 -6.22585,6.57173 0,3.046715 1.758061,5.625007 3.631745,8.67172 1.406252,2.461681 3.063514,5.608206 3.063514,10.178769 0,3.163325 -0.942772,7.153799 -2.816457,11.957585 L 66.594263,70.269055 53.253157,30.517495 c 2.225494,-0.116611 4.224684,-0.34588 4.224684,-0.34588 1.992271,-0.236187 1.745214,-3.155419 -0.247058,-3.038808 0,0 -5.966933,0.469409 -9.83289,0.469409 -3.632733,0 -9.758772,-0.469409 -9.758772,-0.469409 -1.993259,-0.116611 -2.215611,2.921208 -0.222352,3.038808 0,0 1.886532,0.229269 3.878804,0.34588 l 5.75644,15.786976 -8.103486,24.261045 -13.43993,-40.048021 c 2.227471,-0.116611 4.224684,-0.34588 4.224684,-0.34588 1.990295,-0.236187 1.745214,-3.155419 -0.247057,-3.038808 0,0 -5.99164,0.469409 -9.857596,0.469409 -0.693737,0 -1.504085,-0.02174 -2.371752,-0.04942 C 23.868135,17.517323 35.2229,10.876418 48.139066,10.876418 z m 32.463359,19.24578 c 2.884643,5.26529 4.521152,11.311281 4.521152,17.73873 0,13.639552 -7.389985,25.536853 -18.381079,31.944539 l 11.290528,-32.6363 c 2.109871,-5.274184 2.816456,-9.49195 2.816456,-13.242283 0,-1.360793 -0.08796,-2.627704 -0.247057,-3.804686 z M 14.39101,32.81513 32.00621,81.139585 C 19.673099,75.147946 11.179262,62.494644 11.179262,47.860933 c 0,-5.36016 1.16117,-10.447569 3.211748,-15.045803 z m 34.415112,18.282256 11.364646,31.129243 c 0.07511,0.182825 0.148234,0.336007 0.247057,0.494124 -3.842239,1.352881 -7.97304,2.099989 -12.278759,2.099989 -3.627793,0 -7.113279,-0.532665 -10.425827,-1.507056 l 11.092883,-32.2163 z"
       inkscape:connector-curvature="0"
       id="path4048"
       style="fill:#4b8b9e;fill-opacity:1;fill-rule:nonzero;stroke:#9a9a9a;stroke-width:1;stroke-opacity:1" />
    <path
       d="m 48.151419,5.5835582 c -22.672962,0 -41.1227238,18.4497618 -41.1227238,41.1227238 0,0.189133 0.033138,0.382614 0.035697,0.571149 C 7.3735264,24.868649 25.670786,6.7258561 48.151419,6.7258561 c 22.481613,0 40.777498,18.1427929 41.087028,40.5515749 0.0026,-0.188535 0.0357,-0.382016 0.0357,-0.571149 0,-22.672962 -18.448774,-41.1227238 -41.122725,-41.1227238 z M 71.854101,19.469617 c -3.217404,0.415894 -5.425915,3.382753 -5.425915,6.532516 0,0.172068 0.02478,0.330507 0.0357,0.499755 0.298297,-3.148915 2.770786,-5.92567 6.175548,-5.92567 0.164046,0 0.304954,-0.0099 0.464059,0 -0.411104,-0.37664 -0.82145,-0.748595 -1.249388,-1.106601 z m -42.372113,6.532516 c 0,0 -5.986363,0.464058 -9.852319,0.464058 -0.462385,0 -1.022225,-0.02106 -1.57066,-0.0357 -0.265178,0.371918 -0.533718,0.724669 -0.78533,1.106601 0.867667,0.02768 1.662253,0.07139 2.35599,0.07139 3.865956,0 9.852319,-0.464058 9.852319,-0.464058 0.777174,-0.04549 1.282824,0.353444 1.499266,0.89242 0.326842,-0.920761 -0.197174,-2.110931 -1.499266,-2.034718 z m 7.817601,0 c -1.039968,0.149203 -1.469869,1.273267 -1.177995,2.106112 0.203143,-0.572095 0.73954,-1.010348 1.534963,-0.963814 0,0 6.112496,0.464058 9.745229,0.464058 3.865957,0 9.816623,-0.464058 9.816623,-0.464058 0.780062,-0.04566 1.319667,0.350532 1.534963,0.89242 0.318163,-0.919392 -0.238269,-2.110616 -1.534963,-2.034718 0,0 -5.950666,0.464058 -9.816623,0.464058 -3.632733,0 -9.745229,-0.464058 -9.745229,-0.464058 -0.124579,-0.0073 -0.246333,-0.01588 -0.356968,0 z m 43.30023,4.105133 c 0.140322,1.038069 0.231772,2.174813 0.249878,3.3555 0.0051,-0.225951 0,-0.455703 0,-0.678239 0,-0.850184 -0.04253,-1.649526 -0.107091,-2.427383 -0.04478,-0.08326 -0.09738,-0.167004 -0.142787,-0.249878 z M 25.87661,30.464234 c -0.133965,0.0079 -0.220881,0.02857 -0.356968,0.0357 l 13.422,40.05182 L 47.044818,46.313617 46.830637,45.778165 38.941642,69.409453 25.87661,30.464234 z m 27.736421,0 c -0.133873,0.0079 -0.221003,0.02857 -0.356968,0.0357 L 66.60667,70.266179 70.283441,57.95078 c 1.873685,-4.803786 2.820048,-8.795106 2.820048,-11.958431 0,-0.161694 -0.03163,-0.305896 -0.0357,-0.464058 -0.122534,3.049696 -1.041637,6.812193 -2.784351,11.280191 L 66.60667,69.123879 53.613031,30.464234 z m 31.484586,16.706107 c -0.164291,13.229083 -7.267652,24.76267 -17.848405,31.163314 l -0.499755,1.46357 C 77.740551,73.389539 85.133314,61.488132 85.133314,47.84858 c 0,-0.227993 -0.0316,-0.451223 -0.0357,-0.678239 z m -73.892395,0.07139 c -0.0033,0.202769 -0.0357,0.40328 -0.0357,0.606846 0,14.633711 8.513825,27.313485 20.846936,33.305123 L 31.516706,79.725831 C 19.610159,73.711027 11.4062,61.445988 11.205222,47.241734 z M 60.00276,81.724852 c -3.721296,1.260074 -7.703887,1.963325 -11.851341,1.963325 -3.49689,0 -6.861489,-0.483785 -10.0665,-1.392176 l -0.356968,1.035208 c 3.312547,0.974391 6.795675,1.499266 10.423468,1.499266 4.305719,0 8.437464,-0.753232 12.279703,-2.106112 -0.09882,-0.158117 -0.174772,-0.316931 -0.249878,-0.499755 L 60.00276,81.724852 z"
       inkscape:connector-curvature="0"
       id="path4052"
       style="opacity:0.4;fill:#000000;fill-opacity:1;fill-rule:nonzero;stroke:none" />
    <path
       d="m 48.151419,10.866686 c -12.916167,0 -24.266481,6.634933 -30.87774,16.67041 0.289355,0.0093 0.510924,0.02837 0.78533,0.0357 6.70253,-9.400474 17.667808,-15.563809 30.09241,-15.563809 9.023776,0 17.283613,3.232832 23.702682,8.602931 0.2541,-0.03284 0.519498,-0.0357 0.785329,-0.0357 0.164046,0 0.304954,-0.0099 0.464059,0 -6.57766,-6.026227 -15.326709,-9.709532 -24.95207,-9.709532 z m 18.312463,16.813197 c -0.01776,0.198466 -0.0357,0.406202 -0.0357,0.606846 0,3.046714 1.76739,5.627611 3.641074,8.674324 1.356503,2.374594 2.887725,5.396964 2.998532,9.709533 0.0093,-0.229197 0.0357,-0.457122 0.0357,-0.67824 0,-4.570563 -1.627977,-7.711909 -3.034229,-10.173591 -1.76034,-2.86241 -3.411193,-5.326483 -3.605378,-8.138872 z m -35.482628,1.499266 c -0.173244,0.488054 -0.559893,0.917689 -1.249388,0.999511 0,0 -1.984753,0.204661 -4.212224,0.321271 l 0.356968,1.106601 c 2.058776,-0.121213 3.855256,-0.285574 3.855256,-0.285574 1.213892,-0.144052 1.58779,-1.299129 1.249388,-2.141809 z m 27.772118,0 c -0.170671,0.493184 -0.589508,0.917048 -1.285086,0.999511 0,0 -1.986729,0.204661 -4.212223,0.321271 l 0.356968,1.106601 c 2.057353,-0.121213 3.855255,-0.285574 3.855255,-0.285574 1.212209,-0.14371 1.619653,-1.29972 1.285086,-2.141809 z m -22.631778,0.07139 c -0.305914,0.861522 0.08725,1.999744 1.285086,2.070415 0,0 1.898679,0.20466 3.890952,0.321271 l 5.533005,15.278234 0.214181,-0.606846 -5.747186,-15.813686 C 39.305359,30.383321 37.40668,30.17866 37.40668,30.17866 36.709038,30.137503 36.295477,29.746705 36.121594,29.250543 z m 44.478225,0.856723 c 0.0597,0.441637 0.104006,0.925005 0.142787,1.392176 2.699547,5.01887 4.245321,10.74106 4.355011,16.813197 0.0019,-0.155852 0.0357,-0.307744 0.0357,-0.464059 0,-6.427448 -1.648851,-12.476023 -4.533495,-17.741314 z m -66.217581,2.712958 c -2.050578,4.598234 -3.212713,9.668196 -3.212713,15.028356 0,0.178362 0.03318,0.357687 0.0357,0.535452 0.08447,-5.136363 1.204315,-9.997906 3.177016,-14.421511 l 17.134468,46.905608 c 0.169928,0.08584 0.328332,0.202294 0.499755,0.285574 L 14.382238,32.820224 z m 66.467459,1.78484 c -0.08118,3.581929 -0.835373,7.604051 -2.820048,12.565277 L 66.749457,79.797225 c 0.173114,-0.100922 0.328443,-0.217639 0.499755,-0.321272 L 78.029649,48.312639 c 2.109871,-5.274185 2.820048,-9.493183 2.820048,-13.243517 0,-0.160608 0.0024,-0.306059 0,-0.464058 z M 7.064392,48.419729 c -0.00264,0.191715 -0.035697,0.378819 -0.035697,0.571149 0,22.673946 18.4497618,41.122724 41.1227238,41.122724 22.673951,0 41.122725,-18.448778 41.122725,-41.122724 0,-0.19233 -0.03305,-0.379434 -0.0357,-0.571149 -0.304433,22.41373 -18.60221,40.551576 -41.087028,40.551576 -22.483838,0 -40.7829839,-18.137846 -41.087027,-40.551576 z m 41.72957,2.677261 -11.066011,32.234219 c 0.119528,0.03516 0.236991,0.07308 0.356968,0.10709 L 48.793962,52.239288 60.00276,82.86715 c 0.142002,-0.04808 0.287134,-0.09306 0.428362,-0.142787 -0.09882,-0.158117 -0.174772,-0.316931 -0.249878,-0.499755 L 48.793962,51.09699 z"
       inkscape:connector-curvature="0"
       id="path4057"
       style="opacity:0.3;fill:#000000;fill-opacity:1;fill-rule:nonzero;stroke:none" />
  </g>
</svg>
