<?xml version="1.0" encoding="UTF-8" standalone="no"?>
<!-- Created with Inkscape (http://www.inkscape.org/) -->
<svg id="svg4501" xmlns:rdf="http://www.w3.org/1999/02/22-rdf-syntax-ns#" xmlns="http://www.w3.org/2000/svg" height="128" width="128" version="1.1" xmlns:cc="http://creativecommons.org/ns#" xmlns:xlink="http://www.w3.org/1999/xlink" xmlns:dc="http://purl.org/dc/elements/1.1/">
 <defs id="defs4503">
  <linearGradient id="linearGradient2959" y2="43" gradientUnits="userSpaceOnUse" x2="24" gradientTransform="matrix(2.7838 0 0 2.7838 -3.2021 -66.419)" y1="5" x1="24">
   <stop id="stop3926" style="stop-color:#fff" offset="0"/>
   <stop id="stop3928" style="stop-color:#fff;stop-opacity:.23529" offset=".063165"/>
   <stop id="stop3930" style="stop-color:#fff;stop-opacity:.15686" offset=".95056"/>
   <stop id="stop3932" style="stop-color:#fff;stop-opacity:.39216" offset="1"/>
  </linearGradient>
  <radialGradient id="radialGradient2962" gradientUnits="userSpaceOnUse" cy="8.4498" cx="7.4957" gradientTransform="matrix(5.2307e-8 6.2919 -6.6561 -1.1592e-7 119.85 -97.702)" r="20">
   <stop id="stop5616" style="stop-color:#71a0cf" offset="0"/>
   <stop id="stop5938" style="stop-color:#4178af" offset=".5"/>
   <stop id="stop5618" style="stop-color:#315680" offset="1"/>
  </radialGradient>
  <linearGradient id="linearGradient2964" y2="3.899" gradientUnits="userSpaceOnUse" x2="24" gradientTransform="matrix(2.6923 0 0 2.6923 -1.0067 -64.224)" y1="44" x1="24">
   <stop id="stop5622" style="stop-color:#203142" offset="0"/>
   <stop id="stop5624" style="stop-color:#5279a4" offset="1"/>
  </linearGradient>
  <filter id="filter6181">
   <feGaussianBlur id="feGaussianBlur6183" stdDeviation="1.6001681"/>
  </filter>
  <linearGradient id="linearGradient4631" y2="35" gradientUnits="userSpaceOnUse" x2="30" gradientTransform="matrix(3.0659 0 0 3.0673 -13.331 -69.007)" y1="24" x1="30">
   <stop id="stop3795-4" style="stop-color:#ffb100" offset="0"/>
   <stop id="stop3797-1" style="stop-color:#ffb100;stop-opacity:0" offset="1"/>
  </linearGradient>
  <linearGradient id="linearGradient4634" y2="28" gradientUnits="userSpaceOnUse" x2="25" gradientTransform="matrix(3.0659 0 0 3.0673 -13.331 -69.007)" y1="11.489" x1="25">
   <stop id="stop3736-5" style="stop-color:#cbf44b" offset="0"/>
   <stop id="stop3738-0" style="stop-color:#cbf44b;stop-opacity:0" offset="1"/>
  </linearGradient>
  <linearGradient id="linearGradient4640" y2="10.979" gradientUnits="userSpaceOnUse" x2="17" gradientTransform="matrix(3.0667 0 0 3.0833 35.509 -68.025)" y1="35" x1="17">
   <stop id="stop4487-2" style="stop-color:#fff" offset="0"/>
   <stop id="stop4489-0" style="stop-color:#fff;stop-opacity:0" offset="1"/>
  </linearGradient>
 </defs>
 <metadata id="metadata4506">
  <rdf:RDF>
   <cc:Work rdf:about="">
    <dc:format>image/svg+xml</dc:format>
    <dc:type rdf:resource="http://purl.org/dc/dcmitype/StillImage"/>
    <dc:title/>
   </cc:Work>
  </rdf:RDF>
 </metadata>
 <g id="layer1" transform="translate(.39130 63.608)">
  <rect id="rect5505-2" style="opacity:.4;color:#000000;filter:url(#filter6181)" transform="matrix(1.7299 0 0 1.6462 1.3326 -42.965)" rx="3.072" ry="3.1624" height="64" width="64" y="-3.84" x="4"/>
  <rect id="rect5505" style="stroke-linejoin:round;color:#000000;stroke:url(#linearGradient2964);stroke-linecap:round;fill:url(#radialGradient2962)" rx="5" ry="5" height="105" width="105" y="-52.108" x="11.109"/>
  <rect id="rect6741" style="opacity:.5;stroke-linejoin:round;stroke:url(#linearGradient2959);stroke-linecap:round;fill:none" rx="4" ry="4" height="103" width="103" y="-51.108" x="12.109"/>
  <path id="path4409-0-36" style="opacity:.2;stroke:url(#linearGradient4640);stroke-width:1px;fill:none" d="m86.109-34.108v74m-15-74v74m-16-74v74m-15-74v74"/>
  <path id="path3251" style="stroke:#cbf44b;stroke-linecap:round;fill:none" d="m95.507-24.299-9.4067-9.4336-15.784 17.239-5.1877-6.6174-10.798 17.612-11.183 1.4294-12.024 7.1449"/>
  <path id="path3231" style="stroke:#ffb100;stroke-linecap:round;fill:none" d="m95.507 23.45-7.0797 1.9493-7.7154-7.0376-12.986 9.2519-10.39-21.471-7.797 12.99-8.9863-5.3724-9.4284 7.1475"/>
  <path id="path3641-1" style="opacity:.7;fill:#fff" d="m24.109-40.608 2.25 4.5 2.25 4.5h-4.5-4.5l2.25-4.5 2.25-4.5z"/>
  <path id="path3251-9" style="opacity:.2;color:#000000;fill:url(#linearGradient4634)" d="m31.124 3.0751v13.803h64.383v-41.177l-9.4067-9.4336-15.784 17.239-5.1877-6.6174-10.798 17.612-11.183 1.4294-12.024 7.1449z"/>
  <path id="path3231-8" style="opacity:.4;color:#000000;fill:url(#linearGradient4631)" d="m31.124 20.907v17.442h64.383v-14.899l-7.0797 1.9493-7.7154-7.0376-12.986 9.2518-10.39-21.471-7.797 12.99-8.9863-5.3724-9.4284 7.1475z"/>
  <path id="path5940-4" style="opacity:.5;stroke:#fff;stroke-width:1px;fill:none" d="m20.609 27.892h3m-3-17h3m-3-15h3m-3-15h3m76.495 60h-79.495m3.5303-72.5v76.092"/>
  <path id="path3641-1-3" style="opacity:.7;fill:#fff" d="m108.61 40.892-4.5 2.25-4.5 2.25v-4.5-4.5l4.5 2.25 4.5 2.25z"/>
 </g>
</svg>
