<?xml version="1.0" encoding="UTF-8" standalone="no"?>
<!-- Created with Inkscape (http://www.inkscape.org/) -->

<svg
   xmlns:dc="http://purl.org/dc/elements/1.1/"
   xmlns:cc="http://creativecommons.org/ns#"
   xmlns:rdf="http://www.w3.org/1999/02/22-rdf-syntax-ns#"
   xmlns:svg="http://www.w3.org/2000/svg"
   xmlns="http://www.w3.org/2000/svg"
   xmlns:xlink="http://www.w3.org/1999/xlink"
   xmlns:sodipodi="http://sodipodi.sourceforge.net/DTD/sodipodi-0.dtd"
   xmlns:inkscape="http://www.inkscape.org/namespaces/inkscape"
   id="svg2285"
   height="128"
   width="128"
   version="1.1"
   inkscape:version="0.48.1 r9760"
   sodipodi:docname="gnome-panel-window-list.svg">
  <metadata
     id="metadata59">
    <rdf:RDF>
      <cc:Work
         rdf:about="">
        <dc:format>image/svg+xml</dc:format>
        <dc:type
           rdf:resource="http://purl.org/dc/dcmitype/StillImage" />
      </cc:Work>
    </rdf:RDF>
  </metadata>
  <sodipodi:namedview
     pagecolor="#ffffff"
     bordercolor="#666666"
     borderopacity="1"
     objecttolerance="10"
     gridtolerance="10"
     guidetolerance="10"
     inkscape:pageopacity="0"
     inkscape:pageshadow="2"
     inkscape:window-width="1286"
     inkscape:window-height="821"
     id="namedview57"
     showgrid="false"
     inkscape:zoom="4.9453125"
     inkscape:cx="64"
     inkscape:cy="64"
     inkscape:window-x="0"
     inkscape:window-y="24"
     inkscape:window-maximized="0"
     inkscape:current-layer="svg2285" />
  <defs
     id="defs2287">
    <linearGradient
       id="linearGradient4433">
      <stop
         id="stop4435"
         offset="0" />
      <stop
         id="stop4437"
         offset=".029774" />
      <stop
         id="stop4439"
         style="stop-color:#fff"
         offset=".10123" />
      <stop
         id="stop4441"
         style="stop-color:#fff"
         offset=".89621" />
      <stop
         id="stop4443"
         offset=".96932" />
      <stop
         id="stop4445"
         offset="1" />
    </linearGradient>
    <linearGradient
       id="linearGradient2181">
      <stop
         id="stop2183"
         style="stop-color:#f0f0f0"
         offset="0" />
      <stop
         id="stop2185"
         style="stop-color:#d3d3d3"
         offset="1" />
    </linearGradient>
    <linearGradient
       id="linearGradient3781">
      <stop
         id="stop3783"
         style="stop-color:#fff"
         offset="0" />
      <stop
         id="stop3785"
         style="stop-color:#fff;stop-opacity:0"
         offset="1" />
    </linearGradient>
    <linearGradient
       id="linearGradient3062"
       y2="48.794998"
       xlink:href="#linearGradient2181"
       gradientUnits="userSpaceOnUse"
       x2="21.039"
       gradientTransform="matrix(1,0,0,1.0043,0,-6.0233)"
       y1="23.933001"
       x1="21.299" />
    <radialGradient
       id="radialGradient3838"
       xlink:href="#linearGradient2181"
       gradientUnits="userSpaceOnUse"
       cy="30.538"
       cx="14.644"
       gradientTransform="matrix(3.0913,0.051873,-0.016971,1.0114,-30.106,-1.107)"
       r="23.969" />
    <linearGradient
       id="linearGradient3840"
       y2="47.827"
       xlink:href="#linearGradient3781"
       gradientUnits="userSpaceOnUse"
       x2="19.546"
       gradientTransform="matrix(1.043,0,0,1.0043,-1.0323,-6.0233)"
       y1="24.924999"
       x1="19.363001" />
    <radialGradient
       id="radialGradient3842"
       xlink:href="#linearGradient3781"
       gradientUnits="userSpaceOnUse"
       cy="26.062"
       cx="9.4685001"
       gradientTransform="matrix(2.4482,-0.0071406,0.0012606,0.4322,-13.669,16.565)"
       r="24.016001" />
    <linearGradient
       id="linearGradient4285"
       y2="15.044"
       gradientUnits="userSpaceOnUse"
       x2="16.075001"
       gradientTransform="matrix(0.29033,0,0,0.27587,12.742,23.879)"
       y1="9.0734997"
       x1="16.034">
      <stop
         id="stop3692"
         style="stop-color:#fff"
         offset="0" />
      <stop
         id="stop3694"
         style="stop-color:#fff;stop-opacity:.46875"
         offset="1" />
    </linearGradient>
    <linearGradient
       id="linearGradient4288"
       y2="39.924"
       gradientUnits="userSpaceOnUse"
       x2="21.780001"
       gradientTransform="matrix(0.33334,0,0,0.32787,11.667,22.549)"
       y1="8.5762997"
       x1="21.865999">
      <stop
         id="stop2783"
         style="stop-color:#505050"
         offset="0" />
      <stop
         id="stop6301"
         style="stop-color:#6e6e6e"
         offset=".13216" />
      <stop
         id="stop2785"
         style="stop-color:#8c8c8c"
         offset="1" />
    </linearGradient>
    <linearGradient
       id="linearGradient4451"
       y2="30"
       xlink:href="#linearGradient4433"
       gradientUnits="userSpaceOnUse"
       x2="49"
       y1="30"
       x1="-1" />
    <mask
       id="mask4447">
      <rect
         id="rect4449"
         style="fill:url(#linearGradient4451)"
         height="27"
         width="50"
         y="17"
         x="-1" />
    </mask>
    <mask
       id="mask4453">
      <rect
         id="rect4455"
         style="fill:url(#linearGradient4451)"
         height="27"
         width="50"
         y="17"
         x="-1" />
    </mask>
    <mask
       id="mask4459">
      <rect
         id="rect4461"
         style="fill:url(#linearGradient4451)"
         height="27"
         width="50"
         y="17"
         x="-1" />
    </mask>
    <mask
       id="mask4465">
      <rect
         id="rect4467"
         style="fill:url(#linearGradient4451)"
         height="27"
         width="50"
         y="17"
         x="-1" />
    </mask>
    <mask
       id="mask4471">
      <rect
         id="rect4473"
         style="fill:url(#linearGradient4451)"
         height="27"
         width="50"
         y="17"
         x="-1" />
    </mask>
    <mask
       id="mask4477">
      <rect
         id="rect4479"
         style="fill:url(#linearGradient4451)"
         height="27"
         width="50"
         y="17"
         x="-1" />
    </mask>
    <mask
       id="mask4483">
      <rect
         id="rect4485"
         style="fill:url(#linearGradient4451)"
         height="27"
         width="50"
         y="17"
         x="-1" />
    </mask>
    <mask
       id="mask4489">
      <rect
         id="rect4491"
         style="fill:url(#linearGradient4451)"
         height="27"
         width="50"
         y="17"
         x="-1" />
    </mask>
    <linearGradient
       id="linearGradient3952"
       y2="23"
       gradientUnits="userSpaceOnUse"
       x2="23"
       y1="20"
       x1="23"
       gradientTransform="matrix(2.5930728,0,0,2.5930728,2.1449059,-4.53629)">
      <stop
         id="stop4170"
         style="stop-color:#f8cd70"
         offset="0" />
      <stop
         id="stop4172"
         style="stop-color:#cc9110"
         offset="1" />
    </linearGradient>
    <radialGradient
       r="2.5"
       fy="43.5"
       fx="4.9929786"
       cy="43.5"
       cx="4.9929786"
       gradientTransform="matrix(5.8062767,0,0,2.1077211,54.115223,-4.379699)"
       gradientUnits="userSpaceOnUse"
       id="radialGradient3539"
       xlink:href="#linearGradient3688-166-749"
       inkscape:collect="always" />
    <linearGradient
       id="linearGradient3688-166-749">
      <stop
         id="stop2883"
         style="stop-color:#181818;stop-opacity:1"
         offset="0" />
      <stop
         id="stop2885"
         style="stop-color:#181818;stop-opacity:0"
         offset="1" />
    </linearGradient>
    <linearGradient
       gradientTransform="matrix(2.4399502,0,0,1.5055151,-9.5919298,21.816264)"
       x1="25.058096"
       y1="47.027729"
       x2="25.058096"
       y2="39.999443"
       id="linearGradient2459"
       xlink:href="#linearGradient3702-501-757"
       gradientUnits="userSpaceOnUse" />
    <linearGradient
       id="linearGradient3702-501-757">
      <stop
         id="stop2895"
         style="stop-color:#181818;stop-opacity:0"
         offset="0" />
      <stop
         id="stop2897"
         style="stop-color:#181818;stop-opacity:1"
         offset="0.5" />
      <stop
         id="stop2899"
         style="stop-color:#181818;stop-opacity:0"
         offset="1" />
    </linearGradient>
    <radialGradient
       inkscape:collect="always"
       xlink:href="#linearGradient3688-166-749"
       id="radialGradient3813"
       gradientUnits="userSpaceOnUse"
       gradientTransform="matrix(5.8062767,0,0,2.1077211,-43.85871,-4.4077235)"
       cx="4.9929786"
       cy="43.5"
       fx="4.9929786"
       fy="43.5"
       r="2.5" />
    <linearGradient
       id="linearGradient7379">
      <stop
         id="stop7381"
         style="stop-color:#181818;stop-opacity:1"
         offset="0" />
      <stop
         id="stop7383"
         style="stop-color:#181818;stop-opacity:0"
         offset="1" />
    </linearGradient>
    <radialGradient
       inkscape:collect="always"
       xlink:href="#linearGradient7012-661-145-733-759-865-745-661-970-94-8"
       id="radialGradient2990"
       gradientUnits="userSpaceOnUse"
       gradientTransform="matrix(4.1550351e-8,4.8766338,-5.2872485,-8.9846206e-8,92.704634,-28.903208)"
       cx="7.4956832"
       cy="8.4497671"
       fx="7.4956832"
       fy="8.4497671"
       r="19.99999" />
    <linearGradient
       id="linearGradient7012-661-145-733-759-865-745-661-970-94-8">
      <stop
         id="stop3618-1"
         style="stop-color:#f2f2f2;stop-opacity:1;"
         offset="0" />
      <stop
         id="stop3270-2"
         style="stop-color:#e2e2e2;stop-opacity:1;"
         offset="0.5" />
      <stop
         id="stop3620-8"
         style="stop-color:#bfbfbf;stop-opacity:1;"
         offset="1" />
    </linearGradient>
    <linearGradient
       inkscape:collect="always"
       xlink:href="#linearGradient3688-464-309"
       id="linearGradient3809"
       gradientUnits="userSpaceOnUse"
       gradientTransform="matrix(2.1386324,0,0,2.0867157,-3.2988007,-2.9553176)"
       x1="24"
       y1="44"
       x2="24"
       y2="3.8990016" />
    <linearGradient
       id="linearGradient3688-464-309">
      <stop
         id="stop2889"
         style="stop-color:#6a6a6a;stop-opacity:1;"
         offset="0" />
      <stop
         id="stop2891"
         style="stop-color:#7d7d7d;stop-opacity:0.78106511;"
         offset="1" />
    </linearGradient>
    <linearGradient
       x1="32"
       y1="16"
       x2="32"
       y2="6"
       id="linearGradient3880"
       xlink:href="#linearGradient3761"
       gradientUnits="userSpaceOnUse"
       gradientTransform="matrix(-1,0,0,1,96,0)" />
    <linearGradient
       id="linearGradient3761">
      <stop
         id="stop3763"
         style="stop-color:#333333;stop-opacity:1"
         offset="0" />
      <stop
         id="stop3765"
         style="stop-color:#515151;stop-opacity:1"
         offset="1" />
    </linearGradient>
    <linearGradient
       inkscape:collect="always"
       xlink:href="#linearGradient3737"
       id="linearGradient3302"
       gradientUnits="userSpaceOnUse"
       x1="36.357143"
       y1="6"
       x2="36.357143"
       y2="63.893143"
       gradientTransform="matrix(-1,0,0,1,96,0)" />
    <linearGradient
       id="linearGradient3737">
      <stop
         id="stop3739"
         style="stop-color:#ffffff;stop-opacity:1"
         offset="0" />
      <stop
         id="stop3741"
         style="stop-color:#ffffff;stop-opacity:0"
         offset="1" />
    </linearGradient>
    <linearGradient
       x1="9.1875"
       y1="13"
       x2="16.8125"
       y2="13"
       id="linearGradient3959"
       xlink:href="#linearGradient3953"
       gradientUnits="userSpaceOnUse"
       gradientTransform="matrix(0,-0.83333333,-0.83333333,0,92.833333,23.333334)" />
    <linearGradient
       id="linearGradient3953">
      <stop
         id="stop3955"
         style="stop-color:#000000;stop-opacity:1"
         offset="0" />
      <stop
         id="stop3957"
         style="stop-color:#000000;stop-opacity:0"
         offset="1" />
    </linearGradient>
    <linearGradient
       x1="10"
       y1="13"
       x2="16"
       y2="13"
       id="linearGradient3924"
       xlink:href="#linearGradient3183-0"
       gradientUnits="userSpaceOnUse"
       gradientTransform="matrix(0,-0.83333333,-0.83333333,0,92.833333,23.333334)" />
    <linearGradient
       id="linearGradient3183-0">
      <stop
         id="stop3185-9"
         style="stop-color:#c80000;stop-opacity:1"
         offset="0" />
      <stop
         id="stop3187-6"
         style="stop-color:#f3604d;stop-opacity:1"
         offset="1" />
    </linearGradient>
    <linearGradient
       x1="9.1875"
       y1="13"
       x2="16.8125"
       y2="13"
       id="linearGradient3967"
       xlink:href="#linearGradient3953"
       gradientUnits="userSpaceOnUse"
       gradientTransform="matrix(0,-0.83333333,-0.83333333,0,86.833333,23.333334)" />
    <linearGradient
       id="linearGradient7411">
      <stop
         id="stop7413"
         style="stop-color:#000000;stop-opacity:1"
         offset="0" />
      <stop
         id="stop7415"
         style="stop-color:#000000;stop-opacity:0"
         offset="1" />
    </linearGradient>
    <linearGradient
       x1="10"
       y1="13"
       x2="16"
       y2="13"
       id="linearGradient3969"
       xlink:href="#linearGradient3637"
       gradientUnits="userSpaceOnUse"
       gradientTransform="matrix(0,0.83333333,-0.83333333,0,86.833333,1.6666674)" />
    <linearGradient
       id="linearGradient3637">
      <stop
         id="stop3639"
         style="stop-color:#d4d4d4;stop-opacity:1"
         offset="0" />
      <stop
         id="stop3641"
         style="stop-color:#797979;stop-opacity:1"
         offset="1" />
    </linearGradient>
    <linearGradient
       x1="9.1875"
       y1="13"
       x2="16.8125"
       y2="13"
       id="linearGradient3977"
       xlink:href="#linearGradient3953"
       gradientUnits="userSpaceOnUse"
       gradientTransform="matrix(0,-0.83333333,-0.83333333,0,80.833333,23.333334)" />
    <linearGradient
       id="linearGradient7422">
      <stop
         id="stop7424"
         style="stop-color:#000000;stop-opacity:1"
         offset="0" />
      <stop
         id="stop7426"
         style="stop-color:#000000;stop-opacity:0"
         offset="1" />
    </linearGradient>
    <linearGradient
       x1="10"
       y1="13"
       x2="16"
       y2="13"
       id="linearGradient3979"
       xlink:href="#linearGradient3637"
       gradientUnits="userSpaceOnUse"
       gradientTransform="matrix(0,0.83333333,-0.83333333,0,80.833333,1.6666674)" />
    <linearGradient
       id="linearGradient7429">
      <stop
         id="stop7431"
         style="stop-color:#d4d4d4;stop-opacity:1"
         offset="0" />
      <stop
         id="stop7433"
         style="stop-color:#797979;stop-opacity:1"
         offset="1" />
    </linearGradient>
    <linearGradient
       x1="9.1875"
       y1="13"
       x2="16.8125"
       y2="13"
       id="linearGradient3987"
       xlink:href="#linearGradient3953"
       gradientUnits="userSpaceOnUse"
       gradientTransform="matrix(0,-0.83333333,-0.83333333,0,24.833333,23.333334)" />
    <linearGradient
       id="linearGradient7436">
      <stop
         id="stop7438"
         style="stop-color:#000000;stop-opacity:1"
         offset="0" />
      <stop
         id="stop7440"
         style="stop-color:#000000;stop-opacity:0"
         offset="1" />
    </linearGradient>
    <linearGradient
       x1="10"
       y1="13"
       x2="16"
       y2="13"
       id="linearGradient3989"
       xlink:href="#linearGradient3761"
       gradientUnits="userSpaceOnUse"
       gradientTransform="matrix(0,-0.83333333,-0.83333333,0,24.833333,23.333334)" />
    <linearGradient
       id="linearGradient7443">
      <stop
         id="stop7445"
         style="stop-color:#333333;stop-opacity:1"
         offset="0" />
      <stop
         id="stop7447"
         style="stop-color:#515151;stop-opacity:1"
         offset="1" />
    </linearGradient>
  </defs>
  <rect
     id="rect3734"
     style="fill:url(#linearGradient3062);stroke:#969696;stroke-linejoin:round"
     transform="matrix(2.5930728,0,0,2.5930728,2.1449059,-17.455756)"
     mask="url(#mask4489)"
     rx="0"
     ry="0"
     height="23.969"
     width="47.055"
     y="18.513"
     x="0.52149999" />
  <path
     id="rect3762"
     style="fill:url(#radialGradient3838);stroke:#787878;stroke-linejoin:round"
     mask="url(#mask4483)"
     d="m 0.53125,21.546 v 17.988 h 6.6562 c 0.13641,0 0.28274,-0.02389 0.40625,-0.0625 0.19344,-0.0658 0.39032,-0.20151 0.53125,-0.34375 0.065144,-0.06897 0.13825,-0.16803 0.1875,-0.25 0.1105,-0.195 0.1876,-0.447 0.1876,-0.688 v -15.301 c 0,-0.24092 -0.077064,-0.49323 -0.1875,-0.6875 -0.049248,-0.08197 -0.12236,-0.18103 -0.1875,-0.25 C 7.98412,21.80901 7.78724,21.6733 7.5938,21.6075 7.47029,21.56889 7.32396,21.545 7.18755,21.545 h -6.6562 z m 11.125,0 c -0.07685,0.0098 -0.17795,0.03998 -0.25,0.0625 -0.19344,0.0658 -0.39032,0.20151 -0.53125,0.34375 -0.06514,0.06897 -0.13825,0.16803 -0.1875,0.25 -0.11044,0.19427 -0.1875,0.44658 -0.1875,0.6875 v 15.301 c 0,0.24092 0.07706,0.49323 0.1875,0.6875 0.04925,0.08197 0.12236,0.18103 0.1875,0.25 0.14093,0.14224 0.33781,0.27795 0.53125,0.34375 0.12351,0.03861 0.26984,0.0625 0.40625,0.0625 h 35.656 v -17.988 h -35.656 c -0.05684,0 -0.10136,-0.007 -0.15625,0 z"
     transform="matrix(2.5930728,0,0,2.5930728,2.1449059,-17.455756)"
     inkscape:connector-curvature="0" />
  <path
     id="rect3736"
     style="opacity:0.90979997;fill:none;stroke:url(#radialGradient3842);stroke-linejoin:round"
     mask="url(#mask4477)"
     d="m 0.46875,22.563 v 15.892 h 6.4062 c 0.094436,0 0.20173,-0.02429 0.28125,-0.0625 0.14602,-0.07913 0.27028,-0.24139 0.3125,-0.40625 0.008,-0.04 0.0312,-0.083 0.0312,-0.125 v -14.673 C 7.4999,23.00987 7.403016,22.83022 7.28115,22.7195 7.251239,22.69484 7.190507,22.64437 7.15615,22.62575 7.076627,22.58754 6.96934,22.56325 6.8749,22.56325 H 0.4687 z m 11.531,0 c -0.07037,0.01069 -0.15862,0.06117 -0.21875,0.09375 -0.02499,0.01515 -0.07132,0.044 -0.09375,0.0625 -0.01434,0.01303 -0.04947,0.04816 -0.0625,0.0625 -0.0185,0.02243 -0.04735,0.06876 -0.0625,0.09375 -0.04654,0.08589 -0.09375,0.20757 -0.09375,0.3125 v 14.673 c 0,0.05246 0.01883,0.10776 0.03125,0.15625 0.01766,0.057 0.06114,0.13915 0.09375,0.1875 0.11033,0.14771 0.30063,0.25 0.5,0.25 h 35.406 v -15.892 h -35.406 c -0.03148,0 -0.06359,-0.0046 -0.09375,0 z"
     transform="matrix(2.5930728,0,0,2.5930728,2.1449059,-17.455756)"
     inkscape:connector-curvature="0" />
  <rect
     id="rect3752"
     style="opacity:0.1"
     transform="matrix(2.5930728,0,0,2.5930728,2.1449059,-17.455756)"
     mask="url(#mask4471)"
     rx="0.5625"
     ry="0.5625"
     height="5"
     width="19"
     y="28"
     x="29" />
  <rect
     id="rect2247"
     style="opacity:0.8;fill:none;stroke:url(#linearGradient3840);stroke-linejoin:round"
     transform="matrix(2.5930728,0,0,2.5930728,2.1449059,-17.455756)"
     mask="url(#mask4465)"
     rx="0"
     ry="0"
     height="22"
     width="47.591"
     y="19.51"
     x="0.40904" />
  <g
     id="layer1"
     transform="matrix(0.45612254,0,0,0.45612254,32.65752,39.802322)">
    <rect
       width="14.48828"
       height="10.538606"
       x="83.126175"
       y="82.036865"
       id="rect2801"
       style="opacity:0.4;fill:url(#radialGradient3539);fill-opacity:1;stroke:none;display:inline" />
    <rect
       width="68.318604"
       height="10.538606"
       x="14.80757"
       y="82.036865"
       id="rect3700"
       style="opacity:0.4;fill:url(#linearGradient2459);fill-opacity:1;stroke:none;display:inline" />
    <rect
       style="opacity:0.4;fill:url(#radialGradient3813);fill-opacity:1;stroke:none;display:inline"
       id="rect3811"
       y="82.008835"
       x="-14.847754"
       height="10.538606"
       width="14.48828"
       transform="scale(-1,1)" />
    <rect
       style="color:#000000;fill:url(#radialGradient2990);fill-opacity:1;fill-rule:nonzero;stroke:url(#linearGradient3809);stroke-width:0.79988414;stroke-linecap:round;stroke-linejoin:round;stroke-miterlimit:4;stroke-opacity:1;stroke-dasharray:none;stroke-dashoffset:0;marker:none;visibility:visible;display:inline;overflow:visible;enable-background:accumulate"
       id="rect5505-21"
       y="6.4349051"
       x="6.3250494"
       ry="4.7406936"
       rx="4.8586407"
       height="81.381905"
       width="83.40667" />
    <path
       d="m 84,6 c 3.324,0 6,2.676 6,6 l 0,8 -84,0 0,-8 C 6,8.676 8.676,6 12,6 z"
       inkscape:connector-curvature="0"
       id="rect3101"
       style="color:#000000;fill:url(#linearGradient3880);fill-opacity:1;fill-rule:nonzero;stroke:none;stroke-width:1;marker:none;visibility:visible;display:inline;overflow:visible;enable-background:accumulate" />
    <path
       d="m 84,6 c 3.324,0 6,2.676 6,6 l 0,2 0,6 -1,0 0,-5 0,-2 C 89,10.218152 86.781848,8 84,8 L 82,8 14,8 12,8 C 9.218152,8 7,10.218152 7,13 l 0,2 0,5 -1,0 0,-6 0,-2 C 6,8.676 8.676,6 12,6 l 72,0 z"
       inkscape:connector-curvature="0"
       id="path3882"
       style="opacity:0.05;fill:url(#linearGradient3302);fill-opacity:1;fill-rule:nonzero;stroke:none" />
    <path
       d="m 85.177083,12.500001 c 0,1.740142 -1.43694,3.177083 -3.177083,3.177083 -1.740142,0 -3.177083,-1.436941 -3.177083,-3.177083 0,-1.740143 1.436941,-3.1770836 3.177083,-3.1770836 1.740143,0 3.177083,1.4369406 3.177083,3.1770836 z"
       id="path3948"
       style="color:#000000;fill:url(#linearGradient3959);fill-opacity:1;fill-rule:nonzero;stroke:none;stroke-width:1;marker:none;visibility:visible;display:inline;overflow:visible;enable-background:accumulate"
       inkscape:connector-curvature="0" />
    <path
       d="m 82,10.000001 a 2.5,2.5 0 1 0 0,5 2.5,2.5 0 0 0 0,-5 z"
       id="path3889"
       style="color:#000000;fill:url(#linearGradient3924);fill-opacity:1;fill-rule:nonzero;stroke:none;stroke-width:1;marker:none;visibility:visible;display:inline;overflow:visible;enable-background:accumulate"
       inkscape:connector-curvature="0" />
    <path
       d="m 82,10 c 1.380712,0 2.5,1.119288 2.5,2.5 0,0.08629 -0.02271,0.165957 -0.03125,0.25 C 84.340725,11.48936 83.294417,10.5 82,10.5 c -1.294417,0 -2.340725,0.98936 -2.46875,2.25 C 79.522715,12.665957 79.5,12.586294 79.5,12.5 79.5,11.119288 80.619288,10 82,10 z"
       inkscape:connector-curvature="0"
       id="path3935"
       style="opacity:0.2;color:#000000;fill:#ffffff;fill-opacity:1;fill-rule:nonzero;stroke:none;stroke-width:1;marker:none;visibility:visible;display:inline;overflow:visible;enable-background:accumulate" />
    <path
       d="m 79.177083,12.500001 c 0,1.740142 -1.436941,3.177083 -3.177083,3.177083 -1.740143,0 -3.177084,-1.436941 -3.177084,-3.177083 0,-1.740143 1.436941,-3.1770836 3.177084,-3.1770836 1.740142,0 3.177083,1.4369406 3.177083,3.1770836 z"
       id="path3961"
       style="color:#000000;fill:url(#linearGradient3967);fill-opacity:1;fill-rule:nonzero;stroke:none;stroke-width:1;marker:none;visibility:visible;display:inline;overflow:visible;enable-background:accumulate"
       inkscape:connector-curvature="0" />
    <path
       d="m 76,15.000001 a 2.5,2.5 0 1 1 0,-5 2.5,2.5 0 0 1 0,5 z"
       id="path3963"
       style="color:#000000;fill:url(#linearGradient3969);fill-opacity:1;fill-rule:nonzero;stroke:none;stroke-width:1;marker:none;visibility:visible;display:inline;overflow:visible;enable-background:accumulate"
       inkscape:connector-curvature="0" />
    <path
       d="m 76,10 c 1.380712,0 2.5,1.119288 2.5,2.5 0,0.08629 -0.02272,0.165957 -0.03125,0.25 C 78.340725,11.48936 77.294417,10.5 76,10.5 c -1.294417,0 -2.340725,0.98936 -2.46875,2.25 C 73.522715,12.665957 73.5,12.586294 73.5,12.5 73.5,11.119288 74.619288,10 76,10 z"
       inkscape:connector-curvature="0"
       id="path3965"
       style="opacity:0.3;color:#000000;fill:#ffffff;fill-opacity:1;fill-rule:nonzero;stroke:none;stroke-width:1;marker:none;visibility:visible;display:inline;overflow:visible;enable-background:accumulate" />
    <path
       d="m 73.177083,12.500001 c 0,1.740142 -1.436941,3.177083 -3.177083,3.177083 -1.740143,0 -3.177084,-1.436941 -3.177084,-3.177083 0,-1.740143 1.436941,-3.1770836 3.177084,-3.1770836 1.740142,0 3.177083,1.4369406 3.177083,3.1770836 z"
       id="path3971"
       style="color:#000000;fill:url(#linearGradient3977);fill-opacity:1;fill-rule:nonzero;stroke:none;stroke-width:1;marker:none;visibility:visible;display:inline;overflow:visible;enable-background:accumulate"
       inkscape:connector-curvature="0" />
    <path
       d="m 70,15.000001 a 2.5,2.5 0 1 1 0,-5 2.5,2.5 0 0 1 0,5 z"
       id="path3973"
       style="color:#000000;fill:url(#linearGradient3979);fill-opacity:1;fill-rule:nonzero;stroke:none;stroke-width:1;marker:none;visibility:visible;display:inline;overflow:visible;enable-background:accumulate"
       inkscape:connector-curvature="0" />
    <path
       d="m 70,10 c 1.380712,0 2.5,1.119288 2.5,2.5 0,0.08629 -0.02272,0.165957 -0.03125,0.25 C 72.340725,11.48936 71.294417,10.5 70,10.5 c -1.294417,0 -2.340725,0.98936 -2.46875,2.25 C 67.522715,12.665957 67.5,12.586294 67.5,12.5 67.5,11.119288 68.619288,10 70,10 z"
       inkscape:connector-curvature="0"
       id="path3975"
       style="opacity:0.3;color:#000000;fill:#ffffff;fill-opacity:1;fill-rule:nonzero;stroke:none;stroke-width:1;marker:none;visibility:visible;display:inline;overflow:visible;enable-background:accumulate" />
    <path
       d="m 17.177083,12.500001 c 0,1.740142 -1.436941,3.177083 -3.177083,3.177083 -1.740143,0 -3.177084,-1.436941 -3.177084,-3.177083 0,-1.740143 1.436941,-3.1770836 3.177084,-3.1770836 1.740142,0 3.177083,1.4369406 3.177083,3.1770836 z"
       id="path3981"
       style="color:#000000;fill:url(#linearGradient3987);fill-opacity:1;fill-rule:nonzero;stroke:none;stroke-width:1;marker:none;visibility:visible;display:inline;overflow:visible;enable-background:accumulate"
       inkscape:connector-curvature="0" />
    <path
       d="m 14,10.000001 a 2.5,2.5 0 1 0 0,5 2.5,2.5 0 0 0 0,-5 z"
       id="path3983"
       style="color:#000000;fill:url(#linearGradient3989);fill-opacity:1;fill-rule:nonzero;stroke:none;stroke-width:1;marker:none;visibility:visible;display:inline;overflow:visible;enable-background:accumulate"
       inkscape:connector-curvature="0" />
    <path
       d="m 14,10 c 1.380712,0 2.5,1.119288 2.5,2.5 0,0.08629 -0.02272,0.165957 -0.03125,0.25 C 16.340725,11.48936 15.294417,10.5 14,10.5 c -1.294417,0 -2.340725,0.98936 -2.46875,2.25 C 11.522715,12.665957 11.5,12.586294 11.5,12.5 11.5,11.119288 12.619288,10 14,10 z"
       inkscape:connector-curvature="0"
       id="path3985"
       style="opacity:0.2;color:#000000;fill:#ffffff;fill-opacity:1;fill-rule:nonzero;stroke:none;stroke-width:1;marker:none;visibility:visible;display:inline;overflow:visible;enable-background:accumulate" />
    <g
       transform="matrix(0.64183214,0,0,0.64183214,13.862956,4.0243742)"
       id="g3715"
       style="font-size:8px;font-style:normal;font-variant:normal;font-weight:bold;font-stretch:normal;text-align:start;line-height:125%;writing-mode:lr-tb;text-anchor:start;fill:#000000;fill-opacity:1;stroke:none;font-family:Droid Sans;-inkscape-font-specification:Abandoned Bitplane Bold">
      <path
         d="m 19.026227,14.949776 c -4e-6,0.255209 -0.04427,0.485678 -0.132813,0.691406 -0.08594,0.203126 -0.213545,0.377605 -0.382812,0.523437 -0.16667,0.14323 -0.372399,0.253907 -0.617188,0.332032 -0.242189,0.07813 -0.520835,0.117187 -0.835937,0.117187 -0.276043,0 -0.54297,-0.02865 -0.800781,-0.08594 -0.255209,-0.05729 -0.492188,-0.143229 -0.710938,-0.257813 l 0,-1.125 c 0.125,0.0599 0.251302,0.118491 0.378906,0.175781 0.127604,0.05469 0.25651,0.104168 0.386719,0.148438 0.132811,0.04427 0.264322,0.07943 0.394531,0.105469 0.132811,0.02604 0.264322,0.03906 0.394532,0.03906 0.13281,1e-6 0.246091,-0.01432 0.339843,-0.04297 0.09635,-0.03125 0.173175,-0.07292 0.230469,-0.125 0.05989,-0.05469 0.102862,-0.118488 0.128906,-0.191406 0.02864,-0.07552 0.04297,-0.15755 0.04297,-0.246094 -2e-6,-0.106769 -0.02344,-0.200519 -0.07031,-0.28125 -0.04427,-0.08333 -0.108076,-0.160154 -0.191407,-0.230468 -0.08073,-0.07292 -0.179689,-0.143227 -0.296875,-0.210938 -0.114585,-0.06771 -0.243491,-0.13932 -0.386718,-0.214844 -0.119794,-0.0625 -0.253908,-0.138018 -0.402344,-0.226562 -0.148439,-0.08854 -0.289064,-0.197914 -0.421875,-0.328125 -0.130209,-0.132809 -0.239584,-0.291663 -0.328125,-0.476563 -0.08854,-0.187496 -0.132813,-0.411454 -0.132813,-0.671875 0,-0.255203 0.04167,-0.483068 0.125,-0.683593 0.08594,-0.20312 0.207031,-0.373693 0.363282,-0.511719 0.156249,-0.14062 0.345051,-0.24739 0.566406,-0.320313 0.223957,-0.07291 0.473956,-0.109369 0.75,-0.109375 0.138018,6e-6 0.272133,0.0091 0.402344,0.02734 0.132809,0.01824 0.263018,0.04428 0.390625,0.07813 0.130205,0.03386 0.260413,0.07553 0.390625,0.125 0.130205,0.04949 0.264319,0.106776 0.402343,0.171875 l -0.390625,0.941406 c -0.11719,-0.05468 -0.226565,-0.10286 -0.328125,-0.144531 -0.101565,-0.04166 -0.200523,-0.07682 -0.296875,-0.105469 -0.09636,-0.02864 -0.191408,-0.04947 -0.285156,-0.0625 -0.09115,-0.01562 -0.183596,-0.02343 -0.277344,-0.02344 -0.203127,5e-6 -0.359376,0.05469 -0.46875,0.164062 -0.106772,0.106776 -0.160157,0.250005 -0.160156,0.429688 -10e-7,0.09636 0.01562,0.182296 0.04687,0.257812 0.03385,0.07292 0.08594,0.141931 0.15625,0.207032 0.07292,0.06511 0.165363,0.131514 0.277344,0.199218 0.114581,0.06771 0.252602,0.144535 0.414062,0.230469 0.19531,0.10417 0.374998,0.210941 0.539063,0.320313 0.164059,0.106773 0.304684,0.226565 0.421875,0.359375 0.119788,0.130211 0.212236,0.278648 0.277344,0.445312 0.0651,0.166669 0.09765,0.361981 0.09766,0.585938"
         inkscape:connector-curvature="0"
         id="path3717"
         style="fill:#000000" />
      <path
         d="m 19.366071,12.168526 1.304687,0 0.703125,2.457031 c 0.04167,0.135418 0.07161,0.279949 0.08984,0.433594 0.02083,0.153647 0.03385,0.291668 0.03906,0.414062 l 0.02344,0 c 0.0052,-0.05989 0.01172,-0.126301 0.01953,-0.199219 0.01042,-0.07292 0.02213,-0.147134 0.03516,-0.222656 0.01302,-0.07552 0.02734,-0.149738 0.04297,-0.222656 0.01823,-0.07552 0.03646,-0.143227 0.05469,-0.203125 l 0.6875,-2.457031 1.3125,0 -1.726563,4.925781 c -0.161461,0.460936 -0.381512,0.803384 -0.660156,1.027344 -0.278647,0.223956 -0.627605,0.335935 -1.046875,0.335937 -0.135417,-2e-6 -0.252605,-0.0078 -0.351563,-0.02344 -0.09896,-0.01302 -0.183594,-0.02735 -0.253906,-0.04297 l 0,-0.945313 c 0.05469,0.01302 0.123698,0.02474 0.207031,0.03516 0.08333,0.01041 0.170573,0.01562 0.261719,0.01563 0.124999,-1e-6 0.23177,-0.01693 0.320313,-0.05078 0.08854,-0.03385 0.164061,-0.08203 0.226562,-0.144531 0.0651,-0.0599 0.119791,-0.132813 0.164063,-0.21875 0.04687,-0.08594 0.08724,-0.182292 0.121093,-0.289062 l 0.07422,-0.21875 -1.648437,-4.40625"
         inkscape:connector-curvature="0"
         id="path3719"
         style="fill:#000000" />
      <path
         d="m 27.213727,15.238838 c -4e-6,0.229168 -0.04167,0.429689 -0.125,0.601563 -0.08334,0.171875 -0.201826,0.315104 -0.355469,0.429687 -0.153648,0.114584 -0.339846,0.200521 -0.558594,0.257813 -0.218752,0.05729 -0.463543,0.08594 -0.734375,0.08594 -0.14323,0 -0.276043,-0.0052 -0.398437,-0.01563 -0.122397,-0.0078 -0.238282,-0.02214 -0.347656,-0.04297 -0.109376,-0.02083 -0.214845,-0.04687 -0.316407,-0.07813 -0.101563,-0.03125 -0.204427,-0.07031 -0.308593,-0.117187 l 0,-0.984375 c 0.109374,0.05469 0.223957,0.104168 0.34375,0.148437 0.122395,0.04427 0.243488,0.08333 0.363281,0.117188 0.11979,0.03125 0.235676,0.05599 0.347656,0.07422 0.114582,0.01823 0.220051,0.02734 0.316406,0.02734 0.106769,10e-7 0.197915,-0.0091 0.273438,-0.02734 0.07552,-0.02083 0.136717,-0.04818 0.183594,-0.08203 0.04948,-0.03646 0.08463,-0.07812 0.105468,-0.125 0.02344,-0.04948 0.03515,-0.101561 0.03516,-0.15625 -3e-6,-0.05469 -0.0091,-0.102863 -0.02734,-0.144531 -0.01563,-0.04427 -0.05339,-0.08984 -0.113281,-0.136719 -0.0599,-0.04948 -0.14844,-0.104165 -0.265625,-0.164062 -0.114585,-0.0625 -0.269533,-0.138019 -0.464844,-0.226563 -0.190105,-0.08593 -0.35547,-0.17057 -0.496094,-0.253906 -0.138021,-0.08593 -0.252605,-0.180987 -0.34375,-0.285156 -0.08854,-0.104164 -0.154948,-0.222654 -0.199219,-0.355469 -0.04427,-0.135414 -0.06641,-0.29557 -0.06641,-0.480469 0,-0.203121 0.03906,-0.380204 0.117188,-0.53125 0.07812,-0.153641 0.188801,-0.281246 0.332031,-0.382812 0.143228,-0.101558 0.315103,-0.177079 0.515625,-0.226563 0.203123,-0.05208 0.428384,-0.07812 0.675781,-0.07813 0.260415,5e-6 0.50781,0.02995 0.742188,0.08984 0.234372,0.0599 0.475257,0.149744 0.722656,0.269531 l -0.359375,0.84375 c -0.19792,-0.09375 -0.386721,-0.170569 -0.566406,-0.230468 -0.17969,-0.05989 -0.359377,-0.08984 -0.539063,-0.08984 -0.16146,4e-6 -0.278647,0.02865 -0.351562,0.08594 -0.07031,0.0573 -0.105471,0.13542 -0.105469,0.234375 -2e-6,0.05209 0.0091,0.09896 0.02734,0.140625 0.01823,0.03907 0.05469,0.08073 0.109375,0.125 0.05468,0.04167 0.131508,0.08854 0.230468,0.140625 0.09896,0.04948 0.227863,0.11068 0.386719,0.183594 0.184894,0.08073 0.35156,0.161461 0.5,0.242188 0.148435,0.07813 0.276039,0.167971 0.382813,0.269531 0.106767,0.101564 0.188798,0.220054 0.246093,0.355469 0.05729,0.135418 0.08593,0.29948 0.08594,0.492187"
         inkscape:connector-curvature="0"
         id="path3721"
         style="fill:#000000" />
      <path
         d="m 29.920758,15.664619 c 0.117185,10e-7 0.227862,-0.01302 0.332031,-0.03906 0.106768,-0.02604 0.214841,-0.05859 0.324219,-0.09766 l 0,0.886718 c -0.111982,0.05729 -0.251305,0.104167 -0.417969,0.140625 -0.164064,0.03906 -0.343752,0.05859 -0.539062,0.05859 -0.190106,0 -0.367189,-0.02214 -0.53125,-0.06641 -0.164064,-0.04427 -0.305991,-0.121094 -0.425781,-0.230469 -0.119793,-0.111979 -0.214845,-0.260416 -0.285157,-0.445312 -0.06771,-0.187499 -0.101563,-0.421874 -0.101562,-0.703125 l 0,-2.105469 -0.570313,0 0,-0.503906 0.65625,-0.398438 0.34375,-0.921875 0.761719,0 0,0.929688 1.0625,0 0,0.894531 -1.0625,0 0,2.105469 c -2e-6,0.169272 0.04167,0.294272 0.125,0.375 0.08333,0.08073 0.192706,0.121094 0.328125,0.121093"
         inkscape:connector-curvature="0"
         id="path3723"
         style="fill:#000000" />
      <path
         d="m 33.225446,12.934151 c -0.21094,3e-6 -0.386721,0.07422 -0.527344,0.222656 -0.138023,0.148441 -0.21745,0.381513 -0.238281,0.699219 l 1.519531,0 c -0.0026,-0.13281 -0.01953,-0.255206 -0.05078,-0.367188 -0.03125,-0.111976 -0.07813,-0.20833 -0.140625,-0.289062 -0.0625,-0.08333 -0.140628,-0.148434 -0.234375,-0.195313 -0.09375,-0.04687 -0.203128,-0.07031 -0.328125,-0.07031 m 0.152343,3.679687 c -0.312502,0 -0.600262,-0.04557 -0.863281,-0.136719 -0.263022,-0.09114 -0.489584,-0.227864 -0.679687,-0.410156 -0.190105,-0.184895 -0.338543,-0.416666 -0.445313,-0.695312 -0.104167,-0.281249 -0.15625,-0.610676 -0.15625,-0.988282 0,-0.38281 0.04818,-0.717445 0.144531,-1.003906 0.09635,-0.286455 0.230468,-0.524736 0.402344,-0.714844 0.174478,-0.192704 0.382811,-0.337235 0.625,-0.433593 0.24479,-0.09635 0.515623,-0.144527 0.8125,-0.144532 0.28906,5e-6 0.549476,0.04428 0.78125,0.132813 0.234372,0.08594 0.432288,0.213546 0.59375,0.382812 0.164059,0.169275 0.289059,0.377608 0.375,0.625 0.08854,0.244795 0.132808,0.526045 0.132813,0.84375 l 0,0.578125 -2.664063,0 c 0.0052,0.166669 0.03125,0.31771 0.07813,0.453125 0.04948,0.132814 0.117186,0.246095 0.203125,0.339844 0.08854,0.09115 0.194009,0.161459 0.316406,0.210938 0.124998,0.04948 0.266925,0.07422 0.425782,0.07422 0.132809,10e-7 0.257809,-0.0065 0.375,-0.01953 0.119788,-0.01562 0.235674,-0.03776 0.347656,-0.06641 0.111976,-0.02865 0.222653,-0.0638 0.332031,-0.105469 0.109371,-0.04427 0.221351,-0.09505 0.335938,-0.152344 l 0,0.921875 c -0.104171,0.05469 -0.209639,0.101563 -0.316407,0.140625 -0.10417,0.03646 -0.214847,0.06771 -0.332031,0.09375 -0.117191,0.02604 -0.243492,0.04427 -0.378906,0.05469 -0.13542,0.01302 -0.283857,0.01953 -0.445313,0.01953"
         inkscape:connector-curvature="0"
         id="path3725"
         style="fill:#000000" />
      <path
         d="m 39.866071,16.535713 -1.191407,0 0,-2.550781 c -3e-6,-0.315101 -0.04688,-0.550778 -0.140625,-0.707031 -0.09375,-0.158851 -0.240888,-0.238278 -0.441406,-0.238282 -0.151044,4e-6 -0.277346,0.03125 -0.378906,0.09375 -0.09896,0.0625 -0.178387,0.154952 -0.238281,0.277344 -0.0599,0.122399 -0.102867,0.273441 -0.128907,0.453125 -0.02604,0.17969 -0.03906,0.385419 -0.03906,0.617188 l 0,2.054687 -1.191406,0 0,-4.367187 0.910156,0 0.160156,0.558593 0.06641,0 c 0.0625,-0.111975 0.136717,-0.208329 0.222657,-0.289062 0.08854,-0.08073 0.184893,-0.147131 0.289062,-0.199219 0.104165,-0.05208 0.214842,-0.08984 0.332031,-0.113281 0.117185,-0.02604 0.235675,-0.03906 0.355469,-0.03906 0.299476,5e-6 0.553382,0.05209 0.761719,0.15625 0.210934,0.101567 0.372392,0.263025 0.484375,0.484375 l 0.09766,0 c 0.0625,-0.111975 0.138017,-0.208329 0.226563,-0.289062 0.08854,-0.08073 0.186193,-0.147131 0.292968,-0.199219 0.106766,-0.05208 0.218745,-0.08984 0.335938,-0.113281 0.119786,-0.02604 0.239578,-0.03906 0.359375,-0.03906 0.468744,5e-6 0.821608,0.127609 1.058594,0.382813 0.239576,0.252608 0.359368,0.658858 0.359375,1.21875 l 0,2.847656 -1.195313,0 0,-2.550781 c -5e-6,-0.315101 -0.04688,-0.550778 -0.140625,-0.707031 -0.09376,-0.158851 -0.240891,-0.238278 -0.441406,-0.238282 -0.283859,4e-6 -0.485682,0.113285 -0.605469,0.339844 -0.119796,0.223961 -0.179692,0.545576 -0.179687,0.964844 l 0,2.191406"
         inkscape:connector-curvature="0"
         id="path3727"
         style="fill:#000000" />
      <path
         d="m 49.061383,16.535713 -0.335937,-1.527344 c -0.01042,-0.04427 -0.02474,-0.106769 -0.04297,-0.1875 -0.01563,-0.08333 -0.03386,-0.175779 -0.05469,-0.277343 -0.02084,-0.104165 -0.04297,-0.21354 -0.06641,-0.328125 -0.02084,-0.117185 -0.04297,-0.233071 -0.06641,-0.347657 -0.05209,-0.268226 -0.109378,-0.557288 -0.171875,-0.867187 l -0.02344,0 c -0.0599,0.309899 -0.114586,0.600263 -0.164062,0.871094 -0.02084,0.114586 -0.04297,0.230471 -0.06641,0.347656 -0.02084,0.11719 -0.04167,0.227867 -0.0625,0.332031 -0.02084,0.101565 -0.04037,0.194012 -0.05859,0.277344 -0.01563,0.08333 -0.02865,0.148439 -0.03906,0.195312 l -0.351562,1.511719 -1.28125,0 -1.175781,-4.367187 1.183593,0 0.441407,1.933593 c 0.02344,0.101565 0.04687,0.223961 0.07031,0.367188 0.02604,0.140627 0.04948,0.283856 0.07031,0.429687 0.02343,0.143231 0.04427,0.27995 0.0625,0.410157 0.01823,0.127605 0.03255,0.229167 0.04297,0.304687 l 0.02344,0 c 0.0026,-0.04948 0.0078,-0.11328 0.01563,-0.191406 0.01042,-0.08073 0.02213,-0.166665 0.03516,-0.257813 0.01302,-0.09114 0.02604,-0.183592 0.03906,-0.277343 0.01562,-0.09635 0.02995,-0.186196 0.04297,-0.269532 0.01562,-0.08333 0.02864,-0.156247 0.03906,-0.21875 0.01302,-0.0651 0.02343,-0.110674 0.03125,-0.136718 l 0.476562,-2.09375 1.3125,0 0.457032,2.09375 c 0.01302,0.05729 0.02994,0.145835 0.05078,0.265625 0.02083,0.119793 0.04166,0.248699 0.0625,0.386718 0.02343,0.135419 0.04296,0.268231 0.05859,0.398438 0.01562,0.127605 0.02473,0.227866 0.02734,0.300781 l 0.02344,0 c 0.0078,-0.0651 0.02083,-0.161457 0.03906,-0.289062 0.02083,-0.127603 0.04297,-0.264322 0.06641,-0.410157 0.02343,-0.148435 0.04817,-0.295571 0.07422,-0.441406 0.02864,-0.145831 0.05468,-0.269529 0.07813,-0.371094 l 0.457032,-1.933593 1.167968,0 -1.191406,4.367187 -1.296875,0"
         inkscape:connector-curvature="0"
         id="path3729"
         style="fill:#000000" />
      <path
         d="m 52.127789,11.039619 c 0,-0.111973 0.01693,-0.204421 0.05078,-0.277343 0.03385,-0.07551 0.07943,-0.135411 0.136718,-0.179688 0.0599,-0.04687 0.128906,-0.07942 0.207032,-0.09766 0.08073,-0.01822 0.165363,-0.02734 0.253906,-0.02734 0.08854,6e-6 0.171874,0.0091 0.25,0.02734 0.07812,0.01823 0.145832,0.05079 0.203125,0.09766 0.05989,0.04428 0.106769,0.104173 0.140625,0.179688 0.03646,0.07292 0.05469,0.16537 0.05469,0.277343 -10e-7,0.109381 -0.01823,0.201829 -0.05469,0.277344 -0.03386,0.07553 -0.08073,0.136724 -0.140625,0.183594 -0.05729,0.04428 -0.125002,0.07683 -0.203125,0.09766 -0.07813,0.01823 -0.16146,0.02735 -0.25,0.02734 -0.08854,5e-6 -0.173178,-0.0091 -0.253906,-0.02734 -0.07813,-0.02083 -0.147136,-0.05338 -0.207032,-0.09766 -0.05729,-0.04687 -0.102865,-0.108068 -0.136718,-0.183594 -0.03385,-0.07551 -0.05078,-0.167963 -0.05078,-0.277344 m 1.242188,5.496094 -1.191406,0 0,-4.367187 1.191406,0 0,4.367187"
         inkscape:connector-curvature="0"
         id="path3731"
         style="fill:#000000" />
      <path
         d="m 58.405133,16.535713 -1.191406,0 0,-2.550781 c -3e-6,-0.315101 -0.04818,-0.550778 -0.144531,-0.707031 -0.09375,-0.158851 -0.244795,-0.238278 -0.453125,-0.238282 -0.156253,4e-6 -0.286461,0.03125 -0.390625,0.09375 -0.104169,0.0625 -0.187502,0.154952 -0.25,0.277344 -0.0599,0.122399 -0.102867,0.273441 -0.128907,0.453125 -0.02604,0.17969 -0.03906,0.385419 -0.03906,0.617188 l 0,2.054687 -1.191406,0 0,-4.367187 0.910156,0 0.160156,0.558593 0.06641,0 c 0.0625,-0.111975 0.138019,-0.208329 0.226563,-0.289062 0.09114,-0.08073 0.190102,-0.147131 0.296875,-0.199219 0.106768,-0.05208 0.22005,-0.08984 0.339844,-0.113281 0.119789,-0.02604 0.242184,-0.03906 0.367187,-0.03906 0.213539,5e-6 0.407549,0.03125 0.582031,0.09375 0.174476,0.0599 0.324215,0.154953 0.449219,0.285157 0.124996,0.130212 0.22135,0.296878 0.289063,0.5 0.0677,0.200524 0.101558,0.441409 0.101562,0.722656 l 0,2.847656"
         inkscape:connector-curvature="0"
         id="path3733"
         style="fill:#000000" />
      <path
         d="m 60.916852,16.613838 c -0.22396,0 -0.428387,-0.04818 -0.613281,-0.144531 -0.184897,-0.09635 -0.343751,-0.238281 -0.476563,-0.425781 -0.132813,-0.190104 -0.23698,-0.425781 -0.3125,-0.707032 -0.07292,-0.281248 -0.109375,-0.606769 -0.109375,-0.976562 0,-0.374998 0.03646,-0.703122 0.109375,-0.984375 0.07552,-0.283851 0.180989,-0.52083 0.316406,-0.710938 0.13802,-0.192704 0.302083,-0.337235 0.492188,-0.433593 0.190103,-0.09635 0.399738,-0.144527 0.628906,-0.144532 0.140623,5e-6 0.269529,0.01693 0.386719,0.05078 0.117185,0.03125 0.222654,0.07683 0.316406,0.136718 0.09375,0.0573 0.177081,0.125005 0.25,0.203125 0.07552,0.07553 0.141924,0.158859 0.199219,0.25 l 0.03906,0 c -0.01563,-0.101558 -0.02995,-0.204423 -0.04297,-0.308593 -0.01302,-0.08854 -0.02474,-0.182288 -0.03516,-0.28125 -0.0078,-0.101558 -0.01172,-0.195308 -0.01172,-0.28125 l 0,-1.398438 1.191406,0 0,6.078125 -0.910156,0 -0.230469,-0.566406 -0.05078,0 c -0.05469,0.08854 -0.117191,0.173177 -0.1875,0.253906 -0.07032,0.07813 -0.152347,0.145834 -0.246094,0.203125 -0.09115,0.05729 -0.195315,0.102865 -0.3125,0.136719 -0.114586,0.03385 -0.244794,0.05078 -0.390625,0.05078 m 0.433594,-0.949219 c 0.140622,10e-7 0.260414,-0.02344 0.359375,-0.07031 0.09896,-0.04948 0.178382,-0.122395 0.238281,-0.21875 0.0625,-0.09896 0.10807,-0.221353 0.136719,-0.367188 0.03125,-0.145831 0.04817,-0.316404 0.05078,-0.511718 l 0,-0.128907 c -3e-6,-0.210935 -0.01302,-0.398434 -0.03906,-0.5625 -0.02604,-0.164059 -0.06901,-0.300778 -0.128906,-0.410156 -0.0599,-0.111976 -0.140628,-0.196611 -0.242187,-0.253906 -0.101565,-0.05729 -0.229169,-0.08593 -0.382813,-0.08594 -0.250002,4e-6 -0.433595,0.113285 -0.550781,0.339844 -0.117189,0.223961 -0.175783,0.550784 -0.175781,0.980469 -2e-6,0.429689 0.05859,0.752606 0.175781,0.96875 0.11979,0.213543 0.305987,0.320313 0.558594,0.320312"
         inkscape:connector-curvature="0"
         id="path3735"
         style="fill:#000000" />
      <path
         d="m 65.483258,14.344307 c -1e-6,0.434898 0.0612,0.763022 0.183594,0.984375 0.122394,0.218751 0.321612,0.328126 0.597656,0.328125 0.273435,10e-7 0.471352,-0.110676 0.59375,-0.332031 0.122393,-0.221353 0.183591,-0.548176 0.183594,-0.980469 -3e-6,-0.434893 -0.0612,-0.759112 -0.183594,-0.972656 -0.122398,-0.216143 -0.322919,-0.324216 -0.601562,-0.324219 -0.27344,3e-6 -0.471356,0.108076 -0.59375,0.324219 -0.119794,0.213544 -0.179689,0.537763 -0.179688,0.972656 m 2.773438,0 c -5e-6,0.364585 -0.04688,0.687501 -0.140625,0.96875 -0.09115,0.281251 -0.223963,0.51823 -0.398438,0.710937 -0.171878,0.192709 -0.382816,0.339844 -0.632812,0.441407 -0.247399,0.09896 -0.526045,0.148437 -0.835938,0.148437 -0.289064,0 -0.554689,-0.04948 -0.796875,-0.148437 -0.242189,-0.101563 -0.451824,-0.248698 -0.628906,-0.441407 -0.17448,-0.192707 -0.311199,-0.429686 -0.410156,-0.710937 -0.09896,-0.281249 -0.148438,-0.604165 -0.148438,-0.96875 0,-0.361977 0.04557,-0.683591 0.136719,-0.964844 0.09375,-0.281246 0.226562,-0.516923 0.398437,-0.707031 0.174479,-0.192704 0.385416,-0.338538 0.632813,-0.4375 0.247394,-0.09895 0.527342,-0.148433 0.839844,-0.148438 0.28906,5e-6 0.554684,0.04948 0.796875,0.148438 0.242184,0.09896 0.450517,0.244796 0.625,0.4375 0.177079,0.190108 0.3151,0.425785 0.414062,0.707031 0.09895,0.281253 0.148433,0.602867 0.148438,0.964844"
         inkscape:connector-curvature="0"
         id="path3737"
         style="fill:#000000" />
      <path
         d="m 72.623883,16.535713 -0.335937,-1.527344 c -0.01042,-0.04427 -0.02474,-0.106769 -0.04297,-0.1875 -0.01563,-0.08333 -0.03386,-0.175779 -0.05469,-0.277343 -0.02084,-0.104165 -0.04297,-0.21354 -0.06641,-0.328125 -0.02084,-0.117185 -0.04297,-0.233071 -0.06641,-0.347657 -0.05209,-0.268226 -0.109378,-0.557288 -0.171875,-0.867187 l -0.02344,0 c -0.0599,0.309899 -0.114586,0.600263 -0.164062,0.871094 -0.02084,0.114586 -0.04297,0.230471 -0.06641,0.347656 -0.02084,0.11719 -0.04167,0.227867 -0.0625,0.332031 -0.02084,0.101565 -0.04037,0.194012 -0.05859,0.277344 -0.01563,0.08333 -0.02865,0.148439 -0.03906,0.195312 l -0.351562,1.511719 -1.28125,0 -1.175781,-4.367187 1.183593,0 0.441407,1.933593 c 0.02344,0.101565 0.04687,0.223961 0.07031,0.367188 0.02604,0.140627 0.04948,0.283856 0.07031,0.429687 0.02343,0.143231 0.04427,0.27995 0.0625,0.410157 0.01823,0.127605 0.03255,0.229167 0.04297,0.304687 l 0.02344,0 c 0.0026,-0.04948 0.0078,-0.11328 0.01563,-0.191406 0.01041,-0.08073 0.02213,-0.166665 0.03516,-0.257813 0.01302,-0.09114 0.02604,-0.183592 0.03906,-0.277343 0.01562,-0.09635 0.02995,-0.186196 0.04297,-0.269532 0.01562,-0.08333 0.02864,-0.156247 0.03906,-0.21875 0.01302,-0.0651 0.02343,-0.110674 0.03125,-0.136718 l 0.476562,-2.09375 1.3125,0 0.457032,2.09375 c 0.01302,0.05729 0.02994,0.145835 0.05078,0.265625 0.02083,0.119793 0.04166,0.248699 0.0625,0.386718 0.02343,0.135419 0.04296,0.268231 0.05859,0.398438 0.01562,0.127605 0.02473,0.227866 0.02734,0.300781 l 0.02344,0 c 0.0078,-0.0651 0.02083,-0.161457 0.03906,-0.289062 0.02083,-0.127603 0.04296,-0.264322 0.06641,-0.410157 0.02343,-0.148435 0.04817,-0.295571 0.07422,-0.441406 0.02864,-0.145831 0.05468,-0.269529 0.07813,-0.371094 l 0.457032,-1.933593 1.167968,0 -1.191406,4.367187 -1.296875,0"
         inkscape:connector-curvature="0"
         id="path3739"
         style="fill:#000000" />
    </g>
    <g
       transform="matrix(0.64183214,0,0,0.64183214,13.862956,3.5240062)"
       id="text3686"
       style="font-size:8px;font-style:normal;font-variant:normal;font-weight:bold;font-stretch:normal;text-align:start;line-height:125%;writing-mode:lr-tb;text-anchor:start;fill:#ececec;fill-opacity:1;stroke:none;font-family:Droid Sans;-inkscape-font-specification:Abandoned Bitplane Bold">
      <path
         d="m 19.026227,14.949776 c -4e-6,0.255209 -0.04427,0.485678 -0.132813,0.691406 -0.08594,0.203126 -0.213545,0.377605 -0.382812,0.523437 -0.16667,0.14323 -0.372399,0.253907 -0.617188,0.332032 -0.242189,0.07813 -0.520835,0.117187 -0.835937,0.117187 -0.276043,0 -0.54297,-0.02865 -0.800781,-0.08594 -0.255209,-0.05729 -0.492188,-0.143229 -0.710938,-0.257813 l 0,-1.125 c 0.125,0.0599 0.251302,0.118491 0.378906,0.175781 0.127604,0.05469 0.25651,0.104168 0.386719,0.148438 0.132811,0.04427 0.264322,0.07943 0.394531,0.105469 0.132811,0.02604 0.264322,0.03906 0.394532,0.03906 0.13281,1e-6 0.246091,-0.01432 0.339843,-0.04297 0.09635,-0.03125 0.173175,-0.07292 0.230469,-0.125 0.05989,-0.05469 0.102862,-0.118488 0.128906,-0.191406 0.02864,-0.07552 0.04297,-0.15755 0.04297,-0.246094 -2e-6,-0.106769 -0.02344,-0.200519 -0.07031,-0.28125 -0.04427,-0.08333 -0.108076,-0.160154 -0.191407,-0.230468 -0.08073,-0.07292 -0.179689,-0.143227 -0.296875,-0.210938 -0.114585,-0.06771 -0.243491,-0.13932 -0.386718,-0.214844 -0.119794,-0.0625 -0.253908,-0.138018 -0.402344,-0.226562 -0.148439,-0.08854 -0.289064,-0.197914 -0.421875,-0.328125 -0.130209,-0.132809 -0.239584,-0.291663 -0.328125,-0.476563 -0.08854,-0.187496 -0.132813,-0.411454 -0.132813,-0.671875 0,-0.255203 0.04167,-0.483068 0.125,-0.683593 0.08594,-0.20312 0.207031,-0.373693 0.363282,-0.511719 0.156249,-0.14062 0.345051,-0.24739 0.566406,-0.320313 0.223957,-0.07291 0.473956,-0.109369 0.75,-0.109375 0.138018,6e-6 0.272133,0.0091 0.402344,0.02734 0.132809,0.01824 0.263018,0.04428 0.390625,0.07813 0.130205,0.03386 0.260413,0.07553 0.390625,0.125 0.130205,0.04949 0.264319,0.106776 0.402343,0.171875 l -0.390625,0.941406 c -0.11719,-0.05468 -0.226565,-0.10286 -0.328125,-0.144531 -0.101565,-0.04166 -0.200523,-0.07682 -0.296875,-0.105469 -0.09636,-0.02864 -0.191408,-0.04947 -0.285156,-0.0625 -0.09115,-0.01562 -0.183596,-0.02343 -0.277344,-0.02344 -0.203127,5e-6 -0.359376,0.05469 -0.46875,0.164062 -0.106772,0.106776 -0.160157,0.250005 -0.160156,0.429688 -10e-7,0.09636 0.01562,0.182296 0.04687,0.257812 0.03385,0.07292 0.08594,0.141931 0.15625,0.207032 0.07292,0.06511 0.165363,0.131514 0.277344,0.199218 0.114581,0.06771 0.252602,0.144535 0.414062,0.230469 0.19531,0.10417 0.374998,0.210941 0.539063,0.320313 0.164059,0.106773 0.304684,0.226565 0.421875,0.359375 0.119788,0.130211 0.212236,0.278648 0.277344,0.445312 0.0651,0.166669 0.09765,0.361981 0.09766,0.585938"
         inkscape:connector-curvature="0"
         id="path3691"
         style="fill:#ececec" />
      <path
         d="m 19.366071,12.168526 1.304687,0 0.703125,2.457031 c 0.04167,0.135418 0.07161,0.279949 0.08984,0.433594 0.02083,0.153647 0.03385,0.291668 0.03906,0.414062 l 0.02344,0 c 0.0052,-0.05989 0.01172,-0.126301 0.01953,-0.199219 0.01042,-0.07292 0.02213,-0.147134 0.03516,-0.222656 0.01302,-0.07552 0.02734,-0.149738 0.04297,-0.222656 0.01823,-0.07552 0.03646,-0.143227 0.05469,-0.203125 l 0.6875,-2.457031 1.3125,0 -1.726563,4.925781 c -0.161461,0.460936 -0.381512,0.803384 -0.660156,1.027344 -0.278647,0.223956 -0.627605,0.335935 -1.046875,0.335937 -0.135417,-2e-6 -0.252605,-0.0078 -0.351563,-0.02344 -0.09896,-0.01302 -0.183594,-0.02735 -0.253906,-0.04297 l 0,-0.945313 c 0.05469,0.01302 0.123698,0.02474 0.207031,0.03516 0.08333,0.01041 0.170573,0.01562 0.261719,0.01563 0.124999,-1e-6 0.23177,-0.01693 0.320313,-0.05078 0.08854,-0.03385 0.164061,-0.08203 0.226562,-0.144531 0.0651,-0.0599 0.119791,-0.132813 0.164063,-0.21875 0.04687,-0.08594 0.08724,-0.182292 0.121093,-0.289062 l 0.07422,-0.21875 -1.648437,-4.40625"
         inkscape:connector-curvature="0"
         id="path3693"
         style="fill:#ececec" />
      <path
         d="m 27.213727,15.238838 c -4e-6,0.229168 -0.04167,0.429689 -0.125,0.601563 -0.08334,0.171875 -0.201826,0.315104 -0.355469,0.429687 -0.153648,0.114584 -0.339846,0.200521 -0.558594,0.257813 -0.218752,0.05729 -0.463543,0.08594 -0.734375,0.08594 -0.14323,0 -0.276043,-0.0052 -0.398437,-0.01563 -0.122397,-0.0078 -0.238282,-0.02214 -0.347656,-0.04297 -0.109376,-0.02083 -0.214845,-0.04687 -0.316407,-0.07813 -0.101563,-0.03125 -0.204427,-0.07031 -0.308593,-0.117187 l 0,-0.984375 c 0.109374,0.05469 0.223957,0.104168 0.34375,0.148437 0.122395,0.04427 0.243488,0.08333 0.363281,0.117188 0.11979,0.03125 0.235676,0.05599 0.347656,0.07422 0.114582,0.01823 0.220051,0.02734 0.316406,0.02734 0.106769,10e-7 0.197915,-0.0091 0.273438,-0.02734 0.07552,-0.02083 0.136717,-0.04818 0.183594,-0.08203 0.04948,-0.03646 0.08463,-0.07812 0.105468,-0.125 0.02344,-0.04948 0.03515,-0.101561 0.03516,-0.15625 -3e-6,-0.05469 -0.0091,-0.102863 -0.02734,-0.144531 -0.01563,-0.04427 -0.05339,-0.08984 -0.113281,-0.136719 -0.0599,-0.04948 -0.14844,-0.104165 -0.265625,-0.164062 -0.114585,-0.0625 -0.269533,-0.138019 -0.464844,-0.226563 -0.190105,-0.08593 -0.35547,-0.17057 -0.496094,-0.253906 -0.138021,-0.08593 -0.252605,-0.180987 -0.34375,-0.285156 -0.08854,-0.104164 -0.154948,-0.222654 -0.199219,-0.355469 -0.04427,-0.135414 -0.06641,-0.29557 -0.06641,-0.480469 0,-0.203121 0.03906,-0.380204 0.117188,-0.53125 0.07812,-0.153641 0.188801,-0.281246 0.332031,-0.382812 0.143228,-0.101558 0.315103,-0.177079 0.515625,-0.226563 0.203123,-0.05208 0.428384,-0.07812 0.675781,-0.07813 0.260415,5e-6 0.50781,0.02995 0.742188,0.08984 0.234372,0.0599 0.475257,0.149744 0.722656,0.269531 l -0.359375,0.84375 c -0.19792,-0.09375 -0.386721,-0.170569 -0.566406,-0.230468 -0.17969,-0.05989 -0.359377,-0.08984 -0.539063,-0.08984 -0.16146,4e-6 -0.278647,0.02865 -0.351562,0.08594 -0.07031,0.0573 -0.105471,0.13542 -0.105469,0.234375 -2e-6,0.05209 0.0091,0.09896 0.02734,0.140625 0.01823,0.03907 0.05469,0.08073 0.109375,0.125 0.05468,0.04167 0.131508,0.08854 0.230468,0.140625 0.09896,0.04948 0.227863,0.11068 0.386719,0.183594 0.184894,0.08073 0.35156,0.161461 0.5,0.242188 0.148435,0.07813 0.276039,0.167971 0.382813,0.269531 0.106767,0.101564 0.188798,0.220054 0.246093,0.355469 0.05729,0.135418 0.08593,0.29948 0.08594,0.492187"
         inkscape:connector-curvature="0"
         id="path3695"
         style="fill:#ececec" />
      <path
         d="m 29.920758,15.664619 c 0.117185,10e-7 0.227862,-0.01302 0.332031,-0.03906 0.106768,-0.02604 0.214841,-0.05859 0.324219,-0.09766 l 0,0.886718 c -0.111982,0.05729 -0.251305,0.104167 -0.417969,0.140625 -0.164064,0.03906 -0.343752,0.05859 -0.539062,0.05859 -0.190106,0 -0.367189,-0.02214 -0.53125,-0.06641 -0.164064,-0.04427 -0.305991,-0.121094 -0.425781,-0.230469 -0.119793,-0.111979 -0.214845,-0.260416 -0.285157,-0.445312 -0.06771,-0.187499 -0.101563,-0.421874 -0.101562,-0.703125 l 0,-2.105469 -0.570313,0 0,-0.503906 0.65625,-0.398438 0.34375,-0.921875 0.761719,0 0,0.929688 1.0625,0 0,0.894531 -1.0625,0 0,2.105469 c -2e-6,0.169272 0.04167,0.294272 0.125,0.375 0.08333,0.08073 0.192706,0.121094 0.328125,0.121093"
         inkscape:connector-curvature="0"
         id="path3697"
         style="fill:#ececec" />
      <path
         d="m 33.225446,12.934151 c -0.21094,3e-6 -0.386721,0.07422 -0.527344,0.222656 -0.138023,0.148441 -0.21745,0.381513 -0.238281,0.699219 l 1.519531,0 c -0.0026,-0.13281 -0.01953,-0.255206 -0.05078,-0.367188 -0.03125,-0.111976 -0.07813,-0.20833 -0.140625,-0.289062 -0.0625,-0.08333 -0.140628,-0.148434 -0.234375,-0.195313 -0.09375,-0.04687 -0.203128,-0.07031 -0.328125,-0.07031 m 0.152343,3.679687 c -0.312502,0 -0.600262,-0.04557 -0.863281,-0.136719 -0.263022,-0.09114 -0.489584,-0.227864 -0.679687,-0.410156 -0.190105,-0.184895 -0.338543,-0.416666 -0.445313,-0.695312 -0.104167,-0.281249 -0.15625,-0.610676 -0.15625,-0.988282 0,-0.38281 0.04818,-0.717445 0.144531,-1.003906 0.09635,-0.286455 0.230468,-0.524736 0.402344,-0.714844 0.174478,-0.192704 0.382811,-0.337235 0.625,-0.433593 0.24479,-0.09635 0.515623,-0.144527 0.8125,-0.144532 0.28906,5e-6 0.549476,0.04428 0.78125,0.132813 0.234372,0.08594 0.432288,0.213546 0.59375,0.382812 0.164059,0.169275 0.289059,0.377608 0.375,0.625 0.08854,0.244795 0.132808,0.526045 0.132813,0.84375 l 0,0.578125 -2.664063,0 c 0.0052,0.166669 0.03125,0.31771 0.07813,0.453125 0.04948,0.132814 0.117186,0.246095 0.203125,0.339844 0.08854,0.09115 0.194009,0.161459 0.316406,0.210938 0.124998,0.04948 0.266925,0.07422 0.425782,0.07422 0.132809,10e-7 0.257809,-0.0065 0.375,-0.01953 0.119788,-0.01562 0.235674,-0.03776 0.347656,-0.06641 0.111976,-0.02865 0.222653,-0.0638 0.332031,-0.105469 0.109371,-0.04427 0.221351,-0.09505 0.335938,-0.152344 l 0,0.921875 c -0.104171,0.05469 -0.209639,0.101563 -0.316407,0.140625 -0.10417,0.03646 -0.214847,0.06771 -0.332031,0.09375 -0.117191,0.02604 -0.243492,0.04427 -0.378906,0.05469 -0.13542,0.01302 -0.283857,0.01953 -0.445313,0.01953"
         inkscape:connector-curvature="0"
         id="path3699"
         style="fill:#ececec" />
      <path
         d="m 39.866071,16.535713 -1.191407,0 0,-2.550781 c -3e-6,-0.315101 -0.04688,-0.550778 -0.140625,-0.707031 -0.09375,-0.158851 -0.240888,-0.238278 -0.441406,-0.238282 -0.151044,4e-6 -0.277346,0.03125 -0.378906,0.09375 -0.09896,0.0625 -0.178387,0.154952 -0.238281,0.277344 -0.0599,0.122399 -0.102867,0.273441 -0.128907,0.453125 -0.02604,0.17969 -0.03906,0.385419 -0.03906,0.617188 l 0,2.054687 -1.191406,0 0,-4.367187 0.910156,0 0.160156,0.558593 0.06641,0 c 0.0625,-0.111975 0.136717,-0.208329 0.222657,-0.289062 0.08854,-0.08073 0.184893,-0.147131 0.289062,-0.199219 0.104165,-0.05208 0.214842,-0.08984 0.332031,-0.113281 0.117185,-0.02604 0.235675,-0.03906 0.355469,-0.03906 0.299476,5e-6 0.553382,0.05209 0.761719,0.15625 0.210934,0.101567 0.372392,0.263025 0.484375,0.484375 l 0.09766,0 c 0.0625,-0.111975 0.138017,-0.208329 0.226563,-0.289062 0.08854,-0.08073 0.186193,-0.147131 0.292968,-0.199219 0.106766,-0.05208 0.218745,-0.08984 0.335938,-0.113281 0.119786,-0.02604 0.239578,-0.03906 0.359375,-0.03906 0.468744,5e-6 0.821608,0.127609 1.058594,0.382813 0.239576,0.252608 0.359368,0.658858 0.359375,1.21875 l 0,2.847656 -1.195313,0 0,-2.550781 c -5e-6,-0.315101 -0.04688,-0.550778 -0.140625,-0.707031 -0.09376,-0.158851 -0.240891,-0.238278 -0.441406,-0.238282 -0.283859,4e-6 -0.485682,0.113285 -0.605469,0.339844 -0.119796,0.223961 -0.179692,0.545576 -0.179687,0.964844 l 0,2.191406"
         inkscape:connector-curvature="0"
         id="path3701"
         style="fill:#ececec" />
      <path
         d="m 49.061383,16.535713 -0.335937,-1.527344 c -0.01042,-0.04427 -0.02474,-0.106769 -0.04297,-0.1875 -0.01563,-0.08333 -0.03386,-0.175779 -0.05469,-0.277343 -0.02084,-0.104165 -0.04297,-0.21354 -0.06641,-0.328125 -0.02084,-0.117185 -0.04297,-0.233071 -0.06641,-0.347657 -0.05209,-0.268226 -0.109378,-0.557288 -0.171875,-0.867187 l -0.02344,0 c -0.0599,0.309899 -0.114586,0.600263 -0.164062,0.871094 -0.02084,0.114586 -0.04297,0.230471 -0.06641,0.347656 -0.02084,0.11719 -0.04167,0.227867 -0.0625,0.332031 -0.02084,0.101565 -0.04037,0.194012 -0.05859,0.277344 -0.01563,0.08333 -0.02865,0.148439 -0.03906,0.195312 l -0.351562,1.511719 -1.28125,0 -1.175781,-4.367187 1.183593,0 0.441407,1.933593 c 0.02344,0.101565 0.04687,0.223961 0.07031,0.367188 0.02604,0.140627 0.04948,0.283856 0.07031,0.429687 0.02343,0.143231 0.04427,0.27995 0.0625,0.410157 0.01823,0.127605 0.03255,0.229167 0.04297,0.304687 l 0.02344,0 c 0.0026,-0.04948 0.0078,-0.11328 0.01563,-0.191406 0.01042,-0.08073 0.02213,-0.166665 0.03516,-0.257813 0.01302,-0.09114 0.02604,-0.183592 0.03906,-0.277343 0.01562,-0.09635 0.02995,-0.186196 0.04297,-0.269532 0.01562,-0.08333 0.02864,-0.156247 0.03906,-0.21875 0.01302,-0.0651 0.02343,-0.110674 0.03125,-0.136718 l 0.476562,-2.09375 1.3125,0 0.457032,2.09375 c 0.01302,0.05729 0.02994,0.145835 0.05078,0.265625 0.02083,0.119793 0.04166,0.248699 0.0625,0.386718 0.02343,0.135419 0.04296,0.268231 0.05859,0.398438 0.01562,0.127605 0.02473,0.227866 0.02734,0.300781 l 0.02344,0 c 0.0078,-0.0651 0.02083,-0.161457 0.03906,-0.289062 0.02083,-0.127603 0.04297,-0.264322 0.06641,-0.410157 0.02343,-0.148435 0.04817,-0.295571 0.07422,-0.441406 0.02864,-0.145831 0.05468,-0.269529 0.07813,-0.371094 l 0.457032,-1.933593 1.167968,0 -1.191406,4.367187 -1.296875,0"
         inkscape:connector-curvature="0"
         id="path3703"
         style="fill:#ececec" />
      <path
         d="m 52.127789,11.039619 c 0,-0.111973 0.01693,-0.204421 0.05078,-0.277343 0.03385,-0.07551 0.07943,-0.135411 0.136718,-0.179688 0.0599,-0.04687 0.128906,-0.07942 0.207032,-0.09766 0.08073,-0.01822 0.165363,-0.02734 0.253906,-0.02734 0.08854,6e-6 0.171874,0.0091 0.25,0.02734 0.07812,0.01823 0.145832,0.05079 0.203125,0.09766 0.05989,0.04428 0.106769,0.104173 0.140625,0.179688 0.03646,0.07292 0.05469,0.16537 0.05469,0.277343 -10e-7,0.109381 -0.01823,0.201829 -0.05469,0.277344 -0.03386,0.07553 -0.08073,0.136724 -0.140625,0.183594 -0.05729,0.04428 -0.125002,0.07683 -0.203125,0.09766 -0.07813,0.01823 -0.16146,0.02735 -0.25,0.02734 -0.08854,5e-6 -0.173178,-0.0091 -0.253906,-0.02734 -0.07813,-0.02083 -0.147136,-0.05338 -0.207032,-0.09766 -0.05729,-0.04687 -0.102865,-0.108068 -0.136718,-0.183594 -0.03385,-0.07551 -0.05078,-0.167963 -0.05078,-0.277344 m 1.242188,5.496094 -1.191406,0 0,-4.367187 1.191406,0 0,4.367187"
         inkscape:connector-curvature="0"
         id="path3705"
         style="fill:#ececec" />
      <path
         d="m 58.405133,16.535713 -1.191406,0 0,-2.550781 c -3e-6,-0.315101 -0.04818,-0.550778 -0.144531,-0.707031 -0.09375,-0.158851 -0.244795,-0.238278 -0.453125,-0.238282 -0.156253,4e-6 -0.286461,0.03125 -0.390625,0.09375 -0.104169,0.0625 -0.187502,0.154952 -0.25,0.277344 -0.0599,0.122399 -0.102867,0.273441 -0.128907,0.453125 -0.02604,0.17969 -0.03906,0.385419 -0.03906,0.617188 l 0,2.054687 -1.191406,0 0,-4.367187 0.910156,0 0.160156,0.558593 0.06641,0 c 0.0625,-0.111975 0.138019,-0.208329 0.226563,-0.289062 0.09114,-0.08073 0.190102,-0.147131 0.296875,-0.199219 0.106768,-0.05208 0.22005,-0.08984 0.339844,-0.113281 0.119789,-0.02604 0.242184,-0.03906 0.367187,-0.03906 0.213539,5e-6 0.407549,0.03125 0.582031,0.09375 0.174476,0.0599 0.324215,0.154953 0.449219,0.285157 0.124996,0.130212 0.22135,0.296878 0.289063,0.5 0.0677,0.200524 0.101558,0.441409 0.101562,0.722656 l 0,2.847656"
         inkscape:connector-curvature="0"
         id="path3707"
         style="fill:#ececec" />
      <path
         d="m 60.916852,16.613838 c -0.22396,0 -0.428387,-0.04818 -0.613281,-0.144531 -0.184897,-0.09635 -0.343751,-0.238281 -0.476563,-0.425781 -0.132813,-0.190104 -0.23698,-0.425781 -0.3125,-0.707032 -0.07292,-0.281248 -0.109375,-0.606769 -0.109375,-0.976562 0,-0.374998 0.03646,-0.703122 0.109375,-0.984375 0.07552,-0.283851 0.180989,-0.52083 0.316406,-0.710938 0.13802,-0.192704 0.302083,-0.337235 0.492188,-0.433593 0.190103,-0.09635 0.399738,-0.144527 0.628906,-0.144532 0.140623,5e-6 0.269529,0.01693 0.386719,0.05078 0.117185,0.03125 0.222654,0.07683 0.316406,0.136718 0.09375,0.0573 0.177081,0.125005 0.25,0.203125 0.07552,0.07553 0.141924,0.158859 0.199219,0.25 l 0.03906,0 c -0.01563,-0.101558 -0.02995,-0.204423 -0.04297,-0.308593 -0.01302,-0.08854 -0.02474,-0.182288 -0.03516,-0.28125 -0.0078,-0.101558 -0.01172,-0.195308 -0.01172,-0.28125 l 0,-1.398438 1.191406,0 0,6.078125 -0.910156,0 -0.230469,-0.566406 -0.05078,0 c -0.05469,0.08854 -0.117191,0.173177 -0.1875,0.253906 -0.07032,0.07813 -0.152347,0.145834 -0.246094,0.203125 -0.09115,0.05729 -0.195315,0.102865 -0.3125,0.136719 -0.114586,0.03385 -0.244794,0.05078 -0.390625,0.05078 m 0.433594,-0.949219 c 0.140622,10e-7 0.260414,-0.02344 0.359375,-0.07031 0.09896,-0.04948 0.178382,-0.122395 0.238281,-0.21875 0.0625,-0.09896 0.10807,-0.221353 0.136719,-0.367188 0.03125,-0.145831 0.04817,-0.316404 0.05078,-0.511718 l 0,-0.128907 c -3e-6,-0.210935 -0.01302,-0.398434 -0.03906,-0.5625 -0.02604,-0.164059 -0.06901,-0.300778 -0.128906,-0.410156 -0.0599,-0.111976 -0.140628,-0.196611 -0.242187,-0.253906 -0.101565,-0.05729 -0.229169,-0.08593 -0.382813,-0.08594 -0.250002,4e-6 -0.433595,0.113285 -0.550781,0.339844 -0.117189,0.223961 -0.175783,0.550784 -0.175781,0.980469 -2e-6,0.429689 0.05859,0.752606 0.175781,0.96875 0.11979,0.213543 0.305987,0.320313 0.558594,0.320312"
         inkscape:connector-curvature="0"
         id="path3709"
         style="fill:#ececec" />
      <path
         d="m 65.483258,14.344307 c -1e-6,0.434898 0.0612,0.763022 0.183594,0.984375 0.122394,0.218751 0.321612,0.328126 0.597656,0.328125 0.273435,10e-7 0.471352,-0.110676 0.59375,-0.332031 0.122393,-0.221353 0.183591,-0.548176 0.183594,-0.980469 -3e-6,-0.434893 -0.0612,-0.759112 -0.183594,-0.972656 -0.122398,-0.216143 -0.322919,-0.324216 -0.601562,-0.324219 -0.27344,3e-6 -0.471356,0.108076 -0.59375,0.324219 -0.119794,0.213544 -0.179689,0.537763 -0.179688,0.972656 m 2.773438,0 c -5e-6,0.364585 -0.04688,0.687501 -0.140625,0.96875 -0.09115,0.281251 -0.223963,0.51823 -0.398438,0.710937 -0.171878,0.192709 -0.382816,0.339844 -0.632812,0.441407 -0.247399,0.09896 -0.526045,0.148437 -0.835938,0.148437 -0.289064,0 -0.554689,-0.04948 -0.796875,-0.148437 -0.242189,-0.101563 -0.451824,-0.248698 -0.628906,-0.441407 -0.17448,-0.192707 -0.311199,-0.429686 -0.410156,-0.710937 -0.09896,-0.281249 -0.148438,-0.604165 -0.148438,-0.96875 0,-0.361977 0.04557,-0.683591 0.136719,-0.964844 0.09375,-0.281246 0.226562,-0.516923 0.398437,-0.707031 0.174479,-0.192704 0.385416,-0.338538 0.632813,-0.4375 0.247394,-0.09895 0.527342,-0.148433 0.839844,-0.148438 0.28906,5e-6 0.554684,0.04948 0.796875,0.148438 0.242184,0.09896 0.450517,0.244796 0.625,0.4375 0.177079,0.190108 0.3151,0.425785 0.414062,0.707031 0.09895,0.281253 0.148433,0.602867 0.148438,0.964844"
         inkscape:connector-curvature="0"
         id="path3711"
         style="fill:#ececec" />
      <path
         d="m 72.623883,16.535713 -0.335937,-1.527344 c -0.01042,-0.04427 -0.02474,-0.106769 -0.04297,-0.1875 -0.01563,-0.08333 -0.03386,-0.175779 -0.05469,-0.277343 -0.02084,-0.104165 -0.04297,-0.21354 -0.06641,-0.328125 -0.02084,-0.117185 -0.04297,-0.233071 -0.06641,-0.347657 -0.05209,-0.268226 -0.109378,-0.557288 -0.171875,-0.867187 l -0.02344,0 c -0.0599,0.309899 -0.114586,0.600263 -0.164062,0.871094 -0.02084,0.114586 -0.04297,0.230471 -0.06641,0.347656 -0.02084,0.11719 -0.04167,0.227867 -0.0625,0.332031 -0.02084,0.101565 -0.04037,0.194012 -0.05859,0.277344 -0.01563,0.08333 -0.02865,0.148439 -0.03906,0.195312 l -0.351562,1.511719 -1.28125,0 -1.175781,-4.367187 1.183593,0 0.441407,1.933593 c 0.02344,0.101565 0.04687,0.223961 0.07031,0.367188 0.02604,0.140627 0.04948,0.283856 0.07031,0.429687 0.02343,0.143231 0.04427,0.27995 0.0625,0.410157 0.01823,0.127605 0.03255,0.229167 0.04297,0.304687 l 0.02344,0 c 0.0026,-0.04948 0.0078,-0.11328 0.01563,-0.191406 0.01041,-0.08073 0.02213,-0.166665 0.03516,-0.257813 0.01302,-0.09114 0.02604,-0.183592 0.03906,-0.277343 0.01562,-0.09635 0.02995,-0.186196 0.04297,-0.269532 0.01562,-0.08333 0.02864,-0.156247 0.03906,-0.21875 0.01302,-0.0651 0.02343,-0.110674 0.03125,-0.136718 l 0.476562,-2.09375 1.3125,0 0.457032,2.09375 c 0.01302,0.05729 0.02994,0.145835 0.05078,0.265625 0.02083,0.119793 0.04166,0.248699 0.0625,0.386718 0.02343,0.135419 0.04296,0.268231 0.05859,0.398438 0.01562,0.127605 0.02473,0.227866 0.02734,0.300781 l 0.02344,0 c 0.0078,-0.0651 0.02083,-0.161457 0.03906,-0.289062 0.02083,-0.127603 0.04296,-0.264322 0.06641,-0.410157 0.02343,-0.148435 0.04817,-0.295571 0.07422,-0.441406 0.02864,-0.145831 0.05468,-0.269529 0.07813,-0.371094 l 0.457032,-1.933593 1.167968,0 -1.191406,4.367187 -1.296875,0"
         inkscape:connector-curvature="0"
         id="path3713"
         style="fill:#ececec" />
    </g>
  </g>
  <g
     id="g5022"
     style="opacity:0.58730002"
     transform="matrix(0.02150759,0,0,0.01244898,73.602504,76.655542)" />
</svg>
