<?xml version="1.0" encoding="UTF-8" standalone="no"?>
<!-- Created with Inkscape (http://www.inkscape.org/) -->

<svg
   xmlns:dc="http://purl.org/dc/elements/1.1/"
   xmlns:cc="http://creativecommons.org/ns#"
   xmlns:rdf="http://www.w3.org/1999/02/22-rdf-syntax-ns#"
   xmlns:svg="http://www.w3.org/2000/svg"
   xmlns="http://www.w3.org/2000/svg"
   xmlns:xlink="http://www.w3.org/1999/xlink"
   xmlns:sodipodi="http://sodipodi.sourceforge.net/DTD/sodipodi-0.dtd"
   xmlns:inkscape="http://www.inkscape.org/namespaces/inkscape"
   version="1.0"
   width="96"
   height="96"
   id="svg2408"
   inkscape:version="0.48.1 r9760"
   sodipodi:docname="flashplayer.svg">
  <sodipodi:namedview
     pagecolor="#ffffff"
     bordercolor="#666666"
     borderopacity="1"
     objecttolerance="10"
     gridtolerance="10"
     guidetolerance="10"
     inkscape:pageopacity="0"
     inkscape:pageshadow="2"
     inkscape:window-width="1249"
     inkscape:window-height="767"
     id="namedview110"
     showgrid="false"
     inkscape:zoom="3.3020833"
     inkscape:cx="48"
     inkscape:cy="15.444795"
     inkscape:window-x="473"
     inkscape:window-y="114"
     inkscape:window-maximized="0"
     inkscape:current-layer="layer5" />
  <defs
     id="defs2410">
    <linearGradient
       id="linearGradient3865">
      <stop
         id="stop3867"
         style="stop-color:#ffffff;stop-opacity:1;"
         offset="0" />
      <stop
         id="stop3869"
         style="stop-color:#d7d7d7;stop-opacity:0;"
         offset="1" />
    </linearGradient>
    <linearGradient
       id="linearGradient4314">
      <stop
         id="stop4316"
         style="stop-color:#ffffff;stop-opacity:1"
         offset="0" />
      <stop
         id="stop4322"
         style="stop-color:#ffffff;stop-opacity:0.49803922"
         offset="0.30000001" />
      <stop
         id="stop4318"
         style="stop-color:#ffffff;stop-opacity:0"
         offset="1" />
    </linearGradient>
    <linearGradient
       x1="45.447727"
       y1="92.539597"
       x2="45.447727"
       y2="7.0165396"
       id="ButtonShadow"
       gradientUnits="userSpaceOnUse"
       gradientTransform="scale(1.0058652,0.994169)">
      <stop
         id="stop3750"
         style="stop-color:#000000;stop-opacity:1"
         offset="0" />
      <stop
         id="stop3752"
         style="stop-color:#000000;stop-opacity:0.58823532"
         offset="1" />
    </linearGradient>
    <linearGradient
       id="linearGradient3737">
      <stop
         id="stop3739"
         style="stop-color:#ffffff;stop-opacity:1"
         offset="0" />
      <stop
         id="stop3741"
         style="stop-color:#ffffff;stop-opacity:0"
         offset="1" />
    </linearGradient>
    <filter
       color-interpolation-filters="sRGB"
       id="filter3174">
      <feGaussianBlur
         id="feGaussianBlur3176"
         stdDeviation="1.71" />
    </filter>
    <linearGradient
       x1="36.357143"
       y1="6"
       x2="36.357143"
       y2="63.893143"
       id="linearGradient3188"
       xlink:href="#linearGradient3737"
       gradientUnits="userSpaceOnUse" />
    <filter
       x="-0.192"
       y="-0.192"
       width="1.3839999"
       height="1.3839999"
       color-interpolation-filters="sRGB"
       id="filter3794">
      <feGaussianBlur
         id="feGaussianBlur3796"
         stdDeviation="5.28" />
    </filter>
    <linearGradient
       x1="48"
       y1="20.220806"
       x2="48"
       y2="138.66119"
       id="linearGradient3613"
       xlink:href="#linearGradient3737"
       gradientUnits="userSpaceOnUse" />
    <radialGradient
       cx="48"
       cy="90.171875"
       r="42"
       fx="48"
       fy="90.171875"
       id="radialGradient3619"
       xlink:href="#linearGradient3737"
       gradientUnits="userSpaceOnUse"
       gradientTransform="matrix(1.1573129,0,0,0.99590774,-7.5510206,0.19713193)" />
    <clipPath
       id="clipPath3613">
      <rect
         width="84"
         height="84"
         rx="6"
         ry="6"
         x="6"
         y="6"
         id="rect3615"
         style="fill:#ffffff;fill-opacity:1;fill-rule:nonzero;stroke:none" />
    </clipPath>
    <linearGradient
       x1="48"
       y1="90"
       x2="48"
       y2="5.9877172"
       id="linearGradient3617"
       xlink:href="#linearGradient3187"
       gradientUnits="userSpaceOnUse" />
    <linearGradient
       id="linearGradient3187">
      <stop
         id="stop3189"
         style="stop-color:#282828;stop-opacity:1"
         offset="0" />
      <stop
         id="stop3191"
         style="stop-color:#5a5a5a;stop-opacity:1"
         offset="1" />
    </linearGradient>
    <linearGradient
       id="linearGradient3299">
      <stop
         id="stop3301"
         style="stop-color:#dfdfdf;stop-opacity:1"
         offset="0" />
      <stop
         id="stop3303"
         style="stop-color:#434343;stop-opacity:1"
         offset="1" />
    </linearGradient>
    <linearGradient
       id="linearGradient3273">
      <stop
         id="stop3275"
         style="stop-color:#5d5d5d;stop-opacity:1"
         offset="0" />
      <stop
         id="stop3277"
         style="stop-color:#171717;stop-opacity:1"
         offset="1" />
    </linearGradient>
    <linearGradient
       id="linearGradient3289">
      <stop
         id="stop3291"
         style="stop-color:#919191;stop-opacity:1"
         offset="0" />
      <stop
         id="stop3293"
         style="stop-color:#232323;stop-opacity:1"
         offset="1" />
    </linearGradient>
    <linearGradient
       id="linearGradient3260"
       gradientUnits="userSpaceOnUse">
      <stop
         id="stop3262"
         style="stop-color:#000000;stop-opacity:1"
         offset="0" />
      <stop
         id="stop3266"
         style="stop-color:#000000;stop-opacity:0.3548387"
         offset="0.2" />
      <stop
         id="stop3268"
         style="stop-color:#000000;stop-opacity:0"
         offset="0.55254942" />
      <stop
         id="stop3264"
         style="stop-color:#000000;stop-opacity:0"
         offset="1" />
    </linearGradient>
    <linearGradient
       x1="43.476658"
       y1="26"
       x2="43.476658"
       y2="34.001266"
       id="linearGradient4262"
       xlink:href="#linearGradient3260"
       gradientUnits="userSpaceOnUse"
       gradientTransform="matrix(0.72413795,0,0,0.75,1.6551725,4.5)" />
    <linearGradient
       x1="48"
       y1="16"
       x2="48"
       y2="11.924657"
       id="linearGradient4310"
       xlink:href="#linearGradient3260"
       gradientUnits="userSpaceOnUse"
       gradientTransform="matrix(1,0,0,1.25,0,-4.5982122)" />
    <linearGradient
       x1="50.464287"
       y1="16.035713"
       x2="50.464287"
       y2="20.329885"
       id="linearGradient4320"
       xlink:href="#linearGradient4314"
       gradientUnits="userSpaceOnUse"
       gradientTransform="translate(0,-0.67856979)" />
    <linearGradient
       x1="48"
       y1="16"
       x2="48"
       y2="11.924657"
       id="linearGradient4326"
       xlink:href="#linearGradient3260"
       gradientUnits="userSpaceOnUse"
       gradientTransform="matrix(1,0,0,1.25,0,4.4017878)" />
    <linearGradient
       x1="11"
       y1="10.441942"
       x2="16"
       y2="24"
       id="linearGradient4371"
       xlink:href="#linearGradient3273"
       gradientUnits="userSpaceOnUse"
       gradientTransform="matrix(0.81330712,0,0,0.81132563,3.9935431,2.0281849)" />
    <linearGradient
       x1="13.125"
       y1="9.9419422"
       x2="19.25"
       y2="24.5"
       id="linearGradient4373"
       xlink:href="#linearGradient3289"
       gradientUnits="userSpaceOnUse"
       gradientTransform="matrix(0.81330712,0,0,0.81132563,3.9935431,2.0281849)" />
    <radialGradient
       cx="11.3125"
       cy="14.9375"
       r="1.4375"
       fx="11.3125"
       fy="14.9375"
       id="radialGradient4375"
       xlink:href="#linearGradient3299"
       gradientUnits="userSpaceOnUse" />
    <radialGradient
       cx="11.3125"
       cy="14.9375"
       r="1.4375"
       fx="11.3125"
       fy="14.9375"
       id="radialGradient4377"
       xlink:href="#linearGradient3299"
       gradientUnits="userSpaceOnUse" />
    <radialGradient
       cx="11.3125"
       cy="14.9375"
       r="1.4375"
       fx="11.3125"
       fy="14.9375"
       id="radialGradient4379"
       xlink:href="#linearGradient3299"
       gradientUnits="userSpaceOnUse" />
    <linearGradient
       x1="31.642857"
       y1="25.779018"
       x2="31.642857"
       y2="69.410355"
       id="linearGradient3871"
       xlink:href="#linearGradient3865"
       gradientUnits="userSpaceOnUse" />
    <linearGradient
       x1="45.447727"
       y1="92.539597"
       x2="45.447727"
       y2="7.0165396"
       id="ButtonShadow-0"
       gradientUnits="userSpaceOnUse"
       gradientTransform="matrix(1.0058652,0,0,0.994169,100,0)">
      <stop
         id="stop3750-8"
         style="stop-color:#000000;stop-opacity:1"
         offset="0" />
      <stop
         id="stop3752-5"
         style="stop-color:#000000;stop-opacity:0.58823532"
         offset="1" />
    </linearGradient>
    <linearGradient
       x1="32.251034"
       y1="6.1317081"
       x2="32.251034"
       y2="90.238609"
       id="linearGradient3780"
       xlink:href="#ButtonShadow-0"
       gradientUnits="userSpaceOnUse"
       gradientTransform="matrix(1.0238095,0,0,1.0119048,-1.1428571,-98.071429)" />
    <linearGradient
       x1="32.251034"
       y1="6.1317081"
       x2="32.251034"
       y2="90.238609"
       id="linearGradient3772"
       xlink:href="#ButtonShadow-0"
       gradientUnits="userSpaceOnUse"
       gradientTransform="matrix(1.0238095,0,0,1.0119048,-1.1428571,-98.071429)" />
    <linearGradient
       x1="32.251034"
       y1="6.1317081"
       x2="32.251034"
       y2="90.238609"
       id="linearGradient3725"
       xlink:href="#ButtonShadow-0"
       gradientUnits="userSpaceOnUse"
       gradientTransform="matrix(1.0238095,0,0,1.0119048,-1.1428571,-98.071429)" />
    <linearGradient
       x1="32.251034"
       y1="6.1317081"
       x2="32.251034"
       y2="90.238609"
       id="linearGradient3721"
       xlink:href="#ButtonShadow-0"
       gradientUnits="userSpaceOnUse"
       gradientTransform="translate(0,-97)" />
    <linearGradient
       x1="32.251034"
       y1="6.1317081"
       x2="32.251034"
       y2="90.238609"
       id="linearGradient3071"
       xlink:href="#ButtonShadow-0"
       gradientUnits="userSpaceOnUse"
       gradientTransform="matrix(1.0238095,0,0,1.0119048,-1.1428571,-98.071429)" />
    <linearGradient
       id="linearGradient3688">
      <stop
         id="stop3690"
         style="stop-color:#d9d9d9;stop-opacity:1;"
         offset="0" />
      <stop
         id="stop3692"
         style="stop-color:#808080;stop-opacity:1;"
         offset="1" />
    </linearGradient>
    <radialGradient
       cx="48"
       cy="85.131531"
       r="36"
       fx="48"
       fy="85.131531"
       id="radialGradient3833"
       xlink:href="#linearGradient3688"
       gradientUnits="userSpaceOnUse"
       gradientTransform="matrix(1.4018647,1.2754473e-8,-1.1111112e-8,1.2212402,-19.289505,-25.867403)" />
    <linearGradient
       id="linearGradient3694">
      <stop
         id="stop3696"
         style="stop-color:#e6e6e6;stop-opacity:1"
         offset="0" />
      <stop
         id="stop3698"
         style="stop-color:#f5f5f5;stop-opacity:1"
         offset="1" />
    </linearGradient>
    <linearGradient
       x1="62.336792"
       y1="79.015236"
       x2="62.336792"
       y2="12.797539"
       id="linearGradient3736"
       xlink:href="#linearGradient3694"
       gradientUnits="userSpaceOnUse"
       gradientTransform="matrix(0.56904514,0,0,0.58994208,18.57573,28.898855)" />
    <linearGradient
       inkscape:collect="always"
       id="linearGradient10446">
      <stop
         style="stop-color:#ffffff;stop-opacity:1;"
         offset="0"
         id="stop10448" />
      <stop
         style="stop-color:#ffffff;stop-opacity:0;"
         offset="1"
         id="stop10450" />
    </linearGradient>
    <linearGradient
       y2="243.07646"
       x2="564.28571"
       y1="200.93361"
       x1="582.85712"
       gradientTransform="translate(5.4285714,-5.4285714)"
       gradientUnits="userSpaceOnUse"
       id="linearGradient4160"
       xlink:href="#linearGradient10446"
       inkscape:collect="always" />
  </defs>
  <metadata
     id="metadata2413">
    <rdf:RDF>
      <cc:Work
         rdf:about="">
        <dc:format>image/svg+xml</dc:format>
        <dc:type
           rdf:resource="http://purl.org/dc/dcmitype/StillImage" />
        <dc:title />
      </cc:Work>
    </rdf:RDF>
  </metadata>
  <g
     id="layer2"
     style="display:none">
    <rect
       width="86"
       height="85"
       rx="6"
       ry="6"
       x="5"
       y="7"
       id="rect3745"
       style="opacity:0.9;fill:url(#ButtonShadow);fill-opacity:1;fill-rule:nonzero;stroke:none;filter:url(#filter3174)" />
  </g>
  <g
     id="layer7"
     style="display:inline">
    <path
       d="m 12,-95.03125 c -5.5110903,0 -10.03125,4.52016 -10.03125,10.03125 l 0,71 c 0,5.5110902 4.5201598,10.03125 10.03125,10.03125 l 72,0 c 5.51109,0 10.03125,-4.5201597 10.03125,-10.03125 l 0,-71 c 0,-5.51109 -4.52016,-10.03125 -10.03125,-10.03125 l -72,0 z"
       transform="scale(1,-1)"
       id="path3786"
       style="opacity:0.07999998;fill:url(#linearGradient3071);fill-opacity:1;fill-rule:nonzero;stroke:none;display:inline" />
    <path
       d="m 12,-94.03125 c -4.971633,0 -9.03125,4.059617 -9.03125,9.03125 l 0,71 c 0,4.9716329 4.0596171,9.03125 9.03125,9.03125 l 72,0 c 4.971633,0 9.03125,-4.059617 9.03125,-9.03125 l 0,-71 c 0,-4.971633 -4.059617,-9.03125 -9.03125,-9.03125 l -72,0 z"
       transform="scale(1,-1)"
       id="path3778-0"
       style="opacity:0.1;fill:url(#linearGradient3780);fill-opacity:1;fill-rule:nonzero;stroke:none;display:inline" />
    <path
       d="m 12,-93 c -4.4091333,0 -8,3.590867 -8,8 l 0,71 c 0,4.4091333 3.5908667,8 8,8 l 72,0 c 4.409133,0 8,-3.5908667 8,-8 l 0,-71 c 0,-4.409133 -3.590867,-8 -8,-8 l -72,0 z"
       transform="scale(1,-1)"
       id="path3770"
       style="opacity:0.2;fill:url(#linearGradient3772);fill-opacity:1;fill-rule:nonzero;stroke:none;display:inline" />
    <rect
       width="86"
       height="85"
       rx="7"
       ry="7"
       x="5"
       y="-92"
       transform="scale(1,-1)"
       id="rect3723"
       style="opacity:0.3;fill:url(#linearGradient3725);fill-opacity:1;fill-rule:nonzero;stroke:none;display:inline" />
    <rect
       width="84"
       height="84"
       rx="6"
       ry="6"
       x="6"
       y="-91"
       transform="scale(1,-1)"
       id="rect3716"
       style="opacity:0.45;fill:url(#linearGradient3721);fill-opacity:1;fill-rule:nonzero;stroke:none;display:inline" />
  </g>
  <g
     id="layer1"
     style="display:inline">
    <rect
       width="84"
       height="84"
       rx="6"
       ry="6"
       x="6"
       y="6"
       id="rect2419"
       style="fill:url(#linearGradient3617);fill-opacity:1;fill-rule:nonzero;stroke:none" />
    <path
       d="m 12,30 0,4 0,10.51735 L 12,70 12,80 c 0,2.216 1.784,4 4,4 l 64,0 c 2.216,0 4,-1.784 4,-4 l 0,-10 0,-36 0,-4 -4,0 -64,0 z"
       inkscape:connector-curvature="0"
       id="rect2980"
       style="fill:url(#radialGradient3833);fill-opacity:1;stroke:none"
       sodipodi:nodetypes="ccccsssscccccc" />
    <path
       d="m 12,30 0,4 0,31.84375 C 27.836766,55.890561 54.040184,49.184828 84,48.5625 L 84,34 l 0,-4 -4,0 -64,0 -4,0 z"
       inkscape:connector-curvature="0"
       id="path3858"
       style="opacity:0.4;fill:url(#linearGradient3871);fill-opacity:1;stroke:none" />
    <path
       d="m 12,30 0,4 0,36 0,10 c 0,2.216 1.784,4 4,4 l 64,0 c 2.216,0 4,-1.784 4,-4 l 0,-10 0,-36 0,-4 -4,0 -64,0 -4,0 z m 3.09375,3.09375 0.90625,0 64,0 0.90625,0 0,0.90625 0,36 0,10 c 0,0.550784 -0.355466,0.90625 -0.90625,0.90625 l -64,0 c -0.550784,0 -0.90625,-0.355466 -0.90625,-0.90625 l 0,-10 0,-36 0,-0.90625 z"
       inkscape:connector-curvature="0"
       id="path3828"
       style="opacity:0.07999998;fill:#000000;fill-opacity:1;stroke:none" />
    <path
       d="m 12,80 0,1 c 0,2.216 1.784,4 4,4 l 64,0 c 2.216,0 4,-1.784 4,-4 l 0,-1 c 0,2.216 -1.784,4 -4,4 l -64,0 c -2.216,0 -4,-1.784 -4,-4 z"
       inkscape:connector-curvature="0"
       id="path3809"
       style="opacity:0.3;fill:#ffffff;fill-opacity:1;stroke:none" />
    <path
       d="m 12,30 0,4 0,36 0,10 c 0,2.216 1.784,4 4,4 l 64,0 c 2.216,0 4,-1.784 4,-4 l 0,-10 0,-36 0,-4 -4,0 -64,0 -4,0 z m 2.03125,2.03125 1.96875,0 64,0 1.96875,0 0,1.96875 0,36 0,10 c 0,1.118634 -0.850116,1.96875 -1.96875,1.96875 l -64,0 c -1.118634,0 -1.96875,-0.850116 -1.96875,-1.96875 l 0,-10 0,-36 0,-1.96875 z"
       inkscape:connector-curvature="0"
       id="path3831"
       style="opacity:0.2;fill:#000000;fill-opacity:1;stroke:none" />
    <path
       d="m 12,30 0,4 0,36 0,10 c 0,2.216 1.784,4 4,4 l 64,0 c 2.216,0 4,-1.784 4,-4 l 0,-10 0,-36 0,-4 -4,0 -64,0 z m 1.0625,1.0625 2.9375,0 64,0 2.9375,0 0,2.9375 0,36 0,10 c 0,0.552722 -0.147096,1.066368 -0.404905,1.504554 C 82.025003,82.367286 81.088239,82.9375 80,82.9375 l -64,0 c -1.640961,0 -2.9375,-1.296539 -2.9375,-2.9375 l 0,-10 0,-36 z"
       inkscape:connector-curvature="0"
       id="path3818"
       style="fill:#262626;fill-opacity:1;stroke:none"
       sodipodi:nodetypes="cccssssccccccccccccsssssccc" />
    <g
       transform="matrix(0.2032423,0,0,0.21345623,-40.9548,3.1630562)"
       id="g11440">
      <path
         style="fill:#000000;fill-opacity:1;fill-rule:evenodd;stroke:none"
         d="m 273.92857,204.1479 12.85714,0 8.57143,32.5 8.21429,-32.5 13.21428,0 -14.64285,49.64286 -0.35715,36.78571 -12.14285,0 0,-36.07143 -15.71429,-50.35714 z"
         id="path2574"
         inkscape:connector-curvature="0" />
      <path
         style="fill:#000000;fill-opacity:1;fill-rule:evenodd;stroke:none"
         d="m 335.34375,224.87054 c -15,0 -16.40625,13.21875 -16.40625,13.21875 l 0,39.625 c 0,0 2.12053,12.51786 16.40625,12.875 14.28572,0.35714 16.4375,-11.81251 16.4375,-11.8125 0,0 0.35715,-24.63393 0,-38.5625 -0.35714,-13.92857 -16.43751,-15.34375 -16.4375,-15.34375 z m -0.6875,10.34375 c 3.21429,0 5.90643,0.61372 6.0625,4.65625 0.42231,10.93831 0,37.5 0,37.5 0,0 -0.0179,3.90625 -5.375,3.90625 -5.35715,-1e-5 -5.53125,-4.625 -5.53125,-4.625 0,0 -0.74268,-25.28698 -0.53125,-36.78125 0.0587,-3.19384 2.16071,-4.65625 5.375,-4.65625 z"
         id="path3545"
         inkscape:connector-curvature="0" />
      <path
         style="fill:#000000;fill-opacity:1;fill-rule:evenodd;stroke:none"
         d="m 362.32143,225.93361 10.53571,0.17858 0.35715,51.78571 c 0,0 -0.35715,3.21429 3.21428,3.21429 3.57143,0 7.14286,-5.89286 7.14286,-5.89286 l 0,-49.10714 10.17857,0.17857 0.17857,63.92857 -9.28571,0 -0.17857,-5.71429 c 0,0 -6.96429,6.78572 -14.10715,5.89286 -7.14285,-0.89286 -7.67857,-5.89286 -7.67857,-5.89286 l -0.35714,-58.57143 z"
         id="path5489"
         sodipodi:nodetypes="cccsccccccscc"
         inkscape:connector-curvature="0" />
      <rect
         style="fill:#f60e0e;fill-opacity:1;stroke:none"
         id="rect6540"
         width="194.28572"
         height="130"
         x="407.14285"
         y="184.14787"
         rx="25.071428"
         ry="25.785713" />
      <path
         style="fill:#ffffff;fill-opacity:1;fill-rule:evenodd;stroke:none"
         d="m 424.10714,204.86219 38.92857,0.35714 0,10.71428 -13.03571,0 0,74.10715 -12.5,0.17857 -0.17857,-74.28572 -13.39286,0 0.17857,-11.07142 z"
         id="path6478"
         inkscape:connector-curvature="0" />
      <path
         style="fill:#ffffff;fill-opacity:1;fill-rule:evenodd;stroke:none"
         d="m 463.83929,225.98241 10.53571,0.17858 0.35715,51.78571 c 0,0 -0.35715,3.21429 3.21428,3.21429 3.57143,0 7.14286,-5.89286 7.14286,-5.89286 l 0,-49.10714 10.17857,0.17857 0.17857,63.92857 -9.28571,0 -0.17857,-5.71429 c 0,0 -6.96429,6.78572 -14.10715,5.89286 -7.14285,-0.89286 -7.67857,-5.89286 -7.67857,-5.89286 l -0.35714,-58.57143 z"
         id="path6480"
         sodipodi:nodetypes="cccsccccccscc"
         inkscape:connector-curvature="0" />
      <path
         style="fill:#ffffff;fill-opacity:1;fill-rule:evenodd;stroke:none"
         d="m 508.75,204.87054 0,85.875 10.90625,0.1875 -0.1875,-5.1875 c 0,0 0.17857,5.00001 11.25,5 11.07143,0 11.06251,-6.25001 11.0625,-6.25 0,0 -0.19691,-42.17167 -0.1875,-52.125 0.003,-2.82754 -2.9266,-5.83349 -9.09375,-6.625 -5.33112,-0.68422 -12.85117,5.76913 -12.84375,5.53125 0.16793,-5.37705 10e-6,-26.40625 0,-26.40625 l -10.90625,0 z m 17,30.6875 c 0.37723,0.0179 0.77113,0.10462 1.15625,0.21875 2.04422,0.6248 3.59776,2.43801 4.34375,4.375 -0.0594,12.28938 -0.12813,24.55438 -0.1875,36.84375 -0.9406,2.77917 -4.03421,4.44367 -6.875,3.84375 -2.16742,-0.37296 -4.13404,-2.11272 -4.71875,-4.21875 0.0592,-12.25731 0.12829,-24.49269 0.1875,-36.75 1.10523,-2.32442 3.45313,-4.43795 6.09375,-4.3125 z"
         id="path6482"
         inkscape:connector-curvature="0" />
      <path
         style="fill:#ffffff;fill-opacity:1;fill-rule:evenodd;stroke:none"
         d="m 569.65625,225.02679 c -11.60876,0.29986 -16.73654,7.98461 -16.8125,11.25 -0.30008,12.89861 -0.15624,41.625 -0.15625,41.625 0,0 3.56696,12.84376 18.03125,12.84375 14.46428,0 16.59374,-11.25001 16.59375,-11.25 l 0,-12.3125 -11.40625,0 0,8.9375 c 0,0 -0.19196,4.28125 -5.90625,4.28125 -5.71428,0 -6.43751,-4.12501 -6.4375,-4.125 l 0.1875,-16.59375 23.21875,0 c 0,0 0.81036,-20.50619 0.34375,-21.78125 -2.84188,-7.76551 -7.66184,-13.13778 -17.65625,-12.875 z M 570,234.68304 c 5.17857,1e-5 5.90625,4.65625 5.90625,4.65625 l 0,10.34375 -10.71875,0 L 565,239.15179 c 0,0 -0.17857,-4.46875 5,-4.46875 z"
         id="path6527"
         inkscape:connector-curvature="0" />
      <rect
         style="opacity:0.42276426;fill:url(#linearGradient4160);fill-opacity:1;stroke:none"
         id="rect9475"
         width="194.28572"
         height="130"
         x="402.57144"
         y="189.07646"
         rx="25.071428"
         ry="25.785713" />
    </g>
  </g>
  <g
     id="layer5">
    <path
       d="M 12,90 C 8.676,90 6,87.324 6,84 L 6,82 6,14 6,12 c 0,-0.334721 0.04135,-0.6507 0.09375,-0.96875 0.0487,-0.295596 0.09704,-0.596915 0.1875,-0.875 C 6.29113,10.12587 6.302142,10.09265 6.3125,10.0625 6.411365,9.774729 6.5473802,9.515048 6.6875,9.25 6.8320918,8.976493 7.0031161,8.714385 7.1875,8.46875 7.3718839,8.223115 7.5612765,7.995278 7.78125,7.78125 8.221197,7.353194 8.72416,6.966724 9.28125,6.6875 9.559795,6.547888 9.8547231,6.440553 10.15625,6.34375 9.9000482,6.443972 9.6695391,6.580022 9.4375,6.71875 c -0.00741,0.0044 -0.023866,-0.0045 -0.03125,0 -0.031933,0.0193 -0.062293,0.04251 -0.09375,0.0625 -0.120395,0.0767 -0.2310226,0.163513 -0.34375,0.25 -0.1061728,0.0808 -0.2132809,0.161112 -0.3125,0.25 C 8.4783201,7.442683 8.3087904,7.626638 8.15625,7.8125 8.0486711,7.942755 7.9378561,8.077785 7.84375,8.21875 7.818661,8.25713 7.805304,8.30462 7.78125,8.34375 7.716487,8.446782 7.6510225,8.548267 7.59375,8.65625 7.4927417,8.850956 7.3880752,9.071951 7.3125,9.28125 7.30454,9.30306 7.288911,9.3218 7.28125,9.34375 7.2494249,9.4357 7.2454455,9.530581 7.21875,9.625 7.1884177,9.731618 7.1483606,9.828031 7.125,9.9375 7.0521214,10.279012 7,10.635705 7,11 l 0,2 0,68 0,2 c 0,2.781848 2.2181517,5 5,5 l 2,0 68,0 2,0 c 2.781848,0 5,-2.218152 5,-5 l 0,-2 0,-68 0,-2 C 89,10.635705 88.94788,10.279012 88.875,9.9375 88.83085,9.730607 88.78662,9.539842 88.71875,9.34375 88.71105,9.3218 88.69545,9.30306 88.6875,9.28125 88.62476,9.107511 88.549117,8.913801 88.46875,8.75 88.42717,8.6672 88.38971,8.580046 88.34375,8.5 88.28915,8.40279 88.216976,8.31165 88.15625,8.21875 88.06214,8.077785 87.951329,7.942755 87.84375,7.8125 87.700576,7.63805 87.540609,7.465502 87.375,7.3125 87.36383,7.3023 87.35502,7.29135 87.34375,7.28125 87.205364,7.155694 87.058659,7.046814 86.90625,6.9375 86.803679,6.86435 86.701932,6.784136 86.59375,6.71875 c -0.0074,-0.0045 -0.02384,0.0044 -0.03125,0 -0.232039,-0.138728 -0.462548,-0.274778 -0.71875,-0.375 0.301527,0.0968 0.596455,0.204138 0.875,0.34375 0.55709,0.279224 1.060053,0.665694 1.5,1.09375 0.219973,0.214028 0.409366,0.441865 0.59375,0.6875 0.184384,0.245635 0.355408,0.507743 0.5,0.78125 0.14012,0.265048 0.276135,0.524729 0.375,0.8125 0.01041,0.03078 0.02133,0.06274 0.03125,0.09375 0.09046,0.278085 0.1388,0.579404 0.1875,0.875 C 89.95865,11.3493 90,11.665279 90,12 l 0,2 0,68 0,2 c 0,3.324 -2.676,6 -6,6 l -72,0 z"
       inkscape:connector-curvature="0"
       id="path3615"
       style="opacity:0.2;fill:url(#radialGradient3619);fill-opacity:1;fill-rule:nonzero;stroke:none" />
    <rect
       width="66"
       height="66"
       rx="12"
       ry="12"
       x="15"
       y="15"
       clip-path="url(#clipPath3613)"
       id="rect3171"
       style="opacity:0.1;fill:url(#linearGradient3613);fill-opacity:1;fill-rule:nonzero;stroke:#ffffff;stroke-width:0.5;stroke-linecap:round;stroke-linejoin:miter;stroke-miterlimit:4;stroke-opacity:1;stroke-dasharray:none;stroke-dashoffset:0;filter:url(#filter3794)"
       transform="translate(1.8296529e-7,0.30283907)" />
  </g>
  <g
     id="layer3">
    <path
       d="M 12,6 C 8.676,6 6,8.676 6,12 l 0,12 84,0 0,-12 C 90,8.676 87.324,6 84,6 L 12,6 z"
       inkscape:connector-curvature="0"
       id="rect4237"
       style="fill:#000000;fill-opacity:1;fill-rule:nonzero;stroke:none" />
    <rect
       width="84"
       height="6"
       x="6"
       y="24"
       id="rect3250"
       style="opacity:0.8;fill:url(#linearGradient4262);fill-opacity:1;fill-rule:evenodd;stroke:none" />
    <rect
       width="84"
       height="5"
       x="6"
       y="15"
       id="rect4289"
       style="opacity:0.3;fill:url(#linearGradient4320);fill-opacity:1;fill-rule:evenodd;stroke:none" />
    <g
       transform="translate(1,0)"
       id="g4299">
      <path
         d="M 28.333333,6 23,15 28.333333,24 39,24 33.666667,15 39,6 28.333333,6 z"
         inkscape:connector-curvature="0"
         id="path4293"
         style="fill:#f0f0f0;fill-opacity:1;fill-rule:evenodd;stroke:none" />
      <path
         d="M 50.333333,6 45,15 50.333333,24 61,24 55.666667,15 61,6 50.333333,6 z"
         inkscape:connector-curvature="0"
         id="path4295"
         style="fill:#f0f0f0;fill-opacity:1;fill-rule:evenodd;stroke:none" />
      <path
         d="M 72.333333,6 67,15 72.333333,24 83,24 77.666667,15 83,6 72.333333,6 z"
         inkscape:connector-curvature="0"
         id="path4297"
         style="fill:#f0f0f0;fill-opacity:1;fill-rule:evenodd;stroke:none" />
    </g>
    <rect
       width="84"
       height="5"
       x="6"
       y="10"
       id="rect4291"
       style="opacity:0.7;fill:url(#linearGradient4310);fill-opacity:1;fill-rule:evenodd;stroke:none" />
    <rect
       width="84"
       height="5"
       x="6"
       y="19"
       id="rect4324"
       style="opacity:0.7;fill:url(#linearGradient4326);fill-opacity:1;fill-rule:evenodd;stroke:none" />
    <path
       d="m 12.005391,10.5 c 1.109513,0 1.770155,0.983693 6.03003,4.302704 4.304387,3.353689 5.477493,3.726472 5.477493,5.074645 0,1.348423 -1.088205,1.622651 -2.439921,1.622651 l -8.133072,0 C 11.588205,21.5 10.5,20.414446 10.5,19.066023 l 0,-6.490605 C 10.5,11.226995 10.967611,10.5 12.005391,10.5 z"
       inkscape:connector-curvature="0"
       id="path4333"
       style="fill:url(#linearGradient4371);fill-opacity:1;fill-rule:evenodd;stroke:url(#linearGradient4373);stroke-width:1;stroke-linecap:butt;stroke-linejoin:round;stroke-miterlimit:4;stroke-opacity:1;stroke-dasharray:none;stroke-dashoffset:0" />
    <path
       d="m 12.75,14.9375 a 1.4375,1.4375 0 1 1 -2.875,0 1.4375,1.4375 0 1 1 2.875,0 z"
       transform="matrix(0.81330712,0,0,0.81132563,3.5868895,1.0746776)"
       id="path4335"
       style="fill:url(#radialGradient4379);fill-opacity:1;fill-rule:evenodd;stroke:none" />
    <path
       d="m 12.75,14.9375 a 1.4375,1.4375 0 1 1 -2.875,0 1.4375,1.4375 0 1 1 2.875,0 z"
       transform="matrix(0.81330712,0,0,0.81132563,3.5868895,7.09897)"
       id="path4337"
       style="fill:url(#radialGradient4377);fill-opacity:1;fill-rule:evenodd;stroke:none" />
    <path
       d="m 12.75,14.9375 a 1.4375,1.4375 0 1 1 -2.875,0 1.4375,1.4375 0 1 1 2.875,0 z"
       transform="matrix(0.81330712,0,0,0.81132563,11.618297,7.09897)"
       id="path4339"
       style="fill:url(#radialGradient4375);fill-opacity:1;fill-rule:evenodd;stroke:none" />
  </g>
  <g
     id="layer4">
    <path
       d="M 12,6 C 8.676,6 6,8.676 6,12 l 0,2 0,68 0,2 c 0,0.334721 0.04135,0.6507 0.09375,0.96875 0.0487,0.295596 0.09704,0.596915 0.1875,0.875 0.00988,0.03038 0.020892,0.0636 0.03125,0.09375 0.098865,0.287771 0.2348802,0.547452 0.375,0.8125 0.1445918,0.273507 0.3156161,0.535615 0.5,0.78125 0.1843839,0.245635 0.3737765,0.473472 0.59375,0.6875 0.439947,0.428056 0.94291,0.814526 1.5,1.09375 0.278545,0.139612 0.5734731,0.246947 0.875,0.34375 -0.2562018,-0.100222 -0.4867109,-0.236272 -0.71875,-0.375 -0.00741,-0.0044 -0.023866,0.0045 -0.03125,0 -0.031933,-0.0193 -0.062293,-0.04251 -0.09375,-0.0625 -0.120395,-0.0767 -0.2310226,-0.163513 -0.34375,-0.25 -0.1061728,-0.0808 -0.2132809,-0.161112 -0.3125,-0.25 C 8.4783201,88.557317 8.3087904,88.373362 8.15625,88.1875 8.0486711,88.057245 7.9378561,87.922215 7.84375,87.78125 7.818661,87.74287 7.805304,87.69538 7.78125,87.65625 7.716487,87.553218 7.6510225,87.451733 7.59375,87.34375 7.4927417,87.149044 7.3880752,86.928049 7.3125,86.71875 7.30454,86.69694 7.288911,86.6782 7.28125,86.65625 7.2494249,86.5643 7.2454455,86.469419 7.21875,86.375 7.1884177,86.268382 7.1483606,86.171969 7.125,86.0625 7.0521214,85.720988 7,85.364295 7,85 L 7,83 7,15 7,13 C 7,10.218152 9.2181517,8 12,8 l 2,0 68,0 2,0 c 2.781848,0 5,2.218152 5,5 l 0,2 0,68 0,2 c 0,0.364295 -0.05212,0.720988 -0.125,1.0625 -0.04415,0.206893 -0.08838,0.397658 -0.15625,0.59375 -0.0077,0.02195 -0.0233,0.04069 -0.03125,0.0625 -0.06274,0.173739 -0.138383,0.367449 -0.21875,0.53125 -0.04158,0.0828 -0.07904,0.169954 -0.125,0.25 -0.0546,0.09721 -0.126774,0.18835 -0.1875,0.28125 -0.09411,0.140965 -0.204921,0.275995 -0.3125,0.40625 -0.143174,0.17445 -0.303141,0.346998 -0.46875,0.5 -0.01117,0.0102 -0.01998,0.02115 -0.03125,0.03125 -0.138386,0.125556 -0.285091,0.234436 -0.4375,0.34375 -0.102571,0.07315 -0.204318,0.153364 -0.3125,0.21875 -0.0074,0.0045 -0.02384,-0.0044 -0.03125,0 -0.232039,0.138728 -0.462548,0.274778 -0.71875,0.375 0.301527,-0.0968 0.596455,-0.204138 0.875,-0.34375 0.55709,-0.279224 1.060053,-0.665694 1.5,-1.09375 0.219973,-0.214028 0.409366,-0.441865 0.59375,-0.6875 0.184384,-0.245635 0.355408,-0.507743 0.5,-0.78125 0.14012,-0.265048 0.276135,-0.524729 0.375,-0.8125 0.01041,-0.03078 0.02133,-0.06274 0.03125,-0.09375 0.09046,-0.278085 0.1388,-0.579404 0.1875,-0.875 C 89.95865,84.6507 90,84.334721 90,84 l 0,-2 0,-68 0,-2 C 90,8.676 87.324,6 84,6 L 12,6 z"
       inkscape:connector-curvature="0"
       id="rect3728"
       style="opacity:0.3;fill:url(#linearGradient3188);fill-opacity:1;fill-rule:nonzero;stroke:none" />
  </g>
  <g
     id="layer6"
     style="display:inline" />
</svg>
