<?xml version="1.0" encoding="UTF-8" standalone="no"?>
<!-- Created with Inkscape (http://www.inkscape.org/) -->

<svg
   xmlns:dc="http://purl.org/dc/elements/1.1/"
   xmlns:cc="http://creativecommons.org/ns#"
   xmlns:rdf="http://www.w3.org/1999/02/22-rdf-syntax-ns#"
   xmlns:svg="http://www.w3.org/2000/svg"
   xmlns="http://www.w3.org/2000/svg"
   xmlns:xlink="http://www.w3.org/1999/xlink"
   xmlns:sodipodi="http://sodipodi.sourceforge.net/DTD/sodipodi-0.dtd"
   xmlns:inkscape="http://www.inkscape.org/namespaces/inkscape"
   width="128"
   height="128"
   id="svg3886"
   version="1.1"
   inkscape:version="0.48.1 r9760"
   sodipodi:docname="system-software-update.svg">
  <defs
     id="defs3888">
    <linearGradient
       inkscape:collect="always"
       xlink:href="#linearGradient3924"
       id="linearGradient2984"
       gradientUnits="userSpaceOnUse"
       gradientTransform="matrix(2.7297298,0,0,2.7297298,-1.5135108,-62.513486)"
       x1="23.99999"
       y1="4.999989"
       x2="23.99999"
       y2="43" />
    <linearGradient
       id="linearGradient3924">
      <stop
         id="stop3926"
         style="stop-color:#ffffff;stop-opacity:1;"
         offset="0" />
      <stop
         offset="0.06316455"
         style="stop-color:#ffffff;stop-opacity:0.23529412;"
         id="stop3928" />
      <stop
         id="stop3930"
         style="stop-color:#ffffff;stop-opacity:0.15686275;"
         offset="0.95056331" />
      <stop
         id="stop3932"
         style="stop-color:#ffffff;stop-opacity:0.39215687;"
         offset="1" />
    </linearGradient>
    <radialGradient
       inkscape:collect="always"
       xlink:href="#linearGradient7012-661-145-733-759-865-745-661-970-94-8"
       id="radialGradient2990"
       gradientUnits="userSpaceOnUse"
       gradientTransform="matrix(5.131108e-8,6.1720507,-6.5292935,-1.1371273e-7,119.1713,-93.225241)"
       cx="7.4956832"
       cy="8.4497671"
       fx="7.4956832"
       fy="8.4497671"
       r="19.99999" />
    <linearGradient
       id="linearGradient7012-661-145-733-759-865-745-661-970-94-8">
      <stop
         id="stop3618-1"
         style="stop-color:#f0c178;stop-opacity:1"
         offset="0" />
      <stop
         id="stop3270-2"
         style="stop-color:#e18941;stop-opacity:1"
         offset="0.5" />
      <stop
         id="stop3620-8"
         style="stop-color:#ec4f18;stop-opacity:1"
         offset="1" />
    </linearGradient>
    <linearGradient
       inkscape:collect="always"
       xlink:href="#linearGradient3390-178-986-453-3"
       id="linearGradient2992"
       gradientUnits="userSpaceOnUse"
       gradientTransform="matrix(2.6410257,0,0,2.6410257,0.6153792,-60.384617)"
       x1="24"
       y1="44"
       x2="24"
       y2="3.8990016" />
    <linearGradient
       id="linearGradient3390-178-986-453-3">
      <stop
         id="stop3624-6"
         style="stop-color:#ba4712;stop-opacity:1;"
         offset="0" />
      <stop
         offset="0.5"
         style="stop-color:#cf671c;stop-opacity:1;"
         id="stop3856-8" />
      <stop
         id="stop3626-0"
         style="stop-color:#e27f39;stop-opacity:1;"
         offset="1" />
    </linearGradient>
    <radialGradient
       cx="4.9929786"
       cy="43.5"
       r="2.5"
       fx="4.9929786"
       fy="43.5"
       id="radialGradient2455"
       xlink:href="#linearGradient3688-166-749"
       gradientUnits="userSpaceOnUse"
       gradientTransform="matrix(2.003784,0,0,1.4,27.98813,-17.4)" />
    <linearGradient
       id="linearGradient3688-166-749">
      <stop
         id="stop2883"
         style="stop-color:#181818;stop-opacity:1"
         offset="0" />
      <stop
         id="stop2885"
         style="stop-color:#181818;stop-opacity:0"
         offset="1" />
    </linearGradient>
    <radialGradient
       cx="4.9929786"
       cy="43.5"
       r="2.5"
       fx="4.9929786"
       fy="43.5"
       id="radialGradient2457"
       xlink:href="#linearGradient3688-464-309"
       gradientUnits="userSpaceOnUse"
       gradientTransform="matrix(2.003784,0,0,1.4,-20.01187,-104.4)" />
    <linearGradient
       id="linearGradient3688-464-309">
      <stop
         id="stop2889"
         style="stop-color:#181818;stop-opacity:1"
         offset="0" />
      <stop
         id="stop2891"
         style="stop-color:#181818;stop-opacity:0"
         offset="1" />
    </linearGradient>
    <linearGradient
       x1="25.058096"
       y1="47.027729"
       x2="25.058096"
       y2="39.999443"
       id="linearGradient2459"
       xlink:href="#linearGradient3702-501-757"
       gradientUnits="userSpaceOnUse" />
    <linearGradient
       id="linearGradient3702-501-757">
      <stop
         id="stop2895"
         style="stop-color:#181818;stop-opacity:0"
         offset="0" />
      <stop
         id="stop2897"
         style="stop-color:#181818;stop-opacity:1"
         offset="0.5" />
      <stop
         id="stop2899"
         style="stop-color:#181818;stop-opacity:0"
         offset="1" />
    </linearGradient>
    <linearGradient
       gradientTransform="matrix(1.2385295,0,0,1.2547402,4.4533221,-57.309597)"
       x1="72"
       y1="88"
       x2="72"
       y2="48"
       id="linearGradient3999"
       xlink:href="#linearGradient4161"
       gradientUnits="userSpaceOnUse" />
    <linearGradient
       id="linearGradient4161">
      <stop
         id="stop4163"
         style="stop-color:#737373;stop-opacity:1"
         offset="0" />
      <stop
         id="stop4165"
         style="stop-color:#989898;stop-opacity:1"
         offset="1" />
    </linearGradient>
    <linearGradient
       gradientTransform="matrix(1.2385295,0,0,1.2547402,4.4533221,-57.309597)"
       x1="64"
       y1="64"
       x2="64"
       y2="8"
       id="linearGradient4143"
       xlink:href="#color_3_"
       gradientUnits="userSpaceOnUse" />
    <linearGradient
       x1="84.25"
       y1="128.9995"
       x2="84.25"
       y2="216.5005"
       id="color_3_"
       gradientUnits="userSpaceOnUse">
      <stop
         id="stop48"
         style="stop-color:#d8d8d8;stop-opacity:1"
         offset="0" />
      <stop
         id="stop50"
         style="stop-color:#f9f9f9;stop-opacity:1"
         offset="1" />
    </linearGradient>
    <linearGradient
       gradientTransform="matrix(1.2385295,0,0,1.2547402,4.4533221,-57.309597)"
       x1="24"
       y1="88"
       x2="24"
       y2="48"
       id="linearGradient4159"
       xlink:href="#linearGradient3700"
       gradientUnits="userSpaceOnUse" />
    <linearGradient
       id="linearGradient3700">
      <stop
         id="stop3702"
         style="stop-color:#b5b5b5;stop-opacity:1"
         offset="0" />
      <stop
         id="stop3704"
         style="stop-color:#dedede;stop-opacity:1"
         offset="1" />
    </linearGradient>
    <linearGradient
       gradientTransform="matrix(1.2385295,0,0,1.2547402,4.4533221,-57.309597)"
       x1="24"
       y1="64"
       x2="24"
       y2="8"
       id="linearGradient4007"
       xlink:href="#linearGradient3325"
       gradientUnits="userSpaceOnUse" />
    <linearGradient
       id="linearGradient3325">
      <stop
         id="stop3327"
         style="stop-color:#f06805;stop-opacity:1"
         offset="0" />
      <stop
         id="stop3329"
         style="stop-color:#ffb03c;stop-opacity:1"
         offset="1" />
    </linearGradient>
    <linearGradient
       gradientTransform="matrix(1.2385295,0,0,1.2547402,4.4533221,-57.309597)"
       x1="36.357143"
       y1="6"
       x2="36.357143"
       y2="63.893143"
       id="linearGradient3923-0"
       xlink:href="#linearGradient3737-1-9"
       gradientUnits="userSpaceOnUse" />
    <linearGradient
       id="linearGradient3737-1-9">
      <stop
         id="stop3739-9-7"
         style="stop-color:#ffffff;stop-opacity:1"
         offset="0" />
      <stop
         id="stop3741-3-7"
         style="stop-color:#ffffff;stop-opacity:0"
         offset="1" />
    </linearGradient>
    <radialGradient
       cx="48"
       cy="90.171875"
       r="42"
       fx="48"
       fy="90.171875"
       id="radialGradient2886-8"
       xlink:href="#linearGradient3737-0-2"
       gradientUnits="userSpaceOnUse"
       gradientTransform="matrix(1.4333661,0,0,1.2496055,-4.8988398,-57.062248)" />
    <linearGradient
       id="linearGradient3737-0-2">
      <stop
         id="stop3739-6-6"
         style="stop-color:#ffffff;stop-opacity:1"
         offset="0" />
      <stop
         id="stop3741-0-7"
         style="stop-color:#ffffff;stop-opacity:0"
         offset="1" />
    </linearGradient>
  </defs>
  <sodipodi:namedview
     id="base"
     pagecolor="#ffffff"
     bordercolor="#666666"
     borderopacity="1.0"
     inkscape:pageopacity="0.0"
     inkscape:pageshadow="2"
     inkscape:zoom="5.140625"
     inkscape:cx="64"
     inkscape:cy="64"
     inkscape:current-layer="layer1"
     showgrid="true"
     inkscape:document-units="px"
     inkscape:grid-bbox="true"
     inkscape:window-width="1511"
     inkscape:window-height="846"
     inkscape:window-x="387"
     inkscape:window-y="48"
     inkscape:window-maximized="0" />
  <metadata
     id="metadata3891">
    <rdf:RDF>
      <cc:Work
         rdf:about="">
        <dc:format>image/svg+xml</dc:format>
        <dc:type
           rdf:resource="http://purl.org/dc/dcmitype/StillImage" />
        <dc:title></dc:title>
      </cc:Work>
    </rdf:RDF>
  </metadata>
  <g
     id="layer1"
     inkscape:label="Layer 1"
     inkscape:groupmode="layer"
     transform="translate(0,64)">
    <g
       transform="matrix(2.9499988,0,0,1.2222234,-6.8000012,1.555537)"
       id="g2036"
       style="display:inline">
      <g
         transform="matrix(1.052632,0,0,1.285713,-1.263158,-13.42854)"
         id="g3712"
         style="opacity:0.4">
        <rect
           width="5"
           height="7"
           x="38"
           y="40"
           id="rect2801"
           style="fill:url(#radialGradient2455);fill-opacity:1;stroke:none" />
        <rect
           width="5"
           height="7"
           x="-10"
           y="-47"
           transform="scale(-1,-1)"
           id="rect3696"
           style="fill:url(#radialGradient2457);fill-opacity:1;stroke:none" />
        <rect
           width="28"
           height="7.0000005"
           x="10"
           y="40"
           id="rect3700"
           style="fill:url(#linearGradient2459);fill-opacity:1;stroke:none" />
      </g>
    </g>
    <rect
       style="color:#000000;fill:url(#radialGradient2990);fill-opacity:1;fill-rule:nonzero;stroke:url(#linearGradient2992);stroke-width:0.99999994;stroke-linecap:round;stroke-linejoin:round;stroke-miterlimit:4;stroke-opacity:1;stroke-dasharray:none;stroke-dashoffset:0;marker:none;visibility:visible;display:inline;overflow:visible;enable-background:accumulate"
       id="rect5505-21"
       y="-48.5"
       x="12.5"
       ry="6"
       rx="6"
       height="103"
       width="103" />
    <rect
       style="opacity:0.5;fill:none;stroke:url(#linearGradient2984);stroke-width:0.99999994;stroke-linecap:round;stroke-linejoin:round;stroke-miterlimit:4;stroke-opacity:1;stroke-dasharray:none;stroke-dashoffset:0"
       id="rect6741-7"
       y="-47.5"
       x="13.5"
       ry="5"
       rx="5"
       height="101"
       width="101" />
    <rect
       width="104.03648"
       height="105.39819"
       rx="7.4311767"
       ry="7.528441"
       x="11.884499"
       y="-49.781155"
       id="rect2419"
       style="fill:#323232;fill-opacity:1;fill-rule:nonzero;stroke:none;display:inline" />
    <path
       d="m 65.799234,4.839254 0,5.371856 0,3.999485 0,11.959241 c -0.0045,0.248847 -0.162001,0.48832 -0.38704,0.58816 -1.367708,0.692805 -3.517797,0.540395 -6.540984,-1.725268 -0.444648,-0.237773 -1.056526,-0.604533 -1.702978,-0.901844 -0.646452,-0.297312 -1.320297,-0.503173 -1.702978,-0.509738 -1.593649,0 -3.06447,0.94129 -4.180037,2.587901 -1.115567,1.64661 -1.81909,3.966821 -1.81909,6.548176 0,2.581354 0.704266,4.911747 1.81909,6.548174 1.096568,1.60963 2.536942,2.518618 4.102629,2.548691 0.02607,5.01e-4 0.05127,0 0.07741,0 1.175679,-0.158216 2.912421,-1.008659 3.328548,-1.333161 3.077332,-2.338208 5.246754,-2.459274 6.618392,-1.764479 0.225039,0.09984 0.382625,0.339313 0.38704,0.58816 l 0,16.272412 42.690564,0 c 4.11687,0 7.43117,-3.357685 7.43117,-7.528441 l 0,-43.249325 -22.022597,0 c -0.287693,0.9221927 -0.190726,2.4217628 1.702978,4.9797502 0.582822,0.7670768 1.484929,2.4647128 1.664274,4.0779048 0.0015,0.02611 0.0015,0.05231 0,0.07842 0,2.127553 -1.256199,4.026214 -3.135028,5.332647 -1.878828,1.306431 -4.411594,2.078163 -7.198952,2.078163 -2.787358,0 -5.329424,-0.77098 -7.198952,-2.078163 -1.869528,-1.307183 -3.096324,-3.207381 -3.096324,-5.332647 0.01272,-0.760787 0.334148,-1.55157 0.657969,-2.274216 0.323821,-0.722645 0.671748,-1.384422 0.890193,-1.8036885 0.02356,-0.028295 0.04948,-0.054556 0.07741,-0.078421 1.893704,-2.5579873 1.990671,-4.0575575 1.702978,-4.9797501 l -6.153943,0 -3.947813,0 z"
       inkscape:connector-curvature="0"
       id="path4111"
       style="color:#000000;fill:url(#linearGradient3999);fill-opacity:1;fill-rule:nonzero;stroke:none;stroke-width:2;marker:none;visibility:visible;display:inline;overflow:visible;enable-background:accumulate" />
    <path
       d="m 65.644418,-49.781156 0,19.87979 c 0.945674,0.354417 2.499772,0.286625 5.147638,-1.725268 0.725215,-0.565531 2.437031,-1.430828 3.986517,-1.607636 0.01289,-4.89e-4 0.02581,-4.89e-4 0.0387,0 2.049422,0 3.875484,1.219902 5.147638,3.09764 1.272154,1.877739 2.01261,4.415165 2.01261,7.214756 0,2.799592 -0.739861,5.346516 -2.01261,7.214756 -1.272749,1.868241 -3.100022,3.05843 -5.147638,3.05843 -0.714134,-0.0123 -1.460804,-0.302385 -2.167427,-0.627371 -0.706623,-0.324984 -1.363461,-0.678897 -1.780386,-0.901844 -0.02683,-0.01079 -0.05275,-0.02398 -0.07741,-0.03921 -2.647866,-2.011893 -4.201964,-2.079683 -5.147638,-1.725268 l 0,8.8223931 0,3.9994843 0,6.7834398 4.218741,0 3.947813,0 6.657095,0 c 0.188448,-0.00352 0.374739,0.10654 0.464449,0.2744744 0.658685,1.334612 0.530987,3.4577302 -1.702978,6.5089644 -0.01028,0.01979 -0.02793,0.05788 -0.0387,0.07842 -0.232735,0.443567 -0.568104,1.053645 -0.851489,1.686057 -0.296504,0.661688 -0.534751,1.339479 -0.541857,1.764478 0,1.665815 0.981189,3.204587 2.631875,4.35238 1.650686,1.147794 3.969044,1.882111 6.540984,1.882111 2.57194,0 4.900275,-0.734918 6.540984,-1.882111 1.627813,-1.138175 2.578311,-2.660804 2.593171,-4.313169 -0.0012,-0.01079 0.0014,-0.02831 0,-0.03921 -0.148551,-1.231045 -1.043516,-2.990109 -1.393346,-3.450535 -2.29227,-3.0963631 -2.3631,-5.2498586 -1.702978,-6.5873853 0.08971,-0.1679307 0.276001,-0.2780228 0.464449,-0.2744744 l 22.448345,0 0,-45.9156493 c 0,-4.170757 -3.3143,-7.528442 -7.43117,-7.528442 z"
       inkscape:connector-curvature="0"
       id="path4113"
       style="color:#000000;fill:url(#linearGradient4143);fill-opacity:1;fill-rule:nonzero;stroke:none;stroke-width:2;marker:none;visibility:visible;display:inline;overflow:visible;enable-background:accumulate" />
    <path
       d="m 11.884499,4.839254 0,43.249325 c 0,4.170756 3.314305,7.528441 7.431177,7.528441 l 45.167621,0 0,-15.762673 c -0.910279,-0.291459 -2.390475,-0.193223 -4.915414,1.725267 -0.771058,0.601284 -2.444747,1.466509 -4.025221,1.646847 -0.02577,0.0015 -0.05163,0.0015 -0.07741,0 -2.097807,0 -3.973455,-1.242853 -5.26375,-3.136851 -1.290295,-1.893998 -2.051314,-4.469337 -2.051314,-7.293177 0,-2.823841 0.761761,-5.389758 2.051314,-7.293178 1.289553,-1.903418 3.163685,-3.17606 5.26375,-3.17606 0.750959,0.01289 1.531525,0.338521 2.244835,0.666581 0.71331,0.328059 1.36654,0.680539 1.780386,0.901844 0.02793,0.02387 0.05385,0.05013 0.07741,0.07842 2.527468,1.920412 4.010956,2.046351 4.915414,1.764478 l 0,-11.527924 0,-3.999485 0,-5.3718559 -5.302455,0 -3.947812,0 -18.307014,0 c -0.287693,0.9221926 -0.190726,2.4217628 1.702978,4.9797501 0.582824,0.7670768 1.484929,2.4647128 1.664274,4.0779048 0.0015,0.02611 0.0015,0.05231 0,0.07842 0,2.12755 -1.256199,4.026214 -3.135027,5.332647 -1.878828,1.306431 -4.411595,2.078163 -7.198953,2.078163 -2.787357,0 -5.329424,-0.770979 -7.198952,-2.078163 -1.869528,-1.307185 -3.096324,-3.207384 -3.096324,-5.332647 0.01272,-0.76079 0.334148,-1.55157 0.657969,-2.274216 0.323821,-0.722645 0.671749,-1.384424 0.890193,-1.8036885 0.02356,-0.028294 0.04948,-0.054556 0.07741,-0.078421 1.893704,-2.5579874 1.990671,-4.0575576 1.702978,-4.9797502 z"
       inkscape:connector-curvature="0"
       id="path4109"
       style="color:#000000;fill:url(#linearGradient4159);fill-opacity:1;fill-rule:nonzero;stroke:none;stroke-width:2;marker:none;visibility:visible;display:inline;overflow:visible;enable-background:accumulate" />
    <path
       d="m 19.315676,-49.781156 c -4.116872,0 -7.431177,3.357685 -7.431177,7.528442 l 0,45.9156492 11.611214,0 c 0.188447,-0.00352 0.374738,0.1065399 0.464448,0.2744744 0.658685,1.3346119 0.530988,3.4577301 -1.702978,6.5089644 -0.01028,0.01979 -0.02793,0.05788 -0.0387,0.07842 -0.232734,0.443567 -0.568103,1.053645 -0.851489,1.686057 -0.296504,0.661688 -0.534751,1.339479 -0.541856,1.764478 0,1.665815 0.981189,3.204587 2.631875,4.35238 1.650686,1.147794 3.969043,1.882111 6.540983,1.882111 2.57194,0 4.900275,-0.734918 6.540984,-1.882111 1.627813,-1.138175 2.578311,-2.660804 2.593171,-4.313169 -0.0012,-0.01079 0.0014,-0.02831 0,-0.03921 -0.14855,-1.231045 -1.043516,-2.990109 -1.393346,-3.450535 -2.29227,-3.0963632 -2.3631,-5.2498586 -1.702978,-6.5873854 0.08971,-0.1679306 0.276002,-0.2780228 0.464449,-0.2744744 l 17.494228,0 5.186342,0 5.457271,0 0,-6.7834398 0,-3.9994843 0,-9.1752881 c -0.0035,-0.190913 0.105163,-0.379643 0.270928,-0.470528 1.308878,-0.663005 3.410713,-0.578082 6.424872,1.686057 0.02618,0.01966 0.05109,0.01921 0.07741,0.03921 0.442577,0.239105 1.039527,0.605508 1.664274,0.901844 0.653383,0.309921 1.328055,0.541854 1.741682,0.54895 1.64429,0 3.163184,-0.994032 4.296149,-2.666323 1.132964,-1.672292 1.857794,-4.020994 1.857794,-6.626597 0,-2.605604 -0.725423,-4.964412 -1.857794,-6.626596 -1.123471,-1.649119 -2.626431,-2.612059 -4.257445,-2.627113 -0.01292,-1.19e-4 -0.02576,0 -0.0387,0 -1.215144,0.150499 -2.95148,1.057177 -3.405956,1.411583 -3.05636,2.322272 -5.182033,2.394031 -6.50228,1.725267 -0.165761,-0.09088 -0.274431,-0.279613 -0.270928,-0.470527 l 0,-20.311107 z"
       inkscape:connector-curvature="0"
       id="path4115"
       style="color:#000000;fill:url(#linearGradient4007);fill-opacity:1;fill-rule:nonzero;stroke:none;stroke-width:2;marker:none;visibility:visible;display:inline;overflow:visible;enable-background:accumulate" />
    <path
       d="m 19.315676,-49.781156 c -4.116872,0 -7.431177,3.357685 -7.431177,7.528442 l 0,2.50948 0,85.322332 0,2.509481 c 0,0.419988 0.05115,0.816459 0.11605,1.21553 0.06032,0.370896 0.120138,0.748972 0.232225,1.097897 0.01239,0.03812 0.02589,0.0798 0.03864,0.117632 0.12249,0.361078 0.290905,0.686909 0.464448,1.019476 0.179079,0.343181 0.390905,0.672058 0.619265,0.980266 0.22836,0.308209 0.462937,0.594084 0.735377,0.862634 0.544891,0.537099 1.167822,1.022019 1.857794,1.372372 0.34498,0.175177 0.710259,0.309854 1.083713,0.431317 -0.317311,-0.125752 -0.602804,-0.29646 -0.890193,-0.470527 -0.0087,-0.0056 -0.0296,0.0057 -0.03864,0 -0.03951,-0.02421 -0.07716,-0.05334 -0.11605,-0.07842 -0.149119,-0.09623 -0.286125,-0.205166 -0.425745,-0.313685 -0.131494,-0.101383 -0.264153,-0.202154 -0.38704,-0.313685 -0.220372,-0.202556 -0.43034,-0.433372 -0.619265,-0.666581 -0.133241,-0.163436 -0.270482,-0.332863 -0.38704,-0.509738 -0.03109,-0.04815 -0.04756,-0.107745 -0.07741,-0.156842 -0.08026,-0.129279 -0.161294,-0.256616 -0.232225,-0.392107 -0.125103,-0.244305 -0.254728,-0.521597 -0.348336,-0.784213 -0.0099,-0.02736 -0.02923,-0.05088 -0.03864,-0.07842 -0.03939,-0.115373 -0.04434,-0.234424 -0.07741,-0.352895 -0.03753,-0.133778 -0.08719,-0.254751 -0.11605,-0.392107 -0.09039,-0.428508 -0.15494,-0.876065 -0.15494,-1.333161 l 0,-2.50948 0,-85.322333 0,-2.509481 c 0,-3.490496 2.747244,-6.2737 6.192647,-6.2737 l 2.477059,0 84.220007,0 2.47706,0 c 3.4454,0 6.19264,2.783204 6.19264,6.2737 l 0,2.509481 0,85.322333 0,2.50948 c 0,0.457096 -0.0645,0.904653 -0.15481,1.333161 -0.0547,0.259597 -0.10949,0.498957 -0.19352,0.745002 -0.01,0.02755 -0.0289,0.05106 -0.0386,0.07842 -0.0777,0.217998 -0.17138,0.461054 -0.27092,0.666581 -0.0515,0.103893 -0.0979,0.213249 -0.15482,0.313685 -0.0676,0.121974 -0.15701,0.23633 -0.23222,0.352896 -0.11655,0.176875 -0.2538,0.346302 -0.38705,0.509738 -0.17732,0.21889 -0.37544,0.435393 -0.58056,0.62737 -0.0139,0.0128 -0.0248,0.02654 -0.0386,0.03921 -0.1714,0.15754 -0.35309,0.294156 -0.54185,0.431317 -0.12704,0.09179 -0.25306,0.192431 -0.38704,0.274474 -0.009,0.0057 -0.0295,-0.0056 -0.0387,0 -0.28739,0.174068 -0.57288,0.344776 -0.89019,0.470527 0.37345,-0.121458 0.73872,-0.256139 1.08371,-0.431316 0.68998,-0.350353 1.31291,-0.835273 1.8578,-1.372372 0.27244,-0.26855 0.50701,-0.554425 0.73537,-0.862634 0.22836,-0.308208 0.44019,-0.637085 0.61927,-0.980266 0.17354,-0.332567 0.34199,-0.658398 0.46445,-1.019476 0.0129,-0.03862 0.0264,-0.07873 0.0386,-0.117632 0.11209,-0.348925 0.17191,-0.727002 0.23222,-1.097897 0.0648,-0.399071 0.11593,-0.795542 0.11593,-1.215531 l 0,-2.50948 0,-85.322332 0,-2.509481 c 0,-4.170756 -3.3143,-7.528441 -7.43118,-7.528441 l -89.174118,0 z"
       inkscape:connector-curvature="0"
       id="rect3728-1"
       style="opacity:0.4;fill:url(#linearGradient3923-0);fill-opacity:1;fill-rule:nonzero;stroke:none;display:inline" />
    <path
       d="m 19.315676,55.61702 c -4.116872,0 -7.431177,-3.357685 -7.431177,-7.528441 l 0,-2.509481 0,-85.322332 0,-2.50948 c 0,-0.419989 0.05115,-0.81646 0.11605,-1.215531 0.06032,-0.370895 0.120138,-0.748972 0.232225,-1.097897 0.01239,-0.03812 0.02589,-0.0798 0.03864,-0.117632 0.12249,-0.361078 0.290905,-0.686909 0.464448,-1.019476 0.179079,-0.343181 0.390905,-0.672058 0.619265,-0.980266 0.22836,-0.308209 0.462937,-0.594084 0.735377,-0.862634 0.544891,-0.537099 1.167822,-1.022019 1.857794,-1.372372 0.34498,-0.175177 0.710259,-0.309854 1.083713,-0.431316 -0.317311,0.125751 -0.602804,0.296459 -0.890193,0.470527 -0.0087,0.0056 -0.0296,-0.0057 -0.03864,0 -0.03951,0.02421 -0.07716,0.05334 -0.11605,0.07842 -0.149119,0.09623 -0.286125,0.205166 -0.425745,0.313685 -0.131494,0.101383 -0.264153,0.202154 -0.38704,0.313685 -0.220372,0.202556 -0.43034,0.433372 -0.619265,0.666581 -0.133241,0.163436 -0.270482,0.332864 -0.38704,0.509738 -0.03109,0.04815 -0.04756,0.107745 -0.07741,0.156842 -0.08026,0.129279 -0.161294,0.256616 -0.232225,0.392107 -0.125103,0.244305 -0.254728,0.521597 -0.348336,0.784213 -0.0099,0.02736 -0.02923,0.05088 -0.03864,0.07842 -0.03939,0.115373 -0.04434,0.234424 -0.07741,0.352895 -0.03753,0.133778 -0.08719,0.254751 -0.11605,0.392107 -0.09039,0.428508 -0.15494,0.876065 -0.15494,1.333161 l 0,2.50948 0,85.322333 0,2.509481 c 0,3.490496 2.747244,6.273701 6.192647,6.273701 l 2.477059,0 84.220007,0 2.47706,0 c 3.4454,0 6.19264,-2.783205 6.19264,-6.273701 l 0,-2.509481 0,-85.322333 0,-2.50948 c 0,-0.457096 -0.0645,-0.904653 -0.15481,-1.333161 -0.0547,-0.259597 -0.10949,-0.498957 -0.19352,-0.745002 -0.01,-0.02755 -0.0289,-0.05106 -0.0386,-0.07842 -0.0777,-0.217998 -0.17138,-0.461054 -0.27092,-0.666581 -0.0515,-0.103893 -0.0979,-0.213248 -0.15482,-0.313685 -0.0676,-0.121974 -0.15701,-0.23633 -0.23222,-0.352896 -0.11655,-0.176874 -0.2538,-0.346302 -0.38705,-0.509738 -0.17732,-0.21889 -0.37544,-0.435393 -0.58056,-0.62737 -0.0139,-0.0128 -0.0248,-0.02653 -0.0386,-0.03921 -0.1714,-0.15754 -0.35309,-0.294156 -0.54185,-0.431317 -0.12704,-0.09179 -0.25306,-0.192431 -0.38704,-0.274474 -0.009,-0.0057 -0.0295,0.0056 -0.0387,0 -0.28739,-0.174068 -0.57288,-0.344776 -0.89019,-0.470527 0.37345,0.121458 0.73872,0.256139 1.08371,0.431316 0.68998,0.350353 1.31291,0.835273 1.8578,1.372373 0.27244,0.268549 0.50701,0.554424 0.73537,0.862633 0.22836,0.308208 0.44019,0.637085 0.61927,0.980266 0.17354,0.332567 0.34199,0.658398 0.46445,1.019476 0.0129,0.03862 0.0264,0.07873 0.0386,0.117632 0.11209,0.348925 0.17191,0.727002 0.23222,1.097897 0.0648,0.399071 0.11593,0.795543 0.11593,1.215531 l 0,2.50948 0,85.322332 0,2.509481 c 0,4.170756 -3.3143,7.528441 -7.43118,7.528441 l -89.174118,0 z"
       inkscape:connector-curvature="0"
       id="path3615-0"
       style="opacity:0.2;fill:url(#radialGradient2886-8);fill-opacity:1;fill-rule:nonzero;stroke:none;display:inline" />
    <path
       d="m 58.948252,-35.47013 c -2.5e-5,0.168787 -0.04419,0.323813 -0.132291,0.464991 -0.08837,0.141234 -0.185185,0.211851 -0.290654,0.211826 -0.870616,0.09907 -1.582211,0.434219 -2.134774,1.005509 -0.552681,0.571353 -1.122873,1.661239 -1.710637,3.269704 l -8.99558,24.3144516 c -0.05876,0.2255972 -0.223475,0.3383996 -0.494116,0.3383996 -0.211739,0 -0.376097,-0.1127384 -0.493064,-0.3384047 L 39.652454,-18.858796 33.848847,-6.2036535 c -0.117041,0.2256023 -0.281369,0.3384047 -0.493061,0.3384047 -0.259116,0 -0.429565,-0.1127384 -0.511369,-0.3384047 l -8.83732,-24.3144485 c -0.552636,-1.510301 -1.134671,-2.56511 -1.746149,-3.16444 -0.611481,-0.599279 -1.464099,-0.969527 -2.557854,-1.110772 -0.09399,1.6e-5 -0.182138,-0.06007 -0.264284,-0.180181 -0.08226,-0.120154 -0.123134,-0.257628 -0.123134,-0.412667 0,-0.395199 0.09399,-0.59281 0.282049,-0.592842 0.788017,3.2e-5 1.611211,0.04267 2.469587,0.127849 0.799505,0.08437 1.551987,0.126578 2.257488,0.126578 0.716979,1.6e-5 1.563484,-0.04221 2.53957,-0.126578 1.023417,-0.08518 1.928797,-0.127865 2.716104,-0.127865 0.188702,3.2e-5 0.283133,0.197647 0.283133,0.59284 0,0.395254 -0.05897,0.592869 -0.176491,0.592856 -0.78804,0.07071 -1.408495,0.310431 -1.861346,0.719411 -0.452879,0.409045 -0.679307,0.945061 -0.679282,1.608057 -2.5e-5,0.338424 0.09447,0.761642 0.283111,1.269637 l 7.302175,19.786097 4.144692,-9.395132 -3.862639,-9.712861 c -0.694012,-1.735887 -1.264412,-2.854217 -1.711155,-3.354948 -0.446769,-0.500685 -1.123036,-0.807446 -2.02874,-0.920261 -0.08179,1.5e-5 -0.160976,-0.06007 -0.237377,-0.180181 -0.07635,-0.120154 -0.114688,-0.257629 -0.114688,-0.412668 0,-0.395194 0.08224,-0.592809 0.246517,-0.592841 0.788014,3.2e-5 1.511099,0.04267 2.169225,0.12785 0.635145,0.08437 1.311229,0.126577 2.028223,0.126577 0.705459,1.5e-5 1.45223,-0.04221 2.24027,-0.126577 0.811702,-0.08518 1.611208,-0.127866 2.398541,-0.127866 0.188702,3.1e-5 0.28311,0.197646 0.283132,0.592841 -2.2e-5,0.395258 -0.05876,0.592868 -0.17649,0.592855 -1.576076,0.126578 -2.364115,0.662606 -2.36409,1.608043 -2.5e-5,0.423671 0.182361,1.079801 0.546877,1.968399 l 2.557876,6.221663 2.539545,-5.693387 c 0.353092,-0.803355 0.529628,-1.480152 0.52965,-2.030411 -2e-5,-1.298463 -0.788037,-1.989899 -2.364066,-2.074307 -0.140763,1.3e-5 -0.211045,-0.197597 -0.211045,-0.592855 -2.2e-5,-0.141233 0.03503,-0.27529 0.105523,-0.402332 0.07029,-0.126896 0.140994,-0.190469 0.211986,-0.190494 0.564079,3.2e-5 1.257739,0.04267 2.080935,0.127849 0.788017,0.08438 1.434654,0.126578 1.939934,0.126578 0.364561,1.6e-5 0.899617,-0.03525 1.605123,-0.10595 0.893509,-0.09907 1.640258,-0.148477 2.24029,-0.148477 0.140515,3.2e-5 0.211021,0.169641 0.211021,0.508879 -4.5e-5,0.451245 -0.129253,0.676832 -0.387566,0.676815 -0.917243,0.112738 -1.655015,0.416133 -2.213359,0.909923 -0.55839,0.493857 -1.255271,1.615615 -2.090639,3.36529 l -3.385726,7.511958 4.584995,11.215013 6.773582,-18.897464 c 0.23537,-0.69055 0.35307,-1.325171 0.35312,-1.903838 -5e-5,-1.38284 -0.788063,-2.116473 -2.364092,-2.200882 -0.141457,1.7e-5 -0.212209,-0.197596 -0.211962,-0.592855 -2.3e-5,-0.395196 0.105758,-0.592807 0.317584,-0.592839 0.576274,3.2e-5 1.258445,0.04267 2.046506,0.127849 0.729144,0.08437 1.340601,0.126578 1.834417,0.126578 0.517432,1.6e-5 1.117044,-0.04219 1.798909,-0.126578 0.705456,-0.08517 1.340248,-0.127849 1.904398,-0.127849 0.164973,3.2e-5 0.247558,0.169641 0.247607,0.508879 l 0,0 z"
       inkscape:connector-curvature="0"
       id="path4237"
       style="font-size:18.26544952px;font-style:normal;font-variant:normal;font-weight:normal;font-stretch:normal;text-align:center;line-height:100%;writing-mode:lr-tb;text-anchor:middle;opacity:0.3;fill:#ffffff;fill-opacity:1;stroke:none;display:inline;font-family:Hoefler Text;-inkscape-font-specification:Hoefler Text" />
    <path
       d="m 58.948252,-36.72487 c -2.5e-5,0.168788 -0.04419,0.323814 -0.132291,0.464992 -0.08837,0.141233 -0.185185,0.21185 -0.290654,0.211824 -0.870616,0.09907 -1.582211,0.43422 -2.134774,1.005509 -0.552681,0.571354 -1.122873,1.66124 -1.710637,3.269705 l -8.99558,24.3144514 c -0.05876,0.2255973 -0.223475,0.3383996 -0.494116,0.3383996 -0.211739,0 -0.376097,-0.1127384 -0.493064,-0.3384046 L 39.652454,-20.113535 33.848847,-7.4583936 c -0.117041,0.2256023 -0.281369,0.3384046 -0.493061,0.3384046 -0.259116,0 -0.429565,-0.1127384 -0.511369,-0.3384046 l -8.83732,-24.3144494 c -0.552636,-1.5103 -1.134671,-2.56511 -1.746149,-3.164439 -0.611481,-0.59928 -1.464099,-0.969528 -2.557854,-1.110773 -0.09399,1.6e-5 -0.182138,-0.06007 -0.264284,-0.180181 -0.08226,-0.120153 -0.123134,-0.257627 -0.123134,-0.412667 0,-0.395198 0.09399,-0.59281 0.282049,-0.592841 0.788017,3.1e-5 1.611211,0.04267 2.469587,0.127849 0.799505,0.08437 1.551987,0.126579 2.257488,0.126579 0.716979,1.5e-5 1.563484,-0.04221 2.53957,-0.126579 1.023417,-0.08518 1.928797,-0.127866 2.716104,-0.127866 0.188702,3.2e-5 0.283133,0.197648 0.283133,0.592842 0,0.395253 -0.05897,0.592868 -0.176491,0.592854 -0.78804,0.07071 -1.408495,0.310432 -1.861346,0.719412 -0.452879,0.409045 -0.679307,0.945061 -0.679282,1.608056 -2.5e-5,0.338425 0.09447,0.761642 0.283111,1.269638 l 7.302175,19.786097 4.144692,-9.395132 -3.862639,-9.712861 c -0.694012,-1.735888 -1.264412,-2.854216 -1.711155,-3.354949 -0.446769,-0.500684 -1.123036,-0.807444 -2.02874,-0.920261 -0.08179,1.5e-5 -0.160976,-0.06007 -0.237377,-0.180181 -0.07635,-0.120153 -0.114688,-0.257627 -0.114688,-0.412667 0,-0.395194 0.08224,-0.592809 0.246517,-0.592841 0.788014,3.2e-5 1.511099,0.04267 2.169225,0.127849 0.635145,0.08437 1.311229,0.126579 2.028223,0.126579 0.705459,1.5e-5 1.45223,-0.04221 2.24027,-0.126579 0.811702,-0.08518 1.611208,-0.127866 2.398541,-0.127866 0.188702,3.2e-5 0.28311,0.197648 0.283132,0.592842 -2.2e-5,0.395258 -0.05876,0.592868 -0.17649,0.592854 -1.576076,0.126578 -2.364115,0.662608 -2.36409,1.608044 -2.5e-5,0.423671 0.182361,1.079801 0.546877,1.968399 l 2.557876,6.221663 2.539545,-5.693388 c 0.353092,-0.803355 0.529628,-1.480152 0.52965,-2.03041 -2e-5,-1.298462 -0.788037,-1.989899 -2.364066,-2.074308 -0.140763,1.4e-5 -0.211045,-0.197596 -0.211045,-0.592854 -2.2e-5,-0.141234 0.03503,-0.27529 0.105523,-0.402331 0.07029,-0.126898 0.140994,-0.19047 0.211986,-0.190496 0.564079,3.2e-5 1.257739,0.04267 2.080935,0.12785 0.788017,0.08438 1.434654,0.126579 1.939934,0.126579 0.364561,1.6e-5 0.899617,-0.03525 1.605123,-0.105951 0.893509,-0.09907 1.640258,-0.148478 2.24029,-0.148478 0.140515,3.2e-5 0.211021,0.169642 0.211021,0.50888 -4.5e-5,0.451244 -0.129253,0.676831 -0.387566,0.676815 -0.917243,0.112739 -1.655015,0.416133 -2.213359,0.909923 -0.55839,0.493856 -1.255271,1.615614 -2.090639,3.365289 l -3.385726,7.51196 4.584995,11.215011 6.773582,-18.897464 c 0.23537,-0.690549 0.35307,-1.325171 0.35312,-1.903836 -5e-5,-1.382841 -0.788063,-2.116474 -2.364092,-2.200883 -0.141457,1.6e-5 -0.212209,-0.197597 -0.211962,-0.592854 -2.3e-5,-0.395197 0.105758,-0.592809 0.317584,-0.592841 0.576274,3.2e-5 1.258445,0.04267 2.046506,0.12785 0.729144,0.08437 1.340601,0.126579 1.834417,0.126579 0.517432,1.6e-5 1.117044,-0.0422 1.798909,-0.126579 0.705456,-0.08517 1.340248,-0.12785 1.904398,-0.12785 0.164973,3.2e-5 0.247558,0.169642 0.247607,0.50888 l 0,0 z"
       inkscape:connector-curvature="0"
       id="text2810"
       style="font-size:18.26544952px;font-style:normal;font-variant:normal;font-weight:normal;font-stretch:normal;text-align:center;line-height:100%;writing-mode:lr-tb;text-anchor:middle;fill:#803300;fill-opacity:1;stroke:none;display:inline;font-family:Hoefler Text;-inkscape-font-specification:Hoefler Text" />
    <path
       d="m 74.817277,-32.136372 c -1.215144,0.150499 -2.95148,1.057177 -3.405956,1.411583 -3.05636,2.322272 -5.182033,2.394031 -6.50228,1.725267 -0.165761,-0.09088 -0.274431,-0.279613 -0.270928,-0.470527 l 0,1.25474 c -0.0035,0.190914 0.105163,0.379647 0.270928,0.470528 1.320247,0.668762 3.44592,0.597005 6.50228,-1.725268 0.454476,-0.354406 2.190812,-1.261084 3.405956,-1.411583 0.01294,0 0.02579,-1.19e-4 0.0387,0 1.631014,0.01506 3.133974,0.977994 4.257445,2.627113 1.0417,1.52909 1.714099,3.641269 1.81909,5.999226 0.0092,-0.205126 0.0387,-0.418735 0.0387,-0.62737 0,-2.605604 -0.725423,-4.964412 -1.857794,-6.626596 -1.123471,-1.649119 -2.626431,-2.612059 -4.257445,-2.627113 -0.01292,-1.19e-4 -0.02576,0 -0.0387,0 z M 24.23109,6.2116261 c -0.166787,1.1465753 -0.73198,2.5384787 -1.973907,4.2347479 -0.01028,0.01979 -0.02793,0.05788 -0.0387,0.07842 -0.232734,0.443567 -0.568103,1.053645 -0.851489,1.686057 -0.296504,0.661688 -0.534751,1.339479 -0.541856,1.764478 0,0.276484 0.02477,0.555146 0.07741,0.823423 0.0877,-0.394455 0.249198,-0.852801 0.464448,-1.33316 0.283386,-0.632412 0.618755,-1.242491 0.851489,-1.686058 0.01077,-0.02053 0.02842,-0.05864 0.0387,-0.07842 1.732755,-2.3666616 2.159581,-4.1744223 1.973907,-5.4894879 z m 11.495101,0 c -0.210162,1.328583 0.221775,3.1488759 2.01261,5.5679089 0.315165,0.414801 1.060263,1.871254 1.315938,3.058429 0.05284,-0.265938 0.07494,-0.549172 0.07741,-0.823423 -0.0012,-0.01079 0.0014,-0.02831 0,-0.03921 -0.14855,-1.231045 -1.043516,-2.990109 -1.393346,-3.450535 C 36.463586,8.8022559 35.88303,7.3724192 35.726193,6.2116302 z"
       inkscape:connector-curvature="0"
       id="path3927"
       style="opacity:0.4;color:#000000;fill:#ffffff;fill-opacity:1;fill-rule:nonzero;stroke:none;stroke-width:2;marker:none;visibility:visible;display:inline;overflow:visible;enable-background:accumulate" />
    <path
       d="m 11.884499,4.839254 0,1.2547403 11.108061,0 c 0.01798,0.057643 0.02408,0.1337879 0.0387,0.1960531 0.107269,-0.6025275 0.07886,-1.0739359 -0.0387,-1.4507934 l -11.108061,0 z m 25.041517,0 c -0.117561,0.3768575 -0.145978,0.8482659 -0.0387,1.4507934 0.01463,-0.06226 0.02072,-0.1384167 0.0387,-0.1960531 l 18.307014,0 3.947812,0 5.302455,0 0,-1.2547403 -5.302455,0 -3.947812,0 -18.307014,0 z m -17.2233,9.99871 c -0.01771,0.127449 -0.0366,0.265862 -0.0387,0.392107 0,2.125262 1.226796,4.025461 3.096324,5.332646 1.869528,1.307184 4.411595,2.078163 7.198952,2.078163 2.787358,0 5.320125,-0.771732 7.198953,-2.078163 1.878828,-1.306432 3.135027,-3.205096 3.135027,-5.332646 0.0015,-0.02611 0.0015,-0.05231 0,-0.07842 -0.01028,-0.09223 -0.06262,-0.181873 -0.07741,-0.274475 -0.300213,1.755575 -1.451367,3.313903 -3.057619,4.430802 -1.878828,1.306431 -4.411595,2.078163 -7.198953,2.078163 -2.787357,0 -5.329424,-0.770979 -7.198952,-2.078163 -1.612832,-1.127701 -2.776485,-2.695864 -3.05762,-4.470013 z m 28.486178,18.585839 c -0.0083,0.20637 -0.0387,0.417999 -0.0387,0.62737 0,2.823841 0.761019,5.399179 2.051314,7.293177 1.290295,1.893998 3.165943,3.136851 5.26375,3.136851 0.02577,0.0015 0.05163,0.0015 0.07741,0 1.580474,-0.180338 3.254163,-1.045563 4.025221,-1.646847 2.524939,-1.91849 4.005135,-2.016726 4.915414,-1.725268 l 0,-1.254739 c -0.910279,-0.291459 -2.390475,-0.193223 -4.915414,1.725267 -0.771058,0.601284 -2.444747,1.466509 -4.025221,1.646847 -0.02577,0.0015 -0.05163,0.0015 -0.07741,0 -2.097807,0 -3.973455,-1.242853 -5.26375,-3.136851 -1.194627,-1.753569 -1.909307,-4.087658 -2.01261,-6.665807 z"
       inkscape:connector-curvature="0"
       id="path3946"
       style="opacity:0.7;color:#000000;fill:#ffffff;fill-opacity:1;fill-rule:nonzero;stroke:none;stroke-width:2;marker:none;visibility:visible;display:inline;overflow:visible;enable-background:accumulate" />
    <path
       d="m 81.938821,-22.294503 c -0.104024,2.545796 -0.799151,4.862988 -1.973906,6.587385 -1.272749,1.868241 -3.100022,3.05843 -5.147638,3.05843 -0.714134,-0.0123 -1.460804,-0.302385 -2.167427,-0.627371 -0.706623,-0.324984 -1.363461,-0.678897 -1.780386,-0.901844 -0.02683,-0.01079 -0.05275,-0.02398 -0.07741,-0.03921 -2.647866,-2.011893 -4.201964,-2.079683 -5.147638,-1.725268 l 0,1.254741 c 0.945674,-0.354417 2.499772,-0.286626 5.147638,1.725268 0.02466,0.01523 0.05058,0.02842 0.07741,0.03921 0.416925,0.222948 1.073763,0.576859 1.780386,0.901845 0.706623,0.324985 1.453293,0.615073 2.167427,0.627369 2.047616,0 3.874889,-1.190188 5.147638,-3.058428 1.272749,-1.868241 2.01261,-4.415166 2.01261,-7.214756 0,-0.215552 -0.03002,-0.415109 -0.0387,-0.62737 z M 81.203444,6.2116261 c -0.166786,1.1465753 -0.731979,2.5384787 -1.973906,4.2347479 -0.01028,0.01979 -0.02793,0.05788 -0.0387,0.07842 -0.232735,0.443567 -0.568104,1.053645 -0.851489,1.686057 -0.296504,0.661688 -0.534751,1.339479 -0.541857,1.764478 0,0.276484 0.02477,0.555146 0.07741,0.823423 0.0877,-0.394455 0.249199,-0.852801 0.464449,-1.33316 0.283385,-0.632412 0.618754,-1.242491 0.851489,-1.686058 0.01077,-0.02053 0.02842,-0.05864 0.0387,-0.07842 1.732755,-2.3666616 2.15958,-4.1744223 1.973906,-5.4894879 z m 11.495102,0 c -0.210163,1.328583 0.221775,3.1488759 2.01261,5.5679089 0.315165,0.414801 1.060263,1.871254 1.315938,3.058429 0.05284,-0.265938 0.07494,-0.549172 0.07741,-0.823423 -0.0012,-0.01079 0.0014,-0.02831 0,-0.03921 -0.148553,-1.231049 -1.043518,-2.990113 -1.393348,-3.450539 -1.275217,-1.7225431 -1.855773,-3.1523798 -2.01261,-4.3131689 z"
       inkscape:connector-curvature="0"
       id="path3955"
       style="color:#000000;fill:#ffffff;fill-opacity:1;fill-rule:nonzero;stroke:none;stroke-width:2;marker:none;visibility:visible;display:inline;overflow:visible;enable-background:accumulate" />
    <path
       d="m 65.799234,4.839254 0,1.2547403 4.063925,0 3.947813,0 6.153943,0 c 0.01798,0.057643 0.02408,0.1337879 0.0387,0.1960531 0.107269,-0.6025275 0.07887,-1.0739359 -0.0387,-1.4507934 l -6.153943,0 -3.947813,0 -4.063925,0 z m 28.099137,0 c -0.117573,0.3768575 -0.145978,0.8482659 -0.0387,1.4507934 0.01463,-0.06226 0.02072,-0.1384167 0.0387,-0.1960531 l 22.022599,0 0,-1.2547403 -22.022599,0 z m -17.2233,9.99871 c -0.01771,0.127449 -0.0366,0.265862 -0.0387,0.392107 0,2.125264 1.226796,4.025462 3.096324,5.332646 1.869528,1.307183 4.411594,2.078163 7.198952,2.078163 2.787358,0 5.320124,-0.771732 7.198952,-2.078163 1.878829,-1.306432 3.135028,-3.205094 3.135028,-5.332646 0.0015,-0.02611 0.0015,-0.05231 0,-0.07842 -0.01028,-0.09223 -0.06262,-0.181873 -0.07741,-0.274475 -0.300213,1.755575 -1.451367,3.313903 -3.05762,4.430802 -1.878828,1.306431 -4.411594,2.078163 -7.198952,2.078163 -2.787358,0 -5.329424,-0.77098 -7.198952,-2.078163 -1.612832,-1.1277 -2.776485,-2.695863 -3.05762,-4.470013 z m -21.209817,8.783182 c -1.593649,0 -3.06447,0.94129 -4.180037,2.587901 -1.115567,1.64661 -1.81909,3.966821 -1.81909,6.548176 0,0.215299 0.02908,0.415819 0.0387,0.627369 0.105709,-2.323497 0.757864,-4.411531 1.780386,-5.920805 1.115567,-1.646611 2.586388,-2.587902 4.180037,-2.587902 0.382681,0.0065 1.056526,0.212426 1.702978,0.509739 0.646452,0.297312 1.25833,0.664072 1.702978,0.901844 3.023187,2.265663 5.173276,2.418073 6.540984,1.725268 0.225039,-0.09984 0.382582,-0.339312 0.38704,-0.58816 l 0,-1.25474 c -0.0045,0.248847 -0.162001,0.48832 -0.38704,0.58816 -1.367708,0.692805 -3.517797,0.540395 -6.540984,-1.725268 -0.444648,-0.237773 -1.056526,-0.604533 -1.702978,-0.901844 -0.646452,-0.297312 -1.320297,-0.503173 -1.702978,-0.509738 z"
       inkscape:connector-curvature="0"
       id="path3965"
       style="opacity:0.3;color:#000000;fill:#ffffff;fill-opacity:1;fill-rule:nonzero;stroke:none;stroke-width:2;marker:none;visibility:visible;display:inline;overflow:visible;enable-background:accumulate" />
    <g
       transform="matrix(1.2385295,0,0,1.2547402,4.4533221,-57.309597)"
       style="display:inline"
       id="layer4" />
  </g>
</svg>
