<?xml version="1.0" encoding="UTF-8" standalone="no"?>
<!-- Created with Inkscape (http://www.inkscape.org/) -->

<svg
   xmlns:dc="http://purl.org/dc/elements/1.1/"
   xmlns:cc="http://creativecommons.org/ns#"
   xmlns:rdf="http://www.w3.org/1999/02/22-rdf-syntax-ns#"
   xmlns:svg="http://www.w3.org/2000/svg"
   xmlns="http://www.w3.org/2000/svg"
   xmlns:xlink="http://www.w3.org/1999/xlink"
   xmlns:sodipodi="http://sodipodi.sourceforge.net/DTD/sodipodi-0.dtd"
   xmlns:inkscape="http://www.inkscape.org/namespaces/inkscape"
   width="128"
   height="128"
   id="svg4141"
   version="1.1"
   inkscape:version="0.48.1 r9760"
   sodipodi:docname="5.svg">
  <defs
     id="defs4143">
    <linearGradient
       id="linearGradient2238">
      <stop
         offset="0"
         style="stop-color:#ffffff;stop-opacity:1"
         id="stop2240" />
      <stop
         offset="1"
         style="stop-color:#ffffff;stop-opacity:0"
         id="stop2242" />
    </linearGradient>
    <linearGradient
       id="linearGradient8265-821-176-38-919-66-249">
      <stop
         offset="0"
         style="stop-color:#ffffff;stop-opacity:1"
         id="stop2687" />
      <stop
         offset="1"
         style="stop-color:#ffffff;stop-opacity:0"
         id="stop2689" />
    </linearGradient>
    <linearGradient
       id="linearGradient2867-449-88-871-390-598-476-591-434-148">
      <stop
         offset="0"
         style="stop-color:#51cfee;stop-opacity:1"
         id="stop4627" />
      <stop
         offset="0.26238"
         style="stop-color:#49a3d2;stop-opacity:1"
         id="stop4629" />
      <stop
         offset="0.704952"
         style="stop-color:#3470b4;stop-opacity:1"
         id="stop4631" />
      <stop
         offset="1"
         style="stop-color:#1b5699;stop-opacity:1"
         id="stop4633" />
    </linearGradient>
    <linearGradient
       id="linearGradient3332-412-419-652-471-761-410-156-661-505">
      <stop
         offset="0"
         style="stop-color:#205286;stop-opacity:1;"
         id="stop8032" />
      <stop
         offset="1"
         style="stop-color:#5492be;stop-opacity:1;"
         id="stop8034" />
    </linearGradient>
    <linearGradient
       id="linearGradient3996-4">
      <stop
         offset="0"
         style="stop-color:#ffffff;stop-opacity:1"
         id="stop3998-0" />
      <stop
         offset="1"
         style="stop-color:#ffffff;stop-opacity:0"
         id="stop4000-8" />
    </linearGradient>
    <linearGradient
       id="linearGradient3301">
      <stop
         offset="0"
         style="stop-color:#ffffff;stop-opacity:0"
         id="stop3303" />
      <stop
         offset="0.69999999"
         style="stop-color:#ffffff;stop-opacity:0"
         id="stop3309" />
      <stop
         offset="1"
         style="stop-color:#000000;stop-opacity:1"
         id="stop3305" />
    </linearGradient>
    <linearGradient
       id="linearGradient3708">
      <stop
         offset="0"
         style="stop-color:#000000;stop-opacity:1"
         id="stop3710" />
      <stop
         offset="1"
         style="stop-color:#000000;stop-opacity:1"
         id="stop3712" />
    </linearGradient>
    <linearGradient
       id="linearGradient3268-1">
      <stop
         offset="0"
         style="stop-color:#ffffff;stop-opacity:1"
         id="stop3270-7" />
      <stop
         offset="1"
         style="stop-color:#d8d8d8;stop-opacity:1"
         id="stop3272-0" />
    </linearGradient>
    <linearGradient
       inkscape:collect="always"
       xlink:href="#linearGradient3373"
       id="linearGradient3058"
       gradientUnits="userSpaceOnUse"
       x1="32"
       y1="15"
       x2="32"
       y2="49"
       gradientTransform="matrix(1.8727272,0,0,1.8727272,4.0727255,-56.92727)" />
    <linearGradient
       id="linearGradient3373">
      <stop
         offset="0"
         style="stop-color:#696969;stop-opacity:1"
         id="stop3375" />
      <stop
         offset="1"
         style="stop-color:#737373;stop-opacity:1"
         id="stop3377" />
    </linearGradient>
    <linearGradient
       x1="23.99999"
       y1="4.999989"
       x2="23.99999"
       y2="43"
       id="linearGradient2470"
       xlink:href="#linearGradient3308-4-6-931-761"
       gradientUnits="userSpaceOnUse"
       gradientTransform="matrix(2.729731,0,0,2.7297289,-22.38,-18.137327)" />
    <linearGradient
       id="linearGradient3308-4-6-931-761">
      <stop
         id="stop2919"
         style="stop-color:#ffffff;stop-opacity:1"
         offset="0" />
      <stop
         id="stop2921"
         style="stop-color:#ffffff;stop-opacity:0"
         offset="1" />
    </linearGradient>
    <linearGradient
       id="linearGradient2867-449-88-871-390-598-476-591-434-148-9-7">
      <stop
         offset="0"
         style="stop-color:#51cfee;stop-opacity:1"
         id="stop4627-2-7" />
      <stop
         offset="0.26238"
         style="stop-color:#49a3d2;stop-opacity:1"
         id="stop4629-8-6" />
      <stop
         offset="0.704952"
         style="stop-color:#3470b4;stop-opacity:1"
         id="stop4631-3-4" />
      <stop
         offset="1"
         style="stop-color:#1b5699;stop-opacity:1"
         id="stop4633-0-3" />
    </linearGradient>
    <linearGradient
       id="linearGradient3332-412-419-652-471-761-410-156-661-505-7-3">
      <stop
         offset="0"
         style="stop-color:#205286;stop-opacity:1;"
         id="stop8032-8-0" />
      <stop
         offset="1"
         style="stop-color:#5492be;stop-opacity:1;"
         id="stop8034-9-9" />
    </linearGradient>
    <radialGradient
       cx="4.9929786"
       cy="43.5"
       r="2.5"
       fx="4.9929786"
       fy="43.5"
       id="radialGradient2455"
       xlink:href="#linearGradient3688-166-749"
       gradientUnits="userSpaceOnUse"
       gradientTransform="matrix(2.003784,0,0,1.4,27.98813,-17.4)" />
    <linearGradient
       id="linearGradient3688-166-749">
      <stop
         id="stop2883"
         style="stop-color:#181818;stop-opacity:1"
         offset="0" />
      <stop
         id="stop2885"
         style="stop-color:#181818;stop-opacity:0"
         offset="1" />
    </linearGradient>
    <radialGradient
       cx="4.9929786"
       cy="43.5"
       r="2.5"
       fx="4.9929786"
       fy="43.5"
       id="radialGradient2457"
       xlink:href="#linearGradient3688-464-309"
       gradientUnits="userSpaceOnUse"
       gradientTransform="matrix(2.003784,0,0,1.4,-20.01187,-104.4)" />
    <linearGradient
       id="linearGradient3688-464-309">
      <stop
         id="stop2889"
         style="stop-color:#181818;stop-opacity:1"
         offset="0" />
      <stop
         id="stop2891"
         style="stop-color:#181818;stop-opacity:0"
         offset="1" />
    </linearGradient>
    <linearGradient
       x1="25.058096"
       y1="47.027729"
       x2="25.058096"
       y2="39.999443"
       id="linearGradient2459"
       xlink:href="#linearGradient3702-501-757"
       gradientUnits="userSpaceOnUse" />
    <linearGradient
       id="linearGradient3702-501-757">
      <stop
         id="stop2895"
         style="stop-color:#181818;stop-opacity:0"
         offset="0" />
      <stop
         id="stop2897"
         style="stop-color:#181818;stop-opacity:1"
         offset="0.5" />
      <stop
         id="stop2899"
         style="stop-color:#181818;stop-opacity:0"
         offset="1" />
    </linearGradient>
    <radialGradient
       inkscape:collect="always"
       xlink:href="#linearGradient2867-449-88-871-390-598-476-591-434-148-9-7-5"
       id="radialGradient3065-97"
       gradientUnits="userSpaceOnUse"
       gradientTransform="matrix(0,5.7863793,-7.7449888,-2.4416223e-7,-40.972473,535.98415)"
       cx="7.4956832"
       cy="8.4497671"
       fx="7.4956832"
       fy="8.4497671"
       r="19.99999" />
    <linearGradient
       id="linearGradient2867-449-88-871-390-598-476-591-434-148-9-7-5">
      <stop
         offset="0"
         style="stop-color:#b9b9b9;stop-opacity:1;"
         id="stop4627-2-7-6" />
      <stop
         offset="0.26238"
         style="stop-color:#989898;stop-opacity:1;"
         id="stop4629-8-6-4" />
      <stop
         offset="0.704952"
         style="stop-color:#666769;stop-opacity:1;"
         id="stop4631-3-4-6" />
      <stop
         offset="1"
         style="stop-color:#3e3e3e;stop-opacity:1;"
         id="stop4633-0-3-3" />
    </linearGradient>
    <linearGradient
       inkscape:collect="always"
       xlink:href="#linearGradient3332-412-419-652-471-761-410-156-661-505-7-3-9"
       id="linearGradient3067-7"
       gradientUnits="userSpaceOnUse"
       gradientTransform="matrix(2.5160731,0,0,2.5160731,-166.80186,566.56898)"
       x1="24"
       y1="44"
       x2="24"
       y2="3.8990016" />
    <linearGradient
       id="linearGradient3332-412-419-652-471-761-410-156-661-505-7-3-9">
      <stop
         offset="0"
         style="stop-color:#5b5b5b;stop-opacity:1;"
         id="stop8032-8-0-7" />
      <stop
         offset="1"
         style="stop-color:#a0a0a0;stop-opacity:1;"
         id="stop8034-9-9-4" />
    </linearGradient>
    <linearGradient
       x1="23.99999"
       y1="4.999989"
       x2="23.99999"
       y2="43"
       id="linearGradient2470-9"
       xlink:href="#linearGradient3308-4-6-931-761-1"
       gradientUnits="userSpaceOnUse"
       gradientTransform="matrix(2.6005813,0,0,2.6005793,-62.413931,33.045477)" />
    <linearGradient
       id="linearGradient3308-4-6-931-761-1">
      <stop
         id="stop2919-7"
         style="stop-color:#ffffff;stop-opacity:1"
         offset="0" />
      <stop
         id="stop2921-0"
         style="stop-color:#ffffff;stop-opacity:0"
         offset="1" />
    </linearGradient>
    <radialGradient
       inkscape:collect="always"
       xlink:href="#linearGradient2867-449-88-871-390-598-476-591-434-148-9-7-5"
       id="radialGradient3306"
       gradientUnits="userSpaceOnUse"
       gradientTransform="matrix(0,4.9914828,-6.6810307,-2.1062075e-7,104.79377,-37.075765)"
       cx="7.4956832"
       cy="8.4497671"
       fx="7.4956832"
       fy="8.4497671"
       r="19.99999" />
    <linearGradient
       inkscape:collect="always"
       xlink:href="#linearGradient3332-412-419-652-471-761-410-156-661-505-7-3-9"
       id="linearGradient3308"
       gradientUnits="userSpaceOnUse"
       gradientTransform="matrix(2.1704307,0,0,2.1704307,-3.7499525,-10.692487)"
       x1="24"
       y1="44"
       x2="24"
       y2="3.8990016" />
    <linearGradient
       inkscape:collect="always"
       xlink:href="#linearGradient3308-4-6-931-761-1"
       id="linearGradient3310"
       gradientUnits="userSpaceOnUse"
       gradientTransform="matrix(2.2433297,0,0,2.243328,-5.499505,-12.442015)"
       x1="23.99999"
       y1="4.999989"
       x2="23.99999"
       y2="43" />
    <linearGradient
       x1="22.819513"
       y1="28.829224"
       x2="12.849945"
       y2="12.239423"
       id="linearGradient7881"
       xlink:href="#linearGradient6621"
       gradientUnits="userSpaceOnUse"
       gradientTransform="matrix(1.059395,0,0,0.544945,1.249822,4.6593951)" />
    <linearGradient
       id="linearGradient6621">
      <stop
         id="stop6622"
         style="stop-color:#f5a108;stop-opacity:0"
         offset="0" />
      <stop
         id="stop6623"
         style="stop-color:#fefdc3;stop-opacity:0.74251497"
         offset="1" />
    </linearGradient>
    <linearGradient
       id="linearGradient3242">
      <stop
         id="stop3244"
         style="stop-color:#cacaca;stop-opacity:1;"
         offset="0" />
      <stop
         id="stop3246"
         style="stop-color:#c6c6c6;stop-opacity:1;"
         offset="0.31209752" />
      <stop
         id="stop3248"
         style="stop-color:#a0a0a0;stop-opacity:1;"
         offset="0.57054454" />
      <stop
         id="stop3250"
         style="stop-color:#3e3e3e;stop-opacity:1;"
         offset="1" />
    </linearGradient>
    <linearGradient
       x1="24"
       y1="5.0793009"
       x2="24"
       y2="41.0793"
       id="linearGradient2786"
       xlink:href="#linearGradient2780"
       gradientUnits="userSpaceOnUse"
       gradientTransform="translate(59.336484,-10.147141)" />
    <linearGradient
       id="linearGradient2780">
      <stop
         id="stop2782"
         style="stop-color:white;stop-opacity:1"
         offset="0" />
      <stop
         id="stop2784"
         style="stop-color:white;stop-opacity:0"
         offset="1" />
    </linearGradient>
    <linearGradient
       inkscape:collect="always"
       xlink:href="#linearGradient3242-6"
       id="linearGradient4282-1"
       gradientUnits="userSpaceOnUse"
       x1="24"
       y1="6"
       x2="24"
       y2="51"
       gradientTransform="translate(-0.16134456,-1.0487395)" />
    <linearGradient
       id="linearGradient3242-6">
      <stop
         id="stop3244-0"
         style="stop-color:#cacaca;stop-opacity:1;"
         offset="0" />
      <stop
         id="stop3246-9"
         style="stop-color:#c6c6c6;stop-opacity:1;"
         offset="1" />
    </linearGradient>
    <linearGradient
       y2="51"
       x2="24"
       y1="6"
       x1="24"
       gradientTransform="matrix(1.3143695,0,0,1.3143695,47.84541,-21.511828)"
       gradientUnits="userSpaceOnUse"
       id="linearGradient4879"
       xlink:href="#linearGradient3242-6"
       inkscape:collect="always" />
    <linearGradient
       y2="51"
       x2="24"
       y1="6"
       x1="24"
       gradientTransform="translate(60.063757,-12.431476)"
       gradientUnits="userSpaceOnUse"
       id="linearGradient4879-0"
       xlink:href="#linearGradient3242-6-9"
       inkscape:collect="always" />
    <linearGradient
       id="linearGradient3242-6-9">
      <stop
         id="stop3244-0-9"
         style="stop-color:#cacaca;stop-opacity:1;"
         offset="0" />
      <stop
         id="stop3246-9-5"
         style="stop-color:#c6c6c6;stop-opacity:1;"
         offset="1" />
    </linearGradient>
    <linearGradient
       y2="51"
       x2="24"
       y1="6"
       x1="24"
       gradientTransform="matrix(0.75801144,0,0,0.75801144,34.421132,-46.026621)"
       gradientUnits="userSpaceOnUse"
       id="linearGradient4917"
       xlink:href="#linearGradient3242-6-9"
       inkscape:collect="always" />
    <linearGradient
       x1="64"
       y1="6.8743429"
       x2="64"
       y2="117.22547"
       id="linearGradient2912"
       xlink:href="#XMLID_4_"
       gradientUnits="userSpaceOnUse"
       gradientTransform="matrix(0.4958917,0,0,0.4955768,0.2869216,-0.304461)" />
    <linearGradient
       x1="63.9995"
       y1="3.1001"
       x2="63.9995"
       y2="122.8994"
       id="XMLID_4_"
       gradientUnits="userSpaceOnUse">
      <stop
         id="stop11"
         style="stop-color:#f2f2f2;stop-opacity:1"
         offset="0" />
      <stop
         id="stop13"
         style="stop-color:#d8d8d8;stop-opacity:1"
         offset="1" />
    </linearGradient>
    <linearGradient
       y2="117.22547"
       x2="64"
       y1="6.8743429"
       x1="64"
       gradientTransform="matrix(0.41185452,0,0,0.41159298,49.186757,-15.883797)"
       gradientUnits="userSpaceOnUse"
       id="linearGradient5871"
       xlink:href="#XMLID_4_"
       inkscape:collect="always" />
    <linearGradient
       y2="117.22547"
       x2="64"
       y1="6.8743429"
       x1="64"
       gradientTransform="matrix(0.41185452,0,0,0.41159298,49.186757,-15.883797)"
       gradientUnits="userSpaceOnUse"
       id="linearGradient5871-4"
       xlink:href="#XMLID_4_-4"
       inkscape:collect="always" />
    <linearGradient
       x1="63.9995"
       y1="3.1001"
       x2="63.9995"
       y2="122.8994"
       id="XMLID_4_-4"
       gradientUnits="userSpaceOnUse">
      <stop
         id="stop11-0"
         style="stop-color:#f2f2f2;stop-opacity:1"
         offset="0" />
      <stop
         id="stop13-3"
         style="stop-color:#d8d8d8;stop-opacity:1"
         offset="1" />
    </linearGradient>
    <linearGradient
       y2="117.22547"
       x2="64"
       y1="6.8743429"
       x1="64"
       gradientTransform="matrix(0.25001978,0,0,0.24986101,34.004624,-44.415719)"
       gradientUnits="userSpaceOnUse"
       id="linearGradient5905"
       xlink:href="#XMLID_4_-4"
       inkscape:collect="always" />
  </defs>
  <sodipodi:namedview
     id="base"
     pagecolor="#ffffff"
     bordercolor="#666666"
     borderopacity="1.0"
     inkscape:pageopacity="0.0"
     inkscape:pageshadow="2"
     inkscape:zoom="5.5"
     inkscape:cx="32"
     inkscape:cy="68"
     inkscape:current-layer="layer1"
     showgrid="true"
     inkscape:document-units="px"
     inkscape:grid-bbox="true"
     inkscape:window-width="1920"
     inkscape:window-height="1027"
     inkscape:window-x="0"
     inkscape:window-y="24"
     inkscape:window-maximized="1" />
  <metadata
     id="metadata4146">
    <rdf:RDF>
      <cc:Work
         rdf:about="">
        <dc:format>image/svg+xml</dc:format>
        <dc:type
           rdf:resource="http://purl.org/dc/dcmitype/StillImage" />
        <dc:title></dc:title>
      </cc:Work>
    </rdf:RDF>
  </metadata>
  <g
     id="layer1"
     inkscape:label="Layer 1"
     inkscape:groupmode="layer"
     transform="translate(0,64)">
    <g
       transform="matrix(2.9499988,0,0,1.2222234,-6.8000012,1.555537)"
       id="g2036"
       style="display:inline">
      <g
         transform="matrix(1.052632,0,0,1.285713,-1.263158,-13.42854)"
         id="g3712"
         style="opacity:0.4">
        <rect
           width="5"
           height="7"
           x="38"
           y="40"
           id="rect2801"
           style="fill:url(#radialGradient2455);fill-opacity:1;stroke:none" />
        <rect
           width="5"
           height="7"
           x="-10"
           y="-47"
           transform="scale(-1,-1)"
           id="rect3696"
           style="fill:url(#radialGradient2457);fill-opacity:1;stroke:none" />
        <rect
           width="28"
           height="7.0000005"
           x="10"
           y="40"
           id="rect3700"
           style="fill:url(#linearGradient2459);fill-opacity:1;stroke:none" />
      </g>
    </g>
    <rect
       width="84.64679"
       height="84.64679"
       rx="4.9308805"
       ry="4.9308805"
       x="6.0169964"
       y="-0.92550606"
       id="rect5505"
       style="color:#000000;fill:url(#radialGradient3306);fill-opacity:1.0;fill-rule:nonzero;stroke:url(#linearGradient3308);stroke-width:0.82181369999999998;stroke-linecap:round;stroke-linejoin:round;stroke-miterlimit:4;stroke-opacity:1;stroke-dasharray:none;stroke-dashoffset:0;marker:none;visibility:visible;display:inline;overflow:visible;enable-background:accumulate"
       transform="matrix(0.70710678,-0.70710678,0.70710678,0.70710678,0,0)" />
    <rect
       width="83.003166"
       height="83.003159"
       rx="4.109067"
       ry="4.109067"
       x="6.8388186"
       y="-0.10368462"
       id="rect6741"
       style="opacity:0.4;fill:none;stroke:url(#linearGradient3310);stroke-width:0.82181323;stroke-linecap:round;stroke-linejoin:round;stroke-miterlimit:4;stroke-opacity:1;stroke-dasharray:none;stroke-dashoffset:0"
       transform="matrix(0.70710678,-0.70710678,0.70710678,0.70710678,0,0)" />
    <path
       d="m 97.550242,4.0870806 -1.863172,0 c -0.502859,0 -1.084301,-0.4182798 -1.244176,-0.8944925 -0.0089,-0.024725 -1.156301,-2.80011853 -1.156301,-2.80011853 -0.236139,-0.47466717 -0.12194,-1.1799112 0.23343,-1.53523657 l 1.317337,-1.3166343 c 0.302722,-0.3027983 0.46996,-0.7067879 0.46996,-1.1374276 0,-0.4302522 -0.167238,-0.8342418 -0.46996,-1.1370409 l -5.186913,-5.1835005 c -0.302722,-0.3027987 -0.706865,-0.4696477 -1.13772,-0.4696477 -0.430858,0 -0.835001,0.166849 -1.137723,0.4696477 l -1.317339,1.3162487 c -0.35537,0.3549382 -1.061462,0.4692603 -1.510899,0.2448659 -0.02515,-0.011586 -2.802688,-1.1578976 -2.802688,-1.1578976 -0.501697,-0.1691651 -0.920165,-0.7500457 -0.920165,-1.2525217 l 0,-1.862366 c -0.0011,-0.887156 -0.723125,-1.60862 -1.610385,-1.60862 l -7.334992,0 c -0.887647,0 -1.609612,0.721464 -1.609612,1.60862 l 0,1.862366 c 0,0.502476 -0.418468,1.0837418 -0.894999,1.2432514 -0.02477,0.0093 -2.802306,1.1555796 -2.802306,1.1555796 -0.474983,0.2359827 -1.181074,0.1216606 -1.536444,-0.2332776 l -1.317342,-1.3162487 c -0.303108,-0.3027987 -0.707253,-0.4696477 -1.138107,-0.4696477 -0.430858,0 -0.835001,0.167235 -1.137722,0.4696477 l -5.187298,5.1835005 c -0.627508,0.6272262 -0.627508,1.6476278 0,2.2744685 l 1.317342,1.3166343 c 0.354981,0.35494004 0.469566,1.0605694 0.24504,1.51013283 -0.01161,0.0251068 -1.159011,2.80088927 -1.159011,2.80088927 -0.169167,0.5013174 -0.750224,0.9192109 -1.25308,0.9192109 l -1.380441,0 c -0.887261,-3.854e-4 -2.092339,0.7210798 -2.092339,1.6082334 l 0,7.3301306 c 0,0.886769 0.721963,1.608234 1.60961,1.608234 l 1.863557,0 c 0.502857,0 1.084299,0.417892 1.243789,0.894493 0.0093,0.02471 1.156689,2.800117 1.156689,2.800117 0.23614,0.474667 0.121556,1.180298 -0.233428,1.535624 l -1.317341,1.316634 c -0.627508,0.62684 -0.627508,1.647628 0,2.274467 l 5.187299,5.183509 c 0.302721,0.302797 0.706863,0.469641 1.137721,0.469641 0.431242,0 0.835384,-0.166844 1.138108,-0.469641 l 1.317341,-1.316254 c 0.35537,-0.354941 1.06146,-0.469651 1.510896,-0.244863 0.02515,0.01121 2.802688,1.157897 2.802688,1.157897 0.50131,0.169165 0.919778,0.749658 0.919778,1.252522 l 0,1.861977 c 0,0.887155 0.721965,1.608626 1.609612,1.608626 l 7.334606,0 c 0.887258,0 1.609224,-0.721471 1.609224,-1.608626 l 0,-1.861977 c 0,-0.502864 0.418468,-1.083745 0.895386,-1.243644 0.02477,-0.0089 2.802306,-1.155577 2.802306,-1.155577 0.474985,-0.235986 1.181463,-0.121276 1.536443,0.233282 l 1.317343,1.316245 c 0.302721,0.302806 0.706866,0.469646 1.13772,0.469646 0.430857,0 0.835,-0.16684 1.137722,-0.469646 L 94.8362,23.455014 c 0.302725,-0.302414 0.469953,-0.706402 0.469953,-1.137042 0,-0.430639 -0.167228,-0.834628 -0.469953,-1.13704 l -1.317342,-1.316634 c -0.355365,-0.354939 -0.46957,-1.060957 -0.245042,-1.509747 0.01161,-0.02549 1.159013,-2.800891 1.159013,-2.800891 0.169168,-0.501704 0.750225,-0.919596 1.253087,-0.919596 l 1.863166,0 c 0.88764,0 1.609607,-0.721465 1.609607,-1.608234 l 0,-7.3301306 C 99.159935,4.8085458 98.437888,4.0870806 97.550242,4.0870806 z M 75.546031,16.733959 c -1.361273,0 -2.638176,-0.367106 -3.736484,-1.007292 -2.20709,-1.28648 -3.692964,-3.675723 -3.692964,-6.4047177 0,-4.087399 3.332645,-7.4123946 7.429448,-7.4123946 4.096415,0 7.429063,3.3249956 7.429063,7.4123946 0,4.0870137 -3.332648,7.4120097 -7.429063,7.4120097 z"
       id="path8"
       style="fill:url(#linearGradient5871);fill-opacity:1;stroke:none;opacity:0.65"
       inkscape:connector-curvature="0"
       sodipodi:nodetypes="ssccccsccsccccscssssccccsccccccscssssccccccsccccssssssccccsccsccccssscsssssss" />
    <path
       d="m 63.364087,-32.292229 -1.131054,0 c -0.305265,0 -0.658234,-0.25392 -0.755288,-0.543009 -0.0054,-0.01501 -0.701942,-1.699836 -0.701942,-1.699836 -0.14335,-0.288151 -0.07403,-0.716275 0.141706,-0.931978 l 0.7997,-0.799274 c 0.18377,-0.183817 0.285293,-0.429062 0.285293,-0.690486 0,-0.261188 -0.101523,-0.506433 -0.285293,-0.69025 l -3.148759,-3.146687 c -0.18377,-0.183817 -0.429109,-0.285104 -0.690663,-0.285104 -0.261556,0 -0.506894,0.101287 -0.690664,0.285104 l -0.799702,0.799039 c -0.21573,0.215469 -0.64437,0.284869 -0.917204,0.148648 -0.01527,-0.007 -1.701396,-0.702911 -1.701396,-0.702911 -0.304559,-0.102693 -0.558594,-0.455322 -0.558594,-0.760354 l 0,-1.130565 c -6.67e-4,-0.538556 -0.438979,-0.976526 -0.977597,-0.976526 l -4.452769,0 c -0.538854,0 -0.977129,0.43797 -0.977129,0.976526 l 0,1.130565 c 0,0.305032 -0.254035,0.657895 -0.543317,0.754726 -0.01504,0.0056 -1.701163,0.701504 -1.701163,0.701504 -0.288343,0.143256 -0.716981,0.07385 -0.932712,-0.141613 l -0.799703,-0.799039 c -0.184005,-0.183817 -0.429344,-0.285104 -0.690898,-0.285104 -0.261556,0 -0.506894,0.101521 -0.690664,0.285104 l -3.148993,3.146687 c -0.380934,0.380763 -0.380934,1.000207 0,1.380736 l 0.799704,0.799274 c 0.215494,0.215469 0.285054,0.643827 0.148753,0.916739 -0.007,0.01524 -0.703587,1.700303 -0.703587,1.700303 -0.102694,0.304329 -0.45543,0.558015 -0.760693,0.558015 l -0.838008,0 c -0.53862,-2.34e-4 -1.270172,0.437738 -1.270172,0.976291 l 0,4.449818 c 0,0.538321 0.438273,0.976292 0.977127,0.976292 l 1.131288,0 c 0.305264,0 0.658233,0.253685 0.755053,0.54301 0.0056,0.015 0.702178,1.699835 0.702178,1.699835 0.14335,0.28815 0.07379,0.71651 -0.141705,0.932213 l -0.799703,0.799274 c -0.380934,0.380529 -0.380934,1.000207 0,1.380735 l 3.148994,3.146693 c 0.183769,0.183816 0.429107,0.2851 0.690663,0.2851 0.261789,0 0.507127,-0.101284 0.690898,-0.2851 l 0.799703,-0.799043 c 0.215731,-0.21547 0.644368,-0.285106 0.917202,-0.148646 0.01527,0.0068 1.701396,0.702911 1.701396,0.702911 0.304324,0.102693 0.558359,0.455086 0.558359,0.760354 l 0,1.130329 c 0,0.538555 0.438275,0.97653 0.977129,0.97653 l 4.452534,0 c 0.538618,0 0.976893,-0.437975 0.976893,-0.97653 l 0,-1.130329 c 0,-0.305268 0.254035,-0.657897 0.543552,-0.754965 0.01504,-0.0054 1.701164,-0.701502 1.701164,-0.701502 0.288343,-0.143258 0.717217,-0.07362 0.93271,0.141615 l 0.799705,0.799038 c 0.183769,0.183821 0.429109,0.285103 0.690662,0.285103 0.261556,0 0.506894,-0.101282 0.690664,-0.285103 l 3.14876,-3.146689 c 0.183772,-0.183583 0.285289,-0.428827 0.285289,-0.690251 0,-0.261423 -0.101517,-0.506668 -0.285289,-0.69025 l -0.799704,-0.799274 c -0.215727,-0.215468 -0.285056,-0.644063 -0.148754,-0.916504 0.007,-0.01547 0.703588,-1.700305 0.703588,-1.700305 0.102695,-0.304564 0.455431,-0.558249 0.760697,-0.558249 l 1.131051,0 c 0.538849,0 0.977126,-0.437971 0.977126,-0.976292 l 0,-4.449818 c 7.28e-4,-0.538553 -0.437569,-0.976525 -0.976422,-0.976525 z m -13.357843,7.677395 c -0.826372,0 -1.601527,-0.222855 -2.268264,-0.611486 -1.339832,-0.780968 -2.241845,-2.231378 -2.241845,-3.888038 0,-2.48129 2.02311,-4.499757 4.510109,-4.499757 2.486764,0 4.509876,2.018467 4.509876,4.499757 0,2.481057 -2.023112,4.499524 -4.509876,4.499524 z"
       id="path8-8"
       style="fill:url(#linearGradient5905);fill-opacity:1;stroke:none;opacity:0.65"
       inkscape:connector-curvature="0"
       sodipodi:nodetypes="ssccccsccsccccscssssccccsccccccscssssccccccsccccssssssccccsccsccccssscsssssss" />
  </g>
</svg>
