<?xml version="1.0" encoding="UTF-8" standalone="no"?>
<!-- Created with Inkscape (http://www.inkscape.org/) -->

<svg
   xmlns:dc="http://purl.org/dc/elements/1.1/"
   xmlns:cc="http://creativecommons.org/ns#"
   xmlns:rdf="http://www.w3.org/1999/02/22-rdf-syntax-ns#"
   xmlns:svg="http://www.w3.org/2000/svg"
   xmlns="http://www.w3.org/2000/svg"
   xmlns:xlink="http://www.w3.org/1999/xlink"
   xmlns:sodipodi="http://sodipodi.sourceforge.net/DTD/sodipodi-0.dtd"
   xmlns:inkscape="http://www.inkscape.org/namespaces/inkscape"
   width="128"
   height="128"
   id="svg3886"
   version="1.1"
   inkscape:version="0.48.1 r9760"
   sodipodi:docname="addressbook.svg">
  <defs
     id="defs3888">
    <linearGradient
       inkscape:collect="always"
       xlink:href="#linearGradient3924"
       id="linearGradient2984"
       gradientUnits="userSpaceOnUse"
       gradientTransform="matrix(2.7297298,0,0,2.7297298,-1.5135108,-62.513486)"
       x1="23.99999"
       y1="4.999989"
       x2="23.99999"
       y2="43" />
    <linearGradient
       id="linearGradient3924">
      <stop
         id="stop3926"
         style="stop-color:#ffffff;stop-opacity:1;"
         offset="0" />
      <stop
         offset="0.06316455"
         style="stop-color:#ffffff;stop-opacity:0.23529412;"
         id="stop3928" />
      <stop
         id="stop3930"
         style="stop-color:#ffffff;stop-opacity:0.15686275;"
         offset="0.95056331" />
      <stop
         id="stop3932"
         style="stop-color:#ffffff;stop-opacity:0.39215687;"
         offset="1" />
    </linearGradient>
    <radialGradient
       inkscape:collect="always"
       xlink:href="#linearGradient7012-661-145-733-759-865-745-661-970-94-8"
       id="radialGradient2990"
       gradientUnits="userSpaceOnUse"
       gradientTransform="matrix(5.131108e-8,6.1720507,-6.5292935,-1.1371273e-7,119.1713,-93.225241)"
       cx="7.4956832"
       cy="8.4497671"
       fx="7.4956832"
       fy="8.4497671"
       r="19.99999" />
    <linearGradient
       id="linearGradient7012-661-145-733-759-865-745-661-970-94-8">
      <stop
         id="stop3270-2"
         style="stop-color:#5f101a;stop-opacity:1;"
         offset="0" />
      <stop
         id="stop3620-8"
         style="stop-color:#811524;stop-opacity:1;"
         offset="1" />
    </linearGradient>
    <linearGradient
       inkscape:collect="always"
       xlink:href="#linearGradient3390-178-986-453-3"
       id="linearGradient2992"
       gradientUnits="userSpaceOnUse"
       gradientTransform="matrix(2.6410257,0,0,2.6410257,0.6153792,-60.384617)"
       x1="24"
       y1="44"
       x2="24"
       y2="3.8990016" />
    <linearGradient
       id="linearGradient3390-178-986-453-3">
      <stop
         id="stop3624-6"
         style="stop-color:#811524;stop-opacity:1;"
         offset="0" />
      <stop
         id="stop3626-0"
         style="stop-color:#4a292d;stop-opacity:1;"
         offset="1" />
    </linearGradient>
    <radialGradient
       cx="4.9929786"
       cy="43.5"
       r="2.5"
       fx="4.9929786"
       fy="43.5"
       id="radialGradient2455"
       xlink:href="#linearGradient3688-166-749"
       gradientUnits="userSpaceOnUse"
       gradientTransform="matrix(2.003784,0,0,1.4,27.98813,-17.4)" />
    <linearGradient
       id="linearGradient3688-166-749">
      <stop
         id="stop2883"
         style="stop-color:#181818;stop-opacity:1"
         offset="0" />
      <stop
         id="stop2885"
         style="stop-color:#181818;stop-opacity:0"
         offset="1" />
    </linearGradient>
    <radialGradient
       cx="4.9929786"
       cy="43.5"
       r="2.5"
       fx="4.9929786"
       fy="43.5"
       id="radialGradient2457"
       xlink:href="#linearGradient3688-464-309"
       gradientUnits="userSpaceOnUse"
       gradientTransform="matrix(2.003784,0,0,1.4,-20.01187,-104.4)" />
    <linearGradient
       id="linearGradient3688-464-309">
      <stop
         id="stop2889"
         style="stop-color:#181818;stop-opacity:1"
         offset="0" />
      <stop
         id="stop2891"
         style="stop-color:#181818;stop-opacity:0"
         offset="1" />
    </linearGradient>
    <linearGradient
       x1="25.058096"
       y1="47.027729"
       x2="25.058096"
       y2="39.999443"
       id="linearGradient2459"
       xlink:href="#linearGradient3702-501-757"
       gradientUnits="userSpaceOnUse" />
    <linearGradient
       id="linearGradient3702-501-757">
      <stop
         id="stop2895"
         style="stop-color:#181818;stop-opacity:0"
         offset="0" />
      <stop
         id="stop2897"
         style="stop-color:#181818;stop-opacity:1"
         offset="0.5" />
      <stop
         id="stop2899"
         style="stop-color:#181818;stop-opacity:0"
         offset="1" />
    </linearGradient>
    <clipPath
       id="clipPath3865">
      <path
         d="m -88,6 c -3.324,0 -6,2.676 -6,6 l 0,72 c 0,3.324 2.676,6 6,6 l 72,0 c 3.324,0 6,-2.676 6,-6 l 0,-72 c 0,-3.324 -2.676,-6 -6,-6 l -72,0 z m 33.625,22 c 1.880448,-0.06833 3.788449,0.959903 4.75,2.90625 0.579908,1.173833 0.630329,3.073374 0.125,4.40625 -0.761049,2.007369 -2.527947,3.21875 -4.6875,3.21875 -1.137164,0 -1.202239,0.0223 -1.125,0.375 0.04475,0.204342 0.323856,4.66007 0.625,9.90625 0.412151,7.179997 0.511906,9.704677 0.375,10.21875 -0.100033,0.375618 -0.156526,0.731501 -0.125,0.78125 1.574006,0.888629 3.192056,1.799209 4.90625,2.3125 1.336222,-1.877455 3.772107,-4.744143 4.25,-4.96875 3.317966,-0.462086 6.880559,-0.480621 10.1875,0.03125 5.657377,6.560115 11.174834,13.764075 16.1875,20.84375 l -41.25,0.09375 8.71875,-13.75 c -0.03569,-0.02979 -2.808198,-1.483462 -6.1875,-3.25 -5.496689,-2.873399 -6.638586,-3.372067 -6.625,-2.90625 0.0022,0.07386 0.421884,1.875646 0.9375,4 l 1.1875,3.84375 0.03125,5.625 c 0.01843,5.443247 -0.0022,5.661679 -0.34375,6 -0.375441,0.371853 -1.112829,0.396687 -3.3125,0.1875 -0.792649,-0.07539 -1.840876,-0.406019 -2.125,-0.6875 l 0.03125,-11.625 -0.9375,-3.6875 -0.9375,-3.6875 -5.1875,9 c -2.848853,4.962604 -5.472239,9.333029 -5.8125,9.6875 -0.86375,0.899818 -1.354531,0.838846 -2.84375,-0.25 -1.275231,-0.932391 -1.572539,-1.383605 -1.40625,-2.25 0.149834,-0.780644 0.01677,-0.546097 6.09375,-11.125 3.011727,-5.242855 5.523305,-9.703165 5.5625,-9.90625 0.06098,-0.31595 -0.193363,-0.503911 -1.78125,-1.34375 -1.833623,-0.96981 -1.875906,-0.977232 -2.125,-0.625 -0.442438,0.625627 -1.074526,0.451733 -2.3125,-0.65625 -1.698831,-1.520448 -1.745074,-1.297229 2,-8.28125 1.698047,-3.166613 3.271023,-5.951186 3.5,-6.1875 l 0.40625,-0.40625 7.4375,-0.0625 7.4375,-0.0625 L -59,34.9375 c -0.591495,-1.88561 0.02988,-4.22107 1.46875,-5.59375 0.915574,-0.873465 2.027981,-1.302753 3.15625,-1.34375 z m -14.5,13.25 c -0.253538,1.82e-4 -0.598734,0.01989 -1.03125,0.03125 L -71.75,41.34375 -73.71875,45 c -1.084031,2.025217 -1.949573,3.738343 -1.90625,3.78125 0.110518,0.109463 3.300355,1.74815 3.40625,1.75 0.04772,8.18e-4 0.962794,-1.959126 2.03125,-4.34375 1.068455,-2.384626 1.96681,-4.487517 2.03125,-4.65625 0.08147,-0.213327 0.04187,-0.281796 -0.71875,-0.28125 z m 9.4375,7 c -0.147081,-0.02701 -0.580386,0.857379 -1.6875,3.34375 -0.896631,2.013671 -1.656072,3.720382 -1.6875,3.78125 -0.06085,0.117854 3.815701,2.179108 3.9375,2.09375 0.03957,-0.02773 -0.03025,-2.019282 -0.15625,-4.40625 -0.126001,-2.386971 -0.285188,-4.532318 -0.34375,-4.75 -0.01033,-0.0384 -0.04149,-0.05864 -0.0625,-0.0625 z"
         inkscape:connector-curvature="0"
         id="path3867"
         style="fill:#ffffff;fill-opacity:1;fill-rule:nonzero;stroke:none" />
    </clipPath>
    <filter
       x="-0.10549754"
       y="-0.13912515"
       width="1.2109951"
       height="1.2782503"
       color-interpolation-filters="sRGB"
       id="filter3861">
      <feGaussianBlur
         id="feGaussianBlur3863"
         stdDeviation="2.9050996" />
    </filter>
    <clipPath
       id="clipPath3873">
      <path
         d="m -55.763593,76.871041 c -0.792649,-0.07539 -1.81409,-0.394056 -2.098214,-0.675537 l 0.0091,-11.629569 -0.938143,-3.695097 -0.938143,-3.695097 -5.179737,9.022914 c -2.848853,4.962604 -5.458134,9.312939 -5.798395,9.66741 -0.86375,0.899818 -1.365788,0.859482 -2.855007,-0.229364 -1.275231,-0.932391 -1.561174,-1.396213 -1.394885,-2.262608 0.149834,-0.780644 0.01978,-0.543388 6.096765,-11.122291 3.011727,-5.242855 5.507937,-9.698625 5.547132,-9.90171 0.06098,-0.31595 -0.196572,-0.510905 -1.784459,-1.350744 -1.833623,-0.96981 -1.858729,-0.977254 -2.107823,-0.625022 -0.442438,0.625627 -1.076735,0.443555 -2.314709,-0.664428 -1.698831,-1.520448 -1.757699,-1.275786 1.987375,-8.259807 1.698047,-3.166613 3.274703,-5.950827 3.50368,-6.187141 l 0.416322,-0.429663 7.438682,-0.04987 7.438685,-0.04987 -0.253918,-0.809459 c -0.591495,-1.88561 0.0095,-4.19663 1.448371,-5.56931 2.441532,-2.329241 6.363975,-1.555682 7.902456,1.558473 0.579908,1.173833 0.635892,3.055549 0.130563,4.388425 -0.761049,2.007369 -2.533852,3.225841 -4.693405,3.225841 -1.137164,0 -1.193753,0.01883 -1.116514,0.371533 0.04475,0.204342 0.327755,4.66386 0.628899,9.91004 0.412151,7.179997 0.502564,9.707373 0.365658,10.221446 -0.100033,0.375618 -0.156083,0.723641 -0.124557,0.77339 1.574006,0.888629 3.190563,1.801476 4.904757,2.314767 1.336222,-1.877455 3.797333,-4.729212 4.275226,-4.953819 3.317966,-0.462086 6.852918,-0.488971 10.159859,0.0229 5.657377,6.560115 11.18443,13.764926 16.197096,20.844601 l -41.233706,0.08249 8.713509,-13.734918 c -0.03569,-0.02979 -2.829765,-1.499502 -6.209067,-3.26604 -5.496689,-2.873399 -6.619512,-3.366421 -6.605926,-2.900604 0.0022,0.07386 0.425783,1.872406 0.941399,3.99676 l 1.19002,3.862467 0.01906,5.627061 c 0.01843,5.443247 0.0075,5.638485 -0.334064,5.976806 -0.375441,0.371853 -1.134271,0.403831 -3.333942,0.194644 z m 6.720887,-24.807932 c -0.126001,-2.386971 -0.277007,-4.518048 -0.335569,-4.73573 -0.08264,-0.307176 -0.471447,0.423869 -1.73672,3.265436 -0.896631,2.013671 -1.655958,3.711021 -1.687386,3.771889 -0.06085,0.117854 3.795022,2.174125 3.916821,2.088767 0.03957,-0.02773 -0.03115,-2.003394 -0.157146,-4.390362 z m -11.15999,-6.878865 c 1.068455,-2.384626 1.995368,-4.473735 2.059808,-4.642468 0.108626,-0.284436 -0.01879,-0.30322 -1.748855,-0.257798 l -1.866016,0.04899 -1.970962,3.682213 c -1.084031,2.025217 -1.935518,3.717322 -1.892195,3.760229 0.110518,0.109463 3.282916,1.741151 3.388811,1.743001 0.04772,8.18e-4 0.960953,-1.949543 2.029409,-4.334167 z"
         inkscape:connector-curvature="0"
         id="path3875"
         style="fill:#ffffff;fill-opacity:1;display:inline" />
    </clipPath>
    <filter
       color-interpolation-filters="sRGB"
       id="filter3881">
      <feGaussianBlur
         id="feGaussianBlur3883"
         stdDeviation="0.58101993" />
    </filter>
    <linearGradient
       x1="56.466431"
       y1="11.349823"
       x2="56.466431"
       y2="36.26585"
       id="linearGradient3198"
       xlink:href="#linearGradient3192"
       gradientUnits="userSpaceOnUse" />
    <linearGradient
       id="linearGradient3192">
      <stop
         id="stop3194"
         style="stop-color:#000000;stop-opacity:1"
         offset="0" />
      <stop
         id="stop3196"
         style="stop-color:#000000;stop-opacity:0"
         offset="1" />
    </linearGradient>
    <linearGradient
       x1="56.466431"
       y1="11.349823"
       x2="56.466431"
       y2="36.26585"
       id="linearGradient3193"
       xlink:href="#linearGradient3192"
       gradientUnits="userSpaceOnUse" />
    <linearGradient
       id="linearGradient3063">
      <stop
         id="stop3065"
         style="stop-color:#000000;stop-opacity:1"
         offset="0" />
      <stop
         id="stop3067"
         style="stop-color:#000000;stop-opacity:0"
         offset="1" />
    </linearGradient>
    <linearGradient
       x1="56.466431"
       y1="11.349823"
       x2="56.466431"
       y2="36.26585"
       id="linearGradient3195"
       xlink:href="#linearGradient3192"
       gradientUnits="userSpaceOnUse" />
    <linearGradient
       id="linearGradient3070">
      <stop
         id="stop3072"
         style="stop-color:#000000;stop-opacity:1"
         offset="0" />
      <stop
         id="stop3074"
         style="stop-color:#000000;stop-opacity:0"
         offset="1" />
    </linearGradient>
    <linearGradient
       x1="56.466431"
       y1="11.349823"
       x2="56.466431"
       y2="36.26585"
       id="linearGradient3197"
       xlink:href="#linearGradient3192"
       gradientUnits="userSpaceOnUse" />
    <linearGradient
       id="linearGradient3077">
      <stop
         id="stop3079"
         style="stop-color:#000000;stop-opacity:1"
         offset="0" />
      <stop
         id="stop3081"
         style="stop-color:#000000;stop-opacity:0"
         offset="1" />
    </linearGradient>
    <linearGradient
       x1="56.466431"
       y1="11.349823"
       x2="56.466431"
       y2="36.26585"
       id="linearGradient3199"
       xlink:href="#linearGradient3192"
       gradientUnits="userSpaceOnUse" />
    <linearGradient
       id="linearGradient3084">
      <stop
         id="stop3086"
         style="stop-color:#000000;stop-opacity:1"
         offset="0" />
      <stop
         id="stop3088"
         style="stop-color:#000000;stop-opacity:0"
         offset="1" />
    </linearGradient>
    <linearGradient
       y2="36.26585"
       x2="56.466431"
       y1="11.349823"
       x1="56.466431"
       gradientUnits="userSpaceOnUse"
       id="linearGradient3095"
       xlink:href="#linearGradient3192"
       inkscape:collect="always" />
    <clipPath
       id="clipPath3724">
      <path
         d="m 32,24 0,48 48,0 0,-48 -48,0 z m 25.375,6 c 2.277349,3.2e-5 4.368816,0.380506 6.28125,1.125 1.91238,0.729957 3.581858,1.769418 4.96875,3.15625 1.401427,1.372289 2.476243,3.077123 3.25,5.0625 0.773686,1.970824 1.156213,4.174517 1.15625,6.65625 -3.7e-5,0.905125 -0.0728,1.830306 -0.21875,2.75 -0.131423,0.905122 -0.316414,1.761644 -0.59375,2.59375 -0.262809,0.817528 -0.607927,1.59718 -1.03125,2.3125 -0.408793,0.700737 -0.91404,1.318209 -1.46875,1.84375 -0.554778,0.525553 -1.190953,0.943436 -1.90625,1.25 -0.70076,0.291976 -1.465814,0.437505 -2.3125,0.4375 -0.656962,5e-6 -1.241132,-0.124767 -1.78125,-0.34375 -0.525574,-0.218973 -0.995464,-0.51003 -1.375,-0.875 -0.379588,-0.364957 -0.68935,-0.78284 -0.9375,-1.25 -0.233601,-0.481744 -0.381183,-0.989043 -0.46875,-1.5 l -0.09375,0 c -0.262798,0.540154 -0.605863,1.080756 -1,1.5625 -0.394183,0.481758 -0.849475,0.885043 -1.375,1.25 -0.51097,0.35037 -1.093087,0.639375 -1.75,0.84375 -0.642356,0.204384 -1.351296,0.312505 -2.125,0.3125 -1.124104,5e-6 -2.124103,-0.216236 -3,-0.625 -0.861328,-0.408753 -1.588973,-0.988816 -2.1875,-1.71875 -0.598552,-0.744518 -1.053844,-1.619745 -1.375,-2.65625 -0.30658,-1.036485 -0.468761,-2.182013 -0.46875,-3.4375 -1.1e-5,-1.474438 0.232881,-2.836206 0.65625,-4.0625 0.437944,-1.226258 1.040817,-2.265719 1.84375,-3.15625 0.817503,-0.890489 1.81545,-1.597377 2.96875,-2.09375 1.153267,-0.496327 2.444324,-0.749977 3.875,-0.75 0.656913,2.3e-5 1.311794,0.03538 1.96875,0.09375 0.656911,0.05842 1.276436,0.147833 1.875,0.25 0.598515,0.102212 1.159875,0.212386 1.65625,0.34375 0.510923,0.116811 0.914207,0.226984 1.25,0.34375 l -0.5,9.125 c -0.01463,0.321181 -0.01667,0.576883 -0.03125,0.78125 -2.6e-5,0.189793 -2.6e-5,0.351973 0,0.46875 -2.6e-5,0.1168 -2.6e-5,0.191618 0,0.25 -2.6e-5,0.05841 -2.6e-5,0.112466 0,0.15625 -2.6e-5,0.773733 0.07274,1.40991 0.21875,1.90625 0.160557,0.49636 0.345548,0.895538 0.59375,1.1875 0.248147,0.291979 0.537152,0.476969 0.84375,0.59375 0.321139,0.102197 0.664205,0.156258 1,0.15625 0.671503,8e-6 1.23902,-0.218286 1.75,-0.65625 0.510917,-0.452546 0.945451,-1.053367 1.28125,-1.8125 0.350332,-0.759113 0.606034,-1.63434 0.78125,-2.65625 0.175149,-1.021884 0.281217,-2.111299 0.28125,-3.25 -3.3e-5,-2.072974 -0.341046,-3.92539 -0.96875,-5.53125 -0.627769,-1.620414 -1.484292,-2.984236 -2.59375,-4.09375 -1.109517,-1.109462 -2.435931,-1.930629 -3.96875,-2.5 -1.518273,-0.583913 -3.173152,-0.874971 -4.96875,-0.875 -2.467172,2.9e-5 -4.648055,0.40126 -6.53125,1.21875 -1.883224,0.802947 -3.465339,1.915172 -4.75,3.375 -1.270081,1.445279 -2.218073,3.187522 -2.875,5.1875 -0.65694,1.985419 -1.000006,4.166301 -1,6.53125 -6e-6,2.20439 0.305651,4.135729 0.875,5.84375 0.583935,1.708034 1.421753,3.144621 2.53125,4.3125 1.124078,1.16789 2.506604,2.05771 4.15625,2.65625 C 51.445469,62.69229 53.353998,63 55.5,63 c 0.890491,0 1.763665,-0.0541 2.625,-0.15625 0.875889,-0.10219 1.728307,-0.23107 2.53125,-0.40625 0.817493,-0.17519 1.582548,-0.37478 2.3125,-0.59375 C 63.69865,61.61017 64.372235,61.37317 65,61.125 l 0,3.09375 c -1.255502,0.55474 -2.673384,0.99133 -4.25,1.3125 C 59.173335,65.85241 57.429039,66 55.53125,66 c -2.613155,0 -4.94162,-0.38048 -7,-1.125 -2.043806,-0.74453 -3.788101,-1.8027 -5.21875,-3.21875 -1.416063,-1.43066 -2.474228,-3.17495 -3.21875,-5.21875 -0.744528,-2.058386 -1.125002,-4.386851 -1.125,-7 -2e-6,-2.74451 0.419933,-5.322519 1.28125,-7.6875 0.861309,-2.379539 2.096253,-4.418999 3.6875,-6.15625 1.60583,-1.737198 3.549716,-3.101019 5.8125,-4.09375 2.277357,-0.992669 4.807464,-1.499968 7.625,-1.5 z m -0.46875,11.53125 c -1.080311,2.1e-5 -2.005493,0.201662 -2.75,0.625 -0.729944,0.423377 -1.314113,0.970138 -1.78125,1.65625 -0.45257,0.686149 -0.795635,1.467854 -1,2.34375 -0.204394,0.875927 -0.312515,1.782405 -0.3125,2.6875 -1.5e-5,1.941618 0.363808,3.342847 1.09375,4.21875 0.74451,0.861322 1.759107,1.281258 3,1.28125 0.802901,8e-6 1.493136,-0.147575 2.0625,-0.46875 0.569321,-0.335758 1.010015,-0.807701 1.375,-1.40625 0.364941,-0.613129 0.653946,-1.324123 0.84375,-2.15625 0.189758,-0.846703 0.316583,-1.773937 0.375,-2.78125 l 0.3125,-5.5625 c -0.408782,-0.116768 -0.89943,-0.224889 -1.46875,-0.3125 -0.554766,-0.10217 -1.136882,-0.124979 -1.75,-0.125 z"
         inkscape:connector-curvature="0"
         id="path3726"
         style="opacity:0.2;fill:#ff00ff;fill-opacity:1;stroke:none" />
    </clipPath>
    <filter
       color-interpolation-filters="sRGB"
       id="filter3669">
      <feGaussianBlur
         id="feGaussianBlur3671"
         stdDeviation="0.52554746" />
    </filter>
    <clipPath
       id="clipPath3674">
      <g
         transform="translate(0,-0.500001)"
         id="g3676"
         style="font-size:44.84671402px;font-style:normal;font-variant:normal;font-weight:normal;font-stretch:normal;text-align:start;line-height:125%;writing-mode:lr-tb;text-anchor:start;fill:#ffffff;fill-opacity:1;stroke:none;font-family:Droid Sans;-inkscape-font-specification:Abandoned Bitplane">
        <path
           d="m 73.036498,46.0073 c -3.7e-5,0.905125 -0.07303,1.817532 -0.218978,2.737226 -0.131423,0.905122 -0.335803,1.773734 -0.613139,2.60584 -0.262809,0.817528 -0.605874,1.58395 -1.029197,2.29927 -0.408793,0.700737 -0.890545,1.313875 -1.445255,1.839416 -0.554778,0.525553 -1.189813,0.941611 -1.90511,1.248175 -0.70076,0.291976 -1.474482,0.437961 -2.321168,0.437956 -0.656962,5e-6 -1.255502,-0.109484 -1.79562,-0.328467 -0.525574,-0.218973 -0.978128,-0.510943 -1.357664,-0.875913 -0.379588,-0.364957 -0.693456,-0.781015 -0.941606,-1.248175 -0.233601,-0.481744 -0.394185,-0.978094 -0.481752,-1.489051 l -0.08759,0 c -0.262798,0.540154 -0.591265,1.051103 -0.985402,1.532847 -0.394183,0.481758 -0.854037,0.905116 -1.379562,1.270073 -0.51097,0.35037 -1.094911,0.627742 -1.751824,0.832117 -0.642356,0.204384 -1.350384,0.306574 -2.124088,0.306569 -1.124104,5e-6 -2.124103,-0.204375 -3,-0.613139 -0.861328,-0.408753 -1.591254,-0.978095 -2.189781,-1.708029 -0.598552,-0.744518 -1.058406,-1.635028 -1.379562,-2.671533 -0.30658,-1.036485 -0.459865,-2.182469 -0.459854,-3.437956 -1.1e-5,-1.474438 0.211668,-2.824801 0.635037,-4.051095 0.437944,-1.226258 1.058381,-2.284651 1.861314,-3.175182 C 50.8832,40.62776 51.8686,39.93433 53.0219,39.437957 c 1.153267,-0.496327 2.445236,-0.744502 3.875912,-0.744525 0.656913,2.3e-5 1.313847,0.02922 1.970803,0.08759 0.656911,0.05842 1.284648,0.138709 1.883212,0.240876 0.598515,0.102212 1.14596,0.219001 1.642335,0.350365 0.510923,0.116811 0.93428,0.233599 1.270073,0.350365 l -0.503649,9.109488 c -0.01463,0.321181 -0.02922,0.583955 -0.0438,0.788322 -2.6e-5,0.189793 -2.6e-5,0.343077 0,0.459854 -2.6e-5,0.1168 -2.6e-5,0.204391 0,0.262773 -2.6e-5,0.05841 -2.6e-5,0.109501 0,0.153285 -2.6e-5,0.773733 0.07297,1.408769 0.218978,1.905109 0.160557,0.49636 0.364937,0.89052 0.613139,1.182482 0.248147,0.291979 0.525519,0.496358 0.832117,0.613139 0.321139,0.102197 0.649606,0.153292 0.985401,0.153284 0.671503,8e-6 1.262743,-0.21897 1.773723,-0.656934 0.510917,-0.452546 0.934274,-1.058385 1.270073,-1.817518 0.350332,-0.759113 0.613105,-1.649623 0.788321,-2.671533 0.175149,-1.021884 0.26274,-2.102175 0.262773,-3.240876 -3.3e-5,-2.072974 -0.313901,-3.912388 -0.941605,-5.518248 -0.627769,-1.620414 -1.496382,-2.985376 -2.60584,-4.09489 -1.109517,-1.109462 -2.430684,-1.948877 -3.963503,-2.518248 -1.518273,-0.583913 -3.175205,-0.875883 -4.970803,-0.875912 -2.467172,2.9e-5 -4.642352,0.408787 -6.525547,1.226277 -1.883224,0.802947 -3.467164,1.934332 -4.751825,3.39416 -1.270081,1.445279 -2.233584,3.167905 -2.890511,5.167883 -0.65694,1.985419 -0.985407,4.160599 -0.985401,6.525548 -6e-6,2.20439 0.284665,4.160592 0.854014,5.868613 0.583935,1.708034 1.430649,3.145989 2.540146,4.313868 1.124078,1.167885 2.510938,2.051095 4.160584,2.649635 1.664219,0.59854 3.569326,0.897809 5.715328,0.89781 0.890491,-1e-6 1.766403,-0.0511 2.627738,-0.153284 0.875889,-0.102191 1.715305,-0.240877 2.518248,-0.416059 0.817493,-0.175182 1.591215,-0.372263 2.321167,-0.591241 0.7299,-0.233576 1.408732,-0.474452 2.036497,-0.722627 l 0,3.087591 c -1.255502,0.554742 -2.671559,0.992697 -4.248175,1.313868 -1.576665,0.321164 -3.31389,0.481748 -5.211679,0.481752 -2.613155,-4e-6 -4.948919,-0.372266 -7.007299,-1.116788 -2.043806,-0.744528 -3.78103,-1.824819 -5.211679,-3.240876 -1.416063,-1.430655 -2.496354,-3.167879 -3.240876,-5.211679 -0.744528,-2.058386 -1.11679,-4.39415 -1.116788,-7.007299 -2e-6,-2.74451 0.430654,-5.299252 1.291971,-7.664233 0.861309,-2.379539 2.087585,-4.437931 3.678832,-6.175182 1.60583,-1.737198 3.540135,-3.10216 5.802919,-4.094891 2.277357,-0.992669 4.8248,-1.489019 7.642336,-1.489051 2.277349,3.2e-5 4.372237,0.372295 6.284671,1.116789 1.91238,0.729957 3.562013,1.78835 4.948905,3.175182 1.401427,1.372289 2.489017,3.051119 3.262774,5.036496 0.773686,1.970824 1.160547,4.197099 1.160584,6.678832 m -21.963503,2.824817 c -1.5e-5,1.941618 0.364948,3.350375 1.09489,4.226278 0.74451,0.861322 1.737209,1.291978 2.978102,1.29197 0.802901,8e-6 1.489031,-0.160576 2.058395,-0.481751 0.569321,-0.335758 1.036474,-0.802911 1.401459,-1.40146 0.364941,-0.613129 0.642313,-1.335756 0.832117,-2.167883 0.189758,-0.846703 0.313846,-1.773709 0.372263,-2.781022 l 0.306569,-5.540146 c -0.408782,-0.116768 -0.897833,-0.218958 -1.467153,-0.306569 -0.554766,-0.10217 -1.138707,-0.153264 -1.751825,-0.153285 -1.080311,2.1e-5 -1.992719,0.211699 -2.737226,0.635037 -0.729944,0.423377 -1.328483,0.978121 -1.79562,1.664233 -0.45257,0.686149 -0.781037,1.46717 -0.985402,2.343066 -0.204394,0.875927 -0.306584,1.766437 -0.306569,2.671532"
           inkscape:connector-curvature="0"
           id="path3678" />
      </g>
    </clipPath>
    <linearGradient
       x1="48"
       y1="20.220806"
       x2="48"
       y2="138.66119"
       id="linearGradient3613"
       xlink:href="#linearGradient3737"
       gradientUnits="userSpaceOnUse" />
    <linearGradient
       id="linearGradient3737">
      <stop
         id="stop3739"
         style="stop-color:#ffffff;stop-opacity:1"
         offset="0" />
      <stop
         id="stop3741"
         style="stop-color:#ffffff;stop-opacity:0"
         offset="1" />
    </linearGradient>
    <clipPath
       id="clipPath3613">
      <rect
         width="84"
         height="84"
         rx="6"
         ry="6"
         x="6"
         y="6"
         id="rect3615"
         style="fill:#ffffff;fill-opacity:1;fill-rule:nonzero;stroke:none" />
    </clipPath>
    <filter
       x="-0.192"
       y="-0.192"
       width="1.3839999"
       height="1.3839999"
       color-interpolation-filters="sRGB"
       id="filter3794">
      <feGaussianBlur
         id="feGaussianBlur3796"
         stdDeviation="5.28" />
    </filter>
    <linearGradient
       y2="138.66119"
       x2="48"
       y1="20.220806"
       x1="48"
       gradientUnits="userSpaceOnUse"
       id="linearGradient3886"
       xlink:href="#linearGradient3737"
       inkscape:collect="always" />
    <linearGradient
       x1="16"
       y1="88"
       x2="16"
       y2="8"
       id="linearGradient3646"
       xlink:href="#linearGradient3640"
       gradientUnits="userSpaceOnUse" />
    <linearGradient
       id="linearGradient3640">
      <stop
         id="stop3642"
         style="stop-color:#1a1a1a;stop-opacity:1"
         offset="0" />
      <stop
         id="stop3644"
         style="stop-color:#2a2a2a;stop-opacity:1"
         offset="1" />
    </linearGradient>
    <linearGradient
       x1="36.357143"
       y1="6"
       x2="36.357143"
       y2="63.893143"
       id="linearGradient3188"
       xlink:href="#linearGradient3737-2"
       gradientUnits="userSpaceOnUse" />
    <linearGradient
       id="linearGradient3737-2">
      <stop
         id="stop3739-4"
         style="stop-color:#ffffff;stop-opacity:1"
         offset="0" />
      <stop
         id="stop3741-7"
         style="stop-color:#ffffff;stop-opacity:0"
         offset="1" />
    </linearGradient>
    <radialGradient
       cx="48"
       cy="90.171875"
       r="42"
       fx="48"
       fy="90.171875"
       id="radialGradient3619"
       xlink:href="#linearGradient3737-2"
       gradientUnits="userSpaceOnUse"
       gradientTransform="matrix(1.1573129,0,0,0.99590774,-7.5510206,0.19713193)" />
    <linearGradient
       id="linearGradient3907">
      <stop
         id="stop3909"
         style="stop-color:#ffffff;stop-opacity:1"
         offset="0" />
      <stop
         id="stop3911"
         style="stop-color:#ffffff;stop-opacity:0"
         offset="1" />
    </linearGradient>
    <linearGradient
       x1="10"
       y1="24"
       x2="18"
       y2="24"
       id="linearGradient3784"
       xlink:href="#linearGradient3778"
       gradientUnits="userSpaceOnUse"
       gradientTransform="matrix(0,1,1,0,-10,10)" />
    <linearGradient
       id="linearGradient3778">
      <stop
         id="stop3780"
         style="stop-color:#000000;stop-opacity:1"
         offset="0" />
      <stop
         id="stop3786"
         style="stop-color:#000000;stop-opacity:0"
         offset="0.5" />
      <stop
         id="stop3782"
         style="stop-color:#ffffff;stop-opacity:1"
         offset="1" />
    </linearGradient>
    <linearGradient
       x1="9"
       y1="22"
       x2="9"
       y2="26"
       id="linearGradient3751"
       xlink:href="#linearGradient3745"
       gradientUnits="userSpaceOnUse" />
    <linearGradient
       id="linearGradient3745">
      <stop
         id="stop3747"
         style="stop-color:#8a8a8a;stop-opacity:1"
         offset="0" />
      <stop
         id="stop3753"
         style="stop-color:#d5d5d5;stop-opacity:1"
         offset="0.40964222" />
      <stop
         id="stop3755"
         style="stop-color:#6f6f6f;stop-opacity:1"
         offset="0.72741055" />
      <stop
         id="stop3749"
         style="stop-color:#373737;stop-opacity:1"
         offset="1" />
    </linearGradient>
    <linearGradient
       x1="4"
       y1="24"
       x2="12"
       y2="24"
       id="linearGradient3767"
       xlink:href="#linearGradient3761"
       gradientUnits="userSpaceOnUse"
       spreadMethod="reflect" />
    <linearGradient
       id="linearGradient3761">
      <stop
         id="stop3763"
         style="stop-color:#000000;stop-opacity:1"
         offset="0" />
      <stop
         id="stop3769"
         style="stop-color:#000000;stop-opacity:0.19379845"
         offset="0.5" />
      <stop
         id="stop3765"
         style="stop-color:#000000;stop-opacity:0"
         offset="1" />
    </linearGradient>
    <linearGradient
       x1="10"
       y1="24"
       x2="18"
       y2="24"
       id="linearGradient3929"
       xlink:href="#linearGradient3778"
       gradientUnits="userSpaceOnUse"
       gradientTransform="matrix(0,1,1,0,-10,10)" />
    <linearGradient
       id="linearGradient3931">
      <stop
         id="stop3933"
         style="stop-color:#000000;stop-opacity:1"
         offset="0" />
      <stop
         id="stop3935"
         style="stop-color:#000000;stop-opacity:0"
         offset="0.5" />
      <stop
         id="stop3937"
         style="stop-color:#ffffff;stop-opacity:1"
         offset="1" />
    </linearGradient>
    <linearGradient
       x1="9"
       y1="22"
       x2="9"
       y2="26"
       id="linearGradient3939"
       xlink:href="#linearGradient3745"
       gradientUnits="userSpaceOnUse" />
    <linearGradient
       id="linearGradient3941">
      <stop
         id="stop3943"
         style="stop-color:#8a8a8a;stop-opacity:1"
         offset="0" />
      <stop
         id="stop3945"
         style="stop-color:#d5d5d5;stop-opacity:1"
         offset="0.40964222" />
      <stop
         id="stop3947"
         style="stop-color:#6f6f6f;stop-opacity:1"
         offset="0.72741055" />
      <stop
         id="stop3949"
         style="stop-color:#373737;stop-opacity:1"
         offset="1" />
    </linearGradient>
    <linearGradient
       x1="4"
       y1="24"
       x2="12"
       y2="24"
       id="linearGradient3951"
       xlink:href="#linearGradient3761"
       gradientUnits="userSpaceOnUse"
       spreadMethod="reflect" />
    <linearGradient
       id="linearGradient3953">
      <stop
         id="stop3955"
         style="stop-color:#000000;stop-opacity:1"
         offset="0" />
      <stop
         id="stop3957"
         style="stop-color:#000000;stop-opacity:0.19379845"
         offset="0.5" />
      <stop
         id="stop3959"
         style="stop-color:#000000;stop-opacity:0"
         offset="1" />
    </linearGradient>
    <linearGradient
       x1="10"
       y1="24"
       x2="18"
       y2="24"
       id="linearGradient3961"
       xlink:href="#linearGradient3778"
       gradientUnits="userSpaceOnUse"
       gradientTransform="matrix(0,1,1,0,-10,10)" />
    <linearGradient
       id="linearGradient3963">
      <stop
         id="stop3965"
         style="stop-color:#000000;stop-opacity:1"
         offset="0" />
      <stop
         id="stop3967"
         style="stop-color:#000000;stop-opacity:0"
         offset="0.5" />
      <stop
         id="stop3969"
         style="stop-color:#ffffff;stop-opacity:1"
         offset="1" />
    </linearGradient>
    <linearGradient
       x1="9"
       y1="22"
       x2="9"
       y2="26"
       id="linearGradient3971"
       xlink:href="#linearGradient3745"
       gradientUnits="userSpaceOnUse" />
    <linearGradient
       id="linearGradient3973">
      <stop
         id="stop3975"
         style="stop-color:#8a8a8a;stop-opacity:1"
         offset="0" />
      <stop
         id="stop3977"
         style="stop-color:#d5d5d5;stop-opacity:1"
         offset="0.40964222" />
      <stop
         id="stop3979"
         style="stop-color:#6f6f6f;stop-opacity:1"
         offset="0.72741055" />
      <stop
         id="stop3981"
         style="stop-color:#373737;stop-opacity:1"
         offset="1" />
    </linearGradient>
    <linearGradient
       x1="4"
       y1="24"
       x2="12"
       y2="24"
       id="linearGradient3983"
       xlink:href="#linearGradient3761"
       gradientUnits="userSpaceOnUse"
       spreadMethod="reflect" />
    <linearGradient
       id="linearGradient3985">
      <stop
         id="stop3987"
         style="stop-color:#000000;stop-opacity:1"
         offset="0" />
      <stop
         id="stop3989"
         style="stop-color:#000000;stop-opacity:0.19379845"
         offset="0.5" />
      <stop
         id="stop3991"
         style="stop-color:#000000;stop-opacity:0"
         offset="1" />
    </linearGradient>
    <linearGradient
       x1="10"
       y1="24"
       x2="18"
       y2="24"
       id="linearGradient3993"
       xlink:href="#linearGradient3778"
       gradientUnits="userSpaceOnUse"
       gradientTransform="matrix(0,1,1,0,-10,10)" />
    <linearGradient
       id="linearGradient3995">
      <stop
         id="stop3997"
         style="stop-color:#000000;stop-opacity:1"
         offset="0" />
      <stop
         id="stop3999"
         style="stop-color:#000000;stop-opacity:0"
         offset="0.5" />
      <stop
         id="stop4001"
         style="stop-color:#ffffff;stop-opacity:1"
         offset="1" />
    </linearGradient>
    <linearGradient
       x1="9"
       y1="22"
       x2="9"
       y2="26"
       id="linearGradient4003"
       xlink:href="#linearGradient3745"
       gradientUnits="userSpaceOnUse" />
    <linearGradient
       id="linearGradient4005">
      <stop
         id="stop4007"
         style="stop-color:#8a8a8a;stop-opacity:1"
         offset="0" />
      <stop
         id="stop4009"
         style="stop-color:#d5d5d5;stop-opacity:1"
         offset="0.40964222" />
      <stop
         id="stop4011"
         style="stop-color:#6f6f6f;stop-opacity:1"
         offset="0.72741055" />
      <stop
         id="stop4013"
         style="stop-color:#373737;stop-opacity:1"
         offset="1" />
    </linearGradient>
    <linearGradient
       x1="4"
       y1="24"
       x2="12"
       y2="24"
       id="linearGradient4015"
       xlink:href="#linearGradient3761"
       gradientUnits="userSpaceOnUse"
       spreadMethod="reflect" />
    <linearGradient
       id="linearGradient4017">
      <stop
         id="stop4019"
         style="stop-color:#000000;stop-opacity:1"
         offset="0" />
      <stop
         id="stop4021"
         style="stop-color:#000000;stop-opacity:0.19379845"
         offset="0.5" />
      <stop
         id="stop4023"
         style="stop-color:#000000;stop-opacity:0"
         offset="1" />
    </linearGradient>
    <linearGradient
       x1="10"
       y1="24"
       x2="18"
       y2="24"
       id="linearGradient4025"
       xlink:href="#linearGradient3778"
       gradientUnits="userSpaceOnUse"
       gradientTransform="matrix(0,1,1,0,-10,10)" />
    <linearGradient
       id="linearGradient4027">
      <stop
         id="stop4029"
         style="stop-color:#000000;stop-opacity:1"
         offset="0" />
      <stop
         id="stop4031"
         style="stop-color:#000000;stop-opacity:0"
         offset="0.5" />
      <stop
         id="stop4033"
         style="stop-color:#ffffff;stop-opacity:1"
         offset="1" />
    </linearGradient>
    <linearGradient
       x1="9"
       y1="22"
       x2="9"
       y2="26"
       id="linearGradient4035"
       xlink:href="#linearGradient3745"
       gradientUnits="userSpaceOnUse" />
    <linearGradient
       id="linearGradient4037">
      <stop
         id="stop4039"
         style="stop-color:#8a8a8a;stop-opacity:1"
         offset="0" />
      <stop
         id="stop4041"
         style="stop-color:#d5d5d5;stop-opacity:1"
         offset="0.40964222" />
      <stop
         id="stop4043"
         style="stop-color:#6f6f6f;stop-opacity:1"
         offset="0.72741055" />
      <stop
         id="stop4045"
         style="stop-color:#373737;stop-opacity:1"
         offset="1" />
    </linearGradient>
    <linearGradient
       x1="4"
       y1="24"
       x2="12"
       y2="24"
       id="linearGradient4047"
       xlink:href="#linearGradient3761"
       gradientUnits="userSpaceOnUse"
       spreadMethod="reflect" />
    <linearGradient
       id="linearGradient4049">
      <stop
         id="stop4051"
         style="stop-color:#000000;stop-opacity:1"
         offset="0" />
      <stop
         id="stop4053"
         style="stop-color:#000000;stop-opacity:0.19379845"
         offset="0.5" />
      <stop
         id="stop4055"
         style="stop-color:#000000;stop-opacity:0"
         offset="1" />
    </linearGradient>
    <radialGradient
       r="42"
       fy="90.171875"
       fx="48"
       cy="90.171875"
       cx="48"
       gradientTransform="matrix(1.1573129,0,0,0.99590774,-7.5510206,0.19713193)"
       gradientUnits="userSpaceOnUse"
       id="radialGradient4075"
       xlink:href="#linearGradient3737-2"
       inkscape:collect="always" />
    <linearGradient
       inkscape:collect="always"
       xlink:href="#linearGradient3778"
       id="linearGradient4123"
       gradientUnits="userSpaceOnUse"
       gradientTransform="matrix(0,1,1,0,-10,10)"
       x1="10"
       y1="24"
       x2="18"
       y2="24" />
    <linearGradient
       inkscape:collect="always"
       xlink:href="#linearGradient3745"
       id="linearGradient4125"
       gradientUnits="userSpaceOnUse"
       x1="9"
       y1="22"
       x2="9"
       y2="26" />
    <linearGradient
       inkscape:collect="always"
       xlink:href="#linearGradient3761"
       id="linearGradient4127"
       gradientUnits="userSpaceOnUse"
       spreadMethod="reflect"
       x1="4"
       y1="24"
       x2="12"
       y2="24" />
    <linearGradient
       inkscape:collect="always"
       xlink:href="#linearGradient3778"
       id="linearGradient4291"
       gradientUnits="userSpaceOnUse"
       gradientTransform="matrix(0,1,1,0,-10,10)"
       x1="10"
       y1="24"
       x2="18"
       y2="24" />
    <linearGradient
       inkscape:collect="always"
       xlink:href="#linearGradient3745"
       id="linearGradient4293"
       gradientUnits="userSpaceOnUse"
       x1="9"
       y1="22"
       x2="9"
       y2="26" />
    <linearGradient
       inkscape:collect="always"
       xlink:href="#linearGradient3761"
       id="linearGradient4295"
       gradientUnits="userSpaceOnUse"
       spreadMethod="reflect"
       x1="4"
       y1="24"
       x2="12"
       y2="24" />
  </defs>
  <sodipodi:namedview
     id="base"
     pagecolor="#ffffff"
     bordercolor="#666666"
     borderopacity="1.0"
     inkscape:pageopacity="0.0"
     inkscape:pageshadow="2"
     inkscape:zoom="4.8359375"
     inkscape:cx="64.620355"
     inkscape:cy="66.584814"
     inkscape:current-layer="layer1"
     showgrid="true"
     inkscape:document-units="px"
     inkscape:grid-bbox="true"
     inkscape:window-width="1556"
     inkscape:window-height="807"
     inkscape:window-x="144"
     inkscape:window-y="35"
     inkscape:window-maximized="0" />
  <metadata
     id="metadata3891">
    <rdf:RDF>
      <cc:Work
         rdf:about="">
        <dc:format>image/svg+xml</dc:format>
        <dc:type
           rdf:resource="http://purl.org/dc/dcmitype/StillImage" />
        <dc:title />
      </cc:Work>
    </rdf:RDF>
  </metadata>
  <g
     id="layer1"
     inkscape:label="Layer 1"
     inkscape:groupmode="layer"
     transform="translate(0,64)">
    <g
       transform="matrix(2.9499988,0,0,1.2222234,-6.8000012,1.555537)"
       id="g2036"
       style="display:inline">
      <g
         transform="matrix(1.052632,0,0,1.285713,-1.263158,-13.42854)"
         id="g3712"
         style="opacity:0.4">
        <rect
           width="5"
           height="7"
           x="38"
           y="40"
           id="rect2801"
           style="fill:url(#radialGradient2455);fill-opacity:1;stroke:none" />
        <rect
           width="5"
           height="7"
           x="-10"
           y="-47"
           transform="scale(-1,-1)"
           id="rect3696"
           style="fill:url(#radialGradient2457);fill-opacity:1;stroke:none" />
        <rect
           width="28"
           height="7.0000005"
           x="10"
           y="40"
           id="rect3700"
           style="fill:url(#linearGradient2459);fill-opacity:1;stroke:none" />
      </g>
    </g>
    <rect
       style="color:#000000;fill:url(#radialGradient2990);fill-opacity:1.0;fill-rule:nonzero;stroke:url(#linearGradient2992);stroke-width:0.99999994000000003;stroke-linecap:round;stroke-linejoin:round;stroke-miterlimit:4;stroke-opacity:1;stroke-dasharray:none;stroke-dashoffset:0;marker:none;visibility:visible;display:inline;overflow:visible;enable-background:accumulate"
       id="rect5505-21"
       y="-48.5"
       x="12.5"
       ry="6"
       rx="6"
       height="103"
       width="103" />
    <rect
       style="opacity:0.5;fill:none;stroke:url(#linearGradient2984);stroke-width:0.99999994;stroke-linecap:round;stroke-linejoin:round;stroke-miterlimit:4;stroke-opacity:1;stroke-dasharray:none;stroke-dashoffset:0"
       id="rect6741-7"
       y="-47.5"
       x="13.5"
       ry="5"
       rx="5"
       height="101"
       width="101" />
    <g
       transform="matrix(1.6406715,0,0,1.6406715,-21.987296,-76.580988)"
       id="layer3">
      <g
         clip-path="url(#clipPath3724)"
         id="g3718"
         style="font-size:44.84671402px;font-style:normal;font-variant:normal;font-weight:normal;font-stretch:normal;text-align:start;line-height:125%;writing-mode:lr-tb;text-anchor:start;opacity:0.5;fill:none;stroke:#de8787;stroke-width:1.5;stroke-miterlimit:4;stroke-dasharray:none;filter:url(#filter3669);font-family:Droid Sans;-inkscape-font-specification:Abandoned Bitplane">
        <path
           d="m 73.036498,46.0073 c -3.7e-5,0.905125 -0.07303,1.817532 -0.218978,2.737226 -0.131423,0.905122 -0.335803,1.773734 -0.613139,2.60584 -0.262809,0.817528 -0.605874,1.58395 -1.029197,2.29927 -0.408793,0.700737 -0.890545,1.313875 -1.445255,1.839416 -0.554778,0.525553 -1.189813,0.941611 -1.90511,1.248175 -0.70076,0.291976 -1.474482,0.437961 -2.321168,0.437956 -0.656962,5e-6 -1.255502,-0.109484 -1.79562,-0.328467 -0.525574,-0.218973 -0.978128,-0.510943 -1.357664,-0.875913 -0.379588,-0.364957 -0.693456,-0.781015 -0.941606,-1.248175 -0.233601,-0.481744 -0.394185,-0.978094 -0.481752,-1.489051 l -0.08759,0 c -0.262798,0.540154 -0.591265,1.051103 -0.985402,1.532847 -0.394183,0.481758 -0.854037,0.905116 -1.379562,1.270073 -0.51097,0.35037 -1.094911,0.627742 -1.751824,0.832117 -0.642356,0.204384 -1.350384,0.306574 -2.124088,0.306569 -1.124104,5e-6 -2.124103,-0.204375 -3,-0.613139 -0.861328,-0.408753 -1.591254,-0.978095 -2.189781,-1.708029 -0.598552,-0.744518 -1.058406,-1.635028 -1.379562,-2.671533 -0.30658,-1.036485 -0.459865,-2.182469 -0.459854,-3.437956 -1.1e-5,-1.474438 0.211668,-2.824801 0.635037,-4.051095 0.437944,-1.226258 1.058381,-2.284651 1.861314,-3.175182 C 50.8832,40.62776 51.8686,39.93433 53.0219,39.437957 c 1.153267,-0.496327 2.445236,-0.744502 3.875912,-0.744525 0.656913,2.3e-5 1.313847,0.02922 1.970803,0.08759 0.656911,0.05842 1.284648,0.138709 1.883212,0.240876 0.598515,0.102212 1.14596,0.219001 1.642335,0.350365 0.510923,0.116811 0.93428,0.233599 1.270073,0.350365 l -0.503649,9.109488 c -0.01463,0.321181 -0.02922,0.583955 -0.0438,0.788322 -2.6e-5,0.189793 -2.6e-5,0.343077 0,0.459854 -2.6e-5,0.1168 -2.6e-5,0.204391 0,0.262773 -2.6e-5,0.05841 -2.6e-5,0.109501 0,0.153285 -2.6e-5,0.773733 0.07297,1.408769 0.218978,1.905109 0.160557,0.49636 0.364937,0.89052 0.613139,1.182482 0.248147,0.291979 0.525519,0.496358 0.832117,0.613139 0.321139,0.102197 0.649606,0.153292 0.985401,0.153284 0.671503,8e-6 1.262743,-0.21897 1.773723,-0.656934 0.510917,-0.452546 0.934274,-1.058385 1.270073,-1.817518 0.350332,-0.759113 0.613105,-1.649623 0.788321,-2.671533 0.175149,-1.021884 0.26274,-2.102175 0.262773,-3.240876 -3.3e-5,-2.072974 -0.313901,-3.912388 -0.941605,-5.518248 -0.627769,-1.620414 -1.496382,-2.985376 -2.60584,-4.09489 -1.109517,-1.109462 -2.430684,-1.948877 -3.963503,-2.518248 -1.518273,-0.583913 -3.175205,-0.875883 -4.970803,-0.875912 -2.467172,2.9e-5 -4.642352,0.408787 -6.525547,1.226277 -1.883224,0.802947 -3.467164,1.934332 -4.751825,3.39416 -1.270081,1.445279 -2.233584,3.167905 -2.890511,5.167883 -0.65694,1.985419 -0.985407,4.160599 -0.985401,6.525548 -6e-6,2.20439 0.284665,4.160592 0.854014,5.868613 0.583935,1.708034 1.430649,3.145989 2.540146,4.313868 1.124078,1.167885 2.510938,2.051095 4.160584,2.649635 1.664219,0.59854 3.569326,0.897809 5.715328,0.89781 0.890491,-1e-6 1.766403,-0.0511 2.627738,-0.153284 0.875889,-0.102191 1.715305,-0.240877 2.518248,-0.416059 0.817493,-0.175182 1.591215,-0.372263 2.321167,-0.591241 0.7299,-0.233576 1.408732,-0.474452 2.036497,-0.722627 l 0,3.087591 c -1.255502,0.554742 -2.671559,0.992697 -4.248175,1.313868 -1.576665,0.321164 -3.31389,0.481748 -5.211679,0.481752 -2.613155,-4e-6 -4.948919,-0.372266 -7.007299,-1.116788 -2.043806,-0.744528 -3.78103,-1.824819 -5.211679,-3.240876 -1.416063,-1.430655 -2.496354,-3.167879 -3.240876,-5.211679 -0.744528,-2.058386 -1.11679,-4.39415 -1.116788,-7.007299 -2e-6,-2.74451 0.430654,-5.299252 1.291971,-7.664233 0.861309,-2.379539 2.087585,-4.437931 3.678832,-6.175182 1.60583,-1.737198 3.540135,-3.10216 5.802919,-4.094891 2.277357,-0.992669 4.8248,-1.489019 7.642336,-1.489051 2.277349,3.2e-5 4.372237,0.372295 6.284671,1.116789 1.91238,0.729957 3.562013,1.78835 4.948905,3.175182 1.401427,1.372289 2.489017,3.051119 3.262774,5.036496 0.773686,1.970824 1.160547,4.197099 1.160584,6.678832 m -21.963503,2.824817 c -1.5e-5,1.941618 0.364948,3.350375 1.09489,4.226278 0.74451,0.861322 1.737209,1.291978 2.978102,1.29197 0.802901,8e-6 1.489031,-0.160576 2.058395,-0.481751 0.569321,-0.335758 1.036474,-0.802911 1.401459,-1.40146 0.364941,-0.613129 0.642313,-1.335756 0.832117,-2.167883 0.189758,-0.846703 0.313846,-1.773709 0.372263,-2.781022 l 0.306569,-5.540146 c -0.408782,-0.116768 -0.897833,-0.218958 -1.467153,-0.306569 -0.554766,-0.10217 -1.138707,-0.153264 -1.751825,-0.153285 -1.080311,2.1e-5 -1.992719,0.211699 -2.737226,0.635037 -0.729944,0.423377 -1.328483,0.978121 -1.79562,1.664233 -0.45257,0.686149 -0.781037,1.46717 -0.985402,2.343066 -0.204394,0.875927 -0.306584,1.766437 -0.306569,2.671532"
           inkscape:connector-curvature="0"
           id="path3720"
           style="fill:none;stroke:#de8787;stroke-width:1.5;stroke-miterlimit:4;stroke-dasharray:none" />
      </g>
      <g
         id="text3653"
         style="font-size:44.84671402px;font-style:normal;font-variant:normal;font-weight:normal;font-stretch:normal;text-align:start;line-height:125%;writing-mode:lr-tb;text-anchor:start;fill:#ffffff;fill-opacity:1;stroke:none;font-family:Droid Sans;-inkscape-font-specification:Abandoned Bitplane">
        <path
           d="m 73.036498,46.0073 c -3.7e-5,0.905125 -0.07303,1.817532 -0.218978,2.737226 -0.131423,0.905122 -0.335803,1.773734 -0.613139,2.60584 -0.262809,0.817528 -0.605874,1.58395 -1.029197,2.29927 -0.408793,0.700737 -0.890545,1.313875 -1.445255,1.839416 -0.554778,0.525553 -1.189813,0.941611 -1.90511,1.248175 -0.70076,0.291976 -1.474482,0.437961 -2.321168,0.437956 -0.656962,5e-6 -1.255502,-0.109484 -1.79562,-0.328467 -0.525574,-0.218973 -0.978128,-0.510943 -1.357664,-0.875913 -0.379588,-0.364957 -0.693456,-0.781015 -0.941606,-1.248175 -0.233601,-0.481744 -0.394185,-0.978094 -0.481752,-1.489051 l -0.08759,0 c -0.262798,0.540154 -0.591265,1.051103 -0.985402,1.532847 -0.394183,0.481758 -0.854037,0.905116 -1.379562,1.270073 -0.51097,0.35037 -1.094911,0.627742 -1.751824,0.832117 -0.642356,0.204384 -1.350384,0.306574 -2.124088,0.306569 -1.124104,5e-6 -2.124103,-0.204375 -3,-0.613139 -0.861328,-0.408753 -1.591254,-0.978095 -2.189781,-1.708029 -0.598552,-0.744518 -1.058406,-1.635028 -1.379562,-2.671533 -0.30658,-1.036485 -0.459865,-2.182469 -0.459854,-3.437956 -1.1e-5,-1.474438 0.211668,-2.824801 0.635037,-4.051095 0.437944,-1.226258 1.058381,-2.284651 1.861314,-3.175182 C 50.8832,40.62776 51.8686,39.93433 53.0219,39.437957 c 1.153267,-0.496327 2.445236,-0.744502 3.875912,-0.744525 0.656913,2.3e-5 1.313847,0.02922 1.970803,0.08759 0.656911,0.05842 1.284648,0.138709 1.883212,0.240876 0.598515,0.102212 1.14596,0.219001 1.642335,0.350365 0.510923,0.116811 0.93428,0.233599 1.270073,0.350365 l -0.503649,9.109488 c -0.01463,0.321181 -0.02922,0.583955 -0.0438,0.788322 -2.6e-5,0.189793 -2.6e-5,0.343077 0,0.459854 -2.6e-5,0.1168 -2.6e-5,0.204391 0,0.262773 -2.6e-5,0.05841 -2.6e-5,0.109501 0,0.153285 -2.6e-5,0.773733 0.07297,1.408769 0.218978,1.905109 0.160557,0.49636 0.364937,0.89052 0.613139,1.182482 0.248147,0.291979 0.525519,0.496358 0.832117,0.613139 0.321139,0.102197 0.649606,0.153292 0.985401,0.153284 0.671503,8e-6 1.262743,-0.21897 1.773723,-0.656934 0.510917,-0.452546 0.934274,-1.058385 1.270073,-1.817518 0.350332,-0.759113 0.613105,-1.649623 0.788321,-2.671533 0.175149,-1.021884 0.26274,-2.102175 0.262773,-3.240876 -3.3e-5,-2.072974 -0.313901,-3.912388 -0.941605,-5.518248 -0.627769,-1.620414 -1.496382,-2.985376 -2.60584,-4.09489 -1.109517,-1.109462 -2.430684,-1.948877 -3.963503,-2.518248 -1.518273,-0.583913 -3.175205,-0.875883 -4.970803,-0.875912 -2.467172,2.9e-5 -4.642352,0.408787 -6.525547,1.226277 -1.883224,0.802947 -3.467164,1.934332 -4.751825,3.39416 -1.270081,1.445279 -2.233584,3.167905 -2.890511,5.167883 -0.65694,1.985419 -0.985407,4.160599 -0.985401,6.525548 -6e-6,2.20439 0.284665,4.160592 0.854014,5.868613 0.583935,1.708034 1.430649,3.145989 2.540146,4.313868 1.124078,1.167885 2.510938,2.051095 4.160584,2.649635 1.664219,0.59854 3.569326,0.897809 5.715328,0.89781 0.890491,-1e-6 1.766403,-0.0511 2.627738,-0.153284 0.875889,-0.102191 1.715305,-0.240877 2.518248,-0.416059 0.817493,-0.175182 1.591215,-0.372263 2.321167,-0.591241 0.7299,-0.233576 1.408732,-0.474452 2.036497,-0.722627 l 0,3.087591 c -1.255502,0.554742 -2.671559,0.992697 -4.248175,1.313868 -1.576665,0.321164 -3.31389,0.481748 -5.211679,0.481752 -2.613155,-4e-6 -4.948919,-0.372266 -7.007299,-1.116788 -2.043806,-0.744528 -3.78103,-1.824819 -5.211679,-3.240876 -1.416063,-1.430655 -2.496354,-3.167879 -3.240876,-5.211679 -0.744528,-2.058386 -1.11679,-4.39415 -1.116788,-7.007299 -2e-6,-2.74451 0.430654,-5.299252 1.291971,-7.664233 0.861309,-2.379539 2.087585,-4.437931 3.678832,-6.175182 1.60583,-1.737198 3.540135,-3.10216 5.802919,-4.094891 2.277357,-0.992669 4.8248,-1.489019 7.642336,-1.489051 2.277349,3.2e-5 4.372237,0.372295 6.284671,1.116789 1.91238,0.729957 3.562013,1.78835 4.948905,3.175182 1.401427,1.372289 2.489017,3.051119 3.262774,5.036496 0.773686,1.970824 1.160547,4.197099 1.160584,6.678832 m -21.963503,2.824817 c -1.5e-5,1.941618 0.364948,3.350375 1.09489,4.226278 0.74451,0.861322 1.737209,1.291978 2.978102,1.29197 0.802901,8e-6 1.489031,-0.160576 2.058395,-0.481751 0.569321,-0.335758 1.036474,-0.802911 1.401459,-1.40146 0.364941,-0.613129 0.642313,-1.335756 0.832117,-2.167883 0.189758,-0.846703 0.313846,-1.773709 0.372263,-2.781022 l 0.306569,-5.540146 c -0.408782,-0.116768 -0.897833,-0.218958 -1.467153,-0.306569 -0.554766,-0.10217 -1.138707,-0.153264 -1.751825,-0.153285 -1.080311,2.1e-5 -1.992719,0.211699 -2.737226,0.635037 -0.729944,0.423377 -1.328483,0.978121 -1.79562,1.664233 -0.45257,0.686149 -0.781037,1.46717 -0.985402,2.343066 -0.204394,0.875927 -0.306584,1.766437 -0.306569,2.671532"
           inkscape:connector-curvature="0"
           id="path3658" />
      </g>
      <g
         transform="translate(0,0.500001)"
         clip-path="url(#clipPath3674)"
         id="g3660"
         style="font-size:44.84671402px;font-style:normal;font-variant:normal;font-weight:normal;font-stretch:normal;text-align:start;line-height:125%;writing-mode:lr-tb;text-anchor:start;opacity:0.25;fill:none;stroke:#000000;font-family:Droid Sans;-inkscape-font-specification:Abandoned Bitplane">
        <path
           d="m 73.036498,46.0073 c -3.7e-5,0.905125 -0.07303,1.817532 -0.218978,2.737226 -0.131423,0.905122 -0.335803,1.773734 -0.613139,2.60584 -0.262809,0.817528 -0.605874,1.58395 -1.029197,2.29927 -0.408793,0.700737 -0.890545,1.313875 -1.445255,1.839416 -0.554778,0.525553 -1.189813,0.941611 -1.90511,1.248175 -0.70076,0.291976 -1.474482,0.437961 -2.321168,0.437956 -0.656962,5e-6 -1.255502,-0.109484 -1.79562,-0.328467 -0.525574,-0.218973 -0.978128,-0.510943 -1.357664,-0.875913 -0.379588,-0.364957 -0.693456,-0.781015 -0.941606,-1.248175 -0.233601,-0.481744 -0.394185,-0.978094 -0.481752,-1.489051 l -0.08759,0 c -0.262798,0.540154 -0.591265,1.051103 -0.985402,1.532847 -0.394183,0.481758 -0.854037,0.905116 -1.379562,1.270073 -0.51097,0.35037 -1.094911,0.627742 -1.751824,0.832117 -0.642356,0.204384 -1.350384,0.306574 -2.124088,0.306569 -1.124104,5e-6 -2.124103,-0.204375 -3,-0.613139 -0.861328,-0.408753 -1.591254,-0.978095 -2.189781,-1.708029 -0.598552,-0.744518 -1.058406,-1.635028 -1.379562,-2.671533 -0.30658,-1.036485 -0.459865,-2.182469 -0.459854,-3.437956 -1.1e-5,-1.474438 0.211668,-2.824801 0.635037,-4.051095 0.437944,-1.226258 1.058381,-2.284651 1.861314,-3.175182 C 50.8832,40.62776 51.8686,39.93433 53.0219,39.437957 c 1.153267,-0.496327 2.445236,-0.744502 3.875912,-0.744525 0.656913,2.3e-5 1.313847,0.02922 1.970803,0.08759 0.656911,0.05842 1.284648,0.138709 1.883212,0.240876 0.598515,0.102212 1.14596,0.219001 1.642335,0.350365 0.510923,0.116811 0.93428,0.233599 1.270073,0.350365 l -0.503649,9.109488 c -0.01463,0.321181 -0.02922,0.583955 -0.0438,0.788322 -2.6e-5,0.189793 -2.6e-5,0.343077 0,0.459854 -2.6e-5,0.1168 -2.6e-5,0.204391 0,0.262773 -2.6e-5,0.05841 -2.6e-5,0.109501 0,0.153285 -2.6e-5,0.773733 0.07297,1.408769 0.218978,1.905109 0.160557,0.49636 0.364937,0.89052 0.613139,1.182482 0.248147,0.291979 0.525519,0.496358 0.832117,0.613139 0.321139,0.102197 0.649606,0.153292 0.985401,0.153284 0.671503,8e-6 1.262743,-0.21897 1.773723,-0.656934 0.510917,-0.452546 0.934274,-1.058385 1.270073,-1.817518 0.350332,-0.759113 0.613105,-1.649623 0.788321,-2.671533 0.175149,-1.021884 0.26274,-2.102175 0.262773,-3.240876 -3.3e-5,-2.072974 -0.313901,-3.912388 -0.941605,-5.518248 -0.627769,-1.620414 -1.496382,-2.985376 -2.60584,-4.09489 -1.109517,-1.109462 -2.430684,-1.948877 -3.963503,-2.518248 -1.518273,-0.583913 -3.175205,-0.875883 -4.970803,-0.875912 -2.467172,2.9e-5 -4.642352,0.408787 -6.525547,1.226277 -1.883224,0.802947 -3.467164,1.934332 -4.751825,3.39416 -1.270081,1.445279 -2.233584,3.167905 -2.890511,5.167883 -0.65694,1.985419 -0.985407,4.160599 -0.985401,6.525548 -6e-6,2.20439 0.284665,4.160592 0.854014,5.868613 0.583935,1.708034 1.430649,3.145989 2.540146,4.313868 1.124078,1.167885 2.510938,2.051095 4.160584,2.649635 1.664219,0.59854 3.569326,0.897809 5.715328,0.89781 0.890491,-1e-6 1.766403,-0.0511 2.627738,-0.153284 0.875889,-0.102191 1.715305,-0.240877 2.518248,-0.416059 0.817493,-0.175182 1.591215,-0.372263 2.321167,-0.591241 0.7299,-0.233576 1.408732,-0.474452 2.036497,-0.722627 l 0,3.087591 c -1.255502,0.554742 -2.671559,0.992697 -4.248175,1.313868 -1.576665,0.321164 -3.31389,0.481748 -5.211679,0.481752 -2.613155,-4e-6 -4.948919,-0.372266 -7.007299,-1.116788 -2.043806,-0.744528 -3.78103,-1.824819 -5.211679,-3.240876 -1.416063,-1.430655 -2.496354,-3.167879 -3.240876,-5.211679 -0.744528,-2.058386 -1.11679,-4.39415 -1.116788,-7.007299 -2e-6,-2.74451 0.430654,-5.299252 1.291971,-7.664233 0.861309,-2.379539 2.087585,-4.437931 3.678832,-6.175182 1.60583,-1.737198 3.540135,-3.10216 5.802919,-4.094891 2.277357,-0.992669 4.8248,-1.489019 7.642336,-1.489051 2.277349,3.2e-5 4.372237,0.372295 6.284671,1.116789 1.91238,0.729957 3.562013,1.78835 4.948905,3.175182 1.401427,1.372289 2.489017,3.051119 3.262774,5.036496 0.773686,1.970824 1.160547,4.197099 1.160584,6.678832 m -21.963503,2.824817 c -1.5e-5,1.941618 0.364948,3.350375 1.09489,4.226278 0.74451,0.861322 1.737209,1.291978 2.978102,1.29197 0.802901,8e-6 1.489031,-0.160576 2.058395,-0.481751 0.569321,-0.335758 1.036474,-0.802911 1.401459,-1.40146 0.364941,-0.613129 0.642313,-1.335756 0.832117,-2.167883 0.189758,-0.846703 0.313846,-1.773709 0.372263,-2.781022 l 0.306569,-5.540146 c -0.408782,-0.116768 -0.897833,-0.218958 -1.467153,-0.306569 -0.554766,-0.10217 -1.138707,-0.153264 -1.751825,-0.153285 -1.080311,2.1e-5 -1.992719,0.211699 -2.737226,0.635037 -0.729944,0.423377 -1.328483,0.978121 -1.79562,1.664233 -0.45257,0.686149 -0.781037,1.46717 -0.985402,2.343066 -0.204394,0.875927 -0.306584,1.766437 -0.306569,2.671532"
           inkscape:connector-curvature="0"
           id="path3662"
           style="fill:none;stroke:#000000" />
      </g>
      <path
         d="m 57.375,29 c -2.817536,3.2e-5 -5.347643,0.507331 -7.625,1.5 -2.262784,0.992731 -4.20667,2.356552 -5.8125,4.09375 -1.591247,1.737251 -2.826191,3.776711 -3.6875,6.15625 -0.861317,2.364981 -1.281252,4.94299 -1.28125,7.6875 0,0.160823 0.02843,0.310029 0.03125,0.46875 0.05268,-2.541695 0.445048,-4.946036 1.25,-7.15625 0.861309,-2.379539 2.096253,-4.418999 3.6875,-6.15625 1.60583,-1.737198 3.549716,-3.101019 5.8125,-4.09375 2.277357,-0.992669 4.807464,-1.499968 7.625,-1.5 2.277349,3.2e-5 4.368816,0.380506 6.28125,1.125 1.91238,0.729957 3.581858,1.769418 4.96875,3.15625 1.401427,1.372289 2.476243,3.077123 3.25,5.0625 0.713615,1.817804 1.069562,3.841294 1.125,6.09375 C 73.0037,45.292964 73.03124,45.144167 73.03125,45 73.031213,42.518267 72.648686,40.314574 71.875,38.34375 71.101243,36.358373 70.026427,34.653539 68.625,33.28125 67.238108,31.894418 65.56863,30.854957 63.65625,30.125 61.743816,29.380506 59.652349,29.000032 57.375,29 z m -0.46875,8.6875 c -1.430676,2.3e-5 -2.721733,0.253673 -3.875,0.75 -1.1533,0.496373 -2.151247,1.203261 -2.96875,2.09375 -0.802933,0.890531 -1.405806,1.929992 -1.84375,3.15625 -0.423369,1.226294 -0.656261,2.588062 -0.65625,4.0625 -10e-7,0.151344 -0.0045,0.289338 0,0.4375 0.04739,-1.257239 0.28727,-2.431244 0.65625,-3.5 0.437944,-1.226258 1.040817,-2.265719 1.84375,-3.15625 0.817503,-0.890489 1.81545,-1.597377 2.96875,-2.09375 1.153267,-0.496327 2.444324,-0.749977 3.875,-0.75 0.656913,2.3e-5 1.311794,0.03538 1.96875,0.09375 0.656911,0.05842 1.276436,0.147833 1.875,0.25 0.598515,0.102212 1.159875,0.212386 1.65625,0.34375 0.487173,0.111381 0.859554,0.23241 1.1875,0.34375 l 0.0625,-1 c -0.335793,-0.116766 -0.739077,-0.226939 -1.25,-0.34375 -0.496375,-0.131364 -1.057735,-0.241538 -1.65625,-0.34375 -0.598564,-0.102167 -1.218089,-0.19158 -1.875,-0.25 -0.656956,-0.05837 -1.311837,-0.09373 -1.96875,-0.09375 z m 3.15625,4.28125 -0.25,4.5625 c -0.05842,1.007313 -0.185242,1.934547 -0.375,2.78125 -0.189804,0.832127 -0.478809,1.543121 -0.84375,2.15625 -0.364985,0.598549 -0.805679,1.070492 -1.375,1.40625 -0.569364,0.321175 -1.259599,0.468758 -2.0625,0.46875 -1.240893,8e-6 -2.25549,-0.419928 -3,-1.28125 -0.662075,-0.794465 -1.000955,-2.047531 -1.0625,-3.71875 -0.0071,0.167296 -0.03125,0.331695 -0.03125,0.5 -1.5e-5,1.941618 0.363808,3.342847 1.09375,4.21875 0.74451,0.861322 1.759107,1.281258 3,1.28125 0.802901,8e-6 1.493136,-0.147575 2.0625,-0.46875 0.569321,-0.335758 1.010015,-0.807701 1.375,-1.40625 0.364941,-0.613129 0.653946,-1.324123 0.84375,-2.15625 0.189758,-0.846703 0.316583,-1.773937 0.375,-2.78125 l 0.3125,-5.5625 c -0.01664,-0.0048 -0.04559,0.0047 -0.0625,0 z m 9.78125,3.40625 c -0.01889,0.986307 -0.09636,1.947335 -0.25,2.84375 -0.175216,1.02191 -0.430918,1.897137 -0.78125,2.65625 -0.335799,0.759133 -0.770333,1.359954 -1.28125,1.8125 -0.51098,0.437964 -1.078497,0.656258 -1.75,0.65625 -0.335795,8e-6 -0.678861,-0.05405 -1,-0.15625 -0.306598,-0.116781 -0.595603,-0.301771 -0.84375,-0.59375 -0.248202,-0.291962 -0.433193,-0.69114 -0.59375,-1.1875 -0.137427,-0.467169 -0.210696,-1.068336 -0.21875,-1.78125 -2.6e-5,0.189793 -2.6e-5,0.351973 0,0.46875 -2.6e-5,0.1168 -2.6e-5,0.191618 0,0.25 -2.6e-5,0.05841 -2.6e-5,0.112466 0,0.15625 -2.6e-5,0.773733 0.07274,1.40991 0.21875,1.90625 0.160557,0.49636 0.345548,0.895538 0.59375,1.1875 0.248147,0.291979 0.537152,0.476969 0.84375,0.59375 0.321139,0.102197 0.664205,0.156258 1,0.15625 0.671503,8e-6 1.23902,-0.218286 1.75,-0.65625 0.510917,-0.452546 0.945451,-1.053367 1.28125,-1.8125 0.350332,-0.759113 0.606034,-1.63434 0.78125,-2.65625 0.175149,-1.021884 0.281217,-2.111299 0.28125,-3.25 -3e-6,-0.201048 -0.02534,-0.397095 -0.03125,-0.59375 z M 42.25,48.75 c -0.0038,0.177441 -0.03125,0.351619 -0.03125,0.53125 -6e-6,2.20439 0.305651,4.135729 0.875,5.84375 0.583935,1.708034 1.421753,3.144621 2.53125,4.3125 1.124078,1.167885 2.506604,2.05771 4.15625,2.65625 1.664219,0.59854 3.572748,0.906249 5.71875,0.90625 0.890491,-10e-7 1.763665,-0.05407 2.625,-0.15625 0.875889,-0.102191 1.728307,-0.231068 2.53125,-0.40625 0.817493,-0.175182 1.582548,-0.374772 2.3125,-0.59375 C 63.69865,61.610174 64.372235,61.373175 65,61.125 l 0,-1 c -0.627765,0.248175 -1.30135,0.485174 -2.03125,0.71875 -0.729952,0.218978 -1.495007,0.418568 -2.3125,0.59375 -0.802943,0.175182 -1.655361,0.304059 -2.53125,0.40625 C 57.263665,61.945934 56.390491,61.999999 55.5,62 53.353998,61.999999 51.445469,61.69229 49.78125,61.09375 48.131604,60.49521 46.749078,59.605385 45.625,58.4375 44.515503,57.269621 43.677685,55.833034 43.09375,54.125 42.56631,52.542704 42.288819,50.75828 42.25,48.75 z"
         inkscape:connector-curvature="0"
         id="path3702"
         style="font-size:44.84671402px;font-style:normal;font-variant:normal;font-weight:normal;font-stretch:normal;text-align:start;line-height:125%;writing-mode:lr-tb;text-anchor:start;fill:#550000;fill-opacity:1;stroke:none;font-family:Droid Sans;-inkscape-font-specification:Abandoned Bitplane" />
    </g>
    <rect
       width="66"
       height="66"
       rx="12"
       ry="12"
       x="15"
       y="15"
       clip-path="url(#clipPath3613)"
       id="rect3171"
       style="opacity:0.1;fill:url(#linearGradient3886);fill-opacity:1;fill-rule:nonzero;stroke:#ffffff;stroke-width:0.5;stroke-linecap:round;stroke-linejoin:miter;stroke-miterlimit:4;stroke-opacity:1;stroke-dasharray:none;stroke-dashoffset:0;filter:url(#filter3794)"
       transform="translate(22.100163,-46.862681)" />
    <g
       transform="translate(9.4523424,-46.035541)"
       id="layer5" />
    <g
       transform="translate(9.4523424,-46.035541)"
       id="layer4">
      <g
         id="g3799"
         transform="translate(-1.9289176,-2.2746365)">
        <path
           d="m 10,24 c 0,-2.209139 1.790861,-4 4,-4 2.209139,0 4,1.790861 4,4 0,2.209139 -1.790861,4 -4,4 -2.209139,0 -4,-1.790861 -4,-4 z m 1,0 c 0,1.656854 1.343146,3 3,3 1.656854,0 3,-1.343146 3,-3 0,-1.656854 -1.343146,-3 -3,-3 -1.656854,0 -3,1.343146 -3,3 z"
           inkscape:connector-curvature="0"
           id="path3773"
           style="opacity:0.3;fill:url(#linearGradient4291);fill-opacity:1;stroke:none" />
        <path
           d="m 6,21 0,7 8,0 c 1.646385,0 3,-1.579217 3,-3.5 C 17,22.579218 15.646385,21 14,21 l -8,0 z"
           inkscape:connector-curvature="0"
           id="path3792"
           style="opacity:0.3;fill:#000000;fill-opacity:1;stroke:none" />
        <path
           inkscape:connector-curvature="0"
           d="m 17,24 a 3,3 0 1 1 -6,0 3,3 0 1 1 6,0 z"
           id="path3771"
           style="opacity:0.6;fill:#000000;fill-opacity:1;stroke:none" />
        <rect
           width="12"
           height="4"
           rx="2"
           ry="2"
           x="4"
           y="22"
           id="rect3733"
           style="fill:url(#linearGradient4293);fill-opacity:1;stroke:none" />
        <rect
           width="12"
           height="4"
           rx="2"
           ry="2"
           x="4"
           y="22"
           id="rect3759"
           style="opacity:0.6;fill:url(#linearGradient4295);fill-opacity:1;stroke:none" />
      </g>
      <use
         transform="translate(-0.07108235,14.274636)"
         id="use3806"
         x="0"
         y="0"
         width="96"
         height="96"
         xlink:href="#g3799" />
      <use
         transform="translate(-0.07108235,26.274636)"
         id="use3808"
         x="0"
         y="0"
         width="96"
         height="96"
         xlink:href="#g3799" />
      <use
         transform="translate(-0.07108235,38.274636)"
         id="use3810"
         x="0"
         y="0"
         width="96"
         height="96"
         xlink:href="#g3799" />
      <use
         transform="translate(-0.07108235,50.274636)"
         id="use3812"
         x="0"
         y="0"
         width="96"
         height="96"
         xlink:href="#g3799" />
    </g>
  </g>
</svg>
