<?xml version="1.0" encoding="UTF-8" standalone="no"?>
<!-- Created with Inkscape (http://www.inkscape.org/) -->

<svg
   xmlns:dc="http://purl.org/dc/elements/1.1/"
   xmlns:cc="http://creativecommons.org/ns#"
   xmlns:rdf="http://www.w3.org/1999/02/22-rdf-syntax-ns#"
   xmlns:svg="http://www.w3.org/2000/svg"
   xmlns="http://www.w3.org/2000/svg"
   xmlns:xlink="http://www.w3.org/1999/xlink"
   xmlns:sodipodi="http://sodipodi.sourceforge.net/DTD/sodipodi-0.dtd"
   xmlns:inkscape="http://www.inkscape.org/namespaces/inkscape"
   width="1500"
   height="1100"
   id="svg2"
   version="1.1"
   inkscape:version="1.0alpha (9dee831, 2019-01-15)"
   sodipodi:docname="cat and bird.svg">
  <defs
     id="defs4">
    <linearGradient
       id="linearGradient1089">
      <stop
         id="stop1085"
         offset="0"
         style="stop-color:#fdbf04;stop-opacity:1" />
      <stop
         id="stop1087"
         offset="1"
         style="stop-color:#fda463;stop-opacity:0" />
    </linearGradient>
    <inkscape:path-effect
       effect="skeletal"
       id="path-effect3997"
       is_visible="true"
       pattern="m -41.759152,6.8443381 10,4.9999999 0,-9.9999999 z"
       copytype="single_stretched"
       prop_scale="1"
       scale_y_rel="false"
       spacing="0"
       normal_offset="0"
       tang_offset="0"
       prop_units="false"
       vertical_pattern="false"
       fuse_tolerance="0" />
    <linearGradient
       id="linearGradient3907">
      <stop
         style="stop-color:#00b4f9;stop-opacity:1;"
         offset="0"
         id="stop3909" />
      <stop
         style="stop-color:#00cbf9;stop-opacity:0;"
         offset="1"
         id="stop3911" />
    </linearGradient>
    <linearGradient
       id="linearGradient3899">
      <stop
         style="stop-color:#ffd689;stop-opacity:1;"
         offset="0"
         id="stop3901" />
      <stop
         style="stop-color:#ffffff;stop-opacity:0;"
         offset="1"
         id="stop3903" />
    </linearGradient>
    <linearGradient
       id="linearGradient3828">
      <stop
         style="stop-color:#183c61;stop-opacity:1;"
         offset="0"
         id="stop3830" />
      <stop
         style="stop-color:#19232d;stop-opacity:1;"
         offset="1"
         id="stop3832" />
    </linearGradient>
    <linearGradient
       id="linearGradient3809">
      <stop
         style="stop-color:#ffad00;stop-opacity:1;"
         offset="0"
         id="stop3811" />
      <stop
         style="stop-color:#d86800;stop-opacity:1;"
         offset="1"
         id="stop3813" />
    </linearGradient>
    <inkscape:path-effect
       effect="skeletal"
       id="path-effect3878"
       is_visible="true"
       pattern="m 467.36091,21.70114 0,10 10,-5 z"
       copytype="single_stretched"
       prop_scale="1"
       scale_y_rel="false"
       spacing="0"
       normal_offset="0"
       tang_offset="0"
       prop_units="false"
       vertical_pattern="false"
       fuse_tolerance="0" />
    <inkscape:path-effect
       effect="spiro"
       id="path-effect3876"
       is_visible="true" />
    <inkscape:path-effect
       effect="skeletal"
       id="path-effect3864"
       is_visible="true"
       pattern="m 633.97631,46.061 0,10.000003 10,-5 z"
       copytype="single_stretched"
       prop_scale="1"
       scale_y_rel="false"
       spacing="0"
       normal_offset="0"
       tang_offset="0"
       prop_units="false"
       vertical_pattern="false"
       fuse_tolerance="0" />
    <inkscape:path-effect
       fuse_tolerance="0"
       vertical_pattern="false"
       prop_units="false"
       tang_offset="0"
       normal_offset="0"
       spacing="0"
       scale_y_rel="false"
       prop_scale="1"
       copytype="single_stretched"
       pattern="m 622.68811,44.55591 0,10.000003 10,-5 z"
       is_visible="true"
       id="path-effect3862"
       effect="skeletal" />
    <inkscape:path-effect
       fuse_tolerance="0"
       vertical_pattern="false"
       prop_units="false"
       tang_offset="0"
       normal_offset="0"
       spacing="0"
       scale_y_rel="false"
       prop_scale="1"
       copytype="single_stretched"
       pattern="m 502.88261,43.35183 0,10.000003 10,-5 z"
       is_visible="true"
       id="path-effect3856"
       effect="skeletal" />
    <inkscape:path-effect
       effect="skeletal"
       id="path-effect3852"
       is_visible="true"
       pattern="M 0,0 0,10 10,5 z"
       copytype="single_stretched"
       prop_scale="1"
       scale_y_rel="false"
       spacing="0"
       normal_offset="0"
       tang_offset="0"
       prop_units="false"
       vertical_pattern="false"
       fuse_tolerance="0" />
    <inkscape:path-effect
       effect="skeletal"
       id="path-effect3848"
       is_visible="true"
       pattern="m 491.59441,41.84674 0,10.000003 10,-5.000003 z"
       copytype="single_stretched"
       prop_scale="1"
       scale_y_rel="false"
       spacing="0"
       normal_offset="0"
       tang_offset="0"
       prop_units="false"
       vertical_pattern="false"
       fuse_tolerance="0" />
    <inkscape:path-effect
       effect="skeletal"
       id="path-effect3825"
       is_visible="true"
       pattern="m -109.57089,-56.591559 0,10 10,-5 z"
       copytype="single_stretched"
       prop_scale="1"
       scale_y_rel="false"
       spacing="0"
       normal_offset="0"
       tang_offset="0"
       prop_units="false"
       vertical_pattern="false"
       fuse_tolerance="0" />
    <inkscape:path-effect
       fuse_tolerance="0"
       vertical_pattern="false"
       prop_units="false"
       tang_offset="0"
       normal_offset="0"
       spacing="0"
       scale_y_rel="false"
       prop_scale="1"
       copytype="single_stretched"
       pattern="m -78.264921,-36.122272 0,10 10,-5 z"
       is_visible="true"
       id="path-effect3821"
       effect="skeletal" />
    <inkscape:path-effect
       effect="skeletal"
       id="path-effect3815"
       is_visible="true"
       pattern="m -49.367105,-16.85706 0,10.0000001 10,-5.0000001 z"
       copytype="single_stretched"
       prop_scale="1"
       scale_y_rel="false"
       spacing="0"
       normal_offset="0"
       tang_offset="0"
       prop_units="false"
       vertical_pattern="false"
       fuse_tolerance="0" />
    <linearGradient
       inkscape:collect="always"
       xlink:href="#linearGradient3809"
       id="linearGradient3817"
       x1="1254.4044"
       y1="187.77138"
       x2="1255.7886"
       y2="810.92944"
       gradientUnits="userSpaceOnUse" />
    <linearGradient
       inkscape:collect="always"
       xlink:href="#linearGradient3828"
       id="linearGradient3834"
       x1="985.68506"
       y1="10.224925"
       x2="977.50513"
       y2="1498.9775"
       gradientUnits="userSpaceOnUse"
       gradientTransform="matrix(0.999047,0,0,0.79611098,-17.736153,-118.78955)" />
    <radialGradient
       inkscape:collect="always"
       xlink:href="#linearGradient3899"
       id="radialGradient3905"
       cx="1634.9694"
       cy="237.83231"
       fx="1634.9694"
       fy="237.83231"
       r="35.787319"
       gradientUnits="userSpaceOnUse" />
    <radialGradient
       inkscape:collect="always"
       xlink:href="#linearGradient3907"
       id="radialGradient3913"
       cx="195.29652"
       cy="570.14313"
       fx="195.29652"
       fy="570.14313"
       r="21.472393"
       gradientTransform="matrix(1,0,0,1.0476191,0,-27.149682)"
       gradientUnits="userSpaceOnUse" />
    <radialGradient
       inkscape:collect="always"
       xlink:href="#linearGradient3899-6"
       id="radialGradient3905-0"
       cx="1634.9694"
       cy="237.83231"
       fx="1634.9694"
       fy="237.83231"
       r="35.787319"
       gradientUnits="userSpaceOnUse" />
    <linearGradient
       id="linearGradient3899-6">
      <stop
         style="stop-color:#159661;stop-opacity:1;"
         offset="0"
         id="stop3901-6" />
      <stop
         style="stop-color:#41be30;stop-opacity:0;"
         offset="1"
         id="stop3903-5" />
    </linearGradient>
    <radialGradient
       r="35.787319"
       fy="237.83231"
       fx="1634.9694"
       cy="237.83231"
       cx="1634.9694"
       gradientUnits="userSpaceOnUse"
       id="radialGradient3930"
       xlink:href="#linearGradient3899-6"
       inkscape:collect="always" />
    <radialGradient
       inkscape:collect="always"
       xlink:href="#linearGradient3899-5"
       id="radialGradient3905-2"
       cx="1634.9694"
       cy="237.83231"
       fx="1634.9694"
       fy="237.83231"
       r="35.787319"
       gradientUnits="userSpaceOnUse" />
    <linearGradient
       id="linearGradient3899-5">
      <stop
         style="stop-color:#ff898e;stop-opacity:1;"
         offset="0"
         id="stop3901-4" />
      <stop
         style="stop-color:#c5441f;stop-opacity:0;"
         offset="1"
         id="stop3903-1" />
    </linearGradient>
    <radialGradient
       r="35.787319"
       fy="237.83231"
       fx="1634.9694"
       cy="237.83231"
       cx="1634.9694"
       gradientUnits="userSpaceOnUse"
       id="radialGradient3930-6"
       xlink:href="#linearGradient3899-5"
       inkscape:collect="always" />
    <radialGradient
       inkscape:collect="always"
       xlink:href="#linearGradient3899-4"
       id="radialGradient3905-1"
       cx="1634.9694"
       cy="237.83231"
       fx="1634.9694"
       fy="237.83231"
       r="35.787319"
       gradientUnits="userSpaceOnUse" />
    <linearGradient
       id="linearGradient3899-4">
      <stop
         style="stop-color:#e0ac4a;stop-opacity:1;"
         offset="0"
         id="stop3901-9" />
      <stop
         style="stop-color:#f29600;stop-opacity:0;"
         offset="1"
         id="stop3903-2" />
    </linearGradient>
    <inkscape:path-effect
       effect="skeletal"
       id="path-effect4002"
       is_visible="true"
       pattern="m 45.693364,-5.2723112 0,10 10,-5.00000002 z"
       copytype="single_stretched"
       prop_scale="1"
       scale_y_rel="false"
       spacing="0"
       normal_offset="0"
       tang_offset="0"
       prop_units="false"
       vertical_pattern="false"
       fuse_tolerance="0" />
    <inkscape:path-effect
       effect="skeletal"
       id="path-effect3331"
       is_visible="true"
       pattern="m 45.693364,-5.2723112 0,10 10,-5.00000002 z"
       copytype="single_stretched"
       prop_scale="1"
       scale_y_rel="false"
       spacing="0"
       normal_offset="0"
       tang_offset="0"
       prop_units="false"
       vertical_pattern="false"
       fuse_tolerance="0" />
    <inkscape:path-effect
       effect="skeletal"
       id="path-effect3333"
       is_visible="true"
       pattern="m 45.693364,-5.2723112 0,10 10,-5.00000002 z"
       copytype="single_stretched"
       prop_scale="1"
       scale_y_rel="false"
       spacing="0"
       normal_offset="0"
       tang_offset="0"
       prop_units="false"
       vertical_pattern="false"
       fuse_tolerance="0" />
    <inkscape:path-effect
       effect="skeletal"
       id="path-effect3335"
       is_visible="true"
       pattern="m 45.693364,-5.2723112 0,10 10,-5.00000002 z"
       copytype="single_stretched"
       prop_scale="1"
       scale_y_rel="false"
       spacing="0"
       normal_offset="0"
       tang_offset="0"
       prop_units="false"
       vertical_pattern="false"
       fuse_tolerance="0" />
    <inkscape:path-effect
       effect="skeletal"
       id="path-effect3337"
       is_visible="true"
       pattern="m 45.693364,-5.2723112 0,10 10,-5.00000002 z"
       copytype="single_stretched"
       prop_scale="1"
       scale_y_rel="false"
       spacing="0"
       normal_offset="0"
       tang_offset="0"
       prop_units="false"
       vertical_pattern="false"
       fuse_tolerance="0" />
    <inkscape:path-effect
       fuse_tolerance="0"
       vertical_pattern="false"
       prop_units="false"
       tang_offset="0"
       normal_offset="0"
       spacing="0"
       scale_y_rel="false"
       prop_scale="1"
       copytype="single_stretched"
       pattern="m 620.34653,625.21159 0,10 10,-5 z"
       is_visible="true"
       id="path-effect4096"
       effect="skeletal" />
    <inkscape:path-effect
       effect="skeletal"
       id="path-effect3340"
       is_visible="true"
       pattern="m 45.693364,-5.2723112 0,10 10,-5.00000002 z"
       copytype="single_stretched"
       prop_scale="1"
       scale_y_rel="false"
       spacing="0"
       normal_offset="0"
       tang_offset="0"
       prop_units="false"
       vertical_pattern="false"
       fuse_tolerance="0" />
    <inkscape:path-effect
       effect="skeletal"
       id="path-effect3342"
       is_visible="true"
       pattern="m 45.693364,-5.2723112 0,10 10,-5.00000002 z"
       copytype="single_stretched"
       prop_scale="1"
       scale_y_rel="false"
       spacing="0"
       normal_offset="0"
       tang_offset="0"
       prop_units="false"
       vertical_pattern="false"
       fuse_tolerance="0" />
    <inkscape:path-effect
       effect="skeletal"
       id="path-effect3344"
       is_visible="true"
       pattern="m 45.693364,-5.2723112 0,10 10,-5.00000002 z"
       copytype="single_stretched"
       prop_scale="1"
       scale_y_rel="false"
       spacing="0"
       normal_offset="0"
       tang_offset="0"
       prop_units="false"
       vertical_pattern="false"
       fuse_tolerance="0" />
    <inkscape:path-effect
       effect="skeletal"
       id="path-effect3346"
       is_visible="true"
       pattern="m 45.693364,-5.2723112 0,10 10,-5.00000002 z"
       copytype="single_stretched"
       prop_scale="1"
       scale_y_rel="false"
       spacing="0"
       normal_offset="0"
       tang_offset="0"
       prop_units="false"
       vertical_pattern="false"
       fuse_tolerance="0" />
    <inkscape:path-effect
       effect="skeletal"
       id="path-effect3348"
       is_visible="true"
       pattern="m 45.693364,-5.2723112 0,10 10,-5.00000002 z"
       copytype="single_stretched"
       prop_scale="1"
       scale_y_rel="false"
       spacing="0"
       normal_offset="0"
       tang_offset="0"
       prop_units="false"
       vertical_pattern="false"
       fuse_tolerance="0" />
    <radialGradient
       inkscape:collect="always"
       xlink:href="#linearGradient1089"
       id="radialGradient4416"
       cx="1093.2025"
       cy="217.51927"
       fx="1093.2025"
       fy="217.51927"
       r="100.911"
       gradientUnits="userSpaceOnUse"
       gradientTransform="matrix(1.6090869,-0.02856199,0.02165254,1.5267535,-542.51466,-172.63371)" />
  </defs>
  <sodipodi:namedview
     id="base"
     pagecolor="#ffffff"
     bordercolor="#666666"
     borderopacity="1.0"
     inkscape:pageopacity="0.0"
     inkscape:pageshadow="2"
     inkscape:zoom="0.27988996"
     inkscape:cx="764.50522"
     inkscape:cy="365.21538"
     inkscape:document-units="px"
     inkscape:current-layer="layer1"
     showgrid="false"
     inkscape:window-width="1920"
     inkscape:window-height="1032"
     inkscape:window-x="0"
     inkscape:window-y="26"
     inkscape:window-maximized="1"
     inkscape:document-rotation="0" />
  <metadata
     id="metadata7">
    <rdf:RDF>
      <cc:Work
         rdf:about="">
        <dc:format>image/svg+xml</dc:format>
        <dc:type
           rdf:resource="http://purl.org/dc/dcmitype/StillImage" />
        <dc:title />
      </cc:Work>
    </rdf:RDF>
  </metadata>
  <g
     inkscape:label="Cat and Bird"
     inkscape:groupmode="layer"
     id="layer1"
     transform="translate(0,47.63782)">
    <rect
       style="opacity:1;fill:#84b8f8;fill-opacity:1;stroke:none"
       id="rect4420"
       width="1500.0101"
       height="1104.0255"
       x="0.010830528"
       y="-47.458046"
       inkscape:label="background" />
    <path
       style="fill:#696969;fill-opacity:1;stroke:none"
       d="m 143.24635,1056.6902 c 0,0 79.96476,-25.7401 110.70148,-27.4144 30.73672,-1.6743 56.93043,8.0492 80.12921,8.1488 23.19877,0.1004 43.45991,-5.4325 58.39925,-5.4325 14.93934,0 54.2425,-2.0715 73.3386,-2.7163 17.85314,-0.6029 48.89241,-8.1489 57.04114,-12.2231 8.14874,-4.0745 16.98814,-10.6069 27.16244,-16.2977 10.17431,-5.69072 13.28349,-11.11378 33.95304,-17.65578 20.66958,-6.54199 81.48734,-10.86501 90.9942,-12.22321 9.50686,-1.35809 74.69673,-24.44631 89.63607,-24.44631 14.93935,0 48.8924,-1.35818 62.47362,4.07437 13.58122,5.43257 57.11631,24.37374 67.90611,28.52077 17.26527,6.63589 61.65098,16.83394 69.26423,19.01385 12.5527,3.59421 48.40516,12.15101 74.69666,16.29781 26.2917,4.1466 56.5879,5.1869 82.8456,8.1486 26.2577,2.9618 46.607,7.3176 74.6966,9.507 28.0898,2.1894 66.3795,1.2994 93.7104,2.7162 27.331,1.4167 39.6407,2.0831 71.9806,5.4327 25.9074,2.6832 57.0261,1.6286 80.1293,4.0743 23.1029,2.4456 55.1423,11.9384 55.1423,11.9384 z"
       id="path4418"
       inkscape:connector-curvature="0"
       sodipodi:nodetypes="czzssszzssssszzzzszcc"
       inkscape:label="grass" />
    <g
       id="g210"
       inkscape:label="cat"
       style="display:inline">
      <g
         inkscape:label="right ear"
         transform="matrix(-0.66724987,0,0,0.65095347,1008.0579,328.18183)"
         id="g3771">
        <path
           sodipodi:nodetypes="cccccc"
           inkscape:connector-curvature="0"
           id="path3773"
           d="m 236.45669,265.03936 c 0.88237,-68.49662 -15.86046,-147.3329 23.38582,-209.173219 31.81038,29.71665 75.72995,118.413579 85.74803,184.488189 l -100.03936,27.28346 h -1.29922 z"
           style="fill:#2b2b2b;fill-opacity:1;stroke:none" />
        <path
           style="fill:#665858;fill-opacity:1;stroke:none"
           d="m 250.98383,225.24909 c -4.4632,-39.08337 8.73647,-76.12756 41.78225,-84.93413 11.56147,7.97281 16.6094,20.12858 34.63548,81.87332 l -67.7767,17.54908 -8.23488,1.91618 z"
           id="path3775"
           inkscape:connector-curvature="0"
           sodipodi:nodetypes="cccccc" />
      </g>
      <g
         inkscape:label="left ear"
         transform="matrix(0.66724987,0,0,0.65095347,496.72712,324.79892)"
         id="g3767">
        <path
           style="fill:#2b2b2b;fill-opacity:1;stroke:none"
           d="m 236.45669,265.03936 c 0.88237,-68.49662 -15.86046,-147.3329 23.38582,-209.173219 31.81038,29.71665 75.72995,118.413579 85.74803,184.488189 l -100.03936,27.28346 h -1.29922 z"
           id="path3763"
           inkscape:connector-curvature="0"
           sodipodi:nodetypes="cccccc" />
        <path
           sodipodi:nodetypes="cccccc"
           inkscape:connector-curvature="0"
           id="path3765"
           d="m 250.98383,225.24909 c -4.4632,-39.08337 8.73647,-76.12756 41.78225,-84.93413 11.56147,7.97281 16.6094,20.12858 34.63548,81.87332 l -67.7767,17.54908 -8.23488,1.91618 z"
           style="fill:#665858;fill-opacity:1;stroke:none" />
      </g>
      <ellipse
         inkscape:label="face"
         ry="108.48425"
         rx="208.52362"
         cy="376.12204"
         cx="329.35037"
         transform="matrix(0.66724987,0,0,0.65095347,537.4714,291.81555)"
         id="path2985"
         style="fill:#2b2b2b;fill-opacity:1;fill-rule:evenodd;stroke:none" />
      <g
         inkscape:label="left eye"
         id="g169">
        <ellipse
           transform="matrix(0.28202561,0,0,0.27513764,594.41956,431.65193)"
           id="path3755"
           style="fill:#ffffff;fill-opacity:1;fill-rule:evenodd;stroke:none"
           cx="329.35037"
           cy="376.12204"
           rx="208.52362"
           ry="108.48425"
           inkscape:label="eye" />
        <ellipse
           style="fill:#2b2b2b;fill-opacity:1;fill-rule:evenodd;stroke:none"
           id="path4404"
           transform="matrix(-0.04407427,0,0,0.12354946,670.51337,463.71515)"
           cx="329.35037"
           cy="376.12204"
           rx="208.52362"
           ry="108.48425"
           inkscape:label="iris" />
      </g>
      <g
         inkscape:label="right eye"
         id="g173">
        <ellipse
           style="fill:#ffffff;fill-opacity:1;fill-rule:evenodd;stroke:none"
           id="path3757"
           transform="matrix(0.28202561,0,0,0.27513764,731.67263,431.65193)"
           cx="329.35037"
           cy="376.12204"
           rx="208.52362"
           ry="108.48425"
           inkscape:label="eye" />
        <ellipse
           transform="matrix(-0.04407427,0,0,0.12354946,817.02874,463.71515)"
           id="path4406"
           style="fill:#2b2b2b;fill-opacity:1;fill-rule:evenodd;stroke:none"
           cx="329.35037"
           cy="376.12204"
           rx="208.52362"
           ry="108.48425"
           inkscape:label="iris" />
      </g>
      <g
         inkscape:label="noise"
         transform="matrix(0.66724987,0,0,0.65095347,495.6435,314.8616)"
         id="g3796">
        <ellipse
           ry="19.163385"
           rx="28.582676"
           cy="393.66141"
           cx="392.36218"
           style="fill:#9e3e3e;fill-opacity:1;stroke:none"
           id="path3777" />
        <ellipse
           ry="22.411417"
           rx="24.197834"
           cy="420.29526"
           cx="371.41238"
           style="fill:#2b2b2b;fill-opacity:1;stroke:none"
           id="path3792"
           transform="matrix(1,0,0,0.8115942,-8.1200786,69.117165)" />
        <ellipse
           ry="22.411417"
           rx="24.197834"
           cy="420.29526"
           cx="371.41238"
           transform="matrix(-1,0,0,0.8115942,797.30422,69.117165)"
           id="path3794"
           style="fill:#2b2b2b;fill-opacity:1;stroke:none" />
      </g>
      <g
         inkscape:label="left wires"
         transform="matrix(0.66724987,0,0,0.65095347,496.72712,324.79892)"
         id="g3827">
        <path
           style="fill:#403d3d;fill-opacity:1;fill-rule:evenodd;stroke:none"
           d="m 269.01588,405.11933 1.78426,-9.83954 c -13.56599,-1.97818 -27.5473,-3.34515 -41.49877,-2.1206 -5.37702,0.4731 -10.77493,1.39932 -16.00174,3.0257 0,0 0,0 -1e-5,0 -4.62419,1.43926 -9.08632,3.46959 -13.14064,6.15157 0,1e-5 0,1e-5 0,1e-5 -8.24761,5.51082 -14.23716,13.54646 -18.26982,22.20101 -5.35946,11.48804 -7.9956,23.86213 -9.90983,36.1816 2.81691,-12.1449 6.35594,-24.23785 12.36431,-34.92324 4.49778,-7.98442 10.65239,-15.07448 18.34084,-19.34456 0,0 0,0 0,0 3.78531,-2.12965 7.91461,-3.63481 12.16133,-4.62831 0,0 1e-5,0 1e-5,0 4.81782,-1.12827 9.80522,-1.59211 14.82888,-1.67456 13.11899,-0.2214 26.23313,2.11215 39.34118,4.97092 z"
           id="path3813"
           inkscape:path-effect="#path-effect3815"
           inkscape:original-d="m 269.90801,400.19956 c -63.2814,-11.47516 -86.70578,2.48682 -97.92868,60.51951"
           inkscape:connector-curvature="0"
           sodipodi:nodetypes="cc" />
        <path
           inkscape:connector-curvature="0"
           inkscape:original-d="m 240.8135,382.25255 c -74.15859,-13.44758 -102.19249,5.64251 -115.34445,73.65022"
           inkscape:path-effect="#path-effect3821"
           id="path3819"
           d="m 239.92137,387.17232 1.78426,-9.83954 c -15.90926,-2.41071 -32.30357,-3.96847 -48.60489,-2.31399 -6.32678,0.64442 -12.65479,1.84873 -18.75303,3.88222 0,0 0,0 0,0 -5.44399,1.81656 -10.66919,4.33402 -15.40153,7.59387 0,0 0,0 -1e-5,0 -9.6802,6.71998 -16.73674,16.34774 -21.5635,26.69663 -6.32617,13.54842 -9.5649,28.14851 -11.91362,42.71126 3.25012,-14.38843 7.388,-28.7035 14.37139,-41.46807 5.31033,-9.69215 12.56327,-18.38799 21.74095,-23.86572 0,0 1e-5,0 1e-5,0 4.48706,-2.70347 9.39549,-4.68653 14.46364,-6.04072 0,0 0,0 1e-5,0 5.69309,-1.5231 11.60671,-2.2539 17.56375,-2.49982 15.4333,-0.64566 30.91453,1.87747 46.31257,5.14388 z"
           style="fill:#403d3d;fill-opacity:1;fill-rule:evenodd;stroke:none"
           sodipodi:nodetypes="cc" />
        <path
           style="fill:#403d3d;fill-opacity:1;fill-rule:evenodd;stroke:none"
           d="m 208.46846,367.90081 1.78426,-9.83954 c -19.3398,-3.05333 -39.32017,-4.49499 -58.94368,-1.582 0,1e-5 -1e-5,1e-5 -1e-5,1e-5 -15.15952,2.24208 -30.05773,7.59056 -42.34391,16.80868 0,0 -1e-5,10e-6 -1e-5,10e-6 -12.076554,9.12672 -21.08423,21.55714 -27.449615,34.93255 -7.910595,16.6126 -12.301985,34.53532 -15.314547,52.49856 3.901968,-17.79124 9.171934,-35.4053 17.738126,-51.26896 6.881489,-12.73461 16.150916,-24.25856 27.880046,-32.17594 0,0 0,0 0,-10e-6 11.8653,-8.07356 26.06056,-12.28259 40.37439,-13.73082 0,0 1e-5,0 1e-5,0 18.68009,-1.88295 37.63149,0.52308 56.27494,4.35746 z"
           id="path3823"
           inkscape:path-effect="#path-effect3825"
           inkscape:original-d="m 209.36059,362.98104 c -88.78177,-16.09929 -127.414271,16.32002 -143.159641,97.73803"
           inkscape:connector-curvature="0"
           sodipodi:nodetypes="cc" />
      </g>
      <g
         inkscape:label="right wires"
         transform="matrix(-0.66724987,0,0,0.65095347,1026.087,319.31232)"
         id="g3832">
        <path
           sodipodi:nodetypes="cc"
           inkscape:connector-curvature="0"
           inkscape:original-d="m 269.90801,400.19956 c -63.2814,-11.47516 -86.70578,2.48682 -97.92868,60.51951"
           inkscape:path-effect="#path-effect3815"
           id="path3834"
           d="m 269.01588,405.11933 1.78426,-9.83954 c -13.56599,-1.97818 -27.5473,-3.34515 -41.49877,-2.1206 -5.37702,0.4731 -10.77493,1.39932 -16.00174,3.0257 0,0 0,0 -1e-5,0 -4.62419,1.43926 -9.08632,3.46959 -13.14064,6.15157 0,1e-5 0,1e-5 0,1e-5 -8.24761,5.51082 -14.23716,13.54646 -18.26982,22.20101 -5.35946,11.48804 -7.9956,23.86213 -9.90983,36.1816 2.81691,-12.1449 6.35594,-24.23785 12.36431,-34.92324 4.49778,-7.98442 10.65239,-15.07448 18.34084,-19.34456 0,0 0,0 0,0 3.78531,-2.12965 7.91461,-3.63481 12.16133,-4.62831 0,0 1e-5,0 1e-5,0 4.81782,-1.12827 9.80522,-1.59211 14.82888,-1.67456 13.11899,-0.2214 26.23313,2.11215 39.34118,4.97092 z"
           style="fill:#403d3d;fill-opacity:1;fill-rule:evenodd;stroke:none" />
        <path
           sodipodi:nodetypes="cc"
           style="fill:#403d3d;fill-opacity:1;fill-rule:evenodd;stroke:none"
           d="m 239.92137,387.17232 1.78426,-9.83954 c -15.90926,-2.41071 -32.30357,-3.96847 -48.60489,-2.31399 -6.32678,0.64442 -12.65479,1.84873 -18.75303,3.88222 0,0 0,0 0,0 -5.44399,1.81656 -10.66919,4.33402 -15.40153,7.59387 0,0 0,0 -1e-5,0 -9.6802,6.71998 -16.73674,16.34774 -21.5635,26.69663 -6.32617,13.54842 -9.5649,28.14851 -11.91362,42.71126 3.25012,-14.38843 7.388,-28.7035 14.37139,-41.46807 5.31033,-9.69215 12.56327,-18.38799 21.74095,-23.86572 0,0 1e-5,0 1e-5,0 4.48706,-2.70347 9.39549,-4.68653 14.46364,-6.04072 0,0 0,0 1e-5,0 5.69309,-1.5231 11.60671,-2.2539 17.56375,-2.49982 15.4333,-0.64566 30.91453,1.87747 46.31257,5.14388 z"
           id="path3836"
           inkscape:path-effect="#path-effect3821"
           inkscape:original-d="m 240.8135,382.25255 c -74.15859,-13.44758 -102.19249,5.64251 -115.34445,73.65022"
           inkscape:connector-curvature="0" />
        <path
           sodipodi:nodetypes="cc"
           inkscape:connector-curvature="0"
           inkscape:original-d="m 209.36059,362.98104 c -88.78177,-16.09929 -127.414271,16.32002 -143.159641,97.73803"
           inkscape:path-effect="#path-effect3825"
           id="path3838"
           d="m 208.46846,367.90081 1.78426,-9.83954 c -19.3398,-3.05333 -39.32017,-4.49499 -58.94368,-1.582 0,1e-5 -1e-5,1e-5 -1e-5,1e-5 -15.15952,2.24208 -30.05773,7.59056 -42.34391,16.80868 0,0 -1e-5,10e-6 -1e-5,10e-6 -12.076554,9.12672 -21.08423,21.55714 -27.449615,34.93255 -7.910595,16.6126 -12.301985,34.53532 -15.314547,52.49856 3.901968,-17.79124 9.171934,-35.4053 17.738126,-51.26896 6.881489,-12.73461 16.150916,-24.25856 27.880046,-32.17594 0,0 0,0 0,-10e-6 11.8653,-8.07356 26.06056,-12.28259 40.37439,-13.73082 0,0 1e-5,0 1e-5,0 18.68009,-1.88295 37.63149,0.52308 56.27494,4.35746 z"
           style="fill:#403d3d;fill-opacity:1;fill-rule:evenodd;stroke:none" />
      </g>
      <ellipse
         inkscape:label="bottom body"
         ry="108.48425"
         rx="208.52362"
         cy="376.12204"
         cx="329.35037"
         style="fill:#2b2b2b;fill-opacity:1;fill-rule:evenodd;stroke:none"
         id="path3840"
         transform="matrix(0.64220606,0,0,0.65095347,554.95886,663.33545)" />
      <ellipse
         inkscape:label="left foot"
         ry="108.48425"
         rx="208.52362"
         cy="376.12204"
         cx="329.35037"
         transform="matrix(0.13555053,0,0,0.20417901,684.46708,892.38595)"
         id="path3842"
         style="fill:#665858;fill-opacity:1;fill-rule:evenodd;stroke:none" />
      <ellipse
         inkscape:label="right foot"
         ry="108.48425"
         rx="208.52362"
         cy="376.12204"
         cx="329.35037"
         style="fill:#665858;fill-opacity:1;fill-rule:evenodd;stroke:none"
         id="path3844"
         transform="matrix(0.13555053,0,0,0.20417901,763.20228,893.95353)" />
      <path
         inkscape:label="finger 1"
         sodipodi:nodetypes="cc"
         inkscape:connector-curvature="0"
         inkscape:original-d="m 721.93774,973.13562 c -3.31417,2.8496 -3.75562,12.66653 -2.63167,16.22538"
         inkscape:path-effect="#path-effect3848"
         id="path3846"
         d="m 725.19755,976.92688 -6.51962,-7.58252 c -1.69031,2.15078 -2.28296,4.11003 -2.35687,5.72962 -0.21241,2.01588 -0.0973,3.87717 0.17179,5.61751 0,0 0,0 0,0 0.26159,1.75341 0.66326,3.45837 1.20141,5.08158 0,0 0,0 0,0 0.40832,1.24044 0.89753,2.5259 1.61181,3.58793 -0.0253,-1.27964 0.25408,-2.47099 0.55377,-3.68383 0.39803,-1.54117 0.92974,-3.01173 1.56253,-4.40398 0,0 0,0 0,0 0.63853,-1.3908 1.35262,-2.64755 2.19721,-3.60208 0.78182,-0.78519 1.33285,-1.23088 1.57797,-0.74423 z"
         style="fill:#2b2b2b;fill-opacity:1;fill-rule:evenodd;stroke:none" />
      <path
         inkscape:label="finger 2"
         style="fill:#2b2b2b;fill-opacity:1;fill-rule:evenodd;stroke:none"
         d="m 733.21125,981.4482 -6.51998,-7.5822 c -1.47892,1.96914 -1.94668,3.66587 -1.92719,5.02298 -0.097,1.69166 0.0835,3.21263 0.39289,4.61122 0.3021,1.41008 0.71796,2.76846 1.24082,4.04629 0,0 0,0 0,0 0.39647,0.9727 0.86278,1.98783 1.49635,2.79429 0.0554,-1.02407 0.35769,-1.94511 0.66924,-2.89019 0,0 0,0 0,0 0.41332,-1.1958 0.93084,-2.31977 1.52311,-3.36869 0,0 0,0 0,0 0.5982,-1.04906 1.24692,-1.96551 1.97614,-2.59587 0.68841,-0.52276 1.11464,-0.70602 1.14862,-0.0378 z"
         id="path3854"
         inkscape:path-effect="#path-effect3856"
         inkscape:original-d="m 729.95126,977.6571 c -2.59063,2.2277 -2.93575,9.90161 -2.05712,12.68368"
         inkscape:connector-curvature="0"
         sodipodi:nodetypes="cc" />
      <path
         inkscape:label="finger 1"
         style="fill:#2b2b2b;fill-opacity:1;fill-rule:evenodd;stroke:none"
         d="m 818.19446,971.10796 -6.5198,7.58236 c 0.24519,-0.48658 0.79625,-0.0409 1.57806,0.74436 0.84459,0.95453 1.55868,2.21129 2.19721,3.60209 0,0 0,0 0,0 0.63279,1.39223 1.1645,2.86278 1.56253,4.40395 0,0 0,0 0,0 0.29969,1.21282 0.57902,2.40417 0.55376,3.68381 0.71428,-1.06203 1.20349,-2.34748 1.61181,-3.58792 0.53815,-1.6232 0.93981,-3.32815 1.2014,-5.08155 0,0 0,0 0,0 0.26904,-1.74034 0.3842,-3.60163 0.17179,-5.61749 -0.0739,-1.6196 -0.66653,-3.57884 -2.35676,-5.72961 z"
         id="path3858"
         inkscape:path-effect="#path-effect3862"
         inkscape:original-d="m 814.93456,974.89914 c 3.31415,2.84972 3.75562,12.66655 2.63166,16.22538"
         inkscape:connector-curvature="0"
         sodipodi:nodetypes="cc" />
      <path
         inkscape:label="finger 2"
         sodipodi:nodetypes="cc"
         inkscape:connector-curvature="0"
         inkscape:original-d="m 806.92095,979.42073 c 2.59068,2.22769 2.93585,9.90152 2.05714,12.68359"
         inkscape:path-effect="#path-effect3864"
         id="path3860"
         d="m 810.1809,975.62959 -6.5199,7.58228 c 0.034,-0.66817 0.46023,-0.48493 1.14864,0.0378 0.72922,0.63033 1.37794,1.54676 1.97614,2.59581 0,0 0,0 0,0 0.59228,1.0489 1.10979,2.17286 1.5231,3.36865 0,0 0,0 0,0 0.31154,0.94508 0.61378,1.86611 0.66921,2.89019 0.63359,-0.80645 1.09991,-1.82159 1.49639,-2.79428 0,0 0,0 0,0 0.52286,-1.27783 0.93872,-2.6362 1.24082,-4.04628 0,0 0,0 0,0 0.30936,-1.39859 0.48989,-2.91956 0.39284,-4.61121 0.0195,-1.35713 -0.44831,-3.05386 -1.92724,-5.02297 z"
         style="fill:#2b2b2b;fill-opacity:1;fill-rule:evenodd;stroke:none" />
      <path
         inkscape:label="neck"
         sodipodi:nodetypes="cssssccsssscc"
         inkscape:connector-curvature="0"
         id="path3866"
         d="m 749.45918,585.35019 c 0,0 -0.64011,54.19285 -3.93194,81.1224 -2.56515,20.98508 -6.36086,41.82114 -10.40278,62.58379 -4.81026,24.70972 -7.3248,48.98981 -16.47109,73.72333 -6.02252,16.28612 -13.85927,33.13275 -22.43419,47.10422 -17.71606,28.86542 101.32211,20.40884 101.32211,20.40884 l 37.27659,-14.37736 c 0,0 -3.85738,-4.45081 -5.39375,-6.93581 -9.03351,-14.61227 -15.7993,-30.5065 -22.18029,-46.39478 -9.70071,-24.15464 -17.95891,-48.92994 -24.36925,-74.10735 -5.23412,-20.55733 -11.43652,-62.55889 -11.43652,-62.55889 -4.89372,-26.7695 -3.67421,-54.21085 -3.66889,-81.36282 z"
         style="fill:#2b2b2b;fill-opacity:1;stroke:none" />
      <path
         inkscape:label="tail"
         inkscape:connector-curvature="0"
         inkscape:original-d="m 680.83463,913.14831 c -29.6506,-18.86239 -40.78431,-38.22078 -53.84747,-61.24044 -21.56204,-37.99628 138.54814,-52.55485 52.70181,-119.78902 -83.83789,-65.66117 -245.60787,-3.79444 -137.48291,32.97562"
         inkscape:path-effect="#path-effect3876;#path-effect3878"
         id="path3874"
         d="m 680.14544,918.10058 1.37838,-9.90454 c -13.46038,-1.72263 -26.41869,-8.51267 -35.54318,-18.69504 -9.13921,-10.16942 -14.55754,-23.86229 -14.82455,-37.63473 0,-10e-6 0,-10e-6 0,-2e-5 -0.24258,-10.29489 2.37638,-20.71317 6.411,-30.57136 0,0 0,-10e-6 10e-6,-10e-6 4.05153,-9.86365 9.62722,-19.21155 15.48134,-28.49416 5.90123,-9.33187 12.10444,-18.65311 17.49292,-28.57866 5.34457,-9.81898 9.82034,-20.33863 12.01855,-31.51688 2.59064,-13.3028 1.76857,-27.19704 -2.33908,-40.0466 -4.11023,-12.84875 -11.48374,-24.58216 -21.22191,-33.82706 -9.73979,-9.24323 -21.79619,-15.95204 -34.72076,-19.35495 -12.92508,-3.40104 -26.66147,-3.48106 -39.56824,-0.26059 -10e-6,1e-5 -2e-5,1e-5 -3e-5,1e-5 -12.90642,3.22199 -24.9335,9.73216 -34.65257,18.72305 -9.71828,8.99174 -17.09653,20.43461 -21.27077,32.9334 0,10e-6 0,2e-5 0,3e-5 -4.1735,12.49905 -5.13163,26.01987 -2.78819,38.92367 2.34382,12.90373 7.98401,25.16256 16.20771,35.29834 -8.03265,-10.28785 -13.40419,-22.60063 -15.48577,-35.42253 -2.08196,-12.82184 -0.87212,-26.13983 3.45155,-38.32257 4.32294,-12.18299 11.75755,-23.22567 21.36296,-31.78348 9.60463,-8.55868 21.38137,-14.63421 33.85851,-17.50053 0,0 10e-6,0 10e-6,0 12.47678,-2.86783 25.66334,-2.5291 37.92019,0.94464 12.25736,3.47187 23.60187,10.08295 32.63065,18.98175 9.03039,8.89713 15.7633,20.09908 19.37854,32.18444 3.61782,12.08455 4.12799,25.08355 1.49532,37.35632 -2.19451,10.33038 -6.6446,20.1681 -11.94136,29.55014 0,0 -10e-6,10e-6 -10e-6,2e-5 -5.37021,9.48722 -11.66155,18.55135 -17.79356,27.86903 -6.11406,9.26613 -12.06122,18.87006 -16.62298,29.33138 0,10e-6 0,2e-5 0,3e-5 -4.57832,10.46595 -7.61958,21.8885 -7.64189,33.66633 10e-6,1e-5 10e-6,2e-5 0,2e-5 0.0284,15.83302 5.86564,31.54128 16.27656,43.60612 10.42564,12.0519 25.18671,20.18666 41.05065,22.54499 z"
         style="fill:#2b2b2b;fill-opacity:1;fill-rule:evenodd;stroke:#2b2b2b;stroke-width:10.6766;stroke-linejoin:round;stroke-miterlimit:4;stroke-dasharray:none;stroke-opacity:1" />
      <ellipse
         inkscape:label="tail point"
         ry="21.437008"
         rx="20.137794"
         cy="671.04327"
         cx="74.70472"
         transform="matrix(0.66724987,0,0,0.65095347,501.71181,317.3988)"
         id="path3880"
         style="fill:#2b2b2b;fill-opacity:1;stroke:#2b2b2b;stroke-width:16.2;stroke-linejoin:round;stroke-miterlimit:4;stroke-dasharray:none;stroke-opacity:1" />
    </g>
    <g
       id="g257"
       inkscape:label="tree">
      <path
         inkscape:label="tree woods"
         sodipodi:nodetypes="cscccccccccczzccccccccccccacccaccccccccccsczsaaacaaccczcccccccccccccccccccccccccccccc"
         inkscape:connector-curvature="0"
         id="path3810"
         d="m 460.58532,-27.642638 c -2.25093,12.347096 -5.16501,24.648625 -9.87847,36.0847911 -4.37538,10.6156159 -10.42744,20.4542639 -18.27262,28.4071779 -12.10911,12.382655 -23.78454,18.590441 -40.00896,25.224617 -0.94918,0.385005 -7.66827,2.553095 -8.62323,2.925114 -8.00448,2.474069 -12.70026,1.535965 -20.56216,4.437781 -7.64638,2.294674 -10.70303,4.089457 -18.50876,6.242944 l -20.46097,7.391829 c -2.15905,0.923657 -4.35526,3.29937 -6.50033,4.254375 -57.84366,25.765279 -95.33363,60.104599 -142.53407,102.103129 -61.70844,54.89452 -114.713456,118.90183 -161.8431,186.46369 l 37.979541,-15.56264 c 44.22683,-65.17421 75.278209,-114.04532 118.094439,-143.41458 42.81623,-29.36927 56.31281,-13.32969 84.64333,-10.80043 22.12733,1.97543 43.6298,9.91629 63.57024,20.01297 15.86293,8.0765 30.94813,18.35006 41.51005,32.65546 4.27471,5.78419 7.75523,12.26175 9.62255,19.24523 1.75832,6.56249 2.02534,13.56585 0.61422,20.32008 1.86177,-6.64414 2.07163,-13.75334 0.71656,-20.6272 -1.44256,-7.30102 -4.55692,-14.23281 -8.59886,-20.52481 -9.96205,-15.4964 -24.89272,-27.45111 -40.74229,-36.80137 -19.91496,-11.80479 -41.93654,-19.91955 -64.54274,-25.18258 -19.47243,-4.5464 -39.5111,-6.98224 -59.62911,-7.26813 42.58465,-37.17593 89.4542,-69.61291 140.65301,-93.206263 1.76877,-0.815493 0.30583,-0.121534 2.08483,-0.915214 l 24.41128,-9.728619 c 16.57295,-6.213116 19.69165,-6.16633 29.49895,-9.369148 4.23413,-1.382761 10.50331,-3.044903 12.66826,-4.251331 26.98724,-7.967915 48.56132,-12.660532 76.59625,-15.147441 5.54752,-0.493584 11.12186,-0.858703 16.68591,-1.126058 0,0 10.84615,-0.208418 16.18683,0.583761 11.7264,1.739383 18.14661,4.762153 34.38273,9.090039 15.23458,4.06177 29.82669,11.309003 42.38017,21.292579 11.73751,9.350825 21.75154,21.093085 28.40701,34.754015 6.2835,12.89831 9.40237,27.65221 7.77992,42.22688 2.85025,-14.38505 1.06428,-29.74295 -4.3506,-43.71122 -5.71886,-14.75806 -15.16311,-28.070925 -26.82031,-39.053472 -10.37701,-9.791923 -22.54393,-17.788174 -35.77747,-23.595869 18.33865,1.788968 36.60991,4.687123 54.6131,8.701294 19.94623,4.446057 39.58328,10.23037 58.86133,17.095496 l 10.90275,4.403353 c 8.09161,2.26319 15.2702,5.541162 22.71798,8.769232 14.86348,6.442216 23.96493,13.725526 41.6103,23.099716 13.77329,7.31799 28.88454,16.24589 35.50023,20.38392 6.6157,4.13801 9.21852,3.87956 13.06767,8.98814 1.95831,2.59906 7.89241,5.29245 11.42978,8.44232 3.25158,2.89537 6.81886,5.72731 8.92181,9.53958 4.23001,7.66829 6.24768,16.6671 6.65857,25.41507 0.51121,10.88388 -3.3276,24.51685 -5.284,32.2577 3.24656,-7.29439 9.03268,-14.88228 10.77296,-23.24227 1.5171,-7.2878 0.9514,-15.02993 -0.526,-22.32588 -0.86172,-4.25542 -2.51952,-7.50189 -4.78342,-12.11528 12.99089,9.00284 19.37651,12.15356 31.78408,21.95693 2.90954,2.29899 6.00357,4.2105 8.88114,6.55005 0,0 3.13047,1.90167 3.98109,2.79356 0.85062,0.8919 2.84266,1.35547 4.80063,2.79943 24.14348,9.61875 72.92466,56.39507 44.36169,26.58798 -19.13146,-19.87423 -13.0992,-9.83764 -30.89954,-25.15494 13.49117,-0.43562 18.26836,-3.82326 29.74773,-9.80719 13.87726,-7.27746 23.1072,-19.72131 35.71561,-28.11226 -13.88414,6.05067 -29.41162,19.6231 -43.37421,23.98004 -14.46317,4.5225 -23.13172,10.24868 -36.65122,6.18356 l -6.16805,-3.34313 c -2.46005,-2.04726 -4.93721,-4.07318 -7.42165,-6.09091 -14.32866,-11.63762 -22.95101,-17.36011 -38.10602,-27.92368 -0.46249,-0.71109 -7.45607,-4.72855 -7.94848,-5.42681 -3.44594,-3.67391 0.54165,1.65814 -10.36466,-8.47548 l -9.96618,-6.33827 c -12.96184,-8.32764 -26.20116,-16.22979 -39.71862,-23.64706 -13.13417,-7.20775 -26.53052,-13.941771 -40.17926,-20.166529 18.50693,0.412864 36.91469,-2.127128 54.45954,-7.114591 30.49174,-8.686748 58.39519,-23.309153 85.52807,-38.59281 -28.3689,12.844754 -57.37789,24.904742 -87.42189,30.608092 -29.8388,5.67302 -55.1102,11.279205 -82.48387,0.798217 l -16.69715,-5.576612 c -19.35103,-7.176552 -30.108,-8.925693 -50.22441,-13.699068 -30.75746,-7.296176 -62.31585,-11.454918 -93.97341,-12.181813 -8.43188,-0.866989 -16.96979,-0.904818 -25.48952,-0.05126 l 0.0512,0.204736 c -5.42076,0.197147 -10.81237,0.462787 -16.22525,0.870128 -19.76654,1.492707 -39.39153,4.43903 -58.75899,8.650109 5.16704,-4.306391 9.94561,-9.018379 14.22911,-14.229184 7.69423,-9.426619 13.09379,-20.351759 16.58353,-31.6829521 3.74593,-12.1689266 5.5365,-24.7100789 6.6539,-37.2108429 z"
         style="fill:#4c2b1b;fill-opacity:1;fill-rule:evenodd;stroke:none" />
      <g
         id="g4012"
         transform="matrix(-0.80925811,-0.14947128,0.1323028,-0.61037419,375.95823,612.69862)"
         inkscape:label="leaf 1"
         inkscape:groupmode="layer">
        <path
           sodipodi:nodetypes="ccscc"
           inkscape:connector-curvature="0"
           id="path3998"
           d="m 200.00306,536.84595 c -3.23892,-16.90808 32.31044,-83.46608 86.10171,-79.08524 -12.92572,2.53348 -86.09371,93.21875 -81.62135,83.15441 22.69728,-51.07665 24.46802,-41.99348 25.06527,-44.19956 -12.25587,9.87935 -21.38056,27.42206 -29.54563,40.13039 z"
           style="fill:#95d92f;fill-opacity:1;stroke:none" />
        <path
           inkscape:connector-curvature="0"
           inkscape:original-d="m 218.75831,614.37062 c -19.13523,-46.47546 -29.02886,-74.39892 6.311,-111.72986"
           inkscape:path-effect="#path-effect4002"
           id="path4000"
           d="m 214.13486,616.27422 9.2469,-3.8072 c -4.74742,-10.31501 -9.46242,-20.50655 -13.24944,-30.9916 0,0 -1e-5,0 -1e-5,0 -3.10467,-8.64128 -5.60805,-17.45557 -6.20852,-26.46147 0,0 0,-10e-6 0,-10e-6 -0.58212,-8.4531 0.68483,-17.11723 3.79495,-25.1639 3.83763,-9.96585 10.18977,-18.99167 17.35058,-27.20929 -7.8132,7.60003 -14.9611,16.12984 -19.82142,26.13307 -3.93467,8.12701 -6.07068,17.18277 -6.20039,26.36522 0,0 0,0 0,0 -0.1207,9.69563 1.7097,19.29432 4.22429,28.49685 10e-6,0 10e-6,0 10e-6,0 3.02802,11.15593 6.97243,21.97333 10.86305,32.63833 z"
           style="fill:#4c2b1b;fill-opacity:1;fill-rule:evenodd;stroke:none" />
      </g>
      <g
         inkscape:label="leaf 2"
         transform="matrix(0.80925807,0.14947128,-0.1323028,0.61037419,791.91774,-210.62618)"
         id="g4016">
        <path
           sodipodi:nodetypes="ccscc"
           inkscape:connector-curvature="0"
           id="path4018"
           d="m 200.00306,536.84595 c -3.23892,-16.90808 32.31044,-83.46608 86.10171,-79.08524 -12.92572,2.53348 -86.09371,93.21875 -81.62135,83.15441 22.69728,-51.07665 24.46802,-41.99348 25.06527,-44.19956 -12.25587,9.87935 -21.38056,27.42206 -29.54563,40.13039 z"
           style="fill:#95d92f;fill-opacity:1;stroke:none" />
        <path
           inkscape:connector-curvature="0"
           inkscape:original-d="m 218.75831,614.37062 c -19.13523,-46.47546 -29.02886,-74.39892 6.311,-111.72986"
           inkscape:path-effect="#path-effect4002"
           id="path4020"
           d="m 214.13486,616.27422 9.2469,-3.8072 c -4.74742,-10.31501 -9.46242,-20.50655 -13.24944,-30.9916 0,0 -1e-5,0 -1e-5,0 -3.10467,-8.64128 -5.60805,-17.45557 -6.20852,-26.46147 0,0 0,-10e-6 0,-10e-6 -0.58212,-8.4531 0.68483,-17.11723 3.79495,-25.1639 3.83763,-9.96585 10.18977,-18.99167 17.35058,-27.20929 -7.8132,7.60003 -14.9611,16.12984 -19.82142,26.13307 -3.93467,8.12701 -6.07068,17.18277 -6.20039,26.36522 0,0 0,0 0,0 -0.1207,9.69563 1.7097,19.29432 4.22429,28.49685 10e-6,0 10e-6,0 10e-6,0 3.02802,11.15593 6.97243,21.97333 10.86305,32.63833 z"
           style="fill:#4c2b1b;fill-opacity:1;fill-rule:evenodd;stroke:none" />
      </g>
      <g
         inkscape:label="leaf 3"
         id="g4022"
         transform="matrix(-0.80925811,-0.14947128,0.1323028,-0.61037419,665.47666,472.40087)">
        <path
           style="fill:#95d92f;fill-opacity:1;stroke:none"
           d="m 200.00306,536.84595 c -3.23892,-16.90808 32.31044,-83.46608 86.10171,-79.08524 -12.92572,2.53348 -86.09371,93.21875 -81.62135,83.15441 22.69728,-51.07665 24.46802,-41.99348 25.06527,-44.19956 -12.25587,9.87935 -21.38056,27.42206 -29.54563,40.13039 z"
           id="path4024"
           inkscape:connector-curvature="0"
           sodipodi:nodetypes="ccscc" />
        <path
           style="fill:#4c2b1b;fill-opacity:1;fill-rule:evenodd;stroke:none"
           d="m 214.13486,616.27422 9.2469,-3.8072 c -4.74742,-10.31501 -9.46242,-20.50655 -13.24944,-30.9916 0,0 -1e-5,0 -1e-5,0 -3.10467,-8.64128 -5.60805,-17.45557 -6.20852,-26.46147 0,0 0,-10e-6 0,-10e-6 -0.58212,-8.4531 0.68483,-17.11723 3.79495,-25.1639 3.83763,-9.96585 10.18977,-18.99167 17.35058,-27.20929 -7.8132,7.60003 -14.9611,16.12984 -19.82142,26.13307 -3.93467,8.12701 -6.07068,17.18277 -6.20039,26.36522 0,0 0,0 0,0 -0.1207,9.69563 1.7097,19.29432 4.22429,28.49685 10e-6,0 10e-6,0 10e-6,0 3.02802,11.15593 6.97243,21.97333 10.86305,32.63833 z"
           id="path4026"
           inkscape:path-effect="#path-effect4002"
           inkscape:original-d="m 218.75831,614.37062 c -19.13523,-46.47546 -29.02886,-74.39892 6.311,-111.72986"
           inkscape:connector-curvature="0" />
      </g>
      <g
         inkscape:label="leaf 4"
         transform="matrix(-0.55934635,0.3451517,0.2447677,0.47139456,409.12343,-329.5125)"
         id="g4034">
        <path
           style="fill:#95d92f;fill-opacity:1;stroke:none"
           d="m 200.00306,536.84595 c -3.23892,-16.90808 32.31044,-83.46608 86.10171,-79.08524 -12.92572,2.53348 -86.09371,93.21875 -81.62135,83.15441 22.69728,-51.07665 24.46802,-41.99348 25.06527,-44.19956 -12.25587,9.87935 -21.38056,27.42206 -29.54563,40.13039 z"
           id="path4030"
           inkscape:connector-curvature="0"
           sodipodi:nodetypes="ccscc" />
        <path
           style="fill:#4c2b1b;fill-opacity:1;fill-rule:evenodd;stroke:none"
           d="m 214.13486,616.27422 9.2469,-3.8072 c -4.74742,-10.31501 -9.46242,-20.50655 -13.24944,-30.9916 0,0 -1e-5,0 -1e-5,0 -3.10467,-8.64128 -5.60805,-17.45557 -6.20852,-26.46147 0,0 0,-10e-6 0,-10e-6 -0.58212,-8.4531 0.68483,-17.11723 3.79495,-25.1639 3.83763,-9.96585 10.18977,-18.99167 17.35058,-27.20929 -7.8132,7.60003 -14.9611,16.12984 -19.82142,26.13307 -3.93467,8.12701 -6.07068,17.18277 -6.20039,26.36522 0,0 0,0 0,0 -0.1207,9.69563 1.7097,19.29432 4.22429,28.49685 10e-6,0 10e-6,0 10e-6,0 3.02802,11.15593 6.97243,21.97333 10.86305,32.63833 z"
           id="path4032"
           inkscape:path-effect="#path-effect4002"
           inkscape:original-d="m 218.75831,614.37062 c -19.13523,-46.47546 -29.02886,-74.39892 6.311,-111.72986"
           inkscape:connector-curvature="0" />
      </g>
      <g
         inkscape:label="leaf 5"
         id="g4038"
         transform="matrix(0.01855373,0.63279855,-0.51028371,0.19221254,757.62827,-237.79996)">
        <path
           sodipodi:nodetypes="ccscc"
           inkscape:connector-curvature="0"
           id="path4040"
           d="m 200.00306,536.84595 c -3.23892,-16.90808 32.31044,-83.46608 86.10171,-79.08524 -12.92572,2.53348 -86.09371,93.21875 -81.62135,83.15441 22.69728,-51.07665 24.46802,-41.99348 25.06527,-44.19956 -12.25587,9.87935 -21.38056,27.42206 -29.54563,40.13039 z"
           style="fill:#95d92f;fill-opacity:1;stroke:none" />
        <path
           inkscape:connector-curvature="0"
           inkscape:original-d="m 218.75831,614.37062 c -19.13523,-46.47546 -29.02886,-74.39892 6.311,-111.72986"
           inkscape:path-effect="#path-effect4002"
           id="path4042"
           d="m 214.13486,616.27422 9.2469,-3.8072 c -4.74742,-10.31501 -9.46242,-20.50655 -13.24944,-30.9916 0,0 -1e-5,0 -1e-5,0 -3.10467,-8.64128 -5.60805,-17.45557 -6.20852,-26.46147 0,0 0,-10e-6 0,-10e-6 -0.58212,-8.4531 0.68483,-17.11723 3.79495,-25.1639 3.83763,-9.96585 10.18977,-18.99167 17.35058,-27.20929 -7.8132,7.60003 -14.9611,16.12984 -19.82142,26.13307 -3.93467,8.12701 -6.07068,17.18277 -6.20039,26.36522 0,0 0,0 0,0 -0.1207,9.69563 1.7097,19.29432 4.22429,28.49685 10e-6,0 10e-6,0 10e-6,0 3.02802,11.15593 6.97243,21.97333 10.86305,32.63833 z"
           style="fill:#4c2b1b;fill-opacity:1;fill-rule:evenodd;stroke:none" />
      </g>
      <path
         inkscape:label="leaf 6"
         style="fill:#95d92f;fill-opacity:1;stroke:none"
         d="m 821.43597,114.52461 c 3.08087,6.25283 -5.9006,29.45413 -29.84151,26.28535 5.39965,-0.54469 28.44602,-31.43312 27.48262,-27.89842 -4.88925,17.93877 -6.55778,14.57878 -6.60152,15.36482 4.38338,-3.23977 6.64355,-9.36207 8.96041,-13.75175 z"
         id="path4046"
         inkscape:connector-curvature="0"
         sodipodi:nodetypes="ccscc" />
      <path
         inkscape:label="leaf 7"
         style="fill:#4c2b1b;fill-opacity:1;fill-rule:evenodd;stroke:none"
         d="m 811.01801,65.983882 -8.77648,4.793058 c 3.83436,5.928227 7.62929,11.740233 10.94691,17.772801 0,0 0,10e-7 0,10e-7 2.56527,4.709425 4.89963,9.429961 6.08044,14.455818 0,0 0,0 0,1e-5 0.96177,4.08795 1.08615,8.46095 -0.24207,12.50963 -1.50466,4.70943 -4.80141,8.91164 -8.5999,12.49071 4.28988,-2.9724 8.28296,-6.68773 10.76357,-11.59396 2.12679,-4.28755 2.82808,-9.25242 2.39877,-14.08045 0,0 0,0 0,0 -0.50538,-5.781618 -2.21844,-11.361284 -4.17944,-16.609649 0,-10e-7 0,-2e-6 0,-3e-6 -2.50482,-6.776796 -5.48206,-13.317197 -8.3918,-19.737966 z"
         id="path4048"
         inkscape:path-effect="#path-effect4096"
         inkscape:original-d="m 806.62977,68.380411 c 15.06944,27.59337 23.12963,43.966449 3.79715,59.625489"
         inkscape:connector-curvature="0" />
      <g
         inkscape:label="leaf 8"
         id="g4050"
         transform="matrix(-0.30432433,0.39652107,-0.43357181,-0.11886141,1151.7631,49.182039)">
        <path
           sodipodi:nodetypes="ccscc"
           inkscape:connector-curvature="0"
           id="path4052"
           d="m 200.00306,536.84595 c -3.23892,-16.90808 32.31044,-83.46608 86.10171,-79.08524 -12.92572,2.53348 -86.09371,93.21875 -81.62135,83.15441 22.69728,-51.07665 24.46802,-41.99348 25.06527,-44.19956 -12.25587,9.87935 -21.38056,27.42206 -29.54563,40.13039 z"
           style="fill:#95d92f;fill-opacity:1;stroke:none" />
        <path
           inkscape:connector-curvature="0"
           inkscape:original-d="m 218.75831,614.37062 c -19.13523,-46.47546 -29.02886,-74.39892 6.311,-111.72986"
           inkscape:path-effect="#path-effect4002"
           id="path4054"
           d="m 214.13486,616.27422 9.2469,-3.8072 c -4.74742,-10.31501 -9.46242,-20.50655 -13.24944,-30.9916 0,0 -1e-5,0 -1e-5,0 -3.10467,-8.64128 -5.60805,-17.45557 -6.20852,-26.46147 0,0 0,-10e-6 0,-10e-6 -0.58212,-8.4531 0.68483,-17.11723 3.79495,-25.1639 3.83763,-9.96585 10.18977,-18.99167 17.35058,-27.20929 -7.8132,7.60003 -14.9611,16.12984 -19.82142,26.13307 -3.93467,8.12701 -6.07068,17.18277 -6.20039,26.36522 0,0 0,0 0,0 -0.1207,9.69563 1.7097,19.29432 4.22429,28.49685 10e-6,0 10e-6,0 10e-6,0 3.02802,11.15593 6.97243,21.97333 10.86305,32.63833 z"
           style="fill:#4c2b1b;fill-opacity:1;fill-rule:evenodd;stroke:none" />
      </g>
      <g
         inkscape:label="leaf 8"
         id="g4090"
         transform="matrix(-0.36702554,0.51581857,-0.52290244,-0.15462212,1328.8484,164.32629)">
        <path
           sodipodi:nodetypes="ccscc"
           inkscape:connector-curvature="0"
           id="path4092"
           d="m 200.00306,536.84595 c -3.23892,-16.90808 32.31044,-83.46608 86.10171,-79.08524 -12.92572,2.53348 -86.09371,93.21875 -81.62135,83.15441 22.69728,-51.07665 24.46802,-41.99348 25.06527,-44.19956 -12.25587,9.87935 -21.38056,27.42206 -29.54563,40.13039 z"
           style="fill:#95d92f;fill-opacity:1;stroke:none" />
        <path
           inkscape:connector-curvature="0"
           inkscape:original-d="m 218.75831,614.37062 c -19.13523,-46.47546 -29.02886,-74.39892 6.311,-111.72986"
           inkscape:path-effect="#path-effect4002"
           id="path4094"
           d="m 214.13486,616.27422 9.2469,-3.8072 c -4.74742,-10.31501 -9.46242,-20.50655 -13.24944,-30.9916 0,0 -1e-5,0 -1e-5,0 -3.10467,-8.64128 -5.60805,-17.45557 -6.20852,-26.46147 0,0 0,-10e-6 0,-10e-6 -0.58212,-8.4531 0.68483,-17.11723 3.79495,-25.1639 3.83763,-9.96585 10.18977,-18.99167 17.35058,-27.20929 -7.8132,7.60003 -14.9611,16.12984 -19.82142,26.13307 -3.93467,8.12701 -6.07068,17.18277 -6.20039,26.36522 0,0 0,0 0,0 -0.1207,9.69563 1.7097,19.29432 4.22429,28.49685 10e-6,0 10e-6,0 10e-6,0 3.02802,11.15593 6.97243,21.97333 10.86305,32.63833 z"
           style="fill:#4c2b1b;fill-opacity:1;fill-rule:evenodd;stroke:none" />
      </g>
      <g
         inkscape:label="leaf 9"
         id="g4056"
         transform="matrix(-0.80925811,0.14947128,0.1323028,0.61037419,856.66314,-328.64432)">
        <path
           style="fill:#95d92f;fill-opacity:1;stroke:none"
           d="m 200.00306,536.84595 c -3.23892,-16.90808 32.31044,-83.46608 86.10171,-79.08524 -12.92572,2.53348 -86.09371,93.21875 -81.62135,83.15441 22.69728,-51.07665 24.46802,-41.99348 25.06527,-44.19956 -12.25587,9.87935 -21.38056,27.42206 -29.54563,40.13039 z"
           id="path4058"
           inkscape:connector-curvature="0"
           sodipodi:nodetypes="ccscc" />
        <path
           style="fill:#4c2b1b;fill-opacity:1;fill-rule:evenodd;stroke:none"
           d="m 214.13486,616.27422 9.2469,-3.8072 c -4.74742,-10.31501 -9.46242,-20.50655 -13.24944,-30.9916 0,0 -1e-5,0 -1e-5,0 -3.10467,-8.64128 -5.60805,-17.45557 -6.20852,-26.46147 0,0 0,-10e-6 0,-10e-6 -0.58212,-8.4531 0.68483,-17.11723 3.79495,-25.1639 3.83763,-9.96585 10.18977,-18.99167 17.35058,-27.20929 -7.8132,7.60003 -14.9611,16.12984 -19.82142,26.13307 -3.93467,8.12701 -6.07068,17.18277 -6.20039,26.36522 0,0 0,0 0,0 -0.1207,9.69563 1.7097,19.29432 4.22429,28.49685 10e-6,0 10e-6,0 10e-6,0 3.02802,11.15593 6.97243,21.97333 10.86305,32.63833 z"
           id="path4060"
           inkscape:path-effect="#path-effect4002"
           inkscape:original-d="m 218.75831,614.37062 c -19.13523,-46.47546 -29.02886,-74.39892 6.311,-111.72986"
           inkscape:connector-curvature="0" />
      </g>
      <g
         inkscape:label="leaf 10"
         transform="matrix(-0.80925811,-0.14947128,0.1323028,-0.61037419,904.15794,583.91371)"
         id="g4062">
        <g
           id="g4068">
          <g
             id="g4072">
            <g
               id="g4076">
              <g
                 transform="matrix(0.68889562,0.98350566,-0.56644944,0.64290403,393.56669,6.831826)"
                 id="g4080">
                <path
                   sodipodi:nodetypes="ccscc"
                   inkscape:connector-curvature="0"
                   id="path4064"
                   d="m 200.00306,536.84595 c -3.23892,-16.90808 32.31044,-83.46608 86.10171,-79.08524 -12.92572,2.53348 -86.09371,93.21875 -81.62135,83.15441 22.69728,-51.07665 24.46802,-41.99348 25.06527,-44.19956 -12.25587,9.87935 -21.38056,27.42206 -29.54563,40.13039 z"
                   style="fill:#95d92f;fill-opacity:1;stroke:none" />
                <path
                   inkscape:connector-curvature="0"
                   inkscape:original-d="m 218.75831,614.37062 c -19.13523,-46.47546 -29.02886,-74.39892 6.311,-111.72986"
                   inkscape:path-effect="#path-effect4002"
                   id="path4066"
                   d="m 214.13486,616.27422 9.2469,-3.8072 c -4.74742,-10.31501 -9.46242,-20.50655 -13.24944,-30.9916 0,0 -1e-5,0 -1e-5,0 -3.10467,-8.64128 -5.60805,-17.45557 -6.20852,-26.46147 0,0 0,-10e-6 0,-10e-6 -0.58212,-8.4531 0.68483,-17.11723 3.79495,-25.1639 3.83763,-9.96585 10.18977,-18.99167 17.35058,-27.20929 -7.8132,7.60003 -14.9611,16.12984 -19.82142,26.13307 -3.93467,8.12701 -6.07068,17.18277 -6.20039,26.36522 0,0 0,0 0,0 -0.1207,9.69563 1.7097,19.29432 4.22429,28.49685 10e-6,0 10e-6,0 10e-6,0 3.02802,11.15593 6.97243,21.97333 10.86305,32.63833 z"
                   style="fill:#4c2b1b;fill-opacity:1;fill-rule:evenodd;stroke:none" />
              </g>
              <g
                 id="g4084"
                 transform="matrix(-0.64249871,0.84168145,0.25622643,0.68424074,159.36704,22.27487)">
                <path
                   style="fill:#95d92f;fill-opacity:1;stroke:none"
                   d="m 200.00306,536.84595 c -3.23892,-16.90808 32.31044,-83.46608 86.10171,-79.08524 -12.92572,2.53348 -86.09371,93.21875 -81.62135,83.15441 22.69728,-51.07665 24.46802,-41.99348 25.06527,-44.19956 -12.25587,9.87935 -21.38056,27.42206 -29.54563,40.13039 z"
                   id="path4086"
                   inkscape:connector-curvature="0"
                   sodipodi:nodetypes="ccscc" />
                <path
                   style="fill:#4c2b1b;fill-opacity:1;fill-rule:evenodd;stroke:none"
                   d="m 214.13486,616.27422 9.2469,-3.8072 c -4.74742,-10.31501 -9.46242,-20.50655 -13.24944,-30.9916 0,0 -1e-5,0 -1e-5,0 -3.10467,-8.64128 -5.60805,-17.45557 -6.20852,-26.46147 0,0 0,-10e-6 0,-10e-6 -0.58212,-8.4531 0.68483,-17.11723 3.79495,-25.1639 3.83763,-9.96585 10.18977,-18.99167 17.35058,-27.20929 -7.8132,7.60003 -14.9611,16.12984 -19.82142,26.13307 -3.93467,8.12701 -6.07068,17.18277 -6.20039,26.36522 0,0 0,0 0,0 -0.1207,9.69563 1.7097,19.29432 4.22429,28.49685 10e-6,0 10e-6,0 10e-6,0 3.02802,11.15593 6.97243,21.97333 10.86305,32.63833 z"
                   id="path4088"
                   inkscape:path-effect="#path-effect4002"
                   inkscape:original-d="m 218.75831,614.37062 c -19.13523,-46.47546 -29.02886,-74.39892 6.311,-111.72986"
                   inkscape:connector-curvature="0" />
              </g>
            </g>
          </g>
        </g>
      </g>
      <path
         inkscape:label="tree"
         sodipodi:nodetypes="czzzzcsszzzcczzcczzzccc"
         inkscape:connector-curvature="0"
         id="path3634"
         d="m 0.21630508,270.74878 c 0,0 29.15254192,28.13257 36.95117392,42.87337 7.798634,14.74081 15.706999,25.39149 13.517283,43.93144 -2.189714,18.53997 10.24507,32.83761 10.137964,55.75914 -0.107107,22.92153 -14.865268,55.385 -15.206945,79.41455 -0.341676,24.02956 10.137962,62.51781 10.137962,62.51781 0,0 -2.601214,6.52138 3.112027,8.98297 11.726921,5.05263 9.304839,-8.13741 16.221701,-19.60115 4.364539,-7.23361 -4.165012,-33.64347 4.321517,-24.8649 8.48653,8.77858 21.383342,9.42647 32.103552,6.7587 10.72021,-2.66779 -14.893717,23.21398 -18.604408,31.60542 -3.710687,8.39144 -6.740502,15.70537 -6.740502,15.70537 l -35.482868,18.58638 c 0,0 -3.974371,26.8047 -10.137962,35.48309 -6.163588,8.67837 -8.697455,20.7925 -6.75864,33.79341 1.938814,13.00091 3.379319,52.37981 3.379319,52.37981 l 6.758642,136.86335 c 0,0 5.208321,83.78604 16.896605,108.13894 11.688282,24.35289 28.412689,25.18238 35.482868,38.8624 7.070186,13.68022 -2.057401,28.11462 8.448306,38.86252 10.50572,10.748 98.52189,19.4826 87.1645,19.3978 -61.48165,1.6455 -130.717513,-0.4439 -191.92344784,0.8619 z"
         style="fill:#4c2b1b;fill-opacity:1;stroke:none" />
    </g>
    <g
       id="g220"
       inkscape:label="bird"
       style="display:inline">
      <ellipse
         inkscape:label="bird"
         ry="115"
         rx="123"
         cy="231"
         cx="359"
         style="fill:#ffae00;fill-opacity:1;stroke:none"
         id="path3769"
         transform="matrix(0.29429368,0,0,0.31530325,193.68092,-24.252908)" />
      <ellipse
         inkscape:label="bird face"
         ry="115"
         rx="123"
         cy="231"
         cx="359"
         transform="matrix(0.20143762,0,0,0.21581821,249.85884,-41.065878)"
         id="path2995"
         style="fill:#ffae00;fill-opacity:1;stroke:none" />
      <ellipse
         inkscape:label="bird eye"
         ry="115"
         rx="123"
         cy="231"
         cx="359"
         style="fill:#ffffff;fill-opacity:1;stroke:none"
         id="path3765-6"
         transform="matrix(0.08809216,0,0,0.09438103,298.45782,-22.427609)" />
      <ellipse
         inkscape:label="bird iris"
         ry="115"
         rx="123"
         cy="231"
         cx="359"
         transform="matrix(0.03803063,0,0,0.0407456,321.07655,-14.195043)"
         id="path3767"
         style="fill:#000000;fill-opacity:1;stroke:none" />
      <path
         inkscape:label="bird body"
         sodipodi:nodetypes="ccscssc"
         inkscape:connector-curvature="0"
         id="path3771"
         d="m 297.9047,11.7105 c -7.20039,1.522533 -17.38024,-1.015018 -25.07722,4.56757 0,0 -10.54371,8.035068 -19.36654,14.210231 -3.25555,2.27858 -11.66958,2.030036 -11.66958,2.030036 0,0 9.80522,9.79985 11.66958,16.240261 2.62079,9.053467 12.32289,18.231173 18.49647,23.506098 15.73995,13.448795 25.94729,-60.554196 25.94729,-60.554196 z"
         style="fill:#ffae00;fill-opacity:1;stroke:#ffae00;stroke-width:1.09684px;stroke-linecap:butt;stroke-linejoin:miter;stroke-opacity:1" />
      <path
         inkscape:label="bird mouth"
         inkscape:connector-curvature="0"
         id="path3773-6"
         d="m 343.15174,-4.4135238 c 0.57381,-1.9824705 1.14761,-3.9649584 1.72143,-5.9474282 -0.55219,2.4613893 -1.10437,4.9227795 -1.65655,7.3841528 2.07114,0.1645595 4.14226,0.329102 6.21339,0.4936614"
         style="fill:#000000;fill-opacity:1;stroke:#000000;stroke-width:4.20429;stroke-linecap:round;stroke-linejoin:round;stroke-miterlimit:4;stroke-dasharray:none;stroke-opacity:1" />
      <path
         inkscape:label="foot 1"
         inkscape:connector-curvature="0"
         id="path3775-0"
         d="m 310.37367,78.671675 6.32711,15.298387 9.81794,-4.808056 v 0 0"
         style="fill:none;stroke:#000000;stroke-width:3.25767;stroke-linecap:round;stroke-linejoin:round;stroke-miterlimit:4;stroke-dasharray:none;stroke-opacity:1" />
      <path
         inkscape:label="foot 2"
         inkscape:connector-curvature="0"
         id="path3777-5"
         d="m 301.21028,81.294256 -4.79987,17.265326 12.43604,3.059688"
         style="fill:none;stroke:#000000;stroke-width:3.25767;stroke-linecap:round;stroke-linejoin:round;stroke-miterlimit:4;stroke-dasharray:none;stroke-opacity:1" />
    </g>
    <ellipse
       style="opacity:1;fill:url(#radialGradient4416);fill-opacity:1;stroke:none;stroke-width:1.46388"
       id="path4408"
       cx="1221.2532"
       cy="128.24057"
       inkscape:label="sun"
       rx="141.612"
       ry="154.09517" />
  </g>
</svg>
