<?xml version="1.0" encoding="UTF-8" standalone="no"?>
<!-- Created with Inkscape (http://www.inkscape.org/) -->
<svg id="svg2816" xmlns:rdf="http://www.w3.org/1999/02/22-rdf-syntax-ns#" xmlns="http://www.w3.org/2000/svg" height="22" width="22" version="1.0" xmlns:cc="http://creativecommons.org/ns#" xmlns:xlink="http://www.w3.org/1999/xlink" xmlns:dc="http://purl.org/dc/elements/1.1/">
 <metadata id="metadata8">
  <rdf:RDF>
   <cc:Work rdf:about="">
    <dc:format>image/svg+xml</dc:format>
    <dc:type rdf:resource="http://purl.org/dc/dcmitype/StillImage"/>
    <dc:title/>
   </cc:Work>
  </rdf:RDF>
 </metadata>
 <g id="g4166" transform="translate(-1 -1)">
  <path id="path4168" style="opacity:.6;fill:#3a3935" d="m2.0312 9.7383c0 6.0625 0.0625 11.5 8.4375 11.5 6.974 0 8.1174-3.6947 8.3125-8.5 2.0194-0.0018 3.1875-0.06004 3.1875-0.5625v-1.125c0-0.60353-1.343-0.5625-3.125-0.5625 0.000581-0.25097 0-0.49577 0-0.75h-16.812z"/>
  <path id="path4170" style="fill:#eae3d0" d="m2.6942 10.445c0 3.8086-0.62252 9.8427 7.7525 9.8427 6.974 0 7.3219-3.2749 7.517-8.0802 2.0194-0.0018 3.3643 0.24932 3.3643-0.25314l0.0221-0.63886c0-0.60353-1.4977-0.31943-3.2797-0.31943 0.000581-0.25097 0.000004-0.29689 0.000004-0.55113h-15.376z"/>
  <path id="path4172" style="opacity:.6;fill:#3a3935" d="m5.75 9.0733c-0.0312 0.7233 0.2812 0.31 0.75 0.3444 0.4688 0.0345 0.9062 0.0345 0.875-0.3788s-0.6875-1.4811-0.5312-3.0654c0.1562-1.5844 0.4687-2.2043 0.375-2.8243-0.0938-0.62-0.5-0.31-0.9376-0.31-0.4374 0-0.9062-0.0344-0.8124 0.31 0.0937 0.3444-0.2813 2.4454-0.1876 3.1687 0.0938 0.7233 0.375 1.3777 0.4688 2.7554z"/>
  <path id="path4174" style="fill:#eae3d0" d="m6.0025 8.6738c-0.03125 0.72329 0.039293 0.33696 0.50804 0.3714s0.48326 0.073757 0.45201-0.33955c-0.0313-0.4133-0.5601-1.1391-0.4039-2.7235 0.1563-1.5844 0.3674-1.8306 0.3842-2.4727 0.0163-0.6268-0.1422-0.3493-0.5797-0.3493s-0.65893-0.13404-0.56518 0.21039c0.09375 0.34442-0.34107 1.9294-0.24732 2.6527 0.09375 0.72329 0.35804 1.2729 0.45178 2.6506z"/>
  <path id="path4176" style="opacity:.6;fill:#3a3935" d="m9.5065 9.0733c-0.03125 0.72329 0.28125 0.30998 0.75 0.34443 0.46875 0.03444 0.90625 0.03444 0.875-0.37887s-0.6875-1.481-0.53125-3.0654 0.46875-2.2043 0.375-2.8243c-0.09375-0.61997-0.5-0.30998-0.9375-0.30998s-0.90625-0.03444-0.8125 0.30998c0.09375 0.34443-0.28125 2.4454-0.1875 3.1687 0.09375 0.72329 0.375 1.3777 0.46875 2.7554z"/>
  <path id="path4178" style="fill:#eae3d0" d="m9.759 8.6738c-0.03125 0.72329 0.039293 0.33696 0.50804 0.3714s0.48326 0.073757 0.45201-0.33955c-0.031-0.4133-0.56-1.1391-0.404-2.7235s0.368-1.8306 0.384-2.4727c0.017-0.6268-0.142-0.3493-0.579-0.3493-0.4375 0-0.65893-0.13404-0.56518 0.21039 0.09375 0.34442-0.34107 1.9294-0.24732 2.6527 0.09375 0.72329 0.35804 1.2729 0.45178 2.6506z"/>
  <path id="path4180" style="opacity:.6;fill:#3a3935" d="m13.329 9.0733c-0.03125 0.72329 0.28125 0.30998 0.75 0.34443 0.46875 0.03444 0.90625 0.03444 0.875-0.37887s-0.6875-1.481-0.53125-3.0654 0.46875-2.2043 0.375-2.8243c-0.09375-0.61997-0.5-0.30998-0.9375-0.30998s-0.90625-0.03444-0.8125 0.30998c0.09375 0.34443-0.28125 2.4454-0.1875 3.1687 0.09375 0.72329 0.375 1.3777 0.46875 2.7554z"/>
  <path id="path4182" style="fill:#eae3d0" d="m13.582 8.6738c-0.03125 0.72329 0.03929 0.33696 0.50804 0.3714s0.48326 0.073757 0.45201-0.33955c-0.031-0.4133-0.56-1.1391-0.404-2.7235s0.367-1.8306 0.384-2.4727c0.016-0.6268-0.142-0.3493-0.58-0.3493-0.4375 0-0.65893-0.13404-0.56518 0.21039 0.09375 0.34442-0.34107 1.9294-0.24732 2.6527 0.09375 0.72329 0.35804 1.2729 0.45178 2.6506z"/>
 </g>
</svg>
