<?xml version="1.0" encoding="UTF-8" standalone="no"?>
<!-- Created with Inkscape (http://www.inkscape.org/) -->

<svg
   xmlns:dc="http://purl.org/dc/elements/1.1/"
   xmlns:cc="http://creativecommons.org/ns#"
   xmlns:rdf="http://www.w3.org/1999/02/22-rdf-syntax-ns#"
   xmlns:svg="http://www.w3.org/2000/svg"
   xmlns="http://www.w3.org/2000/svg"
   xmlns:xlink="http://www.w3.org/1999/xlink"
   xmlns:sodipodi="http://sodipodi.sourceforge.net/DTD/sodipodi-0.dtd"
   xmlns:inkscape="http://www.inkscape.org/namespaces/inkscape"
   id="svg11300"
   height="48"
   width="48"
   version="1.0"
   inkscape:version="0.48.1 r9760"
   sodipodi:docname="drive-removable-media-usb.svg">
  <metadata
     id="metadata49">
    <rdf:RDF>
      <cc:Work
         rdf:about="">
        <dc:format>image/svg+xml</dc:format>
        <dc:type
           rdf:resource="http://purl.org/dc/dcmitype/StillImage" />
        <dc:title></dc:title>
      </cc:Work>
    </rdf:RDF>
  </metadata>
  <sodipodi:namedview
     pagecolor="#ffffff"
     bordercolor="#666666"
     borderopacity="1"
     objecttolerance="10"
     gridtolerance="10"
     guidetolerance="10"
     inkscape:pageopacity="0"
     inkscape:pageshadow="2"
     inkscape:window-width="640"
     inkscape:window-height="480"
     id="namedview47"
     showgrid="false"
     inkscape:zoom="6.0208333"
     inkscape:cx="24"
     inkscape:cy="24"
     inkscape:window-x="388"
     inkscape:window-y="97"
     inkscape:window-maximized="0"
     inkscape:current-layer="svg11300" />
  <defs
     id="defs3">
    <linearGradient
       id="linearGradient3506">
      <stop
         id="stop3508"
         style="stop-color:#3c3c3c"
         offset="0" />
      <stop
         id="stop3510"
         style="stop-color:#3c3c3c;stop-opacity:.22745"
         offset="1" />
    </linearGradient>
    <linearGradient
       id="linearGradient3494">
      <stop
         id="stop3496"
         style="stop-color:#282828;stop-opacity:.82353"
         offset="0" />
      <stop
         id="stop3498"
         style="stop-color:#282828;stop-opacity:0"
         offset="1" />
    </linearGradient>
    <radialGradient
       id="radialGradient7374"
       gradientUnits="userSpaceOnUse"
       cy="41.636"
       cx="23.335"
       gradientTransform="matrix(0.46532069,0,0,0.11170676,13.640355,39.467777)"
       r="22.627">
      <stop
         id="stop23421"
         offset="0" />
      <stop
         id="stop23423"
         style="stop-opacity:0"
         offset="1" />
    </radialGradient>
    <linearGradient
       id="linearGradient7469"
       y2="9.1187"
       xlink:href="#linearGradient3494"
       gradientUnits="userSpaceOnUse"
       x2="20.405"
       gradientTransform="matrix(1.0733186,0,0,0.94678378,5.0557161,-49.509972)"
       y1="6.9878"
       x1="20.405" />
    <linearGradient
       id="linearGradient7471"
       y2="10.01"
       xlink:href="#linearGradient3506"
       gradientUnits="userSpaceOnUse"
       x2="21.718"
       gradientTransform="matrix(1.0733186,0,0,0.94678378,5.0557161,-49.509972)"
       y1="6.1797"
       x1="21.718" />
    <linearGradient
       id="linearGradient7475"
       y2="9.1187"
       xlink:href="#linearGradient3494"
       gradientUnits="userSpaceOnUse"
       x2="20.405"
       gradientTransform="matrix(1.0733186,0,0,0.94678378,0.19617374,-49.509972)"
       y1="6.9878"
       x1="20.405" />
    <linearGradient
       id="linearGradient7477"
       y2="10.01"
       xlink:href="#linearGradient3506"
       gradientUnits="userSpaceOnUse"
       x2="21.718"
       gradientTransform="matrix(1.0733186,0,0,0.94678378,0.19617374,-49.509972)"
       y1="6.1797"
       x1="21.718" />
    <linearGradient
       id="linearGradient8579"
       y2="1.25"
       gradientUnits="userSpaceOnUse"
       x2="15"
       y1="36"
       x1="15"
       gradientTransform="matrix(0.80992948,0,0,0.72245997,5.0599622,12.691966)">
      <stop
         id="stop3823"
         style="stop-color:gray"
         offset="0" />
      <stop
         id="stop3825"
         style="stop-color:#999"
         offset="1" />
    </linearGradient>
    <linearGradient
       id="linearGradient8838"
       y2="35.875"
       gradientUnits="userSpaceOnUse"
       x2="25"
       y1="1.125"
       x1="25"
       gradientTransform="matrix(0.80992948,0,0,0.72245997,5.0599622,12.691966)">
      <stop
         id="stop3145"
         style="stop-color:#e6e6e6"
         offset="0" />
      <stop
         id="stop3147"
         style="stop-color:#afafaf"
         offset="1" />
    </linearGradient>
    <radialGradient
       id="radialGradient9547"
       gradientUnits="userSpaceOnUse"
       cy="-36.857"
       cx="21.333"
       gradientTransform="matrix(1.3161354,-1.6371665e-7,1.5530398e-7,0.99338245,-5.1994146,-2.8094364)"
       r="8">
      <stop
         id="stop9129"
         style="stop-color:#f0f0f0"
         offset="0" />
      <stop
         id="stop9131"
         style="stop-color:#a9a9a9"
         offset="1" />
    </radialGradient>
    <linearGradient
       id="linearGradient9563"
       y2="-44"
       gradientUnits="userSpaceOnUse"
       x2="24"
       y1="-35"
       x1="24"
       gradientTransform="matrix(0.80992948,0,0,0.72245997,5.0599622,-12.691966)">
      <stop
         id="stop9559"
         style="stop-color:#eeeeec"
         offset="0" />
      <stop
         id="stop9561"
         style="stop-color:#eeeeec;stop-opacity:0"
         offset="1" />
    </linearGradient>
    <linearGradient
       id="linearGradient9571"
       y2="-40"
       gradientUnits="userSpaceOnUse"
       x2="32"
       y1="-40"
       x1="16"
       gradientTransform="matrix(0.80992948,0,0,0.72245997,5.0599622,-12.691966)">
      <stop
         id="stop9575"
         style="stop-color:#8f8f8f"
         offset="0" />
      <stop
         id="stop9577"
         style="stop-color:#5f5f5f"
         offset=".12709" />
      <stop
         id="stop9579"
         style="stop-color:#616161"
         offset=".87578" />
      <stop
         id="stop9581"
         style="stop-color:#9e9e9e"
         offset="1" />
    </linearGradient>
    <filter
       id="filter10041"
       color-interpolation-filters="sRGB">
      <feGaussianBlur
         id="feGaussianBlur10043"
         stdDeviation="0.51" />
    </filter>
  </defs>
  <path
     id="path23417"
     style="opacity:0.4;fill:url(#radialGradient7374);fill-rule:evenodd"
     d="m 35.027353,44.118974 a 10.529084,2.5275985 0 0 1 -21.058167,0 10.529084,2.5275985 0 1 1 21.058167,0 z"
     inkscape:connector-curvature="0" />
  <rect
     id="rect4383"
     style="fill:#ffffff"
     rx="0.50620592"
     ry="0.45153746"
     height="6.9150977"
     width="9.8544111"
     y="36.585163"
     x="19.660563" />
  <rect
     id="rect3448"
     style="fill:url(#radialGradient9547);stroke:url(#linearGradient9571);stroke-width:0.76494551"
     transform="scale(1,-1)"
     rx="0.45737529"
     ry="0.40798035"
     height="10.8369"
     width="12.148943"
     y="-44.841438"
     x="18.423801" />
  <rect
     id="rect3450"
     style="opacity:0.88172003;fill:url(#linearGradient7475);stroke:url(#linearGradient7477);stroke-width:0.70374984"
     transform="scale(1,-1)"
     height="2.2251766"
     width="2.4945827"
     y="-42.702957"
     x="20.821192" />
  <rect
     id="rect3458"
     style="opacity:0.71504977;fill:none;stroke:url(#linearGradient9563);stroke-width:0.76494551"
     transform="scale(1,-1)"
     height="9.3919792"
     width="10.529082"
     y="-44.118977"
     x="19.23373" />
  <rect
     id="rect2874"
     style="opacity:0.88172003;fill:url(#linearGradient7469);stroke:url(#linearGradient7471);stroke-width:0.70374984"
     transform="scale(1,-1)"
     height="2.2251766"
     width="2.4945827"
     y="-42.702957"
     x="25.680767" />
  <rect
     id="rect5391"
     style="fill:url(#linearGradient8838);stroke:url(#linearGradient8579);stroke-width:0.76494551;stroke-linecap:round;stroke-linejoin:round"
     rx="1.3161353"
     ry="1.170963"
     height="24.563637"
     width="17.00852"
     y="13.775657"
     x="15.994011" />
  <rect
     id="rect8840"
     style="opacity:0.3;fill:#ffffff;filter:url(#filter10041)"
     rx="1.625"
     ry="1.6208"
     height="33"
     width="18"
     y="2"
     x="15"
     transform="matrix(0.80992948,0,0,0.72245994,5.0599622,12.691966)" />
  <path
     id="path8593"
     style="opacity:0.95;fill:#ffffff"
     d="m 23.427543,33.152032 c 0,-0.92287 0.343864,-1.162293 0.765067,-1.484511 0.338146,-0.145605 0.392176,-0.245008 0.38773,-0.713285 -0.0049,-0.517483 -0.06044,-0.458372 -1.135683,-1.290963 -1.641728,-1.271168 -1.862514,-1.577708 -2.055278,-2.853284 -0.142191,-0.940787 -0.04246,-0.733802 -0.450628,-1.095682 -0.751282,-0.666058 -0.622569,-1.642874 0.271787,-2.062696 0.805703,-0.378193 1.76014,0.02405 2.054468,0.865869 0.145067,0.414887 -0.202718,1.131372 -0.669714,1.379681 -0.427352,0.22725 -0.604646,-0.151622 -0.506919,0.686055 0.05408,0.463632 0.185895,0.99685 0.292903,1.184907 0.183781,0.322968 1.983436,1.843356 2.179196,1.843356 v -8.981621 h -0.99759 c 0.46166,-0.713936 0.911171,-1.43943 1.358251,-2.157989 l 1.423613,2.158277 h -0.969647 v 6.083113 c 0.134861,0 1.457063,-1.196972 1.901957,-1.735854 0.192229,-0.232834 0.308883,-0.56344 0.308883,-0.875405 0,-0.470495 0.17394,-0.569429 -0.228367,-0.569429 h -0.428615 v -2.204658 h 2.428817 v 2.204658 h -0.392898 c -0.350569,0.03662 -0.601137,0.196004 -0.667316,0.717699 -0.09869,0.778018 -0.472262,1.288652 -1.847045,2.524781 l -1.075424,1.034491 v 3.68917 l 0.3178,0.169185 c 0.216098,0.09305 0.513706,0.393733 0.661356,0.668181 0.525645,0.978933 -0.205722,2.030836 -1.411707,2.030836 -0.873913,-0.0289 -1.515378,-0.429142 -1.515378,-1.213734 z"
     inkscape:connector-curvature="0" />
  <path
     id="path8591"
     style="opacity:0.95;fill:#464646"
     d="m 23.427543,33.874492 c 0,-0.92287 0.343864,-1.162294 0.765067,-1.484511 0.338146,-0.145605 0.392176,-0.245008 0.38773,-0.713284 -0.0049,-0.517484 -0.06044,-0.458373 -1.135683,-1.290964 -1.641728,-1.271168 -1.862514,-1.577708 -2.055278,-2.853284 -0.142191,-0.940787 -0.04246,-0.733803 -0.450628,-1.095682 -0.751282,-0.666057 -0.622569,-1.642874 0.271787,-2.062696 0.805703,-0.378192 1.76014,0.02405 2.054468,0.865868 0.145067,0.414888 -0.202718,1.131373 -0.669714,1.379682 -0.427352,0.22725 -0.604646,-0.151622 -0.506919,0.686056 0.05408,0.463631 0.185895,0.996849 0.292903,1.184906 0.183781,0.322969 1.983436,1.843357 2.179196,1.843357 v -8.981623 h -0.99759 c 0.46166,-0.713789 0.911171,-1.439429 1.358251,-2.157987 l 1.423613,2.158276 h -0.969647 v 6.083113 c 0.134861,0 1.457063,-1.196971 1.901957,-1.735854 0.192229,-0.232835 0.308883,-0.56344 0.308883,-0.875405 0,-0.470495 0.17394,-0.569428 -0.228367,-0.569428 h -0.428615 v -2.204659 h 2.428817 v 2.204659 h -0.392898 c -0.350569,0.03662 -0.601137,0.196003 -0.667316,0.717698 -0.09869,0.778018 -0.472262,1.288653 -1.847045,2.524782 l -1.075424,1.034489 v 3.68917 l 0.3178,0.169185 c 0.216098,0.09305 0.513706,0.393734 0.661356,0.668182 0.525645,0.978933 -0.205722,2.030835 -1.411707,2.030835 -0.873913,-0.0289 -1.515378,-0.429142 -1.515378,-1.213733 z"
     inkscape:connector-curvature="0" />
  <path
     id="path3690"
     style="opacity:0.95;fill:#aaaaaa"
     d="m 23.427543,33.513262 c 0,-0.922871 0.343864,-1.162294 0.765067,-1.484511 0.338146,-0.145604 0.392176,-0.245008 0.38773,-0.713284 -0.0049,-0.517485 -0.06044,-0.458372 -1.135683,-1.290964 -1.641728,-1.271169 -1.862514,-1.577708 -2.055278,-2.853283 -0.142191,-0.940788 -0.04246,-0.733803 -0.450628,-1.095684 -0.751282,-0.666057 -0.622569,-1.642874 0.271787,-2.062694 0.805703,-0.378194 1.76014,0.02405 2.054468,0.865868 0.145067,0.414886 -0.202718,1.131372 -0.669714,1.379682 -0.427352,0.227249 -0.604646,-0.151624 -0.506919,0.686055 0.05408,0.463631 0.185895,0.99685 0.292903,1.184906 0.183781,0.322969 1.983436,1.843357 2.179196,1.843357 v -8.981622 h -0.99759 c 0.46166,-0.713791 0.911171,-1.439429 1.358251,-2.157988 l 1.423613,2.158277 h -0.969647 v 6.083113 c 0.134861,0 1.457063,-1.196972 1.901957,-1.735856 0.192229,-0.232834 0.308883,-0.563438 0.308883,-0.875404 0,-0.470494 0.17394,-0.569428 -0.228367,-0.569428 h -0.428615 v -2.20466 h 2.428817 v 2.20466 h -0.392898 c -0.350569,0.03662 -0.601137,0.196003 -0.667316,0.717699 -0.09869,0.778016 -0.472262,1.288651 -1.847045,2.52478 l -1.075424,1.034491 v 3.689169 l 0.3178,0.169186 c 0.216098,0.09305 0.513706,0.393734 0.661356,0.668182 0.525645,0.978933 -0.205722,2.030834 -1.411707,2.030834 -0.873913,-0.0289 -1.515378,-0.429141 -1.515378,-1.213732 z"
     inkscape:connector-curvature="0" />
  <path
     inkscape:connector-curvature="0"
     id="path3196-5-7"
     style="opacity:0.3;fill-rule:evenodd"
     d="m 23.228045,13.138663 c -0.4719,0 -0.8549,0.29867 -0.8549,0.66667 0,0.13676 0.0529,0.26394 0.14359,0.36978 0,0 1.0076,0.80144 1.0076,0.80144 0.15,0.101 0.346,0.162 0.559,0.162 0.2533,0 0.48099,-0.08605 0.63758,-0.22269 l 0.90091,-0.7104 c 0.10754,-0.11149 0.1713,-0.25009 0.1713,-0.40024 0,-0.368 -0.38299,-0.66667 -0.8549,-0.66667 h -1.7098 z" />
  <path
     inkscape:connector-curvature="0"
     id="path3683-5"
     style="opacity:0.3;fill:none;stroke:#000000;stroke-width:1.70000005;stroke-linecap:round"
     d="m 14.933045,6.282663 c 0,0 2.8978,-3.2944 9.132,-3.2944 6.2036,0 9.168,3.3 9.168,3.3" />
  <path
     inkscape:connector-curvature="0"
     id="path3681-0"
     style="opacity:0.3;fill:none;stroke:#000000;stroke-width:1.70000005;stroke-linecap:round"
     d="m 17.433045,8.891663 c 0,0 2.1469,-2.2158 6.65,-2.1369 4.5405,0.07949 6.65,2.1725 6.65,2.1725" />
  <path
     inkscape:connector-curvature="0"
     id="path3209-5"
     style="opacity:0.3;fill:none;stroke:#000000;stroke-width:1.70000005;stroke-linecap:round"
     d="m 20.433045,11.329663 c 0,0 0.9669,-1.072 3.5987,-1.0922 2.599,-0.01997 3.7013,1.0922 3.7013,1.0922" />
  <path
     inkscape:connector-curvature="0"
     id="path3683"
     style="fill:none;stroke:#dfdbd2;stroke-width:1.70000005;stroke-linecap:round"
     d="m 14.933045,5.282663 c 0,0 2.8978,-3.2944 9.132,-3.2944 6.204,4e-4 9.168,3.3004 9.168,3.3004" />
  <path
     inkscape:connector-curvature="0"
     id="path3681"
     style="fill:none;stroke:#dfdbd2;stroke-width:1.70000005;stroke-linecap:round"
     d="m 17.433045,7.891663 c 0,0 2.1469,-2.2158 6.65,-2.1369 4.5405,0.07949 6.65,2.1725 6.65,2.1725" />
  <path
     inkscape:connector-curvature="0"
     id="path3209"
     style="fill:none;stroke:#dfdbd2;stroke-width:1.70000005;stroke-linecap:round"
     d="m 20.433045,10.329663 c 0,0 0.9669,-1.072 3.5987,-1.0922 2.599,-0.01997 3.7013,1.0922 3.7013,1.0922" />
  <path
     inkscape:connector-curvature="0"
     id="path3196-5"
     style="fill:#dfdbd2;fill-rule:evenodd"
     d="m 23.228045,12.138663 c -0.4719,0 -0.8549,0.29867 -0.8549,0.66667 0,0.13676 0.0529,0.26394 0.14359,0.36978 0,0 1.0076,0.80144 1.0076,0.80144 0.15,0.101 0.346,0.162 0.559,0.162 0.2533,0 0.48099,-0.08605 0.63758,-0.22269 l 0.90091,-0.7104 c 0.10754,-0.11149 0.1713,-0.25009 0.1713,-0.40024 0,-0.368 -0.38299,-0.66667 -0.8549,-0.66667 h -1.7098 z" />
</svg>
