<?xml version="1.0" encoding="UTF-8" standalone="no"?>
<!-- Created with Inkscape (http://www.inkscape.org/) -->

<svg
   xmlns:dc="http://purl.org/dc/elements/1.1/"
   xmlns:cc="http://creativecommons.org/ns#"
   xmlns:rdf="http://www.w3.org/1999/02/22-rdf-syntax-ns#"
   xmlns:svg="http://www.w3.org/2000/svg"
   xmlns="http://www.w3.org/2000/svg"
   xmlns:sodipodi="http://sodipodi.sourceforge.net/DTD/sodipodi-0.dtd"
   xmlns:inkscape="http://www.inkscape.org/namespaces/inkscape"
   id="svg3187"
   height="16"
   width="16"
   version="1.0"
   inkscape:version="0.48.1 r9760"
   sodipodi:docname="weather-few-clouds.svg">
  <defs
     id="defs10" />
  <sodipodi:namedview
     pagecolor="#ffffff"
     bordercolor="#666666"
     borderopacity="1"
     objecttolerance="10"
     gridtolerance="10"
     guidetolerance="10"
     inkscape:pageopacity="0"
     inkscape:pageshadow="2"
     inkscape:window-width="1920"
     inkscape:window-height="1027"
     id="namedview8"
     showgrid="false"
     inkscape:zoom="39.0625"
     inkscape:cx="8"
     inkscape:cy="8"
     inkscape:window-x="0"
     inkscape:window-y="24"
     inkscape:window-maximized="1"
     inkscape:current-layer="svg3187" />
  <metadata
     id="metadata10">
    <rdf:RDF>
      <cc:Work
         rdf:about="">
        <dc:format>image/svg+xml</dc:format>
        <dc:type
           rdf:resource="http://purl.org/dc/dcmitype/StillImage" />
        <dc:title></dc:title>
      </cc:Work>
    </rdf:RDF>
  </metadata>
  <path
     id="path2496-2"
     style="opacity:.3;stroke-width:2;stroke:#000;stroke-linecap:round;fill:none"
     d="m12.95 13.95-0.5656-0.5657m0.0707-8.8388l0.495-0.4947m-9.3341 0.5657-0.5656-0.5657m-2.0503 4.9498h1m12 0h1m-7-6v-1" />
  <path
     id="path2496"
     style="stroke-width:2;stroke:#dfdbd2;stroke-linecap:round;fill:none"
     d="m12.95 12.95-0.566-0.566m0.071-8.8388 0.495-0.495m-9.3341 0.5657-0.5656-0.5657m-2.0503 4.9498h1m12 0h1m-7-6v-1" />
  <path
     sodipodi:type="arc"
     style="fill:#000000;fill-opacity:0.29803922;fill-rule:evenodd;stroke:none"
     id="path2991"
     sodipodi:cx="7.552"
     sodipodi:cy="7.2063999"
     sodipodi:rx="2.2783999"
     sodipodi:ry="2.4191999"
     d="m 9.8304,7.2063999 a 2.2783999,2.4191999 0 1 1 -4.5567999,0 2.2783999,2.4191999 0 1 1 4.5567999,0 z"
     transform="matrix(1.7579786,0,0,1.6450803,-5.2506541,-2.8055069)" />
  <path
     transform="matrix(1.7579786,0,0,1.6450803,-5.2250541,-3.7271069)"
     d="m 9.8304,7.2063999 a 2.2783999,2.4191999 0 1 1 -4.5567999,0 2.2783999,2.4191999 0 1 1 4.5567999,0 z"
     sodipodi:ry="2.4191999"
     sodipodi:rx="2.2783999"
     sodipodi:cy="7.2063999"
     sodipodi:cx="7.552"
     id="path3761"
     style="fill:#dfdbd2;fill-opacity:1;fill-rule:evenodd;stroke:none"
     sodipodi:type="arc" />
  <path
     id="path2496-2-3"
     style="opacity:0.3;fill:none;stroke:#000000;stroke-width:2;stroke-linecap:round"
     d="m 3.0366,13.92365 0.5657,-0.5656 m 4.3837,1.6157 0,1"
     inkscape:connector-curvature="0"
     sodipodi:nodetypes="cccc" />
  <path
     id="path2496-25"
     style="fill:none;stroke:#dfdbd2;stroke-width:2;stroke-linecap:round"
     d="m 3.0362,12.92345 0.566,-0.566 m 8.8388,0.071 0.495,0.495 m -4.9498,1.05 0,1"
     inkscape:connector-curvature="0"
     sodipodi:nodetypes="cccccc" />
</svg>
