<?xml version="1.0" encoding="UTF-8" standalone="no"?>
<!-- Created with Inkscape (http://www.inkscape.org/) -->

<svg
   xmlns:dc="http://purl.org/dc/elements/1.1/"
   xmlns:cc="http://creativecommons.org/ns#"
   xmlns:rdf="http://www.w3.org/1999/02/22-rdf-syntax-ns#"
   xmlns:svg="http://www.w3.org/2000/svg"
   xmlns="http://www.w3.org/2000/svg"
   xmlns:sodipodi="http://sodipodi.sourceforge.net/DTD/sodipodi-0.dtd"
   xmlns:inkscape="http://www.inkscape.org/namespaces/inkscape"
   id="svg3200"
   height="24"
   width="24"
   version="1.0"
   inkscape:version="0.48.1 r9760"
   sodipodi:docname="2.svg">
  <defs
     id="defs11" />
  <sodipodi:namedview
     pagecolor="#ffffff"
     bordercolor="#666666"
     borderopacity="1"
     objecttolerance="10"
     gridtolerance="10"
     guidetolerance="10"
     inkscape:pageopacity="0"
     inkscape:pageshadow="2"
     inkscape:window-width="1175"
     inkscape:window-height="746"
     id="namedview9"
     showgrid="false"
     inkscape:zoom="13.208333"
     inkscape:cx="12"
     inkscape:cy="12.946372"
     inkscape:window-x="264"
     inkscape:window-y="73"
     inkscape:window-maximized="0"
     inkscape:current-layer="svg3200" />
  <metadata
     id="metadata8">
    <rdf:RDF>
      <cc:Work
         rdf:about="">
        <dc:format>image/svg+xml</dc:format>
        <dc:type
           rdf:resource="http://purl.org/dc/dcmitype/StillImage" />
        <dc:title></dc:title>
      </cc:Work>
    </rdf:RDF>
  </metadata>
  <path
     sodipodi:type="inkscape:offset"
     inkscape:radius="4.6734624"
     inkscape:original="M 64 -37.1875 L 53.78125 -21.25 L 35.1875 -25.40625 L 39.3125 -7.0625 L 23.21875 3 L 39.3125 13.0625 L 35.1875 31.40625 L 53.78125 27.25 L 64 43.1875 L 74.21875 27.25 L 92.8125 31.40625 L 88.6875 13.0625 L 104.78125 3 L 88.6875 -7.0625 L 92.8125 -25.40625 L 74.21875 -21.25 L 64 -37.1875 z M 64 -22.09375 C 70.602564 -14.217006 77.209936 -6.376741 83.8125 1.5 L 73.5 1.5 L 73.5 22.5 L 54.5 22.5 L 54.5 1.5 L 44.1875 1.5 C 50.790065 -6.376741 57.397436 -14.217006 64 -22.09375 z "
     style="color:#000000;fill:#ba4712;fill-opacity:1;fill-rule:nonzero;stroke:none;stroke-width:0.98542732000000000;marker:none;visibility:visible;display:inline;overflow:visible;enable-background:accumulate;opacity:0.2"
     id="path3807-7"
     d="m 64,-41.875 a 4.6739297,4.6739297 0 0 0 -3.9375,2.15625 l -8.46875,13.1875 -15.375,-3.4375 A 4.6739297,4.6739297 0 0 0 30.625,-24.375 L 34.03125,-9.28125 20.75,-0.96875 a 4.6739297,4.6739297 0 0 0 0,7.9375 L 34.03125,15.28125 30.625,30.375 a 4.6739297,4.6739297 0 0 0 5.59375,5.59375 l 15.375,-3.4375 8.46875,13.1875 a 4.6739297,4.6739297 0 0 0 7.875,0 l 8.46875,-13.1875 15.375,3.4375 A 4.6739297,4.6739297 0 0 0 97.375,30.375 L 93.96875,15.28125 107.25,6.96875 a 4.6739297,4.6739297 0 0 0 0,-7.9375 L 93.96875,-9.28125 97.375,-24.375 a 4.6739297,4.6739297 0 0 0 -5.59375,-5.59375 l -15.375,3.4375 -8.46875,-13.1875 A 4.6739297,4.6739297 0 0 0 64,-41.875 z m 0,27.0625 c 3.253901,3.875673 6.498323,7.7549435 9.75,11.625 l -0.25,0 A 4.6739297,4.6739297 0 0 0 68.8125,1.5 l 0,16.3125 -9.625,0 0,-16.3125 A 4.6739297,4.6739297 0 0 0 54.5,-3.1875 l -0.25,0 c 3.251677,-3.8700566 6.496099,-7.749327 9.75,-11.625 z"
     transform="matrix(0.23841876,0,0,-0.23841876,-3.4510133,12.75304)" />
  <path
     transform="matrix(0.22081155,0,0,-0.22081155,-2.4323299,12.657535)"
     d="m 64,-41.875 a 4.6739297,4.6739297 0 0 0 -3.9375,2.15625 l -8.46875,13.1875 -15.375,-3.4375 A 4.6739297,4.6739297 0 0 0 30.625,-24.375 L 34.03125,-9.28125 20.75,-0.96875 a 4.6739297,4.6739297 0 0 0 0,7.9375 L 34.03125,15.28125 30.625,30.375 a 4.6739297,4.6739297 0 0 0 5.59375,5.59375 l 15.375,-3.4375 8.46875,13.1875 a 4.6739297,4.6739297 0 0 0 7.875,0 l 8.46875,-13.1875 15.375,3.4375 A 4.6739297,4.6739297 0 0 0 97.375,30.375 L 93.96875,15.28125 107.25,6.96875 a 4.6739297,4.6739297 0 0 0 0,-7.9375 L 93.96875,-9.28125 97.375,-24.375 a 4.6739297,4.6739297 0 0 0 -5.59375,-5.59375 l -15.375,3.4375 -8.46875,-13.1875 A 4.6739297,4.6739297 0 0 0 64,-41.875 z m 0,27.0625 c 3.253901,3.875673 6.498323,7.7549435 9.75,11.625 l -0.25,0 A 4.6739297,4.6739297 0 0 0 68.8125,1.5 l 0,16.3125 -9.625,0 0,-16.3125 A 4.6739297,4.6739297 0 0 0 54.5,-3.1875 l -0.25,0 c 3.251677,-3.8700566 6.496099,-7.749327 9.75,-11.625 z"
     id="path3798"
     style="color:#000000;fill:#ba4712;fill-opacity:1;fill-rule:nonzero;stroke:none;stroke-width:0.98542732;marker:none;visibility:visible;display:inline;overflow:visible;enable-background:accumulate"
     inkscape:original="M 64 -37.1875 L 53.78125 -21.25 L 35.1875 -25.40625 L 39.3125 -7.0625 L 23.21875 3 L 39.3125 13.0625 L 35.1875 31.40625 L 53.78125 27.25 L 64 43.1875 L 74.21875 27.25 L 92.8125 31.40625 L 88.6875 13.0625 L 104.78125 3 L 88.6875 -7.0625 L 92.8125 -25.40625 L 74.21875 -21.25 L 64 -37.1875 z M 64 -22.09375 C 70.602564 -14.217006 77.209936 -6.376741 83.8125 1.5 L 73.5 1.5 L 73.5 22.5 L 54.5 22.5 L 54.5 1.5 L 44.1875 1.5 C 50.790065 -6.376741 57.397436 -14.217006 64 -22.09375 z "
     inkscape:radius="4.6734624"
     sodipodi:type="inkscape:offset" />
  <path
     id="path2990"
     style="opacity:0.3;fill-rule:evenodd"
     d="M 15.432168,13.746414 11.601509,17.577072 7.7708504,13.746414 H 10.069246 V 8.3834928 h 3.064527 v 5.3629212 h 2.298395 z"
     inkscape:connector-curvature="0" />
  <path
     id="path2986"
     style="fill:#dfdbd2;fill-rule:evenodd"
     d="M 15.432168,12.980283 11.601509,16.810941 7.7708504,12.980283 H 10.069246 V 7.6173606 h 3.064527 v 5.3629224 h 2.298395 z"
     inkscape:connector-curvature="0" />
</svg>
