<?xml version="1.0" encoding="UTF-8" standalone="no"?>
<!-- Created with Inkscape (http://www.inkscape.org/) -->

<svg
   xmlns:dc="http://purl.org/dc/elements/1.1/"
   xmlns:cc="http://creativecommons.org/ns#"
   xmlns:rdf="http://www.w3.org/1999/02/22-rdf-syntax-ns#"
   xmlns:svg="http://www.w3.org/2000/svg"
   xmlns="http://www.w3.org/2000/svg"
   xmlns:sodipodi="http://sodipodi.sourceforge.net/DTD/sodipodi-0.dtd"
   xmlns:inkscape="http://www.inkscape.org/namespaces/inkscape"
   id="svg3675"
   height="48"
   width="48"
   version="1.0"
   inkscape:version="0.48.1 r9760"
   sodipodi:docname="plugins-uncategorized.svg">
  <sodipodi:namedview
     pagecolor="#ffffff"
     bordercolor="#666666"
     borderopacity="1"
     objecttolerance="10"
     gridtolerance="10"
     guidetolerance="10"
     inkscape:pageopacity="0"
     inkscape:pageshadow="2"
     inkscape:window-width="998"
     inkscape:window-height="779"
     id="namedview24"
     showgrid="false"
     inkscape:zoom="6.6041667"
     inkscape:cx="24"
     inkscape:cy="25.892744"
     inkscape:window-x="0"
     inkscape:window-y="24"
     inkscape:window-maximized="0"
     inkscape:current-layer="svg3675" />
  <metadata
     id="metadata29">
    <rdf:RDF>
      <cc:Work
         rdf:about="">
        <dc:format>image/svg+xml</dc:format>
        <dc:type
           rdf:resource="http://purl.org/dc/dcmitype/StillImage" />
      </cc:Work>
    </rdf:RDF>
  </metadata>
  <defs
     id="defs3677">
    <linearGradient
       id="linearGradient2407"
       y2="5.4676"
       gradientUnits="userSpaceOnUse"
       x2="63.397"
       gradientTransform="matrix(2.2923807,0,0,2.2922723,-118.34286,30.821275)"
       y1="-12.489"
       x1="63.397">
      <stop
         id="stop4875"
         style="stop-color:#fff"
         offset="0" />
      <stop
         id="stop4877"
         style="stop-color:#fff;stop-opacity:0"
         offset="1" />
    </linearGradient>
    <radialGradient
       id="radialGradient2410"
       gradientUnits="userSpaceOnUse"
       cy="3.99"
       cx="23.896"
       gradientTransform="matrix(0,2.4788791,-3.272012,0,37.300412,-59.184521)"
       r="20.397">
      <stop
         id="stop2778"
         style="stop-color:#8badea"
         offset="0" />
      <stop
         id="stop2780"
         style="stop-color:#6396cd"
         offset=".26238" />
      <stop
         id="stop2782"
         style="stop-color:#3b7caf"
         offset=".66094" />
      <stop
         id="stop2784"
         style="stop-color:#194c70"
         offset="1" />
    </radialGradient>
    <linearGradient
       id="linearGradient2412"
       y2="3.0816"
       gradientUnits="userSpaceOnUse"
       x2="18.379"
       gradientTransform="matrix(1.0386259,0,0,1.0386259,-0.68141279,-2.1540475)"
       y1="44.98"
       x1="18.379">
      <stop
         id="stop2788"
         style="stop-color:#1f4b6a"
         offset="0" />
      <stop
         id="stop2790"
         style="stop-color:#4083c2"
         offset="1" />
    </linearGradient>
    <radialGradient
       id="radialGradient2415"
       gradientUnits="userSpaceOnUse"
       cy="4.625"
       cx="62.625"
       gradientTransform="matrix(2.2588175,0,0,0.81593323,-117.36244,35.254542)"
       r="10.625">
      <stop
         id="stop8840"
         offset="0" />
      <stop
         id="stop8842"
         style="stop-opacity:0"
         offset="1" />
    </radialGradient>
  </defs>
  <path
     id="path8836"
     style="opacity:0.3;fill:url(#radialGradient2415);fill-rule:evenodd"
     d="m 48.091483,39.027857 c 0,4.787623 -10.744696,8.669304 -24,8.669304 -13.255305,0 -24.00000036,-3.881681 -24.00000036,-8.669304 0,-4.787624 10.74469536,-8.669304 24.00000036,-8.669304 13.255304,0 24,3.88168 24,8.669304 z"
     inkscape:connector-curvature="0" />
  <path
     id="path2555"
     style="fill:url(#radialGradient2410);stroke:url(#linearGradient2412);stroke-width:1.08767271;stroke-linecap:round;stroke-linejoin:round"
     d="m 24.245524,1.643433 c -11.658047,0 -21.1292613,9.471431 -21.1292613,21.129262 -2.167e-4,11.658046 9.4712143,21.129261 21.1292613,21.129261 11.658048,0 21.129262,-9.471215 21.129262,-21.129261 0,-11.658047 -9.471214,-21.129262 -21.129262,-21.129262 z"
     inkscape:connector-curvature="0" />
  <path
     id="path8655"
     style="opacity:0.4;fill:none;stroke:url(#linearGradient2407);stroke-width:1.08366299"
     d="m 44.293291,22.771828 c 0,11.072868 -8.975982,20.04885 -20.047767,20.04885 -11.071785,0 -20.0477656,-8.975982 -20.0477656,-20.04885 0,-11.071785 8.9759806,-20.0466825 20.0477656,-20.0466825 11.071785,0 20.047767,8.9748975 20.047767,20.0466825 z"
     inkscape:connector-curvature="0" />
  <path
     id="path9053"
     style="opacity:0.2"
     d="m 25.231658,28.368948 c -0.07152,-2.556362 0.501736,-5.03795 2.916137,-6.795651 2.550943,-1.987439 5.007606,-4.474445 4.748611,-7.406837 -0.05743,-2.827277 -3.351769,-5.0422844 -6.900766,-5.3608817 -3.992215,-0.5537511 -8.823184,0.8138311 -10.161508,3.9326137 -0.678374,1.516044 -0.04877,4.237122 2.228012,4.237122 1.331821,0 1.944091,-0.860428 2.044872,-1.648251 0.07585,-0.594931 -0.169052,-1.12701 -0.313179,-1.618993 -0.164717,-0.560254 0.537497,-1.646084 1.302562,-2.089302 0.639361,-0.369529 1.307981,-0.493066 1.406595,-0.516907 2.295199,-0.551585 4.582811,0.666452 5.537518,2.149987 0.954708,1.482451 -0.09536,3.732136 -1.605988,5.920052 -1.51171,2.186831 -3.132871,4.671671 -3.126368,7.31039 0,1.005639 -0.08885,1.346994 -0.026,1.753367 0.05093,0.324015 1.125926,0.285003 1.94951,0.133291 z m -1.046819,3.439546 c -2.194417,-0.119203 -3.713713,2.368887 -2.395979,3.954286 1.177943,1.750116 4.478779,1.318818 5.045536,-0.663201 0.587345,-1.542053 -0.827919,-3.316009 -2.649557,-3.291085 z"
     inkscape:connector-curvature="0" />
  <path
     id="path3298"
     style="fill:#ffffff"
     d="m 25.231658,29.45261 c -0.07152,-2.556361 0.501736,-5.037948 2.916137,-6.79565 2.550943,-1.987439 5.007606,-4.474445 4.748611,-7.406837 -0.05743,-2.827277 -3.351769,-5.042284 -6.900766,-5.3608817 -3.992215,-0.5537508 -8.823184,0.8138317 -10.161508,3.9326147 -0.678374,1.516044 -0.04877,4.237122 2.228012,4.237122 1.331821,0 1.944091,-0.860429 2.044872,-1.648252 0.07585,-0.59493 -0.169052,-1.127009 -0.313179,-1.618993 -0.164717,-0.560254 0.537497,-1.646084 1.302562,-2.089302 0.639361,-0.36953 1.307981,-0.493067 1.406595,-0.516907 2.295199,-0.551585 4.582811,0.666453 5.537518,2.149987 0.954708,1.482451 -0.09536,3.732136 -1.605988,5.920051 -1.51171,2.186833 -3.132871,4.671671 -3.126368,7.31039 0,1.00564 -0.08885,1.346994 -0.026,1.753368 0.05093,0.324015 1.125926,0.285003 1.94951,0.13329 z m -1.046819,3.439547 c -2.194417,-0.119203 -3.713713,2.368887 -2.395979,3.954286 1.177943,1.750117 4.478779,1.318818 5.045536,-0.663202 0.587345,-1.542052 -0.827919,-3.316008 -2.649557,-3.291084 z"
     inkscape:connector-curvature="0" />
</svg>
