<?xml version="1.0" encoding="UTF-8" standalone="no"?>
<!-- Created with Inkscape (http://www.inkscape.org/) -->
<svg id="svg2816" xmlns:rdf="http://www.w3.org/1999/02/22-rdf-syntax-ns#" xmlns="http://www.w3.org/2000/svg" height="22" width="22" version="1.0" xmlns:cc="http://creativecommons.org/ns#" xmlns:dc="http://purl.org/dc/elements/1.1/">
 <metadata id="metadata8">
  <rdf:RDF>
   <cc:Work rdf:about="">
    <dc:format>image/svg+xml</dc:format>
    <dc:type rdf:resource="http://purl.org/dc/dcmitype/StillImage"/>
    <dc:title/>
   </cc:Work>
  </rdf:RDF>
 </metadata>
 <path id="path4168" style="opacity:.6;fill:#3a3935" d="m1.0312 8.7383c0 6.0625 0.0625 11.5 8.4375 11.5 6.974 0 8.1174-3.6947 8.3125-8.5 2.0194-0.0018 3.1875-0.06004 3.1875-0.5625v-1.125c0-0.60353-1.343-0.5625-3.125-0.5625 0.000581-0.25097 0-0.49577 0-0.75h-16.812z"/>
 <path id="path4170" style="fill:#eae3d0" d="m1.6942 9.4454c0 3.8086-0.62252 9.8427 7.7525 9.8427 6.974 0 7.3219-3.2749 7.517-8.0802 2.0194-0.0018 3.3643 0.24932 3.3643-0.25314l0.0221-0.63886c0-0.60353-1.4977-0.31943-3.2797-0.31943 0.000581-0.25097 0.000004-0.29689 0.000004-0.55113h-15.376z"/>
</svg>
