<?xml version="1.0" encoding="UTF-8" standalone="no"?>
<!-- Created with Inkscape (http://www.inkscape.org/) -->
<svg xmlns:dc="http://purl.org/dc/elements/1.1/" xmlns:cc="http://creativecommons.org/ns#" xmlns:rdf="http://www.w3.org/1999/02/22-rdf-syntax-ns#" xmlns:svg="http://www.w3.org/2000/svg" xmlns="http://www.w3.org/2000/svg" xmlns:sodipodi="http://sodipodi.sourceforge.net/DTD/sodipodi-0.dtd" xmlns:inkscape="http://www.inkscape.org/namespaces/inkscape" width="22" height="22" id="svg3121" version="1.1" inkscape:version="0.47 r22583" sodipodi:docname="turpial_mono.svg" inkscape:export-filename="/home/javier/turpial_icon.png" inkscape:export-xdpi="33.75" inkscape:export-ydpi="33.75">
  <defs id="defs3123">
    <inkscape:perspective sodipodi:type="inkscape:persp3d" inkscape:vp_x="0 : 526.18109 : 1" inkscape:vp_y="0 : 1000 : 0" inkscape:vp_z="744.09448 : 526.18109 : 1" inkscape:persp3d-origin="372.04724 : 350.78739 : 1" id="perspective3129"/>
    <inkscape:perspective id="perspective3109" inkscape:persp3d-origin="0.5 : 0.33333333 : 1" inkscape:vp_z="1 : 0.5 : 1" inkscape:vp_y="0 : 1000 : 0" inkscape:vp_x="0 : 0.5 : 1" sodipodi:type="inkscape:persp3d"/>
    <inkscape:perspective id="perspective2832" inkscape:persp3d-origin="11 : 7.3333333 : 1" inkscape:vp_z="22 : 11 : 1" inkscape:vp_y="0 : 1000 : 0" inkscape:vp_x="0 : 11 : 1" sodipodi:type="inkscape:persp3d"/>
    <inkscape:perspective id="perspective3650" inkscape:persp3d-origin="11 : 7.3333333 : 1" inkscape:vp_z="22 : 11 : 1" inkscape:vp_y="0 : 1000 : 0" inkscape:vp_x="0 : 11 : 1" sodipodi:type="inkscape:persp3d"/>
  </defs>
  <sodipodi:namedview id="base" pagecolor="#ffffff" bordercolor="#666666" borderopacity="1.0" inkscape:pageopacity="0.0" inkscape:pageshadow="2" inkscape:zoom="6.7617085" inkscape:cx="16.19573" inkscape:cy="0.1353359" inkscape:document-units="px" inkscape:current-layer="layer1" showgrid="false" inkscape:window-width="1024" inkscape:window-height="552" inkscape:window-x="0" inkscape:window-y="24" inkscape:window-maximized="1">
    <inkscape:grid type="xygrid" id="grid3023" empspacing="5" visible="true" enabled="true" snapvisiblegridlinesonly="true"/>
  </sodipodi:namedview>
  <metadata id="metadata3126">
    <rdf:RDF>
      <cc:Work rdf:about="">
        <dc:format>image/svg+xml</dc:format>
        <dc:type rdf:resource="http://purl.org/dc/dcmitype/StillImage"/>
        <dc:title/>
      </cc:Work>
    </rdf:RDF>
  </metadata>
  <g inkscape:label="Capa 1" inkscape:groupmode="layer" id="layer1" transform="translate(0, -1030.36)">
    <g id="g4102" transform="matrix(0.0846185, 0, 0, 0.0846185, -4.80655, 950.009)">
      <path id="path4072" transform="translate(0, 1030.36)" d="m 197.34375,-63.03125 c -1.33266,-0.01351 -2.66502,-0.0041 -4,0.03125 C 131.89524,-63.52525 76.13639,-9.473 74.75,52 c -2.03717,43.8452 21.32402,88.5198 60.09375,109.5 36.71924,-20.834 60.41062,-62.17775 59.9375,-104.46875 42.2398,0.3926 83.615,-23.28295 104.1875,-60.09375 -20.40798,-35.828444 -60.3126,-59.549848 -101.625,-59.96875 z m -10.1875,24.1875 c 30.49277,0.19018 60.2348,15.416937 78.5,39.75 C 258.72105,11.67285 248.1457,20.3167 237.125,27 203.46895,48.686743 157.25511,44.536958 125.59375,21.125 c 14.76577,25.996719 12.07447,60.956219 -6.0625,84.71875 -21.116896,-25.554205 -20.828805,-64.907762 -2.125,-91.5 -4.22819,-3.936708 -8.08923,-8.2798079 -11.5,-13 18.01043,-24.4621 47.89371,-39.96519 78.3125,-40.15625 0.98487,-0.02535 1.95386,-0.03739 2.9375,-0.03125 z" style="opacity:0.6;fill:#3a3935;fill-opacity:1;stroke:none"/>
      <path id="path4028" transform="translate(0, 1030.36)" d="m 195.09375,-53 c -36.34559,0 -68.50856,17.667416 -88.53125,44.84375 -0.51459,0.698446 -1.03285,1.4141279 -1.53125,2.125 -0.0134,0.018797 -0.0179,0.043694 -0.0312,0.0625 -0.0895,0.1277894 -0.1923,0.246815 -0.28125,0.375 -0.4132,0.5856037 -0.81752,1.1561028 -1.21875,1.75 -1.97678,2.926 -3.80661,5.9452 -5.5,9.0625 -1.69339,3.1172 -3.23342,6.3349 -4.625,9.625 -1.39158,3.29 -2.64742,6.64935 -3.71875,10.09375 -1.07133,3.4445 -1.95485,6.9822 -2.6875,10.5625 -0.73265,3.5804 -1.31196,7.20835 -1.6875,10.90625 -0.37554,3.6979 -0.5625,7.453 -0.5625,11.25 0,3.7969 0.18696,7.5521 0.5625,11.25 0.37554,3.6979 0.95485,7.32595 1.6875,10.90625 0.73265,3.5804 1.61617,7.1181 2.6875,10.5625 1.07133,3.4445 2.32717,6.80365 3.71875,10.09375 1.39158,3.29 2.93161,6.5077 4.625,9.625 1.69339,3.1173 3.52322,6.1365 5.5,9.0625 1.97678,2.9261 4.10201,5.75245 6.34375,8.46875 2.24173,2.7164 4.60549,5.3243 7.09375,7.8125 2.48826,2.4883 5.09614,4.85195 7.8125,7.09375 2.71635,2.2417 5.54273,4.36705 8.46875,6.34375 0.48372,0.3268 1.01084,0.58695 1.5,0.90625 30.07821,-19.6313 50,-53.5277 50,-92.125 0,-3.780485 -0.22068,-7.506199 -0.59375,-11.1875 C 187.73209,46.825433 191.39301,47 195.0938,47 c 3.79697,0 7.5522,-0.187 11.25,-0.5625 3.6979,-0.3755 7.32585,-0.9549 10.90625,-1.6875 3.5804,-0.7327 7.1181,-1.6162 10.5625,-2.6875 3.4444,-1.0713 6.80375,-2.32715 10.09375,-3.71875 3.2901,-1.3915 6.5078,-2.9316 9.625,-4.625 3.1173,-1.6933 6.1365,-3.5232 9.0625,-5.5 2.9261,-1.9767 5.75235,-4.10205 8.46875,-6.34375 2.7163,-2.2417 5.3242,-4.60545 7.8125,-7.09375 2.4882,-2.4882 4.85205,-5.0961 7.09375,-7.8125 2.2418,-2.7163 4.36695,-5.54275 6.34375,-8.46875 0.3268,-0.4837 0.58705,-1.0108 0.90625,-1.5 -19.6313,-30.07821 -53.52773,-50 -92.125,-50 z m -7.9375,14.15625 c 30.49277,0.19018 60.2348,15.416937 78.5,39.75 C 258.72105,11.67285 248.1457,20.3167 237.125,27 221.1107,37.319038 202.24919,41.794941 183.46875,41.125 179.18542,12.788074 164.0777,-11.965077 142.5,-28.875 c 12.9796,-6.30493 27.2875,-9.846858 41.71875,-9.9375 0.98487,-0.02535 1.95386,-0.03739 2.9375,-0.03125 z M 137.96875,-23 c 5.52285,0 10,4.477153 10,10 0,5.5228475 -4.47715,10 -10,10 -5.52285,0 -10,-4.4771525 -10,-10 0,-5.522847 4.47715,-10 10,-10 z M 119.25,11.8125 c 21.58313,26.3691 20.69027,67.29195 0.28125,94.03125 C 97.93879,79.71405 98.71539,39.1519 118.6875,12.5625 l 0.5625,-0.75 z" style="fill:#eae3d1;fill-opacity:1;stroke:none"/>
    </g>
  </g>
</svg>