<?xml version="1.0" encoding="UTF-8" standalone="no"?>
<!-- Created with Inkscape (http://www.inkscape.org/) -->

<svg
   xmlns:dc="http://purl.org/dc/elements/1.1/"
   xmlns:cc="http://creativecommons.org/ns#"
   xmlns:rdf="http://www.w3.org/1999/02/22-rdf-syntax-ns#"
   xmlns:svg="http://www.w3.org/2000/svg"
   xmlns="http://www.w3.org/2000/svg"
   xmlns:sodipodi="http://sodipodi.sourceforge.net/DTD/sodipodi-0.dtd"
   xmlns:inkscape="http://www.inkscape.org/namespaces/inkscape"
   width="1920"
   height="1080"
   viewBox="0 0 1920 1080"
   id="svg4183"
   version="1.1"
   inkscape:version="0.91 r"
   sodipodi:docname="Wallpaper1.svg">
  <defs
     id="defs4185" />
  <sodipodi:namedview
     id="base"
     pagecolor="#ffffff"
     bordercolor="#666666"
     borderopacity="1.0"
     inkscape:pageopacity="0.0"
     inkscape:pageshadow="2"
     inkscape:zoom="0.89036929"
     inkscape:cx="735.45109"
     inkscape:cy="540"
     inkscape:document-units="px"
     inkscape:current-layer="layer1"
     showgrid="false"
     units="px" />
  <metadata
     id="metadata4188">
    <rdf:RDF>
      <cc:Work
         rdf:about="">
        <dc:format>image/svg+xml</dc:format>
        <dc:type
           rdf:resource="http://purl.org/dc/dcmitype/StillImage" />
        <dc:title></dc:title>
      </cc:Work>
    </rdf:RDF>
  </metadata>
  <g
     inkscape:label="Livello 1"
     inkscape:groupmode="layer"
     id="layer1"
     transform="translate(0,27.637839)">
    <rect
       style="opacity:1;fill:#70737e;fill-opacity:1;stroke:none;stroke-width:1;stroke-linecap:round;stroke-linejoin:round;stroke-miterlimit:4;stroke-dasharray:none;stroke-dashoffset:0;stroke-opacity:1"
       id="rect4731"
       width="1920"
       height="1080"
       x="-4.3596538e-06"
       y="-27.737839" />
    <g
       id="g4724"
       transform="translate(-102.20619,-33.037973)">
      <g
         id="g4743"
         transform="translate(5.7323443,-19.310392)">
        <g
           id="g4759"
           transform="translate(139.90522,3.5250035)" />
        <g
           id="g4164"
           transform="translate(-7.3602655e-7,-65.558795)">
          <g
             id="g4872"
             transform="translate(95.458308,-23.593946)" />
          <g
             id="g4154"
             transform="translate(-3.7222754e-5,0)">
            <g
               id="g4167"
               transform="translate(7.222754e-6,19.99884)">
              <g
                 id="g4151"
                 transform="matrix(0.68840731,0,0,0.68840731,425.50133,222.30642)">
                <g
                   transform="translate(89.013504,-4.239246)"
                   id="g4753">
                  <g
                     id="logo"
                     transform="matrix(3.741016,0,0,3.7410163,438.58229,350.02822)">
                    <path
                       inkscape:connector-curvature="0"
                       id="roundel"
                       d="M 95.00015,50.000432 C 95.00015,74.852315 74.852463,95 49.999138,95 25.146388,95 4.9998625,74.852315 4.9998625,50.000432 c 0,-24.853612 20.1465255,-45.0004322 44.9992755,-45.0004322 24.853325,0 45.001012,20.1468202 45.001012,45.0004322"
                       style="fill:#dd4814;fill-opacity:1;fill-rule:nonzero;stroke:none" />
                    <path
                       inkscape:connector-curvature="0"
                       id="circle-of-friends"
                       d="m 62.295912,28.701087 c 2.873376,1.659372 6.546563,0.675122 8.204788,-2.197388 1.659075,-2.873664 0.675688,-6.546562 -2.197975,-8.205644 -2.873087,-1.658504 -6.545987,-0.674543 -8.205062,2.199121 -1.6585,2.872509 -0.67455,6.545408 2.19825,8.203911 z M 50,67.549813 c -2.641888,0 -5.145512,-0.587374 -7.392837,-1.632816 l -4.174551,7.480879 C 41.919625,75.124499 45.845375,76.10009 50,76.10009 c 2.416175,0 4.7524,-0.334819 6.9726,-0.949614 0.392825,-2.413 1.825625,-4.636944 4.109888,-5.956013 2.280224,-1.316469 4.919225,-1.446933 7.203499,-0.583622 4.4424,-4.368222 7.333101,-10.311246 7.753925,-16.929679 l -8.5624,-0.124687 C 66.689537,60.521517 59.168538,67.549813 50,67.549813 Z m 0,-35.099916 c 9.168538,0 16.689537,7.029739 17.477512,15.993631 l 8.5624,-0.124975 C 75.6185,41.700699 72.727812,35.757675 68.284837,31.389741 66.00085,32.252475 63.362137,32.121722 61.081625,30.804963 58.797637,29.486472 57.365137,27.262817 56.972312,24.849528 54.7524,24.235311 52.416175,23.900204 50,23.900204 c -4.154625,0 -8.080075,0.975302 -11.566813,2.702502 l 4.174263,7.480012 C 44.854487,33.037277 47.358112,32.449902 50,32.449902 Z M 32.450338,49.999856 c 0,-5.93754 2.950725,-11.181774 7.4624,-14.357351 l -4.392175,-7.357919 c -5.257513,3.512993 -9.168825,8.882784 -10.793275,15.172749 1.897787,1.546802 3.11035,3.902363 3.11035,6.543097 0,2.640447 -1.21285,4.996008 -3.110638,6.542522 1.624163,6.290252 5.535475,11.660045 10.793275,15.173037 l 4.392463,-7.358207 c -4.511675,-3.175289 -7.4624,-8.419523 -7.4624,-14.357928 z m 29.84645,21.298479 c -2.873675,1.659081 -3.857625,5.331691 -2.198838,8.2042 1.659088,2.873663 5.331688,3.858202 8.20535,2.199121 2.8728,-1.658794 3.85705,-5.331691 2.197975,-8.205066 -1.658512,-2.872221 -5.3317,-3.85676 -8.204487,-2.198255 z M 19.400513,43.992755 c -3.31875,0 -6.007975,2.688936 -6.007975,6.007677 0,3.317876 2.689225,6.007102 6.007975,6.007102 3.317587,0 6.0071,-2.689226 6.0071,-6.007102 0,-3.318741 -2.689513,-6.007677 -6.0071,-6.007677"
                       style="fill:#ffffff;fill-opacity:1;fill-rule:nonzero;stroke:none" />
                  </g>
                </g>
                <path
                   inkscape:connector-curvature="0"
                   id="path4197"
                   d="m 970.88207,697.67191 c -11.30364,-5.59835 -7.67618,-10.23107 9.7122,-12.40358 11.8699,-1.48307 17.23273,-3.64394 19.48413,-7.85088 4.6808,-8.74584 1.561,-13.12126 -16.70625,-23.43069 -9.31543,-5.25728 -19.7679,-14.11419 -23.7165,-20.09603 -7.67605,-11.62902 -14.81008,-39.29431 -12.01263,-46.58448 1.05635,-2.75254 -2.79332,-10.00445 -9.76532,-18.396 -6.32998,-7.61876 -13.51021,-17.85162 -15.95603,-22.73971 -7.56554,-15.11976 -16.10383,-46.47054 -18.25567,-67.0305 -2.75165,-26.29046 -10.23691,-33.7097 -37.03898,-36.71286 -19.84925,-2.22406 -22.89022,-3.91293 -29.23578,-16.23701 -2.09739,-4.0734 -5.8279,-11.08746 -8.2901,-15.58677 -4.00345,-7.31579 -3.99547,-8.66176 0.0746,-12.7322 5.97223,-5.9721 15.15132,-1.32271 17.73841,8.98472 1.52741,6.08572 3.66714,7.47619 11.44997,7.44068 21.93745,-0.1 37.71521,-17.80759 37.71521,-42.32782 0,-13.47803 -1.0943,-15.87391 -11.97881,-26.2282 -6.58841,-6.26736 -11.71066,-13.0598 -11.38273,-15.09432 0.32793,-2.03448 -0.36947,-5.89184 -1.54965,-8.57189 -1.1803,-2.68002 -1.72379,-10.01215 -1.20786,-16.2936 l 0.93798,-11.42086 22.30573,-0.85346 c 19.12229,-0.73167 24.30312,0.20856 36.30137,6.58809 11.19993,5.95503 15.51134,6.86524 21.58369,4.55656 11.08223,-4.21346 13.74627,-3.57735 11.72251,2.79903 -1.21066,3.81418 -0.25457,6.00692 2.90596,6.66557 3.9265,0.81827 3.45065,2.68392 -2.86016,11.21356 -8.49408,11.48035 -8.2941,17.88261 1.53034,49.01755 3.08491,9.77618 7.62133,24.6307 10.08113,33.01003 2.45967,8.37934 13.63696,29.70918 24.83836,47.39962 24.92001,39.3564 28.15421,45.59379 37.75861,72.81936 9.6477,27.34873 15.1088,32.50184 30.1214,28.42292 17.9043,-4.8646 34.4267,-19.81187 49.9808,-45.2162 16.4932,-26.93805 38.7876,-46.98291 58.0814,-52.22066 15.3784,-4.17488 47.0635,-1.90415 62.1452,4.45365 28.2653,11.91536 47.4925,42.28001 49.2882,77.83844 2.3433,46.4058 -22.0098,78.39557 -75.0996,98.64931 -20.7646,7.9217 -61.1034,9.62922 -79.269,3.35542 -19.0081,-6.56472 -20.8894,-20.13615 -3.7833,-27.29167 3.6401,-1.52268 0.7472,-1.68477 -7.3032,-0.40925 -19.5818,3.10257 -58.8099,1.95924 -73.6981,-2.14799 -15.6835,-4.32656 -18.2876,-2.3582 -20.2813,15.33061 -1.0903,9.67286 0.1721,16.29136 4.8603,25.4808 7.6227,14.94199 6.3861,18.07359 -13.8883,35.16918 -10.0879,8.50627 -15.612,11.40505 -17.7191,9.29794 -2.1071,-2.1071 -4.94716,-2.0524 -9.10972,0.17538 -7.15813,3.83084 -11.51561,3.66264 -20.50963,-0.79179 z m 175.52693,-87.8081 c 2.3172,-3.74931 -1.6046,-3.74931 -7.4062,0 -3.8295,2.47487 -3.7514,2.87802 0.5658,2.91712 2.7552,0.0237 5.8335,-1.28775 6.8404,-2.91712 z"
                   style="fill:#333333;fill-opacity:1" />
              </g>
              <path
                 transform="translate(95.458308,-23.593949)"
                 style="font-style:normal;font-variant:normal;font-weight:bold;font-stretch:normal;font-size:40px;line-height:125%;font-family:Xenu;text-align:start;text-anchor:start;fill:#333333;fill-opacity:1;stroke:none"
                 d="m 1025.2814,751.39178 0,18.49962 c -10e-5,4.71031 2.2817,7.33898 6.8451,7.33898 1.2217,0 2.4255,-0.0539 3.6113,-0.1618 1.1857,-0.10787 2.1918,-0.26966 3.0183,-0.48542 l 0,-25.19138 5.3899,0 0,28.53535 c -1.617,0.5753 -3.4855,0.98881 -5.6055,1.24049 -2.12,0.28767 -4.258,0.43148 -6.414,0.43148 -4.0244,0 -7.0787,-1.28029 -9.1628,-3.29387 -2.0841,-2.01356 -3.1261,-5.06986 -3.1261,-9.16891 l 0,-17.74454 5.4438,0 m -83.50072,0 0,18.49962 c -10e-6,4.71031 2.28172,7.33898 6.84517,7.33898 1.22169,0 2.42545,-0.0539 3.61124,-0.1618 1.18575,-0.10787 2.19187,-0.26966 3.01834,-0.48542 l 0,-25.19138 5.3899,0 0,28.53535 c -1.617,0.5753 -3.48549,0.98881 -5.6055,1.24049 -2.12004,0.28767 -4.25803,0.43148 -6.41398,0.43148 -4.02447,0 -7.07874,-1.28029 -9.16282,-3.29387 -2.0841,-2.01356 -3.12615,-5.06986 -3.12615,-9.16891 l 0,-17.74454 5.4438,0 m 61.39772,-9.54529 -4.85999,0.88125 -0.0109,29.41872 c 3e-5,5.64513 3.05499,9.34565 9.77439,9.34566 1.6529,-10e-6 4.8583,-0.44886 6.7627,-0.77245 l -0.6415,-3.80791 c -0.037,0.14978 -4.2881,0.58098 -6.5561,0.45695 -2.268,-0.12404 -4.3143,-1.97358 -4.5121,-3.87317 l 0.011,-17.78831 11.1988,0 0,-4.31924 -11.1988,0 0.033,-9.5415 z m -93.28589,-5.11346 -5.44711,0.88125 0,42.31285 c 3.198,1.11465 6.59424,1.67547 10.18751,1.67547 0.61511,0 1.21061,-0.0213 1.78309,-0.0653 l 0,-0.0109 c 10.62466,0.0512 16.12332,-8.37302 14.70117,-18.14902 -1.11772,-6.89532 -6.84062,-12.71837 -13.53779,-12.71837 -2.65899,0 -4.77936,0.71938 -6.36041,1.29468 -0.48196,0.1822 -0.91809,0.36993 -1.32644,0.56575 l 0,-15.78645 0,-2e-5 -2e-5,0 z m 7.63249,18.29966 c 5.97759,0.29465 8.37247,5.55528 8.55819,10.72738 0.2539,7.07089 -4.68144,12.05812 -11.34155,11.46889 -1.53774,-0.13605 -3.1603,-0.19198 -4.84913,-0.5875 l 0,-19.46547 c 0.71136,-0.6069 1.51363,-1.09109 2.40282,-1.447 1.25766,-0.46744 3.00557,-0.80593 5.22967,-0.6963 z m 55.89445,25.80748 -5.4438,0 0,-28.26183 c 1.65289,-0.57527 3.48546,-0.98877 5.49769,-1.2405 2.04815,-0.28762 4.15021,-0.43145 6.30619,-0.43148 8.04888,3e-5 12.07333,4.00917 12.07337,12.02745 l 0,17.90636 -5.3899,0 0,-18.66144 c -3e-5,-4.60241 -2.22785,-6.90363 -6.68347,-6.90365 -1.18581,2e-5 -2.33565,0.0539 -3.44954,0.1618 -1.11393,0.10788 -2.08411,0.25173 -2.91054,0.43149 l 0,24.9718 m -94.96011,-29.44839 0,18.49962 c -10e-6,4.71031 2.28172,7.33898 6.84517,7.33898 1.22169,0 2.42544,-0.0539 3.61124,-0.1618 1.18575,-0.10787 2.19186,-0.26966 3.01834,-0.48542 l 0,-25.19138 5.3899,0 0,28.53535 c -1.617,0.5753 -3.48549,0.98881 -5.6055,1.24049 -2.12005,0.28767 -4.25803,0.43148 -6.41398,0.43148 -4.02447,0 -7.07874,-1.28029 -9.16283,-3.29387 -2.08409,-2.01356 -3.12614,-5.06986 -3.12614,-9.16891 l 0,-17.74454 5.4438,0"
                 id="text-9"
                 inkscape:connector-curvature="0" />
              <text
                 xml:space="preserve"
                 style="font-style:normal;font-weight:normal;font-size:12.5px;line-height:125%;font-family:sans-serif;letter-spacing:0px;word-spacing:0px;fill:#333333;fill-opacity:1;stroke:none;stroke-width:1px;stroke-linecap:butt;stroke-linejoin:miter;stroke-opacity:1"
                 x="1055.6609"
                 y="795.70276"
                 id="text4749-6"
                 sodipodi:linespacing="125%"><tspan
                   sodipodi:role="line"
                   id="tspan4751-6"
                   x="1055.6609"
                   y="795.70276"
                   style="font-style:normal;font-variant:normal;font-weight:normal;font-stretch:normal;font-size:30.00000191px;font-family:ubutu;-inkscape-font-specification:ubutu;text-align:center;text-anchor:middle;fill:#333333;fill-opacity:1">16.04 LTS xenial xerus</tspan></text>
            </g>
            <text
               sodipodi:linespacing="125%"
               id="text4749-7"
               y="835.70044"
               x="1056.7815"
               style="font-style:normal;font-weight:normal;font-size:12.5px;line-height:125%;font-family:sans-serif;letter-spacing:0px;word-spacing:0px;fill:#333333;fill-opacity:1;stroke:none;stroke-width:1px;stroke-linecap:butt;stroke-linejoin:miter;stroke-opacity:1"
               xml:space="preserve"><tspan
                 style="font-style:normal;font-variant:normal;font-weight:normal;font-stretch:normal;font-size:30.00000191px;font-family:ubutu;-inkscape-font-specification:ubutu;text-align:center;text-anchor:middle;fill:#333333;fill-opacity:1"
                 y="835.70044"
                 x="1056.7815"
                 id="tspan4751-9"
                 sodipodi:role="line" /></text>
          </g>
        </g>
      </g>
    </g>
  </g>
</svg>
