<?xml version="1.0" encoding="UTF-8" standalone="no"?>
<!-- Created with Inkscape (http://www.inkscape.org/) -->

<svg
   xmlns:dc="http://purl.org/dc/elements/1.1/"
   xmlns:cc="http://creativecommons.org/ns#"
   xmlns:rdf="http://www.w3.org/1999/02/22-rdf-syntax-ns#"
   xmlns:svg="http://www.w3.org/2000/svg"
   xmlns="http://www.w3.org/2000/svg"
   xmlns:sodipodi="http://sodipodi.sourceforge.net/DTD/sodipodi-0.dtd"
   xmlns:inkscape="http://www.inkscape.org/namespaces/inkscape"
   id="svg3215"
   height="16"
   width="16"
   version="1.0"
   inkscape:version="0.48.1 r9760"
   sodipodi:docname="rhythmbox.svg">
  <defs
     id="defs9" />
  <sodipodi:namedview
     pagecolor="#ffffff"
     bordercolor="#666666"
     borderopacity="1"
     objecttolerance="10"
     gridtolerance="10"
     guidetolerance="10"
     inkscape:pageopacity="0"
     inkscape:pageshadow="2"
     inkscape:window-width="1347"
     inkscape:window-height="987"
     id="namedview7"
     showgrid="false"
     inkscape:zoom="14.409091"
     inkscape:cx="11.208202"
     inkscape:cy="11.867508"
     inkscape:window-x="316"
     inkscape:window-y="24"
     inkscape:window-maximized="0"
     inkscape:current-layer="svg3215" />
  <metadata
     id="metadata12">
    <rdf:RDF>
      <cc:Work
         rdf:about="">
        <dc:format>image/svg+xml</dc:format>
        <dc:type
           rdf:resource="http://purl.org/dc/dcmitype/StillImage" />
        <dc:title />
      </cc:Work>
    </rdf:RDF>
  </metadata>
  <path
     id="rect2406-8"
     style="opacity:0.3;fill-rule:evenodd"
     d="m 4.6863054,1.4091668 c -0.7332353,0 -1.3235294,0.5902941 -1.3235294,1.3235295 V 14.203285 c 0,0.733235 0.5902941,1.323529 1.3235294,1.323529 h 7.0588236 c 0.733235,0 1.323529,-0.590294 1.323529,-1.323529 V 2.7326963 c 0,-0.7332354 -0.590294,-1.3235295 -1.323529,-1.3235295 H 4.6863054 z M 8.215717,3.1738727 c 1.705588,0 3.088235,1.3827353 3.088235,3.0882353 0,1.7055883 -1.382647,3.0882353 -3.088235,3.0882353 -1.705941,0 -3.0886763,-1.382647 -3.0882351,-3.0882353 C 5.1270407,4.556608 6.509776,3.1738727 8.215717,3.1738727 z m 0,1.7647059 c -0.730588,0 -1.3235292,0.5925882 -1.3235292,1.3235294 0,0.7305883 0.5929412,1.3235294 1.3235292,1.3235294 0.730588,0 1.32353,-0.5929411 1.32353,-1.3235294 0,-0.7309412 -0.592942,-1.3235294 -1.32353,-1.3235294 z M 6.0098348,11.997402 c 0.4874383,0 0.8825294,0.3951 0.882353,0.882353 1.782e-4,0.487253 -0.3949147,0.882353 -0.882353,0.882353 -0.4874382,0 -0.8825294,-0.3951 -0.8823529,-0.882353 -1.782e-4,-0.487253 0.3949147,-0.882353 0.8823529,-0.882353 z m 4.4117652,0 c 0.487438,0 0.882529,0.3951 0.882352,0.882353 1.79e-4,0.487253 -0.394914,0.882353 -0.882352,0.882353 -0.487439,0 -0.88253,-0.3951 -0.882353,-0.882353 -1.79e-4,-0.487253 0.394914,-0.882353 0.882353,-0.882353 z"
     inkscape:connector-curvature="0" />
  <path
     id="rect2406"
     style="fill:#dfdbd2;fill-rule:evenodd"
     d="m 4.6863054,0.52681388 c -0.7332353,0 -1.3235294,0.59029412 -1.3235294,1.32352942 V 13.320932 c 0,0.733235 0.5902941,1.323529 1.3235294,1.323529 h 7.0588236 c 0.733235,0 1.323529,-0.590294 1.323529,-1.323529 V 1.8503433 c 0,-0.7332353 -0.590294,-1.32352942 -1.323529,-1.32352942 H 4.6863054 z M 8.215717,2.2915198 c 1.705588,0 3.088235,1.3827353 3.088235,3.0882353 0,1.7055882 -1.382647,3.0882353 -3.088235,3.0882353 -1.705941,0 -3.0886763,-1.3826471 -3.0882351,-3.0882353 -4.412e-4,-1.7055 1.3822941,-3.0882353 3.0882351,-3.0882353 z m 0,1.7647059 c -0.730588,0 -1.3235292,0.5925882 -1.3235292,1.3235294 0,0.7309412 0.5929412,1.3235294 1.3235292,1.3235294 0.730588,0 1.32353,-0.5925882 1.32353,-1.3235294 0,-0.7309412 -0.592942,-1.3235294 -1.32353,-1.3235294 z M 6.0098348,11.115049 c 0.4874383,0 0.8825294,0.3951 0.882353,0.882353 1.782e-4,0.487253 -0.3949147,0.882353 -0.882353,0.882353 -0.4874382,0 -0.8825294,-0.3951 -0.8823529,-0.882353 -1.782e-4,-0.487253 0.3949147,-0.882353 0.8823529,-0.882353 z m 4.4117652,0 c 0.487438,0 0.882529,0.3951 0.882352,0.882353 1.79e-4,0.487253 -0.394914,0.882353 -0.882352,0.882353 -0.487439,0 -0.88253,-0.3951 -0.882353,-0.882353 -1.79e-4,-0.487253 0.394914,-0.882353 0.882353,-0.882353 z"
     inkscape:connector-curvature="0" />
  <path
     id="path3201"
     style="opacity:0.3;fill:none;stroke:#ffffff;stroke-width:0.44117647;stroke-linecap:round"
     d="m 11.083364,5.3797551 c 0,1.5837353 -1.283912,2.867647 -2.867647,2.867647 -1.5837351,0 -2.8676469,-1.2839117 -2.8676469,-2.867647 0,-1.5837353 1.2839118,-2.8676471 2.8676469,-2.8676471 1.583735,0 2.867647,1.2839118 2.867647,2.8676471 z"
     inkscape:connector-curvature="0" />
</svg>
