<?xml version="1.0" encoding="UTF-8" standalone="no"?>
<!-- Created with Inkscape (http://www.inkscape.org/) -->

<svg
   xmlns:dc="http://purl.org/dc/elements/1.1/"
   xmlns:cc="http://creativecommons.org/ns#"
   xmlns:rdf="http://www.w3.org/1999/02/22-rdf-syntax-ns#"
   xmlns:svg="http://www.w3.org/2000/svg"
   xmlns="http://www.w3.org/2000/svg"
   xmlns:xlink="http://www.w3.org/1999/xlink"
   xmlns:sodipodi="http://sodipodi.sourceforge.net/DTD/sodipodi-0.dtd"
   xmlns:inkscape="http://www.inkscape.org/namespaces/inkscape"
   id="svg3411"
   height="22"
   width="22"
   version="1.0"
   inkscape:version="0.48.1 r9760"
   sodipodi:docname="preferences-system.svg">
  <metadata
     id="metadata62">
    <rdf:RDF>
      <cc:Work
         rdf:about="">
        <dc:format>image/svg+xml</dc:format>
        <dc:type
           rdf:resource="http://purl.org/dc/dcmitype/StillImage" />
        <dc:title></dc:title>
      </cc:Work>
    </rdf:RDF>
  </metadata>
  <sodipodi:namedview
     pagecolor="#ffffff"
     bordercolor="#666666"
     borderopacity="1"
     objecttolerance="10"
     gridtolerance="10"
     guidetolerance="10"
     inkscape:pageopacity="0"
     inkscape:pageshadow="2"
     inkscape:window-width="982"
     inkscape:window-height="752"
     id="namedview60"
     showgrid="false"
     inkscape:zoom="4.953125"
     inkscape:cx="32"
     inkscape:cy="34.523659"
     inkscape:window-x="505"
     inkscape:window-y="81"
     inkscape:window-maximized="0"
     inkscape:current-layer="svg3411" />
  <defs
     id="defs3413">
    <linearGradient
       id="XMLID_5_"
       y2="104.06"
       gradientUnits="userSpaceOnUse"
       x2="64"
       y1="21.941"
       x1="64">
      <stop
         id="stop24"
         style="stop-color:#dadada"
         offset="0" />
      <stop
         id="stop26"
         style="stop-color:#ccc"
         offset="1" />
    </linearGradient>
    <linearGradient
       id="XMLID_6_"
       y2="103.07"
       xlink:href="#XMLID_5_"
       gradientUnits="userSpaceOnUse"
       x2="64"
       y1="21.523001"
       x1="64">
      <stop
         id="stop31"
         style="stop-color:#d9d9d9"
         offset="0" />
      <stop
         id="stop33"
         style="stop-color:#ccc"
         offset="1" />
    </linearGradient>
    <linearGradient
       id="linearGradient2902"
       y2="103.07"
       xlink:href="#XMLID_6_"
       gradientUnits="userSpaceOnUse"
       x2="64"
       gradientTransform="matrix(0.17440431,0,0,0.17400301,-0.29921259,-0.55706558)"
       y1="21.523001"
       x1="64" />
    <linearGradient
       id="linearGradient2904"
       y2="102.05"
       xlink:href="#XMLID_6_"
       gradientUnits="userSpaceOnUse"
       x2="49.374001"
       gradientTransform="matrix(0.17440431,0,0,0.17400301,-0.29921259,-0.55706558)"
       y1="22.275"
       x1="49.272999" />
    <linearGradient
       id="linearGradient2907"
       y2="104.06"
       xlink:href="#XMLID_5_"
       gradientUnits="userSpaceOnUse"
       x2="64"
       gradientTransform="matrix(0.15111442,0,0,0.15076993,1.191291,1.0387539)"
       y1="21.941"
       x1="64" />
    <linearGradient
       id="linearGradient2909"
       y2="20.895"
       gradientUnits="userSpaceOnUse"
       x2="84.639"
       gradientTransform="matrix(0.15111442,0,0,0.15076993,1.191291,1.0387539)"
       y1="105.1"
       x1="86.133003">
      <stop
         id="stop5130"
         style="stop-color:#fff"
         offset="0" />
      <stop
         id="stop5132"
         style="stop-color:#959595"
         offset="1" />
    </linearGradient>
    <linearGradient
       id="linearGradient2912"
       y2="117.23"
       gradientUnits="userSpaceOnUse"
       x2="64"
       gradientTransform="matrix(0.17610897,0,0,0.17599888,-0.41115179,-0.38930948)"
       y1="6.8743"
       x1="64">
      <stop
         id="stop11"
         style="stop-color:#f2f2f2"
         offset="0" />
      <stop
         id="stop13"
         style="stop-color:#d8d8d8"
         offset="1" />
    </linearGradient>
    <radialGradient
       id="radialGradient2916"
       gradientUnits="userSpaceOnUse"
       cy="73.615997"
       cx="6.7027001"
       gradientTransform="matrix(1.4293206,0,0,0.45514379,1.2795071,-14.656071)"
       r="7.2284002">
      <stop
         id="stop10693"
         offset="0" />
      <stop
         id="stop10695"
         style="stop-opacity:0"
         offset="1" />
    </radialGradient>
    <linearGradient
       id="linearGradient3408"
       y2="81.926003"
       gradientUnits="userSpaceOnUse"
       x2="335.29999"
       gradientTransform="matrix(1.7376,0,0,1.728,-530.46,-8.9744)"
       y1="64.294998"
       x1="304.76001">
      <stop
         id="stop4436"
         style="stop-color:#d3d7cf"
         offset="0" />
      <stop
         id="stop4438"
         style="stop-color:#babdb6"
         offset=".18304" />
      <stop
         id="stop4440"
         style="stop-color:#fff"
         offset=".31893" />
      <stop
         id="stop4442"
         style="stop-color:#babdb6"
         offset=".87644" />
      <stop
         id="stop4444"
         style="stop-color:#eeeeec"
         offset="1" />
    </linearGradient>
    <linearGradient
       id="linearGradient3410"
       y2="61.011002"
       gradientUnits="userSpaceOnUse"
       x2="308.94"
       gradientTransform="matrix(1.7376,0,0,1.728,-530.46,-8.9744)"
       y1="51.382999"
       x1="300.92999">
      <stop
         id="stop7446"
         style="stop-color:#888a85"
         offset="0" />
      <stop
         id="stop7448"
         style="stop-color:#555753"
         offset="1" />
    </linearGradient>
    <linearGradient
       id="linearGradient3412"
       y2="60.768002"
       gradientUnits="userSpaceOnUse"
       x2="308.64999"
       gradientTransform="matrix(1.7376,0,0,1.728,-530.46,-8.9744)"
       y1="58.443001"
       x1="302.29001">
      <stop
         id="stop7383"
         style="stop-color:#babdb6"
         offset="0" />
      <stop
         id="stop7385"
         style="stop-color:#fff"
         offset="1" />
    </linearGradient>
    <linearGradient
       id="linearGradient3414"
       y2="88.005997"
       gradientUnits="userSpaceOnUse"
       x2="317.16"
       gradientTransform="matrix(1.7376,0,0,1.728,-530.46,-8.9744)"
       y1="75.574997"
       x1="326.60001">
      <stop
         id="stop7423-6"
         style="stop-color:#fff"
         offset="0" />
      <stop
         id="stop7425-0"
         style="stop-color:#fff;stop-opacity:0"
         offset="1" />
    </linearGradient>
    <linearGradient
       id="linearGradient3416"
       y2="35.078999"
       gradientUnits="userSpaceOnUse"
       x2="90.221001"
       gradientTransform="matrix(1.0384,-1.036,0.90828,0.90612,-106.63,180.04)"
       y1="35.152"
       x1="97.442001">
      <stop
         id="stop4958"
         style="stop-color:#f8b17e"
         offset="0" />
      <stop
         id="stop4960"
         style="stop-color:#e35d4f"
         offset=".26238" />
      <stop
         id="stop4962"
         style="stop-color:#c6262e"
         offset=".66347" />
      <stop
         id="stop4964"
         style="stop-color:#690b54"
         offset="1" />
    </linearGradient>
    <linearGradient
       id="linearGradient3418"
       y2="27.273001"
       gradientUnits="userSpaceOnUse"
       x2="36.000999"
       gradientTransform="matrix(1.2622,0,0,1.26,-15.624,77.286)"
       y1="34.022999"
       x1="29.278">
      <stop
         id="stop2492"
         style="stop-color:#791235"
         offset="0" />
      <stop
         id="stop2494"
         style="stop-color:#dd3b27"
         offset="1" />
    </linearGradient>
    <linearGradient
       id="linearGradient3420"
       y2="44.139999"
       gradientUnits="userSpaceOnUse"
       x2="-9.7747002"
       gradientTransform="matrix(0.63166,-0.62958,1.0718,1.0683,-15.764,65.934)"
       y1="44.229"
       x1="-6.3077998">
      <stop
         id="stop6223"
         offset="0" />
      <stop
         id="stop6225"
         style="stop-opacity:0"
         offset="1" />
    </linearGradient>
  </defs>
  <path
     id="path10689"
     style="opacity:0.4;fill:url(#radialGradient2916)"
     d="m 21.191516,18.848635 c -5.68e-4,1.816811 -4.626017,3.289529 -10.331651,3.289529 -5.7056338,0 -10.33129549,-1.472718 -10.33165059,-3.289529 -5.789e-4,-1.817095 4.62530649,-3.290204 10.33165059,-3.290204 5.706344,0 10.332361,1.473145 10.331651,3.290204 z"
     inkscape:connector-curvature="0" />
  <path
     id="path6"
     style="opacity:0.1;fill:#030303;stroke-width:2.66669989"
     d="m 20.272066,8.154034 h -0.796679 c -0.215025,0 -0.463632,-0.1785275 -0.531996,-0.3818435 -0.0038,-0.010569 -0.494422,-1.1955338 -0.494422,-1.1955338 -0.100972,-0.2026377 -0.05214,-0.503691 0.09981,-0.6554766 l 0.563283,-0.5620046 c 0.129444,-0.1293126 0.200951,-0.3017281 0.200951,-0.4855435 0,-0.1838119 -0.07151,-0.3562381 -0.200951,-0.485366 L 16.89388,2.1755839 C 16.76461,2.046456 16.591659,1.975251 16.407342,1.9751089 c -0.184234,0 -0.357055,0.07118 -0.486502,0.2004927 L 15.357592,2.7375707 C 15.205594,2.8890367 14.903727,2.9379035 14.711598,2.8421231 14.700944,2.8371511 13.51301,2.3478076 13.51301,2.3478076 13.298507,2.2756438 13.119518,2.027616 13.119518,1.8130776 V 1.018032 C 13.119163,0.63934922 12.810549,0.33133882 12.431262,0.33133882 H 9.2947965 c -0.37957,0 -0.688256,0.3080033 -0.688256,0.68669318 v 0.7950456 c 0,0.2145277 -0.178935,0.4625662 -0.382695,0.530788 -0.0106,0.00396 -1.1982688,0.4932855 -1.1982688,0.4932855 C 6.8224738,2.9378929 6.5205362,2.8890083 6.3686085,2.7374002 L 5.8053609,2.1755732 C 5.6757359,2.0462678 5.5027841,1.9750983 5.318823,1.9750983 c -0.1842345,0 -0.3570549,0.071343 -0.4865024,0.2004927 L 2.6141339,4.3882376 c -0.2683239,0.2677059 -0.2683239,0.7032071 0,0.9709095 l 0.563283,0.5620045 C 3.3292097,6.0727597 3.3782044,6.373987 3.2821966,6.5657256 3.2772282,6.5764614 2.7866027,7.7614014 2.7866027,7.7614014 2.7142648,7.9754355 2.4658073,8.1537925 2.2507717,8.1537925 H 1.6604982 C 1.2811052,8.1539576 0.76580121,8.4619628 0.76580121,8.8406633 v 3.1290787 c 0,0.378682 0.30871359,0.686693 0.68825579,0.686693 h 0.7968568 c 0.2150213,0 0.4636315,0.17836 0.5318534,0.381843 0.00397,0.01057 0.4945995,1.195534 0.4945995,1.195534 0.1009726,0.202638 0.051978,0.503691 -0.099815,0.655477 l -0.5632831,0.562004 c -0.2683239,0.26771 -0.2683239,0.703207 0,0.97091 l 2.2180802,2.212824 c 0.129444,0.129149 0.3022573,0.200496 0.4865024,0.200496 0.1843979,0 0.357197,-0.07135 0.4866445,-0.200496 l 0.5632831,-0.562005 c 0.1519561,-0.151441 0.4538653,-0.200329 0.6460655,-0.104541 0.010757,0.005 1.198446,0.494457 1.198446,0.494457 0.214361,0.07217 0.393314,0.320061 0.393314,0.534588 v 0.794868 c 0,0.378683 0.308714,0.686693 0.688256,0.686693 h 3.1362877 c 0.379394,0 0.688114,-0.308003 0.688114,-0.686693 v -0.794868 c 0,-0.214527 0.178936,-0.462601 0.382874,-0.530788 0.01059,-0.0038 1.198268,-0.493285 1.198268,-0.493285 0.203103,-0.100742 0.505183,-0.05202 0.657004,0.09959 l 0.563283,0.562005 c 0.129444,0.129149 0.302257,0.200496 0.486502,0.200496 0.184235,0 0.357055,-0.07135 0.486503,-0.200496 l 2.217938,-2.212824 c 0.129447,-0.12915 0.200954,-0.301565 0.200954,-0.485366 0,-0.183812 -0.07151,-0.356238 -0.200954,-0.485366 l -0.563283,-0.562008 c -0.151956,-0.151608 -0.200788,-0.452835 -0.10478,-0.644574 0.005,-0.01073 0.495594,-1.195676 0.495594,-1.195676 0.07234,-0.213867 0.320795,-0.392391 0.535831,-0.392391 h 0.796679 c 0.379571,0 0.688256,-0.308003 0.688256,-0.686693 V 8.8407165 C 20.960464,8.4620338 20.651714,8.1540233 20.272172,8.1540233 z m -9.409004,5.172928 c -1.6147385,0 -2.9285325,-1.310633 -2.9285325,-2.921678 0,-1.6110443 1.313794,-2.92182 2.9285325,-2.92182 1.614915,0 2.92839,1.3107757 2.92839,2.92182 0,1.611187 -1.313475,2.921678 -2.92839,2.921678 z"
     inkscape:connector-curvature="0" />
  <path
     id="path8"
     style="fill:url(#linearGradient2912);stroke:#888888;stroke-width:0.3529886;stroke-linecap:round;stroke-linejoin:round"
     d="m 20.269225,8.1501275 h -0.79668 c -0.215021,0 -0.463631,-0.1788578 -0.531995,-0.3824828 -0.0038,-0.010572 -0.494422,-1.1973449 -0.494422,-1.1973449 -0.100973,-0.202968 -0.05214,-0.5045434 0.09981,-0.6564711 l 0.563283,-0.5629989 c 0.129444,-0.1294759 0.200954,-0.3022218 0.200954,-0.4863604 0,-0.1839752 -0.07151,-0.3567353 -0.200954,-0.4861828 l -2.218187,-2.216269 c -0.12927,-0.129483 -0.302222,-0.20083 -0.486538,-0.20083 -0.184234,0 -0.357055,0.071343 -0.486502,0.2008229 L 15.354751,2.7248319 C 15.202753,2.8766175 14.900886,2.9254844 14.708757,2.8295263 14.698103,2.8245899 13.510169,2.3344296 13.510169,2.3344296 13.295666,2.2620882 13.117032,2.0137052 13.117032,1.7988473 V 1.0024877 C 13.116322,0.62313012 12.807708,0.31465802 12.428421,0.31465802 H 9.2919555 c -0.37957,0 -0.688256,0.3085005 -0.688256,0.68786518 v 0.7963596 c 0,0.2148579 -0.178939,0.4634185 -0.382696,0.5316048 -0.01059,0.00396 -1.1982679,0.4941378 -1.1982679,0.4941378 -0.2031029,0.1009052 -0.5050405,0.05202 -0.6569682,-0.099751 L 5.8025198,2.1620176 c -0.129625,-0.129483 -0.3025768,-0.20083 -0.4865379,-0.20083 -0.1842345,0 -0.3570549,0.07151 -0.4865024,0.2008229 L 2.6113283,4.3786347 c -0.2683239,0.2682031 -0.2683239,0.7045211 0,0.9725786 l 0.563283,0.562999 C 3.3264005,6.0659837 3.3753988,6.3677224 3.279391,6.5599582 3.2744262,6.570694 2.7837971,7.7576228 2.7837971,7.7576228 2.7114592,7.9719871 2.4630017,8.1506886 2.2479661,8.1506886 H 1.6576927 C 1.2784062,8.1503334 0.76310211,8.4589476 0.76310211,8.8382341 v 3.1343699 c 0,0.37918 0.30871369,0.687688 0.68825589,0.687688 h 0.7968567 c 0.2150214,0 0.4636316,0.17869 0.5318535,0.382482 0.00397,0.01057 0.4945995,1.197345 0.4945995,1.197345 0.1009726,0.202968 0.051978,0.504686 -0.099815,0.656649 L 2.6114276,15.45966 c -0.2683239,0.268037 -0.2683239,0.704522 0,0.972579 l 2.2180802,2.216482 c 0.129444,0.129476 0.3022573,0.20082 0.4865024,0.20082 0.1844015,0 0.357197,-0.07134 0.4866445,-0.20082 L 6.3659378,18.0859 c 0.1519561,-0.151772 0.4538653,-0.200823 0.6460655,-0.104705 0.010757,0.0048 1.1984462,0.495132 1.1984462,0.495132 0.214361,0.07233 0.393314,0.320554 0.393314,0.535582 v 0.796182 c 0,0.379358 0.308714,0.687865 0.688256,0.687865 h 3.1362875 c 0.379393,0 0.688114,-0.3085 0.688114,-0.687865 v -0.796182 c 0,-0.215025 0.17894,-0.463418 0.382874,-0.531782 0.01059,-0.0038 1.198268,-0.494138 1.198268,-0.494138 0.203103,-0.100909 0.505182,-0.05186 0.656968,0.09975 l 0.563283,0.562821 c 0.129444,0.12948 0.302257,0.200823 0.486503,0.200823 0.184234,0 0.357054,-0.07134 0.486502,-0.200823 l 2.217938,-2.216482 c 0.129444,-0.129312 0.200951,-0.302058 0.200951,-0.486218 0,-0.184142 -0.07151,-0.356877 -0.200951,-0.486183 l -0.563283,-0.562999 c -0.151956,-0.151771 -0.200787,-0.453652 -0.10478,-0.645568 0.005,-0.0109 0.495594,-1.197665 0.495594,-1.197665 0.07234,-0.214531 0.320799,-0.393208 0.535831,-0.393208 h 0.796679 c 0.379571,0 0.688256,-0.3085 0.688256,-0.687687 V 8.8381809 c 0.0011,-0.3799968 -0.307548,-0.688611 -0.68719,-0.688611 z m -9.409004,5.4080295 c -1.7517865,0 -3.1768445,-1.421757 -3.1768445,-3.169387 0,-1.7477719 1.425058,-3.1695636 3.1768445,-3.1695636 1.751643,0 3.176666,1.4217561 3.176666,3.1695636 0,1.74763 -1.425059,3.169387 -3.176666,3.169387 z"
     inkscape:connector-curvature="0" />
  <path
     id="path28"
     style="fill:url(#linearGradient2907);stroke:url(#linearGradient2909);stroke-width:0.3529886"
     d="m 10.862706,4.2645717 c -3.4667425,0 -6.2869933,2.8139649 -6.2869933,6.2727883 0,3.458787 2.8204284,6.272788 6.2869933,6.272788 3.466743,0 6.286994,-2.813965 6.286994,-6.272788 0,-3.4587879 -2.820429,-6.2727883 -6.286994,-6.2727883 z m 0,10.8863753 c -2.5540045,0 -4.6242411,-2.065229 -4.6242411,-4.613587 0,-2.5482872 2.0701296,-4.6135874 4.6242411,-4.6135874 2.554005,0 4.624242,2.0653712 4.624242,4.6135874 0,2.548145 -2.070131,4.613587 -4.624242,4.613587 z"
     inkscape:connector-curvature="0" />
  <path
     id="path35"
     style="fill:url(#linearGradient2902);stroke:url(#linearGradient2904);stroke-width:0.3529886"
     d="m 10.862706,5.01107 c -2.9859935,0 -5.4066083,2.4150038 -5.4066083,5.394179 0,2.979139 2.4205798,5.394178 5.4066083,5.394178 2.985994,0 5.406609,-2.415004 5.406609,-5.394178 0,-2.9791397 -2.42058,-5.394179 -5.406609,-5.394179 z m 0,8.961176 c -1.9747755,0 -3.5751659,-1.597016 -3.5751659,-3.566997 0,-1.970266 1.6004964,-3.5669982 3.5751659,-3.5669982 1.974599,0 3.575166,1.5968387 3.575166,3.5669982 0,1.970088 -1.600674,3.566997 -3.575166,3.566997 z"
     inkscape:connector-curvature="0" />
  <g
     id="g3400"
     transform="matrix(-0.35513717,0,0,0.35513717,16.287072,-27.575961)">
    <path
       id="path6912"
       style="fill:url(#linearGradient3408);fill-rule:evenodd;stroke:url(#linearGradient3410);stroke-linecap:round;stroke-linejoin:round;stroke-dashoffset:0.3612;enable-background:new"
       d="m -0.1702,80.359 c -1.6551,-0.31324 -0.63726,1.1754 -0.21911,1.7039 1.2034,2.1736 2.4675,4.3168 3.6323,6.5097 0.32388,1.4731 -0.94902,2.6937 -2.0009,3.5193 -1.6697,1.1622 -3.774,2.2362 -5.8596,1.7306 -1.0499,-0.32635 -1.3099,-1.5015 -1.8644,-2.3244 -1.1382,-2.0151 -2.2601,-4.0438 -3.4085,-6.0499 -1.057,-0.03106 -1.0606,1.6908 -1.2078,2.525 -0.36797,3.5123 0.30692,7.4727 3.0263,9.955 2.2086,2.038 5.4077,2.8303 8.34,2.2988 2.5809,0.80851 5.0506,2.1008 6.9719,4.0294 1.7635,-1.8693 3.527,-3.7385 5.2905,-5.6078 -1.712,-1.681 -3.1337,-3.679 -4.0166,-5.917 0.8368,-3.055 -0.2394,-6.416 -2.4888,-8.596 -1.7169,-1.718 -3.8596,-3.098 -6.1958,-3.777 z"
       inkscape:connector-curvature="0" />
    <path
       id="path7379"
       style="fill:url(#linearGradient3412);fill-rule:evenodd;enable-background:new"
       d="m -0.1661,80.99 c 0.0325,0.01206 0.01211,0.05391 0,0.05409 l 3.9096,6.966 c 0.52741,0.93844 0.147,2.0467 -0.4887,2.97 -0.64202,0.93241 -1.6368,1.8358 -2.9322,2.538 -1.2982,0.70368 -2.6598,1.0416 -3.801,1.08 -1.1387,0.03835 -2.2075,-0.28496 -2.715,-1.188 l -3.9096,-7.02 c -0.02241,-0.0034 -0.05803,0.0034 -0.05439,0 0.03579,-0.03802 0.0069,0.02765 0,0.05408 -0.72096,3.0899 -0.34703,6.6612 0.97739,9.018 1.8116,3.2239 5.594,4.7637 9.3395,4.104 3.7286,-0.664 6.9161,-3.893 7.7112,-6.966 0.502,-1.99 0.2881,-4.128 -0.7602,-5.994 -1.3209,-2.35 -4.2265,-4.564 -7.2762,-5.616 l 8.7e-5,-1.73e-4 z"
       inkscape:connector-curvature="0" />
    <path
       id="path2911"
       style="opacity:0.7;fill:none;stroke:url(#linearGradient3414);stroke-width:0.69999999;stroke-linecap:round;stroke-dashoffset:0.3612;enable-background:new"
       d="m 0.28099,81.494 c 1.3398,2.3286 2.6497,4.4221 3.8528,6.8255 0.40264,1.6794 -0.83105,3.2174 -2.0153,4.2563 -1.9925,1.573 -4.6736,2.7611 -7.2314,2.0501 -1.3008,-0.55721 -1.6952,-2.0164 -2.4028,-3.1209 l -2.4723,-4.348 c -0.69951,3.2929 -0.10579,6.9324 2.294,9.8875 2.0005,2.0305 5.0566,2.7324 7.8125,2.25 2.1189,0.21234 5.6091,2.7359 7.279,4.0562 l 4.5425,-4.4742 c -1.953,-1.954 -3.2964,-3.273 -4.2903,-5.894 0.2222,-1.55 0.4345,-3.15 -0.0585,-4.675 -0.8056,-2.77 -3.0118,-4.747 -5.4668,-6.006 l -1.8434,-0.807 z"
       inkscape:connector-curvature="0" />
    <path
       id="rect7166"
       style="opacity:0.1;fill-rule:evenodd;enable-background:new"
       d="m 7.7775,97.927 c -0.17954,0.01487 -0.33805,0.04961 -0.45081,0.15863 l -0.81966,0.83279 c -0.45102,0.43601 -0.1223,1.5084 0.77867,2.3794 l 2.7868,2.657 2.459,-2.419 -2.7458,-2.657 c -0.6758,-0.656 -1.4696,-0.999 -2.0082,-0.954 z"
       inkscape:connector-curvature="0" />
    <path
       id="path6899"
       style="fill:url(#linearGradient3416);stroke:url(#linearGradient3418);stroke-width:0.99962997;stroke-linecap:round;stroke-linejoin:round;stroke-dashoffset:0.7;enable-background:new"
       d="m 6.4998,103.58 26.847,28.59 c 1.7612,1.757 4.7764,1.527 6.7899,-0.48181 2.0136,-2.0088 2.2441,-5.0168 0.48297,-6.7738 l -28.666,-26.775 -5.4542,5.445 z m 28.182,22.674 c 1.001,-0.99862 2.6355,-0.99862 3.6364,0 1.001,0.99861 1.001,2.6292 1e-6,3.6278 -1.001,0.99861 -2.6355,0.99861 -3.6364,0 -1.001,-0.99862 -1.001,-2.6292 0,-3.6278 z"
       inkscape:connector-curvature="0" />
    <path
       id="rect6533"
       style="opacity:0.23106001;fill:url(#linearGradient3420)"
       d="m 11.47,103.15 c 0.69988,-0.69757 1.981,-0.54381 2.8725,0.34474 l 18.544,16.802 c 0.89146,0.88856 0.2026,3.0068 -0.49727,3.7044 -0.69988,0.69757 -2.8246,1.3856 -3.716,0.49701 l -16.857,-18.47 c -0.89146,-0.88856 -1.0457,-2.1655 -0.34581,-2.8631 z"
       inkscape:connector-curvature="0" />
  </g>
</svg>
