<?xml version="1.0" encoding="UTF-8" standalone="no"?>
<!-- Created with Inkscape (http://www.inkscape.org/) -->

<svg
   xmlns:dc="http://purl.org/dc/elements/1.1/"
   xmlns:cc="http://creativecommons.org/ns#"
   xmlns:rdf="http://www.w3.org/1999/02/22-rdf-syntax-ns#"
   xmlns:svg="http://www.w3.org/2000/svg"
   xmlns="http://www.w3.org/2000/svg"
   xmlns:xlink="http://www.w3.org/1999/xlink"
   xmlns:sodipodi="http://sodipodi.sourceforge.net/DTD/sodipodi-0.dtd"
   xmlns:inkscape="http://www.inkscape.org/namespaces/inkscape"
   id="svg11300"
   height="48"
   width="48"
   version="1.1"
   inkscape:version="0.48.1 r9760"
   sodipodi:docname="jockey.svg">
  <metadata
     id="metadata118">
    <rdf:RDF>
      <cc:Work
         rdf:about="">
        <dc:format>image/svg+xml</dc:format>
        <dc:type
           rdf:resource="http://purl.org/dc/dcmitype/StillImage" />
        <dc:title></dc:title>
      </cc:Work>
    </rdf:RDF>
  </metadata>
  <sodipodi:namedview
     pagecolor="#ffffff"
     bordercolor="#666666"
     borderopacity="1"
     objecttolerance="10"
     gridtolerance="10"
     guidetolerance="10"
     inkscape:pageopacity="0"
     inkscape:pageshadow="2"
     inkscape:window-width="850"
     inkscape:window-height="698"
     id="namedview116"
     showgrid="false"
     inkscape:zoom="6.6041667"
     inkscape:cx="24"
     inkscape:cy="19.835962"
     inkscape:window-x="481"
     inkscape:window-y="37"
     inkscape:window-maximized="0"
     inkscape:current-layer="svg11300" />
  <defs
     id="defs3">
    <linearGradient
       id="linearGradient4909">
      <stop
         id="stop4911"
         style="stop-color:#747474"
         offset="0" />
      <stop
         id="stop4913"
         style="stop-color:#b0b0b0"
         offset=".47842" />
      <stop
         id="stop4915"
         style="stop-color:#3f3f3f"
         offset="1" />
    </linearGradient>
    <linearGradient
       id="linearGradient4877">
      <stop
         id="stop4879"
         style="stop-color:#747474"
         offset="0" />
      <stop
         id="stop4881"
         style="stop-color:#fff"
         offset=".45349" />
      <stop
         id="stop4883"
         style="stop-color:#3f3f3f"
         offset="1" />
    </linearGradient>
    <linearGradient
       id="linearGradient6215">
      <stop
         id="stop6217"
         style="stop-color:#cfb900"
         offset="0" />
      <stop
         id="stop6219"
         style="stop-color:#e2d44d"
         offset="0.21" />
      <stop
         id="stop6221"
         style="stop-color:#9a8b00"
         offset="0.84" />
      <stop
         id="stop6223"
         style="stop-color:#cfb900"
         offset="1" />
    </linearGradient>
    <filter
       id="filter5745"
       color-interpolation-filters="sRGB">
      <feGaussianBlur
         id="feGaussianBlur5747"
         stdDeviation="0.8362597" />
    </filter>
    <linearGradient
       id="linearGradient6227">
      <stop
         id="stop6229"
         offset="0" />
      <stop
         id="stop6231"
         style="stop-opacity:0"
         offset="1" />
    </linearGradient>
    <filter
       id="filter6251"
       height="1.0952"
       width="1.4849"
       color-interpolation-filters="sRGB"
       y="-.047579"
       x="-.24243">
      <feGaussianBlur
         id="feGaussianBlur6253"
         stdDeviation="0.24444548" />
    </filter>
    <filter
       id="filter5957-5"
       height="1.1647"
       width="1.9882"
       color-interpolation-filters="sRGB"
       y="-.082353"
       x="-.49412">
      <feGaussianBlur
         id="feGaussianBlur5959-5"
         stdDeviation="0.69878785" />
    </filter>
    <linearGradient
       id="linearGradient3956"
       y2="11.5"
       xlink:href="#linearGradient6215"
       gradientUnits="userSpaceOnUse"
       x2="4.7127"
       gradientTransform="matrix(0 .66667 -1 0 29 16.667)"
       y1="11.5"
       x1="12.647" />
    <linearGradient
       id="linearGradient3982"
       y2="19.5"
       xlink:href="#linearGradient6215"
       gradientUnits="userSpaceOnUse"
       x2="4.3284"
       gradientTransform="matrix(0 .66667 -1 0 29 7.6667)"
       y1="19.5"
       x1="8" />
    <linearGradient
       id="linearGradient4002"
       y2="19.5"
       xlink:href="#linearGradient6215"
       gradientUnits="userSpaceOnUse"
       x2="4.3284"
       gradientTransform="matrix(.66667 0 0 1 2.6667 -5)"
       y1="19.5"
       x1="8" />
    <linearGradient
       id="linearGradient4005"
       y2="31.347"
       gradientUnits="userSpaceOnUse"
       x2="18.968"
       gradientTransform="matrix(.93474 0 0 1.1494 .51875 -8.8596)"
       y1="20.166"
       x1="16.965">
      <stop
         id="stop14863"
         style="stop-color:#fff"
         offset="0" />
      <stop
         id="stop14865"
         style="stop-color:#fff;stop-opacity:0"
         offset="1" />
    </linearGradient>
    <linearGradient
       id="linearGradient4022"
       y2="39.267"
       gradientUnits="userSpaceOnUse"
       x2="6.2377"
       gradientTransform="matrix(1.9844 0 0 1 3.0938 -5.0136)"
       y1="42.891"
       x1="6.221">
      <stop
         id="stop14782-0"
         style="stop-color:#d3ba00"
         offset="0" />
      <stop
         id="stop14784-4"
         style="stop-color:#d3ba00;stop-opacity:0"
         offset="1" />
    </linearGradient>
    <radialGradient
       id="radialGradient4820"
       gradientUnits="userSpaceOnUse"
       cy="15.407"
       cx="9"
       gradientTransform="matrix(2.3161 .014304 -.010170 1.6466 -11.688 -8.4984)"
       r="20">
      <stop
         id="stop14983-1"
         style="stop-color:#628430"
         offset="0" />
      <stop
         id="stop14985-7"
         style="stop-color:#364d17"
         offset="1" />
    </radialGradient>
    <radialGradient
       id="radialGradient4830"
       gradientUnits="userSpaceOnUse"
       cy="9.1705"
       cx="4"
       gradientTransform="matrix(1.9989 .083289 -.052631 1.2631 -3.5131 .083257)"
       r="19">
      <stop
         id="stop7624"
         style="stop-color:#fff"
         offset="0" />
      <stop
         id="stop7626"
         style="stop-color:#fff;stop-opacity:0"
         offset="1" />
    </radialGradient>
    <linearGradient
       id="linearGradient4859"
       y2="19.5"
       xlink:href="#linearGradient6215"
       gradientUnits="userSpaceOnUse"
       x2="27"
       gradientTransform="matrix(-.66667 0 0 1 41 -5)"
       y1="19.5"
       x1="24" />
    <linearGradient
       id="linearGradient4867"
       y2="22.75"
       xlink:href="#linearGradient4877"
       gradientUnits="userSpaceOnUse"
       x2="51.449"
       y1="22.75"
       x1="35.934" />
    <linearGradient
       id="linearGradient4891"
       y2="22.75"
       gradientUnits="userSpaceOnUse"
       x2="47.5"
       y1="22.75"
       x1="39">
      <stop
         id="stop14975"
         style="stop-color:#747474"
         offset="0" />
      <stop
         id="stop14977"
         style="stop-color:#b0b0b0"
         offset=".62069" />
      <stop
         id="stop14979"
         style="stop-color:#3f3f3f"
         offset="1" />
    </linearGradient>
    <linearGradient
       id="linearGradient4899"
       y2="20.018"
       xlink:href="#linearGradient4877"
       gradientUnits="userSpaceOnUse"
       x2="42.401"
       gradientTransform="matrix(1.1613 0 0 1.134 -5.8595 -2.3828)"
       y1="15.05"
       x1="42.366" />
    <linearGradient
       id="linearGradient4907"
       y2="20.99"
       xlink:href="#linearGradient4909"
       gradientUnits="userSpaceOnUse"
       x2="43.064"
       gradientTransform="matrix(1.1613 0 0 1.134 -5.8595 -2.3828)"
       y1="13.901"
       x1="43.161" />
    <linearGradient
       id="linearGradient4925"
       y2="20.018"
       xlink:href="#linearGradient4877"
       gradientUnits="userSpaceOnUse"
       x2="42.401"
       gradientTransform="matrix(1.1613 0 0 1.134 -5.8595 4.6172)"
       y1="15.05"
       x1="42.366" />
    <linearGradient
       id="linearGradient4927"
       y2="20.99"
       xlink:href="#linearGradient4909"
       gradientUnits="userSpaceOnUse"
       x2="43.064"
       gradientTransform="matrix(1.1613 0 0 1.134 -5.8595 4.6172)"
       y1="13.901"
       x1="43.161" />
    <radialGradient
       id="radialGradient3015"
       xlink:href="#linearGradient6227"
       gradientUnits="userSpaceOnUse"
       cy="46.87"
       cx="24.454"
       gradientTransform="matrix(.50982 0 0 .10274 24.532 41.169)"
       r="19.614" />
    <radialGradient
       id="radialGradient3018"
       xlink:href="#linearGradient6227"
       gradientUnits="userSpaceOnUse"
       cy="46.87"
       cx="24.454"
       gradientTransform="matrix(.81573 0 0 .12746 3.0519 34.526)"
       r="19.614" />
    <linearGradient
       id="linearGradient3074"
       y2="14.85"
       xlink:href="#linearGradient6227"
       gradientUnits="userSpaceOnUse"
       x2="33.004"
       gradientTransform="translate(1.6824 1.125)"
       y1="14.85"
       x1="35.005" />
    <linearGradient
       id="linearGradient3076"
       y2="13.789"
       xlink:href="#linearGradient6227"
       gradientUnits="userSpaceOnUse"
       x2="35.021"
       gradientTransform="translate(-19.533 1.7437)"
       y1="13.789"
       x1="32.128" />
    <linearGradient
       id="linearGradient3082"
       y2="17.47"
       gradientUnits="userSpaceOnUse"
       x2="27.192"
       gradientTransform="matrix(.40937 0 0 .47152 27.146 22.227)"
       y1="2.9137"
       x1="10.651">
      <stop
         id="stop10593"
         style="stop-color:#cad0c6"
         offset="0" />
      <stop
         id="stop10599"
         style="stop-color:#eaece9"
         offset=".5" />
      <stop
         id="stop10595"
         style="stop-color:#c5cbc0"
         offset="1" />
    </linearGradient>
    <radialGradient
       id="radialGradient3085"
       xlink:href="#linearGradient6227"
       gradientUnits="userSpaceOnUse"
       cy="20.312"
       cx="15.938"
       gradientTransform="matrix(.75472 0 0 .37736 29.472 25.622)"
       r="3.3125" />
    <radialGradient
       id="radialGradient3088"
       xlink:href="#linearGradient6227"
       gradientUnits="userSpaceOnUse"
       cy="20.312"
       cx="15.938"
       gradientTransform="matrix(.75472 0 0 .37736 20.472 25.622)"
       r="3.3125" />
    <linearGradient
       id="linearGradient3092"
       y2="18.038"
       gradientUnits="userSpaceOnUse"
       x2="21.942"
       gradientTransform="matrix(.45455 0 0 .25159 26.091 30.134)"
       y1="21.551"
       x1="21.942">
      <stop
         id="stop12073-2"
         style="stop-color:#fff"
         offset="0" />
      <stop
         id="stop12075-0"
         style="stop-color:#fff;stop-opacity:0"
         offset="1" />
    </linearGradient>
    <linearGradient
       id="linearGradient3095"
       y2="17"
       gradientUnits="userSpaceOnUse"
       x2="24.75"
       gradientTransform="matrix(.47059 0 0 .80748 25.706 18.849)"
       y1="21"
       x1="24.875">
      <stop
         id="stop5883-4"
         style="stop-color:#d6c8a7"
         offset="0" />
      <stop
         id="stop5885-2"
         style="stop-color:#d0bd99"
         offset="1" />
    </linearGradient>
    <linearGradient
       id="linearGradient3098"
       y2="36.127"
       gradientUnits="userSpaceOnUse"
       x2="30.875"
       gradientTransform="matrix(.45413 0 0 .50788 26.107 23.044)"
       y1="25.002"
       x1="10.907">
      <stop
         id="stop9847-6"
         style="stop-color:#fff"
         offset="0" />
      <stop
         id="stop9849-1"
         style="stop-color:#fff;stop-opacity:.49485"
         offset="1" />
    </linearGradient>
    <linearGradient
       id="linearGradient3101"
       y2="32.162"
       gradientUnits="userSpaceOnUse"
       x2="40.938"
       gradientTransform="matrix(.48580 0 0 .56676 25.342 20.282)"
       y1="32.162"
       x1="6.7268">
      <stop
         id="stop2413"
         style="stop-color:#fee7b1"
         offset="0" />
      <stop
         id="stop2419"
         style="stop-color:#ebd4b4"
         offset=".25797" />
      <stop
         id="stop2421"
         style="stop-color:#c8a775"
         offset=".50797" />
      <stop
         id="stop2423"
         style="stop-color:#b0935b"
         offset=".74010" />
      <stop
         id="stop2415"
         style="stop-color:#fcebbf"
         offset="1" />
    </linearGradient>
  </defs>
  <rect
     id="rect4923"
     style="stroke-linejoin:round;color:black;stroke:url(#linearGradient4927);stroke-linecap:round;stroke-width:.5;display:block;fill:url(#linearGradient4925)"
     rx="1"
     ry="1"
     height="4.5"
     width="5.5"
     y="22.25"
     x="39.25" />
  <rect
     id="rect15011"
     style="stroke-linejoin:round;color:black;stroke:url(#linearGradient4907);stroke-linecap:round;stroke-width:.5;display:block;fill:url(#linearGradient4899)"
     rx="1"
     ry="1"
     height="4.5"
     width="5.5"
     y="15.25"
     x="39.25" />
  <path
     id="rect14772"
     style="color:black;stroke:#28390d;display:block;fill:url(#radialGradient4820)"
     d="m1.501 8.6302 0.0039 26.72c0 0.07888 0.088802 0.15021 0.18678 0.15021l10.812 0.01563-0.0039 4.8533c0 0.07127 0.0224 0.12634 0.12428 0.12677l18.756-0.0078c0.09242-0.0037 0.12428-0.06374 0.12428-0.12677l0.0039-4.8689 8.9924 0.0078v-26.997h-38.875c-0.078447 0.0043-0.13209 0.05255-0.12428 0.12677z" />
  <path
     id="path14957"
     style="color:black;stroke:#305526;stroke-width:.5;display:block;fill:none"
     d="m25 18.472 0.06435 0.53094 2.4244 1.8922v4.6038h-17.059v3.9333" />
  <path
     id="path14826"
     style="color:black;stroke:#305526;stroke-width:.5;display:block;fill:none"
     d="m15.504 37.961 0.05485-5.645 1.901-2.7914h14.009l2.0442-2.0245 0.04419-3.0336-8.0431-5.9613 8.1101 0.04703-0.1875-3.9897h-8.9375" />
  <path
     id="path14842"
     style="color:black;stroke:#305526;stroke-width:.5;display:block;fill:none"
     d="m19.5 37.961 0.05485-5.7807 1.901-2.6665" />
  <path
     id="path14844"
     style="color:black;stroke:#305526;stroke-width:.5;display:block;fill:none"
     d="m22.5 37.961 0.05485-5.7807 1.901-2.6665" />
  <path
     id="path14846"
     style="color:black;stroke:#305526;stroke-width:.5;display:block;fill:none"
     d="m25.544 37.961 0.055-5.781 1.901-2.666" />
  <path
     id="path14796"
     style="color:black;display:block;fill:url(#linearGradient4022)"
     d="m15.719 34.594c-0.565 0.124-0.719 0.664-0.719 0.906v4.4062h2v-4.406c0-0.277-0.20033-0.90625-1-0.90625-0.09801 0-0.20052-0.01775-0.28125 0zm3 0c-0.565 0.124-0.719 0.664-0.719 0.906v4.4062h2v-4.406c0-0.277-0.20033-0.90625-1-0.90625-0.09801 0-0.20052-0.01775-0.28125 0zm3.0312 0c-0.565 0.124-0.75 0.664-0.75 0.906v4.4062h2v-4.406c0-0.277-0.20033-0.90625-1-0.90625-0.09801 0-0.16927-0.01775-0.25 0zm3 0c-0.565 0.124-0.75 0.664-0.75 0.906v4.4062h2v-4.406c0-0.277-0.20033-0.90625-1-0.90625-0.09801 0-0.16927-0.01775-0.25 0zm3 0c-0.565 0.124-0.75 0.664-0.75 0.906v4.4062h2v-4.406c0-0.277-0.20033-0.90625-1-0.90625-0.09801 0-0.16927-0.01775-0.25 0z" />
  <path
     id="path15029"
     style="color:black;stroke:#305526;stroke-width:.5;display:block;fill:none"
     d="m6.5 14.5-2.9688 1.0625v1.875 10.062l7 0.0625" />
  <rect
     id="rect14857"
     style="color:black;stroke:#2e3436;display:block;fill:#555753"
     rx=".94194"
     ry=".94194"
     height="7.9305"
     width="16.056"
     y="12.504"
     x="7.4722" />
  <rect
     id="rect14859"
     style="opacity:.17045;color:black;stroke:url(#linearGradient4005);display:block;fill:none"
     rx="0"
     ry="0"
     height="5.8817"
     width="14.116"
     y="13.511"
     x="8.4166" />
  <path
     id="path15031"
     style="color:black;stroke:#305526;stroke-width:.5;display:block;fill:none"
     d="m6.5 16.5-2.9844 1.062" />
  <path
     id="path15033"
     style="color:black;stroke:#305526;stroke-width:.5;display:block;fill:#98a332"
     d="m6.5 18.5-3 1.5" />
  <path
     id="rect14875"
     style="color:black;display:block;fill:url(#linearGradient4859)"
     d="m23 14v1h2v-1h-2zm0 2v1h2v-1h-2zm0 2v1h2v-1h-2z" />
  <path
     id="rect14901"
     style="color:black;display:block;fill:url(#linearGradient3982)"
     d="m9 11v2h1v-2h-1zm2 0v2h1v-2h-1zm2 0v2h1v-2h-1zm2 0v2h1v-2h-1zm2 0v2h1v-2h-1zm2 0v2h1v-2h-1zm2 0v2h1v-2h-1z" />
  <path
     id="path14959"
     style="color:black;stroke:#305526;stroke-width:.5;display:block;fill:none"
     d="m9.4576 21.86 1.0607 3.6391h1.9445l-1.06-3.639" />
  <path
     id="path14961"
     style="color:black;stroke:#305526;stroke-width:.5;display:block;fill:none"
     d="m13.458 21.76 1.0607 3.7391h1.9445l-1.062-3.739" />
  <path
     id="path14963"
     style="color:black;stroke:#305526;stroke-width:.5;display:block;fill:none"
     d="m17.458 21.76 1.0607 3.7391h1.9445l-1.062-3.739" />
  <path
     id="path14965"
     style="color:black;stroke:#305526;stroke-width:.5;display:block;fill:none"
     d="m21.458 21.782 1.0607 3.7171" />
  <path
     id="rect14929"
     style="color:black;display:block;fill:url(#linearGradient3956)"
     d="m9 20v2h1v-2h-1zm2 0v2h1v-2h-1zm2 0v2h1v-2h-1zm2 0v2h1v-2h-1zm2 0v2h1v-2h-1zm2 0v2h1v-2h-1zm2 0v2h1v-2h-1z" />
  <path
     id="path14989"
     style="opacity:.4;color:black;stroke:url(#radialGradient4830);display:block;fill:none"
     d="m2.5012 34.502 10.998-0.000056 0.01105 4.9831 17.001-0.0024-0.0029-4.9873 8.9915 0.0027c0.004-0.000409 0-24.994 0-24.994l-36.995-0.0036c0.00404 8.3386-0.0035 25-0.0035 25l0.0000739-0.000009z" />
  <path
     id="path15001"
     style="stroke-linejoin:round;color:black;stroke:url(#linearGradient4891);stroke-linecap:square;stroke-width:3;display:block;fill:none"
     d="m40.5 42v-38.5h5.5" />
  <path
     id="path15003"
     style="stroke-linejoin:round;color:black;stroke:url(#linearGradient4867);stroke-linecap:square;stroke-width:2;display:block;fill:none"
     d="m40.5 42v-38.5h5.5" />
  <path
     id="path15005"
     style="stroke-linejoin:round;color:black;stroke:#334560;stroke-linecap:round;stroke-width:.5;display:block;fill:#477ec5"
     d="m34.031 12.5a1.4857 1.4857 0 0 0 -1.531 1.5 1.5 1.5 0 1 0 3 0 1.4857 1.4857 0 0 0 -1.4688 -1.5zm-0.125 5a1.4857 1.4857 0 0 0 -1.406 1.5 1.5 1.5 0 1 0 3 0 1.4857 1.4857 0 0 0 -1.5938 -1.5zm0 5.0312a1.4857 1.4857 0 0 0 -1.406 1.469 1.5 1.5 0 1 0 3 0 1.4857 1.4857 0 0 0 -1.5938 -1.4688z" />
  <path
     id="path2983"
     style="opacity:.45;fill:url(#radialGradient3018)"
     d="m39 40.5c0 1.381-7.163 2.5-16 2.5s-16-1.119-16-2.5 7.163-2.5 16-2.5c8.8366 0 16 1.1193 16 2.5z" />
  <path
     id="path14848"
     style="color:black;stroke:#305526;stroke-width:.5;display:block;fill:none"
     d="m28.5 37.961 0.05485-5.7807 1.901-2.6665" />
  <path
     id="rect14869"
     style="color:black;display:block;fill:url(#linearGradient4002)"
     d="m6 14v1h2v-1h-2zm0 2v1h2v-1h-2zm0 2v1h2v-1h-2z" />
</svg>
