<?xml version="1.0" encoding="UTF-8" standalone="no"?>
<!-- Created with Inkscape (http://www.inkscape.org/) -->
<svg xmlns:dc="http://purl.org/dc/elements/1.1/" xmlns:cc="http://web.resource.org/cc/" xmlns:rdf="http://www.w3.org/1999/02/22-rdf-syntax-ns#" xmlns:svg="http://www.w3.org/2000/svg" xmlns="http://www.w3.org/2000/svg" xmlns:xlink="http://www.w3.org/1999/xlink" xmlns:sodipodi="http://sodipodi.sourceforge.net/DTD/sodipodi-0.dtd" xmlns:inkscape="http://www.inkscape.org/namespaces/inkscape" id="svg2" sodipodi:version="0.32" inkscape:version="0.45" width="48" height="48" version="1.0" sodipodi:docname="beagle.svg" inkscape:output_extension="org.inkscape.output.svg.inkscape" inkscape:export-xdpi="960" inkscape:export-ydpi="960" sodipodi:modified="TRUE">
  <metadata id="metadata7">
    <rdf:RDF>
      <cc:Work rdf:about="">
        <dc:format>image/svg+xml</dc:format>
        <dc:type rdf:resource="http://purl.org/dc/dcmitype/StillImage"/>
      </cc:Work>
    </rdf:RDF>
  </metadata>
  <defs id="defs5">
    <linearGradient id="linearGradient3219">
      <stop style="stop-color:#e6cbaa;stop-opacity:1;" offset="0" id="stop3221"/>
      <stop style="stop-color:#bb9d7c;stop-opacity:1;" offset="1" id="stop3223"/>
    </linearGradient>
    <linearGradient inkscape:collect="always" xlink:href="#linearGradient3219" id="linearGradient3229" x1="-30.278008" y1="39.44593" x2="-22.547304" y2="58.057953" gradientUnits="userSpaceOnUse" gradientTransform="matrix(0.536688, 0, 0, 0.53609, 50.1304, -2.97254)"/>
    <linearGradient inkscape:collect="always" xlink:href="#linearGradient3219" id="linearGradient3274" gradientUnits="userSpaceOnUse" gradientTransform="matrix(0.536688, 0, 0, 0.53609, 50.1304, -2.97254)" x1="-30.278008" y1="39.44593" x2="-22.547304" y2="58.057953"/>
    <linearGradient inkscape:collect="always" xlink:href="#linearGradient3219" id="linearGradient3281" gradientUnits="userSpaceOnUse" gradientTransform="matrix(0.536688, 0, 0, 0.53609, 50.1304, -7.52254)" x1="-30.278008" y1="39.44593" x2="-22.547304" y2="58.057953"/>
  </defs>
  <sodipodi:namedview inkscape:window-height="971" inkscape:window-width="1280" inkscape:pageshadow="2" inkscape:pageopacity="0.0" guidetolerance="10.0" gridtolerance="10.0" objecttolerance="10.0" borderopacity="1.0" bordercolor="#666666" pagecolor="#ffffff" id="base" showguides="true" inkscape:guide-bbox="true" inkscape:zoom="2.7938931" inkscape:cx="50.177207" inkscape:cy="26.17216" inkscape:window-x="1280" inkscape:window-y="53" inkscape:current-layer="svg2"/>
  <g inkscape:groupmode="layer" id="layer1" inkscape:label="sdf" style="display:inline"/>
  <g inkscape:groupmode="layer" id="layer2" inkscape:label="n,kjl" style="display:inline">
    <path style="color:#000000;fill:#ffffff;fill-opacity:1;fill-rule:evenodd;stroke:none;stroke-width:0.1;stroke-linecap:butt;stroke-linejoin:miter;marker:none;marker-start:none;marker-mid:none;marker-end:none;stroke-miterlimit:4;stroke-dasharray:none;stroke-dashoffset:0;stroke-opacity:1;visibility:visible;display:inline;overflow:visible;enable-background:accumulate" d="M 26.104306,5.688914 C 22.203033,5.682088 20.090706,9.585506 16.494244,10.413203 C 14.415046,11.14207 14.451074,13.762412 14.551043,15.456528 C 12.6988,18.242993 9.9551933,19.086997 6.4481216,20.263849 C 6.9999599,23.523405 6.3336783,27.107314 4.8716017,30.013981 C 4.0747225,30.123349 6.1442813,32.510963 6.9680377,33.615834 C 12.606816,38.72377 19.483943,35.269273 25.01416,32.903885 C 24.063279,36.955945 27.15506,43.545794 31.899632,42.193266 C 37.355153,39.662828 39.918555,33.539639 44.066571,29.444381 C 48.182665,24.875062 48.214437,16.484609 42.147011,13.439327 C 40.629516,12.409692 38.363122,12.063704 38.230093,10.011136 C 35.041197,7.125716 30.451182,5.466767 26.104306,5.688914 z " id="rect3179" sodipodi:nodetypes="cccccccccccc"/>
    <path style="color:#000000;fill:#e6cbaa;fill-opacity:1;fill-rule:evenodd;stroke:none;stroke-width:0.1;stroke-linecap:butt;stroke-linejoin:miter;marker:none;marker-start:none;marker-mid:none;marker-end:none;stroke-miterlimit:4;stroke-dasharray:none;stroke-dashoffset:0;stroke-opacity:1;visibility:visible;display:inline;overflow:visible;enable-background:accumulate" d="M 26.92611,5.672161 C 26.65293,5.67151 26.375983,5.67503 26.104306,5.688914 C 22.203033,5.682088 20.090706,9.585506 16.494244,10.413203 C 15.657408,10.706557 15.169462,11.315782 14.884181,12.038225 L 15.152524,14.048561 L 15.739527,15.020223 C 15.739527,15.020225 15.571812,15.938237 15.571812,17.466132 C 15.571807,19.297798 16.656753,20.484722 18.456508,21.604074 C 20.256258,22.723427 22.93698,25.956036 22.733238,29.008808 C 22.86544,33.767108 18.596696,34.570078 16.031511,35.78839 C 19.096122,35.246629 22.293679,34.07582 25.01416,32.912216 C 24.063279,36.964276 27.162671,43.545794 31.907242,42.193266 C 37.362758,39.662828 39.918555,33.539639 44.066571,29.444381 C 48.182665,24.875062 48.222047,16.490742 42.154622,13.44546 C 40.637126,12.415826 38.363122,12.063704 38.230093,10.011136 C 35.240507,7.306055 31.023773,5.681942 26.92611,5.672161 z " id="path3188" sodipodi:nodetypes="ccccccsscccccccc"/>
    <path style="color:#000000;fill:url(#linearGradient3281);fill-opacity:1;fill-rule:evenodd;stroke:none;stroke-width:0.1;stroke-linecap:butt;stroke-linejoin:miter;marker:none;marker-start:none;marker-mid:none;marker-end:none;stroke-miterlimit:4;stroke-dasharray:none;stroke-dashoffset:0;stroke-opacity:1;visibility:visible;display:inline;overflow:visible;enable-background:accumulate" d="M 28.804516,5.789431 L 30.968038,15.103987 L 30.632609,17.013807 L 31.404097,22.056399 L 29.391519,26.227843 L 26.25525,29.963718 L 24.879988,33.83362 C 24.530911,37.881091 27.506575,43.447759 31.907242,42.193266 C 37.362758,39.662828 39.918555,33.539639 44.066571,29.444381 C 48.182665,24.875062 48.222047,16.490742 42.154622,13.44546 C 40.637126,12.415826 38.363122,12.063704 38.230093,10.011136 C 35.695365,7.717629 32.283025,6.20375 28.804516,5.789431 z " id="path3216"/>
    <path style="fill:#ffffff;fill-opacity:1;fill-rule:evenodd;stroke:none;stroke-width:2.29999995;stroke-linecap:butt;stroke-linejoin:miter;stroke-miterlimit:4;stroke-dasharray:none;stroke-opacity:1;display:inline" d="M 27.303984,4.55 C 24.588883,4.55 22.809306,5.3682603 21.400419,6.325797 C 20.913435,6.656773 20.4321,7.192371 19.773585,7.682773 C 19.150403,8.146864 17.827545,8.82651 17.542977,8.955986 C 16.738724,9.321913 15.801829,9.72671 15.010482,10.312963 C 14.219136,10.899216 13.551363,11.756316 13.551363,12.876141 C 13.551363,14.062098 13.413934,14.889451 13.165619,15.489577 C 12.917302,16.089705 12.569449,16.489082 11.958071,16.896813 C 10.735317,17.712275 8.488258,18.40183 4.9811321,19.828553 C 4.1996896,20.14645 2.9808496,20.514305 1.9287212,21.269293 C 0.87659338,22.024282 0,23.256643 0,25.072179 C 0,26.615292 0.81309787,28.026038 1.6603773,29.126356 C 2.0840161,29.676518 2.5296595,30.156298 2.9014676,30.516839 C 3.2732756,30.877381 3.5442626,31.108242 3.7735849,31.253962 C 4.023112,31.412521 4.6619125,32.188822 5.3501049,33.063265 C 6.0382973,33.937707 6.8426756,34.916719 7.8155137,35.576184 C 9.3635113,36.625537 11.248694,37.502756 13.584906,37.502756 C 17.471805,37.502756 21.679616,35.364777 23.899371,34.286219 C 23.888428,34.710426 23.832285,35.163015 23.832285,35.576184 C 23.832286,37.526821 24.608685,39.463756 25.811321,40.93708 C 27.013957,42.410404 28.674273,43.45 30.490566,43.45 C 32.226762,43.45 33.511517,42.965461 34.867924,41.707709 C 36.224332,40.449957 37.749161,38.456578 40.385745,35.224376 C 43.012374,32.004375 44.87393,30.093779 46.138365,28.137941 C 47.4028,26.182104 48,24.171719 48,21.051507 C 48,17.775009 46.111512,14.761683 44.293501,13.495995 C 43.454798,12.912097 42.513278,12.426218 41.761006,12.021748 C 41.384871,11.819514 41.058617,11.637866 40.821803,11.485659 C 40.584989,11.333451 40.441776,11.17064 40.469602,11.217614 C 40.423596,11.139952 40.177699,10.485813 39.54717,9.726615 C 38.916641,8.967417 37.86423,8.030089 36.041929,6.979156 C 33.97893,5.789411 30.097406,4.55 27.303984,4.55 z M 27.303984,5.789707 C 29.705065,5.789707 33.640178,7.024102 35.421384,8.051335 C 37.14588,9.045864 38.070271,9.88677 38.591195,10.513997 C 39.112119,11.141223 39.192323,11.4817 39.412998,11.85422 C 39.60676,12.181312 39.855838,12.33466 40.150943,12.524332 C 40.44605,12.714006 40.791816,12.905192 41.174004,13.11068 C 41.938381,13.521658 42.826262,13.981759 43.572328,14.501162 C 44.923844,15.442081 46.775682,18.283059 46.775682,21.051507 C 46.775682,24.023108 46.257302,25.675441 45.098533,27.46783 C 43.939763,29.260218 42.068925,31.181075 39.412998,34.436994 C 36.767019,37.680716 35.239823,39.680626 34.02935,40.803058 C 32.818878,41.92549 32.035646,42.210292 30.490566,42.210292 C 29.156031,42.210292 27.796967,41.411128 26.767296,40.149698 C 25.737625,38.888269 25.056605,37.194467 25.056604,35.576184 C 25.056604,34.730417 24.991854,34.154973 25.157233,33.465332 L 25.459119,32.225624 L 24.301887,32.761714 C 22.311752,33.68559 17.349153,36.263049 13.584906,36.263049 C 11.550248,36.263049 9.9270237,35.536235 8.5031448,34.571016 C 7.7513908,34.061415 6.99593,33.164628 6.3228512,32.309388 C 5.6497725,31.454148 5.1212876,30.656035 4.4276729,30.215288 C 4.3841406,30.187626 4.0902542,29.952278 3.7568134,29.62894 C 3.4233726,29.305603 3.0301604,28.866311 2.6498952,28.372481 C 1.8893642,27.384816 1.2243192,26.155263 1.2243187,25.072179 C 1.2243187,23.626666 1.818953,22.853978 2.6498952,22.257709 C 3.4808374,21.661439 4.5614896,21.322673 5.4339623,20.967743 C 8.8926291,19.560733 11.131917,18.945038 12.645703,17.935487 C 13.402595,17.430711 13.963555,16.786469 14.30608,15.958657 C 14.648605,15.130845 14.775682,14.145297 14.775682,12.876141 C 14.775682,12.223175 15.125929,11.762544 15.748428,11.301378 C 16.370926,10.840212 17.243699,10.451149 18.062893,10.078424 C 18.484927,9.886402 19.714712,9.264589 20.511531,8.671189 C 21.273017,8.104102 21.897148,7.472109 22.104822,7.330965 C 23.390762,6.456988 24.824421,5.789707 27.303984,5.789707 z " id="path3237"/>
    <path style="fill:#000000;fill-opacity:1;fill-rule:evenodd;stroke:none;stroke-width:0.1;stroke-linecap:butt;stroke-linejoin:miter;stroke-miterlimit:4;stroke-dasharray:none;stroke-opacity:1" d="M 27.311854,5.1695775 C 24.714522,5.1695775 23.098389,5.912159 21.750975,6.827915 C 21.403648,7.063975 20.848058,7.649947 20.138058,8.178691 C 19.428057,8.707436 18.155722,9.364557 17.80242,9.525305 C 16.178972,10.263958 14.163007,11.103074 14.163007,12.875866 C 14.163007,17.786087 12.172824,17.564138 5.2070315,20.397872 C 3.5531158,21.070696 0.61393309,21.806275 0.61393309,25.067326 C 0.61393309,27.693523 3.5566955,30.38301 4.1024048,30.729774 C 5.0455475,31.329079 6.4342214,33.90426 8.1588134,35.073327 C 9.6447518,36.080612 11.407754,36.88056 13.59319,36.88056 C 17.629505,36.88056 22.623861,34.214624 24.558839,33.316352 C 24.367027,34.116224 24.443929,34.769284 24.443929,35.575911 C 24.443929,39.144831 27.333128,42.829873 30.483957,42.829873 C 33.765233,42.829873 34.617074,41.307475 39.899637,34.83155 C 45.182194,28.355631 47.387326,27.143045 47.387326,21.051231 C 47.387326,18.028756 45.517163,15.101606 43.932399,13.998302 C 42.34763,12.894998 40.272656,12.095876 39.940785,11.535641 C 39.674104,11.085457 39.277938,9.560432 35.731141,7.51497 C 33.809038,6.40648 29.909106,5.1695775 27.311854,5.1695775 z M 27.077053,6.727588 C 28.854337,6.727588 31.73065,7.280054 33.785649,8.369362 C 36.337255,9.721913 39.657419,11.393332 35.513112,11.535641 C 36.651019,11.77628 38.467143,12.318026 41.030932,13.512471 C 45.557483,15.621353 45.911434,19.015691 45.911434,20.833445 C 45.911434,27.12567 43.965545,27.973443 38.975644,34.283657 C 35.750709,38.361899 31.32383,44.575498 27.446026,39.378797 C 24.180878,35.003126 26.847131,29.983633 29.877892,26.345113 C 31.115247,24.859629 32.074957,22.693593 32.074957,21.386287 C 32.074957,20.227621 31.145253,18.782581 31.051896,16.628492 C 31.009084,15.640716 31.118982,14.852696 31.118982,14.852696 C 31.118982,14.852697 30.098212,15.192512 30.146236,17.399121 C 30.194259,19.605732 30.6349,20.33022 30.682924,21.721344 C 30.730946,23.112466 28.046682,26.462474 27.278311,27.517814 C 26.799306,28.175703 25.447691,30.426406 24.775007,32.400121 C 23.276891,32.851219 18.934111,35.106833 13.995292,35.106833 C 9.8464121,35.106833 7.7234578,32.93388 5.6099604,30.809426 C 6.7860952,29.941958 7.7730692,24.139561 7.7730692,22.391455 C 7.7730692,21.85179 7.6451067,21.370205 7.6053543,20.850197 C 9.3638328,19.867925 11.185636,19.030695 12.754202,18.220008 C 14.266019,17.438647 15.808684,15.79162 15.808684,14.85311 C 15.808684,13.245309 14.657189,12.053188 18.406193,10.765013 C 22.2125,9.457147 22.013861,6.727588 27.077053,6.727588 z " id="path2163" sodipodi:nodetypes="cssssssssccsssssssccscssssssscssscscscsssc"/>
    <path style="fill:#ffffff;fill-opacity:1;fill-rule:evenodd;stroke:none;stroke-width:0.1;stroke-linecap:butt;stroke-linejoin:miter;stroke-miterlimit:4;stroke-dasharray:none;stroke-opacity:1" d="M 5.7538464,21.361165 C 3.6222573,21.769201 1.757783,23.921699 2.3886325,24.508324 C 3.0342193,25.108654 3.7776337,24.021706 4.103489,23.134575 C 4.2459742,22.746667 4.8808918,22.017632 5.7538464,21.361165 z " id="path3175" sodipodi:nodetypes="cssc"/>
    <path style="fill:#000000;fill-opacity:1;fill-rule:evenodd;stroke:none;stroke-width:1px;stroke-linecap:butt;stroke-linejoin:miter;stroke-opacity:1;display:inline" d="M 18.358075,15.396292 C 18.447956,16.071365 17.961882,15.993081 17.961882,16.691475 C 17.961882,17.220931 18.562527,17.703477 19.849706,17.596905 C 20.902956,17.509702 21.383539,17.055893 21.383539,16.667491 C 21.383539,16.375075 21.074522,15.929332 20.642665,15.55919 C 20.224885,15.201115 19.812182,14.870766 19.032675,14.402281 C 18.703339,14.20435 18.031309,13.966868 17.953917,14.081885 C 17.805014,14.303187 18.298046,14.945428 18.358075,15.396292 z " id="path3258" sodipodi:nodetypes="csssssss"/>
  </g>
</svg>