<?xml version="1.0" encoding="UTF-8" standalone="no"?>
<!-- Created with Inkscape (http://www.inkscape.org/) -->
<svg xmlns:dc="http://purl.org/dc/elements/1.1/" xmlns:cc="http://web.resource.org/cc/" xmlns:rdf="http://www.w3.org/1999/02/22-rdf-syntax-ns#" xmlns:svg="http://www.w3.org/2000/svg" xmlns="http://www.w3.org/2000/svg" xmlns:xlink="http://www.w3.org/1999/xlink" xmlns:sodipodi="http://sodipodi.sourceforge.net/DTD/sodipodi-0.dtd" xmlns:inkscape="http://www.inkscape.org/namespaces/inkscape" width="48" height="48" sodipodi:version="0.32" inkscape:version="0.45" inkscape:output_extension="org.inkscape.output.svg.inkscape" sodipodi:modified="true" version="1.0" viewBox="0 0 64 64">
  <defs id="defs2264">
    <linearGradient id="linearGradient9686">
      <stop style="stop-color:#ffffff;stop-opacity:0.74901962;" offset="0" id="stop9688"/>
      <stop style="stop-color:#ffffff;stop-opacity:0;" offset="1" id="stop9690"/>
    </linearGradient>
    <linearGradient inkscape:collect="always" id="linearGradient7774">
      <stop style="stop-color:#ffffff;stop-opacity:1;" offset="0" id="stop7776"/>
      <stop style="stop-color:#ffffff;stop-opacity:0;" offset="1" id="stop7778"/>
    </linearGradient>
    <linearGradient inkscape:collect="always" id="linearGradient7714">
      <stop style="stop-color:#ffffff;stop-opacity:1;" offset="0" id="stop7716"/>
      <stop style="stop-color:#ffffff;stop-opacity:0;" offset="1" id="stop7718"/>
    </linearGradient>
    <linearGradient id="linearGradient5027">
      <stop style="stop-color:#ffffff;stop-opacity:0.49803922;" offset="0" id="stop5029"/>
      <stop style="stop-color:#ffffff;stop-opacity:0;" offset="1" id="stop5031"/>
    </linearGradient>
    <linearGradient id="linearGradient3257">
      <stop style="stop-color:#ffffff;stop-opacity:0.74901962;" offset="0" id="stop3259"/>
      <stop style="stop-color:#ffffff;stop-opacity:0;" offset="1" id="stop3261"/>
    </linearGradient>
    <radialGradient inkscape:collect="always" xlink:href="#linearGradient7714" id="radialGradient7720" cx="48.942383" cy="3.3802817" fx="48.942383" fy="3.3802817" r="4.7733674" gradientUnits="userSpaceOnUse"/>
    <radialGradient inkscape:collect="always" xlink:href="#linearGradient7774" id="radialGradient7780" cx="13.5" cy="4.4997277" fx="13.5" fy="4.4997277" r="5.5" gradientTransform="matrix(1, 0, 0, 1.18187, 0, -0.818355)" gradientUnits="userSpaceOnUse"/>
    <radialGradient inkscape:collect="always" xlink:href="#linearGradient7774" id="radialGradient7790" gradientUnits="userSpaceOnUse" gradientTransform="matrix(1, 0, 0, 1.18187, 20, -0.818355)" cx="14.893086" cy="3.5636892" fx="14.893086" fy="3.5636892" r="5.5"/>
    <radialGradient inkscape:collect="always" xlink:href="#linearGradient9686" id="radialGradient9692" cx="44.814384" cy="20.096273" fx="44.814384" fy="20.096273" r="11.375441" gradientTransform="matrix(0.741224, 0, 0, 0.856531, 11.5969, 3.62855)" gradientUnits="userSpaceOnUse"/>
    <radialGradient inkscape:collect="always" xlink:href="#linearGradient9686" id="radialGradient9696" gradientUnits="userSpaceOnUse" gradientTransform="matrix(0.741224, 0, 0, 0.856531, -8.40312, 3.62855)" cx="44.814384" cy="20.096273" fx="44.814384" fy="20.096273" r="11.375441"/>
    <radialGradient inkscape:collect="always" xlink:href="#linearGradient9686" id="radialGradient9702" gradientUnits="userSpaceOnUse" gradientTransform="matrix(0.741224, 0, 0, 0.856531, 31.5969, 3.62855)" cx="44.814384" cy="20.096273" fx="44.814384" fy="20.096273" r="11.375441"/>
    <radialGradient inkscape:collect="always" xlink:href="#linearGradient9686" id="radialGradient9708" gradientUnits="userSpaceOnUse" gradientTransform="matrix(0.741224, 0, 0, 0.856531, -8.40312, 3.62855)" cx="44.814384" cy="20.096273" fx="44.814384" fy="20.096273" r="11.375441"/>
    <radialGradient inkscape:collect="always" xlink:href="#linearGradient7774" id="radialGradient9729" gradientUnits="userSpaceOnUse" gradientTransform="matrix(1, 0, 0, 1.18187, 20, -0.818355)" cx="14.893086" cy="3.5636892" fx="14.893086" fy="3.5636892" r="5.5"/>
    <radialGradient inkscape:collect="always" xlink:href="#linearGradient9686" id="radialGradient9731" gradientUnits="userSpaceOnUse" gradientTransform="matrix(0.741224, 0, 0, 0.856531, -8.40312, 3.62855)" cx="44.814384" cy="20.096273" fx="44.814384" fy="20.096273" r="11.375441"/>
    <radialGradient inkscape:collect="always" xlink:href="#linearGradient7774" id="radialGradient9741" gradientUnits="userSpaceOnUse" gradientTransform="matrix(1, 0, 0, 1.18187, 20, -0.818355)" cx="14.893086" cy="3.5636892" fx="14.893086" fy="3.5636892" r="5.5"/>
    <radialGradient inkscape:collect="always" xlink:href="#linearGradient9686" id="radialGradient9743" gradientUnits="userSpaceOnUse" gradientTransform="matrix(0.741224, 0, 0, 0.856531, -8.40312, 3.62855)" cx="44.814384" cy="20.096273" fx="44.814384" fy="20.096273" r="11.375441"/>
  </defs>
  <sodipodi:namedview id="base" pagecolor="#ffffff" bordercolor="#666666" borderopacity="1.0" inkscape:pageopacity="0.0" inkscape:pageshadow="2" inkscape:zoom="4.3144562" inkscape:cx="19.431702" inkscape:cy="31.53429" inkscape:current-layer="layer1" showgrid="false" inkscape:document-units="px" inkscape:grid-bbox="true" gridempspacing="8" inkscape:window-width="1280" inkscape:window-height="970" inkscape:window-x="0" inkscape:window-y="54"/>
  <metadata id="metadata2267">
    <rdf:RDF>
      <cc:Work rdf:about="">
        <dc:format>image/svg+xml</dc:format>
        <dc:type rdf:resource="http://purl.org/dc/dcmitype/StillImage"/>
      </cc:Work>
    </rdf:RDF>
  </metadata>
  <g id="layer1" inkscape:label="Layer 1" inkscape:groupmode="layer">
    <g id="g9733" transform="matrix(0.939693, -0.34202, 0.34202, 0.939693, 8.67405, 7.53973)">
      <g transform="translate(-20)" id="g7786">
        <path transform="matrix(1.32753, 0, 0, 1.32753, -2.30769, 0.653785)" d="M 31.11632 4.0272045 A 6.7795334 6.7795334 0 1 1  17.557253,4.0272045 A 6.7795334 6.7795334 0 1 1  31.11632 4.0272045 z" sodipodi:ry="6.7795334" sodipodi:rx="6.7795334" sodipodi:cy="4.0272045" sodipodi:cx="24.336786" id="path7763" style="opacity:1;fill:#92cf44;fill-opacity:1;fill-rule:nonzero;stroke:none;stroke-width:0;stroke-linejoin:miter;stroke-miterlimit:4;stroke-dasharray:none;stroke-opacity:1" sodipodi:type="arc"/>
        <path id="path7782" d="M 34.09375,-2 C 30.699935,-1.7846653 28,1.0521567 28,4.5 C 28,8.0879997 30.912,11 34.5,11 C 35.838492,11 37.090739,10.60066 38.125,9.90625 C 38.129742,9.8964142 38.120293,9.8848556 38.125,9.875 C 38.685118,8.7021842 39,7.3856063 39,6 C 39,2.5301625 37.035157,-0.49818479 34.15625,-2 C 34.128566,-1.9985952 34.121342,-2.0017507 34.09375,-2 z " style="opacity:1;fill:url(#radialGradient9741);fill-opacity:1;fill-rule:nonzero;stroke:none;stroke-width:0;stroke-linejoin:miter;stroke-miterlimit:4;stroke-dasharray:none;stroke-opacity:1"/>
      </g>
      <g id="g9704">
        <path id="path8810" d="M 16.5,14.625 L 16.5,19.53125 L 4.5,19.53125 L 4.5,14.875 C -3.867562,17.228607 -10.389805,24.012805 -12.375,32.53125 L -7.5625,32.53125 L -7.5625,44.53125 L -12.09375,44.53125 C -9.73548,52.875124 -2.990869,59.385652 5.5,61.375 L 5.5,56.46875 L 17.5,56.46875 L 17.5,61.09375 C 25.84996,58.745072 32.346682,51.995248 34.34375,43.5 L 24.25,43.5 C 22.089105,48.689318 16.963663,52.34375 11,52.34375 C 3.089649,52.34375 -3.34375,45.910351 -3.34375,38 C -3.343751,30.151449 2.987352,23.75548 10.8125,23.65625 C 10.874115,23.655469 10.9382,23.65625 11,23.65625 C 16.160267,23.65625 20.691464,26.400445 23.21875,30.5 L 33.8125,30.5 C 31.221251,22.621606 24.663891,16.536097 16.5,14.625 z " style="fill:#0a51a1;fill-opacity:1;fill-rule:nonzero;stroke:none;stroke-width:5;stroke-linejoin:round;stroke-miterlimit:4;stroke-opacity:1" sodipodi:nodetypes="ccccccccccccccssssccc"/>
        <path id="path9694" d="M 16.5,14.625 L 16.5,19.53125 L 11.09375,19.53125 C 11.068694,19.911545 11.0625,20.30026 11.0625,20.6875 C 11.0625,21.701252 11.148767,22.688644 11.3125,23.65625 C 16.347373,23.760832 20.740825,26.480514 23.21875,30.5 L 33.8125,30.5 C 33.809463,30.490768 33.815548,30.477978 33.8125,30.46875 C 33.789431,30.3991 33.773689,30.319367 33.75,30.25 C 33.742695,30.228558 33.726114,30.208915 33.71875,30.1875 C 33.669808,30.04534 33.614028,29.922192 33.5625,29.78125 C 33.551419,29.750922 33.54245,29.717771 33.53125,29.6875 C 33.521804,29.662015 33.509531,29.619194 33.5,29.59375 C 33.492077,29.5726 33.476731,29.552371 33.46875,29.53125 C 33.452391,29.487895 33.454103,29.449485 33.4375,29.40625 C 33.422094,29.366119 33.390615,29.321277 33.375,29.28125 C 33.321092,29.143283 33.275128,29.011716 33.21875,28.875 C 33.205678,28.843273 33.169454,28.812909 33.15625,28.78125 C 33.1494,28.764856 33.163135,28.735126 33.15625,28.71875 C 33.14381,28.689102 33.137556,28.654588 33.125,28.625 C 33.106952,28.5825 33.080786,28.542375 33.0625,28.5 C 33.043051,28.454878 33.019717,28.419978 33,28.375 C 32.994443,28.362325 32.974328,28.356413 32.96875,28.34375 C 32.939406,28.277155 32.93618,28.191277 32.90625,28.125 C 32.881556,28.070409 32.83759,28.023123 32.8125,27.96875 C 32.796789,27.934596 32.797117,27.909068 32.78125,27.875 C 32.771518,27.854133 32.75979,27.833335 32.75,27.8125 C 32.740916,27.793163 32.727884,27.769309 32.71875,27.75 C 32.699054,27.708396 32.676178,27.666473 32.65625,27.625 C 32.635066,27.580832 32.615196,27.544018 32.59375,27.5 C 32.587702,27.487598 32.568569,27.48114 32.5625,27.46875 C 32.548425,27.439999 32.545436,27.403686 32.53125,27.375 C 32.516977,27.346155 32.514385,27.31003 32.5,27.28125 C 32.493272,27.267781 32.475503,27.263454 32.46875,27.25 C 32.448131,27.208926 32.427098,27.165939 32.40625,27.125 C 32.386892,27.087012 32.363304,27.037871 32.34375,27 C 32.301598,26.918392 32.261808,26.86231 32.21875,26.78125 C 32.154521,26.660042 32.097482,26.526218 32.03125,26.40625 C 31.974091,26.302716 31.902385,26.196345 31.84375,26.09375 C 31.836304,26.080722 31.819969,26.075513 31.8125,26.0625 C 31.789632,26.02281 31.773088,25.977046 31.75,25.9375 C 31.725475,25.895371 31.712274,25.854466 31.6875,25.8125 C 31.680508,25.800679 31.663262,25.793058 31.65625,25.78125 C 31.639046,25.752231 31.642322,25.71644 31.625,25.6875 C 31.611825,25.665516 31.575743,25.646939 31.5625,25.625 C 31.551527,25.606823 31.542269,25.580646 31.53125,25.5625 C 31.436274,25.406051 31.348426,25.279086 31.25,25.125 C 31.223869,25.083955 31.213873,25.040875 31.1875,25 C 31.18055,24.989256 31.163216,24.979482 31.15625,24.96875 C 31.143026,24.948339 31.138284,24.926619 31.125,24.90625 C 31.102639,24.871989 31.085031,24.846639 31.0625,24.8125 C 31.054818,24.800846 31.038952,24.79289 31.03125,24.78125 C 31.006006,24.74318 30.962955,24.694168 30.9375,24.65625 C 30.888559,24.583267 30.862217,24.509914 30.8125,24.4375 C 30.78145,24.392367 30.7501,24.32616 30.71875,24.28125 C 30.69481,24.246943 30.649114,24.221676 30.625,24.1875 C 30.607768,24.163078 30.57982,24.149355 30.5625,24.125 C 30.505163,24.044466 30.464552,23.954794 30.40625,23.875 C 30.345727,23.792035 30.280306,23.707155 30.21875,23.625 C 30.206706,23.608956 30.199583,23.578513 30.1875,23.5625 C 30.179114,23.551378 30.164655,23.542357 30.15625,23.53125 C 30.123228,23.487632 30.095813,23.449636 30.0625,23.40625 C 30.04085,23.378002 30.021772,23.340649 30,23.3125 C 29.981386,23.288483 29.956203,23.273944 29.9375,23.25 C 29.928328,23.238226 29.915444,23.230506 29.90625,23.21875 C 29.878129,23.182888 29.84082,23.129448 29.8125,23.09375 C 29.77474,23.046153 29.756863,23.016054 29.71875,22.96875 C 29.701298,22.947061 29.673776,22.927877 29.65625,22.90625 C 29.635574,22.880786 29.614528,22.837878 29.59375,22.8125 C 29.58494,22.801726 29.571328,22.792008 29.5625,22.78125 C 29.528961,22.740417 29.502552,22.696858 29.46875,22.65625 C 29.438365,22.619684 29.405597,22.598883 29.375,22.5625 C 29.363729,22.54909 29.355049,22.544635 29.34375,22.53125 C 29.329787,22.514713 29.326507,22.485248 29.3125,22.46875 C 29.283002,22.434054 29.248441,22.409526 29.21875,22.375 C 29.186543,22.337459 29.157435,22.287339 29.125,22.25 C 29.115039,22.238548 29.103732,22.230183 29.09375,22.21875 C 29.072931,22.194866 29.052162,22.180051 29.03125,22.15625 C 29.0112,22.133461 28.988885,22.116463 28.96875,22.09375 C 28.959529,22.083338 28.946739,22.072896 28.9375,22.0625 C 28.821482,21.932122 28.712541,21.784065 28.59375,21.65625 C 28.588362,21.650447 28.567894,21.662047 28.5625,21.65625 C 28.52631,21.617384 28.505194,21.569876 28.46875,21.53125 C 28.411481,21.470553 28.339142,21.403849 28.28125,21.34375 C 28.20757,21.26726 28.137179,21.200512 28.0625,21.125 C 28.042946,21.105228 28.019622,21.082204 28,21.0625 C 27.973228,21.035632 27.964398,20.995492 27.9375,20.96875 C 27.931888,20.963164 27.911867,20.97433 27.90625,20.96875 C 27.868557,20.931347 27.850439,20.880905 27.8125,20.84375 C 27.78712,20.818882 27.74424,20.806006 27.71875,20.78125 C 27.696971,20.76012 27.678109,20.739798 27.65625,20.71875 C 27.644852,20.707756 27.636419,20.698471 27.625,20.6875 C 27.592153,20.65599 27.564276,20.625075 27.53125,20.59375 C 27.495397,20.559709 27.442312,20.533822 27.40625,20.5 C 27.345378,20.442911 27.311464,20.368961 27.25,20.3125 C 27.244315,20.307269 27.224441,20.317725 27.21875,20.3125 C 27.17401,20.271479 27.1388,20.228186 27.09375,20.1875 C 27.07027,20.166237 27.054814,20.146171 27.03125,20.125 C 27.012264,20.107983 26.98779,20.079458 26.96875,20.0625 C 26.9526,20.048104 26.922439,20.045603 26.90625,20.03125 C 26.872174,20.001052 26.846749,19.967507 26.8125,19.9375 C 26.776777,19.906158 26.75466,19.874882 26.71875,19.84375 C 26.708424,19.834805 26.697841,19.821427 26.6875,19.8125 C 26.634644,19.766871 26.584506,19.732675 26.53125,19.6875 C 26.525361,19.682495 26.505894,19.6925 26.5,19.6875 C 26.455507,19.64983 26.419769,19.599852 26.375,19.5625 C 26.344612,19.537084 26.311765,19.525268 26.28125,19.5 C 26.263702,19.48548 26.26759,19.451971 26.25,19.4375 C 26.231285,19.422096 26.206262,19.421598 26.1875,19.40625 C 26.152236,19.377405 26.12918,19.372398 26.09375,19.34375 C 26.055295,19.312604 26.0074,19.280912 25.96875,19.25 C 25.956885,19.240517 25.949384,19.228211 25.9375,19.21875 C 25.912705,19.198989 25.899875,19.175915 25.875,19.15625 C 25.854974,19.140429 25.832577,19.109509 25.8125,19.09375 C 25.795458,19.080387 25.767079,19.075818 25.75,19.0625 C 25.678152,19.006394 25.603748,18.961554 25.53125,18.90625 C 25.519167,18.897033 25.512101,18.884195 25.5,18.875 C 25.477812,18.85816 25.459749,18.829264 25.4375,18.8125 C 25.408372,18.79054 25.372981,18.771831 25.34375,18.75 C 25.337548,18.74537 25.318706,18.754624 25.3125,18.75 C 25.264958,18.714578 25.235312,18.660078 25.1875,18.625 C 25.160414,18.60511 25.120922,18.613529 25.09375,18.59375 C 25.069157,18.575857 25.055913,18.549052 25.03125,18.53125 C 25.019952,18.52309 25.011313,18.508141 25,18.5 C 24.962953,18.473365 24.912204,18.432679 24.875,18.40625 C 24.843021,18.383537 24.813344,18.36631 24.78125,18.34375 C 24.764812,18.332212 24.735219,18.323998 24.71875,18.3125 C 24.695887,18.296532 24.679172,18.26589 24.65625,18.25 C 24.626238,18.229188 24.592611,18.208178 24.5625,18.1875 C 24.554797,18.182211 24.538959,18.192781 24.53125,18.1875 C 24.512415,18.174597 24.518873,18.137851 24.5,18.125 C 24.479919,18.111321 24.457624,18.10737 24.4375,18.09375 C 24.429935,18.088631 24.413821,18.098861 24.40625,18.09375 C 24.388263,18.081607 24.361772,18.074595 24.34375,18.0625 C 24.303193,18.035288 24.290731,17.995721 24.25,17.96875 C 24.24221,17.96358 24.226547,17.973911 24.21875,17.96875 C 24.180622,17.943574 24.13203,17.899964 24.09375,17.875 C 24.053016,17.848432 24.009655,17.838826 23.96875,17.8125 C 23.95799,17.80557 23.948272,17.788164 23.9375,17.78125 C 23.907455,17.761992 23.873887,17.737877 23.84375,17.71875 C 23.814074,17.699874 23.811014,17.674999 23.78125,17.65625 C 23.773331,17.651263 23.757925,17.661228 23.75,17.65625 C 23.672544,17.607602 23.578045,17.547786 23.5,17.5 C 23.475986,17.485297 23.461569,17.483371 23.4375,17.46875 C 23.424695,17.460967 23.419071,17.445259 23.40625,17.4375 C 23.367081,17.413824 23.320564,17.398458 23.28125,17.375 C 23.239418,17.350029 23.198246,17.337223 23.15625,17.3125 C 23.145202,17.305993 23.13606,17.28774 23.125,17.28125 C 23.091039,17.261343 23.065317,17.238494 23.03125,17.21875 C 23.011449,17.20724 22.988587,17.198955 22.96875,17.1875 C 22.950329,17.176899 22.924702,17.166804 22.90625,17.15625 C 22.858557,17.128889 22.829147,17.120792 22.78125,17.09375 C 22.746947,17.074372 22.721908,17.050464 22.6875,17.03125 C 22.667486,17.020071 22.645049,17.011123 22.625,17 C 22.60366,16.988169 22.58388,16.980518 22.5625,16.96875 C 22.530366,16.951042 22.500973,16.923815 22.46875,16.90625 C 22.461272,16.902182 22.444983,16.91031 22.4375,16.90625 C 22.385907,16.878203 22.333069,16.840179 22.28125,16.8125 C 22.246444,16.793925 22.222408,16.768408 22.1875,16.75 C 22.167209,16.739269 22.145326,16.729425 22.125,16.71875 C 22.106127,16.708871 22.081403,16.69733 22.0625,16.6875 C 22.02178,16.666264 21.978356,16.646009 21.9375,16.625 C 21.902365,16.606967 21.878985,16.580364 21.84375,16.5625 C 21.823255,16.552109 21.801779,16.541584 21.78125,16.53125 C 21.761249,16.521186 21.738783,16.510009 21.71875,16.5 C 21.646192,16.463748 21.572974,16.441785 21.5,16.40625 C 21.491534,16.402128 21.477221,16.410363 21.46875,16.40625 C 21.456333,16.400222 21.449929,16.381007 21.4375,16.375 C 21.41059,16.361998 21.370716,16.356654 21.34375,16.34375 C 21.310532,16.32786 21.283302,16.296992 21.25,16.28125 C 21.240014,16.276524 21.228744,16.285963 21.21875,16.28125 C 21.177096,16.26162 21.135534,16.238148 21.09375,16.21875 C 21.054967,16.200777 21.007645,16.174022 20.96875,16.15625 C 20.947794,16.146668 20.927239,16.134524 20.90625,16.125 C 20.886775,16.116165 20.863253,16.102535 20.84375,16.09375 C 20.801709,16.07482 20.760919,16.049945 20.71875,16.03125 C 20.674238,16.011488 20.638404,16.019498 20.59375,16 C 20.583541,15.995545 20.572717,15.973192 20.5625,15.96875 C 20.524201,15.952116 20.475902,15.95394 20.4375,15.9375 C 20.416289,15.928389 20.396242,15.915301 20.375,15.90625 C 20.355278,15.897873 20.332249,15.883326 20.3125,15.875 C 20.269954,15.857016 20.23017,15.830245 20.1875,15.8125 C 20.142432,15.793787 20.107707,15.799696 20.0625,15.78125 C 20.049662,15.775998 20.044099,15.75523 20.03125,15.75 C 20.001426,15.737899 19.967384,15.730734 19.9375,15.71875 C 19.907459,15.706664 19.873851,15.699468 19.84375,15.6875 C 19.831773,15.682753 19.824487,15.660978 19.8125,15.65625 C 19.789715,15.647237 19.772819,15.633945 19.75,15.625 C 19.733997,15.618737 19.70352,15.631229 19.6875,15.625 C 19.674552,15.619965 19.669208,15.598763 19.65625,15.59375 C 19.626189,15.582118 19.592619,15.574015 19.5625,15.5625 C 19.529405,15.549852 19.501915,15.543756 19.46875,15.53125 C 19.458344,15.52732 19.447913,15.535166 19.4375,15.53125 C 19.401585,15.517764 19.348496,15.482069 19.3125,15.46875 C 19.303412,15.465402 19.290343,15.472087 19.28125,15.46875 C 19.259492,15.460724 19.240537,15.445465 19.21875,15.4375 C 19.197505,15.429772 19.177523,15.41392 19.15625,15.40625 C 19.145983,15.402531 19.135273,15.409956 19.125,15.40625 C 19.094593,15.395329 19.061714,15.385801 19.03125,15.375 C 19.000625,15.364108 18.968182,15.354521 18.9375,15.34375 C 18.925292,15.339477 18.918467,15.316753 18.90625,15.3125 C 18.853949,15.294242 18.802464,15.299156 18.75,15.28125 C 18.710178,15.267677 18.664916,15.263369 18.625,15.25 C 18.602953,15.242592 18.584576,15.226096 18.5625,15.21875 C 18.54098,15.211611 18.521547,15.19458 18.5,15.1875 C 18.455792,15.172933 18.41932,15.170567 18.375,15.15625 C 18.331805,15.142311 18.293301,15.10745 18.25,15.09375 C 18.232911,15.08834 18.204605,15.099123 18.1875,15.09375 C 18.156538,15.084038 18.124766,15.07209 18.09375,15.0625 C 18.059688,15.051936 18.034126,15.041666 18,15.03125 C 17.990679,15.02841 17.978076,15.034079 17.96875,15.03125 C 17.946424,15.024469 17.928603,15.006717 17.90625,15 C 17.884464,14.993459 17.865562,14.975231 17.84375,14.96875 C 17.835142,14.966191 17.821112,14.9713 17.8125,14.96875 C 17.771971,14.956763 17.728118,14.949278 17.6875,14.9375 C 17.663746,14.93059 17.648784,14.913089 17.625,14.90625 C 17.604709,14.900429 17.582813,14.912018 17.5625,14.90625 C 17.517524,14.893452 17.482583,14.887541 17.4375,14.875 C 17.387283,14.86104 17.3316,14.85739 17.28125,14.84375 C 17.267693,14.840065 17.263566,14.816162 17.25,14.8125 C 17.21766,14.803796 17.188644,14.789822 17.15625,14.78125 C 17.112944,14.76979 17.074651,14.761223 17.03125,14.75 C 16.985853,14.738232 16.9205,14.730258 16.875,14.71875 C 16.833801,14.708386 16.791284,14.697651 16.75,14.6875 C 16.725857,14.681545 16.711671,14.662132 16.6875,14.65625 C 16.666878,14.651243 16.645642,14.661204 16.625,14.65625 C 16.588085,14.647376 16.53698,14.633703 16.5,14.625 z " style="fill:url(#radialGradient9743);fill-opacity:1;fill-rule:nonzero;stroke:none;stroke-width:5;stroke-linejoin:round;stroke-miterlimit:4;stroke-opacity:1"/>
      </g>
    </g>
  </g>
</svg>