<?xml version="1.0" encoding="UTF-8" standalone="no"?>
<!-- Created with Inkscape (http://www.inkscape.org/) -->
<svg xmlns:a="http://ns.adobe.com/AdobeSVGViewerExtensions/3.0/" xmlns:svg="http://www.w3.org/2000/svg" xmlns="http://www.w3.org/2000/svg" version="1.0" width="48" height="48" id="svg2">
  <defs id="defs4">
    <linearGradient x1="41.803699" y1="23.9165" x2="1680.2037" y2="23.9165" id="XMLID_63_" gradientUnits="userSpaceOnUse" gradientTransform="matrix(0.0205, 0.0025, -0.0006, 0.0047, 21.1637, 234.029)">
      <stop style="stop-color:#4a4a4a;stop-opacity:1" offset="0.0275" id="stop2502"/>
      <stop style="stop-color:#ffffff;stop-opacity:1" offset="0.54119998" id="stop2504"/>
      <stop style="stop-color:#000000;stop-opacity:1" offset="1" id="stop2506"/>
      <a:midPointStop style="stop-color:#4A4A4A" offset="0.0275"/>
      <a:midPointStop style="stop-color:#4A4A4A" offset="0.5"/>
      <a:midPointStop style="stop-color:#FFFFFF" offset="0.5412"/>
      <a:midPointStop style="stop-color:#FFFFFF" offset="0.5"/>
      <a:midPointStop style="stop-color:#000000" offset="1"/>
    </linearGradient>
    <linearGradient x1="-389.96881" y1="-38513.504" x2="1248.4313" y2="-38513.504" id="XMLID_64_" gradientUnits="userSpaceOnUse" gradientTransform="matrix(0.0235, 0.0029, -0.0007, 0.0054, 21.1394, 229.535)">
      <stop style="stop-color:#4a4a4a;stop-opacity:1" offset="0.0275" id="stop2515"/>
      <stop style="stop-color:#ffffff;stop-opacity:1" offset="0.54119998" id="stop2517"/>
      <stop style="stop-color:#000000;stop-opacity:1" offset="1" id="stop2519"/>
      <a:midPointStop offset="0.0275" style="stop-color:#4A4A4A"/>
      <a:midPointStop offset="0.5" style="stop-color:#4A4A4A"/>
      <a:midPointStop offset="0.5412" style="stop-color:#FFFFFF"/>
      <a:midPointStop offset="0.5" style="stop-color:#FFFFFF"/>
      <a:midPointStop offset="1" style="stop-color:#000000"/>
    </linearGradient>
    <radialGradient cx="1323.043" cy="-5313.3013" r="819.20001" fx="1323.043" fy="-5313.3013" id="XMLID_96_" gradientUnits="userSpaceOnUse" gradientTransform="matrix(0.0633, -0.0168, 0.0085, 0.0321, 10.887, 202.99)">
      <stop style="stop-color:#008837;stop-opacity:1" offset="0" id="stop2967"/>
      <stop style="stop-color:#000000;stop-opacity:1" offset="1" id="stop2969"/>
      <a:midPointStop style="stop-color:#008837" offset="0"/>
      <a:midPointStop style="stop-color:#008837" offset="0.5"/>
      <a:midPointStop style="stop-color:#000000" offset="1"/>
    </radialGradient>
    <linearGradient x1="2013.2227" y1="-3377.9888" x2="3651.6226" y2="-3377.9888" id="XMLID_59_" gradientUnits="userSpaceOnUse" gradientTransform="matrix(0.0396, -0.0197, 0.0189, 0.0378, 36.8787, 242.507)">
      <stop style="stop-color:#ffffff;stop-opacity:1" offset="0" id="stop2456"/>
      <stop style="stop-color:#000000;stop-opacity:1" offset="1" id="stop2458"/>
      <a:midPointStop offset="0" style="stop-color:#FFFFFF"/>
      <a:midPointStop offset="0.5" style="stop-color:#FFFFFF"/>
      <a:midPointStop offset="1" style="stop-color:#000000"/>
    </linearGradient>
    <linearGradient x1="2013.2227" y1="-2710.3794" x2="3651.6226" y2="-2710.3794" id="XMLID_60_" gradientUnits="userSpaceOnUse" gradientTransform="matrix(0.0396, -0.0197, 0.0189, 0.0378, 36.8787, 242.507)">
      <stop style="stop-color:#ffffff;stop-opacity:1" offset="0" id="stop2463"/>
      <stop style="stop-color:#000000;stop-opacity:1" offset="1" id="stop2465"/>
      <a:midPointStop offset="0" style="stop-color:#FFFFFF"/>
      <a:midPointStop offset="0.5" style="stop-color:#FFFFFF"/>
      <a:midPointStop offset="1" style="stop-color:#000000"/>
    </linearGradient>
    <linearGradient x1="-329.15619" y1="-7203.4263" x2="1309.2438" y2="-7203.4263" id="XMLID_65_" gradientUnits="userSpaceOnUse" gradientTransform="matrix(0.0697, 0, 0, 0.0274, 47.0701, 253.681)">
      <stop style="stop-color:#ffffff;stop-opacity:1" offset="0" id="stop2534"/>
      <stop style="stop-color:#000000;stop-opacity:1" offset="1" id="stop2536"/>
      <a:midPointStop offset="0" style="stop-color:#FFFFFF"/>
      <a:midPointStop offset="0.5" style="stop-color:#FFFFFF"/>
      <a:midPointStop offset="1" style="stop-color:#000000"/>
    </linearGradient>
    <linearGradient x1="9122.25" y1="-2914.9419" x2="10760.65" y2="-2914.9419" id="XMLID_98_" gradientUnits="userSpaceOnUse" gradientTransform="matrix(0.0085, -0.0188, 0.0133, 0.006, -5.8524, 270.472)">
      <stop style="stop-color:#000000;stop-opacity:1" offset="0.0275" id="stop2989"/>
      <stop style="stop-color:#979797;stop-opacity:1" offset="0.54119998" id="stop2991"/>
      <stop style="stop-color:#000000;stop-opacity:1" offset="1" id="stop2993"/>
      <a:midPointStop offset="0.0275" style="stop-color:#000000"/>
      <a:midPointStop offset="0.5" style="stop-color:#000000"/>
      <a:midPointStop offset="0.5412" style="stop-color:#979797"/>
      <a:midPointStop offset="0.5" style="stop-color:#979797"/>
      <a:midPointStop offset="1" style="stop-color:#000000"/>
    </linearGradient>
  </defs>
  <g id="layer1">
    <g transform="matrix(0.373991, 0, 0, 0.373991, -108.5, -54.3529)" id="g1409">
      <g transform="translate(292.817, 152.201)" id="g4246">
        <g id="g4195">
          <g id="g2388">
            <path d="M 58.5,8.708 C 58.5,8.708 58.5,8.708 58.3,8.808 C 57.8,8.508 57.3,8.408 56.5,8.208 C 56.4,8.108 56.3,8.108 56.1,8.108 C 55.5,7.608 55,7.408 54.3,7.408 C 54.2,7.408 54,7.408 54,7.508 C 53.8,7.508 53.8,7.508 53.8,7.608 L 53.8,7.608 L 53.8,7.808 C 54,7.908 54,7.908 54,7.908 C 54.1,8.008 54.3,8.008 54.3,8.008 L 54.3,8.108 C 54.5,9.908 54.7,11.708 55,13.508 C 55.2,15.208 55.3,17.008 55.5,18.708 C 55.5,19.608 55.5,20.308 55.7,21.008 C 56.1,22.908 56.3,24.608 56.4,26.508 C 56.6,28.208 56.6,30.108 56.4,32.008 C 56.3,33.708 56.3,35.608 56.3,37.308 C 56.3,38.208 56.3,39.008 56.3,40.008 C 56.3,41.808 56.5,43.608 56.8,45.408 C 57,47.108 57.4,49.008 57.7,50.808 C 57.8,51.208 58,51.608 58.3,51.908 C 58.3,52.008 58.5,52.008 58.5,52.108 C 58.6,52.008 58.6,52.008 58.7,52.008 C 58.7,52.008 58.8,52.008 58.9,51.908 C 59.5,51.208 60.2,50.908 61.1,50.608 C 61.5,50.508 62,50.308 62.3,50.008 C 62.5,49.908 62.7,49.708 62.7,49.708 C 62.7,49.608 62.7,49.608 62.8,49.608 L 62.8,49.508 C 62.7,49.208 62.7,49.008 62.6,48.908 C 62,47.008 61.5,45.408 61.1,43.608 C 60.7,41.808 60.3,40.008 60.1,38.208 C 60,36.508 59.9,34.608 60,32.808 C 60,31.008 60,29.108 60,27.408 C 60,25.608 60,23.708 59.9,21.908 C 59.8,20.108 59.7,18.208 59.5,16.508 C 59.3,14.708 59,12.908 59,11.008 C 59,10.608 59.2,10.108 59.3,9.708 C 59.3,9.208 59,8.908 58.7,8.708 C 58.6,8.708 58.6,8.708 58.5,8.708 z M 58.2,10.408 L 58.3,10.508 C 58.2,11.108 58.2,11.908 58.3,12.608 C 58.3,14.408 58.3,16.108 58.5,17.908 C 58.7,19.608 58.8,21.508 58.9,23.208 C 59,25.108 59,27.008 59,28.708 C 59,30.608 59,32.408 59,34.208 C 59,36.008 59,37.808 59.3,39.608 C 59.5,41.408 59.8,43.208 60.3,45.008 C 60.5,45.608 60.7,46.408 60.8,47.008 C 61,47.808 61.3,48.508 61.9,49.208 L 61.8,49.208 C 61.8,49.208 61.8,49.208 61.8,49.308 C 61.8,49.408 61.8,49.408 61.8,49.508 C 60.9,49.708 60,50.108 59.3,50.608 C 59.2,50.708 59,50.908 58.8,51.008 C 58.8,50.908 58.8,50.608 58.7,50.508 C 58.7,49.908 58.5,49.308 58.3,48.708 C 58,47.008 57.7,45.108 57.5,43.408 C 57.4,42.008 57.3,40.708 57.3,39.408 C 57.2,38.208 57,37.108 57.2,36.008 C 57.3,34.108 57.3,32.308 57.4,30.508 C 57.5,28.708 57.4,26.908 57.2,25.008 C 56.9,23.208 56.7,21.508 56.3,19.608 C 56.3,19.208 56.2,18.708 56.1,18.108 C 55.8,16.408 55.6,14.608 55.5,12.808 C 55.4,11.408 55.2,10.008 55,8.608 C 55.2,8.808 55.4,8.908 55.7,8.808 C 55.8,8.908 55.8,8.908 55.8,8.908 C 56.1,9.008 56.3,9.008 56.5,9.108 C 56.6,9.208 56.7,9.408 56.7,9.508 C 57,9.808 57.4,10.008 58,10.108 C 58,10.308 58.1,10.408 58.2,10.408 z " id="path2390"/>
            <path d="M 58.3,10.508 L 58.2,10.408 C 58.1,10.408 58,10.308 58,10.108 C 57.4,10.008 57,9.808 56.7,9.508 C 56.7,9.408 56.6,9.208 56.5,9.108 C 56.3,9.008 56.1,9.008 55.8,8.908 C 55.8,8.908 55.8,8.908 55.7,8.808 C 55.4,8.908 55.2,8.808 55,8.608 C 55.2,10.008 55.4,11.408 55.5,12.808 C 55.6,14.608 55.8,16.408 56.1,18.108 C 56.2,18.708 56.3,19.208 56.3,19.608 C 56.7,21.508 56.9,23.208 57.2,25.008 C 57.4,26.908 57.5,28.708 57.4,30.508 C 57.3,32.308 57.3,34.108 57.2,36.008 C 57,37.108 57.2,38.208 57.3,39.408 C 57.3,40.708 57.4,42.008 57.5,43.408 C 57.7,45.108 58,47.008 58.3,48.708 C 58.5,49.308 58.7,49.908 58.7,50.508 C 58.8,50.608 58.8,50.908 58.8,51.008 C 59,50.908 59.2,50.708 59.3,50.608 C 60,50.108 60.9,49.708 61.8,49.508 C 61.8,49.408 61.8,49.408 61.8,49.308 C 61.8,49.208 61.8,49.208 61.8,49.208 L 61.9,49.208 C 61.3,48.508 61,47.808 60.8,47.008 C 60.7,46.408 60.5,45.608 60.3,45.008 C 59.8,43.208 59.5,41.408 59.3,39.608 C 59,37.808 59,36.008 59,34.208 C 59,32.408 59,30.608 59,28.708 C 59,27.008 59,25.108 58.9,23.208 C 58.8,21.508 58.7,19.608 58.5,17.908 C 58.3,16.108 58.3,14.408 58.3,12.608 C 58.2,11.908 58.2,11.108 58.3,10.508 z " style="fill:#333333" id="path2392"/>
          </g>
          <g id="g2497">
            <path d="M 69.7,24.708 C 69.6,24.608 69.5,24.608 69.2,24.408 C 68.8,24.208 68,24.008 66.7,23.608 C 65.4,23.208 62.8,23.308 59,23.908 C 58.8,24.508 58.8,25.208 59.2,26.008 C 59.6,25.908 60.2,25.708 60.7,25.708 C 61.2,25.608 61.5,25.608 61.8,25.608 C 62,25.608 62.3,25.608 62.5,25.608 C 62.8,25.608 63.3,25.608 63.9,25.608 C 64.5,25.608 65.2,25.808 65.7,26.308 C 65.7,26.408 65.5,26.508 65.2,26.708 C 64.7,27.008 64,27.308 63,27.608 C 62,27.908 60.9,28.108 59.7,28.208 C 58.3,28.408 56.7,28.408 54.7,28.408 C 52.6,28.408 51.5,28.408 51.3,28.108 C 51.1,28.008 51.2,27.708 51.7,27.608 C 52.1,27.408 53.3,27.008 55.3,26.508 C 56.3,26.208 56.8,26.108 57,26.208 C 57.2,25.808 57.3,25.308 57.1,24.708 C 56.9,24.208 57,24.008 57.1,23.908 C 54.3,24.408 52.7,24.708 52.3,24.908 C 52.1,25.008 51.7,25.108 51,25.408 C 50.4,25.508 49.8,25.708 49.2,25.908 C 48.5,26.108 48,26.508 47.5,27.008 C 47.1,27.408 46.9,27.708 46.9,28.008 C 46.8,28.408 47,28.608 47,29.008 C 47,29.208 47.3,29.608 47.7,30.008 C 48,30.308 48.5,30.508 49.2,30.608 C 52.1,31.108 55.5,31.108 59.2,30.708 C 62.8,30.408 65.5,29.708 67.2,29.008 L 68.3,28.408 C 69.2,28.008 69.6,27.608 69.7,27.508 C 70,27.008 70.3,26.608 70.3,26.408 C 70.4,26.008 70.3,25.708 70.2,25.408 C 69.9,25.008 69.8,24.808 69.7,24.708 z M 69,25.108 C 69.3,25.308 69.3,25.408 69.5,25.608 C 69.5,26.008 69.4,26.408 69.3,26.508 C 69.1,26.908 68.8,27.008 68.5,27.208 C 67.7,27.708 67,28.008 66.2,28.308 L 64.8,28.708 C 64.4,28.908 63.8,29.108 63.2,29.308 C 62.6,29.508 62,29.608 61.2,29.708 L 58.9,30.008 C 58,30.108 57.3,30.108 57,30.108 C 56.7,30.108 56.5,30.108 56.5,30.108 C 54.3,30.108 52.8,30.108 52,30.008 L 50.9,30.008 C 50,30.008 49.8,30.008 50.7,30.008 L 50.1,30.008 C 49.2,29.908 48.5,29.608 47.9,29.108 C 47.4,28.708 47.3,28.208 47.8,27.608 C 48.1,27.208 48.6,26.908 49.2,26.608 C 50.1,26.208 51.2,25.908 52.4,25.608 L 56.5,24.608 L 56.5,25.608 L 53.1,26.408 C 51.5,26.808 50.6,27.208 50.3,27.608 C 49.8,28.008 49.8,28.408 50.3,28.608 C 50.6,28.908 51.3,29.008 52.3,29.008 C 52.7,29.008 53.7,29.008 54.9,29.008 L 58.5,29.008 C 59,28.908 59.7,28.908 60.5,28.708 L 63.8,28.008 L 66,27.208 C 66.3,27.108 66.7,27.008 66.7,26.608 C 67.1,26.108 66.8,25.708 65.9,25.408 C 65,25.008 64.1,25.008 63.2,25.008 L 59.5,25.208 L 59.6,24.408 L 61.7,24.208 C 64.6,23.808 66.9,24.008 68.6,24.908 L 69,25.108 z " id="path2499"/>
            <linearGradient x1="41.803699" y1="23.9165" x2="1680.2037" y2="23.9165" id="linearGradient4361" gradientUnits="userSpaceOnUse" gradientTransform="matrix(0.0205, 0.0025, -0.0006, 0.0047, 21.1637, 234.029)">
              <stop style="stop-color:#4a4a4a;stop-opacity:1" offset="0.0275" id="stop4363"/>
              <stop style="stop-color:#ffffff;stop-opacity:1" offset="0.54119998" id="stop4365"/>
              <stop style="stop-color:#000000;stop-opacity:1" offset="1" id="stop4367"/>
              <a:midPointStop style="stop-color:#4A4A4A" offset="0.0275"/>
              <a:midPointStop style="stop-color:#4A4A4A" offset="0.5"/>
              <a:midPointStop style="stop-color:#FFFFFF" offset="0.5412"/>
              <a:midPointStop style="stop-color:#FFFFFF" offset="0.5"/>
              <a:midPointStop style="stop-color:#000000" offset="1"/>
            </linearGradient>
            <path d="M 69.5,25.608 C 69.3,25.408 69.3,25.308 69,25.108 L 68.6,24.908 C 66.9,24.008 64.6,23.808 61.7,24.208 L 59.6,24.408 L 59.5,25.208 L 63.2,25.008 C 64.1,25.008 65,25.008 65.9,25.408 C 66.8,25.708 67.1,26.108 66.7,26.608 C 66.7,27.008 66.3,27.108 66,27.208 L 63.8,28.008 L 60.5,28.708 C 59.7,28.908 59,28.908 58.5,29.008 L 54.9,29.008 C 53.7,29.008 52.7,29.008 52.3,29.008 C 51.3,29.008 50.6,28.908 50.3,28.608 C 49.8,28.408 49.8,28.008 50.3,27.608 C 50.6,27.208 51.5,26.808 53.1,26.408 L 56.5,25.608 L 56.5,24.608 L 52.4,25.608 C 51.2,25.908 50.1,26.208 49.2,26.608 C 48.6,26.908 48.1,27.208 47.8,27.608 C 47.3,28.208 47.4,28.708 47.9,29.108 C 48.5,29.608 49.2,29.908 50.1,30.008 L 50.7,30.008 C 49.8,30.008 50,30.008 50.9,30.008 L 52,30.008 C 52.8,30.108 54.3,30.108 56.5,30.108 C 56.5,30.108 56.7,30.108 57,30.108 C 57.3,30.108 58,30.108 58.9,30.008 L 61.2,29.708 C 62,29.608 62.6,29.508 63.2,29.308 C 63.8,29.108 64.4,28.908 64.8,28.708 L 66.2,28.308 C 67,28.008 67.7,27.708 68.5,27.208 C 68.8,27.008 69.1,26.908 69.3,26.508 C 69.4,26.408 69.5,26.008 69.5,25.608 z " style="fill:url(#XMLID_63_)" id="path2508"/>
          </g>
          <path d="M 71.3,20.108 C 71.2,20.008 71,19.908 70.7,19.708 C 70.3,19.508 69.3,19.208 67.8,18.808 C 66.4,18.408 63.5,18.508 59,19.108 C 58.8,19.808 58.8,20.608 59.2,21.608 C 59.7,21.408 60.3,21.208 60.9,21.208 C 61.5,21.108 62,21.108 62.3,21.108 C 62.5,21.108 62.7,21.108 63,21.108 C 63.3,21.108 63.8,21.108 64.6,21.108 C 65.4,21.008 66.1,21.308 66.7,21.908 C 66.7,22.008 66.5,22.108 66,22.508 C 65.5,22.708 64.7,23.008 63.6,23.408 C 62.5,23.708 61.2,24.008 59.7,24.108 C 58.3,24.208 56.3,24.408 54,24.308 C 51.7,24.208 50.3,24.208 50.1,24.008 C 49.9,23.808 50,23.608 50.5,23.408 C 51,23.108 52.5,22.708 54.7,22.108 C 55.8,21.908 56.5,21.608 56.7,21.808 C 57,21.308 57,20.708 56.7,20.108 C 56.7,19.508 56.7,19.108 56.8,19.008 C 53.5,19.708 51.7,20.108 51.5,20.308 C 51,20.408 50.5,20.608 49.8,20.708 C 49.2,21.008 48.4,21.208 47.7,21.508 C 47,21.708 46.4,22.108 45.8,22.608 C 45.3,23.108 45.1,23.608 45.1,23.908 C 45.1,24.208 45.2,24.608 45.2,24.908 C 45.3,25.208 45.5,25.608 46,26.008 C 46.3,26.508 47,26.708 47.7,26.908 C 51,27.508 54.9,27.508 59.2,27.008 C 63.4,26.608 66.5,25.908 68.3,24.908 L 69.6,24.308 C 70.7,23.808 71.2,23.408 71.3,23.208 C 71.7,22.608 71.9,22.308 72,22.008 C 72.1,21.608 72,21.208 71.7,20.808 C 71.5,20.408 71.4,20.108 71.3,20.108 z M 70.5,20.608 C 70.7,20.708 70.9,20.908 71,21.008 C 71,21.608 70.9,22.008 70.8,22.108 C 70.5,22.508 70.3,22.808 69.8,23.008 C 69,23.508 68.1,23.908 67.3,24.208 L 65.7,24.608 C 65.2,24.908 64.6,25.108 63.7,25.408 C 63.1,25.608 62.4,25.708 61.5,25.808 L 58.9,26.108 C 57.7,26.208 57,26.208 56.7,26.308 C 56.3,26.308 56.2,26.408 56.1,26.408 C 53.7,26.308 52,26.208 51,26.208 L 49.7,26.108 C 48.6,26.208 48.5,26.108 49.4,26.108 L 48.8,26.108 C 47.7,26.008 46.8,25.708 46.3,25.208 C 45.7,24.608 45.7,24.008 46.2,23.308 C 46.5,22.908 47,22.608 47.7,22.208 C 48.7,21.808 50,21.408 51.4,21.108 L 56.2,20.008 L 56.2,21.008 L 52.3,22.008 C 50.5,22.508 49.3,23.008 49,23.408 C 48.5,23.908 48.5,24.208 49,24.508 C 49.3,24.808 50.2,25.008 51.3,25.008 C 51.8,25.008 52.8,24.908 54.3,25.008 L 58.3,24.908 C 59,24.908 59.8,24.808 60.7,24.708 L 64.5,23.908 L 67,23.008 C 67.5,22.908 67.7,22.608 67.9,22.208 C 68.3,21.608 68,21.208 67,20.808 C 65.9,20.508 64.8,20.308 63.7,20.508 L 59.5,20.608 L 59.7,19.608 L 62.1,19.508 C 65.5,19.008 68,19.308 70,20.308 L 70.5,20.608 z " id="path2512"/>
          <path d="M 71,21.008 C 70.9,20.908 70.7,20.708 70.5,20.608 L 70,20.308 C 68,19.308 65.5,19.008 62.1,19.508 L 59.7,19.608 L 59.5,20.608 L 63.7,20.508 C 64.8,20.308 65.9,20.508 67,20.808 C 68,21.208 68.3,21.608 67.9,22.208 C 67.7,22.608 67.5,22.908 67,23.008 L 64.5,23.908 L 60.7,24.708 C 59.8,24.808 59,24.908 58.3,24.908 L 54.3,25.008 C 52.8,24.908 51.8,25.008 51.3,25.008 C 50.2,25.008 49.3,24.808 49,24.508 C 48.5,24.208 48.5,23.908 49,23.408 C 49.3,23.008 50.5,22.508 52.3,22.008 L 56.2,21.008 L 56.2,20.008 L 51.4,21.108 C 50,21.408 48.7,21.808 47.7,22.208 C 47,22.608 46.5,22.908 46.2,23.308 C 45.7,24.008 45.7,24.608 46.3,25.208 C 46.8,25.708 47.7,26.008 48.8,26.108 L 49.4,26.108 C 48.5,26.108 48.6,26.208 49.7,26.108 L 51,26.208 C 52,26.208 53.7,26.308 56.1,26.408 C 56.2,26.408 56.3,26.308 56.7,26.308 C 57,26.208 57.7,26.208 58.9,26.108 L 61.5,25.808 C 62.4,25.708 63.1,25.608 63.7,25.408 C 64.6,25.108 65.2,24.908 65.7,24.608 L 67.3,24.208 C 68.1,23.908 69,23.508 69.8,23.008 C 70.3,22.808 70.5,22.508 70.8,22.108 C 70.9,22.008 71,21.608 71,21.008 z " style="fill:url(#XMLID_64_)" id="path2521"/>
          <g id="g2962">
            <path d="M 65.9,8.508 C 66.5,6.208 65.6,4.208 63.5,2.408 C 61.3,0.708 59.3,-0.092 57.5,0.008 C 55.6,0.208 53.8,0.708 52.2,1.208 C 50.5,1.908 49.2,3.208 48.2,5.508 C 47.2,7.708 47.6,9.908 49.4,11.908 C 51.2,14.008 53.5,14.908 56.3,14.608 C 59.2,14.408 60.8,14.208 61.4,14.208 C 61.9,14.108 62.7,13.708 63.7,13.008 C 64.6,12.108 65.3,10.608 65.9,8.508 z M 58.1,1.208 C 58.6,1.408 59.2,1.408 59.7,1.608 L 61.1,2.108 C 64,3.708 65.3,5.708 65.2,8.208 C 65.2,8.408 65,8.908 64.7,9.608 C 64.5,10.408 64.3,10.808 64.1,11.008 C 63,12.308 61.8,13.108 60.5,13.508 C 58.3,13.708 56.8,13.908 55.8,13.708 C 54.4,13.708 53.1,13.508 52,12.908 C 51.2,12.408 50.3,11.408 49.3,10.008 C 49,9.608 48.7,9.108 48.7,8.708 C 48.5,8.208 48.5,7.708 48.7,7.208 C 48.8,6.608 49,6.108 49.3,5.608 L 50.1,4.208 C 50.4,3.908 50.7,3.508 51.2,3.208 C 51.5,2.808 51.9,2.508 52.3,2.208 L 53.7,1.608 L 55.1,1.208 C 56.5,1.008 57.5,1.008 58.1,1.208 z " id="path2964"/>
            <radialGradient cx="1323.043" cy="-5313.3013" r="819.20001" fx="1323.043" fy="-5313.3013" id="radialGradient4374" gradientUnits="userSpaceOnUse" gradientTransform="matrix(0.0633, -0.0168, 0.0085, 0.0321, 10.887, 202.99)">
              <stop style="stop-color:#008837;stop-opacity:1" offset="0" id="stop4376"/>
              <stop style="stop-color:#000000;stop-opacity:1" offset="1" id="stop4378"/>
              <a:midPointStop style="stop-color:#008837" offset="0"/>
              <a:midPointStop style="stop-color:#008837" offset="0.5"/>
              <a:midPointStop style="stop-color:#000000" offset="1"/>
            </radialGradient>
            <path d="M 59.7,1.608 C 59.2,1.408 58.6,1.408 58.1,1.208 C 57.5,1.008 56.5,1.008 55.1,1.208 L 53.7,1.608 L 52.3,2.208 C 51.9,2.508 51.5,2.808 51.2,3.208 C 50.7,3.508 50.4,3.908 50.1,4.208 L 49.3,5.608 C 49,6.108 48.8,6.608 48.7,7.208 C 48.5,7.708 48.5,8.208 48.7,8.708 C 48.7,9.108 49,9.608 49.3,10.008 C 50.3,11.408 51.2,12.408 52,12.908 C 53.1,13.508 54.4,13.708 55.8,13.708 C 56.8,13.908 58.3,13.708 60.5,13.508 C 61.8,13.108 63,12.308 64.1,11.008 C 64.3,10.808 64.5,10.408 64.7,9.608 C 65,8.908 65.2,8.408 65.2,8.208 C 65.3,5.708 64,3.708 61.1,2.108 L 59.7,1.608 z " style="fill:url(#XMLID_96_)" id="path2971"/>
          </g>
        </g>
        <g id="g4215">
          <g id="g2445">
            <g id="g2447">
              <g id="g2449">
                <g id="g2451">
                  <path d="M 73.8,38.208 C 72.2,37.608 70.3,37.208 68.3,37.008 C 67.1,36.808 65.2,36.708 62.4,36.608 C 61.3,36.508 60.2,36.608 59,36.708 C 53.3,37.508 48.3,39.508 43.7,42.608 C 43.6,42.908 43.3,43.008 43.1,43.208 C 38.7,46.608 35,50.708 32,55.408 C 30,58.208 28.4,61.508 27,64.708 C 25.5,68.008 23.1,70.608 20.2,72.708 L 6.5,82.308 C 7.5,87.608 9,92.908 11.1,98.008 C 13,102.608 15.5,106.608 18.4,109.608 C 19,110.408 19.9,111.108 20.7,111.708 C 23.3,113.508 26.4,114.408 30,114.608 L 30.3,114.608 C 32.9,114.408 35.4,113.708 37.9,112.608 C 42.6,110.608 47.5,108.708 52.4,107.008 C 54.2,106.408 55.8,105.808 57.7,105.208 C 62.2,103.708 66.8,102.508 71.5,101.508 C 74.9,100.908 78,99.608 80.7,97.508 C 86.2,93.208 90.3,87.908 93.2,81.508 C 94.7,77.608 95.5,73.708 95.3,69.808 L 95.3,68.708 L 95.6,68.008 C 94.9,61.408 92.8,55.608 89.2,50.208 C 87.7,48.108 86.1,46.308 84.3,44.908 C 82.3,43.108 80.1,41.608 77.7,40.008 C 76.6,39.308 75.3,38.708 73.8,38.208 z M 67.8,39.108 C 70,39.508 72.1,40.008 74.2,40.908 C 75.3,41.208 76.2,41.808 77.2,42.508 C 79.1,43.808 81,45.308 82.7,46.908 C 83.2,47.408 83.7,47.808 84.3,48.208 C 86.2,49.608 87.6,51.208 88.7,53.208 C 88.7,53.508 89,53.708 89.2,53.908 L 92.7,61.808 L 93.7,67.608 L 93.3,68.408 L 93.3,74.708 L 92,78.508 C 91.5,81.208 89.4,85.108 85.5,90.408 L 86.3,89.508 L 84.8,91.208 L 85.5,90.408 C 80.4,96.008 75.8,99.208 71.7,99.908 C 61.6,101.508 54,103.508 48.9,105.808 C 46.7,106.808 44.5,107.608 42.7,108.508 C 40.3,109.408 38.3,110.108 36.7,110.708 C 32.3,112.208 28.6,112.708 25.6,112.208 C 24.9,112.008 24,111.708 23.3,111.308 C 21.1,110.108 19,108.008 17,104.908 C 14.2,100.608 12.3,96.708 11.3,93.208 C 10.3,89.908 9.5,86.608 9.1,83.608 C 14,80.508 18.6,77.008 23.1,73.308 C 24.5,72.208 25.7,71.008 26.7,69.508 C 28.8,66.608 30.6,63.608 32,60.408 C 34,55.608 37,51.508 40.6,48.008 C 43.5,45.108 46.9,43.108 50.5,41.608 C 51.9,41.108 53.4,40.708 54.9,40.308 C 59.1,39.008 63.3,38.608 67.5,39.108 C 67.5,39.108 67.7,39.108 67.8,39.108 z " id="path2453"/>
                  <linearGradient x1="2013.2227" y1="-3377.9888" x2="3651.6226" y2="-3377.9888" id="linearGradient4387" gradientUnits="userSpaceOnUse" gradientTransform="matrix(0.0396, -0.0197, 0.0189, 0.0378, 36.8787, 242.507)">
                    <stop style="stop-color:#ffffff;stop-opacity:1" offset="0" id="stop4389"/>
                    <stop style="stop-color:#000000;stop-opacity:1" offset="1" id="stop4391"/>
                    <a:midPointStop offset="0" style="stop-color:#FFFFFF"/>
                    <a:midPointStop offset="0.5" style="stop-color:#FFFFFF"/>
                    <a:midPointStop offset="1" style="stop-color:#000000"/>
                  </linearGradient>
                  <path d="M 74.2,40.908 C 72.1,40.008 70,39.508 67.8,39.108 C 67.7,39.108 67.5,39.108 67.5,39.108 C 63.3,38.608 59.1,39.008 54.9,40.308 C 53.4,40.708 51.9,41.108 50.5,41.608 C 46.9,43.108 43.5,45.108 40.6,48.008 C 37,51.508 34,55.608 32,60.408 C 30.6,63.608 28.8,66.608 26.7,69.508 C 25.7,71.008 24.5,72.208 23.1,73.308 C 18.6,77.008 14,80.508 9.1,83.608 C 9.5,86.608 10.3,89.908 11.3,93.208 C 12.3,96.708 14.2,100.608 17,104.908 C 19,108.008 21.1,110.108 23.3,111.308 C 24,111.708 24.9,112.008 25.6,112.208 C 28.6,112.708 32.3,112.208 36.7,110.708 C 38.3,110.108 40.3,109.408 42.7,108.508 C 44.5,107.608 46.7,106.808 48.9,105.808 C 54,103.508 61.6,101.508 71.7,99.908 C 75.8,99.208 80.4,96.008 85.5,90.408 C 89.4,85.108 91.5,81.208 92,78.508 L 93.3,74.708 L 93.3,68.408 L 93.7,67.608 L 92.7,61.808 L 89.2,53.908 C 89,53.708 88.7,53.508 88.7,53.208 C 87.6,51.208 86.2,49.608 84.3,48.208 C 83.7,47.808 83.2,47.408 82.7,46.908 C 81,45.308 79.1,43.808 77.2,42.508 C 76.2,41.808 75.3,41.208 74.2,40.908 z " style="fill:url(#XMLID_59_)" id="path2460"/>
                  <linearGradient x1="2013.2227" y1="-2710.3794" x2="3651.6226" y2="-2710.3794" id="linearGradient4394" gradientUnits="userSpaceOnUse" gradientTransform="matrix(0.0396, -0.0197, 0.0189, 0.0378, 36.8787, 242.507)">
                    <stop style="stop-color:#ffffff;stop-opacity:1" offset="0" id="stop4396"/>
                    <stop style="stop-color:#000000;stop-opacity:1" offset="1" id="stop4398"/>
                    <a:midPointStop offset="0" style="stop-color:#FFFFFF"/>
                    <a:midPointStop offset="0.5" style="stop-color:#FFFFFF"/>
                    <a:midPointStop offset="1" style="stop-color:#000000"/>
                  </linearGradient>
                  <path d="M 85.5,90.408 L 84.8,91.208 L 86.3,89.508 L 85.5,90.408 z " style="fill:url(#XMLID_60_)" id="path2467"/>
                </g>
              </g>
            </g>
          </g>
          <g id="g2523">
            <g id="g2525">
              <g id="g2527">
                <g id="g2529">
                  <path d="M 78.7,35.108 C 74.1,37.408 70.9,40.908 69,45.708 C 68.2,47.808 67.3,49.908 66.5,52.008 L 66.4,52.008 C 66,52.808 65.6,53.508 65,54.208 C 65,54.208 65,54.408 64.9,54.408 C 64.5,55.108 64.3,55.908 64.2,56.708 C 64,58.408 64.1,60.008 64.7,61.508 C 64.8,62.108 65.1,62.608 65.3,63.208 C 65.7,64.508 66.5,65.708 67.3,66.908 C 67.4,66.908 67.4,66.908 67.4,67.008 C 68.3,68.208 69.2,69.408 70.2,70.508 C 70.2,70.608 70.3,70.608 70.3,70.708 C 70.7,71.108 70.9,71.508 71.2,71.908 C 71.2,72.008 71.2,72.008 71.2,72.008 C 71.3,72.108 71.3,72.208 71.4,72.408 C 72.3,73.908 73.5,74.908 75,75.408 C 75.1,75.408 75.1,75.408 75.2,75.508 C 77.6,76.008 80,76.608 82.4,77.308 C 84.4,78.008 86.3,78.808 88.4,79.508 C 93.5,81.208 98.8,81.408 104.2,80.008 C 105.9,79.608 107.6,79.108 109.2,78.408 C 111.8,76.808 113.5,75.408 114.3,74.008 C 114.8,73.008 115.4,71.908 116,70.608 C 116.6,69.408 116.6,66.608 115.9,62.108 C 115.3,57.708 113.7,54.208 111.2,51.808 L 93.7,33.008 C 93.2,32.908 92.7,32.608 92.3,32.508 C 92.1,32.408 91.8,32.408 91.7,32.308 C 91.6,32.308 91.6,32.308 91.6,32.308 L 91.5,32.308 C 89.4,31.708 87.3,31.908 85.1,32.608 C 83.6,33.108 82.2,33.608 80.7,34.208 C 80,34.608 79.3,34.808 78.7,35.108 z M 72.2,43.608 C 73.2,42.008 74.5,40.608 76,39.508 C 78.4,37.808 80.9,36.408 83.6,35.408 C 83.9,35.308 84.1,35.208 84.4,35.108 C 86.3,34.508 88.2,34.008 90,33.708 L 92.2,34.008 C 92.5,34.408 92.8,34.708 93,35.108 C 96.5,39.608 100.2,43.608 104.3,47.508 C 105.2,48.408 106.7,50.008 108.9,52.008 C 111.1,54.208 112.7,57.308 113.9,61.208 C 115.2,65.208 114.7,69.008 112.7,72.808 C 108.8,76.908 105.4,78.908 102.3,78.908 C 99.3,78.908 96.6,78.808 94.2,78.508 C 92.5,78.108 90.8,77.708 89.2,77.208 C 84,75.808 78.7,74.408 73.6,72.808 C 69.7,68.508 67.3,65.108 66.5,62.708 C 65.7,60.308 65.5,58.608 65.8,57.708 C 66.2,56.808 66.4,55.908 66.5,55.008 C 68.1,51.108 70,47.408 72.2,43.608 z " id="path2531"/>
                  <linearGradient x1="-329.15619" y1="-7203.4263" x2="1309.2438" y2="-7203.4263" id="linearGradient4406" gradientUnits="userSpaceOnUse" gradientTransform="matrix(0.0697, 0, 0, 0.0274, 47.0701, 253.681)">
                    <stop style="stop-color:#ffffff;stop-opacity:1" offset="0" id="stop4408"/>
                    <stop style="stop-color:#000000;stop-opacity:1" offset="1" id="stop4410"/>
                    <a:midPointStop offset="0" style="stop-color:#FFFFFF"/>
                    <a:midPointStop offset="0.5" style="stop-color:#FFFFFF"/>
                    <a:midPointStop offset="1" style="stop-color:#000000"/>
                  </linearGradient>
                  <path d="M 76,39.508 C 74.5,40.608 73.2,42.008 72.2,43.608 C 70,47.408 68.1,51.108 66.5,55.008 C 66.4,55.908 66.2,56.808 65.8,57.708 C 65.5,58.608 65.7,60.308 66.5,62.708 C 67.3,65.108 69.7,68.508 73.6,72.808 C 78.7,74.408 84,75.808 89.2,77.208 C 90.8,77.708 92.5,78.108 94.2,78.508 C 96.6,78.808 99.3,78.908 102.3,78.908 C 105.4,78.908 108.8,76.908 112.7,72.808 C 114.7,69.008 115.2,65.208 113.9,61.208 C 112.7,57.308 111.1,54.208 108.9,52.008 C 106.7,50.008 105.2,48.408 104.3,47.508 C 100.2,43.608 96.5,39.608 93,35.108 C 92.8,34.708 92.5,34.408 92.2,34.008 L 90,33.708 C 88.2,34.008 86.3,34.508 84.4,35.108 C 84.1,35.208 83.9,35.308 83.6,35.408 C 80.9,36.408 78.4,37.808 76,39.508 z " style="fill:url(#XMLID_65_)" id="path2538"/>
                </g>
              </g>
            </g>
          </g>
          <g id="g2984">
            <path d="M 28,65.508 C 27.9,65.708 27.9,65.908 27.7,66.108 C 27,67.508 26.1,68.608 25,69.508 C 25,69.608 25.1,69.708 25.2,69.708 C 25.5,69.908 25.6,70.008 25.9,70.208 C 25.9,70.208 25.9,70.308 25.9,70.408 C 25.9,70.408 25.9,70.508 25.9,70.608 C 26.4,71.008 27,71.408 27.6,71.608 C 28.3,71.908 28.9,72.208 29.4,72.708 C 30.8,74.008 32.3,75.208 33.6,76.608 C 34,77.008 34.3,77.308 34.7,77.608 C 36.2,78.308 37.7,78.808 39.5,79.008 C 40.2,79.108 41,79.208 41.7,79.208 C 44.9,79.508 47,78.208 48.3,75.608 C 49.8,72.808 50.8,69.908 51.3,66.708 C 51.5,65.708 51.6,64.708 51.6,63.708 C 51.6,60.908 50.4,58.708 48,57.208 C 47.5,56.608 47,56.408 46.3,56.208 C 44.8,55.908 43.3,55.208 41.8,54.508 C 40.3,53.608 38.7,53.108 37.1,52.908 C 37.1,52.908 37.1,52.908 37.1,52.808 C 37.1,52.708 37.1,52.708 37,52.608 L 37,52.608 C 36.5,52.508 36.2,52.408 35.7,52.408 C 35.5,52.508 35.2,52.608 34.9,52.708 L 34.9,52.808 C 34.6,52.708 34.3,52.708 34,52.808 L 34,52.908 C 33.9,52.908 33.8,53.008 33.7,53.008 C 33.7,53.008 33.6,53.008 33.5,53.108 C 33.5,53.108 33.4,53.208 33.3,53.308 C 33.3,53.408 33.3,53.408 33.2,53.508 C 33.1,53.608 33,53.708 33,53.908 C 32.7,54.608 32.4,55.108 32,55.708 C 31.9,56.008 31.7,56.208 31.6,56.608 C 31.6,56.608 31.6,56.608 31.7,56.708 C 31.7,56.708 31.8,56.808 31.9,56.908 C 31.9,56.908 32,56.908 32.1,57.008 C 32.1,57.008 32.3,57.008 32.3,56.908 C 32.4,56.908 32.5,56.708 32.5,56.608 C 32.9,56.008 33.3,55.408 33.7,54.708 C 33.7,54.608 33.8,54.508 33.8,54.508 C 33.7,54.708 33.6,55.008 33.5,55.208 C 32.6,56.408 31.9,57.608 31.3,58.808 C 31.3,58.908 31.3,58.908 31.3,59.008 L 31.3,59.108 C 31.1,59.208 31,59.408 31,59.508 C 30.9,59.508 30.9,59.608 30.9,59.608 C 30.7,60.008 30.5,60.508 30.4,61.008 C 29.9,62.608 29,64.108 28,65.508 z M 27.4,69.608 C 27.4,69.408 27.3,69.108 27.1,68.908 C 27,68.908 27.1,68.908 27.1,68.808 C 27.4,68.508 27.6,68.108 27.8,67.708 C 28.4,66.708 29,65.708 29.7,64.908 C 29.8,64.608 30,64.408 30.1,64.108 C 30.3,64.008 30.4,63.708 30.5,63.508 C 30.4,63.108 30.5,62.908 30.6,62.608 C 30.9,62.208 31.1,61.808 31.2,61.408 C 31.3,61.308 31.3,61.208 31.4,61.108 C 31.4,61.108 31.4,61.008 31.5,61.008 C 31.5,60.608 31.7,60.108 32,59.708 C 33,57.808 34.1,55.908 35.2,53.908 C 35.8,53.908 36.5,54.008 37.2,54.008 C 37.5,54.108 38,54.208 38.3,54.308 C 38.7,54.608 39.2,55.008 39.7,55.108 C 42.6,56.108 45.4,57.408 48.1,58.708 C 48.1,58.808 48.1,58.808 48.1,58.908 C 48.1,58.908 48.1,59.008 48.2,59.008 C 48.3,59.208 48.5,59.508 48.8,59.608 C 49,59.808 49.1,60.008 49.3,60.108 C 49.3,60.208 49.5,60.408 49.5,60.508 C 49.6,60.608 49.6,60.608 49.6,60.608 C 49.6,60.708 49.6,60.708 49.6,60.808 C 49.7,60.908 49.7,60.908 49.7,61.008 C 50.5,62.508 50.7,64.108 50.3,65.908 C 50,67.208 49.7,68.508 49.2,69.708 C 49,70.908 48.7,72.008 48.3,73.008 C 47.9,73.708 47.5,74.408 47,75.008 C 47,75.108 47,75.208 47,75.208 C 47,75.308 47,75.408 47,75.408 C 47,75.508 47,75.508 47,75.608 C 46.5,76.208 45.9,76.608 45.2,77.008 C 42.8,78.008 40.3,78.108 37.7,77.508 C 37.3,77.308 36.8,77.108 36.4,76.908 C 34.1,75.508 32.1,73.608 30.4,71.408 C 29.7,71.008 29,70.508 28.4,70.008 C 28,69.908 27.7,69.708 27.5,69.708 C 27.5,69.608 27.5,69.608 27.4,69.608 z " id="path2986"/>
            <linearGradient x1="9122.25" y1="-2914.9419" x2="10760.65" y2="-2914.9419" id="linearGradient4415" gradientUnits="userSpaceOnUse" gradientTransform="matrix(0.0085, -0.0188, 0.0133, 0.006, -5.8524, 270.472)">
              <stop style="stop-color:#000000;stop-opacity:1" offset="0.0275" id="stop4417"/>
              <stop style="stop-color:#979797;stop-opacity:1" offset="0.54119998" id="stop4419"/>
              <stop style="stop-color:#000000;stop-opacity:1" offset="1" id="stop4421"/>
              <a:midPointStop offset="0.0275" style="stop-color:#000000"/>
              <a:midPointStop offset="0.5" style="stop-color:#000000"/>
              <a:midPointStop offset="0.5412" style="stop-color:#979797"/>
              <a:midPointStop offset="0.5" style="stop-color:#979797"/>
              <a:midPointStop offset="1" style="stop-color:#000000"/>
            </linearGradient>
            <path d="M 27.1,68.908 C 27.3,69.108 27.4,69.408 27.4,69.608 C 27.5,69.608 27.5,69.608 27.5,69.708 C 27.7,69.708 28,69.908 28.4,70.008 C 29,70.508 29.7,71.008 30.4,71.408 C 32.1,73.608 34.1,75.508 36.4,76.908 C 36.8,77.108 37.3,77.308 37.7,77.508 C 40.3,78.108 42.8,78.008 45.2,77.008 C 45.9,76.608 46.5,76.208 47,75.608 C 47,75.508 47,75.508 47,75.408 C 47,75.408 47,75.308 47,75.208 C 47,75.208 47,75.108 47,75.008 C 47.5,74.408 47.9,73.708 48.3,73.008 C 48.7,72.008 49,70.908 49.2,69.708 C 49.7,68.508 50,67.208 50.3,65.908 C 50.7,64.108 50.5,62.508 49.7,61.008 C 49.7,60.908 49.7,60.908 49.6,60.808 C 49.6,60.708 49.6,60.708 49.6,60.608 C 49.6,60.608 49.6,60.608 49.5,60.508 C 49.5,60.408 49.3,60.208 49.3,60.108 C 49.1,60.008 49,59.808 48.8,59.608 C 48.5,59.508 48.3,59.208 48.2,59.008 C 48.1,59.008 48.1,58.908 48.1,58.908 C 48.1,58.808 48.1,58.808 48.1,58.708 C 45.4,57.408 42.6,56.108 39.7,55.108 C 39.2,55.008 38.7,54.608 38.3,54.308 C 38,54.208 37.5,54.108 37.2,54.008 C 36.5,54.008 35.8,53.908 35.2,53.908 C 34.1,55.908 33,57.808 32,59.708 C 31.7,60.108 31.5,60.608 31.5,61.008 C 31.4,61.008 31.4,61.108 31.4,61.108 C 31.3,61.208 31.3,61.308 31.2,61.408 C 31.1,61.808 30.9,62.208 30.6,62.608 C 30.5,62.908 30.4,63.108 30.5,63.508 C 30.4,63.708 30.3,64.008 30.1,64.108 C 30,64.408 29.8,64.608 29.7,64.908 C 29,65.708 28.4,66.708 27.8,67.708 C 27.6,68.108 27.4,68.508 27.1,68.808 C 27.1,68.908 27,68.908 27.1,68.908 z " style="fill:url(#XMLID_98_)" id="path2995"/>
          </g>
        </g>
      </g>
    </g>
  </g>
</svg>