<?xml version="1.0" encoding="UTF-8" standalone="no"?>
<svg xmlns:dc="http://purl.org/dc/elements/1.1/" xmlns:cc="http://web.resource.org/cc/" xmlns:rdf="http://www.w3.org/1999/02/22-rdf-syntax-ns#" xmlns:svg="http://www.w3.org/2000/svg" xmlns="http://www.w3.org/2000/svg" xmlns:xlink="http://www.w3.org/1999/xlink" xmlns:sodipodi="http://sodipodi.sourceforge.net/DTD/sodipodi-0.dtd" xmlns:inkscape="http://www.inkscape.org/namespaces/inkscape" version="1.0" width="48" height="48" viewBox="0 0 95.991 150.915" id="svg3220" sodipodi:version="0.32" inkscape:version="0.45" inkscape:output_extension="org.inkscape.output.svg.inkscape" sodipodi:docname="epiphany.svg" inkscape:export-xdpi="960" inkscape:export-ydpi="960" sodipodi:modified="TRUE">
  <metadata id="metadata3253">
    <rdf:RDF>
      <cc:Work rdf:about="">
        <dc:format>image/svg+xml</dc:format>
        <dc:type rdf:resource="http://purl.org/dc/dcmitype/StillImage"/>
      </cc:Work>
    </rdf:RDF>
  </metadata>
  <defs id="defs3251">
    <linearGradient id="linearGradient6176">
      <stop style="stop-color:#4f9f4f;stop-opacity:1;" offset="0" id="stop6178"/>
      <stop style="stop-color:#287928;stop-opacity:1;" offset="1" id="stop6180"/>
    </linearGradient>
    <linearGradient id="linearGradient6168">
      <stop style="stop-color:#88a4bf;stop-opacity:1;" offset="0" id="stop6170"/>
      <stop style="stop-color:#375471;stop-opacity:1;" offset="1" id="stop6172"/>
    </linearGradient>
    <linearGradient id="linearGradient6152">
      <stop style="stop-color:#000000;stop-opacity:1;" offset="0" id="stop6154"/>
      <stop style="stop-color:#000000;stop-opacity:0;" offset="1" id="stop6156"/>
    </linearGradient>
    <linearGradient inkscape:collect="always" xlink:href="#linearGradient6176" id="linearGradient6571" gradientUnits="userSpaceOnUse" x1="79.223267" y1="17.296555" x2="64.689232" y2="32.928822"/>
    <linearGradient inkscape:collect="always" xlink:href="#linearGradient6176" id="linearGradient6573" gradientUnits="userSpaceOnUse" x1="56.919456" y1="17.834959" x2="53.723083" y2="32.215332"/>
    <linearGradient inkscape:collect="always" xlink:href="#linearGradient6176" id="linearGradient6575" gradientUnits="userSpaceOnUse" x1="33.668209" y1="29.721798" x2="37.919281" y2="40.956154"/>
    <linearGradient inkscape:collect="always" xlink:href="#linearGradient6176" id="linearGradient6577" gradientUnits="userSpaceOnUse" x1="43.908318" y1="21.606606" x2="45.326817" y2="35.130184"/>
    <radialGradient inkscape:collect="always" xlink:href="#linearGradient6168" id="radialGradient6579" gradientUnits="userSpaceOnUse" gradientTransform="matrix(1.2152, 0, 0, 1.14062, -12.3302, -7.69427)" cx="58.629101" cy="53.898556" fx="58.629101" fy="53.898556" r="17.894423"/>
  </defs>
  <sodipodi:namedview inkscape:window-height="971" inkscape:window-width="1280" inkscape:pageshadow="2" inkscape:pageopacity="0.0" guidetolerance="10.0" gridtolerance="10.0" objecttolerance="10.0" borderopacity="1.0" bordercolor="#666666" pagecolor="#ffffff" id="base" showguides="true" inkscape:guide-bbox="true" inkscape:zoom="7.1464925" inkscape:cx="48.815567" inkscape:cy="24.591891" inkscape:window-x="1280" inkscape:window-y="53" inkscape:current-layer="layer7"/>
  <g inkscape:groupmode="layer" id="layer7" inkscape:label="layer" style="display:inline">
    <g id="g6509" transform="matrix(2.47557, 0, 0, 2.47557, -92.1393, -38.4349)">
      <g style="opacity:0.90031152" transform="translate(0.746611, 0.0497741)" id="g5837">
        <path id="path5839" d="M 58.75,37.875 C 49.436522,38.039533 36.352015,43.776048 37.59375,54.9375 C 39.388245,65.548147 50.442353,75.901176 61.59375,73 C 66.227064,71.313603 71.377442,66.336431 70.78125,61.3125 C 67.935673,59.732536 61.104923,60.438679 62.09375,64.90625 C 61.286536,70.079814 54.208512,69.383205 52.0625,65.53125 C 48.381758,60.712718 55.202012,56.569729 58.75,54.5625 C 63.086123,51.588903 71.661417,47.917315 69.4375,41.28125 C 67.170605,37.993899 62.363841,37.857021 58.75,37.875 z M 56.125,42.125 C 60.393976,41.307026 62.822581,46.240104 60.21875,49.375 C 57.220426,54.678146 48.946968,58.287649 43.65625,54.5 C 40.619633,47.767648 50.424064,41.741423 56.125,42.125 z " style="opacity:0.1;fill:#000000;fill-opacity:1;stroke:none;stroke-opacity:1"/>
        <path id="path5844" d="M 58.75,37.625 C 49.573752,38.071215 37.963959,42.578486 37.21875,53.09375 C 37.742239,64.538963 49.608258,75.938722 61.21875,73.40625 C 66.201756,71.712707 71.467346,66.749642 71.09375,61.28125 C 68.472731,59.469127 63.572565,60.181439 61.875,62.78125 C 63.042537,67.161608 57.583584,70.260711 54.34375,67.3125 C 50.739652,65.607872 50.188543,60.598117 53.625,58.40625 C 58.915908,53.523882 68.274122,51.501414 70.1875,43.75 C 70.446781,38.090637 62.798192,37.505037 58.75,37.625 z M 56.125,42.375 C 59.932312,41.595714 62.472389,45.857675 60.21875,48.875 C 57.403988,54.268246 49.659229,57.697992 44.09375,54.65625 C 41.297244,50.232755 46.462533,45.181863 50.34375,43.59375 C 52.138114,42.765068 54.136479,42.383505 56.125,42.375 z " style="opacity:0.1;fill:#000000;fill-opacity:1;stroke:none;stroke-opacity:1"/>
        <path id="path5849" d="M 58.75,37.40625 C 49.754825,37.797023 38.413272,42.152362 37.0625,52.09375 C 36.734157,62.284312 45.162632,71.401166 54.78125,73.8125 C 62.410333,75.717438 70.916826,69.353577 71.5,61.53125 C 69.286293,58.876734 64.589683,60.138712 62.09375,61.90625 C 61.126994,63.518236 62.208923,66.194977 60.09375,67.40625 C 56.244244,70.124108 49.702153,65.008281 52,60.6875 C 56.808171,53.997046 67.651146,52.74694 70.375,44.28125 C 71.321831,38.211998 63.146397,37.132068 58.75,37.40625 z M 56.125,42.59375 C 59.256015,42.005746 62.035258,45.159825 60.34375,48 C 57.951669,53.700033 50.495655,57.096501 44.6875,54.78125 C 41.884584,52.319067 44.526615,48.097964 46.65625,46.25 C 49.223582,43.931897 52.633777,42.625127 56.125,42.59375 z " style="opacity:0.1;fill:#000000;fill-opacity:1;stroke:none;stroke-opacity:1"/>
        <path id="path5854" d="M 58.71875,37.15625 C 50.622223,37.592911 41.659543,40.707354 37.78125,48.3125 C 34.844821,55.167251 38.759332,62.819382 43.549795,67.612295 C 48.182808,72.289585 55.222879,75.903391 61.875,73.6875 C 66.859793,71.816472 71.279493,67.224871 71.78125,61.71875 C 70.848344,59.173225 67.096468,59.788258 64.866983,60.259711 C 63.068162,60.661609 60.752698,61.848339 61.46875,64.0625 C 61.597442,67.183835 57.815758,69.061889 55.375,67.34375 C 53.028247,66.274066 50.396229,63.136284 52.40625,60.5 C 56.962097,55.00165 64.953573,53.162496 69.21875,47.40625 C 71.474132,44.795963 71.089007,40.198895 67.78125,38.78125 C 65.039126,37.302851 61.813527,37.059244 58.71875,37.15625 z M 56.125,42.84375 C 58.349001,42.605318 61.163417,44.045227 60.5,46.625 C 58.9039,52.985526 51.218185,56.664565 45.09375,54.78125 C 42.467256,53.133782 44.102197,49.279595 45.78125,47.53125 C 48.330683,44.568419 52.199819,42.861524 56.125,42.84375 z " style="opacity:0.1;fill:#000000;fill-opacity:1;stroke:none;stroke-opacity:1"/>
        <path id="path5859" d="M 58.71875,36.90625 C 53.932469,37.095247 49.106077,38.406671 44.970664,40.680386 C 41.123166,42.843871 37.665828,46.283709 36.758726,50.745129 C 36.064462,54.098702 36.870434,57.581534 38.3125,60.625 C 39.264581,62.756046 40.731819,64.881097 42.316835,66.670367 C 44.810756,69.421373 47.838194,71.80571 51.238017,73.187376 C 54.905176,74.738939 59.291968,75.301903 62.973606,73.479333 C 65.659219,72.348226 68.04882,70.266329 69.75,67.84375 C 70.88396,66.195624 71.65047,64.344061 72.03125,62.34375 C 72.223691,61.153863 71.282369,60.209363 70.25,59.9375 C 67.717239,59.187185 64.784704,59.765856 62.57786,60.916843 C 61.748727,61.396692 60.879534,62.262603 61.21875,63.3125 C 61.400198,65.145319 60.439321,67.187574 58.5625,67.625 C 57.184963,67.940222 55.736856,67.460467 54.71706,66.673648 C 53.215518,65.614048 51.582136,64.015313 52,62 C 52.593029,59.903759 54.498324,58.590103 56.21875,57.375 C 60.729206,54.20163 66.083201,51.922535 69.505297,47.460805 C 70.598178,45.911461 71.212155,43.946101 70.76456,42.010302 C 70.17253,39.456577 67.570296,38.118469 65.209036,37.527493 C 63.108173,36.966312 60.887436,36.797531 58.71875,36.90625 z M 56.59375,43.125 C 58.096113,43.113352 59.935055,43.680799 60.25,45.3125 C 60.583,47.396787 59.238446,49.237118 58.03125,50.78125 C 55.686547,53.352051 52.340739,54.865418 48.85975,55.0195 C 47.290919,55.048394 45.261816,55.177134 44.3125,53.71875 C 43.606068,52.233705 44.092502,50.373874 44.967834,49.081927 C 46.444306,46.620637 48.932603,44.865732 51.566601,43.88405 C 53.168981,43.310246 54.894201,43.039784 56.59375,43.125 z " style="opacity:0.1;fill:#000000;fill-opacity:1;stroke:none;stroke-opacity:1"/>
        <path id="path5864" d="M 58.71875,36.65625 C 54.390682,36.822662 50.091732,37.881916 46.1875,39.75 C 42.709692,41.537955 39.333373,44.045743 37.586022,47.671707 C 35.614567,51.355629 36.023981,55.949384 37.625,59.71875 C 39.886641,64.987442 43.914559,69.540381 48.954403,72.343044 C 52.224683,74.220617 56.189802,75.301466 59.989201,74.699642 C 63.205244,74.123287 66.044466,72.289524 68.3125,70 C 70.304044,67.81179 71.929483,65.145495 72.28125,62.15625 C 72.41331,60.424606 70.558534,59.513919 69.042415,59.423271 C 66.794183,59.173326 64.320241,59.643784 62.45286,60.729343 C 61.443152,61.242814 60.621301,62.286353 60.96875,63.465972 C 61.082487,64.955466 60.39651,66.644154 59,67.21875 C 57.456043,67.853017 55.682067,67.209795 54.529561,66.236148 C 53.211185,65.20696 51.805698,63.762001 52.28512,61.945432 C 52.803135,60.160125 54.471883,58.956747 55.940574,57.840552 C 60.180479,54.809914 65.100033,52.63118 68.721582,48.814404 C 70.299098,47.068027 71.540831,44.765274 71.071011,42.326601 C 70.797801,40.116669 68.884988,38.645467 66.953293,37.836022 C 64.363658,36.806479 61.492245,36.533484 58.71875,36.65625 z M 56.59375,43.375 C 58.013515,43.365439 59.858854,43.918128 60.02397,45.494849 C 60.225153,46.854493 59.509234,48.122268 58.900953,49.226695 C 56.985315,52.102676 53.912667,54.047939 50.513756,54.562825 C 48.802861,54.836378 46.823904,55.00433 45.273305,54.307203 C 43.957466,53.610568 44.096897,51.81351 44.510519,50.603886 C 45.299509,48.284381 47.284169,46.478463 49.359319,45.164091 C 51.555388,43.953546 54.062361,43.238354 56.59375,43.375 z " style="opacity:0.1;fill:#000000;fill-opacity:1;stroke:none;stroke-opacity:1"/>
        <path id="path5869" d="M 58.71875,36.40625 C 50.669948,36.860349 41.674137,39.91198 37.53125,47.25 C 33.983443,53.69637 37.214181,61.551105 41.6875,66.6875 C 46.381277,72.118262 53.938184,76.570633 61.32204,74.620614 C 67.032336,72.872708 72.016587,67.762005 72.53125,61.65625 C 71.65525,58.52191 67.244399,58.842228 64.679483,59.572211 C 62.561807,60.012227 60.003907,61.45819 60.71875,64.03125 C 60.886807,66.593803 57.718543,68.151038 55.6875,66.6875 C 53.534323,65.735067 51.18918,62.772354 53.25,60.5625 C 58.397378,54.989629 67.397737,53.108644 70.90625,45.90625 C 72.489911,42.518915 70.387073,38.622044 66.96875,37.5625 C 64.338781,36.598602 61.525489,36.250723 58.71875,36.40625 z M 56.125,43.59375 C 58.173157,43.259671 60.629472,44.772719 59.65625,47.03125 C 57.742526,52.58686 51.039165,55.685708 45.46875,54.125 C 43.326767,52.743399 45.021245,49.467821 46.3125,48 C 48.79332,45.245156 52.313798,43.578394 56.125,43.59375 z " style="opacity:0.1;fill:#000000;fill-opacity:1;stroke:none;stroke-opacity:1"/>
        <path id="path5874" d="M 58.6875,36.15625 C 49.405175,36.637748 38.072993,40.996436 35.96875,51 C 34.736469,61.555064 43.287023,71.330017 52.84375,74.5625 C 61.687906,77.89179 72.090357,70.68226 72.75,61.53125 C 71.401695,57.71095 65.796434,58.650229 62.875,59.96875 C 60.304095,60.603172 60.383987,63.134746 60.25,65.125 C 58.390073,69.864386 50.306555,64.301318 53.40625,60.78125 C 58.767542,54.716285 69.340469,52.955898 71.5625,44.40625 C 72.611505,38.607959 65.830201,36.147285 61.139944,36.151614 C 60.32415,36.092505 59.5038,36.124942 58.6875,36.15625 z M 56.125,43.84375 C 58.622941,43.232251 60.644582,45.728061 59.0625,47.84375 C 56.798529,52.754999 49.966574,55.848391 45.0625,53.53125 C 43.684281,49.180372 48.754301,45.458047 52.5625,44.34375 C 53.739798,43.960336 54.911254,43.864591 56.125,43.84375 z " style="opacity:0.1;fill:#000000;fill-opacity:1;stroke:none;stroke-opacity:1"/>
        <path id="path5879" d="M 58.6875,35.9375 C 48.684732,36.276352 36.052264,41.713578 35.53125,53.03125 C 36.034034,65.29911 47.972593,76.981424 60.5,75.34375 C 66.836564,73.858237 73.297726,67.829695 72.8125,60.96875 C 70.361277,57.006906 63.193824,58.329224 60.53125,61.5625 C 60.052879,63.50481 60.438932,67.190715 57.28125,66.71875 C 54.252741,66.391915 51.07902,62.227035 54.4375,60 C 60.093875,54.603857 71.03897,52.269601 71.875,43.25 C 71.82449,36.87418 63.602842,35.682437 58.6875,35.9375 z M 56.09375,44.0625 C 59.553938,43.280887 60.104659,47.098442 58.125,49.0625 C 55.47358,52.867939 49.277619,55.65176 45.09375,53.15625 C 44.34149,47.781251 51.44806,43.986622 56.09375,44.0625 z " style="opacity:0.1;fill:#000000;fill-opacity:1;stroke:none;stroke-opacity:1"/>
        <path id="path5884" d="M 58.6875,35.6875 C 48.409017,35.877445 34.819923,42.141347 35.3125,54.09375 C 36.531331,66.181323 48.611165,77.70119 61.15625,75.4375 C 67.343273,73.713741 74.202349,67.285734 72.84375,60.4375 C 69.703753,56.789511 61.775207,57.995288 59.9375,62.40625 C 61.091229,65.509723 57.47976,67.955944 55.21875,65.53125 C 51.319934,63.601759 54.071564,59.554053 56.90625,58.375 C 62.63941,54.10362 73.268164,50.485786 71.9375,41.59375 C 70.288892,36.292297 63.422344,35.525262 58.6875,35.6875 z M 56.125,44.3125 C 60.736596,43.657925 58.822524,49.109274 56.5,50.59375 C 53.839478,53.022925 47.937326,55.513702 45.21875,52.65625 C 45.295569,47.563481 51.595239,44.269285 56.125,44.3125 z " style="opacity:0.1;fill:#000000;fill-opacity:1;stroke:none;stroke-opacity:1"/>
      </g>
      <g style="opacity:0.90031152" transform="translate(0.746611, 0.0497741)" id="g5889">
        <path id="path5891" d="M 43.96875,25.15625 C 39.623211,26.010848 41.97135,33.839094 45.25,33.84375 C 46.493012,31.918138 47.086129,25.392871 43.96875,25.15625 z " style="opacity:0.1;fill:#000000;fill-opacity:1"/>
        <path id="path5896" d="M 43.875,24.90625 C 39.336128,25.931882 41.644905,34.000389 45.25,34.15625 C 46.8172,32.189983 47.489787,25.024372 43.875,24.90625 z " style="opacity:0.1;fill:#000000;fill-opacity:1"/>
        <path id="path5901" d="M 44.03125,24.625 C 39.277679,25.66498 41.046257,32.495252 44.3125,34.375 C 46.561463,35.00792 46.647716,31.13795 46.6875,29.71875 C 46.697105,28.024774 46.345151,24.537412 44.03125,24.625 z " style="opacity:0.1;fill:#000000;fill-opacity:1"/>
        <path id="path5906" d="M 44,24.40625 C 40.875663,24.702387 40.183656,28.659888 41.46875,31.09375 C 42.157443,32.699142 43.58002,35.306976 45.53125,34.5625 C 47.481434,32.01487 47.392935,27.95221 45.8125,25.1875 C 45.356527,24.649591 44.722568,24.291419 44,24.40625 z " style="opacity:0.1;fill:#000000;fill-opacity:1"/>
        <path id="path5911" d="M 43.96875,24.15625 C 42.154534,24.340389 40.756114,25.904167 40.65293,27.710738 C 40.515249,30.330478 41.696805,33.070481 43.78125,34.65625 C 44.450967,35.09311 45.573806,35.175712 46.079098,34.358402 C 47.343228,32.204606 47.436602,29.465185 46.875,27.0625 C 46.607087,25.859108 45.993854,24.588143 44.786401,24.19478 C 44.518508,24.160172 44.235354,24.099835 43.96875,24.15625 z " style="opacity:0.1;fill:#000000;fill-opacity:1"/>
        <path id="path5916" d="M 43.90625,23.90625 C 42.026422,24.141725 40.533924,25.753838 40.405193,27.64855 C 40.222852,30.272239 41.403004,32.873311 43.3125,34.625 C 44.102419,35.297495 45.473223,35.563947 46.174234,34.626768 C 47.551478,32.613675 47.629069,29.904203 47.25,27.53125 C 46.960557,25.815279 45.944875,23.640504 43.90625,23.90625 z " style="opacity:0.1;fill:#000000;fill-opacity:1"/>
        <path id="path5921" d="M 43.875,23.65625 C 40.020779,24.129944 39.30283,28.93708 40.96875,31.84375 C 41.806791,33.624871 43.773044,36.428247 46,35.125 C 48.277037,32.472278 48.151392,28.076377 46.59375,25.0625 C 46.01513,24.159113 44.993454,23.470729 43.875,23.65625 z " style="opacity:0.1;fill:#000000;fill-opacity:1"/>
        <path id="path5926" d="M 44.0625,23.40625 C 39.207303,23.816607 38.979407,30.237367 41.5,33.3125 C 42.450762,35.517464 46.237527,36.978731 47.15625,33.90625 C 48.422863,30.911196 48.606242,23.522776 44.0625,23.40625 z " style="opacity:0.1;fill:#000000;fill-opacity:1"/>
        <path id="path5931" d="M 44.03125,23.15625 C 38.419224,23.698528 38.754751,31.58268 42.21875,34.5625 C 43.998138,37.249388 47.867577,35.644476 47.875,32.53125 C 48.515092,29.39783 48.381609,23.227586 44.03125,23.15625 z " style="opacity:0.1;fill:#000000;fill-opacity:1"/>
        <path id="path5936" d="M 44,22.90625 C 36.468469,23.690833 39.154289,36.673723 45.75,36.09375 C 49.730711,34.010693 49.549697,22.869271 44,22.90625 z " style="opacity:0.1;fill:#000000;fill-opacity:1"/>
      </g>
      <g style="opacity:0.90031152" transform="translate(0.746611, 0.0497741)" id="g5941">
        <path id="path5943" d="M 35.1875,32.375 C 31.527427,33.831926 34.982832,40.25572 37.78125,39.5625 C 38.312125,37.405636 37.901158,32.705132 35.1875,32.375 z " style="opacity:0.1;fill:#000000;fill-opacity:1"/>
        <path id="path5948" d="M 35.34375,32.09375 C 31.05943,33.31826 34.590571,40.572813 37.875,39.875 C 38.729871,37.578442 38.128427,32.706322 35.34375,32.09375 z " style="opacity:0.1;fill:#000000;fill-opacity:1"/>
        <path id="path5953" d="M 35.1875,31.875 C 30.912327,33.50555 34.069049,40.006808 37.625,40.3125 C 39.516533,38.490794 38.204261,34.63424 36.90625,32.6875 C 36.501876,32.164622 35.881577,31.688953 35.1875,31.875 z " style="opacity:0.1;fill:#000000;fill-opacity:1"/>
        <path id="path5958" d="M 35.25,31.625 C 32.584542,32.094841 32.239381,35.755161 33.78125,37.65625 C 34.673208,39.085645 36.443781,41.285662 38.21875,40.25 C 39.340302,37.607519 38.604856,34.102502 36.59375,32.03125 C 36.285909,31.732624 35.748072,31.526341 35.25,31.625 z " style="opacity:0.1;fill:#000000;fill-opacity:1"/>
        <path id="path5963" d="M 35.21875,31.375 C 33.3773,31.73741 32.22339,33.681036 32.683733,35.494092 C 33.118765,37.657442 34.555491,39.646104 36.5222,40.6324 C 37.345586,41.061321 38.48686,40.799929 38.72615,39.82155 C 39.370067,37.438633 38.761566,34.754607 37.5625,32.71875 C 37.031396,31.973668 36.21756,31.202824 35.21875,31.375 z " style="opacity:0.1;fill:#000000;fill-opacity:1"/>
        <path id="path5968" d="M 35.15625,31.125 C 33.45543,31.507331 32.144237,33.204918 32.34375,35 C 32.578819,37.047657 33.769921,38.910816 35.34375,40.1875 C 36.193909,40.89516 37.67404,41.561031 38.5625,40.59375 C 39.561224,39.119526 39.276488,37.128175 38.940714,35.450354 C 38.535596,33.771974 37.764896,31.874222 36.09375,31.1875 C 35.783969,31.129106 35.470864,31.041576 35.15625,31.125 z " style="opacity:0.1;fill:#000000;fill-opacity:1"/>
        <path id="path5973" d="M 35.125,30.875 C 32.167443,31.444845 31.25853,35.25141 32.9375,37.625 C 33.973844,39.521104 36.16004,42.120221 38.5,41 C 40.384118,38.610593 39.357491,34.868785 37.9375,32.4375 C 37.333326,31.490395 36.328416,30.69673 35.125,30.875 z " style="opacity:0.1;fill:#000000;fill-opacity:1"/>
        <path id="path5978" d="M 35.28125,30.625 C 31.097355,31.245173 31.076272,36.873673 33.75,39.28125 C 34.865036,41.472754 39.220462,42.839281 39.5625,39.40625 C 40.112479,36.456078 39.02965,30.734008 35.28125,30.625 z " style="opacity:0.1;fill:#000000;fill-opacity:1"/>
        <path id="path5983" d="M 35.03125,30.40625 C 29.764563,31.680371 31.432517,38.990292 35.28125,41.03125 C 38.073416,43.477365 40.850311,39.913451 39.9375,37.03125 C 39.665445,34.381575 38.417517,30.113637 35.03125,30.40625 z " style="opacity:0.1;fill:#000000;fill-opacity:1"/>
        <path id="path5988" d="M 35,30.15625 C 27.938854,31.824182 32.655398,43.532246 38.71875,41.75 C 41.908554,39.078164 39.805654,29.767645 35,30.15625 z " style="opacity:0.1;fill:#000000;fill-opacity:1"/>
      </g>
      <g style="opacity:0.90031152" transform="translate(0.746611, 0.0497741)" id="g5993">
        <path id="path5995" d="M 55.65625,20.5 C 50.665645,20.719391 51.041157,29.945214 54.875,31 C 57.022364,29.460925 59.980264,20.734903 55.65625,20.5 z " style="opacity:0.1;fill:#000000;fill-opacity:1"/>
        <path id="path6000" d="M 55.625,20.25 C 50.451812,20.571338 50.686799,29.856134 54.6875,31.3125 C 57.556265,29.320284 59.439018,23.380514 56.8125,20.4375 C 56.449223,20.258926 56.026527,20.209416 55.625,20.25 z " style="opacity:0.1;fill:#000000;fill-opacity:1"/>
        <path id="path6005" d="M 55.59375,20 C 50.390087,20.516645 50.667564,28.298345 53.59375,31.15625 C 55.906351,32.843848 57.339539,28.21359 57.84375,26.625 C 58.362065,24.530554 59.029099,19.799129 55.59375,20 z " style="opacity:0.1;fill:#000000;fill-opacity:1"/>
        <path id="path6010" d="M 55.5625,19.78125 C 52.001327,19.800658 50.736944,24.170446 51.46875,27.15625 C 51.784172,28.920596 52.808681,32.357024 55.15625,31.6875 C 57.946351,29.335691 58.907858,25.135769 58.28125,21.6875 C 57.908574,20.422496 56.919926,19.574992 55.5625,19.78125 z " style="opacity:0.1;fill:#000000;fill-opacity:1"/>
        <path id="path6015" d="M 55.53125,19.53125 C 53.680426,19.567688 52.012384,20.922717 51.520073,22.621691 C 50.637013,25.232552 51.106959,28.221517 52.4375,30.59375 C 53.038365,31.537818 54.238115,32.560718 55.375,31.84375 C 57.054254,30.601456 57.742408,28.607881 58.33647,26.661401 C 58.793928,24.59602 59.149345,22.109645 57.875,20.34375 C 57.280409,19.716099 56.441219,19.438013 55.53125,19.53125 z " style="opacity:0.1;fill:#000000;fill-opacity:1"/>
        <path id="path6020" d="M 55.53125,19.28125 C 53.272765,19.314941 51.429226,21.172725 51.034506,23.337723 C 50.497854,26.143563 51.001337,29.331349 52.872097,31.519262 C 53.592808,32.396266 55.015983,32.660865 55.84375,31.78125 C 57.335614,30.466137 58.10272,28.511821 58.610439,26.604053 C 59.053796,24.44759 59.461652,21.806615 57.90625,20.03125 C 57.268902,19.419742 56.42131,19.199454 55.53125,19.28125 z " style="opacity:0.1;fill:#000000;fill-opacity:1"/>
        <path id="path6025" d="M 55.53125,19.03125 C 51.144418,19.139969 49.723978,24.583446 50.954541,28.201685 C 51.334803,30.255962 53.21474,33.631044 55.65625,32.21875 C 58.63821,29.771434 59.756884,25.10738 58.96875,21.375 C 58.499044,19.850701 57.171531,18.830492 55.53125,19.03125 z " style="opacity:0.1;fill:#000000;fill-opacity:1"/>
        <path id="path6030" d="M 55.75,18.78125 C 50.546714,18.739324 49.183113,25.593079 51.125,29.53125 C 51.58521,32.229608 55.28358,34.226731 56.9375,31.375 C 59.146348,28.132299 61.043695,22.434045 57.8125,19.34375 C 57.224796,18.890659 56.448661,18.797632 55.75,18.78125 z " style="opacity:0.1;fill:#000000;fill-opacity:1"/>
        <path id="path6035" d="M 55.71875,18.53125 C 48.449952,18.666388 48.278151,31.069436 54.34375,33.0625 C 59.057792,32.095049 60.219181,25.405611 59.4375,21.25 C 58.960139,19.618164 57.477375,18.406457 55.71875,18.53125 z " style="opacity:0.1;fill:#000000;fill-opacity:1"/>
        <path id="path6040" d="M 55.53125,18.3125 C 48.08794,18.591714 48.00153,31.564586 54.4375,33.3125 C 59.372653,32.14202 60.790829,24.961958 59.4375,20.65625 C 58.888084,19.09091 57.177084,18.101584 55.53125,18.3125 z " style="opacity:0.1;fill:#000000;fill-opacity:1"/>
      </g>
      <g style="opacity:0.90031152" transform="translate(0.746611, 0.0497741)" id="g6045">
        <path id="path6047" d="M 73.8125,18.40625 C 67.099752,18.24267 61.357475,27.52959 65.65625,32.9375 C 71.02727,33.917818 75.020547,27.808267 77.375,23.8125 C 79.169865,20.613317 77.80884,17.865274 73.8125,18.40625 z " style="opacity:0.1;fill:#000000;fill-opacity:1"/>
        <path id="path6052" d="M 73.8125,18.15625 C 66.918751,18.037942 61.193012,27.2811 65.3125,33 C 69.874981,34.686707 73.986377,29.263591 76.34375,26.09375 C 78.472999,23.960164 79.849073,18.119985 75.21875,18.1875 C 74.750262,18.168668 74.281002,18.076412 73.8125,18.15625 z " style="opacity:0.1;fill:#000000;fill-opacity:1"/>
        <path id="path6057" d="M 73.78125,17.9375 C 66.819934,17.865777 61.306048,26.705236 64.78125,32.78125 C 67.843031,35.513598 72.019103,31.365737 74.1875,29.21875 C 76.357389,26.635989 80.262766,22.268433 77.78125,18.84375 C 76.663708,17.962308 75.145286,17.858561 73.78125,17.9375 z " style="opacity:0.1;fill:#000000;fill-opacity:1"/>
        <path id="path6062" d="M 73.78125,17.6875 C 66.808289,17.692409 61.742658,25.795011 64.03125,32.09375 C 65.377032,35.123175 69.171969,33.818505 71.144749,32.22811 C 74.703849,29.452619 78.635221,25.446638 78.84375,20.59375 C 78.740791,18.061282 75.952547,17.54969 73.78125,17.6875 z " style="opacity:0.1;fill:#000000;fill-opacity:1"/>
        <path id="path6067" d="M 73.75,17.4375 C 70.822245,17.55795 68.068064,18.859999 66.199488,21.090847 C 64.624748,22.883051 63.729194,25.082376 63.34375,27.4375 C 63.013037,29.698893 63.202177,32.455233 65.21875,33.8125 C 66.940531,34.708152 68.934877,33.848383 70.426038,32.995445 C 72.806545,31.526178 74.807035,29.468437 76.47582,27.24326 C 77.902966,25.170548 79.36845,22.748243 79.032857,20.131427 C 78.830256,18.958868 77.87272,18.036481 76.739023,17.760213 C 75.776109,17.469925 74.752298,17.369122 73.75,17.4375 z " style="opacity:0.1;fill:#000000;fill-opacity:1"/>
        <path id="path6072" d="M 73.75,17.1875 C 69.974963,17.274268 66.470143,19.536974 64.689332,22.836146 C 63.248609,25.279355 62.585236,28.353693 63.19137,31.179568 C 63.572723,32.917764 65.007962,34.604157 66.934722,34.4375 C 69.391615,34.310301 71.427355,32.708347 73.239357,31.188603 C 75.688067,29.005761 77.753483,26.284926 78.92105,23.23685 C 79.55907,21.551619 79.653063,19.233285 78.03125,18.125 C 76.833973,17.249176 75.209336,17.128002 73.75,17.1875 z " style="opacity:0.1;fill:#000000;fill-opacity:1"/>
        <path id="path6077" d="M 73.71875,16.9375 C 66.266974,17.045725 60.831966,25.562199 63.375,32.40625 C 64.572584,35.429482 68.565986,35.04423 70.779683,33.336917 C 74.93082,30.556987 78.813155,26.324925 79.59375,21.25 C 79.957908,17.901466 76.514849,16.663827 73.71875,16.9375 z " style="opacity:0.1;fill:#000000;fill-opacity:1"/>
        <path id="path6082" d="M 73.71875,16.6875 C 65.85042,16.69288 59.823919,26.522491 63.6875,33.40625 C 66.807804,36.997314 71.854957,33.354661 74.375,30.8125 C 77.2199,27.701033 81.425027,22.926583 79.125,18.5 C 77.899789,16.876171 75.609407,16.625842 73.71875,16.6875 z " style="opacity:0.1;fill:#000000;fill-opacity:1"/>
        <path id="path6087" d="M 73.6875,16.46875 C 65.520666,16.336711 58.982593,27.346075 63.9375,34 C 68.410107,37.494109 73.793035,32.01053 76.59375,28.71875 C 79.283722,25.787568 82.420171,19.004513 77.3125,16.90625 C 76.165831,16.503641 74.908282,16.386116 73.6875,16.46875 z " style="opacity:0.1;fill:#000000;fill-opacity:1"/>
        <path id="path6092" d="M 73.6875,16.21875 C 65.228573,16.023502 58.294945,27.859412 64.09375,34.5 C 69.606893,37.631966 75.072925,31.151224 78,27.1875 C 80.987686,24.024579 81.647674,16.751119 75.96875,16.3125 C 75.215062,16.218574 74.446904,16.146804 73.6875,16.21875 z " style="opacity:0.1;fill:#000000;fill-opacity:1"/>
      </g>
      <path style="opacity:1;fill:url(#linearGradient6571);fill-opacity:1;display:inline" id="path3226" d="M 74.294172,17.296555 C 62.3404,17.296555 60.098035,34.322493 66.8227,34.322493 C 73.546394,34.322493 86.248432,17.296555 74.294172,17.296555 z "/>
      <path style="opacity:1;fill:url(#linearGradient6573);fill-opacity:1;display:inline" id="path3228" d="M 54.445235,32.212775 C 58.025731,32.431424 61.954121,18.548684 55.224597,19.421821 C 48.497502,20.294959 50.863282,31.994127 54.445235,32.212775 z "/>
      <path style="opacity:1;fill:url(#linearGradient6575);fill-opacity:1;display:inline" id="path3230" d="M 38.035887,40.839199 C 40.582416,39.71826 38.36386,28.754237 34.033642,31.744381 C 29.705368,34.735011 35.489357,41.959653 38.035887,40.839199 z "/>
      <path style="opacity:1;fill:url(#linearGradient6577);fill-opacity:1;display:inline" id="path3232" d="M 45.210968,35.100397 C 48.242412,34.48235 48.408585,22.04755 43.002615,24.278254 C 37.595674,26.509443 42.181954,35.719416 45.210968,35.100397 L 45.210968,35.100397 z "/>
      <path id="path3234" d="M 59.572947,36.753198 C 50.389337,36.834664 38.695894,41.488053 36.660592,50.602793 C 34.399759,60.71943 45.970802,74.757053 58.040217,74.757053 C 63.977749,74.75705 70.828616,69.39697 72.109896,62.605251 C 73.088475,57.426193 60.593837,59.500563 61.042796,62.927518 C 61.580673,67.035198 58.028279,69.065508 54.550307,66.417427 C 43.478416,57.987788 72.884792,53.779642 70.946593,42.263167 C 70.318168,38.529055 65.459877,36.700976 59.572947,36.753198 z M 56.114478,43.229966 C 58.837312,43.229966 60.193897,44.143581 60.1939,46.012462 C 60.1939,48.513578 56.394715,54.918016 47.947776,54.918019 C 44.040433,54.918019 44.112017,53.123262 44.11202,51.99404 C 44.11202,48.720817 49.02299,43.229969 56.114478,43.229966 z " style="opacity:1;fill:url(#radialGradient6579);fill-opacity:1;stroke:none;stroke-opacity:1;display:inline"/>
    </g>
  </g>
</svg>