<?xml version="1.0" encoding="UTF-8" standalone="no"?>
<!-- Created with Inkscape (http://www.inkscape.org/) -->
<svg xmlns:svg="http://www.w3.org/2000/svg" xmlns="http://www.w3.org/2000/svg" xmlns:xlink="http://www.w3.org/1999/xlink" xmlns:inkscape="http://www.inkscape.org/namespaces/inkscape" version="1.0" width="48" height="48">
  <defs id="defs2162">
    <linearGradient id="linearGradient3172">
      <stop id="stop3174" style="stop-color:#ffffff;stop-opacity:1" offset="0"/>
      <stop id="stop3180" style="stop-color:#088eff;stop-opacity:1" offset="0.5"/>
      <stop id="stop3176" style="stop-color:#a6d7ff;stop-opacity:0.54782611" offset="1"/>
    </linearGradient>
    <linearGradient x1="26.415232" y1="5.8891668" x2="26.042746" y2="33.802574" id="linearGradient3178" xlink:href="#linearGradient3172" gradientUnits="userSpaceOnUse"/>
    <filter height="1.2419114" y="-0.12095569" width="1.2450668" x="-0.12253338" id="filter3298">
      <feGaussianBlur id="feGaussianBlur3300" stdDeviation="2.1095384" inkscape:collect="always"/>
    </filter>
  </defs>
  <g id="layer3" style="opacity:1;display:inline"/>
  <g id="layer4" style="display:inline"/>
  <g id="layer2" style="display:inline">
    <g id="g3324">
      <path d="M 48.48572,23.959219 A 24.357199,24.040781 0 1 1 -0.22867775,23.959219 A 24.357199,24.040781 0 1 1 48.48572,23.959219 z" transform="matrix(0.96434, 0, 0, 0.988792, 0.665706, 0.537962)" id="path3167" style="opacity:1;fill:#088eff;fill-opacity:1;stroke:none;stroke-width:5;stroke-linecap:round;stroke-linejoin:miter;stroke-miterlimit:4;stroke-dasharray:none;stroke-dashoffset:6.9;stroke-opacity:1;display:inline"/>
      <path d="M 44.552094,24.556257 A 20.659237,20.928705 0 1 1 3.2336197,24.556257 A 20.659237,20.928705 0 1 1 44.552094,24.556257 z" transform="matrix(0.856205, 0, 0, 0.93531, 3.34584, 1.85802)" id="path3162" style="opacity:1;fill:url(#linearGradient3178);fill-opacity:1;stroke:none;stroke-width:0.89600003;stroke-linecap:round;stroke-linejoin:miter;stroke-miterlimit:4;stroke-dasharray:none;stroke-opacity:1;display:inline;filter:url(#filter3298)"/>
      <path d="M 14.626734,38.790456 C 13.787221,40.217416 11.839161,39.554823 12.928398,37.340631 C 14.841533,33.093886 19.143314,22.505753 21.472963,17.284966 C 22.1517,15.70401 23.958112,16.7212 23.420609,18.048127 C 20.719866,24.295995 17.093453,33.676243 14.626734,38.790456 z" id="path2181" style="fill:#ffffff;fill-rule:evenodd;stroke:none;stroke-width:0.96180958px;stroke-linecap:butt;stroke-linejoin:miter;stroke-opacity:1"/>
      <path d="M 26.324539,32.444476 C 25.587869,33.66575 23.639809,32.797471 24.729046,30.583279 C 26.642181,26.336534 30.943962,15.748401 33.273611,10.527614 C 33.952348,8.9466585 35.75876,9.9638485 35.221257,11.290775 C 32.520514,17.538643 28.791258,27.330263 26.324539,32.444476 z" id="path2183" style="fill:#ffffff;fill-rule:evenodd;stroke:none;stroke-width:0.96180958px;stroke-linecap:butt;stroke-linejoin:miter;stroke-opacity:1"/>
      <path d="M 21.828528,31.645849 C 21.091858,33.278495 19.246641,32.513059 20.335878,30.298867 C 22.249013,26.052122 23.054129,23.485751 25.383778,18.264964 C 26.062515,16.684008 27.868927,17.701198 27.331424,19.028125 C 24.630681,25.275993 24.295247,26.531636 21.828528,31.645849 z" id="path2185" style="fill:#ffffff;fill-rule:evenodd;stroke:none;stroke-width:0.96180958px;stroke-linecap:butt;stroke-linejoin:miter;stroke-opacity:1"/>
      <path d="M 0.58862759,28.102843 C 0.68851856,28.844836 1.1128718,30.567057 1.2479066,31.089004 C 5.2419542,30.207894 8.3856288,28.572754 11.945244,26.324826 C 12.958004,27.120169 13.594269,27.801963 14.404478,28.627038 C 14.667719,28.142105 15.304361,26.775091 15.535576,26.415133 C 14.688275,25.589254 14.336883,25.105351 13.662413,24.617059 C 14.473914,24.035896 14.485337,23.871305 16.424535,22.160332 C 16.019431,21.394929 15.797447,20.643598 15.392343,19.897909 C 14.453882,20.906402 13.744199,21.716757 11.720979,23.057489 C 8.83728,21.54196 6.2452941,20.011178 1.0544716,18.634918 C 0.80445635,19.548464 0.67606,20.095444 0.57321689,21.113039 C 2.7770643,21.848907 7.0365202,23.001959 9.4404301,24.684577 C 7.6623763,25.93706 5.2249697,27.151115 0.58862759,28.102843 z" id="path2187" style="fill:#ffffff;fill-rule:evenodd;stroke:none;stroke-width:1px;stroke-linecap:butt;stroke-linejoin:miter;stroke-opacity:1"/>
      <path d="M 17.864965,21.189791 C 18.19836,20.432447 18.408374,19.922198 18.906021,18.793734 C 16.998125,15.027616 16.724471,13.423047 14.960897,10.215161 C 14.209026,8.9364065 12.517387,9.84914 13.16589,11.06799 C 14.948289,14.670228 16.017587,17.231388 17.864965,21.189791 z" id="path2189" style="fill:#ffffff;fill-rule:evenodd;stroke:none;stroke-width:1px;stroke-linecap:butt;stroke-linejoin:miter;stroke-opacity:1"/>
      <path d="M 47.404429,20.986161 C 47.304538,20.244168 46.880185,18.521947 46.74515,18 C 42.751103,18.88111 39.607428,20.51625 36.047813,22.764178 C 35.035053,21.968835 34.398788,21.287041 33.588579,20.461966 C 33.325338,20.946899 32.688696,22.313913 32.457481,22.673871 C 33.304782,23.49975 33.656174,23.983653 34.330644,24.471945 C 33.519143,25.053108 33.50772,25.217699 31.568522,26.928672 C 31.973626,27.694075 32.19561,28.445406 32.600714,29.191095 C 33.539175,28.182602 34.248858,27.372247 36.272078,26.031515 C 39.155777,27.547044 41.568117,29.122738 46.75894,30.498998 C 47.053866,29.54054 47.227174,28.948649 47.330017,27.931054 C 45.12617,27.195186 40.956537,26.087045 38.552627,24.404427 C 40.330681,23.151944 42.768087,21.937889 47.404429,20.986161 z" id="path2191" style="fill:#ffffff;fill-rule:evenodd;stroke:none;stroke-width:1px;stroke-linecap:butt;stroke-linejoin:miter;stroke-opacity:1"/>
      <path d="M 30.041056,27.406925 C 29.707661,28.164269 29.497647,28.674518 29,29.802982 C 30.907896,33.5691 31.18155,35.173669 32.945124,38.381555 C 33.696995,39.66031 35.388634,38.747576 34.740131,37.528726 C 32.957732,33.926488 31.888434,31.365328 30.041056,27.406925 z" id="path2193" style="fill:#ffffff;fill-rule:evenodd;stroke:none;stroke-width:1px;stroke-linecap:butt;stroke-linejoin:miter;stroke-opacity:1"/>
    </g>
  </g>
</svg>