<?xml version="1.0" encoding="UTF-8" standalone="no"?>
<!-- Created with Inkscape (http://www.inkscape.org/) -->
<svg xmlns:svg="http://www.w3.org/2000/svg" xmlns="http://www.w3.org/2000/svg" version="1.0" width="48" height="48">
  <defs id="defs2419"/>
  <g id="layer1">
    <path d="M -2512.3571,493.79077 L -2512.3571,44.647932 L -1961.4285,44.647932 L -1410.4999,44.647932 L -1410.4999,493.79077 L -1410.4999,942.93367 L -1961.4285,942.93367 L -2512.3571,942.93367 L -2512.3571,493.79077 z" id="path2524" style="fill:#f9fbfb"/>
    <path d="M -4326.0485,2198.0668 C -4351.6702,2190.9261 -4382.7788,2155.197 -4402.0778,2110.7449 C -4408.5678,2095.7963 -4417.3146,2085.7799 -4429.7312,2079.0778 C -4458.3698,2063.6194 -4472.3047,2054.59 -4486.9725,2041.9873 C -4533.2299,2002.2423 -4562.7456,1961.9777 -4575.8413,1920.7543 C -4587.6176,1883.6844 -4586.4224,1837.1927 -4572.6785,1797.7305 C -4557.7787,1754.9493 -4497.7029,1688.0952 -4442.8565,1653.2608 C -4399.5134,1625.7325 -4379.2654,1616.3362 -4334.6302,1603.0377 C -4319.3858,1598.4958 -4301.3935,1591.9813 -4294.6475,1588.561 C -4274.8775,1578.5374 -4244.5979,1552.145 -4229.0482,1531.3832 C -4213.2594,1510.3021 -4204.4322,1503.1781 -4182.1243,1493.5127 C -4166.8674,1486.9024 -4164.6631,1486.4643 -4146.5694,1486.4469 L -4127.2798,1486.4284 L -4115.2449,1468.8121 C -4108.6257,1459.1231 -4099.5678,1444.6879 -4095.1162,1436.7337 C -4085.2945,1419.1841 -4059.7507,1382.2841 -4048.5363,1369.4452 C -4034.4148,1353.2783 -4015.1501,1334.9676 -3999.502,1322.8393 C -3977.9851,1306.1623 -3965.6114,1305.1156 -3960.3718,1319.5292 C -3956.7164,1329.5852 -3959.9079,1341.3923 -3975.0684,1373.8981 C -3982.9025,1390.6954 -3983.7829,1395.3732 -3978.3473,1391.3194 C -3976.9147,1390.2509 -3973.5305,1389.0879 -3970.8267,1388.7349 C -3967.1987,1388.2612 -3965.1809,1386.1716 -3963.1249,1380.7587 C -3959.6362,1371.5739 -3957.4966,1370.3863 -3946.829,1371.7138 C -3938.5163,1372.7482 -3938.1506,1372.5695 -3934.2967,1365.5885 C -3932.1133,1361.6336 -3929.7564,1356.2367 -3929.0591,1353.5954 C -3927.0922,1346.1448 -3919.6566,1338.6261 -3914.895,1339.2731 C -3903.5546,1340.8138 -3895.9558,1363.9646 -3897.6524,1391.805 C -3899.6767,1425.0239 -3911.0959,1454.4329 -3931.1881,1478.1732 C -3936.8343,1484.8446 -3942.983,1492.9876 -3944.852,1496.2689 C -3948.0995,1501.9704 -3948.0788,1502.2348 -3944.3847,1502.2348 C -3942.2588,1502.2348 -3938.1044,1500.5101 -3935.1528,1498.4022 C -3929.1159,1494.091 -3924.8592,1495.1695 -3926.7349,1500.535 C -3929.0602,1507.1865 -3921.8125,1504.375 -3915.5675,1496.2029 C -3899.7968,1475.5657 -3897.2813,1474.4188 -3888.6635,1483.9372 L -3883.3549,1489.8006 L -3875.7847,1479.4462 C -3871.6212,1473.7513 -3864.4926,1466.0389 -3859.9434,1462.3076 L -3851.6723,1455.5234 L -3847.1372,1459.3915 C -3844.6429,1461.5189 -3841.9785,1463.2596 -3841.2162,1463.2596 C -3840.454,1463.2596 -3835.7438,1455.32 -3830.7491,1445.6162 C -3825.7544,1435.9123 -3820.1936,1427.4592 -3818.3918,1426.8315 C -3816.5449,1426.188 -3813.2627,1427.2052 -3810.8679,1429.1632 C -3806.8013,1432.488 -3806.6636,1433.9823 -3807.6407,1464.1875 C -3808.2592,1483.3047 -3810.032,1501.5903 -3812.1394,1510.5866 C -3826.2317,1570.7477 -3854.1168,1621.2165 -3910.8508,1689.243 C -3923.8427,1704.8209 -3933.8291,1718.1507 -3933.0426,1718.8647 C -3932.2562,1719.5787 -3915.7842,1716.6754 -3896.4383,1712.4128 C -3821.8046,1695.9686 -3793.6626,1692.4395 -3738.6082,1692.6207 C -3700.4078,1692.7464 -3693.089,1693.2847 -3672.1698,1697.5068 C -3625.0098,1707.0252 -3591.0298,1721.9455 -3563.3155,1745.3038 C -3547.9254,1758.2749 -3529.0714,1778.8585 -3529.0714,1782.6893 C -3529.0714,1786.7151 -3534.7208,1783.3935 -3549.8479,1770.4739 C -3587.4302,1738.3757 -3633.7392,1717.7403 -3687.5017,1709.1351 C -3743.5697,1700.1609 -3842.7525,1712.0695 -3918.0438,1736.8156 C -3956.8511,1749.5705 -3986.986,1766.7217 -3986.986,1776.0538 C -3986.986,1779.5238 -3982.6489,1779.4901 -3956.1711,1775.8141 C -3924.8143,1771.4609 -3778.1996,1771.3459 -3748.3409,1775.6512 C -3714.7434,1780.4957 -3681.0318,1794.3308 -3647.7183,1816.9465 C -3613.7089,1840.0346 -3592.832,1861.467 -3594.892,1871.1785 C -3595.3625,1873.3966 -3599.9518,1870.5832 -3611.8774,1860.766 C -3652.1667,1827.5996 -3685.8962,1808.5228 -3723.2763,1797.761 C -3755.3803,1788.5181 -3767.8661,1787.3256 -3832.6443,1787.3158 C -3892.1537,1787.3068 -3908.4156,1788.3742 -3960.4106,1795.7027 C -4038.8576,1806.7594 -4124.2437,1830.7343 -4129.5047,1843.1814 C -4132.0906,1849.2994 -4120.1138,1863.9843 -4088.1862,1893.8428 C -4070.1762,1910.6857 -4050.8751,1930.1345 -4045.2949,1937.0624 C -4039.6966,1944.0128 -4030.9982,1952.0699 -4025.8884,1955.0382 C -4013.7494,1962.0898 -3998.1255,1968.0813 -3991.8761,1968.0813 C -3983.3497,1968.0813 -3964.8045,1974.954 -3943.4483,1986.0283 C -3901.7957,2007.6274 -3863.7261,2050.9916 -3852.2483,2089.9121 C -3851.0012,2094.1411 -3850.5875,2099.0365 -3851.329,2100.7909 C -3853.627,2106.2278 -3866.3381,2103.0084 -3887.1998,2091.7059 C -3897.7686,2085.9799 -3907.7555,2081.3182 -3909.3931,2081.3466 C -3911.0307,2081.375 -3915.9841,2083.8806 -3920.4006,2086.9145 C -3924.8172,2089.9485 -3929.3053,2092.4308 -3930.3742,2092.4308 C -3931.443,2092.4308 -3935.8814,2089.5076 -3940.2372,2085.9349 C -3950.5741,2077.4563 -3956.674,2077.4563 -3962.184,2085.9349 C -3964.5059,2089.5076 -3967.2292,2092.4308 -3968.236,2092.4308 C -3969.2427,2092.4308 -3976.153,2089.9252 -3983.592,2086.8629 C -3991.0311,2083.8005 -3998.0023,2081.295 -3999.0836,2081.295 C -4000.1649,2081.295 -3994.3488,2087.5589 -3986.1589,2095.2147 L -3971.2682,2109.1344 L -3958.6388,2109.1344 C -3946.7157,2109.1344 -3945.5061,2109.5556 -3937.0094,2116.6662 C -3928.0534,2124.1612 -3927.9501,2124.1919 -3915.869,2122.951 L -3903.7285,2121.7039 L -3894.2507,2129.9487 C -3885.9676,2137.1543 -3884.773,2139.1612 -3884.773,2145.871 C -3884.773,2157.1498 -3893.2715,2164.9142 -3917.2699,2175.5605 C -3936.8039,2184.2264 -3937.0229,2184.2731 -3961.2631,2184.9539 C -3991.222,2185.7954 -4009.472,2183.2628 -4041.0092,2173.8873 C -4075.7343,2163.5641 -4109.3642,2147.9714 -4150.527,2123.1087 C -4192.3762,2097.8314 -4209.6042,2088.9702 -4229.2311,2082.6274 C -4250.2637,2075.8304 -4306.3617,2068.2023 -4308.8148,2071.8059 C -4309.4033,2072.6702 -4296.3372,2085.4178 -4279.7792,2100.1338 C -4258.9012,2118.6893 -4243.103,2130.8544 -4228.2361,2139.824 C -4216.4454,2146.9376 -4206.4794,2154.2619 -4206.0895,2156.1002 C -4204.3965,2164.0814 -4239.6842,2183.7068 -4275.227,2194.5513 C -4290.3072,2199.1525 -4315.8206,2200.9173 -4326.0485,2198.0668 z M -4270.1091,2175.0859 C -4252.2825,2168.994 -4238.4303,2161.7179 -4238.4303,2158.446 C -4238.4303,2156.1016 -4258.1809,2138.9347 -4300.5614,2104.4426 C -4337.4048,2074.457 -4341.9114,2061.3169 -4316.4426,2058.1367 C -4310.9441,2057.4502 -4290.1462,2058.2743 -4270.2251,2059.9682 C -4250.3039,2061.6621 -4233.5148,2062.6032 -4232.9161,2062.0597 C -4232.3173,2061.5161 -4235.0764,2055.8082 -4239.0473,2049.3756 L -4246.2672,2037.6799 L -4284.3406,2020.1607 L -4322.414,2002.6415 L -4331.8435,2011.5757 C -4337.0298,2016.4895 -4345.1724,2022.0758 -4349.9382,2023.9898 C -4360.1104,2028.075 -4361.4125,2030.3595 -4359.7698,2041.2401 C -4358.1905,2051.7008 -4364.9393,2065.6154 -4378.1339,2079.1034 C -4383.3406,2084.4259 -4388.1918,2090.919 -4388.9143,2093.5326 C -4390.6347,2099.756 -4382.1783,2119.3203 -4369.4706,2138.5163 C -4354.7074,2160.8174 -4345.9685,2169.519 -4331.7597,2176.0659 C -4319.8564,2181.5506 -4318.2411,2181.8116 -4301.7736,2180.9108 C -4290.0791,2180.2711 -4279.6905,2178.3601 -4270.1091,2175.0859 z M -3928.4859,2163.913 C -3914.7649,2160.1639 -3903.1713,2152.6592 -3903.1713,2147.5265 C -3903.1713,2140.7807 -3906.696,2139.0461 -3918.2289,2140.1162 C -3928.2653,2141.0475 -3929.2546,2140.7158 -3940.8364,2132.5361 C -3952.3614,2124.3966 -3953.5847,2123.9821 -3966.083,2123.9821 C -3978.3342,2123.9821 -3979.6511,2123.5642 -3985.6573,2117.7706 C -3989.199,2114.3543 -3993.8192,2109.2593 -3995.9246,2106.4484 C -3999.1005,2102.2079 -4000.7827,2101.5246 -4005.8022,2102.436 C -4023.8117,2105.7062 -4029.0559,2084.5699 -4017.65,2054.6841 C -4008.984,2031.9773 -4008.9787,2013.6706 -4017.6338,1998.7326 C -4032.2916,1973.4344 -4067.2124,1933.5939 -4105.5044,1898.4827 C -4131.9247,1874.2571 -4144.2426,1866.4051 -4167.1947,1859.1584 C -4203.6755,1847.6402 -4236.4132,1860.673 -4252.9904,1893.3135 C -4264.9374,1916.8372 -4267.8593,1954.0262 -4259.7444,1979.2758 C -4252.3497,2002.2846 -4229.9592,2033.886 -4201.3356,2061.7127 C -4127.5936,2133.4016 -3996.5124,2182.5002 -3928.4859,2163.913 z M -3874.5581,2070.6232 C -3874.571,2060.5368 -3896.1407,2035.3699 -3922.4284,2014.7698 C -3946.831,1995.6469 -3960.5745,1987.2917 -3973.2483,1983.8747 C -3994.3085,1978.1966 -3997.2317,1980.1129 -3997.1442,1999.5399 C -3997.0106,2029.212 -3990.3692,2057.9766 -3981.8703,2065.6926 C -3976.4756,2070.5904 -3973.9245,2070.2811 -3962.4914,2063.3431 C -3953.3825,2057.8155 -3951.6284,2057.9012 -3939.9123,2064.4461 L -3930.2052,2069.8688 L -3924.4828,2064.4461 C -3921.3355,2061.4637 -3916.8628,2059.0374 -3914.5434,2059.0544 C -3912.2239,2059.0714 -3903.4688,2062.8297 -3895.0875,2067.4062 C -3886.7062,2071.9827 -3878.6569,2075.7271 -3877.2002,2075.7271 C -3875.6721,2075.7271 -3874.5544,2073.5679 -3874.5581,2070.6232 z M -4385.6172,2061.3405 C -4379.5785,2058.6017 -4378.3623,2056.9949 -4377.8215,2051.0409 C -4377.1257,2043.3788 -4382.2575,2027.0618 -4386.3276,2023.995 C -4388.1949,2022.588 -4392.015,2025.2925 -4400.9021,2034.3134 C -4409.318,2042.8559 -4416.2195,2047.8528 -4423.8127,2050.9016 C -4429.7894,2053.3013 -4434.6794,2056.0838 -4434.6794,2057.0848 C -4434.6794,2064.3535 -4399.0706,2067.4422 -4385.6172,2061.3405 z M -4429.3883,2032.9618 C -4415.3782,2026.8913 -4407.8755,2019.6626 -4403.3318,2007.857 C -4398.5903,1995.5376 -4397.6287,1987.6657 -4400.4391,1984.1763 C -4402.8207,1981.2193 -4405.2993,1981.9652 -4431.6295,1993.5618 C -4447.3613,2000.4906 -4465.9822,2008.3868 -4473.0094,2011.109 C -4483.6198,2015.2193 -4485.786,2016.8138 -4485.786,2020.5138 C -4485.786,2029.5364 -4468.8946,2038.3657 -4451.3258,2038.5264 C -4445.4734,2038.5799 -4437.9502,2036.6716 -4429.3883,2032.9618 z M -4262.9614,2010.6604 C -4262.9614,2009.5802 -4266.9023,2004.9096 -4271.719,2000.2813 C -4280.1553,1992.1748 -4281.0943,1991.7921 -4297.3137,1989.8479 C -4310.0369,1988.3229 -4314.7383,1988.363 -4316.5549,1990.0123 C -4320.0674,1993.2013 -4314.5496,1996.4043 -4290.559,2005.1023 C -4269.4822,2012.7438 -4262.9614,2014.0571 -4262.9614,2010.6604 z M -4337.4841,2000.645 C -4331.7073,1995.4004 -4331.2029,1993.0461 -4335.5327,1991.5376 C -4337.3743,1990.8961 -4338.5991,1988.0974 -4338.5991,1984.5313 C -4338.5991,1981.2653 -4339.6007,1973.3716 -4340.8248,1966.9898 C -4342.0489,1960.608 -4342.7283,1953.8677 -4342.3345,1952.0114 C -4341.6757,1948.9058 -4341.2532,1948.968 -4337.0425,1952.7909 C -4334.3785,1955.2095 -4332.4663,1959.2263 -4332.4663,1962.4039 C -4332.4663,1965.406 -4331.4121,1968.4538 -4330.1235,1969.1768 C -4328.4012,1970.1432 -4328.1614,1967.3456 -4329.2182,1958.6146 C -4330.6973,1946.3944 -4337.3228,1930.9621 -4341.0901,1930.9621 C -4342.2595,1930.9621 -4347.193,1934.8391 -4352.0534,1939.5776 C -4360.6159,1947.9253 -4360.7983,1948.3552 -4357.9219,1953.4052 C -4356.2891,1956.2718 -4354.9476,1960.5378 -4354.9406,1962.8852 C -4354.9337,1965.2327 -4353.4788,1969.6589 -4351.7075,1972.7212 C -4349.5864,1976.3882 -4348.5328,1982.883 -4348.6212,1991.7448 C -4348.7727,2006.9113 -4346.4397,2008.7757 -4337.4841,2000.645 z M -4471.3402,1998.6421 C -4446.5733,1987.2478 -4422.5025,1970.0158 -4414.0893,1957.6569 C -4407.587,1948.105 -4410.7607,1946.6133 -4427.7671,1951.228 C -4435.5041,1953.3275 -4462.3479,1957.5369 -4487.42,1960.5823 C -4512.4921,1963.6277 -4533.8826,1966.6115 -4534.9546,1967.213 C -4540.1923,1970.1519 -4518.4877,1991.8859 -4503.5794,1998.6308 C -4490.49,2004.5527 -4484.1923,2004.5549 -4471.3402,1998.6421 z M -4367.3672,1978.0388 C -4365.0369,1975.3492 -4363.1505,1971.3821 -4363.1752,1969.223 C -4363.2948,1958.7652 -4380.2985,1936.5299 -4388.1762,1936.5299 C -4392.1426,1936.5299 -4392.2916,1937.2867 -4391.0968,1951.3539 C -4388.8575,1977.7175 -4377.8315,1990.1167 -4367.3672,1978.0388 z M -4303.7134,1964.2485 C -4300.4315,1961.2689 -4299.7977,1959.0998 -4300.8662,1954.5047 C -4302.9699,1945.4577 -4311.9878,1931.4314 -4320.9061,1923.3345 C -4331.2234,1913.9676 -4358.2147,1897.5547 -4363.3015,1897.5547 C -4370.2825,1897.5547 -4367.3845,1902.0625 -4356.7391,1907.7625 C -4341.56,1915.8901 -4325.4012,1932.4148 -4322.5381,1942.7381 C -4321.2526,1947.3731 -4320.2008,1953.4441 -4320.2008,1956.2293 C -4320.2008,1961.7217 -4315.0946,1968.0813 -4310.6848,1968.0813 C -4309.1725,1968.0813 -4306.0353,1966.3565 -4303.7134,1964.2485 z M -4284.2493,1955.814 C -4281.1201,1940.6704 -4295.2283,1910.1116 -4310.6333,1898.6653 C -4325.7904,1887.4033 -4357.4061,1869.4605 -4360.3103,1870.4723 C -4362.0598,1871.0818 -4363.1303,1874.2848 -4363.1303,1878.9102 C -4363.1303,1886.1223 -4362.7468,1886.5418 -4351.3758,1891.7702 C -4332.5467,1900.4278 -4309.8913,1917.8794 -4302.0838,1929.7402 C -4294.0016,1942.0187 -4289.7513,1952.1297 -4289.6266,1959.375 C -4289.5062,1966.371 -4285.9431,1964.0115 -4284.2493,1955.814 z M -4465.7133,1944.7026 C -4451.9241,1941.9157 -4423.9883,1930.975 -4417.9104,1925.9812 C -4412.1696,1921.2644 -4413.3524,1916.2594 -4420.8807,1913.4123 C -4424.5348,1912.0304 -4439.0802,1908.7414 -4453.2039,1906.1035 C -4491.5365,1898.9439 -4518.7286,1889.3864 -4537.3508,1876.5274 C -4552.0451,1866.3807 -4565.1122,1858.5795 -4567.4137,1858.5795 C -4573.3789,1858.5795 -4566.5102,1911.1264 -4558.7813,1924.6189 C -4546.9266,1945.3141 -4509.1134,1953.474 -4465.7133,1944.7026 z M -4361.3525,1925.583 C -4359.3017,1924.4035 -4360.5053,1923.3875 -4365.8515,1921.7857 C -4369.866,1920.5828 -4376.4154,1917.5871 -4380.4059,1915.1285 C -4385.1756,1912.1899 -4387.6614,1911.4822 -4387.6614,1913.0628 C -4387.6614,1916.5732 -4378.8917,1923.4801 -4372.0856,1925.3303 C -4364.3191,1927.4415 -4364.5735,1927.4355 -4361.3525,1925.583 z M -4272.8202,1908.543 C -4268.1395,1894.9967 -4268.1391,1890.1309 -4272.8186,1890.1309 C -4277.5059,1890.1309 -4295.3529,1895.588 -4296.5851,1897.398 C -4298.0372,1899.5312 -4281.1657,1920.0769 -4278.5996,1919.3003 C -4277.3328,1918.9169 -4274.7321,1914.0761 -4272.8202,1908.543 z M -4391.801,1896.766 C -4394.5103,1894.3062 -4396.1956,1896.4061 -4394.58,1900.2287 C -4393.5154,1902.7473 -4392.8665,1902.9069 -4391.5506,1900.9738 C -4390.6295,1899.6208 -4390.7422,1897.7273 -4391.801,1896.766 z M -4411.2571,1882.4533 C -4393.8858,1879.6853 -4383.5729,1875.5916 -4383.5729,1871.4642 C -4383.5729,1867.1797 -4391.6094,1861.7998 -4416.2811,1849.5683 C -4426.9624,1844.2729 -4441.7451,1835.8286 -4449.1316,1830.8032 C -4469.1836,1817.1608 -4493.4773,1789.0513 -4511.3416,1758.8216 C -4514.5085,1753.4625 -4518.2617,1749.0778 -4519.6819,1749.0778 C -4527.7532,1749.0778 -4554.5177,1791.9387 -4560.739,1814.827 C -4565.5608,1832.5666 -4563.6047,1838.8068 -4549.3508,1851.1557 C -4516.7929,1879.3623 -4465.2165,1891.0516 -4411.2571,1882.4533 z M -4281.4834,1877.824 C -4271.2963,1873.0968 -4262.9614,1868.598 -4262.9614,1867.8268 C -4262.9614,1865.4985 -4289.9472,1846.3261 -4299.1655,1842.105 C -4312.624,1835.9423 -4320.2008,1837.6333 -4320.2008,1846.7996 C -4320.2008,1853.9225 -4324.5578,1860.1282 -4331.7275,1863.2171 C -4335.5069,1864.8453 -4338.5991,1866.513 -4338.5991,1866.9231 C -4338.5991,1868.2997 -4305.0697,1886.419 -4302.5224,1886.419 C -4301.138,1886.419 -4291.6704,1882.5512 -4281.4834,1877.824 z M -4339.6504,1846.7646 C -4336.1949,1844.4706 -4336.0979,1843.6462 -4338.6311,1838.0939 C -4340.1707,1834.7193 -4350.8777,1822.8824 -4362.4245,1811.7898 C -4373.9712,1800.6971 -4388.5057,1784.68 -4394.7234,1776.1962 C -4416.1876,1746.9088 -4432.6352,1709.2452 -4432.6352,1689.3811 C -4432.6352,1678.1314 -4435.6007,1671.1273 -4440.3639,1671.1273 C -4449.3543,1671.1273 -4490.767,1708.4685 -4503.4023,1727.9681 C -4509.7443,1737.7556 -4508.9858,1739.6348 -4487.6914,1766.8871 C -4452.6553,1811.726 -4418.6338,1837.4251 -4382.3299,1846.4749 C -4368.7961,1849.8486 -4344.5439,1850.0132 -4339.6504,1846.7646 z M -4248.6516,1845.8663 C -4248.6516,1841.6848 -4256.8634,1831.2156 -4275.5087,1811.6262 C -4294.8301,1791.3265 -4307.0585,1774.0997 -4315.5157,1755.2667 C -4323.7031,1737.0345 -4330.3596,1710.1735 -4330.3875,1695.2549 C -4330.4136,1681.2728 -4325.6474,1655.8052 -4319.0584,1634.7193 C -4316.0375,1625.0516 -4314.0681,1616.6857 -4314.682,1616.1283 C -4315.296,1615.5709 -4330.494,1619.4185 -4348.4554,1624.6785 C -4393.0049,1637.7247 -4420.3696,1652.7389 -4420.3696,1664.1356 C -4420.3696,1671.9436 -4409.1449,1710.9357 -4402.883,1724.8802 C -4383.481,1768.086 -4355.996,1803.1113 -4332.1967,1814.9589 C -4322.882,1819.5959 -4319.214,1820.3699 -4307.9352,1820.0784 C -4290.7288,1819.6339 -4288.4525,1820.3869 -4285.3373,1827.5539 C -4281.668,1835.9959 -4275.4976,1841.8239 -4266.0278,1845.7919 C -4255.2463,1850.3095 -4248.6516,1850.3377 -4248.6516,1845.8663 z M -4152.0409,1834.3471 C -4141.7655,1831.7597 -4137.9032,1825.7906 -4136.759,1810.7297 C -4135.5395,1794.6765 -4141.1576,1780.2923 -4152.7622,1769.7567 C -4171.9007,1752.3811 -4184.5014,1759.7659 -4207.732,1801.9727 C -4218.8063,1822.0932 -4221.8528,1831.3553 -4218.0909,1833.4662 C -4209.8928,1838.0661 -4168.9778,1838.6118 -4152.0409,1834.3471 z M -4233.4085,1810.4137 C -4231.4223,1808.4211 -4225.0107,1799.0253 -4219.1604,1789.5341 C -4213.3101,1780.0428 -4203.7191,1765.5174 -4197.8469,1757.2554 C -4191.9748,1748.9933 -4186.6332,1739.2284 -4185.9767,1735.5556 C -4184.114,1725.1342 -4194.2998,1707.4539 -4211.8828,1690.5882 C -4220.7709,1682.0627 -4226.1854,1675.3665 -4225.7744,1673.4083 C -4224.3959,1666.8409 -4215.3978,1668.7264 -4188.3936,1681.2413 C -4151.395,1698.3881 -4143.5898,1699.7232 -4081.0221,1699.6079 C -4042.8098,1699.5375 -4027.0611,1698.7907 -4014.5836,1696.4576 C -4005.5888,1694.7756 -3997.0796,1693.3994 -3995.6742,1693.3992 C -3991.4038,1693.3987 -3992.7774,1697.0866 -3999.836,1704.5734 C -4003.5304,1708.492 -4013.2216,1722.8704 -4021.3718,1736.5254 C -4045.8011,1777.4545 -4060.1653,1788.8129 -4091.0738,1791.6418 C -4107.8057,1793.1732 -4112.5779,1794.7615 -4118.6007,1800.8037 C -4125.1595,1807.3835 -4121.6172,1810.3258 -4107.1506,1810.3142 C -4100.0882,1810.3085 -4090.6301,1809.3889 -4086.1328,1808.2706 C -4071.465,1804.6234 -4039.4416,1791.4745 -4027.9066,1784.3628 C -4014.8303,1776.3008 -3962.781,1728.3347 -3938.776,1702.2244 C -3892.3884,1651.7684 -3847.733,1581.7685 -3832.5076,1535.6421 C -3825.0923,1513.177 -3820.2106,1468.3801 -3826.1206,1477.0323 C -3835.2163,1490.348 -3847.4824,1498.1849 -3851.0426,1492.955 C -3853.731,1489.0057 -3860.3341,1491.421 -3866.7893,1498.7146 C -3870.4964,1502.9033 -3876.0136,1507.4968 -3879.0497,1508.9224 C -3884.9321,1511.6847 -3894.9735,1512.439 -3895.0256,1510.1226 C -3895.0428,1509.357 -3895.8932,1507.5306 -3896.9154,1506.064 C -3898.3855,1503.9547 -3901.128,1505.5691 -3910.0374,1513.7881 C -3923.2784,1526.003 -3928.3916,1528.051 -3934.0468,1523.4045 C -3937.8931,1520.2443 -3938.4227,1520.2748 -3947.2427,1524.1652 C -3952.2965,1526.3944 -3957.8052,1528.2182 -3959.484,1528.2182 C -3961.163,1528.2182 -3970.5675,1531.8617 -3980.383,1536.3148 C -4002.529,1546.3621 -4029.3764,1555.3725 -4047.3267,1558.7822 C -4054.84,1560.2094 -4061.4358,1561.7844 -4061.9841,1562.2821 C -4062.5323,1562.7799 -4061.8676,1568.0557 -4060.5069,1574.0061 C -4058.9878,1580.6492 -4058.5398,1590.3445 -4059.3463,1599.1249 L -4060.6597,1613.4248 L -4054.9979,1611.8117 C -4043.5503,1608.5501 -4036.4339,1608.1504 -4034.1572,1610.6411 C -4030.841,1614.2687 -4034.579,1616.2794 -4053.4246,1621.005 C -4075.9712,1626.6588 -4097.8122,1640.2374 -4130.2397,1668.7611 C -4144.6796,1681.4627 -4157.4753,1691.3044 -4158.6745,1690.6315 C -4159.8737,1689.9586 -4160.6009,1687.2288 -4160.2905,1684.5651 C -4159.7657,1680.0613 -4160.7852,1679.4182 -4174.8514,1675.3801 C -4192.06,1670.4398 -4204.9994,1662.5074 -4219.7478,1647.8567 C -4230.7602,1636.9173 -4236.5991,1625.1871 -4241.8421,1603.47 C -4247.0621,1581.848 -4247.9457,1581.254 -4262.0688,1589.8725 C -4275.7711,1598.2341 -4290.1926,1615.042 -4300.7341,1634.9361 C -4312.8673,1657.8338 -4315.102,1667.5564 -4315.0242,1697.1108 C -4314.962,1720.7711 -4314.592,1723.0389 -4308.3796,1737.8353 C -4295.2443,1769.12 -4271.5618,1799.5339 -4251.718,1810.6019 C -4243.8178,1815.0084 -4237.9282,1814.9478 -4233.4085,1810.4137 z M -4130.1437,1657.4352 C -4116.8779,1645.7216 -4085.3424,1623.7783 -4079.2521,1622.0234 C -4073.6721,1620.4155 -4070.6515,1611.028 -4069.3438,1591.2306 C -4067.5215,1563.6431 -4075.0561,1543.1094 -4093.497,1525.4069 C -4119.4955,1500.4495 -4157.4129,1497.2748 -4191.6018,1517.1929 C -4217.467,1532.2617 -4232.2975,1557.4409 -4232.2975,1586.286 C -4232.2975,1609.5964 -4224.3629,1629.6677 -4209.2719,1644.5315 C -4194.2796,1659.2981 -4175.284,1667.0712 -4153.6527,1667.2912 C -4141.5895,1667.414 -4141.3138,1667.2983 -4130.1437,1657.4352 z M -4152.5713,1631.4457 C -4172.9906,1627.357 -4184.9834,1618.5586 -4191.4172,1602.9466 C -4201.4723,1578.5476 -4190.9615,1551.4201 -4166.9574,1539.818 C -4147.2912,1530.3126 -4140.1174,1535.9422 -4144.087,1557.7654 C -4148.7966,1583.6563 -4146.8053,1588.128 -4129.2392,1591.1074 C -4117.1264,1593.1618 -4114.8453,1595.1894 -4114.8453,1603.9011 C -4114.8453,1613.0373 -4121.657,1624.6518 -4130.0535,1629.8322 C -4137.6857,1634.5411 -4137.2634,1634.5108 -4152.5713,1631.4457 z M -4022.0453,1535.6357 C -3973.6567,1522.5847 -3964.5375,1514.1188 -3964.5106,1482.2236 C -3964.4938,1462.3391 -3967.2833,1457.846 -3985.2173,1448.8711 C -4001.3569,1440.7942 -4009.0124,1434.445 -4014.4918,1424.5919 C -4020.3735,1414.0154 -4019.3471,1407.7433 -4010.7044,1401.4485 C -4001.9514,1395.0734 -3996.4496,1385.9085 -3985.2558,1359.0563 C -3970.8087,1324.4002 -3971.8692,1321.1356 -3992.5016,1336.7508 C -4018.451,1356.3899 -4049.2594,1393.0757 -4074.86,1434.8211 C -4084.1391,1449.9519 -4095.301,1467.8105 -4099.6643,1474.5069 C -4104.0276,1481.2033 -4107.5975,1488.3976 -4107.5975,1490.4942 C -4107.5975,1492.8119 -4104.5585,1496.2181 -4099.8443,1499.1841 C -4095.5801,1501.8671 -4087.0708,1509.9994 -4080.9349,1517.2561 C -4059.8093,1542.2402 -4061.0768,1541.21 -4051.4644,1541.21 C -4046.651,1541.21 -4033.4124,1538.7016 -4022.0453,1535.6357 z M -3927.6616,1443.772 C -3923.3399,1435.6057 -3918.3174,1423.9132 -3916.5006,1417.7885 C -3912.9476,1405.8111 -3909.7652,1368.6055 -3912.2938,1368.6055 C -3913.1367,1368.6055 -3915.6775,1370.7421 -3917.9401,1373.3536 C -3920.2027,1375.965 -3927.0043,1380.6382 -3933.0548,1383.7383 C -3939.1052,1386.8385 -3945.6657,1391.8961 -3947.6336,1394.9775 C -3952.3473,1402.3586 -3974.2862,1415.4481 -3980.2659,1414.447 C -3983.1139,1413.9703 -3986.3923,1415.2391 -3989.1178,1417.873 L -3993.4464,1422.0562 L -3979.0531,1430.5095 C -3964.64,1438.9745 -3954.4549,1449.3758 -3948.9657,1461.2358 L -3946.0368,1467.5639 L -3940.7781,1463.0918 C -3937.8858,1460.6321 -3931.9834,1451.9382 -3927.6616,1443.772 z M -4514.1046,1465.0471 C -4521.2472,1464.1647 -4535.046,1460.9647 -4544.7685,1457.936 C -4563.0878,1452.2292 -4589.9374,1448.4261 -4611.972,1448.4171 C -4623.2233,1448.4125 -4625.0828,1447.8836 -4627.9846,1443.8628 C -4634.7052,1434.5507 -4626.6718,1428.7019 -4601.3158,1424.4463 C -4576.3901,1420.263 -4552.1147,1422.7242 -4520.5384,1432.6362 C -4486.1854,1443.4198 -4450.4908,1446.1032 -4420.4014,1440.164 C -4404.2564,1436.9773 -4367.1436,1420.5093 -4347.7983,1407.9479 C -4322.1067,1391.2658 -4317.841,1389.6779 -4315.241,1395.8291 C -4311.2968,1405.1609 -4364.9339,1435.9599 -4414.2368,1452.6737 C -4445.618,1463.3119 -4486.8235,1468.4172 -4514.1046,1465.0471 z M -4234.3418,1374.9422 C -4263.8723,1372.6929 -4287.2661,1368.3385 -4349.7538,1353.4598 C -4455.0367,1328.3913 -4483.7417,1320.1429 -4483.7417,1314.9583 C -4483.7417,1312.4276 -4475.5084,1308.2182 -4463.5367,1304.6281 C -4446.6445,1299.5624 -4431.256,1301.4356 -4390.7278,1313.491 C -4305.142,1338.949 -4248.9064,1350.2637 -4194.4787,1352.9765 C -4163.0154,1354.5446 -4137.1865,1351.1379 -4096.2352,1340.0187 C -4057.438,1329.4844 -4050.3582,1328.2582 -4050.3582,1332.0733 C -4050.3582,1338.043 -4088.7685,1355.4747 -4119.9384,1363.6508 C -4153.4695,1372.4462 -4202.9694,1377.3318 -4234.3418,1374.9422 z" id="path2520" style="fill:#267290"/>
    <g transform="matrix(0.0626754, 0, 0, 0.0691802, 0.401559, -3.95364)" id="g2553">
      <path d="M 450.47376,76.94772 C 447.81453,76.965309 443.6087,78.971678 437.40208,83.585253 C 402.29172,110.00099 382.39022,153.85156 360.62631,193.46472 C 356.86565,200.30965 354.11498,207.83049 350.07677,214.25204 C 328.4381,210.13271 296.75803,223.01723 281.92505,238.38384 C 265.35854,267.48103 248.21195,281.37087 219.22439,293.15635 C 179.83678,304.82124 144.02647,322.7959 111.99325,350.37291 C 79.857133,380.1002 48.332343,412.59394 39.58375,458.88886 C 27.429886,515.11737 51.096016,570.90069 88.914416,608.15617 C 99.822499,621.44884 119.0406,632.34294 135.64159,642.29573 C 144.96253,647.88382 153.45088,650.02584 159.18146,659.81573 C 160.49708,663.89223 161.24636,668.29476 162.59854,672.39617 C 171.17529,698.41108 182.15262,723.56043 208.15957,734.57802 C 213.84557,736.26281 217.69369,739.45858 223.53642,739.13168 C 245.79506,734.67948 248.76169,728.19259 280.24363,712.27282 C 266.74166,703.54455 254.22874,691.59754 240.26925,679.3167 C 232.95035,672.87791 222.20183,666.89823 217.24466,660.04727 C 212.47291,653.4525 209.96769,642.93629 211.49529,640.13467 C 217.98405,639.67687 225.22249,638.98246 232.81135,639.56868 C 258.11215,641.52299 287.3388,649.88647 305.95307,662.02824 C 352.08726,693.60789 398.90506,725.75816 455.40953,724.313 C 475.64029,730.26052 525.48522,702.45058 490.3939,693.41502 C 467.06198,683.84744 417.17242,664.40606 421.293,642.88745 C 426.05634,647.7268 449.09616,653.04313 452.53485,650.91423 C 467.29306,641.7773 464.0786,638.32236 473.90514,651.1715 C 501.17244,645.6553 502.68096,644.08935 525.64946,662.28551 C 523.84218,646.97199 516.38256,629.60988 504.22493,617.03194 C 494.43841,606.90718 481.11865,596.08569 471.16606,588.78384 C 448.34157,575.68436 445.24354,574.93564 417.76744,569.4115 C 407.0719,567.26113 397.20853,555.23836 387.99005,542.62983 C 380.20324,534.66453 373.40518,525.2394 365.83329,517.21168 C 352.13055,502.68414 340.66251,490.32633 333.26258,472.98719 C 358.83689,449.0069 405.23733,446.94659 429.07634,420.83882 C 457.40232,391.95861 523.10241,313.77995 537.47363,273.39811 C 539.98292,266.3473 550.45963,242.61516 555.77941,220.3493 C 561.64432,195.8016 553.75011,170.65964 551.30466,180.44693 C 550.88934,182.10894 550.97988,191.84627 545.88073,195.60005 C 539.60653,200.21902 527.65037,199.30067 523.31717,205.91653 C 516.53134,216.27709 507.64061,213.64624 501.10617,215.43547 C 499.72014,215.81498 498.9927,217.44304 497.79757,218.26543 C 488.74452,224.49492 437.0652,236.97487 436.64273,243.68358 C 437.08556,235.9809 448.4313,232.83274 452.77893,226.00922 C 462.39888,210.91101 475.31053,192.00933 486.10899,172.36869 C 494.10344,157.82779 496.44394,130.75065 496.03479,118.11072 C 496.03444,89.717511 482.141,119.40552 469.94567,127.34666 C 459.9989,127.93963 465.66033,136.21497 452.58909,142.16534 C 448.30965,144.11345 439.83149,144.3323 435.85626,146.12728 C 425.98277,150.58559 422.64686,156.01013 423.92361,148.08252 C 433.66238,134.38971 464.83357,76.852746 450.47376,76.94772 z M 196.95915,486.85397 C 197.36782,486.79201 197.80336,486.86718 198.2609,487.11124 C 207.8584,492.23078 211.11327,494.3897 216.56667,497.96798 C 220.74582,500.7101 245.28688,517.86992 245.06943,522.5886 L 244.71688,524.44093 L 242.97276,539.86198 C 240.54815,539.76309 237.17471,520.67418 225.05512,512.24639 C 211.5674,502.86724 196.58887,493.35841 194.49126,490.43001 C 194.01924,489.77105 195.18826,487.12244 196.95915,486.85397 z M 172.71417,505.40304 C 172.91781,505.378 173.14658,505.396 173.36504,505.4545 C 176.41752,506.27189 179.66993,510.44061 184.67394,513.91864 C 190.09656,517.68761 196.95165,522.24907 202.57292,525.98454 C 206.72883,529.40556 212.48839,533.41696 216.26835,538.69362 C 221.62424,546.17022 225.58219,565.68633 228.05836,576.76324 C 228.43977,578.46942 227.73633,581.2427 228.36234,582.41925 C 229.10555,583.81608 231.15383,583.50523 231.12072,584.11795 C 231.09055,584.67636 235.43264,586.96723 238.94411,585.5308 C 241.37755,584.53536 243.82009,581.43736 245.23071,579.4963 C 246.23588,578.11315 248.30535,579.8204 249.34013,580.88755 C 253.20735,584.87577 251.17049,594.47115 250.676,594.8418 C 248.48847,596.48149 226.75441,581.39555 223.05989,580.49243 C 221.71828,580.16447 213.61948,580.01871 213.25032,575.60065 C 213.14769,574.37244 211.80514,567.47012 211.82073,566.37573 C 211.85129,564.23136 211.07386,561.99638 210.6817,559.32657 C 210.15927,555.76995 208.78455,551.79716 207.56294,547.90384 C 205.83572,542.3989 204.62753,542.23977 198.64057,535.78648 C 193.58376,530.33577 184.42652,524.17329 180.49752,520.78771 C 176.20895,517.09239 168.60012,509.92564 169.75813,508.28445 C 170.2517,507.58493 171.2887,505.57835 172.71417,505.40304 z M 164.27996,542.03811 C 168.8205,541.72285 174.91678,547.56098 178.8161,556.36798 C 180.75216,560.74067 183.09765,566.55843 183.83323,570.26049 C 184.37745,572.99952 184.38889,573.33769 184.37563,574.96851 C 184.36334,576.48079 184.18709,576.61906 182.93829,577.28392 C 181.30461,578.15368 178.81663,578.70828 176.15837,579.13626 C 173.40694,579.57921 170.47091,579.83127 168.07671,577.66983 C 166.49534,576.2422 167.10805,577.45911 165.88002,574.68551 C 161.42362,564.62041 157.84659,544.99616 162.43582,542.55265 C 163.00947,542.24723 163.63131,542.08315 164.27996,542.03811 z" id="path3715" style="fill:#38a7d1"/>
      <path d="M 387.53272,278.3796 C 387.53272,296.86201 385.13016,298.80106 367.38644,309.24865 C 341.96892,324.21461 346.10074,343.80624 330.08728,343.80624 C 297.28908,343.80624 268.69863,314.49511 268.69863,278.3796 C 268.69863,242.26413 295.31745,212.953 328.11567,212.953 C 360.91389,212.953 387.53272,242.26413 387.53272,278.3796 z" id="path4173" style="fill:#f3ecec;fill-opacity:1;fill-rule:evenodd;stroke:none;stroke-width:1px;stroke-linecap:butt;stroke-linejoin:miter;stroke-opacity:1"/>
      <path d="M 124.71875,64.71875 C 118.82519,64.582294 113.97154,65.71565 109.25,68.03125 C 98.829664,73.141795 98.44181,74.48626 106.5,77.9375 C 115.5852,81.828568 142.47015,89.389408 196.25,103.21875 C 235.95516,113.4288 250.12758,116.40958 266.78125,118.03125 C 278.14043,119.13741 310.86341,117.56558 323.90625,115.28125 C 340.7362,112.33359 358.29514,107.31289 371.125,101.78125 C 381.91131,97.130673 394.43749,89.721748 394.4375,88 C 394.4375,86.279417 382.95476,88.880396 364.21875,94.84375 C 339.56345,102.69103 320.53476,105.41493 298.78125,104.21875 C 259.71866,102.07081 210.08349,90.856514 154.625,71.65625 C 141.59486,67.145067 132.29618,64.894194 124.71875,64.71875 z M 450.40625,71.125 C 440.35987,71.142093 405.14665,105.02371 390.59375,128.6875 C 387.50597,133.70834 382.99043,140.76421 380.53125,144.375 C 378.07197,147.98578 373.11953,156.52647 369.53125,163.34375 C 362.38817,176.91465 348.55479,199.80676 345.5,203.125 C 344.05941,204.68977 340.28052,205.20999 330.5625,205.21875 C 318.19996,205.22995 316.94241,205.51586 305.28125,211.09375 C 290.74631,218.0462 283.4527,225.04284 272.125,242.8125 C 267.81644,249.57139 263.7788,255.09375 263.15625,255.09375 C 262.53359,255.09375 256.58242,260.12336 249.90625,266.28125 C 234.76694,280.24506 225.12529,285.60174 201.875,293.03125 C 148.80483,309.98947 100.98661,344.22265 67.40625,389.25 C 44.902151,419.42551 37.30516,435.56851 32.4375,463.46875 C 29.102205,482.58568 30.38377,512.66574 35.3125,530.375 C 42.014563,554.45588 54.074785,575.68075 75.1875,600.625 C 94.175924,623.05948 109.38368,635.78964 134.03125,649.90625 C 143.2413,655.1812 152.07989,665.15299 154.71875,673.25 C 157.35109,681.32673 168.43959,702.82123 174.84375,712.25 C 185.1127,727.36924 197.66202,738.00881 211.0625,743 C 214.09969,744.13114 231.48467,742.86151 234.5625,741.28125 C 235.99158,740.54754 243.43241,737.54675 251.09375,734.59375 C 273.76078,725.85683 288.65624,716.19672 288.65625,710.25 C 288.65625,709.44138 282.43973,704.76686 274.875,699.84375 C 267.31021,694.92074 255.75115,686.09218 249.15625,680.25 C 233.03479,665.96867 215.96493,647.12136 217.65625,645.4375 C 219.43446,643.66716 245.21751,646.28057 259.71875,649.71875 C 281.82401,654.95972 294.60823,661.53236 333.09375,687.375 C 356.42952,703.04484 380.48442,715.05063 403.71875,722.625 C 425.5583,729.74471 438.09168,731.64844 458.75,730.96875 C 474.96261,730.43534 476.00368,730.19338 487.65625,724.6875 C 510.76667,713.76801 515.99526,703.34982 504.28125,691.6875 L 498.46875,685.90625 L 490,686.78125 C 481.59339,687.65601 481.4749,687.60043 475.40625,682.03125 C 469.54756,676.6548 468.86911,676.43751 459.90625,676.4375 C 451.112,676.4375 450.33466,676.15174 446.84375,671.96875 C 444.79944,669.51914 439.64039,664.1787 435.40625,660.09375 C 431.17209,656.00877 428.17451,652.22932 428.71875,651.6875 C 429.2629,651.14576 434.93819,653.00975 441.34375,655.84375 C 447.74914,658.6778 453.40097,661.00628 453.90625,661 C 454.41152,660.99373 456.14775,658.76604 457.75,656.0625 C 459.85911,652.50347 461.6338,651.15622 464.21875,651.15625 C 466.31749,651.15625 470.03722,653.17278 473.25,656.0625 C 476.25577,658.76605 479.32487,660.96874 480.0625,660.96875 C 480.80003,660.96875 483.88975,659.10831 486.9375,656.8125 C 489.98527,654.51658 493.40124,652.6152 494.53125,652.59375 C 495.66127,652.57224 502.50924,656.07314 509.75,660.375 C 523.06518,668.28575 531.49791,671.04813 533.3125,668.125 C 534.73362,665.83576 530.36548,651.98886 524.65625,640.625 C 513.2672,617.95585 493.87847,596.89744 472.90625,584.4375 C 456.65566,574.7827 444.79849,569.76329 438.09375,569.71875 C 435.03439,569.69839 428.45031,567.3322 421.1875,563.65625 C 410.33172,558.16171 408.50815,556.59549 400.21875,545.75 C 395.2224,539.21306 382.25554,525.033 371.40625,514.21875 C 357.73604,500.5927 346.24358,488.30703 339.84375,481.875 C 337.56251,479.58231 338.18518,479.85778 340.0625,475.03125 C 341.37586,471.65462 341.99004,468.37939 344.34375,466.71875 C 361.26899,454.77739 418.92954,441.29104 486.84375,432.625 C 509.36373,429.75139 580.64485,429.3685 598.28125,432.03125 C 632.65815,437.22154 663.22581,452.93621 696.09375,482.3125 C 703.33784,488.78709 709.61638,493.72551 710.03125,493.3125 C 711.54437,491.8061 703.45486,480.31242 695.40625,472.5 C 684.47919,461.89347 662.48112,445.43813 652.46875,440.40625 C 634.91037,431.58196 619.85813,426.32123 605.6875,424.03125 C 586.99112,421.0098 488.02181,420.78417 465.6875,423.71875 C 438.42823,427.30045 434.95429,425.92885 444.53125,415.375 C 455.0841,403.74578 499.11663,385.89147 536.21875,378.1875 C 577.72211,369.56965 622.65435,366.67196 647.84375,371 C 685.29816,377.43548 720.84892,395.27239 746.34375,420.40625 C 751.47971,425.46956 755.97701,429.30263 756.34375,428.9375 C 757.49622,427.79016 743.6337,410.62197 734.96875,402.46875 C 707.44676,376.5722 669.66398,362.74372 621.5625,360.9375 C 586.37663,359.61626 554.12286,363.74052 504.71875,375.875 C 482.39676,381.35762 477.31767,382.19749 476.6875,380.5625 C 476.23591,379.39087 482.60327,369.7527 492.09375,357.21875 C 511.04402,332.19153 513.66316,328.38173 526.21875,307.4375 C 542.39241,280.45791 553.42976,253.28661 559.71875,224.90625 C 563.28027,208.83429 565.09831,165.02312 562.34375,161.71875 C 558.80356,157.47194 556.48292,159.59995 550.28125,172.8125 C 546.86453,180.09178 543.35496,186.50511 542.5,187.03125 C 541.64487,187.55732 539.38871,186.5165 537.5,184.75 L 534.09375,181.5625 L 527.09375,188.75 C 523.25713,192.7129 518.82253,198.52647 517.21875,201.65625 C 513.73011,208.46433 511.59433,208.8044 508.1875,203.0625 C 504.55906,196.94717 500.62308,198.02076 495,206.65625 C 489.67606,214.83242 485.10603,219.7886 483.0625,218.53125 C 482.27519,218.04678 481.38265,217.06061 480.9375,215.625 C 479.2958,210.33052 475.34622,212.53349 471.53125,215.40625 C 468.90899,217.38085 466.375,218.01527 466.375,216.40625 C 466.375,214.43463 471.53817,206.12212 478.84375,196.3125 C 492.75068,177.6391 499.82102,157.37053 501.21875,132.21875 C 502.39747,111.00809 497.0691,92.833176 489.9375,93.84375 C 486.87997,94.277073 485.96309,95.68342 478.8125,111.125 L 475.5625,118.15625 L 468.5625,118.15625 C 461.17901,118.15625 461.49435,117.88755 456.5,128.6875 C 455.96424,129.84611 453.98542,131.01384 452.125,131.28125 C 450.2646,131.54869 448.24546,132.66558 447.625,133.75 C 446.02845,136.54007 442.40992,136.18684 442.4375,133.25 C 442.45013,131.89818 445.29957,124.26049 448.78125,116.25 C 455.27456,101.31045 459.34375,88.108195 459.34375,81.96875 C 459.34375,77.319993 454.2168,71.118491 450.40625,71.125 z M 448.15625,81.5625 C 452.575,81.428322 451.54601,89.035631 445.125,105.875 C 437.10837,126.89915 430.58234,138.73224 425.46875,141.625 C 420.48992,144.44145 420.11564,147.9169 423.90625,156.09375 C 427.21305,163.22709 430.853,166.44609 443.125,173.28125 C 456.08257,180.49843 458.54495,185.07198 458.46875,201.71875 C 458.35821,225.86515 450.49388,233.78961 417.59375,242.96875 C 402.05868,247.30301 394.6471,248.31905 390.6875,246.6875 C 389.00928,245.99598 384.15745,240.83748 379.90625,235.1875 C 371.71868,224.3059 366.76432,218.88348 359.3125,212.65625 C 353.90305,208.13573 354.08702,206.83165 361.9375,193.3125 C 364.85309,188.29167 372.16806,175.31426 378.1875,164.5 C 392.44426,138.887 399.29584,128.80966 414.90625,110.625 C 428.2056,95.132553 437.43893,86.410431 444.21875,82.875 C 445.81964,82.040234 447.13654,81.593464 448.15625,81.5625 z M 491.5,107.96875 C 491.54995,107.96047 491.60158,107.96636 491.65625,108 C 494.61825,109.82248 495.58868,135.10098 491,153.28125 C 488.09532,164.78964 479.86052,181.81242 474.5,187.34375 C 469.0789,192.93752 466.9955,193.07995 465.96875,187.96875 C 464.69102,181.60821 456.18803,170.65227 448.6875,165.6875 C 433.364,155.54437 427.75728,149.41483 434.59375,146.71875 C 439.94929,144.6067 441.10966,145.28125 443.625,145.28125 C 448.70456,145.28125 463.16472,138.5913 466.8125,132.875 C 467.49587,131.80411 467.14789,129.85172 468.75,128.46875 C 470.44107,127.009 474.13164,126.11509 476,125.03125 C 477.53402,124.14138 480.18819,124.23946 482,122.84375 C 484.48564,120.92903 486.1171,117.392 487.75,115.625 C 490.43512,112.71941 490.75076,108.09302 491.5,107.96875 z M 210.25,134.6875 C 207.77127,134.82818 204.13104,136.94151 198.65625,141.25 C 191.7166,146.71125 176.10279,155.88858 160.96875,163.4375 C 137.43887,175.17431 103.649,175.31951 70.6875,163.8125 C 50.077144,156.61727 32.715774,155.15123 14,159 C 3.2334477,161.21408 -3.375,164.27014 -3.375,167.03125 C -3.375,171.05519 1.4511847,173.625 8.90625,173.625 C 23.941966,173.625 44.020049,176.69336 55.9375,180.78125 C 62.554755,183.0511 71.742102,185.47051 76.375,186.1875 C 92.960193,188.75422 119.76974,185.75744 139.78125,179.09375 C 172.23369,168.28736 218.18505,141.03421 212.96875,135.6875 C 212.26512,134.96628 211.37669,134.62356 210.25,134.6875 z M 555.4375,187.125 C 555.48788,187.1223 555.52455,187.13291 555.5625,187.15625 C 557.54773,188.37782 556.72859,205.31957 553.875,221.9375 C 544.09863,278.87059 496.34858,353.6788 428.53125,418.3125 C 416.45371,429.82307 412.13892,432.9646 400.9375,438.28125 C 370.1477,452.89548 346.46874,456.0879 346.46875,445.625 C 346.46875,438.38462 352.15094,435.05111 368.25,432.8125 C 390.85684,429.66892 399.38973,422.42274 414.34375,393.78125 C 419.08449,384.70127 425.20264,374.36898 427.90625,370.84375 C 430.6099,367.31849 432.47305,364.12749 432.0625,363.71875 C 431.65193,363.30999 427.9394,363.69303 423.8125,364.59375 C 412.52587,367.05719 372.5585,368.61037 353.09375,367.34375 C 327.03401,365.64804 318.24683,363.20238 298.6875,352.15625 C 283.76395,343.72826 280.46672,342.59915 279.3125,345.59375 C 278.73388,347.09485 281.5925,351.15245 288.125,358.03125 C 299.02191,369.50582 304.32325,378.95984 305.25,388.5625 C 305.94374,395.75047 304.43915,399.52538 295.6875,412.40625 C 292.80102,416.6547 287.12988,426.1305 283.09375,433.46875 C 279.05762,440.80699 274.18101,448.23075 272.25,449.96875 C 267.59887,454.15486 263.69728,453.94538 256.0625,449.125 C 243.22899,441.02209 226.55299,417.13846 217.90625,394.46875 C 213.39177,382.63284 213.2442,381.48092 213.3125,362.53125 C 213.39663,339.17926 215.41992,330.32163 224.71875,312.375 C 235.54831,291.47415 256.91772,271.81994 262.4375,277.6875 C 263.47033,278.78534 265.73784,285.66178 267.5,293 C 271.86376,311.17222 276.77767,320.34721 287.25,330 C 297.37313,339.33081 302.28589,342.04794 317.28125,346.4375 C 324.61074,348.58306 327.0998,348.46208 328.84375,348.59375 C 331.09459,348.76364 329.99231,347.94254 330.59375,347.34375 C 333.81131,344.1404 332.30156,343.24844 321.625,341.96875 C 309.54083,340.52039 298.93926,335.57258 289.96875,327.21875 C 281.07258,318.93417 276.23651,310.913 272.875,298.84375 C 266.53362,276.07592 271.79691,252.66958 286.8125,236.6875 C 298.66604,224.07113 316.14617,215.78124 330.84375,215.78125 C 352.0101,215.78125 375.02631,231.25328 381.5625,253.1875 C 382.58278,256.60231 383.38535,258.92456 384.03125,260.625 C 384.08291,261.09819 384.16311,261.59697 384.28125,262.15625 C 385.19415,266.47807 385.95815,273.10082 385.59375,279.6875 C 385.12363,288.18445 383.06437,297.26613 382.53125,299.875 C 381.77515,303.5747 383.11359,303.27774 384.375,302.21875 C 386.55721,300.38664 388.35961,298.84623 389.34375,284.8125 C 389.48434,282.80771 389.56493,282.99599 389.59375,283.15625 C 389.60791,283.00592 389.60702,281.55023 389.65625,273.53125 C 389.68456,268.91824 388.66601,265.55352 389.4375,263.34375 C 389.67859,262.6532 389.852,262.05534 389.96875,261.53125 C 390.33761,261.08329 390.74366,260.6019 391.1875,260.03125 C 391.84539,259.1854 392.10949,258.65316 392.1875,258.34375 C 392.81365,258.18307 393.8158,257.86424 395.375,257.21875 C 407.7472,252.09681 425.08118,249.00414 443.8125,240.4375 C 468.80491,229.00745 476.41617,226.65699 478.375,229.8125 C 480.29378,232.90341 484.80373,230.85117 492.1875,223.5 C 496.45481,219.25151 500.69521,215.78124 501.625,215.78125 C 502.5548,215.78125 504.36507,217.06874 505.65625,218.65625 C 507.79213,221.28222 508.42272,221.36303 512.5,219.65625 C 514.96484,218.62448 519.62063,214.80177 522.84375,211.15625 C 527.31996,206.09348 530.75358,199.78314 533.34375,200.4375 C 534.39654,200.70347 534.59957,205.81032 535.78125,206.875 C 538.23469,209.08553 538.63247,208.99991 542.53125,205.28125 C 544.80714,203.11042 548.41568,197.98848 550.5625,193.90625 C 552.57512,190.07913 554.68181,187.16556 555.4375,187.125 z M 328.03125,241.75 C 323.78766,241.40905 313.07802,247.84578 307.25,254.4375 C 297.81602,265.10773 296.08171,281.40212 302.90625,295.4375 C 306.8342,303.51581 313.80331,308.55015 325.15625,311.5 C 336.9455,314.56317 336.70818,314.5409 340.875,311.65625 C 346.22454,307.95295 348.93343,304.10302 350.78125,297.59375 C 353.09049,289.45912 350.43286,285.3425 342,284 C 330.07164,282.101 327.79443,276.78965 331.15625,258.625 C 332.94469,248.96194 332.1327,243.21787 328.78125,241.9375 C 328.55923,241.85268 328.31416,241.77273 328.03125,241.75 z M 216.0625,299.5 C 216.51995,299.51544 216.81926,299.60117 216.96875,299.75 C 218.08114,300.85754 217.30434,305.50533 214.125,316.46875 C 206.04735,344.32318 204.72993,364.94273 209.6875,385.53125 C 215.70716,410.53062 224.58351,426.75231 245.59375,451.09375 C 257.92595,465.38111 269.04861,478.77315 265.5,481.625 C 264.13491,485.16663 256.10646,478.57547 248.09375,474 C 242.65031,470.89169 244.91409,472.03392 239.0625,466.9375 C 236.55619,464.75465 231.19109,461.72814 230.3125,461.1875 C 229.43397,460.64701 224.23055,458.32326 218.21875,458.21875 C 208.10693,458.04304 206.70042,457.65651 199.375,452.8125 C 184.38464,442.90005 165.72487,417.41671 155,392.1875 C 148.01549,375.75717 140.53125,348.83439 140.53125,340.1875 C 140.53125,331.4709 141.72965,330.08425 157.4375,320.6875 C 169.67645,313.36583 209.2007,299.26842 216.0625,299.5 z M 128.28125,341.40625 C 131.87397,341.20073 133.78174,345.39407 135,355.5625 C 138.73333,386.72341 155.24613,418.96872 181.8125,446.96875 C 189.04778,454.59446 196.43088,462.89732 198.1875,465.40625 C 202.25298,471.21255 201.72173,477.00856 196.9375,479.40625 C 192.38174,481.68939 183.20051,481.51061 171,478.90625 C 152.80012,475.02141 133.85,463.35228 116.90625,445.59375 C 99.874926,427.7433 79.851335,399.23873 79.875,392.875 C 79.908126,383.97074 114.70404,345.94004 126.625,341.78125 C 127.20932,341.57741 127.768,341.43561 128.28125,341.40625 z M 316.53125,375.125 C 318.37701,375.01882 321.92982,375.75295 326.96875,377.28125 C 332.65485,379.00591 341.12596,380.72138 345.78125,381.125 C 354.58005,381.88787 359.7456,383.67587 358.59375,385.53125 C 357.76986,386.85849 363.63362,399.40592 366.875,403.25 C 369.12971,405.92388 369.22058,405.67806 368.4375,397.65625 C 367.98503,393.02154 367.46475,387.9512 367.28125,386.40625 C 366.9639,383.73391 368.02616,383.56736 389.5,382.6875 C 401.91393,382.17885 412.39771,382.06204 412.78125,382.4375 C 413.16477,382.81307 410.61197,388.56717 407.125,395.21875 C 399.05596,408.77739 391.78253,418.51848 381.5,422.96875 C 373.56633,426.40242 362.72604,424.36859 350.53125,417.90625 C 338.25509,411.67108 311.36975,379.36317 315.25,375.5 C 315.47355,375.27743 315.916,375.16039 316.53125,375.125 z M 73.4375,399.75 C 74.432299,399.75 79.575087,407.0187 84.84375,415.90625 C 103.58035,447.51221 119.21116,462.67804 150.71875,479.8125 C 158.26835,483.91809 165.79742,488.69937 167.4375,490.4375 C 173.67763,497.05048 167.21623,502.21305 148.15625,505.84375 C 125.30525,510.19657 95.129511,506.98135 76.6875,498.21875 C 65.099209,492.71252 51.735977,482.98376 46.625,476.3125 C 41.535345,469.669 40.447332,459.05643 43.78125,448.59375 C 49.943956,429.25404 67.854862,399.75 73.4375,399.75 z M 313.875,409.59375 C 331.85358,409.59375 346.56853,441.8527 337.25,460.84375 C 334.97063,465.48912 333.7606,469.79162 331.09375,476.75 C 326.05973,478.46028 315.90621,472.15841 304.875,471.1875 C 290.89326,469.95689 280.73201,472.64111 275.25,473.59375 C 272.38947,474.09082 277.55698,463.0799 278.8125,459.15625 C 282.01952,449.13389 295.89878,424.04088 302.25,416.8125 C 307.76365,410.53746 309.30739,409.59374 313.875,409.59375 z M 228.875,468.71875 C 229.46696,468.7195 229.9336,468.81003 230.21875,469 C 235.97791,472.83674 245.69771,480.63494 252.65625,484.59375 C 256.7828,486.94142 257.82899,486.88266 258.75,489.46875 C 255.28176,495.41654 256.19849,493.95791 254.40625,497.59375 C 247.87217,490.11008 215.4862,478.21392 214.53125,473.90625 C 214.29602,472.84523 224.73128,468.71348 228.875,468.71875 z M 208.03125,479.0625 C 208.1675,479.0391 208.2667,479.03177 208.34375,479.0625 C 218.26973,483.01991 244.94027,498.70283 251,502.59375 C 251.26974,502.76694 251.57164,502.79757 251.875,502.75 C 251.33051,503.99162 250.82868,505.38778 250.375,507.21875 C 248.37898,515.27428 247.92003,515.22183 245.75,514.0625 C 245.5717,513.96724 245.42318,513.97448 245.28125,514 C 244.73788,513.54807 243.97008,512.91636 242.625,511.96875 C 236.31222,507.52136 219.19632,496.33651 217.0625,494.84375 C 211.88913,491.22454 204.90443,487.61178 202.1875,484.625 C 200.95013,483.26475 202.09037,482.82376 203.25,481.875 C 204.81594,480.59385 207.0775,479.22627 208.03125,479.0625 z M 298.65625,480.6875 C 314.34322,480.62126 332.93658,488.53273 348.4375,502.15625 C 373.31286,524.01889 410.87395,569.49058 422.75,592.15625 C 427.79778,601.78991 427.54399,618.45103 422.09375,634.28125 C 417.72688,646.96492 416.75464,659.49021 419.75,665.0625 C 421.07682,667.53053 422.49203,668.05523 427.15625,667.78125 C 431.97785,667.49801 433.41056,668.06269 435.90625,671.28125 C 445.87069,684.13201 445.28272,683.75064 456.03125,684.0625 C 465.48884,684.33679 466.33328,684.64835 472.96875,690.21875 C 479.5101,695.71014 480.53258,696.09376 488.625,696.09375 C 495.96029,696.09375 497.60564,696.57056 499.46875,699.21875 C 500.67657,700.93546 501.65624,703.4163 501.65625,704.75 C 501.65625,707.9787 493.71385,713.85865 484.46875,717.46875 C 478.66806,719.73391 473.14252,720.50232 460.03125,720.8125 C 450.7208,721.03277 441.83293,720.8942 440.28125,720.53125 C 438.7295,720.16832 431.43328,718.57223 424.0625,716.96875 C 358.06884,702.61216 284.23825,648.12847 257.625,594.125 C 250.40405,579.47235 247.77675,568.02673 247.78125,551.4375 C 247.79195,512.2852 264.58526,485.68115 292.125,481.21875 C 294.22948,480.87775 296.41525,480.69696 298.65625,480.6875 z M 39.65625,482.625 C 40.643456,482.625 46.760478,486.45337 53.25,491.125 C 66.895439,500.94802 89.496222,512.23104 101.71875,515.34375 C 106.37401,516.52931 116.969,518.90013 125.25,520.59375 C 147.39659,525.12317 153.48812,529.98412 145.8125,537 C 141.32853,541.09864 127.44955,547.77637 115.84375,551.40625 C 103.5518,555.2507 80.922618,556.41125 70.6875,553.75 C 56.424511,550.0416 48.027917,543.9414 44,534.34375 C 37.168963,518.06693 34.189405,482.62499 39.65625,482.625 z M 197.34375,487.40625 C 207.30694,492.14751 225.40467,506.27463 230.5,508.46875 C 230.78647,508.1033 241.14003,517.51944 244.75761,520.87881 C 244.68438,522.85325 243.65981,527.05418 243.23494,530.83454 C 242.84321,534.32012 243.07485,537.46708 242.44273,537.75011 C 241.75249,538.05916 238.45498,529.56202 236.91466,527.35263 C 232.52536,521.05676 233.98174,518.0734 215.90625,505.5 C 204.42069,497.51058 193.13241,493.70129 197.34375,487.40625 z M 185.46875,491.625 C 187.12996,491.03777 208.89757,506.31174 218.59375,513.96875 C 217.182,512.79599 206.96999,523.92885 205.375,522.75 C 199.13233,518.13607 190.36638,511.66994 186.875,510.03125 C 183.38354,508.3925 177.02958,503.45412 177.25,502.5 C 178.18662,498.44589 182.15615,492.79601 185.46875,491.625 z M 165.03125,510.78125 C 166.49856,510.7162 166.92512,512.87342 168.0625,514 C 171.82163,517.72333 172.07922,518.53459 175.4375,522.03125 C 177.92282,524.61899 178.45149,525.35805 182.5,528.625 C 190.8309,535.34765 193.0602,538.34841 188.15625,539.65625 C 184.84922,541.90442 182.23417,545.47241 179.46875,545.09375 C 172.50774,544.14048 169.31345,535.95369 162.78125,527.21875 C 158.22953,521.13216 155.43058,517.25237 156.46875,516.21875 C 158.19014,514.50499 162.21316,510.90622 165.03125,510.78125 z M 180.84375,513.5 C 184.78692,513.5 204.45262,529.78539 212.1875,537.46875 C 215.53838,542.70551 229.70595,585.85488 222.03125,580.0625 C 219.19339,579.16057 213.80104,578.48685 213.34375,576.5 C 212.34519,572.16142 212.0087,567.67704 210.8125,558.96875 C 210.26161,554.95828 208.70272,549.54468 207.25,546.15625 C 205.63839,542.39726 202.49825,539.52579 199.40625,536.21875 C 195.32578,531.85441 190.76551,527.18589 184.1875,523.15625 C 175.06519,517.56799 173.65133,513.49999 180.84375,513.5 z M 221.1875,516.0625 C 221.73507,516.52682 222.22178,516.95271 222.5625,517.28125 C 229.39387,523.86836 236.51535,539.50108 237.46875,549.96875 C 237.9038,552.48552 238.78057,556.11168 239.65625,559.65625 C 237.08514,560.42395 232.58163,563.49193 229.4375,562.03125 C 225.05817,559.99671 223.28397,549.37096 222.875,546.625 C 219.47571,538.52528 218.50424,534.41105 209.1875,526.4375 C 208.18304,525.57785 217.90829,519.39464 221.1875,516.0625 z M 194.125,538.78125 C 194.13201,538.48778 197.45503,541.92995 199.78125,545.0625 C 204.20531,551.01993 206.99441,554.88335 206.96875,569.6875 C 206.94392,584.02966 205.11718,587.38915 200.8125,594.34375 C 196.66698,599.06831 187.99412,607.75596 182.375,606 C 176.8448,604.27185 169.27312,591.64671 171.5625,588.3125 C 173.14529,586.00734 173.60242,586.64089 176.09375,585.65625 C 178.66241,584.64109 181.86605,583.13891 183,586.09375 C 184.71448,590.56125 185.7927,593.28504 188.40625,592.25 C 191.93436,590.85269 189.41079,583.33293 189.21875,579.59375 C 188.87104,572.82472 188.36012,569.84164 187.875,567.5625 C 186.46544,560.93997 184.57715,558.21081 183,555.28125 L 181.5,550.34375 L 186.3125,546.5 C 189.82927,543.09719 195.18565,540.25782 194.6875,539.625 C 194.27944,539.10659 194.12338,538.84897 194.125,538.78125 z M 163.78125,542.4375 C 165.06313,542.3776 166.67361,543.56745 169.96875,546.53125 C 176.00089,551.95688 182.84375,563.97934 182.84375,569.15625 C 182.84375,570.87642 186.52854,575.59929 181.75,577 C 167.80208,578.0501 169.33065,582.53722 165.03125,573.1875 C 160.4771,563.28376 158.77053,545.99587 162.09375,543.25 C 162.67384,542.77072 163.19858,542.46473 163.78125,542.4375 z M 147.3125,551.03125 C 149.63546,551.11072 150.40625,552.65385 150.40625,555.96875 C 150.40625,562.30873 133.47641,578.35371 116,588.59375 C 99.406315,598.31651 95.674977,599.03968 85.875,594.40625 C 74.443708,589.00166 60.125,574.47775 60.125,568.3125 C 60.125,565.7278 66.393172,564.2382 89.8125,561.25 C 118.08617,557.64247 134.05957,554.91194 141.28125,552.40625 C 143.97657,551.47109 145.91872,550.98357 147.3125,551.03125 z M 240.4375,562.8125 C 240.8799,564.56137 241.39631,566.58002 241.6875,567.75 C 242.6553,571.63852 242.88239,572.41633 243.09489,573.41148 C 241.89918,575.26022 240.59719,578.09262 239.44464,580.30742 C 236.91025,583.87259 237.39697,583.10268 233.34375,584.00317 C 232.79905,583.77393 229.01236,583.67555 228.77511,581.64856 C 228.47824,579.1122 228.57773,575.29353 228.24969,572.4112 C 227.99646,570.18627 227.05472,568.64684 228.17941,567.89166 C 231.83968,565.43394 238.33215,564.41389 240.4375,562.8125 z M 441.96875,576.125 C 454.27476,576.46773 475.90748,590.35273 498.90625,613.40625 C 510.00215,624.52855 523.09378,648.52905 523.09375,653.78125 C 523.09375,657.5974 521.38684,655.3679 517.25,653.8125 C 515.51876,653.16154 506.82747,647.60872 502.75,644.875 C 493.86196,638.91579 488.56636,638.49345 485.3125,643.4375 C 484.0416,645.36866 481.93868,646.9375 480.65625,646.9375 C 479.37391,646.9375 475.97948,645.36866 473.125,643.4375 C 470.27049,641.5064 466.60282,639.90625 464.96875,639.90625 C 463.33473,639.90625 459.66706,641.5064 456.8125,643.4375 C 453.95806,645.36866 450.31187,646.9375 448.6875,646.9375 C 439.30006,646.9375 432.61556,625.67181 432.0625,594 C 431.84795,581.71738 432.06322,580.4987 435.03125,578.09375 C 436.78133,576.67571 439.1289,576.04591 441.96875,576.125 z M 154.15625,576.90625 C 155.40105,576.85371 155.91412,577.41394 156.8125,578.15625 C 160.18789,580.94522 158.74314,593.03014 153.84375,603 C 149.91782,610.98888 142.0231,617.88698 133.03125,621.1875 C 126.92914,623.42735 111.1807,623.38102 105.90625,621.09375 C 101.2757,619.08572 93.968747,611.34761 93.96875,608.4375 C 93.96875,605.05411 99.721222,601.48414 123.25,590.375 C 145.10252,580.05732 151.41769,577.02184 154.15625,576.90625 z M 245.8125,580.3125 C 246.89678,580.31251 249.1875,590.17821 249.1875,592.125 C 249.1875,594.07176 247.85005,592.29585 245.09375,589.9375 C 242.35445,587.59365 239.90224,587.27981 241.25,585.875 C 241.80394,585.29759 243.08139,584.68436 243.625,583.875 C 244.74616,582.20569 245.08227,580.3125 245.8125,580.3125 z M 214.4375,584.8125 C 214.73243,585.0582 215.19908,585.25687 215.9375,585.34375 C 216.79436,585.44455 220.16151,586.18541 222.21875,587.03125 C 236.32181,592.82985 220.24407,585.99871 238.875,593.8125 L 250.46875,603.28125 L 262.8125,620.34375 L 268.875,628.625 C 274.70273,638.5594 282.58302,645.08005 279.5,645.03125 C 278.53018,645.0159 262.44307,641.75298 251.96875,640.625 C 224.92549,637.71275 210.79561,637.8514 206.8125,641.0625 C 203.73529,643.54323 203.72606,643.69169 206.09375,648.25 C 208.37902,652.64968 216.43024,660.9773 232.40625,674.53125 C 237.41678,678.78214 243.95906,684.82 250.375,689.46875 C 256.62081,693.99427 260.81846,697.93536 264.40625,700.9375 C 275.5529,710.26467 275.95826,712.90089 273.84375,715.4375 C 271.28556,718.50632 253.06437,724.61178 242.09375,728.09375 C 208.2556,738.83376 189.35355,728.17276 169.25,686.96875 C 159.24604,666.46485 159.20483,663.04465 168.84375,651.78125 C 178.90782,640.02112 180.45453,636.52375 181.34375,623.75 L 182.53125,615.65625 L 189.34375,612.375 C 192.65205,610.793 199.57144,606.54594 203.75,602.4375 C 207.92862,598.3291 208.82724,596.93854 210.5625,593.71875 C 213.13262,588.94984 214.11634,586.26227 214.4375,584.8125 z M 165.34375,607.34375 C 165.43575,607.34773 165.49934,607.36739 165.5625,607.40625 C 168.61336,609.28346 173.26036,621.9434 173.46875,628.96875 C 173.70483,636.92817 170.98999,640.18434 161.9375,642.6875 C 152.2952,645.35388 137.82087,643.82405 132.40625,639.5625 C 131.43644,638.79923 130.65625,636.68176 130.65625,634.875 C 130.65625,632.18939 131.75484,631.32808 136.65625,630.0625 C 141.35007,628.85045 144.95263,626.09575 153.28125,617.4375 C 159.38768,611.08942 163.96375,607.28401 165.34375,607.34375 z" id="path2516" style="fill:#070a0b;fill-opacity:1"/>
      <path d="M 301.3149,360.36214 C 301.53151,364.08274 304.31999,367.94778 306.90803,371.10853 C 309.30338,374.03399 310.83353,376.10627 312.78901,379.19383 C 315.32317,381.84682 316.34672,383.59179 319.44797,387.06091 C 322.5309,391.50655 324.48434,393.59059 327.64845,397.3693 C 329.77951,400.16166 333.28216,403.94193 335.76972,406.28408 C 341.30864,411.35767 341.76098,412.35588 349.1465,417.43324 C 353.57202,419.25678 349.85216,417.96506 360.52126,423.04883 C 368.29965,426.22221 371.49099,425.89302 373.8851,425.59906 C 377.5346,425.15084 378.60662,424.63264 383.79633,422.64558 C 388.93442,419.10268 392.47857,415.93677 396.95874,410.74843 C 401.56595,404.49801 403.11073,401.64143 406.29746,396.74811 C 406.48659,396.5503 408.16983,393.23964 408.16983,393.5193 C 411.58991,387.09074 411.46432,387.16596 414.24205,382.70788 C 417.1829,378.45563 417.66995,378.14119 418.44379,376.20869 C 422.75124,370.24517 396.07821,377.00694 393.98294,377.2108 C 385.62101,377.91403 399.20393,376.77134 379.62619,378.17291 C 366.40977,378.33975 372.90286,378.50194 359.57548,377.73756 C 343.08205,375.99619 332.82312,373.67085 317.95193,367.61245 C 312.52509,365.24423 307.37618,360.36214 301.3149,360.36214 z" id="path3323" style="fill:#f91e0b;fill-opacity:1;fill-rule:evenodd;stroke:none;stroke-width:1px;stroke-linecap:butt;stroke-linejoin:miter;stroke-opacity:1"/>
      <path d="M 2825.7144,2723.0764 A 10,42.142857 0 1 1 2805.7144,2723.0764 A 10,42.142857 0 1 1 2825.7144,2723.0764 z" transform="matrix(0.20165, -0.395183, 0.323669, 0.272345, -1102.07, 769.481)" id="path3718" style="fill:#eb9696;fill-opacity:1;fill-rule:evenodd;stroke:none;stroke-width:1px;stroke-linecap:butt;stroke-linejoin:miter;stroke-opacity:1"/>
      <path d="M 408.34986,293.14711 C 412.17054,298.12906 394.87761,294.68173 375.85859,308.83859 C 370.69776,312.68023 362.23714,317.71336 357.0155,321.78405 C 349.43141,327.69688 342.27465,336.38632 338.73391,341.90501 C 333.83825,349.53559 333.21463,360.21527 329.90298,355.89705 C 326.13475,350.98349 332.21248,339.42804 341.05501,329.06124 C 341.3786,328.6819 341.7059,328.30413 342.03652,327.92836 C 347.1131,322.1585 352.98067,316.85432 358.38326,313.4048 C 373.75339,303.59111 402.32651,285.29311 408.34986,293.14711 z" id="path4170" style="fill:#090b0c;fill-opacity:1;fill-rule:evenodd;stroke:none;stroke-width:1px;stroke-linecap:butt;stroke-linejoin:miter;stroke-opacity:1"/>
      <path d="M 333.11477,317.09676 C 337.66114,316.27101 341.66342,314.16786 345.45277,311.15756 C 348.3525,308.85126 350.81577,305.3345 352.89888,301.88343 C 354.01133,299.83146 354.35824,297.36551 354.7627,295.01538 C 355.21547,290.91041 354.88731,288.52668 355.24695,287.07445 C 355.48329,286.11992 354.60593,284.57292 356.76702,287.29702 C 358.75769,289.80616 359.18658,292.36578 359.38496,294.68574 C 362.06083,316.65086 337.6999,329.59777 323.06319,317.05175 C 324.80798,317.40428 323.71561,317.29748 327.05873,317.41427 C 330.64648,317.53967 330.09212,317.52223 333.11477,317.09676 z" id="path4176" style="fill:#00d2ff;fill-opacity:1;fill-rule:evenodd;stroke:none;stroke-width:1px;stroke-linecap:butt;stroke-linejoin:miter;stroke-opacity:1"/>
      <path d="M 298.90759,272.32778 C 298.51901,281.60135 299.44813,288.07434 302.38078,293.81879 C 305.51655,299.01345 308.02986,303.11435 312.99588,306.05126 C 314.43895,306.90478 314.79994,307.28851 316.32843,308.04367 C 317.81017,308.77557 318.92656,309.10291 319.98644,309.49602 C 322.1869,310.31239 322.76871,310.50588 324.90094,311.14591 C 325.99897,311.47551 327.64504,311.271 324.47928,312.88622 C 321.56326,314.3741 318.78304,313.97438 316.28647,313.38446 C 302.11394,310.03556 291.31724,305.72741 288.43273,283.64178 C 285.18006,258.73735 303.27757,238.25023 323.89223,242.26927 C 328.97994,243.2611 319.68337,240.28566 308.54968,252.17144 C 301.83413,259.3407 300.79484,264.1081 298.90759,272.32778 z" id="path4327" style="fill:#00d2ff;fill-opacity:1;fill-rule:evenodd;stroke:none;stroke-width:1px;stroke-linecap:butt;stroke-linejoin:miter;stroke-opacity:1"/>
      <path d="M 212.62618,595.29963 C 212.91466,595.92332 216.47019,596.42337 217.18073,596.79071 C 223.7104,598.1309 222.40061,597.90836 224.95552,598.66903 C 231.01591,600.47346 233.90307,602.4209 239.21203,606.12731 C 243.33087,609.11358 246.42793,619.77128 254.3274,615.42589 C 255.81627,613.70223 255.25508,612.26425 253.65226,610.49082 C 251.12945,606.86596 249.97354,605.21001 246.89768,602.7044 C 242.23065,598.90263 239.29964,597.6562 233.62105,594.95577 C 231.67137,594.23188 227.80278,592.785 225.83894,592.22865 C 222.45376,591.20506 221.6636,591.80228 219.4352,591.50816 C 218.20223,591.34543 216.88684,591.26548 215.97594,591.66548 C 214.07524,592.43303 212.12933,592.56826 212.62618,595.29963 z" id="path4339" style="fill:#c2efea;fill-opacity:1;fill-rule:evenodd;stroke:none;stroke-width:1px;stroke-linecap:butt;stroke-linejoin:miter;stroke-opacity:1"/>
      <path d="M 117.81721,606.37345 C 125.31844,610.4764 129.25183,615.90248 126.59713,618.48501 C 123.94238,621.06765 115.69985,619.83372 108.19863,615.73057 C 100.69739,611.62755 96.763984,606.2016 99.418721,603.619 C 102.07343,601.03646 110.31598,602.27036 117.81721,606.37345 z" id="path4347" style="fill:#c2efea;fill-opacity:1;fill-rule:evenodd;stroke:none;stroke-width:1px;stroke-linecap:butt;stroke-linejoin:miter;stroke-opacity:1"/>
      <path d="M 87.182821,573.94281 C 95.719196,581.53646 103.23455,592.08797 99.099673,594.16509 C 94.964734,596.24224 88.131139,593.38651 79.594865,585.79272 C 71.058501,578.19894 64.036001,568.72866 68.170919,566.65151 C 72.305815,564.5744 78.646503,566.34907 87.182821,573.94281 z" id="path4350" style="fill:#c2efea;fill-opacity:1;fill-rule:evenodd;stroke:none;stroke-width:1px;stroke-linecap:butt;stroke-linejoin:miter;stroke-opacity:1"/>
      <path d="M 61.43486,520.34002 C 66.151063,535.81082 70.91294,547.02651 65.383728,546.37371 C 61.967884,545.97039 55.474709,543.98915 50.503121,537.09558 C 47.427143,532.83041 43.443602,523.67788 42.432392,516.98383 C 40.018616,501.00497 41.041974,489.66665 46.571238,490.31946 C 52.100469,490.97237 56.718787,504.86905 61.43486,520.34002 z" id="path4352" style="fill:#c2efea;fill-opacity:1;fill-rule:evenodd;stroke:none;stroke-width:1px;stroke-linecap:butt;stroke-linejoin:miter;stroke-opacity:1"/>
      <path d="M 66.684222,447.38543 C 58.239919,462.88387 52.883847,475.30976 50.200883,469.9314 C 47.517861,464.55314 48.811165,446.35156 57.255646,430.85326 C 65.700105,415.35482 77.130045,406.87028 79.813055,412.24854 C 82.495966,417.62703 75.128669,431.88706 66.684222,447.38543 z" id="path4354" style="fill:#c2efea;fill-opacity:1;fill-rule:evenodd;stroke:none;stroke-width:1px;stroke-linecap:butt;stroke-linejoin:miter;stroke-opacity:1"/>
      <path d="M 108.24439,384.75783 C 96.037611,398.15145 89.091791,405.02611 85.948349,399.87487 C 84.391132,397.32306 84.492353,393.84637 86.654205,389.19758 C 89.753328,382.53337 100.54029,368.88467 107.97086,362.15514 C 120.67072,350.6534 130.86046,346.16415 131.56183,352.31449 C 132.26305,358.46482 120.9442,370.55361 108.24439,384.75783 z" id="path4356" style="fill:#c2efea;fill-opacity:1;fill-rule:evenodd;stroke:none;stroke-width:1px;stroke-linecap:butt;stroke-linejoin:miter;stroke-opacity:1"/>
      <path d="M 181.42942,329.42243 C 165.11189,336.86047 149.33609,350.45409 148.20195,344.31889 C 147.6401,341.2795 148.97598,334.86628 152.67801,331.41789 C 157.98505,326.47422 174.35918,316.83243 183.78428,313.63734 C 199.89306,308.17622 209.81959,309.60279 208.28867,315.65317 C 206.75763,321.70339 198.50221,321.4316 181.42942,329.42243 z" id="path4358" style="fill:#c2efea;fill-opacity:1;fill-rule:evenodd;stroke:none;stroke-width:1px;stroke-linecap:butt;stroke-linejoin:miter;stroke-opacity:1"/>
      <path d="M 480.69235,145.79851 C 485.31632,127.6538 486.3573,121.65958 490.56546,121.26729 C 492.52543,122.63871 491.12115,132.128 490.67747,136.45304 C 489.53994,147.54167 488.45387,154.3876 484.74056,162.25865 C 478.39421,175.71149 470.77529,182.49713 468.40091,178.06649 C 466.02671,173.63598 471.88095,169.57335 480.69235,145.79851 z" id="path4360" style="fill:#c2efea;fill-opacity:1;fill-rule:evenodd;stroke:none;stroke-width:1px;stroke-linecap:butt;stroke-linejoin:miter;stroke-opacity:1"/>
      <path d="M 443.99745,221.63011 C 447.62334,212.51286 447.93924,209.20075 448.48333,200.92953 C 448.92166,194.26621 448.71534,188.82944 451.31439,188.53601 C 452.99983,198.13254 452.92775,197.27826 453.6612,207.61077 C 454.27286,216.22839 451.98882,228.24733 445.51278,230.93207 C 428.76036,234.49572 437.88508,231.27535 443.99745,221.63011 z" id="path4362" style="fill:#c2efea;fill-opacity:1;fill-rule:evenodd;stroke:none;stroke-width:1px;stroke-linecap:butt;stroke-linejoin:miter;stroke-opacity:1"/>
      <path d="M 514.96312,641.14662 C 505.63402,639.14261 483.85974,618.03842 469.09424,609.04801 C 456.57448,601.42496 445.57135,598.05242 439.06393,592.95672 C 436.11636,590.64869 437.41743,585.58119 438.44343,583.91785 C 441.73465,578.58216 462.88575,588.12328 471.68764,594.60898 C 487.62527,606.35263 481.78928,602.61873 495.44572,615.14659 C 510.63721,629.0827 519.95241,646.42051 514.96312,641.14662 z" id="path4367" style="fill:#c2efea;fill-opacity:1;fill-rule:evenodd;stroke:none;stroke-width:1px;stroke-linecap:butt;stroke-linejoin:miter;stroke-opacity:1"/>
      <path d="M 418.91811,611.95174 C 421.88082,618.66908 394.06725,573.93784 364.52982,541.28104 C 334.99235,508.62424 289.45481,481.77049 300.76346,483.6162 C 309.32914,485.01419 344.66969,503.60809 374.20715,536.26489 C 403.74458,568.9217 426.38447,607.06931 418.91811,611.95174 z" id="path4369" style="fill:#c2efea;fill-opacity:1;fill-rule:evenodd;stroke:none;stroke-width:1px;stroke-linecap:butt;stroke-linejoin:miter;stroke-opacity:1"/>
      <path d="M 353.97094,380.75164 C 355.93582,381.89573 360.14632,387.5667 362.73805,391.29275 C 364.36325,393.62918 364.97875,395.56224 366.02702,397.77029 C 366.99647,399.81227 368.06134,401.84348 369.97978,403.34718 C 372.96111,405.68403 370.78232,396.73752 370.78232,393.43268 C 370.78232,389.93476 369.90265,387.11519 368.39866,384.75753 C 366.71561,382.11902 364.85579,378.83 361.67943,377.58507 C 357.25511,375.8511 353.97094,376.85996 353.97094,380.75164 z" id="path5142" style="fill:#08100f;fill-opacity:1;fill-rule:evenodd;stroke:none;stroke-width:1px;stroke-linecap:butt;stroke-linejoin:miter;stroke-opacity:1"/>
      <path d="M 315.89287,582.54077 A 0.17857142,7.0380906e-08 0 0 1 315.71429,582.54077 L 315.71429,582.54077 z" transform="matrix(1.10795, 0, 0, 1.09295, -136.482, -62.108)" id="path3244" style="fill:#fcf5f5;fill-opacity:1;fill-rule:evenodd;stroke:none;stroke-width:1px;stroke-linecap:butt;stroke-linejoin:miter;stroke-opacity:1"/>
      <path d="M 204.06771,562.14325 C 205.36573,571.2767 204.54677,575.46706 201.39628,579.63807 C 199.28828,582.4289 201.35331,572.6551 200.05551,563.52145 C 198.75759,554.38797 193.96905,544.33448 196.6936,546.54566 C 200.15633,549.35589 201.61723,552.96164 204.06771,562.14325 z" id="path3217" style="fill:#c2efea;fill-opacity:1;fill-rule:evenodd;stroke:none;stroke-width:1px;stroke-linecap:butt;stroke-linejoin:miter;stroke-opacity:1"/>
      <path d="M 230.86979,535.57174 C 234.90213,543.89266 235.40359,548.13142 233.67637,553.04598 C 232.52071,556.33431 231.49862,546.40152 227.46647,538.0804 C 223.43423,529.7594 215.79271,521.60077 219.06677,522.89752 C 223.22791,524.54556 225.72404,527.54813 230.86979,535.57174 z" id="path3219" style="fill:#c2efea;fill-opacity:1;fill-rule:evenodd;stroke:none;stroke-width:1px;stroke-linecap:butt;stroke-linejoin:miter;stroke-opacity:1"/>
      <path d="M 228.01029,490.81886 C 231.41701,492.9752 235.87656,495.48406 240.41196,498.4436 C 243.70477,500.59233 247.68928,503.15141 248.18026,505.148 C 248.96126,508.32399 232.55434,497.10081 224.70544,492.46524 C 216.85657,487.82981 204.81497,482.73533 208.32282,482.87272 C 213.10966,483.06014 219.3803,486.41592 228.01029,490.81886 z" id="path3221" style="fill:#c2efea;fill-opacity:1;fill-rule:evenodd;stroke:none;stroke-width:1px;stroke-linecap:butt;stroke-linejoin:miter;stroke-opacity:1"/>
      <path d="M 239.93063,477.89305 C 242.45314,479.78455 245.76943,482.00611 249.12359,484.59625 C 251.5588,486.47675 254.50743,488.71903 254.79419,490.35837 C 255.25034,492.96605 243.14011,483.17712 237.31333,479.08886 C 231.48652,475.00067 222.4553,470.36404 225.14755,470.62292 C 228.82135,470.97623 233.49237,473.96058 239.93063,477.89305 z" id="path3223" style="fill:#c2efea;fill-opacity:1;fill-rule:evenodd;stroke:none;stroke-width:1px;stroke-linecap:butt;stroke-linejoin:miter;stroke-opacity:1"/>
    </g>
  </g>
</svg>