<?xml version="1.0" encoding="UTF-8" standalone="no"?>
<!-- Created with Inkscape (http://www.inkscape.org/) -->
<svg xmlns:svg="http://www.w3.org/2000/svg" xmlns="http://www.w3.org/2000/svg" xmlns:xlink="http://www.w3.org/1999/xlink" xmlns:inkscape="http://www.inkscape.org/namespaces/inkscape" version="1.0" width="48" height="48">
  <defs id="defs5322">
    <linearGradient id="linearGradient10080">
      <stop style="stop-color:#737373;stop-opacity:1" offset="0" id="stop10082"/>
      <stop style="stop-color:#777777;stop-opacity:1" offset="0.39534885" id="stop10086"/>
      <stop style="stop-color:#9b9b9b;stop-opacity:1" offset="1" id="stop10084"/>
    </linearGradient>
    <linearGradient id="linearGradient10070">
      <stop style="stop-color:#807978;stop-opacity:1" offset="0" id="stop10072"/>
      <stop style="stop-color:#807978;stop-opacity:0.49803922" offset="1" id="stop10078"/>
      <stop style="stop-color:#807978;stop-opacity:0" offset="1" id="stop10074"/>
    </linearGradient>
    <linearGradient id="linearGradient10034">
      <stop style="stop-color:#969696;stop-opacity:1" offset="0" id="stop10036"/>
      <stop style="stop-color:#969696;stop-opacity:0" offset="1" id="stop10038"/>
    </linearGradient>
    <linearGradient id="linearGradient5153">
      <stop style="stop-color:#f0ff22;stop-opacity:1" offset="0" id="stop5155"/>
      <stop style="stop-color:#ffffff;stop-opacity:0" offset="1" id="stop5157"/>
    </linearGradient>
    <linearGradient id="linearGradient5145">
      <stop style="stop-color:#ffffff;stop-opacity:1" offset="0" id="stop5147"/>
      <stop style="stop-color:#ffffff;stop-opacity:0" offset="1" id="stop5149"/>
    </linearGradient>
    <linearGradient id="linearGradient6299">
      <stop style="stop-color:#e80f0b;stop-opacity:1" offset="0" id="stop6301"/>
      <stop style="stop-color:#000000;stop-opacity:0" offset="1" id="stop6303"/>
    </linearGradient>
    <filter id="filter6551" height="1.0764492" y="-0.038224608" width="1.662107" x="-0.3310535">
      <feGaussianBlur id="feGaussianBlur6553" stdDeviation="2.2829199" inkscape:collect="always"/>
    </filter>
    <filter id="filter6711" height="1.0589716" y="-0.02948585" width="1.3220391" x="-0.16101953">
      <feGaussianBlur id="feGaussianBlur6713" stdDeviation="3.2869544" inkscape:collect="always"/>
    </filter>
    <filter id="filter6815" height="1.0596919" y="-0.029845938" width="1.4695597" x="-0.23477983">
      <feGaussianBlur id="feGaussianBlur6817" stdDeviation="3.0214799" inkscape:collect="always"/>
    </filter>
    <filter id="filter6891" height="1.069858" y="-0.034929018" width="1.3875982" x="-0.19379903">
      <feGaussianBlur id="feGaussianBlur6893" stdDeviation="3.7132435" inkscape:collect="always"/>
    </filter>
    <filter id="filter6951" height="1.1389734" y="-0.069486663" width="1.2853576" x="-0.14267883">
      <feGaussianBlur id="feGaussianBlur6953" stdDeviation="2.7463967" inkscape:collect="always"/>
    </filter>
    <radialGradient cx="319" cy="343.36221" r="271.39999" fx="319" fy="343.36221" id="radialGradient2238" xlink:href="#linearGradient6299" gradientUnits="userSpaceOnUse" gradientTransform="matrix(3.74222, 0, 0, 1.66323, -874.768, -227.727)" spreadMethod="pad"/>
    <radialGradient cx="399.51532" cy="544.90881" r="248.19447" fx="399.51532" fy="544.90881" id="radialGradient2240" xlink:href="#linearGradient5153" gradientUnits="userSpaceOnUse" gradientTransform="matrix(3.1858, -3.62427e-08, 2.99247e-08, 0.744432, -873.259, 1.09614)"/>
    <radialGradient cx="399.51532" cy="544.90881" r="248.19447" fx="399.51532" fy="544.90881" id="radialGradient2242" xlink:href="#linearGradient6299" gradientUnits="userSpaceOnUse" gradientTransform="matrix(3.1858, -3.34948e-08, 2.76081e-08, 0.744432, -873.259, 1.09614)"/>
    <linearGradient x1="419.70718" y1="118.63761" x2="414.60483" y2="160.64287" id="linearGradient2244" xlink:href="#linearGradient10034" gradientUnits="userSpaceOnUse" gradientTransform="translate(96.5392, 125.067)"/>
    <linearGradient x1="312.49969" y1="437.05029" x2="319.6051" y2="425.44424" id="linearGradient2246" xlink:href="#linearGradient10080" gradientUnits="userSpaceOnUse" gradientTransform="translate(-4, 158)"/>
  </defs>
  <g id="layer1">
    <g transform="matrix(0.0881152, 0, 0, 0.0881152, -8.95508, -20.1208)" id="g2214">
      <path d="M 715.59204 388.38895 A 229.80969 229.80969 0 1 1  255.97266,388.38895 A 229.80969 229.80969 0 1 1  715.59204 388.38895 z" transform="translate(-114.38, 148.515)" style="fill:#ffffff;fill-opacity:1;fill-rule:evenodd;stroke:#000000;stroke-width:0.80000001;stroke-linecap:round;stroke-linejoin:bevel;stroke-miterlimit:4;stroke-dasharray:none;stroke-opacity:1" id="path2170"/>
      <path d="M 590 343.36221 A 271 271 0 1 1  48,343.36221 A 271 271 0 1 1  590 343.36221 z" transform="translate(55, 158)" style="fill:url(#radialGradient2238);fill-opacity:1;fill-rule:evenodd;stroke:#000000;stroke-width:0.80000001;stroke-linecap:round;stroke-linejoin:bevel;stroke-miterlimit:4;stroke-dasharray:none;stroke-opacity:1" id="path2172"/>
      <path d="M 478 354.36218 A 98 258 0 1 1  282,354.36218 A 98 258 0 1 1  478 354.36218 z" transform="matrix(1.61224, 0, 0, 1.05039, -238.653, 127.145)" style="opacity:0.28971965;fill:#ffffff;fill-opacity:1;fill-rule:evenodd;stroke:#000000;stroke-width:0;stroke-linecap:round;stroke-linejoin:bevel;stroke-miterlimit:4;stroke-dasharray:none;stroke-opacity:1" id="path11727"/>
      <path d="M 647.70979 327.57776 A 248.19447 125.1579 0 1 1  151.32085,327.57776 A 248.19447 125.1579 0 1 1  647.70979 327.57776 z" transform="matrix(1.06406, 0, 0, 2.02107, -51.0997, -143.247)" style="opacity:1;fill:url(#radialGradient2240);fill-opacity:1;fill-rule:evenodd;stroke:url(#radialGradient2242);stroke-width:0;stroke-linecap:round;stroke-linejoin:bevel;stroke-miterlimit:4;stroke-dasharray:none;stroke-opacity:1" id="path3189"/>
      <path d="M 580 370.93362 A 157.14285 24.285715 0 1 1  265.71429,370.93362 A 157.14285 24.285715 0 1 1  580 370.93362 z" transform="matrix(1, 0, 0, 1.58824, -52.514, 8.91357)" style="fill:#ffffff;fill-opacity:1;fill-rule:evenodd;stroke:#000000;stroke-width:0.79349208;stroke-linecap:butt;stroke-linejoin:bevel;stroke-miterlimit:4;stroke-dasharray:none;stroke-opacity:1" id="path6313"/>
      <path d="M 588.42166,285.68166 A 217.85715,33.57143 0 1 1 588.85025,285.09239" transform="matrix(1.01138, -0.00559492, 0.611135, 0.837297, -177.944, 345.464)" style="fill:#ffffff;fill-opacity:1;fill-rule:evenodd;stroke:#000000;stroke-width:1.09061062;stroke-linecap:round;stroke-linejoin:bevel;marker-start:none;marker-mid:none;marker-end:none;stroke-miterlimit:4;stroke-dasharray:none;stroke-opacity:1" id="path7478"/>
      <path d="M 500.48157,380.5654 A 130.71428,20.714285 0 0 1 240.46716,379.82617" transform="matrix(1.03279, 0, 0, 1.18379, -12.525, 161.552)" style="fill:#000000;fill-opacity:1;fill-rule:evenodd;stroke:#eac100;stroke-width:0;stroke-linecap:butt;stroke-linejoin:bevel;stroke-miterlimit:4;stroke-dasharray:none;stroke-opacity:0.58620689" id="path7480"/>
      <path d="M 531.07683,446.33642 A 147.14285,18.214285 0 0 1 238.383,445.68641" transform="matrix(1.03261, 0, 0, 1.1484, -25.181, 70.2714)" style="fill:#000000;fill-opacity:1;fill-rule:evenodd;stroke:#eac100;stroke-width:0;stroke-linecap:butt;stroke-linejoin:bevel;stroke-miterlimit:4;stroke-dasharray:none;stroke-opacity:0.58620689" id="path7482"/>
      <path d="M 531.07683,446.33642 A 147.14285,18.214285 0 0 1 238.383,445.68641" transform="matrix(1.22452, 0, 0, 1.17132, -105.05, 47.6641)" style="fill:#ffffff;fill-opacity:1;fill-rule:evenodd;stroke:#eac100;stroke-width:0;stroke-linecap:butt;stroke-linejoin:bevel;stroke-miterlimit:4;stroke-dasharray:none;stroke-opacity:0.58620689" id="path8453"/>
      <path d="M 587.14285 456.29074 A 190.35715 26.071428 0 1 1  206.42856,456.29074 A 190.35715 26.071428 0 1 1  587.14285 456.29074 z" transform="matrix(0.800093, 0, 0, 0.602775, 54.7172, 305.283)" style="fill:#646464;fill-opacity:1;fill-rule:evenodd;stroke:#000000;stroke-width:1.15197217;stroke-linecap:butt;stroke-linejoin:bevel;stroke-miterlimit:4;stroke-dasharray:none;stroke-opacity:1" id="path8455"/>
      <path d="M 497.66502,374.32861 A 116.67262,6.5659914 0 0 1 265.58202,374.09429" transform="matrix(1.00914, 0.00163853, -0.00313934, 2.12401, -11.9318, -184.714)" style="fill:#ffffff;fill-opacity:1;fill-rule:evenodd;stroke:#000000;stroke-width:0;stroke-linecap:round;stroke-linejoin:bevel;stroke-miterlimit:4;stroke-dasharray:none;stroke-opacity:1" id="path6074"/>
      <path d="M 265.24167,373.30176 A 116.67262,6.5659914 0 1 1 498.1196,374.07657 L 381.83768,373.53967 z" transform="matrix(1, 0, 0, 1.24831, -9.03865, 109.979)" style="fill:#ffffff;fill-opacity:1;fill-rule:evenodd;stroke:#000000;stroke-width:0;stroke-linecap:round;stroke-linejoin:bevel;stroke-miterlimit:4;stroke-dasharray:none;stroke-opacity:1" id="path7045"/>
      <rect width="185.83383" height="17.33242" ry="8.6662102" x="439.42822" y="254.76303" transform="matrix(0.777126, 0.629345, -0.658942, 0.752194, 0, 0)" style="opacity:1;fill:#000100;fill-opacity:1;fill-rule:evenodd;stroke:#000000;stroke-width:0;stroke-linecap:round;stroke-linejoin:bevel;stroke-miterlimit:4;stroke-dasharray:none;stroke-opacity:1" id="rect5159"/>
      <rect width="183.1998" height="14.203807" ry="7.1019034" x="432.11047" y="253.10313" transform="matrix(0.775579, 0.63125, -0.630655, 0.776064, 0, 0)" style="opacity:1;fill:url(#linearGradient2244);fill-opacity:1;fill-rule:evenodd;stroke:#000000;stroke-width:0;stroke-linecap:round;stroke-linejoin:bevel;stroke-miterlimit:4;stroke-dasharray:none;stroke-opacity:1" id="rect7101"/>
      <path d="M 306.43804,594.23475 L 311.87261,594.49347 L 319.68858,594.79108 L 330.11675,595.05029 L 309.54681,578.33819 L 299.78093,588.53411 L 306.43804,594.23475 z " style="fill:url(#linearGradient2246);fill-opacity:1;fill-rule:evenodd;stroke:#000000;stroke-width:0;stroke-linecap:butt;stroke-linejoin:miter;stroke-miterlimit:4;stroke-dasharray:none;stroke-opacity:1" id="path7123"/>
      <rect width="181.49998" height="2.6135919" ry="1.306796" x="440.63135" y="258.66003" transform="matrix(0.779221, 0.626749, -0.624362, 0.781135, 0, 0)" style="opacity:1;fill:#f0f0f0;fill-opacity:1;fill-rule:evenodd;stroke:#000000;stroke-width:0;stroke-linecap:round;stroke-linejoin:bevel;stroke-miterlimit:4;stroke-dasharray:none;stroke-opacity:1" id="rect8094"/>
      <path d="M 180.625 322.23718 A 2.5625 5.375 0 1 1  175.5,322.23718 A 2.5625 5.375 0 1 1  180.625 322.23718 z" transform="matrix(1.04941, 0.848547, -0.591432, 0.832634, 178.366, 58.5809)" style="opacity:0.36448598;fill:#767676;fill-opacity:1;fill-rule:evenodd;stroke:#000000;stroke-width:0;stroke-linecap:round;stroke-linejoin:bevel;stroke-miterlimit:4;stroke-dasharray:none;stroke-opacity:1" id="path10088"/>
      <path d="M 343.44733,342.54293 C 341.8048,344.25565 332.26602,358.4893 331.03815,360.50706 C 329.97676,362.15112 329.17807,363.91388 328.41245,365.70261 C 327.74868,367.1533 327.13378,368.60657 326.63038,370.11911 C 326.23447,371.41549 326.2145,372.76299 326.13534,374.10137 C 326.09608,375.51489 326.11823,376.92893 326.13102,378.34262 C 326.15163,379.52425 326.14905,380.70597 326.14677,381.88771 C 326.13926,383.20887 326.13867,384.53002 326.13185,385.8512 C 326.11745,387.33434 326.46226,388.76233 326.76835,390.19684 C 327.22458,391.41847 327.37022,392.70755 327.55969,393.98567 C 327.67178,395.061 327.65404,396.14216 327.65988,397.22113 C 327.78747,398.63497 327.9233,400.04628 328.01537,401.46324 C 328.17747,403.70952 328.02403,405.92109 327.77821,408.15097 C 327.44439,410.58353 326.91983,412.98063 326.35667,415.36806 C 326.05088,416.83143 325.54315,418.23975 325.06861,419.65382 C 324.72006,420.94616 324.43964,422.25442 324.15188,423.56115 C 323.70853,425.18702 323.24746,426.79584 322.90759,428.44709 C 322.63762,429.96925 322.252,431.46734 321.89812,432.9712 C 321.53147,434.26319 321.05377,435.51797 320.59059,436.77672 C 320.03338,437.96449 319.7577,439.24904 319.44086,440.51447 C 318.99378,442.37528 318.73411,444.27525 318.40457,446.15953 C 317.9972,447.87276 317.86608,449.62342 317.71162,451.37031 C 317.64739,452.47005 317.65572,453.5718 317.65203,454.67281 C 317.65549,455.66773 317.6572,456.66265 317.65954,457.65757 C 317.69517,458.72669 318.31272,459.59279 318.79832,460.5076 C 319.99262,462.5539 321.2122,464.55612 322.6064,466.4751 C 325.84899,470.57467 329.4268,474.3992 333.29412,477.91235 C 335.70315,479.98901 338.04628,482.10789 340.21076,484.43518 C 341.87782,486.31281 343.32653,488.35921 344.73388,490.4331 C 345.71931,491.779 346.24015,493.34847 346.81127,494.88791 C 347.16465,496.09672 347.31322,497.33879 347.49382,498.57886 C 347.63293,500.05538 347.60976,501.5413 347.62841,503.02281 C 347.62791,504.3652 347.64198,505.70755 347.65236,507.04989 C 347.65328,508.25937 347.64483,509.46888 347.64048,510.67838 C 347.6319,512.06315 347.63458,513.44795 347.62969,514.83275 C 347.69617,516.52704 347.54228,518.20857 347.3805,519.89231 C 347.26912,521.69967 347.15128,523.50091 346.94459,525.30004 C 346.74215,526.30568 346.52134,527.3108 346.29726,528.31175 C 346.21732,529.34403 345.74868,530.25948 345.4022,531.20856 C 345.33226,531.34414 345.26231,531.47972 345.19237,531.61531 L 335.54977,555.15946 C 335.63976,555.06002 336.7904,535.1616 336.88039,535.06216 C 337.27881,534.20662 337.77726,533.4074 337.91055,532.44474 C 338.10829,531.41619 338.20873,530.37013 338.6356,529.39335 C 338.90792,527.59902 339.10875,525.8074 339.16664,523.99088 C 339.29182,522.34114 339.44228,520.69778 339.37025,519.04116 C 339.36535,517.65992 339.36795,516.27869 339.35967,514.89748 C 339.35601,513.69087 339.3475,512.48422 339.35201,511.27763 C 339.36628,509.92859 339.38687,508.57948 339.38031,507.23034 C 339.37819,505.77928 339.37384,504.32727 339.26172,502.87943 C 339.0996,501.68467 338.94229,500.4975 338.64152,499.32671 C 338.16763,497.85086 337.72788,496.36051 336.83607,495.05911 C 335.48995,493.00491 334.12207,490.95648 332.45696,489.14061 C 330.32731,486.85539 328.11498,484.6586 325.85876,482.49777 C 322.10133,478.80553 318.487,474.96607 315.01942,471.00016 C 313.45701,469.15033 311.99298,467.23961 310.7519,465.15655 C 310.17284,464.11408 309.46831,463.11854 309.33742,461.89953 C 309.33541,460.90363 309.3333,459.90773 309.33187,458.91183 C 309.3398,457.78147 309.33334,456.65 309.41766,455.52183 C 309.58113,453.72692 309.77952,451.93382 310.14958,450.16717 C 310.48587,448.28265 310.76162,446.38934 311.1126,444.50788 C 311.39481,443.21339 311.61233,441.88569 312.13088,440.66149 C 312.63929,439.44262 312.94067,438.03895 313.37003,436.78759 C 313.73466,435.30328 314.28801,433.99852 314.60377,432.50275 C 314.90531,430.83527 315.30132,429.20407 315.83525,427.5938 C 316.09963,426.27237 316.32786,424.94602 316.6641,423.64007 C 317.14649,422.20628 317.68818,420.79057 318.06988,419.32466 C 318.72954,416.96913 319.29619,414.59139 319.65644,412.16865 C 319.87003,410.01371 320.00946,407.87109 319.80663,405.70481 C 319.70694,404.28159 319.59384,402.86133 319.35631,401.45271 C 319.34949,400.39884 319.35579,399.34398 319.29893,398.29127 C 319.15949,397.05548 319.06305,395.81364 318.62292,394.6343 C 318.2891,393.12317 317.93936,391.61945 317.86832,390.06166 C 317.86148,388.74597 317.86122,387.43028 317.85242,386.11461 C 317.84755,384.93092 317.84393,383.74725 317.85431,382.56357 C 317.85805,381.14028 317.85782,379.7171 317.85709,378.29382 C 317.90992,376.88205 317.88992,375.45898 318.27797,374.08488 C 318.74253,372.5447 319.26857,371.04281 319.98799,369.59829 C 320.79586,367.71028 321.65123,365.86697 322.80142,364.15004 C 323.97841,362.22907 325.01714,360.14434 326.50232,358.46231 L 343.44733,342.54293 z " style="opacity:1;fill:#d7d7d7;fill-opacity:1;fill-rule:evenodd;stroke:#000000;stroke-width:0;stroke-linecap:round;stroke-linejoin:bevel;stroke-miterlimit:4;stroke-dasharray:none;stroke-opacity:1;filter:url(#filter6891)" id="path4321"/>
      <path d="M 375.27373,543.28433 C 376.97466,541.81246 383.11283,533.78841 384.57291,532.07399 C 387.53983,528.2401 390.01517,524.0696 392.31895,519.81421 C 393.80902,517.3028 394.4317,514.55292 394.84026,511.71087 C 394.97854,510.18802 394.92198,508.65938 394.89178,507.13369 C 394.85804,506.10662 394.85509,505.07903 394.84286,504.05161 C 394.85267,503.06589 394.65079,502.09199 394.5028,501.12041 C 394.44133,500.00407 394.03524,498.95775 393.70557,497.90194 C 393.27357,496.71495 393.70157,495.53636 393.24558,494.35789 C 392.72404,493.17395 392.3501,491.94943 391.97977,490.71602 C 391.80581,489.57241 390.84206,488.41389 390.73048,487.26288 C 390.38918,485.91329 389.9413,484.58789 389.55424,483.24803 C 389.08666,481.65815 388.66626,480.0601 388.16116,478.48192 C 387.47046,476.23863 386.68068,474.03253 385.86831,471.83096 C 384.8919,468.95525 384.1668,466.00911 383.5064,463.04993 C 383.13234,460.43666 382.89387,457.80484 382.65423,455.17612 C 382.47587,452.87672 382.45526,450.5691 382.42196,448.26421 C 382.35156,446.12579 382.45902,443.99566 382.61368,441.86438 C 382.80076,439.9542 383.15466,438.08106 383.61007,436.22025 C 383.99365,434.65209 384.38155,433.08492 384.78257,431.52107 C 385.05506,430.18722 385.54312,428.91361 385.98576,427.62988 C 386.36911,426.56757 386.71665,425.49289 387.078,424.42305 C 387.43997,423.41345 387.84043,422.41848 388.221,421.41567 C 388.58298,420.42017 388.77538,419.37277 389.01301,418.34267 C 389.25895,416.82182 389.38533,415.28473 389.58248,413.75608 C 389.90544,412.00235 390.12151,410.23939 390.28298,408.46512 C 390.38531,406.70867 390.3928,404.94931 390.39634,403.19058 C 390.43825,401.31308 390.40075,399.44215 390.29207,397.56846 C 390.21665,394.86513 389.74357,392.21283 389.22737,389.56571 C 388.37153,385.71463 387.12011,381.98168 385.67545,378.31755 C 384.29629,375.11615 383.01061,371.87634 381.64368,368.66963 C 380.7437,366.28429 379.48512,364.06294 378.24032,361.84697 C 377.05505,359.93605 376.06099,357.92131 375.00325,355.93963 C 373.76158,353.64063 372.62191,351.29071 371.44007,348.95974 C 370.59401,347.19965 369.9239,345.36506 369.19178,343.55706 L 362.356,320.33302 C 363.03171,322.14481 378.50017,342.71789 379.31322,344.4754 C 380.49248,346.79769 381.69378,349.10214 382.88938,351.41551 C 384.00576,353.35868 385.02154,355.35095 386.1579,357.28413 C 387.37117,359.55743 388.63183,361.83124 389.54139,364.24373 C 390.82064,367.49886 391.98502,370.79976 393.3731,374.01085 C 394.93086,377.68054 396.11307,381.47599 397.09009,385.34222 C 397.73758,387.97539 398.34709,390.61819 398.42714,393.34063 C 398.58975,395.22773 398.65893,397.11016 398.61509,399.00576 C 398.60245,400.78464 398.61565,402.56532 398.5109,404.34192 C 398.38637,406.12854 398.22948,407.90758 397.85124,409.66289 C 397.67041,411.20061 397.4972,412.73242 397.38829,414.27656 C 397.15371,415.3461 396.98763,416.42915 396.68048,417.48177 C 396.30959,418.48683 395.91415,419.4801 395.53016,420.479 C 395.16311,421.55677 394.77728,422.62857 394.412,423.70819 C 393.96167,424.96997 393.43475,426.21649 393.13981,427.52663 C 392.71663,429.09694 392.3138,430.67275 391.9129,432.24873 C 391.42705,434.06771 391.04797,435.89176 390.83291,437.76554 C 390.63087,439.87621 390.48395,441.98031 390.57477,444.10331 C 390.58401,446.39714 390.58796,448.69208 390.73354,450.98246 C 390.93251,453.58761 391.16871,456.19083 391.51202,458.78137 C 392.09518,461.71103 392.69355,464.6558 393.78596,467.44857 C 394.61967,469.63544 395.53482,471.78153 396.21791,474.0227 C 396.76989,475.60934 397.21061,477.21604 397.67475,478.82997 C 398.09267,480.19281 398.53033,481.54885 398.96632,482.90425 C 399.09289,484.03926 399.56872,485.16893 399.66382,486.30874 C 399.97705,487.51148 400.29899,488.69823 400.81808,489.83786 C 401.29135,491.0208 401.41973,492.20159 401.84941,493.40048 C 402.20672,494.50908 402.67446,495.61101 402.77179,496.7791 C 402.92529,497.78315 403.11255,498.79529 403.16399,499.80648 C 403.16957,500.83571 403.17324,501.86494 403.18278,502.89415 C 403.17497,504.48214 403.18522,506.07233 403.0229,507.65466 C 402.60578,510.6615 401.97584,513.58356 400.35554,516.2187 C 397.97778,520.42406 395.50544,524.57889 392.78949,528.57652 C 391.45058,530.2667 389.99692,531.82273 388.60855,533.44514 L 375.27373,543.28433 z " style="opacity:1;fill:#d7d7d7;fill-opacity:1;fill-rule:evenodd;stroke:#000000;stroke-width:0;stroke-linecap:round;stroke-linejoin:bevel;stroke-miterlimit:4;stroke-dasharray:none;stroke-opacity:1;filter:url(#filter6711)" id="path4323"/>
      <path d="M 428.60989,550.89548 C 429.01817,546.92145 434.05644,520.31825 433.77803,516.34696 C 433.33325,511.21225 432.311,506.14343 430.9556,501.17705 C 429.71955,496.31865 427.59971,491.76999 425.09399,487.45044 C 423.41408,484.72241 421.42013,482.21778 419.45779,479.69356 C 418.37679,478.51921 417.88787,477.07636 417.34054,475.62517 C 416.81903,474.34556 416.69388,472.99465 416.56483,471.63645 C 416.50085,469.35463 416.52279,467.0713 416.52475,464.78884 C 416.53755,461.99632 416.51793,459.20396 416.59535,456.41233 C 416.53504,452.09983 416.80235,447.80435 417.10267,443.50552 C 417.25474,439.40836 418.09273,435.39056 418.74602,431.35619 C 419.53969,426.88441 420.76863,422.51116 421.89585,418.11714 C 422.98489,413.87804 424.2874,409.69942 425.4046,405.46801 C 425.98471,402.90321 426.61189,400.35229 427.11771,397.77247 C 427.52478,395.89014 427.72546,393.98204 427.87922,392.06657 C 428.0125,390.40836 428.14778,389.10753 428.39449,387.09799 C 428.33139,385.47183 428.59706,384.2588 428.23432,382.51274 C 426.86834,376.51007 416.36462,351.18891 418.41039,348.42372 C 419.89542,349.09645 432.53461,372.53545 433.30269,374.64234 C 433.80968,374.55704 434.11318,375.84449 435.11394,377.87718 C 435.55867,379.50091 435.90732,381.14973 436.03917,382.83599 C 436.20228,384.53522 436.26187,386.22703 436.12969,387.9339 C 435.97155,389.88923 435.77675,391.8426 435.34023,393.75993 C 434.82085,396.41273 434.11278,399.01223 433.4511,401.63407 C 432.26009,405.88045 430.83866,410.06244 429.78107,414.34668 C 428.65733,418.69234 427.48065,423.0324 426.7146,427.45965 C 426.03178,431.48069 425.19638,435.48728 424.97463,439.57064 C 424.61515,443.82645 424.36533,448.0752 424.57265,452.34819 C 424.64884,455.11752 424.61994,457.88746 424.63118,460.65763 C 424.64129,462.89806 424.62945,465.14118 424.77263,467.37812 C 424.92312,468.66465 424.99882,469.95709 425.50379,471.17255 C 425.97667,472.52556 426.38385,473.88928 427.31959,475.026 C 429.18806,477.65225 431.02841,480.29915 432.65467,483.08566 C 435.17524,487.47938 437.28013,492.1265 438.60037,497.02958 C 439.89082,502.07048 441.02456,507.16058 441.48785,512.35446 C 441.72807,516.24318 442.04538,520.12572 442.25839,524.01597 L 428.60989,550.89548 z " style="opacity:1;fill:#d7d7d7;fill-opacity:1;fill-rule:evenodd;stroke:#000000;stroke-width:0;stroke-linecap:round;stroke-linejoin:bevel;stroke-miterlimit:4;stroke-dasharray:none;stroke-opacity:1;filter:url(#filter6815)" id="path4325"/>
      <path d="M 335.34495,548.82447 C 334.99213,547.64216 316.63903,531.3052 314.04778,529.45889 C 312.08385,527.2588 311.68039,526.90489 311.26391,526.26281 C 310.38184,525.85284 309.53709,525.37191 308.6907,524.88975 C 307.43568,523.95509 306.45546,522.71613 305.40821,521.56606 C 303.80004,520.06587 302.61606,518.23587 301.40951,516.42121 C 300.42003,514.92032 299.91679,513.23188 299.42293,511.52819 C 299.06904,509.94837 298.62722,508.39527 298.27633,506.8157 C 298.07557,505.24966 297.81585,503.69292 297.55566,502.1364 C 297.1876,500.8403 297.0782,499.50199 296.93102,498.17142 C 296.8456,496.93946 296.85561,495.70493 296.84996,494.47109 C 296.83869,493.09562 296.8664,491.72029 296.88391,490.34498 C 296.90259,489.12496 296.8978,487.90487 296.89729,486.68481 L 304.39537,469.7763 C 304.39437,470.99243 305.0964,484.9365 305.11349,486.1526 C 305.12854,487.51763 305.15254,488.8827 305.13733,490.24783 C 305.14228,491.46429 305.13393,492.68146 305.18396,493.89714 C 305.29756,495.19507 305.37647,496.49788 305.72357,497.7626 C 305.99082,499.32608 306.25737,500.89093 306.41931,502.4709 C 306.75449,504.03465 307.21858,505.55817 307.55511,507.1212 C 308.00372,508.74387 308.40728,510.38029 309.3433,511.81146 C 310.50483,513.5926 311.6532,515.37279 313.24446,516.8176 C 314.27303,517.87094 315.27666,518.97665 316.50331,519.80639 C 317.39528,520.27929 318.30657,520.7176 319.17576,521.22834 C 319.74498,522.07712 320.49796,522.74367 320.5907,523.88566 C 321.05031,525.01554 321.48834,526.15564 321.98257,527.27237 L 335.34495,548.82447 z " style="opacity:1;fill:#d7d7d7;fill-opacity:1;fill-rule:evenodd;stroke:#000000;stroke-width:0;stroke-linecap:round;stroke-linejoin:bevel;stroke-miterlimit:4;stroke-dasharray:none;stroke-opacity:1;filter:url(#filter6951)" id="path4327"/>
      <path d="M 356.51746,495.12859 C 356.61796,493.34621 355.91151,463.6287 355.93269,461.84404 C 355.96627,459.36713 355.94742,456.89011 355.93285,454.41315 C 355.89481,452.39289 355.59639,450.39945 355.29495,448.40652 C 354.98786,446.73686 354.62801,445.07842 354.26398,443.42071 C 353.74897,441.51065 353.61785,439.54454 353.49351,437.58151 C 353.41898,435.30646 353.42566,433.0295 353.424,430.7535 C 353.42564,428.45905 353.43034,426.16468 353.42514,423.87022 C 353.42014,421.80995 353.41478,419.74969 353.40321,417.68947 C 353.39651,415.86521 353.40175,414.04099 353.39347,412.21675 C 353.17667,409.60975 353.91252,407.17193 354.65089,404.7042 C 355.63366,401.62243 366.08206,379.00569 367.14678,375.68093 L 364.35418,394.61101 C 363.43524,397.86446 362.9968,399.12943 362.13555,402.13025 C 361.52256,404.4776 361.2455,405.58186 361.4298,408.03195 C 361.42159,409.85952 361.60364,411.68707 361.59686,413.51466 C 361.58499,415.5831 361.57944,417.6516 361.57171,419.72009 C 361.56273,422.01628 361.56201,424.31241 361.55875,426.60861 C 361.56136,428.86595 361.54683,431.12415 361.63831,433.38019 C 361.75949,435.28207 361.86744,437.19243 362.37366,439.04138 C 362.76739,440.72472 363.14313,442.40884 363.43343,444.11443 C 363.7278,446.15782 364.01209,448.20069 364.06715,450.26852 C 364.05267,452.74542 364.03363,455.22239 364.06731,457.69925 C 364.08825,459.44232 364.08737,461.18777 364.18965,462.92841 L 356.51746,495.12859 z " style="opacity:1;fill:#d7d7d7;fill-opacity:1;fill-rule:evenodd;stroke:#000000;stroke-width:0;stroke-linecap:round;stroke-linejoin:bevel;stroke-miterlimit:4;stroke-dasharray:none;stroke-opacity:1;filter:url(#filter6551)" id="path4329"/>
    </g>
  </g>
</svg>