<?xml version="1.0" encoding="UTF-8" standalone="no"?>
<!-- Created with Inkscape (http://www.inkscape.org/) -->

<svg
   xmlns:dc="http://purl.org/dc/elements/1.1/"
   xmlns:cc="http://creativecommons.org/ns#"
   xmlns:rdf="http://www.w3.org/1999/02/22-rdf-syntax-ns#"
   xmlns:svg="http://www.w3.org/2000/svg"
   xmlns="http://www.w3.org/2000/svg"
   xmlns:xlink="http://www.w3.org/1999/xlink"
   xmlns:sodipodi="http://sodipodi.sourceforge.net/DTD/sodipodi-0.dtd"
   xmlns:inkscape="http://www.inkscape.org/namespaces/inkscape"
   width="48px"
   height="48px"
   id="svg3277"
   sodipodi:version="0.32"
   inkscape:version="0.48.1 r9760"
   sodipodi:docname="gtk-edit.svg"
   inkscape:output_extension="org.inkscape.output.svg.inkscape"
   version="1.1">
  <defs
     id="defs3279">
    <linearGradient
       id="linearGradient3155">
      <stop
         style="stop-color:#000000;stop-opacity:1;"
         offset="0"
         id="stop3157" />
      <stop
         id="stop3171"
         offset="0.13482948"
         style="stop-color:#c3c3c3;stop-opacity:1;" />
      <stop
         style="stop-color:#8c8c8c;stop-opacity:1;"
         offset="0.20224422"
         id="stop3173" />
      <stop
         id="stop3163"
         offset="0.26965895"
         style="stop-color:#ffffff;stop-opacity:1;" />
      <stop
         style="stop-color:#757575;stop-opacity:1;"
         offset="0.44650277"
         id="stop3165" />
      <stop
         id="stop3167"
         offset="0.57114136"
         style="stop-color:#7d7d7d;stop-opacity:1;" />
      <stop
         style="stop-color:#b6b6b6;stop-opacity:1;"
         offset="0.72038066"
         id="stop3169" />
      <stop
         style="stop-color:#000000;stop-opacity:1;"
         offset="1"
         id="stop3159" />
    </linearGradient>
    <linearGradient
       inkscape:collect="always"
       xlink:href="#linearGradient3155"
       id="linearGradient3265"
       gradientUnits="userSpaceOnUse"
       gradientTransform="matrix(1.1992782,-1.2061574,1.2306697,1.2255073,-36.004294,13.88486)"
       spreadMethod="pad"
       x1="23.575972"
       y1="25.356892"
       x2="23.575972"
       y2="31.210939" />
    <linearGradient
       inkscape:collect="always"
       xlink:href="#linearGradient3240"
       id="linearGradient3260"
       gradientUnits="userSpaceOnUse"
       gradientTransform="matrix(1.1653763,-1.172061,1.4402748,1.4342331,-39.961363,8.1492416)"
       x1="30.037716"
       y1="24.989594"
       x2="30.037716"
       y2="30.000141" />
    <linearGradient
       inkscape:collect="always"
       xlink:href="#linearGradient3223"
       id="linearGradient3257"
       gradientUnits="userSpaceOnUse"
       gradientTransform="matrix(1.1653763,-1.172061,1.4402748,1.4342331,-40.295111,8.4849048)"
       x1="30.037716"
       y1="24.989594"
       x2="30.037716"
       y2="30.000141" />
    <linearGradient
       inkscape:collect="always"
       xlink:href="#linearGradient3240"
       id="linearGradient3254"
       gradientUnits="userSpaceOnUse"
       gradientTransform="matrix(1.1653763,-1.172061,1.4402748,1.4342331,-38.801593,6.9828175)"
       x1="30.037716"
       y1="24.989594"
       x2="30.037716"
       y2="30.000141" />
    <linearGradient
       inkscape:collect="always"
       xlink:href="#linearGradient3223"
       id="linearGradient3251"
       gradientUnits="userSpaceOnUse"
       gradientTransform="matrix(1.1653763,-1.172061,1.4402748,1.4342331,-39.135341,7.3184803)"
       x1="30.037716"
       y1="24.989594"
       x2="30.037716"
       y2="30.000141" />
    <linearGradient
       id="linearGradient3240">
      <stop
         id="stop3242"
         offset="0"
         style="stop-color:#3e3e3e;stop-opacity:1;" />
      <stop
         style="stop-color:#828282;stop-opacity:1;"
         offset="0.5"
         id="stop3244" />
      <stop
         id="stop3246"
         offset="1"
         style="stop-color:#3c3c3c;stop-opacity:1;" />
    </linearGradient>
    <linearGradient
       inkscape:collect="always"
       xlink:href="#linearGradient3240"
       id="linearGradient3248"
       gradientUnits="userSpaceOnUse"
       gradientTransform="matrix(1.1653763,-1.172061,1.4402748,1.4342331,-37.636216,5.810757)"
       x1="30.037716"
       y1="24.989594"
       x2="30.037716"
       y2="30.000141" />
    <linearGradient
       id="linearGradient3223">
      <stop
         style="stop-color:#999999;stop-opacity:1;"
         offset="0"
         id="stop3225" />
      <stop
         id="stop3231"
         offset="0.5"
         style="stop-color:#ffffff;stop-opacity:1;" />
      <stop
         style="stop-color:#777777;stop-opacity:1;"
         offset="1"
         id="stop3227" />
    </linearGradient>
    <linearGradient
       inkscape:collect="always"
       xlink:href="#linearGradient3223"
       id="linearGradient3245"
       gradientUnits="userSpaceOnUse"
       gradientTransform="matrix(1.1653763,-1.172061,1.4402748,1.4342331,-37.969965,6.1464195)"
       x1="30.037716"
       y1="24.989594"
       x2="30.037716"
       y2="30.000141" />
    <linearGradient
       id="linearGradient3191">
      <stop
         style="stop-color:#cbbd27;stop-opacity:1;"
         offset="0"
         id="stop3193" />
      <stop
         style="stop-color:#9b901d;stop-opacity:1;"
         offset="1"
         id="stop3195" />
    </linearGradient>
    <linearGradient
       inkscape:collect="always"
       xlink:href="#linearGradient3191"
       id="linearGradient3270"
       gradientUnits="userSpaceOnUse"
       x1="5.5178981"
       y1="37.371799"
       x2="9.5220556"
       y2="41.391716"
       gradientTransform="matrix(1.0800487,0,0,1.0787164,-1.8780291,-0.9799908)" />
    <linearGradient
       id="linearGradient3290">
      <stop
         style="stop-color:#e4db7b;stop-opacity:1;"
         offset="0"
         id="stop3292" />
      <stop
         style="stop-color:#f4f0c8;stop-opacity:1;"
         offset="1"
         id="stop3294" />
    </linearGradient>
    <linearGradient
       inkscape:collect="always"
       xlink:href="#linearGradient3290"
       id="linearGradient3268"
       gradientUnits="userSpaceOnUse"
       gradientTransform="matrix(1.2854316,-1.2912103,1.5886497,1.5800342,-46.994731,7.9570591)"
       x1="9"
       y1="29.056757"
       x2="9"
       y2="26.02973" />
    <linearGradient
       x1="302.85715"
       y1="366.64789"
       x2="302.85715"
       y2="609.50507"
       id="linearGradient2467"
       xlink:href="#linearGradient5048"
       gradientUnits="userSpaceOnUse"
       gradientTransform="matrix(0.06732488,0,0,0.01470022,-0.3411391,37.040146)" />
    <linearGradient
       id="linearGradient5048">
      <stop
         id="stop5050"
         style="stop-color:#000000;stop-opacity:0"
         offset="0" />
      <stop
         id="stop5056"
         style="stop-color:#000000;stop-opacity:1"
         offset="0.5" />
      <stop
         id="stop5052"
         style="stop-color:#000000;stop-opacity:0"
         offset="1" />
    </linearGradient>
    <radialGradient
       cx="605.71429"
       cy="486.64789"
       r="117.14286"
       fx="605.71429"
       fy="486.64789"
       id="radialGradient2464"
       xlink:href="#linearGradient5060"
       gradientUnits="userSpaceOnUse"
       gradientTransform="matrix(-0.02303994,0,0,0.01470022,21.62311,37.040176)" />
    <linearGradient
       id="linearGradient5060">
      <stop
         id="stop5062"
         style="stop-color:#000000;stop-opacity:1"
         offset="0" />
      <stop
         id="stop5064"
         style="stop-color:#000000;stop-opacity:0"
         offset="1" />
    </linearGradient>
    <radialGradient
       cx="605.71429"
       cy="486.64789"
       r="117.14286"
       fx="605.71429"
       fy="486.64789"
       id="radialGradient2461"
       xlink:href="#linearGradient5060"
       gradientUnits="userSpaceOnUse"
       gradientTransform="matrix(0.02303995,0,0,0.01470022,26.360882,37.040176)" />
    <linearGradient
       id="linearGradient3428">
      <stop
         id="stop3430"
         style="stop-color:#000000;stop-opacity:1"
         offset="0" />
      <stop
         id="stop3432"
         style="stop-color:#000000;stop-opacity:0"
         offset="1" />
    </linearGradient>
    <radialGradient
       cx="14.76559"
       cy="10.898237"
       r="18.000002"
       fx="14.76559"
       fy="10.898237"
       id="radialGradient2456"
       xlink:href="#linearGradient3242"
       gradientUnits="userSpaceOnUse"
       gradientTransform="matrix(-2.2703142e-8,2.1357283,-3.5601359,-3.7844828e-8,54.620625,-24.438287)" />
    <linearGradient
       id="linearGradient3242">
      <stop
         id="stop3244-1"
         style="stop-color:#f89b7e;stop-opacity:1"
         offset="0" />
      <stop
         id="stop3246-3"
         style="stop-color:#e35d4f;stop-opacity:1"
         offset="0.26238" />
      <stop
         id="stop3248"
         style="stop-color:#c6262e;stop-opacity:1"
         offset="0.66093999" />
      <stop
         id="stop3250"
         style="stop-color:#690b2c;stop-opacity:1"
         offset="1" />
    </linearGradient>
    <linearGradient
       x1="-51.786404"
       y1="53.623615"
       x2="-51.786404"
       y2="2.9062471"
       id="linearGradient2458"
       xlink:href="#linearGradient2490"
       gradientUnits="userSpaceOnUse"
       gradientTransform="matrix(0.8074968,0,0,0.8948322,59.410232,-2.9805533)" />
    <linearGradient
       id="linearGradient2490">
      <stop
         id="stop2492"
         style="stop-color:#791235;stop-opacity:1"
         offset="0" />
      <stop
         id="stop2494"
         style="stop-color:#dd3b27;stop-opacity:1"
         offset="1" />
    </linearGradient>
    <radialGradient
       cx="102"
       cy="112.3047"
       r="139.55859"
       id="radialGradient2453"
       xlink:href="#XMLID_8_"
       gradientUnits="userSpaceOnUse"
       gradientTransform="matrix(0.3617022,0,0,-0.3907784,0.8510637,47.517004)" />
    <radialGradient
       cx="102"
       cy="112.3047"
       r="139.55859"
       id="XMLID_8_"
       gradientUnits="userSpaceOnUse">
      <stop
         id="stop41"
         style="stop-color:#000000;stop-opacity:1"
         offset="0" />
      <stop
         id="stop47"
         style="stop-color:#000000;stop-opacity:1"
         offset="0.18851049" />
      <stop
         id="stop49"
         style="stop-color:#000000;stop-opacity:0"
         offset="0.25718147" />
      <stop
         id="stop51"
         style="stop-color:#000000;stop-opacity:0"
         offset="1" />
    </radialGradient>
    <linearGradient
       x1="24"
       y1="1.9999999"
       x2="24"
       y2="46.01725"
       id="linearGradient2450"
       xlink:href="#linearGradient3211"
       gradientUnits="userSpaceOnUse"
       gradientTransform="matrix(1,0,0,0.9777778,0,-0.9666693)" />
    <linearGradient
       id="linearGradient3211">
      <stop
         id="stop3213"
         style="stop-color:#ffffff;stop-opacity:1"
         offset="0" />
      <stop
         id="stop3215"
         style="stop-color:#ffffff;stop-opacity:0"
         offset="1" />
    </linearGradient>
    <linearGradient
       x1="23.969797"
       y1="3.9810441"
       x2="23.969797"
       y2="44.024017"
       id="linearGradient2447"
       xlink:href="#linearGradient4246"
       gradientUnits="userSpaceOnUse"
       gradientTransform="matrix(0.8947369,0,0,1.131579,2.5263157,-4.6578946)" />
    <linearGradient
       id="linearGradient4246">
      <stop
         id="stop4248"
         style="stop-color:#ffffff;stop-opacity:1"
         offset="0" />
      <stop
         id="stop4250"
         style="stop-color:#dcdcdc;stop-opacity:1"
         offset="1" />
    </linearGradient>
    <filter
       color-interpolation-filters="sRGB"
       height="1.3286875"
       y="-0.16434373"
       width="1.2969251"
       x="-0.14846256"
       id="filter3212">
      <feGaussianBlur
         id="feGaussianBlur3214"
         stdDeviation="0.77391625"
         inkscape:collect="always" />
    </filter>
    <linearGradient
       x1="32.892288"
       y1="8.0590115"
       x2="36.358372"
       y2="5.4565363"
       id="linearGradient2441"
       xlink:href="#linearGradient8589"
       gradientUnits="userSpaceOnUse"
       gradientTransform="matrix(0.9976985,0,0,1.0406866,0.1638029,-1.1057939)" />
    <linearGradient
       id="linearGradient8589">
      <stop
         id="stop8591"
         style="stop-color:#fefefe;stop-opacity:1"
         offset="0" />
      <stop
         id="stop8593"
         style="stop-color:#cbcbcb;stop-opacity:1"
         offset="1" />
    </linearGradient>
    <linearGradient
       x1="35.516502"
       y1="4.8577352"
       x2="34.102982"
       y2="6.5436172"
       id="linearGradient2438"
       xlink:href="#linearGradient4267"
       gradientUnits="userSpaceOnUse" />
    <linearGradient
       id="linearGradient4267">
      <stop
         id="stop4269"
         style="stop-color:#c4c4c4;stop-opacity:1"
         offset="0" />
      <stop
         id="stop4271"
         style="stop-color:#c4c4c4;stop-opacity:0"
         offset="1" />
    </linearGradient>
    <linearGradient
       y2="6.5436172"
       x2="34.102982"
       y1="4.8577352"
       x1="35.516502"
       gradientUnits="userSpaceOnUse"
       id="linearGradient3480"
       xlink:href="#linearGradient4267"
       inkscape:collect="always" />
  </defs>
  <sodipodi:namedview
     id="base"
     pagecolor="#ffffff"
     bordercolor="#666666"
     borderopacity="1.0"
     inkscape:pageopacity="0.0"
     inkscape:pageshadow="2"
     inkscape:zoom="7"
     inkscape:cx="24"
     inkscape:cy="24"
     inkscape:current-layer="layer1-2"
     showgrid="true"
     inkscape:grid-bbox="true"
     inkscape:document-units="px"
     inkscape:window-width="640"
     inkscape:window-height="678"
     inkscape:window-x="395"
     inkscape:window-y="49"
     inkscape:window-maximized="0" />
  <metadata
     id="metadata3282">
    <rdf:RDF>
      <cc:Work
         rdf:about="">
        <dc:format>image/svg+xml</dc:format>
        <dc:type
           rdf:resource="http://purl.org/dc/dcmitype/StillImage" />
        <dc:title></dc:title>
      </cc:Work>
    </rdf:RDF>
  </metadata>
  <g
     id="layer1"
     inkscape:label="Layer 1"
     inkscape:groupmode="layer">
    <g
       transform="translate(1.2937159,1.1823562)"
       id="layer1-2">
      <rect
         width="32.508301"
         height="3.5700529"
         x="7.7378473"
         y="42.429947"
         id="rect2879"
         style="opacity:0.3;fill:url(#linearGradient2467);fill-opacity:1;fill-rule:nonzero;stroke:none;stroke-width:1;marker:none;visibility:visible;display:inline;overflow:visible" />
      <path
         inkscape:connector-curvature="0"
         d="m 7.7378475,42.430102 c 0,0 0,3.569856 0,3.569856 -1.1865002,0.0067 -2.8683795,-0.799823 -2.8683795,-1.785158 0,-0.985333 1.3240446,-1.784697 2.8683795,-1.784698 z"
         id="path2881"
         style="opacity:0.3;fill:url(#radialGradient2464);fill-opacity:1;fill-rule:nonzero;stroke:none;stroke-width:1;marker:none;visibility:visible;display:inline;overflow:visible" />
      <path
         inkscape:connector-curvature="0"
         d="m 40.246148,42.430102 c 0,0 0,3.569856 0,3.569856 1.1865,0.0067 2.86838,-0.799823 2.86838,-1.785158 0,-0.985333 -1.324045,-1.784697 -2.86838,-1.784698 z"
         id="path2883"
         style="opacity:0.3;fill:url(#radialGradient2461);fill-opacity:1;fill-rule:nonzero;stroke:none;stroke-width:1;marker:none;visibility:visible;display:inline;overflow:visible" />
      <path
         inkscape:connector-curvature="0"
         d="m 6.4999609,0.49719878 c 8.0202951,0 16.0405901,0 24.0608861,0 0.525234,1.96019962 6.133094,6.85160272 10.939195,9.62640622 0,11.459733 0,22.919465 0,34.379198 -11.666694,0 -23.333387,0 -35.0000811,0 0,-14.668535 0,-29.33707 0,-44.00560422 z"
         id="path4160"
         style="fill:url(#radialGradient2456);fill-opacity:1;stroke:url(#linearGradient2458);stroke-width:0.99992186;stroke-linecap:butt;stroke-linejoin:round;stroke-miterlimit:4;stroke-opacity:1;stroke-dasharray:none;stroke-dashoffset:0;display:inline" />
      <path
         inkscape:connector-curvature="0"
         d="m 7.3617017,44 c -0.199297,0 -0.361702,-0.175459 -0.361702,-0.39078 l 0,-42.2040499 c 0,-0.2157088 0.162405,-0.3907775 0.361702,-0.3907775 C 14.844793,1.1224073 23.137385,0.85281757 30.611384,1.0412872 L 40.894021,9.9073127 41,43.60922 C 41,43.824541 40.837957,44 40.638297,44 L 7.3617017,44 z"
         id="path4191"
         style="opacity:0.2;fill:url(#radialGradient2453);fill-opacity:1" />
      <path
         inkscape:connector-curvature="0"
         d="m 40.500039,10.258811 c 0,10.949037 0,22.31441 0,33.263447 -11.000026,0 -22.000052,0 -33.0000781,0 0,-14.014841 0,-28.029681 0,-42.0445213 7.5619931,0 15.3043341,0 22.8663281,0"
         id="path2435"
         style="opacity:0.4;fill:none;stroke:url(#linearGradient2450);stroke-width:0.9999218;stroke-linecap:butt;stroke-linejoin:round;stroke-miterlimit:4;stroke-opacity:1;stroke-dasharray:none;stroke-dashoffset:0;display:inline" />
      <path
         inkscape:connector-curvature="0"
         d="M 27.40625,1 C 15.817408,13.595176 9.2020539,15.366459 7,15.5625 l 0,4.53125 C 8.6621097,19.799799 12.831793,18.779912 17.28125,15.25 22.986676,10.723686 29.8125,2.125 29.8125,2.125 27.941818,6.7728299 27.411144,22.806478 27.375,44 L 41,44 c 0,-1.177677 0,-0.940904 0,-2.125 C 38.783112,36.083676 37.337644,27.727504 36.25,20.25 35.607297,14.072494 35.83378,9.6262807 36.345901,5.9066265 34.424556,4.2752562 30.72491,1.719687 29.517212,1 L 27.40625,1 z M 7,22.9375 7,27.96875 c 4.811154,-1e-6 12.203198,7.302429 15.78125,16.03125 l 3,0 C 24.100012,36.064648 10.670523,22.9375 7,22.9375 z"
         id="path6711"
         style="fill:url(#linearGradient2447);fill-opacity:1;fill-rule:evenodd;stroke:none" />
      <path
         inkscape:connector-curvature="0"
         d="M 34.495321,5 C 28.651337,9.0398384 16.712418,16.013787 7,14.90277 l 0,8.98296 c 2e-7,-10e-7 26.153847,4.710113 34,-5.237522 l 0,-7.89512 C 39.645237,8.9191284 36.641936,6.6267909 34.495321,5 z M 41,27.893078 C 37.879395,31.345529 34.049097,38.166385 31.362737,44 L 28,43.971488 C 31.137915,35.769399 36.211951,27.712687 41,22 l 0,5.893078 z"
         id="path6713"
         style="opacity:0.15;fill:#000000;fill-opacity:1;fill-rule:evenodd;stroke:none" />
      <path
         inkscape:connector-curvature="0"
         d="m 28.617256,0.92125832 c 4.282522,0 2.15325,8.48317128 2.15325,8.48317128 0,0 10.357642,-1.8023467 10.357642,2.8187444 0,-2.6097233 -11.302304,-10.7285956 -12.510892,-11.30191568 z"
         id="path12038"
         style="opacity:0.4;fill:#000000;fill-opacity:1;fill-rule:evenodd;stroke:none;display:inline;filter:url(#filter3212)" />
      <path
         inkscape:connector-curvature="0"
         d="m 28.617256,0.92125832 c 3.186493,0 2.33576,7.66187848 2.33576,7.66187848 0,0 10.175132,-0.9810539 10.175132,3.6400372 0,-1.125939 0.08591,-1.932245 -0.133777,-2.2835928 C 39.416058,7.4154025 32.881194,1.7511811 30.41941,1.008793 30.235188,0.95323837 29.544367,0.92125832 28.617256,0.92125832 z"
         id="path4474"
         style="fill:url(#linearGradient2441);fill-opacity:1;fill-rule:evenodd;stroke:none;display:inline" />
      <path
         inkscape:connector-curvature="0"
         d="m 30.560847,0.5 c 1.406933,0.4746531 8.965454,5.8794034 10.939195,9.623605 0,11.459733 0,0.825538 0,12.285271 C 1.0542159,38.137806 6.2643971,0.5 30.560847,0.5 z"
         id="path4238"
         style="fill:none;stroke:url(#linearGradient3480);stroke-width:0.99992186;stroke-linecap:butt;stroke-linejoin:round;stroke-miterlimit:4;stroke-opacity:1;stroke-dasharray:none;stroke-dashoffset:0;display:inline" />
    </g>
    <path
       style="opacity:0.14999999999999999;fill:#000000;fill-opacity:1;fill-rule:evenodd;stroke:none;stroke-width:1px;stroke-linecap:butt;stroke-linejoin:miter;stroke-opacity:1"
       d="M 40.5358,38.000347 C 40.14891,37.995789 39.838569,38.036846 39.629449,38.080558 L 11.782573,43.882495 L 6.6569976,44.951977 L 6.50073,44.978715 L 0,48 L 14.595387,46.663148 L 14.720403,46.636411 L 19.877233,45.566929 L 47.724109,39.738254 C 48.560583,39.563411 47.431788,39.051998 45.192574,38.588563 C 43.513165,38.240986 41.696474,38.014021 40.5358,38.000347 z"
       id="path2422" />
    <path
       transform="matrix(1.1030185,0,0,1.1016579,-2.428387,-1.5110325)"
       id="rect2383"
       d="M 8.5762863,31.492497 C 9.3822237,30.872241 11.525181,31.877796 13.451604,33.796138 C 15.37342,35.70989 16.33921,37.804836 15.732652,38.618844 C 15.730345,38.621939 15.780014,38.660606 15.777661,38.663663 L 45.021323,9.252256 C 45.763796,8.5055243 44.755681,6.2907181 42.768101,4.3114771 C 40.780523,2.3322353 38.562424,1.3343541 37.819947,2.0810901 L 8.5762863,31.492497 z"
       style="fill:url(#linearGradient3265);fill-opacity:1;stroke:#000000;stroke-width:0.90716284999999997;stroke-linecap:butt;stroke-linejoin:round;stroke-miterlimit:4;stroke-dasharray:none;stroke-dashoffset:0;stroke-opacity:1" />
    <path
       transform="matrix(1.1030185,0,0,1.1016579,-2.428387,-1.5110325)"
       id="rect3175"
       d="M 34.250984,5.6705274 C 35.05692,5.0502709 37.199879,6.0558261 39.126301,7.974168 C 41.048116,9.8879195 42.013908,11.982864 41.407348,12.796873 C 41.405042,12.799968 41.454712,12.838636 41.452357,12.841693 L 45.021323,9.252256 L 45.094159,9.1790024 C 45.096512,9.1759455 45.046843,9.1372785 45.049149,9.1341814 C 45.655708,8.3201745 44.689917,6.2252293 42.768101,4.3114771 C 40.841679,2.3931359 38.698721,1.3875792 37.892784,2.0078357 L 37.819947,2.0810901 L 34.250984,5.6705274 z"
       style="opacity:0.80000000000000004;fill:#ff9de8;fill-opacity:1;stroke:#dd78c5;stroke-width:0.90716284999999997;stroke-linecap:butt;stroke-linejoin:round;stroke-miterlimit:4;stroke-dasharray:none;stroke-dashoffset:0;stroke-opacity:1" />
    <path
       transform="matrix(1.1030185,0,0,1.1016579,-2.428387,-1.5110325)"
       id="path3208"
       d="M 8.5762863,31.492497 C 9.3822237,30.872241 11.525181,31.877796 13.451604,33.796138 C 15.37342,35.70989 16.33921,37.804836 15.732652,38.618844 C 15.730345,38.621939 15.780014,38.660606 15.777661,38.663663 L 35.916819,18.408984 L 35.989655,18.335729 C 35.99201,18.332673 35.94234,18.294005 35.944647,18.29091 C 36.551205,17.4769 35.585415,15.381956 33.663599,13.468204 C 31.737177,11.549863 29.594218,10.544307 28.788281,11.164564 L 28.715445,11.237817 L 8.5762863,31.492497 z"
       style="opacity:0.59999999999999998;fill:#000000;fill-opacity:1;stroke:none;stroke-width:2;stroke-linecap:butt;stroke-linejoin:round;stroke-miterlimit:4;stroke-dasharray:2, 8;stroke-dashoffset:0;stroke-opacity:0.23529412000000000" />
    <path
       transform="matrix(1.1030185,0,0,1.1016579,-2.428387,-1.5110325)"
       id="path3233"
       d="M 30.250607,9.6938497 C 31.056544,9.0735925 33.199504,10.079148 35.125925,11.99749 C 37.047741,13.911242 38.013532,16.006187 37.406972,16.820196 C 37.404665,16.82329 37.454335,16.861958 37.451982,16.865016 L 37.816162,16.498745 C 37.818517,16.495689 37.768847,16.457021 37.771153,16.453926 C 38.377712,15.639917 37.411922,13.544971 35.490105,11.631222 C 33.563683,9.712879 31.420725,8.7073223 30.614787,9.3275796 L 30.250607,9.6938497 z"
       style="fill:url(#linearGradient3260);fill-opacity:1;stroke:none;stroke-width:2;stroke-linecap:butt;stroke-linejoin:round;stroke-miterlimit:4;stroke-dasharray:2, 8;stroke-dashoffset:0;stroke-opacity:0.23529412000000000" />
    <path
       transform="matrix(1.1030185,0,0,1.1016579,-2.428387,-1.5110325)"
       id="path3216"
       d="M 29.91686,10.029512 C 30.722797,9.409255 32.865756,10.41481 34.792177,12.333153 C 36.713994,14.246904 37.679785,16.341848 37.073225,17.155856 C 37.070919,17.158953 37.120588,17.19762 37.118235,17.200678 L 37.482415,16.834408 C 37.48477,16.831351 37.4351,16.792683 37.437407,16.789588 C 38.043965,15.975579 37.078175,13.880634 35.156358,11.966883 C 33.229937,10.048541 31.086978,9.0429841 30.281039,9.6632414 L 29.91686,10.029512 z"
       style="fill:url(#linearGradient3257);fill-opacity:1;stroke:none;stroke-width:2;stroke-linecap:butt;stroke-linejoin:round;stroke-miterlimit:4;stroke-dasharray:2, 8;stroke-dashoffset:0;stroke-opacity:0.23529412000000000" />
    <path
       transform="matrix(1.1030185,0,0,1.1016579,-2.428387,-1.5110325)"
       id="path3248"
       d="M 31.410379,8.5274259 C 32.216315,7.9071686 34.359275,8.9127239 36.285696,10.831067 C 38.207511,12.744818 39.173302,14.839762 38.566744,15.653772 C 38.564437,15.656867 38.614108,15.695534 38.611753,15.698591 L 38.975933,15.332322 C 38.978288,15.329265 38.928619,15.290597 38.930924,15.287502 C 39.537484,14.473494 38.571693,12.378549 36.649875,10.464798 C 34.723455,8.5464552 32.580498,7.5408992 31.774558,8.1611565 L 31.410379,8.5274259 z"
       style="fill:url(#linearGradient3254);fill-opacity:1;stroke:none;stroke-width:2;stroke-linecap:butt;stroke-linejoin:round;stroke-miterlimit:4;stroke-dasharray:2, 8;stroke-dashoffset:0;stroke-opacity:0.23529412000000000" />
    <path
       transform="matrix(1.1030185,0,0,1.1016579,-2.428387,-1.5110325)"
       id="path3250"
       d="M 31.076631,8.8630883 C 31.882568,8.2428305 34.025527,9.2483863 35.951948,11.166728 C 37.873765,13.080481 38.839556,15.175424 38.232997,15.989433 C 38.23069,15.992529 38.28036,16.031196 38.278005,16.034254 L 38.642185,15.667982 C 38.644539,15.664926 38.594871,15.62626 38.597176,15.623164 C 39.203736,14.809155 38.237946,12.714209 36.316129,10.80046 C 34.389709,8.8821176 32.246749,7.876561 31.440811,8.4968189 L 31.076631,8.8630883 z"
       style="fill:url(#linearGradient3251);fill-opacity:1;stroke:none;stroke-width:2;stroke-linecap:butt;stroke-linejoin:round;stroke-miterlimit:4;stroke-dasharray:2, 8;stroke-dashoffset:0;stroke-opacity:0.23529412000000000" />
    <path
       transform="matrix(1.1030185,0,0,1.1016579,-2.428387,-1.5110325)"
       id="path3256"
       d="M 32.575756,7.3553646 C 33.381691,6.7351081 35.52465,7.7406634 37.451071,9.6590052 C 39.372888,11.572758 40.33868,13.667702 39.73212,14.48171 C 39.729814,14.484806 39.779483,14.523473 39.777128,14.526531 L 40.141308,14.160262 C 40.143663,14.157204 40.093995,14.118536 40.0963,14.115442 C 40.702859,13.301433 39.737069,11.206488 37.815252,9.2927365 C 35.888832,7.3743946 33.745873,6.3688387 32.939935,6.9890958 L 32.575756,7.3553646 z"
       style="fill:url(#linearGradient3248);fill-opacity:1;stroke:none;stroke-width:2;stroke-linecap:butt;stroke-linejoin:round;stroke-miterlimit:4;stroke-dasharray:2, 8;stroke-dashoffset:0;stroke-opacity:0.23529412000000000" />
    <path
       transform="matrix(1.1030185,0,0,1.1016579,-2.428387,-1.5110325)"
       id="path3258"
       d="M 32.242007,7.6910264 C 33.047943,7.0707691 35.190903,8.0763251 37.117324,9.9946678 C 39.03914,11.908419 40.004932,14.003364 39.398372,14.817372 C 39.396066,14.820469 39.445736,14.859135 39.443382,14.862193 L 39.807562,14.495924 C 39.809916,14.492867 39.760246,14.454197 39.762553,14.451104 C 40.369112,13.637094 39.403321,11.542149 37.481505,9.6283983 C 35.555084,7.7100564 33.412125,6.7044997 32.606188,7.3247584 L 32.242007,7.6910264 z"
       style="fill:url(#linearGradient3245);fill-opacity:1;stroke:none;stroke-width:2;stroke-linecap:butt;stroke-linejoin:round;stroke-miterlimit:4;stroke-dasharray:2, 8;stroke-dashoffset:0;stroke-opacity:0.23529412000000000" />
    <path
       style="fill:url(#linearGradient3268);fill-opacity:1;fill-rule:evenodd;stroke:url(#linearGradient3270);stroke-width:1.00000011999999994;stroke-linecap:butt;stroke-linejoin:miter;stroke-miterlimit:4;stroke-dasharray:none;stroke-opacity:1"
       d="M 0.5,47.5 L 14.8125,41.15625 L 14.9375,41.03125 C 15.606545,40.134492 14.526048,37.827051 12.40625,35.71875 C 10.28137,33.605393 7.9202138,32.50419 7.03125,33.1875 L 0.5,47.5 z"
       id="path3270"
       sodipodi:nodetypes="cccscc" />
    <path
       transform="matrix(1.1030185,0,0,1.1016579,-2.428387,-1.5110325)"
       id="path3281"
       d="M 4.2587724,40.969711 L 2.6546917,44.47481 L 6.1941417,42.896961 C 5.9298048,42.574706 5.6871091,42.246272 5.3668065,41.927313 C 4.9980523,41.560105 4.6324975,41.265024 4.2587724,40.969711 z"
       style="fill:#000000;fill-opacity:1;fill-rule:evenodd;stroke:#000000;stroke-width:0.90716284999999997;stroke-linecap:butt;stroke-linejoin:miter;stroke-miterlimit:4;stroke-dasharray:none;stroke-opacity:1" />
  </g>
</svg>
