<?xml version="1.0" encoding="UTF-8" standalone="no"?>
<!-- Created with Inkscape (http://www.inkscape.org/) -->

<svg
   xmlns:dc="http://purl.org/dc/elements/1.1/"
   xmlns:cc="http://creativecommons.org/ns#"
   xmlns:rdf="http://www.w3.org/1999/02/22-rdf-syntax-ns#"
   xmlns:svg="http://www.w3.org/2000/svg"
   xmlns="http://www.w3.org/2000/svg"
   xmlns:xlink="http://www.w3.org/1999/xlink"
   xmlns:sodipodi="http://sodipodi.sourceforge.net/DTD/sodipodi-0.dtd"
   xmlns:inkscape="http://www.inkscape.org/namespaces/inkscape"
   id="svg11300"
   height="48"
   width="48"
   version="1.0"
   inkscape:version="0.48.1 r9760"
   sodipodi:docname="input-keyboard.svg">
  <metadata
     id="metadata3441">
    <rdf:RDF>
      <cc:Work
         rdf:about="">
        <dc:format>image/svg+xml</dc:format>
        <dc:type
           rdf:resource="http://purl.org/dc/dcmitype/StillImage" />
        <dc:title></dc:title>
      </cc:Work>
    </rdf:RDF>
  </metadata>
  <sodipodi:namedview
     pagecolor="#ffffff"
     bordercolor="#666666"
     borderopacity="1"
     objecttolerance="10"
     gridtolerance="10"
     guidetolerance="10"
     inkscape:pageopacity="0"
     inkscape:pageshadow="2"
     inkscape:window-width="640"
     inkscape:window-height="480"
     id="namedview3439"
     showgrid="false"
     inkscape:zoom="6.0208333"
     inkscape:cx="24"
     inkscape:cy="24"
     inkscape:window-x="0"
     inkscape:window-y="24"
     inkscape:window-maximized="0"
     inkscape:current-layer="svg11300" />
  <defs
     id="defs3">
    <linearGradient
       id="linearGradient3028">
      <stop
         id="stop3030"
         offset="0" />
      <stop
         id="stop3032"
         style="stop-opacity:0"
         offset="1" />
    </linearGradient>
    <linearGradient
       id="linearGradient6602">
      <stop
         id="stop6604"
         style="stop-color:#fff"
         offset="0" />
      <stop
         id="stop6606"
         style="stop-color:#fff;stop-opacity:0"
         offset="1" />
    </linearGradient>
    <radialGradient
       id="radialGradient6334"
       xlink:href="#linearGradient3028"
       gradientUnits="userSpaceOnUse"
       cy="33.214"
       cx="3"
       gradientTransform="matrix(0 -0.75 1.3333 0 -40.286 35)"
       r="3" />
    <radialGradient
       id="radialGradient6336"
       xlink:href="#linearGradient3028"
       gradientUnits="userSpaceOnUse"
       cy="33.214"
       cx="3"
       gradientTransform="matrix(0 -0.75 1.3333 0 -88.286 -30.5)"
       r="3" />
    <linearGradient
       id="linearGradient6338"
       y2="29.995"
       gradientUnits="userSpaceOnUse"
       x2="37.031"
       gradientTransform="matrix(1 0 0 .88889 0 3.8333)"
       y1="35.063"
       x1="37.031">
      <stop
         id="stop3044"
         style="stop-opacity:0"
         offset="0" />
      <stop
         id="stop3050"
         offset=".5" />
      <stop
         id="stop3046"
         style="stop-opacity:0"
         offset="1" />
    </linearGradient>
    <linearGradient
       id="linearGradient6340"
       y2="84.22"
       gradientUnits="userSpaceOnUse"
       x2="-104.76"
       gradientTransform="matrix(.37598 0 0 .44091 59.388 -.10930)"
       y1="74.24"
       x1="-104.53">
      <stop
         id="stop6546"
         style="stop-color:#ebebeb"
         offset="0" />
      <stop
         id="stop6548"
         style="stop-color:#b4b4b4"
         offset="1" />
    </linearGradient>
    <linearGradient
       id="linearGradient6342"
       y2="40"
       gradientUnits="userSpaceOnUse"
       x2="15.031"
       gradientTransform="matrix(1 0 0 1.0476 .000023097 -4.8809)"
       y1="18"
       x1="15.114">
      <stop
         id="stop7605"
         style="stop-color:#b4b4b4"
         offset="0" />
      <stop
         id="stop7607"
         style="stop-color:#8c8c8c"
         offset="1" />
    </linearGradient>
    <linearGradient
       id="linearGradient6344"
       y2="55.601"
       gradientUnits="userSpaceOnUse"
       x2="-79.092"
       gradientTransform="matrix(.33656 0 0 .38222 53.691 1.4949)"
       y1="97.855"
       x1="-72.862">
      <stop
         id="stop4576"
         style="stop-color:#282828"
         offset="0" />
      <stop
         id="stop4578"
         style="stop-color:#5a5c58"
         offset="1" />
    </linearGradient>
    <linearGradient
       id="linearGradient6346"
       y2="44.314"
       xlink:href="#linearGradient6602"
       gradientUnits="userSpaceOnUse"
       x2="-52.061"
       gradientTransform="matrix(.27651 0 0 .21773 55.395 8.5554)"
       y1="40.248"
       x1="-52.061" />
    <linearGradient
       id="linearGradient6348"
       y2="44.314"
       xlink:href="#linearGradient6602"
       gradientUnits="userSpaceOnUse"
       x2="-52.061"
       gradientTransform="matrix(.27651 0 0 .21773 58.395 8.5554)"
       y1="40.248"
       x1="-52.061" />
    <linearGradient
       id="linearGradient6350"
       y2="44.314"
       xlink:href="#linearGradient6602"
       gradientUnits="userSpaceOnUse"
       x2="-52.061"
       gradientTransform="matrix(.27651 0 0 .21773 52.395 8.5554)"
       y1="40.248"
       x1="-52.061" />
    <radialGradient
       r="7.228416"
       fy="73.615715"
       fx="6.702713"
       cy="73.615715"
       cx="6.702713"
       gradientTransform="matrix(1.6600963,0,0,0.36315008,0.8728521,2.6414479)"
       gradientUnits="userSpaceOnUse"
       id="radialGradient3877"
       xlink:href="#linearGradient10691"
       inkscape:collect="always" />
    <linearGradient
       id="linearGradient10691">
      <stop
         id="stop10693"
         style="stop-color:#000000;stop-opacity:1"
         offset="0" />
      <stop
         id="stop10695"
         style="stop-color:#000000;stop-opacity:0"
         offset="1" />
    </linearGradient>
    <linearGradient
       inkscape:collect="always"
       xlink:href="#linearGradient3309-1"
       id="linearGradient3614-2"
       gradientUnits="userSpaceOnUse"
       gradientTransform="matrix(0.77777782,0,0,0.77777782,11.76432,9.8748537)"
       x1="32.036148"
       y1="19"
       x2="32.036148"
       y2="47.012184" />
    <linearGradient
       x1="63.9995"
       y1="3.1001"
       x2="63.9995"
       y2="122.8994"
       id="linearGradient3309-1"
       gradientUnits="userSpaceOnUse">
      <stop
         id="stop3311-5"
         style="stop-color:#f6f6f6;stop-opacity:1"
         offset="0" />
      <stop
         id="stop3313-0"
         style="stop-color:#d2d2d2;stop-opacity:1"
         offset="1" />
    </linearGradient>
    <linearGradient
       inkscape:collect="always"
       xlink:href="#linearGradient3397-0"
       id="linearGradient3616-9"
       gradientUnits="userSpaceOnUse"
       gradientTransform="matrix(0.77777782,0,0,0.77777782,11.76432,9.8748537)"
       x1="25.922546"
       y1="19"
       x2="25.922546"
       y2="47.044857" />
    <linearGradient
       id="linearGradient3397-0">
      <stop
         id="stop3399-4"
         style="stop-color:#aaaaaa;stop-opacity:1"
         offset="0" />
      <stop
         id="stop3401-0"
         style="stop-color:#8c8c8c;stop-opacity:1"
         offset="1" />
    </linearGradient>
    <linearGradient
       inkscape:collect="always"
       xlink:href="#linearGradient5128"
       id="linearGradient3610"
       gradientUnits="userSpaceOnUse"
       gradientTransform="matrix(0.15623116,0,0,0.15623125,25.876632,25.698954)"
       x1="86.132919"
       y1="105.105"
       x2="84.63858"
       y2="20.895" />
    <linearGradient
       id="linearGradient5128">
      <stop
         id="stop5130"
         style="stop-color:#ffffff;stop-opacity:1"
         offset="0" />
      <stop
         id="stop5132"
         style="stop-color:#959595;stop-opacity:1"
         offset="1" />
    </linearGradient>
    <linearGradient
       gradientTransform="translate(23.875432,23.541523)"
       inkscape:collect="always"
       xlink:href="#linearGradient3805"
       id="linearGradient3814"
       gradientUnits="userSpaceOnUse"
       x1="12.47939"
       y1="2"
       x2="12.47939"
       y2="22.006775" />
    <linearGradient
       inkscape:collect="always"
       id="linearGradient3805">
      <stop
         style="stop-color:#ffffff;stop-opacity:1;"
         offset="0"
         id="stop3807" />
      <stop
         style="stop-color:#ffffff;stop-opacity:0;"
         offset="1"
         id="stop3809" />
    </linearGradient>
    <linearGradient
       inkscape:collect="always"
       xlink:href="#linearGradient3805"
       id="linearGradient3830"
       x1="12"
       y1="16"
       x2="12"
       y2="8"
       gradientUnits="userSpaceOnUse" />
    <radialGradient
       r="7.228416"
       fy="73.615715"
       fx="6.702713"
       cy="73.615715"
       cx="6.702713"
       gradientTransform="matrix(1.6600963,0,0,0.36315008,24.748284,18.182971)"
       gradientUnits="userSpaceOnUse"
       id="radialGradient3486"
       xlink:href="#linearGradient10691"
       inkscape:collect="always" />
  </defs>
  <g
     id="g6319">
    <g
       id="g3052"
       style="opacity:.3;enable-background:new"
       transform="matrix(1 0 0 1.1111 0 .11111)">
      <rect
         id="rect3026"
         style="fill:url(#radialGradient6334)"
         height="4.5"
         width="4"
         y="30.5"
         x="0" />
      <rect
         id="rect3036"
         style="fill:url(#radialGradient6336)"
         transform="scale(-1)"
         height="4.5"
         width="4"
         y="-35"
         x="-48" />
      <rect
         id="rect3040"
         style="fill:url(#linearGradient6338)"
         height="4.5"
         width="40"
         y="30.5"
         x="4" />
    </g>
    <rect
       id="rect6674"
       style="stroke:url(#linearGradient6342);enable-background:new;fill:url(#linearGradient6340)"
       rx="1"
       ry="1"
       height="22"
       width="47"
       y="14.5"
       x=".50001" />
    <path
       id="rect6676"
       style="enable-background:new;fill:url(#linearGradient6344)"
       d="m3 17v2h2v-2h-2zm4 0v2h6v-2h-6zm8 0v2h6v-2h-6zm8 0v2h6v-2h-6zm7 0v2h6v-2h-6zm0 4v4h6v-4h-6zm-27 0v10h26v-10h-26zm34 0v10h8v-10h-8zm-2.9375 6-2.0625 0.03125v1.9688h-1.9688l-0.03125 2h6v-2h-1.9375v-2z" />
    <path
       id="path6794"
       style="stroke-width:0.338;stroke:#297713;enable-background:new;fill:#3ce010"
       d="m41.831 18c0 0.45895-0.37205 0.831-0.831 0.831s-0.831-0.37205-0.831-0.831 0.37205-0.831 0.831-0.831 0.831 0.37205 0.831 0.831z" />
    <path
       id="path6796"
       style="enable-background:new;fill:url(#linearGradient6346)"
       d="m41.562 17.761c0 0.24445-0.25167 0.44262-0.56212 0.44262s-0.56212-0.19817-0.56212-0.44262 0.25167-0.44262 0.56212-0.44262 0.56212 0.19817 0.56212 0.44262z" />
    <path
       id="path6806"
       style="stroke-width:0.338;stroke:#154708;enable-background:new;fill:#146400"
       d="m44.831 18c0 0.45895-0.37205 0.831-0.831 0.831s-0.831-0.37205-0.831-0.831 0.37205-0.831 0.831-0.831 0.831 0.37205 0.831 0.831z" />
    <path
       id="path6808"
       style="enable-background:new;fill:url(#linearGradient6348)"
       d="m44.562 17.761c0 0.24445-0.25167 0.44262-0.56212 0.44262s-0.56212-0.19817-0.56212-0.44262 0.25167-0.44262 0.56212-0.44262 0.56212 0.19817 0.56212 0.44262z" />
    <path
       id="path6807"
       style="stroke-width:0.338;stroke:#154708;enable-background:new;fill:#146400"
       d="m38.831 18c0 0.45895-0.37205 0.831-0.831 0.831s-0.831-0.37205-0.831-0.831 0.37205-0.831 0.831-0.831 0.831 0.37205 0.831 0.831z" />
    <path
       id="path6809"
       style="enable-background:new;fill:url(#linearGradient6350)"
       d="m38.562 17.761c0 0.24445-0.25167 0.44262-0.56212 0.44262s-0.56212-0.19817-0.56212-0.44262 0.25167-0.44262 0.56212-0.44262 0.56212 0.19817 0.56212 0.44262z" />
    <path
       id="rect7609"
       style="opacity:.3;fill:#fff"
       d="m3 17c0.063939 0.46515-0.12442 1.1826 0.087281 1.5 0.4157-0.113 1.2878 0.23 1.4127-0.175-0.1362-0.392 0.2971-1.355-0.2618-1.325h-1.2382zm4 0c0.063939 0.46515-0.12442 1.1826 0.087281 1.5 0.4157-0.113 1.2878 0.23 1.4127-0.175-0.1362-0.392 0.2971-1.355-0.2618-1.325h-1.2382zm2 0c0.063939 0.46515-0.12442 1.1826 0.087281 1.5 0.41572-0.11337 1.2878 0.22965 1.4127-0.17456-0.13622-0.39288 0.29707-1.3553-0.26184-1.3254h-1.2382zm2 0c0.06394 0.46515-0.12442 1.1826 0.08728 1.5 0.41572-0.11337 1.2878 0.22965 1.4127-0.17456-0.13622-0.39288 0.29707-1.3553-0.26184-1.3254h-1.2382zm4 0c0.06394 0.46515-0.12442 1.1826 0.08728 1.5 0.41572-0.11337 1.2878 0.22965 1.4127-0.17456-0.13622-0.39288 0.29707-1.3553-0.26184-1.3254h-1.2382zm2 0c0.06394 0.46515-0.12442 1.1826 0.08728 1.5 0.41572-0.11337 1.2878 0.22965 1.4127-0.17456-0.13622-0.39288 0.29707-1.3553-0.26184-1.3254h-1.2382zm2 0c0.06394 0.46515-0.12442 1.1826 0.08728 1.5 0.41572-0.11337 1.2878 0.22965 1.4127-0.17456-0.13622-0.39288 0.29707-1.3553-0.26184-1.3254h-1.2382zm4 0c0.06394 0.46515-0.12442 1.1826 0.08728 1.5 0.41572-0.11337 1.2878 0.22965 1.4127-0.17456-0.13622-0.39288 0.29707-1.3553-0.26184-1.3254h-1.2382zm2 0c0.06394 0.46515-0.12442 1.1826 0.08728 1.5 0.41572-0.11337 1.2878 0.22965 1.4127-0.17456-0.13622-0.39288 0.29707-1.3553-0.26184-1.3254h-1.2382zm2 0c0.06394 0.46515-0.12442 1.1826 0.08728 1.5 0.41572-0.11337 1.2878 0.22965 1.4127-0.17456-0.13622-0.39288 0.29707-1.3553-0.26184-1.3254h-1.2382zm3 0c0.06394 0.46515-0.12442 1.1826 0.08728 1.5 0.41572-0.11337 1.2878 0.22965 1.4127-0.17456-0.13622-0.39288 0.29707-1.3553-0.26184-1.3254h-1.2382zm2 0c0.06394 0.46515-0.12442 1.1826 0.08728 1.5 0.41572-0.11337 1.2878 0.22965 1.4127-0.17456-0.13622-0.39288 0.29707-1.3553-0.26184-1.3254h-1.2382zm2 0c0.06394 0.46515-0.12442 1.1826 0.08728 1.5 0.41572-0.11337 1.2878 0.22965 1.4127-0.17456-0.13622-0.39288 0.29707-1.3553-0.26184-1.3254h-1.2382zm-31 4c0.063939 0.46515-0.12442 1.1826 0.087281 1.5 0.4157-0.113 1.2878 0.23 1.4127-0.175-0.1362-0.392 0.2971-1.355-0.2618-1.325h-1.2382zm2 0c0.063939 0.46515-0.12442 1.1826 0.087281 1.5 0.4157-0.113 1.2878 0.23 1.4127-0.175-0.1362-0.392 0.2971-1.355-0.2618-1.325h-1.2382zm2 0c0.063939 0.46515-0.12442 1.1826 0.087281 1.5 0.4157-0.113 1.2878 0.23 1.4127-0.175-0.1362-0.392 0.2971-1.355-0.2618-1.325h-1.2382zm2 0c0.063939 0.46515-0.12442 1.1826 0.087281 1.5 0.41572-0.11337 1.2878 0.22965 1.4127-0.17456-0.13622-0.39288 0.29707-1.3553-0.26184-1.3254h-1.2382zm2 0c0.06394 0.46515-0.12442 1.1826 0.08728 1.5 0.41572-0.11337 1.2878 0.22965 1.4127-0.17456-0.13622-0.39288 0.29707-1.3553-0.26184-1.3254h-1.2382zm2 0c0.06394 0.46515-0.12442 1.1826 0.08728 1.5 0.41572-0.11337 1.2878 0.22965 1.4127-0.17456-0.13622-0.39288 0.29707-1.3553-0.26184-1.3254h-1.2382zm2 0c0.06394 0.46515-0.12442 1.1826 0.08728 1.5 0.41572-0.11337 1.2878 0.22965 1.4127-0.17456-0.13622-0.39288 0.29707-1.3553-0.26184-1.3254h-1.2382zm2 0c0.06394 0.46515-0.12442 1.1826 0.08728 1.5 0.41572-0.11337 1.2878 0.22965 1.4127-0.17456-0.13622-0.39288 0.29707-1.3553-0.26184-1.3254h-1.2382zm2 0c0.06394 0.46515-0.12442 1.1826 0.08728 1.5 0.41572-0.11337 1.2878 0.22965 1.4127-0.17456-0.13622-0.39288 0.29707-1.3553-0.26184-1.3254h-1.2382zm2 0c0.06394 0.46515-0.12442 1.1826 0.08728 1.5 0.41572-0.11337 1.2878 0.22965 1.4127-0.17456-0.13622-0.39288 0.29707-1.3553-0.26184-1.3254h-1.2382zm2 0c0.06394 0.46515-0.12442 1.1826 0.08728 1.5 0.41572-0.11337 1.2878 0.22965 1.4127-0.17456-0.13622-0.39288 0.29707-1.3553-0.26184-1.3254h-1.2382zm2 0c0.06394 0.46515-0.12442 1.1826 0.08728 1.5h3.4127c-0.06394-0.46515 0.12442-1.1826-0.08728-1.5h-3.4127zm5 0c0.06394 0.46515-0.12442 1.1826 0.08728 1.5 0.41572-0.11337 1.2878 0.22965 1.4127-0.17456-0.13622-0.39288 0.29707-1.3553-0.26184-1.3254h-1.2382zm2 0c0.06394 0.46515-0.12442 1.1826 0.08728 1.5 0.41572-0.11337 1.2878 0.22965 1.4127-0.17456-0.13622-0.39288 0.29707-1.3553-0.26184-1.3254h-1.2382zm2 0c0.06394 0.46515-0.12442 1.1826 0.08728 1.5 0.41572-0.11337 1.2878 0.22965 1.4127-0.17456-0.13622-0.39288 0.29707-1.3553-0.26184-1.3254h-1.2382zm3 0c0.06394 0.46515-0.12442 1.1826 0.08728 1.5 0.41572-0.11337 1.2878 0.22965 1.4127-0.17456-0.13622-0.39288 0.29707-1.3553-0.26184-1.3254h-1.2382zm2 0c0.06394 0.46515-0.12442 1.1826 0.08728 1.5 0.41572-0.11337 1.2878 0.22965 1.4127-0.17456-0.13622-0.39288 0.29707-1.3553-0.26184-1.3254h-1.2382zm2 0c0.06394 0.46515-0.12442 1.1826 0.08728 1.5 0.41572-0.11337 1.2878 0.22965 1.4127-0.17456-0.13622-0.39288 0.29707-1.3553-0.26184-1.3254h-1.2382zm2 0c0.06394 0.46515-0.12442 1.1826 0.08728 1.5 0.41572-0.11337 1.2878 0.22965 1.4127-0.17456-0.13622-0.39288 0.29707-1.3553-0.26184-1.3254h-1.2382zm-40 2c0.063939 0.46515-0.12442 1.1826 0.087281 1.5 0.4157-0.113 1.2878 0.23 1.4127-0.175-0.1362-0.392 0.2971-1.355-0.2618-1.325h-1.2382zm2 0c0.063939 0.46515-0.12442 1.1826 0.087281 1.5 0.4157-0.113 1.2878 0.23 1.4127-0.175-0.1362-0.392 0.2971-1.355-0.2618-1.325h-1.2382zm2 0c0.063939 0.46515-0.12442 1.1826 0.087281 1.5 0.4157-0.113 1.2878 0.23 1.4127-0.175-0.1362-0.392 0.2971-1.355-0.2618-1.325h-1.2382zm2 0c0.063939 0.46515-0.12442 1.1826 0.087281 1.5 0.41572-0.11337 1.2878 0.22965 1.4127-0.17456-0.13622-0.39288 0.29707-1.3553-0.26184-1.3254h-1.2382zm2 0c0.06394 0.46515-0.12442 1.1826 0.08728 1.5 0.41572-0.11337 1.2878 0.22965 1.4127-0.17456-0.13622-0.39288 0.29707-1.3553-0.26184-1.3254h-1.2382zm2 0c0.06394 0.46515-0.12442 1.1826 0.08728 1.5 0.41572-0.11337 1.2878 0.22965 1.4127-0.17456-0.13622-0.39288 0.29707-1.3553-0.26184-1.3254h-1.2382zm2 0c0.06394 0.46515-0.12442 1.1826 0.08728 1.5 0.41572-0.11337 1.2878 0.22965 1.4127-0.17456-0.13622-0.39288 0.29707-1.3553-0.26184-1.3254h-1.2382zm2 0c0.06394 0.46515-0.12442 1.1826 0.08728 1.5 0.41572-0.11337 1.2878 0.22965 1.4127-0.17456-0.13622-0.39288 0.29707-1.3553-0.26184-1.3254h-1.2382zm2 0c0.06394 0.46515-0.12442 1.1826 0.08728 1.5 0.41572-0.11337 1.2878 0.22965 1.4127-0.17456-0.13622-0.39288 0.29707-1.3553-0.26184-1.3254h-1.2382zm2 0c0.06394 0.46515-0.12442 1.1826 0.08728 1.5 0.41572-0.11337 1.2878 0.22965 1.4127-0.17456-0.13622-0.39288 0.29707-1.3553-0.26184-1.3254h-1.2382zm2 0c0.06394 0.46515-0.12442 1.1826 0.08728 1.5 0.41572-0.11337 1.2878 0.22965 1.4127-0.17456-0.13622-0.39288 0.29707-1.3553-0.26184-1.3254h-1.2382zm2 0c0.06394 0.46515-0.12442 1.1826 0.08728 1.5 0.41572-0.11337 1.2878 0.22965 1.4127-0.17456-0.13622-0.39288 0.29707-1.3553-0.26184-1.3254h-1.2382zm2 0c0.06394 0.46515-0.12442 1.1826 0.08728 1.5 0.41572-0.11337 1.2878 0.22965 1.4127-0.17456-0.13622-0.39288 0.29707-1.3553-0.26184-1.3254h-1.2382zm3 0c0.06394 0.46515-0.12442 1.1826 0.08728 1.5 0.41572-0.11337 1.2878 0.22965 1.4127-0.17456-0.13622-0.39288 0.29707-1.3553-0.26184-1.3254h-1.2382zm2 0c0.06394 0.46515-0.12442 1.1826 0.08728 1.5 0.41572-0.11337 1.2878 0.22965 1.4127-0.17456-0.13622-0.39288 0.29707-1.3553-0.26184-1.3254h-1.2382zm2 0c0.06394 0.46515-0.12442 1.1826 0.08728 1.5 0.41572-0.11337 1.2878 0.22965 1.4127-0.17456-0.13622-0.39288 0.29707-1.3553-0.26184-1.3254h-1.2382zm3 0c0.06394 0.46515-0.12442 1.1826 0.08728 1.5 0.41572-0.11337 1.2878 0.22965 1.4127-0.17456-0.13622-0.39288 0.29707-1.3553-0.26184-1.3254h-1.2382zm2 0c0.06394 0.46515-0.12442 1.1826 0.08728 1.5 0.41572-0.11337 1.2878 0.22965 1.4127-0.17456-0.13622-0.39288 0.29707-1.3553-0.26184-1.3254h-1.2382zm2 0c0.06394 0.46515-0.12442 1.1826 0.08728 1.5 0.41572-0.11337 1.2878 0.22965 1.4127-0.17456-0.13622-0.39288 0.29707-1.3553-0.26184-1.3254h-1.2382zm2 0v3.5c0.46515-0.06394 1.1826 0.12442 1.5-0.08728v-3.4127h-1.5zm-40 2c0.063939 0.46515-0.12442 1.1826 0.087281 1.5h3.4127c-0.063939-0.46515 0.12442-1.1826-0.087281-1.5h-3.4127zm4 0c0.063939 0.46515-0.12442 1.1826 0.087281 1.5 0.4157-0.113 1.2878 0.23 1.4127-0.175-0.1362-0.392 0.2971-1.355-0.2618-1.325h-1.2382zm2 0c0.063939 0.46515-0.12442 1.1826 0.087281 1.5 0.41572-0.11337 1.2878 0.22965 1.4127-0.17456-0.13622-0.39288 0.29707-1.3553-0.26184-1.3254h-1.2382zm2 0c0.06394 0.46515-0.12442 1.1826 0.08728 1.5 0.41572-0.11337 1.2878 0.22965 1.4127-0.17456-0.13622-0.39288 0.29707-1.3553-0.26184-1.3254h-1.2382zm2 0c0.06394 0.46515-0.12442 1.1826 0.08728 1.5 0.41572-0.11337 1.2878 0.22965 1.4127-0.17456-0.13622-0.39288 0.29707-1.3553-0.26184-1.3254h-1.2382zm2 0c0.06394 0.46515-0.12442 1.1826 0.08728 1.5 0.41572-0.11337 1.2878 0.22965 1.4127-0.17456-0.13622-0.39288 0.29707-1.3553-0.26184-1.3254h-1.2382zm2 0c0.06394 0.46515-0.12442 1.1826 0.08728 1.5 0.41572-0.11337 1.2878 0.22965 1.4127-0.17456-0.13622-0.39288 0.29707-1.3553-0.26184-1.3254h-1.2382zm2 0c0.06394 0.46515-0.12442 1.1826 0.08728 1.5 0.41572-0.11337 1.2878 0.22965 1.4127-0.17456-0.13622-0.39288 0.29707-1.3553-0.26184-1.3254h-1.2382zm2 0c0.06394 0.46515-0.12442 1.1826 0.08728 1.5 0.41572-0.11337 1.2878 0.22965 1.4127-0.17456-0.13622-0.39288 0.29707-1.3553-0.26184-1.3254h-1.2382zm2 0c0.06394 0.46515-0.12442 1.1826 0.08728 1.5 0.41572-0.11337 1.2878 0.22965 1.4127-0.17456-0.13622-0.39288 0.29707-1.3553-0.26184-1.3254h-1.2382zm2 0c0.06394 0.46515-0.12442 1.1826 0.08728 1.5h3.4127c-0.06394-0.46515 0.12442-1.1826-0.08728-1.5h-3.4127zm12 0c0.06394 0.46515-0.12442 1.1826 0.08728 1.5 0.41572-0.11337 1.2878 0.22965 1.4127-0.17456-0.13622-0.39288 0.29707-1.3553-0.26184-1.3254h-1.2382zm2 0c0.06394 0.46515-0.12442 1.1826 0.08728 1.5 0.41572-0.11337 1.2878 0.22965 1.4127-0.17456-0.13622-0.39288 0.29707-1.3553-0.26184-1.3254h-1.2382zm2 0c0.06394 0.46515-0.12442 1.1826 0.08728 1.5 0.41572-0.11337 1.2878 0.22965 1.4127-0.17456-0.13622-0.39288 0.29707-1.3553-0.26184-1.3254h-1.2382zm-38 2c0.063939 0.46515-0.12442 1.1826 0.087281 1.5 0.4157-0.113 1.2878 0.23 1.4127-0.175-0.1362-0.392 0.2971-1.355-0.2618-1.325h-1.2382zm2 0c0.063939 0.46515-0.12442 1.1826 0.087281 1.5 0.4157-0.113 1.2878 0.23 1.4127-0.175-0.1362-0.392 0.2971-1.355-0.2618-1.325h-1.2382zm2 0c0.063939 0.46515-0.12442 1.1826 0.087281 1.5 0.4157-0.113 1.2878 0.23 1.4127-0.175-0.1362-0.392 0.2971-1.355-0.2618-1.325h-1.2382zm2 0c0.063939 0.46515-0.12442 1.1826 0.087281 1.5 0.41572-0.11337 1.2878 0.22965 1.4127-0.17456-0.13622-0.39288 0.29707-1.3553-0.26184-1.3254h-1.2382zm2 0c0.06394 0.46515-0.12442 1.1826 0.08728 1.5 0.41572-0.11337 1.2878 0.22965 1.4127-0.17456-0.13622-0.39288 0.29707-1.3553-0.26184-1.3254h-1.2382zm2 0c0.06394 0.46515-0.12442 1.1826 0.08728 1.5 0.41572-0.11337 1.2878 0.22965 1.4127-0.17456-0.13622-0.39288 0.29707-1.3553-0.26184-1.3254h-1.2382zm2 0c0.06394 0.46515-0.12442 1.1826 0.08728 1.5 0.41572-0.11337 1.2878 0.22965 1.4127-0.17456-0.13622-0.39288 0.29707-1.3553-0.26184-1.3254h-1.2382zm2 0c0.06394 0.46515-0.12442 1.1826 0.08728 1.5 0.41572-0.11337 1.2878 0.22965 1.4127-0.17456-0.13622-0.39288 0.29707-1.3553-0.26184-1.3254h-1.2382zm2 0c0.06394 0.46515-0.12442 1.1826 0.08728 1.5 0.41572-0.11337 1.2878 0.22965 1.4127-0.17456-0.13622-0.39288 0.29707-1.3553-0.26184-1.3254h-1.2382zm2 0c0.06394 0.46515-0.12442 1.1826 0.08728 1.5 0.41572-0.11337 1.2878 0.22965 1.4127-0.17456-0.13622-0.39288 0.29707-1.3553-0.26184-1.3254h-1.2382zm2 0c0.06394 0.46515-0.12442 1.1826 0.08728 1.5 0.41572-0.11337 1.2878 0.22965 1.4127-0.17456-0.13622-0.39288 0.29707-1.3553-0.26184-1.3254h-1.2382zm2 0c0.06394 0.46515-0.12442 1.1826 0.08728 1.5 0.41572-0.11337 1.2878 0.22965 1.4127-0.17456-0.13622-0.39288 0.29707-1.3553-0.26184-1.3254h-1.2382zm2 0c0.06394 0.46515-0.12442 1.1826 0.08728 1.5 0.41572-0.11337 1.2878 0.22965 1.4127-0.17456-0.13622-0.39288 0.29707-1.3553-0.26184-1.3254h-1.2382zm5 0c0.06394 0.46515-0.12442 1.1826 0.08728 1.5 0.41572-0.11337 1.2878 0.22965 1.4127-0.17456-0.13622-0.39288 0.29707-1.3553-0.26184-1.3254h-1.2382zm5 0c0.06394 0.46515-0.12442 1.1826 0.08728 1.5 0.41572-0.11337 1.2878 0.22965 1.4127-0.17456-0.13622-0.39288 0.29707-1.3553-0.26184-1.3254h-1.2382zm2 0c0.06394 0.46515-0.12442 1.1826 0.08728 1.5 0.41572-0.11337 1.2878 0.22965 1.4127-0.17456-0.13622-0.39288 0.29707-1.3553-0.26184-1.3254h-1.2382zm2 0c0.06394 0.46515-0.12442 1.1826 0.08728 1.5 0.41572-0.11337 1.2878 0.22965 1.4127-0.17456-0.13622-0.39288 0.29707-1.3553-0.26184-1.3254h-1.2382zm2 0v3.5c0.46515-0.06394 1.1826 0.12442 1.5-0.08728v-3.4127h-1.5zm-40 2c0.063939 0.46515-0.12442 1.1826 0.087281 1.5h3.4127c-0.063939-0.46515 0.12442-1.1826-0.087281-1.5h-3.4127zm4 0c0.063939 0.46515-0.12442 1.1826 0.087281 1.5 0.4157-0.113 1.2878 0.23 1.4127-0.175-0.1362-0.392 0.2971-1.355-0.2618-1.325h-1.2382zm2 0c0.063939 0.46515-0.12442 1.1826 0.087281 1.5h11.413c-0.06394-0.46515 0.12442-1.1826-0.08728-1.5h-11.413zm12 0c0.06394 0.46515-0.12442 1.1826 0.08728 1.5 0.41572-0.11337 1.2878 0.22965 1.4127-0.17456-0.13622-0.39288 0.29707-1.3553-0.26184-1.3254h-1.2382zm2 0c0.06394 0.46515-0.12442 1.1826 0.08728 1.5 0.41572-0.11337 1.2878 0.22965 1.4127-0.17456-0.13622-0.39288 0.29707-1.3553-0.26184-1.3254h-1.2382zm2 0c0.06394 0.46515-0.12442 1.1826 0.08728 1.5h3.4127c-0.06394-0.46515 0.12442-1.1826-0.08728-1.5h-3.4127zm5 0c0.06394 0.46515-0.12442 1.1826 0.08728 1.5 0.41572-0.11337 1.2878 0.22965 1.4127-0.17456-0.13622-0.39288 0.29707-1.3553-0.26184-1.3254h-1.2382zm2 0c0.06394 0.46515-0.12442 1.1826 0.08728 1.5 0.41572-0.11337 1.2878 0.22965 1.4127-0.17456-0.13622-0.39288 0.29707-1.3553-0.26184-1.3254h-1.2382zm2 0c0.06394 0.46515-0.12442 1.1826 0.08728 1.5 0.41572-0.11337 1.2878 0.22965 1.4127-0.17456-0.13622-0.39288 0.29707-1.3553-0.26184-1.3254h-1.2382zm3 0c0.06394 0.46515-0.12442 1.1826 0.08728 1.5h3.4127c-0.06394-0.46515 0.12442-1.1826-0.08728-1.5h-3.4127zm4 0c0.06394 0.46515-0.12442 1.1826 0.08728 1.5 0.41572-0.11337 1.2878 0.22965 1.4127-0.17456-0.13622-0.39288 0.29707-1.3553-0.26184-1.3254h-1.2382z" />
  </g>
  <path
     inkscape:connector-curvature="0"
     style="opacity:0.2;fill:url(#radialGradient3486);fill-opacity:1;fill-rule:nonzero;stroke:none;stroke-width:0.80000001;marker:none;visibility:visible;display:inline;overflow:visible"
     id="path10689"
     d="m 47.875297,44.916523 c 0,1.449748 -5.372523,2.625 -11.999865,2.625 -6.627343,0 -11.999865,-1.175252 -11.999865,-2.625 0,-1.449747 5.372522,-2.625 11.999865,-2.625 6.627342,0 11.999865,1.175253 11.999865,2.625 z" />
  <path
     inkscape:connector-curvature="0"
     style="color:#000000;fill:url(#linearGradient3614-2);fill-opacity:1;fill-rule:nonzero;stroke:url(#linearGradient3616-9);stroke-width:1;stroke-linecap:butt;stroke-linejoin:round;stroke-miterlimit:4;stroke-opacity:1;stroke-dasharray:none;stroke-dashoffset:0;marker:none;visibility:visible;display:block;overflow:visible;enable-background:accumulate"
     d="m 34.375432,25.041523 c -0.554,0 -1,0.446 -1,1 l 0,1.375 c -0.507329,0.155783 -1.006769,0.350474 -1.46875,0.59375 l -0.96875,-0.96875 c -0.391737,-0.391737 -1.045763,-0.391737 -1.4375,0 l -2.125,2.125 c -0.391737,0.391737 -0.391737,1.045763 0,1.4375 l 0.96875,0.96875 c -0.243276,0.461981 -0.437967,0.96142 -0.59375,1.46875 l -1.375,0 c -0.554,0 -1,0.446 -1,1 l 0,3 c 0,0.554 0.446,1 1,1 l 1.375,0 c 0.155783,0.507329 0.350474,1.006769 0.59375,1.46875 l -0.96875,0.96875 c -0.391737,0.391737 -0.391737,1.045763 0,1.4375 l 2.125,2.125 c 0.391737,0.391737 1.045763,0.391737 1.4375,0 l 0.96875,-0.96875 c 0.461981,0.243276 0.961421,0.437967 1.46875,0.59375 l 0,1.375 c 0,0.554 0.446,1 1,1 l 3,0 c 0.554,0 1,-0.446 1,-1 l 0,-1.375 c 0.507329,-0.155783 1.006769,-0.350474 1.46875,-0.59375 l 0.96875,0.96875 c 0.391737,0.391737 1.045763,0.391737 1.4375,0 l 2.125,-2.125 c 0.391737,-0.391737 0.391737,-1.045763 0,-1.4375 l -0.96875,-0.96875 c 0.243276,-0.461981 0.437967,-0.961421 0.59375,-1.46875 l 1.375,0 c 0.554,0 1,-0.446 1,-1 l 0,-3 c 0,-0.554 -0.446,-1 -1,-1 l -1.375,0 c -0.155783,-0.50733 -0.350474,-1.006769 -0.59375,-1.46875 l 0.96875,-0.96875 c 0.391737,-0.391737 0.391737,-1.045763 0,-1.4375 l -2.125,-2.125 c -0.391737,-0.391737 -1.045763,-0.391737 -1.4375,0 l -0.96875,0.96875 c -0.461981,-0.243276 -0.961421,-0.437967 -1.46875,-0.59375 l 0,-1.375 c 0,-0.554 -0.446,-1 -1,-1 l -3,0 z m 1.5,8 c 1.380712,0 2.5,1.119288 2.5,2.5 0,1.380712 -1.119288,2.5 -2.5,2.5 -1.380712,0 -2.5,-1.119288 -2.5,-2.5 0,-1.380712 1.119288,-2.5 2.5,-2.5 z"
     id="rect3623" />
  <path
     inkscape:connector-curvature="0"
     style="opacity:0.05;fill:#000000;fill-opacity:1;stroke:none"
     d="m 35.875432,29.541523 c -3.310303,0 -6,2.689698 -6,6 0,3.310302 2.689697,6 6,6 3.310301,0 6,-2.689698 6,-6 0,-3.310302 -2.689699,-6 -6,-6 z m 0,3 c 1.656854,0 3,1.343146 3,3 0,1.656854 -1.343146,3 -3,3 -1.656854,0 -3,-1.343146 -3,-3 0,-1.656854 1.343146,-3 3,-3 z"
     id="path3315" />
  <path
     inkscape:connector-curvature="0"
     style="fill:none;stroke:url(#linearGradient3610);stroke-width:1;stroke-miterlimit:4;stroke-dasharray:none"
     id="path28"
     d="m 35.875432,29.041522 c -3.584102,0 -6.5,2.9159 -6.5,6.499999 0,3.584102 2.915898,6.500002 6.5,6.500002 3.584101,0 6.5,-2.9159 6.5,-6.500002 0,-3.584099 -2.915899,-6.499999 -6.5,-6.499999 z" />
  <path
     inkscape:connector-curvature="0"
     style="opacity:0.8;color:#000000;fill:none;stroke:url(#linearGradient3814);stroke-width:1;stroke-linecap:butt;stroke-linejoin:round;stroke-miterlimit:4;stroke-opacity:1;stroke-dasharray:none;stroke-dashoffset:0;marker:none;visibility:visible;display:block;overflow:visible;enable-background:accumulate"
     d="m 34.375432,26.010273 c -0.07417,0.388719 -0.0095,0.901108 -0.03125,1.336433 0.06469,0.778079 -0.770276,1.052854 -1.368285,1.21661 -0.547023,0.311236 -1.348995,0.671898 -1.836967,0.0542 -0.296166,-0.296161 -0.592332,-0.592327 -0.888498,-0.888493 -0.431729,0.286672 -0.784757,0.763345 -1.186034,1.123535 -0.319465,0.360602 -0.755538,0.672903 -1.001466,1.063965 0.407021,0.490131 1.048516,0.837591 1.225798,1.476969 -0.02466,0.798464 -0.54016,1.529218 -0.812388,2.267025 -0.501821,0.56435 -1.315041,0.280668 -1.974345,0.349756 -0.344568,-0.01288 -0.07033,0.586347 -0.157815,0.825709 0.0012,0.744981 -0.0024,1.490108 0.0018,2.234998 0.64556,0.06419 1.356986,-0.150581 1.945494,0.179668 0.555612,0.579212 0.675635,1.474124 1.006772,2.188766 0.04177,0.75274 -0.732313,1.126431 -1.149336,1.641136 -0.217388,0.272406 0.385277,0.504146 0.515921,0.750367 0.507702,0.507702 1.015404,1.015404 1.523106,1.523106 0.522463,-0.304869 0.839728,-0.98896 1.445435,-1.204942 0.815139,-0.106648 1.513687,0.546448 2.283827,0.733976 0.650694,0.452082 0.363529,1.310427 0.426988,1.975154 -0.08851,0.418476 0.527859,0.12987 0.768962,0.214562 0.763896,-0.0012 1.527939,0.0024 2.291745,-0.0018 0.06419,-0.64556 -0.150581,-1.356986 0.179668,-1.945494 0.579212,-0.555612 1.474124,-0.675635 2.188766,-1.006772 0.75274,-0.04177 1.126431,0.732313 1.641136,1.149336 0.272406,0.217388 0.504146,-0.385277 0.750367,-0.515921 0.507702,-0.507702 1.015404,-1.015404 1.523106,-1.523106 -0.304869,-0.522463 -0.98896,-0.839728 -1.204942,-1.445435 -0.106648,-0.815139 0.546448,-1.513687 0.733976,-2.283827 0.452082,-0.650694 1.310427,-0.363529 1.975154,-0.426988 0.418476,0.08851 0.12987,-0.527859 0.214562,-0.768962 -0.0012,-0.763896 0.0024,-1.527939 -0.0018,-2.291745 -0.64556,-0.06419 -1.356986,0.150581 -1.945494,-0.179668 -0.555602,-0.579205 -0.675625,-1.474117 -1.006762,-2.188759 -0.04177,-0.75274 0.732313,-1.126431 1.149336,-1.641136 0.217388,-0.272406 -0.385277,-0.504146 -0.515921,-0.750366 -0.507702,-0.507703 -1.015404,-1.015405 -1.523106,-1.523107 -0.522463,0.304869 -0.839728,0.98896 -1.445435,1.204942 -0.815139,0.106648 -1.513687,-0.546448 -2.283827,-0.733976 -0.650694,-0.452082 -0.363529,-1.310427 -0.426988,-1.975154 0.08851,-0.418476 -0.527859,-0.12987 -0.768962,-0.214562 -0.754096,0 -1.508192,0 -2.262288,0 z"
     id="path3799"
     sodipodi:nodetypes="ccccccccccccccscccccccccscccccccccsccccccc" />
  <path
     sodipodi:type="arc"
     style="opacity:0.4;color:#000000;fill:none;stroke:url(#linearGradient3830);stroke-width:0.98852974;stroke-opacity:1;marker:none;visibility:visible;display:block;overflow:visible;enable-background:accumulate"
     id="path3822"
     sodipodi:cx="12"
     sodipodi:cy="12"
     sodipodi:rx="3.4598541"
     sodipodi:ry="3.4598541"
     d="m 15.459854,12 a 3.4598541,3.4598541 0 1 1 -6.9197081,0 3.4598541,3.4598541 0 1 1 6.9197081,0 z"
     transform="matrix(1.0116033,0,0,1.0116033,23.736192,23.402283)" />
</svg>
