<?xml version="1.0" encoding="UTF-8" standalone="no"?>
<!-- Created with Inkscape (http://www.inkscape.org/) -->
<svg xmlns:svg="http://www.w3.org/2000/svg" xmlns="http://www.w3.org/2000/svg" xmlns:xlink="http://www.w3.org/1999/xlink" xmlns:inkscape="http://www.inkscape.org/namespaces/inkscape" version="1.0" width="48" height="48" id="svg2">
  <defs id="defs5">
    <linearGradient id="linearGradient4100">
      <stop id="stop4102" style="stop-color:#ffffff;stop-opacity:1" offset="0"/>
      <stop id="stop4104" style="stop-color:#ffffff;stop-opacity:0" offset="1"/>
    </linearGradient>
    <linearGradient id="linearGradient4092">
      <stop id="stop4094" style="stop-color:#ffffff;stop-opacity:1" offset="0"/>
      <stop id="stop4096" style="stop-color:#ffffff;stop-opacity:0" offset="1"/>
    </linearGradient>
    <linearGradient id="linearGradient4084">
      <stop id="stop4086" style="stop-color:#ffffff;stop-opacity:1" offset="0"/>
      <stop id="stop4088" style="stop-color:#ffffff;stop-opacity:0" offset="1"/>
    </linearGradient>
    <linearGradient id="linearGradient4024">
      <stop id="stop4026" style="stop-color:#ffffff;stop-opacity:1" offset="0"/>
      <stop id="stop4028" style="stop-color:#ffffff;stop-opacity:0" offset="1"/>
    </linearGradient>
    <linearGradient id="linearGradient4016">
      <stop id="stop4018" style="stop-color:#ffffff;stop-opacity:1" offset="0"/>
      <stop id="stop4020" style="stop-color:#ffffff;stop-opacity:0" offset="1"/>
    </linearGradient>
    <linearGradient id="linearGradient4008">
      <stop id="stop4010" style="stop-color:#ffffff;stop-opacity:1" offset="0"/>
      <stop id="stop4012" style="stop-color:#ffffff;stop-opacity:0" offset="1"/>
    </linearGradient>
    <linearGradient id="linearGradient4000">
      <stop id="stop4002" style="stop-color:#ffffff;stop-opacity:1" offset="0"/>
      <stop id="stop4004" style="stop-color:#ffffff;stop-opacity:0" offset="1"/>
    </linearGradient>
    <linearGradient id="linearGradient3992">
      <stop id="stop3994" style="stop-color:#ffffff;stop-opacity:1" offset="0"/>
      <stop id="stop3996" style="stop-color:#ffffff;stop-opacity:0" offset="1"/>
    </linearGradient>
    <linearGradient id="linearGradient3984">
      <stop id="stop3986" style="stop-color:#ffffff;stop-opacity:1" offset="0"/>
      <stop id="stop3988" style="stop-color:#ffffff;stop-opacity:0" offset="1"/>
    </linearGradient>
    <linearGradient id="linearGradient3908">
      <stop id="stop3910" style="stop-color:#ffffff;stop-opacity:1" offset="0"/>
      <stop id="stop3912" style="stop-color:#ffffff;stop-opacity:0" offset="1"/>
    </linearGradient>
    <linearGradient id="linearGradient3547">
      <stop id="stop3549" style="stop-color:#f2f2f2;stop-opacity:1" offset="0"/>
      <stop id="stop3551" style="stop-color:#f2f2f2;stop-opacity:0" offset="1"/>
    </linearGradient>
    <filter id="filter3450">
      <feGaussianBlur inkscape:collect="always" stdDeviation="4.4642751" id="feGaussianBlur3452"/>
    </filter>
    <linearGradient x1="82.826843" y1="233.6342" x2="601.66669" y2="233.6342" id="linearGradient3313" xlink:href="#linearGradient3307" gradientUnits="userSpaceOnUse"/>
    <linearGradient id="linearGradient3307">
      <stop id="stop3309" style="stop-color:#ffffff;stop-opacity:1" offset="0"/>
      <stop id="stop3315" style="stop-color:#ffffff;stop-opacity:0.53571427" offset="0.5"/>
      <stop id="stop3317" style="stop-color:#ffffff;stop-opacity:0.16071428" offset="0.75"/>
      <stop id="stop3319" style="stop-color:#ffffff;stop-opacity:0" offset="0.875"/>
      <stop id="stop3321" style="stop-color:#ffffff;stop-opacity:0" offset="0.9375"/>
      <stop id="stop3311" style="stop-color:#ffffff;stop-opacity:0" offset="1"/>
    </linearGradient>
    <linearGradient x1="82.826843" y1="233.6342" x2="601.66669" y2="233.6342" id="linearGradient3553" xlink:href="#linearGradient3547" gradientUnits="userSpaceOnUse"/>
    <filter id="filter3317">
      <feGaussianBlur id="feGaussianBlur3319" stdDeviation="2.1672537" inkscape:collect="always"/>
    </filter>
    <linearGradient x1="460.55014" y1="71.326408" x2="608.55017" y2="71.326408" id="linearGradient3914" xlink:href="#linearGradient3908" gradientUnits="userSpaceOnUse"/>
    <linearGradient x1="419.07239" y1="235.83771" x2="562.70862" y2="235.83771" id="linearGradient3990" xlink:href="#linearGradient3984" gradientUnits="userSpaceOnUse" gradientTransform="matrix(0.666623, 0.745395, -0.745395, 0.666623, 327.723, -296.661)"/>
    <linearGradient x1="339.54419" y1="362.85562" x2="513.58167" y2="362.85562" id="linearGradient3998" xlink:href="#linearGradient3992" gradientUnits="userSpaceOnUse" gradientTransform="matrix(0.251457, 0.967869, -0.967869, 0.251457, 659.245, -156.389)"/>
    <linearGradient x1="304.22266" y1="486.47226" x2="424.39441" y2="486.47226" id="linearGradient4006" xlink:href="#linearGradient4000" gradientUnits="userSpaceOnUse" gradientTransform="matrix(0.447172, 0.894448, -0.894448, 0.447172, 632.366, -67.4686)"/>
    <linearGradient x1="294.70547" y1="539.258" x2="368.80203" y2="539.258" id="linearGradient4014" xlink:href="#linearGradient4008" gradientUnits="userSpaceOnUse" gradientTransform="matrix(0.732982, 0.680248, -0.680248, 0.732982, 453.37, -84.9877)"/>
    <linearGradient x1="556.31842" y1="287.07532" x2="732.80402" y2="287.07532" id="linearGradient4022" xlink:href="#linearGradient4016" gradientUnits="userSpaceOnUse" gradientTransform="matrix(-0.344341, 0.931323, -0.982886, -0.31991, 1150.47, -230.818)"/>
    <linearGradient x1="543.90015" y1="460.57944" x2="699.05237" y2="460.57944" id="linearGradient4030" xlink:href="#linearGradient4024" gradientUnits="userSpaceOnUse" gradientTransform="matrix(-0.896221, 0.443607, -0.443607, -0.896221, 1388.68, 566.414)"/>
    <linearGradient x1="512.0849" y1="552.70447" x2="628.41046" y2="552.70447" id="linearGradient4090" xlink:href="#linearGradient4084" gradientUnits="userSpaceOnUse" gradientTransform="matrix(-0.987143, -0.15984, 0.15984, -0.987143, 1044.13, 1184.76)"/>
    <linearGradient x1="470.56717" y1="606.79724" x2="523.05701" y2="606.79724" id="linearGradient4098" xlink:href="#linearGradient4092" gradientUnits="userSpaceOnUse" gradientTransform="matrix(-0.794445, -0.607337, 0.607337, -0.794445, 528.642, 1387.07)"/>
    <linearGradient x1="424.71945" y1="598.38135" x2="476.83154" y2="598.38135" id="linearGradient4106" xlink:href="#linearGradient4100" gradientUnits="userSpaceOnUse" gradientTransform="matrix(-0.899666, -0.436578, 0.436578, -0.899666, 602.897, 1337.77)"/>
    <linearGradient x1="82.826843" y1="233.6342" x2="601.66669" y2="233.6342" id="linearGradient2486" xlink:href="#linearGradient3547" gradientUnits="userSpaceOnUse"/>
    <linearGradient x1="460.55014" y1="71.326408" x2="608.55017" y2="71.326408" id="linearGradient2488" xlink:href="#linearGradient3908" gradientUnits="userSpaceOnUse"/>
    <linearGradient x1="419.07239" y1="235.83771" x2="562.70862" y2="235.83771" id="linearGradient2490" xlink:href="#linearGradient3984" gradientUnits="userSpaceOnUse" gradientTransform="matrix(0.666623, 0.745395, -0.745395, 0.666623, 327.723, -296.661)"/>
    <linearGradient x1="556.31842" y1="287.07532" x2="732.80402" y2="287.07532" id="linearGradient2492" xlink:href="#linearGradient4016" gradientUnits="userSpaceOnUse" gradientTransform="matrix(-0.344341, 0.931323, -0.982886, -0.31991, 1150.47, -230.818)"/>
    <linearGradient x1="339.54419" y1="362.85562" x2="513.58167" y2="362.85562" id="linearGradient2494" xlink:href="#linearGradient3992" gradientUnits="userSpaceOnUse" gradientTransform="matrix(0.251457, 0.967869, -0.967869, 0.251457, 659.245, -156.389)"/>
    <linearGradient x1="543.90015" y1="460.57944" x2="699.05237" y2="460.57944" id="linearGradient2496" xlink:href="#linearGradient4024" gradientUnits="userSpaceOnUse" gradientTransform="matrix(-0.896221, 0.443607, -0.443607, -0.896221, 1388.68, 566.414)"/>
    <linearGradient x1="304.22266" y1="486.47226" x2="424.39441" y2="486.47226" id="linearGradient2498" xlink:href="#linearGradient4000" gradientUnits="userSpaceOnUse" gradientTransform="matrix(0.447172, 0.894448, -0.894448, 0.447172, 632.366, -67.4686)"/>
    <linearGradient x1="294.70547" y1="539.258" x2="368.80203" y2="539.258" id="linearGradient2500" xlink:href="#linearGradient4008" gradientUnits="userSpaceOnUse" gradientTransform="matrix(0.732982, 0.680248, -0.680248, 0.732982, 453.37, -84.9877)"/>
    <linearGradient x1="512.0849" y1="552.70447" x2="628.41046" y2="552.70447" id="linearGradient2502" xlink:href="#linearGradient4084" gradientUnits="userSpaceOnUse" gradientTransform="matrix(-0.987143, -0.15984, 0.15984, -0.987143, 1044.13, 1184.76)"/>
    <linearGradient x1="424.71945" y1="598.38135" x2="476.83154" y2="598.38135" id="linearGradient2504" xlink:href="#linearGradient4100" gradientUnits="userSpaceOnUse" gradientTransform="matrix(-0.899666, -0.436578, 0.436578, -0.899666, 602.897, 1337.77)"/>
    <linearGradient x1="470.56717" y1="606.79724" x2="523.05701" y2="606.79724" id="linearGradient2506" xlink:href="#linearGradient4092" gradientUnits="userSpaceOnUse" gradientTransform="matrix(-0.794445, -0.607337, 0.607337, -0.794445, 528.642, 1387.07)"/>
    <linearGradient x1="470.56717" y1="606.79724" x2="523.05701" y2="606.79724" id="linearGradient2476" xlink:href="#linearGradient4092" gradientUnits="userSpaceOnUse" gradientTransform="matrix(-0.794445, -0.607337, 0.607337, -0.794445, 530.299, 1389.67)"/>
    <linearGradient x1="424.71945" y1="598.38135" x2="476.83154" y2="598.38135" id="linearGradient2479" xlink:href="#linearGradient4100" gradientUnits="userSpaceOnUse" gradientTransform="matrix(-0.899666, -0.436578, 0.436578, -0.899666, 604.553, 1340.37)"/>
    <linearGradient x1="512.0849" y1="552.70447" x2="628.41046" y2="552.70447" id="linearGradient2482" xlink:href="#linearGradient4084" gradientUnits="userSpaceOnUse" gradientTransform="matrix(-0.987143, -0.15984, 0.15984, -0.987143, 1045.79, 1187.36)"/>
    <linearGradient x1="294.70547" y1="539.258" x2="368.80203" y2="539.258" id="linearGradient2485" xlink:href="#linearGradient4008" gradientUnits="userSpaceOnUse" gradientTransform="matrix(0.732982, 0.680248, -0.680248, 0.732982, 455.027, -82.3902)"/>
    <linearGradient x1="304.22266" y1="486.47226" x2="424.39441" y2="486.47226" id="linearGradient2489" xlink:href="#linearGradient4000" gradientUnits="userSpaceOnUse" gradientTransform="matrix(0.447172, 0.894448, -0.894448, 0.447172, 634.022, -64.8712)"/>
    <linearGradient x1="543.90015" y1="460.57944" x2="699.05237" y2="460.57944" id="linearGradient2493" xlink:href="#linearGradient4024" gradientUnits="userSpaceOnUse" gradientTransform="matrix(-0.896221, 0.443607, -0.443607, -0.896221, 1390.34, 569.011)"/>
    <linearGradient x1="339.54419" y1="362.85562" x2="513.58167" y2="362.85562" id="linearGradient2497" xlink:href="#linearGradient3992" gradientUnits="userSpaceOnUse" gradientTransform="matrix(0.251457, 0.967869, -0.967869, 0.251457, 660.901, -153.792)"/>
    <linearGradient x1="556.31842" y1="287.07532" x2="732.80402" y2="287.07532" id="linearGradient2501" xlink:href="#linearGradient4016" gradientUnits="userSpaceOnUse" gradientTransform="matrix(-0.344341, 0.931323, -0.982886, -0.31991, 1152.12, -228.22)"/>
    <linearGradient x1="419.07239" y1="235.83771" x2="562.70862" y2="235.83771" id="linearGradient2505" xlink:href="#linearGradient3984" gradientUnits="userSpaceOnUse" gradientTransform="matrix(0.666623, 0.745395, -0.745395, 0.666623, 329.38, -294.064)"/>
    <linearGradient x1="460.55014" y1="71.326408" x2="608.55017" y2="71.326408" id="linearGradient2509" xlink:href="#linearGradient3908" gradientUnits="userSpaceOnUse" gradientTransform="translate(1.65651, 2.59742)"/>
    <linearGradient x1="470.56717" y1="606.79724" x2="523.05701" y2="606.79724" id="linearGradient2499" xlink:href="#linearGradient4092" gradientUnits="userSpaceOnUse" gradientTransform="matrix(-0.794445, -0.607337, 0.607337, -0.794445, 530.299, 1404.67)"/>
    <linearGradient x1="424.71945" y1="598.38135" x2="476.83154" y2="598.38135" id="linearGradient2503" xlink:href="#linearGradient4100" gradientUnits="userSpaceOnUse" gradientTransform="matrix(-0.899666, -0.436578, 0.436578, -0.899666, 604.553, 1355.37)"/>
    <linearGradient x1="512.0849" y1="552.70447" x2="628.41046" y2="552.70447" id="linearGradient2508" xlink:href="#linearGradient4084" gradientUnits="userSpaceOnUse" gradientTransform="matrix(-0.987143, -0.15984, 0.15984, -0.987143, 1045.79, 1202.36)"/>
    <linearGradient x1="294.70547" y1="539.258" x2="368.80203" y2="539.258" id="linearGradient2511" xlink:href="#linearGradient4008" gradientUnits="userSpaceOnUse" gradientTransform="matrix(0.732982, 0.680248, -0.680248, 0.732982, 455.027, -67.3902)"/>
    <linearGradient x1="304.22266" y1="486.47226" x2="424.39441" y2="486.47226" id="linearGradient2515" xlink:href="#linearGradient4000" gradientUnits="userSpaceOnUse" gradientTransform="matrix(0.447172, 0.894448, -0.894448, 0.447172, 634.022, -49.8712)"/>
    <linearGradient x1="543.90015" y1="460.57944" x2="699.05237" y2="460.57944" id="linearGradient2519" xlink:href="#linearGradient4024" gradientUnits="userSpaceOnUse" gradientTransform="matrix(-0.896221, 0.443607, -0.443607, -0.896221, 1390.34, 584.011)"/>
    <linearGradient x1="339.54419" y1="362.85562" x2="513.58167" y2="362.85562" id="linearGradient2523" xlink:href="#linearGradient3992" gradientUnits="userSpaceOnUse" gradientTransform="matrix(0.251457, 0.967869, -0.967869, 0.251457, 660.901, -138.792)"/>
    <linearGradient x1="556.31842" y1="287.07532" x2="732.80402" y2="287.07532" id="linearGradient2527" xlink:href="#linearGradient4016" gradientUnits="userSpaceOnUse" gradientTransform="matrix(-0.344341, 0.931323, -0.982886, -0.31991, 1152.12, -213.22)"/>
    <linearGradient x1="419.07239" y1="235.83771" x2="562.70862" y2="235.83771" id="linearGradient2530" xlink:href="#linearGradient3984" gradientUnits="userSpaceOnUse" gradientTransform="matrix(0.666623, 0.745395, -0.745395, 0.666623, 329.38, -279.064)"/>
    <linearGradient x1="460.55014" y1="71.326408" x2="608.55017" y2="71.326408" id="linearGradient2534" xlink:href="#linearGradient3908" gradientUnits="userSpaceOnUse" gradientTransform="translate(1.65651, 17.5974)"/>
    <linearGradient x1="82.826843" y1="233.6342" x2="601.66669" y2="233.6342" id="linearGradient2532" xlink:href="#linearGradient3547" gradientUnits="userSpaceOnUse"/>
    <linearGradient x1="460.55014" y1="71.326408" x2="608.55017" y2="71.326408" id="linearGradient2535" xlink:href="#linearGradient3908" gradientUnits="userSpaceOnUse" gradientTransform="translate(1.65651, 17.5974)"/>
    <linearGradient x1="419.07239" y1="235.83771" x2="562.70862" y2="235.83771" id="linearGradient2537" xlink:href="#linearGradient3984" gradientUnits="userSpaceOnUse" gradientTransform="matrix(0.666623, 0.745395, -0.745395, 0.666623, 329.38, -279.064)"/>
    <linearGradient x1="556.31842" y1="287.07532" x2="732.80402" y2="287.07532" id="linearGradient2539" xlink:href="#linearGradient4016" gradientUnits="userSpaceOnUse" gradientTransform="matrix(-0.344341, 0.931323, -0.982886, -0.31991, 1152.12, -213.22)"/>
    <linearGradient x1="339.54419" y1="362.85562" x2="513.58167" y2="362.85562" id="linearGradient2541" xlink:href="#linearGradient3992" gradientUnits="userSpaceOnUse" gradientTransform="matrix(0.251457, 0.967869, -0.967869, 0.251457, 660.901, -138.792)"/>
    <linearGradient x1="543.90015" y1="460.57944" x2="699.05237" y2="460.57944" id="linearGradient2543" xlink:href="#linearGradient4024" gradientUnits="userSpaceOnUse" gradientTransform="matrix(-0.896221, 0.443607, -0.443607, -0.896221, 1390.34, 584.011)"/>
    <linearGradient x1="304.22266" y1="486.47226" x2="424.39441" y2="486.47226" id="linearGradient2545" xlink:href="#linearGradient4000" gradientUnits="userSpaceOnUse" gradientTransform="matrix(0.447172, 0.894448, -0.894448, 0.447172, 634.022, -49.8712)"/>
    <linearGradient x1="294.70547" y1="539.258" x2="368.80203" y2="539.258" id="linearGradient2547" xlink:href="#linearGradient4008" gradientUnits="userSpaceOnUse" gradientTransform="matrix(0.732982, 0.680248, -0.680248, 0.732982, 455.027, -67.3902)"/>
    <linearGradient x1="512.0849" y1="552.70447" x2="628.41046" y2="552.70447" id="linearGradient2549" xlink:href="#linearGradient4084" gradientUnits="userSpaceOnUse" gradientTransform="matrix(-0.987143, -0.15984, 0.15984, -0.987143, 1045.79, 1202.36)"/>
    <linearGradient x1="424.71945" y1="598.38135" x2="476.83154" y2="598.38135" id="linearGradient2551" xlink:href="#linearGradient4100" gradientUnits="userSpaceOnUse" gradientTransform="matrix(-0.899666, -0.436578, 0.436578, -0.899666, 604.553, 1355.37)"/>
    <linearGradient x1="470.56717" y1="606.79724" x2="523.05701" y2="606.79724" id="linearGradient2553" xlink:href="#linearGradient4092" gradientUnits="userSpaceOnUse" gradientTransform="matrix(-0.794445, -0.607337, 0.607337, -0.794445, 530.299, 1404.67)"/>
  </defs>
  <g transform="matrix(0.0688875, 0, 0, 0.0688875, -0.617676, -0.627294)" id="g2506">
    <path d="M 753.2554,394.59958 A 344.59091,344.59091 0 1 1 64.073578,394.59958 A 344.59091,344.59091 0 1 1 753.2554,394.59958 z" transform="matrix(0.947846, 0, 0, 0.952224, -47.3546, -18.2471)" id="path2384" style="fill:#2c2274;fill-opacity:1;fill-rule:nonzero;stroke:none;stroke-opacity:1"/>
    <path d="M 753.2554,394.59958 A 344.59091,344.59091 0 1 1 64.073578,394.59958 A 344.59091,344.59091 0 1 1 753.2554,394.59958 z" transform="matrix(0.931714, 0, 0, 0.954272, -40.7622, -19.0552)" id="path3158" style="fill:#95b3ff;fill-opacity:1;fill-rule:nonzero;stroke:#000000;stroke-width:2.05869365;stroke-miterlimit:4;stroke-dasharray:none;stroke-opacity:1"/>
    <path d="M 321.42156,671.4124 C 312.88948,670.7035 298.0235,668.54482 285.92156,666.25747 C 282.89656,665.68572 277.94656,664.87561 274.92156,664.45721 C 267.2874,663.40132 247.22855,657.88965 238.06028,654.32865 C 213.18516,644.66705 206.00275,641.16869 178.27774,625.2102 C 156.45674,612.65005 126.56153,587.59423 107.70444,566.06119 C 96.963563,553.79612 79.527833,531.32713 76.848073,526.29734 C 76.158823,525.00366 73.269253,520.34519 70.426798,515.94519 C 53.987428,490.49776 38.241028,448.39556 32.367808,414.18435 C 31.540598,409.36588 30.334208,404.19088 29.686958,402.68435 C 27.980458,398.71235 27.358298,334.78895 28.910858,322.9452 C 29.559748,317.9952 31.637968,307.55 33.529148,299.73364 C 36.557048,287.21908 39.012408,278.93812 46.809218,254.9452 C 47.881588,251.6452 49.701478,245.78461 50.853408,241.92165 C 53.007708,234.6973 64.340178,210.47474 67.913678,205.45624 C 69.018008,203.90535 69.921548,201.33084 69.921548,199.7351 C 69.921548,196.01074 74.173063,190.23274 77.860883,188.94519 C 79.436203,188.39519 84.088453,184.12019 88.199203,179.44519 C 96.946883,169.49679 103.75803,162.50167 113.69696,153.25872 C 118.15139,149.11622 121.50213,145.03467 122.50394,142.5309 C 123.5441,139.93129 125.77996,137.2694 128.77127,135.06937 C 131.32893,133.18829 135.82924,129.80331 138.77197,127.5472 C 143.42984,123.97614 147.92156,122.24396 147.92156,124.01876 C 147.92156,125.06062 135.61389,140.44245 123.42156,154.63826 C 97.166943,185.2071 91.516553,192.77457 82.125643,209.94519 C 77.101863,219.13082 74.947813,225.34447 74.932363,230.69519 C 74.924653,233.36667 75.352953,234.44519 76.421543,234.44519 C 77.246543,234.44519 77.921543,234.07188 77.921543,233.6156 C 77.921543,231.79126 89.345243,220.3184 95.620543,215.84045 C 101.68953,211.50971 122.44385,201.4081 131.23059,198.50822 C 135.23605,197.1863 140.88401,191.43392 143.41656,186.09697 C 144.34435,184.1418 150.57502,176.55781 157.2625,169.24366 C 163.94998,161.9295 171.74683,152.74076 174.58884,148.82424 C 177.43084,144.90771 182.16347,139.62492 185.1058,137.08471 C 188.04812,134.54449 191.30579,130.88719 192.34506,128.95738 C 194.08744,125.72198 194.10901,125.3098 192.62194,123.66661 C 191.12848,122.01636 191.22019,121.46638 193.86227,116.22843 C 195.43144,113.11754 196.51453,110.37149 196.26914,110.1261 C 195.85489,109.71186 189.70081,110.82892 185.67156,112.04974 C 184.24087,112.48322 183.92156,111.95119 183.92156,109.1339 C 183.92156,106.24774 184.409,105.48593 186.92156,104.44519 C 188.57156,103.76174 189.92156,102.90373 189.92156,102.5385 C 189.92156,102.17327 186.99656,100.43208 183.42156,98.669174 C 179.84656,96.906264 176.92156,94.817334 176.92156,94.027124 C 176.92156,92.072384 181.70251,88.448744 184.30642,88.429894 C 187.12571,88.409484 189.09712,87.070154 188.72435,85.428474 C 188.12452,82.786894 206.05846,72.522324 222.42156,66.141734 C 227.37156,64.211544 236.59656,60.982104 242.92156,58.965194 C 249.24656,56.948284 257.64238,54.206184 261.57893,52.871644 C 265.51548,51.537114 269.89736,50.445214 271.31643,50.445214 C 272.7355,50.445214 278.22645,49.320214 283.51854,47.945214 C 288.81062,46.570214 295.0412,45.445214 297.36425,45.445214 C 299.68731,45.445214 304.16126,44.928424 307.30637,44.296804 C 313.80233,42.992224 316.29845,44.037914 314.29078,47.222734 C 313.45061,48.555524 311.64577,48.976444 306.31326,49.083264 C 302.52282,49.159194 297.84656,49.909984 295.92156,50.751694 L 292.42156,52.282064 L 295.67156,52.363644 C 298.78296,52.441734 298.92156,52.615794 298.92156,56.445214 C 298.92156,59.839394 299.23896,60.445214 301.01719,60.445214 C 302.16979,60.445214 304.30729,59.608894 305.76719,58.586714 C 307.22709,57.564534 311.12156,55.741284 314.42156,54.535024 C 317.72156,53.328774 320.99795,51.585104 321.70242,50.660194 C 322.64759,49.419274 324.53019,48.978544 328.88575,48.978544 C 332.13211,48.978544 335.11547,49.305784 335.51543,49.705754 C 336.54935,50.739674 333.30399,54.044164 329.84927,55.475164 C 326.49482,56.864614 325.98745,58.445214 328.89588,58.445214 C 330.05787,58.445214 331.4803,59.625014 332.35302,61.312664 C 333.82186,64.153104 333.80091,64.194934 330.1287,65.751794 C 328.08977,66.616214 323.8241,67.501204 320.64943,67.718444 C 316.21547,68.021864 314.2449,68.697484 312.14943,70.632734 C 309.01275,73.529584 307.49605,74.195864 299.92156,76.004364 C 293.4549,77.548364 276.57104,82.468194 276.08591,82.949894 C 275.90131,83.133194 276.7245,83.804564 277.91522,84.441824 C 280.93084,86.055724 297.8775,83.300234 304.87511,80.058194 C 310.46451,77.468584 313.33185,77.577164 312.45332,80.345144 C 312.08298,81.511984 312.80026,82.338414 314.85722,83.114824 C 317.13478,83.974504 317.94458,85.050974 318.4864,87.939134 C 319.03613,90.869454 319.85958,91.939194 322.37436,92.989934 C 325.99958,94.504644 330.92156,100.97385 330.92156,104.22394 C 330.92156,106.12867 330.53271,106.31742 327.75372,105.76162 C 324.38199,105.08728 324.44208,104.83151 326.6788,110.33674 C 327.12567,111.43661 326.50576,111.58977 323.72136,111.06741 C 321.27552,110.60857 319.84821,110.82865 319.05261,111.78729 C 318.12918,112.89995 319.94354,114.69976 328.39683,121.05662 C 334.16642,125.39533 338.89476,129.28269 338.90427,129.69519 C 338.91378,130.10769 337.96428,130.44519 336.79427,130.44519 C 335.62427,130.44519 331.78222,131.86536 328.25639,133.60112 L 321.84578,136.75705 L 322.50229,141.13497 C 323.15729,145.50282 323.1497,145.51646 319.20444,147.06621 C 315.60056,148.48185 315.0004,149.27381 312.43288,156.00172 C 310.88342,160.06193 308.56395,164.37197 307.27851,165.57958 C 305.26957,167.46688 304.58225,167.61162 302.3844,166.61021 C 300.97808,165.96945 299.39863,165.44519 298.87451,165.44519 C 297.41839,165.44519 297.73757,168.99151 299.53247,172.75545 C 301.08851,176.0185 301.05536,176.27298 298.55907,180.22737 C 296.49783,183.49258 296.01997,185.39634 296.19816,189.63318 L 296.42156,194.94519 L 293.17156,195.25855 C 289.51333,195.61127 289.26884,196.06646 291.44567,198.47183 C 293.94731,201.23611 292.27048,203.44519 287.67059,203.44519 C 284.40924,203.44519 282.4179,202.53255 277.30626,198.69519 C 268.95031,192.42229 269.23842,190.98207 278.88132,190.82158 C 285.79396,190.70653 286.46766,190.49878 288.60995,187.82158 C 290.0834,185.98022 290.91341,183.60266 290.91659,181.21424 C 290.92228,176.94549 291.47933,177.18562 277.42156,175.39698 C 272.47156,174.76717 264.43695,173.38381 259.56688,172.32285 C 249.26377,170.0783 245.17758,170.51953 239.42156,174.49819 C 230.25509,180.83422 225.96992,186.19624 224.45613,193.22439 C 223.79865,196.27692 223.52893,196.46216 220.55428,195.90411 C 218.09388,195.44254 216.92773,195.78089 215.48516,197.37491 C 214.4547,198.51356 214.07674,199.44519 214.64525,199.44519 C 215.21377,199.44519 216.20504,200.71536 216.84808,202.26779 C 217.8561,204.70137 217.66609,205.7895 215.4694,210.16301 C 214.06809,212.95296 212.92156,215.5809 212.92156,216.00287 C 212.92156,217.37987 206.64806,226.73145 198.55795,237.41395 C 188.10562,251.21564 184.92338,257.96332 184.92235,266.32717 C 184.92157,272.63906 187.58344,279.4452 190.05278,279.4452 C 192.24032,279.4452 196.90325,276.27966 198.95022,273.40495 C 200.72178,270.91702 201.73273,270.39245 204.27906,270.63986 C 206.9409,270.8985 207.47349,271.40244 207.76108,273.93456 C 207.94782,275.57871 209.41032,278.70487 211.01108,280.88157 C 214.58761,285.74489 214.64985,287.90916 211.35271,292.76134 C 209.33423,295.7318 208.93238,297.21797 209.47709,299.69803 C 210.16232,302.81788 210.14347,302.83648 207.84376,301.30954 C 204.88892,299.3476 203.7712,295.23374 204.55701,289.21238 C 205.07465,285.24591 204.88599,284.36878 203.39187,283.79543 C 202.12622,283.30976 200.78419,284.03453 198.76532,286.29403 C 196.37481,288.96948 195.92156,290.34857 195.92156,294.94663 C 195.92156,297.95506 196.47656,302.49157 197.15489,305.02777 C 198.3772,309.59787 198.3592,309.66497 195.13911,312.54213 C 193.3521,314.13882 191.01532,315.4452 189.94625,315.4452 C 187.24157,315.4452 183.39003,319.90005 181.37958,325.35378 C 179.19177,331.2886 175.01488,335.34323 170.73976,335.68214 L 167.42156,335.9452 L 167.76218,329.35406 C 168.09842,322.84766 168.0642,322.74692 165.10027,321.51922 C 162.51414,320.44801 161.85746,319.35117 160.3653,313.61037 C 158.47426,306.33497 156.98294,303.3655 153.14859,299.24068 L 150.63452,296.53615 L 153.6898,293.05638 C 156.96647,289.32446 158.74277,285.22917 157.30426,284.72318 C 154.2674,283.65496 153.82421,282.75297 155.03283,280.10033 C 156.91584,275.96758 155.35591,275.82007 151.03646,279.72243 C 146.32945,283.97493 142.92156,285.97305 142.92156,284.48038 C 142.92156,283.91103 142.42049,283.4452 141.80806,283.4452 C 141.08289,283.4452 140.92507,284.57863 141.35552,286.6952 C 142.92667,294.42075 142.96263,296.15994 141.62951,299.94456 C 140.39345,303.45363 139.75252,304.02002 136.40134,304.56474 C 131.8176,305.30981 126.98933,310.50057 126.94846,314.72732 C 126.93367,316.25748 126.24656,319.12494 125.42156,321.09944 C 124.59656,323.07395 123.92156,326.20949 123.92156,328.06732 C 123.92156,332.0832 125.33874,332.34688 131.61289,329.4984 C 136.43095,327.31098 139.92156,321.66784 139.92156,316.06608 C 139.92156,314.16374 140.694,311.26138 141.6381,309.61638 L 143.35464,306.62549 L 147.1381,308.55567 C 150.25962,310.14815 150.92156,311.01626 150.92156,313.51754 C 150.92156,315.93844 150.3578,316.74577 148.12336,317.5247 C 145.75341,318.35087 145.06227,319.48676 143.6074,324.94673 C 142.55654,328.89047 142.12704,332.87803 142.50114,335.21751 C 142.95477,338.05435 142.7007,339.38361 141.51711,340.3659 C 139.39273,342.12898 139.48441,343.71528 141.67156,343.03833 C 145.83822,341.74869 164.6226,339.41127 166.68557,339.92574 C 168.89183,340.47593 168.90805,340.57267 167.32141,343.71777 C 166.42591,345.49286 164.53743,348.18061 163.12477,349.69055 C 160.72012,352.26078 160.40849,352.33904 158.23893,350.91749 C 156.02883,349.46938 155.92156,349.51482 155.92156,351.89909 C 155.92156,355.45403 151.92913,357.8568 147.42597,357.01201 C 144.06384,356.38127 143.92156,356.47428 143.92156,359.30289 C 143.92156,361.4322 144.86706,363.04207 147.32522,365.09821 C 150.20621,367.508 151.20437,369.57661 153.82522,378.56885 C 157.51699,391.23544 157.5846,392.62938 154.69661,396.53559 C 152.67702,399.26723 152.10017,399.4868 148.44661,398.91458 C 140.154,397.61578 137.16006,396.46523 136.61118,394.36629 C 136.10674,392.43731 135.88834,392.39873 133.26217,393.77472 C 130.71593,395.10883 130.09552,395.06444 126.63846,393.30077 C 124.54057,392.23051 122.5729,390.70017 122.26585,389.90002 C 121.43883,387.74483 120.55152,388.10875 118.60694,391.40067 C 116.66474,394.68854 117.01303,397.56524 120.09911,403.72525 C 121.82142,407.16307 121.85384,407.7038 120.45722,409.69776 C 119.6126,410.90361 118.92156,413.10976 118.92156,414.60032 C 118.92156,416.43217 118.27342,417.51613 116.92156,417.9452 C 115.42957,418.41874 114.92156,419.45823 114.92156,422.03759 C 114.92156,425.05639 115.29123,425.56913 117.83441,426.07777 C 120.51059,426.61301 120.85166,427.18564 122.03234,433.12562 C 123.38495,439.93056 124.85233,441.67538 131.42156,444.29006 C 133.5059,445.11967 134.9557,446.77858 136.17156,449.72517 C 138.41136,455.15322 138.3725,456.64095 135.86235,461.56124 C 133.84237,465.52074 133.75674,465.56722 131.36677,464.00125 C 126.79176,461.00359 123.09376,463.77907 116.59098,475.09103 C 116.22869,475.72124 116.77124,477.27293 117.79663,478.53923 L 119.66097,480.8416 L 120.35865,478.64339 C 121.21969,475.93049 122.52352,475.83294 123.88638,478.37945 C 125.98556,482.30182 125.12506,486.0526 121.48989,488.82527 C 119.60248,490.26487 116.96466,491.85851 115.62807,492.36668 C 113.85808,493.03962 112.88887,494.51794 112.06028,497.80855 C 111.43459,500.29341 110.47241,502.60475 109.92211,502.94485 C 109.37181,503.28496 108.91879,505.44917 108.9154,507.75421 C 108.91201,510.05925 108.28627,513.13919 107.52486,514.59852 C 106.07284,517.38147 103.58201,524.23499 103.40104,525.94519 C 103.34284,526.49519 104.18148,528.74519 105.2647,530.94519 C 111.4568,543.52132 115.82656,554.97552 115.27325,557.18007 C 114.83668,558.9195 115.51413,560.59909 117.79912,563.44246 C 119.83275,565.97304 120.93927,568.48165 120.97235,570.63655 C 121.01748,573.57679 121.82473,574.51915 128.22235,579.09997 C 132.18192,581.9351 140.86688,588.93497 147.52228,594.65522 C 163.08296,608.0295 168.36935,611.87034 175.56352,615.02866 C 178.78544,616.44312 184.34656,618.89129 187.92156,620.46903 C 191.49656,622.04677 200.63322,624.93685 208.22525,626.89142 C 220.32067,630.0054 223.53828,630.44712 234.22525,630.46081 C 246.55944,630.47661 248.90731,630.87691 266.42156,635.95016 C 271.37156,637.38399 279.19768,639.19556 283.81293,639.97586 C 288.42818,640.75617 292.27688,641.51848 292.36559,641.66989 C 292.4543,641.82131 293.29068,643.16686 294.22422,644.66001 C 295.15776,646.15316 295.92156,648.9168 295.92156,650.80143 C 295.92156,653.83117 296.35588,654.39952 299.67156,655.70867 C 301.73406,656.52302 306.79656,657.98588 310.92156,658.95948 C 315.04656,659.93308 320.67156,661.56282 323.42156,662.58114 C 326.17156,663.59945 329.89781,664.71945 331.70211,665.07002 C 333.50641,665.42058 335.86278,666.8263 336.93849,668.19384 C 340.46064,672.67153 339.34959,672.90199 321.42156,671.4124 z M 107.52951,492.69519 C 109.09526,490.63257 109.35793,486.44519 107.92156,486.44519 C 107.37156,486.44519 106.92156,486.86057 106.92156,487.36827 C 106.92156,487.87596 105.53694,489.67596 103.84464,491.36827 L 100.7677,494.44519 L 103.48439,494.44519 C 104.97857,494.44519 106.79887,493.65769 107.52951,492.69519 z M 131.99016,234.96879 C 139.08618,230.20787 139.92156,228.665 139.92156,220.32019 C 139.92156,215.97143 139.62016,215.83752 134.5758,217.94519 C 128.91903,220.30874 126.35701,219.91068 124.92156,216.44519 C 123.27995,212.482 122.36344,212.65872 119.94188,217.40535 C 118.48703,220.2571 117.92156,223.31559 117.92156,228.33277 C 117.92156,234.66854 118.16037,235.48788 120.55642,237.37261 C 122.00559,238.51253 123.66983,239.44519 124.25474,239.44519 C 124.83964,239.44519 128.32058,237.43081 131.99016,234.96879 z M 222.42156,145.69249 C 223.53533,143.60567 225.30779,141.81457 226.42156,141.6504 C 227.52156,141.48827 229.44961,140.57461 230.70611,139.62004 C 232.77401,138.04906 232.92806,137.35185 232.33057,132.26814 C 231.78515,127.62746 231.24907,126.45981 229.24457,125.5465 C 227.14469,124.58973 225.92627,124.97941 220.17861,128.44598 C 215.72765,131.13048 213.118,133.45102 212.26287,135.48478 C 211.07321,138.31414 211.23533,138.88727 214.66654,143.98199 C 216.69019,146.98675 218.81293,149.44397 219.38374,149.44249 C 219.95454,149.441 221.32156,147.7535 222.42156,145.69249 z M 310.69905,140.88849 C 313.475,138.94414 313.55452,137.44519 310.88172,137.44519 C 307.32996,137.44519 300.89814,133.50982 299.78297,130.65431 C 299.15605,129.04901 298.97247,124.85706 299.33242,120.36597 C 300.22796,109.19221 299.48983,106.64242 295.12244,105.8231 C 292.00046,105.23741 291.28024,105.51047 289.24786,108.05038 C 285.8743,112.26638 286.26967,116.93783 290.92156,127.82588 C 293.12156,132.97513 294.92156,137.68161 294.92156,138.28473 C 294.92156,141.79734 306.64038,143.73129 310.69905,140.88849 z M 235.90625,116.19519 C 235.89783,115.50769 235.49207,114.31522 235.00457,113.54527 C 234.26974,112.38467 233.67982,112.49019 231.5538,114.16251 C 230.14337,115.27195 229.27412,116.46442 229.62214,116.81244 C 230.78705,117.97734 235.9219,117.47298 235.90625,116.19519 z M 263.15806,113.7998 C 264.66314,113.0342 267.47564,111.01959 269.40806,109.3229 C 275.75322,103.75178 273.35749,99.445204 263.91316,99.445204 C 259.29331,99.445204 256.92156,102.09664 256.92156,107.26132 C 256.92156,109.79143 256.42261,110.76291 254.92156,111.15544 C 252.48949,111.79144 252.44463,112.26071 254.58934,114.63059 C 256.34111,116.56627 258.04419,116.40115 263.15806,113.7998 z M 508.78191,620.25764 C 505.834,619.48096 505.02626,618.7187 504.53191,616.24695 C 502.82418,607.7083 503.25513,606.67006 516.50308,587.40581 C 523.42292,577.34346 530.8266,567.04474 532.95569,564.51976 C 535.08479,561.99478 539.14114,555.25504 541.96981,549.54255 C 546.0778,541.24649 547.39152,537.32371 548.49753,530.0507 C 549.2591,525.04267 550.34106,519.37316 550.90188,517.45179 C 552.7872,510.99272 551.8776,502.44519 549.30493,502.44519 C 548.54408,502.44519 547.92156,502.89684 547.92156,503.44887 C 547.92156,504.96187 518.87384,534.41851 515.82931,535.9929 C 511.88571,538.03221 506.42327,536.84174 504.95689,533.62338 C 503.89593,531.29483 504.04677,530.82941 506.42351,529.09808 C 509.92016,526.55095 531.86922,500.19513 539.87493,488.93057 C 543.3512,484.03922 546.60122,478.56754 547.09719,476.77128 C 547.59316,474.97503 551.80581,465.12966 556.45864,454.89269 L 564.91833,436.28003 L 566.00057,422.11262 C 567.28339,405.3192 566.68369,402.4452 561.89665,402.4452 C 560.20572,402.4452 557.54182,403.10733 555.97687,403.9166 C 554.41192,404.72586 551.39677,405.65944 549.27653,405.9912 C 545.7664,406.54045 545.09215,406.25229 541.73904,402.76981 C 537.75733,398.63446 536.33078,394.82479 537.87376,392.44742 C 538.72392,391.13753 539.29293,391.19039 542.40938,392.86871 L 545.97289,394.78778 L 549.19722,391.77516 C 550.97061,390.11822 553.8121,387.81174 555.51165,386.64964 C 558.84279,384.37192 571.97979,368.6035 576.26588,361.7382 C 580.58816,354.81493 584.44022,353.90629 593.92156,357.57352 C 604.19044,361.54535 605.65359,361.61938 609.37132,358.35517 C 611.19417,356.75469 613.2069,355.4452 613.84407,355.4452 C 616.05799,355.4452 621.20844,359.98021 625.80158,365.97389 C 628.34257,369.28967 634.12558,375.52878 638.65271,379.83857 L 646.88386,387.67455 L 647.90271,384.99478 C 648.46308,383.5209 648.92156,380.8443 648.92156,379.04677 C 648.92156,375.17875 649.42605,374.50286 651.8417,375.13457 C 653.3225,375.52181 653.87561,377.46725 654.92637,385.98419 C 655.63055,391.69197 655.91854,398.74319 655.56635,401.65358 C 652.40044,427.81519 650.68885,435.43471 647.47366,437.67989 C 645.50824,439.05235 645.19952,438.45026 644.14865,431.1952 C 643.12448,424.12436 643.11158,424.20993 643.62694,434.65774 C 644.02845,442.79755 643.74145,447.12045 642.43189,452.65773 C 640.26274,461.82968 635.29586,476.73427 632.70604,481.84301 C 631.61927,483.98681 629.25727,489.23302 627.45715,493.50126 C 625.65704,497.76949 619.7661,508.39047 614.36617,517.10343 C 605.13615,531.99638 588.02781,556.73264 585.42716,558.94519 C 584.78068,559.49519 579.65594,565.2272 574.03885,571.683 C 560.48882,587.2562 533.94567,610.23589 520.92156,617.6692 C 515.06218,621.01335 513.17637,621.41545 508.78191,620.25764 z M 480.12156,529.24519 C 479.46156,528.58519 478.92156,527.49319 478.92156,526.81851 C 478.92156,524.90791 475.74699,524.67565 472.16398,526.32411 C 468.9884,527.78512 468.8236,527.74258 465.61638,524.63401 C 463.16254,522.25566 461.41665,521.44519 458.7471,521.44519 C 455.50457,521.44519 454.34749,520.55148 446.44748,511.94519 C 438.78811,503.60105 437.32284,502.44519 434.40452,502.44519 C 431.67108,502.44519 430.13681,501.45214 425.75175,496.84471 C 422.82014,493.76445 418.24346,490.1363 415.58135,488.78215 C 412.91923,487.42801 408.72879,484.46516 406.26927,482.19805 C 402.5494,478.76919 401.90112,477.64461 402.41421,475.51061 C 404.25494,467.85476 411.34322,469.16029 425.43344,479.75031 C 430.66172,483.67982 433.96852,485.35861 438.43344,486.35015 C 443.89538,487.56309 445.05333,488.32866 451.61133,495.06256 C 455.64459,499.20402 459.64813,502.44519 460.73043,502.44519 C 461.79156,502.44519 465.98117,503.59007 470.04066,504.98937 C 474.10016,506.38867 479.33406,508.00011 481.67156,508.57035 C 485.0945,509.40539 485.92156,510.04207 485.92156,511.84203 C 485.92156,513.38417 487.08678,514.7318 489.68074,516.18969 C 493.22882,518.18382 497.92156,523.33205 497.92156,525.23038 C 497.92156,525.70678 496.88006,527.075 495.60711,528.27088 C 493.76299,530.00334 492.07631,530.44519 487.30711,530.44519 C 483.98502,530.44519 480.78758,529.91121 480.12156,529.24519 z M 288.42156,488.90908 C 286.77156,488.15355 282.59113,487.5151 279.13172,487.49029 C 272.66069,487.44389 268.7195,485.98692 260.68849,480.67226 C 257.34069,478.45679 256.1668,478.23195 250.37468,478.69689 C 242.69805,479.3131 234.80611,476.90934 231.17156,472.84792 C 228.22867,469.5594 228.32658,468.77762 231.95788,466.5693 L 234.9942,464.7228 L 232.47869,463.07458 C 228.73181,460.61953 226.61788,455.87746 227.40352,451.68968 C 227.97484,448.64427 227.83439,448.26466 226.3474,448.83527 C 225.33913,449.22218 223.86337,448.79752 222.76646,447.80483 C 221.00553,446.21121 220.76132,446.2471 218.42375,448.44314 C 216.03461,450.68762 215.7074,450.72725 209.18422,449.56221 C 203.58423,448.56205 200.78828,448.6194 192.92156,449.89577 C 187.69656,450.74353 181.89877,451.43896 180.03758,451.44117 C 174.44239,451.44782 169.47366,453.41918 167.81811,456.28928 C 166.77044,458.10555 164.51771,459.54027 160.6924,460.82751 C 155.1516,462.69202 155.04819,462.69025 149.76013,460.64027 C 146.82391,459.50202 143.63406,458.3316 142.67156,458.03934 C 141.5109,457.68691 140.92156,456.49573 140.92156,454.50225 C 140.92156,450.17833 145.67795,447.75602 151.02351,449.35759 C 154.27634,450.33216 155.2485,450.21697 158.02596,448.52789 C 162.23274,445.9696 163.92156,441.72164 163.92156,433.69842 C 163.92156,426.18489 166.0536,421.76517 171.22197,418.56468 C 175.46052,415.93997 177.92156,411.54979 177.92156,406.61349 C 177.92156,403.48353 178.49238,402.14135 180.49271,400.56789 C 182.9229,398.6563 183.24793,398.63319 186.42101,400.14633 C 190.73361,402.20287 194.79434,400.71732 198.10765,395.87097 C 199.3803,394.00947 201.64414,391.97874 203.1384,391.35823 C 204.63267,390.73772 206.37527,389.60344 207.01085,388.83761 C 208.72812,386.76843 209.62731,387.13058 210.38156,390.1952 C 212.65203,399.42041 220.82267,406.27272 242.27807,416.9452 C 253.93825,422.74528 254.38601,423.08702 255.71627,427.20143 C 256.47313,429.54236 257.50395,431.2033 258.00697,430.89241 C 259.45566,429.99707 259.06983,423.02349 257.45336,420.88633 C 256.64586,419.81871 255.97086,418.67993 255.95336,418.35572 C 255.88985,417.1784 261.19969,415.3987 263.03647,415.98167 C 264.07327,416.31074 264.92156,416.29507 264.92156,415.94685 C 264.92156,413.77226 262.03048,411.00514 256.04049,407.44655 C 250.17264,403.96052 248.6364,403.46333 245.30704,403.9728 C 241.73188,404.51987 240.99241,404.18826 236.04825,399.82086 C 223.78605,388.9891 219.85479,380.68464 225.30026,377.11664 C 227.53048,375.65534 227.81965,375.70782 229.933,377.95738 C 231.17273,379.27701 232.46481,380.32333 232.8043,380.28253 C 236.35303,379.8561 238.07226,380.81406 239.82627,384.1952 C 243.93864,392.12247 246.77771,394.31388 254.42156,395.46095 C 258.27156,396.0387 262.86505,396.97513 264.62931,397.54191 C 268.55608,398.80341 271.92156,403.9183 271.92156,408.62474 C 271.92156,411.6447 272.72098,412.72952 278.42156,417.4452 C 283.60528,421.73332 284.92156,423.39153 284.92156,425.6337 C 284.92156,427.77718 285.39608,428.4452 286.91868,428.4452 C 288.01709,428.4452 290.65914,430.0202 292.78988,431.9452 C 295.17422,434.09931 297.68809,435.4452 299.3272,435.4452 C 301.94486,435.4452 301.97909,435.35962 301.32717,430.4452 L 300.6639,425.4452 L 304.57712,425.4452 C 307.86467,425.4452 308.77369,425.92486 310.26249,428.4452 C 312.07578,431.51486 313.42699,432.04543 315.72273,430.58925 C 316.76029,429.93112 316.77973,429.22803 315.81869,427.11877 C 314.9544,425.22185 313.03058,423.90692 309.01752,422.47017 C 300.42889,419.39527 298.76208,418.28366 294.69684,412.91951 C 291.53467,408.74696 291.20868,407.89586 292.67431,407.63911 C 293.6353,407.47076 295.65441,406.85559 297.16124,406.27207 C 299.32457,405.4343 299.78304,404.74149 299.34062,402.97873 C 298.75245,400.63529 299.1811,400.3592 308.0871,397.34507 C 311.23446,396.27988 312.11801,396.3439 314.3371,397.7979 C 316.59385,399.27658 316.92156,400.18337 316.92156,404.9492 C 316.92156,409.96346 317.12854,410.45904 319.46791,411.04619 C 321.91985,411.66159 321.94914,411.75725 320.25767,413.62629 C 318.74614,415.29652 318.70479,415.69615 319.96132,416.49094 C 320.76445,416.99894 321.75906,417.42147 322.17156,417.42989 C 322.58406,417.43831 322.92156,418.3452 322.92156,419.4452 C 322.92156,421.05049 323.58823,421.4452 326.29959,421.4452 C 328.6878,421.4452 330.12092,422.10449 331.19051,423.6952 C 332.68612,425.91949 332.73927,425.92436 335.84077,424.12196 C 337.94419,422.89958 339.92985,422.50775 341.866,422.933 C 343.45434,423.28185 346.31857,423.27374 348.23097,422.91498 C 351.07845,422.38079 351.81625,421.72174 352.30553,419.27535 L 352.90299,416.28803 L 361.16385,416.6116 C 370.7111,416.98557 372.6023,416.06232 380.28929,407.27493 L 384.75238,402.17295 L 385.83139,406.05907 C 386.42485,408.19644 386.91292,411.00524 386.91598,412.30084 C 386.91905,413.59645 388.07971,416.03287 389.49523,417.71512 C 391.31899,419.88254 391.86633,421.38149 391.37366,422.85948 C 390.99128,424.00663 390.46493,426.83109 390.204,429.13607 C 389.81739,432.55124 390.21008,433.95691 392.32557,436.73046 C 393.83315,438.707 394.92156,441.43688 394.92156,443.24155 C 394.92156,447.55903 388.49979,451.92049 379.77603,453.52791 C 374.16821,454.56119 372.92209,454.49683 370.07994,453.02709 C 368.28624,452.09953 366.56867,450.68915 366.26312,449.8929 C 365.92927,449.02289 364.35363,448.44519 362.31457,448.44519 C 359.51822,448.44519 358.92156,448.82009 358.92156,450.57716 C 358.92156,451.74974 357.97701,454.23744 356.82255,456.10539 C 355.11757,458.86411 354.9566,459.78248 355.96505,460.99759 C 357.49063,462.83581 357.51254,462.81399 351.40107,465.54329 C 346.3976,467.77776 337.00758,469.61242 331.42156,469.44696 C 329.77156,469.39809 326.01765,469.36783 323.07953,469.37974 C 320.14142,469.39164 316.4347,468.72766 314.84237,467.90424 C 312.09534,466.4837 311.59093,466.58655 304.98184,469.91483 C 298.76899,473.04357 297.94539,473.80122 297.35894,476.9273 C 296.99732,478.85491 296.99927,481.61869 297.36329,483.06904 C 297.85599,485.03211 297.45621,486.31163 295.79903,488.07561 C 293.28041,490.75656 292.61941,490.83124 288.42156,488.90908 z M 323.67156,444.50163 C 326.38037,442.24186 326.45252,441.56874 324.17156,439.83725 C 321.58441,437.87332 319.5396,438.15842 317.02654,440.83345 C 315.61255,442.33858 314.06898,443.03501 312.85223,442.71682 C 310.44264,442.0867 310.31271,443.99119 312.67156,445.36509 C 315.47404,446.99739 321.2206,446.5463 323.67156,444.50163 z M 250.72517,444.80088 C 252.60184,444.29824 252.97252,443.60576 252.72517,441.06455 C 252.4593,438.33298 252.04862,437.94509 249.42156,437.94431 C 247.77156,437.94383 244.8762,437.29241 242.98742,436.49672 C 240.27935,435.35589 239.46433,435.31688 239.13255,436.31223 C 238.90114,437.00645 237.634,437.98423 236.31669,438.48507 C 234.62589,439.12791 233.92156,440.17087 233.92156,442.03174 C 233.92156,444.46231 234.17488,444.62094 237.17156,444.06693 C 238.95906,443.73648 241.77156,443.87272 243.42156,444.36969 C 247.22232,445.51447 247.90946,445.55504 250.72517,444.80088 z M 214.88266,431.20543 C 216.29623,428.68699 216.20383,427.66083 213.66704,417.70507 C 212.15702,411.77897 210.91467,405.80868 210.90625,404.43777 C 210.89783,403.06685 210.48609,401.30556 209.99129,400.52378 C 208.51065,398.18441 205.92156,405.87163 205.92156,412.60716 C 205.92156,416.48273 205.25461,419.83221 203.98888,422.31325 C 202.09686,426.02191 202.09559,426.16167 203.92863,428.95598 C 206.0172,432.13983 209.65788,434.52313 211.88719,434.1659 C 212.69328,434.03673 214.04124,432.70452 214.88266,431.20543 z M 517.42156,421.3063 C 515.77156,420.77446 511.49656,420.58912 507.92156,420.89444 C 502.03088,421.39754 500.83568,421.15412 495.17156,418.29777 C 488.92421,415.14731 488.92156,415.1441 488.92156,410.72985 C 488.92156,401.48647 492.03197,400.43483 503.31703,405.86273 C 509.74762,408.95572 510.86942,409.19673 515.1302,408.40073 C 522.17755,407.08414 529.07323,403.12403 531.80093,398.82691 C 534.04393,395.29338 534.25884,395.18598 535.55093,396.953 C 537.80996,400.04242 537.1353,404.06448 532.96767,412.3535 C 529.74708,418.75892 528.42115,420.42399 525.81844,421.3313 C 522.1298,422.61717 521.48242,422.61524 517.42156,421.3063 z M 317.43745,384.05492 C 314.67103,380.42796 314.65278,380.30537 315.13532,368.58889 C 315.49219,359.92386 316.23718,354.93685 317.93287,349.862 C 319.204,346.05776 320.38234,342.3827 320.55141,341.6952 C 320.91763,340.20591 329.58156,339.98523 333.22975,341.37227 C 334.57086,341.88216 335.93937,343.38002 336.27087,344.70083 C 336.84702,346.99638 340.50664,349.4452 343.36105,349.4452 C 344.10101,349.4452 346.38713,347.24133 348.44131,344.54771 C 350.49549,341.85409 353.26507,339.15409 354.59593,338.54771 C 357.57236,337.19155 363.26252,337.13714 367.92156,338.42028 C 369.84656,338.95045 376.14656,340.08787 381.92156,340.9479 C 393.74708,342.70898 396.56012,344.44308 397.55704,350.58638 C 398.0642,353.71162 397.75836,354.39892 394.91106,356.53263 C 393.14037,357.85954 390.22932,360.42909 388.44205,362.24274 C 385.4899,365.23845 384.42492,365.62044 376.80701,366.41609 C 372.19501,366.89779 367.63059,367.60087 366.66384,367.9785 C 365.66249,368.36965 363.88298,367.99472 362.52846,367.1072 C 359.91843,365.39704 358.92156,365.8129 358.92156,368.61187 C 358.92156,370.82649 356.64064,371.01657 354.92156,368.9452 C 353.12349,366.77866 352.31874,367.07211 350.94175,370.39645 C 350.26941,372.01964 348.69072,374.02166 347.43355,374.84539 C 346.17639,375.66911 344.15345,377.95196 342.93814,379.91838 C 339.98196,384.70157 336.12078,386.50873 327.45726,387.16395 L 320.22597,387.71085 L 317.43745,384.05492 z M 451.62979,352.94625 C 449.12927,349.81238 448.77475,348.4088 448.23153,339.49216 L 447.62503,329.53695 L 438.404,325.96409 C 427.18248,321.61611 421.23659,317.79341 416.03877,311.5852 C 411.17449,305.77535 410.07858,301.02392 412.45011,296.02629 C 413.39316,294.03894 414.50796,292.20082 414.92743,291.94157 C 416.01184,291.27137 429.372,298.77799 435.47571,303.48698 C 439.79725,306.82102 441.12264,307.35498 443.765,306.82651 C 446.67609,306.24429 447.50519,306.79641 454.90151,314.24259 C 459.29671,318.6674 464.88416,323.9195 467.31807,325.91391 C 472.9134,330.49886 479.36032,339.71942 478.66529,342.14302 C 478.38104,343.13422 477.83801,344.69689 477.45856,345.61563 C 476.9458,346.85714 477.36602,347.37372 479.09511,347.62745 L 481.42156,347.96884 L 478.86299,349.6966 C 476.03817,351.60415 467.71084,353.4452 461.90751,353.4452 C 459.80207,353.4452 457.62217,354.10101 456.92156,354.9452 C 455.1788,357.04509 454.78009,356.89448 451.62979,352.94625 z M 346.67156,338.84277 C 345.15906,338.03898 343.92383,336.8332 343.9266,336.16326 C 343.93493,334.1474 351.36154,324.98415 353.28765,324.61321 C 356.52522,323.98972 359.55879,325.35358 360.75012,327.96828 C 362.46447,331.73086 362.21467,332.76713 359.16524,334.54305 C 357.65621,335.42187 354.84656,337.07764 352.92156,338.22256 C 349.73377,340.11853 349.17625,340.17385 346.67156,338.84277 z" id="path3334" style="fill:#000000;fill-opacity:1;stroke:none;stroke-width:1.29999995;stroke-miterlimit:4;stroke-dasharray:none;stroke-opacity:1"/>
    <path d="M 319.54865,670.91977 C 311.01657,670.21087 296.15059,668.05219 284.04865,665.76484 C 281.02365,665.19309 276.07365,664.38298 273.04865,663.96458 C 265.41449,662.90869 245.35564,657.39702 236.18737,653.83602 C 211.31225,644.17442 204.12984,640.67606 176.40483,624.71757 C 154.58383,612.15742 124.68862,587.1016 105.83153,565.56856 C 95.090656,553.30349 77.654926,530.8345 74.975166,525.80471 C 74.285916,524.51103 71.396346,519.85256 68.553886,515.45256 C 52.114516,490.00513 36.368116,447.90293 30.494896,413.69172 C 29.667686,408.87325 28.461296,403.69825 27.814046,402.19172 C 26.107546,398.21972 25.485386,334.29632 27.037946,322.45257 C 27.686836,317.50257 29.765056,307.05737 31.656236,299.24101 C 34.684136,286.72645 37.139496,278.44549 44.936306,254.45257 C 46.008676,251.15257 47.828566,245.29198 48.980496,241.42902 C 51.134796,234.20467 62.467266,209.98211 66.040766,204.96361 C 67.145096,203.41272 68.048636,200.83821 68.048636,199.24247 C 68.048636,195.51811 72.300156,189.74011 75.987976,188.45256 C 77.563296,187.90256 82.215546,183.62756 86.326296,178.95256 C 95.073976,169.00416 101.88512,162.00904 111.82405,152.76609 C 116.27848,148.62359 119.62922,144.54204 120.63103,142.03827 C 121.67119,139.43866 123.90705,136.77677 126.89836,134.57674 C 129.45602,132.69566 133.95633,129.31068 136.89906,127.05457 C 141.55693,123.48351 146.04865,121.75133 146.04865,123.52613 C 146.04865,124.56799 133.74098,139.94982 121.54865,154.14563 C 95.294036,184.71447 89.643646,192.28194 80.252736,209.45256 C 75.228956,218.63819 73.074906,224.85184 73.059456,230.20256 C 73.051746,232.87404 73.480046,233.95256 74.548636,233.95256 C 75.373636,233.95256 76.048636,233.57925 76.048636,233.12297 C 76.048636,231.29863 87.472336,219.82577 93.747636,215.34782 C 99.816626,211.01708 120.57094,200.91547 129.35768,198.01559 C 133.36314,196.69367 139.0111,190.94129 141.54365,185.60434 C 142.47144,183.64917 148.70211,176.06518 155.38959,168.75103 C 162.07707,161.43687 169.87392,152.24813 172.71593,148.33161 C 175.55793,144.41508 180.29056,139.13229 183.23289,136.59208 C 186.17521,134.05186 189.43288,130.39456 190.47215,128.46475 C 192.21453,125.22935 192.2361,124.81717 190.74903,123.17398 C 189.25557,121.52373 189.34728,120.97375 191.98936,115.7358 C 193.55853,112.62491 194.64162,109.87886 194.39623,109.63347 C 193.98198,109.21923 187.8279,110.33629 183.79865,111.55711 C 182.36796,111.99059 182.04865,111.45856 182.04865,108.64127 C 182.04865,105.75511 182.53609,104.9933 185.04865,103.95256 C 186.69865,103.26911 188.04865,102.4111 188.04865,102.04587 C 188.04865,101.68064 185.12365,99.93945 181.54865,98.17654 C 177.97365,96.41363 175.04865,94.3247 175.04865,93.53449 C 175.04865,91.57975 179.8296,87.95611 182.43351,87.93726 C 185.2528,87.91685 187.22421,86.57752 186.85144,84.93584 C 186.25161,82.29426 204.18555,72.02969 220.54865,65.6491 C 225.49865,63.71891 234.72365,60.48947 241.04865,58.47256 C 247.37365,56.45565 255.76947,53.71355 259.70602,52.37901 C 263.64257,51.04448 268.02445,49.95258 269.44352,49.95258 C 270.86259,49.95258 276.35354,48.82758 281.64563,47.45258 C 286.93771,46.07758 293.16829,44.95258 295.49134,44.95258 C 297.8144,44.95258 302.28835,44.43579 305.43346,43.80417 C 311.92942,42.49959 314.42554,43.54528 312.41787,46.7301 C 311.5777,48.06289 309.77286,48.48381 304.44035,48.59063 C 300.64991,48.66656 295.97365,49.41735 294.04865,50.25906 L 290.54865,51.78943 L 293.79865,51.87101 C 296.91005,51.9491 297.04865,52.12316 297.04865,55.95258 C 297.04865,59.34676 297.36605,59.95258 299.14428,59.95258 C 300.29688,59.95258 302.43438,59.11626 303.89428,58.09408 C 305.35418,57.0719 309.24865,55.24865 312.54865,54.04239 C 315.84865,52.83614 319.12504,51.09247 319.82951,50.16756 C 320.77468,48.92664 322.65728,48.48591 327.01284,48.48591 C 330.2592,48.48591 333.24256,48.81315 333.64252,49.21312 C 334.67644,50.24704 331.43108,53.55153 327.97636,54.98253 C 324.62191,56.37198 324.11454,57.95258 327.02297,57.95258 C 328.18496,57.95258 329.60739,59.13238 330.48011,60.82003 C 331.94895,63.66047 331.928,63.7023 328.25579,65.25916 C 326.21686,66.12358 321.95119,67.00857 318.77652,67.22581 C 314.34256,67.52923 312.37199,68.20485 310.27652,70.1401 C 307.13984,73.03695 305.62314,73.70323 298.04865,75.51173 C 291.58199,77.05573 274.69813,81.97556 274.213,82.45726 C 274.0284,82.64056 274.85159,83.31193 276.04231,83.94919 C 279.05793,85.56309 296.00459,82.8076 303.0022,79.56556 C 308.5916,76.97595 311.45894,77.08453 310.58041,79.85251 C 310.21007,81.01935 310.92735,81.84578 312.98431,82.62219 C 315.26187,83.48187 316.07167,84.55834 316.61349,87.4465 C 317.16322,90.37682 317.98667,91.44656 320.50145,92.4973 C 324.12667,94.01201 329.04865,100.48122 329.04865,103.73131 C 329.04865,105.63604 328.6598,105.82479 325.88081,105.26899 C 322.50908,104.59465 322.56917,104.33888 324.80589,109.84411 C 325.25276,110.94398 324.63285,111.09714 321.84845,110.57478 C 319.40261,110.11594 317.9753,110.33602 317.1797,111.29466 C 316.25627,112.40732 318.07063,114.20713 326.52392,120.56399 C 332.29351,124.9027 337.02185,128.79006 337.03136,129.20256 C 337.04087,129.61506 336.09137,129.95256 334.92136,129.95256 C 333.75136,129.95256 329.90931,131.37273 326.38348,133.10849 L 319.97287,136.26442 L 320.62938,140.64234 C 321.28438,145.01019 321.27679,145.02383 317.33153,146.57358 C 313.72765,147.98922 313.12749,148.78118 310.55997,155.50909 C 309.01051,159.5693 306.69104,163.87934 305.4056,165.08695 C 303.39666,166.97425 302.70934,167.11899 300.51149,166.11758 C 299.10517,165.47682 297.52572,164.95256 297.0016,164.95256 C 295.54548,164.95256 295.86466,168.49888 297.65956,172.26282 C 299.2156,175.52587 299.18245,175.78035 296.68616,179.73474 C 294.62492,182.99995 294.14706,184.90371 294.32525,189.14055 L 294.54865,194.45256 L 291.29865,194.76592 C 287.64042,195.11864 287.39593,195.57383 289.57276,197.9792 C 292.0744,200.74348 290.39757,202.95256 285.79768,202.95256 C 282.53633,202.95256 280.54499,202.03992 275.43335,198.20256 C 267.0774,191.92966 267.36551,190.48944 277.00841,190.32895 C 283.92105,190.2139 284.59475,190.00615 286.73704,187.32895 C 288.21049,185.48759 289.0405,183.11003 289.04368,180.72161 C 289.04937,176.45286 289.60642,176.69299 275.54865,174.90435 C 270.59865,174.27454 262.56404,172.89118 257.69397,171.83022 C 247.39086,169.58567 243.30467,170.0269 237.54865,174.00556 C 228.38218,180.34159 224.09701,185.70361 222.58322,192.73176 C 221.92574,195.78429 221.65602,195.96953 218.68137,195.41148 C 216.22097,194.94991 215.05482,195.28826 213.61225,196.88228 C 212.58179,198.02093 212.20383,198.95256 212.77234,198.95256 C 213.34086,198.95256 214.33213,200.22273 214.97517,201.77516 C 215.98319,204.20874 215.79318,205.29687 213.59649,209.67038 C 212.19518,212.46033 211.04865,215.08827 211.04865,215.51024 C 211.04865,216.88724 204.77515,226.23882 196.68504,236.92132 C 186.23271,250.72301 183.05047,257.47069 183.04944,265.83454 C 183.04866,272.14643 185.71053,278.95257 188.17987,278.95257 C 190.36741,278.95257 195.03034,275.78703 197.07731,272.91232 C 198.84887,270.42439 199.85982,269.89982 202.40615,270.14723 C 205.06799,270.40587 205.60058,270.90981 205.88817,273.44193 C 206.07491,275.08608 207.53741,278.21224 209.13817,280.38894 C 212.7147,285.25226 212.77694,287.41653 209.4798,292.26871 C 207.46132,295.23917 207.05947,296.72534 207.60418,299.2054 C 208.28941,302.32525 208.27056,302.34385 205.97085,300.81691 C 203.01601,298.85497 201.89829,294.74111 202.6841,288.71975 C 203.20174,284.75328 203.01308,283.87615 201.51896,283.3028 C 200.25331,282.81713 198.91128,283.5419 196.89241,285.8014 C 194.5019,288.47685 194.04865,289.85594 194.04865,294.454 C 194.04865,297.46243 194.60365,301.99894 195.28198,304.53514 C 196.50429,309.10524 196.48629,309.17234 193.2662,312.0495 C 191.47919,313.64619 189.14241,314.95257 188.07334,314.95257 C 185.36866,314.95257 181.51712,319.40742 179.50667,324.86115 C 177.31886,330.79597 173.14197,334.8506 168.86685,335.18951 L 165.54865,335.45257 L 165.88927,328.86143 C 166.22551,322.35503 166.19129,322.25429 163.22736,321.02659 C 160.64123,319.95538 159.98455,318.85854 158.49239,313.11774 C 156.60135,305.84234 155.11003,302.87287 151.27568,298.74805 L 148.76161,296.04352 L 151.81689,292.56375 C 155.09356,288.83183 156.86986,284.73654 155.43135,284.23055 C 152.39449,283.16233 151.9513,282.26034 153.15992,279.6077 C 155.04293,275.47495 153.483,275.32744 149.16355,279.2298 C 144.45654,283.4823 141.04865,285.48042 141.04865,283.98775 C 141.04865,283.4184 140.54758,282.95257 139.93515,282.95257 C 139.20998,282.95257 139.05216,284.086 139.48261,286.20257 C 141.05376,293.92812 141.08972,295.66731 139.7566,299.45193 C 138.52054,302.961 137.87961,303.52739 134.52843,304.07211 C 129.94469,304.81718 125.11642,310.00794 125.07555,314.23469 C 125.06076,315.76485 124.37365,318.63231 123.54865,320.60681 C 122.72365,322.58132 122.04865,325.71686 122.04865,327.57469 C 122.04865,331.59057 123.46583,331.85425 129.73998,329.00577 C 134.55804,326.81835 138.04865,321.17521 138.04865,315.57345 C 138.04865,313.67111 138.82109,310.76875 139.76519,309.12375 L 141.48173,306.13286 L 145.26519,308.06304 C 148.38671,309.65552 149.04865,310.52363 149.04865,313.02491 C 149.04865,315.44581 148.48489,316.25314 146.25045,317.03207 C 143.8805,317.85824 143.18936,318.99413 141.73449,324.4541 C 140.68363,328.39784 140.25413,332.3854 140.62823,334.72488 C 141.08186,337.56172 140.82779,338.89098 139.6442,339.87327 C 137.51982,341.63635 137.6115,343.22265 139.79865,342.5457 C 143.96531,341.25606 162.74969,338.91864 164.81266,339.43311 C 167.01892,339.9833 167.03514,340.08004 165.4485,343.22514 C 164.553,345.00023 162.66452,347.68798 161.25186,349.19792 C 158.84721,351.76815 158.53558,351.84641 156.36602,350.42486 C 154.15592,348.97675 154.04865,349.02219 154.04865,351.40646 C 154.04865,354.9614 150.05622,357.36417 145.55306,356.51938 C 142.19093,355.88864 142.04865,355.98165 142.04865,358.81026 C 142.04865,360.93957 142.99415,362.54944 145.45231,364.60558 C 148.3333,367.01537 149.33146,369.08398 151.95231,378.07622 C 155.64408,390.74281 155.71169,392.13675 152.8237,396.04296 C 150.80411,398.7746 150.22726,398.99417 146.5737,398.42195 C 138.28109,397.12315 135.28715,395.9726 134.73827,393.87366 C 134.23383,391.94468 134.01543,391.9061 131.38926,393.28209 C 128.84302,394.6162 128.22261,394.57181 124.76555,392.80814 C 122.66766,391.73788 120.69999,390.20754 120.39294,389.40739 C 119.56592,387.2522 118.67861,387.61612 116.73403,390.90804 C 114.79183,394.19591 115.14012,397.07261 118.2262,403.23262 C 119.94851,406.67044 119.98093,407.21117 118.58431,409.20513 C 117.73969,410.41098 117.04865,412.61713 117.04865,414.10769 C 117.04865,415.93954 116.40051,417.0235 115.04865,417.45257 C 113.55666,417.92611 113.04865,418.9656 113.04865,421.54496 C 113.04865,424.56376 113.41832,425.0765 115.9615,425.58514 C 118.63768,426.12038 118.97875,426.69301 120.15943,432.63299 C 121.51204,439.43793 122.97942,441.18275 129.54865,443.79743 C 131.63299,444.62704 133.08279,446.28595 134.29865,449.23254 C 136.53845,454.66059 136.49959,456.14832 133.98944,461.06861 C 131.96946,465.02811 131.88383,465.07459 129.49386,463.50862 C 124.91885,460.51096 121.22085,463.28644 114.71807,474.5984 C 114.35578,475.22861 114.89833,476.7803 115.92372,478.0466 L 117.78806,480.34897 L 118.48574,478.15076 C 119.34678,475.43786 120.65061,475.34031 122.01347,477.88682 C 124.11265,481.80919 123.25215,485.55997 119.61698,488.33264 C 117.72957,489.77224 115.09175,491.36588 113.75516,491.87405 C 111.98517,492.54699 111.01596,494.02531 110.18737,497.31592 C 109.56168,499.80078 108.5995,502.11212 108.0492,502.45222 C 107.4989,502.79233 107.04588,504.95654 107.04249,507.26158 C 107.0391,509.56662 106.41336,512.64656 105.65195,514.10589 C 104.19993,516.88884 101.7091,523.74236 101.52813,525.45256 C 101.46993,526.00256 102.30857,528.25256 103.39179,530.45256 C 109.58389,543.02869 113.95365,554.48289 113.40034,556.68744 C 112.96377,558.42687 113.64122,560.10646 115.92621,562.94983 C 117.95984,565.48041 119.06636,567.98902 119.09944,570.14392 C 119.14457,573.08416 119.95182,574.02652 126.34944,578.60734 C 130.30901,581.44247 138.99397,588.44234 145.64937,594.16259 C 161.21005,607.53687 166.49644,611.37771 173.69061,614.53603 C 176.91253,615.95049 182.47365,618.39866 186.04865,619.9764 C 189.62365,621.55414 198.76031,624.44422 206.35234,626.39879 C 218.44776,629.51277 221.66537,629.95449 232.35234,629.96818 C 244.68653,629.98398 247.0344,630.38428 264.54865,635.45753 C 269.49865,636.89136 277.32477,638.70293 281.94002,639.48323 C 286.55527,640.26354 290.40397,641.02585 290.49268,641.17726 C 290.58139,641.32868 291.41777,642.67423 292.35131,644.16738 C 293.28485,645.66053 294.04865,648.42417 294.04865,650.3088 C 294.04865,653.33854 294.48297,653.90689 297.79865,655.21604 C 299.86115,656.03039 304.92365,657.49325 309.04865,658.46685 C 313.17365,659.44045 318.79865,661.07019 321.54865,662.08851 C 324.29865,663.10682 328.0249,664.22682 329.8292,664.57739 C 331.6335,664.92795 333.98987,666.33367 335.06558,667.70121 C 338.58773,672.1789 337.47668,672.40936 319.54865,670.91977 z M 105.6566,492.20256 C 107.22235,490.13994 107.48502,485.95256 106.04865,485.95256 C 105.49865,485.95256 105.04865,486.36794 105.04865,486.87564 C 105.04865,487.38333 103.66403,489.18333 101.97173,490.87564 L 98.894796,493.95256 L 101.61148,493.95256 C 103.10566,493.95256 104.92596,493.16506 105.6566,492.20256 z M 130.11725,234.47616 C 137.21327,229.71524 138.04865,228.17237 138.04865,219.82756 C 138.04865,215.4788 137.74725,215.34489 132.70289,217.45256 C 127.04612,219.81611 124.4841,219.41805 123.04865,215.95256 C 121.40704,211.98937 120.49053,212.16609 118.06897,216.91272 C 116.61412,219.76447 116.04865,222.82296 116.04865,227.84014 C 116.04865,234.17591 116.28746,234.99525 118.68351,236.87998 C 120.13268,238.0199 121.79692,238.95256 122.38183,238.95256 C 122.96673,238.95256 126.44767,236.93818 130.11725,234.47616 z M 220.54865,145.19986 C 221.66242,143.11304 223.43488,141.32194 224.54865,141.15777 C 225.64865,140.99564 227.5767,140.08198 228.8332,139.12741 C 230.9011,137.55643 231.05515,136.85922 230.45766,131.77551 C 229.91224,127.13483 229.37616,125.96718 227.37166,125.05387 C 225.27178,124.0971 224.05336,124.48678 218.3057,127.95335 C 213.85474,130.63785 211.24509,132.95839 210.38996,134.99215 C 209.2003,137.82151 209.36242,138.39464 212.79363,143.48936 C 214.81728,146.49412 216.94002,148.95134 217.51083,148.94986 C 218.08163,148.94837 219.44865,147.26087 220.54865,145.19986 z M 308.82614,140.39586 C 311.60209,138.45151 311.68161,136.95256 309.00881,136.95256 C 305.45705,136.95256 299.02523,133.01719 297.91006,130.16168 C 297.28314,128.55638 297.09956,124.36443 297.45951,119.87334 C 298.35505,108.69958 297.61692,106.14979 293.24953,105.33047 C 290.12755,104.74478 289.40733,105.01784 287.37495,107.55775 C 284.00139,111.77375 284.39676,116.4452 289.04865,127.33325 C 291.24865,132.4825 293.04865,137.18898 293.04865,137.7921 C 293.04865,141.30471 304.76747,143.23866 308.82614,140.39586 z M 234.03334,115.70256 C 234.02492,115.01506 233.61916,113.82259 233.13166,113.05264 C 232.39683,111.89204 231.80691,111.99756 229.68089,113.66988 C 228.27046,114.77932 227.40121,115.97179 227.74923,116.31981 C 228.91414,117.48471 234.04899,116.98035 234.03334,115.70256 z M 261.28515,113.30717 C 262.79023,112.54157 265.60273,110.52696 267.53515,108.83027 C 273.88031,103.25915 271.48458,98.95257 262.04025,98.95257 C 257.4204,98.95257 255.04865,101.60401 255.04865,106.76869 C 255.04865,109.2988 254.5497,110.27028 253.04865,110.66281 C 250.61658,111.29881 250.57172,111.76808 252.71643,114.13796 C 254.4682,116.07364 256.17128,115.90852 261.28515,113.30717 z M 506.909,619.76501 C 503.96109,618.98833 503.15335,618.22607 502.659,615.75432 C 500.95127,607.21567 501.38222,606.17743 514.63017,586.91318 C 521.55001,576.85083 528.95369,566.55211 531.08278,564.02713 C 533.21188,561.50215 537.26823,554.76241 540.0969,549.04992 C 544.20489,540.75386 545.51861,536.83108 546.62462,529.55807 C 547.38619,524.55004 548.46815,518.88053 549.02897,516.95916 C 550.91429,510.50009 550.00469,501.95256 547.43202,501.95256 C 546.67117,501.95256 546.04865,502.40421 546.04865,502.95624 C 546.04865,504.46924 517.00093,533.92588 513.9564,535.50027 C 510.0128,537.53958 504.55036,536.34911 503.08398,533.13075 C 502.02302,530.8022 502.17386,530.33678 504.5506,528.60545 C 508.04725,526.05832 529.99631,499.7025 538.00202,488.43794 C 541.47829,483.54659 544.72831,478.07491 545.22428,476.27865 C 545.72025,474.4824 549.9329,464.63703 554.58573,454.40006 L 563.04542,435.7874 L 564.12766,421.61999 C 565.41048,404.82657 564.81078,401.95257 560.02374,401.95257 C 558.33281,401.95257 555.66891,402.6147 554.10396,403.42397 C 552.53901,404.23323 549.52386,405.16681 547.40362,405.49857 C 543.89349,406.04782 543.21924,405.75966 539.86613,402.27718 C 535.88442,398.14183 534.45787,394.33216 536.00085,391.95479 C 536.85101,390.6449 537.42002,390.69776 540.53647,392.37608 L 544.09998,394.29515 L 547.32431,391.28253 C 549.0977,389.62559 551.93919,387.31911 553.63874,386.15701 C 556.96988,383.87929 570.10688,368.11087 574.39297,361.24557 C 578.71525,354.3223 582.56731,353.41366 592.04865,357.08089 C 602.31753,361.05272 603.78068,361.12675 607.49841,357.86254 C 609.32126,356.26206 611.33399,354.95257 611.97116,354.95257 C 614.18508,354.95257 619.33553,359.48758 623.92867,365.48126 C 626.46966,368.79704 632.25267,375.03615 636.7798,379.34594 L 645.01095,387.18192 L 646.0298,384.50215 C 646.59017,383.02827 647.04865,380.35167 647.04865,378.55414 C 647.04865,374.68612 647.55314,374.01023 649.96879,374.64194 C 651.44959,375.02918 652.0027,376.97462 653.05346,385.49156 C 653.75764,391.19934 654.04563,398.25056 653.69344,401.16095 C 650.52753,427.32256 648.81594,434.94208 645.60075,437.18726 C 643.63533,438.55972 643.32661,437.95763 642.27574,430.70257 C 641.25157,423.63173 641.23867,423.7173 641.75403,434.16511 C 642.15554,442.30492 641.86854,446.62782 640.55898,452.1651 C 638.38983,461.33705 633.42295,476.24164 630.83313,481.35038 C 629.74636,483.49418 627.38436,488.74039 625.58424,493.00863 C 623.78413,497.27686 617.89319,507.89784 612.49326,516.6108 C 603.26324,531.50375 586.1549,556.24001 583.55425,558.45256 C 582.90777,559.00256 577.78303,564.73457 572.16594,571.19037 C 558.61591,586.76357 532.07276,609.74326 519.04865,617.17657 C 513.18927,620.52072 511.30346,620.92282 506.909,619.76501 z M 478.24865,528.75256 C 477.58865,528.09256 477.04865,527.00056 477.04865,526.32588 C 477.04865,524.41528 473.87408,524.18302 470.29107,525.83148 C 467.11549,527.29249 466.95069,527.24995 463.74347,524.14138 C 461.28963,521.76303 459.54374,520.95256 456.87419,520.95256 C 453.63166,520.95256 452.47458,520.05885 444.57457,511.45256 C 436.9152,503.10842 435.44993,501.95256 432.53161,501.95256 C 429.79817,501.95256 428.2639,500.95951 423.87884,496.35208 C 420.94723,493.27182 416.37055,489.64367 413.70844,488.28952 C 411.04632,486.93538 406.85588,483.97253 404.39636,481.70542 C 400.67649,478.27656 400.02821,477.15198 400.5413,475.01798 C 402.38203,467.36213 409.47031,468.66766 423.56053,479.25768 C 428.78881,483.18719 432.09561,484.86598 436.56053,485.85752 C 442.02247,487.07046 443.18042,487.83603 449.73842,494.56993 C 453.77168,498.71139 457.77522,501.95256 458.85752,501.95256 C 459.91865,501.95256 464.10826,503.09744 468.16775,504.49674 C 472.22725,505.89604 477.46115,507.50748 479.79865,508.07772 C 483.22159,508.91276 484.04865,509.54944 484.04865,511.3494 C 484.04865,512.89154 485.21387,514.23917 487.80783,515.69706 C 491.35591,517.69119 496.04865,522.83942 496.04865,524.73775 C 496.04865,525.21415 495.00715,526.58237 493.7342,527.77825 C 491.89008,529.51071 490.2034,529.95256 485.4342,529.95256 C 482.11211,529.95256 478.91467,529.41858 478.24865,528.75256 z M 286.54865,488.41645 C 284.89865,487.66092 280.71822,487.02247 277.25881,486.99766 C 270.78778,486.95126 266.84659,485.49429 258.81558,480.17963 C 255.46778,477.96416 254.29389,477.73932 248.50177,478.20426 C 240.82514,478.82047 232.9332,476.41671 229.29865,472.35529 C 226.35576,469.06677 226.45367,468.28499 230.08497,466.07667 L 233.12129,464.23017 L 230.60578,462.58195 C 226.8589,460.1269 224.74497,455.38483 225.53061,451.19705 C 226.10193,448.15164 225.96148,447.77203 224.47449,448.34264 C 223.46622,448.72955 221.99046,448.30489 220.89355,447.3122 C 219.13262,445.71858 218.88841,445.75447 216.55084,447.95051 C 214.1617,450.19499 213.83449,450.23462 207.31131,449.06958 C 201.71132,448.06942 198.91537,448.12677 191.04865,449.40314 C 185.82365,450.2509 180.02586,450.94633 178.16467,450.94854 C 172.56948,450.95519 167.60075,452.92655 165.9452,455.79665 C 164.89753,457.61292 162.6448,459.04764 158.81949,460.33488 C 153.27869,462.19939 153.17528,462.19762 147.88722,460.14764 C 144.951,459.00939 141.76115,457.83897 140.79865,457.54671 C 139.63799,457.19428 139.04865,456.0031 139.04865,454.00962 C 139.04865,449.6857 143.80504,447.26339 149.1506,448.86496 C 152.40343,449.83953 153.37559,449.72434 156.15305,448.03526 C 160.35983,445.47697 162.04865,441.22901 162.04865,433.20579 C 162.04865,425.69226 164.18069,421.27254 169.34906,418.07205 C 173.58761,415.44734 176.04865,411.05716 176.04865,406.12086 C 176.04865,402.9909 176.61947,401.64872 178.6198,400.07526 C 181.04999,398.16367 181.37502,398.14056 184.5481,399.6537 C 188.8607,401.71024 192.92143,400.22469 196.23474,395.37834 C 197.50739,393.51684 199.77123,391.48611 201.26549,390.8656 C 202.75976,390.24509 204.50236,389.11081 205.13794,388.34498 C 206.85521,386.2758 207.7544,386.63795 208.50865,389.70257 C 210.77912,398.92778 218.94976,405.78009 240.40516,416.45257 C 252.06534,422.25265 252.5131,422.59439 253.84336,426.7088 C 254.60022,429.04973 255.63104,430.71067 256.13406,430.39978 C 257.58275,429.50444 257.19692,422.53086 255.58045,420.3937 C 254.77295,419.32608 254.09795,418.1873 254.08045,417.86309 C 254.01694,416.68577 259.32678,414.90607 261.16356,415.48904 C 262.20036,415.81811 263.04865,415.80244 263.04865,415.45422 C 263.04865,413.27963 260.15757,410.51251 254.16758,406.95392 C 248.29973,403.46789 246.76349,402.9707 243.43413,403.48017 C 239.85897,404.02724 239.1195,403.69563 234.17534,399.32823 C 221.91314,388.49647 217.98188,380.19201 223.42735,376.62401 C 225.65757,375.16271 225.94674,375.21519 228.06009,377.46475 C 229.29982,378.78438 230.5919,379.8307 230.93139,379.7899 C 234.48012,379.36347 236.19935,380.32143 237.95336,383.70257 C 242.06573,391.62984 244.9048,393.82125 252.54865,394.96832 C 256.39865,395.54607 260.99214,396.4825 262.7564,397.04928 C 266.68317,398.31078 270.04865,403.42567 270.04865,408.13211 C 270.04865,411.15207 270.84807,412.23689 276.54865,416.95257 C 281.73237,421.24069 283.04865,422.8989 283.04865,425.14107 C 283.04865,427.28455 283.52317,427.95257 285.04577,427.95257 C 286.14418,427.95257 288.78623,429.52757 290.91697,431.45257 C 293.30131,433.60668 295.81518,434.95257 297.45429,434.95257 C 300.07195,434.95257 300.10618,434.86699 299.45426,429.95257 L 298.79099,424.95257 L 302.70421,424.95257 C 305.99176,424.95257 306.90078,425.43223 308.38958,427.95257 C 310.20287,431.02223 311.55408,431.5528 313.84982,430.09662 C 314.88738,429.43849 314.90682,428.7354 313.94578,426.62614 C 313.08149,424.72922 311.15767,423.41429 307.14461,421.97754 C 298.55598,418.90264 296.88917,417.79103 292.82393,412.42688 C 289.66176,408.25433 289.33577,407.40323 290.8014,407.14648 C 291.76239,406.97813 293.7815,406.36296 295.28833,405.77944 C 297.45166,404.94167 297.91013,404.24886 297.46771,402.4861 C 296.87954,400.14266 297.30819,399.86657 306.21419,396.85244 C 309.36155,395.78725 310.2451,395.85127 312.46419,397.30527 C 314.72094,398.78395 315.04865,399.69074 315.04865,404.45657 C 315.04865,409.47083 315.25563,409.96641 317.595,410.55356 C 320.04694,411.16896 320.07623,411.26462 318.38476,413.13366 C 316.87323,414.80389 316.83188,415.20352 318.08841,415.99831 C 318.89154,416.50631 319.88615,416.92884 320.29865,416.93726 C 320.71115,416.94568 321.04865,417.85257 321.04865,418.95257 C 321.04865,420.55786 321.71532,420.95257 324.42668,420.95257 C 326.81489,420.95257 328.24801,421.61186 329.3176,423.20257 C 330.81321,425.42686 330.86636,425.43173 333.96786,423.62933 C 336.07128,422.40695 338.05694,422.01512 339.99309,422.44037 C 341.58143,422.78922 344.44566,422.78111 346.35806,422.42235 C 349.20554,421.88816 349.94334,421.22911 350.43262,418.78272 L 351.03008,415.7954 L 359.29094,416.11897 C 368.83819,416.49294 370.72939,415.56969 378.41638,406.7823 L 382.87947,401.68032 L 383.95848,405.56644 C 384.55194,407.70381 385.04001,410.51261 385.04307,411.80821 C 385.04614,413.10382 386.2068,415.54024 387.62232,417.22249 C 389.44608,419.38991 389.99342,420.88886 389.50075,422.36685 C 389.11837,423.514 388.59202,426.33846 388.33109,428.64344 C 387.94448,432.05861 388.33717,433.46428 390.45266,436.23783 C 391.96024,438.21437 393.04865,440.94425 393.04865,442.74892 C 393.04865,447.0664 386.62688,451.42786 377.90312,453.03528 C 372.2953,454.06856 371.04918,454.0042 368.20703,452.53446 C 366.41333,451.6069 364.69576,450.19652 364.39021,449.40027 C 364.05636,448.53026 362.48072,447.95256 360.44166,447.95256 C 357.64531,447.95256 357.04865,448.32746 357.04865,450.08453 C 357.04865,451.25711 356.1041,453.74481 354.94964,455.61276 C 353.24466,458.37148 353.08369,459.28985 354.09214,460.50496 C 355.61772,462.34318 355.63963,462.32136 349.52816,465.05066 C 344.52469,467.28513 335.13467,469.11979 329.54865,468.95433 C 327.89865,468.90546 324.14474,468.8752 321.20662,468.88711 C 318.26851,468.89901 314.56179,468.23503 312.96946,467.41161 C 310.22243,465.99107 309.71802,466.09392 303.10893,469.4222 C 296.89608,472.55094 296.07248,473.30859 295.48603,476.43467 C 295.12441,478.36228 295.12636,481.12606 295.49038,482.57641 C 295.98308,484.53948 295.5833,485.819 293.92612,487.58298 C 291.4075,490.26393 290.7465,490.33861 286.54865,488.41645 z M 321.79865,444.009 C 324.50746,441.74923 324.57961,441.07611 322.29865,439.34462 C 319.7115,437.38069 317.66669,437.66579 315.15363,440.34082 C 313.73964,441.84595 312.19607,442.54238 310.97932,442.22419 C 308.56973,441.59407 308.4398,443.49856 310.79865,444.87246 C 313.60113,446.50476 319.34769,446.05367 321.79865,444.009 z M 248.85226,444.30825 C 250.72893,443.80561 251.09961,443.11313 250.85226,440.57192 C 250.58639,437.84035 250.17571,437.45246 247.54865,437.45168 C 245.89865,437.4512 243.00329,436.79978 241.11451,436.00409 C 238.40644,434.86326 237.59142,434.82425 237.25964,435.8196 C 237.02823,436.51382 235.76109,437.4916 234.44378,437.99244 C 232.75298,438.63528 232.04865,439.67824 232.04865,441.53911 C 232.04865,443.96968 232.30197,444.12831 235.29865,443.5743 C 237.08615,443.24385 239.89865,443.38009 241.54865,443.87706 C 245.34941,445.02184 246.03655,445.06241 248.85226,444.30825 z M 213.00975,430.7128 C 214.42332,428.19436 214.33092,427.1682 211.79413,417.21244 C 210.28411,411.28634 209.04176,405.31605 209.03334,403.94514 C 209.02492,402.57422 208.61318,400.81293 208.11838,400.03115 C 206.63774,397.69178 204.04865,405.379 204.04865,412.11453 C 204.04865,415.9901 203.3817,419.33958 202.11597,421.82062 C 200.22395,425.52928 200.22268,425.66904 202.05572,428.46335 C 204.14429,431.6472 207.78497,434.0305 210.01428,433.67327 C 210.82037,433.5441 212.16833,432.21189 213.00975,430.7128 z M 515.54865,420.81367 C 513.89865,420.28183 509.62365,420.09649 506.04865,420.40181 C 500.15797,420.90491 498.96277,420.66149 493.29865,417.80514 C 487.0513,414.65468 487.04865,414.65147 487.04865,410.23722 C 487.04865,400.99384 490.15906,399.9422 501.44412,405.3701 C 507.87471,408.46309 508.99651,408.7041 513.25729,407.9081 C 520.30464,406.59151 527.20032,402.6314 529.92802,398.33428 C 532.17102,394.80075 532.38593,394.69335 533.67802,396.46037 C 535.93705,399.54979 535.26239,403.57185 531.09476,411.86087 C 527.87417,418.26629 526.54824,419.93136 523.94553,420.83867 C 520.25689,422.12454 519.60951,422.12261 515.54865,420.81367 z M 315.56454,383.56229 C 312.79812,379.93533 312.77987,379.81274 313.26241,368.09626 C 313.61928,359.43123 314.36427,354.44422 316.05996,349.36937 C 317.33109,345.56513 318.50943,341.89007 318.6785,341.20257 C 319.04472,339.71328 327.70865,339.4926 331.35684,340.87964 C 332.69795,341.38953 334.06646,342.88739 334.39796,344.2082 C 334.97411,346.50375 338.63373,348.95257 341.48814,348.95257 C 342.2281,348.95257 344.51422,346.7487 346.5684,344.05508 C 348.62258,341.36146 351.39216,338.66146 352.72302,338.05508 C 355.69945,336.69892 361.38961,336.64451 366.04865,337.92765 C 367.97365,338.45782 374.27365,339.59524 380.04865,340.45527 C 391.87417,342.21635 394.68721,343.95045 395.68413,350.09375 C 396.19129,353.21899 395.88545,353.90629 393.03815,356.04 C 391.26746,357.36691 388.35641,359.93646 386.56914,361.75011 C 383.61699,364.74582 382.55201,365.12781 374.9341,365.92346 C 370.3221,366.40516 365.75768,367.10824 364.79093,367.48587 C 363.78958,367.87702 362.01007,367.50209 360.65555,366.61457 C 358.04552,364.90441 357.04865,365.32027 357.04865,368.11924 C 357.04865,370.33386 354.76773,370.52394 353.04865,368.45257 C 351.25058,366.28603 350.44583,366.57948 349.06884,369.90382 C 348.3965,371.52701 346.81781,373.52903 345.56064,374.35276 C 344.30348,375.17648 342.28054,377.45933 341.06523,379.42575 C 338.10905,384.20894 334.24787,386.0161 325.58435,386.67132 L 318.35306,387.21822 L 315.56454,383.56229 z M 449.75688,352.45362 C 447.25636,349.31975 446.90184,347.91617 446.35862,338.99953 L 445.75212,329.04432 L 436.53109,325.47146 C 425.30957,321.12348 419.36368,317.30078 414.16586,311.09257 C 409.30158,305.28272 408.20567,300.53129 410.5772,295.53366 C 411.52025,293.54631 412.63505,291.70819 413.05452,291.44894 C 414.13893,290.77874 427.49909,298.28536 433.6028,302.99435 C 437.92434,306.32839 439.24973,306.86235 441.89209,306.33388 C 444.80318,305.75166 445.63228,306.30378 453.0286,313.74996 C 457.4238,318.17477 463.01125,323.42687 465.44516,325.42128 C 471.04049,330.00623 477.48741,339.22679 476.79238,341.65039 C 476.50813,342.64159 475.9651,344.20426 475.58565,345.123 C 475.07289,346.36451 475.49311,346.88109 477.2222,347.13482 L 479.54865,347.47621 L 476.99008,349.20397 C 474.16526,351.11152 465.83793,352.95257 460.0346,352.95257 C 457.92916,352.95257 455.74926,353.60838 455.04865,354.45257 C 453.30589,356.55246 452.90718,356.40185 449.75688,352.45362 z M 344.79865,338.35014 C 343.28615,337.54635 342.05092,336.34057 342.05369,335.67063 C 342.06202,333.65477 349.48863,324.49152 351.41474,324.12058 C 354.65231,323.49709 357.68588,324.86095 358.87721,327.47565 C 360.59156,331.23823 360.34176,332.2745 357.29233,334.05042 C 355.7833,334.92924 352.97365,336.58501 351.04865,337.72993 C 347.86086,339.6259 347.30334,339.68122 344.79865,338.35014 z" id="path2404" style="fill:#1b48b8;fill-opacity:1;stroke:none;stroke-width:1.29999995;stroke-miterlimit:4;stroke-dasharray:none;stroke-opacity:1"/>
    <path d="M 601.66669,233.6342 A 259.41992,174.24892 0 1 1 82.826843,233.6342 A 259.41992,174.24892 0 1 1 601.66669,233.6342 z" transform="matrix(0, 0.720815, -1.40359, 0, 671.048, -26.9716)" id="path3285" style="fill:url(#linearGradient2532);fill-opacity:1;fill-rule:nonzero;stroke:none;stroke-opacity:1"/>
    <g transform="matrix(1, 0, 0, 0.983663, -12, 4.60411)" id="g2496">
      <path d="M 268.93991,705.06635 C 264.99887,704.23915 261.38066,703.1831 260.89944,702.7196 C 258.81624,700.71312 281.16262,692.14047 317.56307,680.98195 C 354.3973,669.69045 373.83879,660.97198 384.85031,650.8072 C 388.46091,647.47425 392.286,643.06257 393.35054,641.00345 L 395.28606,637.2596 L 384.77516,629.6491 C 371.33852,619.9202 350.29255,601.71611 343.57843,594.01526 C 331.73446,580.43066 326.83273,571.75019 326.80218,564.30622 C 326.77717,558.21021 329.5569,554.00245 335.47756,551.17415 L 340.28471,548.87777 L 352.96161,561.35732 C 363.20188,571.43815 365.88794,573.59041 366.93603,572.55467 C 369.11454,570.40181 368.25173,547.93872 365.20302,527.43634 C 361.83788,504.80596 360.98819,490.91711 362.48393,482.99045 C 364.13696,474.23034 368.98987,465.15143 374.64503,460.23926 C 380.18114,455.43051 379.16993,454.35021 384.12204,470.36378 C 390.82948,492.05357 399.51455,503.65699 412.06295,507.69339 C 414.21193,508.38464 416.11381,508.79127 416.28933,508.597 C 416.46486,508.40274 415.33391,503.24364 413.77613,497.13233 C 408.40282,476.05238 407.16904,464.37092 407.21474,435.0091 C 407.2498,412.48624 407.61804,405.94058 409.53642,393.7395 C 413.91122,365.91534 420.92172,343.47895 431.48167,323.50594 C 435.71809,315.4932 439.10583,310.95434 447.92038,301.48156 C 454.02682,294.91911 459.38068,289.54984 459.81785,289.54984 C 460.25502,289.54984 466.2645,298.8795 473.17223,310.28243 C 480.07998,321.68536 485.9243,330.82504 486.1596,330.59284 C 486.39492,330.36063 485.61611,320.91732 484.42893,309.60771 C 479.84004,265.8923 479.26301,258.15619 479.24085,240.05328 C 479.20852,213.63938 480.92322,202.96909 487.4384,189.04152 C 492.11635,179.04142 498.76277,172.19676 507.88634,167.98368 L 514.47111,164.94297 L 530.40946,181.04921 C 548.39347,199.22264 553.29857,205.82613 557.08431,216.9603 L 559.72176,224.71727 L 565.23404,211.01766 C 587.07302,156.74154 588.86159,129.54308 571.82168,110.84077 C 564.94937,103.29801 554.67187,97.020435 525.51738,82.55773 C 511.0759,75.39373 497.18725,68.325703 494.65373,66.850999 L 490.04733,64.16973 L 498.74832,64.80868 C 537.37235,67.645004 574.7077,78.667443 604.70958,96.091435 C 626.53771,108.7684 649.60526,129.40901 663.24814,148.47112 C 675.98964,166.27382 686.69708,190.63406 691.15341,211.95775 C 693.51415,223.25404 695.28825,238.54222 695.28825,247.58948 C 695.28825,257.92379 697.89072,256.22596 706.50559,240.27137 C 709.57858,234.58021 712.57275,230.07281 713.15928,230.25492 C 715.12815,230.86626 726.96364,255.61845 729.49064,264.4096 C 741.95899,307.78541 730.814,352.5349 691.47899,417.0344 L 681.18783,433.90931 L 685.79388,434.59091 C 695.9164,436.08883 719.70373,432.81871 731.6836,428.28228 C 733.36104,427.64707 733.44619,428.26497 732.84089,436.67989 C 731.57602,454.26449 727.73797,467.90789 719.24489,485.01072 C 704.0984,515.51179 675.89,540.00691 645.38554,549.14746 C 641.30375,550.37055 637.96411,551.61236 637.96411,551.90703 C 637.96411,552.2017 645.79499,552.1125 655.36608,551.70881 L 672.76806,550.97482 L 672.76806,553.64257 C 672.76806,558.74955 669.49397,571.91888 666.85217,577.43796 C 663.28374,584.89293 654.91515,592.96912 646.9454,596.64919 C 637.19873,601.14976 626.67752,603.41266 597.53012,607.27743 C 573.09953,610.51678 563.63541,612.06142 562.73182,612.95685 C 562.54265,613.14432 574.90129,617.80384 590.19544,623.31132 C 605.48961,628.8188 618.4085,633.67361 618.90408,634.0998 C 619.9909,635.03442 619.91064,635.04864 585.24637,640.06626 C 570.04523,642.2666 556.06551,644.33214 554.18033,644.65633 L 550.75271,645.24578 L 551.3653,653.26242 C 551.70222,657.67157 552.26135,664.97346 552.6078,669.48884 L 553.23771,677.69861 L 548.76913,674.60454 C 546.3114,672.90281 540.2129,668.13394 535.2169,664.00706 C 530.2209,659.88019 523.76242,655.08574 520.86473,653.35274 C 514.64792,649.63469 503.17497,646.58241 499.15692,647.57756 C 496.40574,648.25896 496.58341,648.5044 508.02456,659.82664 C 514.44586,666.18121 519.37244,671.3804 518.97251,671.3804 C 518.57258,671.3804 496.9739,667.05468 470.97545,661.76767 C 436.62572,654.78237 422.6996,652.33562 420.0252,652.81601 C 413.36882,654.01164 399.08859,659.34936 390.75371,663.75721 C 386.24968,666.13914 374.27303,672.99999 364.13894,679.00355 C 327.79616,700.53345 310.09074,706.83943 286.50774,706.65273 C 280.78646,706.60744 272.88094,705.89357 268.93991,705.06635 z" transform="matrix(0.9901, 0, 0, 0.982973, -13.7339, -2.4074)" id="path3328" style="fill:#000000;fill-opacity:1;filter:url(#filter3450)"/>
      <path d="M 244.66084,673.94633 C 240.81084,673.12742 237.27621,672.08197 236.8061,671.62312 C 234.77103,669.63677 256.60121,661.15012 292.16084,650.10354 C 328.14423,638.92532 347.13664,630.29432 357.8938,620.23151 C 361.42099,616.932 365.15773,612.56457 366.19768,610.52611 L 368.08849,606.81982 L 357.82038,599.28567 C 344.69412,589.65437 324.1343,571.63291 317.57527,564.00931 C 306.00489,550.56099 301.21638,541.96761 301.18654,534.59832 C 301.1621,528.56346 303.87763,524.39792 309.66152,521.59799 L 314.35763,519.32465 L 326.74171,531.679 C 336.74543,541.6587 339.36944,543.78937 340.39332,542.76402 C 342.52151,540.63276 341.67863,518.39502 338.70034,498.09832 C 335.41293,475.69497 334.58288,461.94545 336.04407,454.09832 C 337.65891,445.42609 342.39972,436.43826 347.92425,431.57537 C 353.33248,426.81486 352.34463,425.7454 357.18235,441.59832 C 363.73486,463.07051 372.21931,474.55753 384.47784,478.55343 C 386.57719,479.23775 388.43513,479.6403 388.6066,479.44798 C 388.77807,479.25567 387.67325,474.14832 386.15145,468.09832 C 380.90226,447.22985 379.69698,435.66558 379.74163,406.59832 C 379.77587,384.30141 380.1356,377.82142 382.00967,365.74274 C 386.28342,338.19772 393.13198,315.98641 403.448,296.21377 C 407.58656,288.28142 410.89606,283.78809 419.50699,274.41034 C 425.47238,267.91373 430.70257,262.59832 431.12964,262.59832 C 431.55671,262.59832 437.42737,271.83439 444.17555,283.12292 C 450.92373,294.41146 456.63305,303.45945 456.86292,303.22957 C 457.0928,302.99969 456.33198,293.65112 455.17222,282.45497 C 450.68933,239.17812 450.12563,231.51962 450.10398,213.59832 C 450.0724,187.4494 451.7475,176.88616 458.11218,163.09831 C 462.68207,153.19853 469.17496,146.42254 478.08778,142.25173 L 484.52045,139.24152 L 500.09064,155.18618 C 517.65923,173.17729 522.45102,179.71454 526.14932,190.73701 L 528.72585,198.41616 L 534.1108,184.85399 C 555.44531,131.12237 557.19256,104.19677 540.54626,85.682084 C 533.8327,78.214994 523.7926,72.000391 495.31156,57.682788 C 481.20366,50.590658 467.63584,43.593537 465.16084,42.133629 L 460.66084,39.479251 L 469.16084,40.111791 C 506.89269,42.91966 543.36562,53.831528 572.67448,71.080715 C 593.9984,83.630507 616.5331,104.06404 629.86084,122.93492 C 642.30803,140.55902 652.76813,164.67488 657.12151,185.78464 C 659.42772,196.96761 661.16085,212.10242 661.16085,221.05891 C 661.16085,231.28955 663.70321,229.60875 672.11907,213.81422 C 675.12109,208.18015 678.04609,203.71797 678.61907,203.89826 C 680.54246,204.50346 692.10455,229.00734 694.57319,237.71029 C 706.75352,280.65095 695.86598,324.95151 657.43958,388.80394 L 647.38614,405.50956 L 651.88579,406.18432 C 661.77449,407.66722 685.01234,404.4299 696.71549,399.93898 C 698.35418,399.31015 698.43737,399.92185 697.84605,408.25235 C 696.61039,425.66054 692.861,439.16707 684.56411,456.09832 C 669.76749,486.2934 642.21069,510.54278 612.41085,519.59163 C 608.42335,520.80245 605.16085,522.0318 605.16085,522.32352 C 605.16085,522.61523 612.81085,522.52693 622.16085,522.12729 L 639.16085,521.40066 L 639.16085,524.04165 C 639.16085,529.09739 635.96239,542.13461 633.38162,547.59832 C 629.89561,554.9785 621.72033,562.97367 613.93468,566.61682 C 604.41315,571.07224 594.13497,573.31244 565.66085,577.13844 C 541.7946,580.34529 532.54909,581.87443 531.66638,582.76088 C 531.48157,582.94647 543.55473,587.55924 558.49561,593.01147 C 573.43649,598.4637 586.05696,603.26981 586.5411,603.69172 C 587.60281,604.61696 587.5244,604.63104 553.66085,609.59832 C 538.81085,611.77659 525.15405,613.82141 523.31241,614.14235 L 519.96398,614.72588 L 520.56241,622.6621 C 520.89155,627.02702 521.43776,634.25565 521.77621,638.72573 L 522.39157,646.85314 L 518.02621,643.79011 C 515.62525,642.10545 509.66763,637.38443 504.78703,633.29895 C 499.90643,629.21348 493.59714,624.46713 490.76638,622.75151 C 484.69317,619.07076 473.48524,616.0491 469.56001,617.03427 C 466.87237,617.70883 467.04595,617.95181 478.22281,629.16047 C 484.49578,635.45129 489.30856,640.59832 488.91787,640.59832 C 488.52718,640.59832 467.42741,636.31599 442.02951,631.08202 C 408.47323,624.1668 394.86879,621.7446 392.25617,622.22017 C 385.75355,623.4038 371.80318,628.68797 363.66084,633.0516 C 359.26084,635.40964 347.56084,642.20166 337.66084,648.14499 C 302.15756,669.4589 284.86111,675.70162 261.82287,675.51679 C 256.23375,675.47196 248.51084,674.76525 244.66084,673.94633 z" id="path2386" style="fill:#feb618;fill-opacity:1;stroke:#6b4900;stroke-width:5;stroke-linecap:round;stroke-linejoin:miter;stroke-miterlimit:4;stroke-dasharray:none;stroke-opacity:1"/>
      <g transform="translate(328.086, 182.086)" id="g3321">
        <path d="M -64.155844,492.68823 C -69.930844,491.99168 -78.930844,491.33462 -84.155844,491.22809 C -100.97347,490.88522 -100.82454,490.69764 -75.525782,480.35832 C -34.019854,463.3953 -15.493795,453.26623 11.108726,432.99115 C 35.446346,414.44226 75.565736,377.20439 113.75527,337.71707 C 151.47677,298.71367 189.53951,250.17255 213.32716,210.73377 C 222.98221,194.72616 236.11016,167.53356 240.80193,153.82389 C 247.68823,133.70161 257.03981,91.800906 260.84961,63.9982 C 261.50797,59.193639 262.64598,52.397506 263.3785,50.052067 L 267.23339,-10.980322 L 264.77726,51.296383 C 263.61608,58.454199 262.02216,86.924666 259.7245,102.23377 C 254.67087,135.90571 247.70661,164.86519 239.75694,185.26483 C 233.79447,200.56511 220.18087,227.81616 210.29827,244.23377 C 162.40686,323.79409 70.950036,427.12346 15.344156,464.49603 C 1.3772758,473.88313 -19.678324,484.3001 -36.471477,490.13109 C -49.293194,494.58311 -48.813267,494.53878 -64.155844,492.68823 z" id="path2394" style="fill:#95661a"/>
        <path d="M -63.266234,493.82799 C -69.041234,493.11529 -76.578734,492.48986 -80.016234,492.43816 C -83.678722,492.38308 -86.266234,491.90688 -86.266234,491.28793 C -86.266234,489.45581 -77.29439,486.16884 -66.842904,484.1719 C -49.383588,480.83599 -44.578848,479.45482 -32.695679,474.35592 C -15.607707,467.02371 0.88506636,457.41777 17.667976,445.02244 C 37.960216,430.03524 77.338716,392.69779 111.98218,355.59673 C 153.57475,311.05358 197.28389,253.7011 220.77594,212.84416 C 227.4913,201.16493 241.2556,173.13593 244.30307,164.93457 C 247.57916,156.11796 246.88345,161.77254 243.374,172.48597 C 230.37372,212.17229 205.58791,255.23635 163.16546,311.84416 C 115.75609,375.10644 51.439306,441.06148 11.667276,467.20126 C -4.4966386,477.82484 -38.784693,493.23807 -49.455536,494.67729 C -51.27642,494.92288 -57.491234,494.54069 -63.266234,493.82799 z" id="path2392" style="opacity:1;fill:#7a380c;filter:url(#filter3317)"/>
      </g>
      <path d="M 491.20666,45.923828 C 528.32666,53.343828 547.45666,62.083828 578.20666,84.213828 C 586.03666,89.853828 604.79666,103.97383 610.20666,110.92383 C 605.16666,116.08383 593.08666,128.52383 591.20666,134.92383 C 591.20666,134.92383 587.20666,135.92383 587.20666,135.92383 C 570.05666,96.333828 534.60666,74.373828 497.20666,56.703828 C 497.20666,56.703828 462.20666,41.923828 462.20666,41.923828 C 470.13666,42.093828 483.23666,44.333828 491.20666,45.923828 z" id="path3906" style="fill:url(#linearGradient2535);fill-opacity:1;stroke:none;stroke-width:1"/>
      <path d="M 595.20666,148.92383 C 595.20666,148.92383 594.20666,149.92383 594.20666,149.92383 C 594.20666,149.92383 594.20666,148.92383 594.20666,148.92383 C 594.20666,148.92383 595.20666,148.92383 595.20666,148.92383 z" id="path3904" style="fill:#ffffff;fill-opacity:0.93650794;stroke:none;stroke-width:1"/>
      <path d="M 478.01325,185.83258 C 486.6845,206.77311 499.85913,224.2564 515.33812,240.61397 C 523.74781,249.49737 533.22541,258.47444 544.85858,262.81823 C 539.37482,278.01933 522.06406,301.18262 510.91479,312.93995 C 507.07006,316.99732 498.11364,325.84241 492.76458,327.14814 C 487.03065,328.54803 484.793,323.03672 482.65505,318.80166 C 477.78352,309.13635 473.90084,297.81622 470.62126,287.49045 C 462.23932,261.07127 457.81622,237.88175 456.41076,210.22559 C 455.8005,198.20026 458.01448,181.98085 462.45493,170.77248 C 464.63553,165.25594 467.17896,162.18154 470.13862,157.26763 C 470.13862,157.26763 478.01325,185.83258 478.01325,185.83258 z" id="path3902" style="fill:url(#linearGradient2537);fill-opacity:1;stroke:none;stroke-width:1"/>
      <path d="M 689.98616,244.69536 C 693.76464,268.35695 691.3961,295.39092 681.56008,317.68111 C 678.06688,325.5966 669.88369,337.94795 664.86652,345.48036 C 655.98357,358.80624 643.06722,379.01111 624.21069,378.4887 C 609.02125,378.06429 604.83491,366.17601 602.7413,354.20027 C 599.21169,334.00163 599.15871,301.5942 611.693,284.16166 C 622.14854,269.62291 636.94454,265.53263 650.2208,255.5643 C 664.85258,244.57314 674.96806,230.4526 682.1493,214.27429 C 686.71342,220.50499 688.73011,236.80484 689.98616,244.69536 z" id="path3900" style="fill:url(#linearGradient2539);fill-opacity:1;stroke:none;stroke-width:1"/>
      <path d="M 432.50945,288.23415 C 434.02769,297.62354 436.07318,309.35299 438.88872,318.35607 C 446.65524,343.18252 465.0131,368.03297 465.13189,394.84965 C 465.2157,414.29444 449.82653,434.30589 435.2026,445.84994 C 429.25565,450.54178 419.94638,456.42224 412.02876,455.12699 C 401.56818,453.42508 396.25338,445.99647 393.06612,436.5365 C 388.0763,421.74261 388.10742,405.8505 388.20974,390.43981 C 388.20974,390.43981 387.48309,380.42481 387.48309,380.42481 C 387.48309,380.42481 389.01261,362.44982 389.01261,362.44982 C 393.26394,332.39265 410.49839,295.7322 429.38313,272.17419 C 431.51325,276.55396 431.71082,283.23869 432.50945,288.23415 z" id="path3898" style="fill:url(#linearGradient2541);fill-opacity:1;stroke:none;stroke-width:1"/>
      <path d="M 685.83222,437.13455 C 678.91628,453.43908 668.54029,472.87579 655.85935,485.28709 C 644.67905,496.22878 628.76389,504.86066 614.01596,509.92502 C 606.7917,512.41124 596.63128,515.50624 589.05264,515.74469 C 586.32309,515.82213 582.58406,515.98603 580.08695,514.88197 C 569.58688,510.20898 565.9088,490.18208 565.8231,479.90242 C 565.67454,461.35299 566.98402,444.05426 574.79418,426.844 C 580.17846,414.97935 587.2977,407.01368 601.36425,407.9938 C 618.91246,409.22167 630.67204,418.50671 650.4315,418.36042 C 666.33106,418.2388 681.49872,413.13175 696.36665,408.06663 C 694.45179,416.69905 689.35923,428.83184 685.83222,437.13455 z" id="path3896" style="fill:url(#linearGradient2543);fill-opacity:1;stroke:none;stroke-width:1"/>
      <path d="M 355.00808,448.53045 C 357.75123,457.43358 362.71707,469.40902 368.32942,476.7858 C 380.08087,492.24937 395.52676,486.2286 395.17957,506.29562 C 395.00581,516.60417 388.85659,538.85254 382.70111,547.06831 C 378.88443,552.17748 373.18519,556.87119 366.36914,555.53286 C 362.11399,554.70275 360.44857,551.25083 358.79653,547.61915 C 355.72302,540.8602 353.77851,533.63238 351.87248,526.4853 C 351.87248,526.4853 343.80698,487.32679 343.80698,487.32679 C 342.0294,477.07158 338.52479,459.19257 340.84179,449.26435 C 342.39745,442.5924 345.82574,437.92601 349.63977,432.42673 C 352.89101,436.64858 353.41459,443.3796 355.00808,448.53045 z" id="path3894" style="fill:url(#linearGradient2545);fill-opacity:1;stroke:none;stroke-width:1"/>
      <path d="M 328.41446,569.70819 C 318.4873,560.6685 307.86205,550.80202 306.63092,536.6831 C 306.36202,533.55922 304.91256,525.44873 308.63281,524.01591 C 310.82099,523.18542 313.4922,525.11188 315.19008,526.28393 C 319.88942,529.54409 325.9822,535.42969 330.37367,539.4215 C 334.74647,543.39206 338.51899,546.88287 343.7325,549.78548 C 346.16977,551.14565 352.2818,553.63539 353.78674,555.46636 C 355.8311,557.9435 354.86533,563.73323 354.65395,566.84609 C 354.23991,572.78173 352.67734,582.22055 350.30457,587.60862 C 344.94596,584.31583 333.41103,574.26023 328.41446,569.70819 z" id="path3892" style="fill:url(#linearGradient2547);fill-opacity:1;stroke:none;stroke-width:1"/>
      <path d="M 515.42302,559.74034 C 515.26328,549.07161 524.6082,534.0737 534.71024,530.37089 C 548.03924,525.48871 570.68206,535.90153 585.1502,536.48242 C 597.03817,536.96297 623.74122,527.45643 636.60783,525.64628 C 633.91251,536.31078 622.81954,553.80441 613.54581,559.69282 C 606.81286,563.97098 593.0398,567.24623 585.02906,568.84406 C 566.38354,572.56299 547.297,575.41605 528.23381,574.02058 C 529.73136,577.3793 530.84595,580.87047 533.36153,583.64909 C 537.17334,587.87489 543.08155,590.25585 548.32123,592.16482 C 548.32123,592.16482 572.77894,599.3368 572.77894,599.3368 C 577.24467,600.3392 586.41956,601.87905 590.0487,603.48103 C 577.93972,607.81144 556.44931,609.46206 543.36027,610.20331 C 537.07031,610.55914 531.13777,610.34324 525.19727,607.92409 C 515.4714,603.97216 505.0521,587.40921 511.4008,577.21338 C 513.58052,573.70087 517.4896,572.88252 521.07142,571.43209 C 515.99309,568.85261 515.50463,565.10465 515.42302,559.74034 z" id="path3890" style="fill:url(#linearGradient2549);fill-opacity:1;stroke:none;stroke-width:1"/>
      <path d="M 449.45016,627.34637 C 445.70605,626.16275 439.52698,624.94129 436.90703,622.01909 C 429.80097,614.1057 441.24824,598.021 451.80861,602.34652 C 455.64271,603.92611 455.56176,609.88768 461.06221,617.33103 C 467.87245,626.53088 475.69884,629.25157 481.89059,635.30849 C 481.89059,635.30849 449.45016,627.34637 449.45016,627.34637 z" id="path3888" style="fill:url(#linearGradient2551);fill-opacity:1;stroke:none;stroke-width:1"/>
      <path d="M 497.14489,622.07021 C 492.79244,619.96378 480.98411,618.1054 479.56751,613.72008 C 477.28322,606.71217 489.96888,600.65698 498.56154,604.50339 C 506.6265,608.12722 514.32254,624.42031 517.42564,632.58164 C 518.73036,636.01016 520.168,639.82446 519.87027,643.5064 C 514.81681,636.87077 504.5279,625.64669 497.14489,622.07021 z" id="Selection" style="fill:url(#linearGradient2553);fill-opacity:1;stroke:none;stroke-width:1"/>
    </g>
  </g>
</svg>