<?xml version="1.0" encoding="UTF-8" standalone="no"?>
<!-- Created with Inkscape (http://www.inkscape.org/) -->
<svg xmlns:svg="http://www.w3.org/2000/svg" xmlns="http://www.w3.org/2000/svg" xmlns:xlink="http://www.w3.org/1999/xlink" version="1.0" width="48" height="48" id="svg1">
  <defs id="defs2">
    <radialGradient cx="50.162201" cy="0.93191397" r="113.246" fx="50.162201" fy="0.93191397" id="defitem0" gradientUnits="userSpaceOnUse">
      <stop style="stop-color:#930000;stop-opacity:1" offset="0" id="stop4"/>
      <stop style="stop-color:#ff0000;stop-opacity:1" offset="1" id="stop5"/>
    </radialGradient>
    <radialGradient cx="46.612598" cy="70.014397" r="95.774101" fx="46.612598" fy="71.551498" id="defitem1" gradientUnits="userSpaceOnUse">
      <stop style="stop-color:#930000;stop-opacity:1" offset="0" id="stop7"/>
      <stop style="stop-color:#ff0000;stop-opacity:1" offset="1" id="stop8"/>
    </radialGradient>
    <linearGradient id="defitem2" gradientUnits="userSpaceOnUse">
      <stop style="stop-color:#666666;stop-opacity:1" offset="0.31999999" id="stop10"/>
      <stop style="stop-color:#ffffff;stop-opacity:1" offset="0.68000001" id="stop11"/>
    </linearGradient>
    <linearGradient id="defitem3" gradientUnits="userSpaceOnUse">
      <stop style="stop-color:#666666;stop-opacity:1" offset="0.25" id="stop13"/>
      <stop style="stop-color:#ffffff;stop-opacity:1" offset="0.75" id="stop14"/>
    </linearGradient>
    <linearGradient id="defitem4" gradientUnits="userSpaceOnUse">
      <stop style="stop-color:#ffffff;stop-opacity:1" offset="0.0337" id="stop16"/>
      <stop style="stop-color:#d4d4d4;stop-opacity:1" offset="1" id="stop17"/>
    </linearGradient>
    <linearGradient id="defitem5" gradientUnits="userSpaceOnUse">
      <stop style="stop-color:#ffffff;stop-opacity:1" offset="0.0337" id="stop19"/>
      <stop style="stop-color:#d4d4d4;stop-opacity:1" offset="1" id="stop20"/>
    </linearGradient>
    <radialGradient cx="8.0810003" cy="113.15" r="0" fx="8.0810003" fy="113.15" id="defitem6" gradientUnits="userSpaceOnUse">
      <stop style="stop-color:#930000;stop-opacity:1" offset="0" id="stop22"/>
      <stop style="stop-color:#ff0000;stop-opacity:1" offset="1" id="stop23"/>
    </radialGradient>
    <radialGradient cx="12.4712" cy="109.832" r="0" fx="12.4712" fy="109.832" id="defitem7" gradientUnits="userSpaceOnUse">
      <stop style="stop-color:#d80000;stop-opacity:1" offset="0" id="stop25"/>
      <stop style="stop-color:#ff0000;stop-opacity:1" offset="1" id="stop26"/>
    </radialGradient>
    <linearGradient id="defitem8" gradientUnits="userSpaceOnUse">
      <stop style="stop-color:#ffffff;stop-opacity:1" offset="0" id="stop28"/>
      <stop style="stop-color:#ffffff;stop-opacity:0.0392157" offset="1" id="stop29"/>
    </linearGradient>
    <linearGradient id="defitem9" gradientUnits="userSpaceOnUse">
      <stop style="stop-color:#ffffff;stop-opacity:1" offset="0" id="stop31"/>
      <stop style="stop-color:#ffffff;stop-opacity:0.0392157" offset="1" id="stop32"/>
    </linearGradient>
    <linearGradient id="defitem10" gradientUnits="userSpaceOnUse">
      <stop style="stop-color:#ffffff;stop-opacity:1" offset="0" id="stop34"/>
      <stop style="stop-color:#ffffff;stop-opacity:0.0392157" offset="1" id="stop35"/>
    </linearGradient>
    <linearGradient id="defitem11" gradientUnits="userSpaceOnUse">
      <stop style="stop-color:#ffffff;stop-opacity:1" offset="0" id="stop37"/>
      <stop style="stop-color:#ffffff;stop-opacity:0.0392157" offset="1" id="stop38"/>
    </linearGradient>
    <linearGradient id="defitem12" gradientUnits="userSpaceOnUse">
      <stop style="stop-color:#ffffff;stop-opacity:1" offset="0" id="stop40"/>
      <stop style="stop-color:#ffffff;stop-opacity:0.0392157" offset="1" id="stop41"/>
    </linearGradient>
    <linearGradient id="defitem13" gradientUnits="userSpaceOnUse">
      <stop style="stop-color:#ffffff;stop-opacity:1" offset="0" id="stop43"/>
      <stop style="stop-color:#ffffff;stop-opacity:0.0392157" offset="1" id="stop44"/>
    </linearGradient>
    <linearGradient id="defitem14" gradientUnits="userSpaceOnUse">
      <stop style="stop-color:#ffffff;stop-opacity:1" offset="0" id="stop46"/>
      <stop style="stop-color:#ffffff;stop-opacity:0.0392157" offset="1" id="stop47"/>
    </linearGradient>
    <linearGradient x1="23.196667" y1="76.007164" x2="23.671427" y2="28.338236" id="linearGradient1645" xlink:href="#defitem4" gradientUnits="userSpaceOnUse"/>
    <linearGradient x1="68.818207" y1="73.28595" x2="60.179222" y2="10.670855" id="linearGradient1646" xlink:href="#defitem5" gradientUnits="userSpaceOnUse"/>
    <linearGradient x1="66.699608" y1="3.3901563" x2="67.643738" y2="82.762283" id="linearGradient1647" xlink:href="#defitem3" gradientUnits="userSpaceOnUse"/>
    <linearGradient x1="22.117361" y1="6.9969831" x2="24.913404" y2="95.15284" id="linearGradient1648" xlink:href="#defitem2" gradientUnits="userSpaceOnUse"/>
    <radialGradient cx="54.713276" cy="86.406906" r="29.68524" fx="54.713276" fy="86.406906" id="radialGradient1649" xlink:href="#defitem7" gradientUnits="userSpaceOnUse"/>
    <radialGradient cx="73.007133" cy="35.246998" r="59.586807" fx="73.577736" fy="36.397415" id="radialGradient1650" xlink:href="#defitem6" gradientUnits="userSpaceOnUse"/>
    <linearGradient x1="65.620506" y1="109.25394" x2="66.55027" y2="101.88625" id="linearGradient1651" xlink:href="#defitem10" gradientUnits="userSpaceOnUse"/>
    <linearGradient x1="20.27614" y1="42.227146" x2="24.529287" y2="36.843983" id="linearGradient1904" xlink:href="#defitem9" gradientUnits="userSpaceOnUse"/>
    <linearGradient x1="32.108662" y1="40.691608" x2="37.486244" y2="36.71624" id="linearGradient1905" xlink:href="#defitem11" gradientUnits="userSpaceOnUse"/>
    <linearGradient x1="73.363419" y1="71.612144" x2="75.2938" y2="68.811462" id="linearGradient1906" xlink:href="#defitem12" gradientUnits="userSpaceOnUse"/>
    <linearGradient x1="115.44772" y1="99.115242" x2="116.29766" y2="97.674049" id="linearGradient1907" xlink:href="#defitem13" gradientUnits="userSpaceOnUse"/>
    <linearGradient x1="96.205971" y1="26.333294" x2="89.118103" y2="36.362526" id="linearGradient1908" xlink:href="#defitem14" gradientUnits="userSpaceOnUse"/>
    <linearGradient x1="58.98806" y1="70.278" x2="62.030338" y2="68.659927" id="linearGradient1909" xlink:href="#defitem8" gradientUnits="userSpaceOnUse"/>
    <linearGradient x1="120.02631" y1="-17.400202" x2="121.33043" y2="-15.125634" id="linearGradient2376" xlink:href="#defitem14" gradientUnits="userSpaceOnUse" gradientTransform="scale(0.566789, 1.76432)"/>
    <linearGradient x1="110.57641" y1="26.807936" x2="106.40227" y2="22.989912" id="linearGradient2389" xlink:href="#defitem6" gradientUnits="userSpaceOnUse"/>
  </defs>
  <path d="M 63.2802,25.4626 L -64.7198,19.3602 L -72.6187,146.984 L 55.3813,153.086 L 63.2802,25.4626 z " transform="matrix(1, 0, 0, -1, 0, 125.95)" style="fill:none;stroke-width:0.99852997" id="path481"/>
  <g transform="matrix(0.381745, 0, 0, 0.381745, -0.276596, 0.0359721)" id="g2402">
    <g transform="matrix(0.999704, -0.0243418, -0.0243418, -0.999704, 1.87293, 128.107)" id="g51">
      <g id="g52">
        <path d="M 17.9834,84.2354 C 9.6601,85.0305 8.70969,83.0383 8.03027,77.1789 L 0.967983,16.5316 C -0.0357073,7.91282 3.12729,7.82976 11.3105,7.63161 L 44.6163,6.81534 C 47.3863,8.26262 48.5939,7.2377 51.3296,6.83033 L 84.4889,4.89202 C 93.6894,4.34748 94.2398,3.33553 93.7738,12.6336 L 90.7119,73.6843 C 90.4111,79.6717 90.2773,78.8303 84.4696,79.2647 L 17.9834,84.2354 z " style="fill:url(#defitem0);stroke-width:0.808002" id="path22"/>
        <path d="M 17.2788,83.0576 C 9.46064,84.0047 9.66926,82.6665 9.02835,76.9587 L 2.27684,17.0334 C 1.30156,8.4014 2.08511,9.27384 10.2701,9.07335 L 43.5749,8.25946 C 46.1399,9.49843 48.3739,9.50298 50.285,8.27349 L 82.9203,6.30453 C 92.1214,5.75112 92.5874,4.75133 92.2033,14.0525 L 89.6893,74.7733 C 89.4435,80.7633 89.2684,80.1173 83.45,80.3562 L 17.2788,83.0576 z " style="fill:url(#defitem1);stroke-width:0.808002" id="path43"/>
      </g>
      <g id="g55">
        <path d="M 15.0413,83.7381 C 14.4955,82.7361 12.6912,81.0471 11.8942,80.9679 L 4.27148,11.8572 L 46.2796,10.4808 L 46.2798,10.4775 L 89.7332,8.9062 L 87.4869,78.0594 C 87.433,79.6517 84.6284,78.271 82.7801,80.3758 C 72.3892,82.2813 56.4325,86.8879 49.0921,82.187 C 43.1826,87.3211 22.0724,85.2142 15.0413,83.7381 z " style="fill:#4b4b4b;fill-rule:evenodd;stroke-width:0.80800098" id="path47"/>
        <g id="g57">
          <path d="M 13.1132,80.076 C 10.2354,57.4959 8.6882,35.6678 5.80711,13.0876 L 47.8176,11.7112 C 48.7269,34.1028 49.6337,56.4951 50.5438,78.8859 C 45.588,82.7077 31.7587,81.9206 16.4037,80.4109 C 16.1618,80.3864 15.7304,83.0815 15.6305,82.8857 C 15.1356,81.9 13.9712,80.1646 13.1132,80.076 z " style="fill:url(#linearGradient1648);fill-rule:evenodd;stroke-width:0.808002" id="path64"/>
          <path d="M 86.5555,77.8183 L 88.4146,10.0045 L 47.817,11.7079 C 48.7264,34.0987 49.6328,56.4958 50.543,78.8867 C 54.8876,82.265 68.8447,81.8793 81.999,79.4363 C 83.876,77.2755 84.9758,78.1533 86.5555,77.8183 z " style="fill:url(#linearGradient1647);fill-rule:evenodd;stroke-width:0.808002" id="path79"/>
          <g id="g60">
            <path d="M 15.5448,82.9335 C 13.0296,59.8697 10.5161,36.8045 8.00429,13.7393 C 21.056,14.2386 34.2482,15.76 46.7407,12.1308 C 47.4378,35.0124 48.1367,57.8924 48.8338,80.7747 C 43.9154,84.9876 30.8697,84.6011 15.5448,82.9335 z " style="fill:url(#linearGradient1645);stroke-width:0.808002" id="path96"/>
            <path d="M 82.0382,79.5118 L 84.1764,10.1892 C 72.4542,12.5192 51.3324,15.2159 46.7408,12.1292 C 47.438,35.01 48.1366,57.8932 48.8337,80.7756 C 53.3148,84.6257 68.6975,82.7227 82.0382,79.5118 z " style="fill:url(#linearGradient1646);stroke-width:0.808002" id="path111"/>
            <path d="M 83.3487,13.9871 L 83.4484,12.9558 C 71.7262,15.2858 52.0604,17.9825 47.4688,14.8958 L 47.5233,15.542 C 52.0043,19.3922 70.008,17.198 83.3487,13.9871 z " style="fill:#565656;fill-opacity:0.11872098;stroke-width:0.80919099" id="path2828"/>
            <path d="M 83.3487,16.8543 L 83.4484,15.823 C 71.7262,18.153 52.0604,20.8497 47.4688,17.763 L 47.5233,18.4092 C 52.0043,22.2594 70.008,20.0652 83.3487,16.8543 z " style="fill:#565656;fill-opacity:0.11872098;stroke-width:0.80919099" id="path3451"/>
            <path d="M 83.3487,19.7215 L 83.4484,18.6903 C 71.7262,21.0202 52.0604,23.7169 47.4688,20.6302 L 47.5233,21.2764 C 52.0043,25.1266 70.008,22.9324 83.3487,19.7215 z " style="fill:#565656;fill-opacity:0.11872098;stroke-width:0.80919099" id="path3452"/>
            <path d="M 83.3487,22.5887 L 83.4484,21.5575 C 71.7262,23.8874 52.0604,26.5841 47.4688,23.4974 L 47.5233,24.1437 C 52.0043,27.9938 70.008,25.7996 83.3487,22.5887 z " style="fill:#565656;fill-opacity:0.11872098;stroke-width:0.80919099" id="path3453"/>
            <path d="M 83.1672,25.4559 L 83.2664,24.4247 C 71.6035,26.7546 52.0372,29.4513 47.4688,26.3647 L 47.523,27.0109 C 51.9813,30.861 69.894,28.6668 83.1672,25.4559 z " style="fill:#565656;fill-opacity:0.11872098;stroke-width:0.80919099" id="path3466"/>
            <path d="M 83.1672,28.3231 L 83.2664,27.2919 C 71.6035,29.6219 52.0372,32.3185 47.4688,29.2319 L 47.523,29.8781 C 51.9813,33.7282 69.894,31.534 83.1672,28.3231 z " style="fill:#565656;fill-opacity:0.11872098;stroke-width:0.80919099" id="path3467"/>
            <path d="M 82.9856,31.1903 L 83.0843,30.1591 C 71.4807,32.4891 52.014,35.1858 47.4688,32.0991 L 47.5227,32.7453 C 51.9584,36.5954 69.78,34.4012 82.9856,31.1903 z " style="fill:#565656;fill-opacity:0.11872098;stroke-width:0.80919099" id="path3468"/>
            <path d="M 83.1676,34.0576 L 83.2664,33.0263 C 71.6509,35.3563 52.1642,38.053 47.6144,34.9663 L 47.6684,35.6125 C 52.1086,39.4626 69.9484,37.2684 83.1676,34.0576 z " style="fill:#565656;fill-opacity:0.11872098;stroke-width:0.80919099" id="path3469"/>
            <path d="M 83.0952,36.9248 L 83.1935,35.8935 C 71.6255,38.2235 52.2184,40.9202 47.6872,37.8335 L 47.741,38.4797 C 52.163,42.3299 69.93,40.1357 83.0952,36.9248 z " style="fill:#565656;fill-opacity:0.11872098;stroke-width:0.80919099" id="path3470"/>
            <path d="M 82.9501,39.792 L 83.0479,38.7607 C 71.5511,41.0907 52.2634,43.7874 47.76,40.7007 L 47.8134,41.3469 C 52.2083,45.1971 69.866,43.0029 82.9501,39.792 z " style="fill:#565656;fill-opacity:0.11872098;stroke-width:0.80919099" id="path3471"/>
            <path d="M 82.8778,42.6592 L 82.9751,41.628 C 71.5257,43.9579 52.3176,46.6546 47.8329,43.5679 L 47.886,44.2141 C 52.2628,48.0643 69.8476,45.8701 82.8778,42.6592 z " style="fill:#565656;fill-opacity:0.11872098;stroke-width:0.80919099" id="path3472"/>
            <path d="M 82.8054,45.5264 L 82.9023,44.4952 C 71.5122,46.8251 52.4036,49.5218 47.9421,46.4351 L 47.9949,47.0814 C 52.349,50.9315 69.8428,48.7373 82.8054,45.5264 z " style="fill:#565656;fill-opacity:0.11872098;stroke-width:0.80919099" id="path3473"/>
            <path d="M 82.6607,48.3936 L 82.7567,47.3624 C 71.4615,49.6923 52.512,52.389 48.0877,49.3023 L 48.1401,49.9486 C 52.4579,53.7987 69.8059,51.6045 82.6607,48.3936 z " style="fill:#565656;fill-opacity:0.11872098;stroke-width:0.80919099" id="path3474"/>
            <path d="M 82.5881,51.2608 L 82.6839,50.2296 C 71.4243,52.5595 52.5345,55.2562 48.1241,52.1696 L 48.1764,52.8158 C 52.4806,56.6659 69.7739,54.4717 82.5881,51.2608 z " style="fill:#565656;fill-opacity:0.11872098;stroke-width:0.80919099" id="path3475"/>
            <path d="M 82.5157,54.128 L 82.6111,53.0968 C 71.3989,55.4268 52.5887,58.1234 48.1969,55.0368 L 48.2489,55.683 C 52.535,59.5331 69.7555,57.3389 82.5157,54.128 z " style="fill:#565656;fill-opacity:0.11872098;stroke-width:0.80919099" id="path3476"/>
            <path d="M 82.3706,56.9953 L 82.4655,55.964 C 71.3126,58.294 52.6019,60.9907 48.2333,57.904 L 48.2851,58.5502 C 52.5485,62.4003 69.6779,60.2061 82.3706,56.9953 z " style="fill:#565656;fill-opacity:0.11872098;stroke-width:0.80919099" id="path3477"/>
            <path d="M 82.3347,59.8625 L 82.4291,58.8312 C 71.3355,61.1612 52.7243,63.8579 48.3789,60.7712 L 48.4304,61.4174 C 52.6712,65.2676 69.7095,63.0734 82.3347,59.8625 z " style="fill:#565656;fill-opacity:0.11872098;stroke-width:0.80919099" id="path3478"/>
            <path d="M 82.1897,62.7297 L 82.2835,61.6984 C 71.261,64.0284 52.7692,66.7251 48.4517,63.6384 L 48.5029,64.2846 C 52.7164,68.1348 69.6455,65.9406 82.1897,62.7297 z " style="fill:#565656;fill-opacity:0.11872098;stroke-width:0.80919099" id="path3479"/>
            <path d="M 82.0811,65.5969 L 82.1743,64.5657 C 71.223,66.8956 52.8505,69.5923 48.5609,66.5056 L 48.6118,67.1519 C 52.7981,71.002 69.6179,68.8078 82.0811,65.5969 z " style="fill:#565656;fill-opacity:0.11872098;stroke-width:0.80919099" id="path3480"/>
            <path d="M 81.9362,68.4641 L 82.0287,67.4329 C 71.1604,69.7628 52.9272,72.4595 48.6701,69.3728 L 48.7206,70.0191 C 52.8752,73.8692 69.5674,71.675 81.9362,68.4641 z " style="fill:#565656;fill-opacity:0.11872098;stroke-width:0.80919099" id="path3481"/>
            <path d="M 81.9727,71.3313 L 82.0651,70.3001 C 71.2087,72.6301 52.9954,75.3267 48.7429,72.2401 L 48.7933,72.8863 C 52.9434,76.7364 69.6174,74.5422 81.9727,71.3313 z " style="fill:#565656;fill-opacity:0.11872098;stroke-width:0.80919099" id="path3482"/>
            <path d="M 81.9729,74.1985 L 82.0651,73.1673 C 71.2324,75.4973 53.0589,78.194 48.8157,75.1073 L 48.866,75.7535 C 53.007,79.6036 69.6446,77.4094 81.9729,74.1985 z " style="fill:#565656;fill-opacity:0.11872098;stroke-width:0.80919099" id="path3483"/>
            <path d="M 9.52602,17.71 L 9.3428,17.1886 C 22.3946,17.6878 33.7334,18.7974 46.2259,15.1682 L 46.2128,15.6028 C 40.7796,19.0434 24.8509,19.3777 9.52602,17.71 z " style="fill:#565656;fill-opacity:0.11872098;stroke-width:0.808002" id="path4105"/>
            <path d="M 9.93583,20.5772 L 9.75465,20.0558 C 22.6607,20.555 33.8729,21.6646 46.2259,18.0354 L 46.213,18.47 C 40.8404,21.9106 25.0896,22.2449 9.93583,20.5772 z " style="fill:#565656;fill-opacity:0.11872098;stroke-width:0.80919099" id="path4107"/>
            <path d="M 10.1407,23.4444 L 9.96057,22.923 C 22.7937,23.4222 33.9427,24.5318 46.2259,20.9026 L 46.213,21.3372 C 40.8708,24.7778 25.2089,25.1121 10.1407,23.4444 z " style="fill:#565656;fill-opacity:0.11872098;stroke-width:0.80919099" id="path4108"/>
            <path d="M 10.3976,26.3116 L 10.218,25.7902 C 23.0147,26.2894 34.132,27.3991 46.3803,23.7698 L 46.3675,24.2044 C 41.0405,27.645 25.4231,27.9793 10.3976,26.3116 z " style="fill:#565656;fill-opacity:0.11872098;stroke-width:0.80919099" id="path4109"/>
            <path d="M 10.6025,29.1789 L 10.4239,28.6574 C 23.1477,29.1566 34.2017,30.2663 46.3803,26.6371 L 46.3676,27.0716 C 41.0709,30.5122 25.5424,30.8465 10.6025,29.1789 z " style="fill:#565656;fill-opacity:0.11872098;stroke-width:0.80919099" id="path4110"/>
            <path d="M 10.8079,32.0461 L 10.6298,31.5246 C 23.3172,32.0239 34.3396,33.1335 46.4833,29.5043 L 46.4706,29.9388 C 41.189,33.3795 25.705,33.7137 10.8079,32.0461 z " style="fill:#565656;fill-opacity:0.11872098;stroke-width:0.80919099" id="path4111"/>
            <path d="M 10.9104,34.8618 L 10.7328,34.3403 C 23.3838,34.8396 34.3744,35.9492 46.4833,32.32 L 46.4706,32.7546 C 41.2042,36.1952 25.7647,36.5294 10.9104,34.8618 z " style="fill:#565656;fill-opacity:0.11872098;stroke-width:0.80919099" id="path4112"/>
            <path d="M 11.4226,37.729 L 11.2476,37.2076 C 23.7164,37.7068 34.5488,38.8164 46.4833,35.1872 L 46.4708,35.6218 C 41.2803,39.0624 26.063,39.3967 11.4226,37.729 z " style="fill:#565656;fill-opacity:0.11872098;stroke-width:0.80919099" id="path4113"/>
            <path d="M 11.6798,40.5447 L 11.505,40.0233 C 23.9556,40.5225 34.7722,41.6322 46.6892,38.0029 L 46.6767,38.4375 C 41.4938,41.8781 26.2988,42.2124 11.6798,40.5447 z " style="fill:#565656;fill-opacity:0.11872098;stroke-width:0.80919099" id="path4114"/>
            <path d="M 11.7822,43.5149 L 11.608,42.9935 C 24.0221,43.4927 34.807,44.6023 46.6892,40.9731 L 46.6768,41.4077 C 41.509,44.8483 26.3585,45.1826 11.7822,43.5149 z " style="fill:#565656;fill-opacity:0.11872098;stroke-width:0.80919099" id="path4115"/>
            <path d="M 12.2435,46.3306 L 12.0713,45.8092 C 24.3397,46.3084 34.998,47.4181 46.7407,43.7888 L 46.7284,44.2234 C 41.6213,47.664 26.6486,47.9983 12.2435,46.3306 z " style="fill:#565656;fill-opacity:0.11872098;stroke-width:0.80919099" id="path4116"/>
            <path d="M 12.6021,49.0949 L 12.4317,48.5734 C 24.5725,49.0727 35.1201,50.1823 46.7407,46.5531 L 46.7285,46.9877 C 41.6745,50.4283 26.8575,50.7625 12.6021,49.0949 z " style="fill:#565656;fill-opacity:0.11872098;stroke-width:0.80919099" id="path4117"/>
            <path d="M 12.859,51.9106 L 12.6891,51.3892 C 24.7935,51.8884 35.3094,52.998 46.8951,49.3688 L 46.883,49.8034 C 41.8442,53.244 27.0716,53.5783 12.859,51.9106 z " style="fill:#565656;fill-opacity:0.11872098;stroke-width:0.80919099" id="path4118"/>
            <path d="M 13.1156,54.8293 L 12.9465,54.3079 C 24.9963,54.8071 35.4647,55.9167 46.9981,52.2875 L 46.986,52.7221 C 41.9699,56.1627 27.2641,56.497 13.1156,54.8293 z " style="fill:#565656;fill-opacity:0.11872098;stroke-width:0.80919099" id="path4119"/>
            <path d="M 13.475,57.851 L 13.3068,57.3295 C 25.2838,57.8288 35.6888,58.9384 47.1525,55.3092 L 47.1405,55.7438 C 42.1548,59.1844 27.5378,59.5186 13.475,57.851 z " style="fill:#565656;fill-opacity:0.11872098;stroke-width:0.80919099" id="path4120"/>
            <path d="M 14.0385,60.6152 L 13.8731,60.0938 C 25.6497,60.593 35.8807,61.7026 47.1525,58.0734 L 47.1407,58.508 C 42.2384,61.9486 27.866,62.2829 14.0385,60.6152 z " style="fill:#565656;fill-opacity:0.11872098;stroke-width:0.80919099" id="path4121"/>
            <path d="M 14.3453,63.5854 L 14.182,63.064 C 25.8128,63.5632 35.9172,64.6728 47.0496,61.0436 L 47.0379,61.4782 C 42.1962,64.9188 28.0017,65.2531 14.3453,63.5854 z " style="fill:#565656;fill-opacity:0.11872098;stroke-width:0.80919099" id="path4122"/>
            <path d="M 14.6529,66.4526 L 14.4909,65.9312 C 26.0306,66.4304 36.0559,67.54 47.101,63.9108 L 47.0895,64.3454 C 42.2857,67.786 28.2024,68.1203 14.6529,66.4526 z " style="fill:#565656;fill-opacity:0.11872098;stroke-width:0.80919099" id="path4123"/>
            <path d="M 15.1142,69.3198 L 14.9542,68.7984 C 26.3482,69.2976 36.2468,70.4072 47.1525,66.778 L 47.1411,67.2126 C 42.398,70.6532 28.4926,70.9875 15.1142,69.3198 z " style="fill:#565656;fill-opacity:0.11872098;stroke-width:0.80919099" id="path4124"/>
            <path d="M 15.5747,72.1871 L 15.4176,71.6656 C 26.6111,72.1648 36.3357,73.2745 47.0496,69.6452 L 47.0384,70.0798 C 42.3787,73.5204 28.7178,73.8547 15.5747,72.1871 z " style="fill:#565656;fill-opacity:0.11872098;stroke-width:0.80919099" id="path4125"/>
            <path d="M 16.0365,75.0543 L 15.8809,74.5328 C 26.9652,75.0321 36.5947,76.1417 47.204,72.5125 L 47.1929,72.947 C 42.5787,76.3877 29.0512,76.7219 16.0365,75.0543 z " style="fill:#565656;fill-opacity:0.11872098;stroke-width:0.80919099" id="path4126"/>
            <path d="M 16.3951,77.9215 L 16.2413,77.4 C 27.198,77.8993 36.7168,79.0089 47.204,75.3797 L 47.193,75.8143 C 42.632,79.2549 29.2601,79.5891 16.3951,77.9215 z " style="fill:#565656;fill-opacity:0.11872098;stroke-width:0.80919099" id="path4127"/>
          </g>
        </g>
        <path d="M 48.7017,81.5056 L 46.294,11.48 L 47.0213,11.348 L 49.352,81.3327 L 48.7017,81.5056 z " style="fill:#000000;fill-opacity:1;fill-rule:evenodd;stroke-width:0.80800098" id="path115"/>
      </g>
    </g>
    <path d="M 68.91929,41.63804 C 68.353891,50.446612 66.492683,58.917058 63.41929,66.73179 L 63.10679,67.23179 L 62.73179,67.70054 C 60.65807,69.419255 58.60099,71.107911 56.60679,72.45054 C 48.80528,77.703185 37.87628,80.600543 32.35679,88.76304 C 27.28469,96.263815 36.85193,103.04085 44.60679,100.1068 C 54.32217,96.431039 64.11901,85.030291 69.63804,73.85679 C 70.32199,72.47214 70.73441,70.983175 71.23179,69.51304 L 71.51304,68.70054 L 72.07554,68.04429 C 76.03583,64.45321 80.18158,60.119923 84.16929,55.88804 L 84.41929,56.13804 C 85.83054,57.896357 87.21354,59.685511 88.66929,61.38804 C 88.803113,61.544546 89.773985,62.396182 89.927133,62.578901 L 88.665929,47.055495 C 88.304374,46.0335 87.688338,45.456848 86.81782,44.752956 L 76.32554,42.32554 L 68.91929,41.63804 z M 76.45054,45.66929 C 77.64852,47.346319 78.95634,49.214074 80.20054,50.85679 L 79.98179,51.13804 C 78.38662,52.816684 76.74824,54.538222 75.16929,56.13804 L 74.98179,56.29429 C 75.61315,52.835817 76.07943,49.232702 76.45054,45.66929 z M 56.95054,79.45054 L 56.76304,79.76304 C 53.70584,84.533707 50.19618,88.951214 46.10679,92.79429 C 41.48073,97.141809 35.74256,92.51727 40.82554,88.85679 C 45.28875,85.642487 51.42884,82.496827 56.57554,79.60679 L 56.95054,79.45054 z " style="opacity:0.30373834;fill:#000000;fill-opacity:1;stroke:none;stroke-width:0.125;stroke-miterlimit:4;stroke-opacity:1" id="path1726"/>
    <g id="g2390">
      <path d="M 63.34375,-48.875 C 60.4908,-48.4075 58.137449,-46.673499 58.28125,-43.5 C 58.637389,-35.639117 60.276201,-27.86989 62.71875,-20.34375 L 62.71875,-20.34375 C 62.334085,-19.324325 61.908918,-18.311997 61.5625,-17.28125 C 58.726575,-8.8433574 54.417333,-0.87433497 49.0625,6.3125 L 48.65625,6.71875 L 48.1875,7.09375 C 45.857788,8.4142327 43.534365,9.7152544 41.375,10.71875 C 32.9273,14.64465 22.2628,16.31065 15.125,22.90625 C 8.5658,28.96715 15.48135,35.500901 23.28125,33.5625 C 33.05305,31.1341 44.920049,22.08745 52.84375,12.90625 C 53.825687,11.768493 54.602455,10.506394 55.4375,9.28125 L 55.875,8.625 L 56.5625,8.09375 C 61.092287,5.3068178 65.99674,1.8976371 70.71875,-1.4375 L 70.875,-1.21875 C 71.69584,0.3968753 72.467987,2.053947 73.34375,3.625 C 76.69145,9.6304 89.484798,36.925051 95.9375,37.84375 C 96.885,37.97865 99.032248,34.341651 96.59375,31.40625 C 90.742867,24.363135 82.830488,8.4699197 76.71875,-5.5625 L 77.03125,-5.8125 C 86.177643,-12.44544 113.95211,-31.760691 118.46875,-34.09375 C 122.54675,-36.20055 123.64725,-42.362251 119.28125,-40.15625 C 106.40386,-33.649483 90.471965,-21.721776 74.90625,-10.5625 L 74.65625,-10.40625 C 73.000476,-14.389213 71.681892,-17.82037 70.53125,-21 L 70.53125,-21 C 71.08461,-22.422201 71.689228,-23.837608 72.25,-25.25 C 74.9217,-31.9791 76.895149,-40.84475 71.40625,-46.59375 C 69.54405,-48.54425 66.1967,-49.3425 63.34375,-48.875 z M 65.375,-43.1875 C 65.3038,-44.0825 68.370752,-36.4565 67.59375,-33.75 C 67.454107,-33.263567 67.246876,-32.795293 67.09375,-32.3125 L 67.09375,-32.3125 C 66.293707,-35.919946 65.664059,-39.548071 65.375,-43.1875 z M 66.375,-10.78125 C 67.023627,-9.2514073 67.737995,-7.5663397 68.4375,-6.0625 L 68.15625,-5.84375 C 66.27105,-4.5218146 64.349892,-3.1617103 62.5,-1.90625 L 62.28125,-1.78125 C 63.757061,-4.7037516 65.107832,-7.7491359 66.375,-10.78125 L 66.375,-10.78125 z M 39.875,16.75 L 39.625,17 C 35.606255,20.86752 31.275201,24.412603 26.5625,27.40625 C 21.2313,30.79285 17.21505,26.3874 22.78125,23.625 C 27.668803,21.199294 34.077206,18.971042 39.5,16.875 L 39.875,16.75 z " transform="matrix(1.07551, -0.09385, 0.32708, 1.136, 6.04842, 62.8912)" style="fill:url(#radialGradient1650);fill-opacity:0.75;stroke:none;stroke-width:0.125;stroke-miterlimit:4;stroke-opacity:1" id="path938"/>
      <path d="M 63.7812,109.138 C 63.4607,109.046 62.3357,108.671 62.2188,108.638 C 57.8968,105.133 61.3422,98.2784 61.8125,93.575 C 62.4144,87.556 66.2677,81.5838 62.3438,75.9188 C 59.9028,69.8622 57.1073,63.5547 53.2188,58.2313 L 58.8438,61.5438 C 59.5173,63.1619 60.5806,65.1866 61.8125,67.3563 C 64.376,70.2681 65.8936,84.4241 68.2188,73.7313 C 72.6666,68.0042 67.9572,65.933 62.8039,62.4661 C 57.806,59.1038 49.657,53.9276 48.75,53.075 C 38.1566,46.0759 23.9076,45.6478 15.0938,36.0125 C 12.9712,29.6538 22.9113,29.2233 26.5312,32.0438 C 38.5564,36.5861 47.7142,46.4179 55.8125,55.825 C 61.3424,58.9455 66.3038,62.9395 71.5625,66.4813 C 78.7375,53.2389 84.6454,38.964 94.4688,27.4188 C 97.9689,27.2139 91.2011,34.0691 90.1875,36.5125 C 84.1227,46.7086 78.9709,57.4342 74.2812,68.325 C 89.193,78.9239 103.795,90.017 119.438,99.5125 C 116.866,99.4223 109.568,94.1527 105.469,91.6375 C 94.7418,84.5015 84.4459,76.7308 73.8125,69.45 C 71.8813,75.4791 66.1862,81.9258 70.3438,88.0438 C 72.9625,94.5028 75.268,105.263 67.3438,108.825 C 62.8699,109.332 70.7301,102.272 69.5625,98.6688 C 69.9784,94.5984 66.2575,82.6218 65.5625,92.45 C 63.9868,97.7629 63.6814,104.142 63.7812,109.138 z M 45.7188,49.2 C 44.2604,47.4813 42.8021,45.7625 41.3438,44.0438 C 35.7338,39.3115 30.1815,32.695 22.625,31.575 C 16.9955,31.34 17.0263,39.1426 22,40.3875 C 29.7857,43.6422 37.5079,47.1297 45.7188,49.2 z " transform="matrix(1.07551, -0.09385, -0.32708, -1.136, 26.3831, 133.517)" style="fill:url(#radialGradient1649);stroke-width:0" id="path1538"/>
      <path d="M 52.1029,57.0098 C 55.4327,59.7081 60.1941,71.9946 64.9125,81.4427 C 64.1521,70.5442 60.6959,62.9836 52.1029,57.0098 z " transform="matrix(1.07551, -0.09385, -0.32708, -1.136, 26.3831, 133.517)" style="fill:url(#linearGradient1909);fill-rule:evenodd;stroke-width:0" id="path922"/>
      <path d="M 14.3782,33.2099 C 12.5969,38.0875 20.4858,44.1102 38.554,48.0971 C 22.5216,42.7105 15.9051,38.7237 14.3782,33.2099 z " transform="matrix(1.07551, -0.09385, -0.32708, -1.136, 26.3831, 133.517)" style="fill:url(#linearGradient1904);fill-rule:evenodd;stroke-width:0" id="path2786"/>
      <path d="M 60.9842,97.8105 C 59.9136,102.094 59.731,105.898 61.7372,108.343 C 63.7434,110.789 68.6581,109.894 71.664,104.78 C 68.7763,106.765 66.0157,107.526 64.0224,106.539 C 62.029,105.552 60.8029,102.817 60.9842,97.8105 z " transform="matrix(1.07551, -0.09385, -0.32708, -1.136, 26.3831, 133.517)" style="fill:url(#linearGradient1651);fill-rule:evenodd;stroke-width:0" id="path3408"/>
      <path d="M 20.2265,32.94 C 25.0131,30.9796 36.411,39.4316 43.5025,46.8375 C 38.3569,38.3019 23.103,28.5567 20.2265,32.94 z " transform="matrix(1.07551, -0.09385, -0.32708, -1.136, 26.3831, 133.517)" style="fill:url(#linearGradient1905);fill-rule:evenodd;stroke-width:0" id="path921"/>
      <path d="M 37.5013,47.7855 C 39.5797,48.7847 42.5461,50.3402 46.1831,52.459 C 48.0016,53.5185 59.149,60.8264 61.2756,62.1684 C 63.4021,63.5105 111.73,96.8046 114.11,98.4311 C 112.014,96.4772 64.3892,62.6543 62.4549,61.2443 C 60.5205,59.8343 49.5043,52.5595 47.726,51.5767 C 44.1694,49.6111 40.4691,48.7429 37.5013,47.7855 z " transform="matrix(1.07551, -0.09385, -0.32708, -1.136, 26.3831, 133.517)" style="fill:url(#linearGradient1906);fill-rule:evenodd;stroke:none;stroke-width:0" id="path923"/>
      <path d="M 122.85034,6.9905769 C 123.95024,7.5199651 123.39602,9.2581423 122.52369,10.105633 L 97.32804,34.443982 C 101.75506,29.356025 106.01996,24.116492 110.60911,19.180111 C 114.52739,14.965357 118.76993,11.053755 122.85034,6.9905769 z " style="fill:url(#linearGradient2389);fill-rule:evenodd;stroke-width:0" id="path2377"/>
      <path d="M 109.307,95.02 C 112.464,97.847 118.787,101.576 120.222,101.51 C 122.352,101.412 120.841,98.9498 119.234,97.7093 C 119.641,98.8209 119.066,99.1942 118.621,99.4029 C 116.966,100.179 113.47,97.7156 109.307,95.02 z " transform="matrix(1.07551, -0.09385, -0.32708, -1.136, 26.3831, 133.517)" style="fill:url(#linearGradient1907);fill-rule:evenodd;stroke-width:0" id="path1548"/>
      <path d="M 95.5572,29.4214 C 95.8356,27.7336 95.5742,26.9455 94.0982,27.327 C 91.5965,30.1563 89.5898,33.1655 87.673,36.3546 C 89.9248,35.1758 90.1973,35.5265 89.705,37.6767 C 91.3408,34.7 93.2916,32.1732 95.5572,29.4214 z " transform="matrix(1.07551, -0.09385, -0.32708, -1.136, 26.3831, 133.517)" style="fill:url(#linearGradient1908);fill-rule:evenodd;stroke-width:0" id="path1549"/>
      <path d="M 69.625705,-36.221253 C 70.696305,-31.937752 69.61444,-26.234522 67.667891,-25.22825 C 65.608495,-24.16364 66.60169,-28.244037 67.563287,-28.756232 C 68.227712,-29.06897 69.328759,-31.198259 69.625705,-36.221253 z " transform="matrix(1.07551, -0.09385, 0.32708, 1.136, 6.04842, 62.8912)" style="fill:url(#linearGradient2376);fill-opacity:0.25882353;fill-rule:evenodd;stroke-width:0" id="path2374"/>
    </g>
  </g>
</svg>