<?xml version="1.0" encoding="UTF-8" standalone="no"?>
<!-- Created with Inkscape (http://www.inkscape.org/) -->
<svg xmlns:dc="http://purl.org/dc/elements/1.1/" xmlns:cc="http://web.resource.org/cc/" xmlns:rdf="http://www.w3.org/1999/02/22-rdf-syntax-ns#" xmlns:svg="http://www.w3.org/2000/svg" xmlns="http://www.w3.org/2000/svg" xmlns:xlink="http://www.w3.org/1999/xlink" xmlns:sodipodi="http://sodipodi.sourceforge.net/DTD/sodipodi-0.dtd" xmlns:inkscape="http://www.inkscape.org/namespaces/inkscape" width="48" height="48" sodipodi:version="0.32" inkscape:version="0.45" inkscape:output_extension="org.inkscape.output.svg.inkscape" version="1.0" sodipodi:modified="true">
  <defs id="defs7195">
    <radialGradient inkscape:collect="always" xlink:href="#linearGradient5035" id="radialGradient1539" gradientUnits="userSpaceOnUse" cx="13.888807" cy="113.44721" fx="13.888807" fy="113.44721" r="6.2683997"/>
    <radialGradient inkscape:collect="always" xlink:href="#linearGradient5035" id="radialGradient1537" gradientUnits="userSpaceOnUse" cx="13.888807" cy="113.44721" fx="13.888807" fy="113.44721" r="6.2683997"/>
    <radialGradient inkscape:collect="always" xlink:href="#linearGradient5035" id="radialGradient1535" gradientUnits="userSpaceOnUse" cx="13.888807" cy="113.44721" fx="13.888807" fy="113.44721" r="6.2683997"/>
    <radialGradient inkscape:collect="always" xlink:href="#linearGradient5035" id="radialGradient1533" gradientUnits="userSpaceOnUse" cx="13.888807" cy="113.44721" fx="13.888807" fy="113.44721" r="6.2683997"/>
    <radialGradient inkscape:collect="always" xlink:href="#linearGradient5035" id="radialGradient1531" gradientUnits="userSpaceOnUse" cx="13.888807" cy="113.44721" fx="13.888807" fy="113.44721" r="6.2683997"/>
    <radialGradient inkscape:collect="always" xlink:href="#linearGradient5035" id="radialGradient1529" gradientUnits="userSpaceOnUse" cx="13.888807" cy="113.44721" fx="13.888807" fy="113.44721" r="6.2683997"/>
    <radialGradient inkscape:collect="always" xlink:href="#linearGradient5035" id="radialGradient1527" gradientUnits="userSpaceOnUse" cx="13.888807" cy="113.44721" fx="13.888807" fy="113.44721" r="6.2683997"/>
    <linearGradient id="linearGradient5035">
      <stop id="stop5037" offset="0.0000000" style="stop-color:#ffff00;stop-opacity:1.0000000;"/>
      <stop style="stop-color:#ffff00;stop-opacity:0.85135138;" offset="0.44755244" id="stop5787"/>
      <stop id="stop5039" offset="1.0000000" style="stop-color:#ffff00;stop-opacity:0.13513513;"/>
    </linearGradient>
    <radialGradient inkscape:collect="always" xlink:href="#linearGradient5035" id="radialGradient1525" gradientUnits="userSpaceOnUse" cx="13.888807" cy="113.44721" fx="13.888807" fy="113.44721" r="6.2683997"/>
  </defs>
  <sodipodi:namedview id="base" pagecolor="#ffffff" bordercolor="#666666" borderopacity="1.0" inkscape:pageopacity="0.0" inkscape:pageshadow="2" inkscape:zoom="3.8645834" inkscape:cx="24" inkscape:cy="24" inkscape:current-layer="layer1" showgrid="true" inkscape:grid-bbox="true" inkscape:document-units="px" inkscape:window-width="1280" inkscape:window-height="970" inkscape:window-x="0" inkscape:window-y="54"/>
  <metadata id="metadata7198">
    <rdf:RDF>
      <cc:Work rdf:about="">
        <dc:format>image/svg+xml</dc:format>
        <dc:type rdf:resource="http://purl.org/dc/dcmitype/StillImage"/>
      </cc:Work>
    </rdf:RDF>
  </metadata>
  <g id="layer1" inkscape:label="Layer 1" inkscape:groupmode="layer">
    <g id="g1489" transform="matrix(0.396664, 0, 0, 0.396664, 0.0591538, 0.146614)">
      <g id="g1491" inkscape:label="Layer 1">
        <path transform="matrix(0.971973, 0, 0, 0.974348, -108.234, -62.5803)" d="M 233.94496 126.14679 A 60.550457 60.550457 0 1 1  112.84404,126.14679 A 60.550457 60.550457 0 1 1  233.94496 126.14679 z" sodipodi:ry="60.550457" sodipodi:rx="60.550457" sodipodi:cy="126.14679" sodipodi:cx="173.3945" id="path1493" style="opacity:1;fill:#14ac5f;fill-opacity:1;fill-rule:evenodd;stroke:#000000;stroke-opacity:0.04868912" sodipodi:type="arc"/>
        <path transform="matrix(3.02099, 0, 0, 3.02099, -5.89993, -304.79)" d="M 20.157207 113.44721 A 6.2683997 6.2683997 0 1 1  7.6204076,113.44721 A 6.2683997 6.2683997 0 1 1  20.157207 113.44721 z" sodipodi:ry="6.2683997" sodipodi:rx="6.2683997" sodipodi:cy="113.44721" sodipodi:cx="13.888807" id="path1495" style="opacity:1;fill:url(#radialGradient1525);fill-opacity:1;fill-rule:evenodd;stroke:none;stroke-width:1;stroke-miterlimit:4;stroke-dasharray:none;stroke-opacity:1" sodipodi:type="arc"/>
        <path transform="matrix(0.926861, 0, 0, 0.981551, -98.8842, -57.94)" d="M 228.44037 120.6422 A 57.110092 53.669724 0 1 1  114.22018,120.6422 A 57.110092 53.669724 0 1 1  228.44037 120.6422 z" sodipodi:ry="53.669724" sodipodi:rx="57.110092" sodipodi:cy="120.6422" sodipodi:cx="171.33028" id="path1497" style="opacity:1;fill:none;fill-opacity:1;fill-rule:evenodd;stroke:#ffffff;stroke-width:1;stroke-miterlimit:4;stroke-dasharray:none;stroke-opacity:1" sodipodi:type="arc"/>
        <path transform="matrix(3.02099, 0, 0, 3.02099, 17.6162, -306.25)" d="M 20.157207 113.44721 A 6.2683997 6.2683997 0 1 1  7.6204076,113.44721 A 6.2683997 6.2683997 0 1 1  20.157207 113.44721 z" sodipodi:ry="6.2683997" sodipodi:rx="6.2683997" sodipodi:cy="113.44721" sodipodi:cx="13.888807" id="path1499" style="opacity:1;fill:url(#radialGradient1527);fill-opacity:1;fill-rule:evenodd;stroke:none;stroke-width:1;stroke-miterlimit:4;stroke-dasharray:none;stroke-opacity:1" sodipodi:type="arc"/>
        <path transform="matrix(3.02099, 0, 0, 3.02099, 40.9702, -304.303)" d="M 20.157207 113.44721 A 6.2683997 6.2683997 0 1 1  7.6204076,113.44721 A 6.2683997 6.2683997 0 1 1  20.157207 113.44721 z" sodipodi:ry="6.2683997" sodipodi:rx="6.2683997" sodipodi:cy="113.44721" sodipodi:cx="13.888807" id="path1501" style="opacity:1;fill:url(#radialGradient1529);fill-opacity:1;fill-rule:evenodd;stroke:none;stroke-width:1;stroke-miterlimit:4;stroke-dasharray:none;stroke-opacity:1" sodipodi:type="arc"/>
        <path transform="matrix(0, -3.02099, 3.02099, 0, -305.935, 125.463)" d="M 20.157207 113.44721 A 6.2683997 6.2683997 0 1 1  7.6204076,113.44721 A 6.2683997 6.2683997 0 1 1  20.157207 113.44721 z" sodipodi:ry="6.2683997" sodipodi:rx="6.2683997" sodipodi:cy="113.44721" sodipodi:cx="13.888807" id="path1503" style="opacity:1;fill:url(#radialGradient1531);fill-opacity:1;fill-rule:evenodd;stroke:none;stroke-width:1;stroke-miterlimit:4;stroke-dasharray:none;stroke-opacity:1" sodipodi:type="arc"/>
        <path transform="matrix(0, -3.02099, 3.02099, 0, -282.095, 128.004)" d="M 20.157207 113.44721 A 6.2683997 6.2683997 0 1 1  7.6204076,113.44721 A 6.2683997 6.2683997 0 1 1  20.157207 113.44721 z" sodipodi:ry="6.2683997" sodipodi:rx="6.2683997" sodipodi:cy="113.44721" sodipodi:cx="13.888807" id="path1505" style="opacity:1;fill:url(#radialGradient1533);fill-opacity:1;fill-rule:evenodd;stroke:none;stroke-width:1;stroke-miterlimit:4;stroke-dasharray:none;stroke-opacity:1" sodipodi:type="arc"/>
        <a transform="translate(171.763, -15.7449)" id="a1507">
          <path sodipodi:type="arc" style="opacity:1;fill:url(#radialGradient1535);fill-opacity:1;fill-rule:evenodd;stroke:none;stroke-width:1;stroke-miterlimit:4;stroke-dasharray:none;stroke-opacity:1" id="path1509" sodipodi:cx="13.888807" sodipodi:cy="113.44721" sodipodi:rx="6.2683997" sodipodi:ry="6.2683997" d="M 20.157207 113.44721 A 6.2683997 6.2683997 0 1 1  7.6204076,113.44721 A 6.2683997 6.2683997 0 1 1  20.157207 113.44721 z" transform="matrix(0, -3.02099, 3.02099, 0, -430.828, 141.37)"/>
        </a>
        <path transform="matrix(0, -3.02099, 3.02099, 0, -311.368, 103.461)" d="M 20.157207 113.44721 A 6.2683997 6.2683997 0 1 1  7.6204076,113.44721 A 6.2683997 6.2683997 0 1 1  20.157207 113.44721 z" sodipodi:ry="6.2683997" sodipodi:rx="6.2683997" sodipodi:cy="113.44721" sodipodi:cx="13.888807" id="path1511" style="opacity:1;fill:url(#radialGradient1537);fill-opacity:1;fill-rule:evenodd;stroke:none;stroke-width:1;stroke-miterlimit:4;stroke-dasharray:none;stroke-opacity:1" sodipodi:type="arc"/>
        <path transform="matrix(0, -3.02099, 3.02099, 0, -254.281, 103.461)" d="M 20.157207 113.44721 A 6.2683997 6.2683997 0 1 1  7.6204076,113.44721 A 6.2683997 6.2683997 0 1 1  20.157207 113.44721 z" sodipodi:ry="6.2683997" sodipodi:rx="6.2683997" sodipodi:cy="113.44721" sodipodi:cx="13.888807" id="path1513" style="opacity:1;fill:url(#radialGradient1539);fill-opacity:1;fill-rule:evenodd;stroke:none;stroke-width:1;stroke-miterlimit:4;stroke-dasharray:none;stroke-opacity:1" sodipodi:type="arc"/>
        <path sodipodi:nodetypes="ccssssc" id="path1515" d="M 111.04336,75.021053 C 108.46963,78.801553 60.393575,60.938983 60.393575,60.938983 C 60.393575,60.938983 9.6300374,42.594183 8.6449644,47.102723 C 6.0740884,58.869293 6.4172954,65.819413 8.6449644,74.210493 C 9.4491794,77.239763 39.943334,69.178683 60.109244,60.656613 C 86.836547,49.361703 109.87446,43.623603 111.326,47.557813 C 112.86687,51.734133 113.16699,65.886443 111.04336,75.021053 z " style="fill:none;fill-opacity:0.75;fill-rule:evenodd;stroke:#ffffff;stroke-width:1.00346541px;stroke-linecap:butt;stroke-linejoin:miter;stroke-opacity:1"/>
        <path sodipodi:nodetypes="ccssssc" id="path1517" d="M 72.722982,9.2683976 C 77.181009,10.117994 60.053559,59.961463 60.053559,59.961463 C 60.053559,59.961463 41.952116,110.52295 46.400845,111.50411 C 58.011325,114.06475 64.869246,113.72292 73.149012,111.50411 C 76.138098,110.7031 68.183953,80.330303 59.774935,60.244643 C 48.62986,33.623723 42.96788,10.677491 46.8499,9.2317306 C 50.970816,7.6969886 60.556292,6.9083816 72.722982,9.2683976 z " style="fill:none;fill-opacity:0.75;fill-rule:evenodd;stroke:#ffffff;stroke-width:0.99480176px;stroke-linecap:butt;stroke-linejoin:miter;stroke-opacity:1"/>
        <path sodipodi:nodetypes="ccssssc" id="path1519" d="M 33.559616,14.834049 C 37.364908,12.255423 59.31178,60.474313 59.31178,60.474313 C 59.31178,60.474313 81.769313,109.19509 85.660248,106.71626 C 95.814961,100.24691 100.51152,95.112453 104.91419,87.634423 C 106.5036,84.934763 79.460415,69.099293 59.309987,60.873633 C 32.603201,49.971603 12.422421,37.760383 14.202058,33.967113 C 16.091208,29.940403 23.145341,21.842281 33.559616,14.834049 z " style="fill:none;fill-opacity:0.75;fill-rule:evenodd;stroke:#ffffff;stroke-width:1px;stroke-linecap:butt;stroke-linejoin:miter;stroke-opacity:1"/>
        <path sodipodi:nodetypes="ccssssc" id="path1521" d="M 105.87512,34.649043 C 108.45375,38.454333 60.234852,60.401203 60.234852,60.401203 C 60.234852,60.401203 11.514072,82.858733 13.992902,86.749673 C 20.462252,96.904383 25.596712,101.60094 33.074742,106.00361 C 35.774402,107.59301 51.609872,80.549833 59.835532,60.399413 C 70.737562,33.692623 82.948782,13.511842 86.742052,15.291479 C 90.768762,17.180629 98.866889,24.234761 105.87512,34.649043 z " style="fill:none;fill-opacity:0.75;fill-rule:evenodd;stroke:#ffffff;stroke-width:1px;stroke-linecap:butt;stroke-linejoin:miter;stroke-opacity:1"/>
      </g>
      <g inkscape:label="kerne" id="g1523"/>
    </g>
  </g>
</svg>