<?xml version="1.0" encoding="UTF-8" standalone="no"?>
<!-- Created with Inkscape (http://www.inkscape.org/) -->
<svg xmlns:svg="http://www.w3.org/2000/svg" xmlns="http://www.w3.org/2000/svg" xmlns:xlink="http://www.w3.org/1999/xlink" version="1.0" width="48" height="48">
  <defs id="defs1308">
    <linearGradient id="linearGradient4409">
      <stop id="stop4411" style="stop-color:#ffffff;stop-opacity:1" offset="0"/>
      <stop id="stop4413" style="stop-color:#ffffff;stop-opacity:0" offset="1"/>
    </linearGradient>
    <linearGradient id="linearGradient6028">
      <stop id="stop6030" style="stop-color:#ffffff;stop-opacity:1" offset="0"/>
      <stop id="stop6032" style="stop-color:#ffffff;stop-opacity:0" offset="1"/>
    </linearGradient>
    <linearGradient id="linearGradient6036">
      <stop id="stop6038" style="stop-color:#ffffff;stop-opacity:1" offset="0"/>
      <stop id="stop6040" style="stop-color:#ffffff;stop-opacity:0" offset="1"/>
    </linearGradient>
    <linearGradient x1="12.2744" y1="32.4165" x2="35.391201" y2="14.2033" id="aigrd2" gradientUnits="userSpaceOnUse">
      <stop id="stop3043" style="stop-color:#fbfbfb;stop-opacity:1" offset="0"/>
      <stop id="stop3045" style="stop-color:#b6b6b6;stop-opacity:1" offset="0.5"/>
      <stop id="stop3047" style="stop-color:#e4e4e4;stop-opacity:1" offset="1"/>
    </linearGradient>
    <linearGradient x1="14.9966" y1="11.1885" x2="32.511002" y2="34.307499" id="aigrd1" gradientUnits="userSpaceOnUse">
      <stop id="stop3034" style="stop-color:#ebebeb;stop-opacity:1" offset="0"/>
      <stop id="stop3036" style="stop-color:#ffffff;stop-opacity:1" offset="0.5"/>
      <stop id="stop3038" style="stop-color:#ebebeb;stop-opacity:1" offset="1"/>
    </linearGradient>
    <linearGradient id="linearGradient23419">
      <stop id="stop23421" style="stop-color:#000000;stop-opacity:1" offset="0"/>
      <stop id="stop23423" style="stop-color:#000000;stop-opacity:0" offset="1"/>
    </linearGradient>
    <radialGradient cx="23.334524" cy="41.63604" r="22.627417" fx="23.334524" fy="41.63604" id="radialGradient3507" xlink:href="#linearGradient23419" gradientUnits="userSpaceOnUse" gradientTransform="matrix(1, 0, 0, 0.25, 0, 31.227)"/>
    <linearGradient x1="28.702885" y1="31.494707" x2="17.742729" y2="18.366575" id="linearGradient3515" xlink:href="#linearGradient6028" gradientUnits="userSpaceOnUse"/>
    <linearGradient x1="10.50172" y1="3.6100161" x2="48.798885" y2="54.698483" id="linearGradient3519" xlink:href="#linearGradient6036" gradientUnits="userSpaceOnUse" gradientTransform="translate(-0.08452, -1.33332)"/>
    <linearGradient x1="12.2744" y1="32.4165" x2="35.391201" y2="14.2033" id="linearGradient3523" xlink:href="#aigrd2" gradientUnits="userSpaceOnUse" gradientTransform="matrix(1.19048, 0, 0, 1.19048, -4.30894, -3.83332)"/>
    <linearGradient x1="14.9966" y1="11.1885" x2="32.511002" y2="34.307499" id="linearGradient3526" xlink:href="#aigrd1" gradientUnits="userSpaceOnUse" gradientTransform="matrix(1.19048, 0, 0, 1.19048, -4.30894, -3.83332)"/>
    <linearGradient x1="25.985928" y1="24.919628" x2="15.889072" y2="11.669628" id="linearGradient4415" xlink:href="#linearGradient4409" gradientUnits="userSpaceOnUse" gradientTransform="translate(0.5, -0.353553)"/>
  </defs>
  <g id="layer1">
    <path d="M 45.961941,41.63604 A 22.627417,5.6568542 0 1 1 0.70710754,41.63604 A 22.627417,5.6568542 0 1 1 45.961941,41.63604 z" transform="matrix(1, 0, 0, 1.06629, 0.91548, -4.21843)" id="path23417" style="opacity:0.55;fill:url(#radialGradient3507);fill-opacity:1;fill-rule:evenodd;stroke:none;stroke-width:2;stroke-linecap:butt;stroke-linejoin:miter;marker:none;marker-start:none;marker-mid:none;marker-end:none;stroke-miterlimit:4;stroke-dasharray:none;stroke-dashoffset:0;stroke-opacity:1;visibility:visible;display:inline;overflow:visible"/>
    <path d="M 24.262486,2.8333435 C 12.714866,2.8333435 3.4291519,12.119058 3.4291519,23.666677 C 3.4291519,35.214297 12.714866,44.500012 24.262486,44.500012 C 35.810106,44.500012 45.095821,35.214297 45.095821,23.666677 C 45.095821,12.119058 35.810106,2.8333435 24.262486,2.8333435 L 24.262486,2.8333435 z M 24.262486,28.666678 C 21.524391,28.666678 19.262486,26.404773 19.262486,23.666677 C 19.262486,20.928582 21.524391,18.666677 24.262486,18.666677 C 27.000581,18.666677 29.262486,20.928582 29.262486,23.666677 C 29.262486,26.404773 27.000581,28.666678 24.262486,28.666678 z" id="path3040" style="fill:url(#linearGradient3526);fill-rule:nonzero;stroke:none;stroke-miterlimit:4"/>
    <path d="M 24.262486,2.8333431 C 12.714866,2.8333431 3.429152,12.119058 3.429152,23.666677 C 3.429152,35.214297 12.714866,44.500012 24.262486,44.500012 C 35.810106,44.500012 45.095821,35.214297 45.095821,23.666677 C 45.095821,12.119058 35.810106,2.8333431 24.262486,2.8333431 L 24.262486,2.8333431 z M 24.262486,28.666678 C 21.524391,28.666678 19.262486,26.404773 19.262486,23.666677 C 19.262486,20.928582 21.524391,18.666677 24.262486,18.666677 C 27.000581,18.666677 29.262486,20.928582 29.262486,23.666677 C 29.262486,26.404773 27.000581,28.666678 24.262486,28.666678 z" id="path3049" style="fill:url(#linearGradient3523);fill-rule:nonzero;stroke:#808080;stroke-miterlimit:4;stroke-opacity:1"/>
    <path d="M 23.410538,3.4587825 C 12.648847,3.864693 4.1109275,12.676135 4.1109275,23.541217 C 4.1109275,28.466722 5.858051,32.943607 8.7777601,36.427697 L 19.895113,27.017403 C 19.173772,26.174062 18.845878,24.974235 18.845878,23.791217 C 18.845878,20.400827 21.150167,18.223842 24.413253,18.223842 C 25.897178,18.223842 27.38434,18.897269 28.271719,19.97014 L 39.639072,10.684846 C 35.963901,6.2606919 30.394797,3.4587825 24.163253,3.4587825 C 23.902492,3.4587825 23.668819,3.4490406 23.410538,3.4587825 z" id="path3531" style="fill:url(#linearGradient4415);fill-opacity:1;fill-rule:nonzero;stroke:none;stroke-miterlimit:4;stroke-opacity:1"/>
    <path d="M 24.262486,13.562512 C 18.6199,13.562512 14.15832,18.155315 14.15832,23.666677 C 14.15832,29.309265 18.751124,33.770843 24.262486,33.770843 C 29.905072,33.770843 34.366652,29.178041 34.366652,23.666677 C 34.366652,18.024091 29.773848,13.562512 24.262486,13.562512 L 24.262486,13.562512 z M 24.262486,29.178041 C 21.244359,29.178041 18.751124,26.684806 18.751124,23.666677 C 18.751124,20.64855 21.244359,18.155315 24.262486,18.155315 C 27.280613,18.155315 29.773848,20.64855 29.773848,23.666677 C 29.773848,26.684806 27.280613,29.178041 24.262486,29.178041 z" id="path3051" style="opacity:0.51098902;fill:#eeeeec;fill-rule:nonzero;stroke:none;stroke-miterlimit:4"/>
    <path d="M 24.262482,3.8690421 C 13.288938,3.8690421 4.4648511,12.693131 4.4648511,23.666674 C 4.4648511,34.640218 13.288938,43.464305 24.262482,43.464305 C 35.236026,43.464305 44.060113,34.640218 44.060113,23.666674 C 44.060113,12.693131 35.236026,3.8690421 24.262482,3.8690421 L 24.262482,3.8690421 z" id="path5264" style="opacity:0.54644811;fill:none;fill-rule:nonzero;stroke:url(#linearGradient3519);stroke-miterlimit:4;stroke-opacity:1"/>
    <path d="M 30.405591,24.930641 A 6.0987959,6.0987959 0 1 1 18.207999,24.930641 A 6.0987959,6.0987959 0 1 1 30.405591,24.930641 z" transform="translate(0.003868, -1.24493)" id="path6026" style="opacity:0.67213111;fill:none;fill-opacity:0.31638417;fill-rule:nonzero;stroke:url(#linearGradient3515);stroke-width:0.93053865;stroke-linecap:butt;stroke-linejoin:miter;marker:none;marker-start:none;marker-mid:none;marker-end:none;stroke-miterlimit:4;stroke-dashoffset:0;stroke-opacity:1;visibility:visible;display:inline;overflow:visible"/>
    <path d="M 24.25,4.5 C 13.693,4.5 5.125,13.068 5.125,23.625 C 5.125,34.182 13.693,42.75 24.25,42.75 C 34.807,42.75 43.375,34.182 43.375,23.625 C 43.375,13.068 34.807,4.5 24.25,4.5 z M 24.375,17.25 C 27.962997,17.25 30.875,20.162003 30.875,23.75 C 30.875,27.337997 27.962997,30.25 24.375,30.25 C 20.787003,30.25 17.875,27.337997 17.875,23.75 C 17.874999,20.162003 20.787003,17.25 24.375,17.25 z" id="path5410" style="opacity:0.37640453;fill:#3465a4;fill-opacity:1;fill-rule:evenodd;stroke:none;stroke-width:1;stroke-linecap:butt;stroke-linejoin:miter;marker:none;marker-start:none;marker-mid:none;marker-end:none;stroke-miterlimit:4;stroke-dasharray:none;stroke-dashoffset:0.8;stroke-opacity:1;visibility:visible;display:inline;overflow:visible"/>
    <path d="M 38.59375,11.5 L 32.65625,16.78125 C 34.238797,18.68278 35.1875,21.118641 35.1875,23.78125 C 35.1875,29.831263 30.268763,34.75 24.21875,34.75 C 23.689374,34.75 23.165766,34.697781 22.65625,34.625 L 20.5625,42.34375 C 21.745042,42.5754 22.968388,42.6875 24.21875,42.6875 C 34.659888,42.6875 43.124998,34.222388 43.125,23.78125 C 43.125,19.093775 41.418871,14.803779 38.59375,11.5 z" id="path4524" style="opacity:1;fill:#3465a4;fill-opacity:1;fill-rule:evenodd;stroke:none;stroke-width:1;stroke-linecap:butt;stroke-linejoin:miter;marker:none;marker-start:none;marker-mid:none;marker-end:none;stroke-miterlimit:4;stroke-dasharray:none;stroke-dashoffset:0.8;stroke-opacity:1;visibility:visible;display:inline;overflow:visible"/>
    <path d="M 26.260432,4.8952956 L 25.658563,12.818885 C 28.117885,13.087231 30.492491,14.180255 32.342227,16.095448 C 32.342227,16.095448 38.051606,10.581203 38.051606,10.581203 C 34.795179,7.209541 30.587679,5.3090427 26.260432,4.8952956 z" id="path5408" style="opacity:1;fill:#75507b;fill-opacity:1;fill-rule:evenodd;stroke:none;stroke-width:1;stroke-linecap:butt;stroke-linejoin:miter;marker:none;marker-start:none;marker-mid:none;marker-end:none;stroke-miterlimit:4;stroke-dasharray:none;stroke-dashoffset:0.8;stroke-opacity:1;visibility:visible;display:inline;overflow:visible"/>
  </g>
</svg>