<?xml version="1.0" encoding="UTF-8" standalone="no"?>
<!-- Created with Inkscape (http://www.inkscape.org/) -->
<svg xmlns:svg="http://www.w3.org/2000/svg" xmlns="http://www.w3.org/2000/svg" xmlns:xlink="http://www.w3.org/1999/xlink" version="1.0" width="48" height="48" id="svg2">
  <defs id="defs4">
    <linearGradient id="linearGradient3261">
      <stop id="stop3263" style="stop-color:#ff0000;stop-opacity:1" offset="0"/>
      <stop id="stop3269" style="stop-color:#ffff00;stop-opacity:1" offset="0.5506193"/>
      <stop id="stop3265" style="stop-color:#009400;stop-opacity:1" offset="1"/>
    </linearGradient>
    <linearGradient x1="239.99283" y1="212.68774" x2="208.00153" y2="244.67905" id="linearGradient3267" xlink:href="#linearGradient3261" gradientUnits="userSpaceOnUse"/>
    <linearGradient x1="239.99283" y1="212.68774" x2="208.00153" y2="244.67905" id="linearGradient3281" xlink:href="#linearGradient3261" gradientUnits="userSpaceOnUse" gradientTransform="translate(1.9e-06, -1e-06)"/>
    <linearGradient x1="239.99283" y1="212.68774" x2="208.00153" y2="244.67905" id="linearGradient3285" xlink:href="#linearGradient3261" gradientUnits="userSpaceOnUse" gradientTransform="translate(-4e-07, -4e-06)"/>
    <linearGradient x1="239.99283" y1="212.68774" x2="208.00153" y2="244.67905" id="linearGradient3289" xlink:href="#linearGradient3261" gradientUnits="userSpaceOnUse" gradientTransform="translate(3e-06, -5e-06)"/>
    <linearGradient x1="239.99283" y1="212.68774" x2="208.00153" y2="244.67905" id="linearGradient3293" xlink:href="#linearGradient3261" gradientUnits="userSpaceOnUse" gradientTransform="translate(4.2e-06, -4.6e-06)"/>
    <linearGradient x1="239.99283" y1="212.68774" x2="208.00153" y2="244.67905" id="linearGradient3302" xlink:href="#linearGradient3261" gradientUnits="userSpaceOnUse" gradientTransform="translate(0.231546, -2.47007)"/>
    <linearGradient x1="239.99283" y1="212.68774" x2="208.00153" y2="244.67905" id="linearGradient3308" xlink:href="#linearGradient3261" gradientUnits="userSpaceOnUse" gradientTransform="translate(8, -3e-06)"/>
    <linearGradient x1="239.99283" y1="212.68774" x2="208.00153" y2="244.67905" id="linearGradient3312" xlink:href="#linearGradient3261" gradientUnits="userSpaceOnUse" gradientTransform="translate(8, -5e-06)"/>
    <linearGradient x1="239.99283" y1="212.68774" x2="208.00153" y2="244.67905" id="linearGradient3316" xlink:href="#linearGradient3261" gradientUnits="userSpaceOnUse" gradientTransform="translate(8e-06, -6.1e-06)"/>
    <linearGradient x1="239.99283" y1="212.68774" x2="208.00153" y2="244.67905" id="linearGradient3321" xlink:href="#linearGradient3261" gradientUnits="userSpaceOnUse" gradientTransform="translate(4.2e-06, -4.6e-06)"/>
    <linearGradient x1="239.99283" y1="212.68774" x2="208.00153" y2="244.67905" id="linearGradient3324" xlink:href="#linearGradient3261" gradientUnits="userSpaceOnUse" gradientTransform="translate(4.2e-06, -4.6e-06)"/>
    <linearGradient x1="239.99283" y1="212.68774" x2="208.00153" y2="244.67905" id="linearGradient3336" xlink:href="#linearGradient3261" gradientUnits="userSpaceOnUse"/>
    <linearGradient x1="239.99283" y1="212.68774" x2="208.00153" y2="244.67905" id="linearGradient3338" xlink:href="#linearGradient3261" gradientUnits="userSpaceOnUse" gradientTransform="translate(1.9e-06, -1e-06)"/>
    <linearGradient x1="239.99283" y1="212.68774" x2="208.00153" y2="244.67905" id="linearGradient3340" xlink:href="#linearGradient3261" gradientUnits="userSpaceOnUse" gradientTransform="translate(4.2e-06, -4.6e-06)"/>
  </defs>
  <g transform="matrix(0.305907, 0, 0, 0.305907, -62.7797, -38.8318)" id="layer1">
    <g transform="matrix(2.29698, 0, 0, 2.29698, -270.654, -335.623)" id="g3326">
      <path d="M 220.98862,252.87512 C 213.963,243.70377 219.58302,238.29791 224.86247,232.77955 C 225.00377,233.94064 225.52976,234.81322 226.70254,235.20071 C 227.53343,235.75697 228.44978,233.70074 230.09215,233.5059 C 231.43862,233.34617 232.96523,235.26185 233.99814,235.44117 C 234.74514,234.75222 235.57387,234.35512 235.88183,233.85637 C 235.2529,231.64335 234.63153,230.07859 232.61408,230.50457 C 231.63593,230.07869 230.765,229.40964 230.28585,228.51833 C 232.3592,228.45201 233.74326,228.60133 234.11126,227.25933 C 236.01521,227.46235 237.63728,227.70384 238.99839,227.61583 C 246.0107,227.16241 246.24096,222.79183 242.1139,217.89696 C 240.97498,216.54613 239.49124,216.55973 237.79143,216.55783 C 235.94578,214.49734 233.39758,212.75202 229.94689,212.2966 C 229.76038,213.54827 230.29348,214.73998 230.86693,215.92832 C 223.62707,209.08234 214.77885,213.28747 211.39778,218.64971 C 206.00332,227.20511 208.58625,244.15291 219.63278,255.19944 C 223.19196,258.75862 231.0122,255.72944 231.0122,250.21186 C 231.0122,245.81039 228.99535,242.36733 225.58882,242.36733 C 222.673,242.36733 220.60124,244.55668 220.60124,248.12967 C 220.60124,250.60961 222.89096,252.43931 224.66877,252.43931 C 226.90531,252.43931 228.4228,250.27311 228.4228,248.80877 C 228.4228,247.33082 227.06705,246.38762 226.05006,246.38762 C 224.99521,246.38762 224.54895,248.37297 224.54895,248.37297 C 224.54895,248.37297 225.54198,247.21777 226.07428,247.35608 C 226.65908,247.50801 227.13338,248.72432 227.06694,249.32487 C 226.9921,250.0015 225.37354,250.78453 224.69298,250.8006 C 223.62912,250.82571 222.75606,249.09698 222.75606,248.03282 C 222.75606,246.26139 223.70168,244.57057 225.49197,244.57057 C 227.90415,244.57057 228.97843,247.32108 228.97843,249.80027 C 228.97843,251.81453 226.76404,254.40045 224.0877,254.40045 C 223.09103,254.40045 221.49027,253.53 220.98862,252.87512 z" id="path3249" style="opacity:1;fill:url(#linearGradient3336);fill-opacity:1;fill-rule:evenodd;stroke:none;stroke-width:0.3834911;stroke-linecap:round;stroke-linejoin:bevel;stroke-miterlimit:4;stroke-dasharray:none;stroke-dashoffset:0;stroke-opacity:1"/>
      <path d="M 255.28449,132.31841 C 255.28639,134.35082 253.63932,135.99943 251.60691,135.99943 C 249.57449,135.99943 247.92742,134.35082 247.92932,132.31841 C 247.92742,130.286 249.57449,128.63739 251.60691,128.63739 C 253.63932,128.63739 255.28639,130.286 255.28449,132.31841 L 255.28449,132.31841 z" transform="matrix(0.766982, 0, 0, 0.766982, 42.6949, 118.522)" id="path3251" style="opacity:1;fill:#eef4d7;fill-opacity:1;fill-rule:evenodd;stroke:#000000;stroke-width:0.32595286;stroke-linecap:round;stroke-linejoin:bevel;stroke-miterlimit:4;stroke-dasharray:none;stroke-dashoffset:0;stroke-opacity:1"/>
      <path d="M 254.30591,133.0918 C 254.30591,133.92864 253.62752,134.60703 252.79068,134.60703 C 251.95384,134.60703 251.27545,133.92864 251.27545,133.0918 C 251.27545,132.25496 251.95384,131.57657 252.79068,131.57657 C 253.62752,131.57657 254.30591,132.25496 254.30591,133.0918 z" transform="matrix(0.766982, 0, 0, 0.766982, 42.5254, 118.377)" id="path3253" style="opacity:1;fill:#000000;fill-opacity:1;fill-rule:evenodd;stroke:#000000;stroke-width:0.5;stroke-linecap:round;stroke-linejoin:bevel;stroke-miterlimit:4;stroke-dasharray:none;stroke-dashoffset:0;stroke-opacity:1"/>
      <path d="M 244.28441,231.66563 C 248.66952,231.66563 244.72496,254.02581 240.94761,253.98775 C 238.85252,253.96598 233.19118,238.93213 234.21645,237.24616 C 232.42691,239.08588 230.03797,243.20421 227.90232,247.66859 C 225.14035,253.4422 222.64727,259.48502 220.81168,258.70532 C 219.02016,257.61166 223.62575,250.50921 227.70534,243.98495 C 231.13693,238.49701 232.69949,233.33403 235.42461,233.33403 C 238.35927,233.33403 238.56965,243.07599 242.0407,249.50032 C 244.34195,245.83749 240.52195,231.66563 244.28441,231.66563 z" id="path3255" style="opacity:1;fill:#006010;fill-opacity:1;fill-rule:evenodd;stroke:none;stroke-width:0.3834911;stroke-linecap:round;stroke-linejoin:bevel;stroke-miterlimit:4;stroke-dasharray:none;stroke-dashoffset:0;stroke-opacity:1"/>
      <path d="M 252.18461,240.54078 L 252.18461,245.16664 L 247.53477,245.16664 L 247.53477,247.99489 L 252.18461,247.99489 L 252.18461,252.62074 L 254.98888,252.62074 L 254.98888,247.99489 L 259.61475,247.99489 L 259.61475,245.16664 L 254.98888,245.16664 L 254.98888,240.54078 L 252.18461,240.54078 z" id="path3257" style="opacity:1;fill:#006010;fill-opacity:1;fill-rule:evenodd;stroke:none;stroke-width:0.3834911;stroke-linecap:round;stroke-linejoin:bevel;stroke-miterlimit:4;stroke-dasharray:none;stroke-dashoffset:0;stroke-opacity:1"/>
      <path d="M 266.55351,240.54078 L 266.55351,245.16664 L 261.90368,245.16664 L 261.90368,247.99489 L 266.55351,247.99489 L 266.55351,252.62075 L 269.35779,252.62075 L 269.35779,247.99489 L 273.98365,247.99489 L 273.98365,245.16664 L 269.35779,245.16664 L 269.35779,240.54078 L 266.55351,240.54078 z" id="path3259" style="opacity:1;fill:#006010;fill-opacity:1;fill-rule:evenodd;stroke:none;stroke-width:0.3834911;stroke-linecap:round;stroke-linejoin:bevel;stroke-miterlimit:4;stroke-dasharray:none;stroke-dashoffset:0;stroke-opacity:1"/>
      <path d="M 231.0122,250.21186 C 231.0122,245.81039 228.99535,242.36733 225.58882,242.36733 C 222.673,242.36733 220.81493,244.56308 220.60124,248.12967 C 220.54734,249.02931 220.89184,249.84338 221.37147,250.51557 L 223.13643,249.48418 C 222.89771,248.99793 222.75606,248.46146 222.75606,248.03282 C 222.75606,246.26139 223.70168,244.57057 225.49197,244.57057 C 227.90415,244.57057 228.97843,247.32108 228.97843,249.80027 L 231.0122,250.21186 z" id="path3279" style="opacity:1;fill:url(#linearGradient3338);fill-opacity:1;fill-rule:evenodd;stroke:none;stroke-width:0.3834911;stroke-linecap:round;stroke-linejoin:bevel;stroke-miterlimit:4;stroke-dasharray:none;stroke-dashoffset:0;stroke-opacity:1"/>
      <path d="M 226.0625,246.375 C 225.00765,246.375 224.5625,248.375 224.5625,248.375 C 224.5625,248.375 225.0109,247.86207 225.46875,247.5625 C 225.68913,247.41831 225.88954,247.29881 226.0625,247.34375 C 226.6473,247.49568 227.12894,248.71195 227.0625,249.3125 C 227.03663,249.40013 227.02579,249.45901 227.03125,249.46875 C 227.01128,249.51092 226.98862,249.55141 226.96875,249.59375 C 226.54692,250.49242 226.12377,251.40474 225.71875,252.25 C 227.35898,251.71127 228.4375,250.03048 228.4375,248.8125 C 228.4375,248.30188 228.25378,247.86612 228,247.5 C 227.5577,246.86192 226.84969,246.46506 226.21875,246.40625 C 226.16388,246.40114 226.11575,246.375 226.0625,246.375 z" id="path3291" style="opacity:1;fill:url(#linearGradient3340);fill-opacity:1;fill-rule:evenodd;stroke:none;stroke-width:0.3834911;stroke-linecap:round;stroke-linejoin:bevel;stroke-miterlimit:4;stroke-dasharray:none;stroke-dashoffset:0;stroke-opacity:1"/>
    </g>
  </g>
</svg>