<?xml version="1.0" encoding="UTF-8" standalone="no"?>
<!-- Created with Inkscape (http://www.inkscape.org/) -->
<svg xmlns:dc="http://purl.org/dc/elements/1.1/" xmlns:cc="http://web.resource.org/cc/" xmlns:rdf="http://www.w3.org/1999/02/22-rdf-syntax-ns#" xmlns:svg="http://www.w3.org/2000/svg" xmlns="http://www.w3.org/2000/svg" xmlns:xlink="http://www.w3.org/1999/xlink" xmlns:sodipodi="http://sodipodi.sourceforge.net/DTD/sodipodi-0.dtd" xmlns:inkscape="http://www.inkscape.org/namespaces/inkscape" width="48" height="48" id="svg2" sodipodi:version="0.32" inkscape:version="0.44.1" version="1.0" sodipodi:docbase="/home/dobey/.icons/hicolor/48x48/apps" sodipodi:docname="onyx.svg">
  <defs id="defs4">
    <radialGradient inkscape:collect="always" xlink:href="#linearGradient7197" id="radialGradient2960" gradientUnits="userSpaceOnUse" gradientTransform="matrix(-0.0437249, 0, 0, 0.0494117, 39.7948, 14.8833)" cx="605.71429" cy="486.64789" fx="605.71429" fy="486.64789" r="117.14286"/>
    <linearGradient inkscape:collect="always" id="linearGradient7197">
      <stop style="stop-color:black;stop-opacity:1;" offset="0" id="stop7199"/>
      <stop style="stop-color:black;stop-opacity:0;" offset="1" id="stop7201"/>
    </linearGradient>
    <radialGradient inkscape:collect="always" xlink:href="#linearGradient7197" id="radialGradient2958" gradientUnits="userSpaceOnUse" gradientTransform="matrix(0.0437249, 0, 0, 0.0494117, 8.20519, 14.8833)" cx="605.71429" cy="486.64789" fx="605.71429" fy="486.64789" r="117.14286"/>
    <linearGradient id="linearGradient5048">
      <stop style="stop-color:black;stop-opacity:0;" offset="0" id="stop5050"/>
      <stop id="stop5056" offset="0.5" style="stop-color:black;stop-opacity:1;"/>
      <stop style="stop-color:black;stop-opacity:0;" offset="1" id="stop5052"/>
    </linearGradient>
    <linearGradient inkscape:collect="always" xlink:href="#linearGradient5048" id="linearGradient2956" gradientUnits="userSpaceOnUse" gradientTransform="matrix(0.0437249, 0, 0, 0.0494117, 8.19659, 14.8833)" x1="302.85715" y1="366.64789" x2="302.85715" y2="609.50507"/>
    <linearGradient inkscape:collect="always" id="linearGradient2785">
      <stop style="stop-color:#888a85;stop-opacity:1;" offset="0" id="stop2787"/>
      <stop style="stop-color:#888a85;stop-opacity:0;" offset="1" id="stop2789"/>
    </linearGradient>
    <linearGradient inkscape:collect="always" id="linearGradient2768">
      <stop style="stop-color:#888a85;stop-opacity:1;" offset="0" id="stop2770"/>
      <stop style="stop-color:#888a85;stop-opacity:0;" offset="1" id="stop2772"/>
    </linearGradient>
    <linearGradient id="linearGradient2774">
      <stop style="stop-color:#656565;stop-opacity:1;" offset="0" id="stop2776"/>
      <stop style="stop-color:#5f625d;stop-opacity:0;" offset="1" id="stop2778"/>
    </linearGradient>
    <linearGradient inkscape:collect="always" xlink:href="#linearGradient2774" id="linearGradient2772" x1="4.2143121" y1="9.3559799" x2="13.642879" y2="44.355976" gradientUnits="userSpaceOnUse"/>
    <linearGradient inkscape:collect="always" xlink:href="#linearGradient2774" id="linearGradient2781" x1="13.07694" y1="17.99979" x2="19.326546" y2="30.270285" gradientUnits="userSpaceOnUse"/>
    <linearGradient inkscape:collect="always" xlink:href="#linearGradient2774" id="linearGradient2789" x1="18.64286" y1="8.1152649" x2="27.265989" y2="31.97541" gradientUnits="userSpaceOnUse"/>
    <linearGradient inkscape:collect="always" xlink:href="#linearGradient2768" id="linearGradient2775" x1="15.756787" y1="17.152641" x2="19.488962" y2="26.735115" gradientUnits="userSpaceOnUse"/>
    <linearGradient inkscape:collect="always" xlink:href="#linearGradient2768" id="linearGradient2783" x1="20.987017" y1="7.1943469" x2="38.735619" y2="31.389372" gradientUnits="userSpaceOnUse"/>
    <linearGradient inkscape:collect="always" xlink:href="#linearGradient2785" id="linearGradient2791" x1="26.428598" y1="44.78455" x2="13.714309" y2="0.42740807" gradientUnits="userSpaceOnUse"/>
  </defs>
  <sodipodi:namedview id="base" pagecolor="#ffffff" bordercolor="#2e2c2c" borderopacity="1" gridtolerance="10000" guidetolerance="10" objecttolerance="10" inkscape:pageopacity="0.0" inkscape:pageshadow="2" inkscape:zoom="14" inkscape:cx="23.709718" inkscape:cy="23.747285" inkscape:document-units="px" inkscape:current-layer="layer1" width="48px" height="48px" showgrid="true" inkscape:window-width="758" inkscape:window-height="923" inkscape:window-x="304" inkscape:window-y="37"/>
  <metadata id="metadata7">
    <rdf:RDF>
      <cc:Work rdf:about="">
        <dc:format>image/svg+xml</dc:format>
        <dc:type rdf:resource="http://purl.org/dc/dcmitype/StillImage"/>
        <dc:title>Onyx</dc:title>
        <dc:creator>
          <cc:Agent>
            <dc:title>Rodney Dawes</dc:title>
          </cc:Agent>
        </dc:creator>
        <cc:license rdf:resource="http://creativecommons.org/licenses/GPL/2.0/"/>
      </cc:Work>
      <cc:License rdf:about="http://creativecommons.org/licenses/GPL/2.0/">
        <cc:permits rdf:resource="http://web.resource.org/cc/Reproduction"/>
        <cc:permits rdf:resource="http://web.resource.org/cc/Distribution"/>
        <cc:requires rdf:resource="http://web.resource.org/cc/Notice"/>
        <cc:permits rdf:resource="http://web.resource.org/cc/DerivativeWorks"/>
        <cc:requires rdf:resource="http://web.resource.org/cc/ShareAlike"/>
        <cc:requires rdf:resource="http://web.resource.org/cc/SourceCode"/>
      </cc:License>
    </rdf:RDF>
  </metadata>
  <g inkscape:label="Layer 1" inkscape:groupmode="layer" id="layer1">
    <g id="g2951" transform="matrix(1.3125, 0, 0, 0.416667, -7.5, 29.25)">
      <rect y="32.999989" x="13.443567" height="11.999987" width="21.112856" id="rect3954" style="opacity:0.40206185;color:black;fill:url(#linearGradient2956);fill-opacity:1;fill-rule:nonzero;stroke:none;stroke-width:1;stroke-linecap:round;stroke-linejoin:miter;marker:none;marker-start:none;marker-mid:none;marker-end:none;stroke-miterlimit:4;stroke-dasharray:none;stroke-dashoffset:0;stroke-opacity:1;visibility:visible;display:inline;overflow:visible"/>
      <path sodipodi:nodetypes="cccc" id="path3956" d="M 34.556424,33.000402 C 34.556424,33.000402 34.556424,44.999726 34.556424,44.999726 C 36.808146,45.022313 39.999991,42.311286 39.999991,38.99929 C 39.999991,35.687294 37.487239,33.000402 34.556424,33.000402 z " style="opacity:0.40206185;color:black;fill:url(#radialGradient2958);fill-opacity:1;fill-rule:nonzero;stroke:none;stroke-width:1;stroke-linecap:round;stroke-linejoin:miter;marker:none;marker-start:none;marker-mid:none;marker-end:none;stroke-miterlimit:4;stroke-dasharray:none;stroke-dashoffset:0;stroke-opacity:1;visibility:visible;display:inline;overflow:visible"/>
      <path style="opacity:0.40206185;color:black;fill:url(#radialGradient2960);fill-opacity:1;fill-rule:nonzero;stroke:none;stroke-width:1;stroke-linecap:round;stroke-linejoin:miter;marker:none;marker-start:none;marker-mid:none;marker-end:none;stroke-miterlimit:4;stroke-dasharray:none;stroke-dashoffset:0;stroke-opacity:1;visibility:visible;display:inline;overflow:visible" d="M 13.443568,33.000402 C 13.443568,33.000402 13.443568,44.999726 13.443568,44.999726 C 11.191846,45.022313 8.0000007,42.311286 8.0000007,38.99929 C 8.0000007,35.687294 10.512752,33.000402 13.443568,33.000402 z " id="path3958" sodipodi:nodetypes="cccc"/>
    </g>
    <path sodipodi:type="arc" style="opacity:1;fill:#2e3436;fill-opacity:1;stroke:#555753;stroke-width:1.0744046;stroke-miterlimit:4;stroke-dasharray:none;stroke-opacity:1" id="path1890" sodipodi:cx="31.535715" sodipodi:cy="19.25" sodipodi:rx="12.892858" sodipodi:ry="12.892858" d="M 44.428573 19.25 A 12.892858 12.892858 0 1 1  18.642858,19.25 A 12.892858 12.892858 0 1 1  44.428573 19.25 z" transform="matrix(0.930748, 0, 0, 0.930748, 2.1482, 1.5831)"/>
    <path style="opacity:1;fill:#2e3436;fill-opacity:1;stroke:#555753;stroke-width:0.9908812;stroke-miterlimit:4;stroke-dasharray:none;stroke-opacity:1" d="M 23.999988,1.4954417 C 11.577483,1.4954417 1.4954408,11.577494 1.4954408,24.000012 C 1.4954408,36.422529 11.577483,46.50458 23.999988,46.504581 C 36.422493,46.504581 46.504534,36.422528 46.504535,24.000012 C 46.504535,23.376696 46.464544,22.755136 46.414755,22.144581 C 45.543769,30.712532 38.302939,37.406989 29.50642,37.406989 C 20.123463,37.406989 12.508304,29.791821 12.508304,20.408857 C 12.508304,11.025892 20.123464,3.4107242 29.50642,3.4107242 C 31.366173,3.4107242 33.157969,3.7257878 34.833293,4.2785866 C 31.617328,2.5062143 27.92925,1.4954417 23.999988,1.4954417 z " id="path1884"/>
    <path sodipodi:type="arc" style="opacity:1;fill:url(#linearGradient2789);fill-opacity:1.0;stroke:url(#linearGradient2783);stroke-width:1.17207805;stroke-miterlimit:4;stroke-dasharray:none;stroke-opacity:1" id="path1872" sodipodi:cx="31.535715" sodipodi:cy="19.25" sodipodi:rx="12.892858" sodipodi:ry="12.892858" d="M 44.428573 19.25 A 12.892858 12.892858 0 1 1  18.642858,19.25 A 12.892858 12.892858 0 1 1  44.428573 19.25 z" transform="matrix(0.853185, 0, 0, 0.853186, 4.59419, 3.07617)"/>
    <path sodipodi:type="arc" style="opacity:1;fill:#2e3436;fill-opacity:1;stroke:#555753;stroke-width:0.97448981;stroke-miterlimit:4;stroke-dasharray:none;stroke-opacity:1" id="path1892" sodipodi:cx="18.678572" sodipodi:cy="23.892857" sodipodi:rx="6.8214288" sodipodi:ry="6.8214288" d="M 25.5 23.892857 A 6.8214288 6.8214288 0 1 1  11.857143,23.892857 A 6.8214288 6.8214288 0 1 1  25.5 23.892857 z" transform="matrix(1.02618, 0, 0, 1.02618, 2.33246, -2.01832)"/>
    <path style="opacity:1;fill:url(#linearGradient2772);fill-opacity:1.0;stroke:url(#linearGradient2791);stroke-width:0.99088168;stroke-miterlimit:4;stroke-dasharray:none;stroke-opacity:1" d="M 24.007207,2.4954402 C 12.132731,2.4954402 2.4954671,12.129487 2.4954671,23.999998 C 2.4954671,35.870508 12.132731,45.504553 24.007207,45.504553 C 34.576656,45.332057 42.454322,38.436862 45.50458,28.727014 C 42.528446,33.41424 37.321909,38.311222 28.913456,38.311222 C 19.944436,38.311222 11.59344,29.605871 11.59344,20.639848 C 11.59344,11.673825 17.847637,6.288466 21.839666,4.1827576 C 23.87103,3.1112569 25.401576,2.8409642 27.646064,2.6549134 C 25.000521,2.4612975 26.834246,2.4954402 24.007207,2.4954402 z " id="path1903" sodipodi:nodetypes="csccssscc"/>
    <path sodipodi:type="arc" style="opacity:1;fill:url(#linearGradient2781);fill-opacity:1;stroke:url(#linearGradient2775);stroke-width:1.13690431;stroke-miterlimit:4;stroke-dasharray:none;stroke-opacity:1" id="path1905" sodipodi:cx="18.678572" sodipodi:cy="23.892857" sodipodi:rx="6.8214288" sodipodi:ry="6.8214288" d="M 25.5 23.892857 A 6.8214288 6.8214288 0 1 1  11.857143,23.892857 A 6.8214288 6.8214288 0 1 1  25.5 23.892857 z" transform="matrix(0.879581, 0, 0, 0.879582, 5.07068, 1.48428)"/>
  </g>
</svg>