<?xml version="1.0" encoding="UTF-8" standalone="no"?>
<!-- Created with Inkscape (http://www.inkscape.org/) -->
<svg xmlns:dc="http://purl.org/dc/elements/1.1/" xmlns:cc="http://creativecommons.org/ns#" xmlns:rdf="http://www.w3.org/1999/02/22-rdf-syntax-ns#" xmlns:svg="http://www.w3.org/2000/svg" xmlns="http://www.w3.org/2000/svg" xmlns:xlink="http://www.w3.org/1999/xlink" xmlns:sodipodi="http://sodipodi.sourceforge.net/DTD/sodipodi-0.dtd" xmlns:inkscape="http://www.inkscape.org/namespaces/inkscape" inkscape:export-ydpi="90" inkscape:export-xdpi="90" inkscape:export-filename="/home/sa/Desktop/packages-kino.png" sodipodi:docname="packages-kino.svg" sodipodi:docbase="/home/sa/Desktop/ok/mime" inkscape:version="0.45.1+0.46pre1+devel" sodipodi:version="0.32" id="svg249" height="48.000000px" width="48.000000px" inkscape:output_extension="org.inkscape.output.svg.inkscape">
  <defs id="defs3">
    <radialGradient inkscape:collect="always" xlink:href="#linearGradient5060" id="radialGradient6719" gradientUnits="userSpaceOnUse" gradientTransform="matrix(-2.77439, 0, 0, 1.96971, 112.762, -872.885)" cx="605.71429" cy="486.64789" fx="605.71429" fy="486.64789" r="117.14286"/>
    <linearGradient inkscape:collect="always" id="linearGradient5060">
      <stop style="stop-color:black;stop-opacity:1;" offset="0" id="stop5062"/>
      <stop style="stop-color:black;stop-opacity:0;" offset="1" id="stop5064"/>
    </linearGradient>
    <radialGradient inkscape:collect="always" xlink:href="#linearGradient5060" id="radialGradient6717" gradientUnits="userSpaceOnUse" gradientTransform="matrix(2.77439, 0, 0, 1.96971, -1891.63, -872.885)" cx="605.71429" cy="486.64789" fx="605.71429" fy="486.64789" r="117.14286"/>
    <linearGradient id="linearGradient5048">
      <stop style="stop-color:black;stop-opacity:0;" offset="0" id="stop5050"/>
      <stop id="stop5056" offset="0.5" style="stop-color:black;stop-opacity:1;"/>
      <stop style="stop-color:black;stop-opacity:0;" offset="1" id="stop5052"/>
    </linearGradient>
    <linearGradient inkscape:collect="always" xlink:href="#linearGradient5048" id="linearGradient6715" gradientUnits="userSpaceOnUse" gradientTransform="matrix(2.77439, 0, 0, 1.96971, -1892.18, -872.885)" x1="302.85715" y1="366.64789" x2="302.85715" y2="609.50507"/>
    <linearGradient id="linearGradient15662">
      <stop id="stop15664" offset="0.0000000" style="stop-color:#ffffff;stop-opacity:1.0000000;"/>
      <stop id="stop15666" offset="1.0000000" style="stop-color:#f8f8f8;stop-opacity:1.0000000;"/>
    </linearGradient>
    <radialGradient id="aigrd3" cx="20.8921" cy="64.5679" r="5.257" fx="20.8921" fy="64.5679" gradientUnits="userSpaceOnUse">
      <stop offset="0" style="stop-color:#F0F0F0" id="stop15573"/>
      <stop offset="1.0000000" style="stop-color:#9a9a9a;stop-opacity:1.0000000;" id="stop15575"/>
    </radialGradient>
    <radialGradient id="aigrd2" cx="20.8921" cy="114.5684" r="5.256" fx="20.8921" fy="114.5684" gradientUnits="userSpaceOnUse">
      <stop offset="0" style="stop-color:#F0F0F0" id="stop15566"/>
      <stop offset="1.0000000" style="stop-color:#9a9a9a;stop-opacity:1.0000000;" id="stop15568"/>
    </radialGradient>
    <linearGradient id="linearGradient269">
      <stop id="stop270" offset="0.0000000" style="stop-color:#a3a3a3;stop-opacity:1.0000000;"/>
      <stop id="stop271" offset="1.0000000" style="stop-color:#4c4c4c;stop-opacity:1.0000000;"/>
    </linearGradient>
    <linearGradient id="linearGradient259">
      <stop id="stop260" offset="0.0000000" style="stop-color:#fafafa;stop-opacity:1.0000000;"/>
      <stop id="stop261" offset="1.0000000" style="stop-color:#bbbbbb;stop-opacity:1.0000000;"/>
    </linearGradient>
    <radialGradient inkscape:collect="always" xlink:href="#linearGradient269" id="radialGradient15656" gradientUnits="userSpaceOnUse" gradientTransform="matrix(0.968273, 0, 0, 1.03277, 3.35355, 0.646447)" cx="8.8244190" cy="3.7561285" fx="8.8244190" fy="3.7561285" r="37.751713"/>
    <radialGradient inkscape:collect="always" xlink:href="#linearGradient259" id="radialGradient15658" gradientUnits="userSpaceOnUse" gradientTransform="scale(0.960493, 1.04113)" cx="33.966679" cy="35.736916" fx="33.966679" fy="35.736916" r="86.708450"/>
    <radialGradient inkscape:collect="always" xlink:href="#linearGradient15662" id="radialGradient15668" gradientUnits="userSpaceOnUse" gradientTransform="matrix(0.968273, 0, 0, 1.03277, 3.35355, 0.646447)" cx="8.1435566" cy="7.2678967" fx="8.1435566" fy="7.2678967" r="38.158695"/>
    <radialGradient r="5.256" fy="114.5684" fx="20.8921" cy="114.5684" cx="20.8921" gradientTransform="matrix(0.229703, 0, 0, 0.229703, 4.61353, 3.97981)" gradientUnits="userSpaceOnUse" id="radialGradient2283" xlink:href="#aigrd2" inkscape:collect="always"/>
    <radialGradient r="5.257" fy="64.5679" fx="20.8921" cy="64.5679" cx="20.8921" gradientTransform="matrix(0.229703, 0, 0, 0.229703, 4.61353, 3.97981)" gradientUnits="userSpaceOnUse" id="radialGradient2285" xlink:href="#aigrd3" inkscape:collect="always"/>
    <linearGradient id="linearGradient3184">
      <stop style="stop-color:#615c51;stop-opacity:1.0000000;" offset="0.0000000" id="stop3185"/>
      <stop style="stop-color:#37342e;stop-opacity:1.0000000;" offset="1.0000000" id="stop3186"/>
    </linearGradient>
    <linearGradient gradientUnits="userSpaceOnUse" gradientTransform="scale(1.27575, 0.783853)" id="linearGradient891" xlink:href="#linearGradient3184" x1="6.7856763" y1="86.751069" x2="114.24961" y2="192.90602"/>
  </defs>
  <sodipodi:namedview inkscape:window-y="114" inkscape:window-x="37" inkscape:window-height="665" inkscape:window-width="872" inkscape:document-units="px" inkscape:grid-bbox="true" showgrid="false" inkscape:current-layer="layer5" inkscape:cy="11.442237" inkscape:cx="29.399919" inkscape:zoom="5.6568542" inkscape:pageshadow="2" inkscape:pageopacity="0.0" borderopacity="0.25490196" bordercolor="#666666" pagecolor="#ffffff" id="base" inkscape:showpageshadow="false"/>
  <metadata id="metadata4">
    <rdf:RDF>
      <cc:Work rdf:about="">
        <dc:format>image/svg+xml</dc:format>
        <dc:type rdf:resource="http://purl.org/dc/dcmitype/StillImage"/>
        <dc:title>Generic Text</dc:title>
        <dc:subject>
          <rdf:Bag>
            <rdf:li>text</rdf:li>
            <rdf:li>plaintext</rdf:li>
            <rdf:li>regular</rdf:li>
            <rdf:li>document</rdf:li>
          </rdf:Bag>
        </dc:subject>
        <cc:license rdf:resource="http://creativecommons.org/licenses/by-sa/2.0/"/>
        <dc:creator>
          <cc:Agent>
            <dc:title>Jakub Steiner</dc:title>
          </cc:Agent>
        </dc:creator>
        <dc:source>http://jimmac.musichall.cz</dc:source>
      </cc:Work>
      <cc:License rdf:about="http://creativecommons.org/licenses/by/2.0/">
        <cc:permits rdf:resource="http://web.resource.org/cc/Reproduction"/>
        <cc:permits rdf:resource="http://web.resource.org/cc/Distribution"/>
        <cc:requires rdf:resource="http://web.resource.org/cc/Notice"/>
        <cc:requires rdf:resource="http://web.resource.org/cc/Attribution"/>
        <cc:permits rdf:resource="http://web.resource.org/cc/DerivativeWorks"/>
        <cc:requires rdf:resource="http://web.resource.org/cc/ShareAlike"/>
      </cc:License>
      <cc:Work rdf:about="">
        <dc:format>image/svg+xml</dc:format>
        <dc:type rdf:resource="http://purl.org/dc/dcmitype/StillImage"/>
      </cc:Work>
    </rdf:RDF>
  </metadata>
  <g inkscape:groupmode="layer" id="layer6" inkscape:label="Shadow">
    <g style="display:inline" transform="matrix(0.0210546, 0, 0, 0.0208676, 42.8517, 41.1536)" id="g6707">
      <rect style="opacity:0.40206185;color:black;fill:url(#linearGradient6715);fill-opacity:1;fill-rule:nonzero;stroke:none;stroke-width:1;stroke-linecap:round;stroke-linejoin:miter;marker:none;marker-start:none;marker-mid:none;marker-end:none;stroke-miterlimit:4;stroke-dasharray:none;stroke-dashoffset:0;stroke-opacity:1;visibility:visible;display:inline;overflow:visible" id="rect6709" width="1339.6335" height="478.35718" x="-1559.2523" y="-150.69685"/>
      <path style="opacity:0.40206185;color:black;fill:url(#radialGradient6717);fill-opacity:1;fill-rule:nonzero;stroke:none;stroke-width:1;stroke-linecap:round;stroke-linejoin:miter;marker:none;marker-start:none;marker-mid:none;marker-end:none;stroke-miterlimit:4;stroke-dasharray:none;stroke-dashoffset:0;stroke-opacity:1;visibility:visible;display:inline;overflow:visible" d="M -219.61876,-150.68038 C -219.61876,-150.68038 -219.61876,327.65041 -219.61876,327.65041 C -76.744594,328.55086 125.78146,220.48075 125.78138,88.454235 C 125.78138,-43.572302 -33.655436,-150.68036 -219.61876,-150.68038 z " id="path6711" sodipodi:nodetypes="cccc"/>
      <path sodipodi:nodetypes="cccc" id="path6713" d="M -1559.2523,-150.68038 C -1559.2523,-150.68038 -1559.2523,327.65041 -1559.2523,327.65041 C -1702.1265,328.55086 -1904.6525,220.48075 -1904.6525,88.454235 C -1904.6525,-43.572302 -1745.2157,-150.68036 -1559.2523,-150.68038 z " style="opacity:0.40206185;color:black;fill:url(#radialGradient6719);fill-opacity:1;fill-rule:nonzero;stroke:none;stroke-width:1;stroke-linecap:round;stroke-linejoin:miter;marker:none;marker-start:none;marker-mid:none;marker-end:none;stroke-miterlimit:4;stroke-dasharray:none;stroke-dashoffset:0;stroke-opacity:1;visibility:visible;display:inline;overflow:visible"/>
    </g>
  </g>
  <g style="display:inline" inkscape:groupmode="layer" inkscape:label="Base" id="layer1">
    <rect style="color:#000000;fill:url(#radialGradient15658);fill-opacity:1.0000000;fill-rule:nonzero;stroke:url(#radialGradient15656);stroke-width:1.0000000;stroke-linecap:round;stroke-linejoin:round;stroke-miterlimit:4.0000000;stroke-dashoffset:0.0000000;stroke-opacity:1.0000000;marker:none;marker-start:none;marker-mid:none;marker-end:none;visibility:visible;display:block;overflow:visible" id="rect15391" width="34.875000" height="40.920494" x="6.6035528" y="3.6464462" ry="1.1490486"/>
    <rect style="color:#000000;fill:none;fill-opacity:1.0000000;fill-rule:nonzero;stroke:url(#radialGradient15668);stroke-width:1.0000000;stroke-linecap:round;stroke-linejoin:round;stroke-miterlimit:4.0000000;stroke-dashoffset:0.0000000;stroke-opacity:1.0000000;marker:none;marker-start:none;marker-mid:none;marker-end:none;visibility:visible;display:block;overflow:visible" id="rect15660" width="32.775887" height="38.946384" x="7.6660538" y="4.5839462" ry="0.14904857" rx="0.14904857"/>
    <g transform="translate(0.646447, -0.0379893)" id="g2270">
      <g id="g1440" style="fill:#ffffff;fill-opacity:1.0000000;fill-rule:nonzero;stroke:#000000;stroke-miterlimit:4.0000000" transform="matrix(0.229703, 0, 0, 0.229703, 4.96708, 4.24497)">
        <radialGradient id="radialGradient1442" cx="20.892099" cy="114.56840" r="5.2560000" fx="20.892099" fy="114.56840" gradientUnits="userSpaceOnUse">
          <stop offset="0" style="stop-color:#F0F0F0" id="stop1444"/>
          <stop offset="1" style="stop-color:#474747" id="stop1446"/>
        </radialGradient>
        <path style="stroke:none" d="M 23.428000,113.07000 C 23.428000,115.04300 21.828000,116.64200 19.855000,116.64200 C 17.881000,116.64200 16.282000,115.04200 16.282000,113.07000 C 16.282000,111.09600 17.882000,109.49700 19.855000,109.49700 C 21.828000,109.49700 23.428000,111.09700 23.428000,113.07000 z " id="path1448"/>
        <radialGradient id="radialGradient1450" cx="20.892099" cy="64.567902" r="5.2570000" fx="20.892099" fy="64.567902" gradientUnits="userSpaceOnUse">
          <stop offset="0" style="stop-color:#F0F0F0" id="stop1452"/>
          <stop offset="1" style="stop-color:#474747" id="stop1454"/>
        </radialGradient>
        <path style="stroke:none" d="M 23.428000,63.070000 C 23.428000,65.043000 21.828000,66.643000 19.855000,66.643000 C 17.881000,66.643000 16.282000,65.043000 16.282000,63.070000 C 16.282000,61.096000 17.882000,59.497000 19.855000,59.497000 C 21.828000,59.497000 23.428000,61.097000 23.428000,63.070000 z " id="path1456"/>
      </g>
      <path style="fill:url(#radialGradient2283);fill-rule:nonzero;stroke:none;stroke-miterlimit:4.0000000" d="M 9.9950109,29.952326 C 9.9950109,30.405530 9.6274861,30.772825 9.1742821,30.772825 C 8.7208483,30.772825 8.3535532,30.405301 8.3535532,29.952326 C 8.3535532,29.498892 8.7210780,29.131597 9.1742821,29.131597 C 9.6274861,29.131597 9.9950109,29.499122 9.9950109,29.952326 z " id="path15570"/>
      <path style="fill:url(#radialGradient2285);fill-rule:nonzero;stroke:none;stroke-miterlimit:4.0000000" d="M 9.9950109,18.467176 C 9.9950109,18.920380 9.6274861,19.287905 9.1742821,19.287905 C 8.7208483,19.287905 8.3535532,18.920380 8.3535532,18.467176 C 8.3535532,18.013742 8.7210780,17.646447 9.1742821,17.646447 C 9.6274861,17.646447 9.9950109,18.013972 9.9950109,18.467176 z " id="path15577"/>
    </g>
    <path style="fill:none;fill-opacity:0.75000000;fill-rule:evenodd;stroke:#000000;stroke-width:0.98855311;stroke-linecap:butt;stroke-linejoin:miter;stroke-miterlimit:4.0000000;stroke-opacity:0.017543854" d="M 11.505723,5.4942766 L 11.505723,43.400869" id="path15672" sodipodi:nodetypes="cc"/>
    <path style="fill:none;fill-opacity:0.75000000;fill-rule:evenodd;stroke:#ffffff;stroke-width:1.0000000;stroke-linecap:butt;stroke-linejoin:miter;stroke-miterlimit:4.0000000;stroke-opacity:0.20467831" d="M 12.500000,5.0205154 L 12.500000,43.038228" id="path15674" sodipodi:nodetypes="cc"/>
  </g>
  <g inkscape:groupmode="layer" id="layer5" inkscape:label="Text" style="display:inline">
    <rect ry="0.065390877" rx="0.13778631" y="9" x="15.999994" height="1" width="20.000006" id="rect15686" style="color:#000000;fill:#9b9b9b;fill-opacity:0.54970757;fill-rule:nonzero;stroke:none;stroke-width:1;stroke-linecap:round;stroke-linejoin:round;marker:none;marker-start:none;marker-mid:none;marker-end:none;stroke-miterlimit:4;stroke-dashoffset:0;stroke-opacity:0.08187136;visibility:visible;display:block;overflow:visible"/>
    <rect ry="0.065390877" rx="0.13778631" y="11" x="15.999994" height="1" width="20.000006" id="rect15688" style="color:#000000;fill:#9b9b9b;fill-opacity:0.54970757;fill-rule:nonzero;stroke:none;stroke-width:1;stroke-linecap:round;stroke-linejoin:round;marker:none;marker-start:none;marker-mid:none;marker-end:none;stroke-miterlimit:4;stroke-dashoffset:0;stroke-opacity:0.08187136;visibility:visible;display:block;overflow:visible"/>
    <rect ry="0.065390877" rx="0.13778631" y="13" x="15.999994" height="1" width="20.000006" id="rect15690" style="color:#000000;fill:#9b9b9b;fill-opacity:0.54970757;fill-rule:nonzero;stroke:none;stroke-width:1;stroke-linecap:round;stroke-linejoin:round;marker:none;marker-start:none;marker-mid:none;marker-end:none;stroke-miterlimit:4;stroke-dashoffset:0;stroke-opacity:0.08187136;visibility:visible;display:block;overflow:visible"/>
    <rect ry="0.065390877" rx="0.13778631" y="15" x="15.999994" height="1" width="20.000006" id="rect15692" style="color:#000000;fill:#9b9b9b;fill-opacity:0.54970757;fill-rule:nonzero;stroke:none;stroke-width:1;stroke-linecap:round;stroke-linejoin:round;marker:none;marker-start:none;marker-mid:none;marker-end:none;stroke-miterlimit:4;stroke-dashoffset:0;stroke-opacity:0.08187136;visibility:visible;display:block;overflow:visible"/>
    <rect ry="0.065390877" rx="0.13778631" y="17" x="15.999994" height="1" width="20.000006" id="rect15694" style="color:#000000;fill:#9b9b9b;fill-opacity:0.54970757;fill-rule:nonzero;stroke:none;stroke-width:1;stroke-linecap:round;stroke-linejoin:round;marker:none;marker-start:none;marker-mid:none;marker-end:none;stroke-miterlimit:4;stroke-dashoffset:0;stroke-opacity:0.08187136;visibility:visible;display:block;overflow:visible"/>
    <rect ry="0.065390877" rx="0.13778631" y="19" x="15.999994" height="1" width="20.000006" id="rect15696" style="color:#000000;fill:#9b9b9b;fill-opacity:0.54970757;fill-rule:nonzero;stroke:none;stroke-width:1;stroke-linecap:round;stroke-linejoin:round;marker:none;marker-start:none;marker-mid:none;marker-end:none;stroke-miterlimit:4;stroke-dashoffset:0;stroke-opacity:0.08187136;visibility:visible;display:block;overflow:visible"/>
    <rect ry="0.065390877" rx="0.13778631" y="21" x="15.999994" height="1" width="20.000006" id="rect15698" style="color:#000000;fill:#9b9b9b;fill-opacity:0.54970757;fill-rule:nonzero;stroke:none;stroke-width:1;stroke-linecap:round;stroke-linejoin:round;marker:none;marker-start:none;marker-mid:none;marker-end:none;stroke-miterlimit:4;stroke-dashoffset:0;stroke-opacity:0.08187136;visibility:visible;display:block;overflow:visible"/>
    <rect ry="0.065390877" rx="0.13778631" y="23" x="15.999994" height="1" width="20.000006" id="rect15700" style="color:#000000;fill:#9b9b9b;fill-opacity:0.54970757;fill-rule:nonzero;stroke:none;stroke-width:1;stroke-linecap:round;stroke-linejoin:round;marker:none;marker-start:none;marker-mid:none;marker-end:none;stroke-miterlimit:4;stroke-dashoffset:0;stroke-opacity:0.08187136;visibility:visible;display:block;overflow:visible"/>
    <rect ry="0.065390877" rx="0.062003858" y="25" x="15.999986" height="1" width="9.0000057" id="rect15732" style="color:#000000;fill:#9b9b9b;fill-opacity:0.54970757;fill-rule:nonzero;stroke:none;stroke-width:1;stroke-linecap:round;stroke-linejoin:round;marker:none;marker-start:none;marker-mid:none;marker-end:none;stroke-miterlimit:4;stroke-dashoffset:0;stroke-opacity:0.08187136;visibility:visible;display:block;overflow:visible"/>
    <g id="g4849">
      <rect style="color:#000000;fill:#9b9b9b;fill-opacity:0.54970757;fill-rule:nonzero;stroke:none;stroke-width:1;stroke-linecap:round;stroke-linejoin:round;marker:none;marker-start:none;marker-mid:none;marker-end:none;stroke-miterlimit:4;stroke-dashoffset:0;stroke-opacity:0.08187136;visibility:visible;display:block;overflow:visible" id="rect15736" width="20.000006" height="1" x="15.999986" y="29" rx="0.13778631" ry="0.065390877"/>
      <rect style="color:#000000;fill:#9b9b9b;fill-opacity:0.54970757;fill-rule:nonzero;stroke:none;stroke-width:1;stroke-linecap:round;stroke-linejoin:round;marker:none;marker-start:none;marker-mid:none;marker-end:none;stroke-miterlimit:4;stroke-dashoffset:0;stroke-opacity:0.08187136;visibility:visible;display:block;overflow:visible" id="rect15738" width="20.000006" height="1" x="15.999986" y="31" rx="0.13778631" ry="0.065390877"/>
      <rect style="color:#000000;fill:#9b9b9b;fill-opacity:0.54970757;fill-rule:nonzero;stroke:none;stroke-width:1;stroke-linecap:round;stroke-linejoin:round;marker:none;marker-start:none;marker-mid:none;marker-end:none;stroke-miterlimit:4;stroke-dashoffset:0;stroke-opacity:0.08187136;visibility:visible;display:block;overflow:visible" id="rect15740" width="20.000006" height="1" x="15.999986" y="33" rx="0.13778631" ry="0.065390877"/>
      <rect style="color:#000000;fill:#9b9b9b;fill-opacity:0.54970757;fill-rule:nonzero;stroke:none;stroke-width:1;stroke-linecap:round;stroke-linejoin:round;marker:none;marker-start:none;marker-mid:none;marker-end:none;stroke-miterlimit:4;stroke-dashoffset:0;stroke-opacity:0.08187136;visibility:visible;display:block;overflow:visible" id="rect15742" width="20.000006" height="1" x="15.999986" y="35" rx="0.13778631" ry="0.065390877"/>
      <rect style="color:#000000;fill:#9b9b9b;fill-opacity:0.54970757;fill-rule:nonzero;stroke:none;stroke-width:1;stroke-linecap:round;stroke-linejoin:round;marker:none;marker-start:none;marker-mid:none;marker-end:none;stroke-miterlimit:4;stroke-dashoffset:0;stroke-opacity:0.08187136;visibility:visible;display:block;overflow:visible" id="rect15744" width="14.000014" height="1" x="15.999986" y="37" rx="0.096450485" ry="0.065390877"/>
    </g>
    <g id="g7151" transform="translate(48.2936, -8.3997)"/>
    <g style="display:inline" id="g7153" transform="translate(48.2936, -8.3997)"/>
    <rect style="fill:none;fill-opacity:1;fill-rule:evenodd;stroke:#c68827;stroke-width:0;stroke-linecap:round;stroke-linejoin:miter;stroke-miterlimit:4;stroke-dasharray:none;stroke-dashoffset:0;stroke-opacity:1" id="rect15974" width="18.570459" height="19.575623" x="75.032097" y="16.483135" rx="0.23975599" ry="0.23975599"/>
    <g id="g10254" transform="translate(61.0406, -29.6767)"/>
    <g style="display:inline" id="g10256" transform="translate(61.0406, -29.6767)"/>
    <g id="g6289" transform="matrix(0.148472, 0, 0, 0.148472, 21.6763, 21.9066)">
      <path id="path3266" d="M 17.622671,7.3436137 L 17.307704,8.477493 L 10.819395,32.068481 L 10.504429,33.233857 L 11.669804,33.548823 L 110.2228,59.659538 L 11.197355,59.785525 L 10.000482,59.785525 L 10.000482,60.982397 L 10.031979,161.55119 L 10.031979,162.4331 L 10.031979,163.62997 L 10.567422,163.62997 C 11.441225,166.15502 13.710001,168.071 16.551785,168.071 L 163.26315,169.86631 C 165.0507,169.86631 166.72494,169.01556 168.01914,167.81902 C 169.03103,166.8835 169.71486,165.68706 170.09792,164.38589 L 170.53887,164.38589 L 170.53887,163.18902 L 170.53887,162.71657 L 170.53887,48.604216 L 170.53887,47.659316 L 169.65697,47.43884 L 18.75655,7.6270835 L 17.622671,7.3436137 z M 121.21513,61.045391 L 123.70336,61.70682 L 122.82145,61.70682 L 122.85295,61.80131 L 121.27812,61.80131 L 121.21513,61.045391 z M 12.394227,62.17927 L 12.425724,62.17927 L 12.425724,161.39371 L 12.394227,62.17927 z " style="fill:#000000;fill-opacity:0.09793815;fill-rule:evenodd;stroke:none;stroke-width:2.38104343;stroke-linecap:round;stroke-linejoin:round;stroke-opacity:1"/>
      <path id="path3265" d="M 15.442161,5.2960374 L 15.127195,6.4299166 L 8.6388853,30.020904 L 8.3239189,31.18628 L 9.4892948,31.501247 L 108.04229,57.611962 L 9.0168451,57.737948 L 7.8199725,57.737948 L 7.8199725,58.934821 L 7.8514692,159.50362 L 7.8514692,160.38553 L 7.8514692,161.5824 L 8.3869122,161.5824 C 9.2607148,164.10745 11.529491,166.02343 14.371275,166.02343 L 161.08264,167.81874 C 162.87019,167.81874 164.54443,166.96799 165.83863,165.77145 C 166.85052,164.83593 167.53435,163.63949 167.91741,162.33832 L 168.35837,162.33832 L 168.35837,161.14145 L 168.35837,160.669 L 168.35837,46.556643 L 168.35837,45.611744 L 167.47646,45.391267 L 16.57604,5.5795072 L 15.442161,5.2960374 z M 119.03462,58.997814 L 121.52285,59.659244 L 120.64095,59.659244 L 120.67244,59.753734 L 119.09761,59.753734 L 119.03462,58.997814 z M 10.213718,60.131693 L 10.245214,60.131693 L 10.245214,159.34614 L 10.213718,60.131693 z " style="fill:#000000;fill-opacity:0.09793815;fill-rule:evenodd;stroke:none;stroke-width:2.38104343;stroke-linecap:round;stroke-linejoin:round;stroke-opacity:1"/>
      <path id="path3187" d="M 13.218851,3.3841507 L 12.903884,4.5180299 L 6.415575,28.109018 L 6.1006086,29.274393 L 7.2659844,29.58936 L 105.81899,55.700079 L 6.7935348,55.826066 L 5.5966622,55.826066 L 5.5966622,57.022938 L 5.6281589,157.59173 L 5.6281589,158.47364 L 5.6281589,159.67051 L 6.1636018,159.67051 C 7.0374045,162.19556 9.3061809,164.11154 12.147964,164.11154 L 158.85934,165.90684 C 160.64689,165.90684 162.32113,165.0561 163.61533,163.85956 C 164.62722,162.92404 165.31105,161.7276 165.69411,160.42643 L 166.13507,160.42643 L 166.13507,159.22956 L 166.13507,158.75711 L 166.13507,44.644756 L 166.13507,43.699857 L 165.25316,43.479381 L 14.35273,3.6676205 L 13.218851,3.3841507 z M 116.81132,57.085931 L 119.29955,57.747361 L 118.41765,57.747361 L 118.44914,57.841851 L 116.87431,57.841851 L 116.81132,57.085931 z M 7.9904073,58.219811 L 8.0219039,58.219811 L 8.0219039,157.43425 L 7.9904073,58.219811 z " style="fill:#000000;fill-opacity:0.09793815;fill-rule:evenodd;stroke:none;stroke-width:2.38104343;stroke-linecap:round;stroke-linejoin:round;stroke-opacity:1"/>
      <path id="path2805" style="fill:none;fill-opacity:0.75;fill-rule:evenodd;stroke:#eae8e3;stroke-width:2.3998363;stroke-linecap:round;stroke-linejoin:round" d="M 19.293647,22.348311 L 152.47202,58.033382"/>
      <rect transform="matrix(0.965926, 0.258819, -0.258819, 0.965926, 0, 0)" ry="0" rx="5.533092" y="-0.51721126" x="13.445556" height="23.496042" width="154.11385" id="rect2806" style="fill:#423f38;fill-opacity:1;fill-rule:evenodd;stroke:none;stroke-width:2.5;stroke-linecap:butt;stroke-linejoin:miter;stroke-miterlimit:4;stroke-opacity:1"/>
      <path sodipodi:nodetypes="ccccc" id="path2807" style="fill:#eae8e3;fill-rule:evenodd;stroke-width:1pt" d="M 13.121268,2.9803819 L 14.642007,27.712747 L 27.902613,31.265919 L 26.588873,6.6135664 L 13.121268,2.9803819 z "/>
      <path sodipodi:nodetypes="ccccc" id="path2808" d="M 13.06857,2.898337 L 13.294301,5.487229 L 26.74083,9.0902188 L 26.541263,6.5466444 L 13.06857,2.898337 z " style="fill:#fffdf8;fill-opacity:1;fill-rule:evenodd;stroke:none;stroke-width:2.5;stroke-linecap:butt;stroke-linejoin:miter;stroke-miterlimit:4;stroke-opacity:1"/>
      <path sodipodi:nodetypes="ccccc" id="path2809" d="M 14.483935,25.205809 L 14.641846,27.699915 L 27.903422,31.253347 L 27.758147,28.762627 L 14.483935,25.205809 z " style="fill:#bab5ab;fill-opacity:1;fill-rule:evenodd;stroke:none;stroke-width:2.5;stroke-linecap:butt;stroke-linejoin:miter;stroke-miterlimit:4;stroke-opacity:1"/>
      <path sodipodi:nodetypes="ccccc" id="path2810" d="M 26.455582,6.5089656 L 26.681313,9.0978575 L 40.127842,12.700847 L 39.928276,10.157273 L 26.455582,6.5089656 z " style="fill:#7d7a71;fill-opacity:1;fill-rule:evenodd;stroke:none;stroke-width:2.5;stroke-linecap:butt;stroke-linejoin:miter;stroke-miterlimit:4;stroke-opacity:1"/>
      <path sodipodi:nodetypes="ccccc" id="path2811" d="M 27.743579,28.783909 L 27.90149,31.278015 L 41.163066,34.831446 L 41.017791,32.340725 L 27.743579,28.783909 z " style="fill:#262420;fill-opacity:1;fill-rule:evenodd;stroke:none;stroke-width:2.5;stroke-linecap:butt;stroke-linejoin:miter;stroke-miterlimit:4;stroke-opacity:1"/>
      <path sodipodi:nodetypes="ccccc" id="path2812" style="fill:#eae8e3;fill-rule:evenodd;stroke-width:1pt" d="M 39.792198,10.098068 L 41.312938,34.830424 L 54.573546,38.383596 L 53.259804,13.731253 L 39.792198,10.098068 z "/>
      <path sodipodi:nodetypes="ccccc" id="path2813" d="M 39.739502,10.016014 L 39.965231,12.604915 L 53.411761,16.207906 L 53.212195,13.664331 L 39.739502,10.016014 z " style="fill:#fffdf8;fill-opacity:1;fill-rule:evenodd;stroke:none;stroke-width:2.5;stroke-linecap:butt;stroke-linejoin:miter;stroke-miterlimit:4;stroke-opacity:1"/>
      <path sodipodi:nodetypes="ccccc" id="path2814" d="M 41.154866,32.323486 L 41.312777,34.817592 L 54.574355,38.371025 L 54.42908,35.880304 L 41.154866,32.323486 z " style="fill:#bab5ab;fill-opacity:1;fill-rule:evenodd;stroke:none;stroke-width:2.5;stroke-linecap:butt;stroke-linejoin:miter;stroke-miterlimit:4;stroke-opacity:1"/>
      <path sodipodi:nodetypes="ccccc" id="path2815" d="M 53.242169,13.639646 L 53.4679,16.228538 L 66.914429,19.831528 L 66.714862,17.287953 L 53.242169,13.639646 z " style="fill:#7d7a71;fill-opacity:1;fill-rule:evenodd;stroke:none;stroke-width:2.5;stroke-linecap:butt;stroke-linejoin:miter;stroke-miterlimit:4;stroke-opacity:1"/>
      <path sodipodi:nodetypes="ccccc" id="path2816" d="M 54.530165,35.914589 L 54.688077,38.408695 L 67.949652,41.962126 L 67.804378,39.471406 L 54.530165,35.914589 z " style="fill:#262420;fill-opacity:1;fill-rule:evenodd;stroke:none;stroke-width:2.5;stroke-linecap:butt;stroke-linejoin:miter;stroke-miterlimit:4;stroke-opacity:1"/>
      <path sodipodi:nodetypes="ccccc" id="path2817" style="fill:#eae8e3;fill-rule:evenodd;stroke-width:1pt" d="M 66.456511,17.242755 L 67.977249,41.975121 L 81.237855,45.528292 L 79.924116,20.87594 L 66.456511,17.242755 z "/>
      <path sodipodi:nodetypes="ccccc" id="path2818" d="M 66.403813,17.160711 L 66.629544,19.749603 L 80.076073,23.352593 L 79.876506,20.809018 L 66.403813,17.160711 z " style="fill:#fffdf8;fill-opacity:1;fill-rule:evenodd;stroke:none;stroke-width:2.5;stroke-linecap:butt;stroke-linejoin:miter;stroke-miterlimit:4;stroke-opacity:1"/>
      <path sodipodi:nodetypes="ccccc" id="path2819" d="M 67.819178,39.468184 L 67.977088,41.962289 L 81.238665,45.515721 L 81.093389,43.025 L 67.819178,39.468184 z " style="fill:#bab5ab;fill-opacity:1;fill-rule:evenodd;stroke:none;stroke-width:2.5;stroke-linecap:butt;stroke-linejoin:miter;stroke-miterlimit:4;stroke-opacity:1"/>
      <path sodipodi:nodetypes="ccccc" id="path2820" d="M 79.815837,20.836659 L 80.041565,23.42556 L 93.488094,27.02855 L 93.288527,24.484975 L 79.815837,20.836659 z " style="fill:#7d7a71;fill-opacity:1;fill-rule:evenodd;stroke:none;stroke-width:2.5;stroke-linecap:butt;stroke-linejoin:miter;stroke-miterlimit:4;stroke-opacity:1"/>
      <path sodipodi:nodetypes="ccccc" id="path2821" d="M 81.103831,43.111611 L 81.261742,45.605717 L 94.523318,49.159148 L 94.378043,46.668429 L 81.103831,43.111611 z " style="fill:#262420;fill-opacity:1;fill-rule:evenodd;stroke:none;stroke-width:2.5;stroke-linecap:butt;stroke-linejoin:miter;stroke-miterlimit:4;stroke-opacity:1"/>
      <path sodipodi:nodetypes="ccccc" id="path2822" style="fill:#eae8e3;fill-rule:evenodd;stroke-width:1pt" d="M 93.049332,24.368287 L 94.570071,49.100652 L 107.83067,52.653824 L 106.51694,28.001471 L 93.049332,24.368287 z "/>
      <path sodipodi:nodetypes="ccccc" id="path2823" d="M 92.996637,24.286233 L 93.222364,26.875134 L 106.6689,30.478124 L 106.46933,27.934549 L 92.996637,24.286233 z " style="fill:#fffdf8;fill-opacity:1;fill-rule:evenodd;stroke:none;stroke-width:2.5;stroke-linecap:butt;stroke-linejoin:miter;stroke-miterlimit:4;stroke-opacity:1"/>
      <path sodipodi:nodetypes="ccccc" id="path2824" d="M 94.411998,46.593714 L 94.56991,49.08782 L 107.83149,52.641252 L 107.68621,50.150532 L 94.411998,46.593714 z " style="fill:#bab5ab;fill-opacity:1;fill-rule:evenodd;stroke:none;stroke-width:2.5;stroke-linecap:butt;stroke-linejoin:miter;stroke-miterlimit:4;stroke-opacity:1"/>
      <path sodipodi:nodetypes="ccccc" id="path2825" d="M 106.48014,27.981344 L 106.70586,30.570245 L 120.1524,34.173235 L 119.95283,31.629651 L 106.48014,27.981344 z " style="fill:#7d7a71;fill-opacity:1;fill-rule:evenodd;stroke:none;stroke-width:2.5;stroke-linecap:butt;stroke-linejoin:miter;stroke-miterlimit:4;stroke-opacity:1"/>
      <path sodipodi:nodetypes="ccccc" id="path2826" d="M 107.76813,50.256287 L 107.92605,52.750393 L 121.18762,56.303824 L 121.04235,53.813103 L 107.76813,50.256287 z " style="fill:#262420;fill-opacity:1;fill-rule:evenodd;stroke:none;stroke-width:2.5;stroke-linecap:butt;stroke-linejoin:miter;stroke-miterlimit:4;stroke-opacity:1"/>
      <path sodipodi:nodetypes="ccccc" id="path2827" style="fill:#eae8e3;fill-rule:evenodd;stroke-width:1pt" d="M 119.78513,31.532127 L 121.30586,56.264484 L 134.56648,59.817655 L 133.25273,35.165312 L 119.78513,31.532127 z "/>
      <path sodipodi:nodetypes="ccccc" id="path2828" d="M 119.73243,31.450074 L 119.95816,34.038975 L 133.40469,37.641965 L 133.20513,35.09839 L 119.73243,31.450074 z " style="fill:#fffdf8;fill-opacity:1;fill-rule:evenodd;stroke:none;stroke-width:2.5;stroke-linecap:butt;stroke-linejoin:miter;stroke-miterlimit:4;stroke-opacity:1"/>
      <path sodipodi:nodetypes="ccccc" id="path2829" d="M 121.1478,53.757546 L 121.3057,56.251652 L 134.56728,59.805084 L 134.42201,57.314363 L 121.1478,53.757546 z " style="fill:#bab5ab;fill-opacity:1;fill-rule:evenodd;stroke:none;stroke-width:2.5;stroke-linecap:butt;stroke-linejoin:miter;stroke-miterlimit:4;stroke-opacity:1"/>
      <path sodipodi:nodetypes="ccccc" id="path2830" d="M 133.1636,35.054549 L 133.38934,37.643441 L 146.83587,41.246431 L 146.6363,38.702856 L 133.1636,35.054549 z " style="fill:#7d7a71;fill-opacity:1;fill-rule:evenodd;stroke:none;stroke-width:2.5;stroke-linecap:butt;stroke-linejoin:miter;stroke-miterlimit:4;stroke-opacity:1"/>
      <path sodipodi:nodetypes="ccccc" id="path2831" d="M 134.4516,57.329492 L 134.60951,59.823598 L 147.87109,63.37703 L 147.72582,60.88631 L 134.4516,57.329492 z " style="fill:#262420;fill-opacity:1;fill-rule:evenodd;stroke:none;stroke-width:2.5;stroke-linecap:butt;stroke-linejoin:miter;stroke-miterlimit:4;stroke-opacity:1"/>
      <path sodipodi:nodetypes="ccccc" id="path2832" style="fill:#eae8e3;fill-rule:evenodd;stroke-width:1pt" d="M 146.47991,38.563078 L 147.99484,63.415791 L 155.99135,65.558449 L 162.03254,42.909073 L 146.47991,38.563078 z "/>
      <path sodipodi:nodetypes="ccccc" id="path2833" d="M 146.39674,38.594761 L 146.62248,41.183662 L 161.28426,45.11228 L 161.94252,42.798561 L 146.39674,38.594761 z " style="fill:#fffdf8;fill-opacity:1;fill-rule:evenodd;stroke:none;stroke-width:2.5;stroke-linecap:butt;stroke-linejoin:miter;stroke-miterlimit:4;stroke-opacity:1"/>
      <path sodipodi:nodetypes="ccccc" id="path2834" d="M 147.8121,60.902242 L 147.97002,63.396348 L 156.08458,65.570643 L 156.63501,63.34295 L 147.8121,60.902242 z " style="fill:#bab5ab;fill-opacity:1;fill-rule:evenodd;stroke:none;stroke-width:2.5;stroke-linecap:butt;stroke-linejoin:miter;stroke-miterlimit:4;stroke-opacity:1"/>
      <path sodipodi:nodetypes="ccccc" id="path2835" d="M 7.6341159,23.360568 L 7.0843493,25.665052 L 14.633965,27.687967 L 14.488691,25.197247 L 7.6341159,23.360568 z " style="fill:#262420;fill-opacity:1;fill-rule:evenodd;stroke:none;stroke-width:2.5;stroke-linecap:butt;stroke-linejoin:miter;stroke-miterlimit:4;stroke-opacity:1"/>
      <path sodipodi:nodetypes="ccccc" id="path2836" d="M 13.067149,3.0895002 L 7.6176507,23.427288 L 9.9052052,24.040237 L 13.587688,10.297039 L 13.067149,3.0895002 z " style="fill:#7d7a71;fill-opacity:1;fill-rule:evenodd;stroke:none;stroke-width:2.5;stroke-linecap:butt;stroke-linejoin:miter;stroke-miterlimit:4;stroke-opacity:1"/>
      <path id="path2837" d="M 159.16112,44.60281 L 154.31883,62.674491 L 156.60639,63.28744 L 161.44869,45.215759 L 159.16112,44.60281 z " style="fill:#bab5ab;fill-opacity:1;fill-rule:evenodd;stroke:none;stroke-width:2.5;stroke-linecap:butt;stroke-linejoin:miter;stroke-miterlimit:4;stroke-opacity:1"/>
      <path id="rect894" d="M 11.490139,65.497537 C 8.5395404,65.497537 6.1641486,67.872929 6.1641486,70.823527 L 6.1641486,155.8942 C 6.1641486,158.84479 8.5395404,161.22018 11.490139,161.22018 L 156.63023,161.22018 C 159.58083,161.22018 161.95623,158.84479 161.95623,155.8942 L 161.95623,70.823527 C 161.95623,67.872929 159.58083,65.497537 156.63023,65.497537 L 11.490139,65.497537 z " style="fill:url(#linearGradient891);fill-rule:evenodd;stroke:none;stroke-width:0.84179344pt;stroke-opacity:1"/>
      <path id="rect897" d="M 7.8120112,55.53019 C 7.2333137,55.53019 6.7674309,55.996072 6.7674309,56.57477 L 6.7674309,69.782587 C 6.7674309,70.361285 7.2333137,70.827167 7.8120112,70.827167 L 160.91782,70.827167 C 161.49652,70.827167 161.96241,70.361285 161.96241,69.782587 L 161.96241,56.57477 C 161.96241,55.996072 161.49652,55.53019 160.91782,55.53019 L 7.8120112,55.53019 z " style="fill:#423f38;fill-rule:evenodd;stroke-width:1.09018841pt"/>
      <path id="rect898" d="M 127.99511,42.902157 L 127.99511,79.09529 L 161.96524,79.09529 L 161.96524,42.902157 L 127.99511,42.902157 z " style="fill:#48443c;fill-opacity:1;fill-rule:evenodd;stroke-width:1.0867322pt"/>
      <path id="path899" style="fill:#bab5ab;fill-rule:evenodd;stroke:#000000;stroke-width:1.47542725pt" d="M 141.35201,64.644195 C 141.35423,62.301849 139.45602,60.401821 137.11366,60.401821 C 134.77132,60.401821 132.87309,62.301849 132.87533,64.644195 C 132.87309,66.986542 134.77132,68.886571 137.11366,68.886571 C 139.45602,68.886571 141.35423,66.986542 141.35201,64.644195 z "/>
      <path id="path902" style="fill:none;fill-opacity:0.75;fill-rule:evenodd;stroke:#eae8e3;stroke-width:2.39983535;stroke-linecap:round;stroke-linejoin:round" d="M 16.27492,138.09095 L 154.15126,138.09095"/>
      <path id="path903" style="fill:none;fill-opacity:0.75;fill-rule:evenodd;stroke:#eae8e3;stroke-width:2.39983535;stroke-linejoin:round" d="M 16.062794,116.45497 L 153.93914,116.45497"/>
      <path id="path906" style="fill:none;fill-opacity:0.75;fill-rule:evenodd;stroke:#eae8e3;stroke-width:2.39983535;stroke-linecap:round;stroke-linejoin:round" d="M 134.10712,118.09937 L 134.10712,136.34147"/>
      <path id="path929" d="M 159.2873,42.922888 L 159.2873,156.38424 L 161.95158,156.38424 L 161.95158,42.922888 L 159.2873,42.922888 z " style="fill:#262420;fill-opacity:1;fill-rule:evenodd;stroke:none;stroke-width:2.5;stroke-linecap:butt;stroke-linejoin:miter;stroke-miterlimit:4;stroke-opacity:1"/>
      <path id="path930" style="fill:none;fill-opacity:0.75;fill-rule:evenodd;stroke:#262420;stroke-width:2.36824965;stroke-linecap:butt;stroke-linejoin:miter;stroke-miterlimit:4" d="M 10.703222,159.96328 L 157.25536,159.96328"/>
      <path id="path1014" style="fill:#bab5ab;fill-rule:evenodd;stroke:#000000;stroke-width:1.47542725pt" d="M 157.06809,65.414161 C 157.07032,63.071814 155.1721,61.171786 152.82974,61.171786 C 150.4874,61.171786 148.58918,63.071814 148.59141,65.414161 C 148.58918,67.756507 150.4874,69.656537 152.82974,69.656537 C 155.1721,69.656537 157.07032,67.756507 157.06809,65.414161 z "/>
      <path id="path1015" style="fill:#bab5ab;fill-rule:evenodd;stroke:#000000;stroke-width:1.47542725pt" d="M 157.068,52.687111 C 157.07022,50.344763 155.17201,48.444737 152.82965,48.444737 C 150.48731,48.444737 148.58909,50.344763 148.59132,52.687111 C 148.58909,55.029458 150.48731,56.929486 152.82965,56.929486 C 155.17201,56.929486 157.07022,55.029458 157.068,52.687111 z "/>
      <path id="path1016" d="M 138.08377,63.982397 C 138.08464,63.076093 137.35018,62.340932 136.44388,62.340932 C 135.53757,62.340932 134.80311,63.076093 134.80397,63.982397 C 134.80311,64.888701 135.53757,65.623862 136.44388,65.623862 C 137.35018,65.623862 138.08464,64.888701 138.08377,63.982397 z " style="fill:#eae8e3;fill-rule:evenodd;stroke-width:1pt"/>
      <path id="path1017" d="M 153.72744,64.777855 C 153.7283,63.871551 152.99384,63.13639 152.08754,63.13639 C 151.18123,63.13639 150.44676,63.871551 150.44763,64.777855 C 150.44676,65.684158 151.18123,66.41932 152.08754,66.41932 C 152.99384,66.41932 153.7283,65.684158 153.72744,64.777855 z " style="fill:#eae8e3;fill-rule:evenodd;stroke-width:1pt"/>
      <path id="path1018" d="M 153.83341,52.156865 C 153.83428,51.250563 153.09982,50.515401 152.19351,50.515401 C 151.28721,50.515401 150.55274,51.250563 150.5536,52.156865 C 150.55274,53.063169 151.28721,53.79833 152.19351,53.79833 C 153.09982,53.79833 153.83428,53.063169 153.83341,52.156865 z " style="fill:#eae8e3;fill-rule:evenodd;stroke-width:1pt"/>
      <path id="path1019" d="M 127.9894,45.261534 L 127.9894,78.868478 L 130.35765,78.868478 L 130.35765,45.261534 L 127.9894,45.261534 z " style="fill:#807d74;fill-opacity:1;fill-rule:evenodd;stroke:none;stroke-width:2.5;stroke-linecap:butt;stroke-linejoin:miter;stroke-miterlimit:4;stroke-opacity:1"/>
      <path id="path1021" d="M 127.9894,42.893284 L 127.9894,45.261534 L 159.26511,45.261534 L 159.26511,42.893284 L 127.9894,42.893284 z " style="fill:#807d74;fill-opacity:1;fill-rule:evenodd;stroke:none;stroke-width:2.5;stroke-linecap:butt;stroke-linejoin:miter;stroke-miterlimit:4;stroke-opacity:1"/>
      <path id="path2771" style="fill:none;fill-opacity:0.75;fill-rule:evenodd;stroke:#eae8e3;stroke-width:2.39983535;stroke-linecap:round;stroke-linejoin:round" d="M 15.508881,94.279084 L 153.38522,94.279084"/>
      <path id="rect2772" d="M 6.2086392,55.398772 L 6.2086392,78.894795 L 127.98095,78.894795 L 127.98095,55.398772 L 6.2086392,55.398772 z " style="fill:#423f38;fill-opacity:1;fill-rule:evenodd;stroke:none;stroke-width:2.5;stroke-linecap:butt;stroke-linejoin:miter;stroke-miterlimit:4;stroke-opacity:1"/>
      <path id="path2773" d="M 6.2086375,55.398772 L 14.078767,78.894793 L 27.807152,78.894793 L 20.157676,55.422484 L 6.2086375,55.398772 z " style="fill:#eae8e3;fill-rule:evenodd;stroke-width:1pt"/>
      <path id="path2774" d="M 6.1365006,55.33316 L 7.0245942,57.775418 L 20.94546,57.775418 L 20.094369,55.370165 L 6.1365006,55.33316 z " style="fill:#fffdf8;fill-opacity:1;fill-rule:evenodd;stroke:none;stroke-width:2.5;stroke-linecap:butt;stroke-linejoin:miter;stroke-miterlimit:4;stroke-opacity:1"/>
      <path id="path2776" d="M 20.001855,55.355942 L 20.889949,57.798199 L 34.810814,57.798199 L 33.959722,55.392946 L 20.001855,55.355942 z " style="fill:#7d7a71;fill-opacity:1;fill-rule:evenodd;stroke:none;stroke-width:2.5;stroke-linecap:butt;stroke-linejoin:miter;stroke-miterlimit:4;stroke-opacity:1"/>
      <path id="path2778" d="M 33.812957,55.370974 L 41.683087,78.866993 L 55.41147,78.866993 L 47.761995,55.394687 L 33.812957,55.370974 z " style="fill:#eae8e3;fill-rule:evenodd;stroke-width:1pt"/>
      <path id="path2779" d="M 33.740821,55.305362 L 34.628914,57.747619 L 48.549779,57.747619 L 47.698688,55.342366 L 33.740821,55.305362 z " style="fill:#fffdf8;fill-opacity:1;fill-rule:evenodd;stroke:none;stroke-width:2.5;stroke-linecap:butt;stroke-linejoin:miter;stroke-miterlimit:4;stroke-opacity:1"/>
      <path id="path2781" d="M 47.721252,55.310765 L 48.609345,57.753023 L 62.530211,57.753023 L 61.67912,55.34777 L 47.721252,55.310765 z " style="fill:#7d7a71;fill-opacity:1;fill-rule:evenodd;stroke:none;stroke-width:2.5;stroke-linecap:butt;stroke-linejoin:miter;stroke-miterlimit:4;stroke-opacity:1"/>
      <path id="path2783" d="M 61.417873,55.370974 L 69.288002,78.866997 L 83.016386,78.866997 L 75.366911,55.394688 L 61.417873,55.370974 z " style="fill:#eae8e3;fill-rule:evenodd;stroke-width:1pt"/>
      <path id="path2784" d="M 61.345735,55.305362 L 62.23383,57.74762 L 76.154695,57.74762 L 75.303602,55.342367 L 61.345735,55.305362 z " style="fill:#fffdf8;fill-opacity:1;fill-rule:evenodd;stroke:none;stroke-width:2.5;stroke-linecap:butt;stroke-linejoin:miter;stroke-miterlimit:4;stroke-opacity:1"/>
      <path id="path2786" d="M 75.252155,55.384772 L 76.140249,57.82703 L 90.061116,57.82703 L 89.210024,55.421776 L 75.252155,55.384772 z " style="fill:#7d7a71;fill-opacity:1;fill-rule:evenodd;stroke:none;stroke-width:2.5;stroke-linecap:butt;stroke-linejoin:miter;stroke-miterlimit:4;stroke-opacity:1"/>
      <path id="path2788" d="M 88.948777,55.370973 L 96.818907,78.866995 L 110.5473,78.866995 L 102.89782,55.394686 L 88.948777,55.370973 z " style="fill:#eae8e3;fill-rule:evenodd;stroke-width:1pt"/>
      <path id="path2789" d="M 88.876641,55.305361 L 89.764734,57.747618 L 103.6856,57.747618 L 102.83451,55.342365 L 88.876641,55.305361 z " style="fill:#fffdf8;fill-opacity:1;fill-rule:evenodd;stroke:none;stroke-width:2.5;stroke-linecap:butt;stroke-linejoin:miter;stroke-miterlimit:4;stroke-opacity:1"/>
      <path id="path2791" d="M 102.85707,55.384771 L 103.74516,57.827029 L 117.66602,57.827029 L 116.81493,55.421775 L 102.85707,55.384771 z " style="fill:#7d7a71;fill-opacity:1;fill-rule:evenodd;stroke:none;stroke-width:2.5;stroke-linecap:butt;stroke-linejoin:miter;stroke-miterlimit:4;stroke-opacity:1"/>
      <path id="path2793" d="M 116.6277,55.370973 L 124.30332,78.866993 L 128.01313,78.866993 L 127.99627,55.394686 L 116.6277,55.370973 z " style="fill:#eae8e3;fill-rule:evenodd;stroke-width:1pt"/>
      <path id="path2794" d="M 116.55557,55.305361 L 117.43241,57.747618 L 127.96016,57.747618 C 127.9278,57.758808 127.94878,55.37609 127.89038,55.342365 L 116.55557,55.305361 z " style="fill:#fffdf8;fill-opacity:1;fill-rule:evenodd;stroke:none;stroke-width:2.5;stroke-linecap:butt;stroke-linejoin:miter;stroke-miterlimit:4;stroke-opacity:1"/>
      <path id="path2802" d="M 6.1846044,55.518181 L 6.1846044,156.79785 L 8.5528541,156.79785 L 8.5528541,62.506707 L 6.1846044,55.518181 z " style="fill:#7d7a71;fill-opacity:1;fill-rule:evenodd;stroke:none;stroke-width:2.5;stroke-linecap:butt;stroke-linejoin:miter;stroke-miterlimit:4;stroke-opacity:1"/>
      <path id="path3050" d="M 12.204295,2.380595 L 5.7327393,25.974295 L 113.84815,54.646309 L 114.79989,54.43361 L 4.9366783,54.57004 L 4.9667587,155.12872 L 4.9667587,156.03114 L 5.147241,156.03114 C 5.5893213,158.52964 7.6617867,160.45295 10.290985,160.45295 L 157.02403,162.2609 C 159.80409,162.26091 162.74941,159.49161 163.00246,156.77986 L 163.09271,156.77986 L 163.09271,156.29857 L 163.09271,42.174789 L 12.204295,2.380595 z " style="fill:none;fill-opacity:1;fill-rule:evenodd;stroke:#000000;stroke-width:2.3943975;stroke-linecap:butt;stroke-linejoin:miter;stroke-miterlimit:4;stroke-opacity:1"/>
    </g>
  </g>
</svg>