<?xml version="1.0" encoding="UTF-8" standalone="no"?>
<!-- Created with Inkscape (http://www.inkscape.org/) -->

<svg
   xmlns:dc="http://purl.org/dc/elements/1.1/"
   xmlns:cc="http://creativecommons.org/ns#"
   xmlns:rdf="http://www.w3.org/1999/02/22-rdf-syntax-ns#"
   xmlns:svg="http://www.w3.org/2000/svg"
   xmlns="http://www.w3.org/2000/svg"
   xmlns:xlink="http://www.w3.org/1999/xlink"
   xmlns:sodipodi="http://sodipodi.sourceforge.net/DTD/sodipodi-0.dtd"
   xmlns:inkscape="http://www.inkscape.org/namespaces/inkscape"
   width="48px"
   height="48px"
   id="svg3277"
   sodipodi:version="0.32"
   inkscape:version="0.48.1 r9760"
   sodipodi:docname="pdfmod.svg"
   inkscape:output_extension="org.inkscape.output.svg.inkscape"
   version="1.1">
  <defs
     id="defs3279">
    <linearGradient
       id="linearGradient3155">
      <stop
         style="stop-color:#000000;stop-opacity:1;"
         offset="0"
         id="stop3157" />
      <stop
         id="stop3171"
         offset="0.13482948"
         style="stop-color:#c3c3c3;stop-opacity:1;" />
      <stop
         style="stop-color:#8c8c8c;stop-opacity:1;"
         offset="0.20224422"
         id="stop3173" />
      <stop
         id="stop3163"
         offset="0.26965895"
         style="stop-color:#ffffff;stop-opacity:1;" />
      <stop
         style="stop-color:#757575;stop-opacity:1;"
         offset="0.44650277"
         id="stop3165" />
      <stop
         id="stop3167"
         offset="0.57114136"
         style="stop-color:#7d7d7d;stop-opacity:1;" />
      <stop
         style="stop-color:#b6b6b6;stop-opacity:1;"
         offset="0.72038066"
         id="stop3169" />
      <stop
         style="stop-color:#000000;stop-opacity:1;"
         offset="1"
         id="stop3159" />
    </linearGradient>
    <linearGradient
       inkscape:collect="always"
       xlink:href="#linearGradient3155"
       id="linearGradient3265"
       gradientUnits="userSpaceOnUse"
       gradientTransform="matrix(1.1992782,-1.2061574,1.2306697,1.2255073,-36.004294,13.88486)"
       spreadMethod="pad"
       x1="23.575972"
       y1="25.356892"
       x2="23.575972"
       y2="31.210939" />
    <linearGradient
       inkscape:collect="always"
       xlink:href="#linearGradient3240"
       id="linearGradient3260"
       gradientUnits="userSpaceOnUse"
       gradientTransform="matrix(1.1653763,-1.172061,1.4402748,1.4342331,-39.961363,8.1492416)"
       x1="30.037716"
       y1="24.989594"
       x2="30.037716"
       y2="30.000141" />
    <linearGradient
       inkscape:collect="always"
       xlink:href="#linearGradient3223"
       id="linearGradient3257"
       gradientUnits="userSpaceOnUse"
       gradientTransform="matrix(1.1653763,-1.172061,1.4402748,1.4342331,-40.295111,8.4849048)"
       x1="30.037716"
       y1="24.989594"
       x2="30.037716"
       y2="30.000141" />
    <linearGradient
       inkscape:collect="always"
       xlink:href="#linearGradient3240"
       id="linearGradient3254"
       gradientUnits="userSpaceOnUse"
       gradientTransform="matrix(1.1653763,-1.172061,1.4402748,1.4342331,-38.801593,6.9828175)"
       x1="30.037716"
       y1="24.989594"
       x2="30.037716"
       y2="30.000141" />
    <linearGradient
       inkscape:collect="always"
       xlink:href="#linearGradient3223"
       id="linearGradient3251"
       gradientUnits="userSpaceOnUse"
       gradientTransform="matrix(1.1653763,-1.172061,1.4402748,1.4342331,-39.135341,7.3184803)"
       x1="30.037716"
       y1="24.989594"
       x2="30.037716"
       y2="30.000141" />
    <linearGradient
       id="linearGradient3240">
      <stop
         id="stop3242"
         offset="0"
         style="stop-color:#3e3e3e;stop-opacity:1;" />
      <stop
         style="stop-color:#828282;stop-opacity:1;"
         offset="0.5"
         id="stop3244" />
      <stop
         id="stop3246"
         offset="1"
         style="stop-color:#3c3c3c;stop-opacity:1;" />
    </linearGradient>
    <linearGradient
       inkscape:collect="always"
       xlink:href="#linearGradient3240"
       id="linearGradient3248"
       gradientUnits="userSpaceOnUse"
       gradientTransform="matrix(1.1653763,-1.172061,1.4402748,1.4342331,-37.636216,5.810757)"
       x1="30.037716"
       y1="24.989594"
       x2="30.037716"
       y2="30.000141" />
    <linearGradient
       id="linearGradient3223">
      <stop
         style="stop-color:#999999;stop-opacity:1;"
         offset="0"
         id="stop3225" />
      <stop
         id="stop3231"
         offset="0.5"
         style="stop-color:#ffffff;stop-opacity:1;" />
      <stop
         style="stop-color:#777777;stop-opacity:1;"
         offset="1"
         id="stop3227" />
    </linearGradient>
    <linearGradient
       inkscape:collect="always"
       xlink:href="#linearGradient3223"
       id="linearGradient3245"
       gradientUnits="userSpaceOnUse"
       gradientTransform="matrix(1.1653763,-1.172061,1.4402748,1.4342331,-37.969965,6.1464195)"
       x1="30.037716"
       y1="24.989594"
       x2="30.037716"
       y2="30.000141" />
    <linearGradient
       id="linearGradient3191">
      <stop
         style="stop-color:#cbbd27;stop-opacity:1;"
         offset="0"
         id="stop3193" />
      <stop
         style="stop-color:#9b901d;stop-opacity:1;"
         offset="1"
         id="stop3195" />
    </linearGradient>
    <linearGradient
       inkscape:collect="always"
       xlink:href="#linearGradient3191"
       id="linearGradient3270"
       gradientUnits="userSpaceOnUse"
       x1="5.5178981"
       y1="37.371799"
       x2="9.5220556"
       y2="41.391716"
       gradientTransform="matrix(1.0800487,0,0,1.0787164,-1.8780291,-0.9799908)" />
    <linearGradient
       id="linearGradient3290">
      <stop
         style="stop-color:#e4db7b;stop-opacity:1;"
         offset="0"
         id="stop3292" />
      <stop
         style="stop-color:#f4f0c8;stop-opacity:1;"
         offset="1"
         id="stop3294" />
    </linearGradient>
    <linearGradient
       inkscape:collect="always"
       xlink:href="#linearGradient3290"
       id="linearGradient3268"
       gradientUnits="userSpaceOnUse"
       gradientTransform="matrix(1.2854316,-1.2912103,1.5886497,1.5800342,-46.994731,7.9570591)"
       x1="9"
       y1="29.056757"
       x2="9"
       y2="26.02973" />
    <linearGradient
       x1="302.85715"
       y1="366.64789"
       x2="302.85715"
       y2="609.50507"
       id="linearGradient2467"
       xlink:href="#linearGradient5048"
       gradientUnits="userSpaceOnUse"
       gradientTransform="matrix(0.06732488,0,0,0.01470022,-0.3411391,37.040146)" />
    <linearGradient
       id="linearGradient5048">
      <stop
         id="stop5050"
         style="stop-color:#000000;stop-opacity:0"
         offset="0" />
      <stop
         id="stop5056"
         style="stop-color:#000000;stop-opacity:1"
         offset="0.5" />
      <stop
         id="stop5052"
         style="stop-color:#000000;stop-opacity:0"
         offset="1" />
    </linearGradient>
    <radialGradient
       cx="605.71429"
       cy="486.64789"
       r="117.14286"
       fx="605.71429"
       fy="486.64789"
       id="radialGradient2464"
       xlink:href="#linearGradient5060"
       gradientUnits="userSpaceOnUse"
       gradientTransform="matrix(-0.02303994,0,0,0.01470022,21.62311,37.040176)" />
    <linearGradient
       id="linearGradient5060">
      <stop
         id="stop5062"
         style="stop-color:#000000;stop-opacity:1"
         offset="0" />
      <stop
         id="stop5064"
         style="stop-color:#000000;stop-opacity:0"
         offset="1" />
    </linearGradient>
    <radialGradient
       cx="605.71429"
       cy="486.64789"
       r="117.14286"
       fx="605.71429"
       fy="486.64789"
       id="radialGradient2461"
       xlink:href="#linearGradient5060"
       gradientUnits="userSpaceOnUse"
       gradientTransform="matrix(0.02303995,0,0,0.01470022,26.360882,37.040176)" />
    <linearGradient
       id="linearGradient3428">
      <stop
         id="stop3430"
         style="stop-color:#000000;stop-opacity:1"
         offset="0" />
      <stop
         id="stop3432"
         style="stop-color:#000000;stop-opacity:0"
         offset="1" />
    </linearGradient>
    <radialGradient
       cx="14.76559"
       cy="10.898237"
       r="18.000002"
       fx="14.76559"
       fy="10.898237"
       id="radialGradient2456"
       xlink:href="#linearGradient3242"
       gradientUnits="userSpaceOnUse"
       gradientTransform="matrix(-2.2703142e-8,2.1357283,-3.5601359,-3.7844828e-8,54.620625,-24.438287)" />
    <linearGradient
       id="linearGradient3242">
      <stop
         id="stop3244-1"
         style="stop-color:#f89b7e;stop-opacity:1"
         offset="0" />
      <stop
         id="stop3246-3"
         style="stop-color:#e35d4f;stop-opacity:1"
         offset="0.26238" />
      <stop
         id="stop3248"
         style="stop-color:#c6262e;stop-opacity:1"
         offset="0.66093999" />
      <stop
         id="stop3250"
         style="stop-color:#690b2c;stop-opacity:1"
         offset="1" />
    </linearGradient>
    <linearGradient
       x1="-51.786404"
       y1="53.623615"
       x2="-51.786404"
       y2="2.9062471"
       id="linearGradient2458"
       xlink:href="#linearGradient2490"
       gradientUnits="userSpaceOnUse"
       gradientTransform="matrix(0.8074968,0,0,0.8948322,59.410232,-2.9805533)" />
    <linearGradient
       id="linearGradient2490">
      <stop
         id="stop2492"
         style="stop-color:#791235;stop-opacity:1"
         offset="0" />
      <stop
         id="stop2494"
         style="stop-color:#dd3b27;stop-opacity:1"
         offset="1" />
    </linearGradient>
    <radialGradient
       cx="102"
       cy="112.3047"
       r="139.55859"
       id="radialGradient2453"
       xlink:href="#XMLID_8_"
       gradientUnits="userSpaceOnUse"
       gradientTransform="matrix(0.3617022,0,0,-0.3907784,0.8510637,47.517004)" />
    <radialGradient
       cx="102"
       cy="112.3047"
       r="139.55859"
       id="XMLID_8_"
       gradientUnits="userSpaceOnUse">
      <stop
         id="stop41"
         style="stop-color:#000000;stop-opacity:1"
         offset="0" />
      <stop
         id="stop47"
         style="stop-color:#000000;stop-opacity:1"
         offset="0.18851049" />
      <stop
         id="stop49"
         style="stop-color:#000000;stop-opacity:0"
         offset="0.25718147" />
      <stop
         id="stop51"
         style="stop-color:#000000;stop-opacity:0"
         offset="1" />
    </radialGradient>
    <linearGradient
       x1="24"
       y1="1.9999999"
       x2="24"
       y2="46.01725"
       id="linearGradient2450"
       xlink:href="#linearGradient3211"
       gradientUnits="userSpaceOnUse"
       gradientTransform="matrix(1,0,0,0.9777778,0,-0.9666693)" />
    <linearGradient
       id="linearGradient3211">
      <stop
         id="stop3213"
         style="stop-color:#ffffff;stop-opacity:1"
         offset="0" />
      <stop
         id="stop3215"
         style="stop-color:#ffffff;stop-opacity:0"
         offset="1" />
    </linearGradient>
    <linearGradient
       x1="23.969797"
       y1="3.9810441"
       x2="23.969797"
       y2="44.024017"
       id="linearGradient2447"
       xlink:href="#linearGradient4246"
       gradientUnits="userSpaceOnUse"
       gradientTransform="matrix(0.8947369,0,0,1.131579,2.5263157,-4.6578946)" />
    <linearGradient
       id="linearGradient4246">
      <stop
         id="stop4248"
         style="stop-color:#ffffff;stop-opacity:1"
         offset="0" />
      <stop
         id="stop4250"
         style="stop-color:#dcdcdc;stop-opacity:1"
         offset="1" />
    </linearGradient>
    <filter
       color-interpolation-filters="sRGB"
       height="1.3286875"
       y="-0.16434373"
       width="1.2969251"
       x="-0.14846256"
       id="filter3212">
      <feGaussianBlur
         id="feGaussianBlur3214"
         stdDeviation="0.77391625"
         inkscape:collect="always" />
    </filter>
    <linearGradient
       x1="32.892288"
       y1="8.0590115"
       x2="36.358372"
       y2="5.4565363"
       id="linearGradient2441"
       xlink:href="#linearGradient8589"
       gradientUnits="userSpaceOnUse"
       gradientTransform="matrix(0.9976985,0,0,1.0406866,0.1638029,-1.1057939)" />
    <linearGradient
       id="linearGradient8589">
      <stop
         id="stop8591"
         style="stop-color:#fefefe;stop-opacity:1"
         offset="0" />
      <stop
         id="stop8593"
         style="stop-color:#cbcbcb;stop-opacity:1"
         offset="1" />
    </linearGradient>
    <linearGradient
       x1="35.516502"
       y1="4.8577352"
       x2="34.102982"
       y2="6.5436172"
       id="linearGradient2438"
       xlink:href="#linearGradient4267"
       gradientUnits="userSpaceOnUse" />
    <linearGradient
       id="linearGradient4267">
      <stop
         id="stop4269"
         style="stop-color:#c4c4c4;stop-opacity:1"
         offset="0" />
      <stop
         id="stop4271"
         style="stop-color:#c4c4c4;stop-opacity:0"
         offset="1" />
    </linearGradient>
    <linearGradient
       y2="6.5436172"
       x2="34.102982"
       y1="4.8577352"
       x1="35.516502"
       gradientUnits="userSpaceOnUse"
       id="linearGradient3480"
       xlink:href="#linearGradient4267"
       inkscape:collect="always" />
    <linearGradient
       x1="294.20959"
       y1="6.3851075"
       x2="296.40414"
       y2="9.8281822"
       id="linearGradient8576"
       xlink:href="#XMLID_897_"
       gradientUnits="userSpaceOnUse"
       gradientTransform="matrix(-2.1726626,1.0941354,1.2977992,2.7879222,663.95775,-321.12004)" />
    <linearGradient
       x1="292.97168"
       y1="4.7592773"
       x2="296.93979"
       y2="10.711433"
       id="XMLID_897_"
       gradientUnits="userSpaceOnUse">
      <stop
         id="stop45093"
         style="stop-color:#e8e8e5;stop-opacity:1"
         offset="0" />
      <stop
         id="stop45095"
         style="stop-color:#f0f0f0;stop-opacity:1"
         offset="1" />
    </linearGradient>
    <linearGradient
       x1="20.288025"
       y1="6.4603648"
       x2="24.32597"
       y2="23.942537"
       id="linearGradient8573"
       xlink:href="#linearGradient2229"
       gradientUnits="userSpaceOnUse"
       gradientTransform="matrix(0.5489611,-0.2569337,0.3150922,0.6782222,12.146674,16.190988)" />
    <linearGradient
       id="linearGradient2229">
      <stop
         id="stop2231"
         style="stop-color:#e2e2e2;stop-opacity:1"
         offset="0" />
      <stop
         id="stop2233"
         style="stop-color:#d8d8d8;stop-opacity:1"
         offset="1" />
    </linearGradient>
    <linearGradient
       x1="293.00772"
       y1="3.0185187"
       x2="296.64139"
       y2="10.289103"
       id="linearGradient8569"
       xlink:href="#XMLID_897_"
       gradientUnits="userSpaceOnUse"
       gradientTransform="matrix(2.1923888,-1.1088171,1.3883377,2.7644949,-627.96956,330.42304)" />
    <linearGradient
       x1="292.97168"
       y1="4.7592773"
       x2="296.93979"
       y2="10.711433"
       id="linearGradient4198"
       gradientUnits="userSpaceOnUse">
      <stop
         id="stop4200"
         style="stop-color:#e8e8e5;stop-opacity:1"
         offset="0" />
      <stop
         id="stop4202"
         style="stop-color:#f0f0f0;stop-opacity:1"
         offset="1" />
    </linearGradient>
    <linearGradient
       x1="19.222296"
       y1="18.03648"
       x2="24.32597"
       y2="23.942537"
       id="linearGradient8566"
       xlink:href="#linearGradient2229"
       gradientUnits="userSpaceOnUse"
       gradientTransform="matrix(0.5489611,-0.2569337,0.3150922,0.6782222,12.146674,16.190988)" />
    <linearGradient
       id="linearGradient4205">
      <stop
         id="stop4207"
         style="stop-color:#e2e2e2;stop-opacity:1"
         offset="0" />
      <stop
         id="stop4209"
         style="stop-color:#d8d8d8;stop-opacity:1"
         offset="1" />
    </linearGradient>
    <linearGradient
       x1="22.225399"
       y1="23.843431"
       x2="24.190449"
       y2="22.860907"
       id="linearGradient8582"
       xlink:href="#XMLID_45_"
       gradientUnits="userSpaceOnUse"
       gradientTransform="matrix(0.5379232,-0.2517676,0.3150922,0.6782222,12.456548,16.817714)" />
    <linearGradient
       x1="68.175293"
       y1="21.424805"
       x2="74.587158"
       y2="27.836672"
       id="XMLID_45_"
       gradientUnits="userSpaceOnUse">
      <stop
         id="stop695"
         style="stop-color:#babdb6;stop-opacity:1"
         offset="0" />
      <stop
         id="stop697"
         style="stop-color:#eeeeec;stop-opacity:1"
         offset="1" />
    </linearGradient>
    <linearGradient
       x1="40.127796"
       y1="26.630606"
       x2="45.948959"
       y2="38.848572"
       id="linearGradient3656"
       xlink:href="#linearGradient3650"
       gradientUnits="userSpaceOnUse" />
    <linearGradient
       id="linearGradient3650">
      <stop
         id="stop3652"
         style="stop-color:#ffffff;stop-opacity:1"
         offset="0" />
      <stop
         id="stop3654"
         style="stop-color:#ffffff;stop-opacity:0"
         offset="1" />
    </linearGradient>
    <linearGradient
       x1="29.26738"
       y1="31.804976"
       x2="35.088547"
       y2="44.022942"
       id="linearGradient3658"
       xlink:href="#linearGradient3650"
       gradientUnits="userSpaceOnUse"
       gradientTransform="translate(0.02062384,-0.04596076)" />
    <linearGradient
       id="linearGradient4220">
      <stop
         id="stop4222"
         style="stop-color:#ffffff;stop-opacity:1"
         offset="0" />
      <stop
         id="stop4224"
         style="stop-color:#ffffff;stop-opacity:0"
         offset="1" />
    </linearGradient>
    <linearGradient
       inkscape:collect="always"
       xlink:href="#linearGradient3650"
       id="linearGradient3883"
       gradientUnits="userSpaceOnUse"
       x1="40.127796"
       y1="26.630606"
       x2="45.948959"
       y2="38.848572"
       gradientTransform="translate(-0.024485,-0.05947485)" />
  </defs>
  <sodipodi:namedview
     id="base"
     pagecolor="#ffffff"
     bordercolor="#666666"
     borderopacity="1.0"
     inkscape:pageopacity="0.0"
     inkscape:pageshadow="2"
     inkscape:zoom="11.483688"
     inkscape:cx="23.857143"
     inkscape:cy="24.285714"
     inkscape:current-layer="layer1-2"
     showgrid="true"
     inkscape:grid-bbox="true"
     inkscape:document-units="px"
     inkscape:window-width="1164"
     inkscape:window-height="727"
     inkscape:window-x="402"
     inkscape:window-y="49"
     inkscape:window-maximized="0" />
  <metadata
     id="metadata3282">
    <rdf:RDF>
      <cc:Work
         rdf:about="">
        <dc:format>image/svg+xml</dc:format>
        <dc:type
           rdf:resource="http://purl.org/dc/dcmitype/StillImage" />
        <dc:title></dc:title>
      </cc:Work>
    </rdf:RDF>
  </metadata>
  <g
     id="layer1"
     inkscape:label="Layer 1"
     inkscape:groupmode="layer">
    <g
       transform="translate(1.2937159,1.1823562)"
       id="layer1-2">
      <rect
         width="32.508301"
         height="3.5700529"
         x="7.7378473"
         y="42.429947"
         id="rect2879"
         style="opacity:0.3;fill:url(#linearGradient2467);fill-opacity:1;fill-rule:nonzero;stroke:none;stroke-width:1;marker:none;visibility:visible;display:inline;overflow:visible" />
      <path
         inkscape:connector-curvature="0"
         d="m 7.7378475,42.430102 c 0,0 0,3.569856 0,3.569856 -1.1865002,0.0067 -2.8683795,-0.799823 -2.8683795,-1.785158 0,-0.985333 1.3240446,-1.784697 2.8683795,-1.784698 z"
         id="path2881"
         style="opacity:0.3;fill:url(#radialGradient2464);fill-opacity:1;fill-rule:nonzero;stroke:none;stroke-width:1;marker:none;visibility:visible;display:inline;overflow:visible" />
      <path
         inkscape:connector-curvature="0"
         d="m 40.246148,42.430102 c 0,0 0,3.569856 0,3.569856 1.1865,0.0067 2.86838,-0.799823 2.86838,-1.785158 0,-0.985333 -1.324045,-1.784697 -2.86838,-1.784698 z"
         id="path2883"
         style="opacity:0.3;fill:url(#radialGradient2461);fill-opacity:1;fill-rule:nonzero;stroke:none;stroke-width:1;marker:none;visibility:visible;display:inline;overflow:visible" />
      <path
         inkscape:connector-curvature="0"
         d="m 6.4999609,0.49719878 c 8.0202951,0 16.0405901,0 24.0608861,0 0.525234,1.96019962 6.133094,6.85160272 10.939195,9.62640622 0,11.459733 0,22.919465 0,34.379198 -11.666694,0 -23.333387,0 -35.0000811,0 0,-14.668535 0,-29.33707 0,-44.00560422 z"
         id="path4160"
         style="fill:url(#radialGradient2456);fill-opacity:1;stroke:url(#linearGradient2458);stroke-width:0.99992186;stroke-linecap:butt;stroke-linejoin:round;stroke-miterlimit:4;stroke-opacity:1;stroke-dasharray:none;stroke-dashoffset:0;display:inline" />
      <path
         inkscape:connector-curvature="0"
         d="m 7.3617017,44 c -0.199297,0 -0.361702,-0.175459 -0.361702,-0.39078 l 0,-42.2040499 c 0,-0.2157088 0.162405,-0.3907775 0.361702,-0.3907775 C 14.844793,1.1224073 23.137385,0.85281757 30.611384,1.0412872 L 40.894021,9.9073127 41,43.60922 C 41,43.824541 40.837957,44 40.638297,44 L 7.3617017,44 z"
         id="path4191"
         style="opacity:0.2;fill:url(#radialGradient2453);fill-opacity:1" />
      <path
         inkscape:connector-curvature="0"
         d="m 40.500039,10.258811 c 0,10.949037 0,22.31441 0,33.263447 -11.000026,0 -22.000052,0 -33.0000781,0 0,-14.014841 0,-28.029681 0,-42.0445213 7.5619931,0 15.3043341,0 22.8663281,0"
         id="path2435"
         style="opacity:0.4;fill:none;stroke:url(#linearGradient2450);stroke-width:0.9999218;stroke-linecap:butt;stroke-linejoin:round;stroke-miterlimit:4;stroke-opacity:1;stroke-dasharray:none;stroke-dashoffset:0;display:inline" />
      <path
         inkscape:connector-curvature="0"
         d="M 27.40625,1 C 15.817408,13.595176 9.2020539,15.366459 7,15.5625 l 0,4.53125 C 8.6621097,19.799799 12.831793,18.779912 17.28125,15.25 22.986676,10.723686 29.8125,2.125 29.8125,2.125 27.941818,6.7728299 27.411144,22.806478 27.375,44 L 41,44 c 0,-1.177677 0,-0.940904 0,-2.125 C 38.783112,36.083676 37.337644,27.727504 36.25,20.25 35.607297,14.072494 35.83378,9.6262807 36.345901,5.9066265 34.424556,4.2752562 30.72491,1.719687 29.517212,1 L 27.40625,1 z M 7,22.9375 7,27.96875 c 4.811154,-1e-6 12.203198,7.302429 15.78125,16.03125 l 3,0 C 24.100012,36.064648 10.670523,22.9375 7,22.9375 z"
         id="path6711"
         style="fill:url(#linearGradient2447);fill-opacity:1;fill-rule:evenodd;stroke:none" />
      <path
         inkscape:connector-curvature="0"
         d="M 34.495321,5 C 28.651337,9.0398384 16.712418,16.013787 7,14.90277 l 0,8.98296 c 2e-7,-10e-7 26.153847,4.710113 34,-5.237522 l 0,-7.89512 C 39.645237,8.9191284 36.641936,6.6267909 34.495321,5 z M 41,27.893078 C 37.879395,31.345529 34.049097,38.166385 31.362737,44 L 28,43.971488 C 31.137915,35.769399 36.211951,27.712687 41,22 l 0,5.893078 z"
         id="path6713"
         style="opacity:0.15;fill:#000000;fill-opacity:1;fill-rule:evenodd;stroke:none" />
      <path
         inkscape:connector-curvature="0"
         d="m 28.617256,0.92125832 c 4.282522,0 2.15325,8.48317128 2.15325,8.48317128 0,0 10.357642,-1.8023467 10.357642,2.8187444 0,-2.6097233 -11.302304,-10.7285956 -12.510892,-11.30191568 z"
         id="path12038"
         style="opacity:0.4;fill:#000000;fill-opacity:1;fill-rule:evenodd;stroke:none;display:inline;filter:url(#filter3212)" />
      <path
         inkscape:connector-curvature="0"
         d="m 28.617256,0.92125832 c 3.186493,0 2.33576,7.66187848 2.33576,7.66187848 0,0 10.175132,-0.9810539 10.175132,3.6400372 0,-1.125939 0.08591,-1.932245 -0.133777,-2.2835928 C 39.416058,7.4154025 32.881194,1.7511811 30.41941,1.008793 30.235188,0.95323837 29.544367,0.92125832 28.617256,0.92125832 z"
         id="path4474"
         style="fill:url(#linearGradient2441);fill-opacity:1;fill-rule:evenodd;stroke:none;display:inline" />
      <path
         inkscape:connector-curvature="0"
         d="m 30.560847,0.5 c 1.406933,0.4746531 8.965454,5.8794034 10.939195,9.623605 0,11.459733 0,0.825538 0,12.285271 C 1.0542159,38.137806 6.2643971,0.5 30.560847,0.5 z"
         id="path4238"
         style="fill:none;stroke:url(#linearGradient3480);stroke-width:0.99992186;stroke-linecap:butt;stroke-linejoin:round;stroke-miterlimit:4;stroke-opacity:1;stroke-dasharray:none;stroke-dashoffset:0;display:inline" />
      <g
         transform="matrix(0,-1,1,0,14.80726,44.743873)"
         id="layer1-22">
        <g
           transform="matrix(1.2577934,0.59350937,-0.59926699,1.2457088,-1.3745769,-44.831071)"
           id="g8586"
           style="display:inline;enable-background:new">
          <path
             d="m 31.161325,8.8075561 c 0.133062,-0.00999 0.265009,-0.01311 0.39667,-0.018811 1.032154,1.3080269 3.318812,2.0048659 3.400756,3.7838489 -0.01199,5.314267 0.01699,10.67834 0.03582,16.018926 -0.346442,0.296677 -0.717303,0.550013 -1.10846,0.761785 -0.822386,0.447602 -1.753211,0.72109 -2.714989,0.756528 -0.0243,-7.102073 -0.05339,-14.21743 -0.0098,-21.3022779 l 0,4e-7 z"
             id="path16717"
             style="fill:url(#linearGradient8576);stroke:#888a85;stroke-width:0.73902136;stroke-linecap:round;stroke-linejoin:round;stroke-miterlimit:4;stroke-opacity:1;stroke-dasharray:none"
             inkscape:connector-curvature="0" />
          <path
             d="m 32.309045,10.263478 c -0.03,0.267905 0.02761,0.706209 -0.01228,0.960461 -0.09383,5.619622 -0.228746,11.249078 -0.339621,16.853521 0.04652,0.187226 -0.127851,0.895683 0.290503,0.642635 0.672555,-0.151393 1.357578,-0.345896 1.873369,-0.829711 0.104544,-5.182462 0.154379,-10.378961 0.253527,-15.560696 0.06598,-0.350657 -0.06696,-0.732652 -0.386299,-0.902494 -0.54827,-0.417673 -1.113406,-0.861706 -1.657386,-1.251337 l -0.01645,0.06608 -0.0054,0.02154 3.7e-5,10e-7 z"
             id="path16719"
             style="fill:url(#linearGradient8573);fill-opacity:1;stroke:none"
             inkscape:connector-curvature="0" />
          <polygon
             points="297.04443,12.300293 297.04443,12.300293 296.39941,13.384766 295.13281,14.71875 294.73242,13.672852 295.74658,11.960449 "
             transform="matrix(1.9970619,-0.9346976,1.0934885,2.3536864,-572.66375,276.68644)"
             id="polygon45129"
             style="fill:#d1bb4c;fill-opacity:1;stroke:#977c31;stroke-width:0.31430697000000002;stroke-linecap:round;stroke-linejoin:round;stroke-miterlimit:4;stroke-opacity:1;stroke-dasharray:none" />
          <path
             d="m 19.396198,14.35169 c -0.08957,0.102739 -0.173072,0.208756 -0.258423,0.312972 0.391379,1.64324 -0.467017,3.939283 0.87726,5.092967 4.173437,3.236312 8.360755,6.536547 12.53589,9.814149 0.445395,-0.102156 0.87181,-0.25076 1.278109,-0.441349 0.856083,-0.399274 1.642281,-0.993594 2.260875,-1.758642 C 30.537226,23.013753 24.977078,18.643677 19.396198,14.35169 z"
             id="polygon45097"
             style="fill:url(#linearGradient8569);fill-opacity:1;stroke:#888a85;stroke-width:0.75187969;stroke-linecap:round;stroke-linejoin:round;stroke-miterlimit:4;stroke-opacity:1;stroke-dasharray:none"
             inkscape:connector-curvature="0" />
          <path
             d="m 20.46842,15.805322 c 0.144736,0.862559 -0.179499,1.699043 0.05314,2.581236 4.050574,3.383781 8.124717,6.740771 12.171679,10.120477 0.739242,-0.132721 1.362473,-0.560766 1.934354,-1.03437 -0.336936,-0.453684 -0.82461,-0.712999 -1.204913,-1.111846 -4.208309,-3.455632 -8.433278,-6.897491 -12.624535,-10.374385 -0.05581,-0.09906 -0.27151,-0.272665 -0.329724,-0.181112 l -1e-6,0 z"
             id="path16635"
             style="fill:url(#linearGradient8566);fill-opacity:1;stroke:none"
             inkscape:connector-curvature="0" />
          <path
             d="m 32.982031,26.898487 c 0.171262,0.368111 0.07331,0.777511 -0.218725,0.914195 -0.292037,0.136683 -0.667459,-0.05116 -0.838321,-0.419459 -0.171262,-0.368111 -0.07331,-0.777511 0.218725,-0.914195 0.292036,-0.136683 0.667458,0.05116 0.838321,0.419459 z"
             id="path16731"
             style="fill:url(#linearGradient8582);fill-opacity:1;fill-rule:nonzero;stroke:none;stroke-width:1.49975467;marker:none;visibility:visible;display:inline;overflow:visible"
             inkscape:connector-curvature="0" />
          <polygon
             points="296.95605,12.300293 296.95605,12.300293 297.6001,13.384766 298.86719,14.71875 299.26807,13.672852 298.25391,11.960449 "
             transform="matrix(1.9896757,-0.9312406,1.1420325,2.4581752,-571.31613,275.36214)"
             id="polygon45101"
             style="fill:#d1bb4c;fill-opacity:1;stroke:#977c31;stroke-width:0.30812468999999998;stroke-linecap:round;stroke-linejoin:round;stroke-miterlimit:4;stroke-opacity:1;stroke-dasharray:none" />
          <path
             d="m 37.890872,29.313461 c -1.168746,2.058688 0.156179,5.535002 2.961883,7.763744 2.806441,2.230501 6.028887,2.37145 7.200667,0.317674 1.169527,-2.059082 -0.155418,-5.533236 -2.961119,-7.761966 -2.804912,-2.229138 -6.028134,-2.369691 -7.201431,-0.319452 z m 1.786015,1.422142 c 0.519917,-0.91201 2.509283,-0.813842 4.394584,0.686437 1.887398,1.499205 2.717319,3.642177 2.197423,4.552228 -0.51783,0.914848 -2.509973,0.814196 -4.395279,-0.686083 -1.888097,-1.498851 -2.716629,-3.640575 -2.196728,-4.552582 z"
             id="path11967"
             style="fill:#d1bb4c;fill-opacity:1;stroke:#977c31;stroke-width:0.75187968999999999;stroke-miterlimit:4;stroke-opacity:1;stroke-dasharray:none"
             inkscape:connector-curvature="0" />
          <path
             d="m 31.496367,32.360076 c 2.33508,0.389314 4.200089,3.608309 4.163351,7.191313 -0.03584,3.584684 -1.956498,6.176032 -4.289675,5.792168 -2.335878,-0.388956 -4.199196,-3.606606 -4.162451,-7.1896 0.03593,-3.582638 1.95739,-6.174338 4.288775,-5.793881 z m -0.02074,2.28296 c -1.035811,-0.170794 -2.212863,1.435992 -2.235476,3.845284 -0.02477,2.410243 1.116617,4.40482 2.150894,4.574396 1.0367,0.174203 2.213573,-1.436305 2.236189,-3.8456 0.02548,-2.410564 -1.115807,-4.403276 -2.151607,-4.57408 z"
             id="path3634"
             style="fill:#d1bb4c;fill-opacity:1;stroke:#977c31;stroke-width:0.75187968999999999;stroke-miterlimit:4;stroke-opacity:1;stroke-dasharray:none"
             inkscape:connector-curvature="0" />
          <path
             d="m 37.866386,29.253987 c -1.168746,2.058688 0.156179,5.535002 2.961883,7.763744 2.806441,2.230501 6.028887,2.37145 7.200667,0.317674 1.169527,-2.059082 -0.155418,-5.533236 -2.961119,-7.761966 -2.804912,-2.229138 -6.028134,-2.369691 -7.201431,-0.319452 z m 1.786015,1.422142 c 0.519917,-0.91201 2.509283,-0.813842 4.394584,0.686437 1.887398,1.499205 2.717319,3.642177 2.197423,4.552228 -0.51783,0.914848 -2.509973,0.814196 -4.395279,-0.686083 C 39.961032,33.72986 39.1325,31.588136 39.652401,30.676129 z"
             id="path3636"
             style="opacity:0.23999999;fill:url(#linearGradient3883);fill-opacity:1;stroke:none"
             inkscape:connector-curvature="0" />
          <path
             d="m 31.516991,32.314115 c 2.33508,0.389314 4.200089,3.608309 4.163351,7.191313 -0.03584,3.584684 -1.956498,6.176032 -4.289675,5.792168 -2.335878,-0.388956 -4.199196,-3.606606 -4.162451,-7.1896 0.03593,-3.582638 1.95739,-6.174338 4.288775,-5.793881 z m -0.02074,2.28296 c -1.035811,-0.170794 -2.212863,1.435992 -2.235476,3.845284 -0.02477,2.410243 1.116617,4.40482 2.150894,4.574396 1.0367,0.174203 2.213573,-1.436305 2.236189,-3.8456 0.02548,-2.410564 -1.115807,-4.403276 -2.151607,-4.57408 z"
             id="path3638"
             style="opacity:0.23999999;fill:url(#linearGradient3658);fill-opacity:1;stroke:none"
             inkscape:connector-curvature="0" />
        </g>
      </g>
    </g>
  </g>
</svg>
