<?xml version="1.0" encoding="UTF-8" standalone="no"?>
<!-- Created with Inkscape (http://www.inkscape.org/) -->

<svg
   xmlns:dc="http://purl.org/dc/elements/1.1/"
   xmlns:cc="http://creativecommons.org/ns#"
   xmlns:rdf="http://www.w3.org/1999/02/22-rdf-syntax-ns#"
   xmlns:svg="http://www.w3.org/2000/svg"
   xmlns="http://www.w3.org/2000/svg"
   xmlns:xlink="http://www.w3.org/1999/xlink"
   xmlns:sodipodi="http://sodipodi.sourceforge.net/DTD/sodipodi-0.dtd"
   xmlns:inkscape="http://www.inkscape.org/namespaces/inkscape"
   inkscape:export-ydpi="90.000000"
   inkscape:export-xdpi="90.000000"
   inkscape:export-filename="/home/jimmac/Desktop/wi-fi.png"
   width="48"
   height="48"
   id="svg11300"
   sodipodi:version="0.32"
   inkscape:version="0.48.1 r9760"
   sodipodi:docname="plugin-obs.svg"
   inkscape:output_extension="org.inkscape.output.svg.inkscape"
   version="1.0">
  <defs
     id="defs3">
    <linearGradient
       id="linearGradient4026">
      <stop
         style="stop-color:#fff9c6;stop-opacity:1"
         offset="0"
         id="stop4028" />
      <stop
         id="stop4042"
         offset="0.54166669"
         style="stop-color:#fff28c;stop-opacity:1;" />
      <stop
         style="stop-color:#ffea85;stop-opacity:1;"
         offset="1"
         id="stop4030" />
    </linearGradient>
    <linearGradient
       id="linearGradient4083">
      <stop
         style="stop-color:#ffffff;stop-opacity:0;"
         offset="0"
         id="stop4085" />
      <stop
         id="stop4089"
         offset="0.75"
         style="stop-color:#ffffff;stop-opacity:0;" />
      <stop
         style="stop-color:#ffffff;stop-opacity:1;"
         offset="1"
         id="stop4087" />
    </linearGradient>
    <radialGradient
       inkscape:collect="always"
       xlink:href="#linearGradient4083"
       id="radialGradient3033"
       gradientUnits="userSpaceOnUse"
       gradientTransform="matrix(0.59192306,0,0,0.59290931,11.840093,-15.521462)"
       cx="23.99999"
       cy="23.381506"
       fx="23.99999"
       fy="23.381506"
       r="19.141981" />
    <linearGradient
       inkscape:collect="always"
       xlink:href="#linearGradient4026"
       id="linearGradient3039"
       gradientUnits="userSpaceOnUse"
       x1="-28.968945"
       y1="-25.326815"
       x2="-37.19698"
       y2="-9.5590506" />
    <radialGradient
       r="10.625"
       fy="4.625"
       fx="62.625"
       cy="4.625"
       cx="62.625"
       gradientTransform="matrix(2.1647059,0,0,0.7529402,-111.56471,36.517647)"
       gradientUnits="userSpaceOnUse"
       id="radialGradient3176"
       xlink:href="#linearGradient8838"
       inkscape:collect="always" />
    <linearGradient
       id="linearGradient8838">
      <stop
         id="stop8840"
         style="stop-color:#000000;stop-opacity:1"
         offset="0" />
      <stop
         id="stop8842"
         style="stop-color:#000000;stop-opacity:0"
         offset="1" />
    </linearGradient>
    <linearGradient
       inkscape:collect="always"
       xlink:href="#linearGradient3268-4-9"
       id="linearGradient2950-8"
       gradientUnits="userSpaceOnUse"
       gradientTransform="matrix(0.9980883,0,0,0.99807246,0.51541545,7.8587417)"
       x1="17.610361"
       y1="0.99995786"
       x2="17.610361"
       y2="23.062979" />
    <linearGradient
       id="linearGradient3268-4-9">
      <stop
         id="stop3270-6-3"
         style="stop-color:#ffffff;stop-opacity:1"
         offset="0" />
      <stop
         id="stop3272-2-6"
         style="stop-color:#cdcdcd;stop-opacity:1"
         offset="1" />
    </linearGradient>
    <linearGradient
       inkscape:collect="always"
       xlink:href="#linearGradient3334-995-903-143-677-209-356-728-8-0"
       id="linearGradient2952-8"
       gradientUnits="userSpaceOnUse"
       gradientTransform="matrix(0.5150548,0,0,0.51504661,0.13116025,7.474492)"
       x1="12.962829"
       y1="2.6837947"
       x2="12.962829"
       y2="45.326431" />
    <linearGradient
       id="linearGradient3334-995-903-143-677-209-356-728-8-0">
      <stop
         id="stop5026-6-2"
         style="stop-color:#808080;stop-opacity:1"
         offset="0" />
      <stop
         id="stop5028-2-1"
         style="stop-color:#6d6d6d;stop-opacity:1"
         offset="0.87326682" />
      <stop
         id="stop5030-8-0"
         style="stop-color:#4f5053;stop-opacity:1"
         offset="1" />
    </linearGradient>
    <linearGradient
       inkscape:collect="always"
       xlink:href="#linearGradient3356-2-1"
       id="linearGradient2945-2"
       gradientUnits="userSpaceOnUse"
       gradientTransform="matrix(0,1.3762977,-1.3288018,0,29.293469,3.6516763)"
       x1="3.6966691"
       y1="16.722891"
       x2="19.821404"
       y2="16.722891" />
    <linearGradient
       id="linearGradient3356-2-1">
      <stop
         id="stop3358-8-5"
         style="stop-color:#808080;stop-opacity:1"
         offset="0" />
      <stop
         id="stop3360-9-9"
         style="stop-color:#6d6d6d;stop-opacity:1"
         offset="0.54610044" />
      <stop
         id="stop3362-6-9"
         style="stop-color:#4f5053;stop-opacity:1"
         offset="1" />
    </linearGradient>
    <linearGradient
       inkscape:collect="always"
       xlink:href="#linearGradient3227-7-4"
       id="linearGradient2947-1"
       gradientUnits="userSpaceOnUse"
       gradientTransform="matrix(0,1.3762977,-1.3288018,0,45.119017,-68.778049)"
       x1="56.323174"
       y1="25.882757"
       x2="72.451813"
       y2="25.882757" />
    <linearGradient
       id="linearGradient3227-7-4">
      <stop
         id="stop3229-0-9"
         style="stop-color:#4d4d4d;stop-opacity:1"
         offset="0" />
      <stop
         id="stop3231-1-1"
         style="stop-color:#333333;stop-opacity:1"
         offset="1" />
    </linearGradient>
    <linearGradient
       inkscape:collect="always"
       xlink:href="#linearGradient4873"
       id="linearGradient2922"
       gradientUnits="userSpaceOnUse"
       gradientTransform="matrix(1.1368037,0,0,1.1367778,-58.217338,23.82665)"
       x1="63.397362"
       y1="-12.489107"
       x2="63.397362"
       y2="5.4675598" />
    <linearGradient
       id="linearGradient4873">
      <stop
         id="stop4875"
         style="stop-color:#ffffff;stop-opacity:1"
         offset="0" />
      <stop
         id="stop4877"
         style="stop-color:#ffffff;stop-opacity:0"
         offset="1" />
    </linearGradient>
    <radialGradient
       inkscape:collect="always"
       xlink:href="#linearGradient8838"
       id="radialGradient3040"
       gradientUnits="userSpaceOnUse"
       gradientTransform="matrix(-0.66051568,0,0,0.22580181,53.473309,23.377446)"
       cx="62.625"
       cy="4.625"
       fx="62.625"
       fy="4.625"
       r="10.625" />
    <linearGradient
       id="linearGradient3311">
      <stop
         id="stop3313"
         style="stop-color:#000000;stop-opacity:1"
         offset="0" />
      <stop
         id="stop3315"
         style="stop-color:#000000;stop-opacity:0"
         offset="1" />
    </linearGradient>
    <linearGradient
       inkscape:collect="always"
       xlink:href="#linearGradient3268-4-9"
       id="linearGradient3042"
       gradientUnits="userSpaceOnUse"
       gradientTransform="matrix(-0.56670209,0,0,0.55696841,18.908849,13.239758)"
       x1="17.610361"
       y1="0.99995786"
       x2="17.610361"
       y2="23.062979" />
    <linearGradient
       id="linearGradient3318">
      <stop
         id="stop3320"
         style="stop-color:#ffffff;stop-opacity:1"
         offset="0" />
      <stop
         id="stop3322"
         style="stop-color:#cdcdcd;stop-opacity:1"
         offset="1" />
    </linearGradient>
    <linearGradient
       inkscape:collect="always"
       xlink:href="#linearGradient3334-995-903-143-677-209-356-728-8-0"
       id="linearGradient3044"
       gradientUnits="userSpaceOnUse"
       gradientTransform="matrix(-0.29244167,0,0,0.28741872,19.127024,13.025331)"
       x1="12.962829"
       y1="2.6837947"
       x2="12.962829"
       y2="45.326431" />
    <linearGradient
       id="linearGradient3325">
      <stop
         id="stop3327"
         style="stop-color:#808080;stop-opacity:1"
         offset="0" />
      <stop
         id="stop3329"
         style="stop-color:#6d6d6d;stop-opacity:1"
         offset="0.87326682" />
      <stop
         id="stop3331"
         style="stop-color:#4f5053;stop-opacity:1"
         offset="1" />
    </linearGradient>
    <linearGradient
       inkscape:collect="always"
       xlink:href="#linearGradient3356-2-1"
       id="linearGradient3046"
       gradientUnits="userSpaceOnUse"
       gradientTransform="matrix(0,0.76803473,0.75447707,0,2.5690303,10.892031)"
       x1="3.6966691"
       y1="16.722891"
       x2="19.821404"
       y2="16.722891" />
    <linearGradient
       id="linearGradient3334">
      <stop
         id="stop3336"
         style="stop-color:#808080;stop-opacity:1"
         offset="0" />
      <stop
         id="stop3338"
         style="stop-color:#6d6d6d;stop-opacity:1"
         offset="0.54610044" />
      <stop
         id="stop3340"
         style="stop-color:#4f5053;stop-opacity:1"
         offset="1" />
    </linearGradient>
    <linearGradient
       inkscape:collect="always"
       xlink:href="#linearGradient3227-7-4"
       id="linearGradient3048"
       gradientUnits="userSpaceOnUse"
       gradientTransform="matrix(0,0.76803473,0.75447707,0,-6.4165187,-29.526948)"
       x1="56.323174"
       y1="25.882757"
       x2="72.451813"
       y2="25.882757" />
    <linearGradient
       id="linearGradient3343">
      <stop
         id="stop3345"
         style="stop-color:#4d4d4d;stop-opacity:1"
         offset="0" />
      <stop
         id="stop3347"
         style="stop-color:#333333;stop-opacity:1"
         offset="1" />
    </linearGradient>
    <linearGradient
       inkscape:collect="always"
       xlink:href="#linearGradient4873"
       id="linearGradient3050"
       gradientUnits="userSpaceOnUse"
       gradientTransform="matrix(-0.64546298,0,0,0.63437215,52.256569,22.150556)"
       x1="63.397362"
       y1="-12.489107"
       x2="63.397362"
       y2="5.4675598" />
    <linearGradient
       id="linearGradient3350">
      <stop
         id="stop3352"
         style="stop-color:#ffffff;stop-opacity:1"
         offset="0" />
      <stop
         id="stop3354"
         style="stop-color:#ffffff;stop-opacity:0"
         offset="1" />
    </linearGradient>
    <radialGradient
       r="10.625"
       fy="4.625"
       fx="62.625"
       cy="4.625"
       cx="62.625"
       gradientTransform="matrix(1.163315,0,0,0.40463078,-60.360289,26.025205)"
       gradientUnits="userSpaceOnUse"
       id="radialGradient3364"
       xlink:href="#linearGradient8838"
       inkscape:collect="always" />
    <radialGradient
       inkscape:collect="always"
       xlink:href="#linearGradient8838-4"
       id="radialGradient6032"
       gradientUnits="userSpaceOnUse"
       gradientTransform="matrix(1,0,0,0.341176,0,3.047059)"
       cx="62.625"
       cy="4.625"
       fx="62.625"
       fy="4.625"
       r="10.625" />
    <linearGradient
       inkscape:collect="always"
       id="linearGradient8838-4">
      <stop
         style="stop-color:#000000;stop-opacity:1;"
         offset="0"
         id="stop8840-5" />
      <stop
         style="stop-color:#000000;stop-opacity:0;"
         offset="1"
         id="stop8842-2" />
    </linearGradient>
    <linearGradient
       inkscape:collect="always"
       xlink:href="#aigrd2"
       id="linearGradient3014"
       gradientUnits="userSpaceOnUse"
       x1="-90.695839"
       y1="54.59174"
       x2="-60.993149"
       y2="29.99497"
       gradientTransform="matrix(0.52230464,0,0,0.52230464,80.712093,4.9153681)" />
    <linearGradient
       y2="14.2033"
       x2="35.391201"
       y1="32.4165"
       x1="12.2744"
       gradientUnits="userSpaceOnUse"
       id="aigrd2">
      <stop
         id="stop3043"
         style="stop-color:#FBFBFB"
         offset="0" />
      <stop
         id="stop3045"
         style="stop-color:#B6B6B6"
         offset="0.5" />
      <stop
         id="stop3047"
         style="stop-color:#E4E4E4"
         offset="1" />
    </linearGradient>
    <linearGradient
       inkscape:collect="always"
       xlink:href="#linearGradient4873-0"
       id="linearGradient2995"
       gradientUnits="userSpaceOnUse"
       gradientTransform="matrix(1.1228881,0,0,1.1228881,-33.280172,23.516548)"
       x1="63.397362"
       y1="-9.3832779"
       x2="63.397362"
       y2="7.4434662" />
    <linearGradient
       id="linearGradient4873-0"
       inkscape:collect="always">
      <stop
         id="stop4875-2"
         offset="0"
         style="stop-color:#ffffff;stop-opacity:1;" />
      <stop
         id="stop4877-9"
         offset="1"
         style="stop-color:#ffffff;stop-opacity:0;" />
    </linearGradient>
    <radialGradient
       r="10.625"
       fy="4.625"
       fx="62.625"
       cy="4.625"
       cx="62.625"
       gradientTransform="matrix(1,0,0,0.341176,0,3.047059)"
       gradientUnits="userSpaceOnUse"
       id="radialGradient3531"
       xlink:href="#linearGradient8838-4"
       inkscape:collect="always" />
  </defs>
  <sodipodi:namedview
     stroke="#ef2929"
     fill="#eeeeec"
     id="base"
     pagecolor="#ffffff"
     bordercolor="#666666"
     borderopacity="0.25490196"
     inkscape:pageopacity="0.0"
     inkscape:pageshadow="2"
     inkscape:zoom="7.5572037"
     inkscape:cx="0.77712459"
     inkscape:cy="25.654051"
     inkscape:current-layer="layer1"
     showgrid="false"
     inkscape:grid-bbox="true"
     inkscape:document-units="px"
     inkscape:showpageshadow="false"
     inkscape:window-width="1278"
     inkscape:window-height="710"
     inkscape:window-x="0"
     inkscape:window-y="27"
     showguides="true"
     inkscape:guide-bbox="true"
     inkscape:snap-global="false"
     inkscape:window-maximized="0">
    <inkscape:grid
       type="xygrid"
       id="grid8656"
       visible="true"
       enabled="true"
       empspacing="5"
       snapvisiblegridlinesonly="true" />
  </sodipodi:namedview>
  <metadata
     id="metadata4">
    <rdf:RDF>
      <cc:Work
         rdf:about="">
        <dc:format>image/svg+xml</dc:format>
        <dc:type
           rdf:resource="http://purl.org/dc/dcmitype/StillImage" />
        <dc:creator>
          <cc:Agent>
            <dc:title>Jakub Steiner</dc:title>
          </cc:Agent>
        </dc:creator>
        <dc:source>http://jimmac.musichall.cz</dc:source>
        <cc:license
           rdf:resource="http://creativecommons.org/licenses/by-sa/2.0/" />
        <dc:title>Windows</dc:title>
        <dc:subject>
          <rdf:Bag>
            <rdf:li>window</rdf:li>
            <rdf:li>manager</rdf:li>
            <rdf:li>decoration</rdf:li>
            <rdf:li>behavior</rdf:li>
          </rdf:Bag>
        </dc:subject>
      </cc:Work>
      <cc:License
         rdf:about="http://creativecommons.org/licenses/by-sa/2.0/">
        <cc:permits
           rdf:resource="http://web.resource.org/cc/Reproduction" />
        <cc:permits
           rdf:resource="http://web.resource.org/cc/Distribution" />
        <cc:requires
           rdf:resource="http://web.resource.org/cc/Notice" />
        <cc:requires
           rdf:resource="http://web.resource.org/cc/Attribution" />
        <cc:permits
           rdf:resource="http://web.resource.org/cc/DerivativeWorks" />
        <cc:requires
           rdf:resource="http://web.resource.org/cc/ShareAlike" />
      </cc:License>
    </rdf:RDF>
  </metadata>
  <g
     id="layer1"
     inkscape:label="Layer 1"
     inkscape:groupmode="layer"
     transform="translate(0,16)">
    <path
       inkscape:connector-curvature="0"
       style="opacity:0.7;fill:#fce94f;fill-opacity:1;stroke:#fcaf3e;stroke-width:1.15652561;stroke-linecap:square;stroke-linejoin:miter;stroke-miterlimit:4;stroke-opacity:1;stroke-dasharray:none"
       d="m 26.077096,-13.925526 -1.37138,3.857045 c 0.446948,-0.07118 0.90448,-0.108178 1.37138,-0.108178 0.466912,0 0.924444,0.03701 1.371393,0.108178 l -1.371393,-3.857045 z m -8.769663,3.622729 1.750323,3.7128606 c 0.540055,-0.7441186 1.203827,-1.4071158 1.948818,-1.9465441 l -3.699141,-1.7663165 z m 17.557386,0 -3.717188,1.7663165 c 0.744979,0.5394283 1.40875,1.2024255 1.948818,1.9465441 l 1.76837,-3.7128606 z m -17.340845,7.3896661 -3.861545,1.3697821 3.861545,1.36979199 c -0.06946,-0.44077093 -0.108302,-0.89162459 -0.108302,-1.35177049 0,-0.4725789 0.03516,-0.9357415 0.108302,-1.3878036 z m 17.106257,0.018071 c 0.0713,0.4464196 0.108302,0.9034234 0.108302,1.3697944 0,0.4663539 -0.03701,0.92335644 -0.108302,1.36978339 L 38.491776,-1.5252658 34.630231,-2.8950602 z M 19.057756,3.5393459 17.307433,7.2341745 21.006574,5.4858884 C 20.261583,4.9464605 19.597811,4.283462 19.057756,3.5393459 z m 14.038693,0 c -0.534966,0.7370968 -1.194484,1.3920225 -1.930773,1.9285199 l 3.699143,1.7663087 -1.76837,-3.6948286 z m -8.390733,3.4785452 1.37138,3.8570389 1.371393,-3.8570389 c -0.446949,0.071153 -0.904481,0.1081417 -1.371393,0.1081417 -0.4669,0 -0.924432,-0.036989 -1.37138,-0.1081417 z"
       id="path7492" />
    <path
       inkscape:connector-curvature="0"
       style="opacity:0.7;fill:#fce94f;stroke:url(#radialGradient3033);stroke-width:0.71103424;stroke-linecap:square;stroke-linejoin:miter;stroke-miterlimit:4;stroke-opacity:1;stroke-dasharray:none"
       d="m 26.046253,-12.68321 -0.790107,2.243592 c 0.260267,-0.02311 0.523854,-0.03676 0.790107,-0.03676 0.266242,0 0.52984,0.01364 0.790094,0.03676 l -0.790094,-2.243592 z m -7.772408,3.2366557 1.010606,2.1332499 c 0.336053,-0.400702 0.719692,-0.7863574 1.120837,-1.1217959 l -2.131443,-1.011454 z m 15.563182,0 -2.131443,1.011454 c 0.399645,0.3351066 0.786025,0.7218192 1.120849,1.1217959 l 1.010594,-2.1332499 z m -16.573775,6.9882391 -2.223308,0.7907705 2.223308,0.79077536 c -0.022,-0.25443266 -0.03676,-0.51225576 -0.03676,-0.77238516 0,-0.272818 0.01254,-0.5426366 0.03676,-0.8091607 z m 17.565991,0.018439 c 0.02311,0.2604759 0.03676,0.5242955 0.03676,0.7907704 0,0.2664725 -0.01364,0.5302897 -0.03676,0.79077422 l 2.22332,-0.79077412 -2.22332,-0.7907704 z m -2.00281,6.4365265 C 32.489544,4.4002267 32.108352,4.799113 31.705584,5.1368368 L 33.837027,6.148291 32.826433,3.9966507 z m -13.541982,0.01839 -1.010606,2.11486 2.113064,-1.0114545 C 19.991752,4.7864735 19.616139,4.4105419 19.284451,4.0150411 z m 5.971695,3.1263146 0.790107,2.2252004 0.790094,-2.2252004 c -0.260254,0.023157 -0.523852,0.036783 -0.790094,0.036783 -0.266253,0 -0.52984,-0.013618 -0.790107,-0.036783 z"
       id="path7494" />
    <path
       sodipodi:type="arc"
       style="fill:#fce94f;fill-opacity:1;stroke:#fcaf3e;stroke-width:1.51344645;stroke-linecap:square;stroke-linejoin:miter;stroke-miterlimit:4;stroke-opacity:1;stroke-dasharray:none"
       id="path7498"
       sodipodi:cx="-32"
       sodipodi:cy="-17.5"
       sodipodi:rx="9.5"
       sodipodi:ry="9.5"
       d="m -22.5,-17.5 c 0,5.246705 -4.253295,9.5 -9.5,9.5 -5.246705,0 -9.5,-4.253295 -9.5,-9.5 0,-5.246705 4.253295,-9.5 9.5,-9.5 5.246705,0 9.5,4.253295 9.5,9.5 z"
       transform="matrix(0.38907346,-0.53506401,0.53070136,0.3922726,47.793695,-11.91982)"
       inkscape:r_cx="true"
       inkscape:r_cy="true" />
    <path
       sodipodi:type="arc"
       style="fill:#fce94f;fill-opacity:1;stroke:none"
       id="path7500"
       sodipodi:cx="-32"
       sodipodi:cy="-17.5"
       sodipodi:rx="9.5"
       sodipodi:ry="9.5"
       d="m -22.5,-17.5 c 0,5.246705 -4.253295,9.5 -9.5,9.5 -5.246705,0 -9.5,-4.253295 -9.5,-9.5 0,-5.246705 4.253295,-9.5 9.5,-9.5 5.246705,0 9.5,4.253295 9.5,9.5 z"
       transform="matrix(0.58899716,-0.0798087,0.10255238,0.59572968,46.686106,6.2151471)"
       inkscape:r_cx="true"
       inkscape:r_cy="true" />
    <path
       sodipodi:type="arc"
       style="fill:#fce94f;stroke:url(#linearGradient3039);stroke-width:1.85496749;stroke-linecap:square;stroke-linejoin:miter;stroke-miterlimit:4;stroke-opacity:1;stroke-dasharray:none"
       id="path7502"
       sodipodi:cx="-32"
       sodipodi:cy="-17.5"
       sodipodi:rx="9.5"
       sodipodi:ry="9.5"
       d="m -22.5,-17.5 c 0,5.246705 -4.253295,9.5 -9.5,9.5 -5.246705,0 -9.5,-4.253295 -9.5,-9.5 0,-5.246705 4.253295,-9.5 9.5,-9.5 5.246705,0 9.5,4.253295 9.5,9.5 z"
       transform="matrix(0.31885835,-0.43461105,0.43492772,0.31862699,43.858223,-9.9941265)"
       inkscape:r_cx="true"
       inkscape:r_cy="true" />
    <path
       inkscape:connector-curvature="0"
       style="opacity:0.3;fill:url(#radialGradient3364);fill-opacity:1;fill-rule:evenodd;stroke:none;stroke-width:0.99999988;marker:none;visibility:visible;display:inline;overflow:visible"
       id="path8836"
       d="m 24.852537,27.896624 c 0,2.374387 -5.53386,4.299208 -12.360222,4.299208 -6.8263611,0 -12.36022155,-1.924821 -12.36022155,-4.299208 0,-2.374386 5.53386045,-4.299207 12.36022155,-4.299207 6.826362,0 12.360222,1.924821 12.360222,4.299207 l 0,0 z" />
    <path
       inkscape:connector-curvature="0"
       style="color:#000000;fill:url(#linearGradient2950-8);fill-opacity:1;fill-rule:nonzero;stroke:url(#linearGradient2952-8);stroke-width:0.53936476;stroke-linecap:round;stroke-linejoin:round;stroke-miterlimit:4;stroke-opacity:1;stroke-dasharray:none;stroke-dashoffset:0;marker:none;visibility:visible;display:inline;overflow:visible;enable-background:accumulate"
       id="path2555"
       d="m 12.492318,9.357264 c -5.7815902,0 -10.4783477,4.696756 -10.4783477,10.478346 0,5.78159 4.6967575,10.478349 10.4783477,10.478347 5.781587,0 10.47835,-4.696757 10.478345,-10.478347 0,-5.78159 -4.696758,-10.478346 -10.478345,-10.478346 z" />
    <path
       inkscape:connector-curvature="0"
       style="color:#000000;fill:url(#linearGradient2945-2);fill-opacity:1;fill-rule:nonzero;stroke:url(#linearGradient2947-1);stroke-width:0.53740096;stroke-linecap:butt;stroke-linejoin:miter;stroke-miterlimit:4;stroke-opacity:1;stroke-dasharray:none;stroke-dashoffset:0;marker:none;visibility:visible;display:inline;overflow:visible;enable-background:accumulate"
       d="M 12.223617,9.356292 C 6.5664817,9.499768 2.0129989,14.144269 2.0129989,19.83561 c 0,5.691342 4.5534828,10.335845 10.2106181,10.479319 l 0,-20.958637 z"
       id="path2555-99" />
    <path
       inkscape:connector-curvature="0"
       style="opacity:0.4;fill:none;stroke:url(#linearGradient2922);stroke-width:0.53740096;stroke-miterlimit:4;stroke-opacity:1;stroke-dasharray:none"
       id="path8655"
       d="m 22.434235,19.835258 c 0,5.490947 -4.451476,9.942269 -9.941792,9.942269 -5.4908187,0 -9.942043,-4.451373 -9.942043,-9.942269 0,-5.490693 4.4512243,-9.941565 9.942043,-9.941565 5.490316,0 9.941792,4.450872 9.941792,9.941565 l 0,0 z" />
    <path
       d="m 5.0905359,24.421781 c 0,1.325012 3.142057,2.399147 7.0179791,2.399147 3.875922,0 7.017979,-1.074135 7.017979,-2.399147 0,-1.325013 -3.142057,-2.399148 -7.017979,-2.399148 -3.8759221,0 -7.0179791,1.074135 -7.0179791,2.399148 l 0,0 z"
       id="path3032"
       style="opacity:0.3;fill:url(#radialGradient3040);fill-opacity:1;fill-rule:evenodd;stroke:none;stroke-width:0.99999988;marker:none;visibility:visible;display:inline;overflow:visible"
       inkscape:connector-curvature="0" />
    <path
       d="m 12.108514,14.076 c 3.282714,0 5.949474,2.620997 5.949474,5.84738 0,3.226382 -2.66676,5.84738 -5.949474,5.847378 -3.2827131,0 -5.9494768,-2.620996 -5.9494742,-5.847378 0,-3.226383 2.6667611,-5.84738 5.9494742,-5.84738 z"
       id="path3034"
       style="color:#000000;fill:url(#linearGradient3042);fill-opacity:1;fill-rule:nonzero;stroke:url(#linearGradient3044);stroke-width:0.30360556;stroke-linecap:round;stroke-linejoin:round;stroke-miterlimit:4;stroke-opacity:1;stroke-dasharray:none;stroke-dashoffset:0;marker:none;visibility:visible;display:inline;overflow:visible;enable-background:accumulate"
       inkscape:connector-curvature="0" />
    <path
       id="path3036"
       d="m 12.261079,14.075458 c 3.21205,0.08007 5.797461,2.671902 5.797461,5.847922 0,3.176018 -2.585411,5.767856 -5.797461,5.847921 l 0,-11.695843 z"
       style="color:#000000;fill:url(#linearGradient3046);fill-opacity:1;fill-rule:nonzero;stroke:url(#linearGradient3048);stroke-width:0.30250016;stroke-linecap:butt;stroke-linejoin:miter;stroke-miterlimit:4;stroke-opacity:1;stroke-dasharray:none;stroke-dashoffset:0;marker:none;visibility:visible;display:inline;overflow:visible;enable-background:accumulate"
       inkscape:connector-curvature="0" />
    <path
       d="m 6.4636174,19.923183 c 0,3.06419 2.5274925,5.548225 5.6448256,5.548225 3.117618,0 5.644967,-2.484064 5.644967,-5.548225 0,-3.064049 -2.527349,-5.547831 -5.644967,-5.547831 -3.1173331,0 -5.6448256,2.483782 -5.6448256,5.547831 l 0,0 z"
       id="path3038"
       style="opacity:0.4;fill:none;stroke:url(#linearGradient3050);stroke-width:0.30250016;stroke-miterlimit:4;stroke-opacity:1;stroke-dasharray:none"
       inkscape:connector-curvature="0" />
    <path
       transform="matrix(1.1228883,0,0,1.3390139,-33.943539,20.860327)"
       d="m 73.25,4.625 a 10.625,3.625 0 1 1 -21.25,0 10.625,3.625 0 1 1 21.25,0 z"
       sodipodi:ry="3.625"
       sodipodi:rx="10.625"
       sodipodi:cy="4.625"
       sodipodi:cx="62.625"
       id="path8836-0"
       style="opacity:0.56043958;fill:url(#radialGradient3531);fill-opacity:1;fill-rule:evenodd;stroke:none;stroke-width:0.99999988;marker:none;visibility:visible;display:inline;overflow:visible"
       sodipodi:type="arc" />
    <path
       id="path6495"
       d="m 46.956578,19.573905 c 0,5.740017 -4.65329,10.393254 -10.392517,10.393254 -5.739753,0 -10.392781,-4.65329 -10.392781,-10.393254 0,-5.739753 4.653028,-10.3925168 10.392781,-10.3925168 5.739227,0 10.392517,4.6527638 10.392517,10.3925168 l 0,0 z"
       style="fill:url(#linearGradient3014);fill-opacity:1;fill-rule:nonzero;stroke:#808080;stroke-width:0.52230465;stroke-miterlimit:4;stroke-opacity:1;stroke-dasharray:none"
       inkscape:connector-curvature="0" />
    <path
       id="path4170"
       d="m 29.385529,12.501637 7.1784,7.070388 -2.657583,-9.7144701 c -1.738609,0.4752371 -3.291575,1.3962091 -4.520817,2.6440821 z"
       style="opacity:0.8;fill:#e7a509;fill-opacity:1;fill-rule:evenodd;stroke:none;stroke-width:0.47643384;marker:none;visibility:visible;display:inline;overflow:visible;enable-background:accumulate"
       inkscape:connector-curvature="0" />
    <path
       id="path4168"
       d="m 26.853962,16.898689 9.709967,2.673336 -7.1784,-7.070388 c -1.18943,1.207458 -2.068805,2.715953 -2.531567,4.397052 z"
       style="opacity:0.8;fill:#e37a05;fill-opacity:1;fill-rule:evenodd;stroke:none;stroke-width:0.47643384;marker:none;visibility:visible;display:inline;overflow:visible;enable-background:accumulate"
       inkscape:connector-curvature="0" />
    <path
       id="path4166"
       d="m 26.835959,22.180099 9.72797,-2.605827 0,-0.0022 -9.709967,-2.673337 c -0.234856,0.853175 -0.371296,1.748109 -0.371296,2.675585 0,0.903109 0.130218,1.77277 0.353293,2.605827 z"
       style="opacity:0.8;fill:#f14e0b;fill-opacity:0.91760302;fill-rule:evenodd;stroke:none;stroke-width:0.47643384;marker:none;visibility:visible;display:inline;overflow:visible;enable-background:accumulate"
       inkscape:connector-curvature="0" />
    <path
       id="path4164"
       d="m 29.466539,26.72792 7.09739,-7.153648 -9.72797,2.605827 c 0.46775,1.746761 1.383873,3.310858 2.63058,4.547821 z"
       style="opacity:0.8;fill:#d1040b;fill-opacity:0.86516849;fill-rule:evenodd;stroke:none;stroke-width:0.47643384;marker:none;visibility:visible;display:inline;overflow:visible;enable-background:accumulate"
       inkscape:connector-curvature="0" />
    <path
       id="path4162"
       d="m 33.994107,29.311243 2.569822,-9.736971 -7.09739,7.153648 c 1.236656,1.226989 2.792286,2.125767 4.527568,2.583323 z"
       style="opacity:0.8;fill:#292929;fill-opacity:0.81273409;fill-rule:evenodd;stroke:none;stroke-width:0.47643384;marker:none;visibility:visible;display:inline;overflow:visible;enable-background:accumulate"
       inkscape:connector-curvature="0" />
    <path
       id="path4160"
       d="m 39.223763,29.288741 -2.657583,-9.714469 -0.0023,0 -2.569823,9.736971 c 0.821962,0.216736 1.680083,0.344296 2.569823,0.344296 0.921763,0 1.811359,-0.134728 2.659833,-0.366798 z"
       style="opacity:0.8;fill:#2e2e2e;fill-opacity:0.47565541;fill-rule:evenodd;stroke:none;stroke-width:0.47643384;marker:none;visibility:visible;display:inline;overflow:visible;enable-background:accumulate"
       inkscape:connector-curvature="0" />
    <path
       id="path4158"
       d="m 43.742327,26.646911 -7.176147,-7.072639 2.657583,9.714469 c 1.736972,-0.475088 3.290027,-1.39542 4.518564,-2.64183 z"
       style="opacity:0.8;fill:#848484;fill-opacity:0.38951308;fill-rule:evenodd;stroke:none;stroke-width:0.47643384;marker:none;visibility:visible;display:inline;overflow:visible;enable-background:accumulate"
       inkscape:connector-curvature="0" />
    <path
       id="path4156"
       d="m 46.276145,22.247608 -9.709965,-2.673336 7.176147,7.072639 c 1.190549,-1.207868 2.070792,-2.717123 2.533818,-4.399303 z"
       style="opacity:0.8;fill:#cacaff;fill-opacity:0.19475654;fill-rule:evenodd;stroke:none;stroke-width:0.47643384;marker:none;visibility:visible;display:inline;overflow:visible;enable-background:accumulate"
       inkscape:connector-curvature="0" />
    <path
       id="path4154"
       d="m 46.294148,16.968448 -9.727968,2.605824 9.709965,2.673336 c 0.234826,-0.853121 0.369047,-1.745922 0.369047,-2.673336 0,-0.902267 -0.128367,-1.77346 -0.351044,-2.605824 z"
       style="opacity:0.51828182;fill:#1f5252;fill-opacity:0.32209742;fill-rule:evenodd;stroke:none;stroke-width:0.47643384;marker:none;visibility:visible;display:inline;overflow:visible;enable-background:accumulate"
       inkscape:connector-curvature="0" />
    <path
       id="path4152"
       d="m 43.663568,12.418377 -7.099639,7.153648 0,0.0023 0.0023,0 9.727969,-2.605826 c -0.467512,-1.747653 -1.383311,-3.312545 -2.630547,-4.550048 z"
       style="opacity:0.8;fill:#3fba2b;fill-opacity:0.15730339;fill-rule:evenodd;stroke:none;stroke-width:0.47643384;marker:none;visibility:visible;display:inline;overflow:visible;enable-background:accumulate"
       inkscape:connector-curvature="0" />
    <path
       id="path4150"
       d="m 39.133751,9.8350538 -2.569822,9.7369712 7.099639,-7.153648 c -1.236942,-1.227289 -2.79404,-2.125861 -4.529817,-2.5833232 z"
       style="opacity:0.8;fill:#a9e427;fill-opacity:0.0786517;fill-rule:evenodd;stroke:none;stroke-width:0.47643384;marker:none;visibility:visible;display:inline;overflow:visible;enable-background:accumulate"
       inkscape:connector-curvature="0" />
    <path
       id="path2170"
       d="m 36.563929,9.4930104 c -0.921202,0 -1.809573,0.1327498 -2.657583,0.3645445 l 2.657583,9.7144701 2.569822,-9.7369712 C 38.312141,9.6185186 37.453246,9.4930104 36.563929,9.4930104 z"
       style="opacity:0.8;fill:#e4e80b;fill-opacity:1;fill-rule:evenodd;stroke:none;stroke-width:0.47643384;marker:none;visibility:visible;display:inline;overflow:visible;enable-background:accumulate"
       inkscape:connector-curvature="0" />
    <path
       style="opacity:0.6;fill:none;stroke:url(#linearGradient2995);stroke-width:0.52230465;stroke-miterlimit:4;stroke-opacity:1;stroke-dasharray:none"
       d="m 46.384149,19.573925 c 0,5.423855 -4.396987,9.820791 -9.820096,9.820791 -5.423606,0 -9.820343,-4.396985 -9.820343,-9.820791 0,-5.423605 4.396737,-9.8200939 9.820343,-9.8200939 5.423109,0 9.820096,4.3964889 9.820096,9.8200939 l 0,0 z"
       id="path8655-9"
       inkscape:connector-curvature="0" />
  </g>
</svg>
