<?xml version="1.0" encoding="UTF-8" standalone="no"?>
<!-- Created with Inkscape (http://www.inkscape.org/) -->

<svg
   xmlns:dc="http://purl.org/dc/elements/1.1/"
   xmlns:cc="http://creativecommons.org/ns#"
   xmlns:rdf="http://www.w3.org/1999/02/22-rdf-syntax-ns#"
   xmlns:svg="http://www.w3.org/2000/svg"
   xmlns="http://www.w3.org/2000/svg"
   xmlns:xlink="http://www.w3.org/1999/xlink"
   xmlns:sodipodi="http://sodipodi.sourceforge.net/DTD/sodipodi-0.dtd"
   xmlns:inkscape="http://www.inkscape.org/namespaces/inkscape"
   id="svg1325"
   height="48px"
   width="48px"
   version="1.1"
   inkscape:version="0.48.1 r9760"
   sodipodi:docname="plugin-gnomecompat.svg">
  <sodipodi:namedview
     pagecolor="#ffffff"
     bordercolor="#666666"
     borderopacity="1"
     objecttolerance="10"
     gridtolerance="10"
     guidetolerance="10"
     inkscape:pageopacity="0"
     inkscape:pageshadow="2"
     inkscape:window-width="1085"
     inkscape:window-height="939"
     id="namedview50"
     showgrid="false"
     inkscape:zoom="6.6041667"
     inkscape:cx="24.454259"
     inkscape:cy="25.892744"
     inkscape:window-x="486"
     inkscape:window-y="24"
     inkscape:window-maximized="0"
     inkscape:current-layer="svg1325" />
  <defs
     id="defs1327">
    <linearGradient
       id="linearGradient2796">
      <stop
         id="stop2798"
         stop-color="#2e3436"
         offset="0" />
      <stop
         id="stop2800"
         stop-color="#2e3436"
         stop-opacity="0"
         offset="1" />
    </linearGradient>
    <linearGradient
       id="linearGradient3052">
      <stop
         id="stop3054"
         stop-color="#555753"
         offset="0" />
      <stop
         id="stop3056"
         stop-color="#2e3436"
         offset="1" />
    </linearGradient>
    <linearGradient
       id="linearGradient3013">
      <stop
         id="stop3015"
         stop-color="#2d2d2d"
         offset="0" />
      <stop
         id="stop3017"
         stop-color="#fff"
         offset="1" />
    </linearGradient>
    <radialGradient
       id="radialGradient2991"
       gradientUnits="userSpaceOnUse"
       cy="33.735"
       cx="23.802"
       gradientTransform="matrix(.55186 -.074231 .057647 .42857 10.857 24.325)"
       r="12.991">
      <stop
         id="stop2987"
         stop-color="#555753"
         offset="0" />
      <stop
         id="stop2989"
         stop-color="#555753"
         stop-opacity="0"
         offset="1" />
    </radialGradient>
    <linearGradient
       id="linearGradient3011"
       y2="42.722"
       xlink:href="#linearGradient3013"
       gradientUnits="userSpaceOnUse"
       x2="23.625"
       y1="15.688"
       x1="22.625" />
    <linearGradient
       id="linearGradient3019"
       y2="14.403"
       xlink:href="#linearGradient3013"
       gradientUnits="userSpaceOnUse"
       x2="35.223"
       y1="1.5141"
       x1="35.223" />
    <linearGradient
       id="linearGradient3027"
       y2="12.783"
       xlink:href="#linearGradient3013"
       gradientUnits="userSpaceOnUse"
       x2="23.114"
       y1="3.2925"
       x1="23.114" />
    <linearGradient
       id="linearGradient3035"
       y2="14.587"
       xlink:href="#linearGradient3013"
       gradientUnits="userSpaceOnUse"
       x2="15.203"
       y1="6.2159"
       x1="15.203" />
    <linearGradient
       id="linearGradient3043"
       y2="19.071"
       xlink:href="#linearGradient3013"
       gradientUnits="userSpaceOnUse"
       x2="8.3527"
       y1="11.509"
       x1="8.3527" />
    <radialGradient
       id="radialGradient3070"
       xlink:href="#linearGradient3052"
       gradientUnits="userSpaceOnUse"
       cy="21.814"
       cx="19.45"
       gradientTransform="matrix(1.987 -.33810 .12407 .72918 -24.1 13.295)"
       r="17.995" />
    <radialGradient
       id="radialGradient3073"
       xlink:href="#linearGradient3052"
       gradientUnits="userSpaceOnUse"
       cy="8.0828"
       cx="18.107"
       gradientTransform="matrix(2.1404 -.0000014508 0 .93766 -24.377 2.1711)"
       r="17.995" />
    <radialGradient
       id="radialGradient3076"
       xlink:href="#linearGradient3052"
       gradientUnits="userSpaceOnUse"
       cy="13.682"
       cx="14.954"
       gradientTransform="matrix(2.1404 -.0000014508 0 .93766 -24.377 2.1711)"
       r="17.995" />
    <radialGradient
       id="radialGradient3079"
       xlink:href="#linearGradient3052"
       gradientUnits="userSpaceOnUse"
       cy="4.3501"
       cx="21.494"
       gradientTransform="matrix(2.1404 -.0000014508 0 .93766 -24.377 2.1711)"
       r="17.995" />
    <radialGradient
       id="radialGradient3082"
       xlink:href="#linearGradient3052"
       gradientUnits="userSpaceOnUse"
       cy="3.6836"
       cx="25.641"
       gradientTransform="matrix(2.1404 -.0000014508 0 .93766 -24.377 2.1711)"
       r="17.995" />
    <linearGradient
       id="linearGradient2802"
       y2="41.194"
       xlink:href="#linearGradient2796"
       gradientUnits="userSpaceOnUse"
       x2="21.679"
       y1="18.389"
       x1="23.937" />
    <linearGradient
       id="linearGradient2804"
       y2="12.644"
       xlink:href="#linearGradient2796"
       gradientUnits="userSpaceOnUse"
       x2="33.306"
       y1="3.717"
       x1="33.306" />
    <linearGradient
       id="linearGradient2806"
       y2="15.743"
       xlink:href="#linearGradient2796"
       gradientUnits="userSpaceOnUse"
       x2="33.129"
       y1="12.427"
       x1="33.129" />
    <radialGradient
       id="radialGradient2436"
       gradientUnits="userSpaceOnUse"
       cy="4.625"
       cx="62.625"
       gradientTransform="matrix(2.1647,0,0,0.75294,-111.56,36.518)"
       r="10.625">
      <stop
         id="stop8840"
         offset="0" />
      <stop
         id="stop8842"
         style="stop-opacity:0"
         offset="1" />
    </radialGradient>
    <linearGradient
       id="linearGradient2515"
       y2="45.016998"
       gradientUnits="userSpaceOnUse"
       x2="20.759001"
       y1="1"
       x1="20.759001">
      <stop
         id="stop3311"
         style="stop-color:#f6f6f6"
         offset="0" />
      <stop
         id="stop3313"
         style="stop-color:#d2d2d2"
         offset="1" />
    </linearGradient>
    <linearGradient
       id="linearGradient2517"
       y2="45"
       gradientUnits="userSpaceOnUse"
       x2="37.201"
       y1="1"
       x1="37.201">
      <stop
         id="stop3399"
         style="stop-color:#aaa"
         offset="0" />
      <stop
         id="stop3401"
         style="stop-color:#8c8c8c"
         offset="1" />
    </linearGradient>
    <linearGradient
       id="linearGradient2512"
       y2="20.895"
       gradientUnits="userSpaceOnUse"
       x2="84.639"
       gradientTransform="matrix(0.32448,0,0,0.32448,3.2333,2.5577)"
       y1="105.1"
       x1="86.133003">
      <stop
         id="stop5130"
         style="stop-color:#e5e5e5"
         offset="0" />
      <stop
         id="stop5132"
         style="stop-color:#ababab"
         offset="1" />
    </linearGradient>
  </defs>
  <metadata
     id="metadata1330">
    <rdf:RDF>
      <cc:Work
         rdf:about="">
        <dc:format>image/svg+xml</dc:format>
        <dc:type
           rdf:resource="http://purl.org/dc/dcmitype/StillImage" />
        <dc:title>Piedone</dc:title>
        <dc:creator>
          <cc:Agent>
            <dc:title>Lapo Calamandrei</dc:title>
          </cc:Agent>
        </dc:creator>
        <dc:subject>
          <rdf:Bag />
        </dc:subject>
        <dc:contributor>
          <cc:Agent>
            <dc:title />
          </cc:Agent>
        </dc:contributor>
        <cc:license
           rdf:resource="http://creativecommons.org/licenses/GPL/2.0/" />
      </cc:Work>
      <cc:License
         rdf:about="http://creativecommons.org/licenses/GPL/2.0/">
        <cc:permits
           rdf:resource="http://web.resource.org/cc/Reproduction" />
        <cc:permits
           rdf:resource="http://web.resource.org/cc/Distribution" />
        <cc:requires
           rdf:resource="http://web.resource.org/cc/Notice" />
        <cc:permits
           rdf:resource="http://web.resource.org/cc/DerivativeWorks" />
        <cc:requires
           rdf:resource="http://web.resource.org/cc/ShareAlike" />
        <cc:requires
           rdf:resource="http://web.resource.org/cc/SourceCode" />
      </cc:License>
    </rdf:RDF>
  </metadata>
  <g
     id="layer2">
    <g
       id="g3045"
       opacity=".5"
       transform="translate(0,1)"
       stroke-miterlimit="4"
       stroke-dasharray="none"
       fill="none">
      <path
         id="path2997"
         stroke-linejoin="round"
         d="m37.844 0.5625c-4.906 0-7.918 3.635-8.906 7.1875-0.495 1.7763-0.522 3.564-0.032 5.031 0.49 1.468 1.714 2.657 3.375 2.657 1.662 0 3.302-0.954 4.844-2.25 1.542-1.297 2.967-2.984 3.969-4.7192 1.001-1.7349 1.635-3.5128 1.25-5.1563-0.193-0.8217-0.715-1.5831-1.5-2.0625-0.786-0.47945-1.774-0.6875-3-0.6875z"
         stroke="url(#linearGradient3019)"
         stroke-width="1" />
      <path
         id="path2995"
         d="m27.5 15.531c-3.68-0.06-7.822 0.802-11.375 2.594-3.549 1.79-6.5021 4.567-7.375 8.375-0.9647 4.206 0.9515 8.842 4.219 12.531 3.258 3.68 7.894 6.438 12.843 6.438 2.571 0 5.108-1.131 7.219-2.844s3.832-4.07 4.375-6.875c0.101-0.519-0.02-1.43-0.281-1.875-0.415-0.708-0.894-0.902-1.313-1.094-1.144-0.524-2.2-0.56-3.468-0.437-1.22 0.118-2.372 0.39-3.406 0.937-0.561 0.296-0.938 0.579-1.282 1-0.065 0.08-0.114 0.144-0.187 0.25-0.037 0.053-0.053 0.083-0.157 0.313-0.103 0.23-0.156 1.062-0.156 1.062 0.156 1.161-0.3 1.867-0.844 2.156-0.574 0.307-1.455 0.298-2.531-0.5-0.955-0.708-1.348-1.259-1.469-1.687-0.094-0.336-0.019-0.747 0.282-1.187 0.73-1.069 2.531-2.246 4.718-3.563 2.17-1.306 4.543-2.692 6.407-4.375 0.913-0.824 1.706-1.694 2.25-2.75 0.543-1.056 0.778-2.344 0.562-3.594-0.283-1.638-1.573-2.943-3.156-3.687-1.618-0.761-3.644-1.151-5.875-1.188z"
         stroke="url(#linearGradient3011)"
         stroke-width="1" />
      <path
         id="path2999"
         stroke-linejoin="round"
         d="m23.562 2.5938c-1.514 0.1842-2.654 1.0154-3.281 2.0937-0.626 1.0783-0.805 2.349-0.719 3.5625 0.087 1.2135 0.446 2.393 1 3.344 0.555 0.951 1.359 1.778 2.5 1.844 1.246 0.071 2.126-0.833 2.782-1.844s1.135-2.3036 1.375-3.594 0.252-2.6001-0.281-3.7188c-0.534-1.1186-1.831-1.8752-3.376-1.6874z"
         stroke="url(#linearGradient3027)"
         stroke-width="1" />
      <path
         id="path3001"
         stroke-linejoin="round"
         d="m8.8438 10.969c-0.6111-0.022-1.196 0.218-1.7188 0.593-1.0443 0.751-1.5685 1.883-1.5938 2.969-0.0252 1.086 0.3493 2.123 0.875 3.031 0.5258 0.909 1.2307 1.677 2 2.219 0.7694 0.542 1.7238 0.941 2.6878 0.5 0.938-0.429 1.198-1.339 1.312-2.219 0.115-0.879 0.048-1.87-0.156-2.843s-0.545-1.928-1.062-2.719c-0.518-0.791-1.2948-1.495-2.3442-1.531z"
         stroke="url(#linearGradient3043)"
         stroke-width="1" />
      <path
         id="path3003"
         stroke-linejoin="round"
         d="m15.938 5.625c-0.619-0.1493-1.275-0.0623-1.907 0.1875-1.269 0.502-2.063 1.5306-2.343 2.625-0.281 1.0944-0.112 2.2185 0.25 3.2505 0.361 1.031 0.925 1.98 1.624 2.687 0.7 0.707 1.595 1.27 2.657 1.063 1.026-0.201 1.545-1.077 1.875-1.938 0.329-0.861 0.497-1.848 0.5-2.875 0.003-1.0266-0.151-2.0882-0.532-3-0.38-0.9118-1.067-1.7446-2.124-2z"
         stroke="url(#linearGradient3035)"
         stroke-width="1" />
    </g>
  </g>
  <g
     id="layer1">
    <path
       id="path4490"
       d="m37.836 2.5c-8.885 0-10.552 13-5.553 13 4.997 0 14.439-13 5.553-13z"
       fill-rule="nonzero"
       stroke="#2e3436"
       stroke-miterlimit="4"
       stroke-dasharray="none"
       stroke-width="1"
       fill="url(#radialGradient3082)" />
    <path
       id="path4492"
       d="m23.119 13.498c2.679 0.154 5.619-9.5826 0.583-8.9703-5.035 0.6124-3.264 8.8173-0.583 8.9703z"
       fill-rule="nonzero"
       stroke="#2e3436"
       stroke-miterlimit="4"
       stroke-dasharray="none"
       stroke-width="1"
       fill="url(#radialGradient3079)" />
    <path
       id="path4494"
       d="m10.674 20.409c1.906-0.873 0.245-9.408-2.9955-7.08-3.2395 2.328 1.0895 7.952 2.9955 7.08z"
       fill-rule="nonzero"
       stroke="#2e3436"
       stroke-miterlimit="4"
       stroke-dasharray="none"
       stroke-width="1"
       fill="url(#radialGradient3076)" />
    <path
       id="path4496"
       d="m16.044 15.479c2.269-0.444 2.393-9.3619-1.653-7.7621-4.047 1.6002-0.614 8.2061 1.653 7.7621z"
       fill-rule="nonzero"
       stroke="#2e3436"
       stroke-miterlimit="4"
       stroke-dasharray="none"
       stroke-width="1"
       fill="url(#radialGradient3073)" />
    <path
       id="path4498"
       d="m28.088 36.787c0.407 3.027-2.279 4.522-4.91 2.571-8.375-6.212 13.867-9.311 12.4-17.798-1.216-7.045-23.402-4.876-25.929 6.147-1.7099 7.455 7.04 17.798 16.169 17.798 4.491 0 9.671-3.951 10.641-8.956 0.74-3.816-8.71-2.287-8.371 0.238z"
       fill-rule="nonzero"
       stroke="#2e3436"
       stroke-miterlimit="4"
       stroke-dasharray="none"
       stroke-width="1"
       fill="url(#radialGradient3070)" />
    <path
       id="path2981"
       opacity=".7"
       d="m27.5 17.031c-3.416-0.056-7.426 0.777-10.719 2.438s-5.851 4.137-6.593 7.375c-0.798 3.477 0.878 7.769 3.906 11.187 3.027 3.419 7.36 5.938 11.718 5.938 4.173 0 9.215-3.8 10.126-8.5 0.072-0.374 0.022-0.614-0.094-0.813-0.117-0.199-0.341-0.387-0.656-0.531-0.632-0.289-1.668-0.383-2.719-0.281s-2.105 0.39-2.844 0.781c-0.37 0.195-0.655 0.432-0.813 0.625-0.157 0.193-0.207 0.322-0.187 0.469 0.226 1.682-0.428 3.065-1.594 3.687s-2.716 0.443-4.156-0.625c-1.102-0.817-1.787-1.635-2.031-2.5s-0.003-1.702 0.5-2.437c1.004-1.471 3.015-2.693 5.187-4 2.172-1.308 4.505-2.668 6.188-4.188 1.682-1.52 2.67-3.112 2.343-5-0.191-1.11-1.005-1.965-2.343-2.594-1.339-0.628-3.169-0.997-5.219-1.031z"
       fill-rule="nonzero"
       transform="translate(0,1)"
       fill="url(#radialGradient2991)" />
    <g
       id="g2836"
       opacity=".3"
       stroke-dasharray="none"
       stroke-miterlimit="4"
       stroke-width="1"
       fill="none">
      <path
         id="path2853"
         d="m27.469 17.5c-3.336-0.055-7.256 0.754-10.469 2.375s-5.642 4.003-6.344 7.063c-0.7477 3.26 0.826 7.444 3.782 10.781 2.955 3.337 7.193 5.781 11.374 5.781 3.899 0 8.797-3.687 9.657-8.125 0.055-0.285 0.024-0.405-0.031-0.5-0.056-0.095-0.185-0.197-0.438-0.313-0.506-0.231-1.472-0.346-2.469-0.25-0.996 0.097-2.024 0.369-2.687 0.719-0.332 0.176-0.557 0.378-0.656 0.5-0.1 0.123-0.094 0.125-0.094 0.125 0.245 1.827-0.491 3.435-1.844 4.156-1.353 0.722-3.109 0.492-4.656-0.656-1.15-0.852-1.903-1.739-2.188-2.75-0.285-1.01 0.009-2.033 0.563-2.844 1.107-1.62 3.135-2.814 5.312-4.124 2.178-1.311 4.499-2.688 6.125-4.157 1.626-1.468 2.479-2.844 2.188-4.531-0.161-0.929-0.812-1.662-2.063-2.25s-3.061-0.967-5.062-1z"
         transform="translate(0,1)"
         stroke="url(#linearGradient2802)" />
      <path
         id="path2920"
         stroke-linejoin="miter"
         marker-mid="none"
         style="color:black;"
         marker-end="none"
         d="m37.844 2.5c-3.948 0-6.185 2.8544-7 5.7812-0.408 1.4635-0.412 2.9218-0.094 3.8748s0.722 1.344 1.531 1.344c0.81 0 2.212-0.677 3.563-1.812 1.351-1.136 2.66-2.6804 3.531-4.188s1.242-2.9849 1.063-3.75c-0.09-0.3826-0.229-0.5895-0.594-0.8125-0.366-0.223-1.013-0.4375-2-0.4375z"
         marker-start="none"
         transform="translate(0,1)"
         stroke-dashoffset="0"
         stroke="url(#linearGradient2804)"
         stroke-linecap="butt" />
      <path
         id="path2922"
         stroke-linejoin="miter"
         marker-mid="none"
         style="color:black;"
         marker-end="none"
         d="m23.812 4.5312c-0.98 0.1193-1.484 0.5383-1.843 1.1563s-0.504 1.5164-0.438 2.4375 0.348 1.8324 0.719 2.469c0.371 0.636 0.778 0.866 0.938 0.875 0.045 0.002 0.519-0.197 1-0.938 0.48-0.7406 0.931-1.8375 1.124-2.8748 0.194-1.0372 0.116-2.0266-0.124-2.5312-0.241-0.5046-0.426-0.7092-1.376-0.5938z"
         marker-start="none"
         transform="translate(0,1)"
         stroke-dashoffset="0"
         stroke="url(#linearGradient2804)"
         stroke-linecap="butt" />
      <path
         id="path2926"
         stroke-linejoin="miter"
         marker-mid="none"
         style="color:black;"
         marker-end="none"
         d="m8.7812 12.938c-0.0898-0.004-0.245 0.013-0.5312 0.218-0.5729 0.412-0.7363 0.816-0.75 1.406-0.0137 0.591 0.2348 1.358 0.625 2.032s0.9299 1.258 1.4062 1.594c0.4768 0.335 0.7658 0.305 0.7498 0.312-0.11 0.05 0.113-0.11 0.188-0.688 0.075-0.577 0.04-1.4-0.125-2.187s-0.457-1.566-0.7815-2.063c-0.3245-0.496-0.604-0.618-0.7813-0.624z"
         marker-start="none"
         transform="translate(0,1)"
         stroke-dashoffset="0"
         stroke="url(#linearGradient2806)"
         stroke-linecap="butt" />
      <path
         id="path2924"
         stroke-linejoin="miter"
         marker-mid="none"
         style="color:black;"
         marker-end="none"
         d="m15.5 7.5c-0.14-0.0339-0.339-0.0253-0.719 0.125-0.754 0.2982-1.039 0.7029-1.187 1.2812-0.149 0.5784-0.08 1.3628 0.187 2.1248s0.707 1.483 1.157 1.938c0.449 0.454 0.833 0.545 0.906 0.531-0.033 0.006 0.224-0.13 0.437-0.688 0.213-0.557 0.341-1.397 0.344-2.218 0.003-0.8217-0.137-1.6175-0.375-2.1878-0.238-0.5702-0.479-0.8408-0.75-0.9062z"
         marker-start="none"
         transform="translate(0,1)"
         stroke-dashoffset="0"
         stroke="url(#linearGradient2804)"
         stroke-linecap="butt" />
    </g>
  </g>
  <g
     transform="matrix(0.64239743,0,0,0.64239743,-0.68163799,16.135305)"
     id="layer1-9">
    <path
       inkscape:connector-curvature="0"
       id="path8836"
       style="opacity:0.3;fill:url(#radialGradient2436);fill-rule:evenodd"
       d="m 47,40 c 0,4.4183 -10.297,8 -23,8 -12.703,0 -23,-3.5817 -23,-8 0,-4.4183 10.297,-8 23,-8 12.703,0 23,3.5817 23,8 z" />
    <path
       inkscape:connector-curvature="0"
       id="rect3267"
       style="fill:url(#linearGradient2515);stroke:url(#linearGradient2517);stroke-linejoin:round;display:block"
       d="M 21.031,1.5 C 20.185,1.5 19.5,2.2019 19.5,3.0625 V 6.0937 C 17.987,6.4969 16.541,7.1057 15.219,7.875 L 13.062,5.7188 C 12.758,5.4145 12.394,5.2533 12,5.25 11.606,5.2467 11.205,5.3883 10.906,5.6875 L 6.6875,9.9062 C 6.0892,10.505 6.1102,11.454 6.7188,12.062 L 8.875,14.219 C 8.1057,15.541 7.4969,16.987 7.0938,18.5 H 4.0626 C 3.2019,18.5 2.5,19.185 2.5,20.031 v 5.9375 c 0,0.847 0.7019,1.532 1.5625,1.532 h 3.0312 c 0.40311,1.5129 1.012,2.9586 1.7812,4.2812 l -2.1561,2.157 c -0.6086,0.608 -0.6296,1.557 -0.0313,2.156 l 4.2188,4.2188 c 0.5983,0.5983 1.5477,0.57728 2.1562,-0.03125 l 2.157,-2.157 c 1.3227,0.76926 2.7683,1.3781 4.2812,1.7812 v 3.0312 c 0,0.86059 0.68512,1.5625 1.5312,1.5625 h 5.9375 c 0.847,0 1.532,-0.702 1.532,-1.562 v -3.0312 c 1.5129,-0.40311 2.9586,-1.012 4.2812,-1.7812 l 2.1562,2.1562 c 0.60853,0.60853 1.5579,0.62956 2.1562,0.03125 l 4.2188,-4.2188 c 0.5983,-0.5983 0.57728,-1.5477 -0.03125,-2.1562 l -2.156,-2.157 c 0.769,-1.322 1.378,-2.768 1.781,-4.281 h 3.0312 c 0.86059,0 1.5625,-0.68512 1.5625,-1.5312 v -5.9375 c 0,-0.847 -0.702,-1.532 -1.562,-1.532 h -3.0312 c -0.404,-1.513 -1.013,-2.959 -1.782,-4.281 l 2.1562,-2.1562 c 0.60853,-0.60853 0.62956,-1.5579 0.03125,-2.1562 l -4.218,-4.2193 c -0.599,-0.5983 -1.548,-0.5773 -2.156,0.0313 l -2.157,2.1562 C 31.4605,7.105 30.0145,6.4962 28.5015,6.0931 V 3.0619 c 0,-0.8607 -0.685,-1.5626 -1.531,-1.5626 H 21.033 z M 24,16.5 c 3.588,0 6.5,2.912 6.5,6.5 0,3.588 -2.912,6.5 -6.5,6.5 -3.588,0 -6.5,-2.912 -6.5,-6.5 0,-3.588 2.912,-6.5 6.5,-6.5 z" />
    <path
       inkscape:connector-curvature="0"
       id="path28"
       style="fill:none;stroke:url(#linearGradient2512)"
       d="m 24,9.5 c -7.4439,0 -13.5,6.0561 -13.5,13.5 0,7.4439 6.0561,13.5 13.5,13.5 7.4439,0 13.5,-6.0561 13.5,-13.5 C 37.5,15.556 31.444,9.5 24,9.5 z" />
    <path
       inkscape:connector-curvature="0"
       id="path3315"
       style="opacity:0.05"
       d="m 24,10 c -7.1683,-5e-7 -13,5.8317 -13,13 0,7.1683 5.8317,13 13,13 7.1683,-10e-7 13,-5.8317 13,-13 0,-7.1683 -5.8317,-13 -13,-13 z m 0,6 c 3.864,0 7,3.136 7,7 0,3.864 -3.136,7 -7,7 -3.864,0 -7,-3.136 -7,-7 0,-3.864 3.136,-7 7,-7 z" />
  </g>
</svg>
