<?xml version="1.0" encoding="UTF-8" standalone="no"?>
<!-- Created with Inkscape (http://www.inkscape.org/) -->

<svg
   xmlns:dc="http://purl.org/dc/elements/1.1/"
   xmlns:cc="http://creativecommons.org/ns#"
   xmlns:rdf="http://www.w3.org/1999/02/22-rdf-syntax-ns#"
   xmlns:svg="http://www.w3.org/2000/svg"
   xmlns="http://www.w3.org/2000/svg"
   xmlns:xlink="http://www.w3.org/1999/xlink"
   xmlns:sodipodi="http://sodipodi.sourceforge.net/DTD/sodipodi-0.dtd"
   xmlns:inkscape="http://www.inkscape.org/namespaces/inkscape"
   id="svg4486"
   height="48"
   width="48"
   version="1.0"
   inkscape:version="0.48.1 r9760"
   sodipodi:docname="document-new.svg">
  <sodipodi:namedview
     pagecolor="#ffffff"
     bordercolor="#666666"
     borderopacity="1"
     objecttolerance="10"
     gridtolerance="10"
     guidetolerance="10"
     inkscape:pageopacity="0"
     inkscape:pageshadow="2"
     inkscape:window-width="918"
     inkscape:window-height="813"
     id="namedview57"
     showgrid="false"
     inkscape:zoom="6.6041667"
     inkscape:cx="24.454259"
     inkscape:cy="25.892744"
     inkscape:window-x="597"
     inkscape:window-y="48"
     inkscape:window-maximized="0"
     inkscape:current-layer="svg4486" />
  <metadata
     id="metadata51">
    <rdf:RDF>
      <cc:Work
         rdf:about="">
        <dc:format>image/svg+xml</dc:format>
        <dc:type
           rdf:resource="http://purl.org/dc/dcmitype/StillImage" />
        <dc:title></dc:title>
      </cc:Work>
    </rdf:RDF>
  </metadata>
  <defs
     id="defs4488">
    <linearGradient
       id="linearGradient5060">
      <stop
         id="stop5062"
         offset="0" />
      <stop
         id="stop5064"
         style="stop-opacity:0"
         offset="1" />
    </linearGradient>
    <linearGradient
       id="linearGradient3312"
       y2="5.4565"
       gradientUnits="userSpaceOnUse"
       x2="36.358"
       gradientTransform="matrix(.99770 0 0 1.0407 .16380 -1.1058)"
       y1="8.059"
       x1="32.892">
      <stop
         id="stop8591"
         style="stop-color:#fefefe"
         offset="0" />
      <stop
         id="stop8593"
         style="stop-color:#cbcbcb"
         offset="1" />
    </linearGradient>
    <linearGradient
       id="linearGradient3316"
       y2="46.017"
       gradientUnits="userSpaceOnUse"
       x2="24"
       gradientTransform="matrix(1 0 0 .97778 0 -.96667)"
       y1="2"
       x1="24">
      <stop
         id="stop3213"
         style="stop-color:#fff"
         offset="0" />
      <stop
         id="stop3215"
         style="stop-color:#fff;stop-opacity:0"
         offset="1" />
    </linearGradient>
    <radialGradient
       id="radialGradient3319"
       gradientUnits="userSpaceOnUse"
       cy="112.3"
       cx="102"
       gradientTransform="matrix(.36170 0 0 -.39078 .85106 47.517)"
       r="139.56">
      <stop
         id="stop41"
         style="stop-color:#b7b8b9"
         offset="0" />
      <stop
         id="stop47"
         style="stop-color:#ececec"
         offset=".18851" />
      <stop
         id="stop49"
         style="stop-color:#fafafa;stop-opacity:0"
         offset=".25718" />
      <stop
         id="stop51"
         style="stop-color:#fff;stop-opacity:0"
         offset=".30111" />
      <stop
         id="stop53"
         style="stop-color:#fafafa;stop-opacity:0"
         offset=".53130" />
      <stop
         id="stop55"
         style="stop-color:#ebecec;stop-opacity:0"
         offset=".84490" />
      <stop
         id="stop57"
         style="stop-color:#e1e2e3;stop-opacity:0"
         offset="1" />
    </radialGradient>
    <linearGradient
       id="linearGradient3322"
       y2="47.013"
       gradientUnits="userSpaceOnUse"
       x2="25.132"
       gradientTransform="matrix(1 0 0 .95617 -1.0065e-7 -1.9149)"
       y1=".98521"
       x1="25.132">
      <stop
         id="stop3602"
         style="stop-color:#f4f4f4"
         offset="0" />
      <stop
         id="stop3604"
         style="stop-color:#dbdbdb"
         offset="1" />
    </linearGradient>
    <linearGradient
       id="linearGradient3324"
       y2="2.9062"
       gradientUnits="userSpaceOnUse"
       x2="-51.786"
       gradientTransform="matrix(.80750 0 0 .89483 59.41 -2.9806)"
       y1="50.786"
       x1="-51.786">
      <stop
         id="stop3106"
         style="stop-color:#aaa"
         offset="0" />
      <stop
         id="stop3108"
         style="stop-color:#c8c8c8"
         offset="1" />
    </linearGradient>
    <radialGradient
       id="radialGradient3327"
       xlink:href="#linearGradient5060"
       gradientUnits="userSpaceOnUse"
       cy="486.65"
       cx="605.71"
       gradientTransform="matrix(.023040 0 0 0.0147 26.361 37.04)"
       r="117.14" />
    <radialGradient
       id="radialGradient3330"
       xlink:href="#linearGradient5060"
       gradientUnits="userSpaceOnUse"
       cy="486.65"
       cx="605.71"
       gradientTransform="matrix(-.023040 0 0 0.0147 21.623 37.04)"
       r="117.14" />
    <linearGradient
       id="linearGradient3333"
       y2="609.51"
       gradientUnits="userSpaceOnUse"
       x2="302.86"
       gradientTransform="matrix(.067325 0 0 0.0147 -.34114 37.04)"
       y1="366.65"
       x1="302.86">
      <stop
         id="stop5050"
         style="stop-opacity:0"
         offset="0" />
      <stop
         id="stop5056"
         offset=".5" />
      <stop
         id="stop5052"
         style="stop-opacity:0"
         offset="1" />
    </linearGradient>
    <filter
       id="filter3212"
       height="1.3287"
       width="1.2969"
       y="-.16434"
       x="-.14846">
      <feGaussianBlur
         id="feGaussianBlur3214"
         stdDeviation="0.77391625" />
    </filter>
    <linearGradient
       id="linearGradient5530"
       y2="38.274"
       gradientUnits="userSpaceOnUse"
       x2="22.369"
       gradientTransform="matrix(.59882 0 0 .59520 23.605 23.219)"
       y1="8.0323"
       x1="22.369">
      <stop
         id="stop3945"
         style="stop-color:#fff"
         offset="0" />
      <stop
         id="stop3947"
         style="stop-color:#fff;stop-opacity:0"
         offset="1" />
    </linearGradient>
    <radialGradient
       id="radialGradient3144"
       gradientUnits="userSpaceOnUse"
       cx="69.448"
       cy="51.695"
       r="31"
       gradientTransform="matrix(0 .67924 -.73892 0 72.903 -17.49)">
      <stop
         id="stop3244-5"
         style="stop-color:#eef87e"
         offset="0" />
      <stop
         id="stop3246-9"
         style="stop-color:#cde34f"
         offset=".26238" />
      <stop
         id="stop3248-7"
         style="stop-color:#93b723"
         offset=".66094" />
      <stop
         id="stop3250-8"
         style="stop-color:#5a7e0d"
         offset="1" />
    </radialGradient>
    <linearGradient
       id="linearGradient3146"
       y2="52.809"
       gradientUnits="userSpaceOnUse"
       y1="123.19"
       gradientTransform="matrix(.28214 0 0 .28445 12.171 11.958)"
       x2="72.422"
       x1="72.422">
      <stop
         id="stop2492-3"
         style="stop-color:#365f0e"
         offset="0" />
      <stop
         id="stop2494-8"
         style="stop-color:#84a718"
         offset="1" />
    </linearGradient>
    <linearGradient
       gradientTransform="matrix(0.65898125,0,0,0.65898125,-3.2644485,-12.149063)"
       inkscape:collect="always"
       xlink:href="#ButtonShadow-0"
       id="linearGradient5495"
       x1="39.459717"
       y1="64.824661"
       x2="74.537392"
       y2="64.824661"
       gradientUnits="userSpaceOnUse" />
    <linearGradient
       x1="45.447727"
       y1="92.539597"
       x2="45.447727"
       y2="7.0165396"
       id="ButtonShadow-0"
       gradientUnits="userSpaceOnUse"
       gradientTransform="matrix(1.0058652,0,0,0.994169,100,0)">
      <stop
         id="stop3750-8"
         style="stop-color:#000000;stop-opacity:1"
         offset="0" />
      <stop
         id="stop3752-5"
         style="stop-color:#000000;stop-opacity:0.58823532"
         offset="1" />
    </linearGradient>
    <radialGradient
       id="radialGradient2436"
       gradientUnits="userSpaceOnUse"
       cy="4.625"
       cx="62.625"
       gradientTransform="matrix(2.1647,0,0,0.75294,-111.56,36.518)"
       r="10.625">
      <stop
         id="stop8840"
         offset="0" />
      <stop
         id="stop8842"
         style="stop-opacity:0"
         offset="1" />
    </radialGradient>
    <linearGradient
       id="linearGradient2515"
       y2="45.016998"
       gradientUnits="userSpaceOnUse"
       x2="20.759001"
       y1="1"
       x1="20.759001">
      <stop
         id="stop3311"
         style="stop-color:#f6f6f6"
         offset="0" />
      <stop
         id="stop3313"
         style="stop-color:#d2d2d2"
         offset="1" />
    </linearGradient>
    <linearGradient
       id="linearGradient2517"
       y2="45"
       gradientUnits="userSpaceOnUse"
       x2="37.201"
       y1="1"
       x1="37.201">
      <stop
         id="stop3399"
         style="stop-color:#aaa"
         offset="0" />
      <stop
         id="stop3401"
         style="stop-color:#8c8c8c"
         offset="1" />
    </linearGradient>
    <linearGradient
       id="linearGradient2512"
       y2="20.895"
       gradientUnits="userSpaceOnUse"
       x2="84.639"
       gradientTransform="matrix(0.32448,0,0,0.32448,3.2333,2.5577)"
       y1="105.1"
       x1="86.133003">
      <stop
         id="stop5130"
         style="stop-color:#e5e5e5"
         offset="0" />
      <stop
         id="stop5132"
         style="stop-color:#ababab"
         offset="1" />
    </linearGradient>
  </defs>
  <rect
     id="rect2879"
     style="opacity:.3;fill:url(#linearGradient3333)"
     height="3.5701"
     width="32.508"
     y="42.43"
     x="7.7378" />
  <path
     id="path2881"
     style="opacity:.3;fill:url(#radialGradient3330)"
     d="m7.7378 42.43v3.57c-1.1865 0.007-2.8683-0.8-2.8683-1.785 0-0.986 1.324-1.785 2.8683-1.785z" />
  <path
     id="path2883"
     style="opacity:.3;fill:url(#radialGradient3327)"
     d="m40.246 42.43v3.57c1.187 0.007 2.869-0.8 2.869-1.785 0-0.986-1.325-1.785-2.869-1.785z" />
  <path
     id="path4160"
     style="stroke-linejoin:round;stroke:url(#linearGradient3324);stroke-width:.99992;fill:url(#linearGradient3322)"
     d="m6.5 0.4972h24.061c1.407 0.47465 8.965 5.8822 10.939 9.6268v34.379h-35v-44.006z" />
  <path
     id="path4191"
     style="fill:url(#radialGradient3319)"
     d="m7.3617 44c-0.1993 0-0.3617-0.175-0.3617-0.391v-42.204c0-0.2155 0.1624-0.3906 0.3617-0.3906 7.4833 0.108 15.775-0.16158 23.249 0.0269l10.283 8.866 0.106 33.702c0 0.216-0.162 0.391-0.362 0.391h-33.276z" />
  <path
     id="path2435"
     style="opacity:.6;stroke-linejoin:round;stroke:url(#linearGradient3316);stroke-width:.99992;fill:none"
     d="m40.5 10.259v33.263h-33v-42.044c7.562-0.0003 15.304-0.0003 22.866-0.0003" />
  <path
     id="path12038"
     style="opacity:.4;fill-rule:evenodd;filter:url(#filter3212)"
     d="m28.617 0.92126c4.283 0 2.154 8.4831 2.154 8.4831s10.357-1.8023 10.357 2.8186c0-2.6095-11.302-10.728-12.511-11.302z" />
  <path
     id="path4474"
     style="fill:url(#linearGradient3312);fill-rule:evenodd"
     d="m28.617 0.92126c3.187 0 2.336 7.6618 2.336 7.6618s10.175-0.981 10.175 3.6399c0-1.126 0.086-1.932-0.134-2.2834-1.578-2.5242-8.395-8.1884-10.857-8.9308-0.184-0.05556-0.593-0.08754-1.52-0.08754z" />
  <g
     id="g6389"
     transform="matrix(2.3115485,0,0,2.3115485,22.738808,-80.384437)" />
  <path
     inkscape:connector-curvature="0"
     id="path9053"
     style="fill:#ffffff"
     d="m 35.611821,34.684449 c -0.09547,-2.935898 0.667992,-5.786038 3.887563,-7.804944 3.40075,-2.283208 6.675752,-5.139728 6.329713,-8.507192 -0.07558,-3.247495 -4.467529,-5.792047 -9.199269,-6.157965 -5.322573,-0.635259 -11.763009,0.935669 -13.5466,4.516765 -0.904578,1.741753 -0.06574,4.866734 2.970109,4.866734 1.775639,0 2.591246,-0.988186 2.725086,-1.892164 0.101363,-0.683965 -0.224569,-1.294743 -0.417051,-1.85971 -0.21932,-0.643743 0.71695,-1.891378 1.736666,-2.399618 0.852106,-0.42477 1.743602,-0.567207 1.875013,-0.594414 3.060028,-0.633597 6.110579,0.765931 7.383316,2.469426 1.272716,1.703403 -0.128151,4.287229 -2.142297,6.799652 -2.014144,2.512653 -4.175581,5.366259 -4.167027,8.397625 0,1.153971 -0.119346,1.54601 -0.03456,2.012872 0.06775,0.373016 1.501398,0.32794 2.599337,0.152978 z m -1.396545,3.951592 c -2.925958,-0.136844 -4.951106,2.720923 -3.193405,4.54173 1.569773,2.010285 5.970962,1.514041 6.725452,-0.762418 0.784285,-1.770231 -1.103094,-3.808738 -3.532047,-3.779151 l -2e-6,3e-6 z" />
  <path
     inkscape:connector-curvature="0"
     id="path3298"
     style="fill:url(#linearGradient5495);fill-opacity:1"
     d="m 35.611821,36.995997 c -0.09547,-2.935897 0.667992,-5.786037 3.887563,-7.804944 3.40075,-2.283208 6.675752,-5.139728 6.329713,-8.50696 -0.07556,-3.247494 -4.467299,-5.792046 -9.199269,-6.157966 -5.322573,-0.63526 -11.763009,0.935669 -13.5466,4.516767 -0.904578,1.741774 -0.06574,4.866733 2.970109,4.866733 1.775639,0 2.591246,-0.988187 2.725086,-1.892164 0.101363,-0.683964 -0.224569,-1.294744 -0.417051,-1.859709 -0.21932,-0.643744 0.71695,-1.89138 1.736666,-2.399619 0.852106,-0.424771 1.743602,-0.567208 1.875013,-0.594415 3.060028,-0.633596 6.110579,0.765932 7.383316,2.469428 1.272716,1.703403 -0.128151,4.287229 -2.142297,6.79965 -2.014144,2.512653 -4.175581,5.366261 -4.167027,8.397624 0,1.153972 -0.119346,1.546011 -0.03456,2.012875 0.06775,0.373014 1.501398,0.327938 2.599337,0.152978 z m -1.396545,3.951592 c -2.925958,-0.136844 -4.951106,2.720923 -3.193405,4.54173 1.569773,2.010286 5.970962,1.514041 6.725452,-0.762416 0.784285,-1.770231 -1.103094,-3.80874 -3.532047,-3.779153 l -2e-6,3e-6 z" />
  <g
     transform="matrix(0.49742342,0,0,0.49742342,-0.07606198,24.002575)"
     id="layer1">
    <path
       inkscape:connector-curvature="0"
       id="path8836"
       style="opacity:0.3;fill:url(#radialGradient2436);fill-rule:evenodd"
       d="m 47,40 c 0,4.4183 -10.297,8 -23,8 -12.703,0 -23,-3.5817 -23,-8 0,-4.4183 10.297,-8 23,-8 12.703,0 23,3.5817 23,8 z" />
    <path
       inkscape:connector-curvature="0"
       id="rect3267"
       style="fill:url(#linearGradient2515);stroke:url(#linearGradient2517);stroke-linejoin:round;display:block"
       d="M 21.031,1.5 C 20.185,1.5 19.5,2.2019 19.5,3.0625 V 6.0937 C 17.987,6.4969 16.541,7.1057 15.219,7.875 L 13.062,5.7188 C 12.758,5.4145 12.394,5.2533 12,5.25 11.606,5.2467 11.205,5.3883 10.906,5.6875 L 6.6875,9.9062 C 6.0892,10.505 6.1102,11.454 6.7188,12.062 L 8.875,14.219 C 8.1057,15.541 7.4969,16.987 7.0938,18.5 H 4.0626 C 3.2019,18.5 2.5,19.185 2.5,20.031 v 5.9375 c 0,0.847 0.7019,1.532 1.5625,1.532 h 3.0312 c 0.40311,1.5129 1.012,2.9586 1.7812,4.2812 l -2.1561,2.157 c -0.6086,0.608 -0.6296,1.557 -0.0313,2.156 l 4.2188,4.2188 c 0.5983,0.5983 1.5477,0.57728 2.1562,-0.03125 l 2.157,-2.157 c 1.3227,0.76926 2.7683,1.3781 4.2812,1.7812 v 3.0312 c 0,0.86059 0.68512,1.5625 1.5312,1.5625 h 5.9375 c 0.847,0 1.532,-0.702 1.532,-1.562 v -3.0312 c 1.5129,-0.40311 2.9586,-1.012 4.2812,-1.7812 l 2.1562,2.1562 c 0.60853,0.60853 1.5579,0.62956 2.1562,0.03125 l 4.2188,-4.2188 c 0.5983,-0.5983 0.57728,-1.5477 -0.03125,-2.1562 l -2.156,-2.157 c 0.769,-1.322 1.378,-2.768 1.781,-4.281 h 3.0312 c 0.86059,0 1.5625,-0.68512 1.5625,-1.5312 v -5.9375 c 0,-0.847 -0.702,-1.532 -1.562,-1.532 h -3.0312 c -0.404,-1.513 -1.013,-2.959 -1.782,-4.281 l 2.1562,-2.1562 c 0.60853,-0.60853 0.62956,-1.5579 0.03125,-2.1562 l -4.218,-4.2193 c -0.599,-0.5983 -1.548,-0.5773 -2.156,0.0313 l -2.157,2.1562 C 31.4605,7.105 30.0145,6.4962 28.5015,6.0931 V 3.0619 c 0,-0.8607 -0.685,-1.5626 -1.531,-1.5626 H 21.033 z M 24,16.5 c 3.588,0 6.5,2.912 6.5,6.5 0,3.588 -2.912,6.5 -6.5,6.5 -3.588,0 -6.5,-2.912 -6.5,-6.5 0,-3.588 2.912,-6.5 6.5,-6.5 z" />
    <path
       inkscape:connector-curvature="0"
       id="path28"
       style="fill:none;stroke:url(#linearGradient2512)"
       d="m 24,9.5 c -7.4439,0 -13.5,6.0561 -13.5,13.5 0,7.4439 6.0561,13.5 13.5,13.5 7.4439,0 13.5,-6.0561 13.5,-13.5 C 37.5,15.556 31.444,9.5 24,9.5 z" />
    <path
       inkscape:connector-curvature="0"
       id="path3315"
       style="opacity:0.05"
       d="m 24,10 c -7.1683,-5e-7 -13,5.8317 -13,13 0,7.1683 5.8317,13 13,13 7.1683,-10e-7 13,-5.8317 13,-13 0,-7.1683 -5.8317,-13 -13,-13 z m 0,6 c 3.864,0 7,3.136 7,7 0,3.864 -3.136,7 -7,7 -3.864,0 -7,-3.136 -7,-7 0,-3.864 3.136,-7 7,-7 z" />
  </g>
</svg>
