<?xml version="1.0" encoding="UTF-8" standalone="no"?>
<!-- Created with Inkscape (http://www.inkscape.org/) -->

<svg
   xmlns:dc="http://purl.org/dc/elements/1.1/"
   xmlns:cc="http://creativecommons.org/ns#"
   xmlns:rdf="http://www.w3.org/1999/02/22-rdf-syntax-ns#"
   xmlns:svg="http://www.w3.org/2000/svg"
   xmlns="http://www.w3.org/2000/svg"
   xmlns:xlink="http://www.w3.org/1999/xlink"
   xmlns:sodipodi="http://sodipodi.sourceforge.net/DTD/sodipodi-0.dtd"
   xmlns:inkscape="http://www.inkscape.org/namespaces/inkscape"
   inkscape:export-ydpi="90.000000"
   inkscape:export-xdpi="90.000000"
   inkscape:export-filename="/home/jimmac/Desktop/wi-fi.png"
   width="48"
   height="48"
   id="svg11300"
   sodipodi:version="0.32"
   inkscape:version="0.48.1 r9760"
   sodipodi:docname="plugin-elements.svg"
   inkscape:output_extension="org.inkscape.output.svg.inkscape"
   version="1.0">
  <defs
     id="defs3">
    <linearGradient
       inkscape:collect="always"
       id="linearGradient3811">
      <stop
         style="stop-color:#959292;stop-opacity:1;"
         offset="0"
         id="stop3813" />
      <stop
         style="stop-color:#959292;stop-opacity:0;"
         offset="1"
         id="stop3815" />
    </linearGradient>
    <linearGradient
       inkscape:collect="always"
       id="linearGradient4251">
      <stop
         style="stop-color:#ffffff;stop-opacity:1;"
         offset="0"
         id="stop4253" />
      <stop
         style="stop-color:#ffffff;stop-opacity:0;"
         offset="1"
         id="stop4255" />
    </linearGradient>
    <radialGradient
       cx="244.16666"
       cy="240.42361"
       fx="244.16666"
       fy="240.42361"
       id="radialGradient592"
       r="289.15918"
       xlink:href="#linearGradient588"
       gradientTransform="scale(1.1068056,0.90350104)"
       gradientUnits="userSpaceOnUse" />
    <linearGradient
       id="linearGradient588">
      <stop
         id="stop589"
         offset="0"
         style="stop-color: rgb(191, 103, 15); stop-opacity: 0.9804;" />
      <stop
         id="stop590"
         offset="1"
         style="stop-color: rgb(199, 226, 15); stop-opacity: 1;" />
    </linearGradient>
    <linearGradient
       id="linearGradient5254">
      <stop
         style="stop-color: rgb(255, 26, 26); stop-opacity: 1;"
         offset="0"
         id="stop5256" />
      <stop
         style="stop-color: rgb(141, 0, 0); stop-opacity: 1;"
         offset="1"
         id="stop5258" />
    </linearGradient>
    <linearGradient
       id="linearGradient5264">
      <stop
         id="stop5266"
         offset="0"
         style="stop-color: rgb(255, 119, 119); stop-opacity: 1;" />
      <stop
         id="stop5268"
         offset="1"
         style="stop-color: rgb(255, 8, 8); stop-opacity: 1;" />
    </linearGradient>
    <radialGradient
       inkscape:collect="always"
       xlink:href="#linearGradient5264"
       id="radialGradient7350"
       gradientUnits="userSpaceOnUse"
       gradientTransform="matrix(-0.33045,-3.31071,3.94652,-0.393912,-135.737,245.108)"
       cx="56.40527"
       cy="49.697388"
       fx="56.40527"
       fy="49.697388"
       r="13.828125" />
    <radialGradient
       inkscape:collect="always"
       xlink:href="#linearGradient5264"
       id="radialGradient3474"
       gradientUnits="userSpaceOnUse"
       gradientTransform="matrix(0.1847381,0.28765602,-0.38502531,0.24727223,33.854288,-4.1650757)"
       cx="56.39016"
       cy="50.901066"
       fx="56.39016"
       fy="50.901066"
       r="22.515625" />
    <radialGradient
       inkscape:collect="always"
       xlink:href="#linearGradient5254"
       id="radialGradient3477"
       gradientUnits="userSpaceOnUse"
       gradientTransform="matrix(0.22934469,-0.26044345,0.248661,0.21896669,-4.092504,24.13724)"
       cx="46.652752"
       cy="77.982826"
       fx="46.652752"
       fy="77.982826"
       r="40.027294" />
    <radialGradient
       inkscape:collect="always"
       xlink:href="#linearGradient4251"
       id="radialGradient4257"
       cx="21.998898"
       cy="22.627432"
       fx="21.998898"
       fy="22.627432"
       r="2.1822281"
       gradientTransform="matrix(1.8647026,1.9620171e-7,-2.8950812e-7,2.7514877,-19.022499,-39.631673)"
       gradientUnits="userSpaceOnUse" />
    <linearGradient
       id="linearGradient4113">
      <stop
         style="stop-color: rgb(205, 242, 255); stop-opacity: 1;"
         offset="0"
         id="stop4115" />
      <stop
         style="stop-color: rgb(234, 255, 255); stop-opacity: 1;"
         offset="1"
         id="stop4117" />
    </linearGradient>
    <linearGradient
       id="linearGradient1545">
      <stop
         id="stop1546"
         offset="0.0000000"
         style="stop-color: rgb(255, 255, 255); stop-opacity: 1;" />
      <stop
         id="stop1547"
         offset="1.0000000"
         style="stop-color: rgb(255, 255, 255); stop-opacity: 0;" />
    </linearGradient>
    <radialGradient
       inkscape:collect="always"
       xlink:href="#linearGradient4113"
       id="radialGradient4602"
       gradientUnits="userSpaceOnUse"
       gradientTransform="matrix(0.01623924,-0.07151578,0.06634235,0.01506453,-13.524006,42.394457)"
       cx="386.99893"
       cy="315.25943"
       fx="386.99893"
       fy="315.25943"
       r="164.9557" />
    <radialGradient
       inkscape:collect="always"
       xlink:href="#linearGradient1545"
       id="radialGradient4606"
       gradientUnits="userSpaceOnUse"
       gradientTransform="scale(1.2876969,0.77658027)"
       spreadMethod="reflect"
       cx="245.4164"
       cy="397.94611"
       fx="245.4164"
       fy="397.94611"
       r="184.67943" />
    <radialGradient
       inkscape:collect="always"
       xlink:href="#linearGradient1545"
       id="radialGradient4608"
       gradientUnits="userSpaceOnUse"
       gradientTransform="matrix(0.86464245,0,0,0.55506494,117.875,53.284)"
       spreadMethod="reflect"
       cx="245.41574"
       cy="397.96106"
       fx="245.41574"
       fy="397.96106"
       r="184.67136" />
    <radialGradient
       inkscape:collect="always"
       xlink:href="#linearGradient4251"
       id="radialGradient3787"
       gradientUnits="userSpaceOnUse"
       gradientTransform="matrix(3.2931053,3.4649648e-7,-5.1127762e-7,4.859187,-41.246286,-93.093673)"
       cx="21.998898"
       cy="22.627432"
       fx="21.998898"
       fy="22.627432"
       r="2.1822281" />
    <radialGradient
       inkscape:collect="always"
       xlink:href="#linearGradient5264"
       id="radialGradient3790"
       gradientUnits="userSpaceOnUse"
       gradientTransform="matrix(0.32625149,0.50800677,-0.67996305,0.43668812,52.135268,-30.458892)"
       cx="56.39016"
       cy="50.901066"
       fx="56.39016"
       fy="50.901066"
       r="22.515625" />
    <radialGradient
       inkscape:collect="always"
       xlink:href="#linearGradient5254"
       id="radialGradient3793"
       gradientUnits="userSpaceOnUse"
       gradientTransform="matrix(0.4050277,-0.45994878,0.43914072,0.38669993,-14.87959,19.523612)"
       cx="46.652752"
       cy="77.982826"
       fx="46.652752"
       fy="77.982826"
       r="40.027294" />
    <linearGradient
       inkscape:collect="always"
       xlink:href="#linearGradient3811"
       id="linearGradient3817"
       x1="25.649969"
       y1="19.876604"
       x2="47.412566"
       y2="19.876604"
       gradientUnits="userSpaceOnUse"
       gradientTransform="translate(-0.58393335,1.31385)" />
    <linearGradient
       inkscape:collect="always"
       xlink:href="#linearGradient3753"
       id="linearGradient3759"
       x1="66.919823"
       y1="80.656708"
       x2="128.21519"
       y2="149.63449"
       gradientUnits="userSpaceOnUse"
       gradientTransform="matrix(0.10324739,0,0,0.10324739,0.44148645,-16.535493)" />
    <linearGradient
       inkscape:collect="always"
       id="linearGradient3753">
      <stop
         style="stop-color:#ff8400;stop-opacity:1;"
         offset="0"
         id="stop3755" />
      <stop
         style="stop-color:#ff8400;stop-opacity:0;"
         offset="1"
         id="stop3757" />
    </linearGradient>
    <linearGradient
       gradientTransform="matrix(0.54575342,0,0,0.54575342,0.43858045,-16.906349)"
       inkscape:collect="always"
       xlink:href="#linearGradient3738"
       id="linearGradient3744"
       x1="0.57456172"
       y1="24.0776"
       x2="47.948441"
       y2="24.0776"
       gradientUnits="userSpaceOnUse" />
    <linearGradient
       inkscape:collect="always"
       id="linearGradient3738">
      <stop
         style="stop-color:#d79d38;stop-opacity:1;"
         offset="0"
         id="stop3740" />
      <stop
         style="stop-color:#d79d38;stop-opacity:0;"
         offset="1"
         id="stop3742" />
    </linearGradient>
    <radialGradient
       id="radialGradient3627"
       gradientUnits="userSpaceOnUse"
       cy="25.625"
       cx="13.139"
       gradientTransform="matrix(0,2.6541,-3.1628,0,97.183,-26.676)"
       r="13.931">
      <stop
         id="stop3692"
         style="stop-color:#ffeb9f"
         offset="0" />
      <stop
         id="stop3694"
         style="stop-color:#ffd57e"
         offset=".26238" />
      <stop
         id="stop3696"
         style="stop-color:#ffbc43"
         offset=".66094" />
      <stop
         id="stop3698"
         style="stop-color:#ff921a"
         offset="1" />
    </radialGradient>
    <linearGradient
       id="linearGradient3629"
       y2="9.5799999"
       gradientUnits="userSpaceOnUse"
       x2="21.483"
       gradientTransform="matrix(1.6509,0,0,1.6568,-11.466,-15.046)"
       y1="36.255001"
       x1="21.483">
      <stop
         id="stop3605"
         style="stop-color:#a7651c"
         offset="0" />
      <stop
         id="stop3607"
         style="stop-color:#c8a700"
         offset="1" />
    </linearGradient>
    <linearGradient
       gradientTransform="matrix(0.46323445,0,0,0.46323445,25.315155,-14.144171)"
       id="linearGradient3648"
       y2="43.444"
       gradientUnits="userSpaceOnUse"
       x2="29.646999"
       y1="2"
       x1="29.646999">
      <stop
         id="stop3644"
         style="stop-color:#fff"
         offset="0" />
      <stop
         id="stop3646"
         style="stop-color:#fff;stop-opacity:0"
         offset="1" />
    </linearGradient>
    <linearGradient
       id="linearGradient3619"
       y2="33.955002"
       gradientUnits="userSpaceOnUse"
       x2="15.215"
       gradientTransform="matrix(0.46323445,0,0,0.46323445,26.695548,-15.590249)"
       y1="22.292"
       x1="11.566">
      <stop
         id="stop2687"
         style="stop-color:#fff;stop-opacity:.27451"
         offset="0" />
      <stop
         id="stop2689"
         style="stop-color:#fff;stop-opacity:0"
         offset="1" />
    </linearGradient>
    <radialGradient
       r="13.931"
       cy="25.625"
       cx="13.139"
       gradientTransform="matrix(0,1.2294705,-1.4651179,0,70.333667,-26.501413)"
       gradientUnits="userSpaceOnUse"
       id="radialGradient3385"
       xlink:href="#radialGradient3627"
       inkscape:collect="always" />
    <linearGradient
       y2="9.5799999"
       x2="21.483"
       y1="36.255001"
       x1="21.483"
       gradientTransform="matrix(0.76475375,0,0,0.76748684,20.003709,-21.113996)"
       gradientUnits="userSpaceOnUse"
       id="linearGradient3387"
       xlink:href="#linearGradient3629"
       inkscape:collect="always" />
  </defs>
  <sodipodi:namedview
     stroke="#ef2929"
     fill="#eeeeec"
     id="base"
     pagecolor="#ffffff"
     bordercolor="#666666"
     borderopacity="0.25490196"
     inkscape:pageopacity="0.0"
     inkscape:pageshadow="2"
     inkscape:zoom="6.8500969"
     inkscape:cx="24"
     inkscape:cy="25.824792"
     inkscape:current-layer="layer1"
     showgrid="false"
     inkscape:grid-bbox="true"
     inkscape:document-units="px"
     inkscape:showpageshadow="false"
     inkscape:window-width="1052"
     inkscape:window-height="662"
     inkscape:window-x="171"
     inkscape:window-y="87"
     inkscape:window-maximized="0">
    <inkscape:grid
       type="xygrid"
       id="grid7916"
       empspacing="5"
       visible="true"
       enabled="true"
       snapvisiblegridlinesonly="true" />
  </sodipodi:namedview>
  <metadata
     id="metadata4">
    <rdf:RDF>
      <cc:Work
         rdf:about="">
        <dc:format>image/svg+xml</dc:format>
        <dc:type
           rdf:resource="http://purl.org/dc/dcmitype/StillImage" />
        <dc:creator>
          <cc:Agent>
            <dc:title>Jakub Steiner</dc:title>
          </cc:Agent>
        </dc:creator>
        <dc:source>http://jimmac.musichall.cz</dc:source>
        <cc:license
           rdf:resource="http://creativecommons.org/licenses/by-sa/2.0/" />
        <dc:title />
        <dc:subject>
          <rdf:Bag>
            <rdf:li>window</rdf:li>
            <rdf:li>manager</rdf:li>
            <rdf:li>decoration</rdf:li>
            <rdf:li>behavior</rdf:li>
          </rdf:Bag>
        </dc:subject>
      </cc:Work>
      <cc:License
         rdf:about="http://creativecommons.org/licenses/by-sa/2.0/">
        <cc:permits
           rdf:resource="http://web.resource.org/cc/Reproduction" />
        <cc:permits
           rdf:resource="http://web.resource.org/cc/Distribution" />
        <cc:requires
           rdf:resource="http://web.resource.org/cc/Notice" />
        <cc:requires
           rdf:resource="http://web.resource.org/cc/Attribution" />
        <cc:permits
           rdf:resource="http://web.resource.org/cc/DerivativeWorks" />
        <cc:requires
           rdf:resource="http://web.resource.org/cc/ShareAlike" />
      </cc:License>
    </rdf:RDF>
  </metadata>
  <g
     id="layer1"
     inkscape:label="Layer 1"
     inkscape:groupmode="layer"
     transform="translate(0,16)">
    <path
       d="m 34.46875,-10 -1.15625,5.34375 -5.03125,1.1875 4.375,2.1875 4.1875,-0.1875 3.40625,-1.46875 1.46875,-3.65625 -3.75,0.78125 -3.5,-4.1875 z"
       id="path1548"
       inkscape:original="M 34.46875 -10 L 33.3125 -4.65625 L 28.28125 -3.46875 L 32.65625 -1.28125 L 36.84375 -1.46875 L 40.25 -2.9375 L 41.71875 -6.59375 L 37.96875 -5.8125 L 34.46875 -10 z "
       inkscape:radius="0"
       sodipodi:type="inkscape:offset"
       style="fill:url(#radialGradient4606);fill-opacity:1;fill-rule:evenodd;stroke:none"
       transform="matrix(0.671459,0,0,0.714761,102.29107,104.59785)"
       xlink:href="#path1540" />
    <path
       inkscape:connector-curvature="0"
       inkscape:export-ydpi="90"
       inkscape:export-xdpi="90"
       style="fill:url(#radialGradient3793);fill-opacity:1;stroke:url(#linearGradient3817);stroke-width:1;stroke-miterlimit:4;stroke-opacity:1;stroke-dasharray:none"
       d="m 46.328633,21.190454 c 0,5.322558 -4.650822,9.642312 -10.381299,9.642312 -5.730476,0 -10.381298,-4.319754 -10.381298,-9.642312 0,-5.322557 4.650822,-9.642313 10.381298,-9.642313 5.730477,0 10.381299,4.319756 10.381299,9.642313 z"
       id="path2160" />
    <path
       inkscape:connector-curvature="0"
       style="fill:url(#radialGradient3790);fill-opacity:1;stroke:none"
       d="m 41.452129,14.492682 c 1.563449,1.632526 2.516986,3.762213 2.516986,6.096505 10e-7,5.128294 -4.573938,9.292817 -10.207292,9.292817 -0.352084,0 -0.702179,-0.01183 -1.045114,-0.04355 0.635563,0.09854 1.289618,0.148064 1.959591,0.148064 5.847031,0 10.5905,-3.924637 10.5905,-8.76155 0,-2.706727 -1.481147,-5.124525 -3.814671,-6.732283 z"
       id="path2162" />
    <path
       inkscape:connector-curvature="0"
       style="fill:url(#radialGradient3787);fill-opacity:1;stroke:none"
       d="m 28.781563,15.955843 c 0.668556,-0.110429 1.344665,-0.128743 2.020556,-0.121926 0.537856,-0.897911 1.227223,-1.69777 2.037975,-2.360219 -2.118858,0.149052 -3.013228,1.252348 -4.058531,2.482149 z m 4.763983,-2.403764 c -0.792543,0.659753 -1.478616,1.446296 -2.020555,2.325381 0.578199,0.06036 1.146646,0.184239 1.698312,0.357081 0.347571,-0.965097 1.103307,-1.944515 1.828951,-2.595368 -0.709072,-0.166642 -0.939012,-0.192059 -1.506708,-0.0871 z m -5.244237,3.247322 c -0.474701,1.081461 -0.892699,2.067077 -0.956779,3.441415 0.710453,-0.139798 1.325125,-0.318232 2.087743,-0.424267 0.188998,-1.14879 0.461274,-2.144641 0.908254,-3.120416 -0.753008,-8.63e-4 -1.301454,-0.03912 -2.039218,0.103277 z m 2.779508,-0.09455 c -0.46256,0.952027 -0.773609,1.986939 -0.888348,3.083084 0.991812,-0.127736 1.665315,-0.179518 2.663799,-0.227686 -0.04021,-1.033096 0.02257,-1.678332 0.149299,-2.51574 -0.61338,-0.19454 -1.26288,-0.300902 -1.924753,-0.339663 z"
       id="path2167"
       sodipodi:nodetypes="ccccccccccccccccccc" />
    <path
       id="path1481"
       style="fill:url(#radialGradient4602);fill-opacity:1;stroke:#eadbdb;stroke-width:1;stroke-miterlimit:4;stroke-opacity:1;stroke-dasharray:none"
       d="m 23.556232,22.851033 c -0.94855,0.263248 -0.95028,0.262688 -1.44082,-0.4647 l -0.49113,-0.728268 0.82885,-0.29427 c 0.86405,-0.306769 1.39574,-0.07163 1.84626,0.816496 0.16614,0.327539 0.0208,0.458726 -0.74316,0.670742 z m 0.0806,-5.13413 c -1.34069,0.713225 -1.80683,0.837215 -2.39612,0.637366 -1.06033,-0.359596 -1.09584,-0.46297 -0.44298,-1.289963 0.52141,-0.6605 0.75611,-0.742073 2.0157,-0.700537 0.78407,0.02586 1.68531,0.05045 2.00277,0.05465 0.91366,0.01204 0.60973,0.346726 -1.17937,1.298482 z m -1.82914,10.25527 c -0.11624,-0.02641 -0.90968,-0.474783 -1.76307,-0.996383 -1.41398,-0.864257 -1.5611,-1.034567 -1.65896,-1.920517 l -0.10744,-0.972158 1.02707,0.233341 c 0.92265,0.20962 1.10126,0.374451 1.75668,1.621077 0.8643,1.643979 1.03123,2.099488 0.74564,2.03464 z m 0.10745,-7.140941 -0.81713,0.754139 0.29326,1.155905 c 0.23723,0.935085 0.22162,1.181376 -0.0817,1.289224 -0.20623,0.07333 -0.45953,0.115887 -0.5629,0.09458 -0.17068,-0.03517 -0.76405,-1.535221 -0.81929,-2.071081 -0.0123,-0.121938 -0.69104,-0.412005 -1.50773,-0.644582 -0.81671,-0.232571 -1.70308,-0.612169 -1.96973,-0.843539 -0.4744,-0.411646 -0.47294,-0.426046 0.0685,-0.670208 0.41531,-0.187292 0.94922,-0.122109 2.14076,0.261372 l 1.58745,0.510901 0.86884,-0.830621 c 0.93309,-0.892026 1.12797,-0.942447 1.48037,-0.382999 0.29349,0.465958 0.28275,0.487715 -0.68072,1.376908 z m -1.2619,-1.271608 c -0.10853,0.06834 -0.75547,-0.07339 -1.43774,-0.314944 -0.80803,-0.286084 -1.32136,-0.356925 -1.47247,-0.203208 -0.28738,0.292333 -1.692,6.59e-4 -1.61566,-0.335512 0.0861,-0.37905 1.21262,-1.011155 1.63227,-0.915864 0.2128,0.04832 0.69188,-0.349906 1.10481,-0.91834 0.66196,-0.911247 0.77052,-0.967685 1.17923,-0.613055 0.30546,0.26505 0.36611,0.5099 0.18867,0.761771 -0.53899,0.765109 -0.49999,1.088439 0.15918,1.320016 0.62545,0.219729 0.77112,0.898267 0.26171,1.219136 z m -1.46089,4.312354 c -0.23915,0.03447 -0.6433,0.01528 -0.89812,-0.04253 -0.39711,-0.09017 -0.44947,-0.0071 -0.3665,0.581628 0.11347,0.805189 -0.11207,1.110819 -0.71824,0.973173 -0.29774,-0.0676 -0.459,-0.434703 -0.50801,-1.156402 -0.0449,-0.661911 -0.26345,-1.203288 -0.58422,-1.447548 -0.28183,-0.214605 -0.57255,-0.680542 -0.64605,-1.035419 -0.12165,-0.587153 -0.0783,-0.632661 0.48142,-0.505566 0.33829,0.07682 0.84249,0.375379 1.12044,0.663467 0.32266,0.334453 0.89148,0.579882 1.57356,0.678944 0.93122,0.135246 1.0626,0.223922 1.0244,0.691368 -0.0259,0.316281 -0.22221,0.561934 -0.47868,0.598892 z m 0.99003,-8.206523 -1.16841,-0.433371 -1.11713,1.150317 c -0.94036,0.968312 -1.92397,1.516571 -2.49014,1.388006 -0.17874,-0.04058 0.52749,-1.521387 0.77504,-1.625124 0.10945,-0.04589 0.58096,-0.443698 1.04766,-0.884013 l 0.84855,-0.800577 -0.22482,-1.223863 c -0.17837,-0.970985 -0.15036,-1.250353 0.13538,-1.3521 0.67166,-0.239184 0.89899,-0.01621 1.05964,1.039651 0.15067,0.989819 0.23329,1.080435 1.37039,1.50218 1.08976,0.404193 1.19629,0.50966 1.07121,1.060544 -0.13431,0.591309 -0.17789,0.597257 -1.30734,0.17835 z m 0.80969,-2.065279 c -1.14578,0.237316 -1.4022,0.05557 -1.1969,-0.848661 0.15665,-0.689812 0.32213,-0.849696 0.99941,-0.965552 0.94042,-0.160856 0.93656,-0.164638 0.89936,0.88006 -0.0239,0.673233 -0.13122,0.81595 -0.70187,0.934153 z m -4.19664,13.598646 c -1.16108,-0.430643 -1.16783,-0.42925 -2.06022,0.42388 -0.97858,0.93552 -1.15549,0.978708 -1.46992,0.358859 -0.16643,-0.32807 -0.033,-0.59116 0.64092,-1.263744 l 0.8511,-0.849422 -0.28637,-1.228772 c -0.15751,-0.675823 -0.37454,-1.248791 -0.48231,-1.27326 -0.10775,-0.02447 -0.10837,-0.429871 -0.001,-0.900891 0.10698,-0.471019 0.27649,-0.835199 0.37674,-0.809289 0.45041,0.116412 1.0166,1.237099 1.28158,2.536689 0.23947,1.174449 0.39648,1.441462 0.9191,1.563052 1.22183,0.284251 1.6713,0.661258 1.53005,1.283344 -0.12875,0.566971 -0.18284,0.573617 -1.29923,0.159554 z m 0.0497,2.155201 c -0.28258,0.854402 -0.42447,0.883141 -1.25134,0.253483 -0.39118,-0.297873 -0.51448,-0.61525 -0.41113,-1.058239 0.24663,-1.05715 0.55452,-1.188411 1.27765,-0.544655 0.53962,0.480396 0.60101,0.695691 0.38482,1.349411 z M 16.562322,14.42088 c -0.49727,0.377039 -0.96906,0.971443 -1.04841,1.320892 -0.0793,0.349446 -0.35587,0.81207 -0.61451,1.028043 -0.407,0.339884 -0.49203,0.335836 -0.63246,-0.03012 -0.0892,-0.232539 -0.0772,-0.808728 0.0269,-1.280417 0.10405,-0.471684 0.0454,-1.237617 -0.13029,-1.702061 -0.39226,-1.036857 -0.33093,-1.385043 0.2589,-1.470056 0.30149,-0.04338 0.5539,0.155144 0.74948,0.589625 l 0.29489,0.655124 0.71188,-0.417962 c 0.6772,-0.397601 0.72588,-0.392646 0.99986,0.101731 0.2652,0.478507 0.21639,0.573971 -0.61613,1.205214 z m -1.82022,6.221929 c -0.3581,0.325941 -0.75522,0.407439 -1.3392,0.274833 -0.67005,-0.152149 -0.88719,-0.358841 -1.12586,-1.071689 -0.3004,-0.89716 -0.21571,-1.114764 0.75637,-1.943224 0.65064,-0.554511 2.04164,0.07433 2.23558,1.010656 0.18202,0.878798 0.0954,1.162983 -0.52689,1.729424 z m 1.602,-8.050159 c -0.64212,0.377008 -0.78199,0.381562 -0.91596,0.02979 -0.48378,-1.270205 -0.46469,-1.407534 0.39112,-2.8128458 1.15617,-1.898485 1.46183,-2.186189 1.46333,-1.37734 0.006,3.5929658 0.003,3.6073078 -0.93849,4.1603458 z m -3.17271,13.855411 c -0.28273,0.04074 -0.55855,-0.176511 -0.7703,-0.606737 l -0.32986,-0.670201 -0.67773,0.39791 c -0.60279,0.353917 -0.72138,0.347384 -1.07259,-0.05912 -0.3825203,-0.442738 -0.3641303,-0.477166 0.58746,-1.100452 0.66546,-0.435857 1.0363,-0.881096 1.14964,-1.380223 0.092,-0.405253 0.36477,-0.908658 0.60612,-1.118682 0.42492,-0.369794 0.44383,-0.363522 0.5982,0.198394 0.0877,0.31914 0.079,0.945905 -0.0193,1.392811 -0.0983,0.446904 -0.0259,1.136713 0.16079,1.532918 0.41786,0.886367 0.34488,1.330199 -0.23236,1.413383 z m -1.66121,2.891608 c -0.53543,0.855214 -1.0278,1.58914 -1.09416,1.630937 -0.23565,0.148445 -0.0996,-3.813923 0.14542,-4.231299 0.13693,-0.233477 0.49675,-0.563786 0.79948,-0.73402 0.52196,-0.293527 0.56853,-0.26604 0.90179,0.532186 0.42064,1.007525 0.45782,0.868995 -0.7525,2.802196 z m 1.76475,-12.310623 c -0.53774,-0.122109 -0.99355,-0.963701 -1.27229,-2.349068 l -0.32512,-1.615891 -1.19001,-0.270212 C 9.3812822,12.54268 9.3072722,12.480576 9.4363917,11.911931 c 0.13044,-0.574574 0.21692,-0.594117 1.4239403,-0.321897 1.2425,0.280216 1.31093,0.261568 2.06759,-0.563489 0.67703,-0.73827 0.8394,-0.803986 1.20421,-0.487446 0.5284,0.458501 0.53181,0.44754 -0.47096,1.516676 l -0.83299,0.888118 0.42261,1.485663 c 0.3789,1.332028 0.39145,2.682895 0.0241,2.59949 z m -1.45352,4.946249 c -0.14882,0.250114 -0.75002,0.89248 -1.33597,1.427475 l -1.0653703,0.972721 0.27591,1.087564 c 0.3375503,1.330494 0.3442003,1.300365 -0.3281195,1.485063 -0.48513,0.133285 -0.58085,0.0094 -0.83498,-1.081111 -0.2813,-1.206942 -0.31061,-1.23699 -1.46172,-1.498377 -1.08985,-0.247475 -1.16465,-0.310902 -1.03578,-0.878453 0.12952,-0.570139 0.22127,-0.593014 1.35059,-0.336574 1.17292,0.266338 1.24504,0.243631 2.2554595,-0.710037 1.1524203,-1.087698 1.7783003,-1.461639 2.2624303,-1.351707 0.34459,0.07825 0.33489,0.182045 -0.0824,0.883436 z m -0.10698,-4.271393 c -0.27389,-0.0622 -0.74943,-0.372796 -1.05676,-0.690238 -0.32412,-0.334792 -1.0246103,-0.682941 -1.6681298,-0.829065 -0.96416,-0.218934 -1.10323,-0.326289 -1.06254,-0.820206 0.0409,-0.49693 0.15491,-0.543751 0.90752,-0.372861 0.8566795,0.194532 0.8602595,0.191615 0.7682795,-0.625084 -0.073,-0.647792 -0.0108,-0.849494 0.2953,-0.958203 0.6977203,-0.247814 0.9623303,-0.0281 0.9565103,0.793998 -0.003,0.445024 0.32705,1.325925 0.73379,1.957559 0.82748,1.285011 0.86228,1.711281 0.12597,1.5441 z m -0.50892,2.655853 c -0.1076,0.155422 -0.55254,0.375201 -0.98863,0.488393 -0.4360703,0.113186 -1.1158998,0.593214 -1.5107198,1.066714 -0.75806,0.909138 -0.89162,0.954651 -1.37561,0.468723 -0.24659,-0.247579 -0.22168,-0.409596 0.13508,-0.878058 0.57389,-0.753659 0.58303,-0.708297 -0.2185,-1.085147 -0.47031,-0.221113 -0.66377,-0.476252 -0.59403,-0.783397 0.14496,-0.638348 0.42045,-0.672666 1.45149,-0.180822 0.65687,0.313358 1.1028,0.375748 1.6571495,0.231851 0.8083903,-0.209827 1.8017003,-0.08714 1.7005203,0.210022 -0.0335,0.09852 -0.14912,0.306294 -0.25674,0.461721 z m -0.3457,-1.401889 c -0.3261,0.03385 -1.2367703,-0.11899 -2.0237298,-0.339656 -1.38592,-0.388635 -1.46088,-0.378434 -2.38954,0.325083 -0.68961,0.522431 -1.06839,0.652695 -1.34944,0.464071 -0.52862,-0.354757 -0.43029,-0.609786 0.55121,-1.429643 l 0.83531,-0.697748 -0.33176,-1.236552 c -0.28709,-1.070059 -0.27519,-1.256833 0.0885,-1.387124 0.65187,-0.233611 0.71621,-0.167864 1.13763,1.162336 l 0.39526,1.247612 1.5172,0.352698 c 1.9361998,0.450099 2.9052098,1.400242 1.5694698,1.538923 z m 1.12176,-7.923232 c -0.2348,0.233503 -0.39161,0.190155 -0.91816,-0.25385 -0.55728,-0.469893 -0.59822,-0.639656 -0.33437,-1.3866938 0.34598,-0.979614 0.31444,-0.972375 1.15322,-0.265103 0.64681,0.545381 0.68722,1.3209928 0.0993,1.9056468 z m -5.2594798,15.94707 c -0.47915,0.08469 -0.87876,0.133084 -0.88802,0.107566 -0.009,-0.02552 -0.003,-0.41839 0.0123,-0.873047 0.0256,-0.728177 0.12427,-0.851355 0.82834,-1.034096 1.16826,-0.303245 1.33477,-0.187218 1.11573,0.777401 -0.1698,0.747778 -0.31799,0.889578 -1.06834,1.022177 z m 1.66242,-12.448071 c -0.89684,-0.03396 -0.96827,-0.10312 -1.97681,-1.914739 -0.5755,-1.033723 -0.99604,-1.911205 -0.93454,-1.949937 0.15175,-0.09556 3.13828,1.707171 3.43335,2.072385 0.12951,0.1603 0.27441,0.637078 0.32197,1.059487 0.0835,0.741974 0.055,0.766828 -0.84397,0.732804 z m -1.67964,7.312567 c -0.54264,0.558582 -0.84193,0.624651 -2.44194,0.53904 -1.00294,-0.05367 -1.9435,-0.12481 -2.09012,-0.158111 -0.26348,-0.05982 2.4551,-1.683603 3.22917,-1.928754 0.43673,-0.138318 2.02615,0.460534 1.96136,0.738989 -0.0221,0.09472 -0.31835,0.4587 -0.65847,0.808836 z m -1.45635,-4.482259 c -0.91441,0.340801 -1.20322,0.2516 -1.73408,-0.535575 l -0.44383,-0.658136 0.85048,-0.284764 c 0.83591,-0.279888 0.86078,-0.273206 1.45298,0.39021 0.33138,0.371228 0.59458,0.709855 0.58489,0.752505 -0.009,0.04265 -0.32939,0.193737 -0.71044,0.33576 z"
       inkscape:connector-curvature="0" />
    <path
       d="m 17.698779,-11.209813 c 0,0 0.172887,1.434954 0.156506,1.614153 -0.01633,0.179207 0.05124,0.740713 0.0818,0.888941 0.03055,0.1482302 0.11041,0.4120412 0.178636,0.4949662 0.06817,0.08289 0.190856,0.197272 0.348295,0.201095 0.157432,0.0041 0.16203,0.02095 0.251242,-0.0581 0.08921,-0.07913 0.111433,-0.167871 0.138244,-0.23946 0.02679,-0.07162 0.05245,-0.216455 0.07621,0.04399 0.02378,0.260446 0.02506,0.333713 -0.06005,0.531319 -0.08505,0.197598 -0.340236,0.790406 -0.327459,1.421814 0.01279,0.631417 0.0453,1.027521 -0.105955,1.390068 -0.15127,0.362556 -0.403535,1.000583 -0.403535,1.000583 0,0 -0.159245,0.401488 -0.09899,0.523347 0.06027,0.121859 0.09414,0.213993 0.383864,0.265164 0.289732,0.05117 1.202905,0.128513 1.536166,0.204817 0.333269,0.0763 1.069703,0.283813 1.290763,0.353381 0.221053,0.06954 1.226224,0.490284 1.567461,0.527657 0.341237,0.0374 1.291658,0.150733 1.619088,0.136601 0.327429,-0.01411 1.037956,0.06227 1.221754,0.09586 0.183798,0.03356 0.739797,0.151384 0.778745,0.159356 0.0389,0.0084 -0.455583,0.08527 -0.87391,0.206564 -0.418328,0.121292 -1.298182,0.61466303 -1.490408,0.72137103 -0.192211,0.106708 -1.269791,0.892272 -1.451129,1.005257 -0.181337,0.11299395 -1.037414,0.86681197 -1.200354,1.04847397 -0.162932,0.18167 -0.448178,0.524917 -0.419343,0.701203 0.02882,0.176286 0.113322,0.45726 0.400915,0.637809 0.287594,0.180561 0.763583,0.411842 0.85403,0.406006 0.09044,-0.0059 0.210616,-0.03807 0.210616,-0.03807 0,0 0.031,0.04692 -0.310709,0.110857 -0.341689,0.06395 -0.491604,0.122518 -0.711423,0.126216 -0.219818,0.0033 -0.647341,0.09066 -0.800183,0.104003 -0.152826,0.01336 -0.572388,0.06136 -0.572388,0.06136 0,0 -0.577444,0.145525 -0.729037,0.232148 -0.1516,0.08662 -0.299053,0.291742 -0.26225,0.429087 0.03679,0.137351 0.299587,0.637368 0.299587,0.637368 l 0.343578,0.56117 0.421458,0.577116 0.353224,0.494181 0.252355,0.392415 0.165281,0.342128 0.09829,0.332486 c 0,0 -0.237773,-0.166301 -0.44121,-0.341801 -0.20343,-0.175511 -0.650924,-0.506428 -0.772342,-0.547499 -0.121404,-0.04107 -0.842359,-0.22511 -0.842359,-0.22511 l -0.571478,-0.141295 c 0,0 -0.533012,-0.03198 -0.699646,-0.07012 -0.166626,-0.03815 -0.540506,-0.09438 -0.657327,-0.118286 -0.116806,-0.02388 -0.30858,-0.01853 -0.383985,0.112093 -0.07537,0.130607 -0.181006,0.388916 -0.164737,0.586973 0.01625,0.198047 0.0681,0.460181 0.174805,0.652394 0.106708,0.192222 0.202986,0.276833 0.332366,0.27897 0.12938,0.0025 -0.168764,0.09122 -0.168764,0.09122 0,0 -0.1792,-0.01636 -0.399801,-0.187289 -0.220609,-0.1709 -0.714101,-0.673504 -0.749671,-0.737582 -0.03559,-0.06411 -0.389252,-0.456933 -0.592689,-0.632434 -0.203431,-0.175501 -0.571358,-0.51854 -0.770649,-0.575555 -0.199284,-0.05701 -0.400254,-0.08595 -0.43258,0.171119 -0.03228,0.257074 -0.0085,0.517513 -0.0085,0.517513 l 0.07276,0.100097 -0.152375,-0.08798 c 0,0 -0.07622,-0.04399 -0.215101,-0.356386 -0.138913,-0.3124 -0.474853,-1.188436 -0.474853,-1.188436 l -0.735952,-1.716511 -0.514689,-0.993756 c 0,0 -0.282093,-0.366036 -0.372081,-0.461533 -0.08999,-0.0955 -0.247427,-0.09931 -0.34415,-0.08256 -0.09672,0.0167 -0.27301,0.04558 -0.27301,0.04558 0,0 -0.187621,0.123878 -0.493853,0.629154 -0.3062323,0.505284 -0.6832803,1.158337 -1.0189265,1.965914 -0.335639,0.807577 -0.648614,1.425069 -0.777654,1.698856 -0.129056,0.273794 -0.317572,0.600321 -0.307143,0.70794 0.01046,0.107609 0.05478,0.307343 0.06855,0.358848 0.01377,0.05151 7.09e-4,0.07329 -0.05997,0.154065 -0.06118,0.08081 -0.03815,0.166635 -0.153729,0.216004 -0.11558,0.04941 -0.09841,0.04474 -0.203882,-0.07421 -0.105481,-0.118946 -0.162812,-0.195593 -0.102441,-0.450982 0.06035,-0.255387 0.07299,-0.277158 0.196944,-0.466792 0.123999,-0.189634 0.741061,-1.183022 0.810642,-1.404075 0.0696,-0.221054 0.27572,-0.653513 0.387597,-0.922708 0.111885,-0.269187 0.7206552,-1.499564 0.8337742,-1.695483 0.1131103,-0.19592 0.5240413,-0.756857 0.5370523,-0.87995 0.01302,-0.123095 0.08966,-0.180437 -0.03175,-0.221507 -0.121411,-0.04107 -0.5149303,-0.23924302 -0.6987283,-0.27280102 -0.183798,-0.03356 -0.7105192,-0.07646 -0.8290102,-0.07229 -0.118499,0.0041 -1.5153,0.01043 -1.973343,-0.05084 -0.458051,-0.06127 -1.126258,-0.185847 -1.271124,-0.211442 -0.144865,-0.02563 -0.679554,-0.02955 -0.785472,-0.04716 -0.105934,-0.01762 -0.459738,-0.03323 -0.596627,-0.09775 -0.136904,-0.06453 -0.251573,-0.21780795 -0.251573,-0.21780795 0,0 0.206801,0.119396 0.373879,0.05626 0.167094,-0.06319 0.360997,-0.197931 0.370644,-0.264922 0.0097,-0.06695 0.07538,-0.130616 -0.115903,-0.226555 -0.191323,-0.09595 -0.670232,-0.372446 -0.8243,-0.432367 -0.15406,-0.05993 -0.15406,-0.05993 -0.15406,-0.05993 0,0 -0.07276,-0.100097 -0.167418,-0.212757 -0.09459,-0.11266903 -0.157762,-0.27975503 -0.188726,-0.32666003 -0.031,-0.04692 0.05824,-0.126008 0.07299,-0.277158 0.01468,-0.151143 0.0541,-0.244504 -0.02047,-0.316544 -0.07457,-0.07204 -0.228578,-0.131968 -0.07457,-0.07204 0.15406,0.05993 0.24237,0.183465 0.246524,0.301961 0.0045,0.118495 0.07822,0.291867 0.07822,0.291867 0,0 0.152835,-0.01336 0.199743,-0.04433 0.04688,-0.03097 0.224868,-0.08786 0.25505,-0.215554 0.03025,-0.127692 0.01174,-0.196369 -0.03755,-0.311951 -0.04936,-0.115573 -0.665047,-0.833856 -0.665047,-0.833856 0,0 -0.786022,-0.976248 -1.202093,-1.361592 -0.416072,-0.385349 -0.700302,-0.622005 -0.816656,-0.747235 -0.116362,-0.125232 -0.260324,-0.353473 -0.260324,-0.353473 l -0.07404,-0.173365 c 0,0 -0.0343101,0.0092 0.185032,0.106834 0.219367,0.09763 1.087649,0.453804 1.379057,0.476926 0.291417,0.02312 1.032907,0.14646 1.179451,0.14399 0.14655,-0.0025 0.746991,-0.06219 0.837889,-0.169309 0.09088,-0.107157 0.258872,-0.37298 0.141728,-0.67281 -0.117137,-0.299832 -0.39832,-0.868524 -0.484944,-1.020117 -0.08662,-0.151602 -0.215439,-0.632318 -0.240121,-0.690109 -0.02468,-0.05777 -0.05229,-0.160801 -0.05229,-0.160801 0,0 0.349086,0.375693 0.512349,0.469955 0.163271,0.09426 0.490249,0.181454 0.618395,0.110316 0.128145,-0.07112 0.285576,-0.06729 0.398364,-0.539167 0.11278,-0.471844 0.288858,-1.153854 0.288858,-1.153854 l 0.178207,-0.8113922 0.101569,-0.754061 c 0,0 0.08867,-1.008213 0.05658,-1.505649 -0.03205,-0.497429 -0.142374,-1.286724 -0.142374,-1.286724 l -0.04364,-1.055569 c 0,0 0.571123,1.27305 1.366341,2.283634 0.795216,1.010591 0.903602,1.174765 1.232605,1.509831 0.328994,0.335067 0.82372,0.910947 0.9526482,1.014407 0.128928,0.103461 0.6382363,0.9054452 0.7499923,1.0135142 0.111765,0.10806 0.305541,0.350551 0.4127,0.441441 0.107159,0.0909 0.262009,0.325416 0.518301,0.183147 0.256298,-0.142286 0.5843,-0.63499 0.642993,-0.862328 0.05869,-0.227341 0.267532,-1.2677592 0.267532,-1.2677592 0,0 0.03447,-0.386455 0.122442,-0.538833 0.08797,-0.152379 0.219488,-0.279629 0.249225,-0.305991 0.02972,-0.02638 0.0213,0.113895 0.03462,0.266724 0.01339,0.152829 0.09492,0.388591 0.247306,0.476567 0.152376,0.08798 0.228112,0.233292 0.464319,0.05042 0.236215,-0.182896 0.920157,-0.789379 0.996796,-0.846719 0.07663,-0.05735 0.722874,-0.598518 0.741732,-0.631175 0.01888,-0.03264 0.602689,-0.566313 0.731294,-0.738775 0.128598,-0.172471 0.537391,-0.60402 0.719624,-0.919669 0.182241,-0.315642 0.87719,-1.293093 0.902323,-1.336634 0.02513,-0.04358 0.552546,-0.856499 0.615392,-0.965342 0.06283,-0.108846 0.06283,-0.108846 0.06283,-0.108846 l 0.0532,-0.04182 c 0,0 0.0075,0.71557 -0.100004,1.103264 -0.107739,0.387681 -0.197064,0.844038 -0.219405,1.310055 -0.02235,0.466015 -0.0075,1.621221 -0.0075,1.621221 z"
       id="path3"
       style="fill:#fce94f;stroke:#000000;stroke-width:0.05027255;overflow:visible"
       inkscape:connector-curvature="0" />
    <path
       style="fill:url(#linearGradient3759);fill-opacity:1;stroke:url(#linearGradient3744);stroke-width:0.54575342;stroke-miterlimit:4;stroke-opacity:1;stroke-dasharray:none;overflow:visible"
       id="path2979"
       d="m 17.698779,-11.209813 c 0,0 0.172887,1.434954 0.156506,1.614153 -0.01633,0.179207 0.05124,0.740713 0.0818,0.888941 0.03055,0.1482302 0.11041,0.4120412 0.178636,0.4949662 0.06817,0.08289 0.190856,0.197272 0.348295,0.201095 0.157432,0.0041 0.16203,0.02095 0.251242,-0.0581 0.08921,-0.07913 0.111433,-0.167871 0.138244,-0.23946 0.02679,-0.07162 0.05245,-0.216455 0.07621,0.04399 0.02378,0.260446 0.02506,0.333713 -0.06005,0.531319 -0.08505,0.197598 -0.340236,0.790406 -0.327459,1.421814 0.01279,0.631417 0.0453,1.027521 -0.105955,1.390068 -0.15127,0.362556 -0.403535,1.000583 -0.403535,1.000583 0,0 -0.159245,0.401488 -0.09899,0.523347 0.06027,0.121859 0.09414,0.213993 0.383864,0.265164 0.289732,0.05117 1.202905,0.128513 1.536166,0.204817 0.333269,0.0763 1.069703,0.283813 1.290763,0.353381 0.221053,0.06954 1.226224,0.490284 1.567461,0.527657 0.341237,0.0374 1.291658,0.150733 1.619088,0.136601 0.327429,-0.01411 1.037956,0.06227 1.221754,0.09586 0.183798,0.03356 0.739797,0.151384 0.778745,0.159356 0.0389,0.0084 -0.455583,0.08527 -0.87391,0.206564 -0.418328,0.121292 -1.298182,0.61466303 -1.490408,0.72137103 -0.192211,0.106708 -1.269791,0.892272 -1.451129,1.005257 -0.181337,0.11299395 -1.037414,0.86681197 -1.200354,1.04847397 -0.162932,0.18167 -0.448178,0.524917 -0.419343,0.701203 0.02882,0.176286 0.113322,0.45726 0.400915,0.637809 0.287594,0.180561 0.763583,0.411842 0.85403,0.406006 0.09044,-0.0059 0.210616,-0.03807 0.210616,-0.03807 0,0 0.031,0.04692 -0.310709,0.110857 -0.341689,0.06395 -0.491604,0.122518 -0.711423,0.126216 -0.219818,0.0033 -0.647341,0.09066 -0.800183,0.104003 -0.152826,0.01336 -0.572388,0.06136 -0.572388,0.06136 0,0 -0.577444,0.145525 -0.729037,0.232148 -0.1516,0.08662 -0.299053,0.291742 -0.26225,0.429087 0.03679,0.137351 0.299587,0.637368 0.299587,0.637368 l 0.343578,0.56117 0.421458,0.577116 0.353224,0.494181 0.252355,0.392415 0.165281,0.342128 0.09829,0.332486 c 0,0 -0.237773,-0.166301 -0.44121,-0.341801 -0.20343,-0.175511 -0.650924,-0.506428 -0.772342,-0.547499 -0.121404,-0.04107 -0.842359,-0.22511 -0.842359,-0.22511 l -0.571478,-0.141295 c 0,0 -0.533012,-0.03198 -0.699646,-0.07012 -0.166626,-0.03815 -0.540506,-0.09438 -0.657327,-0.118286 -0.116806,-0.02388 -0.30858,-0.01853 -0.383985,0.112093 -0.07537,0.130607 -0.181006,0.388916 -0.164737,0.586973 0.01625,0.198047 0.0681,0.460181 0.174805,0.652394 0.106708,0.192222 0.202986,0.276833 0.332366,0.27897 0.12938,0.0025 -0.168764,0.09122 -0.168764,0.09122 0,0 -0.1792,-0.01636 -0.399801,-0.187289 -0.220609,-0.1709 -0.714101,-0.673504 -0.749671,-0.737582 -0.03559,-0.06411 -0.389252,-0.456933 -0.592689,-0.632434 -0.203431,-0.175501 -0.571358,-0.51854 -0.770649,-0.575555 -0.199284,-0.05701 -0.400254,-0.08595 -0.43258,0.171119 -0.03228,0.257074 -0.0085,0.517513 -0.0085,0.517513 l 0.07276,0.100097 -0.152375,-0.08798 c 0,0 -0.07622,-0.04399 -0.215101,-0.356386 -0.138913,-0.3124 -0.474853,-1.188436 -0.474853,-1.188436 l -0.735952,-1.716511 -0.514689,-0.993756 c 0,0 -0.282093,-0.366036 -0.372081,-0.461533 -0.08999,-0.0955 -0.247427,-0.09931 -0.34415,-0.08256 -0.09672,0.0167 -0.27301,0.04558 -0.27301,0.04558 0,0 -0.187621,0.123878 -0.493853,0.629154 -0.3062323,0.505284 -0.6832803,1.158337 -1.0189265,1.965914 -0.335639,0.807577 -0.648614,1.425069 -0.777654,1.698856 -0.129056,0.273794 -0.317572,0.600321 -0.307143,0.70794 0.01046,0.107609 0.05478,0.307343 0.06855,0.358848 0.01377,0.05151 7.09e-4,0.07329 -0.05997,0.154065 -0.06118,0.08081 -0.03815,0.166635 -0.153729,0.216004 -0.11558,0.04941 -0.09841,0.04474 -0.203882,-0.07421 -0.105481,-0.118946 -0.162812,-0.195593 -0.102441,-0.450982 0.06035,-0.255387 0.07299,-0.277158 0.196944,-0.466792 0.123999,-0.189634 0.741061,-1.183022 0.810642,-1.404075 0.0696,-0.221054 0.27572,-0.653513 0.387597,-0.922708 0.111885,-0.269187 0.7206552,-1.499564 0.8337742,-1.695483 0.1131103,-0.19592 0.5240413,-0.756857 0.5370523,-0.87995 0.01302,-0.123095 0.08966,-0.180437 -0.03175,-0.221507 -0.121411,-0.04107 -0.5149303,-0.23924302 -0.6987283,-0.27280102 -0.183798,-0.03356 -0.7105192,-0.07646 -0.8290102,-0.07229 -0.118499,0.0041 -1.5153,0.01043 -1.973343,-0.05084 -0.458051,-0.06127 -1.126258,-0.185847 -1.271124,-0.211442 -0.144865,-0.02563 -0.679554,-0.02955 -0.785472,-0.04716 -0.105934,-0.01762 -0.459738,-0.03323 -0.596627,-0.09775 -0.136904,-0.06453 -0.251573,-0.21780795 -0.251573,-0.21780795 0,0 0.206801,0.119396 0.373879,0.05626 0.167094,-0.06319 0.360997,-0.197931 0.370644,-0.264922 0.0097,-0.06695 0.07538,-0.130616 -0.115903,-0.226555 -0.191323,-0.09595 -0.670232,-0.372446 -0.8243,-0.432367 -0.15406,-0.05993 -0.15406,-0.05993 -0.15406,-0.05993 0,0 -0.07276,-0.100097 -0.167418,-0.212757 -0.09459,-0.11266903 -0.157762,-0.27975503 -0.188726,-0.32666003 -0.031,-0.04692 0.05824,-0.126008 0.07299,-0.277158 0.01468,-0.151143 0.0541,-0.244504 -0.02047,-0.316544 -0.07457,-0.07204 -0.228578,-0.131968 -0.07457,-0.07204 0.15406,0.05993 0.24237,0.183465 0.246524,0.301961 0.0045,0.118495 0.07822,0.291867 0.07822,0.291867 0,0 0.152835,-0.01336 0.199743,-0.04433 0.04688,-0.03097 0.224868,-0.08786 0.25505,-0.215554 0.03025,-0.127692 0.01174,-0.196369 -0.03755,-0.311951 -0.04936,-0.115573 -0.665047,-0.833856 -0.665047,-0.833856 0,0 -0.786022,-0.976248 -1.202093,-1.361592 -0.416072,-0.385349 -0.700302,-0.622005 -0.816656,-0.747235 -0.116362,-0.125232 -0.260324,-0.353473 -0.260324,-0.353473 l -0.07404,-0.173365 c 0,0 -0.0343101,0.0092 0.185032,0.106834 0.219367,0.09763 1.087649,0.453804 1.379057,0.476926 0.291417,0.02312 1.032907,0.14646 1.179451,0.14399 0.14655,-0.0025 0.746991,-0.06219 0.837889,-0.169309 0.09088,-0.107157 0.258872,-0.37298 0.141728,-0.67281 -0.117137,-0.299832 -0.39832,-0.868524 -0.484944,-1.020117 -0.08662,-0.151602 -0.215439,-0.632318 -0.240121,-0.690109 -0.02468,-0.05777 -0.05229,-0.160801 -0.05229,-0.160801 0,0 0.349086,0.375693 0.512349,0.469955 0.163271,0.09426 0.490249,0.181454 0.618395,0.110316 0.128145,-0.07112 0.285576,-0.06729 0.398364,-0.539167 0.11278,-0.471844 0.288858,-1.153854 0.288858,-1.153854 l 0.178207,-0.8113922 0.101569,-0.754061 c 0,0 0.08867,-1.008213 0.05658,-1.505649 -0.03205,-0.497429 -0.142374,-1.286724 -0.142374,-1.286724 l -0.04364,-1.055569 c 0,0 0.571123,1.27305 1.366341,2.283634 0.795216,1.010591 0.903602,1.174765 1.232605,1.509831 0.328994,0.335067 0.82372,0.910947 0.9526482,1.014407 0.128928,0.103461 0.6382363,0.9054452 0.7499923,1.0135142 0.111765,0.10806 0.305541,0.350551 0.4127,0.441441 0.107159,0.0909 0.262009,0.325416 0.518301,0.183147 0.256298,-0.142286 0.5843,-0.63499 0.642993,-0.862328 0.05869,-0.227341 0.267532,-1.2677592 0.267532,-1.2677592 0,0 0.03447,-0.386455 0.122442,-0.538833 0.08797,-0.152379 0.219488,-0.279629 0.249225,-0.305991 0.02972,-0.02638 0.0213,0.113895 0.03462,0.266724 0.01339,0.152829 0.09492,0.388591 0.247306,0.476567 0.152376,0.08798 0.228112,0.233292 0.464319,0.05042 0.236215,-0.182896 0.920157,-0.789379 0.996796,-0.846719 0.07663,-0.05735 0.722874,-0.598518 0.741732,-0.631175 0.01888,-0.03264 0.602689,-0.566313 0.731294,-0.738775 0.128598,-0.172471 0.537391,-0.60402 0.719624,-0.919669 0.182241,-0.315642 0.87719,-1.293093 0.902323,-1.336634 0.02513,-0.04358 0.552546,-0.856499 0.615392,-0.965342 0.06283,-0.108846 0.06283,-0.108846 0.06283,-0.108846 l 0.0532,-0.04182 c 0,0 0.0075,0.71557 -0.100004,1.103264 -0.107739,0.387681 -0.197064,0.844038 -0.219405,1.310055 -0.02235,0.466015 -0.0075,1.621221 -0.0075,1.621221 z"
       inkscape:connector-curvature="0" />
    <path
       style="fill:#ff8602;fill-opacity:1;stroke:none;overflow:visible"
       d="M 10.977311,0.57144818 16.887647,-10.845412 c -2.140353,4.2202312 -3.8203,8.0713372 -6.644543,12.9586882 l -0.3303873,0.770914 -0.40382,0.734201 -0.2936812,0.660783 -0.403804,0.95447 -0.330395,0.587358 -0.330394,0.403819 0,0.734201 -0.220255,0.330392 -0.293681,-0.18355 0.03672,-0.477236 0.367107,-0.697495 0.624068,-1.101306 c 0,0 0.40382,-0.881045 0.513944,-1.02788 0.110139,-0.146844 0.4405262,-0.95447 0.4405262,-0.95447 l 0.6240753,-0.91775 0.734199,-1.35827902 z"
       id="path3761"
       sodipodi:nodetypes="cccccccccccccccsccc"
       inkscape:connector-curvature="0" />
    <path
       sodipodi:nodetypes="cccccccccccccccsccc"
       id="path3795"
       d="m 14.934057,-4.6448928 3.21445,-1.727881 c -1.176222,0.643555 -2.175787,1.260604 -3.631281,1.96821 l -0.198493,0.124163 -0.213122,0.108528 -0.172985,0.10529 -0.244342,0.154298 -0.172481,0.08602 -0.146468,0.04792 -0.104059,0.15257 -0.106316,0.04466 -0.05335,-0.07021 0.07755,-0.09516 0.198004,-0.104914 0.324646,-0.160793 c 0,0 0.233942,-0.139038 0.284493,-0.157545 0.05057,-0.01853 0.25426,-0.150299 0.25426,-0.150299 l 0.298632,-0.122652 0.39081,-0.202181 z"
       style="fill:#ff8602;fill-opacity:1;stroke:none;overflow:visible"
       inkscape:connector-curvature="0" />
    <path
       style="fill:#ff8602;fill-opacity:1;stroke:none;overflow:visible"
       d="m 11.697793,-3.5180678 -1.053314,-3.494111 c 0.377446,1.286549 0.648628,2.429503 1.178404,3.958716 l 0.05267,0.228125 0.07412,0.227399 0.04801,0.196728 0.06388,0.281843 0.06125,0.182755 0.06975,0.137386 -0.03424,0.181486 0.04364,0.106708 0.08729,-0.01194 0.01234,-0.122134 -0.06592,-0.214152 -0.116076,-0.343188 c 0,0 -0.06727,-0.263695 -0.08996,-0.312519 -0.02272,-0.04883 -0.07374,-0.286017 -0.07374,-0.286017 l -0.12461,-0.29781 -0.133638,-0.419236 z"
       id="path3797"
       sodipodi:nodetypes="cccccccccccccccsccc"
       inkscape:connector-curvature="0" />
    <path
       sodipodi:nodetypes="cccccccccccccccsccc"
       id="path3799"
       d="M 9.5119977,-2.8522758 7.2627995,-9.560692 c 0.799747,2.4672742 1.334684,4.6418472 2.5073022,7.5963722 l 0.102878,0.433652 0.1615703,0.438086 0.09565,0.37465103 0.123631,0.535418 0.134488,0.35253 0.1661,0.27142295 -0.12646,0.324449 0.100199,0.20799 0.241084,0.0017 0.05598,-0.221221 -0.141698,-0.411531 -0.255441,-0.66229395 c 0,0 -0.136272,-0.502979 -0.189532,-0.598861 -0.05328,-0.09588 -0.149816,-0.54575303 -0.149816,-0.54575303 l -0.2870523,-0.581199 -0.289723,-0.806843 z"
       style="fill:#ff8602;fill-opacity:1;stroke:none;overflow:visible"
       inkscape:connector-curvature="0" />
    <path
       style="fill:#ff8602;fill-opacity:1;stroke:none;overflow:visible"
       d="m 14.885952,0.49418118 6.996954,-1.05086095 c -2.56087,0.410963 -4.740616,0.92447795 -7.905079,1.22521895 l -0.432941,0.10579 -0.463611,0.05559 -0.37713,0.08536 -0.533012,0.13363002 -0.375113,0.04074 -0.317286,-0.02437 -0.231331,0.260279 -0.23079,0.0059 -0.111103,-0.213967 0.171481,-0.15055802 0.430924,-0.06119 0.705981,-0.07404 c 0,0 0.509873,-0.107611 0.619493,-0.10383 0.109619,0.0041 0.554126,-0.115022 0.554126,-0.115022 l 0.648147,-0.0089 0.85029,-0.109288 z"
       id="path3801"
       sodipodi:nodetypes="cccccccccccccccsccc"
       inkscape:connector-curvature="0" />
    <path
       style="fill:#ff8602;fill-opacity:1;stroke:none;overflow:visible"
       d="m 7.9856065,-4.2043698 -2.442252,-1.727881 c 0.893663,0.643555 1.653107,1.260604 2.758951,1.96821 l 0.150817,0.124162 0.161924,0.108529 0.131419,0.105288 0.185642,0.154298 0.13105,0.08602 0.111282,0.04792 0.07905,0.152569 0.0808,0.04466 0.04048,-0.07021 -0.05892,-0.09516 -0.150441,-0.104912 -0.246659,-0.160793 c 0,0 -0.177741,-0.139039 -0.216155,-0.157545 -0.03837,-0.01853 -0.193182,-0.1503 -0.193182,-0.1503 l -0.226899,-0.122652 -0.296924,-0.202179 z"
       id="path3803"
       sodipodi:nodetypes="cccccccccccccccsccc"
       inkscape:connector-curvature="0" />
    <path
       sodipodi:nodetypes="cccccccccccccccsccc"
       id="path3805"
       d="m 14.669459,-0.59937677 1.988926,-2.23480203 c -0.739,0.816502 -1.436735,1.502553 -2.263005,2.52277803 l -0.140171,0.136059 -0.12588,0.148847 -0.119251,0.118887 -0.174009,0.16732 -0.100071,0.12066595 -0.0599,0.105255 -0.160419,0.06161 -0.05335,0.0753 0.06516,0.04808 0.101132,-0.048 0.121004,-0.137828 0.187237,-0.22723095 c 0,0 0.157959,-0.161161 0.180623,-0.197273 0.02272,-0.03614 0.170863,-0.175259 0.170863,-0.175259 l 0.147146,-0.21183 0.233965,-0.272584 z"
       style="fill:#ff8602;fill-opacity:1;stroke:none;overflow:visible"
       inkscape:connector-curvature="0" />
    <path
       style="fill:#ff8602;fill-opacity:1;stroke:none;overflow:visible"
       d="m 18.438449,-0.69218777 1.303592,-1.46473803 c -0.484364,0.535152 -0.94167,0.984807 -1.483221,1.65348703 l -0.09188,0.08918 -0.08248,0.09756 -0.07813,0.07788 -0.114051,0.109662 -0.06562,0.07905 -0.03928,0.06903 -0.10515,0.0404 -0.03499,0.04933 0.04274,0.03147 0.06629,-0.03147 0.0793,-0.09034 0.122728,-0.14893 c 0,0 0.103532,-0.105631 0.118386,-0.129297 0.01482,-0.02371 0.111982,-0.114872 0.111982,-0.114872 l 0.09645,-0.138838 0.153352,-0.178656 z"
       id="path3807"
       sodipodi:nodetypes="cccccccccccccccsccc"
       inkscape:connector-curvature="0" />
    <path
       sodipodi:nodetypes="cccccccccccccccsccc"
       id="path3809"
       d="m 17.539135,1.0421212 1.556227,1.192879 c -0.576527,-0.434303 -1.110366,-0.789738 -1.76822,-1.34440602 l -0.107024,-0.07029 -0.09942,-0.08022 -0.09144,-0.06177 -0.132668,-0.08621 -0.0793,-0.06528 -0.05162,-0.06036 -0.110854,-0.01987 -0.04364,-0.04191 0.03605,-0.03899 0.07103,0.01837 0.09491,0.07379 0.148582,0.123137 c 0,0 0.121577,0.08423 0.140629,0.104679 0.01904,0.02045 0.131622,0.09171 0.131622,0.09171 l 0.120876,0.118178 0.184257,0.14656702 z"
       style="fill:#ff8602;fill-opacity:1;stroke:none;overflow:visible"
       inkscape:connector-curvature="0" />
    <path
       sodipodi:nodetypes="cccccccccccccccsccc"
       id="path3811"
       d="m 13.410104,-5.9157808 -0.630637,-1.856643 c 0.22641,0.685368 0.391826,1.305013 0.706154,2.106029 l 0.03221,0.123913 0.04417,0.119897 0.0292,0.106441 0.03906,0.153313 0.03642,0.09607 0.04064,0.0682 -0.01678,0.111366 0.02574,0.05476 0.04846,-0.02162 0.0052,-0.07313 -0.03943,-0.113561 -0.06893,-0.180234 c 0,0 -0.04071,-0.14217 -0.05403,-0.166769 -0.01324,-0.02463 -0.0447,-0.154089 -0.0447,-0.154089 l -0.07314,-0.152397 -0.07972,-0.221537 z"
       style="fill:#ff8602;fill-opacity:1;stroke:none;overflow:visible"
       inkscape:connector-curvature="0" />
    <path
       style="fill:#ff8602;fill-opacity:1;stroke:none;overflow:visible"
       d="m 15.82112,1.8250142 1.575768,2.543053 c -0.587866,-0.931246 -1.15747,-1.726887 -1.796339,-2.873813 l -0.114736,-0.158104 -0.09845,-0.168247 -0.09708,-0.137594 -0.142698,-0.19470802 -0.07788,-0.13605 -0.04101,-0.113989 -0.147461,-0.08822 -0.03965,-0.08339 0.07254,-0.03615 0.09139,0.06461 0.09554,0.156552 0.14546,0.256005 c 0,0 0.127942,0.18588502 0.144068,0.22535202 0.0161,0.03949 0.138236,0.201981 0.138236,0.201981 l 0.108597,0.233951 0.183707,0.308704 z"
       id="path3813"
       sodipodi:nodetypes="cccccccccccccccsccc"
       inkscape:connector-curvature="0" />
    <path
       sodipodi:nodetypes="cccccccccccccccsccc"
       id="path3815"
       d="m 8.4438145,-1.5706268 -3.186338,-1.779212 c 1.165763,0.662337 2.155298,1.29533 3.599256,2.026185 l 0.196484,0.127336 0.211354,0.111933 0.1712622,0.10804403 0.241836,0.158196 0.171089,0.08878 0.145678,0.05025 0.1016053,0.154214 0.105587,0.04633 0.0544,-0.06929 -0.07604,-0.0964 -0.1963043,-0.108068 -0.322027,-0.165975 c 0,0 -0.231678,-0.14278003 -0.2819282,-0.16208803 -0.05026,-0.01928 -0.251814,-0.154356 -0.251814,-0.154356 l -0.296623,-0.127427 -0.387522,-0.208424 z"
       style="fill:#ff8602;fill-opacity:1;stroke:none;overflow:visible"
       inkscape:connector-curvature="0" />
    <path
       inkscape:connector-curvature="0"
       id="path1307"
       style="fill:url(#radialGradient3385);stroke:url(#linearGradient3387);stroke-width:0.45965365;stroke-linejoin:round"
       d="m 36.432782,-13.451125 c 0.703561,0 2.971834,5.6862027 3.54101,6.1012612 0.569176,0.4150297 6.658996,0.8228434 6.876253,1.4943944 0.217409,0.6715509 -4.470352,4.5937568 -4.687933,5.26512203 -0.217409,0.6715509 1.277925,6.60989297 0.708748,7.02495067 -0.569176,0.4150305 -5.734841,-2.8473168 -6.438032,-2.8473168 -0.70356,0 -5.86918,3.2623753 -6.438032,2.8473168 -0.569361,-0.4145946 0.926006,-6.35279757 0.708749,-7.02448677 -0.21772,-0.67169003 -4.90519,-4.59389593 -4.687933,-5.26512283 0.217396,-0.6716901 6.306937,-1.0797998 6.876252,-1.4943944 0.569315,-0.4150586 2.837311,-6.1017243 3.540964,-6.1017243 z" />
    <path
       inkscape:connector-curvature="0"
       id="path11014"
       style="opacity:0.3;fill:none;stroke:#ffffff;stroke-width:0.46323445"
       d="m 42.203757,5.7077422 c 0,0 -2.000432,-1.7337011 -4.66755,-2.2671624" />
    <path
       inkscape:connector-curvature="0"
       id="path11985"
       style="opacity:0.3;fill:none;stroke:#ffffff;stroke-width:0.46323445"
       d="m 30.492263,5.7077422 c 0,0 2.000432,-1.7337011 4.66755,-2.2671624" />
    <path
       inkscape:connector-curvature="0"
       id="path1309"
       style="opacity:0.4;fill:none;stroke:url(#linearGradient3648);stroke-width:0.46323445;stroke-linejoin:round"
       d="m 36.432782,-12.986085 c 1.044871,1.99983 2.074549,4.147062 3.119421,6.1471221 2.243907,0.3658906 4.753711,0.639634 6.842436,1.1605879 -1.598113,1.6018647 -3.1852,3.3033707 -4.783359,4.90518963 C 41.953212,1.452795 42.173184,3.5161341 42.515143,5.742207 40.482933,4.7323561 38.450261,3.7225044 36.417588,2.7126535 34.384915,3.7225044 32.352706,4.7323561 30.320033,5.742207 30.6619,3.5163656 30.841171,1.4123544 31.183039,-0.81395007 29.585065,-2.4158148 28.064822,-4.0955034 26.466849,-5.6973681 c 2.243722,-0.365955 4.572124,-0.7759171 6.816031,-1.141409 1.045057,-2.0002459 2.104938,-4.1472929 3.149995,-6.1471219 z" />
    <path
       inkscape:connector-curvature="0"
       id="path3382"
       style="opacity:0.8;fill:url(#linearGradient3619)"
       d="m 36.4439,-13.207604 c 0,0 2.08562,3.460409 3.252322,6.1688948 2.243908,0.3658897 4.775948,0.6507055 6.909142,1.2602757 0,0 -1.141363,1.1435404 -1.612334,1.615669 0,0 -14.722517,2.6461336 -14.722517,2.6461336 -1.342036,-1.3790483 -2.865058,-2.7168696 -4.046584,-4.2673155 1.645872,-0.4984401 4.693491,-0.9000642 6.937399,-1.2660201 1.554151,-3.6609885 3.282479,-6.1577755 3.282479,-6.1577755 z" />
  </g>
</svg>
