<?xml version="1.0" encoding="UTF-8" standalone="no"?>
<!-- Created with Inkscape (http://www.inkscape.org/) -->

<svg
   xmlns:dc="http://purl.org/dc/elements/1.1/"
   xmlns:cc="http://creativecommons.org/ns#"
   xmlns:rdf="http://www.w3.org/1999/02/22-rdf-syntax-ns#"
   xmlns:svg="http://www.w3.org/2000/svg"
   xmlns="http://www.w3.org/2000/svg"
   xmlns:xlink="http://www.w3.org/1999/xlink"
   xmlns:sodipodi="http://sodipodi.sourceforge.net/DTD/sodipodi-0.dtd"
   xmlns:inkscape="http://www.inkscape.org/namespaces/inkscape"
   version="1.0"
   width="48"
   height="48"
   id="svg9481"
   sodipodi:version="0.32"
   inkscape:version="0.48.1 r9760"
   sodipodi:docname="plugin-fadedesktop.svg"
   inkscape:output_extension="org.inkscape.output.svg.inkscape">
  <metadata
     id="metadata55">
    <rdf:RDF>
      <cc:Work
         rdf:about="">
        <dc:format>image/svg+xml</dc:format>
        <dc:type
           rdf:resource="http://purl.org/dc/dcmitype/StillImage" />
      </cc:Work>
    </rdf:RDF>
  </metadata>
  <sodipodi:namedview
     inkscape:window-height="915"
     inkscape:window-width="1528"
     inkscape:pageshadow="2"
     inkscape:pageopacity="0.0"
     guidetolerance="10.0"
     gridtolerance="10.0"
     objecttolerance="10.0"
     borderopacity="1.0"
     bordercolor="#666666"
     pagecolor="#ffffff"
     id="base"
     showgrid="false"
     inkscape:zoom="11.9375"
     inkscape:cx="19.972295"
     inkscape:cy="26.09424"
     inkscape:window-x="177"
     inkscape:window-y="79"
     inkscape:current-layer="svg9481"
     inkscape:window-maximized="0" />
  <defs
     id="defs9483">
    <linearGradient
       id="linearGradient5048-7">
      <stop
         id="stop5050-5"
         style="stop-color:#000000;stop-opacity:0"
         offset="0" />
      <stop
         id="stop5056-9"
         style="stop-color:#000000;stop-opacity:1"
         offset="0.5" />
      <stop
         id="stop5052-6"
         style="stop-color:#000000;stop-opacity:0"
         offset="1" />
    </linearGradient>
    <linearGradient
       id="linearGradient5060-6">
      <stop
         id="stop5062-3"
         style="stop-color:#000000;stop-opacity:1"
         offset="0" />
      <stop
         id="stop5064-1"
         style="stop-color:#000000;stop-opacity:0"
         offset="1" />
    </linearGradient>
    <linearGradient
       id="linearGradient3332-412-419-652-471-761-410-156-661-505">
      <stop
         id="stop8032"
         style="stop-color:#6c1a51;stop-opacity:1;"
         offset="0" />
      <stop
         id="stop8034"
         style="stop-color:#9c788a;stop-opacity:1;"
         offset="1" />
    </linearGradient>
    <linearGradient
       id="linearGradient2867-449-88-871-390-598-476-591-434-148-895-534-212-357-729">
      <stop
         id="stop8022"
         style="stop-color:#cf85a2;stop-opacity:1;"
         offset="0" />
      <stop
         id="stop8024"
         style="stop-color:#be749a;stop-opacity:1;"
         offset="0.26238" />
      <stop
         id="stop8026"
         style="stop-color:#a05182;stop-opacity:1;"
         offset="0.704952" />
      <stop
         id="stop8028"
         style="stop-color:#892c65;stop-opacity:1;"
         offset="1" />
    </linearGradient>
    <linearGradient
       id="linearGradient8265-821-176-38-919-66-249">
      <stop
         id="stop2687"
         style="stop-color:#ffffff;stop-opacity:1"
         offset="0" />
      <stop
         id="stop2689"
         style="stop-color:#ffffff;stop-opacity:0"
         offset="1" />
    </linearGradient>
    <linearGradient
       id="linearGradient3282">
      <stop
         id="stop3284"
         style="stop-color:#000000;stop-opacity:1"
         offset="0" />
      <stop
         id="stop3286"
         style="stop-color:#000000;stop-opacity:0"
         offset="1" />
    </linearGradient>
    <linearGradient
       id="linearGradient3958">
      <stop
         id="stop3960"
         style="stop-color:#a1a1a1;stop-opacity:1"
         offset="0" />
      <stop
         id="stop3962"
         style="stop-color:#4d4d4d;stop-opacity:1"
         offset="1" />
    </linearGradient>
    <linearGradient
       id="linearGradient2446-733-45">
      <stop
         id="stop3793"
         style="stop-color:#fafafa;stop-opacity:1"
         offset="0" />
      <stop
         id="stop3795"
         style="stop-color:#c5c5c5;stop-opacity:1"
         offset="1" />
    </linearGradient>
    <linearGradient
       id="linearGradient2238">
      <stop
         id="stop2240"
         style="stop-color:#ffffff;stop-opacity:1"
         offset="0" />
      <stop
         id="stop2242"
         style="stop-color:#ffffff;stop-opacity:0"
         offset="1" />
    </linearGradient>
    <radialGradient
       cx="11.25"
       cy="19.03125"
       r="8.0625"
       fx="11.25"
       fy="19.03125"
       id="radialGradient3708"
       xlink:href="#linearGradient5105-262-943-861"
       gradientUnits="userSpaceOnUse"
       gradientTransform="matrix(-2.9695155,0,0,0.81661829,57.43619,25.374771)" />
    <linearGradient
       id="linearGradient5105-262-943-861">
      <stop
         id="stop2487"
         style="stop-color:#0d0d0d;stop-opacity:1"
         offset="0" />
      <stop
         id="stop2489"
         style="stop-color:#0d0d0d;stop-opacity:0"
         offset="1" />
    </linearGradient>
    <linearGradient
       x1="22.181572"
       y1="14.499924"
       x2="22.181572"
       y2="44.051018"
       id="linearGradient2891"
       xlink:href="#linearGradient7012-661-145-733-759-865-745-661-970-94"
       gradientUnits="userSpaceOnUse"
       gradientTransform="matrix(1.1300621,0,0,1.1160684,-1.5374162,-3.1095171)" />
    <linearGradient
       id="linearGradient7012-661-145-733-759-865-745-661-970-94">
      <stop
         id="stop3618"
         style="stop-color:#f0c178;stop-opacity:1"
         offset="0" />
      <stop
         id="stop3270"
         style="stop-color:#e18941;stop-opacity:1"
         offset="0.5" />
      <stop
         id="stop3620"
         style="stop-color:#ec4f18;stop-opacity:1"
         offset="1" />
    </linearGradient>
    <linearGradient
       x1="16.631878"
       y1="46.054432"
       x2="16.631878"
       y2="1.0473809"
       id="linearGradient3674"
       xlink:href="#linearGradient3390-178-986-453"
       gradientUnits="userSpaceOnUse"
       gradientTransform="matrix(-1,0,0,1,48,0)" />
    <linearGradient
       id="linearGradient3390-178-986-453">
      <stop
         id="stop3624"
         style="stop-color:#bb2b12;stop-opacity:1"
         offset="0" />
      <stop
         id="stop3626"
         style="stop-color:#cd7233;stop-opacity:1"
         offset="1" />
    </linearGradient>
    <linearGradient
       x1="28.62199"
       y1="10.042459"
       x2="28.62199"
       y2="41.869534"
       id="linearGradient2888"
       xlink:href="#linearGradient4222"
       gradientUnits="userSpaceOnUse"
       gradientTransform="matrix(-1.3106532,0,0,1.2884463,56.853922,-9.889484)" />
    <linearGradient
       id="linearGradient4222">
      <stop
         id="stop4224"
         style="stop-color:#ffffff;stop-opacity:1"
         offset="0" />
      <stop
         id="stop4226"
         style="stop-color:#ffffff;stop-opacity:0"
         offset="1" />
    </linearGradient>
    <linearGradient
       inkscape:collect="always"
       xlink:href="#linearGradient6388"
       id="linearGradient6725"
       gradientUnits="userSpaceOnUse"
       gradientTransform="matrix(1.1259931,0,0,1.1259931,-4.6266221,-0.79985514)"
       x1="42"
       y1="14"
       x2="33.25"
       y2="22.839001" />
    <linearGradient
       id="linearGradient6388">
      <stop
         id="stop6390"
         style="stop-color:#39aa00;stop-opacity:1;"
         offset="0" />
      <stop
         id="stop6392"
         style="stop-color:#03aa00;stop-opacity:0;"
         offset="1" />
    </linearGradient>
    <linearGradient
       id="linearGradient3164">
      <stop
         id="stop3166"
         style="stop-color:#a00"
         offset="0" />
      <stop
         id="stop3168"
         style="stop-color:#a00;stop-opacity:0"
         offset="1" />
    </linearGradient>
    <linearGradient
       inkscape:collect="always"
       xlink:href="#linearGradient6388"
       id="linearGradient6729"
       gradientUnits="userSpaceOnUse"
       gradientTransform="matrix(1.1259931,0,0,1.1259931,-4.5674121,-0.74064514)"
       x1="42"
       y1="39"
       x2="32.984001"
       y2="30.160999" />
    <linearGradient
       id="linearGradient3171">
      <stop
         id="stop3173"
         style="stop-color:#a00"
         offset="0" />
      <stop
         id="stop3175"
         style="stop-color:#a00;stop-opacity:0"
         offset="1" />
    </linearGradient>
    <linearGradient
       inkscape:collect="always"
       xlink:href="#linearGradient6388"
       id="linearGradient6731"
       gradientUnits="userSpaceOnUse"
       gradientTransform="matrix(1.1259931,0,0,1.1259931,-1.2257561,-0.79985514)"
       x1="6"
       y1="39"
       x2="14.839"
       y2="29.808001" />
    <linearGradient
       id="linearGradient3178">
      <stop
         id="stop3180"
         style="stop-color:#a00"
         offset="0" />
      <stop
         id="stop3182"
         style="stop-color:#a00;stop-opacity:0"
         offset="1" />
    </linearGradient>
    <linearGradient
       inkscape:collect="always"
       xlink:href="#linearGradient4816"
       id="linearGradient3014"
       gradientUnits="userSpaceOnUse"
       gradientTransform="matrix(0.98279898,0,0,2.1790345,-13.036916,1.5391558)"
       x1="13.267747"
       y1="7.7190704"
       x2="13.267747"
       y2="12.480761" />
    <linearGradient
       id="linearGradient4816">
      <stop
         style="stop-color:#862078;stop-opacity:0.59607846;"
         offset="0"
         id="stop4818" />
      <stop
         style="stop-color:#204a87;stop-opacity:0;"
         offset="1"
         id="stop4820" />
    </linearGradient>
    <linearGradient
       y2="12.480761"
       x2="13.267747"
       y1="7.7190704"
       x1="13.267747"
       gradientTransform="matrix(3.0719109,0,0,7.585427,-13.529357,-47.151805)"
       gradientUnits="userSpaceOnUse"
       id="linearGradient3788"
       xlink:href="#linearGradient4816"
       inkscape:collect="always" />
    <radialGradient
       r="2.5"
       fy="43.5"
       fx="4.9929786"
       cy="43.5"
       cx="4.9929786"
       gradientTransform="matrix(2.746273,0,0,0.99691727,23.432254,27.612298)"
       gradientUnits="userSpaceOnUse"
       id="radialGradient3539"
       xlink:href="#linearGradient3688-166-749"
       inkscape:collect="always" />
    <linearGradient
       id="linearGradient3688-166-749">
      <stop
         id="stop2883"
         style="stop-color:#181818;stop-opacity:1"
         offset="0" />
      <stop
         id="stop2885"
         style="stop-color:#181818;stop-opacity:0"
         offset="1" />
    </linearGradient>
    <linearGradient
       gradientTransform="matrix(1.1540561,0,0,0.71208378,-3.1623485,11.634718)"
       x1="25.058096"
       y1="47.027729"
       x2="25.058096"
       y2="39.999443"
       id="linearGradient2459-6"
       xlink:href="#linearGradient3702-501-757"
       gradientUnits="userSpaceOnUse" />
    <linearGradient
       id="linearGradient3702-501-757">
      <stop
         id="stop2895"
         style="stop-color:#181818;stop-opacity:0"
         offset="0" />
      <stop
         id="stop2897"
         style="stop-color:#181818;stop-opacity:1"
         offset="0.5" />
      <stop
         id="stop2899"
         style="stop-color:#181818;stop-opacity:0"
         offset="1" />
    </linearGradient>
    <radialGradient
       inkscape:collect="always"
       xlink:href="#linearGradient3688-166-749"
       id="radialGradient3813"
       gradientUnits="userSpaceOnUse"
       gradientTransform="matrix(2.746273,0,0,0.99691727,-22.118921,-0.76879375)"
       cx="4.9929786"
       cy="43.5"
       fx="4.9929786"
       fy="43.5"
       r="2.5" />
    <linearGradient
       id="linearGradient3196">
      <stop
         id="stop3198"
         style="stop-color:#181818;stop-opacity:1"
         offset="0" />
      <stop
         id="stop3200"
         style="stop-color:#181818;stop-opacity:0"
         offset="1" />
    </linearGradient>
    <radialGradient
       inkscape:collect="always"
       xlink:href="#linearGradient7012-661-145-733-759-865-745-661-970-94-8"
       id="radialGradient2990"
       gradientUnits="userSpaceOnUse"
       gradientTransform="matrix(1.965263e-8,2.3065672,-2.5007812,-4.2495772e-8,45.222236,-12.354754)"
       cx="7.4956832"
       cy="8.4497671"
       fx="7.4956832"
       fy="8.4497671"
       r="19.99999" />
    <linearGradient
       id="linearGradient7012-661-145-733-759-865-745-661-970-94-8">
      <stop
         id="stop3618-1"
         style="stop-color:#f2f2f2;stop-opacity:1;"
         offset="0" />
      <stop
         id="stop3270-2"
         style="stop-color:#e2e2e2;stop-opacity:1;"
         offset="0.5" />
      <stop
         id="stop3620-8"
         style="stop-color:#bfbfbf;stop-opacity:1;"
         offset="1" />
    </linearGradient>
    <linearGradient
       inkscape:collect="always"
       xlink:href="#linearGradient3688-464-309"
       id="linearGradient3809"
       gradientUnits="userSpaceOnUse"
       gradientTransform="matrix(1.0115378,0,0,0.98698207,-0.18580243,-0.08182975)"
       x1="24"
       y1="44"
       x2="24"
       y2="3.8990016" />
    <linearGradient
       id="linearGradient3688-464-309">
      <stop
         id="stop2889"
         style="stop-color:#6a6a6a;stop-opacity:1;"
         offset="0" />
      <stop
         id="stop2891"
         style="stop-color:#7d7d7d;stop-opacity:0.78106511;"
         offset="1" />
    </linearGradient>
    <linearGradient
       x1="32"
       y1="16"
       x2="32"
       y2="6"
       id="linearGradient3880"
       xlink:href="#linearGradient3761"
       gradientUnits="userSpaceOnUse"
       gradientTransform="matrix(-0.47298348,0,0,0.47298348,46.78089,1.3159862)" />
    <linearGradient
       id="linearGradient3761">
      <stop
         id="stop3763"
         style="stop-color:#333333;stop-opacity:1"
         offset="0" />
      <stop
         id="stop3765"
         style="stop-color:#515151;stop-opacity:1"
         offset="1" />
    </linearGradient>
    <linearGradient
       inkscape:collect="always"
       xlink:href="#linearGradient3737"
       id="linearGradient3302"
       gradientUnits="userSpaceOnUse"
       x1="36.357143"
       y1="6"
       x2="36.357143"
       y2="63.893143"
       gradientTransform="matrix(-0.47298348,0,0,0.47298348,46.78089,1.3159862)" />
    <linearGradient
       id="linearGradient3737">
      <stop
         id="stop3739"
         style="stop-color:#ffffff;stop-opacity:1"
         offset="0" />
      <stop
         id="stop3741"
         style="stop-color:#ffffff;stop-opacity:0"
         offset="1" />
    </linearGradient>
    <linearGradient
       x1="9.1875"
       y1="13"
       x2="16.8125"
       y2="13"
       id="linearGradient3959"
       xlink:href="#linearGradient3953"
       gradientUnits="userSpaceOnUse"
       gradientTransform="matrix(0,-0.3941529,-0.3941529,0,45.283109,12.352268)" />
    <linearGradient
       id="linearGradient3953">
      <stop
         id="stop3955"
         style="stop-color:#000000;stop-opacity:1"
         offset="0" />
      <stop
         id="stop3957"
         style="stop-color:#000000;stop-opacity:0"
         offset="1" />
    </linearGradient>
    <linearGradient
       x1="10"
       y1="13"
       x2="16"
       y2="13"
       id="linearGradient3924"
       xlink:href="#linearGradient3183-0"
       gradientUnits="userSpaceOnUse"
       gradientTransform="matrix(0,-0.3941529,-0.3941529,0,45.283109,12.352268)" />
    <linearGradient
       id="linearGradient3183-0">
      <stop
         id="stop3185-9"
         style="stop-color:#c80000;stop-opacity:1"
         offset="0" />
      <stop
         id="stop3187-6"
         style="stop-color:#f3604d;stop-opacity:1"
         offset="1" />
    </linearGradient>
    <linearGradient
       x1="9.1875"
       y1="13"
       x2="16.8125"
       y2="13"
       id="linearGradient3967"
       xlink:href="#linearGradient3953"
       gradientUnits="userSpaceOnUse"
       gradientTransform="matrix(0,-0.3941529,-0.3941529,0,42.445208,12.352268)" />
    <linearGradient
       id="linearGradient3228">
      <stop
         id="stop3230"
         style="stop-color:#000000;stop-opacity:1"
         offset="0" />
      <stop
         id="stop3232"
         style="stop-color:#000000;stop-opacity:0"
         offset="1" />
    </linearGradient>
    <linearGradient
       x1="10"
       y1="13"
       x2="16"
       y2="13"
       id="linearGradient3969"
       xlink:href="#linearGradient3637"
       gradientUnits="userSpaceOnUse"
       gradientTransform="matrix(0,0.3941529,-0.3941529,0,42.445208,2.1042922)" />
    <linearGradient
       id="linearGradient3637">
      <stop
         id="stop3639"
         style="stop-color:#d4d4d4;stop-opacity:1"
         offset="0" />
      <stop
         id="stop3641"
         style="stop-color:#797979;stop-opacity:1"
         offset="1" />
    </linearGradient>
    <linearGradient
       x1="9.1875"
       y1="13"
       x2="16.8125"
       y2="13"
       id="linearGradient3977"
       xlink:href="#linearGradient3953"
       gradientUnits="userSpaceOnUse"
       gradientTransform="matrix(0,-0.3941529,-0.3941529,0,39.607307,12.352268)" />
    <linearGradient
       id="linearGradient3239">
      <stop
         id="stop3241"
         style="stop-color:#000000;stop-opacity:1"
         offset="0" />
      <stop
         id="stop3243"
         style="stop-color:#000000;stop-opacity:0"
         offset="1" />
    </linearGradient>
    <linearGradient
       x1="10"
       y1="13"
       x2="16"
       y2="13"
       id="linearGradient3979"
       xlink:href="#linearGradient3637"
       gradientUnits="userSpaceOnUse"
       gradientTransform="matrix(0,0.3941529,-0.3941529,0,39.607307,2.1042922)" />
    <linearGradient
       id="linearGradient3246">
      <stop
         id="stop3248"
         style="stop-color:#d4d4d4;stop-opacity:1"
         offset="0" />
      <stop
         id="stop3250"
         style="stop-color:#797979;stop-opacity:1"
         offset="1" />
    </linearGradient>
    <linearGradient
       x1="9.1875"
       y1="13"
       x2="16.8125"
       y2="13"
       id="linearGradient3987"
       xlink:href="#linearGradient3953"
       gradientUnits="userSpaceOnUse"
       gradientTransform="matrix(0,-0.3941529,-0.3941529,0,13.120232,12.352268)" />
    <linearGradient
       id="linearGradient3253">
      <stop
         id="stop3255"
         style="stop-color:#000000;stop-opacity:1"
         offset="0" />
      <stop
         id="stop3257"
         style="stop-color:#000000;stop-opacity:0"
         offset="1" />
    </linearGradient>
    <linearGradient
       x1="10"
       y1="13"
       x2="16"
       y2="13"
       id="linearGradient3989"
       xlink:href="#linearGradient3761"
       gradientUnits="userSpaceOnUse"
       gradientTransform="matrix(0,-0.3941529,-0.3941529,0,13.120232,12.352268)" />
    <linearGradient
       id="linearGradient3260">
      <stop
         id="stop3262"
         style="stop-color:#333333;stop-opacity:1"
         offset="0" />
      <stop
         id="stop3264"
         style="stop-color:#515151;stop-opacity:1"
         offset="1" />
    </linearGradient>
    <radialGradient
       r="2.5"
       fy="43.5"
       fx="4.9929786"
       cy="43.5"
       cx="4.9929786"
       gradientTransform="matrix(2.746273,0,0,0.99691727,26.970082,-0.75553875)"
       gradientUnits="userSpaceOnUse"
       id="radialGradient3311"
       xlink:href="#linearGradient3688-166-749"
       inkscape:collect="always" />
  </defs>
  <g
     id="g5022"
     style="opacity:0.58730002"
     transform="matrix(0.02440028,0,0,0.01412334,45.430596,43.553017)" />
  <rect
     width="6.8527174"
     height="4.9845862"
     x="40.691788"
     y="40.118073"
     id="rect2801"
     style="opacity:0.4;fill:url(#radialGradient3311);fill-opacity:1;stroke:none;display:inline" />
  <rect
     width="32.313572"
     height="4.9845862"
     x="8.378212"
     y="40.118073"
     id="rect3700"
     style="opacity:0.4;fill:url(#linearGradient2459-6);fill-opacity:1;stroke:none;display:inline" />
  <rect
     style="opacity:0.4;fill:url(#radialGradient3813);fill-opacity:1;stroke:none;display:inline"
     id="rect3811"
     y="40.104813"
     x="-8.3972187"
     height="4.9845862"
     width="6.8527174"
     transform="scale(-1,1)" />
  <rect
     style="color:#000000;fill:url(#radialGradient2990);fill-opacity:1;fill-rule:nonzero;stroke:url(#linearGradient3809);stroke-width:0.37833196;stroke-linecap:round;stroke-linejoin:round;stroke-miterlimit:4;stroke-opacity:1;stroke-dasharray:none;stroke-dashoffset:0;marker:none;visibility:visible;display:inline;overflow:visible;enable-background:accumulate"
     id="rect5505-21"
     y="4.3595915"
     x="4.3661194"
     ry="2.2422698"
     rx="2.2980568"
     height="38.492298"
     width="39.449978" />
  <path
     d="m 41.105088,4.1538872 c 1.572197,0 2.837901,1.265704 2.837901,2.837901 l 0,3.7838678 -39.7306122,0 0,-3.7838678 c 0,-1.572197 1.2657038,-2.837901 2.8379009,-2.837901 z"
     inkscape:connector-curvature="0"
     id="rect3101"
     style="color:#000000;fill:url(#linearGradient3880);fill-opacity:1;fill-rule:nonzero;stroke:none;stroke-width:1;marker:none;visibility:visible;display:inline;overflow:visible;enable-background:accumulate" />
  <path
     d="m 41.105088,4.1538872 c 1.572197,0 2.837901,1.265704 2.837901,2.837901 l 0,0.945967 0,2.8379008 -0.472984,0 0,-2.3649178 0,-0.945967 c 0,-1.315768 -1.049149,-2.364917 -2.364917,-2.364917 l -0.945967,0 -32.1628767,0 -0.9459666,0 c -1.3157681,0 -2.3649176,1.049149 -2.3649176,2.364917 l 0,0.945967 0,2.3649178 -0.4729833,0 0,-2.8379008 0,-0.945967 c 0,-1.572197 1.2657038,-2.837901 2.8379009,-2.837901 l 34.0548103,0 z"
     inkscape:connector-curvature="0"
     id="path3882"
     style="opacity:0.05;fill:url(#linearGradient3302);fill-opacity:1;fill-rule:nonzero;stroke:none" />
  <path
     d="m 41.661828,7.2282802 c 0,0.823059 -0.679648,1.502708 -1.502707,1.502708 -0.823058,0 -1.502708,-0.679649 -1.502708,-1.502708 0,-0.823059 0.67965,-1.502708 1.502708,-1.502708 0.823059,0 1.502707,0.679649 1.502707,1.502708 z"
     id="path3948"
     style="color:#000000;fill:url(#linearGradient3959);fill-opacity:1;fill-rule:nonzero;stroke:none;stroke-width:1;marker:none;visibility:visible;display:inline;overflow:visible;enable-background:accumulate"
     inkscape:connector-curvature="0" />
  <path
     d="m 40.159121,6.0458212 a 1.182459,1.182459 0 1 0 0,2.364918 1.182459,1.182459 0 0 0 0,-2.364918 z"
     id="path3889"
     style="color:#000000;fill:url(#linearGradient3924);fill-opacity:1;fill-rule:nonzero;stroke:none;stroke-width:1;marker:none;visibility:visible;display:inline;overflow:visible;enable-background:accumulate"
     inkscape:connector-curvature="0" />
  <path
     d="m 40.159121,6.0458212 c 0.653054,0 1.182459,0.529405 1.182459,1.182459 0,0.04081 -0.01074,0.0785 -0.01478,0.118246 -0.06055,-0.596262 -0.55544,-1.064213 -1.167678,-1.064213 -0.612238,0 -1.107124,0.467951 -1.167678,1.064213 -0.004,-0.03975 -0.01478,-0.07743 -0.01478,-0.118246 0,-0.653054 0.529404,-1.182459 1.182458,-1.182459 z"
     inkscape:connector-curvature="0"
     id="path3935"
     style="opacity:0.2;color:#000000;fill:#ffffff;fill-opacity:1;fill-rule:nonzero;stroke:none;stroke-width:1;marker:none;visibility:visible;display:inline;overflow:visible;enable-background:accumulate" />
  <path
     d="m 38.823928,7.2282802 c 0,0.823059 -0.679649,1.502708 -1.502708,1.502708 -0.823059,0 -1.502708,-0.679649 -1.502708,-1.502708 0,-0.823059 0.679649,-1.502708 1.502708,-1.502708 0.823059,0 1.502708,0.679649 1.502708,1.502708 z"
     id="path3961"
     style="color:#000000;fill:url(#linearGradient3967);fill-opacity:1;fill-rule:nonzero;stroke:none;stroke-width:1;marker:none;visibility:visible;display:inline;overflow:visible;enable-background:accumulate"
     inkscape:connector-curvature="0" />
  <path
     d="m 37.32122,8.4107392 a 1.182459,1.182459 0 1 1 0,-2.364918 1.182459,1.182459 0 0 1 0,2.364918 z"
     id="path3963"
     style="color:#000000;fill:url(#linearGradient3969);fill-opacity:1;fill-rule:nonzero;stroke:none;stroke-width:1;marker:none;visibility:visible;display:inline;overflow:visible;enable-background:accumulate"
     inkscape:connector-curvature="0" />
  <path
     d="m 37.32122,6.0458212 c 0.653054,0 1.182459,0.529405 1.182459,1.182459 0,0.04081 -0.01075,0.0785 -0.01478,0.118246 -0.06055,-0.596262 -0.55544,-1.064213 -1.167678,-1.064213 -0.612238,0 -1.107124,0.467951 -1.167678,1.064213 -0.004,-0.03975 -0.01478,-0.07743 -0.01478,-0.118246 0,-0.653054 0.529405,-1.182459 1.182458,-1.182459 z"
     inkscape:connector-curvature="0"
     id="path3965"
     style="opacity:0.3;color:#000000;fill:#ffffff;fill-opacity:1;fill-rule:nonzero;stroke:none;stroke-width:1;marker:none;visibility:visible;display:inline;overflow:visible;enable-background:accumulate" />
  <path
     d="m 35.986027,7.2282802 c 0,0.823059 -0.679649,1.502708 -1.502708,1.502708 -0.823059,0 -1.502708,-0.679649 -1.502708,-1.502708 0,-0.823059 0.679649,-1.502708 1.502708,-1.502708 0.823059,0 1.502708,0.679649 1.502708,1.502708 z"
     id="path3971"
     style="color:#000000;fill:url(#linearGradient3977);fill-opacity:1;fill-rule:nonzero;stroke:none;stroke-width:1;marker:none;visibility:visible;display:inline;overflow:visible;enable-background:accumulate"
     inkscape:connector-curvature="0" />
  <path
     d="m 34.483319,8.4107392 a 1.182459,1.182459 0 1 1 0,-2.364918 1.182459,1.182459 0 0 1 0,2.364918 z"
     id="path3973"
     style="color:#000000;fill:url(#linearGradient3979);fill-opacity:1;fill-rule:nonzero;stroke:none;stroke-width:1;marker:none;visibility:visible;display:inline;overflow:visible;enable-background:accumulate"
     inkscape:connector-curvature="0" />
  <path
     d="m 34.483319,6.0458212 c 0.653054,0 1.182459,0.529405 1.182459,1.182459 0,0.04081 -0.01075,0.0785 -0.01478,0.118246 -0.06055,-0.596262 -0.55544,-1.064213 -1.167678,-1.064213 -0.612238,0 -1.107124,0.467951 -1.167677,1.064213 -0.004,-0.03975 -0.01478,-0.07743 -0.01478,-0.118246 0,-0.653054 0.529405,-1.182459 1.182458,-1.182459 z"
     inkscape:connector-curvature="0"
     id="path3975"
     style="opacity:0.3;color:#000000;fill:#ffffff;fill-opacity:1;fill-rule:nonzero;stroke:none;stroke-width:1;marker:none;visibility:visible;display:inline;overflow:visible;enable-background:accumulate" />
  <path
     d="m 9.4989521,7.2282802 c 0,0.823059 -0.6796496,1.502708 -1.5027078,1.502708 -0.8230584,0 -1.502708,-0.679649 -1.502708,-1.502708 0,-0.823059 0.6796496,-1.502708 1.502708,-1.502708 0.8230582,0 1.5027078,0.679649 1.5027078,1.502708 z"
     id="path3981"
     style="color:#000000;fill:url(#linearGradient3987);fill-opacity:1;fill-rule:nonzero;stroke:none;stroke-width:1;marker:none;visibility:visible;display:inline;overflow:visible;enable-background:accumulate"
     inkscape:connector-curvature="0" />
  <path
     d="m 7.9962443,6.0458212 a 1.182459,1.182459 0 1 0 0,2.364918 1.182459,1.182459 0 0 0 0,-2.364918 z"
     id="path3983"
     style="color:#000000;fill:url(#linearGradient3989);fill-opacity:1;fill-rule:nonzero;stroke:none;stroke-width:1;marker:none;visibility:visible;display:inline;overflow:visible;enable-background:accumulate"
     inkscape:connector-curvature="0" />
  <path
     d="m 7.9962443,6.0458212 c 0.6530542,0 1.1824586,0.529405 1.1824586,1.182459 0,0.04081 -0.010746,0.0785 -0.01478,0.118246 -0.060554,-0.596262 -0.5554403,-1.064213 -1.1676781,-1.064213 -0.6122375,0 -1.1071243,0.467951 -1.1676779,1.064213 -0.00404,-0.03975 -0.01478,-0.07743 -0.01478,-0.118246 0,-0.653054 0.5294044,-1.182459 1.1824582,-1.182459 z"
     inkscape:connector-curvature="0"
     id="path3985"
     style="opacity:0.2;color:#000000;fill:#ffffff;fill-opacity:1;fill-rule:nonzero;stroke:none;stroke-width:1;marker:none;visibility:visible;display:inline;overflow:visible;enable-background:accumulate" />
  <g
     transform="matrix(0.303576,0,0,0.303576,7.9314252,3.2194482)"
     id="g3715"
     style="font-size:8px;font-style:normal;font-variant:normal;font-weight:bold;font-stretch:normal;text-align:start;line-height:125%;writing-mode:lr-tb;text-anchor:start;fill:#000000;fill-opacity:1;stroke:none;font-family:Droid Sans;-inkscape-font-specification:Abandoned Bitplane Bold">
    <path
       d="m 19.026227,14.949776 c -4e-6,0.255209 -0.04427,0.485678 -0.132813,0.691406 -0.08594,0.203126 -0.213545,0.377605 -0.382812,0.523437 -0.16667,0.14323 -0.372399,0.253907 -0.617188,0.332032 -0.242189,0.07813 -0.520835,0.117187 -0.835937,0.117187 -0.276043,0 -0.54297,-0.02865 -0.800781,-0.08594 -0.255209,-0.05729 -0.492188,-0.143229 -0.710938,-0.257813 l 0,-1.125 c 0.125,0.0599 0.251302,0.118491 0.378906,0.175781 0.127604,0.05469 0.25651,0.104168 0.386719,0.148438 0.132811,0.04427 0.264322,0.07943 0.394531,0.105469 0.132811,0.02604 0.264322,0.03906 0.394532,0.03906 0.13281,1e-6 0.246091,-0.01432 0.339843,-0.04297 0.09635,-0.03125 0.173175,-0.07292 0.230469,-0.125 0.05989,-0.05469 0.102862,-0.118488 0.128906,-0.191406 0.02864,-0.07552 0.04297,-0.15755 0.04297,-0.246094 -2e-6,-0.106769 -0.02344,-0.200519 -0.07031,-0.28125 -0.04427,-0.08333 -0.108076,-0.160154 -0.191407,-0.230468 -0.08073,-0.07292 -0.179689,-0.143227 -0.296875,-0.210938 -0.114585,-0.06771 -0.243491,-0.13932 -0.386718,-0.214844 -0.119794,-0.0625 -0.253908,-0.138018 -0.402344,-0.226562 -0.148439,-0.08854 -0.289064,-0.197914 -0.421875,-0.328125 -0.130209,-0.132809 -0.239584,-0.291663 -0.328125,-0.476563 -0.08854,-0.187496 -0.132813,-0.411454 -0.132813,-0.671875 0,-0.255203 0.04167,-0.483068 0.125,-0.683593 0.08594,-0.20312 0.207031,-0.373693 0.363282,-0.511719 0.156249,-0.14062 0.345051,-0.24739 0.566406,-0.320313 0.223957,-0.07291 0.473956,-0.109369 0.75,-0.109375 0.138018,6e-6 0.272133,0.0091 0.402344,0.02734 0.132809,0.01824 0.263018,0.04428 0.390625,0.07813 0.130205,0.03386 0.260413,0.07553 0.390625,0.125 0.130205,0.04949 0.264319,0.106776 0.402343,0.171875 l -0.390625,0.941406 c -0.11719,-0.05468 -0.226565,-0.10286 -0.328125,-0.144531 -0.101565,-0.04166 -0.200523,-0.07682 -0.296875,-0.105469 -0.09636,-0.02864 -0.191408,-0.04947 -0.285156,-0.0625 -0.09115,-0.01562 -0.183596,-0.02343 -0.277344,-0.02344 -0.203127,5e-6 -0.359376,0.05469 -0.46875,0.164062 -0.106772,0.106776 -0.160157,0.250005 -0.160156,0.429688 -10e-7,0.09636 0.01562,0.182296 0.04687,0.257812 0.03385,0.07292 0.08594,0.141931 0.15625,0.207032 0.07292,0.06511 0.165363,0.131514 0.277344,0.199218 0.114581,0.06771 0.252602,0.144535 0.414062,0.230469 0.19531,0.10417 0.374998,0.210941 0.539063,0.320313 0.164059,0.106773 0.304684,0.226565 0.421875,0.359375 0.119788,0.130211 0.212236,0.278648 0.277344,0.445312 0.0651,0.166669 0.09765,0.361981 0.09766,0.585938"
       inkscape:connector-curvature="0"
       id="path3717"
       style="fill:#000000" />
    <path
       d="m 19.366071,12.168526 1.304687,0 0.703125,2.457031 c 0.04167,0.135418 0.07161,0.279949 0.08984,0.433594 0.02083,0.153647 0.03385,0.291668 0.03906,0.414062 l 0.02344,0 c 0.0052,-0.05989 0.01172,-0.126301 0.01953,-0.199219 0.01042,-0.07292 0.02213,-0.147134 0.03516,-0.222656 0.01302,-0.07552 0.02734,-0.149738 0.04297,-0.222656 0.01823,-0.07552 0.03646,-0.143227 0.05469,-0.203125 l 0.6875,-2.457031 1.3125,0 -1.726563,4.925781 c -0.161461,0.460936 -0.381512,0.803384 -0.660156,1.027344 -0.278647,0.223956 -0.627605,0.335935 -1.046875,0.335937 -0.135417,-2e-6 -0.252605,-0.0078 -0.351563,-0.02344 -0.09896,-0.01302 -0.183594,-0.02735 -0.253906,-0.04297 l 0,-0.945313 c 0.05469,0.01302 0.123698,0.02474 0.207031,0.03516 0.08333,0.01041 0.170573,0.01562 0.261719,0.01563 0.124999,-1e-6 0.23177,-0.01693 0.320313,-0.05078 0.08854,-0.03385 0.164061,-0.08203 0.226562,-0.144531 0.0651,-0.0599 0.119791,-0.132813 0.164063,-0.21875 0.04687,-0.08594 0.08724,-0.182292 0.121093,-0.289062 l 0.07422,-0.21875 -1.648437,-4.40625"
       inkscape:connector-curvature="0"
       id="path3719"
       style="fill:#000000" />
    <path
       d="m 27.213727,15.238838 c -4e-6,0.229168 -0.04167,0.429689 -0.125,0.601563 -0.08334,0.171875 -0.201826,0.315104 -0.355469,0.429687 -0.153648,0.114584 -0.339846,0.200521 -0.558594,0.257813 -0.218752,0.05729 -0.463543,0.08594 -0.734375,0.08594 -0.14323,0 -0.276043,-0.0052 -0.398437,-0.01563 -0.122397,-0.0078 -0.238282,-0.02214 -0.347656,-0.04297 -0.109376,-0.02083 -0.214845,-0.04687 -0.316407,-0.07813 -0.101563,-0.03125 -0.204427,-0.07031 -0.308593,-0.117187 l 0,-0.984375 c 0.109374,0.05469 0.223957,0.104168 0.34375,0.148437 0.122395,0.04427 0.243488,0.08333 0.363281,0.117188 0.11979,0.03125 0.235676,0.05599 0.347656,0.07422 0.114582,0.01823 0.220051,0.02734 0.316406,0.02734 0.106769,10e-7 0.197915,-0.0091 0.273438,-0.02734 0.07552,-0.02083 0.136717,-0.04818 0.183594,-0.08203 0.04948,-0.03646 0.08463,-0.07812 0.105468,-0.125 0.02344,-0.04948 0.03515,-0.101561 0.03516,-0.15625 -3e-6,-0.05469 -0.0091,-0.102863 -0.02734,-0.144531 -0.01563,-0.04427 -0.05339,-0.08984 -0.113281,-0.136719 -0.0599,-0.04948 -0.14844,-0.104165 -0.265625,-0.164062 -0.114585,-0.0625 -0.269533,-0.138019 -0.464844,-0.226563 -0.190105,-0.08593 -0.35547,-0.17057 -0.496094,-0.253906 -0.138021,-0.08593 -0.252605,-0.180987 -0.34375,-0.285156 -0.08854,-0.104164 -0.154948,-0.222654 -0.199219,-0.355469 -0.04427,-0.135414 -0.06641,-0.29557 -0.06641,-0.480469 0,-0.203121 0.03906,-0.380204 0.117188,-0.53125 0.07812,-0.153641 0.188801,-0.281246 0.332031,-0.382812 0.143228,-0.101558 0.315103,-0.177079 0.515625,-0.226563 0.203123,-0.05208 0.428384,-0.07812 0.675781,-0.07813 0.260415,5e-6 0.50781,0.02995 0.742188,0.08984 0.234372,0.0599 0.475257,0.149744 0.722656,0.269531 l -0.359375,0.84375 c -0.19792,-0.09375 -0.386721,-0.170569 -0.566406,-0.230468 -0.17969,-0.05989 -0.359377,-0.08984 -0.539063,-0.08984 -0.16146,4e-6 -0.278647,0.02865 -0.351562,0.08594 -0.07031,0.0573 -0.105471,0.13542 -0.105469,0.234375 -2e-6,0.05209 0.0091,0.09896 0.02734,0.140625 0.01823,0.03907 0.05469,0.08073 0.109375,0.125 0.05468,0.04167 0.131508,0.08854 0.230468,0.140625 0.09896,0.04948 0.227863,0.11068 0.386719,0.183594 0.184894,0.08073 0.35156,0.161461 0.5,0.242188 0.148435,0.07813 0.276039,0.167971 0.382813,0.269531 0.106767,0.101564 0.188798,0.220054 0.246093,0.355469 0.05729,0.135418 0.08593,0.29948 0.08594,0.492187"
       inkscape:connector-curvature="0"
       id="path3721"
       style="fill:#000000" />
    <path
       d="m 29.920758,15.664619 c 0.117185,10e-7 0.227862,-0.01302 0.332031,-0.03906 0.106768,-0.02604 0.214841,-0.05859 0.324219,-0.09766 l 0,0.886718 c -0.111982,0.05729 -0.251305,0.104167 -0.417969,0.140625 -0.164064,0.03906 -0.343752,0.05859 -0.539062,0.05859 -0.190106,0 -0.367189,-0.02214 -0.53125,-0.06641 -0.164064,-0.04427 -0.305991,-0.121094 -0.425781,-0.230469 -0.119793,-0.111979 -0.214845,-0.260416 -0.285157,-0.445312 -0.06771,-0.187499 -0.101563,-0.421874 -0.101562,-0.703125 l 0,-2.105469 -0.570313,0 0,-0.503906 0.65625,-0.398438 0.34375,-0.921875 0.761719,0 0,0.929688 1.0625,0 0,0.894531 -1.0625,0 0,2.105469 c -2e-6,0.169272 0.04167,0.294272 0.125,0.375 0.08333,0.08073 0.192706,0.121094 0.328125,0.121093"
       inkscape:connector-curvature="0"
       id="path3723"
       style="fill:#000000" />
    <path
       d="m 33.225446,12.934151 c -0.21094,3e-6 -0.386721,0.07422 -0.527344,0.222656 -0.138023,0.148441 -0.21745,0.381513 -0.238281,0.699219 l 1.519531,0 c -0.0026,-0.13281 -0.01953,-0.255206 -0.05078,-0.367188 -0.03125,-0.111976 -0.07813,-0.20833 -0.140625,-0.289062 -0.0625,-0.08333 -0.140628,-0.148434 -0.234375,-0.195313 -0.09375,-0.04687 -0.203128,-0.07031 -0.328125,-0.07031 m 0.152343,3.679687 c -0.312502,0 -0.600262,-0.04557 -0.863281,-0.136719 -0.263022,-0.09114 -0.489584,-0.227864 -0.679687,-0.410156 -0.190105,-0.184895 -0.338543,-0.416666 -0.445313,-0.695312 -0.104167,-0.281249 -0.15625,-0.610676 -0.15625,-0.988282 0,-0.38281 0.04818,-0.717445 0.144531,-1.003906 0.09635,-0.286455 0.230468,-0.524736 0.402344,-0.714844 0.174478,-0.192704 0.382811,-0.337235 0.625,-0.433593 0.24479,-0.09635 0.515623,-0.144527 0.8125,-0.144532 0.28906,5e-6 0.549476,0.04428 0.78125,0.132813 0.234372,0.08594 0.432288,0.213546 0.59375,0.382812 0.164059,0.169275 0.289059,0.377608 0.375,0.625 0.08854,0.244795 0.132808,0.526045 0.132813,0.84375 l 0,0.578125 -2.664063,0 c 0.0052,0.166669 0.03125,0.31771 0.07813,0.453125 0.04948,0.132814 0.117186,0.246095 0.203125,0.339844 0.08854,0.09115 0.194009,0.161459 0.316406,0.210938 0.124998,0.04948 0.266925,0.07422 0.425782,0.07422 0.132809,10e-7 0.257809,-0.0065 0.375,-0.01953 0.119788,-0.01562 0.235674,-0.03776 0.347656,-0.06641 0.111976,-0.02865 0.222653,-0.0638 0.332031,-0.105469 0.109371,-0.04427 0.221351,-0.09505 0.335938,-0.152344 l 0,0.921875 c -0.104171,0.05469 -0.209639,0.101563 -0.316407,0.140625 -0.10417,0.03646 -0.214847,0.06771 -0.332031,0.09375 -0.117191,0.02604 -0.243492,0.04427 -0.378906,0.05469 -0.13542,0.01302 -0.283857,0.01953 -0.445313,0.01953"
       inkscape:connector-curvature="0"
       id="path3725"
       style="fill:#000000" />
    <path
       d="m 39.866071,16.535713 -1.191407,0 0,-2.550781 c -3e-6,-0.315101 -0.04688,-0.550778 -0.140625,-0.707031 -0.09375,-0.158851 -0.240888,-0.238278 -0.441406,-0.238282 -0.151044,4e-6 -0.277346,0.03125 -0.378906,0.09375 -0.09896,0.0625 -0.178387,0.154952 -0.238281,0.277344 -0.0599,0.122399 -0.102867,0.273441 -0.128907,0.453125 -0.02604,0.17969 -0.03906,0.385419 -0.03906,0.617188 l 0,2.054687 -1.191406,0 0,-4.367187 0.910156,0 0.160156,0.558593 0.06641,0 c 0.0625,-0.111975 0.136717,-0.208329 0.222657,-0.289062 0.08854,-0.08073 0.184893,-0.147131 0.289062,-0.199219 0.104165,-0.05208 0.214842,-0.08984 0.332031,-0.113281 0.117185,-0.02604 0.235675,-0.03906 0.355469,-0.03906 0.299476,5e-6 0.553382,0.05209 0.761719,0.15625 0.210934,0.101567 0.372392,0.263025 0.484375,0.484375 l 0.09766,0 c 0.0625,-0.111975 0.138017,-0.208329 0.226563,-0.289062 0.08854,-0.08073 0.186193,-0.147131 0.292968,-0.199219 0.106766,-0.05208 0.218745,-0.08984 0.335938,-0.113281 0.119786,-0.02604 0.239578,-0.03906 0.359375,-0.03906 0.468744,5e-6 0.821608,0.127609 1.058594,0.382813 0.239576,0.252608 0.359368,0.658858 0.359375,1.21875 l 0,2.847656 -1.195313,0 0,-2.550781 c -5e-6,-0.315101 -0.04688,-0.550778 -0.140625,-0.707031 -0.09376,-0.158851 -0.240891,-0.238278 -0.441406,-0.238282 -0.283859,4e-6 -0.485682,0.113285 -0.605469,0.339844 -0.119796,0.223961 -0.179692,0.545576 -0.179687,0.964844 l 0,2.191406"
       inkscape:connector-curvature="0"
       id="path3727"
       style="fill:#000000" />
    <path
       d="m 49.061383,16.535713 -0.335937,-1.527344 c -0.01042,-0.04427 -0.02474,-0.106769 -0.04297,-0.1875 -0.01563,-0.08333 -0.03386,-0.175779 -0.05469,-0.277343 -0.02084,-0.104165 -0.04297,-0.21354 -0.06641,-0.328125 -0.02084,-0.117185 -0.04297,-0.233071 -0.06641,-0.347657 -0.05209,-0.268226 -0.109378,-0.557288 -0.171875,-0.867187 l -0.02344,0 c -0.0599,0.309899 -0.114586,0.600263 -0.164062,0.871094 -0.02084,0.114586 -0.04297,0.230471 -0.06641,0.347656 -0.02084,0.11719 -0.04167,0.227867 -0.0625,0.332031 -0.02084,0.101565 -0.04037,0.194012 -0.05859,0.277344 -0.01563,0.08333 -0.02865,0.148439 -0.03906,0.195312 l -0.351562,1.511719 -1.28125,0 -1.175781,-4.367187 1.183593,0 0.441407,1.933593 c 0.02344,0.101565 0.04687,0.223961 0.07031,0.367188 0.02604,0.140627 0.04948,0.283856 0.07031,0.429687 0.02343,0.143231 0.04427,0.27995 0.0625,0.410157 0.01823,0.127605 0.03255,0.229167 0.04297,0.304687 l 0.02344,0 c 0.0026,-0.04948 0.0078,-0.11328 0.01563,-0.191406 0.01042,-0.08073 0.02213,-0.166665 0.03516,-0.257813 0.01302,-0.09114 0.02604,-0.183592 0.03906,-0.277343 0.01562,-0.09635 0.02995,-0.186196 0.04297,-0.269532 0.01562,-0.08333 0.02864,-0.156247 0.03906,-0.21875 0.01302,-0.0651 0.02343,-0.110674 0.03125,-0.136718 l 0.476562,-2.09375 1.3125,0 0.457032,2.09375 c 0.01302,0.05729 0.02994,0.145835 0.05078,0.265625 0.02083,0.119793 0.04166,0.248699 0.0625,0.386718 0.02343,0.135419 0.04296,0.268231 0.05859,0.398438 0.01562,0.127605 0.02473,0.227866 0.02734,0.300781 l 0.02344,0 c 0.0078,-0.0651 0.02083,-0.161457 0.03906,-0.289062 0.02083,-0.127603 0.04297,-0.264322 0.06641,-0.410157 0.02343,-0.148435 0.04817,-0.295571 0.07422,-0.441406 0.02864,-0.145831 0.05468,-0.269529 0.07813,-0.371094 l 0.457032,-1.933593 1.167968,0 -1.191406,4.367187 -1.296875,0"
       inkscape:connector-curvature="0"
       id="path3729"
       style="fill:#000000" />
    <path
       d="m 52.127789,11.039619 c 0,-0.111973 0.01693,-0.204421 0.05078,-0.277343 0.03385,-0.07551 0.07943,-0.135411 0.136718,-0.179688 0.0599,-0.04687 0.128906,-0.07942 0.207032,-0.09766 0.08073,-0.01822 0.165363,-0.02734 0.253906,-0.02734 0.08854,6e-6 0.171874,0.0091 0.25,0.02734 0.07812,0.01823 0.145832,0.05079 0.203125,0.09766 0.05989,0.04428 0.106769,0.104173 0.140625,0.179688 0.03646,0.07292 0.05469,0.16537 0.05469,0.277343 -10e-7,0.109381 -0.01823,0.201829 -0.05469,0.277344 -0.03386,0.07553 -0.08073,0.136724 -0.140625,0.183594 -0.05729,0.04428 -0.125002,0.07683 -0.203125,0.09766 -0.07813,0.01823 -0.16146,0.02735 -0.25,0.02734 -0.08854,5e-6 -0.173178,-0.0091 -0.253906,-0.02734 -0.07813,-0.02083 -0.147136,-0.05338 -0.207032,-0.09766 -0.05729,-0.04687 -0.102865,-0.108068 -0.136718,-0.183594 -0.03385,-0.07551 -0.05078,-0.167963 -0.05078,-0.277344 m 1.242188,5.496094 -1.191406,0 0,-4.367187 1.191406,0 0,4.367187"
       inkscape:connector-curvature="0"
       id="path3731"
       style="fill:#000000" />
    <path
       d="m 58.405133,16.535713 -1.191406,0 0,-2.550781 c -3e-6,-0.315101 -0.04818,-0.550778 -0.144531,-0.707031 -0.09375,-0.158851 -0.244795,-0.238278 -0.453125,-0.238282 -0.156253,4e-6 -0.286461,0.03125 -0.390625,0.09375 -0.104169,0.0625 -0.187502,0.154952 -0.25,0.277344 -0.0599,0.122399 -0.102867,0.273441 -0.128907,0.453125 -0.02604,0.17969 -0.03906,0.385419 -0.03906,0.617188 l 0,2.054687 -1.191406,0 0,-4.367187 0.910156,0 0.160156,0.558593 0.06641,0 c 0.0625,-0.111975 0.138019,-0.208329 0.226563,-0.289062 0.09114,-0.08073 0.190102,-0.147131 0.296875,-0.199219 0.106768,-0.05208 0.22005,-0.08984 0.339844,-0.113281 0.119789,-0.02604 0.242184,-0.03906 0.367187,-0.03906 0.213539,5e-6 0.407549,0.03125 0.582031,0.09375 0.174476,0.0599 0.324215,0.154953 0.449219,0.285157 0.124996,0.130212 0.22135,0.296878 0.289063,0.5 0.0677,0.200524 0.101558,0.441409 0.101562,0.722656 l 0,2.847656"
       inkscape:connector-curvature="0"
       id="path3733"
       style="fill:#000000" />
    <path
       d="m 60.916852,16.613838 c -0.22396,0 -0.428387,-0.04818 -0.613281,-0.144531 -0.184897,-0.09635 -0.343751,-0.238281 -0.476563,-0.425781 -0.132813,-0.190104 -0.23698,-0.425781 -0.3125,-0.707032 -0.07292,-0.281248 -0.109375,-0.606769 -0.109375,-0.976562 0,-0.374998 0.03646,-0.703122 0.109375,-0.984375 0.07552,-0.283851 0.180989,-0.52083 0.316406,-0.710938 0.13802,-0.192704 0.302083,-0.337235 0.492188,-0.433593 0.190103,-0.09635 0.399738,-0.144527 0.628906,-0.144532 0.140623,5e-6 0.269529,0.01693 0.386719,0.05078 0.117185,0.03125 0.222654,0.07683 0.316406,0.136718 0.09375,0.0573 0.177081,0.125005 0.25,0.203125 0.07552,0.07553 0.141924,0.158859 0.199219,0.25 l 0.03906,0 c -0.01563,-0.101558 -0.02995,-0.204423 -0.04297,-0.308593 -0.01302,-0.08854 -0.02474,-0.182288 -0.03516,-0.28125 -0.0078,-0.101558 -0.01172,-0.195308 -0.01172,-0.28125 l 0,-1.398438 1.191406,0 0,6.078125 -0.910156,0 -0.230469,-0.566406 -0.05078,0 c -0.05469,0.08854 -0.117191,0.173177 -0.1875,0.253906 -0.07032,0.07813 -0.152347,0.145834 -0.246094,0.203125 -0.09115,0.05729 -0.195315,0.102865 -0.3125,0.136719 -0.114586,0.03385 -0.244794,0.05078 -0.390625,0.05078 m 0.433594,-0.949219 c 0.140622,10e-7 0.260414,-0.02344 0.359375,-0.07031 0.09896,-0.04948 0.178382,-0.122395 0.238281,-0.21875 0.0625,-0.09896 0.10807,-0.221353 0.136719,-0.367188 0.03125,-0.145831 0.04817,-0.316404 0.05078,-0.511718 l 0,-0.128907 c -3e-6,-0.210935 -0.01302,-0.398434 -0.03906,-0.5625 -0.02604,-0.164059 -0.06901,-0.300778 -0.128906,-0.410156 -0.0599,-0.111976 -0.140628,-0.196611 -0.242187,-0.253906 -0.101565,-0.05729 -0.229169,-0.08593 -0.382813,-0.08594 -0.250002,4e-6 -0.433595,0.113285 -0.550781,0.339844 -0.117189,0.223961 -0.175783,0.550784 -0.175781,0.980469 -2e-6,0.429689 0.05859,0.752606 0.175781,0.96875 0.11979,0.213543 0.305987,0.320313 0.558594,0.320312"
       inkscape:connector-curvature="0"
       id="path3735"
       style="fill:#000000" />
    <path
       d="m 65.483258,14.344307 c -1e-6,0.434898 0.0612,0.763022 0.183594,0.984375 0.122394,0.218751 0.321612,0.328126 0.597656,0.328125 0.273435,10e-7 0.471352,-0.110676 0.59375,-0.332031 0.122393,-0.221353 0.183591,-0.548176 0.183594,-0.980469 -3e-6,-0.434893 -0.0612,-0.759112 -0.183594,-0.972656 -0.122398,-0.216143 -0.322919,-0.324216 -0.601562,-0.324219 -0.27344,3e-6 -0.471356,0.108076 -0.59375,0.324219 -0.119794,0.213544 -0.179689,0.537763 -0.179688,0.972656 m 2.773438,0 c -5e-6,0.364585 -0.04688,0.687501 -0.140625,0.96875 -0.09115,0.281251 -0.223963,0.51823 -0.398438,0.710937 -0.171878,0.192709 -0.382816,0.339844 -0.632812,0.441407 -0.247399,0.09896 -0.526045,0.148437 -0.835938,0.148437 -0.289064,0 -0.554689,-0.04948 -0.796875,-0.148437 -0.242189,-0.101563 -0.451824,-0.248698 -0.628906,-0.441407 -0.17448,-0.192707 -0.311199,-0.429686 -0.410156,-0.710937 -0.09896,-0.281249 -0.148438,-0.604165 -0.148438,-0.96875 0,-0.361977 0.04557,-0.683591 0.136719,-0.964844 0.09375,-0.281246 0.226562,-0.516923 0.398437,-0.707031 0.174479,-0.192704 0.385416,-0.338538 0.632813,-0.4375 0.247394,-0.09895 0.527342,-0.148433 0.839844,-0.148438 0.28906,5e-6 0.554684,0.04948 0.796875,0.148438 0.242184,0.09896 0.450517,0.244796 0.625,0.4375 0.177079,0.190108 0.3151,0.425785 0.414062,0.707031 0.09895,0.281253 0.148433,0.602867 0.148438,0.964844"
       inkscape:connector-curvature="0"
       id="path3737"
       style="fill:#000000" />
    <path
       d="m 72.623883,16.535713 -0.335937,-1.527344 c -0.01042,-0.04427 -0.02474,-0.106769 -0.04297,-0.1875 -0.01563,-0.08333 -0.03386,-0.175779 -0.05469,-0.277343 -0.02084,-0.104165 -0.04297,-0.21354 -0.06641,-0.328125 -0.02084,-0.117185 -0.04297,-0.233071 -0.06641,-0.347657 -0.05209,-0.268226 -0.109378,-0.557288 -0.171875,-0.867187 l -0.02344,0 c -0.0599,0.309899 -0.114586,0.600263 -0.164062,0.871094 -0.02084,0.114586 -0.04297,0.230471 -0.06641,0.347656 -0.02084,0.11719 -0.04167,0.227867 -0.0625,0.332031 -0.02084,0.101565 -0.04037,0.194012 -0.05859,0.277344 -0.01563,0.08333 -0.02865,0.148439 -0.03906,0.195312 l -0.351562,1.511719 -1.28125,0 -1.175781,-4.367187 1.183593,0 0.441407,1.933593 c 0.02344,0.101565 0.04687,0.223961 0.07031,0.367188 0.02604,0.140627 0.04948,0.283856 0.07031,0.429687 0.02343,0.143231 0.04427,0.27995 0.0625,0.410157 0.01823,0.127605 0.03255,0.229167 0.04297,0.304687 l 0.02344,0 c 0.0026,-0.04948 0.0078,-0.11328 0.01563,-0.191406 0.01041,-0.08073 0.02213,-0.166665 0.03516,-0.257813 0.01302,-0.09114 0.02604,-0.183592 0.03906,-0.277343 0.01562,-0.09635 0.02995,-0.186196 0.04297,-0.269532 0.01562,-0.08333 0.02864,-0.156247 0.03906,-0.21875 0.01302,-0.0651 0.02343,-0.110674 0.03125,-0.136718 l 0.476562,-2.09375 1.3125,0 0.457032,2.09375 c 0.01302,0.05729 0.02994,0.145835 0.05078,0.265625 0.02083,0.119793 0.04166,0.248699 0.0625,0.386718 0.02343,0.135419 0.04296,0.268231 0.05859,0.398438 0.01562,0.127605 0.02473,0.227866 0.02734,0.300781 l 0.02344,0 c 0.0078,-0.0651 0.02083,-0.161457 0.03906,-0.289062 0.02083,-0.127603 0.04296,-0.264322 0.06641,-0.410157 0.02343,-0.148435 0.04817,-0.295571 0.07422,-0.441406 0.02864,-0.145831 0.05468,-0.269529 0.07813,-0.371094 l 0.457032,-1.933593 1.167968,0 -1.191406,4.367187 -1.296875,0"
       inkscape:connector-curvature="0"
       id="path3739"
       style="fill:#000000" />
  </g>
  <g
     transform="matrix(0.303576,0,0,0.303576,7.9314252,2.9827832)"
     id="text3686"
     style="font-size:8px;font-style:normal;font-variant:normal;font-weight:bold;font-stretch:normal;text-align:start;line-height:125%;writing-mode:lr-tb;text-anchor:start;fill:#ececec;fill-opacity:1;stroke:none;font-family:Droid Sans;-inkscape-font-specification:Abandoned Bitplane Bold">
    <path
       d="m 19.026227,14.949776 c -4e-6,0.255209 -0.04427,0.485678 -0.132813,0.691406 -0.08594,0.203126 -0.213545,0.377605 -0.382812,0.523437 -0.16667,0.14323 -0.372399,0.253907 -0.617188,0.332032 -0.242189,0.07813 -0.520835,0.117187 -0.835937,0.117187 -0.276043,0 -0.54297,-0.02865 -0.800781,-0.08594 -0.255209,-0.05729 -0.492188,-0.143229 -0.710938,-0.257813 l 0,-1.125 c 0.125,0.0599 0.251302,0.118491 0.378906,0.175781 0.127604,0.05469 0.25651,0.104168 0.386719,0.148438 0.132811,0.04427 0.264322,0.07943 0.394531,0.105469 0.132811,0.02604 0.264322,0.03906 0.394532,0.03906 0.13281,1e-6 0.246091,-0.01432 0.339843,-0.04297 0.09635,-0.03125 0.173175,-0.07292 0.230469,-0.125 0.05989,-0.05469 0.102862,-0.118488 0.128906,-0.191406 0.02864,-0.07552 0.04297,-0.15755 0.04297,-0.246094 -2e-6,-0.106769 -0.02344,-0.200519 -0.07031,-0.28125 -0.04427,-0.08333 -0.108076,-0.160154 -0.191407,-0.230468 -0.08073,-0.07292 -0.179689,-0.143227 -0.296875,-0.210938 -0.114585,-0.06771 -0.243491,-0.13932 -0.386718,-0.214844 -0.119794,-0.0625 -0.253908,-0.138018 -0.402344,-0.226562 -0.148439,-0.08854 -0.289064,-0.197914 -0.421875,-0.328125 -0.130209,-0.132809 -0.239584,-0.291663 -0.328125,-0.476563 -0.08854,-0.187496 -0.132813,-0.411454 -0.132813,-0.671875 0,-0.255203 0.04167,-0.483068 0.125,-0.683593 0.08594,-0.20312 0.207031,-0.373693 0.363282,-0.511719 0.156249,-0.14062 0.345051,-0.24739 0.566406,-0.320313 0.223957,-0.07291 0.473956,-0.109369 0.75,-0.109375 0.138018,6e-6 0.272133,0.0091 0.402344,0.02734 0.132809,0.01824 0.263018,0.04428 0.390625,0.07813 0.130205,0.03386 0.260413,0.07553 0.390625,0.125 0.130205,0.04949 0.264319,0.106776 0.402343,0.171875 l -0.390625,0.941406 c -0.11719,-0.05468 -0.226565,-0.10286 -0.328125,-0.144531 -0.101565,-0.04166 -0.200523,-0.07682 -0.296875,-0.105469 -0.09636,-0.02864 -0.191408,-0.04947 -0.285156,-0.0625 -0.09115,-0.01562 -0.183596,-0.02343 -0.277344,-0.02344 -0.203127,5e-6 -0.359376,0.05469 -0.46875,0.164062 -0.106772,0.106776 -0.160157,0.250005 -0.160156,0.429688 -10e-7,0.09636 0.01562,0.182296 0.04687,0.257812 0.03385,0.07292 0.08594,0.141931 0.15625,0.207032 0.07292,0.06511 0.165363,0.131514 0.277344,0.199218 0.114581,0.06771 0.252602,0.144535 0.414062,0.230469 0.19531,0.10417 0.374998,0.210941 0.539063,0.320313 0.164059,0.106773 0.304684,0.226565 0.421875,0.359375 0.119788,0.130211 0.212236,0.278648 0.277344,0.445312 0.0651,0.166669 0.09765,0.361981 0.09766,0.585938"
       inkscape:connector-curvature="0"
       id="path3691"
       style="fill:#ececec" />
    <path
       d="m 19.366071,12.168526 1.304687,0 0.703125,2.457031 c 0.04167,0.135418 0.07161,0.279949 0.08984,0.433594 0.02083,0.153647 0.03385,0.291668 0.03906,0.414062 l 0.02344,0 c 0.0052,-0.05989 0.01172,-0.126301 0.01953,-0.199219 0.01042,-0.07292 0.02213,-0.147134 0.03516,-0.222656 0.01302,-0.07552 0.02734,-0.149738 0.04297,-0.222656 0.01823,-0.07552 0.03646,-0.143227 0.05469,-0.203125 l 0.6875,-2.457031 1.3125,0 -1.726563,4.925781 c -0.161461,0.460936 -0.381512,0.803384 -0.660156,1.027344 -0.278647,0.223956 -0.627605,0.335935 -1.046875,0.335937 -0.135417,-2e-6 -0.252605,-0.0078 -0.351563,-0.02344 -0.09896,-0.01302 -0.183594,-0.02735 -0.253906,-0.04297 l 0,-0.945313 c 0.05469,0.01302 0.123698,0.02474 0.207031,0.03516 0.08333,0.01041 0.170573,0.01562 0.261719,0.01563 0.124999,-1e-6 0.23177,-0.01693 0.320313,-0.05078 0.08854,-0.03385 0.164061,-0.08203 0.226562,-0.144531 0.0651,-0.0599 0.119791,-0.132813 0.164063,-0.21875 0.04687,-0.08594 0.08724,-0.182292 0.121093,-0.289062 l 0.07422,-0.21875 -1.648437,-4.40625"
       inkscape:connector-curvature="0"
       id="path3693"
       style="fill:#ececec" />
    <path
       d="m 27.213727,15.238838 c -4e-6,0.229168 -0.04167,0.429689 -0.125,0.601563 -0.08334,0.171875 -0.201826,0.315104 -0.355469,0.429687 -0.153648,0.114584 -0.339846,0.200521 -0.558594,0.257813 -0.218752,0.05729 -0.463543,0.08594 -0.734375,0.08594 -0.14323,0 -0.276043,-0.0052 -0.398437,-0.01563 -0.122397,-0.0078 -0.238282,-0.02214 -0.347656,-0.04297 -0.109376,-0.02083 -0.214845,-0.04687 -0.316407,-0.07813 -0.101563,-0.03125 -0.204427,-0.07031 -0.308593,-0.117187 l 0,-0.984375 c 0.109374,0.05469 0.223957,0.104168 0.34375,0.148437 0.122395,0.04427 0.243488,0.08333 0.363281,0.117188 0.11979,0.03125 0.235676,0.05599 0.347656,0.07422 0.114582,0.01823 0.220051,0.02734 0.316406,0.02734 0.106769,10e-7 0.197915,-0.0091 0.273438,-0.02734 0.07552,-0.02083 0.136717,-0.04818 0.183594,-0.08203 0.04948,-0.03646 0.08463,-0.07812 0.105468,-0.125 0.02344,-0.04948 0.03515,-0.101561 0.03516,-0.15625 -3e-6,-0.05469 -0.0091,-0.102863 -0.02734,-0.144531 -0.01563,-0.04427 -0.05339,-0.08984 -0.113281,-0.136719 -0.0599,-0.04948 -0.14844,-0.104165 -0.265625,-0.164062 -0.114585,-0.0625 -0.269533,-0.138019 -0.464844,-0.226563 -0.190105,-0.08593 -0.35547,-0.17057 -0.496094,-0.253906 -0.138021,-0.08593 -0.252605,-0.180987 -0.34375,-0.285156 -0.08854,-0.104164 -0.154948,-0.222654 -0.199219,-0.355469 -0.04427,-0.135414 -0.06641,-0.29557 -0.06641,-0.480469 0,-0.203121 0.03906,-0.380204 0.117188,-0.53125 0.07812,-0.153641 0.188801,-0.281246 0.332031,-0.382812 0.143228,-0.101558 0.315103,-0.177079 0.515625,-0.226563 0.203123,-0.05208 0.428384,-0.07812 0.675781,-0.07813 0.260415,5e-6 0.50781,0.02995 0.742188,0.08984 0.234372,0.0599 0.475257,0.149744 0.722656,0.269531 l -0.359375,0.84375 c -0.19792,-0.09375 -0.386721,-0.170569 -0.566406,-0.230468 -0.17969,-0.05989 -0.359377,-0.08984 -0.539063,-0.08984 -0.16146,4e-6 -0.278647,0.02865 -0.351562,0.08594 -0.07031,0.0573 -0.105471,0.13542 -0.105469,0.234375 -2e-6,0.05209 0.0091,0.09896 0.02734,0.140625 0.01823,0.03907 0.05469,0.08073 0.109375,0.125 0.05468,0.04167 0.131508,0.08854 0.230468,0.140625 0.09896,0.04948 0.227863,0.11068 0.386719,0.183594 0.184894,0.08073 0.35156,0.161461 0.5,0.242188 0.148435,0.07813 0.276039,0.167971 0.382813,0.269531 0.106767,0.101564 0.188798,0.220054 0.246093,0.355469 0.05729,0.135418 0.08593,0.29948 0.08594,0.492187"
       inkscape:connector-curvature="0"
       id="path3695"
       style="fill:#ececec" />
    <path
       d="m 29.920758,15.664619 c 0.117185,10e-7 0.227862,-0.01302 0.332031,-0.03906 0.106768,-0.02604 0.214841,-0.05859 0.324219,-0.09766 l 0,0.886718 c -0.111982,0.05729 -0.251305,0.104167 -0.417969,0.140625 -0.164064,0.03906 -0.343752,0.05859 -0.539062,0.05859 -0.190106,0 -0.367189,-0.02214 -0.53125,-0.06641 -0.164064,-0.04427 -0.305991,-0.121094 -0.425781,-0.230469 -0.119793,-0.111979 -0.214845,-0.260416 -0.285157,-0.445312 -0.06771,-0.187499 -0.101563,-0.421874 -0.101562,-0.703125 l 0,-2.105469 -0.570313,0 0,-0.503906 0.65625,-0.398438 0.34375,-0.921875 0.761719,0 0,0.929688 1.0625,0 0,0.894531 -1.0625,0 0,2.105469 c -2e-6,0.169272 0.04167,0.294272 0.125,0.375 0.08333,0.08073 0.192706,0.121094 0.328125,0.121093"
       inkscape:connector-curvature="0"
       id="path3697"
       style="fill:#ececec" />
    <path
       d="m 33.225446,12.934151 c -0.21094,3e-6 -0.386721,0.07422 -0.527344,0.222656 -0.138023,0.148441 -0.21745,0.381513 -0.238281,0.699219 l 1.519531,0 c -0.0026,-0.13281 -0.01953,-0.255206 -0.05078,-0.367188 -0.03125,-0.111976 -0.07813,-0.20833 -0.140625,-0.289062 -0.0625,-0.08333 -0.140628,-0.148434 -0.234375,-0.195313 -0.09375,-0.04687 -0.203128,-0.07031 -0.328125,-0.07031 m 0.152343,3.679687 c -0.312502,0 -0.600262,-0.04557 -0.863281,-0.136719 -0.263022,-0.09114 -0.489584,-0.227864 -0.679687,-0.410156 -0.190105,-0.184895 -0.338543,-0.416666 -0.445313,-0.695312 -0.104167,-0.281249 -0.15625,-0.610676 -0.15625,-0.988282 0,-0.38281 0.04818,-0.717445 0.144531,-1.003906 0.09635,-0.286455 0.230468,-0.524736 0.402344,-0.714844 0.174478,-0.192704 0.382811,-0.337235 0.625,-0.433593 0.24479,-0.09635 0.515623,-0.144527 0.8125,-0.144532 0.28906,5e-6 0.549476,0.04428 0.78125,0.132813 0.234372,0.08594 0.432288,0.213546 0.59375,0.382812 0.164059,0.169275 0.289059,0.377608 0.375,0.625 0.08854,0.244795 0.132808,0.526045 0.132813,0.84375 l 0,0.578125 -2.664063,0 c 0.0052,0.166669 0.03125,0.31771 0.07813,0.453125 0.04948,0.132814 0.117186,0.246095 0.203125,0.339844 0.08854,0.09115 0.194009,0.161459 0.316406,0.210938 0.124998,0.04948 0.266925,0.07422 0.425782,0.07422 0.132809,10e-7 0.257809,-0.0065 0.375,-0.01953 0.119788,-0.01562 0.235674,-0.03776 0.347656,-0.06641 0.111976,-0.02865 0.222653,-0.0638 0.332031,-0.105469 0.109371,-0.04427 0.221351,-0.09505 0.335938,-0.152344 l 0,0.921875 c -0.104171,0.05469 -0.209639,0.101563 -0.316407,0.140625 -0.10417,0.03646 -0.214847,0.06771 -0.332031,0.09375 -0.117191,0.02604 -0.243492,0.04427 -0.378906,0.05469 -0.13542,0.01302 -0.283857,0.01953 -0.445313,0.01953"
       inkscape:connector-curvature="0"
       id="path3699"
       style="fill:#ececec" />
    <path
       d="m 39.866071,16.535713 -1.191407,0 0,-2.550781 c -3e-6,-0.315101 -0.04688,-0.550778 -0.140625,-0.707031 -0.09375,-0.158851 -0.240888,-0.238278 -0.441406,-0.238282 -0.151044,4e-6 -0.277346,0.03125 -0.378906,0.09375 -0.09896,0.0625 -0.178387,0.154952 -0.238281,0.277344 -0.0599,0.122399 -0.102867,0.273441 -0.128907,0.453125 -0.02604,0.17969 -0.03906,0.385419 -0.03906,0.617188 l 0,2.054687 -1.191406,0 0,-4.367187 0.910156,0 0.160156,0.558593 0.06641,0 c 0.0625,-0.111975 0.136717,-0.208329 0.222657,-0.289062 0.08854,-0.08073 0.184893,-0.147131 0.289062,-0.199219 0.104165,-0.05208 0.214842,-0.08984 0.332031,-0.113281 0.117185,-0.02604 0.235675,-0.03906 0.355469,-0.03906 0.299476,5e-6 0.553382,0.05209 0.761719,0.15625 0.210934,0.101567 0.372392,0.263025 0.484375,0.484375 l 0.09766,0 c 0.0625,-0.111975 0.138017,-0.208329 0.226563,-0.289062 0.08854,-0.08073 0.186193,-0.147131 0.292968,-0.199219 0.106766,-0.05208 0.218745,-0.08984 0.335938,-0.113281 0.119786,-0.02604 0.239578,-0.03906 0.359375,-0.03906 0.468744,5e-6 0.821608,0.127609 1.058594,0.382813 0.239576,0.252608 0.359368,0.658858 0.359375,1.21875 l 0,2.847656 -1.195313,0 0,-2.550781 c -5e-6,-0.315101 -0.04688,-0.550778 -0.140625,-0.707031 -0.09376,-0.158851 -0.240891,-0.238278 -0.441406,-0.238282 -0.283859,4e-6 -0.485682,0.113285 -0.605469,0.339844 -0.119796,0.223961 -0.179692,0.545576 -0.179687,0.964844 l 0,2.191406"
       inkscape:connector-curvature="0"
       id="path3701"
       style="fill:#ececec" />
    <path
       d="m 49.061383,16.535713 -0.335937,-1.527344 c -0.01042,-0.04427 -0.02474,-0.106769 -0.04297,-0.1875 -0.01563,-0.08333 -0.03386,-0.175779 -0.05469,-0.277343 -0.02084,-0.104165 -0.04297,-0.21354 -0.06641,-0.328125 -0.02084,-0.117185 -0.04297,-0.233071 -0.06641,-0.347657 -0.05209,-0.268226 -0.109378,-0.557288 -0.171875,-0.867187 l -0.02344,0 c -0.0599,0.309899 -0.114586,0.600263 -0.164062,0.871094 -0.02084,0.114586 -0.04297,0.230471 -0.06641,0.347656 -0.02084,0.11719 -0.04167,0.227867 -0.0625,0.332031 -0.02084,0.101565 -0.04037,0.194012 -0.05859,0.277344 -0.01563,0.08333 -0.02865,0.148439 -0.03906,0.195312 l -0.351562,1.511719 -1.28125,0 -1.175781,-4.367187 1.183593,0 0.441407,1.933593 c 0.02344,0.101565 0.04687,0.223961 0.07031,0.367188 0.02604,0.140627 0.04948,0.283856 0.07031,0.429687 0.02343,0.143231 0.04427,0.27995 0.0625,0.410157 0.01823,0.127605 0.03255,0.229167 0.04297,0.304687 l 0.02344,0 c 0.0026,-0.04948 0.0078,-0.11328 0.01563,-0.191406 0.01042,-0.08073 0.02213,-0.166665 0.03516,-0.257813 0.01302,-0.09114 0.02604,-0.183592 0.03906,-0.277343 0.01562,-0.09635 0.02995,-0.186196 0.04297,-0.269532 0.01562,-0.08333 0.02864,-0.156247 0.03906,-0.21875 0.01302,-0.0651 0.02343,-0.110674 0.03125,-0.136718 l 0.476562,-2.09375 1.3125,0 0.457032,2.09375 c 0.01302,0.05729 0.02994,0.145835 0.05078,0.265625 0.02083,0.119793 0.04166,0.248699 0.0625,0.386718 0.02343,0.135419 0.04296,0.268231 0.05859,0.398438 0.01562,0.127605 0.02473,0.227866 0.02734,0.300781 l 0.02344,0 c 0.0078,-0.0651 0.02083,-0.161457 0.03906,-0.289062 0.02083,-0.127603 0.04297,-0.264322 0.06641,-0.410157 0.02343,-0.148435 0.04817,-0.295571 0.07422,-0.441406 0.02864,-0.145831 0.05468,-0.269529 0.07813,-0.371094 l 0.457032,-1.933593 1.167968,0 -1.191406,4.367187 -1.296875,0"
       inkscape:connector-curvature="0"
       id="path3703"
       style="fill:#ececec" />
    <path
       d="m 52.127789,11.039619 c 0,-0.111973 0.01693,-0.204421 0.05078,-0.277343 0.03385,-0.07551 0.07943,-0.135411 0.136718,-0.179688 0.0599,-0.04687 0.128906,-0.07942 0.207032,-0.09766 0.08073,-0.01822 0.165363,-0.02734 0.253906,-0.02734 0.08854,6e-6 0.171874,0.0091 0.25,0.02734 0.07812,0.01823 0.145832,0.05079 0.203125,0.09766 0.05989,0.04428 0.106769,0.104173 0.140625,0.179688 0.03646,0.07292 0.05469,0.16537 0.05469,0.277343 -10e-7,0.109381 -0.01823,0.201829 -0.05469,0.277344 -0.03386,0.07553 -0.08073,0.136724 -0.140625,0.183594 -0.05729,0.04428 -0.125002,0.07683 -0.203125,0.09766 -0.07813,0.01823 -0.16146,0.02735 -0.25,0.02734 -0.08854,5e-6 -0.173178,-0.0091 -0.253906,-0.02734 -0.07813,-0.02083 -0.147136,-0.05338 -0.207032,-0.09766 -0.05729,-0.04687 -0.102865,-0.108068 -0.136718,-0.183594 -0.03385,-0.07551 -0.05078,-0.167963 -0.05078,-0.277344 m 1.242188,5.496094 -1.191406,0 0,-4.367187 1.191406,0 0,4.367187"
       inkscape:connector-curvature="0"
       id="path3705"
       style="fill:#ececec" />
    <path
       d="m 58.405133,16.535713 -1.191406,0 0,-2.550781 c -3e-6,-0.315101 -0.04818,-0.550778 -0.144531,-0.707031 -0.09375,-0.158851 -0.244795,-0.238278 -0.453125,-0.238282 -0.156253,4e-6 -0.286461,0.03125 -0.390625,0.09375 -0.104169,0.0625 -0.187502,0.154952 -0.25,0.277344 -0.0599,0.122399 -0.102867,0.273441 -0.128907,0.453125 -0.02604,0.17969 -0.03906,0.385419 -0.03906,0.617188 l 0,2.054687 -1.191406,0 0,-4.367187 0.910156,0 0.160156,0.558593 0.06641,0 c 0.0625,-0.111975 0.138019,-0.208329 0.226563,-0.289062 0.09114,-0.08073 0.190102,-0.147131 0.296875,-0.199219 0.106768,-0.05208 0.22005,-0.08984 0.339844,-0.113281 0.119789,-0.02604 0.242184,-0.03906 0.367187,-0.03906 0.213539,5e-6 0.407549,0.03125 0.582031,0.09375 0.174476,0.0599 0.324215,0.154953 0.449219,0.285157 0.124996,0.130212 0.22135,0.296878 0.289063,0.5 0.0677,0.200524 0.101558,0.441409 0.101562,0.722656 l 0,2.847656"
       inkscape:connector-curvature="0"
       id="path3707"
       style="fill:#ececec" />
    <path
       d="m 60.916852,16.613838 c -0.22396,0 -0.428387,-0.04818 -0.613281,-0.144531 -0.184897,-0.09635 -0.343751,-0.238281 -0.476563,-0.425781 -0.132813,-0.190104 -0.23698,-0.425781 -0.3125,-0.707032 -0.07292,-0.281248 -0.109375,-0.606769 -0.109375,-0.976562 0,-0.374998 0.03646,-0.703122 0.109375,-0.984375 0.07552,-0.283851 0.180989,-0.52083 0.316406,-0.710938 0.13802,-0.192704 0.302083,-0.337235 0.492188,-0.433593 0.190103,-0.09635 0.399738,-0.144527 0.628906,-0.144532 0.140623,5e-6 0.269529,0.01693 0.386719,0.05078 0.117185,0.03125 0.222654,0.07683 0.316406,0.136718 0.09375,0.0573 0.177081,0.125005 0.25,0.203125 0.07552,0.07553 0.141924,0.158859 0.199219,0.25 l 0.03906,0 c -0.01563,-0.101558 -0.02995,-0.204423 -0.04297,-0.308593 -0.01302,-0.08854 -0.02474,-0.182288 -0.03516,-0.28125 -0.0078,-0.101558 -0.01172,-0.195308 -0.01172,-0.28125 l 0,-1.398438 1.191406,0 0,6.078125 -0.910156,0 -0.230469,-0.566406 -0.05078,0 c -0.05469,0.08854 -0.117191,0.173177 -0.1875,0.253906 -0.07032,0.07813 -0.152347,0.145834 -0.246094,0.203125 -0.09115,0.05729 -0.195315,0.102865 -0.3125,0.136719 -0.114586,0.03385 -0.244794,0.05078 -0.390625,0.05078 m 0.433594,-0.949219 c 0.140622,10e-7 0.260414,-0.02344 0.359375,-0.07031 0.09896,-0.04948 0.178382,-0.122395 0.238281,-0.21875 0.0625,-0.09896 0.10807,-0.221353 0.136719,-0.367188 0.03125,-0.145831 0.04817,-0.316404 0.05078,-0.511718 l 0,-0.128907 c -3e-6,-0.210935 -0.01302,-0.398434 -0.03906,-0.5625 -0.02604,-0.164059 -0.06901,-0.300778 -0.128906,-0.410156 -0.0599,-0.111976 -0.140628,-0.196611 -0.242187,-0.253906 -0.101565,-0.05729 -0.229169,-0.08593 -0.382813,-0.08594 -0.250002,4e-6 -0.433595,0.113285 -0.550781,0.339844 -0.117189,0.223961 -0.175783,0.550784 -0.175781,0.980469 -2e-6,0.429689 0.05859,0.752606 0.175781,0.96875 0.11979,0.213543 0.305987,0.320313 0.558594,0.320312"
       inkscape:connector-curvature="0"
       id="path3709"
       style="fill:#ececec" />
    <path
       d="m 65.483258,14.344307 c -1e-6,0.434898 0.0612,0.763022 0.183594,0.984375 0.122394,0.218751 0.321612,0.328126 0.597656,0.328125 0.273435,10e-7 0.471352,-0.110676 0.59375,-0.332031 0.122393,-0.221353 0.183591,-0.548176 0.183594,-0.980469 -3e-6,-0.434893 -0.0612,-0.759112 -0.183594,-0.972656 -0.122398,-0.216143 -0.322919,-0.324216 -0.601562,-0.324219 -0.27344,3e-6 -0.471356,0.108076 -0.59375,0.324219 -0.119794,0.213544 -0.179689,0.537763 -0.179688,0.972656 m 2.773438,0 c -5e-6,0.364585 -0.04688,0.687501 -0.140625,0.96875 -0.09115,0.281251 -0.223963,0.51823 -0.398438,0.710937 -0.171878,0.192709 -0.382816,0.339844 -0.632812,0.441407 -0.247399,0.09896 -0.526045,0.148437 -0.835938,0.148437 -0.289064,0 -0.554689,-0.04948 -0.796875,-0.148437 -0.242189,-0.101563 -0.451824,-0.248698 -0.628906,-0.441407 -0.17448,-0.192707 -0.311199,-0.429686 -0.410156,-0.710937 -0.09896,-0.281249 -0.148438,-0.604165 -0.148438,-0.96875 0,-0.361977 0.04557,-0.683591 0.136719,-0.964844 0.09375,-0.281246 0.226562,-0.516923 0.398437,-0.707031 0.174479,-0.192704 0.385416,-0.338538 0.632813,-0.4375 0.247394,-0.09895 0.527342,-0.148433 0.839844,-0.148438 0.28906,5e-6 0.554684,0.04948 0.796875,0.148438 0.242184,0.09896 0.450517,0.244796 0.625,0.4375 0.177079,0.190108 0.3151,0.425785 0.414062,0.707031 0.09895,0.281253 0.148433,0.602867 0.148438,0.964844"
       inkscape:connector-curvature="0"
       id="path3711"
       style="fill:#ececec" />
    <path
       d="m 72.623883,16.535713 -0.335937,-1.527344 c -0.01042,-0.04427 -0.02474,-0.106769 -0.04297,-0.1875 -0.01563,-0.08333 -0.03386,-0.175779 -0.05469,-0.277343 -0.02084,-0.104165 -0.04297,-0.21354 -0.06641,-0.328125 -0.02084,-0.117185 -0.04297,-0.233071 -0.06641,-0.347657 -0.05209,-0.268226 -0.109378,-0.557288 -0.171875,-0.867187 l -0.02344,0 c -0.0599,0.309899 -0.114586,0.600263 -0.164062,0.871094 -0.02084,0.114586 -0.04297,0.230471 -0.06641,0.347656 -0.02084,0.11719 -0.04167,0.227867 -0.0625,0.332031 -0.02084,0.101565 -0.04037,0.194012 -0.05859,0.277344 -0.01563,0.08333 -0.02865,0.148439 -0.03906,0.195312 l -0.351562,1.511719 -1.28125,0 -1.175781,-4.367187 1.183593,0 0.441407,1.933593 c 0.02344,0.101565 0.04687,0.223961 0.07031,0.367188 0.02604,0.140627 0.04948,0.283856 0.07031,0.429687 0.02343,0.143231 0.04427,0.27995 0.0625,0.410157 0.01823,0.127605 0.03255,0.229167 0.04297,0.304687 l 0.02344,0 c 0.0026,-0.04948 0.0078,-0.11328 0.01563,-0.191406 0.01041,-0.08073 0.02213,-0.166665 0.03516,-0.257813 0.01302,-0.09114 0.02604,-0.183592 0.03906,-0.277343 0.01562,-0.09635 0.02995,-0.186196 0.04297,-0.269532 0.01562,-0.08333 0.02864,-0.156247 0.03906,-0.21875 0.01302,-0.0651 0.02343,-0.110674 0.03125,-0.136718 l 0.476562,-2.09375 1.3125,0 0.457032,2.09375 c 0.01302,0.05729 0.02994,0.145835 0.05078,0.265625 0.02083,0.119793 0.04166,0.248699 0.0625,0.386718 0.02343,0.135419 0.04296,0.268231 0.05859,0.398438 0.01562,0.127605 0.02473,0.227866 0.02734,0.300781 l 0.02344,0 c 0.0078,-0.0651 0.02083,-0.161457 0.03906,-0.289062 0.02083,-0.127603 0.04296,-0.264322 0.06641,-0.410157 0.02343,-0.148435 0.04817,-0.295571 0.07422,-0.441406 0.02864,-0.145831 0.05468,-0.269529 0.07813,-0.371094 l 0.457032,-1.933593 1.167968,0 -1.191406,4.367187 -1.296875,0"
       inkscape:connector-curvature="0"
       id="path3713"
       style="fill:#ececec" />
  </g>
  <g
     id="g6389"
     transform="matrix(1.9955404,0,0,1.9955404,25.126883,-55.601213)" />
  <path
     inkscape:connector-curvature="0"
     style="color:#000000;fill:url(#linearGradient3788);fill-opacity:1;fill-rule:evenodd;stroke:none;stroke-width:1;marker:none;visibility:visible;display:inline;overflow:visible"
     d="m 5.592181,15.805244 c -0.2084798,0 -0.3779593,0.4748 -0.3779593,1.058886 l 0,16.868609 c 0,0.584072 0.1694804,1.058876 0.3779593,1.058876 l 37.193598,0 0,-18.986371 -37.193598,0 z"
     id="rect3820" />
  <g
     transform="matrix(2.7292887,0,0,4.1100997,26.812169,-53.514989)"
     style="font-size:4.37945604px;font-style:normal;font-variant:normal;font-weight:normal;font-stretch:normal;text-align:start;line-height:125%;letter-spacing:0;word-spacing:0;writing-mode:lr-tb;text-anchor:start;fill:#eeeeec;fill-opacity:1;stroke:none;font-family:Neuropol;-inkscape-font-specification:Neuropol"
     id="text2987">
    <path
       inkscape:connector-curvature="0"
       d="m -4.3290287,18.61111 c -3.4e-6,0.235226 -0.1240308,0.407011 -0.3720827,0.515356 -0.1967362,0.07983 -0.423407,0.119752 -0.6800132,0.119751 l -0.7826567,0 1.5866975,0.673598 c 0.084107,0.03707 0.1261627,0.09195 0.1261659,0.164657 -3.2e-6,0.10692 -0.09338,0.160381 -0.2801312,0.160381 -0.074134,0 -0.132584,-0.0057 -0.1753493,-0.01711 l -2.1662056,-0.92593 0,0.771965 c -6e-7,0.112623 -0.055599,0.168934 -0.1667957,0.168934 -0.1183254,0 -0.1867544,-0.005 -0.205287,-0.01497 -0.068429,-0.02138 -0.1026436,-0.0727 -0.1026435,-0.153965 l 0,-2.268849 c -10e-8,-0.111195 0.055598,-0.166793 0.1667957,-0.166796 l 1.9117352,0 c 0.2965232,3e-6 0.5403013,0.03849 0.731335,0.115474 0.2722872,0.109774 0.4084322,0.290826 0.4084356,0.543155 l 0,0.314346 m -0.4747262,0.0043 0,-0.329315 c -2.9e-6,-0.173921 -0.2223969,-0.260883 -0.6671828,-0.260885 l -1.6016663,0 0,0.833978 1.6872026,0 c 0.3877616,2e-6 0.5816436,-0.08126 0.5816465,-0.243778"
       id="path2992" />
    <path
       inkscape:connector-curvature="0"
       d="m -0.98883813,19.543455 c -3.32e-6,0.466173 -0.40273607,0.699259 -1.20819957,0.699259 l -0.7398885,0 c -0.3264644,0 -0.5837857,-0.04134 -0.7719647,-0.124027 -0.2879724,-0.1169 -0.4319582,-0.30793 -0.4319581,-0.573093 l 0,-1.201785 c -10e-8,-0.470447 0.401307,-0.705671 1.2039228,-0.705674 l 0.7398885,0 c 0.3749314,3e-6 0.6393808,0.03279 0.7933488,0.09837 0.276564,0.106923 0.41484745,0.309358 0.41485077,0.607307 l 0,1.199646 m -0.47686457,-0.01069 0,-1.178262 c -2.9e-6,-0.219541 -0.2402169,-0.329312 -0.7206429,-0.329314 l -0.7527191,0 c -0.4847063,2e-6 -0.7270587,0.109773 -0.7270581,0.329314 l 0,1.178262 c -6e-7,0.212416 0.2423518,0.318623 0.7270581,0.318623 l 0.7548575,0 c 0.4790004,0 0.7185016,-0.106207 0.7185045,-0.318623"
       id="path2994" />
    <path
       inkscape:connector-curvature="0"
       d="m 2.4924873,19.543455 c -3.4e-6,0.466173 -0.4027361,0.699259 -1.2081996,0.699259 l -0.73988856,0 c -0.3264644,0 -0.58378569,-0.04134 -0.77196466,-0.124027 -0.28797235,-0.1169 -0.43195823,-0.30793 -0.43195807,-0.573093 l 0,-1.201785 c -1.6e-7,-0.470447 0.40130701,-0.705671 1.20392273,-0.705674 l 0.73988856,0 c 0.3749314,3e-6 0.6393807,0.03279 0.7933487,0.09837 0.2765641,0.106923 0.4148475,0.309358 0.4148509,0.607307 l 0,1.199646 m -0.4768646,-0.01069 0,-1.178262 c -2.9e-6,-0.219541 -0.2402169,-0.329312 -0.720643,-0.329314 l -0.75271896,0 c -0.48470631,2e-6 -0.72705877,0.109773 -0.72705814,0.329314 l 0,1.178262 c -6.3e-7,0.212416 0.24235183,0.318623 0.72705814,0.318623 l 0.75485736,0 c 0.4790005,0 0.7185017,-0.106207 0.7185046,-0.318623"
       id="path2996" />
    <path
       inkscape:connector-curvature="0"
       d="m 5.4541798,17.856253 c -2.9e-6,0.112625 -0.055601,0.168936 -0.1667957,0.168934 l -1.0542343,0 0,2.048593 c -1.7e-6,0.112623 -0.054887,0.168934 -0.1646572,0.168934 -0.1111986,0 -0.1803404,-0.0043 -0.2074255,-0.01283 -0.067005,-0.01996 -0.1005063,-0.07199 -0.1005051,-0.156104 l 0,-2.048593 -1.0456806,0 c -0.1126228,2e-6 -0.1689341,-0.05631 -0.1689341,-0.168934 0,-0.07698 0.00855,-0.129728 0.025661,-0.158242 0.02281,-0.03992 0.070567,-0.05987 0.1432732,-0.05988 l 2.5725027,0 c 0.1111943,3e-6 0.1667928,0.07271 0.1667957,0.218118"
       id="path2998" />
  </g>
</svg>
