<?xml version="1.0" encoding="UTF-8" standalone="no"?>
<!-- Created with Inkscape (http://www.inkscape.org/) -->

<svg
   xmlns:dc="http://purl.org/dc/elements/1.1/"
   xmlns:cc="http://creativecommons.org/ns#"
   xmlns:rdf="http://www.w3.org/1999/02/22-rdf-syntax-ns#"
   xmlns:svg="http://www.w3.org/2000/svg"
   xmlns="http://www.w3.org/2000/svg"
   xmlns:xlink="http://www.w3.org/1999/xlink"
   xmlns:sodipodi="http://sodipodi.sourceforge.net/DTD/sodipodi-0.dtd"
   xmlns:inkscape="http://www.inkscape.org/namespaces/inkscape"
   id="svg3718"
   height="48px"
   width="48px"
   version="1.1"
   inkscape:version="0.48.1 r9760"
   sodipodi:docname="go-jump.svg">
  <sodipodi:namedview
     pagecolor="#ffffff"
     bordercolor="#666666"
     borderopacity="1"
     objecttolerance="10"
     gridtolerance="10"
     guidetolerance="10"
     inkscape:pageopacity="0"
     inkscape:pageshadow="2"
     inkscape:window-width="1204"
     inkscape:window-height="909"
     id="namedview3105"
     showgrid="false"
     inkscape:zoom="6.6041667"
     inkscape:cx="24"
     inkscape:cy="25.892744"
     inkscape:window-x="0"
     inkscape:window-y="24"
     inkscape:window-maximized="0"
     inkscape:current-layer="svg3718" />
  <defs
     id="defs3720">
    <linearGradient
       id="linearGradient3621"
       y2="18.33"
       gradientUnits="userSpaceOnUse"
       x2="41.079"
       gradientTransform="matrix(0,1.0524,-0.97832,0,45.58,-3.8327)"
       y1="18.498"
       x1="9.4342">
      <stop
         id="stop5115"
         style="stop-color:#fff"
         offset="0" />
      <stop
         id="stop5117"
         style="stop-color:#fff;stop-opacity:0"
         offset="1" />
    </linearGradient>
    <mask
       id="mask3689">
      <rect
         id="rect3691"
         style="fill:url(#linearGradient3693)"
         height="38"
         width="42"
         y="4"
         x="2" />
    </mask>
    <linearGradient
       id="linearGradient3693"
       y2="14"
       gradientUnits="userSpaceOnUse"
       x2="7"
       y1="13"
       x1="2">
      <stop
         id="stop3683"
         offset="0" />
      <stop
         id="stop3685"
         offset=".44974" />
      <stop
         id="stop3687"
         style="stop-color:#fff"
         offset="1" />
    </linearGradient>
    <linearGradient
       id="linearGradient3624"
       y2="17.891"
       gradientUnits="userSpaceOnUse"
       x2="42.6"
       gradientTransform="matrix(0,1.0524,-0.97832,0,45.58,-3.8326)"
       y1="17.891"
       x1="8.394">
      <stop
         id="stop3618"
         style="stop-color:#f0c178"
         offset="0" />
      <stop
         id="stop3270"
         style="stop-color:#e18941"
         offset=".5" />
      <stop
         id="stop3620"
         style="stop-color:#ec4f18"
         offset="1" />
    </linearGradient>
    <linearGradient
       id="linearGradient3668"
       y2="5.0028"
       gradientUnits="userSpaceOnUse"
       x2="16.158"
       y1="41.016"
       x1="16.158">
      <stop
         id="stop3624"
         style="stop-color:#bb2b12"
         offset="0" />
      <stop
         id="stop3626"
         style="stop-color:#cd7233"
         offset="1" />
    </linearGradient>
    <radialGradient
       id="radialGradient3716"
       gradientUnits="userSpaceOnUse"
       cx="11.25"
       cy="19.031"
       r="8.0625"
       gradientTransform="matrix(2.2946,0,0,0.68217,1.686,26.517)">
      <stop
         id="stop5107"
         offset="0" />
      <stop
         id="stop5109"
         style="stop-opacity:0"
         offset="1" />
    </radialGradient>
    <radialGradient
       inkscape:collect="always"
       xlink:href="#radialGradient3716"
       id="radialGradient3115"
       gradientUnits="userSpaceOnUse"
       gradientTransform="matrix(2.2946,0,0,0.68217,1.686,26.517)"
       cx="11.25"
       cy="19.031"
       r="8.0625" />
    <linearGradient
       inkscape:collect="always"
       xlink:href="#linearGradient3624"
       id="linearGradient3117"
       gradientUnits="userSpaceOnUse"
       gradientTransform="matrix(0,1.0524,-0.97832,0,45.58,-3.8326)"
       x1="8.394"
       y1="17.891"
       x2="42.6"
       y2="17.891" />
    <linearGradient
       inkscape:collect="always"
       xlink:href="#linearGradient3668"
       id="linearGradient3119"
       gradientUnits="userSpaceOnUse"
       x1="16.158"
       y1="41.016"
       x2="16.158"
       y2="5.0028" />
    <linearGradient
       inkscape:collect="always"
       xlink:href="#linearGradient3621"
       id="linearGradient3121"
       gradientUnits="userSpaceOnUse"
       gradientTransform="matrix(0,1.0524,-0.97832,0,45.58,-3.8327)"
       x1="9.4342"
       y1="18.498"
       x2="41.079"
       y2="18.33" />
    <linearGradient
       inkscape:collect="always"
       xlink:href="#linearGradient124"
       id="linearGradient4038"
       gradientUnits="userSpaceOnUse"
       gradientTransform="matrix(1.4019046,3.2381864,-0.8095466,0.3504761,-482.91339,-745.38115)"
       x1="253.75711"
       y1="-129.52815"
       x2="252.00447"
       y2="-135.47408" />
    <linearGradient
       id="linearGradient124">
      <stop
         id="stop125"
         offset="0.0000000"
         style="stop-color:#ffffff;stop-opacity:1.0000000;" />
      <stop
         id="stop126"
         offset="1"
         style="stop-color:silver;stop-opacity:1;" />
    </linearGradient>
    <radialGradient
       inkscape:collect="always"
       xlink:href="#linearGradient124"
       id="radialGradient4040"
       gradientUnits="userSpaceOnUse"
       gradientTransform="matrix(1.279254,0,0,1.7073246,-321.71546,-587.15241)"
       cx="307.7507"
       cy="361.47824"
       fx="307.7507"
       fy="361.47824"
       r="12.509617" />
    <linearGradient
       id="linearGradient3138">
      <stop
         id="stop3140"
         offset="0.0000000"
         style="stop-color:#ffffff;stop-opacity:1.0000000;" />
      <stop
         id="stop3142"
         offset="1"
         style="stop-color:silver;stop-opacity:1;" />
    </linearGradient>
    <linearGradient
       inkscape:collect="always"
       xlink:href="#linearGradient10554"
       id="linearGradient4042"
       gradientUnits="userSpaceOnUse"
       gradientTransform="matrix(1.5347684,0,0,1.4230823,-296.72742,-584.34298)"
       x1="240.9062"
       y1="425.18195"
       x2="248.28683"
       y2="437.96558" />
    <linearGradient
       id="linearGradient10554"
       inkscape:collect="always">
      <stop
         id="stop10556"
         offset="0"
         style="stop-color:white;stop-opacity:1;" />
      <stop
         id="stop10558"
         offset="1"
         style="stop-color:white;stop-opacity:0;" />
    </linearGradient>
    <linearGradient
       y2="437.96558"
       x2="248.28683"
       y1="425.18195"
       x1="240.9062"
       gradientTransform="matrix(1.5347684,0,0,1.4230823,-296.72742,-584.34298)"
       gradientUnits="userSpaceOnUse"
       id="linearGradient3153"
       xlink:href="#linearGradient10554"
       inkscape:collect="always" />
    <linearGradient
       inkscape:collect="always"
       xlink:href="#linearGradient124"
       id="linearGradient3237"
       gradientUnits="userSpaceOnUse"
       gradientTransform="matrix(1.4019046,3.2381864,-0.8095466,0.3504761,-482.91339,-745.38115)"
       x1="253.75711"
       y1="-129.52815"
       x2="252.00447"
       y2="-135.47408" />
    <radialGradient
       inkscape:collect="always"
       xlink:href="#linearGradient124"
       id="radialGradient3239"
       gradientUnits="userSpaceOnUse"
       gradientTransform="matrix(1.279254,0,0,1.7073246,-321.71546,-587.15241)"
       cx="307.7507"
       cy="361.47824"
       fx="307.7507"
       fy="361.47824"
       r="12.509617" />
    <linearGradient
       inkscape:collect="always"
       xlink:href="#linearGradient10554"
       id="linearGradient3241"
       gradientUnits="userSpaceOnUse"
       gradientTransform="matrix(1.5347684,0,0,1.4230823,-296.72742,-584.34298)"
       x1="240.9062"
       y1="425.18195"
       x2="248.28683"
       y2="437.96558" />
    <linearGradient
       inkscape:collect="always"
       xlink:href="#linearGradient3624"
       id="linearGradient3249"
       gradientUnits="userSpaceOnUse"
       gradientTransform="matrix(0,1.0524,-0.97832,0,45.58,-3.8326)"
       x1="8.394"
       y1="17.891"
       x2="42.6"
       y2="17.891" />
    <linearGradient
       inkscape:collect="always"
       xlink:href="#linearGradient3668"
       id="linearGradient3251"
       gradientUnits="userSpaceOnUse"
       x1="16.158"
       y1="41.016"
       x2="16.158"
       y2="5.0028" />
    <linearGradient
       inkscape:collect="always"
       xlink:href="#linearGradient3621"
       id="linearGradient3253"
       gradientUnits="userSpaceOnUse"
       gradientTransform="matrix(0,1.0524,-0.97832,0,45.58,-3.8327)"
       x1="9.4342"
       y1="18.498"
       x2="41.079"
       y2="18.33" />
    <linearGradient
       inkscape:collect="always"
       xlink:href="#linearGradient124-2"
       id="linearGradient4038-0"
       gradientUnits="userSpaceOnUse"
       gradientTransform="matrix(1.4019046,3.2381864,-0.8095466,0.3504761,-482.91339,-745.38115)"
       x1="253.75711"
       y1="-129.52815"
       x2="252.00447"
       y2="-135.47408" />
    <linearGradient
       id="linearGradient124-2">
      <stop
         id="stop125-2"
         offset="0.0000000"
         style="stop-color:#ffffff;stop-opacity:1.0000000;" />
      <stop
         id="stop126-9"
         offset="1"
         style="stop-color:silver;stop-opacity:1;" />
    </linearGradient>
    <radialGradient
       inkscape:collect="always"
       xlink:href="#linearGradient124-2"
       id="radialGradient4040-7"
       gradientUnits="userSpaceOnUse"
       gradientTransform="matrix(1.279254,0,0,1.7073246,-321.71546,-587.15241)"
       cx="307.7507"
       cy="361.47824"
       fx="307.7507"
       fy="361.47824"
       r="12.509617" />
    <linearGradient
       id="linearGradient3138-5">
      <stop
         id="stop3140-6"
         offset="0.0000000"
         style="stop-color:#ffffff;stop-opacity:1.0000000;" />
      <stop
         id="stop3142-4"
         offset="1"
         style="stop-color:silver;stop-opacity:1;" />
    </linearGradient>
    <linearGradient
       inkscape:collect="always"
       xlink:href="#linearGradient10554-3"
       id="linearGradient4042-6"
       gradientUnits="userSpaceOnUse"
       gradientTransform="matrix(1.5347684,0,0,1.4230823,-296.72742,-584.34298)"
       x1="240.9062"
       y1="425.18195"
       x2="248.28683"
       y2="437.96558" />
    <linearGradient
       id="linearGradient10554-3"
       inkscape:collect="always">
      <stop
         id="stop10556-7"
         offset="0"
         style="stop-color:white;stop-opacity:1;" />
      <stop
         id="stop10558-9"
         offset="1"
         style="stop-color:white;stop-opacity:0;" />
    </linearGradient>
    <linearGradient
       y2="437.96558"
       x2="248.28683"
       y1="425.18195"
       x1="240.9062"
       gradientTransform="matrix(1.5347684,0,0,1.4230823,-296.72742,-584.34298)"
       gradientUnits="userSpaceOnUse"
       id="linearGradient3153-7"
       xlink:href="#linearGradient10554-3"
       inkscape:collect="always" />
  </defs>
  <metadata
     id="metadata3723">
    <rdf:RDF>
      <cc:Work
         rdf:about="">
        <dc:format>image/svg+xml</dc:format>
        <dc:type
           rdf:resource="http://purl.org/dc/dcmitype/StillImage" />
        <dc:title />
      </cc:Work>
    </rdf:RDF>
  </metadata>
  <g
     transform="matrix(-0.68126049,0,0,-0.68578398,29.451159,50.923504)"
     id="g3107">
    <path
       inkscape:connector-curvature="0"
       d="m 3.4805,20.938 c 2.6796,-21.48 31.214,-20.241 31.014,1.67 h 8.0301 L 28.2556,40.52 13.2896,22.608 h 8.2161 C 22.0797,7.808 7.1527,8.35 3.4817,20.938 z"
       style="fill:url(#linearGradient3117);stroke:url(#linearGradient3119);stroke-width:0.96100003;stroke-linecap:round;stroke-linejoin:round;stroke-miterlimit:7;display:block;enable-background:new"
       id="path3111" />
    <path
       inkscape:connector-curvature="0"
       d="M 7.3587,12.991 C 14.415,1.87 33.4447,4.6171 33.4947,23.608 h 7.031 L 28.2547,38.919 15.3887,23.608 h 7.016 C 22.9777,8.808 12.0437,8.804 7.3587,12.991 z"
       mask="url(#mask3689)"
       style="opacity:0.4;fill:none;stroke:url(#linearGradient3121);stroke-width:0.96100003;stroke-linecap:square;stroke-linejoin:round;stroke-miterlimit:7;display:block;enable-background:new"
       id="path3113" />
  </g>
  <g
     id="g3243"
     transform="matrix(0.68126049,0,0,0.68578398,18.097083,-2.8833613)">
    <path
       id="path3245"
       style="fill:url(#linearGradient3249);stroke:url(#linearGradient3251);stroke-width:0.96100003;stroke-linecap:round;stroke-linejoin:round;stroke-miterlimit:7;display:block;enable-background:new"
       d="m 3.4805,20.938 c 2.6796,-21.48 31.214,-20.241 31.014,1.67 h 8.0301 L 28.2556,40.52 13.2896,22.608 h 8.2161 C 22.0797,7.808 7.1527,8.35 3.4817,20.938 z"
       inkscape:connector-curvature="0" />
    <path
       id="path3247"
       style="opacity:0.4;fill:none;stroke:url(#linearGradient3253);stroke-width:0.96100003;stroke-linecap:square;stroke-linejoin:round;stroke-miterlimit:7;display:block;enable-background:new"
       mask="url(#mask3689)"
       d="M 7.3587,12.991 C 14.415,1.87 33.4447,4.6171 33.4947,23.608 h 7.031 L 28.2547,38.919 15.3887,23.608 h 7.016 C 22.9777,8.808 12.0437,8.804 7.3587,12.991 z"
       inkscape:connector-curvature="0" />
  </g>
  <g
     id="g4366"
     transform="matrix(1.0691801,0,0,1.0691801,-57.642659,-7.5877884)">
    <path
       sodipodi:nodetypes="cccccccc"
       style="fill:none;stroke:#888a85;stroke-width:1.04247308;stroke-linecap:round;stroke-linejoin:round;stroke-miterlimit:4;stroke-opacity:1;stroke-dasharray:none;stroke-dashoffset:0"
       d="m 71.401064,17.737975 0,21.977386 6.978408,-4.269247 4.268574,9.161092 3.501191,-1.423081 -4.172651,-8.938737 6.28196,-0.622598 -16.857482,-15.884815 z"
       id="rect16"
       inkscape:connector-curvature="0" />
    <path
       transform="matrix(0.8698963,0,0,0.8065934,98.369116,14.067108)"
       d="m -22.34375,19.125 -2.40625,1 a 0.35634045,0.35634045 0 0 0 -0.21875,0.40625 l 0.78125,5.375 a 0.35634045,0.35634045 0 0 0 0.34375,0.28125 l 1.28125,-0.0625 4.625,10.71875 a 0.35634045,0.35634045 0 0 0 0.03125,0.0625 0.35634045,0.35634045 0 0 0 0.40625,0.125 L -15.0625,36 a 0.35634045,0.35634045 0 0 0 0.1875,-0.5 l -4.46875,-10.3125 0.71875,-0.96875 a 0.35634045,0.35634045 0 0 0 0,-0.4375 L -21.9375,19.25 a 0.35634045,0.35634045 0 0 0 -0.03125,-0.03125 0.35634045,0.35634045 0 0 0 -0.375,-0.09375 z"
       id="path2887"
       style="fill:url(#linearGradient4038-0);fill-opacity:1;fill-rule:evenodd;stroke:none"
       inkscape:original="M -22.21875 19.46875 L -24.625 20.46875 L -23.84375 25.84375 L -22.34375 25.78125 L -17.625 36.6875 L -15.1875 35.65625 L -19.75 25.125 L -18.90625 24 L -22.21875 19.46875 z "
       inkscape:radius="0.35630482"
       sodipodi:type="inkscape:offset" />
    <path
       sodipodi:nodetypes="ccccc"
       id="path2891"
       d="m 71.871259,18.78694 c 0.01838,0.02654 0.110064,13.649154 -0.01688,20.14919 l 8.05663,-4.880629 c 2.274689,-0.29736 7.394066,-0.732955 7.425384,-0.741056 L 71.871259,18.78694 z"
       style="fill:url(#radialGradient4040-7);fill-opacity:1;fill-rule:evenodd;stroke:none"
       inkscape:connector-curvature="0" />
    <path
       sodipodi:type="inkscape:offset"
       inkscape:radius="-0.17767379"
       inkscape:original="M 72.28125 19.75 C 72.308434 19.786317 72.236734 38.231507 72.25 38.21875 L 79.5625 33.6875 C 81.782403 33.496235 86.332488 32.96244 86.34375 32.96875 C 86.382631 32.954521 72.347636 19.74392 72.28125 19.75 z "
       style="fill:none;stroke:url(#linearGradient3153-7);stroke-width:1.04247308;stroke-linecap:butt;stroke-linejoin:miter;stroke-miterlimit:4;stroke-opacity:1;stroke-dashoffset:0"
       id="path8699"
       d="m 72.46875,20.15625 c 5.21e-4,0.120649 -2.28e-4,0.232408 0,0.40625 6.67e-4,0.508154 0.0013,1.226595 0,2.09375 -0.0027,1.734309 -0.02482,4.036606 -0.03125,6.34375 -0.0064,2.307144 0.0044,4.615806 0,6.34375 -0.0022,0.863972 6.38e-4,1.590703 0,2.09375 -2.48e-4,0.19563 -6.6e-5,0.311681 0,0.4375 l 7.03125,-4.34375 a 0.17769155,0.17769155 0 0 1 0.03125,0 0.17769155,0.17769155 0 0 1 0.03125,-0.03125 0.17769155,0.17769155 0 0 1 0.03125,0 c 1.106211,-0.09531 2.771561,-0.280985 4.1875,-0.4375 0.707969,-0.07826 1.349635,-0.135353 1.8125,-0.1875 0.153818,-0.01733 0.263979,-0.01883 0.375,-0.03125 -0.09234,-0.08888 -0.172012,-0.178516 -0.3125,-0.3125 -0.379838,-0.362253 -0.90692,-0.87989 -1.5625,-1.5 -1.31116,-1.24022 -3.087754,-2.910757 -4.84375,-4.5625 -1.755996,-1.651743 -3.488232,-3.293614 -4.8125,-4.53125 -0.662134,-0.618818 -1.235403,-1.139743 -1.625,-1.5 -0.137159,-0.12683 -0.218487,-0.195282 -0.3125,-0.28125 z" />
  </g>
</svg>
