<?xml version="1.0" encoding="UTF-8" standalone="no"?>
<!-- Created with Inkscape (http://www.inkscape.org/) -->

<svg
   xmlns:dc="http://purl.org/dc/elements/1.1/"
   xmlns:cc="http://creativecommons.org/ns#"
   xmlns:rdf="http://www.w3.org/1999/02/22-rdf-syntax-ns#"
   xmlns:svg="http://www.w3.org/2000/svg"
   xmlns="http://www.w3.org/2000/svg"
   xmlns:xlink="http://www.w3.org/1999/xlink"
   xmlns:sodipodi="http://sodipodi.sourceforge.net/DTD/sodipodi-0.dtd"
   xmlns:inkscape="http://www.inkscape.org/namespaces/inkscape"
   width="48"
   height="48"
   id="svg3249"
   version="1.1"
   inkscape:version="0.48.1 r9760"
   sodipodi:docname="process-idle-kde.svg">
  <defs
     id="defs3251">
    <linearGradient
       inkscape:collect="always"
       xlink:href="#linearGradient3707-319-631-407-1-846-4"
       id="linearGradient3156"
       gradientUnits="userSpaceOnUse"
       gradientTransform="matrix(2.6410259,0,0,2.6410259,0.6153933,-63.025638)"
       x1="19.874987"
       y1="44.520065"
       x2="19.874987"
       y2="5.2502403" />
    <linearGradient
       id="linearGradient3707-319-631-407-1-846-4">
      <stop
         offset="0"
         style="stop-color:#365a7c;stop-opacity:1"
         id="stop3788-5" />
      <stop
         offset="1"
         style="stop-color:#5ea1ca;stop-opacity:1;"
         id="stop3790-9" />
    </linearGradient>
    <linearGradient
       inkscape:collect="always"
       xlink:href="#linearGradient3707-319-631-407-1-846-4-8"
       id="linearGradient3159"
       gradientUnits="userSpaceOnUse"
       gradientTransform="matrix(2.6410259,0,0,2.6410259,0.6153933,-63.025638)"
       x1="19.874987"
       y1="44.520065"
       x2="19.874987"
       y2="5.2502403" />
    <linearGradient
       id="linearGradient3707-319-631-407-1-846-4-8">
      <stop
         offset="0"
         style="stop-color:#365a7c;stop-opacity:1"
         id="stop3788-5-5" />
      <stop
         offset="1"
         style="stop-color:#5ea1ca;stop-opacity:1;"
         id="stop3790-9-0" />
    </linearGradient>
    <linearGradient
       inkscape:collect="always"
       xlink:href="#linearGradient3707-319-631-407-1-846-4-9"
       id="linearGradient3162"
       gradientUnits="userSpaceOnUse"
       gradientTransform="matrix(2.6410259,0,0,2.6410259,0.6153933,-63.025638)"
       x1="19.874987"
       y1="44.520065"
       x2="19.874987"
       y2="5.2502403" />
    <linearGradient
       id="linearGradient3707-319-631-407-1-846-4-9">
      <stop
         offset="0"
         style="stop-color:#365a7c;stop-opacity:1"
         id="stop3788-5-1" />
      <stop
         offset="1"
         style="stop-color:#5ea1ca;stop-opacity:1;"
         id="stop3790-9-8" />
    </linearGradient>
    <linearGradient
       inkscape:collect="always"
       xlink:href="#linearGradient8265-821-176-38-919-66-249-7-7"
       id="linearGradient3165"
       gradientUnits="userSpaceOnUse"
       gradientTransform="matrix(2.2144204,0,0,3.4699564,10.750311,-67.821123)"
       x1="16.626165"
       y1="15.298182"
       x2="20.054544"
       y2="24.627615" />
    <linearGradient
       id="linearGradient8265-821-176-38-919-66-249-7-7">
      <stop
         offset="0"
         style="stop-color:#ffffff;stop-opacity:1"
         id="stop2687-1-9" />
      <stop
         offset="1"
         style="stop-color:#ffffff;stop-opacity:0"
         id="stop2689-5-4" />
    </linearGradient>
    <linearGradient
       y2="43"
       x2="23.99999"
       y1="4.999989"
       x1="23.99999"
       gradientTransform="matrix(1.0872653,0,0,1.0872653,-1.5609916,13.49925)"
       gradientUnits="userSpaceOnUse"
       id="linearGradient3128"
       xlink:href="#linearGradient3924"
       inkscape:collect="always" />
    <linearGradient
       id="linearGradient3924">
      <stop
         id="stop3926"
         style="stop-color:#ffffff;stop-opacity:1;"
         offset="0" />
      <stop
         offset="0.06316455"
         style="stop-color:#ffffff;stop-opacity:0.23529412;"
         id="stop3928" />
      <stop
         id="stop3930"
         style="stop-color:#ffffff;stop-opacity:0.15686275;"
         offset="0.95056331" />
      <stop
         id="stop3932"
         style="stop-color:#ffffff;stop-opacity:0.39215687;"
         offset="1" />
    </linearGradient>
    <radialGradient
       inkscape:collect="always"
       xlink:href="#linearGradient2867-449-88-871-390-598-476-591-434-148-57-177"
       id="radialGradient3171"
       gradientUnits="userSpaceOnUse"
       gradientTransform="matrix(2.0437467e-8,2.4583594,-2.6006512,-4.5292363e-8,46.508391,1.2665987)"
       cx="7.4956832"
       cy="8.4497671"
       fx="7.4956832"
       fy="8.4497671"
       r="19.99999" />
    <linearGradient
       id="linearGradient2867-449-88-871-390-598-476-591-434-148-57-177">
      <stop
         id="stop3750"
         style="stop-color:#90dbec;stop-opacity:1;"
         offset="0" />
      <stop
         id="stop3752"
         style="stop-color:#55c1ec;stop-opacity:1;"
         offset="0.26238" />
      <stop
         id="stop3754"
         style="stop-color:#3689e6;stop-opacity:1;"
         offset="0.704952" />
      <stop
         id="stop3756"
         style="stop-color:#2b63a0;stop-opacity:1;"
         offset="1" />
    </linearGradient>
    <linearGradient
       inkscape:collect="always"
       xlink:href="#linearGradient3707-319-631-407-324"
       id="linearGradient3173"
       gradientUnits="userSpaceOnUse"
       gradientTransform="matrix(1.0519341,0,0,1.0519341,-0.71303934,14.34719)"
       x1="24"
       y1="44"
       x2="24"
       y2="3.8990016" />
    <linearGradient
       id="linearGradient3707-319-631-407-324">
      <stop
         id="stop3760"
         style="stop-color:#185f9a;stop-opacity:1;"
         offset="0" />
      <stop
         id="stop3762"
         style="stop-color:#599ec9;stop-opacity:1;"
         offset="1" />
    </linearGradient>
    <radialGradient
       cx="4.9929786"
       cy="43.5"
       r="2.5"
       fx="4.9929786"
       fy="43.5"
       id="radialGradient2455"
       xlink:href="#linearGradient3688-166-749"
       gradientUnits="userSpaceOnUse"
       gradientTransform="matrix(2.003784,0,0,1.4,27.98813,-17.4)" />
    <linearGradient
       id="linearGradient3688-166-749">
      <stop
         id="stop2883"
         style="stop-color:#181818;stop-opacity:1"
         offset="0" />
      <stop
         id="stop2885"
         style="stop-color:#181818;stop-opacity:0"
         offset="1" />
    </linearGradient>
    <radialGradient
       cx="4.9929786"
       cy="43.5"
       r="2.5"
       fx="4.9929786"
       fy="43.5"
       id="radialGradient2457"
       xlink:href="#linearGradient3688-464-309"
       gradientUnits="userSpaceOnUse"
       gradientTransform="matrix(2.003784,0,0,1.4,-20.01187,-104.4)" />
    <linearGradient
       id="linearGradient3688-464-309">
      <stop
         id="stop2889"
         style="stop-color:#181818;stop-opacity:1"
         offset="0" />
      <stop
         id="stop2891"
         style="stop-color:#181818;stop-opacity:0"
         offset="1" />
    </linearGradient>
    <linearGradient
       x1="25.058096"
       y1="47.027729"
       x2="25.058096"
       y2="39.999443"
       id="linearGradient2459"
       xlink:href="#linearGradient3702-501-757"
       gradientUnits="userSpaceOnUse" />
    <linearGradient
       id="linearGradient3702-501-757">
      <stop
         id="stop2895"
         style="stop-color:#181818;stop-opacity:0"
         offset="0" />
      <stop
         id="stop2897"
         style="stop-color:#181818;stop-opacity:1"
         offset="0.5" />
      <stop
         id="stop2899"
         style="stop-color:#181818;stop-opacity:0"
         offset="1" />
    </linearGradient>
    <linearGradient
       inkscape:collect="always"
       xlink:href="#linearGradient2490-3-7-8"
       id="linearGradient2976-3"
       gradientUnits="userSpaceOnUse"
       x1="25.075518"
       y1="45.914536"
       x2="25.075518"
       y2="6.4426208" />
    <linearGradient
       id="linearGradient2490-3-7-8">
      <stop
         offset="0"
         style="stop-color:#0e305f;stop-opacity:1;"
         id="stop2492-3-7-0" />
      <stop
         offset="1"
         style="stop-color:#185ba7;stop-opacity:1;"
         id="stop2494-8-5-9" />
    </linearGradient>
    <linearGradient
       inkscape:collect="always"
       xlink:href="#linearGradient2490-3-92"
       id="linearGradient2974-4"
       gradientUnits="userSpaceOnUse"
       x1="25.075518"
       y1="45.914536"
       x2="25.075518"
       y2="6.4426208" />
    <linearGradient
       id="linearGradient2490-3-92">
      <stop
         offset="0"
         style="stop-color:#0e395f;stop-opacity:1;"
         id="stop2492-3-5" />
      <stop
         offset="1"
         style="stop-color:#1860a7;stop-opacity:1;"
         id="stop2494-8-7" />
    </linearGradient>
    <linearGradient
       y2="43"
       x2="23.99999"
       y1="4.999989"
       x1="23.99999"
       gradientTransform="matrix(2.7297298,0,0,2.7297298,-1.7423548,-62.843641)"
       gradientUnits="userSpaceOnUse"
       id="linearGradient3234"
       xlink:href="#linearGradient3924-9"
       inkscape:collect="always" />
    <linearGradient
       id="linearGradient3924-9">
      <stop
         id="stop3926-2"
         style="stop-color:#ffffff;stop-opacity:1;"
         offset="0" />
      <stop
         offset="0.06316455"
         style="stop-color:#ffffff;stop-opacity:0.23529412;"
         id="stop3928-5" />
      <stop
         id="stop3930-4"
         style="stop-color:#ffffff;stop-opacity:0.15686275;"
         offset="0.95056331" />
      <stop
         id="stop3932-0"
         style="stop-color:#ffffff;stop-opacity:0.39215687;"
         offset="1" />
    </linearGradient>
    <linearGradient
       y2="6.4426208"
       x2="25.075518"
       y1="45.914536"
       x1="25.075518"
       gradientUnits="userSpaceOnUse"
       id="linearGradient3059"
       xlink:href="#linearGradient2490-3-7-8"
       inkscape:collect="always" />
    <radialGradient
       id="radialGradient2436"
       gradientUnits="userSpaceOnUse"
       cy="4.625"
       cx="62.625"
       gradientTransform="matrix(2.1647,0,0,0.75294,-111.56,36.518)"
       r="10.625">
      <stop
         id="stop8840"
         offset="0" />
      <stop
         id="stop8842"
         style="stop-opacity:0"
         offset="1" />
    </radialGradient>
    <linearGradient
       id="linearGradient2515"
       y2="45.016998"
       gradientUnits="userSpaceOnUse"
       x2="20.759001"
       y1="1"
       x1="20.759001">
      <stop
         id="stop3311"
         style="stop-color:#f6f6f6"
         offset="0" />
      <stop
         id="stop3313"
         style="stop-color:#d2d2d2"
         offset="1" />
    </linearGradient>
    <linearGradient
       id="linearGradient2517"
       y2="45"
       gradientUnits="userSpaceOnUse"
       x2="37.201"
       y1="1"
       x1="37.201">
      <stop
         id="stop3399"
         style="stop-color:#aaa"
         offset="0" />
      <stop
         id="stop3401"
         style="stop-color:#8c8c8c"
         offset="1" />
    </linearGradient>
    <linearGradient
       id="linearGradient2512"
       y2="20.895"
       gradientUnits="userSpaceOnUse"
       x2="84.639"
       gradientTransform="matrix(0.32448,0,0,0.32448,3.2333,2.5577)"
       y1="105.1"
       x1="86.133003">
      <stop
         id="stop5130"
         style="stop-color:#e5e5e5"
         offset="0" />
      <stop
         id="stop5132"
         style="stop-color:#ababab"
         offset="1" />
    </linearGradient>
  </defs>
  <sodipodi:namedview
     id="base"
     pagecolor="#ffffff"
     bordercolor="#666666"
     borderopacity="1.0"
     inkscape:pageopacity="0.0"
     inkscape:pageshadow="2"
     inkscape:zoom="17.479167"
     inkscape:cx="24"
     inkscape:cy="24"
     inkscape:current-layer="layer1"
     showgrid="true"
     inkscape:document-units="px"
     inkscape:grid-bbox="true"
     inkscape:window-width="1920"
     inkscape:window-height="1027"
     inkscape:window-x="0"
     inkscape:window-y="24"
     inkscape:window-maximized="1" />
  <metadata
     id="metadata3254">
    <rdf:RDF>
      <cc:Work
         rdf:about="">
        <dc:format>image/svg+xml</dc:format>
        <dc:type
           rdf:resource="http://purl.org/dc/dcmitype/StillImage" />
        <dc:title></dc:title>
      </cc:Work>
    </rdf:RDF>
  </metadata>
  <g
     id="layer1"
     inkscape:label="Layer 1"
     inkscape:groupmode="layer"
     transform="translate(0,-16)">
    <g
       transform="matrix(1.1749995,0,0,0.4868178,-3.6666275,39.018268)"
       id="g2036"
       style="display:inline">
      <g
         transform="matrix(1.052632,0,0,1.285713,-1.263158,-13.42854)"
         id="g3712"
         style="opacity:0.4">
        <rect
           width="5"
           height="7"
           x="38"
           y="40"
           id="rect2801"
           style="fill:url(#radialGradient2455);fill-opacity:1;stroke:none" />
        <rect
           width="5"
           height="7"
           x="-10"
           y="-47"
           transform="scale(-1,-1)"
           id="rect3696"
           style="fill:url(#radialGradient2457);fill-opacity:1;stroke:none" />
        <rect
           width="28"
           height="7.0000005"
           x="10"
           y="40"
           id="rect3700"
           style="fill:url(#linearGradient2459);fill-opacity:1;stroke:none" />
      </g>
    </g>
    <rect
       style="color:#000000;fill:url(#radialGradient3171);fill-opacity:1;fill-rule:nonzero;stroke:url(#linearGradient3173);stroke-width:0.39830509;stroke-linecap:round;stroke-linejoin:round;stroke-miterlimit:4;stroke-opacity:1;stroke-dasharray:none;stroke-dashoffset:0;marker:none;visibility:visible;display:inline;overflow:visible;enable-background:accumulate"
       id="rect5505-21"
       y="19.080894"
       x="4.0206609"
       ry="2.3898306"
       rx="2.3898306"
       height="41.025425"
       width="41.025425" />
    <rect
       style="opacity:0.5;fill:none;stroke:url(#linearGradient3128);stroke-width:0.39830506;stroke-linecap:round;stroke-linejoin:round;stroke-miterlimit:4;stroke-opacity:1;stroke-dasharray:none;stroke-dashoffset:0"
       id="rect6741-7"
       y="19.479198"
       x="4.4189663"
       ry="1.9915254"
       rx="1.9915254"
       height="40.228813"
       width="40.228813" />
    <path
       d="m 22.321297,41.885161 0,-19.329987 c 0,-0.712327 0.232047,-1.305934 0.696139,-1.780819 0.464092,-0.474885 1.063095,-0.712327 1.797008,-0.712327 0.733914,0 1.327521,0.221253 1.78082,0.663759 0.464093,0.442507 0.696139,1.052303 0.696139,1.829387 l 0,7.220414 8.159391,-8.774583 c 0.572021,-0.625985 1.214195,-0.938977 1.926523,-0.938977 0.658362,0 1.230387,0.226649 1.716059,0.679949 0.496471,0.442507 0.744711,1.02532 0.744711,1.748441 0,0.410128 -0.129517,0.81486 -0.388547,1.214195 -0.25903,0.388542 -0.674547,0.868824 -1.246572,1.440845 l -6.265246,6.232868 7.657522,8.078445 c 0.442509,0.420921 0.782482,0.831049 1.019928,1.230385 0.248232,0.388542 0.372348,0.820256 0.372348,1.295141 0,0.755499 -0.248232,1.332916 -0.744703,1.732252 -0.496476,0.388542 -1.111666,0.582813 -1.845578,0.582813 -0.43171,0 -0.825651,-0.118721 -1.181815,-0.356164 -0.345371,-0.237442 -0.787878,-0.636777 -1.32752,-1.198005 l -8.596501,-9.389776 0,8.531744 c 0,0.67995 -0.232046,1.25197 -0.696139,1.716063 -0.464092,0.464092 -1.057699,0.696138 -1.78082,0.696138 -0.72312,0 -1.322123,-0.221253 -1.797008,-0.66376 -0.464092,-0.442507 -0.696139,-1.02532 -0.696139,-1.748441 z"
       id="path829"
       style="font-size:24px;opacity:0.1;fill:#ffffff;fill-opacity:1;stroke-width:1pt;font-family:VAG Rounded Black SSi"
       inkscape:connector-curvature="0" />
    <path
       d="m 10.140614,51.302165 3.184582,3.336219 5.155958,-3.487882 4.094455,1.819787 1.364815,5.977027 4.397731,-0.04039 1.213178,-6.132734 4.09445,-1.623688 5.155964,3.336248 2.426345,-3.336248 -5.851391,-5.522062 C 20.379038,59.384305 7.4187491,38.183143 20.300917,29.313449 l -1.7e-5,-3.184582 -1.516449,0.75823 -4.701038,-2.988524 -3.247395,2.666811 2.944105,5.02274 -1.668106,4.094449 -5.7448369,0.95431 -0.0093,2.276935 -0.0085,2.07638 5.9142179,1.516464 1.630194,3.980736 z"
       id="path705"
       sodipodi:nodetypes="cccccccccccccccccccccccc"
       sodipodi:stroke-cmyk="(0 0 0 0.8)"
       style="font-size:12px;opacity:0.1;fill:#ffffff;fill-opacity:1;fill-rule:evenodd;stroke:#ffffff;stroke-width:0.26048878;stroke-linecap:round;stroke-linejoin:round;stroke-opacity:1;stroke-dasharray:none"
       inkscape:connector-curvature="0" />
    <path
       d="m 22.576729,41.651145 0,-18.021699 c 0,-0.664115 0.216341,-1.217546 0.649022,-1.66029 0.432682,-0.442744 0.991143,-0.664116 1.675384,-0.664116 0.684241,0 1.237671,0.206279 1.660291,0.618836 0.432682,0.412556 0.649023,0.98108 0.649023,1.70557 l 0,6.731724 7.607148,-8.180704 c 0.533306,-0.583617 1.132017,-0.875426 1.796133,-0.875426 0.613805,0 1.14711,0.21131 1.599916,0.633929 0.462869,0.412557 0.694303,0.955925 0.694303,1.630103 0,0.38237 -0.120748,0.75971 -0.362245,1.132016 -0.241497,0.362246 -0.628897,0.810021 -1.162203,1.343327 l -5.841204,5.811016 7.139249,7.531682 c 0.412559,0.392432 0.729522,0.774802 0.950892,1.14711 0.231435,0.362245 0.347151,0.76474 0.347151,1.207484 0,0.704365 -0.231436,1.242701 -0.694302,1.615009 -0.462868,0.362245 -1.036422,0.543368 -1.720663,0.543368 -0.402495,0 -0.769771,-0.110686 -1.10183,-0.332058 -0.321995,-0.221372 -0.734553,-0.59368 -1.23767,-1.116923 l -8.014675,-8.754258 0,7.9543 c 0,0.633929 -0.216341,1.167234 -0.649023,1.599916 -0.432682,0.432682 -0.986112,0.649023 -1.660291,0.649023 -0.674178,0 -1.23264,-0.206279 -1.675384,-0.618836 -0.432681,-0.412557 -0.649022,-0.955924 -0.649022,-1.630103 z"
       id="path829-9"
       style="font-size:24px;opacity:0.2;fill:#ffffff;fill-opacity:1;stroke:none;font-family:VAG Rounded Black SSi"
       inkscape:connector-curvature="0" />
    <path
       d="m 11.220457,50.430789 2.969042,3.110418 4.806994,-3.251816 3.817335,1.69662 1.272442,5.572492 4.100085,-0.03766 1.131068,-5.71766 3.817329,-1.513795 4.806998,3.110445 2.262124,-3.110444 L 34.74852,45.14107 C 20.765926,57.965915 8.6828111,38.199686 20.693091,29.930309 l -1.5e-5,-2.969043 -1.413814,0.706911 -4.382863,-2.786256 -3.027606,2.486317 2.744843,4.682792 -1.555206,3.81733 -5.3560149,0.88972 -0.01653,4.058674 5.5139339,1.413828 1.519859,3.711312 -3.499223,4.488895 z"
       id="path705-7"
       sodipodi:nodetypes="ccccccccccccccccccccccc"
       sodipodi:stroke-cmyk="(0 0 0 0.8)"
       style="font-size:12px;opacity:0.2;fill:#ffffff;fill-opacity:1;fill-rule:evenodd;stroke:#ffffff;stroke-width:0.24285842;stroke-linecap:round;stroke-linejoin:round;stroke-opacity:1;stroke-dasharray:none"
       inkscape:connector-curvature="0" />
    <path
       d="m 22.86514,41.539006 0,-16.371415 c 0,-0.603302 0.19653,-1.106053 0.58959,-1.508254 0.39306,-0.402202 0.900382,-0.603302 1.521966,-0.603302 0.621584,0 1.124335,0.187389 1.508255,0.562167 0.39306,0.374779 0.58959,0.891241 0.58959,1.549389 l 0,6.115286 6.910547,-7.431581 c 0.484469,-0.530174 1.028355,-0.795261 1.631657,-0.795261 0.557597,0 1.042067,0.19196 1.453408,0.575879 0.420484,0.374778 0.630725,0.868388 0.630725,1.480831 0,0.347356 -0.109691,0.690141 -0.329074,1.028355 -0.219382,0.329074 -0.571308,0.735846 -1.055778,1.220316 l -5.306313,5.278889 6.485494,6.84199 c 0.374778,0.356497 0.662718,0.703852 0.863818,1.042067 0.210242,0.329074 0.315362,0.694711 0.315362,1.096912 0,0.639866 -0.210241,1.128906 -0.630724,1.46712 -0.420483,0.329074 -0.941516,0.493611 -1.5631,0.493611 -0.365637,0 -0.699281,-0.10055 -1.000932,-0.301651 -0.29251,-0.2011 -0.667289,-0.539315 -1.124335,-1.014644 l -7.280755,-7.952614 0,7.22591 c 0,0.575879 -0.19653,1.060348 -0.58959,1.453408 -0.393061,0.393061 -0.895813,0.589591 -1.508255,0.589591 -0.612443,0 -1.119765,-0.187389 -1.521966,-0.562167 -0.39306,-0.374779 -0.58959,-0.868389 -0.58959,-1.480832 z"
       id="path829-4"
       style="font-size:24px;fill:#ffffff;fill-opacity:1;stroke-width:1pt;font-family:VAG Rounded Black SSi"
       inkscape:connector-curvature="0" />
    <path
       d="m 12.548784,49.51468 2.697162,2.825591 4.366808,-2.954041 3.467774,1.541258 1.155921,5.062207 3.724632,-0.03421 1.027494,-5.194081 3.467769,-1.375174 4.366811,2.825615 2.054981,-2.825615 -4.955801,-4.676878 C 21.220155,56.3598 10.243517,38.403604 21.153991,30.89147 l -1.4e-5,-2.697162 -1.284348,0.642178 -3.981515,-2.531113 -2.750362,2.25864 2.493492,4.25398 -1.412793,3.467768 -4.8655539,0.808248 -0.01502,3.687013 5.0090119,1.28436 1.380683,3.371461 -3.178793,4.077837 z"
       id="path705-5"
       sodipodi:nodetypes="ccccccccccccccccccccccc"
       sodipodi:stroke-cmyk="(0 0 0 0.8)"
       style="font-size:12px;fill:#ffffff;fill-opacity:1;fill-rule:evenodd;stroke:#ffffff;stroke-width:0.22061938;stroke-linecap:round;stroke-linejoin:round;stroke-opacity:1;stroke-dasharray:none"
       inkscape:connector-curvature="0" />
    <g
       transform="matrix(0.58708608,0,0,0.58708608,-0.13059029,35.199288)"
       id="layer1-7">
      <path
         inkscape:connector-curvature="0"
         id="path8836"
         style="opacity:0.3;fill:url(#radialGradient2436);fill-rule:evenodd"
         d="m 47,40 c 0,4.4183 -10.297,8 -23,8 -12.703,0 -23,-3.5817 -23,-8 0,-4.4183 10.297,-8 23,-8 12.703,0 23,3.5817 23,8 z" />
      <path
         inkscape:connector-curvature="0"
         id="rect3267"
         style="fill:url(#linearGradient2515);stroke:url(#linearGradient2517);stroke-linejoin:round;display:block"
         d="M 21.031,1.5 C 20.185,1.5 19.5,2.2019 19.5,3.0625 V 6.0937 C 17.987,6.4969 16.541,7.1057 15.219,7.875 L 13.062,5.7188 C 12.758,5.4145 12.394,5.2533 12,5.25 11.606,5.2467 11.205,5.3883 10.906,5.6875 L 6.6875,9.9062 C 6.0892,10.505 6.1102,11.454 6.7188,12.062 L 8.875,14.219 C 8.1057,15.541 7.4969,16.987 7.0938,18.5 H 4.0626 C 3.2019,18.5 2.5,19.185 2.5,20.031 v 5.9375 c 0,0.847 0.7019,1.532 1.5625,1.532 h 3.0312 c 0.40311,1.5129 1.012,2.9586 1.7812,4.2812 l -2.1561,2.157 c -0.6086,0.608 -0.6296,1.557 -0.0313,2.156 l 4.2188,4.2188 c 0.5983,0.5983 1.5477,0.57728 2.1562,-0.03125 l 2.157,-2.157 c 1.3227,0.76926 2.7683,1.3781 4.2812,1.7812 v 3.0312 c 0,0.86059 0.68512,1.5625 1.5312,1.5625 h 5.9375 c 0.847,0 1.532,-0.702 1.532,-1.562 v -3.0312 c 1.5129,-0.40311 2.9586,-1.012 4.2812,-1.7812 l 2.1562,2.1562 c 0.60853,0.60853 1.5579,0.62956 2.1562,0.03125 l 4.2188,-4.2188 c 0.5983,-0.5983 0.57728,-1.5477 -0.03125,-2.1562 l -2.156,-2.157 c 0.769,-1.322 1.378,-2.768 1.781,-4.281 h 3.0312 c 0.86059,0 1.5625,-0.68512 1.5625,-1.5312 v -5.9375 c 0,-0.847 -0.702,-1.532 -1.562,-1.532 h -3.0312 c -0.404,-1.513 -1.013,-2.959 -1.782,-4.281 l 2.1562,-2.1562 c 0.60853,-0.60853 0.62956,-1.5579 0.03125,-2.1562 l -4.218,-4.2193 c -0.599,-0.5983 -1.548,-0.5773 -2.156,0.0313 l -2.157,2.1562 C 31.4605,7.105 30.0145,6.4962 28.5015,6.0931 V 3.0619 c 0,-0.8607 -0.685,-1.5626 -1.531,-1.5626 H 21.033 z M 24,16.5 c 3.588,0 6.5,2.912 6.5,6.5 0,3.588 -2.912,6.5 -6.5,6.5 -3.588,0 -6.5,-2.912 -6.5,-6.5 0,-3.588 2.912,-6.5 6.5,-6.5 z" />
      <path
         inkscape:connector-curvature="0"
         id="path28"
         style="fill:none;stroke:url(#linearGradient2512)"
         d="m 24,9.5 c -7.4439,0 -13.5,6.0561 -13.5,13.5 0,7.4439 6.0561,13.5 13.5,13.5 7.4439,0 13.5,-6.0561 13.5,-13.5 C 37.5,15.556 31.444,9.5 24,9.5 z" />
      <path
         inkscape:connector-curvature="0"
         id="path3315"
         style="opacity:0.05"
         d="m 24,10 c -7.1683,-5e-7 -13,5.8317 -13,13 0,7.1683 5.8317,13 13,13 7.1683,-10e-7 13,-5.8317 13,-13 0,-7.1683 -5.8317,-13 -13,-13 z m 0,6 c 3.864,0 7,3.136 7,7 0,3.864 -3.136,7 -7,7 -3.864,0 -7,-3.136 -7,-7 0,-3.864 3.136,-7 7,-7 z" />
    </g>
  </g>
</svg>
