<?xml version="1.0" encoding="UTF-8" standalone="no"?>
<!-- Created with Inkscape (http://www.inkscape.org/) -->

<svg
   xmlns:dc="http://purl.org/dc/elements/1.1/"
   xmlns:cc="http://creativecommons.org/ns#"
   xmlns:rdf="http://www.w3.org/1999/02/22-rdf-syntax-ns#"
   xmlns:svg="http://www.w3.org/2000/svg"
   xmlns="http://www.w3.org/2000/svg"
   xmlns:xlink="http://www.w3.org/1999/xlink"
   xmlns:sodipodi="http://sodipodi.sourceforge.net/DTD/sodipodi-0.dtd"
   xmlns:inkscape="http://www.inkscape.org/namespaces/inkscape"
   version="1.0"
   width="48"
   height="48"
   id="svg2453"
   inkscape:version="0.48.1 r9760"
   sodipodi:docname="gnome-mime-image-x-killustrator.svg">
  <metadata
     id="metadata3259">
    <rdf:RDF>
      <cc:Work
         rdf:about="">
        <dc:format>image/svg+xml</dc:format>
        <dc:type
           rdf:resource="http://purl.org/dc/dcmitype/StillImage" />
        <dc:title></dc:title>
      </cc:Work>
    </rdf:RDF>
  </metadata>
  <sodipodi:namedview
     pagecolor="#ffffff"
     bordercolor="#666666"
     borderopacity="1"
     objecttolerance="10"
     gridtolerance="10"
     guidetolerance="10"
     inkscape:pageopacity="0"
     inkscape:pageshadow="2"
     inkscape:window-width="1468"
     inkscape:window-height="846"
     id="namedview3257"
     showgrid="false"
     inkscape:zoom="6.6041667"
     inkscape:cx="24"
     inkscape:cy="25.892744"
     inkscape:window-x="0"
     inkscape:window-y="24"
     inkscape:window-maximized="0"
     inkscape:current-layer="svg2453" />
  <defs
     id="defs2455">
    <radialGradient
       cx="605.71429"
       cy="486.64789"
       r="117.14286"
       fx="605.71429"
       fy="486.64789"
       id="radialGradient19613"
       xlink:href="#linearGradient5060"
       gradientUnits="userSpaceOnUse"
       gradientTransform="matrix(0.02891661,0,0,0.01235294,26.973101,38.470848)" />
    <linearGradient
       id="linearGradient5060">
      <stop
         id="stop5062"
         style="stop-color:black;stop-opacity:1"
         offset="0" />
      <stop
         id="stop5064"
         style="stop-color:black;stop-opacity:0"
         offset="1" />
    </linearGradient>
    <radialGradient
       cx="605.71429"
       cy="486.64789"
       r="117.14286"
       fx="605.71429"
       fy="486.64789"
       id="radialGradient19616"
       xlink:href="#linearGradient5060"
       gradientUnits="userSpaceOnUse"
       gradientTransform="matrix(-0.0289166,0,0,0.01235294,21.026894,38.470848)" />
    <linearGradient
       id="linearGradient5048">
      <stop
         id="stop5050"
         style="stop-color:black;stop-opacity:0"
         offset="0" />
      <stop
         id="stop5056"
         style="stop-color:black;stop-opacity:1"
         offset="0.5" />
      <stop
         id="stop5052"
         style="stop-color:black;stop-opacity:0"
         offset="1" />
    </linearGradient>
    <linearGradient
       x1="302.85715"
       y1="366.64789"
       x2="302.85715"
       y2="609.50507"
       id="linearGradient19619"
       xlink:href="#linearGradient5048"
       gradientUnits="userSpaceOnUse"
       gradientTransform="matrix(0.08449704,0,0,0.01235294,-6.5396456,38.470822)" />
    <linearGradient
       id="linearGradient259-942">
      <stop
         id="stop3802"
         style="stop-color:white;stop-opacity:1"
         offset="0" />
      <stop
         id="stop3804"
         style="stop-color:#e0e0e0;stop-opacity:1"
         offset="1" />
    </linearGradient>
    <linearGradient
       x1="108.26451"
       y1="110.28094"
       x2="25.817675"
       y2="14.029031"
       id="linearGradient2447"
       xlink:href="#linearGradient259-942"
       gradientUnits="userSpaceOnUse"
       gradientTransform="matrix(0.5066363,0,0,0.3512482,-58.338079,-49.085984)" />
    <linearGradient
       id="linearGradient3610-302">
      <stop
         id="stop3796"
         style="stop-color:#333;stop-opacity:1"
         offset="0" />
      <stop
         id="stop3798"
         style="stop-color:#292929;stop-opacity:1"
         offset="1" />
    </linearGradient>
    <linearGradient
       x1="-24.032034"
       y1="-13.090545"
       x2="-24.097931"
       y2="-40.163883"
       id="linearGradient2444"
       xlink:href="#linearGradient3610-302"
       gradientUnits="userSpaceOnUse"
       gradientTransform="matrix(1.1142851,0,0,1.1111113,2.7514431,3.5103428)" />
    <linearGradient
       id="linearGradient4157-401-351">
      <stop
         id="stop3790"
         style="stop-color:#262626;stop-opacity:1"
         offset="0" />
      <stop
         id="stop3792"
         style="stop-color:#828282;stop-opacity:1"
         offset="1" />
    </linearGradient>
    <linearGradient
       x1="28.938274"
       y1="17.33289"
       x2="105.36545"
       y2="92.823723"
       id="linearGradient2442"
       xlink:href="#linearGradient4157-401-351"
       gradientUnits="userSpaceOnUse"
       gradientTransform="matrix(0.4908393,0,0,0.3803351,-57.357124,-48.338393)" />
    <filter
       y="-0.25"
       x="-0.25"
       height="1.5"
       width="1.5"
       inkscape:label="Drop shadow"
       id="filter3251"
       color-interpolation-filters="sRGB">
      <feGaussianBlur
         result="blur"
         stdDeviation="2.000000"
         in="SourceAlpha"
         id="feGaussianBlur3253" />
      <feColorMatrix
         values="1 0 0 0 0 0 1 0 0 0 0 0 1 0 0 0 0 0 0.651000 0 "
         type="matrix"
         result="bluralpha"
         id="feColorMatrix3255" />
      <feOffset
         result="offsetBlur"
         dy="4.000000"
         dx="4.000000"
         in="bluralpha"
         id="feOffset3257" />
      <feMerge
         id="feMerge3259">
        <feMergeNode
           in="offsetBlur"
           id="feMergeNode3261" />
        <feMergeNode
           in="SourceGraphic"
           id="feMergeNode3263" />
      </feMerge>
    </filter>
    <filter
       y="-0.25"
       x="-0.25"
       height="1.5"
       width="1.5"
       inkscape:label="Drop shadow"
       id="filter3265"
       color-interpolation-filters="sRGB">
      <feGaussianBlur
         result="blur"
         stdDeviation="2.000000"
         in="SourceAlpha"
         id="feGaussianBlur3267" />
      <feColorMatrix
         values="1 0 0 0 0 0 1 0 0 0 0 0 1 0 0 0 0 0 0.651000 0 "
         type="matrix"
         result="bluralpha"
         id="feColorMatrix3269" />
      <feOffset
         result="offsetBlur"
         dy="4.000000"
         dx="4.000000"
         in="bluralpha"
         id="feOffset3271" />
      <feMerge
         id="feMerge3273">
        <feMergeNode
           in="offsetBlur"
           id="feMergeNode3275" />
        <feMergeNode
           in="SourceGraphic"
           id="feMergeNode3277" />
      </feMerge>
    </filter>
    <linearGradient
       inkscape:collect="always"
       xlink:href="#linearGradient5048"
       id="linearGradient3320"
       gradientUnits="userSpaceOnUse"
       gradientTransform="matrix(0.08449704,0,0,0.01235294,-6.5396456,38.470822)"
       x1="302.85715"
       y1="366.64789"
       x2="302.85715"
       y2="609.50507" />
    <radialGradient
       inkscape:collect="always"
       xlink:href="#linearGradient5060"
       id="radialGradient3322"
       gradientUnits="userSpaceOnUse"
       gradientTransform="matrix(-0.0289166,0,0,0.01235294,21.026894,38.470848)"
       cx="605.71429"
       cy="486.64789"
       fx="605.71429"
       fy="486.64789"
       r="117.14286" />
    <radialGradient
       inkscape:collect="always"
       xlink:href="#linearGradient5060"
       id="radialGradient3324"
       gradientUnits="userSpaceOnUse"
       gradientTransform="matrix(0.02891661,0,0,0.01235294,26.973101,38.470848)"
       cx="605.71429"
       cy="486.64789"
       fx="605.71429"
       fy="486.64789"
       r="117.14286" />
    <linearGradient
       inkscape:collect="always"
       xlink:href="#linearGradient259-942"
       id="linearGradient3326"
       gradientUnits="userSpaceOnUse"
       gradientTransform="matrix(0.5066363,0,0,0.3512482,-58.338079,-49.085984)"
       x1="108.26451"
       y1="110.28094"
       x2="25.817675"
       y2="14.029031" />
    <linearGradient
       inkscape:collect="always"
       xlink:href="#linearGradient4157-401-351"
       id="linearGradient3328"
       gradientUnits="userSpaceOnUse"
       gradientTransform="matrix(0.4908393,0,0,0.3803351,-57.357124,-48.338393)"
       x1="28.938274"
       y1="17.33289"
       x2="105.36545"
       y2="92.823723" />
    <linearGradient
       inkscape:collect="always"
       xlink:href="#linearGradient3610-302"
       id="linearGradient3330"
       gradientUnits="userSpaceOnUse"
       gradientTransform="matrix(1.1142851,0,0,1.1111113,2.7514431,3.5103428)"
       x1="-24.032034"
       y1="-13.090545"
       x2="-24.097931"
       y2="-40.163883" />
    <linearGradient
       id="linearGradient3624"
       y2="17.891001"
       gradientUnits="userSpaceOnUse"
       x2="42.599998"
       gradientTransform="matrix(0,1.0524,-0.97832,0,45.58,-3.8326)"
       y1="17.891001"
       x1="8.3940001">
      <stop
         id="stop3618"
         style="stop-color:#f0c178"
         offset="0" />
      <stop
         id="stop3270"
         style="stop-color:#e18941"
         offset=".5" />
      <stop
         id="stop3620"
         style="stop-color:#ec4f18"
         offset="1" />
    </linearGradient>
    <linearGradient
       id="linearGradient3668"
       y2="5.0028"
       gradientUnits="userSpaceOnUse"
       x2="16.158001"
       y1="41.015999"
       x1="16.158001">
      <stop
         id="stop3624"
         style="stop-color:#bb2b12"
         offset="0" />
      <stop
         id="stop3626"
         style="stop-color:#cd7233"
         offset="1" />
    </linearGradient>
    <linearGradient
       y2="17.891001"
       x2="42.599998"
       y1="17.891001"
       x1="8.3940001"
       gradientTransform="matrix(0.62300459,0,0,0.57915037,-4.2414055,-0.41913013)"
       gradientUnits="userSpaceOnUse"
       id="linearGradient3444"
       xlink:href="#linearGradient3624"
       inkscape:collect="always" />
    <linearGradient
       gradientTransform="matrix(0,-0.5919846,0.5919846,0,-1.9725655,26.563527)"
       y2="5.0028"
       x2="16.158001"
       y1="41.015999"
       x1="16.158001"
       gradientUnits="userSpaceOnUse"
       id="linearGradient3446"
       xlink:href="#linearGradient3668"
       inkscape:collect="always" />
    <linearGradient
       inkscape:collect="always"
       xlink:href="#linearGradient7648"
       id="linearGradient3936"
       gradientUnits="userSpaceOnUse"
       gradientTransform="matrix(0.81738622,0,0,-0.59064961,-2.0222691,1051.8178)"
       x1="21.9326"
       y1="24.627399"
       x2="21.9326"
       y2="7.1090999" />
    <linearGradient
       y2="7.1090999"
       x2="21.9326"
       y1="24.627399"
       x1="21.9326"
       gradientUnits="userSpaceOnUse"
       id="linearGradient7648">
      <stop
         id="stop7650"
         style="stop-color:#8595bc;stop-opacity:1;"
         offset="0" />
      <stop
         id="stop7652"
         style="stop-color:#041a3b;stop-opacity:1;"
         offset="1" />
    </linearGradient>
    <linearGradient
       inkscape:collect="always"
       xlink:href="#aigrd3"
       id="linearGradient3933"
       gradientUnits="userSpaceOnUse"
       gradientTransform="matrix(0.8417222,0,0,0.92567064,-2.3827418,15.636115)"
       x1="21.9326"
       y1="24.627399"
       x2="21.9326"
       y2="7.1090999" />
    <linearGradient
       id="aigrd3"
       gradientUnits="userSpaceOnUse"
       x1="21.9326"
       y1="24.627399"
       x2="21.9326"
       y2="7.1090999">
      <stop
         offset="0"
         style="stop-color:#D0D6E5;stroke-dasharray:none;stroke-miterlimit:4.0000000;stroke-width:1.2166667"
         id="stop16199" />
      <stop
         offset="1"
         style="stop-color:#093A80;stroke-dasharray:none;stroke-miterlimit:4.0000000;stroke-width:1.2166667"
         id="stop16201" />
    </linearGradient>
    <linearGradient
       y2="7.1090999"
       x2="21.9326"
       y1="24.627399"
       x1="21.9326"
       gradientTransform="matrix(0.8417222,0,0,-0.66726505,-2.3827418,50.517838)"
       gradientUnits="userSpaceOnUse"
       id="linearGradient3507"
       xlink:href="#linearGradient7648"
       inkscape:collect="always" />
  </defs>
  <g
     id="layer1"
     transform="matrix(0.66666667,0,0,0.66666667,16.201893,-4.3512096)">
    <g
       id="g3257"
       style="opacity:0.4">
      <rect
         width="40.799999"
         height="2.9999998"
         x="3.5999999"
         y="43"
         id="rect2879"
         style="fill:url(#linearGradient19619);fill-opacity:1;fill-rule:nonzero;stroke:none;stroke-width:1;marker:none;visibility:visible;display:inline;overflow:visible" />
      <path
         d="m 3.6,43.00013 c 0,0 0,2.999835 0,2.999835 C 2.1108662,46.005612 0,45.327854 0,44.499854 0,43.671856 1.6617608,43.000131 3.6,43.00013 z"
         id="path2881"
         style="fill:url(#radialGradient19616);fill-opacity:1;fill-rule:nonzero;stroke:none;stroke-width:1;marker:none;visibility:visible;display:inline;overflow:visible"
         inkscape:connector-curvature="0" />
      <path
         d="m 44.4,43.00013 c 0,0 0,2.999835 0,2.999835 1.489133,0.0056 3.6,-0.672111 3.6,-1.500111 0,-0.827998 -1.661761,-1.499723 -3.6,-1.499724 z"
         id="path2883"
         style="fill:url(#radialGradient19613);fill-opacity:1;fill-rule:nonzero;stroke:none;stroke-width:1;marker:none;visibility:visible;display:inline;overflow:visible"
         inkscape:connector-curvature="0" />
    </g>
    <rect
       width="44.965565"
       height="35.922085"
       x="-46.457321"
       y="-44.502605"
       transform="matrix(-0.9999985,0.00173317,-9.6052603e-4,-0.9999995,0,0)"
       id="rect3580"
       style="fill:url(#linearGradient2447);fill-opacity:1;stroke:#c1c1c1;stroke-width:0.99999994;stroke-linecap:round;stroke-linejoin:miter;stroke-miterlimit:4;stroke-opacity:0.96862745;stroke-dasharray:none" />
    <rect
       width="38.927383"
       height="29.853907"
       rx="0"
       ry="0"
       x="-43.528763"
       y="-41.517406"
       transform="matrix(-0.9999929,0.00375523,0.00244093,-0.999997,0,0)"
       id="rect3582"
       style="fill:url(#linearGradient2442);fill-opacity:1;stroke:url(#linearGradient2444);stroke-width:1.00000966;stroke-linecap:round;stroke-linejoin:miter;stroke-miterlimit:4;stroke-opacity:1;stroke-dasharray:none" />
  </g>
  <g
     id="g3265"
     transform="matrix(0.08781273,0,0,0.08781273,21.18343,1.1797194)">
    <path
       id="text3103"
       d="m 118.52183,65.659798 c -31.08664,0 -57.814406,6.657231 -79.902295,19.768854 C 16.531658,98.741987 5.6263994,114.47698 5.6263994,133.03496 c 0,18.7597 10.9052586,34.69465 32.9931356,47.80627 22.087889,13.31334 48.815655,19.76887 79.902295,19.76887 18.81561,0 36.53864,-2.624 53.17272,-7.86864 16.3614,-5.24466 29.99448,-12.50567 40.62939,-21.78466 1.36345,-1.2103 2.18333,-2.62321 2.18333,-4.23695 0,-3.17027 -2.79786,-5.65067 -7.9605,-7.4417 -16.04056,15.97911 -46.51606,26.7674 -81.47495,26.7674 -51.636432,0 -93.494057,-23.53766 -93.494057,-52.57284 0,-29.03519 41.857625,-52.572848 93.494057,-52.572848 34.6036,0 64.81617,10.569315 80.98315,26.281018 5.47632,-1.62816 8.4523,-4.16909 8.4523,-7.630845 0,-1.412013 -0.81988,-2.824932 -2.18333,-4.236958 -10.63491,-9.278983 -24.26799,-16.539999 -40.62939,-21.784649 -16.63408,-5.244649 -34.35711,-7.868643 -53.17272,-7.868643 z"
       style="font-size:1356.18371582px;font-style:normal;font-variant:normal;font-weight:normal;font-stretch:normal;text-align:start;line-height:100%;writing-mode:lr-tb;text-anchor:start;fill:#729fcf;fill-opacity:1;stroke:none;filter:url(#filter3251);font-family:Plymdale;-inkscape-font-specification:Plymdale"
       inkscape:connector-curvature="0" />
    <path
       id="text3107"
       d="m 51.865513,108.25878 c -5.653243,0 -10.500613,2.51133 -14.476525,7.43983 -3.975911,5.02513 -5.96329,11.01517 -5.96329,17.97305 0,6.95787 1.987379,12.95183 5.96329,17.97697 3.975912,5.02511 8.823282,7.43982 14.476525,7.43982 5.591115,0 10.435171,-2.41471 14.411069,-7.43982 3.975912,-5.02514 6.026223,-11.0191 6.026223,-17.97697 0,-6.95788 -2.050311,-12.94792 -6.026223,-17.97305 -3.975898,-4.9285 -8.819954,-7.43983 -14.411069,-7.43983 z m 45.355237,0 c -4.721389,0 -8.634942,2.51007 -11.803233,7.34193 -3.230432,4.92851 -4.782717,10.91979 -4.782717,18.07095 l 0,20.48691 c 0,1.15966 0.372966,2.22242 1.180574,2.99551 0.745479,0.86973 1.739616,1.25695 2.91997,1.25695 1.118226,0 2.049444,-0.38722 2.857052,-1.25695 0.745479,-0.77309 1.180561,-1.83585 1.180561,-2.99551 l 0,-20.48691 c 0,-4.6386 0.869996,-8.69497 2.733701,-12.1739 1.677345,-3.18904 3.601892,-4.83198 5.714092,-4.83198 2.05008,0 3.91421,1.64294 5.65368,4.83198 1.80158,3.47893 2.7337,7.5353 2.7337,12.1739 l 0,20.48691 c 0,1.15966 0.37297,2.22242 1.18057,2.99551 0.74549,0.7731 1.73962,1.16296 2.91998,1.16296 1.11822,0 2.04943,-0.38986 2.85704,-1.16296 0.74547,-0.77309 1.18057,-1.83585 1.18057,-2.99551 l 0,-20.48691 c 0,-4.6386 0.86998,-8.69497 2.73369,-12.1739 1.67734,-3.18904 3.60441,-4.83198 5.71661,-4.83198 2.05007,0 3.9117,1.64294 5.65115,4.83198 1.80159,3.47893 2.73371,7.5353 2.73371,12.1739 l 0,20.39294 c 0,1.15965 0.37295,2.22242 1.18057,2.9955 0.8076,0.7731 1.80175,1.15905 2.91997,1.15905 1.11822,0 2.04945,-0.38595 2.85705,-1.15905 0.74549,-0.77308 1.18057,-1.83585 1.18057,-2.9955 l 0,-20.39294 c 0,-7.15116 -1.61442,-13.14244 -4.78272,-18.07095 -3.23042,-4.83186 -7.14315,-7.34193 -11.7403,-7.34193 -5.09412,0 -9.25749,2.89854 -12.48791,8.69678 -3.35469,-5.79824 -7.51805,-8.69678 -12.48793,-8.69678 z m 70.58784,0 c -5.65324,0 -10.50062,2.51133 -14.47654,7.43983 -3.97589,5.02513 -5.96328,11.01517 -5.96328,17.97305 l 0,36.33765 c 0,1.15965 0.37297,2.22242 1.18059,2.99551 0.74547,0.86974 1.73962,1.25695 2.91996,1.25695 1.11823,0 2.04943,-0.38721 2.85706,-1.25695 0.74546,-0.77309 1.18055,-1.83586 1.18055,-2.99551 l 0,-36.33765 c 0,-4.6386 1.18185,-8.69637 3.60466,-11.98203 2.36069,-3.28567 5.28021,-5.02385 8.697,-5.02385 3.35466,0 6.27417,1.73818 8.69698,5.02385 2.3607,3.28566 3.60212,7.34343 3.60212,11.98203 0,4.73522 -1.24142,8.79425 -3.60212,12.0799 -2.42281,3.28569 -5.34232,4.92988 -8.69698,4.92988 -1.49097,0 -2.85968,-0.29196 -4.22641,-1.06507 -0.62124,-0.28991 -1.17859,-0.48163 -1.79981,-0.48163 -0.99398,0 -1.86488,0.38469 -2.61037,1.06116 -0.99397,0.77311 -1.49018,1.83836 -1.49018,3.19129 0,1.73946 0.74512,2.9938 2.29821,3.76689 2.48494,1.35292 5.09511,1.93437 7.82856,1.93437 5.59113,0 10.43515,-2.41471 14.41106,-7.43982 3.97591,-4.92851 6.02622,-10.92246 6.02622,-17.97697 0,-6.95788 -2.05031,-12.94792 -6.02622,-17.97305 -3.97591,-4.9285 -8.81993,-7.43983 -14.41106,-7.43983 z m 34.16619,1.93046 c -1.18034,0 -2.17449,0.48382 -2.91997,1.25693 -0.8076,0.86973 -1.18057,1.83586 -1.18057,2.9955 l 0,39.62293 c 0,1.15965 0.37297,2.22242 1.18057,2.9955 0.74548,0.7731 1.73963,1.15905 2.91997,1.15905 1.11823,0 2.04944,-0.38595 2.85705,-1.15905 0.74546,-0.77308 1.18057,-1.83585 1.18057,-2.9955 l 0,-39.62293 c 0,-1.15964 -0.43511,-2.12577 -1.18057,-2.9955 -0.80761,-0.77311 -1.73882,-1.25693 -2.85705,-1.25693 z m 17.42673,0 c -1.18037,0 -2.17452,0.48382 -2.91998,1.25693 -0.80763,0.86973 -1.17808,1.83586 -1.17808,2.9955 0,1.15965 0.37045,2.2224 1.17808,2.99551 0.74546,0.86974 1.73961,1.25694 2.91998,1.25694 l 18.51411,0 -21.86705,32.95451 c -0.49701,0.77309 -0.74512,1.54623 -0.74512,2.41597 0,1.35293 0.43329,2.41428 1.42726,3.18737 0.80763,0.67647 1.6768,0.96718 2.6708,0.96718 l 26.27974,0 c 1.11821,0 2.04944,-0.38595 2.85704,-1.15905 0.74548,-0.77308 1.18059,-1.83585 1.18059,-2.9955 0,-1.15964 -0.43511,-2.12578 -1.18059,-2.9955 -0.8076,-0.77311 -1.73883,-1.25695 -2.85704,-1.25695 l -18.57456,0 21.9275,-32.9545 c 0.43486,-0.67645 0.68469,-1.4496 0.68469,-2.41598 0,-1.35292 -0.49712,-2.32031 -1.36686,-3.09339 -0.86974,-0.7731 -1.80105,-1.15904 -2.67077,-1.15904 l -26.27974,0 z m -167.535997,6.47654 c 3.354677,0 6.274168,1.73818 8.696992,5.02385 2.360695,3.28566 3.602129,7.34343 3.602129,11.98203 0,4.63859 -1.241434,8.70027 -3.602129,11.98594 -2.422824,3.28568 -5.342315,4.92596 -8.696992,4.92596 -3.416792,0 -6.336295,-1.64028 -8.696991,-4.92596 -2.422824,-3.28567 -3.604654,-7.34735 -3.604654,-11.98594 0,-4.6386 1.18183,-8.69637 3.604654,-11.98203 2.360696,-3.28567 5.280199,-5.02385 8.696991,-5.02385 z"
       style="font-size:771.2333374px;font-style:normal;font-variant:normal;font-weight:normal;font-stretch:normal;text-align:start;line-height:125%;writing-mode:lr-tb;text-anchor:start;fill:#729fcf;fill-opacity:1;stroke:none;filter:url(#filter3265);font-family:Plymdale;-inkscape-font-specification:Plymdale"
       inkscape:connector-curvature="0" />
  </g>
  <g
     transform="matrix(0.66666667,0,0,0.66666667,0.45425893,16.544689)"
     id="g3300">
    <g
       style="opacity:0.4"
       id="g3302">
      <rect
         style="fill:url(#linearGradient3320);fill-opacity:1;fill-rule:nonzero;stroke:none;stroke-width:1;marker:none;visibility:visible;display:inline;overflow:visible"
         id="rect3304"
         y="43"
         x="3.5999999"
         height="2.9999998"
         width="40.799999" />
      <path
         inkscape:connector-curvature="0"
         style="fill:url(#radialGradient3322);fill-opacity:1;fill-rule:nonzero;stroke:none;stroke-width:1;marker:none;visibility:visible;display:inline;overflow:visible"
         id="path3306"
         d="m 3.6,43.00013 c 0,0 0,2.999835 0,2.999835 C 2.1108662,46.005612 0,45.327854 0,44.499854 0,43.671856 1.6617608,43.000131 3.6,43.00013 z" />
      <path
         inkscape:connector-curvature="0"
         style="fill:url(#radialGradient3324);fill-opacity:1;fill-rule:nonzero;stroke:none;stroke-width:1;marker:none;visibility:visible;display:inline;overflow:visible"
         id="path3308"
         d="m 44.4,43.00013 c 0,0 0,2.999835 0,2.999835 1.489133,0.0056 3.6,-0.672111 3.6,-1.500111 0,-0.827998 -1.661761,-1.499723 -3.6,-1.499724 z" />
    </g>
    <rect
       style="fill:url(#linearGradient3326);fill-opacity:1;stroke:#c1c1c1;stroke-width:0.99999994;stroke-linecap:round;stroke-linejoin:miter;stroke-miterlimit:4;stroke-opacity:0.96862745;stroke-dasharray:none"
       id="rect3310"
       transform="matrix(-0.9999985,0.00173317,-9.6052603e-4,-0.9999995,0,0)"
       y="-44.502605"
       x="-46.457321"
       height="35.922085"
       width="44.965565" />
    <rect
       style="fill:url(#linearGradient3328);fill-opacity:1;stroke:url(#linearGradient3330);stroke-width:1.00000966;stroke-linecap:round;stroke-linejoin:miter;stroke-miterlimit:4;stroke-opacity:1;stroke-dasharray:none"
       id="rect3312"
       transform="matrix(-0.9999929,0.00375523,0.00244093,-0.999997,0,0)"
       y="-41.517406"
       x="-43.528763"
       ry="0"
       rx="0"
       height="29.853907"
       width="38.927383" />
  </g>
  <path
     inkscape:connector-curvature="0"
     style="fill:url(#linearGradient3507);fill-opacity:1;fill-rule:nonzero;stroke:none"
     d="m 3.3359407,44.391851 26.1407833,0 0,-8.675863 -26.1407833,0 0,8.675863 z"
     id="path7644" />
  <path
     inkscape:connector-curvature="0"
     id="path16203"
     d="m 3.3359407,24.134388 26.1407833,0 0,12.035859 -26.1407833,0 0,-12.035859 z"
     style="fill:url(#linearGradient3933);fill-rule:nonzero;stroke:none" />
  <g
     transform="matrix(0.91082837,0,0,0.99469254,-3.5863553,14.287011)"
     style="fill-rule:nonzero;stroke:#000000;stroke-width:1.15611064;stroke-miterlimit:4"
     id="g16205">
    <g
       id="g16207">
      <path
         inkscape:connector-curvature="0"
         id="path16209"
         d="m 18.4,15.4 c 0,2.2 -1.8,4.1 -4.1,4.1 -2.2,0 -4.1,-1.8 -4.1,-4.1 0,-2.2 1.8,-4.1 4.1,-4.1 2.2,0 4.1,1.8 4.1,4.1 z"
         style="opacity:0.04999994;fill:#e8f52f;stroke:none" />
      <path
         inkscape:connector-curvature="0"
         id="path16211"
         d="m 18,15.4 c 0,2 -1.6,3.7 -3.7,3.7 -2,0 -3.7,-1.6 -3.7,-3.7 0,-2 1.6,-3.7 3.7,-3.7 2,0 3.7,1.6 3.7,3.7 l 0,0 z"
         style="opacity:0.20829994;fill:#ecf751;stroke:none" />
      <path
         inkscape:connector-curvature="0"
         id="path16213"
         d="m 17.6,15.4 c 0,1.8 -1.5,3.3 -3.3,3.3 -1.8,0 -3.3,-1.5 -3.3,-3.3 0,-1.8 1.5,-3.3 3.3,-3.3 1.8,0 3.3,1.5 3.3,3.3 l 0,0 z"
         style="opacity:0.36669994;fill:#f0f972;stroke:none" />
      <path
         inkscape:connector-curvature="0"
         id="path16215"
         d="m 17.2,15.4 c 0,1.6 -1.3,2.9 -2.9,2.9 -1.6,0 -2.9,-1.3 -2.9,-2.9 0,-1.6 1.3,-2.9 2.9,-2.9 1.6,0 2.9,1.3 2.9,2.9 z"
         style="opacity:0.525;fill:#f4fa95;stroke:none" />
      <path
         inkscape:connector-curvature="0"
         id="path16217"
         d="m 16.8,15.4 c 0,1.4 -1.1,2.5 -2.5,2.5 -1.4,0 -2.5,-1.1 -2.5,-2.5 0,-1.4 1.1,-2.5 2.5,-2.5 1.4,0 2.5,1.1 2.5,2.5 l 0,0 z"
         style="opacity:0.6833;fill:#f7fcb7;stroke:none" />
      <path
         inkscape:connector-curvature="0"
         id="path16219"
         d="m 16.4,15.4 c 0,1.2 -1,2.1 -2.1,2.1 -1.1,0 -2.1,-1 -2.1,-2.1 0,-1.1 1,-2.1 2.1,-2.1 1.1,0 2.1,1 2.1,2.1 z"
         style="opacity:0.8417;fill:#fbfddb;stroke:none" />
      <path
         inkscape:connector-curvature="0"
         id="path16221"
         d="m 16,15.4 c 0,1 -0.8,1.8 -1.8,1.8 -1,0 -1.8,-0.8 -1.8,-1.8 0,-1 0.8,-1.8 1.8,-1.8 1,0 1.8,0.8 1.8,1.8 l 0,0 z"
         style="fill:#ffffff;stroke:none" />
    </g>
  </g>
  <path
     inkscape:connector-curvature="0"
     id="path16223"
     d="m 18.273531,37.861202 6.649051,0 1.275159,0.397885 -2.185988,0 c 0,0 2.185988,0.198943 3.278984,1.690956 1.092993,1.392598 -1.27516,3.083554 -1.27516,3.083554 0,0 0,0 0,0 -0.09108,-0.298358 -0.637582,-2.685669 -1.730576,-3.680382 -0.819747,-0.79577 -1.730575,-0.994713 -1.730575,-0.994713 l -4.280895,0 0,-0.397885 0,-0.09942 z"
     style="opacity:0.3;fill-rule:nonzero;stroke:none" />
  <path
     inkscape:connector-curvature="0"
     id="path16225"
     d="m 22.645511,38.45803 -3.825482,0 7.104464,4.376624 -3.278982,-4.376624 0,0 z"
     style="opacity:0.3;fill-rule:nonzero;stroke:none" />
  <path
     inkscape:connector-curvature="0"
     id="path16227"
     d="m 18.273531,37.960617 6.649051,0 1.001911,-0.696243 -2.185987,0 c 0,0 2.00382,-0.397885 2.277071,-2.884611 0.273247,-2.486726 -3.096819,-5.271923 -3.096819,-5.271923 0,0 0,0 0,0.09942 0.09108,0.596827 1.00191,4.77451 0.364332,6.366051 -0.27325,1.392598 -1.092995,1.690955 -1.092995,1.690955 l -4.189813,0 0.182166,0.696243 0.09108,0 z"
     style="fill:#515151;fill-rule:nonzero;stroke:none" />
  <path
     inkscape:connector-curvature="0"
     id="path16229"
     d="m 22.281178,36.866489 -3.825481,0 4.554143,-7.559706 -0.728662,7.559706 z"
     style="fill:#515151;fill-rule:nonzero;stroke:none" />
  <rect
     style="opacity:0.84659095;color:#000000;fill:none;stroke:#4f4f4f;stroke-width:0.744555;stroke-linecap:butt;stroke-linejoin:miter;stroke-miterlimit:4;stroke-opacity:1;stroke-dasharray:none;stroke-dashoffset:0;marker:none;visibility:visible;display:inline;overflow:visible"
     id="rect8163"
     width="25.46003"
     height="19.133833"
     x="3.6990066"
     y="24.544844" />
  <path
     inkscape:connector-curvature="0"
     id="path3701"
     style="fill:url(#linearGradient3444);stroke:url(#linearGradient3446);stroke-width:0.56889719;stroke-linecap:round;stroke-linejoin:round;stroke-miterlimit:7;display:block;enable-background:new"
     d="M 10.422407,24.503125 C -2.2934215,22.916843 -1.5599525,6.0249179 11.411021,6.1433149 l 0,-4.753695 10.603628,8.447028 -10.603628,8.8596411 0,-4.863804 c -8.7613715,-0.3398 -8.4405155,8.496755 -0.988614,10.66993 z" />
</svg>
