<?xml version="1.0" encoding="UTF-8" standalone="no"?>
<!-- Created with Inkscape (http://www.inkscape.org/) -->

<svg
   xmlns:dc="http://purl.org/dc/elements/1.1/"
   xmlns:cc="http://creativecommons.org/ns#"
   xmlns:rdf="http://www.w3.org/1999/02/22-rdf-syntax-ns#"
   xmlns:svg="http://www.w3.org/2000/svg"
   xmlns="http://www.w3.org/2000/svg"
   xmlns:xlink="http://www.w3.org/1999/xlink"
   xmlns:sodipodi="http://sodipodi.sourceforge.net/DTD/sodipodi-0.dtd"
   xmlns:inkscape="http://www.inkscape.org/namespaces/inkscape"
   id="svg3219"
   height="48"
   width="48"
   version="1.0"
   inkscape:version="0.48.1 r9760"
   sodipodi:docname="evolution-calendar.svg">
  <metadata
     id="metadata59">
    <rdf:RDF>
      <cc:Work
         rdf:about="">
        <dc:format>image/svg+xml</dc:format>
        <dc:type
           rdf:resource="http://purl.org/dc/dcmitype/StillImage" />
        <dc:title></dc:title>
      </cc:Work>
    </rdf:RDF>
  </metadata>
  <sodipodi:namedview
     pagecolor="#ffffff"
     bordercolor="#666666"
     borderopacity="1"
     objecttolerance="10"
     gridtolerance="10"
     guidetolerance="10"
     inkscape:pageopacity="0"
     inkscape:pageshadow="2"
     inkscape:window-width="640"
     inkscape:window-height="480"
     id="namedview57"
     showgrid="false"
     inkscape:zoom="6.0208333"
     inkscape:cx="24"
     inkscape:cy="24"
     inkscape:window-x="299"
     inkscape:window-y="36"
     inkscape:window-maximized="0"
     inkscape:current-layer="svg3219" />
  <defs
     id="defs3221">
    <linearGradient
       id="linearGradient2877"
       y2="39.999"
       gradientUnits="userSpaceOnUse"
       x2="25.058"
       y1="47.028"
       x1="25.058">
      <stop
         id="stop3704"
         style="stop-opacity:0"
         offset="0" />
      <stop
         id="stop3710"
         offset=".5" />
      <stop
         id="stop3706"
         style="stop-opacity:0"
         offset="1" />
    </linearGradient>
    <radialGradient
       id="radialGradient2875"
       xlink:href="#linearGradient3688"
       gradientUnits="userSpaceOnUse"
       cy="43.5"
       cx="4.993"
       gradientTransform="matrix(2.0038,0,0,1.4,-20.012,-104.4)"
       r="2.5" />
    <linearGradient
       id="linearGradient3688">
      <stop
         id="stop3690"
         offset="0" />
      <stop
         id="stop3692"
         style="stop-opacity:0"
         offset="1" />
    </linearGradient>
    <radialGradient
       id="radialGradient2873"
       xlink:href="#linearGradient3688"
       gradientUnits="userSpaceOnUse"
       cy="43.5"
       cx="4.993"
       gradientTransform="matrix(2.0038,0,0,1.4,27.988,-17.4)"
       r="2.5" />
    <linearGradient
       id="linearGradient2462"
       y2="3.8905"
       gradientUnits="userSpaceOnUse"
       x2="24"
       gradientTransform="translate(0,0.96744)"
       y1="44"
       x1="24">
      <stop
         id="stop3106"
         style="stop-color:#787878"
         offset="0" />
      <stop
         id="stop3108"
         style="stop-color:#aaa"
         offset="1" />
    </linearGradient>
    <linearGradient
       id="linearGradient2460"
       y2="44.984"
       gradientUnits="userSpaceOnUse"
       x2="19.36"
       y1="16.138"
       x1="19.36">
      <stop
         id="stop3602"
         style="stop-color:#f4f4f4"
         offset="0" />
      <stop
         id="stop3604"
         style="stop-color:#dbdbdb"
         offset="1" />
    </linearGradient>
    <linearGradient
       id="linearGradient2457"
       y2="3.899"
       gradientUnits="userSpaceOnUse"
       x2="24"
       gradientTransform="translate(0,0.96744)"
       y1="44"
       x1="24">
      <stop
         id="stop2492"
         style="stop-color:#791235"
         offset="0" />
      <stop
         id="stop2494"
         style="stop-color:#dd3b27"
         offset="1" />
    </linearGradient>
    <radialGradient
       id="radialGradient2455"
       gradientUnits="userSpaceOnUse"
       cy="11.394"
       cx="12.063"
       gradientTransform="matrix(1.5296e-8,1.1116,-1.5963,0,35.053,0.93151)"
       r="20">
      <stop
         id="stop3359"
         style="stop-color:#f89b7e"
         offset="0" />
      <stop
         id="stop3361"
         style="stop-color:#e35d4f"
         offset=".39679" />
      <stop
         id="stop3363"
         style="stop-color:#c6262e"
         offset="1" />
    </radialGradient>
    <linearGradient
       id="linearGradient2452"
       y2="43"
       gradientUnits="userSpaceOnUse"
       x2="24"
       gradientTransform="translate(9.5367e-6,0.96744)"
       y1="5"
       x1="24">
      <stop
         id="stop3310-1-4"
         style="stop-color:#fff"
         offset="0" />
      <stop
         id="stop3312-5-3"
         style="stop-color:#fff;stop-opacity:0"
         offset="1" />
    </linearGradient>
    <linearGradient
       id="linearGradient2448"
       y2="20"
       gradientUnits="userSpaceOnUse"
       x2="23.415"
       gradientTransform="matrix(1,0,0,0.75,0,4)"
       y1="16"
       x1="23.415">
      <stop
         id="stop3512"
         offset="0" />
      <stop
         id="stop3514"
         style="stop-opacity:0"
         offset="1" />
    </linearGradient>
    <radialGradient
       id="radialGradient3560"
       xlink:href="#linearGradient3520"
       spreadMethod="reflect"
       gradientUnits="userSpaceOnUse"
       cy="4.9179"
       cx="14"
       gradientTransform="matrix(1.455,-2.6431e-8,5e-8,2.2747,-6.3697,-6.839)"
       r="2" />
    <linearGradient
       id="linearGradient3520">
      <stop
         id="stop3522"
         style="stop-color:#f2f2f2"
         offset="0" />
      <stop
         id="stop3524"
         style="stop-color:#999"
         offset="1" />
    </linearGradient>
    <radialGradient
       id="radialGradient3562"
       xlink:href="#linearGradient3520"
       spreadMethod="reflect"
       gradientUnits="userSpaceOnUse"
       cy="4.9179"
       cx="14"
       gradientTransform="matrix(1.455,-2.6431e-8,5e-8,2.2747,13.63,-6.839)"
       r="2" />
    <linearGradient
       gradientTransform="matrix(0.78290841,0,0,0.78439808,12.298228,12.777029)"
       inkscape:collect="always"
       xlink:href="#linearGradient5553"
       id="linearGradient5559"
       x1="23.26866"
       y1="35.146801"
       x2="23.674229"
       y2="42.836586"
       gradientUnits="userSpaceOnUse" />
    <linearGradient
       id="linearGradient5553">
      <stop
         style="stop-color:#c4a000;stop-opacity:1;"
         offset="0"
         id="stop5555" />
      <stop
         style="stop-color:#f3c600;stop-opacity:1;"
         offset="1"
         id="stop5557" />
    </linearGradient>
    <linearGradient
       gradientTransform="matrix(0.78290841,0,0,0.78439808,12.298228,12.777029)"
       inkscape:collect="always"
       xlink:href="#linearGradient5609"
       id="linearGradient5615"
       x1="26.213203"
       y1="14.08672"
       x2="26.130388"
       y2="67.031342"
       gradientUnits="userSpaceOnUse" />
    <linearGradient
       inkscape:collect="always"
       id="linearGradient5609">
      <stop
         style="stop-color:white;stop-opacity:1;"
         offset="0"
         id="stop5611" />
      <stop
         style="stop-color:white;stop-opacity:0;"
         offset="1"
         id="stop5613" />
    </linearGradient>
    <radialGradient
       inkscape:collect="always"
       xlink:href="#linearGradient6417"
       id="radialGradient6423"
       cx="39.907337"
       cy="31.780704"
       fx="39.907337"
       fy="31.780704"
       r="5.2591066"
       gradientTransform="matrix(0.78290841,0,0,0.28343833,12.298228,30.266675)"
       gradientUnits="userSpaceOnUse" />
    <linearGradient
       inkscape:collect="always"
       id="linearGradient6417">
      <stop
         style="stop-color:black;stop-opacity:1;"
         offset="0"
         id="stop6419" />
      <stop
         style="stop-color:black;stop-opacity:0;"
         offset="1"
         id="stop6421" />
    </linearGradient>
    <radialGradient
       inkscape:collect="always"
       xlink:href="#linearGradient6377"
       id="radialGradient6405"
       gradientUnits="userSpaceOnUse"
       gradientTransform="matrix(1.30723,0,1.3328624e-8,0.95734217,-11.37512,3.5216812)"
       cx="45.150326"
       cy="35.915409"
       fx="45.150326"
       fy="35.915409"
       r="21.626934" />
    <linearGradient
       id="linearGradient6377">
      <stop
         style="stop-color:#fff27e;stop-opacity:1;"
         offset="0"
         id="stop6379" />
      <stop
         style="stop-color:#edd400;stop-opacity:1;"
         offset="1"
         id="stop6381" />
    </linearGradient>
    <radialGradient
       inkscape:collect="always"
       xlink:href="#linearGradient6407"
       id="radialGradient6413"
       cx="43.875"
       cy="35.90107"
       fx="43.875"
       fy="35.90107"
       r="20.21875"
       gradientTransform="matrix(8.5200791,-5.0631719e-8,0,8.9400987,-327.16851,-286.3775)"
       gradientUnits="userSpaceOnUse" />
    <linearGradient
       inkscape:collect="always"
       id="linearGradient6407">
      <stop
         style="stop-color:white;stop-opacity:1;"
         offset="0"
         id="stop6409" />
      <stop
         style="stop-color:white;stop-opacity:0;"
         offset="1"
         id="stop6411" />
    </linearGradient>
    <radialGradient
       inkscape:collect="always"
       xlink:href="#linearGradient2865"
       id="radialGradient2552"
       gradientUnits="userSpaceOnUse"
       gradientTransform="matrix(1,0,0,0.348243,0,26.3554)"
       cx="23.5625"
       cy="40.4375"
       fx="23.5625"
       fy="40.4375"
       r="19.5625" />
    <linearGradient
       inkscape:collect="always"
       id="linearGradient2865">
      <stop
         style="stop-color:#000000;stop-opacity:1;"
         offset="0"
         id="stop2867" />
      <stop
         style="stop-color:#000000;stop-opacity:0;"
         offset="1"
         id="stop2869" />
    </linearGradient>
    <linearGradient
       inkscape:collect="always"
       xlink:href="#linearGradient2966"
       id="linearGradient2554"
       gradientUnits="userSpaceOnUse"
       gradientTransform="translate(-5.66929,0)"
       x1="48.90625"
       y1="17.376184"
       x2="50.988335"
       y2="22.250591" />
    <linearGradient
       id="linearGradient2966">
      <stop
         id="stop2968"
         offset="0"
         style="stop-color:#ffd1d1;stop-opacity:1;" />
      <stop
         style="stop-color:#ff1d1d;stop-opacity:1;"
         offset="0.5"
         id="stop3006" />
      <stop
         id="stop2970"
         offset="1"
         style="stop-color:#6f0000;stop-opacity:1;" />
    </linearGradient>
    <linearGradient
       inkscape:collect="always"
       xlink:href="#linearGradient2974"
       id="linearGradient2556"
       gradientUnits="userSpaceOnUse"
       gradientTransform="translate(-5.66929,0)"
       x1="46"
       y1="19.8125"
       x2="47.6875"
       y2="22.625" />
    <linearGradient
       id="linearGradient2974">
      <stop
         id="stop2976"
         offset="0"
         style="stop-color:#c1c1c1;stop-opacity:1;" />
      <stop
         id="stop2978"
         offset="1"
         style="stop-color:#acacac;stop-opacity:1;" />
    </linearGradient>
    <radialGradient
       inkscape:collect="always"
       xlink:href="#linearGradient2984"
       id="radialGradient2558"
       gradientUnits="userSpaceOnUse"
       gradientTransform="matrix(2.92356,0,0,2.02972,-61.5553,-27.8842)"
       cx="29.053354"
       cy="27.640751"
       fx="29.053354"
       fy="27.640751"
       r="3.2408545" />
    <linearGradient
       id="linearGradient2984"
       inkscape:collect="always">
      <stop
         id="stop2986"
         offset="0"
         style="stop-color:#e7e2b8;stop-opacity:1;" />
      <stop
         id="stop2988"
         offset="1"
         style="stop-color:#e7e2b8;stop-opacity:0;" />
    </linearGradient>
    <linearGradient
       inkscape:collect="always"
       xlink:href="#linearGradient2994"
       id="linearGradient2560"
       gradientUnits="userSpaceOnUse"
       gradientTransform="translate(-5.82554,0.125)"
       x1="25.71875"
       y1="31.046875"
       x2="25.514589"
       y2="30.703125" />
    <linearGradient
       id="linearGradient2994">
      <stop
         id="stop2996"
         offset="0"
         style="stop-color:#000000;stop-opacity:1;" />
      <stop
         id="stop2998"
         offset="1"
         style="stop-color:#c9c9c9;stop-opacity:1;" />
    </linearGradient>
  </defs>
  <g
     id="layer1"
     transform="matrix(0.91317764,0,0,0.88558041,-1.985544,-0.71603022)">
    <g
       id="g2036"
       transform="matrix(1.1,0,0,0.44444,-2.4,25.111)">
      <g
         id="g3712"
         style="opacity:0.4"
         transform="matrix(1.0526,0,0,1.2857,-1.2632,-13.429)">
        <rect
           id="rect2801"
           style="fill:url(#radialGradient2873)"
           height="7"
           width="5"
           y="40"
           x="38" />
        <rect
           id="rect3696"
           style="fill:url(#radialGradient2875)"
           transform="scale(-1,-1)"
           height="7"
           width="5"
           y="-47"
           x="-10" />
        <rect
           id="rect3700"
           style="fill:url(#linearGradient2877)"
           height="7"
           width="28"
           y="40"
           x="10" />
      </g>
    </g>
    <rect
       id="rect5505"
       style="fill:url(#linearGradient2460);stroke:url(#linearGradient2462);stroke-linecap:round;stroke-linejoin:round"
       rx="2.2321999"
       ry="2.2321999"
       height="39"
       width="39"
       y="5.4674001"
       x="4.5" />
    <path
       id="rect2424"
       style="fill:url(#radialGradient2455);stroke:url(#linearGradient2457)"
       d="M 6.7188,5.4688 C 5.4821,5.4688 4.5,6.4509 4.5,7.6875 V 15.5 h 39 V 7.6875 C 43.5,6.4509 42.5179,5.4687 41.2812,5.4687 H 6.7192 z"
       inkscape:connector-curvature="0" />
    <rect
       id="rect6741"
       style="opacity:0.4;fill:none;stroke:url(#linearGradient2452);stroke-linecap:round;stroke-linejoin:round"
       rx="1.3652"
       ry="1.3652"
       height="37"
       width="37"
       y="6.4674001"
       x="5.5" />
    <rect
       id="rect3508"
       style="opacity:0.3;fill:url(#linearGradient2448)"
       rx="0"
       ry="0"
       height="3"
       width="40"
       y="16"
       x="4" />
    <g
       id="g3541">
      <rect
         id="rect3497"
         style="opacity:0.4;fill:#ffffff"
         rx="1.8085999"
         ry="1.5304"
         height="11"
         width="4"
         y="2"
         x="12" />
      <rect
         id="rect3493"
         style="fill:#cc3429"
         rx="1.5869"
         ry="1.5869"
         height="4.3081002"
         width="4"
         y="7.6918998"
         x="12" />
      <rect
         id="rect3483"
         style="fill:url(#radialGradient3560)"
         rx="1.8085999"
         ry="1.3911999"
         height="10"
         width="4"
         y="1"
         x="12" />
    </g>
    <g
       id="g3536">
      <rect
         id="rect3526"
         style="opacity:0.4;fill:#ffffff"
         rx="1.8085999"
         ry="1.5304"
         height="11"
         width="4"
         y="2"
         x="32" />
      <rect
         id="rect3528"
         style="fill:#cc3429"
         rx="1.5869"
         ry="1.5869"
         height="4.3081002"
         width="4"
         y="7.6918998"
         x="32" />
      <rect
         id="rect3530"
         style="fill:url(#radialGradient3562)"
         rx="1.8085999"
         ry="1.3911999"
         height="10"
         width="4"
         y="1"
         x="32" />
    </g>
  </g>
  <text
     id="text7623"
     style="font-size:24.76822472px;font-weight:bold;fill:#4d4d4d;font-family:Arial"
     xml:space="preserve"
     transform="scale(1.0064909,0.99355099)"
     y="34.094292"
     x="6.1869984"><tspan
       id="tspan7625"
       y="34.094292"
       x="6.1869984"
       style="fill:#4d4d4d">28</tspan></text>
  <g
     style="display:inline"
     transform="matrix(0.16544499,0,0,0.16453691,12.042394,15.540871)"
     id="g1197">
    <path
       inkscape:connector-curvature="0"
       d="m 32.706693,164.36026 c -10.3875,0 -18.75,8.3625 -18.75,18.75 0,10.3875 8.3625,18.75 18.75,18.75 l 172.499997,0 c 10.3875,0 18.75,-8.3625 18.75,-18.75 0,-10.3875 -8.3625,-18.75 -18.75,-18.75 l -172.499997,0 z"
       style="opacity:0.04787233;fill-rule:evenodd;stroke-width:3pt"
       id="path1196" />
    <path
       inkscape:connector-curvature="0"
       d="m 32.706693,165.61026 c -9.695,0 -17.5,7.805 -17.5,17.5 0,9.695 7.805,17.5 17.5,17.5 l 172.499997,0 c 9.695,0 17.5,-7.805 17.5,-17.5 0,-9.695 -7.805,-17.5 -17.5,-17.5 l -172.499997,0 z"
       style="opacity:0.04787233;fill-rule:evenodd;stroke-width:3pt"
       id="path1195" />
    <path
       inkscape:connector-curvature="0"
       d="m 32.706694,166.86026 c -9.0025,0 -16.25,7.2475 -16.25,16.25 0,9.0025 7.2475,16.25 16.25,16.25 l 172.499996,0 c 9.0025,0 16.25,-7.2475 16.25,-16.25 0,-9.0025 -7.2475,-16.25 -16.25,-16.25 l -172.499996,0 z"
       style="opacity:0.04787233;fill-rule:evenodd;stroke-width:3pt"
       id="path1194" />
    <path
       inkscape:connector-curvature="0"
       d="m 32.706694,168.11026 c -8.31,0 -15,6.69 -15,15 0,8.31 6.69,15 15,15 l 172.499996,0 c 8.31,0 15,-6.69 15,-15 0,-8.31 -6.69,-15 -15,-15 l -172.499996,0 z"
       style="opacity:0.04787233;fill-rule:evenodd;stroke-width:3pt"
       id="path1193" />
    <path
       inkscape:connector-curvature="0"
       d="m 32.707764,169.36026 c -7.6175,0 -13.75,6.1325 -13.75,13.75 0,7.6175 6.1325,13.75 13.75,13.75 l 172.498416,0 c 7.6175,0 13.75,-6.1325 13.75,-13.75 0,-7.6175 -6.1325,-13.75 -13.75,-13.75 l -172.498416,0 z"
       style="opacity:0.04787233;fill-rule:evenodd;stroke-width:3pt"
       id="path1192" />
    <path
       inkscape:connector-curvature="0"
       d="m 32.706694,170.61026 c -6.925,0 -12.5,5.575 -12.5,12.5 0,6.925 5.575,12.5 12.5,12.5 l 172.499996,0 c 6.925,0 12.5,-5.575 12.5,-12.5 0,-6.925 -5.575,-12.5 -12.5,-12.5 l -172.499996,0 z"
       style="opacity:0.04787233;fill-rule:evenodd;stroke-width:3pt"
       id="path1191" />
    <path
       inkscape:connector-curvature="0"
       d="m 32.706694,171.86026 c -6.2325,0 -11.25,5.0175 -11.25,11.25 0,6.2325 5.0175,11.25 11.25,11.25 l 172.499996,0 c 6.2325,0 11.25,-5.0175 11.25,-11.25 0,-6.2325 -5.0175,-11.25 -11.25,-11.25 l -172.499996,0 z"
       style="opacity:0.04787233;fill-rule:evenodd;stroke-width:3pt"
       id="path1190" />
    <path
       inkscape:connector-curvature="0"
       d="m 32.706694,173.11026 c -5.54,0 -10,4.46 -10,10 0,5.54 4.46,10 10,10 l 172.499996,0 c 5.54,0 10,-4.46 10,-10 0,-5.54 -4.46,-10 -10,-10 l -172.499996,0 z"
       style="opacity:0.04787233;fill-rule:evenodd;stroke-width:3pt"
       id="path1189" />
  </g>
  <path
     inkscape:connector-curvature="0"
     style="color:#000000;fill:url(#linearGradient5559);fill-opacity:1;fill-rule:evenodd;stroke:#f57900;stroke-width:0.78365272;stroke-linecap:butt;stroke-linejoin:miter;stroke-miterlimit:4;stroke-opacity:1;stroke-dashoffset:0;marker:none;visibility:visible;display:inline;overflow:visible"
     d="m 20.363321,24.226109 22.429742,0.277327 c 0.597028,0 0.973868,0.45232 1.077668,0.936443 0,0 3.445838,15.542961 3.445838,15.542961 0,0 0.0098,4.979063 0.0098,4.979063 0,0.51879 -0.480639,0.936443 -1.077667,0.936443 l -29.340926,0 c -0.59703,0 -1.077669,-0.417653 -1.077669,-0.936443 l -0.0087,-4.837317 3.464339,-15.962033 c 0.2422,-0.51879 0.48064,-0.936444 1.077667,-0.936444 z"
     id="rect1975"
     sodipodi:nodetypes="ccccccccccc" />
  <rect
     style="opacity:0.37078654;color:#000000;fill:#f57900;fill-opacity:1;fill-rule:evenodd;stroke:none;stroke-width:1;marker:none;visibility:visible;display:inline;overflow:visible"
     id="rect2851"
     width="30.571068"
     height="5.5468674"
     x="16.302505"
     y="40.982338"
     rx="0.53189123"
     ry="0.53290331" />
  <path
     inkscape:connector-curvature="0"
     style="opacity:0.16292138;color:#000000;fill:#ffffff;fill-opacity:1;fill-rule:evenodd;stroke:none;stroke-width:1;marker:none;visibility:visible;display:inline;overflow:visible"
     d="m 16.263137,41.432997 c 0,0 0.118111,-0.415989 0.551185,-0.450655 l 29.409644,0 c 0.590555,0 0.629925,0.589319 0.629925,0.589319 0,0 0.01848,-1.27039 -1.005154,-1.27039 l -28.507171,0 c -0.787407,0.06933 -1.078429,0.611739 -1.078429,1.131726 z"
     id="path2853"
     sodipodi:nodetypes="ccccccc" />
  <path
     inkscape:connector-curvature="0"
     style="opacity:0.4831461;color:#000000;fill:none;stroke:url(#linearGradient5615);stroke-width:0.78365272;stroke-linecap:butt;stroke-linejoin:miter;stroke-miterlimit:4;stroke-opacity:1;stroke-dashoffset:0;marker:none;visibility:visible;display:inline;overflow:visible"
     d="m 20.371971,25.008737 c -0.118467,0 -0.07787,-0.02097 -0.12233,0.02451 -0.03983,0.04075 -0.121985,0.215777 -0.220193,0.416712 -0.01141,0.02335 -0.01267,0.02376 -0.02447,0.04903 l -3.400759,15.614424 0,0.04903 0,4.804438 c 0,0.03457 0.05666,0.147075 0.293591,0.147075 l 29.359066,0 c 0.236933,0 0.293591,-0.112505 0.293591,-0.147075 0,0 -0.02376,-4.759843 -0.02447,-4.902488 -1.97e-4,-8.63e-4 3.34e-4,-0.07203 0,-0.07354 -0.07327,-0.330105 -3.425225,-15.3693 -3.425225,-15.3693 -0.04427,-0.206492 -0.132761,-0.343174 -0.318056,-0.343174 L 20.371971,25.008737 z"
     id="path4730" />
  <path
     inkscape:connector-curvature="0"
     style="opacity:0.46629214;color:#000000;fill:url(#radialGradient6423);fill-opacity:1;fill-rule:evenodd;stroke:none;stroke-width:1;marker:none;visibility:visible;display:inline;overflow:visible"
     d="m 46.898219,40.765206 c -0.296973,-0.984677 -0.692,-2.981261 -0.692,-2.981261 l -6.989197,2.49594 c 4.497999,0 6.712397,-0.207995 7.681197,0.485321 z"
     id="path6415"
     sodipodi:nodetypes="cccc" />
  <path
     inkscape:connector-curvature="0"
     sodipodi:nodetypes="cczczcccc"
     id="path2524"
     d="m 19.174685,25.661996 -3.237194,14.142131 c 0,0 16.810303,0.09805 22.920097,0.09805 6.248054,0 8.733395,-2.328423 8.733395,-2.328423 0,0 -0.788187,-0.355715 -1.820347,-3.895886 0,0 -1.881943,-8.236485 -1.881943,-8.236485 -0.362832,-0.930611 -0.670331,-1.304979 -1.375093,-1.29916 l -21.750175,0 c -1.36639,0.02517 -1.359456,0.655406 -1.58874,1.519772 z"
     style="fill:url(#radialGradient6405);fill-opacity:1;fill-rule:evenodd;stroke:#c4a000;stroke-width:0.7836526px;stroke-linecap:butt;stroke-linejoin:miter;stroke-opacity:1" />
  <path
     inkscape:connector-curvature="0"
     style="opacity:0.46629214;fill:none;stroke:url(#radialGradient6413);stroke-width:0.7836526px;stroke-linecap:butt;stroke-linejoin:miter;stroke-opacity:1"
     d="m 20.763425,24.9352 c -0.501288,0.0143 -0.554532,0.07828 -0.587181,0.122562 -0.03395,0.04606 -0.117494,0.329516 -0.244659,0.80891 l -3.009304,13.163181 c 1.326588,0.0077 16.104931,0.09805 21.945902,0.09805 3.026948,0 5.102431,-0.560298 6.410062,-1.10306 0.825244,-0.342537 0.871632,-0.452621 1.125431,-0.637324 -0.384117,-0.6196 -0.865146,-1.664961 -1.394555,-3.480766 -5.1e-4,-0.01634 -5.1e-4,-0.03269 0,-0.04903 0,0 -1.805332,-7.877199 -1.859408,-8.113618 -0.167532,-0.429695 -0.29899,-0.667337 -0.366988,-0.735373 -0.068,-0.06804 -0.05602,-0.07529 -0.269125,-0.07354 l -21.725709,0 -0.02447,0 z"
     id="path6403" />
  <path
     inkscape:connector-curvature="0"
     sodipodi:nodetypes="ccccccc"
     id="path6359"
     d="m 16.263137,43.001794 c 0,0 0.118111,-0.41599 0.551185,-0.450656 l 29.409644,0 c 0.590555,0 0.629925,0.589319 0.629925,0.589319 0,0 0.01848,-1.27039 -1.005154,-1.27039 l -28.507171,0 c -0.787407,0.06933 -1.078429,0.611739 -1.078429,1.131727 z"
     style="opacity:0.26404497;color:#000000;fill:#ffffff;fill-opacity:1;fill-rule:evenodd;stroke:none;stroke-width:1;marker:none;visibility:visible;display:inline;overflow:visible" />
  <path
     inkscape:connector-curvature="0"
     style="opacity:0.26404497;color:#000000;fill:#ffffff;fill-opacity:1;fill-rule:evenodd;stroke:none;stroke-width:1;marker:none;visibility:visible;display:inline;overflow:visible"
     d="m 16.263137,44.57059 c 0,0 0.118111,-0.41599 0.551185,-0.450656 l 29.409644,0 c 0.590555,0 0.629925,0.589319 0.629925,0.589319 0,0 0.01848,-1.27039 -1.005154,-1.27039 l -28.507171,0 c -0.787407,0.06933 -1.078429,0.611739 -1.078429,1.131727 z"
     id="path6361"
     sodipodi:nodetypes="ccccccc" />
  <path
     inkscape:connector-curvature="0"
     sodipodi:nodetypes="ccccccc"
     id="path6363"
     d="m 16.263137,46.139386 c 0,0 0.118111,-0.41599 0.551185,-0.450656 l 29.409644,0 c 0.590555,0 0.629925,0.58932 0.629925,0.58932 0,0 0.01848,-1.27039 -1.005154,-1.27039 l -28.507171,0 c -0.787407,0.06933 -1.078429,0.611738 -1.078429,1.131726 z"
     style="opacity:0.26404497;color:#000000;fill:#ffffff;fill-opacity:1;fill-rule:evenodd;stroke:none;stroke-width:1;marker:none;visibility:visible;display:inline;overflow:visible" />
  <path
     inkscape:r_cy="true"
     inkscape:r_cx="true"
     transform="matrix(0.4827515,0,0,0.23028124,21.292436,24.251597)"
     d="m 43.125,40.4375 a 19.5625,6.8125 0 1 1 -39.125,0 19.5625,6.8125 0 1 1 39.125,0 z"
     sodipodi:ry="6.8125"
     sodipodi:rx="19.5625"
     sodipodi:cy="40.4375"
     sodipodi:cx="23.5625"
     id="path3008"
     style="opacity:0.2;color:#000000;fill:url(#radialGradient2552);fill-opacity:1;fill-rule:evenodd;stroke:none;stroke-width:1;marker:none;visibility:visible;display:inline;overflow:visible"
     sodipodi:type="arc" />
  <g
     style="display:inline"
     id="g1574"
     transform="matrix(0.80929242,-0.2172618,0.21684919,0.8108323,23.8996,-10.008323)"
     inkscape:r_cx="true"
     inkscape:r_cy="true">
    <path
       inkscape:connector-curvature="0"
       transform="translate(-29.7555,19)"
       sodipodi:nodetypes="cccccc"
       id="path2960"
       d="m 17.34116,32.5 5.625,-5.625 20.093749,-9.75 c 3.25,-1.25 5.1875,3.375 2.3125,5 L 25.34116,31.5 l -8,1 z"
       style="color:#000000;fill:#cb9022;fill-opacity:1;fill-rule:evenodd;stroke:#5c410c;stroke-width:0.93443578;stroke-linecap:butt;stroke-linejoin:miter;stroke-miterlimit:4;stroke-opacity:1;stroke-dasharray:none;stroke-dashoffset:0;marker:none;visibility:visible;display:inline;overflow:visible"
       inkscape:r_cx="true"
       inkscape:r_cy="true" />
    <path
       inkscape:connector-curvature="0"
       transform="translate(-29.7555,19)"
       style="color:#000000;fill:url(#linearGradient2554);fill-opacity:1;fill-rule:evenodd;stroke:none;stroke-width:1;marker:none;visibility:visible;display:inline;overflow:visible"
       d="m 38.330708,20 c 0,0 1.4375,0.09375 2,1.34375 0.579493,1.287761 0,2.65625 0,2.65625 l 5.03125,-2.46875 c 0,0 1.452032,-0.881367 0.65625,-2.84375 -0.784912,-1.935577 -2.6875,-1.15625 -2.6875,-1.15625 l -5,2.46875 z"
       id="path2964"
       sodipodi:nodetypes="czcczcc"
       inkscape:r_cx="true"
       inkscape:r_cy="true" />
    <path
       inkscape:connector-curvature="0"
       transform="translate(-29.7555,19)"
       sodipodi:nodetypes="czcczcc"
       id="path2962"
       d="m 38.330708,20 c 0,0 1.4375,0.09375 2,1.34375 0.579493,1.287761 0,2.65625 0,2.65625 l 2,-1 c 0,0 0.827032,-1.318867 0.21875,-2.6875 C 41.924458,18.90625 40.330708,19 40.330708,19 l -2,1 z"
       style="color:#000000;fill:url(#linearGradient2556);fill-opacity:1;fill-rule:evenodd;stroke:none;stroke-width:1;marker:none;visibility:visible;display:inline;overflow:visible"
       inkscape:r_cx="true"
       inkscape:r_cy="true" />
    <path
       inkscape:connector-curvature="0"
       transform="translate(-29.7555,19)"
       sodipodi:nodetypes="cccc"
       id="path2982"
       d="m 18.768208,31.78125 4.5,-4.5 c 1.5,0.8125 2.28125,2.15625 1.875,3.71875 l -6.375,0.78125 z"
       style="color:#000000;fill:url(#radialGradient2558);fill-opacity:1;fill-rule:evenodd;stroke:none;stroke-width:1;marker:none;visibility:visible;display:inline;overflow:visible"
       inkscape:r_cx="true"
       inkscape:r_cy="true" />
    <path
       inkscape:connector-curvature="0"
       transform="translate(-29.7555,19)"
       sodipodi:nodetypes="cccc"
       id="path2992"
       d="m 20.111958,30.375 -1.625,1.59375 2.34375,-0.3125 c 0.21875,-0.71875 -0.1875,-1.0625 -0.71875,-1.28125 z"
       style="color:#000000;fill:url(#linearGradient2560);fill-opacity:1;fill-rule:evenodd;stroke:none;stroke-width:1;marker:none;visibility:visible;display:inline;overflow:visible"
       inkscape:r_cx="true"
       inkscape:r_cy="true" />
    <path
       inkscape:connector-curvature="0"
       transform="translate(-29.7555,19)"
       sodipodi:nodetypes="ccccc"
       id="path3002"
       d="m 23.268208,27.25 1.5625,1.25 15.38734,-7.31867 C 39.773616,20.325286 38.976281,20.096733 38.314669,20.019068 L 23.268208,27.25 z"
       style="color:#000000;fill:#ffffff;fill-opacity:0.36363639;fill-rule:evenodd;stroke:none;stroke-width:1;marker:none;visibility:visible;display:inline;overflow:visible"
       inkscape:r_cx="true"
       inkscape:r_cy="true" />
    <path
       inkscape:connector-curvature="0"
       transform="translate(-29.7555,19)"
       sodipodi:nodetypes="ccccc"
       id="path3004"
       d="m 25.143208,31.0625 0.1875,-0.75 15.23109,-7.1296 c 0,0 -0.11016,0.613627 -0.215879,0.74935 L 25.143208,31.0625 z"
       style="color:#000000;fill:#000000;fill-opacity:0.36363639;fill-rule:evenodd;stroke:none;stroke-width:1;marker:none;visibility:visible;display:inline;overflow:visible"
       inkscape:r_cx="true"
       inkscape:r_cy="true" />
  </g>
</svg>
