<?xml version="1.0" encoding="UTF-8" standalone="no"?>
<!-- Created with Inkscape (http://www.inkscape.org/) -->

<svg
   xmlns:dc="http://purl.org/dc/elements/1.1/"
   xmlns:cc="http://creativecommons.org/ns#"
   xmlns:rdf="http://www.w3.org/1999/02/22-rdf-syntax-ns#"
   xmlns:svg="http://www.w3.org/2000/svg"
   xmlns="http://www.w3.org/2000/svg"
   xmlns:xlink="http://www.w3.org/1999/xlink"
   xmlns:sodipodi="http://sodipodi.sourceforge.net/DTD/sodipodi-0.dtd"
   xmlns:inkscape="http://www.inkscape.org/namespaces/inkscape"
   id="svg3219"
   height="48"
   width="48"
   version="1.0"
   inkscape:version="0.48.1 r9760"
   sodipodi:docname="evolution-calendar.svg">
  <metadata
     id="metadata59">
    <rdf:RDF>
      <cc:Work
         rdf:about="">
        <dc:format>image/svg+xml</dc:format>
        <dc:type
           rdf:resource="http://purl.org/dc/dcmitype/StillImage" />
        <dc:title></dc:title>
      </cc:Work>
    </rdf:RDF>
  </metadata>
  <sodipodi:namedview
     pagecolor="#ffffff"
     bordercolor="#666666"
     borderopacity="1"
     objecttolerance="10"
     gridtolerance="10"
     guidetolerance="10"
     inkscape:pageopacity="0"
     inkscape:pageshadow="2"
     inkscape:window-width="640"
     inkscape:window-height="480"
     id="namedview57"
     showgrid="false"
     inkscape:zoom="6.0208333"
     inkscape:cx="24"
     inkscape:cy="24"
     inkscape:window-x="0"
     inkscape:window-y="24"
     inkscape:window-maximized="0"
     inkscape:current-layer="svg3219" />
  <defs
     id="defs3221">
    <linearGradient
       id="linearGradient2877"
       y2="39.999"
       gradientUnits="userSpaceOnUse"
       x2="25.058"
       y1="47.028"
       x1="25.058">
      <stop
         id="stop3704"
         style="stop-opacity:0"
         offset="0" />
      <stop
         id="stop3710"
         offset=".5" />
      <stop
         id="stop3706"
         style="stop-opacity:0"
         offset="1" />
    </linearGradient>
    <radialGradient
       id="radialGradient2875"
       xlink:href="#linearGradient3688"
       gradientUnits="userSpaceOnUse"
       cy="43.5"
       cx="4.993"
       gradientTransform="matrix(2.0038 0 0 1.4 -20.012 -104.4)"
       r="2.5" />
    <linearGradient
       id="linearGradient3688">
      <stop
         id="stop3690"
         offset="0" />
      <stop
         id="stop3692"
         style="stop-opacity:0"
         offset="1" />
    </linearGradient>
    <radialGradient
       id="radialGradient2873"
       xlink:href="#linearGradient3688"
       gradientUnits="userSpaceOnUse"
       cy="43.5"
       cx="4.993"
       gradientTransform="matrix(2.0038 0 0 1.4 27.988 -17.4)"
       r="2.5" />
    <linearGradient
       id="linearGradient2462"
       y2="3.8905"
       gradientUnits="userSpaceOnUse"
       x2="24"
       gradientTransform="translate(0 .96744)"
       y1="44"
       x1="24">
      <stop
         id="stop3106"
         style="stop-color:#787878"
         offset="0" />
      <stop
         id="stop3108"
         style="stop-color:#aaa"
         offset="1" />
    </linearGradient>
    <linearGradient
       id="linearGradient2460"
       y2="44.984"
       gradientUnits="userSpaceOnUse"
       x2="19.36"
       y1="16.138"
       x1="19.36">
      <stop
         id="stop3602"
         style="stop-color:#f4f4f4"
         offset="0" />
      <stop
         id="stop3604"
         style="stop-color:#dbdbdb"
         offset="1" />
    </linearGradient>
    <linearGradient
       id="linearGradient2457"
       y2="3.899"
       gradientUnits="userSpaceOnUse"
       x2="24"
       gradientTransform="translate(0 .96744)"
       y1="44"
       x1="24">
      <stop
         id="stop2492"
         style="stop-color:#791235"
         offset="0" />
      <stop
         id="stop2494"
         style="stop-color:#dd3b27"
         offset="1" />
    </linearGradient>
    <radialGradient
       id="radialGradient2455"
       gradientUnits="userSpaceOnUse"
       cy="11.394"
       cx="12.063"
       gradientTransform="matrix(1.5296e-8 1.1116 -1.5963 0 35.053 .93151)"
       r="20">
      <stop
         id="stop3359"
         style="stop-color:#f89b7e"
         offset="0" />
      <stop
         id="stop3361"
         style="stop-color:#e35d4f"
         offset=".39679" />
      <stop
         id="stop3363"
         style="stop-color:#c6262e"
         offset="1" />
    </radialGradient>
    <linearGradient
       id="linearGradient2452"
       y2="43"
       gradientUnits="userSpaceOnUse"
       x2="24"
       gradientTransform="translate(.0000095367 .96744)"
       y1="5"
       x1="24">
      <stop
         id="stop3310-1-4"
         style="stop-color:#fff"
         offset="0" />
      <stop
         id="stop3312-5-3"
         style="stop-color:#fff;stop-opacity:0"
         offset="1" />
    </linearGradient>
    <linearGradient
       id="linearGradient2448"
       y2="20"
       gradientUnits="userSpaceOnUse"
       x2="23.415"
       gradientTransform="matrix(1 0 0 .75 0 4)"
       y1="16"
       x1="23.415">
      <stop
         id="stop3512"
         offset="0" />
      <stop
         id="stop3514"
         style="stop-opacity:0"
         offset="1" />
    </linearGradient>
    <radialGradient
       id="radialGradient3560"
       xlink:href="#linearGradient3520"
       spreadMethod="reflect"
       gradientUnits="userSpaceOnUse"
       cy="4.9179"
       cx="14"
       gradientTransform="matrix(1.455 -2.6431e-8 5e-8 2.2747 -6.3697 -6.839)"
       r="2" />
    <linearGradient
       id="linearGradient3520">
      <stop
         id="stop3522"
         style="stop-color:#f2f2f2"
         offset="0" />
      <stop
         id="stop3524"
         style="stop-color:#999"
         offset="1" />
    </linearGradient>
    <radialGradient
       id="radialGradient3562"
       xlink:href="#linearGradient3520"
       spreadMethod="reflect"
       gradientUnits="userSpaceOnUse"
       cy="4.9179"
       cx="14"
       gradientTransform="matrix(1.455 -2.6431e-8 5e-8 2.2747 13.63 -6.839)"
       r="2" />
    <linearGradient
       inkscape:collect="always"
       xlink:href="#linearGradient3155"
       id="linearGradient3265"
       gradientUnits="userSpaceOnUse"
       gradientTransform="matrix(0.85570856,-0.88303351,0.87810701,0.89719968,-10.730381,10.070135)"
       spreadMethod="pad"
       x1="23.575972"
       y1="25.356892"
       x2="23.575972"
       y2="31.210939" />
    <linearGradient
       id="linearGradient3155">
      <stop
         style="stop-color:#000000;stop-opacity:1;"
         offset="0"
         id="stop3157" />
      <stop
         id="stop3171"
         offset="0.13482948"
         style="stop-color:#c3c3c3;stop-opacity:1;" />
      <stop
         style="stop-color:#8c8c8c;stop-opacity:1;"
         offset="0.20224422"
         id="stop3173" />
      <stop
         id="stop3163"
         offset="0.26965895"
         style="stop-color:#ffffff;stop-opacity:1;" />
      <stop
         style="stop-color:#757575;stop-opacity:1;"
         offset="0.44650277"
         id="stop3165" />
      <stop
         id="stop3167"
         offset="0.57114136"
         style="stop-color:#7d7d7d;stop-opacity:1;" />
      <stop
         style="stop-color:#b6b6b6;stop-opacity:1;"
         offset="0.72038066"
         id="stop3169" />
      <stop
         style="stop-color:#000000;stop-opacity:1;"
         offset="1"
         id="stop3159" />
    </linearGradient>
    <linearGradient
       inkscape:collect="always"
       xlink:href="#linearGradient3240"
       id="linearGradient3260"
       gradientUnits="userSpaceOnUse"
       gradientTransform="matrix(0.8315189,-0.85807142,1.0276644,1.0500088,-13.553828,5.8710618)"
       x1="30.037716"
       y1="24.989594"
       x2="30.037716"
       y2="30.000141" />
    <linearGradient
       id="linearGradient3240">
      <stop
         id="stop3242"
         offset="0"
         style="stop-color:#3e3e3e;stop-opacity:1;" />
      <stop
         style="stop-color:#828282;stop-opacity:1;"
         offset="0.5"
         id="stop3244" />
      <stop
         id="stop3246"
         offset="1"
         style="stop-color:#3c3c3c;stop-opacity:1;" />
    </linearGradient>
    <linearGradient
       inkscape:collect="always"
       xlink:href="#linearGradient3223"
       id="linearGradient3257"
       gradientUnits="userSpaceOnUse"
       gradientTransform="matrix(0.8315189,-0.85807142,1.0276644,1.0500088,-13.791963,6.1168018)"
       x1="30.037716"
       y1="24.989594"
       x2="30.037716"
       y2="30.000141" />
    <linearGradient
       id="linearGradient3223">
      <stop
         style="stop-color:#999999;stop-opacity:1;"
         offset="0"
         id="stop3225" />
      <stop
         id="stop3231"
         offset="0.5"
         style="stop-color:#ffffff;stop-opacity:1;" />
      <stop
         style="stop-color:#777777;stop-opacity:1;"
         offset="1"
         id="stop3227" />
    </linearGradient>
    <linearGradient
       inkscape:collect="always"
       xlink:href="#linearGradient3240"
       id="linearGradient3254"
       gradientUnits="userSpaceOnUse"
       gradientTransform="matrix(0.8315189,-0.85807142,1.0276644,1.0500088,-12.726309,5.0171168)"
       x1="30.037716"
       y1="24.989594"
       x2="30.037716"
       y2="30.000141" />
    <linearGradient
       id="linearGradient3203">
      <stop
         id="stop3205"
         offset="0"
         style="stop-color:#3e3e3e;stop-opacity:1;" />
      <stop
         style="stop-color:#828282;stop-opacity:1;"
         offset="0.5"
         id="stop3207" />
      <stop
         id="stop3209"
         offset="1"
         style="stop-color:#3c3c3c;stop-opacity:1;" />
    </linearGradient>
    <linearGradient
       inkscape:collect="always"
       xlink:href="#linearGradient3223"
       id="linearGradient3251"
       gradientUnits="userSpaceOnUse"
       gradientTransform="matrix(0.8315189,-0.85807142,1.0276644,1.0500088,-12.964444,5.2628568)"
       x1="30.037716"
       y1="24.989594"
       x2="30.037716"
       y2="30.000141" />
    <linearGradient
       id="linearGradient3212">
      <stop
         style="stop-color:#999999;stop-opacity:1;"
         offset="0"
         id="stop3214" />
      <stop
         id="stop3216"
         offset="0.5"
         style="stop-color:#ffffff;stop-opacity:1;" />
      <stop
         style="stop-color:#777777;stop-opacity:1;"
         offset="1"
         id="stop3218" />
    </linearGradient>
    <linearGradient
       inkscape:collect="always"
       xlink:href="#linearGradient3240"
       id="linearGradient3248"
       gradientUnits="userSpaceOnUse"
       gradientTransform="matrix(0.8315189,-0.85807142,1.0276644,1.0500088,-11.894789,4.1590458)"
       x1="30.037716"
       y1="24.989594"
       x2="30.037716"
       y2="30.000141" />
    <linearGradient
       id="linearGradient3221">
      <stop
         id="stop3223"
         offset="0"
         style="stop-color:#3e3e3e;stop-opacity:1;" />
      <stop
         style="stop-color:#828282;stop-opacity:1;"
         offset="0.5"
         id="stop3226" />
      <stop
         id="stop3228"
         offset="1"
         style="stop-color:#3c3c3c;stop-opacity:1;" />
    </linearGradient>
    <linearGradient
       inkscape:collect="always"
       xlink:href="#linearGradient3223"
       id="linearGradient3245"
       gradientUnits="userSpaceOnUse"
       gradientTransform="matrix(0.8315189,-0.85807142,1.0276644,1.0500088,-12.132926,4.4047858)"
       x1="30.037716"
       y1="24.989594"
       x2="30.037716"
       y2="30.000141" />
    <linearGradient
       id="linearGradient3231">
      <stop
         style="stop-color:#999999;stop-opacity:1;"
         offset="0"
         id="stop3233" />
      <stop
         id="stop3235"
         offset="0.5"
         style="stop-color:#ffffff;stop-opacity:1;" />
      <stop
         style="stop-color:#777777;stop-opacity:1;"
         offset="1"
         id="stop3237" />
    </linearGradient>
    <linearGradient
       inkscape:collect="always"
       xlink:href="#linearGradient3290"
       id="linearGradient3268"
       gradientUnits="userSpaceOnUse"
       gradientTransform="matrix(0.8315189,-0.85807142,1.0276644,1.0500088,-13.869648,6.1969658)"
       x1="9"
       y1="29.056757"
       x2="9"
       y2="26.02973" />
    <linearGradient
       id="linearGradient3290">
      <stop
         style="stop-color:#e4db7b;stop-opacity:1;"
         offset="0"
         id="stop3292" />
      <stop
         style="stop-color:#f4f0c8;stop-opacity:1;"
         offset="1"
         id="stop3294" />
    </linearGradient>
    <linearGradient
       inkscape:collect="always"
       xlink:href="#linearGradient3191"
       id="linearGradient3270"
       gradientUnits="userSpaceOnUse"
       x1="5.5178981"
       y1="37.371799"
       x2="9.5220556"
       y2="41.391716"
       gradientTransform="matrix(0.69866099,0,0,0.71685899,15.315405,0.25786584)" />
    <linearGradient
       id="linearGradient3191">
      <stop
         style="stop-color:#cbbd27;stop-opacity:1;"
         offset="0"
         id="stop3193" />
      <stop
         style="stop-color:#9b901d;stop-opacity:1;"
         offset="1"
         id="stop3195" />
    </linearGradient>
  </defs>
  <g
     id="layer1">
    <g
       id="g2036"
       transform="matrix(1.1 0 0 .44444 -2.4 25.111)">
      <g
         id="g3712"
         style="opacity:.4"
         transform="matrix(1.0526 0 0 1.2857 -1.2632 -13.429)">
        <rect
           id="rect2801"
           style="fill:url(#radialGradient2873)"
           height="7"
           width="5"
           y="40"
           x="38" />
        <rect
           id="rect3696"
           style="fill:url(#radialGradient2875)"
           transform="scale(-1)"
           height="7"
           width="5"
           y="-47"
           x="-10" />
        <rect
           id="rect3700"
           style="fill:url(#linearGradient2877)"
           height="7"
           width="28"
           y="40"
           x="10" />
      </g>
    </g>
    <rect
       id="rect5505"
       style="stroke-linejoin:round;stroke:url(#linearGradient2462);stroke-linecap:round;fill:url(#linearGradient2460)"
       rx="2.2322"
       ry="2.2322"
       height="39"
       width="39"
       y="5.4674"
       x="4.5" />
    <path
       id="rect2424"
       style="stroke:url(#linearGradient2457);fill:url(#radialGradient2455)"
       d="m6.7188 5.4688c-1.2367 0-2.2188 0.9821-2.2188 2.2187v7.8125h39v-7.8125c0-1.2366-0.9821-2.2188-2.2188-2.2188h-34.562z" />
    <rect
       id="rect6741"
       style="opacity:.4;stroke-linejoin:round;stroke:url(#linearGradient2452);stroke-linecap:round;fill:none"
       rx="1.3652"
       ry="1.3652"
       height="37"
       width="37"
       y="6.4674"
       x="5.5" />
    <rect
       id="rect3508"
       style="opacity:.3;fill:url(#linearGradient2448)"
       rx="0"
       ry="0"
       height="3"
       width="40"
       y="16"
       x="4" />
    <g
       id="g3541">
      <rect
         id="rect3497"
         style="opacity:.4;fill:#fff"
         rx="1.8086"
         ry="1.5304"
         height="11"
         width="4"
         y="2"
         x="12" />
      <rect
         id="rect3493"
         style="fill:#cc3429"
         rx="1.5869"
         ry="1.5869"
         height="4.3081"
         width="4"
         y="7.6919"
         x="12" />
      <rect
         id="rect3483"
         style="fill:url(#radialGradient3560)"
         rx="1.8086"
         ry="1.3912"
         height="10"
         width="4"
         y="1"
         x="12" />
    </g>
    <g
       id="g3536">
      <rect
         id="rect3526"
         style="opacity:.4;fill:#fff"
         rx="1.8086"
         ry="1.5304"
         height="11"
         width="4"
         y="2"
         x="32" />
      <rect
         id="rect3528"
         style="fill:#cc3429"
         rx="1.5869"
         ry="1.5869"
         height="4.3081"
         width="4"
         y="7.6919"
         x="32" />
      <rect
         id="rect3530"
         style="fill:url(#radialGradient3562)"
         rx="1.8086"
         ry="1.3912"
         height="10"
         width="4"
         y="1"
         x="32" />
    </g>
  </g>
  <text
     id="text7623"
     style="font-size:24.768px;font-family:Arial;font-weight:bold;fill:#4d4d4d"
     xml:space="preserve"
     transform="scale(1.0065 .99356)"
     y="39.944809"
     x="10.312376"><tspan
       id="tspan7625"
       y="39.944809"
       x="10.312376"
       style="fill:#4d4d4d">28</tspan></text>
  <path
     inkscape:connector-curvature="0"
     style="opacity:0.15;fill:#000000;fill-opacity:1;fill-rule:evenodd;stroke:none"
     d="m 42.752027,26.162178 c -0.250271,-0.0031 -0.451024,0.02426 -0.586299,0.0533 l -18.013564,3.855667 -3.315628,0.710723 -0.101086,0.01777 -4.205186,2.007789 9.441451,-0.888403 0.08087,-0.01777 3.335846,-0.710722 18.013564,-3.873435 c 0.541097,-0.116192 -0.189097,-0.45605 -1.637598,-0.764025 -1.086374,-0.230982 -2.261554,-0.381811 -3.01237,-0.390898 z"
     id="path2422" />
  <path
     inkscape:connector-curvature="0"
     id="rect2383"
     d="m 21.078739,22.96077 c 0.575053,-0.454093 2.104095,0.282079 3.478636,1.686506 1.371254,1.401067 2.060364,2.934787 1.627572,3.530726 -0.0016,0.0023 0.03379,0.03057 0.03212,0.03281 L 47.08299,6.6785838 C 47.612759,6.1318978 46.893449,4.5104278 45.475272,3.0614168 44.057096,1.6124038 42.474439,0.88185084 41.944667,1.4285398 L 21.078739,22.96077 z"
     style="fill:url(#linearGradient3265);fill-opacity:1;stroke:#000000;stroke-width:0.65565419;stroke-linecap:butt;stroke-linejoin:round;stroke-miterlimit:4;stroke-opacity:1;stroke-dasharray:none;stroke-dashoffset:0" />
  <path
     inkscape:connector-curvature="0"
     id="rect3175"
     d="m 39.398141,4.0563828 c 0.575051,-0.454092 2.104095,0.282079 3.478635,1.686507 1.371253,1.401066 2.060365,2.934785 1.627572,3.530725 -0.0016,0.0023 0.03379,0.03058 0.03212,0.03281 l 2.546527,-2.627843 0.05197,-0.05363 c 0.0017,-0.0023 -0.03377,-0.03055 -0.03212,-0.03282 0.432792,-0.59594 -0.25632,-2.12966 -1.627573,-3.530727 -1.37454,-1.404427 -2.903583,-2.14059896 -3.478634,-1.686507 l -0.05197,0.05363 -2.546525,2.627844 z"
     style="opacity:0.8;fill:#ff9de8;fill-opacity:1;stroke:#dd78c5;stroke-width:0.65565419;stroke-linecap:butt;stroke-linejoin:round;stroke-miterlimit:4;stroke-opacity:1;stroke-dasharray:none;stroke-dashoffset:0" />
  <path
     inkscape:connector-curvature="0"
     id="path3208"
     d="m 21.078739,22.96077 c 0.575053,-0.454093 2.104095,0.282079 3.478636,1.686506 1.371254,1.401067 2.060364,2.934787 1.627572,3.530726 -0.0016,0.0023 0.03379,0.03057 0.03212,0.03281 l 14.369685,-14.828546 0.05197,-0.05363 c 0.0017,-0.0023 -0.03375,-0.03054 -0.03212,-0.03282 0.432791,-0.59594 -0.256319,-2.129658 -1.627573,-3.5307252 -1.374539,-1.404427 -2.903583,-2.140599 -3.478635,-1.686506 l -0.05197,0.05363 -14.369686,14.8285472 z"
     style="opacity:0.6;fill:#000000;fill-opacity:1;stroke:none" />
  <path
     inkscape:connector-curvature="0"
     id="path3233"
     d="m 36.543794,7.0018768 c 0.575052,-0.454093 2.104096,0.282079 3.478635,1.686506 1.371254,1.4010672 2.060364,2.9347862 1.627572,3.5307262 -0.0016,0.0023 0.03379,0.03058 0.03212,0.03281 l 0.25985,-0.268148 c 0.0017,-0.0023 -0.03375,-0.03054 -0.03212,-0.03282 0.432791,-0.59593 -0.256319,-2.1296502 -1.627573,-3.5307152 -1.37454,-1.404428 -2.903583,-2.140601 -3.478636,-1.686508 l -0.259849,0.268148 z"
     style="fill:url(#linearGradient3260);fill-opacity:1;stroke:none" />
  <path
     inkscape:connector-curvature="0"
     id="path3216"
     d="m 36.305659,7.2476168 c 0.575051,-0.454093 2.104095,0.282078 3.478634,1.686506 1.371255,1.4010662 2.060365,2.9347852 1.627573,3.5307242 -0.0016,0.0023 0.03379,0.03058 0.03212,0.03281 l 0.25985,-0.268148 c 0.0017,-0.0023 -0.03376,-0.03054 -0.03212,-0.03282 0.432792,-0.595939 -0.256318,-2.129659 -1.627573,-3.5307252 -1.374539,-1.404427 -2.903582,-2.1406 -3.478636,-1.686506 l -0.259847,0.26815 z"
     style="fill:url(#linearGradient3257);fill-opacity:1;stroke:none" />
  <path
     inkscape:connector-curvature="0"
     id="path3248"
     d="m 37.371314,6.1479328 c 0.575051,-0.454094 2.104095,0.282078 3.478635,1.686506 1.371252,1.401066 2.060363,2.9347852 1.627572,3.5307252 -0.0016,0.0023 0.03379,0.03058 0.03212,0.03281 l 0.259849,-0.268147 c 0.0017,-0.0023 -0.03375,-0.03054 -0.03212,-0.03281 0.432793,-0.595939 -0.256318,-2.1296592 -1.627573,-3.5307252 -1.374538,-1.404427 -2.90358,-2.1406 -3.478634,-1.686507 l -0.259849,0.268148 z"
     style="fill:url(#linearGradient3254);fill-opacity:1;stroke:none" />
  <path
     inkscape:connector-curvature="0"
     id="path3250"
     d="m 37.133178,6.3936718 c 0.575052,-0.454093 2.104096,0.282079 3.478635,1.686506 1.371254,1.401068 2.060365,2.9347862 1.627573,3.5307252 -0.0016,0.0023 0.03379,0.03058 0.03212,0.03281 l 0.259849,-0.268149 c 0.0017,-0.0023 -0.03375,-0.03054 -0.03212,-0.03281 0.432793,-0.59594 -0.256317,-2.1296602 -1.627571,-3.5307242 -1.374539,-1.404429 -2.903583,-2.140601 -3.478636,-1.686507 l -0.259849,0.268147 z"
     style="fill:url(#linearGradient3251);fill-opacity:1;stroke:none" />
  <path
     inkscape:connector-curvature="0"
     id="path3256"
     d="m 38.202833,5.2898608 c 0.575051,-0.454093 2.104094,0.282079 3.478633,1.686506 1.371255,1.401067 2.060366,2.934786 1.627574,3.5307252 -0.0016,0.0023 0.03379,0.03058 0.03212,0.03281 l 0.25985,-0.268147 c 0.0017,-0.0023 -0.03375,-0.03055 -0.03212,-0.03281 0.432791,-0.5959402 -0.256319,-2.1296592 -1.627573,-3.5307262 -1.374539,-1.404427 -2.903582,-2.140599 -3.478635,-1.686506 l -0.259849,0.268147 z"
     style="fill:url(#linearGradient3248);fill-opacity:1;stroke:none" />
  <path
     inkscape:connector-curvature="0"
     id="path3258"
     d="m 37.964697,5.5356008 c 0.575051,-0.454094 2.104095,0.282078 3.478634,1.686506 1.371254,1.401067 2.060365,2.9347852 1.627573,3.5307252 -0.0016,0.0023 0.03379,0.03058 0.03212,0.03281 l 0.25985,-0.268147 c 0.0017,-0.0023 -0.03376,-0.03055 -0.03212,-0.03281 0.432792,-0.5959412 -0.256318,-2.1296602 -1.627572,-3.5307262 -1.374539,-1.404428 -2.903583,-2.1406 -3.478635,-1.686506 l -0.25985,0.268147 z"
     style="fill:url(#linearGradient3245);fill-opacity:1;stroke:none" />
  <path
     inkscape:connector-curvature="0"
     style="fill:url(#linearGradient3268);fill-opacity:1;fill-rule:evenodd;stroke:url(#linearGradient3270);stroke-width:0.65565419;stroke-linecap:butt;stroke-linejoin:miter;stroke-miterlimit:4;stroke-opacity:1;stroke-dasharray:none"
     d="m 16.853703,32.475155 9.258458,-4.215728 0.08086,-0.08307 c 0.432791,-0.595939 -0.26616,-2.129345 -1.637413,-3.530412 -1.37454,-1.404428 -2.901923,-2.13623 -3.476975,-1.682138 l -4.22493,9.511346 z"
     id="path3270"
     sodipodi:nodetypes="cccscc" />
  <path
     inkscape:connector-curvature="0"
     id="path3281"
     d="m 17.998109,29.899083 -1.144543,2.566099 2.525467,-1.15515 c -0.18861,-0.235925 -0.361778,-0.476373 -0.59032,-0.709885 -0.263114,-0.268834 -0.523944,-0.484864 -0.790604,-0.701064 z"
     style="fill:#000000;fill-opacity:1;fill-rule:evenodd;stroke:#000000;stroke-width:0.65565419;stroke-linecap:butt;stroke-linejoin:miter;stroke-miterlimit:4;stroke-opacity:1;stroke-dasharray:none" />
</svg>
