<?xml version="1.0" encoding="UTF-8" standalone="no"?>
<!-- Created with Inkscape (http://www.inkscape.org/) -->
<svg xmlns:dc="http://purl.org/dc/elements/1.1/" xmlns:cc="http://creativecommons.org/ns#" xmlns:rdf="http://www.w3.org/1999/02/22-rdf-syntax-ns#" xmlns:svg="http://www.w3.org/2000/svg" xmlns="http://www.w3.org/2000/svg" xmlns:xlink="http://www.w3.org/1999/xlink" xmlns:sodipodi="http://sodipodi.sourceforge.net/DTD/sodipodi-0.dtd" xmlns:inkscape="http://www.inkscape.org/namespaces/inkscape" width="48" height="48" id="svg2160" sodipodi:version="0.32" inkscape:version="0.46" version="1.0" sodipodi:docname="snes.svg" sodipodi:docbase="/home/ulisse/icone/wii/scalable" inkscape:output_extension="org.inkscape.output.svg.inkscape" sodipodi:modified="true" inkscape:export-filename="/home/david/code/icons/snes.png" inkscape:export-xdpi="90" inkscape:export-ydpi="90">
  <defs id="defs2162">
    <linearGradient id="linearGradient3289">
      <stop id="stop3291" offset="0" style="stop-color:#969696;stop-opacity:1;"/>
      <stop id="stop3293" offset="1" style="stop-color:#c8c8c8;stop-opacity:0.03603604;"/>
    </linearGradient>
    <linearGradient inkscape:collect="always" id="linearGradient3260">
      <stop style="stop-color:#040404;stop-opacity:1;" offset="0" id="stop3262"/>
      <stop style="stop-color:#040404;stop-opacity:0;" offset="1" id="stop3264"/>
    </linearGradient>
    <linearGradient id="linearGradient3261">
      <stop id="stop3263" offset="0" style="stop-color:#000000;stop-opacity:1;"/>
      <stop id="stop3265" offset="1" style="stop-color:#ffffff;stop-opacity:1;"/>
    </linearGradient>
    <linearGradient inkscape:collect="always" id="linearGradient3808">
      <stop style="stop-color:#ffffff;stop-opacity:1;" offset="0" id="stop3810"/>
      <stop style="stop-color:#ffffff;stop-opacity:0;" offset="1" id="stop3812"/>
    </linearGradient>
    <linearGradient inkscape:collect="always" id="linearGradient3794">
      <stop style="stop-color:#ffffff;stop-opacity:1;" offset="0" id="stop3796"/>
      <stop style="stop-color:#ffffff;stop-opacity:0;" offset="1" id="stop3798"/>
    </linearGradient>
    <linearGradient id="linearGradient3786">
      <stop id="stop3788" offset="0" style="stop-color:#101010;stop-opacity:1;"/>
      <stop id="stop3790" offset="1" style="stop-color:black;stop-opacity:0;"/>
    </linearGradient>
    <linearGradient inkscape:collect="always" id="linearGradient3432">
      <stop style="stop-color:#000000;stop-opacity:1;" offset="0" id="stop3435"/>
      <stop style="stop-color:#000000;stop-opacity:0;" offset="1" id="stop3437"/>
    </linearGradient>
    <linearGradient inkscape:collect="always" id="linearGradient3204">
      <stop style="stop-color:#ffffff;stop-opacity:1;" offset="0" id="stop3206"/>
      <stop style="stop-color:#ffffff;stop-opacity:0;" offset="1" id="stop3208"/>
    </linearGradient>
    <linearGradient inkscape:collect="always" id="linearGradient3391">
      <stop style="stop-color:#ffffff;stop-opacity:1;" offset="0" id="stop3393"/>
      <stop style="stop-color:#ffffff;stop-opacity:0;" offset="1" id="stop3395"/>
    </linearGradient>
    <linearGradient id="linearGradient4560" inkscape:collect="always">
      <stop id="stop4562" offset="0" style="stop-color:#ffffff;stop-opacity:1;"/>
      <stop id="stop4564" offset="1" style="stop-color:#ffffff;stop-opacity:0"/>
    </linearGradient>
    <linearGradient id="linearGradient3440">
      <stop style="stop-color:#000000;stop-opacity:1;" offset="0" id="stop3442"/>
      <stop style="stop-color:#000000;stop-opacity:0;" offset="1" id="stop3444"/>
    </linearGradient>
    <linearGradient inkscape:collect="always" id="linearGradient3309">
      <stop style="stop-color:#d3d7cf;stop-opacity:1;" offset="0" id="stop3311"/>
      <stop style="stop-color:#eeeeec;stop-opacity:1" offset="1" id="stop3313"/>
    </linearGradient>
    <linearGradient inkscape:collect="always" xlink:href="#linearGradient4560" id="linearGradient4558" x1="23.142857" y1="23.423767" x2="22.357143" y2="16.066624" gradientUnits="userSpaceOnUse" gradientTransform="matrix(1.04694, 0, 0, 1.06463, -0.979162, 3.67602)"/>
    <linearGradient inkscape:collect="always" xlink:href="#linearGradient3391" id="linearGradient3397" x1="21.25" y1="11.859373" x2="21.8125" y2="28.296873" gradientUnits="userSpaceOnUse" gradientTransform="matrix(1.12285, 0, 0, 1.12474, -3.0791, 2.56385)"/>
    <linearGradient inkscape:collect="always" xlink:href="#linearGradient3204" id="linearGradient3212" x1="31.625" y1="21.78125" x2="34.0625" y2="21.78125" gradientUnits="userSpaceOnUse"/>
    <linearGradient inkscape:collect="always" xlink:href="#linearGradient3204" id="linearGradient3216" gradientUnits="userSpaceOnUse" x1="31.625" y1="21.78125" x2="34.0625" y2="21.78125"/>
    <linearGradient inkscape:collect="always" xlink:href="#linearGradient3204" id="linearGradient3220" gradientUnits="userSpaceOnUse" x1="31.625" y1="21.78125" x2="34.0625" y2="21.78125"/>
    <linearGradient inkscape:collect="always" xlink:href="#linearGradient3204" id="linearGradient3224" gradientUnits="userSpaceOnUse" x1="31.625" y1="21.78125" x2="34.0625" y2="21.78125"/>
    <linearGradient inkscape:collect="always" xlink:href="#linearGradient3440" id="linearGradient3232" gradientUnits="userSpaceOnUse" gradientTransform="matrix(0.871374, 0, 0, 0.843554, 2.36024, -45.9549)" x1="24.5" y1="33.703636" x2="24.5" y2="38.607143"/>
    <linearGradient inkscape:collect="always" id="linearGradient5060">
      <stop style="stop-color:black;stop-opacity:1;" offset="0" id="stop5062"/>
      <stop style="stop-color:black;stop-opacity:0;" offset="1" id="stop5064"/>
    </linearGradient>
    <linearGradient id="linearGradient5048">
      <stop style="stop-color:black;stop-opacity:0;" offset="0" id="stop5050"/>
      <stop id="stop5056" offset="0.5" style="stop-color:black;stop-opacity:1;"/>
      <stop style="stop-color:black;stop-opacity:0;" offset="1" id="stop5052"/>
    </linearGradient>
    <linearGradient inkscape:collect="always" xlink:href="#linearGradient5048" id="linearGradient3399" gradientUnits="userSpaceOnUse" gradientTransform="matrix(2.77439, 0, 0, 1.96971, -1892.18, -872.885)" x1="302.85715" y1="366.64789" x2="302.85715" y2="609.50507"/>
    <radialGradient inkscape:collect="always" xlink:href="#linearGradient5060" id="radialGradient3401" gradientUnits="userSpaceOnUse" gradientTransform="matrix(2.77439, 0, 0, 1.96971, -1891.63, -872.885)" cx="605.71429" cy="486.64789" fx="605.71429" fy="486.64789" r="117.14286"/>
    <radialGradient inkscape:collect="always" xlink:href="#linearGradient5060" id="radialGradient3403" gradientUnits="userSpaceOnUse" gradientTransform="matrix(-2.77439, 0, 0, 1.96971, 112.762, -872.885)" cx="605.71429" cy="486.64789" fx="605.71429" fy="486.64789" r="117.14286"/>
    <linearGradient inkscape:collect="always" xlink:href="#linearGradient3432" id="linearGradient3478" gradientUnits="userSpaceOnUse" gradientTransform="matrix(0.00314562, 0.999995, -0.999995, 0.00314562, 35.1124, 17.3589)" x1="14.029457" y1="24.802748" x2="12.68812" y2="24.802748"/>
    <linearGradient inkscape:collect="always" xlink:href="#linearGradient3432" id="linearGradient3481" gradientUnits="userSpaceOnUse" gradientTransform="matrix(0.00314562, -0.999995, -0.999995, -0.00314562, 35.0812, 36.9298)" x1="14.029457" y1="24.802748" x2="12.68812" y2="24.802748"/>
    <linearGradient inkscape:collect="always" xlink:href="#linearGradient3432" id="linearGradient3484" gradientUnits="userSpaceOnUse" gradientTransform="matrix(-1, 0, 0, 1, 20.3113, 2.48438)" x1="14.029457" y1="24.802748" x2="12.68812" y2="24.802748"/>
    <linearGradient inkscape:collect="always" xlink:href="#linearGradient3432" id="linearGradient3487" gradientUnits="userSpaceOnUse" gradientTransform="translate(0.4375, 2.375)" x1="14.029457" y1="24.802748" x2="12.68812" y2="24.802748"/>
    <linearGradient inkscape:collect="always" xlink:href="#linearGradient3309" id="linearGradient3772" gradientUnits="userSpaceOnUse" gradientTransform="matrix(1.12285, 0, 0, 1.12474, -3.0791, 23.6527)" x1="2.6875" y1="2.796875" x2="45.0625" y2="2.796875"/>
    <linearGradient inkscape:collect="always" xlink:href="#linearGradient3440" id="linearGradient3776" gradientUnits="userSpaceOnUse" gradientTransform="matrix(0.84375, 0, 0, 1, 3.04687, -51.875)" x1="23" y1="40.5" x2="23" y2="46.49334"/>
    <linearGradient inkscape:collect="always" xlink:href="#linearGradient3786" id="linearGradient3784" x1="23.875" y1="-13.75" x2="24.5625" y2="-5.1875" gradientUnits="userSpaceOnUse" gradientTransform="matrix(0.84375, 0, 0, 1, 3.57422, 0)"/>
    <linearGradient inkscape:collect="always" xlink:href="#linearGradient3794" id="linearGradient3800" x1="33.088329" y1="16.292986" x2="34.942181" y2="17.425344" gradientUnits="userSpaceOnUse" gradientTransform="matrix(0.759999, 4.26039e-08, 1.42983e-08, 0.790786, 6.68941, 5.12515)"/>
    <linearGradient inkscape:collect="always" xlink:href="#linearGradient3794" id="linearGradient3804" gradientUnits="userSpaceOnUse" gradientTransform="matrix(0.759999, 4.26039e-08, 1.42983e-08, 0.790786, 10.205, 3.50657)" x1="33.088329" y1="16.292986" x2="34.942181" y2="17.425344"/>
    <linearGradient inkscape:collect="always" xlink:href="#linearGradient3808" id="linearGradient3814" x1="8.8812504" y1="22.28125" x2="10.03125" y2="23.46875" gradientUnits="userSpaceOnUse"/>
    <linearGradient inkscape:collect="always" xlink:href="#linearGradient3808" id="linearGradient3818" gradientUnits="userSpaceOnUse" x1="8.8812504" y1="22.28125" x2="10.03125" y2="23.46875" gradientTransform="translate(-3.39062, 3.35938)"/>
    <radialGradient inkscape:collect="always" xlink:href="#linearGradient3204" id="radialGradient3820" cx="12.27205" cy="21.810781" fx="12.27205" fy="21.810781" r="1" gradientUnits="userSpaceOnUse"/>
    <linearGradient inkscape:collect="always" xlink:href="#linearGradient3261" id="linearGradient3259" x1="33.433735" y1="16.344837" x2="35.695187" y2="16.344837" gradientUnits="userSpaceOnUse" gradientTransform="matrix(1.08869, 0, 0, 1.08199, -3.05233, -1.16672)"/>
    <linearGradient inkscape:collect="always" xlink:href="#linearGradient3261" id="linearGradient3269" gradientUnits="userSpaceOnUse" gradientTransform="matrix(1.06589, 0, 0, 1.06975, 0.837208, -2.99796)" x1="33.433735" y1="16.344837" x2="35.695187" y2="16.344837"/>
    <linearGradient inkscape:collect="always" xlink:href="#linearGradient3260" id="linearGradient3266" x1="31.172058" y1="24.687572" x2="34.500488" y2="28.134718" gradientUnits="userSpaceOnUse"/>
    <linearGradient inkscape:collect="always" xlink:href="#linearGradient3260" id="linearGradient3270" gradientUnits="userSpaceOnUse" x1="31.172058" y1="24.687572" x2="34.500488" y2="28.134718"/>
    <linearGradient inkscape:collect="always" xlink:href="#linearGradient3260" id="linearGradient3274" gradientUnits="userSpaceOnUse" x1="31.172058" y1="24.687572" x2="34.500488" y2="28.134718"/>
    <linearGradient inkscape:collect="always" xlink:href="#linearGradient3260" id="linearGradient3278" gradientUnits="userSpaceOnUse" x1="31.172058" y1="24.687572" x2="34.500488" y2="28.134718"/>
    <linearGradient inkscape:collect="always" xlink:href="#linearGradient3440" id="linearGradient3288" x1="6.0570698" y1="21.304869" x2="16.619759" y2="27.35947" gradientUnits="userSpaceOnUse" gradientTransform="translate(0.0441942, -0.132583)"/>
    <linearGradient inkscape:collect="always" xlink:href="#linearGradient3289" id="linearGradient3287" x1="30.936192" y1="-1.5457619" x2="33.959431" y2="6.2857151" gradientUnits="userSpaceOnUse"/>
    <linearGradient inkscape:collect="always" xlink:href="#linearGradient3440" id="linearGradient3307" gradientUnits="userSpaceOnUse" gradientTransform="translate(0.0441942, -0.132583)" x1="6.0570698" y1="21.304869" x2="16.619759" y2="27.35947"/>
    <radialGradient inkscape:collect="always" xlink:href="#linearGradient3204" id="radialGradient3309" gradientUnits="userSpaceOnUse" cx="12.27205" cy="21.810781" fx="12.27205" fy="21.810781" r="1"/>
    <linearGradient inkscape:collect="always" xlink:href="#linearGradient3432" id="linearGradient3311" gradientUnits="userSpaceOnUse" gradientTransform="translate(0.4375, 2.375)" x1="14.029457" y1="24.802748" x2="12.68812" y2="24.802748"/>
    <linearGradient inkscape:collect="always" xlink:href="#linearGradient3432" id="linearGradient3313" gradientUnits="userSpaceOnUse" gradientTransform="matrix(-1, 0, 0, 1, 20.3113, 2.48438)" x1="14.029457" y1="24.802748" x2="12.68812" y2="24.802748"/>
    <linearGradient inkscape:collect="always" xlink:href="#linearGradient3432" id="linearGradient3315" gradientUnits="userSpaceOnUse" gradientTransform="matrix(0.00314562, -0.999995, -0.999995, -0.00314562, 35.0812, 36.9298)" x1="14.029457" y1="24.802748" x2="12.68812" y2="24.802748"/>
    <linearGradient inkscape:collect="always" xlink:href="#linearGradient3432" id="linearGradient3317" gradientUnits="userSpaceOnUse" gradientTransform="matrix(0.00314562, 0.999995, -0.999995, 0.00314562, 35.1124, 17.3589)" x1="14.029457" y1="24.802748" x2="12.68812" y2="24.802748"/>
    <linearGradient inkscape:collect="always" xlink:href="#linearGradient3808" id="linearGradient3319" gradientUnits="userSpaceOnUse" x1="8.8812504" y1="22.28125" x2="10.03125" y2="23.46875"/>
    <linearGradient inkscape:collect="always" xlink:href="#linearGradient3808" id="linearGradient3321" gradientUnits="userSpaceOnUse" gradientTransform="translate(-3.39062, 3.35938)" x1="8.8812504" y1="22.28125" x2="10.03125" y2="23.46875"/>
  </defs>
  <sodipodi:namedview id="base" pagecolor="#ffffff" bordercolor="#999999" borderopacity="1" inkscape:pageopacity="0.0" inkscape:pageshadow="2" inkscape:zoom="22.627417" inkscape:cx="16.572461" inkscape:cy="18.763051" inkscape:current-layer="svg2160" showgrid="false" inkscape:grid-bbox="true" inkscape:document-units="px" inkscape:showpageshadow="false" inkscape:grid-points="true" inkscape:window-width="1678" inkscape:window-height="984" inkscape:window-x="0" inkscape:window-y="0" width="48px" height="48px" showguides="true" inkscape:guide-bbox="true" showborder="true">
    <inkscape:grid id="GridFromPre046Settings" type="xygrid" originx="0px" originy="0px" spacingx="0.5px" spacingy="0.5px" color="#0000ff" empcolor="#0000ff" opacity="0.2" empopacity="0.4" empspacing="2"/>
  </sodipodi:namedview>
  <metadata id="metadata2165">
    <rdf:RDF>
      <cc:Work rdf:about="">
        <dc:format>image/svg+xml</dc:format>
        <dc:type rdf:resource="http://purl.org/dc/dcmitype/StillImage"/>
        <dc:title>Wii Controller</dc:title>
        <dc:creator>
          <cc:Agent>
            <dc:title>Ulisse Perusin</dc:title>
          </cc:Agent>
        </dc:creator>
        <cc:license rdf:resource="http://creativecommons.org/licenses/by-sa/2.5/"/>
      </cc:Work>
      <cc:License rdf:about="http://creativecommons.org/licenses/by-sa/2.5/">
        <cc:permits rdf:resource="http://web.resource.org/cc/Reproduction"/>
        <cc:permits rdf:resource="http://web.resource.org/cc/Distribution"/>
        <cc:requires rdf:resource="http://web.resource.org/cc/Notice"/>
        <cc:requires rdf:resource="http://web.resource.org/cc/Attribution"/>
        <cc:permits rdf:resource="http://web.resource.org/cc/DerivativeWorks"/>
        <cc:requires rdf:resource="http://web.resource.org/cc/ShareAlike"/>
      </cc:License>
    </rdf:RDF>
  </metadata>
  <rect style="opacity:1;fill:url(#linearGradient3784);fill-opacity:1;fill-rule:evenodd;stroke:url(#linearGradient3776);stroke-width:1;stroke-linecap:round;stroke-linejoin:round;stroke-miterlimit:6.5;stroke-dasharray:none;stroke-opacity:1" id="rect3420" width="1.6875" height="14" x="22.875" y="-18.375" transform="scale(1, -1)"/>
  <rect style="opacity:0.40999989;fill:url(#linearGradient3232);fill-opacity:1;fill-rule:evenodd;stroke:none;stroke-width:1;stroke-linecap:round;stroke-linejoin:round;stroke-miterlimit:6.5;stroke-dasharray:none;stroke-opacity:1" id="rect3438" width="2.6141219" height="3.3742149" x="22.40184" y="-16.430565" transform="scale(1, -1)"/>
  <path sodipodi:nodetypes="cssccsscc" id="path3399" d="M 11.094018,17.387375 C 5.5544147,17.387375 1.0585055,21.91638 1.0585055,27.496764 C 1.0585055,33.077145 5.5544146,37.60615 11.094018,37.60615 C 12.713487,37.60615 14.230619,37.197632 15.585436,36.510378 L 32.919502,36.510378 C 34.292303,37.221048 35.832387,37.641498 37.481099,37.641498 C 43.020701,37.641498 47.51661,33.112493 47.516611,27.532109 C 47.516611,22.180379 43.372834,17.808406 38.147793,17.458071 C 38.147793,17.458071 11.440244,17.387375 11.094018,17.387375 z" style="opacity:0.54794521;fill:#ffffff;fill-opacity:1;stroke:#c9c9c9;stroke-width:0.99999988;stroke-linecap:round;stroke-linejoin:miter;stroke-miterlimit:4;stroke-dasharray:none;stroke-opacity:1"/>
  <g id="layer1" inkscape:label="Layer 1" inkscape:groupmode="layer"/>
  <path style="opacity:1;fill:url(#linearGradient3772);fill-opacity:1;stroke:#9b9b9b;stroke-width:0.99999982;stroke-linecap:round;stroke-linejoin:miter;stroke-miterlimit:4;stroke-dasharray:none;stroke-opacity:1" d="M 10.535512,16.72852 C 4.9959091,16.72852 0.49999991,21.231972 0.49999991,26.780867 C 0.49999991,32.329764 4.995909,36.833216 10.535512,36.833216 C 12.154982,36.833216 13.672113,36.427002 15.02693,35.743626 L 32.360997,35.743626 C 33.733798,36.450288 35.273881,36.868365 36.922593,36.868365 C 42.462196,36.868365 46.958104,32.364913 46.958105,26.816016 C 46.958105,21.494479 42.814329,17.147174 37.589288,16.798815 C 37.589288,16.798815 10.881738,16.72852 10.535512,16.72852 z" id="rect3281" sodipodi:nodetypes="cssccsscc"/>
  <rect style="opacity:0.25570776;fill:none;fill-opacity:1;stroke:url(#linearGradient3269);stroke-width:0.50166195999999996;stroke-linecap:round;stroke-linejoin:miter;stroke-miterlimit:6.50000000000000000;stroke-dasharray:none;stroke-opacity:1" id="rect3267" width="1.8755471" height="4.7933855" x="36.741409" y="12.090204" rx="1.1541827" transform="matrix(0.892487, 0.451072, -0.550569, 0.83479, 0, 0)"/>
  <rect transform="matrix(0.896046, 0.443962, -0.558199, 0.829708, 0, 0)" rx="1.1788669" y="14.094099" x="33.619743" height="4.848238" width="1.9156588" id="rect2481" style="opacity:0.28310499;fill:none;fill-opacity:1;stroke:url(#linearGradient3259);stroke-width:0.50219584;stroke-linecap:round;stroke-linejoin:miter;stroke-miterlimit:6.5;stroke-dasharray:none;stroke-opacity:1"/>
  <path sodipodi:nodetypes="cssccsscc" id="path3387" d="M 11.233904,17.736053 C 5.6161046,17.548553 1.5291045,21.736127 1.6228545,26.712779 C 1.7142336,31.563571 5.9286045,35.502004 11.233904,35.502004 C 12.784876,35.502004 14.237839,35.146833 15.535354,34.549326 L 32.136258,34.549326 C 33.450994,35.167192 34.925939,35.532735 36.504917,35.532735 C 41.810216,35.532735 45.585634,31.285804 45.585635,26.434152 C 45.585635,21.78129 42.014872,18.15702 37.010829,17.852433 C 37.010829,17.852433 11.565486,17.736053 11.233904,17.736053 z" style="opacity:1;fill:none;fill-opacity:1;stroke:url(#linearGradient3397);stroke-width:0.99999982;stroke-linecap:round;stroke-linejoin:miter;stroke-miterlimit:4;stroke-dasharray:none;stroke-opacity:1"/>
  <path sodipodi:type="arc" style="opacity:1;fill:#c8c8c8;fill-opacity:1;stroke:#c9c9c9;stroke-width:0.73647779;stroke-linecap:round;stroke-linejoin:miter;stroke-miterlimit:4;stroke-dasharray:none;stroke-opacity:1" id="path3300" sodipodi:cx="33.499184" sodipodi:cy="3.5406611" sodipodi:rx="5.7452426" sodipodi:ry="5.7452426" d="M 39.244426,3.5406611 A 5.7452426,5.7452426 0 1 1 27.753941,3.5406611 A 5.7452426,5.7452426 0 1 1 39.244426,3.5406611 z" transform="matrix(1.35668, 0, 0, 1.35895, -8.31948, 21.9578)"/>
  <path d="M 39.244426,3.5406611 A 5.7452426,5.7452426 0 1 1 27.753941,3.5406611 A 5.7452426,5.7452426 0 1 1 39.244426,3.5406611 z" sodipodi:ry="5.7452426" sodipodi:rx="5.7452426" sodipodi:cy="3.5406611" sodipodi:cx="33.499184" id="path3302" style="opacity:0.71232879999999998;fill:#f3f3f3;fill-opacity:0.92268041999999995;stroke:url(#linearGradient3287);stroke-width:0.18284243999999999;stroke-linecap:round;stroke-linejoin:miter;stroke-miterlimit:4;stroke-dasharray:none;stroke-opacity:1" sodipodi:type="arc" transform="matrix(1.09291, 0, 0, 1.09477, -26.1443, 23.1638)"/>
  <path style="opacity:1;fill:#eeeeee;fill-opacity:0.92268042;stroke:none;stroke-width:0.30000001;stroke-linecap:round;stroke-linejoin:round;stroke-miterlimit:4;stroke-opacity:1" d="M 30.837678,24.924402 L 36.409746,20.755163 C 37.507535,19.933755 39.28639,20.360497 40.048854,21.401446 C 40.811319,22.442394 40.728865,24.222942 39.631076,25.04435 L 34.059007,29.213589 C 32.961218,30.034998 31.276113,29.577006 30.513649,28.536058 C 29.751185,27.495109 29.739889,25.745811 30.837678,24.924402 z" id="rect3453" sodipodi:nodetypes="ccsccsc"/>
  <path sodipodi:type="arc" style="opacity:0.25570774;fill:none;fill-opacity:0.92268042;stroke:url(#linearGradient3266);stroke-width:0.52407199;stroke-linecap:round;stroke-linejoin:round;stroke-miterlimit:6.5;stroke-dasharray:none;stroke-opacity:1" id="path2487" sodipodi:cx="32.92466" sodipodi:cy="26.632116" sodipodi:rx="2.3422911" sodipodi:ry="2.4085824" d="M 35.266951,26.632116 A 2.3422911,2.4085824 0 1 1 30.582369,26.632116 A 2.3422911,2.4085824 0 1 1 35.266951,26.632116 z" transform="matrix(0.954006, 0, 0, 0.954128, 1.51708, 1.35424)"/>
  <path sodipodi:type="arc" style="fill:#4e9a06;fill-opacity:1;fill-rule:evenodd;stroke:#4b7622;stroke-width:0.19068031;stroke-linecap:round;stroke-linejoin:round;stroke-miterlimit:6.5;stroke-dasharray:none;stroke-opacity:1" id="path3267" sodipodi:cx="19.75" sodipodi:cy="20.75" sodipodi:rx="0.75" sodipodi:ry="0.75" d="M 20.5,20.75 A 0.75,0.75 0 1 1 19,20.75 A 0.75,0.75 0 1 1 20.5,20.75 z" transform="matrix(2.61999, 0, 0, 2.62439, -18.8303, -27.7625)"/>
  <path transform="matrix(0.954006, 0, 0, 0.954128, 6.25755, -2.20382)" d="M 35.266951,26.632116 A 2.3422911,2.4085824 0 1 1 30.582369,26.632116 A 2.3422911,2.4085824 0 1 1 35.266951,26.632116 z" sodipodi:ry="2.4085824" sodipodi:rx="2.3422911" sodipodi:cy="26.632116" sodipodi:cx="32.92466" id="path3268" style="opacity:0.25570774;fill:none;fill-opacity:0.92268042;stroke:url(#linearGradient3270);stroke-width:0.52407199;stroke-linecap:round;stroke-linejoin:round;stroke-miterlimit:6.5;stroke-dasharray:none;stroke-opacity:1" sodipodi:type="arc"/>
  <path sodipodi:type="arc" style="fill:#204a87;fill-opacity:1;fill-rule:evenodd;stroke:#273d5c;stroke-width:0.19068031;stroke-linecap:round;stroke-linejoin:round;stroke-miterlimit:6.5;stroke-dasharray:none;stroke-opacity:1" id="path3359" sodipodi:cx="19.75" sodipodi:cy="20.75" sodipodi:rx="0.75" sodipodi:ry="0.75" d="M 20.5,20.75 A 0.75,0.75 0 1 1 19,20.75 A 0.75,0.75 0 1 1 20.5,20.75 z" transform="matrix(2.61999, 0, 0, 2.62439, -14.1031, -31.2361)"/>
  <path transform="matrix(1.66129, 0, 0, 1.66129, -16.959, -13.0859)" d="M 33.8125,21.78125 A 0.96875,0.96875 0 1 1 31.875,21.78125 A 0.96875,0.96875 0 1 1 33.8125,21.78125 z" sodipodi:ry="0.96875" sodipodi:rx="0.96875" sodipodi:cy="21.78125" sodipodi:cx="32.84375" id="path3214" style="opacity:0.58447487;fill:url(#linearGradient3216);fill-opacity:1;stroke:none;stroke-width:0.5;stroke-linecap:round;stroke-linejoin:miter;stroke-miterlimit:6.5;stroke-dasharray:none;stroke-opacity:0.67525772" sodipodi:type="arc"/>
  <path sodipodi:nodetypes="ccsccsc" id="path3458" d="M 34.868928,29.174402 L 40.440996,25.005163 C 41.538785,24.183755 43.31764,24.610497 44.080104,25.651446 C 44.842569,26.692394 44.760115,28.472942 43.662326,29.29435 L 38.090257,33.463589 C 36.992468,34.284998 35.307363,33.827006 34.544899,32.786058 C 33.782435,31.745109 33.771139,29.995811 34.868928,29.174402 z" style="opacity:1;fill:#ebebeb;fill-opacity:0.92268042;stroke:none;stroke-width:0.30000001;stroke-linecap:round;stroke-linejoin:round;stroke-miterlimit:4;stroke-opacity:1"/>
  <path transform="matrix(0.954006, 0, 0, 0.954128, 10.2903, 1.96148)" d="M 35.266951,26.632116 A 2.3422911,2.4085824 0 1 1 30.582369,26.632116 A 2.3422911,2.4085824 0 1 1 35.266951,26.632116 z" sodipodi:ry="2.4085824" sodipodi:rx="2.3422911" sodipodi:cy="26.632116" sodipodi:cx="32.92466" id="path3276" style="opacity:0.25570774;fill:none;fill-opacity:0.92268042;stroke:url(#linearGradient3278);stroke-width:0.52407199;stroke-linecap:round;stroke-linejoin:round;stroke-miterlimit:6.5;stroke-dasharray:none;stroke-opacity:1" sodipodi:type="arc"/>
  <path sodipodi:type="arc" style="opacity:0.25570774;fill:none;fill-opacity:0.92268042;stroke:url(#linearGradient3274);stroke-width:0.52407199;stroke-linecap:round;stroke-linejoin:round;stroke-miterlimit:6.5;stroke-dasharray:none;stroke-opacity:1" id="path3272" sodipodi:cx="32.92466" sodipodi:cy="26.632116" sodipodi:rx="2.3422911" sodipodi:ry="2.4085824" d="M 35.266951,26.632116 A 2.3422911,2.4085824 0 1 1 30.582369,26.632116 A 2.3422911,2.4085824 0 1 1 35.266951,26.632116 z" transform="matrix(0.954006, 0, 0, 0.954128, 5.56149, 5.43072)"/>
  <path transform="matrix(2.61999, 0, 0, 2.62439, -14.7612, -23.5871)" d="M 20.5,20.75 A 0.75,0.75 0 1 1 19,20.75 A 0.75,0.75 0 1 1 20.5,20.75 z" sodipodi:ry="0.75" sodipodi:rx="0.75" sodipodi:cy="20.75" sodipodi:cx="19.75" id="path3362" style="fill:#edd400;fill-opacity:1;fill-rule:evenodd;stroke:#b8a70e;stroke-width:0.19068031;stroke-linecap:round;stroke-linejoin:round;stroke-miterlimit:6.5;stroke-dasharray:none;stroke-opacity:1" sodipodi:type="arc"/>
  <path transform="matrix(2.61999, 0, 0, 2.62439, -10.034, -27.1602)" d="M 20.5,20.75 A 0.75,0.75 0 1 1 19,20.75 A 0.75,0.75 0 1 1 20.5,20.75 z" sodipodi:ry="0.75" sodipodi:rx="0.75" sodipodi:cy="20.75" sodipodi:cx="19.75" id="path3364" style="fill:#cc0000;fill-opacity:1;fill-rule:evenodd;stroke:#800a0a;stroke-width:0.19068031;stroke-linecap:round;stroke-linejoin:round;stroke-miterlimit:6.5;stroke-dasharray:none;stroke-opacity:1" sodipodi:type="arc"/>
  <rect style="opacity:1;fill:#2e3436;fill-opacity:1;stroke:#292c27;stroke-width:0.50178808;stroke-linecap:round;stroke-linejoin:miter;stroke-miterlimit:6.5;stroke-dasharray:none;stroke-opacity:1" id="rect3383" width="1.5873601" height="4.0469599" x="33.623123" y="14.316394" rx="0.97683698" transform="matrix(0.893384, 0.449294, -0.552471, 0.833533, 0, 0)"/>
  <rect transform="matrix(0.893384, 0.449294, -0.552471, 0.833533, 0, 0)" rx="0.97683698" y="12.50634" x="36.98114" height="4.0469599" width="1.5873601" id="rect3385" style="opacity:1;fill:#2e3436;fill-opacity:1;stroke:#292c27;stroke-width:0.50178808;stroke-linecap:round;stroke-linejoin:miter;stroke-miterlimit:6.5;stroke-dasharray:none;stroke-opacity:1"/>
  <path sodipodi:type="arc" style="opacity:0.58447487;fill:url(#linearGradient3212);fill-opacity:1;stroke:none;stroke-width:0.5;stroke-linecap:round;stroke-linejoin:miter;stroke-miterlimit:6.5;stroke-dasharray:none;stroke-opacity:0.67525772" id="path2432" sodipodi:cx="32.84375" sodipodi:cy="21.78125" sodipodi:rx="0.96875" sodipodi:ry="0.96875" d="M 33.8125,21.78125 A 0.96875,0.96875 0 1 1 31.875,21.78125 A 0.96875,0.96875 0 1 1 33.8125,21.78125 z" transform="matrix(1.66129, 0, 0, 1.66129, -21.7193, -9.61444)"/>
  <path sodipodi:type="arc" style="opacity:0.58447487;fill:url(#linearGradient3220);fill-opacity:1;stroke:none;stroke-width:0.5;stroke-linecap:round;stroke-linejoin:miter;stroke-miterlimit:6.5;stroke-dasharray:none;stroke-opacity:0.67525772" id="path3218" sodipodi:cx="32.84375" sodipodi:cy="21.78125" sodipodi:rx="0.96875" sodipodi:ry="0.96875" d="M 33.8125,21.78125 A 0.96875,0.96875 0 1 1 31.875,21.78125 A 0.96875,0.96875 0 1 1 33.8125,21.78125 z" transform="matrix(1.66129, 0, 0, 1.66129, -17.6411, -5.43341)"/>
  <path transform="matrix(1.66129, 0, 0, 1.66129, -12.9536, -9.01422)" d="M 33.8125,21.78125 A 0.96875,0.96875 0 1 1 31.875,21.78125 A 0.96875,0.96875 0 1 1 33.8125,21.78125 z" sodipodi:ry="0.96875" sodipodi:rx="0.96875" sodipodi:cy="21.78125" sodipodi:cx="32.84375" id="path3222" style="opacity:0.58447487;fill:url(#linearGradient3224);fill-opacity:1;stroke:none;stroke-width:0.5;stroke-linecap:round;stroke-linejoin:miter;stroke-miterlimit:6.5;stroke-dasharray:none;stroke-opacity:0.67525772" sodipodi:type="arc"/>
  <g id="g5022" transform="matrix(0.0194953, 0, 0, 0.0208676, 41.0767, 40.6325)" style="opacity:0.23500001">
    <rect y="-150.69685" x="-1559.2523" height="478.35718" width="1339.6335" id="rect4173" style="opacity:0.40206185;fill:url(#linearGradient3399);fill-opacity:1;fill-rule:nonzero;stroke:none;stroke-width:1;stroke-linecap:round;stroke-linejoin:miter;marker:none;marker-start:none;marker-mid:none;marker-end:none;stroke-miterlimit:4;stroke-dasharray:none;stroke-dashoffset:0;stroke-opacity:1;visibility:visible;display:inline;overflow:visible"/>
    <path sodipodi:nodetypes="cccc" id="path5058" d="M -219.61876,-150.68038 C -219.61876,-150.68038 -219.61876,327.65041 -219.61876,327.65041 C -76.744594,328.55086 125.78146,220.48075 125.78138,88.454235 C 125.78138,-43.572302 -33.655436,-150.68036 -219.61876,-150.68038 z" style="opacity:0.40206185;fill:url(#radialGradient3401);fill-opacity:1;fill-rule:nonzero;stroke:none;stroke-width:1;stroke-linecap:round;stroke-linejoin:miter;marker:none;marker-start:none;marker-mid:none;marker-end:none;stroke-miterlimit:4;stroke-dasharray:none;stroke-dashoffset:0;stroke-opacity:1;visibility:visible;display:inline;overflow:visible"/>
    <path style="opacity:0.40206185;fill:url(#radialGradient3403);fill-opacity:1;fill-rule:nonzero;stroke:none;stroke-width:1;stroke-linecap:round;stroke-linejoin:miter;marker:none;marker-start:none;marker-mid:none;marker-end:none;stroke-miterlimit:4;stroke-dasharray:none;stroke-dashoffset:0;stroke-opacity:1;visibility:visible;display:inline;overflow:visible" d="M -1559.2523,-150.68038 C -1559.2523,-150.68038 -1559.2523,327.65041 -1559.2523,327.65041 C -1702.1265,328.55086 -1904.6525,220.48075 -1904.6525,88.454235 C -1904.6525,-43.572302 -1745.2157,-150.68036 -1559.2523,-150.68038 z" id="path5018" sodipodi:nodetypes="cccc"/>
  </g>
  <path id="path3748" style="opacity:0.15525112;fill:none;fill-rule:evenodd;stroke:#ffffff;stroke-width:1.00000012px;stroke-linecap:butt;stroke-linejoin:miter;stroke-opacity:1" sodipodi:nodetypes="cc" d=""/>
  <g inkscape:r_cy="true" inkscape:r_cx="true" transform="matrix(0.186703, 0, 0, 0.186703, -63.9101, -22.5956)" id="g891"/>
  <path sodipodi:type="arc" style="opacity:0.7123288;fill:#888a85;fill-opacity:0.92268042;stroke:none;stroke-width:0.5;stroke-linecap:round;stroke-linejoin:miter;stroke-miterlimit:6.5;stroke-dasharray:none;stroke-opacity:1" id="path3414" sodipodi:cx="-19.5" sodipodi:cy="25.9375" sodipodi:rx="1.625" sodipodi:ry="1.5" d="M -17.875,25.9375 A 1.625,1.5 0 1 1 -21.125,25.9375 A 1.625,1.5 0 1 1 -17.875,25.9375 z" transform="matrix(0.37023, -0.249921, 0.171821, 0.254533, 21.5197, 8.73819)"/>
  <path transform="matrix(0.37023, -0.249921, 0.171821, 0.254533, 22.598, 8.78007)" d="M -17.875,25.9375 A 1.625,1.5 0 1 1 -21.125,25.9375 A 1.625,1.5 0 1 1 -17.875,25.9375 z" sodipodi:ry="1.5" sodipodi:rx="1.625" sodipodi:cy="25.9375" sodipodi:cx="-19.5" id="path3418" style="opacity:0.7123288;fill:#888a85;fill-opacity:0.92268042;stroke:none;stroke-width:0.5;stroke-linecap:round;stroke-linejoin:miter;stroke-miterlimit:6.5;stroke-dasharray:none;stroke-opacity:1" sodipodi:type="arc"/>
  <path transform="matrix(0.37023, -0.249921, 0.171821, 0.254533, 21.5197, 9.63157)" d="M -17.875,25.9375 A 1.625,1.5 0 1 1 -21.125,25.9375 A 1.625,1.5 0 1 1 -17.875,25.9375 z" sodipodi:ry="1.5" sodipodi:rx="1.625" sodipodi:cy="25.9375" sodipodi:cx="-19.5" id="path3420" style="opacity:0.7123288;fill:#888a85;fill-opacity:0.92268042;stroke:none;stroke-width:0.5;stroke-linecap:round;stroke-linejoin:miter;stroke-miterlimit:6.5;stroke-dasharray:none;stroke-opacity:1" sodipodi:type="arc"/>
  <path sodipodi:type="arc" style="opacity:0.7123288;fill:#888a85;fill-opacity:0.92268042;stroke:none;stroke-width:0.5;stroke-linecap:round;stroke-linejoin:miter;stroke-miterlimit:6.5;stroke-dasharray:none;stroke-opacity:1" id="path3422" sodipodi:cx="-19.5" sodipodi:cy="25.9375" sodipodi:rx="1.625" sodipodi:ry="1.5" d="M -17.875,25.9375 A 1.625,1.5 0 1 1 -21.125,25.9375 A 1.625,1.5 0 1 1 -17.875,25.9375 z" transform="matrix(0.37023, -0.249921, 0.171821, 0.254533, 22.598, 9.67345)"/>
  <rect style="opacity:0.7123288;fill:#888a85;fill-opacity:0.92268042;stroke:none;stroke-width:0.5;stroke-linecap:round;stroke-linejoin:miter;stroke-miterlimit:6.5;stroke-dasharray:none;stroke-opacity:1" id="rect3428" width="7.0640664" height="0.980093" x="21.28091" y="20.61651" rx="0.44144866"/>
  <rect rx="0.24321297" y="31.742985" x="18.804495" height="0.852148" width="3.8918967" id="rect3494" style="opacity:0.7123288;fill:#888a85;fill-opacity:0.92268042;stroke:none;stroke-width:0.5;stroke-linecap:round;stroke-linejoin:miter;stroke-miterlimit:6.5;stroke-dasharray:none;stroke-opacity:1"/>
  <rect style="opacity:0.7123288;fill:#888a85;fill-opacity:0.92268042;stroke:none;stroke-width:0.5;stroke-linecap:round;stroke-linejoin:miter;stroke-miterlimit:6.5;stroke-dasharray:none;stroke-opacity:1" id="rect3496" width="3.8918967" height="0.852148" x="23.679495" y="31.742985" rx="0.24321297"/>
  <rect transform="matrix(0.92768, 0.373375, -0.494998, 0.868894, 0, 0)" rx="0.6455434" y="17.627432" x="33.193295" height="2.6739652" width="1.049008" id="rect3792" style="opacity:1;fill:none;fill-opacity:1;stroke:url(#linearGradient3800);stroke-width:0.50229681;stroke-linecap:round;stroke-linejoin:miter;stroke-miterlimit:6.5;stroke-dasharray:none;stroke-opacity:1"/>
  <rect style="opacity:1;fill:none;fill-opacity:1;stroke:url(#linearGradient3804);stroke-width:0.50229681;stroke-linecap:round;stroke-linejoin:miter;stroke-miterlimit:6.5;stroke-dasharray:none;stroke-opacity:1" id="rect3802" width="1.049008" height="2.6739652" x="36.708847" y="16.008858" rx="0.6455434" transform="matrix(0.92768, 0.373375, -0.494998, 0.868894, 0, 0)"/>
  <g id="g3295" transform="matrix(0.880004, 0, 0, 0.85622, 1.27565, 3.77573)">
    <path id="path3454" d="M 10.443277,27.383635 L 10.443277,25.696528" style="fill:none;fill-rule:evenodd;stroke:#555753;stroke-width:0.2304066;stroke-linecap:round;stroke-linejoin:miter;stroke-miterlimit:4;stroke-dasharray:none;stroke-opacity:1"/>
    <path sodipodi:nodetypes="ccccccccccccc" id="rect2215" d="M 9.0809563,22.526999 L 11.535849,22.526999 L 11.535849,26 L 14.955545,26 L 14.955545,28.426688 L 11.535849,28.426688 L 11.535849,31.749999 L 9.1394065,31.749999 L 9.0809563,28.426688 L 5.7325455,28.426688 L 5.7325455,26 L 9.0809563,26 L 9.0809563,22.526999 z" style="fill:#2e3436;fill-opacity:1;fill-rule:evenodd;stroke:#000000;stroke-width:0.57601649;stroke-linecap:round;stroke-linejoin:round;stroke-miterlimit:6.5;stroke-dasharray:none;stroke-opacity:1"/>
    <path style="fill:none;fill-opacity:1;fill-rule:evenodd;stroke:url(#linearGradient3307);stroke-width:0.57601649;stroke-linecap:round;stroke-linejoin:round;stroke-miterlimit:6.5;stroke-dasharray:none;stroke-opacity:1" d="M 9.2577327,22.615388 L 11.712626,22.615388 L 11.712626,26.088389 L 15.132322,26.088389 L 15.132322,28.515077 L 11.712626,28.515077 L 11.712626,31.838388 L 9.3161837,31.838388 L 9.2577327,28.515077 L 5.9093222,28.515077 L 5.9093222,26.088389 L 9.2577327,26.088389 L 9.2577327,22.615388 z" id="path3280" sodipodi:nodetypes="ccccccccccccc"/>
    <path transform="matrix(1.12285, 0, 0, 1.12474, -3.17507, 3.07143)" d="M 12.9375,21.4375 A 1,1 0 1 1 10.9375,21.4375 A 1,1 0 1 1 12.9375,21.4375 z" sodipodi:ry="1" sodipodi:rx="1" sodipodi:cy="21.4375" sodipodi:cx="11.9375" id="path3403" style="opacity:0.15068491;fill:url(#radialGradient3309);fill-opacity:1;stroke:#040404;stroke-width:0.10251265;stroke-linecap:round;stroke-linejoin:miter;stroke-miterlimit:6.5;stroke-dasharray:none;stroke-opacity:1" sodipodi:type="arc"/>
    <path inkscape:transform-center-y="0.6896533" inkscape:transform-center-x="-0.38354181" sodipodi:nodetypes="cccc" id="path3430" d="M 12.898207,26.676411 L 14.00687,27.170148 L 12.919585,27.679084 L 12.898207,26.676411 z" style="opacity:0.50228307;fill:none;fill-rule:evenodd;stroke:url(#linearGradient3311);stroke-width:0.34560993;stroke-linecap:butt;stroke-linejoin:round;stroke-miterlimit:4;stroke-dasharray:none;stroke-opacity:1"/>
    <path style="opacity:0.47488583;fill:none;fill-rule:evenodd;stroke:url(#linearGradient3313);stroke-width:0.34560993;stroke-linecap:butt;stroke-linejoin:round;stroke-miterlimit:4;stroke-dasharray:none;stroke-opacity:1" d="M 7.85062,26.785786 L 6.741957,27.279523 L 7.829242,27.788459 L 7.85062,26.785786 z" id="path3441" sodipodi:nodetypes="cccc" inkscape:transform-center-x="0.38354181" inkscape:transform-center-y="0.6896533"/>
    <path inkscape:transform-center-y="-0.3849087" inkscape:transform-center-x="0.69015351" sodipodi:nodetypes="cccc" id="path3445" d="M 10.819102,24.392666 L 10.328855,23.282455 L 9.8165014,24.368134 L 10.819102,24.392666 z" style="opacity:0.68036535;fill:none;fill-rule:evenodd;stroke:url(#linearGradient3315);stroke-width:0.34560993;stroke-linecap:butt;stroke-linejoin:round;stroke-miterlimit:4;stroke-dasharray:none;stroke-opacity:1"/>
    <path style="opacity:0.30593609;fill:none;fill-rule:evenodd;stroke:url(#linearGradient3317);stroke-width:0.34560993;stroke-linecap:butt;stroke-linejoin:round;stroke-miterlimit:4;stroke-dasharray:none;stroke-opacity:1" d="M 10.850352,29.896022 L 10.360105,31.006233 L 9.8477514,29.920554 L 10.850352,29.896022 z" id="path3449" sodipodi:nodetypes="cccc" inkscape:transform-center-x="0.69015351" inkscape:transform-center-y="0.3849083"/>
    <rect y="23" x="9.53125" height="1.5" width="1" id="rect3806" style="opacity:0.59360729;fill:none;fill-opacity:0.92268042;stroke:url(#linearGradient3319);stroke-width:0.34560993;stroke-linecap:round;stroke-linejoin:round;stroke-miterlimit:4;stroke-dasharray:none;stroke-opacity:1"/>
    <rect style="opacity:1;fill:none;fill-opacity:0.92268042;stroke:url(#linearGradient3321);stroke-width:0.34560993;stroke-linecap:round;stroke-linejoin:round;stroke-miterlimit:4;stroke-dasharray:none;stroke-opacity:1" id="rect3816" width="1" height="1.5" x="6.140625" y="26.359375"/>
  </g>
  <path style="opacity:0.30136982;fill:url(#linearGradient4558);fill-opacity:1;fill-rule:evenodd;stroke:none;stroke-width:1;stroke-linecap:round;stroke-linejoin:round;stroke-miterlimit:6.5;stroke-opacity:1" d="M 36.678095,17.549446 C 35.936949,17.476994 35.20702,17.513682 34.420623,17.649255 C 30.425956,18.337924 27.331765,18.680176 24.082053,18.680614 C 20.831888,18.681051 17.427247,18.338765 12.827408,17.649255 C 6.5362835,16.706225 1.1147251,22.655766 1.1147251,28.761307 C 21.186082,34.87402 28.684536,17.924712 46.133306,28.761307 C 46.133304,23.422511 41.88905,18.058856 36.678095,17.549446 z" id="path4541" sodipodi:nodetypes="csssccc"/>
</svg>