<?xml version="1.0" encoding="UTF-8" standalone="no"?>
<!DOCTYPE svg PUBLIC "-//W3C//DTD SVG 20010904//EN" "http://www.w3.org/TR/2001/REC-SVG-20010904/DTD/svg10.dtd">
<!-- Created with Sodipodi ("http://www.sodipodi.com/") -->
<svg width="60" height="60" viewBox="0 0 256 256" overflow="visible" xmlns="http://www.w3.org/2000/svg">
  <defs id="defs3468">
    <linearGradient id="XMLID_7_" gradientUnits="userSpaceOnUse" x1="128.9995" y1="11" x2="128.9995" y2="245.0005">
      <stop offset="0" style="stop-color: #494949" id="stop3401"/>
      <stop offset="1" style="stop-color: #000000" id="stop3402"/>
    </linearGradient>
    <linearGradient id="XMLID_8_" gradientUnits="userSpaceOnUse" x1="29.0532" y1="29.0532" x2="226.9471" y2="226.9471">
      <stop offset="0" style="stop-color: #ffffff" id="stop3409"/>
      <stop offset="1" style="stop-color: #dadada" id="stop3410"/>
    </linearGradient>
  </defs>
  <g id="g3415" transform="matrix(1.43, 0, 0, 1.43, -55.0743, -55.0418)">
    <g opacity="0.2" id="g3416">
      <path d="M102.792,80.545c-7.587,1.65-12.383,5.266-14.251,10.747c-0.572,1.677-0.823,3.448-0.823,5.269       c0,11.275,9.64,24.387,12.666,28.226c-3.285,12.369-5.303,25.895-5.303,38.584c0,19.696,4.782,37.317,16.907,45.226       c10.327,6.735,30.531,6.44,50.273-0.732c21.725-7.894,37.012-21.69,41.938-37.855c3.506-11.495,2.525-20.792-2.914-27.631       c-10.252-12.895-32.613-12.041-36.993-11.74c-5.596,0.387-11.59-1.796-16.031-5.84c-3.335-3.036-7.357-8.483-7.574-17.188       c-0.204-8.147-1.389-18.247-8.795-24.063C125.635,78.63,116.116,77.648,102.792,80.545 M105.484,122.342       c-3.765-4.482-12.279-16.729-12.279-25.7c0-1.268,0.17-2.47,0.548-3.576c1.221-3.577,4.56-5.912,10.208-7.141       c11.459-2.49,19.712-1.835,24.53,1.949c4.369,3.432,6.431,9.561,6.691,19.872c0.208,8.309,3.536,15.811,9.372,21.123       c5.613,5.109,12.946,7.756,20.117,7.262c10.763-0.742,25.682,1.346,32.304,9.673c4.244,5.337,4.902,12.939,1.958,22.599       c-4.418,14.493-18.47,26.99-38.553,34.285c-17.912,6.509-36.575,7.041-45.386,1.296c-10.16-6.627-14.412-22.391-14.412-40.567       c0-12.446,1.993-26.022,5.449-38.572c0,0-1.326-0.365-2.652-0.73C104.43,123.227,105.484,122.342,105.484,122.342z" id="path3417"/>
    </g>
    <g opacity="0.2" id="g3418">
      <path d="M101.874,78.709c-7.588,1.651-12.383,5.267-14.251,10.748c-0.572,1.677-0.824,3.448-0.824,5.269       c0,11.275,9.64,24.386,12.667,28.226c-3.286,12.369-5.304,25.894-5.304,38.584c0,19.696,4.782,37.317,16.907,45.225       c10.328,6.735,30.531,6.44,50.273-0.732c21.725-7.893,37.012-21.69,41.938-37.854c3.506-11.495,2.525-20.792-2.914-27.632       c-10.252-12.894-32.613-12.04-36.993-11.739c-5.596,0.387-11.589-1.797-16.03-5.84c-3.336-3.037-7.357-8.483-7.574-17.188       c-0.205-8.148-1.39-18.248-8.795-24.063C124.717,76.794,115.198,75.813,101.874,78.709 M104.566,120.506       c-3.765-4.481-12.279-16.729-12.279-25.7c0-1.267,0.17-2.47,0.548-3.575c1.221-3.577,4.56-5.913,10.208-7.141       c11.459-2.49,19.712-1.835,24.529,1.949c4.369,3.432,6.431,9.56,6.691,19.872c0.208,8.309,3.537,15.811,9.372,21.123       c5.614,5.109,12.946,7.756,20.117,7.261c10.763-0.742,25.682,1.347,32.305,9.674c4.244,5.336,4.901,12.939,1.957,22.598       c-4.418,14.494-18.47,26.99-38.553,34.286c-17.912,6.509-36.575,7.041-45.386,1.296c-10.16-6.627-14.412-22.392-14.412-40.568       c0-12.445,1.993-26.022,5.449-38.572c0,0-1.327-0.364-2.653-0.73C103.512,121.392,104.566,120.506,104.566,120.506z" id="path3419"/>
    </g>
    <linearGradient id="XMLID_9_" gradientUnits="userSpaceOnUse" x1="145.1504" y1="209.7813" x2="145.1504" y2="75.2549">
      <stop offset="0" style="stop-color: #663333" id="stop3421"/>
      <stop offset="0.163" style="stop-color: #6f2f2f" id="stop3422"/>
      <stop offset="0.4288" style="stop-color: #872323" id="stop3423"/>
      <stop offset="0.7623" style="stop-color: #af1010" id="stop3424"/>
      <stop offset="1" style="stop-color: #cf0000" id="stop3425"/>
    </linearGradient>
    <path fill="url(#XMLID_9_)" d="M100.957,76.874c-7.588,1.65-12.383,5.266-14.252,10.747c-0.571,1.677-0.823,3.449-0.823,5.269      c0,11.275,9.64,24.387,12.666,28.226c-3.285,12.37-5.303,25.895-5.303,38.584c0,19.696,4.782,37.317,16.907,45.226      c10.327,6.735,30.532,6.44,50.274-0.732c21.725-7.894,37.011-21.69,41.938-37.855c3.506-11.495,2.525-20.791-2.914-27.631      c-10.252-12.894-32.612-12.041-36.993-11.739c-5.596,0.386-11.589-1.797-16.03-5.841c-3.335-3.036-7.357-8.483-7.574-17.188      c-0.204-8.147-1.389-18.247-8.795-24.063C123.799,74.959,114.28,73.978,100.957,76.874 M103.648,118.671      c-3.765-4.482-12.279-16.729-12.279-25.7c0-1.268,0.17-2.47,0.549-3.575c1.22-3.578,4.56-5.913,10.208-7.141      c11.459-2.491,19.711-1.836,24.529,1.949c4.368,3.431,6.432,9.56,6.691,19.872c0.208,8.308,3.536,15.81,9.372,21.122      c5.613,5.11,12.945,7.756,20.116,7.262c10.763-0.742,25.683,1.346,32.305,9.673c4.244,5.337,4.902,12.939,1.957,22.599      c-4.418,14.493-18.47,26.99-38.552,34.286c-17.913,6.509-36.576,7.041-45.387,1.296c-10.16-6.628-14.412-22.392-14.412-40.568      c0-12.446,1.993-26.022,5.448-38.572c0,0-1.326-0.365-2.652-0.73C102.595,119.556,103.648,118.671,103.648,118.671z" id="path3429"/>
    <radialGradient id="XMLID_10_" cx="97.7183" cy="94.228" r="125.8525" fx="97.7183" fy="94.228" gradientUnits="userSpaceOnUse">
      <stop offset="0" style="stop-color: #ff9999" id="stop3431"/>
      <stop offset="0.4663" style="stop-color: #ff0000" id="stop3432"/>
      <stop offset="0.809" style="stop-color: #ff0000" id="stop3433"/>
      <stop offset="1" style="stop-color: #ff9999" id="stop3434"/>
    </radialGradient>
    <path fill="url(#XMLID_10_)" d="M101.541,120.442c0,0-29.077-34.557,0-40.878c29.078-6.32,34.134,7.586,34.557,24.442      c0.421,16.856,14.328,26.55,26.548,25.706c12.222-0.842,47.621,1.265,37.084,35.821c-10.535,34.556-68.689,49.727-88.075,37.085      C92.27,189.976,93.534,149.52,101.541,120.442" id="path3442"/>
    <g opacity="0.8" id="g3443">
      <linearGradient id="XMLID_11_" gradientUnits="userSpaceOnUse" x1="139.7998" y1="78.0112" x2="139.7998" y2="204.6011">
        <stop offset="0" style="stop-color: #ffffff" id="stop3445"/>
        <stop offset="1" style="stop-color: #ff6666" id="stop3446"/>
      </linearGradient>
      <path fill="url(#XMLID_11_)" d="M166.315,131.549c5.583-0.385,15.999-0.152,24.666,3.504c-9.188-5.409-21.938-5.78-28.336-5.34       c-3.429,0.237-6.992-0.356-10.351-1.705C156.64,130.625,161.603,131.874,166.315,131.549 M115.325,204.454       c-19.385-12.643-18.12-53.099-10.114-82.177c0,0-29.077-34.557,0-40.878c9.899-2.15,17.009-1.955,22.104-0.101       c-5.159-3.418-13.228-4.462-25.775-1.734c-29.077,6.321,0,40.878,0,40.878c-8.006,29.077-9.271,69.533,10.114,82.177       c1.168,0.762,2.479,1.419,3.91,1.981C115.486,204.551,115.402,204.504,115.325,204.454z" id="path3450"/>
    </g>
    <line fill="none" stroke="#7c0000" stroke-width="3" x1="61.506" y1="117.492" x2="116.292" y2="50.909" id="line3451"/>
    <polygon opacity="0.2" points="63.763,115.731 51.74,115.731 51.74,130.509 66.516,130.509 66.516,115.731 " id="polygon3452"/>
    <rect x="116.787" y="44.391" opacity="0.2" width="9.271" height="9.271" id="rect3453"/>
    <polygon opacity="0.2" points="62.846,114.813 50.822,114.813 50.822,129.592 65.599,129.592 65.599,114.813 " id="polygon3454"/>
    <rect x="115.869" y="43.473" opacity="0.2" width="9.271" height="9.271" id="rect3455"/>
    <polygon fill="#cf0000" points="61.928,113.896 49.904,113.896 49.904,128.674 64.681,128.674 64.681,113.896 " id="polygon3456"/>
    <rect x="52.657" y="116.648" fill="#ffffff" width="9.271" height="9.272" id="rect3457"/>
    <rect x="114.952" y="42.555" fill="#7c0000" width="9.271" height="9.271" id="rect3458"/>
    <linearGradient id="XMLID_12_" gradientUnits="userSpaceOnUse" x1="111.168" y1="38.772" x2="124.2229" y2="51.8265">
      <stop offset="0" style="stop-color: #ffffff" id="stop3460"/>
      <stop offset="1" style="stop-color: #7c0000" id="stop3461"/>
    </linearGradient>
    <path fill="url(#XMLID_12_)" d="M116.787,44.391c0,1.777,0,3.821,0,5.601c1.779,0,3.822,0,5.6,0c0-1.779,0-3.823,0-5.601      C120.609,44.391,118.566,44.391,116.787,44.391z" id="path3465"/>
  </g>
  <rect id="_x3C_Slice_x3E_" fill="none" width="256.000000" height="256.000000" style="fill: none;" x="0.000000" y="-0.000008"/>
</svg>