<?xml version="1.0" encoding="UTF-8" standalone="no"?>
<!-- Created with Inkscape (http://www.inkscape.org/) -->

<svg
   xmlns:dc="http://purl.org/dc/elements/1.1/"
   xmlns:cc="http://creativecommons.org/ns#"
   xmlns:rdf="http://www.w3.org/1999/02/22-rdf-syntax-ns#"
   xmlns:svg="http://www.w3.org/2000/svg"
   xmlns="http://www.w3.org/2000/svg"
   xmlns:xlink="http://www.w3.org/1999/xlink"
   xmlns:sodipodi="http://sodipodi.sourceforge.net/DTD/sodipodi-0.dtd"
   xmlns:inkscape="http://www.inkscape.org/namespaces/inkscape"
   width="48px"
   height="48px"
   id="svg3962"
   version="1.1"
   inkscape:version="0.48.1 r9760"
   sodipodi:docname="system-software-install.svg">
  <defs
     id="defs3964">
    <inkscape:perspective
       sodipodi:type="inkscape:persp3d"
       inkscape:vp_x="0 : 24 : 1"
       inkscape:vp_y="0 : 1000 : 0"
       inkscape:vp_z="48 : 24 : 1"
       inkscape:persp3d-origin="24 : 16 : 1"
       id="perspective56" />
    <linearGradient
       inkscape:collect="always"
       xlink:href="#linearGradient3924"
       id="linearGradient3114"
       gradientUnits="userSpaceOnUse"
       gradientTransform="translate(2.4e-6,0.9674491)"
       x1="23.99999"
       y1="4.999989"
       x2="23.99999"
       y2="43" />
    <linearGradient
       id="linearGradient3924">
      <stop
         id="stop3926"
         style="stop-color:#ffffff;stop-opacity:1;"
         offset="0" />
      <stop
         offset="0.06316455"
         style="stop-color:#ffffff;stop-opacity:0.23529412;"
         id="stop3928" />
      <stop
         id="stop3930"
         style="stop-color:#ffffff;stop-opacity:0.15686275;"
         offset="0.95056331" />
      <stop
         id="stop3932"
         style="stop-color:#ffffff;stop-opacity:0.39215687;"
         offset="1" />
    </linearGradient>
    <linearGradient
       inkscape:collect="always"
       xlink:href="#linearGradient2490-3"
       id="linearGradient4110"
       x1="25.075518"
       y1="45.914536"
       x2="25.075518"
       y2="6.4426208"
       gradientUnits="userSpaceOnUse" />
    <linearGradient
       id="linearGradient2490-3">
      <stop
         id="stop2492-3"
         style="stop-color:#00cd61;stop-opacity:1;"
         offset="0" />
      <stop
         id="stop2494-8"
         style="stop-color:#00853f;stop-opacity:1;"
         offset="1" />
    </linearGradient>
    <linearGradient
       inkscape:collect="always"
       xlink:href="#linearGradient2490-3-7"
       id="linearGradient4110-9"
       x1="25.075518"
       y1="45.914536"
       x2="25.075518"
       y2="6.4426208"
       gradientUnits="userSpaceOnUse" />
    <linearGradient
       id="linearGradient2490-3-7">
      <stop
         id="stop2492-3-7"
         style="stop-color:#365f0e;stop-opacity:1"
         offset="0" />
      <stop
         id="stop2494-8-5"
         style="stop-color:#84a718;stop-opacity:1"
         offset="1" />
    </linearGradient>
    <linearGradient
       inkscape:collect="always"
       xlink:href="#linearGradient2490-3-1"
       id="linearGradient4110-5"
       x1="25.075518"
       y1="45.914536"
       x2="25.075518"
       y2="6.4426208"
       gradientUnits="userSpaceOnUse" />
    <linearGradient
       id="linearGradient2490-3-1">
      <stop
         id="stop2492-3-3"
         style="stop-color:#365f0e;stop-opacity:1"
         offset="0" />
      <stop
         id="stop2494-8-0"
         style="stop-color:#84a718;stop-opacity:1"
         offset="1" />
    </linearGradient>
    <radialGradient
       inkscape:collect="always"
       xlink:href="#linearGradient3242-7"
       id="radialGradient3117"
       gradientUnits="userSpaceOnUse"
       gradientTransform="matrix(1.9428467e-8,2.33699,-2.4722567,-4.3056275e-8,44.890102,-11.46736)"
       cx="7.4956832"
       cy="8.4497671"
       fx="7.4956832"
       fy="8.4497671"
       r="19.99999" />
    <linearGradient
       id="linearGradient3242-7">
      <stop
         id="stop3244-5"
         style="stop-color:#06d96a;stop-opacity:1;"
         offset="0" />
      <stop
         id="stop3246-9"
         style="stop-color:#03c05c;stop-opacity:1;"
         offset="0.26238" />
      <stop
         id="stop3248-7"
         style="stop-color:#00853f;stop-opacity:1;"
         offset="0.66093999" />
      <stop
         id="stop3250-8"
         style="stop-color:#00853f;stop-opacity:1;"
         offset="1" />
    </linearGradient>
    <linearGradient
       inkscape:collect="always"
       xlink:href="#linearGradient2490-3"
       id="linearGradient3119"
       gradientUnits="userSpaceOnUse"
       gradientTransform="translate(-6e-7,0.9674391)"
       x1="24"
       y1="44"
       x2="24"
       y2="3.8990016" />
    <radialGradient
       cx="4.9929786"
       cy="43.5"
       r="2.5"
       fx="4.9929786"
       fy="43.5"
       id="radialGradient2873-966-168"
       xlink:href="#linearGradient3688-166-749"
       gradientUnits="userSpaceOnUse"
       gradientTransform="matrix(2.003784,0,0,1.4,27.98813,-17.4)" />
    <linearGradient
       id="linearGradient3688-166-749">
      <stop
         id="stop2883"
         style="stop-color:#181818;stop-opacity:1"
         offset="0" />
      <stop
         id="stop2885"
         style="stop-color:#181818;stop-opacity:0"
         offset="1" />
    </linearGradient>
    <radialGradient
       cx="4.9929786"
       cy="43.5"
       r="2.5"
       fx="4.9929786"
       fy="43.5"
       id="radialGradient2875-742-326"
       xlink:href="#linearGradient3688-464-309"
       gradientUnits="userSpaceOnUse"
       gradientTransform="matrix(2.003784,0,0,1.4,-20.01187,-104.4)" />
    <linearGradient
       id="linearGradient3688-464-309">
      <stop
         id="stop2889"
         style="stop-color:#181818;stop-opacity:1"
         offset="0" />
      <stop
         id="stop2891"
         style="stop-color:#181818;stop-opacity:0"
         offset="1" />
    </linearGradient>
    <linearGradient
       x1="25.058096"
       y1="47.027729"
       x2="25.058096"
       y2="39.999443"
       id="linearGradient2877-634-617"
       xlink:href="#linearGradient3702-501-757"
       gradientUnits="userSpaceOnUse" />
    <linearGradient
       id="linearGradient3702-501-757">
      <stop
         id="stop2895"
         style="stop-color:#181818;stop-opacity:0"
         offset="0" />
      <stop
         id="stop2897"
         style="stop-color:#181818;stop-opacity:1"
         offset="0.5" />
      <stop
         id="stop2899"
         style="stop-color:#181818;stop-opacity:0"
         offset="1" />
    </linearGradient>
    <clipPath
       id="clipPath3936-6">
      <path
         inkscape:connector-curvature="0"
         d="m 489.217,197.275 c -2.603,0 -3.953,-1.367 -3.953,-3.971 l 0,0 0,-1.034 c 0,-2.604 1.35,-3.971 3.953,-3.971 l 0,0 1.035,0 c 2.62,0 3.97,1.367 3.97,3.971 l 0,0 0,1.034 c 0,2.604 -1.35,3.971 -3.97,3.971 l 0,0 -1.035,0 z"
         id="path3938-0" />
    </clipPath>
    <radialGradient
       id="radialGradient2759"
       gradientUnits="userSpaceOnUse"
       cy="4.625"
       cx="62.625"
       gradientTransform="matrix(1,0,0,0.34118,0,3.0471)"
       r="10.625">
      <stop
         id="stop8840"
         style="stop-color:#7f7f7f"
         offset="0" />
      <stop
         id="stop8842"
         style="stop-color:gray;stop-opacity:0"
         offset="1" />
    </radialGradient>
    <linearGradient
       id="linearGradient2780"
       y2="91.973"
       gradientUnits="userSpaceOnUse"
       x2="-164.72"
       gradientTransform="matrix(0.39366,0,0,0.38976,101.38,-4.2393)"
       y1="99.667"
       x1="-172.64999">
      <stop
         id="stop3372"
         style="stop-color:#242424;stop-opacity:.99216"
         offset="0" />
      <stop
         id="stop3374"
         style="stop-color:#656565"
         offset="1" />
    </linearGradient>
    <linearGradient
       id="linearGradient2782"
       y2="29.483999"
       gradientUnits="userSpaceOnUse"
       x2="31.364"
       gradientTransform="matrix(1.0113,0,0,1.0013,-0.14757,1.8143)"
       y1="27.988001"
       x1="32.893002">
      <stop
         id="stop3378"
         style="stop-color:#575757"
         offset="0" />
      <stop
         id="stop3380"
         style="stop-color:#333"
         offset="1" />
    </linearGradient>
    <linearGradient
       id="linearGradient2778"
       y2="67.349998"
       gradientUnits="userSpaceOnUse"
       x2="201.87"
       gradientTransform="matrix(0.39366,0,0,0.38976,-50.209,-0.47265)"
       y1="146.14999"
       x1="277.57001">
      <stop
         id="stop3384"
         style="stop-color:#fff"
         offset="0" />
      <stop
         id="stop3386"
         style="stop-color:#fff;stop-opacity:0"
         offset="1" />
    </linearGradient>
    <radialGradient
       id="radialGradient2776"
       gradientUnits="userSpaceOnUse"
       cy="21.818001"
       cx="18.240999"
       r="8.3085003">
      <stop
         id="stop3408"
         style="stop-color:#a1a1a1;stop-opacity:.20784"
         offset="0" />
      <stop
         id="stop3410"
         style="stop-color:#a1a1a1;stop-opacity:.67843"
         offset="1" />
    </radialGradient>
    <radialGradient
       id="radialGradient2774"
       gradientUnits="userSpaceOnUse"
       cy="13.078"
       cx="15.414"
       gradientTransform="matrix(3.071,0,0,2.3629,-33.011,-21.345)"
       r="6.6561999">
      <stop
         id="stop3390"
         style="stop-color:#fff"
         offset="0" />
      <stop
         id="stop3392"
         style="stop-color:#fff;stop-opacity:.24762"
         offset="1" />
    </radialGradient>
    <linearGradient
       id="linearGradient2770"
       y2="11.949"
       gradientUnits="userSpaceOnUse"
       x2="173.10001"
       gradientTransform="matrix(0.40377,0,0,0.39977,-51.834,-0.33274)"
       y1="75.319"
       x1="173.10001">
      <stop
         id="stop3396"
         style="stop-color:#343434;stop-opacity:.97647"
         offset="0" />
      <stop
         id="stop3398"
         style="stop-color:#929292"
         offset="1" />
    </linearGradient>
    <linearGradient
       id="linearGradient2772"
       y2="4.5363002"
       gradientUnits="userSpaceOnUse"
       x2="41.485001"
       gradientTransform="matrix(0.40377,0,0,0.39977,0.53992,2.6759)"
       y1="68.292"
       x1="41.542">
      <stop
         id="stop3402"
         style="stop-color:#333"
         offset="0" />
      <stop
         id="stop3404"
         style="stop-color:#333;stop-opacity:.61224"
         offset="1" />
    </linearGradient>
    <linearGradient
       id="linearGradient2768"
       y2="11.949"
       gradientUnits="userSpaceOnUse"
       x2="173.10001"
       gradientTransform="matrix(0.38453,0,0,0.38072,-48.397,0.25848)"
       y1="75.319"
       x1="173.10001">
      <stop
         id="stop3366"
         style="stop-color:#979797"
         offset="0" />
      <stop
         id="stop3368"
         style="stop-opacity:.34118"
         offset="1" />
    </linearGradient>
    <linearGradient
       y2="11.949"
       x2="173.10001"
       y1="75.319"
       x1="173.10001"
       gradientTransform="matrix(0.38453,0,0,0.38072,-48.397,0.25848)"
       gradientUnits="userSpaceOnUse"
       id="linearGradient4154"
       xlink:href="#linearGradient2768"
       inkscape:collect="always" />
    <radialGradient
       inkscape:collect="always"
       xlink:href="#radialGradient2759"
       id="radialGradient4235"
       gradientUnits="userSpaceOnUse"
       gradientTransform="matrix(1,0,0,0.34118,0,3.0471)"
       cx="62.625"
       cy="4.625"
       r="10.625" />
    <linearGradient
       inkscape:collect="always"
       xlink:href="#linearGradient2780"
       id="linearGradient4237"
       gradientUnits="userSpaceOnUse"
       gradientTransform="matrix(0.39366,0,0,0.38976,101.38,-4.2393)"
       x1="-172.64999"
       y1="99.667"
       x2="-164.72"
       y2="91.973" />
    <linearGradient
       inkscape:collect="always"
       xlink:href="#linearGradient2782"
       id="linearGradient4239"
       gradientUnits="userSpaceOnUse"
       gradientTransform="matrix(1.0113,0,0,1.0013,-0.14757,1.8143)"
       x1="32.893002"
       y1="27.988001"
       x2="31.364"
       y2="29.483999" />
    <linearGradient
       inkscape:collect="always"
       xlink:href="#linearGradient2778"
       id="linearGradient4241"
       gradientUnits="userSpaceOnUse"
       gradientTransform="matrix(0.39366,0,0,0.38976,-50.209,-0.47265)"
       x1="277.57001"
       y1="146.14999"
       x2="201.87"
       y2="67.349998" />
    <radialGradient
       inkscape:collect="always"
       xlink:href="#radialGradient2776"
       id="radialGradient4243"
       gradientUnits="userSpaceOnUse"
       cx="18.240999"
       cy="21.818001"
       r="8.3085003" />
    <radialGradient
       inkscape:collect="always"
       xlink:href="#radialGradient2774"
       id="radialGradient4245"
       gradientUnits="userSpaceOnUse"
       gradientTransform="matrix(3.071,0,0,2.3629,-33.011,-21.345)"
       cx="15.414"
       cy="13.078"
       r="6.6561999" />
    <linearGradient
       inkscape:collect="always"
       xlink:href="#linearGradient2770"
       id="linearGradient4247"
       gradientUnits="userSpaceOnUse"
       gradientTransform="matrix(0.40377,0,0,0.39977,-51.834,-0.33274)"
       x1="173.10001"
       y1="75.319"
       x2="173.10001"
       y2="11.949" />
    <linearGradient
       inkscape:collect="always"
       xlink:href="#linearGradient2772"
       id="linearGradient4249"
       gradientUnits="userSpaceOnUse"
       gradientTransform="matrix(0.40377,0,0,0.39977,0.53992,2.6759)"
       x1="41.542"
       y1="68.292"
       x2="41.485001"
       y2="4.5363002" />
  </defs>
  <sodipodi:namedview
     id="base"
     pagecolor="#ffffff"
     bordercolor="#666666"
     borderopacity="1.0"
     inkscape:pageopacity="0.0"
     inkscape:pageshadow="2"
     inkscape:zoom="17.479167"
     inkscape:cx="24"
     inkscape:cy="24"
     inkscape:current-layer="layer1"
     showgrid="true"
     inkscape:grid-bbox="true"
     inkscape:document-units="px"
     inkscape:window-width="1920"
     inkscape:window-height="1027"
     inkscape:window-x="0"
     inkscape:window-y="24"
     inkscape:window-maximized="1" />
  <metadata
     id="metadata3967">
    <rdf:RDF>
      <cc:Work
         rdf:about="">
        <dc:format>image/svg+xml</dc:format>
        <dc:type
           rdf:resource="http://purl.org/dc/dcmitype/StillImage" />
        <dc:title></dc:title>
      </cc:Work>
    </rdf:RDF>
  </metadata>
  <g
     id="layer1"
     inkscape:label="Layer 1"
     inkscape:groupmode="layer">
    <g
       style="display:inline"
       id="g2036"
       transform="matrix(1.1,0,0,0.4444449,-2.4000022,25.11107)">
      <g
         style="opacity:0.4"
         id="g3712"
         transform="matrix(1.052632,0,0,1.285713,-1.263158,-13.42854)">
        <rect
           style="fill:url(#radialGradient2873-966-168);fill-opacity:1;stroke:none"
           id="rect2801"
           y="40"
           x="38"
           height="7"
           width="5" />
        <rect
           style="fill:url(#radialGradient2875-742-326);fill-opacity:1;stroke:none"
           id="rect3696"
           transform="scale(-1,-1)"
           y="-47"
           x="-10"
           height="7"
           width="5" />
        <rect
           style="fill:url(#linearGradient2877-634-617);fill-opacity:1;stroke:none"
           id="rect3700"
           y="40"
           x="10"
           height="7.0000005"
           width="28" />
      </g>
    </g>
    <rect
       style="color:#000000;fill:url(#radialGradient3117);fill-opacity:1;fill-rule:nonzero;stroke:url(#linearGradient3119);stroke-width:1;stroke-linecap:round;stroke-linejoin:round;stroke-miterlimit:4;stroke-opacity:1;stroke-dasharray:none;stroke-dashoffset:0;marker:none;visibility:visible;display:inline;overflow:visible;enable-background:accumulate"
       id="rect5505-21"
       y="5.4674392"
       x="4.5"
       ry="2"
       rx="2"
       height="39"
       width="39" />
    <rect
       style="opacity:0.5;fill:none;stroke:url(#linearGradient3114);stroke-width:1;stroke-linecap:round;stroke-linejoin:round;stroke-miterlimit:4;stroke-opacity:1;stroke-dasharray:none;stroke-dashoffset:0"
       id="rect6741-2"
       y="6.4674392"
       x="5.5"
       ry="1"
       rx="1"
       height="37"
       width="37" />
    <g
       transform="matrix(4.6225456,0,0,-4.6225456,-2239.9496,913.26287)"
       clip-path="url(#clipPath3936-6)"
       id="g3934">
      <g
         transform="translate(487.167,194.007)"
         id="g3940">
        <path
           inkscape:connector-curvature="0"
           d="m 0,0 c -0.717,-0.719 -1.111,-1.678 -1.109,-2.702 0.003,-2.136 1.806,-3.942 3.936,-3.942 l 0,0.665 c -1.74,0 -3.269,1.532 -3.272,3.279 -0.001,0.846 0.323,1.638 0.915,2.231 0.595,0.596 1.393,0.925 2.247,0.925 l 0,0.664 C 1.685,1.12 0.721,0.722 0,0"
           id="path3942"
           style="fill:#99ceb2;fill-opacity:1;fill-rule:nonzero;stroke:none" />
      </g>
      <g
         transform="translate(489.138,194.155)"
         id="g3944">
        <path
           inkscape:connector-curvature="0"
           d="m 0,0 c -0.764,-0.206 -1.394,-0.685 -1.774,-1.349 -0.798,-1.395 -0.374,-3.098 1.008,-4.049 2.051,-1.41 5.713,-0.519 5.867,-0.481 l -0.16,0.645 c -0.035,-0.009 -3.526,-0.856 -5.33,0.383 -1.091,0.75 -1.431,2.084 -0.808,3.172 0.292,0.509 0.778,0.878 1.37,1.037 0.607,0.164 1.235,0.084 1.769,-0.224 L 2.274,-0.29 C 1.586,0.107 0.778,0.21 0,0"
           id="path3946"
           style="fill:#cce7d9;fill-opacity:1;fill-rule:nonzero;stroke:none" />
      </g>
      <g
         transform="translate(488.911,193.086)"
         id="g3948">
        <path
           inkscape:connector-curvature="0"
           d="m 0,0 c -0.663,-0.383 -1.034,-1.08 -1.034,-1.796 0,-0.332 0.083,-0.667 0.25,-0.977 l -0.002,-0.002 c 0,-10e-4 0.006,-0.011 0.008,-0.015 l -0.001,0 c 0,0 0.004,-0.006 0.007,-0.011 0.004,-0.008 0.014,-0.026 0.015,-0.027 l 0,0 c 0.104,-0.179 0.505,-0.782 1.384,-1.102 1.811,-0.661 4.878,0.003 5.008,0.032 L 5.492,-3.249 C 5.462,-3.256 2.483,-3.9 0.854,-3.306 0.162,-3.054 -0.127,-2.594 -0.18,-2.499 l 0,0 c 0,0 -0.002,0.003 -0.002,0.004 -0.127,0.221 -0.188,0.462 -0.188,0.7 0,0.486 0.252,0.959 0.702,1.22 0.325,0.187 0.704,0.237 1.067,0.14 0.362,-0.097 0.665,-0.33 0.853,-0.655 l 0.586,0.312 -0.011,0.02 C 2.551,-0.279 2.105,0.063 1.571,0.207 1.037,0.35 0.479,0.276 0,0"
           id="path3950"
           style="fill:#ffffff;fill-opacity:1;fill-rule:nonzero;stroke:none" />
      </g>
    </g>
    <g
       transform="translate(-1.4798807,-2.3126979)"
       id="layer1-6">
      <path
         inkscape:connector-curvature="0"
         id="path8836"
         style="opacity:0.3;fill:url(#radialGradient4235);fill-rule:evenodd"
         d="m 73.25,4.625 a 10.625,3.625 0 1 1 -21.25,0 10.625,3.625 0 1 1 21.25,0 z"
         transform="matrix(2.1499,0,0,1.6619,-110.64,34.289)" />
      <path
         inkscape:connector-curvature="0"
         id="path11112"
         style="fill:url(#linearGradient4237);fill-rule:evenodd;stroke:url(#linearGradient4239);stroke-width:1.2579;stroke-linecap:round;stroke-linejoin:round"
         d="m 28.184,24.772 17.601,16.219 -2.4398,3.2784 -17.538,-17.545 2.3761,-1.9527 z" />
      <path
         inkscape:connector-curvature="0"
         id="path11122"
         style="fill:url(#linearGradient4241);fill-rule:evenodd"
         d="M 43.375,43.205 29.259,25.778 46.338,40.617 43.375,43.205 z" />
      <path
         inkscape:connector-curvature="0"
         id="path13082"
         style="fill:#3e3e3e"
         d="m 247.91,110.29 a 4.86685,2.6562273 0 1 1 -9.7337,0 4.86685,2.6562273 0 1 1 9.7337,0 z"
         transform="matrix(0.37019,-0.41504,0.47451,0.30929,-97.503,109.58)" />
      <path
         inkscape:connector-curvature="0"
         id="path4452"
         style="fill:url(#radialGradient4243);fill-rule:evenodd"
         d="m 25.898,18.478 a 8.3085,8.3085 0 1 1 -16.617,0 8.3085,8.3085 0 1 1 16.617,0 z"
         transform="matrix(1.489,0,0,1.4384,-7.5065,-10.003)" />
      <path
         inkscape:connector-curvature="0"
         id="path4462"
         style="opacity:0.83422002;fill:url(#radialGradient4245);fill-rule:evenodd"
         d="m 18.174,6.2875 c -6.1677,0 -11.162,4.4243 -11.162,9.888 0,1.5779 0.13829,3.2078 0.88072,4.532 1.4833,0.48432 3.4184,0.63586 5.0908,0.63586 7.3086,0 13.595,-5.3677 14.046,-11.742 -2.051,-2.1462 -5.437,-3.314 -8.856,-3.314 z" />
      <path
         inkscape:connector-curvature="0"
         id="path2298"
         style="fill:url(#linearGradient4247);stroke:url(#linearGradient4249);stroke-width:1.2902;stroke-linecap:round;stroke-linejoin:round"
         d="m 18.411,4.6415 c -7.5976,0 -13.766,5.6317 -13.766,12.568 0,6.9362 6.1685,12.568 13.766,12.568 7.5976,0 13.766,-5.6317 13.766,-12.568 0,-6.9362 -6.1685,-12.568 -13.766,-12.568 z m 0.16403,0.82453 c 6.7999,0 12.328,5.0357 12.328,11.244 0,6.2079 -5.5278,11.244 -12.328,11.244 -6.7999,1e-6 -12.315,-5.0357 -12.315,-11.244 0,-6.2079 5.5151,-11.244 12.315,-11.244 z" />
      <path
         inkscape:connector-curvature="0"
         id="path4267"
         style="fill:url(#linearGradient4154)"
         d="m 18.5,5.0038 c -7.2355,0 -13.097,5.3625 -13.097,11.968 0,6.6057 5.8618,11.968 13.097,11.968 7.2355,0 13.11,-5.3625 13.11,-11.968 0,-6.6057 -5.8744,-11.968 -13.11,-11.968 z m 0.07571,0.46224 c 6.7999,0 11.788,5.0357 11.788,11.244 0,6.2079 -4.9885,10.71 -11.788,10.71 -6.7999,1e-6 -11.866,-4.5018 -11.866,-10.71 0,-6.2079 5.0658,-11.244 11.866,-11.244 z" />
    </g>
  </g>
</svg>
