<?xml version="1.0" encoding="UTF-8" standalone="no"?>
<!-- Created with Inkscape (http://www.inkscape.org/) -->

<svg
   xmlns:dc="http://purl.org/dc/elements/1.1/"
   xmlns:cc="http://creativecommons.org/ns#"
   xmlns:rdf="http://www.w3.org/1999/02/22-rdf-syntax-ns#"
   xmlns:svg="http://www.w3.org/2000/svg"
   xmlns="http://www.w3.org/2000/svg"
   xmlns:xlink="http://www.w3.org/1999/xlink"
   xmlns:sodipodi="http://sodipodi.sourceforge.net/DTD/sodipodi-0.dtd"
   xmlns:inkscape="http://www.inkscape.org/namespaces/inkscape"
   version="1.0"
   width="48"
   height="48"
   id="svg4569"
   inkscape:version="0.48.1 r9760"
   sodipodi:docname="video-display.svg">
  <metadata
     id="metadata68">
    <rdf:RDF>
      <cc:Work
         rdf:about="">
        <dc:format>image/svg+xml</dc:format>
        <dc:type
           rdf:resource="http://purl.org/dc/dcmitype/StillImage" />
        <dc:title></dc:title>
      </cc:Work>
    </rdf:RDF>
  </metadata>
  <sodipodi:namedview
     pagecolor="#ffffff"
     bordercolor="#666666"
     borderopacity="1"
     objecttolerance="10"
     gridtolerance="10"
     guidetolerance="10"
     inkscape:pageopacity="0"
     inkscape:pageshadow="2"
     inkscape:window-width="640"
     inkscape:window-height="480"
     id="namedview66"
     showgrid="false"
     inkscape:zoom="6.0208333"
     inkscape:cx="24"
     inkscape:cy="24"
     inkscape:window-x="0"
     inkscape:window-y="24"
     inkscape:window-maximized="0"
     inkscape:current-layer="svg4569" />
  <defs
     id="defs4571">
    <linearGradient
       id="linearGradient2699">
      <stop
         id="stop2701"
         style="stop-color:#888a85;stop-opacity:1"
         offset="0" />
      <stop
         id="stop2703"
         style="stop-color:#555753;stop-opacity:1"
         offset="1" />
    </linearGradient>
    <linearGradient
       id="linearGradient3339">
      <stop
         id="stop3341"
         style="stop-color:#ffffff;stop-opacity:1"
         offset="0" />
      <stop
         id="stop3343"
         style="stop-color:#ffffff;stop-opacity:0"
         offset="1" />
    </linearGradient>
    <linearGradient
       x1="31"
       y1="12.875"
       x2="3.2591991"
       y2="24.893845"
       id="linearGradient7677"
       xlink:href="#linearGradient3339"
       gradientUnits="userSpaceOnUse"
       gradientTransform="translate(0.5360004,2.4990107)" />
    <linearGradient
       id="linearGradient3251">
      <stop
         id="stop3253"
         style="stop-color:#ffffff;stop-opacity:1"
         offset="0" />
      <stop
         id="stop3255"
         style="stop-color:#ffffff;stop-opacity:0"
         offset="1" />
    </linearGradient>
    <radialGradient
       cx="32.5"
       cy="16.5625"
       r="14.4375"
       fx="32.5"
       fy="16.5625"
       id="radialGradient7679"
       xlink:href="#linearGradient3251"
       gradientUnits="userSpaceOnUse" />
    <linearGradient
       id="linearGradient3241">
      <stop
         id="stop3243"
         style="stop-color:#1b1f20;stop-opacity:1"
         offset="0" />
      <stop
         id="stop3245"
         style="stop-color:#babdb6;stop-opacity:1"
         offset="1" />
    </linearGradient>
    <linearGradient
       x1="39"
       y1="26.125"
       x2="36.375"
       y2="20.4375"
       id="linearGradient7681"
       xlink:href="#linearGradient3241"
       gradientUnits="userSpaceOnUse"
       gradientTransform="translate(0.5360004,-4.500989)" />
    <linearGradient
       id="linearGradient3220">
      <stop
         id="stop3222"
         style="stop-color:#2e3436;stop-opacity:1"
         offset="0" />
      <stop
         id="stop3228"
         style="stop-color:#888a85;stop-opacity:1"
         offset="0.64444447" />
      <stop
         id="stop3224"
         style="stop-color:#555753;stop-opacity:1"
         offset="1" />
    </linearGradient>
    <linearGradient
       x1="42.90625"
       y1="42.21875"
       x2="44.8125"
       y2="41.40625"
       id="linearGradient7683"
       xlink:href="#linearGradient3220"
       gradientUnits="userSpaceOnUse"
       gradientTransform="translate(0.5360004,-4.500989)" />
    <linearGradient
       id="linearGradient3338">
      <stop
         id="stop3340"
         style="stop-color:#eeeeec;stop-opacity:1"
         offset="0" />
      <stop
         id="stop2677"
         style="stop-color:#ffffff;stop-opacity:1"
         offset="0.78888887" />
      <stop
         id="stop3342"
         style="stop-color:#eeeeec;stop-opacity:1"
         offset="1" />
    </linearGradient>
    <linearGradient
       x1="31.994286"
       y1="16.859249"
       x2="37.723743"
       y2="16.859249"
       id="linearGradient7685"
       xlink:href="#linearGradient3338"
       gradientUnits="userSpaceOnUse" />
    <linearGradient
       id="linearGradient6592-2-7">
      <stop
         id="stop6594-0-2"
         style="stop-color:#ffffff;stop-opacity:0.27450982"
         offset="0" />
      <stop
         id="stop6596-2-5"
         style="stop-color:#ffffff;stop-opacity:0"
         offset="1" />
    </linearGradient>
    <linearGradient
       id="linearGradient3342">
      <stop
         id="stop3344"
         style="stop-color:#ffffff;stop-opacity:0"
         offset="0" />
      <stop
         id="stop3346"
         style="stop-color:#ffffff;stop-opacity:1"
         offset="1" />
    </linearGradient>
    <linearGradient
       id="linearGradient4510">
      <stop
         id="stop4512"
         style="stop-color:#a5a6aa;stop-opacity:1"
         offset="0" />
      <stop
         id="stop4514"
         style="stop-color:#e2e2e4;stop-opacity:1"
         offset="0.22134377" />
      <stop
         id="stop4516"
         style="stop-color:#595959;stop-opacity:1"
         offset="1" />
    </linearGradient>
    <linearGradient
       id="linearGradient4518">
      <stop
         id="stop4520"
         style="stop-color:#7e7e7e;stop-opacity:0.94901961"
         offset="0" />
      <stop
         id="stop4522"
         style="stop-color:#969696;stop-opacity:1"
         offset="1" />
    </linearGradient>
    <linearGradient
       id="linearGradient10691-1">
      <stop
         id="stop10693-3"
         style="stop-color:#000000;stop-opacity:1"
         offset="0" />
      <stop
         id="stop10695-1"
         style="stop-color:#000000;stop-opacity:0"
         offset="1" />
    </linearGradient>
    <linearGradient
       x1="12.9375"
       y1="8.4375"
       x2="15.25"
       y2="19.8125"
       id="linearGradient2629"
       xlink:href="#linearGradient6592-2-7"
       gradientUnits="userSpaceOnUse"
       gradientTransform="matrix(1.0952382,0,0,1.3333324,-2.2857144,2.4e-6)" />
    <radialGradient
       cx="21.231607"
       cy="24.045116"
       r="20.999998"
       fx="21.231607"
       fy="24.045116"
       id="radialGradient2632"
       xlink:href="#linearGradient2699"
       gradientUnits="userSpaceOnUse"
       gradientTransform="matrix(1.3436622,1.5443544e-3,0,0.82454,-4.0906955,14.035056)" />
    <linearGradient
       x1="15.573899"
       y1="46.971004"
       x2="23.593679"
       y2="46.971004"
       id="linearGradient2636"
       xlink:href="#linearGradient3342"
       gradientUnits="userSpaceOnUse"
       gradientTransform="matrix(1.1176471,0,0,1,-2.3519696,-3.4710029)"
       spreadMethod="reflect" />
    <linearGradient
       x1="318.42093"
       y1="93.29171"
       x2="318.42093"
       y2="78.342476"
       id="linearGradient2639"
       xlink:href="#linearGradient4510"
       gradientUnits="userSpaceOnUse"
       gradientTransform="matrix(1.4628351,0,0,0.7083672,-444.01094,-22.190508)" />
    <linearGradient
       x1="24.687456"
       y1="40.812702"
       x2="24.739107"
       y2="33.999802"
       id="linearGradient2641"
       xlink:href="#linearGradient4518"
       gradientUnits="userSpaceOnUse"
       gradientTransform="matrix(1.116455,0,0,1,-2.7949567,2.000003)" />
    <radialGradient
       cx="6.702713"
       cy="73.615715"
       r="7.228416"
       fx="6.702713"
       fy="73.615715"
       id="radialGradient2644"
       xlink:href="#linearGradient10691-1"
       gradientUnits="userSpaceOnUse"
       gradientTransform="matrix(1.9368007,0,0,0.4150287,11.018182,13.447365)" />
    <radialGradient
       r="7.228416"
       fy="73.615715"
       fx="6.702713"
       cy="73.615715"
       cx="6.702713"
       gradientTransform="matrix(1.6600963,0,0,0.36315008,0.8728521,2.6414479)"
       gradientUnits="userSpaceOnUse"
       id="radialGradient3877"
       xlink:href="#linearGradient10691"
       inkscape:collect="always" />
    <linearGradient
       id="linearGradient10691">
      <stop
         id="stop10693"
         style="stop-color:#000000;stop-opacity:1"
         offset="0" />
      <stop
         id="stop10695"
         style="stop-color:#000000;stop-opacity:0"
         offset="1" />
    </linearGradient>
    <linearGradient
       inkscape:collect="always"
       xlink:href="#linearGradient3309-1"
       id="linearGradient3614-2"
       gradientUnits="userSpaceOnUse"
       gradientTransform="matrix(0.77777782,0,0,0.77777782,12.0965,10.040944)"
       x1="32.036148"
       y1="19"
       x2="32.036148"
       y2="47.012184" />
    <linearGradient
       x1="63.9995"
       y1="3.1001"
       x2="63.9995"
       y2="122.8994"
       id="linearGradient3309-1"
       gradientUnits="userSpaceOnUse">
      <stop
         id="stop3311-5"
         style="stop-color:#f6f6f6;stop-opacity:1"
         offset="0" />
      <stop
         id="stop3313-0"
         style="stop-color:#d2d2d2;stop-opacity:1"
         offset="1" />
    </linearGradient>
    <linearGradient
       inkscape:collect="always"
       xlink:href="#linearGradient3397-0"
       id="linearGradient3616-9"
       gradientUnits="userSpaceOnUse"
       gradientTransform="matrix(0.77777782,0,0,0.77777782,12.0965,10.040944)"
       x1="25.922546"
       y1="19"
       x2="25.922546"
       y2="47.044857" />
    <linearGradient
       id="linearGradient3397-0">
      <stop
         id="stop3399-4"
         style="stop-color:#aaaaaa;stop-opacity:1"
         offset="0" />
      <stop
         id="stop3401-0"
         style="stop-color:#8c8c8c;stop-opacity:1"
         offset="1" />
    </linearGradient>
    <linearGradient
       inkscape:collect="always"
       xlink:href="#linearGradient5128"
       id="linearGradient3610"
       gradientUnits="userSpaceOnUse"
       gradientTransform="matrix(0.15623116,0,0,0.15623125,26.208813,25.865044)"
       x1="86.132919"
       y1="105.105"
       x2="84.63858"
       y2="20.895" />
    <linearGradient
       id="linearGradient5128">
      <stop
         id="stop5130"
         style="stop-color:#ffffff;stop-opacity:1"
         offset="0" />
      <stop
         id="stop5132"
         style="stop-color:#959595;stop-opacity:1"
         offset="1" />
    </linearGradient>
    <linearGradient
       gradientTransform="translate(24.207612,23.707613)"
       inkscape:collect="always"
       xlink:href="#linearGradient3805"
       id="linearGradient3814"
       gradientUnits="userSpaceOnUse"
       x1="12.47939"
       y1="2"
       x2="12.47939"
       y2="22.006775" />
    <linearGradient
       inkscape:collect="always"
       id="linearGradient3805">
      <stop
         style="stop-color:#ffffff;stop-opacity:1;"
         offset="0"
         id="stop3807" />
      <stop
         style="stop-color:#ffffff;stop-opacity:0;"
         offset="1"
         id="stop3809" />
    </linearGradient>
    <linearGradient
       inkscape:collect="always"
       xlink:href="#linearGradient3805"
       id="linearGradient3830"
       x1="12"
       y1="16"
       x2="12"
       y2="8"
       gradientUnits="userSpaceOnUse" />
    <radialGradient
       r="7.228416"
       fy="73.615715"
       fx="6.702713"
       cy="73.615715"
       cx="6.702713"
       gradientTransform="matrix(1.6600963,0,0,0.36315008,25.080465,18.349061)"
       gradientUnits="userSpaceOnUse"
       id="radialGradient3486"
       xlink:href="#linearGradient10691"
       inkscape:collect="always" />
  </defs>
  <path
     d="M 38,44 C 38,45.656855 31.731986,47 23.999999,47 C 16.268013,47 10,45.656855 10,44 C 10,42.343146 16.268013,41 23.999999,41 C 31.731986,41 38,42.343146 38,44 L 38,44 z"
     id="path2589"
     style="opacity:0.4;fill:url(#radialGradient2644);fill-opacity:1;fill-rule:nonzero;stroke:none;stroke-width:0.80000001;marker:none;visibility:visible;display:inline;overflow:visible" />
  <path
     d="M 17.859462,36.249806 C 17.859462,36.249806 18.001234,40.507576 17.294118,41.5 C 16.587002,42.492424 15.17997,42.504 15.17997,42.504 C 14.277082,42.608262 14.269613,44.5 15.17997,44.5 L 32.81996,44.5 C 33.730317,44.5 33.723037,42.606932 32.81996,42.504 C 32.81996,42.504 31.412989,42.49242 30.705883,41.5 C 29.998777,40.507578 30.140468,36.249806 30.140468,36.249806 L 17.859462,36.249806 L 17.859462,36.249806 z"
     id="rect1789"
     style="fill:url(#linearGradient2639);fill-opacity:1;stroke:url(#linearGradient2641);stroke-width:1;stroke-linecap:round;stroke-linejoin:round;stroke-miterlimit:4;stroke-dasharray:none;stroke-dashoffset:0.50000001;stroke-opacity:1;display:inline;enable-background:new" />
  <path
     d="M 15.612977,43.5 L 32.387023,43.5"
     id="path3340"
     style="fill:none;stroke:url(#linearGradient2636);stroke-width:1px;stroke-linecap:square;stroke-linejoin:miter;stroke-opacity:1" />
  <rect
     width="46.999763"
     height="32.99976"
     rx="1.0444448"
     ry="1"
     x="0.5001179"
     y="3.5001206"
     id="rect2722"
     style="fill:#1a1a1a;fill-opacity:1;stroke:#000000;stroke-width:1.00023937;stroke-linecap:round;stroke-linejoin:round;stroke-miterlimit:4;stroke-dasharray:none;stroke-dashoffset:0.50000001;stroke-opacity:1" />
  <rect
     width="42"
     height="28"
     x="3.0000002"
     y="6"
     id="rect2716"
     style="fill:url(#radialGradient2632);fill-opacity:1;fill-rule:evenodd;stroke:none;display:inline;enable-background:new" />
  <path
     d="M 1,4 L 47,4 L 47,14.666672 L 1,24 L 1,4 z"
     id="rect6588"
     style="fill:url(#linearGradient2629);fill-opacity:1;stroke:none" />
  <rect
     width="48"
     height="48"
     x="0"
     y="3"
     id="rect4784"
     style="fill:none;fill-opacity:0.75;fill-rule:evenodd;stroke:none;stroke-width:1px;stroke-linecap:butt;stroke-linejoin:miter;stroke-opacity:1" />
  <path
     inkscape:connector-curvature="0"
     style="opacity:0.2;fill:url(#radialGradient3486);fill-opacity:1;fill-rule:nonzero;stroke:none;stroke-width:0.80000001;marker:none;visibility:visible;display:inline;overflow:visible"
     id="path10689"
     d="m 48.207477,45.082613 c 0,1.449748 -5.372523,2.625 -11.999865,2.625 -6.627342,0 -11.999865,-1.175252 -11.999865,-2.625 0,-1.449747 5.372523,-2.625 11.999865,-2.625 6.627342,0 11.999865,1.175253 11.999865,2.625 z" />
  <path
     inkscape:connector-curvature="0"
     style="color:#000000;fill:url(#linearGradient3614-2);fill-opacity:1;fill-rule:nonzero;stroke:url(#linearGradient3616-9);stroke-width:1;stroke-linecap:butt;stroke-linejoin:round;stroke-miterlimit:4;stroke-opacity:1;stroke-dasharray:none;stroke-dashoffset:0;marker:none;visibility:visible;display:block;overflow:visible;enable-background:accumulate"
     d="m 34.707612,25.207613 c -0.554,0 -1,0.446 -1,1 l 0,1.375 c -0.507329,0.155783 -1.006768,0.350474 -1.46875,0.59375 l -0.96875,-0.96875 c -0.391737,-0.391737 -1.045762,-0.391737 -1.4375,0 l -2.125,2.125 c -0.391737,0.391737 -0.391737,1.045763 0,1.4375 l 0.96875,0.96875 c -0.243275,0.461981 -0.437967,0.96142 -0.59375,1.46875 l -1.375,0 c -0.554,0 -1,0.446 -1,1 l 0,3 c 0,0.554 0.446,1 1,1 l 1.375,0 c 0.155783,0.507329 0.350475,1.006769 0.59375,1.46875 l -0.96875,0.96875 c -0.391737,0.391737 -0.391737,1.045763 0,1.4375 l 2.125,2.125 c 0.391738,0.391737 1.045763,0.391737 1.4375,0 l 0.96875,-0.96875 c 0.461982,0.243276 0.961421,0.437967 1.46875,0.59375 l 0,1.375 c 0,0.554 0.446,1 1,1 l 3,0 c 0.554,0 1,-0.446 1,-1 l 0,-1.375 c 0.507329,-0.155783 1.006769,-0.350474 1.46875,-0.59375 l 0.96875,0.96875 c 0.391737,0.391737 1.045763,0.391737 1.4375,0 l 2.125,-2.125 c 0.391737,-0.391737 0.391737,-1.045763 0,-1.4375 l -0.96875,-0.96875 c 0.243276,-0.461981 0.437967,-0.961421 0.59375,-1.46875 l 1.375,0 c 0.554,0 1,-0.446 1,-1 l 0,-3 c 0,-0.554 -0.446,-1 -1,-1 l -1.375,0 c -0.155783,-0.50733 -0.350474,-1.006769 -0.59375,-1.46875 l 0.96875,-0.96875 c 0.391737,-0.391737 0.391737,-1.045763 0,-1.4375 l -2.125,-2.125 c -0.391737,-0.391737 -1.045763,-0.391737 -1.4375,0 l -0.96875,0.96875 c -0.461981,-0.243276 -0.961421,-0.437967 -1.46875,-0.59375 l 0,-1.375 c 0,-0.554 -0.446,-1 -1,-1 l -3,0 z m 1.5,8 c 1.380712,0 2.5,1.119288 2.5,2.5 0,1.380712 -1.119288,2.5 -2.5,2.5 -1.380712,0 -2.5,-1.119288 -2.5,-2.5 0,-1.380712 1.119288,-2.5 2.5,-2.5 z"
     id="rect3623" />
  <path
     inkscape:connector-curvature="0"
     style="opacity:0.05;fill:#000000;fill-opacity:1;stroke:none"
     d="m 36.207612,29.707613 c -3.310303,0 -6,2.689698 -6,6 0,3.310302 2.689697,6 6,6 3.310301,0 6,-2.689698 6,-6 0,-3.310302 -2.689699,-6 -6,-6 z m 0,3 c 1.656854,0 3,1.343146 3,3 0,1.656854 -1.343146,3 -3,3 -1.656854,0 -3,-1.343146 -3,-3 0,-1.656854 1.343146,-3 3,-3 z"
     id="path3315" />
  <path
     inkscape:connector-curvature="0"
     style="fill:none;stroke:url(#linearGradient3610);stroke-width:1;stroke-miterlimit:4;stroke-dasharray:none"
     id="path28"
     d="m 36.207612,29.207612 c -3.584101,0 -6.5,2.9159 -6.5,6.499999 0,3.584102 2.915899,6.500002 6.5,6.500002 3.584101,0 6.5,-2.9159 6.5,-6.500002 0,-3.584099 -2.915899,-6.499999 -6.5,-6.499999 z" />
  <path
     inkscape:connector-curvature="0"
     style="opacity:0.8;color:#000000;fill:none;stroke:url(#linearGradient3814);stroke-width:1;stroke-linecap:butt;stroke-linejoin:round;stroke-miterlimit:4;stroke-opacity:1;stroke-dasharray:none;stroke-dashoffset:0;marker:none;visibility:visible;display:block;overflow:visible;enable-background:accumulate"
     d="m 34.707612,26.176363 c -0.07417,0.388719 -0.0095,0.901108 -0.03125,1.336433 0.06469,0.778079 -0.770276,1.052854 -1.368285,1.21661 -0.547023,0.311236 -1.348994,0.671898 -1.836967,0.0542 -0.296166,-0.296161 -0.592332,-0.592327 -0.888498,-0.888493 -0.431729,0.286672 -0.784757,0.763345 -1.186034,1.123535 -0.319464,0.360602 -0.755538,0.672903 -1.001466,1.063965 0.407021,0.490131 1.048516,0.837591 1.225798,1.476969 -0.02466,0.798464 -0.540159,1.529218 -0.812387,2.267025 -0.501821,0.56435 -1.315042,0.280668 -1.974346,0.349756 -0.344567,-0.01288 -0.07033,0.586347 -0.157815,0.825709 0.0012,0.744981 -0.0024,1.490108 0.0018,2.234998 0.64556,0.06419 1.356986,-0.150581 1.945494,0.179668 0.555612,0.579212 0.675636,1.474124 1.006773,2.188766 0.04177,0.75274 -0.732314,1.126431 -1.149337,1.641136 -0.217388,0.272406 0.385277,0.504146 0.515921,0.750367 0.507702,0.507702 1.015404,1.015404 1.523106,1.523106 0.522464,-0.304869 0.839728,-0.98896 1.445435,-1.204942 0.815139,-0.106648 1.513687,0.546448 2.283827,0.733976 0.650694,0.452082 0.363529,1.310427 0.426988,1.975154 -0.08851,0.418476 0.527859,0.12987 0.768962,0.214562 0.763896,-0.0012 1.527939,0.0024 2.291745,-0.0018 0.06419,-0.64556 -0.150581,-1.356986 0.179668,-1.945494 0.579212,-0.555612 1.474124,-0.675635 2.188766,-1.006772 0.75274,-0.04177 1.126431,0.732313 1.641136,1.149336 0.272406,0.217388 0.504146,-0.385277 0.750367,-0.515921 0.507702,-0.507702 1.015404,-1.015404 1.523106,-1.523106 -0.304869,-0.522463 -0.98896,-0.839728 -1.204942,-1.445435 -0.106648,-0.815139 0.546448,-1.513687 0.733976,-2.283827 0.452082,-0.650694 1.310427,-0.363529 1.975154,-0.426988 0.418476,0.08851 0.12987,-0.527859 0.214562,-0.768962 -0.0012,-0.763896 0.0024,-1.527939 -0.0018,-2.291745 -0.64556,-0.06419 -1.356986,0.150581 -1.945494,-0.179668 -0.555602,-0.579205 -0.675625,-1.474117 -1.006762,-2.188759 -0.04177,-0.75274 0.732313,-1.126431 1.149336,-1.641136 0.217388,-0.272406 -0.385277,-0.504146 -0.515921,-0.750366 -0.507702,-0.507703 -1.015404,-1.015405 -1.523106,-1.523107 -0.522463,0.304869 -0.839728,0.98896 -1.445435,1.204942 -0.815139,0.106648 -1.513687,-0.546448 -2.283827,-0.733976 -0.650694,-0.452082 -0.363529,-1.310427 -0.426988,-1.975154 0.08851,-0.418476 -0.527859,-0.12987 -0.768962,-0.214562 -0.754096,0 -1.508192,0 -2.262288,0 z"
     id="path3799"
     sodipodi:nodetypes="ccccccccccccccscccccccccscccccccccsccccccc" />
  <path
     sodipodi:type="arc"
     style="opacity:0.4;color:#000000;fill:none;stroke:url(#linearGradient3830);stroke-width:0.98852974;stroke-opacity:1;marker:none;visibility:visible;display:block;overflow:visible;enable-background:accumulate"
     id="path3822"
     sodipodi:cx="12"
     sodipodi:cy="12"
     sodipodi:rx="3.4598541"
     sodipodi:ry="3.4598541"
     d="m 15.459854,12 a 3.4598541,3.4598541 0 1 1 -6.9197081,0 3.4598541,3.4598541 0 1 1 6.9197081,0 z"
     transform="matrix(1.0116033,0,0,1.0116033,24.068373,23.568373)" />
</svg>
