<?xml version="1.0" encoding="UTF-8" standalone="no"?>
<!-- Created with Inkscape (http://www.inkscape.org/) -->

<svg
   xmlns:dc="http://purl.org/dc/elements/1.1/"
   xmlns:cc="http://creativecommons.org/ns#"
   xmlns:rdf="http://www.w3.org/1999/02/22-rdf-syntax-ns#"
   xmlns:svg="http://www.w3.org/2000/svg"
   xmlns="http://www.w3.org/2000/svg"
   xmlns:xlink="http://www.w3.org/1999/xlink"
   xmlns:sodipodi="http://sodipodi.sourceforge.net/DTD/sodipodi-0.dtd"
   xmlns:inkscape="http://www.inkscape.org/namespaces/inkscape"
   id="svg2405"
   height="48"
   width="48"
   version="1.1"
   inkscape:version="0.48.1 r9760"
   sodipodi:docname="window-close.svg">
  <metadata
     id="metadata19">
    <rdf:RDF>
      <cc:Work
         rdf:about="">
        <dc:format>image/svg+xml</dc:format>
        <dc:type
           rdf:resource="http://purl.org/dc/dcmitype/StillImage" />
        <dc:title></dc:title>
      </cc:Work>
    </rdf:RDF>
  </metadata>
  <sodipodi:namedview
     pagecolor="#ffffff"
     bordercolor="#666666"
     borderopacity="1"
     objecttolerance="10"
     gridtolerance="10"
     guidetolerance="10"
     inkscape:pageopacity="0"
     inkscape:pageshadow="2"
     inkscape:window-width="849"
     inkscape:window-height="759"
     id="namedview17"
     showgrid="false"
     inkscape:zoom="6.6041667"
     inkscape:cx="51.124865"
     inkscape:cy="31.949527"
     inkscape:window-x="327"
     inkscape:window-y="88"
     inkscape:window-maximized="0"
     inkscape:current-layer="layer1" />
  <defs
     id="defs2407">
    <linearGradient
       id="linearGradient3915">
      <stop
         style="stop-color:#1773a4;stop-opacity:1;"
         offset="0"
         id="stop3917" />
      <stop
         style="stop-color:#1a9dca;stop-opacity:0;"
         offset="1"
         id="stop3919" />
    </linearGradient>
    <linearGradient
       id="linearGradient3907">
      <stop
         style="stop-color:#7ee3de;stop-opacity:1;"
         offset="0"
         id="stop3909" />
      <stop
         style="stop-color:#2a97ae;stop-opacity:1;"
         offset="1"
         id="stop3911" />
    </linearGradient>
    <radialGradient
       id="radialGradient2177"
       gradientUnits="userSpaceOnUse"
       cy="35.127"
       cx="23.071"
       gradientTransform="matrix(.91481 .012650 -.0082150 .21356 2.2539 27.189)"
       r="10.319">
      <stop
         id="stop2093"
         offset="0" />
      <stop
         id="stop2095"
         style="stop-opacity:0"
         offset="1" />
    </radialGradient>
    <linearGradient
       id="linearGradient2181"
       y2="32.85"
       gradientUnits="userSpaceOnUse"
       x2="16.145"
       gradientTransform="matrix(1.0318,-1.0287,1.0318,1.0287,-26.40158,24.115419)"
       y1="17.13"
       x1="31.865">
      <stop
         id="stop7918"
         style="stop-color:#fff"
         offset="0" />
      <stop
         id="stop7920"
         style="stop-color:#fff;stop-opacity:.34021"
         offset="1" />
    </linearGradient>
    <linearGradient
       id="linearGradient2179"
       y2="46.421"
       gradientUnits="userSpaceOnUse"
       x2="34.163"
       gradientTransform="matrix(1.0318,-1.0287,1.0318,1.0287,-58.994581,28.689419)"
       y1="30.701"
       x1="49.882">
      <stop
         id="stop1324"
         style="stop-color:#ffffff;stop-opacity:1;"
         offset="0" />
      <stop
         id="stop1326"
         style="stop-color:#505050"
         offset="1" />
    </linearGradient>
    <linearGradient
       inkscape:collect="always"
       xlink:href="#linearGradient3907"
       id="linearGradient3913"
       x1="24.79657"
       y1="35.635666"
       x2="24.654154"
       y2="41.995289"
       gradientUnits="userSpaceOnUse" />
    <linearGradient
       inkscape:collect="always"
       xlink:href="#linearGradient3915"
       id="linearGradient3921"
       x1="24.79657"
       y1="35.635666"
       x2="24.654154"
       y2="41.995289"
       gradientUnits="userSpaceOnUse" />
  </defs>
  <g
     id="layer1">
    <path
       id="path1361"
       style="opacity:.25571;fill:url(#radialGradient2177)"
       d="m33.278 34.941a10.319 2.3202 0 1 1 -20.639 0 10.319 2.3202 0 1 1 20.639 0z"
       transform="matrix(2.3012 0 0 1.919 -28.833 -24.805)" />
    <path
       id="text1314"
       style="stroke-linejoin:round;stroke:#929292;stroke-width:0.98170000000000002;fill:#f1f1f1;fill-opacity:1;stroke-opacity:1"
       d="m41.892 35.011-10.392-10.017 10-10.494-7.209-6.5-10.291 10-10.5-10-7.5 6.739 10.5 10.212-10.5 10.049 7.5 7 10.488-10.5 10.512 10.5 7.392-6.989z" />
    <path
       id="path7076"
       style="opacity:0.40859997;fill:url(#linearGradient2179);stroke:url(#linearGradient2181);stroke-width:0.9817;stroke-linejoin:round"
       d="m 40.651419,35.151419 -10.5,-10 10,-10.5 -5.708,-4.9585994 -10.292,9.9585994 -10.5,-9.9999994 -5.9999997,5.4999994 10.4999997,9.945 -10.4999997,10.055 5.9999997,5.5 10.5,-10.5 10.5,10.5 6,-5.5 z"
       inkscape:connector-curvature="0" />
    <g
       transform="matrix(0.26530892,0,0,0.26530892,-38.473682,-80.956965)"
       id="g23"
       style="fill:#000000;fill-opacity:0.5;stroke:none">
      <path
         d="m 143.756,326.774 c 0.538,-0.09 13.953,6.991 22.97,9.438 16.079,4.109 30.756,16.476 37.85,23.58 0.526,0.608 6.093,-4.168 11.919,-3.824 7.958,0.482 32.582,7.406 35.872,2.691 1.995,-2.768 1.852,-6.164 4.341,-7.555 1.34,-0.375 -4.981,-11.936 1.737,-15.64 4.79,-2.394 8.849,11.009 10.079,12.511 0.551,0.672 3.474,0.836 3.128,-0.695 -0.375,-1.663 -5.103,-14.524 0.695,-16.682 9.417,-3.729 7.748,16.456 7.993,17.03 0.521,1.222 32.797,2.164 34.754,16.682 1.132,7.99 -25.858,18.317 -28.498,20.157 -2.639,1.84 -2.419,4.783 -1.39,6.604 1.183,1.975 9.046,8.641 7.994,11.816 -0.723,1.834 -15.398,-4.888 -16.335,-3.475 -2.137,2.699 10.683,9.455 6.256,14.249 -1.755,1.148 -21.947,-8.454 -21.896,-8.341 -0.542,0.206 -28.532,5.113 -50.046,-1.391 -0.758,-0.214 -13.808,12.606 -15.292,12.165 -2.029,-0.744 2.991,-11.15 2.433,-13.207 -0.912,-1.146 -9.251,4.653 -9.731,1.738 -0.574,-3.831 7.318,-8.235 6.951,-10.774 -2.035,-14.424 0.909,-22.847 5.908,-29.888 1.667,-2.592 -19.592,-18.646 -34.983,-24.982 -15.39,-6.336 -23.624,-11.706 -22.709,-12.207 z"
         transform="translate(4.86564,17.0296)"
         id="path14"
         style="fill:#020202;fill-opacity:1;fill-rule:evenodd;stroke:#000002;stroke-width:1pt;stroke-linecap:butt;stroke-linejoin:miter;stroke-opacity:1"
         inkscape:connector-curvature="0" />
      <path
         d="m 286.934,392.031 c -0.169,-0.59 10.503,-7.045 12.048,-5.561 2.781,1.008 -11.95,6.31 -12.048,5.561 z"
         id="path7"
         style="fill:#ffffff;fill-opacity:1;fill-rule:evenodd;stroke:#000000;stroke-width:0.6pt;stroke-linecap:butt;stroke-linejoin:miter;stroke-opacity:1"
         inkscape:connector-curvature="0" />
      <path
         d="m 292.031,397.901 c -0.94,-0.568 6.389,-9.114 8.187,-8.187 2.625,2.608 -8.31,8.39 -8.187,8.187 z"
         id="path8"
         style="fill:#ffffff;fill-opacity:1;fill-rule:evenodd;stroke:#000000;stroke-width:0.6pt;stroke-linecap:butt;stroke-linejoin:miter;stroke-opacity:1"
         inkscape:connector-curvature="0" />
      <path
         d="m 320.916,358.358 c -0.891,-0.737 -7.878,10.287 -6.333,11.431 0.929,0.695 6.731,-11.038 6.333,-11.431 z"
         id="path13"
         style="fill:#020202;fill-opacity:1;fill-rule:evenodd;stroke:#000000;stroke-width:0.6pt;stroke-linecap:butt;stroke-linejoin:miter;stroke-opacity:1"
         inkscape:connector-curvature="0" />
      <ellipse
         cx="288.86475"
         cy="374.58655"
         rx="3.012037"
         ry="3.398196"
         transform="matrix(0.9253,0,0,0.933788,22.0283,24.352)"
         id="ellipse17"
         style="fill:#ffffff;fill-opacity:1;fill-rule:evenodd;stroke:#000000;stroke-width:0.6pt;stroke-linecap:butt;stroke-linejoin:miter;stroke-opacity:1"
         d="m 291.87678,374.58655 c 0,1.87677 -1.34853,3.39819 -3.01203,3.39819 -1.66351,0 -3.01204,-1.52142 -3.01204,-3.39819 0,-1.87677 1.34853,-3.3982 3.01204,-3.3982 1.6635,0 3.01203,1.52143 3.01203,3.3982 z"
         sodipodi:cx="288.86475"
         sodipodi:cy="374.58655"
         sodipodi:rx="3.012037"
         sodipodi:ry="3.398196" />
      <path
         d="m 320.916,358.358 c -0.441,-0.512 -2.781,11.368 -1.699,11.894 0.929,0.695 2.547,-11.276 1.699,-11.894 z"
         transform="translate(-8.0321,-1.54463)"
         id="path18"
         style="fill:#020202;fill-opacity:1;fill-rule:evenodd;stroke:#000000;stroke-width:0.6pt;stroke-linecap:butt;stroke-linejoin:miter;stroke-opacity:1"
         inkscape:connector-curvature="0" />
      <path
         d="m 321.366,357.908 c -2.771,1.959 1.521,13.045 8.58,6.572 -5.546,0.163 -7.396,-1.461 -8.58,-6.572 z"
         transform="translate(-38.3069,14.983)"
         id="path21"
         style="fill:#ffffff;fill-opacity:1;fill-rule:evenodd;stroke:#000000;stroke-width:0.6pt;stroke-linecap:butt;stroke-linejoin:miter;stroke-opacity:1"
         inkscape:connector-curvature="0" />
    </g>
    <text
       xml:space="preserve"
       style="font-size:40px;font-style:normal;font-weight:normal;line-height:125%;letter-spacing:0px;word-spacing:0px;fill:url(#linearGradient3913);fill-opacity:1;stroke:url(#linearGradient3921);font-family:Sans;stroke-width:0.59999999999999998;stroke-miterlimit:4;stroke-dasharray:none"
       x="4.5425868"
       y="45.880123"
       id="text3895"
       sodipodi:linespacing="125%"><tspan
         sodipodi:role="line"
         id="tspan3897"
         x="4.5425868"
         y="45.880123"
         style="font-size:14px;font-weight:bold;-inkscape-font-specification:Sans Bold;fill-opacity:1;fill:url(#linearGradient3913);stroke:url(#linearGradient3921);stroke-linejoin:round;stroke-linecap:round;stroke-width:0.59999999999999998;stroke-miterlimit:4;stroke-dasharray:none">XFCE</tspan></text>
  </g>
</svg>
