<?xml version="1.0" encoding="UTF-8" standalone="no"?>
<!-- Created with Inkscape (http://www.inkscape.org/) -->

<svg
   xmlns:dc="http://purl.org/dc/elements/1.1/"
   xmlns:cc="http://creativecommons.org/ns#"
   xmlns:rdf="http://www.w3.org/1999/02/22-rdf-syntax-ns#"
   xmlns:svg="http://www.w3.org/2000/svg"
   xmlns="http://www.w3.org/2000/svg"
   xmlns:xlink="http://www.w3.org/1999/xlink"
   xmlns:sodipodi="http://sodipodi.sourceforge.net/DTD/sodipodi-0.dtd"
   xmlns:inkscape="http://www.inkscape.org/namespaces/inkscape"
   version="1.0"
   width="48"
   height="48"
   id="svg3367"
   inkscape:version="0.48.1 r9760"
   sodipodi:docname="audio-cd-new.svg">
  <metadata
     id="metadata120">
    <rdf:RDF>
      <cc:Work
         rdf:about="">
        <dc:format>image/svg+xml</dc:format>
        <dc:type
           rdf:resource="http://purl.org/dc/dcmitype/StillImage" />
        <dc:title />
      </cc:Work>
    </rdf:RDF>
  </metadata>
  <sodipodi:namedview
     pagecolor="#ffffff"
     bordercolor="#666666"
     borderopacity="1"
     objecttolerance="10"
     gridtolerance="10"
     guidetolerance="10"
     inkscape:pageopacity="0"
     inkscape:pageshadow="2"
     inkscape:window-width="819"
     inkscape:window-height="693"
     id="namedview118"
     showgrid="false"
     inkscape:zoom="6.0208333"
     inkscape:cx="24"
     inkscape:cy="26.076125"
     inkscape:window-x="414"
     inkscape:window-y="42"
     inkscape:window-maximized="0"
     inkscape:current-layer="svg3367" />
  <defs
     id="defs3369">
    <linearGradient
       id="linearGradient23419">
      <stop
         id="stop23421"
         style="stop-color:#000000;stop-opacity:1"
         offset="0" />
      <stop
         id="stop23423"
         style="stop-color:#000000;stop-opacity:0"
         offset="1" />
    </linearGradient>
    <linearGradient
       id="linearGradient3772">
      <stop
         id="stop3774"
         style="stop-color:#b4b4b4;stop-opacity:1"
         offset="0" />
      <stop
         id="stop3776"
         style="stop-color:#969696;stop-opacity:1"
         offset="1" />
    </linearGradient>
    <linearGradient
       x1="12.2744"
       y1="32.4165"
       x2="35.391201"
       y2="14.2033"
       id="linearGradient3263"
       gradientUnits="userSpaceOnUse">
      <stop
         id="stop3265"
         style="stop-color:#dedbde;stop-opacity:1"
         offset="0" />
      <stop
         id="stop3267"
         style="stop-color:#e6e6e6;stop-opacity:1"
         offset="0.5" />
      <stop
         id="stop3269"
         style="stop-color:#d2d2d2;stop-opacity:1"
         offset="1" />
    </linearGradient>
    <linearGradient
       id="linearGradient3428">
      <stop
         id="stop3430"
         style="stop-color:#aaaaaa;stop-opacity:1"
         offset="0" />
      <stop
         id="stop3432"
         style="stop-color:#d4d4d4;stop-opacity:1"
         offset="1" />
    </linearGradient>
    <linearGradient
       x1="10.609375"
       y1="17.886322"
       x2="9.7297754"
       y2="20.612656"
       id="linearGradient3354"
       xlink:href="#linearGradient3519"
       gradientUnits="userSpaceOnUse"
       spreadMethod="reflect" />
    <linearGradient
       x1="12.371647"
       y1="16.188046"
       x2="14.609327"
       y2="13.461712"
       id="linearGradient3352"
       xlink:href="#linearGradient3511"
       gradientUnits="userSpaceOnUse"
       spreadMethod="reflect" />
    <linearGradient
       x1="14.084608"
       y1="13.045606"
       x2="16.994024"
       y2="10.732353"
       id="linearGradient3350"
       xlink:href="#linearGradient3503"
       gradientUnits="userSpaceOnUse"
       spreadMethod="reflect" />
    <linearGradient
       x1="17.494959"
       y1="11.200086"
       x2="21.047453"
       y2="9.7956104"
       id="linearGradient3348"
       xlink:href="#linearGradient3495"
       gradientUnits="userSpaceOnUse"
       spreadMethod="reflect" />
    <linearGradient
       x1="20.580074"
       y1="10.774516"
       x2="24.27351"
       y2="9.8622112"
       id="linearGradient3346"
       xlink:href="#linearGradient3487"
       gradientUnits="userSpaceOnUse"
       spreadMethod="reflect" />
    <linearGradient
       id="linearGradient6036">
      <stop
         id="stop6038"
         style="stop-color:#ffffff;stop-opacity:1"
         offset="0" />
      <stop
         id="stop6040"
         style="stop-color:#ffffff;stop-opacity:0"
         offset="1" />
    </linearGradient>
    <linearGradient
       id="linearGradient3519">
      <stop
         id="stop3521"
         style="stop-color:#fcd9cd;stop-opacity:1"
         offset="0" />
      <stop
         id="stop3523"
         style="stop-color:#fcd9cd;stop-opacity:0"
         offset="1" />
    </linearGradient>
    <linearGradient
       x1="10.609375"
       y1="17.886322"
       x2="9.7297754"
       y2="20.612656"
       id="linearGradient3319"
       xlink:href="#linearGradient3519"
       gradientUnits="userSpaceOnUse"
       spreadMethod="reflect" />
    <linearGradient
       id="linearGradient3511">
      <stop
         id="stop3513"
         style="stop-color:#ebeec7;stop-opacity:1"
         offset="0" />
      <stop
         id="stop3515"
         style="stop-color:#ebeec7;stop-opacity:0"
         offset="1" />
    </linearGradient>
    <linearGradient
       x1="12.371647"
       y1="16.188046"
       x2="14.609327"
       y2="13.461712"
       id="linearGradient3317"
       xlink:href="#linearGradient3511"
       gradientUnits="userSpaceOnUse"
       spreadMethod="reflect" />
    <linearGradient
       id="linearGradient3503">
      <stop
         id="stop3505"
         style="stop-color:#c4ebdd;stop-opacity:1"
         offset="0" />
      <stop
         id="stop3507"
         style="stop-color:#c4ebdd;stop-opacity:0"
         offset="1" />
    </linearGradient>
    <linearGradient
       x1="14.084608"
       y1="13.045606"
       x2="16.994024"
       y2="10.732353"
       id="linearGradient3315"
       xlink:href="#linearGradient3503"
       gradientUnits="userSpaceOnUse"
       spreadMethod="reflect" />
    <linearGradient
       id="linearGradient3495">
      <stop
         id="stop3497"
         style="stop-color:#c1cbe4;stop-opacity:1"
         offset="0" />
      <stop
         id="stop3499"
         style="stop-color:#c1cbe4;stop-opacity:0"
         offset="1" />
    </linearGradient>
    <linearGradient
       x1="17.494959"
       y1="11.200086"
       x2="21.047453"
       y2="9.7956104"
       id="linearGradient3313"
       xlink:href="#linearGradient3495"
       gradientUnits="userSpaceOnUse"
       spreadMethod="reflect" />
    <linearGradient
       id="linearGradient3487">
      <stop
         id="stop3489"
         style="stop-color:#e6cde2;stop-opacity:1"
         offset="0" />
      <stop
         id="stop3491"
         style="stop-color:#e6cde2;stop-opacity:0"
         offset="1" />
    </linearGradient>
    <linearGradient
       x1="20.580074"
       y1="10.774516"
       x2="24.27351"
       y2="9.8622112"
       id="linearGradient3311"
       xlink:href="#linearGradient3487"
       gradientUnits="userSpaceOnUse"
       spreadMethod="reflect" />
    <linearGradient
       x1="10.50172"
       y1="3.6100161"
       x2="48.798885"
       y2="54.698483"
       id="linearGradient2453"
       xlink:href="#linearGradient6036"
       gradientUnits="userSpaceOnUse"
       gradientTransform="matrix(0.9849664,0,0,0.9849663,0.01902206,-0.6241532)" />
    <linearGradient
       x1="18.775953"
       y1="4.0378027"
       x2="18.203465"
       y2="45.962208"
       id="linearGradient2462"
       xlink:href="#linearGradient6036"
       gradientUnits="userSpaceOnUse"
       gradientTransform="matrix(0.4293444,0,0,0.4293442,13.546752,13.266392)" />
    <linearGradient
       x1="21.448364"
       y1="15.5"
       x2="21.448364"
       y2="32.509201"
       id="linearGradient2465"
       xlink:href="#linearGradient3428"
       gradientUnits="userSpaceOnUse"
       gradientTransform="matrix(0.9375,0,0,0.9375,1.5,1.5)" />
    <linearGradient
       x1="12.2744"
       y1="32.4165"
       x2="35.391201"
       y2="14.2033"
       id="linearGradient2470"
       xlink:href="#linearGradient3263"
       gradientUnits="userSpaceOnUse"
       gradientTransform="matrix(0,1.1714389,-1.1714389,0,51.060244,-4.11454)" />
    <linearGradient
       x1="-21.915663"
       y1="3"
       x2="-21.915663"
       y2="45.032898"
       id="linearGradient2472"
       xlink:href="#linearGradient3772"
       gradientUnits="userSpaceOnUse"
       gradientTransform="translate(50.26506,0)" />
    <radialGradient
       cx="23.334524"
       cy="41.63604"
       r="22.627417"
       fx="23.334524"
       fy="41.63604"
       id="radialGradient2475"
       xlink:href="#linearGradient23419"
       gradientUnits="userSpaceOnUse"
       gradientTransform="matrix(0.9722718,0,0,0.2872354,1.3124992,27.540524)" />
    <linearGradient
       x1="32.892288"
       y1="8.0590115"
       x2="36.358372"
       y2="5.4565363"
       id="linearGradient3598"
       xlink:href="#linearGradient8589"
       gradientUnits="userSpaceOnUse"
       gradientTransform="matrix(0.6371285,0,0,0.6445638,18.829693,18.744517)" />
    <linearGradient
       id="linearGradient8589">
      <stop
         id="stop8591"
         style="stop-color:#fefefe;stop-opacity:1"
         offset="0" />
      <stop
         id="stop8593"
         style="stop-color:#cbcbcb;stop-opacity:1"
         offset="1" />
    </linearGradient>
    <filter
       x="-0.14846256"
       y="-0.16434373"
       width="1.2969251"
       height="1.3286875"
       color-interpolation-filters="sRGB"
       id="filter3212">
      <feGaussianBlur
         stdDeviation="0.77391625"
         id="feGaussianBlur3214" />
    </filter>
    <linearGradient
       x1="24"
       y1="1.9999999"
       x2="24"
       y2="46.01725"
       id="linearGradient3602"
       xlink:href="#linearGradient3211"
       gradientUnits="userSpaceOnUse"
       gradientTransform="matrix(0.6363646,0,0,0.6279076,18.727264,16.930216)" />
    <linearGradient
       id="linearGradient3211">
      <stop
         id="stop3213"
         style="stop-color:#ffffff;stop-opacity:1"
         offset="0" />
      <stop
         id="stop3215"
         style="stop-color:#ffffff;stop-opacity:0"
         offset="1" />
    </linearGradient>
    <radialGradient
       cx="102"
       cy="112.3047"
       r="139.55859"
       id="radialGradient3605"
       xlink:href="#XMLID_8_"
       gradientUnits="userSpaceOnUse"
       gradientTransform="matrix(0.2340426,0,0,-0.2542968,19.02129,50.288672)" />
    <radialGradient
       cx="102"
       cy="112.3047"
       r="139.55859"
       id="XMLID_8_"
       gradientUnits="userSpaceOnUse">
      <stop
         id="stop41"
         style="stop-color:#b7b8b9;stop-opacity:1"
         offset="0" />
      <stop
         id="stop47"
         style="stop-color:#ececec;stop-opacity:1"
         offset="0.18851049" />
      <stop
         id="stop49"
         style="stop-color:#fafafa;stop-opacity:0"
         offset="0.25718147" />
      <stop
         id="stop51"
         style="stop-color:#ffffff;stop-opacity:0"
         offset="0.30111277" />
      <stop
         id="stop53"
         style="stop-color:#fafafa;stop-opacity:0"
         offset="0.53130001" />
      <stop
         id="stop55"
         style="stop-color:#ebecec;stop-opacity:0"
         offset="0.84490001" />
      <stop
         id="stop57"
         style="stop-color:#e1e2e3;stop-opacity:0"
         offset="1" />
    </radialGradient>
    <linearGradient
       x1="25.132275"
       y1="0.98520643"
       x2="25.132275"
       y2="47.013336"
       id="linearGradient3608"
       xlink:href="#linearGradient3600"
       gradientUnits="userSpaceOnUse"
       gradientTransform="matrix(0.6571436,0,0,0.6301241,18.228566,15.910352)" />
    <linearGradient
       id="linearGradient3600">
      <stop
         id="stop3602"
         style="stop-color:#f4f4f4;stop-opacity:1"
         offset="0" />
      <stop
         id="stop3604"
         style="stop-color:#dbdbdb;stop-opacity:1"
         offset="1" />
    </linearGradient>
    <linearGradient
       x1="-51.786404"
       y1="50.786446"
       x2="-51.786404"
       y2="2.9062471"
       id="linearGradient3610"
       xlink:href="#linearGradient3104"
       gradientUnits="userSpaceOnUse"
       gradientTransform="matrix(0.5306412,0,0,0.5897023,57.269618,15.208092)" />
    <linearGradient
       id="linearGradient3104">
      <stop
         id="stop3106"
         style="stop-color:#9a9a9a;stop-opacity:1"
         offset="0" />
      <stop
         id="stop3108"
         style="stop-color:#afafaf;stop-opacity:1"
         offset="1" />
    </linearGradient>
    <radialGradient
       cx="605.71429"
       cy="486.64789"
       r="117.14286"
       fx="605.71429"
       fy="486.64789"
       id="radialGradient3613"
       xlink:href="#linearGradient5060"
       gradientUnits="userSpaceOnUse"
       gradientTransform="matrix(0.01566318,0,0,0.00823529,35.610446,42.980566)" />
    <linearGradient
       id="linearGradient5060">
      <stop
         id="stop5062"
         style="stop-color:#000000;stop-opacity:1"
         offset="0" />
      <stop
         id="stop5064"
         style="stop-color:#000000;stop-opacity:0"
         offset="1" />
    </linearGradient>
    <radialGradient
       cx="605.71429"
       cy="486.64789"
       r="117.14286"
       fx="605.71429"
       fy="486.64789"
       id="radialGradient3616"
       xlink:href="#linearGradient5060"
       gradientUnits="userSpaceOnUse"
       gradientTransform="matrix(-0.01566318,0,0,0.00823529,33.389579,42.980566)" />
    <linearGradient
       x1="3.7797408"
       y1="106.37297"
       x2="3.7797408"
       y2="99.720741"
       id="linearGradient3619"
       xlink:href="#linearGradient5048"
       gradientUnits="userSpaceOnUse"
       gradientTransform="matrix(3.1586968,0,0,0.3008283,19.296394,16)" />
    <linearGradient
       id="linearGradient5048">
      <stop
         id="stop5050"
         style="stop-color:#000000;stop-opacity:0"
         offset="0" />
      <stop
         id="stop5056"
         style="stop-color:#000000;stop-opacity:1"
         offset="0.5" />
      <stop
         id="stop5052"
         style="stop-color:#000000;stop-opacity:0"
         offset="1" />
    </linearGradient>
    <linearGradient
       id="linearGradient5060-179">
      <stop
         id="stop2675"
         style="stop-color:#000000;stop-opacity:1"
         offset="0" />
      <stop
         id="stop2677"
         style="stop-color:#000000;stop-opacity:0"
         offset="1" />
    </linearGradient>
    <radialGradient
       cx="605.71429"
       cy="486.64789"
       r="117.14286"
       fx="605.71429"
       fy="486.64789"
       id="radialGradient3717"
       xlink:href="#linearGradient5060-179"
       gradientUnits="userSpaceOnUse"
       gradientTransform="matrix(0.03079083,0,0,0.02470588,24.610252,31.941642)" />
    <linearGradient
       x1="28.739122"
       y1="144.11652"
       x2="26.256771"
       y2="125.39074"
       id="linearGradient2910"
       xlink:href="#linearGradient2372"
       gradientUnits="userSpaceOnUse"
       gradientTransform="matrix(0.56600209,0,0,0.34475128,30.576514,-39.58717)" />
    <linearGradient
       id="linearGradient2372">
      <stop
         id="stop2374"
         style="stop-color:white;stop-opacity:1"
         offset="0" />
      <stop
         id="stop2376"
         style="stop-color:white;stop-opacity:0.34482759"
         offset="1" />
    </linearGradient>
    <radialGradient
       cx="17.058823"
       cy="41.058823"
       r="5.7384715"
       fx="14.757765"
       fy="37.841019"
       id="radialGradient2907"
       xlink:href="#linearGradient3668"
       gradientUnits="userSpaceOnUse"
       gradientTransform="matrix(1.0711163,-0.17393124,0.02337913,1.0026842,20.16904,-3.6911971)" />
    <linearGradient
       id="linearGradient3668">
      <stop
         id="stop3670"
         style="stop-color:white;stop-opacity:1"
         offset="0" />
      <stop
         id="stop3672"
         style="stop-color:white;stop-opacity:0"
         offset="1" />
    </linearGradient>
    <linearGradient
       x1="28.503141"
       y1="137.53885"
       x2="26.256771"
       y2="125.39074"
       id="linearGradient2904"
       xlink:href="#linearGradient2372"
       gradientUnits="userSpaceOnUse"
       gradientTransform="matrix(0.33924269,0,0,0.33976658,16.990264,-34.109565)" />
    <linearGradient
       id="linearGradient4039">
      <stop
         id="stop4041"
         style="stop-color:white;stop-opacity:1"
         offset="0" />
      <stop
         id="stop4043"
         style="stop-color:white;stop-opacity:0.34482759"
         offset="1" />
    </linearGradient>
    <radialGradient
       cx="17.058823"
       cy="41.058823"
       r="5.7384715"
       fx="14.68769"
       fy="37.45607"
       id="radialGradient2901"
       xlink:href="#linearGradient7067"
       gradientUnits="userSpaceOnUse"
       gradientTransform="matrix(1.0172818,-0.1823427,0.03571682,0.96940887,1.9293198,2.3456079)" />
    <linearGradient
       id="linearGradient7067">
      <stop
         id="stop7069"
         style="stop-color:white;stop-opacity:1"
         offset="0" />
      <stop
         id="stop7071"
         style="stop-color:white;stop-opacity:0"
         offset="1" />
    </linearGradient>
    <radialGradient
       cx="62.625"
       cy="4.625"
       r="10.625"
       fx="62.625"
       fy="4.625"
       id="radialGradient3094"
       xlink:href="#linearGradient8838"
       gradientUnits="userSpaceOnUse"
       gradientTransform="matrix(1.882353,0,0,0.47058762,-88.152252,40.570039)" />
    <linearGradient
       id="linearGradient8838">
      <stop
         id="stop8840"
         style="stop-color:black;stop-opacity:1"
         offset="0" />
      <stop
         id="stop8842"
         style="stop-color:black;stop-opacity:0"
         offset="1" />
    </linearGradient>
    <radialGradient
       r="10.625"
       fy="4.625"
       fx="62.625"
       cy="4.625"
       cx="62.625"
       gradientTransform="matrix(1.0352941,0,0,0.42352883,-52.835297,9.541176)"
       gradientUnits="userSpaceOnUse"
       id="radialGradient3953"
       xlink:href="#linearGradient8838-6"
       inkscape:collect="always" />
    <linearGradient
       id="linearGradient8838-6">
      <stop
         id="stop8840-5"
         style="stop-color:#000000;stop-opacity:1"
         offset="0" />
      <stop
         id="stop8842-6"
         style="stop-color:#000000;stop-opacity:0"
         offset="1" />
    </linearGradient>
    <radialGradient
       inkscape:collect="always"
       xlink:href="#linearGradient3690"
       id="radialGradient3627"
       gradientUnits="userSpaceOnUse"
       gradientTransform="matrix(0,1.2347038,-1.4762672,0,45.286618,-12.483517)"
       cx="13.138569"
       cy="25.625349"
       fx="13.138569"
       fy="25.625349"
       r="13.931416" />
    <linearGradient
       id="linearGradient3690">
      <stop
         id="stop3692"
         style="stop-color:#ffeb9f;stop-opacity:1"
         offset="0" />
      <stop
         id="stop3694"
         style="stop-color:#ffd57e;stop-opacity:1"
         offset="0.26238" />
      <stop
         id="stop3696"
         style="stop-color:#ffbc43;stop-opacity:1"
         offset="0.66093999" />
      <stop
         id="stop3698"
         style="stop-color:#ff921a;stop-opacity:1"
         offset="1" />
    </linearGradient>
    <linearGradient
       inkscape:collect="always"
       xlink:href="#linearGradient3603"
       id="linearGradient3629"
       gradientUnits="userSpaceOnUse"
       gradientTransform="matrix(0.77056228,0,0,0.77077837,-5.426251,-7.0730604)"
       x1="21.483376"
       y1="36.255058"
       x2="21.483376"
       y2="9.5799999" />
    <linearGradient
       id="linearGradient3603">
      <stop
         id="stop3605"
         style="stop-color:#a7651c;stop-opacity:1"
         offset="0" />
      <stop
         id="stop3607"
         style="stop-color:#c8a700;stop-opacity:1"
         offset="1" />
    </linearGradient>
    <linearGradient
       inkscape:collect="always"
       xlink:href="#linearGradient8265-821-176-38-919-66-249"
       id="linearGradient3683"
       gradientUnits="userSpaceOnUse"
       gradientTransform="matrix(0.4893617,0,0,0.4893617,1.7131795,22.728095)"
       x1="11.566265"
       y1="22.292103"
       x2="15.214532"
       y2="33.95525" />
    <linearGradient
       id="linearGradient8265-821-176-38-919-66-249">
      <stop
         id="stop2687"
         style="stop-color:#ffffff;stop-opacity:0.27450982"
         offset="0" />
      <stop
         id="stop2689"
         style="stop-color:#ffffff;stop-opacity:0"
         offset="1" />
    </linearGradient>
    <linearGradient
       inkscape:collect="always"
       xlink:href="#linearGradient3642"
       id="linearGradient2907"
       gradientUnits="userSpaceOnUse"
       gradientTransform="matrix(0.77056228,0,0,0.77077837,-4.5546733,17.801037)"
       x1="23.470181"
       y1="11.209872"
       x2="23.470181"
       y2="35.051075" />
    <linearGradient
       id="linearGradient3642">
      <stop
         style="stop-color:#ffffff;stop-opacity:1;"
         offset="0"
         id="stop3644" />
      <stop
         style="stop-color:#ffffff;stop-opacity:0;"
         offset="1"
         id="stop3646" />
    </linearGradient>
    <radialGradient
       r="10.625"
       fy="4.625"
       fx="62.625"
       cy="4.625"
       cx="62.625"
       gradientTransform="matrix(1.0352941,0,0,0.42352883,-53.707269,16.667473)"
       gradientUnits="userSpaceOnUse"
       id="radialGradient4271"
       xlink:href="#linearGradient8838-6"
       inkscape:collect="always" />
    <radialGradient
       inkscape:collect="always"
       xlink:href="#linearGradient5060-1"
       id="radialGradient3071"
       gradientUnits="userSpaceOnUse"
       gradientTransform="matrix(0.02303995,0,0,0.01470022,26.360882,37.040176)"
       cx="605.71429"
       cy="486.64789"
       fx="605.71429"
       fy="486.64789"
       r="117.14286" />
    <linearGradient
       id="linearGradient5060-1">
      <stop
         id="stop5062-1"
         style="stop-color:#000000;stop-opacity:1"
         offset="0" />
      <stop
         id="stop5064-9"
         style="stop-color:#000000;stop-opacity:0"
         offset="1" />
    </linearGradient>
    <linearGradient
       id="linearGradient6015"
       y2="32.485001"
       gradientUnits="userSpaceOnUse"
       x2="24.104"
       gradientTransform="matrix(0.89305,0,0,0.88766,-24.247,42.161)"
       y1="15.169"
       x1="24.104">
      <stop
         id="stop2266"
         style="stop-color:#d7e866"
         offset="0" />
      <stop
         id="stop2268"
         style="stop-color:#8cab2a"
         offset="1" />
    </linearGradient>
    <linearGradient
       y2="47.272999"
       x2="24.139"
       y1="-9.8009005"
       x1="24.139"
       gradientTransform="matrix(0.53643,0,0,0.5332,-15.688,50.169)"
       gradientUnits="userSpaceOnUse"
       id="linearGradient3524"
       xlink:href="#linearGradient6017"
       inkscape:collect="always" />
    <linearGradient
       id="linearGradient6017"
       y2="47.272999"
       gradientUnits="userSpaceOnUse"
       x2="24.139"
       gradientTransform="matrix(0.53643,0,0,0.5332,-15.688,50.169)"
       y1="-9.8009005"
       x1="24.139">
      <stop
         id="stop4224-3"
         style="stop-color:#fff"
         offset="0" />
      <stop
         id="stop4226-8"
         style="stop-color:#fff;stop-opacity:0"
         offset="1" />
    </linearGradient>
    <radialGradient
       r="117.14286"
       fy="486.64789"
       fx="605.71429"
       cy="486.64789"
       cx="605.71429"
       gradientTransform="matrix(0.02303995,0,0,0.01470022,26.488415,37.001619)"
       gradientUnits="userSpaceOnUse"
       id="radialGradient3563"
       xlink:href="#linearGradient5060-1"
       inkscape:collect="always" />
  </defs>
  <path
     d="m 46,39.499867 c 0.0011,3.589753 -9.848934,6.500001 -22,6.500001 -12.151066,0 -22.001133,-2.910248 -21.9999999,-6.500001 C 1.998867,35.910116 11.848934,32.999868 24,32.999868 c 12.151066,0 22.001133,2.910248 22,6.499999 l 0,0 z"
     id="path23417"
     style="opacity:0.3;fill:url(#radialGradient2475);fill-opacity:1;fill-rule:evenodd;stroke:none;stroke-width:2;marker:none;visibility:visible;display:inline;overflow:visible" />
  <path
     d="M 44.5,24 C 44.5,12.637039 35.362959,3.5 24,3.5 12.637038,3.5 3.5000001,12.63704 3.5000001,24 3.4999981,35.36296 12.637039,44.5 24,44.5 35.362958,44.499998 44.5,35.362961 44.5,24 z m -13,0 c 0,4.12813 -3.28927,7.5 -7.5,7.5 -4.29333,0 -7.5,-3.455313 -7.5,-7.5 0,-4.127303 3.041467,-7.5 7.5,-7.5 4.458533,0 7.5,3.45447 7.5,7.5 z"
     id="path2781"
     style="fill:url(#linearGradient2470);fill-rule:nonzero;stroke:url(#linearGradient2472);stroke-width:1;stroke-miterlimit:4;stroke-opacity:1" />
  <path
     d="m 24,16 c -4.416,0 -8,3.584 -8,8 0,4.416 3.584,8 8,8 4.416,0 8,-3.584 8,-8 0,-4.416 -3.584,-8 -8,-8 z m 0,4 c 2.208,0 4,1.792 4,4 0,2.208 -1.792,4 -4,4 -2.208,0 -4,-1.792 -4,-4 0,-2.208 1.792,-4 4,-4 z"
     id="path2474"
     style="opacity:0.5;fill:#ffffff;fill-opacity:1;fill-rule:nonzero;stroke:none;stroke-width:1;marker:none;visibility:visible;display:inline;overflow:visible;enable-background:accumulate" />
  <path
     d="m 24,16.5 c -4.14,0 -7.5,3.36 -7.5,7.5 0,4.14 3.36,7.5 7.5,7.5 4.14,0 7.5,-3.36 7.5,-7.5 0,-4.14 -3.36,-7.5 -7.5,-7.5 z m 0,3.75 c 2.07,0 3.75,1.68 3.75,3.75 0,2.07 -1.68,3.75 -3.75,3.75 -2.07,0 -3.75,-1.68 -3.75,-3.75 0,-2.07 1.68,-3.75 3.75,-3.75 z"
     id="path3418"
     style="fill:none;stroke:url(#linearGradient2465);stroke-width:1;stroke-linecap:butt;stroke-linejoin:round;stroke-miterlimit:4;stroke-opacity:1;stroke-dasharray:none;stroke-dashoffset:0;marker:none;visibility:visible;display:inline;overflow:visible;enable-background:accumulate" />
  <path
     d="m 24,15.499999 c -4.711429,0 -8.5,3.788571 -8.5,8.5 0,4.711429 3.788571,8.500001 8.5,8.500001 4.711431,0 8.5,-3.788572 8.5,-8.500001 0,-4.711429 -3.788569,-8.5 -8.5,-8.5 l 0,0 0,0 0,0 z"
     id="path3281"
     style="opacity:0.8;fill:none;stroke:url(#linearGradient2462);stroke-width:0.99999982;stroke-miterlimit:4;stroke-opacity:1" />
  <g
     id="g3527">
    <path
       d="M 15.856928,5.7307748 20.625,16.34375 C 21.660403,15.885186 22.795334,15.625 24,15.625 c 0.03206,0 0.06178,-3.6e-4 0.09375,0 L 24.10801,4.0047512 c -2.94215,-0.070687 -5.543041,0.6572865 -8.251083,1.7260236 l 10e-7,0 z"
       transform="matrix(0.9996011,0.02824295,-0.02824295,0.9996011,0.6924114,-0.6708346)"
       id="path3296"
       style="opacity:0.8;fill:url(#linearGradient3346);fill-opacity:1;fill-rule:nonzero;stroke:none" />
    <path
       d="m 12.121471,7.9060109 6.931026,9.3601041 c 0.913109,-0.669755 1.965938,-1.167064 3.142629,-1.425169 0.03132,-0.0069 0.06026,-0.01359 0.09157,-0.02009 L 19.857174,4.426276 c -2.888973,0.5613244 -5.31953,1.8556038 -7.735703,3.4797349 l 0,0 z"
       id="path3308"
       style="opacity:0.8;fill:url(#linearGradient3348);fill-opacity:1;fill-rule:nonzero;stroke:none" />
    <path
       d="m 8.2523933,11.646535 9.2137237,7.155818 c 0.70865,-0.883264 1.596891,-1.636119 2.666685,-2.18998 0.02847,-0.01474 0.05469,-0.02872 0.08325,-0.0431 L 14.86585,6.2506132 C 12.220599,7.5405321 10.165881,9.452393 8.2523933,11.646535 z"
       id="path3310"
       style="opacity:0.8;fill:url(#linearGradient3350);fill-opacity:1;fill-rule:nonzero;stroke:none" />
    <path
       d="m 5.6328855,16.073974 c 7.1748065,2.242248 7.8502625,7.031463 12.7767855,1.754127 L 10.499985,9.1321388 C 8.2787249,11.062747 6.9132871,13.459349 5.6328855,16.073974 z"
       id="path3312"
       style="opacity:0.8;fill:url(#linearGradient3352);fill-opacity:1;fill-rule:nonzero;stroke:none" />
    <path
       d="M 7.155289,13.193173 C 5.9722117,14.945185 5.2475768,16.829547 4.6301929,18.837116 L 15.96875,21.8125 C 16.184264,21.049497 16.486796,20.297733 16.9375,19.59375 16.95479,19.56675 16.98246,19.52673 17,19.5 L 7.155289,13.193173 z"
       id="path3314"
       style="opacity:0.8;fill:url(#linearGradient3354);fill-opacity:1;fill-rule:nonzero;stroke:none" />
  </g>
  <path
     d="m 24.000001,4.5000009 c -10.808572,0 -19.5000015,8.6914301 -19.5000015,19.5000001 0,10.808571 8.6914295,19.499998 19.5000015,19.499998 C 34.808573,43.499999 43.5,34.808572 43.5,24.000001 43.5,13.191431 34.808573,4.5000009 24.000001,4.5000009 l 0,0 0,0 z"
     id="path3272"
     style="opacity:0.4;fill:none;stroke:url(#linearGradient2453);stroke-width:0.99999994;stroke-miterlimit:4;stroke-opacity:1" />
  <g
     transform="matrix(-1,0,0,-1,48.999999,47.990833)"
     id="g3297">
    <path
       d="M 15.856928,5.7307748 20.625,16.34375 C 21.660403,15.885186 22.795334,15.625 24,15.625 c 0.03206,0 0.06178,-3.6e-4 0.09375,0 L 24.10801,4.0047512 c -2.94215,-0.070687 -5.543041,0.6572865 -8.251083,1.7260236 l 10e-7,0 z"
       transform="matrix(0.9996011,0.02824295,-0.02824295,0.9996011,0.6924114,-0.6708346)"
       id="path3299"
       style="opacity:0.8;fill:url(#linearGradient3311);fill-opacity:1;fill-rule:nonzero;stroke:none" />
    <path
       d="m 12.121471,7.9060109 6.931026,9.3601041 c 0.913109,-0.669755 1.965938,-1.167064 3.142629,-1.425169 0.03132,-0.0069 0.06026,-0.01359 0.09157,-0.02009 L 19.857174,4.426276 c -2.888973,0.5613244 -5.31953,1.8556038 -7.735703,3.4797349 l 0,0 z"
       id="path3301"
       style="opacity:0.8;fill:url(#linearGradient3313);fill-opacity:1;fill-rule:nonzero;stroke:none" />
    <path
       d="m 8.2523933,11.646535 9.2137237,7.155818 c 0.70865,-0.883264 1.596891,-1.636119 2.666685,-2.18998 0.02847,-0.01474 0.05469,-0.02872 0.08325,-0.0431 L 14.86585,6.2506132 C 12.220599,7.5405321 10.165881,9.452393 8.2523933,11.646535 z"
       id="path3303"
       style="opacity:0.8;fill:url(#linearGradient3315);fill-opacity:1;fill-rule:nonzero;stroke:none" />
    <path
       d="m 5.6328855,16.073974 c 7.1748065,2.242248 7.8502625,7.031463 12.7767855,1.754127 L 10.499985,9.1321388 C 8.2787249,11.062747 6.9132871,13.459349 5.6328855,16.073974 z"
       id="path3305"
       style="opacity:0.8;fill:url(#linearGradient3317);fill-opacity:1;fill-rule:nonzero;stroke:none" />
    <path
       d="M 7.155289,13.193173 C 5.9722117,14.945185 5.2475768,16.829547 4.6301929,18.837116 L 15.96875,21.8125 C 16.184264,21.049497 16.486796,20.297733 16.9375,19.59375 16.95479,19.56675 16.98246,19.52673 17,19.5 L 7.155289,13.193173 z"
       id="path3307"
       style="opacity:0.8;fill:url(#linearGradient3319);fill-opacity:1;fill-rule:nonzero;stroke:none" />
  </g>
  <path
     d="m 23.950002,46.000087 c 0,0 0,1.99989 0,1.99989 C 23.143387,48.003743 22,47.551903 22,46.999903 c 0,-0.552 0.900121,-0.999816 1.950002,-0.999816 z"
     id="path2881"
     style="opacity:0.15;fill:url(#radialGradient3616);fill-opacity:1;fill-rule:nonzero;stroke:none;stroke-width:1;marker:none;visibility:visible;display:inline;overflow:visible" />
  <path
     d="m 45.050024,46.000087 c 0,0 0,1.99989 0,1.99989 0.806614,0.0038 1.950002,-0.448074 1.950002,-1.000074 0,-0.552 -0.900122,-0.999816 -1.950002,-0.999816 z"
     id="path2883"
     style="opacity:0.15;fill:url(#radialGradient3613);fill-opacity:1;fill-rule:nonzero;stroke:none;stroke-width:1;marker:none;visibility:visible;display:inline;overflow:visible" />
  <path
     inkscape:connector-curvature="0"
     d="m 44.534646,3.2465099 c -6.376075,1.021157 -12.76981,3.137759 -19.140887,4.185 -1.734076,0.871501 -1.051928,3.4851761 -1.163656,5.0465151 -2e-6,6.75523 0,13.510461 0,20.265691 -4.452249,-0.993761 -9.961932,2.484979 -10,7.210516 -0.200455,3.034652 3.032923,5.549162 5.974115,5.271244 3.986894,-0.20477 7.452776,-4.072597 7.025885,-8.202614 0,-6.755964 0,-14.864388 0,-21.620352 5.258179,-0.759314 10.742033,-2.893252 16,-3.654 -2e-6,5.207952 0,11.468731 0,16.676684 -4.26632,-1.230911 -9.293044,1.590805 -10,6.101639 -0.5,3.219677 1.104204,5.659952 3.637792,6.419677 4.742602,1.556922 9.921552,-3.36485 9.362208,-8.275342 -0.01323,-9.210669 0.03994,-18.421365 0,-27.6320051 -0.111451,-0.915525 -0.699748,-1.838945 -1.695457,-1.792653 z"
     id="path3406"
     style="fill:#4d4d4d;fill-opacity:1;stroke:#333333;stroke-width:1;stroke-linecap:round;stroke-linejoin:round;stroke-miterlimit:4;stroke-opacity:1;stroke-dasharray:none" />
  <path
     inkscape:connector-curvature="0"
     d="m 43.730104,28.54293 0.07544,-17.562143 c 0.79498,-0.08648 -0.153966,-0.01395 0.918032,-0.143462 0.0147,3.280431 0,5.489918 0,17.879231 0,0.09219 -0.166837,-0.04627 -0.993469,-0.173626 l 4e-6,0 z"
     id="path3996"
     style="opacity:0.4;fill:url(#linearGradient2910);fill-opacity:1;fill-rule:evenodd;stroke:none" />
  <path
     inkscape:connector-curvature="0"
     d="m 45.547511,33.463 c 0,3.130207 -2.751913,6.136863 -6.14657,6.715552 -3.394657,0.578691 -6.14657,-1.489722 -6.14657,-4.619929 0,-3.130208 2.751913,-6.136866 6.14657,-6.715555 3.394657,-0.578691 6.14657,1.489724 6.14657,4.619932 z"
     id="path2716"
     style="opacity:0.6;fill:url(#radialGradient2907);fill-opacity:1;stroke:none" />
  <path
     inkscape:connector-curvature="0"
     d="m 24.730103,33.034651 10e-6,-23.3828541 c 0,0 0.122911,-1.705785 1.234971,-1.710287 0.09662,0.166845 18.761715,-4.195 18.761715,-4.195 0,0 0.39397,0.786129 -7.422062,2.734333 -9.480154,2.363 -11.760921,2.863667 -11.760921,4.0460441 0,3.487612 0,10.520717 0,23.219623 -0.247025,-0.21017 -0.318254,-0.428721 -0.813703,-0.554237 l -10e-6,-0.157622 z"
     id="path2720"
     style="opacity:0.4;fill:url(#linearGradient2904);fill-opacity:1;fill-rule:evenodd;stroke:none" />
  <path
     inkscape:connector-curvature="0"
     d="m 26.587081,38.024412 c 0,3.027596 -2.6136,5.93569 -5.837641,6.49541 -3.224042,0.559721 -5.837644,-1.440887 -5.837644,-4.468485 0,-3.027595 2.613602,-5.935691 5.837644,-6.495412 3.224041,-0.55972 5.837641,1.44089 5.837641,4.468487 z"
     id="path2712"
     style="opacity:0.6;fill:url(#radialGradient2901);fill-opacity:1;stroke:none" />
  <path
     inkscape:connector-curvature="0"
     d="m 49.730103,42.74651 c 0,2.761424 -8.954306,5 -20,5 -11.045694,0 -19.9999995,-2.238576 -19.9999995,-5 0,-2.761424 8.9543055,-5 19.9999995,-5 11.045694,0 20,2.238576 20,5 l 0,0 z"
     id="path8836"
     style="opacity:0.15;fill:url(#radialGradient3094);fill-opacity:1;fill-rule:evenodd;stroke:none;stroke-width:0.99999988;marker:none;visibility:visible;display:inline;overflow:visible" />
  <path
     inkscape:connector-curvature="0"
     style="opacity:0.3;fill:url(#radialGradient3563);fill-opacity:1;fill-rule:nonzero;stroke:none;stroke-width:1;marker:none;visibility:visible;display:inline;overflow:visible"
     id="path2883-0"
     d="m 40.373681,42.391545 c 0,0 0,3.569856 0,3.569856 1.1865,0.0067 2.86838,-0.799823 2.86838,-1.785158 0,-0.985333 -1.324045,-1.784697 -2.86838,-1.784698 z" />
  <g
     id="g5278"
     transform="translate(41.565356,-24.998428)">
    <path
       inkscape:connector-curvature="0"
       id="path2262"
       style="fill:url(#linearGradient6015);fill-rule:evenodd;stroke:#42770c;stroke-linejoin:round"
       d="m -6.3336,60.032 v -5.0014 h 6.9665 v 5.0014 h 5.0014 v 7 H 0.6329 v 5 h -6.9726 l -0.027688,-5 h -4.9997 v -7 h 5.0335 z" />
    <path
       inkscape:connector-curvature="0"
       id="path2272"
       style="opacity:0.6;fill:none;stroke:url(#linearGradient3524)"
       d="m -5.3671,61.032 v -5 h 5.0014 v 5 h 4.9986 v 4.9259 l -4.9986,-0.01562 v 5.0897 h -5.0014 v -5 h -5 v -5 h 5 z" />
  </g>
</svg>
