<?xml version="1.0" encoding="UTF-8" standalone="no"?>
<!-- Created with Inkscape (http://www.inkscape.org/) -->

<svg
   xmlns:dc="http://purl.org/dc/elements/1.1/"
   xmlns:cc="http://creativecommons.org/ns#"
   xmlns:rdf="http://www.w3.org/1999/02/22-rdf-syntax-ns#"
   xmlns:svg="http://www.w3.org/2000/svg"
   xmlns="http://www.w3.org/2000/svg"
   xmlns:xlink="http://www.w3.org/1999/xlink"
   xmlns:sodipodi="http://sodipodi.sourceforge.net/DTD/sodipodi-0.dtd"
   xmlns:inkscape="http://www.inkscape.org/namespaces/inkscape"
   id="svg3134"
   height="48"
   width="48"
   version="1.1"
   inkscape:version="0.48.1 r9760"
   sodipodi:docname="contact-new.svg">
  <metadata
     id="metadata76">
    <rdf:RDF>
      <cc:Work
         rdf:about="">
        <dc:format>image/svg+xml</dc:format>
        <dc:type
           rdf:resource="http://purl.org/dc/dcmitype/StillImage" />
      </cc:Work>
    </rdf:RDF>
  </metadata>
  <sodipodi:namedview
     pagecolor="#ffffff"
     bordercolor="#666666"
     borderopacity="1"
     objecttolerance="10"
     gridtolerance="10"
     guidetolerance="10"
     inkscape:pageopacity="0"
     inkscape:pageshadow="2"
     inkscape:window-width="882"
     inkscape:window-height="721"
     id="namedview74"
     showgrid="false"
     inkscape:zoom="6.6041667"
     inkscape:cx="24"
     inkscape:cy="25.892744"
     inkscape:window-x="7"
     inkscape:window-y="24"
     inkscape:window-maximized="0"
     inkscape:current-layer="svg3134" />
  <defs
     id="defs3136">
    <linearGradient
       id="linearGradient2098"
       y2="39.999"
       gradientUnits="userSpaceOnUse"
       x2="25.058"
       y1="47.028"
       x1="25.058">
      <stop
         id="stop3704"
         style="stop-opacity:0"
         offset="0" />
      <stop
         id="stop3710"
         offset=".5" />
      <stop
         id="stop3706"
         style="stop-opacity:0"
         offset="1" />
    </linearGradient>
    <radialGradient
       id="radialGradient2096"
       xlink:href="#linearGradient3688"
       gradientUnits="userSpaceOnUse"
       cy="43.5"
       cx="4.993"
       gradientTransform="matrix(2.0038,0,0,1.4,-20.012,-104.4)"
       r="2.5" />
    <linearGradient
       id="linearGradient3688">
      <stop
         id="stop3690"
         offset="0" />
      <stop
         id="stop3692"
         style="stop-opacity:0"
         offset="1" />
    </linearGradient>
    <radialGradient
       id="radialGradient2094"
       xlink:href="#linearGradient3688"
       gradientUnits="userSpaceOnUse"
       cy="43.5"
       cx="4.993"
       gradientTransform="matrix(2.0038,0,0,1.4,27.988,-17.4)"
       r="2.5" />
    <linearGradient
       id="linearGradient1992"
       y2="34.609"
       xlink:href="#linearGradient4585"
       gradientUnits="userSpaceOnUse"
       x2="8.4886"
       y1="18.345"
       x1="9.1178" />
    <linearGradient
       id="linearGradient1990"
       y2="36.625"
       xlink:href="#linearGradient6732"
       gradientUnits="userSpaceOnUse"
       x2="31.5"
       gradientTransform="matrix(0.85804,0,0,0.8,-0.93222,9.3)"
       y1=".75951"
       x1="11.511" />
    <linearGradient
       id="linearGradient6732">
      <stop
         id="stop6734"
         style="stop-color:#fff"
         offset="0" />
      <stop
         id="stop6736"
         style="stop-color:#ddd"
         offset="1" />
    </linearGradient>
    <linearGradient
       id="linearGradient4585">
      <stop
         id="stop4587"
         style="stop-color:#9e9e9e"
         offset="0" />
      <stop
         id="stop4589"
         style="stop-color:#ddd;stop-opacity:0"
         offset="1" />
    </linearGradient>
    <linearGradient
       id="linearGradient5211"
       y2="47.273"
       gradientUnits="userSpaceOnUse"
       x2="24.139"
       gradientTransform="matrix(.53643 0 0 .53320 -15.688 50.169)"
       y1="-9.8009"
       x1="24.139">
      <stop
         id="stop4224"
         style="stop-color:#fff"
         offset="0" />
      <stop
         id="stop4226"
         style="stop-color:#fff;stop-opacity:0"
         offset="1" />
    </linearGradient>
    <linearGradient
       id="linearGradient5209"
       y2="32.485"
       gradientUnits="userSpaceOnUse"
       x2="24.104"
       gradientTransform="matrix(.89305 0 0 .88766 -24.247 42.161)"
       y1="15.169"
       x1="24.104">
      <stop
         id="stop2266"
         style="stop-color:#d7e866"
         offset="0" />
      <stop
         id="stop2268"
         style="stop-color:#8cab2a"
         offset="1" />
    </linearGradient>
    <linearGradient
       id="linearGradient2915"
       y2="34.609"
       xlink:href="#linearGradient4585"
       gradientUnits="userSpaceOnUse"
       x2="8.4886"
       gradientTransform="matrix(1.3028004,0,0,1.2272532,-1.4283642,-11.615128)"
       y1="18.345"
       x1="9.1178" />
    <linearGradient
       id="linearGradient2934"
       y2="36.625"
       xlink:href="#linearGradient6732"
       gradientUnits="userSpaceOnUse"
       x2="31.5"
       gradientTransform="matrix(1.1017141,0,0,0.99075753,-2.1411881,-0.47196393)"
       y1=".75951"
       x1="11.511" />
    <linearGradient
       id="linearGradient6015"
       y2="32.485001"
       gradientUnits="userSpaceOnUse"
       x2="24.104"
       gradientTransform="matrix(0.89305,0,0,0.88766,-24.247,42.161)"
       y1="15.169"
       x1="24.104">
      <stop
         id="stop2266-9"
         style="stop-color:#d7e866"
         offset="0" />
      <stop
         id="stop2268-6"
         style="stop-color:#8cab2a"
         offset="1" />
    </linearGradient>
    <linearGradient
       id="linearGradient6017"
       y2="47.272999"
       gradientUnits="userSpaceOnUse"
       x2="24.139"
       gradientTransform="matrix(0.53643,0,0,0.5332,-15.688,50.169)"
       y1="-9.8009005"
       x1="24.139">
      <stop
         id="stop4224-0"
         style="stop-color:#fff"
         offset="0" />
      <stop
         id="stop4226-4"
         style="stop-color:#fff;stop-opacity:0"
         offset="1" />
    </linearGradient>
    <linearGradient
       y2="47.272999"
       x2="24.139"
       y1="-9.8009005"
       x1="24.139"
       gradientTransform="matrix(0.53643,0,0,0.5332,-15.688,50.169)"
       gradientUnits="userSpaceOnUse"
       id="linearGradient3387"
       xlink:href="#linearGradient6017"
       inkscape:collect="always" />
  </defs>
  <g
     id="g2043"
     transform="matrix(1.1816783,0,0,0.66156882,-4.3001969,8.9080809)">
    <g
       id="g2036">
      <g
         id="g3712"
         style="opacity:0.4"
         transform="matrix(1.0526,0,0,1.2857,-1.2632,-13.429)">
        <rect
           id="rect2801"
           style="fill:url(#radialGradient2094)"
           height="7"
           width="5"
           y="40"
           x="38" />
        <rect
           id="rect3696"
           style="fill:url(#radialGradient2096)"
           transform="scale(-1,-1)"
           height="7"
           width="5"
           y="-47"
           x="-10" />
        <rect
           id="rect3700"
           style="fill:url(#linearGradient2098)"
           height="7"
           width="28"
           y="40"
           x="10" />
      </g>
    </g>
  </g>
  <g
     id="g1962"
     transform="matrix(1.1816783,0,0,1.1908143,0.42651628,-10.012768)">
    <rect
       id="rect5857"
       style="fill:url(#linearGradient1990);fill-rule:evenodd;stroke:#939393"
       rx="2.75"
       ry="2.75"
       height="24"
       width="34"
       y="16.5"
       x="2.5" />
    <path
       id="text6970"
       d="m 18.395,22.589 c 0,0.29414 -0.06929,0.51971 -0.20785,0.67672 -0.13857,0.15597 -0.32753,0.23395 -0.56687,0.23395 -0.09763,0 -0.19106,-0.01832 -0.28029,-0.05495 v -0.41765 c 0.07874,0.05967 0.16587,0.0895 0.26139,0.0895 0.11758,0 0.20575,-0.04344 0.26454,-0.13032 0.05983,-0.08793 0.08975,-0.21929 0.08975,-0.3941 v -1.3927 H 18.395 v 1.3896 m 1.2266,-0.80391 c 0.24564,2e-6 0.44142,0.07537 0.58734,0.2261 0.14591,0.15073 0.21887,0.35328 0.21887,0.60764 0,0.27634 -0.07821,0.49197 -0.23462,0.64689 -0.15641,0.15387 -0.36636,0.23081 -0.62985,0.23081 -0.2425,0 -0.43985,-0.07589 -0.59207,-0.22767 -0.15116,-0.15178 -0.22675,-0.35066 -0.22675,-0.59665 0,-0.27634 0.07926,-0.49302 0.23778,-0.65003 0.15851,-0.15806 0.37161,-0.23709 0.6393,-0.23709 m -0.03622,1.3739 c 0.12807,0 0.23199,-0.04553 0.31178,-0.1366 0.08083,-0.09211 0.12125,-0.2172 0.12125,-0.37526 0,-0.16015 -0.03989,-0.28629 -0.11967,-0.3784 -0.07979,-0.09316 -0.18214,-0.13974 -0.30705,-0.13974 -0.12388,1e-6 -0.22885,0.04867 -0.31493,0.14602 -0.08608,0.0963 -0.12912,0.22348 -0.12912,0.38154 0,0.15597 0.04199,0.27896 0.12597,0.36898 0.08503,0.08898 0.18895,0.13346 0.31178,0.13346 m 2.6753,0.29204 h -0.42201 v -0.88084 c 0,-0.14759 -0.02257,-0.25436 -0.06771,-0.32031 -0.04515,-0.06699 -0.1223,-0.10049 -0.23148,-0.10049 -0.09553,1e-6 -0.17479,0.03611 -0.23777,0.10834 -0.06299,0.07223 -0.09448,0.16434 -0.09448,0.27634 v 0.91696 h -0.42673 v -2.3803 h 0.42673 v 0.99703 c 0.05774,-0.09421 0.12964,-0.16486 0.21573,-0.21197 0.08713,-0.0471 0.18843,-0.07065 0.3039,-0.07066 0.17741,2e-6 0.31073,0.05496 0.39996,0.16486 0.08923,0.10991 0.13384,0.27477 0.13385,0.49459 v 1.0065 m 1.9337,0 h -0.42201 v -0.88084 c 0,-0.14759 -0.02257,-0.25436 -0.06771,-0.32031 -0.04514,-0.06699 -0.12229,-0.10049 -0.23147,-0.10049 -0.09553,1e-6 -0.17478,0.03611 -0.23777,0.10834 -0.06299,0.07223 -0.09448,0.16434 -0.09448,0.27634 v 0.91696 h -0.42673 v -1.6078 h 0.42673 v 0.22453 c 0.05774,-0.09421 0.12965,-0.16486 0.21573,-0.21197 0.08712,-0.0471 0.18842,-0.07065 0.3039,-0.07066 0.17741,2e-6 0.31073,0.05496 0.39996,0.16486 0.08923,0.10991 0.13385,0.27477 0.13385,0.49459 v 1.0065 m 1.381,-2.2516 h 0.79047 c 0.38211,2e-6 0.6687,0.09159 0.85976,0.27477 0.1921,0.18318 0.28815,0.45743 0.28815,0.82275 0,0.35276 -0.10812,0.63328 -0.32437,0.84159 -0.21521,0.2083 -0.50704,0.31246 -0.87551,0.31246 h -0.7385 v -2.2516 m 0.43932,1.9046 h 0.28974 c 0.23724,0 0.42358,-0.07066 0.559,-0.21197 0.13647,-0.14131 0.20469,-0.33444 0.2047,-0.57938 -10e-6,-0.23761 -0.06614,-0.42236 -0.1984,-0.55426 -0.13228,-0.13189 -0.31651,-0.19784 -0.5527,-0.19784 H 26.0147 v 1.5434 m 2.6265,-1.3189 c 0.24564,2e-6 0.44142,0.07537 0.58734,0.2261 0.14591,0.15073 0.21888,0.35328 0.21888,0.60764 0,0.27634 -0.07821,0.49197 -0.23462,0.64689 -0.15642,0.15387 -0.36637,0.23081 -0.62986,0.23081 -0.2425,0 -0.43985,-0.07589 -0.59207,-0.22767 -0.15117,-0.15178 -0.22675,-0.35066 -0.22675,-0.59665 0,-0.27634 0.07926,-0.49302 0.23777,-0.65003 0.15851,-0.15806 0.37162,-0.23709 0.63931,-0.23709 m -0.03622,1.3739 c 0.12807,0 0.232,-0.04553 0.31178,-0.1366 0.08083,-0.09211 0.12125,-0.2172 0.12125,-0.37526 0,-0.16015 -0.0399,-0.28629 -0.11968,-0.3784 -0.07978,-0.09316 -0.18213,-0.13974 -0.30705,-0.13974 -0.12388,10e-7 -0.22885,0.04867 -0.31493,0.14602 -0.08608,0.0963 -0.12912,0.22348 -0.12912,0.38154 0,0.15597 0.04199,0.27896 0.12597,0.36898 0.08503,0.08898 0.18896,0.13346 0.31178,0.13346 m 2.5824,-0.41922 h -1.0739 c 0,0.13189 0.04041,0.23447 0.12125,0.30774 0.08188,0.07223 0.19525,0.10834 0.34012,0.10834 0.15956,1e-6 0.31336,-0.04763 0.46137,-0.14288 v 0.34857 c -0.16586,0.08583 -0.35167,0.12875 -0.55742,0.12875 -0.2488,0 -0.44352,-0.07275 -0.58419,-0.21825 -0.13962,-0.1455 -0.20944,-0.34438 -0.20944,-0.59665 0,-0.27216 0.07454,-0.48883 0.22361,-0.65003 0.15011,-0.16224 0.34747,-0.24337 0.59206,-0.24337 0.2152,2e-6 0.38316,0.06699 0.50389,0.20098 0.12177,0.13294 0.18266,0.31874 0.18266,0.5574 v 0.19941 m -0.39367,-0.28262 c 0,-0.112 -0.02834,-0.1994 -0.08503,-0.26221 -0.05563,-0.0628 -0.13489,-0.09421 -0.23777,-0.09421 -0.09342,2e-6 -0.17426,0.03245 -0.24249,0.09735 -0.06824,0.06385 -0.10655,0.15021 -0.11495,0.25907 h 0.68024"
       inkscape:connector-curvature="0" />
    <rect
       id="rect6978"
       style="opacity:0.39765996;fill:#8d8d8d;fill-rule:evenodd"
       rx="1"
       ry="1"
       height="2"
       width="15"
       y="25"
       x="17" />
    <rect
       id="rect6980"
       style="opacity:0.39765996;fill:#8d8d8d;fill-rule:evenodd"
       rx="1"
       ry="1"
       height="2"
       width="10.956"
       y="28"
       x="17.089001" />
    <g
       id="g7033"
       style="opacity:0.48537999"
       transform="matrix(0.78254,0,0,0.65025,0.39068,14.551)">
      <rect
         id="rect7003"
         style="fill-rule:evenodd"
         rx="0"
         ry="0"
         height="6"
         width="1"
         y="30"
         x="6" />
      <rect
         id="rect7005"
         style="fill-rule:evenodd"
         rx="0"
         ry="0"
         height="2.9851999"
         width="1.9375"
         y="30"
         x="8.0846004" />
      <rect
         id="rect7007"
         style="fill-rule:evenodd"
         height="2.9851999"
         width="1"
         y="30"
         x="11" />
      <rect
         id="rect7009"
         style="fill-rule:evenodd"
         height="2.9851999"
         width="2"
         y="30"
         x="13" />
      <rect
         id="rect7011"
         style="fill-rule:evenodd"
         height="2.9851999"
         width="1"
         y="30"
         x="16" />
      <rect
         id="rect7013"
         style="fill-rule:evenodd"
         height="2.9851999"
         width="1"
         y="30"
         x="18" />
      <rect
         id="rect7015"
         style="fill-rule:evenodd"
         height="2.9851999"
         width="1"
         y="30"
         x="21" />
      <rect
         id="rect7017"
         style="fill-rule:evenodd"
         height="2.9851999"
         width="2"
         y="30"
         x="23" />
      <rect
         id="rect7019"
         style="fill-rule:evenodd"
         height="2.9851999"
         width="2"
         y="30"
         x="26" />
      <rect
         id="rect7021"
         style="fill-rule:evenodd"
         height="2.9851999"
         width="1"
         y="30"
         x="29" />
      <rect
         id="rect7023"
         style="fill-rule:evenodd"
         height="2.9851999"
         width="1"
         y="30"
         x="31" />
      <rect
         id="rect7025"
         style="fill-rule:evenodd"
         height="2.9851999"
         width="1"
         y="30"
         x="33" />
      <rect
         id="rect7027"
         style="fill-rule:evenodd"
         height="2.9851999"
         width="2"
         y="30"
         x="35" />
      <rect
         id="rect7029"
         style="fill-rule:evenodd"
         height="2.9851999"
         width="2"
         y="30"
         x="39" />
      <rect
         id="rect7031"
         style="fill-rule:evenodd"
         height="6"
         width="1"
         y="30"
         x="42" />
    </g>
    <path
       id="text7050"
       d="m 7.473,37.137 c 0.058659,0.01251 0.10438,0.03852 0.13714,0.07805 0.033172,0.03953 0.049762,0.08834 0.049762,0.14643 0,0.08915 -0.030746,0.15813 -0.092238,0.20694 -0.061492,0.04881 -0.14887,0.07322 -0.26214,0.07322 -0.038031,0 -0.077276,-0.0038 -0.11772,-0.0115 -0.040051,-0.0073 -0.081517,-0.01835 -0.1244,-0.03328 v -0.11799 c 0.033986,0.01977 0.071204,0.03469 0.11165,0.04478 0.040458,0.01009 0.082731,0.01513 0.12683,0.01513 0.076869,0 0.13532,-0.01513 0.17538,-0.04538 0.04045,-0.03025 0.060678,-0.07422 0.060678,-0.13191 0,-0.05325 -0.018812,-0.0948 -0.056429,-0.12465 -0.037225,-0.03025 -0.089209,-0.04538 -0.15595,-0.04538 h -0.10559 v -0.10044 h 0.11044 c 0.06028,10e-7 0.1064,-0.0119 0.13835,-0.0357 0.031959,-0.0242 0.047938,-0.05889 0.047938,-0.10407 0,-0.04639 -0.016582,-0.08189 -0.049754,-0.10649 -0.032773,-0.02501 -0.079905,-0.03752 -0.14139,-0.03752 -0.033579,0 -0.069584,0.0036 -0.10802,0.01089 -0.038438,0.0073 -0.080711,0.01856 -0.12683,0.03388 V 36.7431 c 0.046522,-0.01291 0.090008,-0.02259 0.13046,-0.02904 0.040857,-0.0065 0.079287,-0.0097 0.11529,-0.0097 0.093052,2e-6 0.16667,0.02118 0.22089,0.06353 0.054207,0.04195 0.081314,0.09883 0.081314,0.17063 0,0.05002 -0.014368,0.09238 -0.043087,0.12707 -0.028719,0.03429 -0.069583,0.05809 -0.12258,0.0714 m 0.52551,0.38423 h 0.42781 v 0.10286 h -0.57527 v -0.10286 c 0.04653,-0.048 0.10984,-0.11234 0.18994,-0.19302 0.080508,-0.08108 0.13108,-0.13332 0.1517,-0.15672 0.039245,-0.04397 0.066548,-0.08108 0.081924,-0.11134 0.015776,-0.03066 0.023665,-0.06071 0.023665,-0.09016 0,-0.048 -0.016989,-0.08713 -0.050975,-0.11739 -0.033579,-0.03025 -0.077472,-0.04538 -0.13168,-0.04538 -0.038431,0 -0.079092,0.0067 -0.12197,0.01997 -0.042484,0.01331 -0.087989,0.03348 -0.13654,0.06051 v -0.12344 c 0.049355,-0.01976 0.09547,-0.03469 0.13835,-0.04478 0.042883,-0.01008 0.082128,-0.01513 0.11773,-0.01513 0.09385,2e-6 0.16869,0.0234 0.22453,0.07019 0.055827,0.04679 0.08374,0.10932 0.08374,0.18758 0,0.03711 -0.00708,0.07241 -0.021238,0.10589 -0.013757,0.03308 -0.039041,0.07221 -0.075852,0.11738 -0.010118,0.0117 -0.04228,0.04558 -0.096487,0.10165 -0.054207,0.05567 -0.13067,0.13372 -0.22938,0.23417 m 1.0225,-0.69403 -0.30948,0.48225 h 0.30948 V 36.82717 M 8.988839,36.72068 h 0.15414 v 0.58874 h 0.12925 v 0.10165 h -0.12925 v 0.21299 h -0.12198 v -0.21299 h -0.409 v -0.11799 l 0.37683,-0.57241 m 0.48789,0 h 0.48121 v 0.10286 h -0.36895 v 0.22146 c 0.017803,-0.0061 0.035606,-0.01049 0.053401,-0.01331 0.017803,-0.0032 0.035605,-0.0048 0.0534,-0.0048 0.10114,1e-6 0.18124,0.02763 0.2403,0.0829 0.059066,0.05527 0.088599,0.13009 0.088599,0.22449 0,0.09722 -0.030347,0.17285 -0.091025,0.2269 -0.060686,0.05365 -0.14624,0.08048 -0.25669,0.08048 -0.038024,0 -0.076861,-0.0032 -0.1165,-0.0097 C 9.52122,37.62545 9.480567,37.61581 9.438494,37.6029 v -0.12283 c 0.036411,0.01977 0.074036,0.03449 0.11287,0.04417 0.03883,0.0097 0.079898,0.01452 0.12318,0.01452 0.069991,0 0.12541,-0.01835 0.16627,-0.05506 0.040857,-0.03671 0.061289,-0.08653 0.061289,-0.14946 0,-0.06293 -0.020432,-0.11275 -0.061289,-0.14946 -0.040864,-0.03671 -0.096283,-0.05506 -0.16627,-0.05506 -0.032765,0 -0.065538,0.0036 -0.098303,0.01089 -0.032366,0.0073 -0.065537,0.01856 -0.099515,0.03388 v -0.45381 m 1.4479,0.08047 c -0.06311,10e-7 -0.11064,0.03106 -0.1426,0.09318 -0.03156,0.06172 -0.04734,0.1547 -0.04734,0.27894 0,0.12384 0.01578,0.21682 0.04734,0.27894 0.03196,0.06172 0.07949,0.09258 0.1426,0.09258 0.06351,0 0.11105,-0.03086 0.1426,-0.09258 0.03196,-0.06212 0.04794,-0.1551 0.04794,-0.27894 0,-0.12424 -0.01598,-0.21722 -0.04794,-0.27894 -0.03155,-0.06212 -0.07909,-0.09318 -0.1426,-0.09318 m 0,-0.09681 c 0.10154,2e-6 0.17901,0.04014 0.23241,0.12041 0.0538,0.07987 0.0807,0.19605 0.0807,0.34853 0,0.15208 -0.0269,0.26825 -0.0807,0.34853 -0.0534,0.07987 -0.13087,0.11981 -0.23241,0.11981 -0.10154,0 -0.17922,-0.03993 -0.23302,-0.11981 -0.0534,-0.08027 -0.0801,-0.19645 -0.0801,-0.34853 0,-0.15248 0.0267,-0.26866 0.0801,-0.34853 0.0538,-0.08027 0.13147,-0.12041 0.23302,-0.12041 m 0.53036,0.01634 h 0.48121 v 0.10286 h -0.36894 V 37.045 c 0.0178,-0.0061 0.0356,-0.01049 0.0534,-0.01331 0.0178,-0.0032 0.0356,-0.0048 0.0534,-0.0048 0.10114,10e-7 0.18124,0.02763 0.2403,0.0829 0.05906,0.05527 0.08859,0.13009 0.08859,0.22449 0,0.09722 -0.03034,0.17285 -0.09102,0.2269 -0.06069,0.05365 -0.14625,0.08048 -0.25669,0.08048 -0.03802,0 -0.07686,-0.0032 -0.11651,-0.0097 -0.03924,-0.0065 -0.0799,-0.01614 -0.12197,-0.02905 v -0.12283 c 0.03641,0.01977 0.07403,0.03449 0.11287,0.04417 0.03884,0.0097 0.0799,0.01452 0.12319,0.01452 0.06998,0 0.12541,-0.01835 0.16627,-0.05506 0.04086,-0.03671 0.06129,-0.08653 0.06129,-0.14946 0,-0.06293 -0.02043,-0.11275 -0.06129,-0.14946 -0.04086,-0.03671 -0.09628,-0.05506 -0.16627,-0.05506 -0.03277,0 -0.06554,0.0036 -0.0983,0.01089 -0.03237,0.0073 -0.06554,0.01856 -0.09952,0.03388 v -0.45381 m 0.7913,0 h 0.48121 v 0.10286 h -0.36894 v 0.22146 c 0.01779,-0.0061 0.0356,-0.01049 0.0534,-0.01331 0.01779,-0.0032 0.0356,-0.0048 0.0534,-0.0048 0.10114,1e-6 0.18124,0.02763 0.2403,0.0829 0.05907,0.05527 0.0886,0.13009 0.0886,0.22449 0,0.09722 -0.03034,0.17285 -0.09103,0.2269 -0.06068,0.05365 -0.14624,0.08048 -0.25668,0.08048 -0.03803,0 -0.07687,-0.0032 -0.11651,-0.0097 -0.03924,-0.0065 -0.0799,-0.01614 -0.12197,-0.02905 v -0.12283 c 0.0364,0.01977 0.07403,0.03449 0.11287,0.04417 0.03884,0.0097 0.0799,0.01452 0.12319,0.01452 0.06998,0 0.1254,-0.01835 0.16627,-0.05506 0.04086,-0.03671 0.06129,-0.08653 0.06129,-0.14946 0,-0.06293 -0.02043,-0.11275 -0.06129,-0.14946 -0.04087,-0.03671 -0.09628,-0.05506 -0.16627,-0.05506 -0.03277,0 -0.06554,0.0036 -0.09831,0.01089 -0.03237,0.0073 -0.06554,0.01856 -0.09952,0.03388 V 36.7207 m 0.75914,0 h 0.58255 v 0.05204 l -0.3289,0.85135 h -0.12804 l 0.30948,-0.80052 h -0.43508 v -0.10286 m 1.2191,0 h 0.48121 v 0.10286 h -0.36895 v 0.22146 c 0.0178,-0.0061 0.03561,-0.01049 0.0534,-0.01331 0.0178,-0.0032 0.03561,-0.0048 0.0534,-0.0048 0.10114,1e-6 0.18124,0.02763 0.2403,0.0829 0.05907,0.05527 0.0886,0.13009 0.0886,0.22449 0,0.09722 -0.03035,0.17285 -0.09103,0.2269 -0.06069,0.05365 -0.14625,0.08048 -0.25669,0.08048 -0.03802,0 -0.07686,-0.0032 -0.1165,-0.0097 -0.03924,-0.0065 -0.0799,-0.01614 -0.12198,-0.02905 v -0.12283 c 0.03641,0.01977 0.07404,0.03449 0.11287,0.04417 0.03883,0.0097 0.0799,0.01452 0.12318,0.01452 0.06999,0 0.12541,-0.01835 0.16627,-0.05506 0.04087,-0.03671 0.06129,-0.08653 0.0613,-0.14946 -8e-6,-0.06293 -0.02043,-0.11275 -0.0613,-0.14946 -0.04086,-0.03671 -0.09628,-0.05506 -0.16627,-0.05506 -0.03277,0 -0.06554,0.0036 -0.0983,0.01089 -0.03237,0.0073 -0.06554,0.01856 -0.09952,0.03388 v -0.45381 m 0.81132,0.80052 h 0.20025 v -0.68919 l -0.21785,0.04357 v -0.11134 l 0.21664,-0.04357 h 0.12258 v 0.80052 h 0.20025 v 0.10286 h -0.52187 v -0.10286 m 1.0322,-0.72005 c -0.06311,10e-7 -0.11064,0.03106 -0.1426,0.09318 -0.03155,0.06172 -0.04733,0.1547 -0.04733,0.27894 0,0.12384 0.01578,0.21682 0.04733,0.27894 0.03196,0.06172 0.07949,0.09258 0.1426,0.09258 0.06351,0 0.11105,-0.03086 0.1426,-0.09258 0.03196,-0.06212 0.04794,-0.1551 0.04794,-0.27894 0,-0.12424 -0.01598,-0.21722 -0.04794,-0.27894 -0.03155,-0.06212 -0.07909,-0.09318 -0.1426,-0.09318 m 0,-0.09681 c 0.10154,2e-6 0.17901,0.04014 0.23242,0.12041 0.0538,0.07987 0.0807,0.19605 0.0807,0.34853 0,0.15208 -0.0269,0.26825 -0.0807,0.34853 -0.0534,0.07987 -0.13087,0.11981 -0.23242,0.11981 -0.10154,0 -0.17921,-0.03993 -0.23302,-0.11981 -0.0534,-0.08027 -0.0801,-0.19645 -0.0801,-0.34853 0,-0.15248 0.0267,-0.26866 0.0801,-0.34853 0.05381,-0.08027 0.13148,-0.12041 0.23302,-0.12041 m 0.80646,0.41932 c -0.05501,10e-7 -0.09871,0.01876 -0.13107,0.05627 -0.03196,0.03751 -0.04794,0.08895 -0.04794,0.1543 0,0.06494 0.01598,0.11638 0.04794,0.1543 0.03236,0.03751 0.07606,0.05627 0.13107,0.05627 0.05502,0 0.09851,-0.01876 0.13047,-0.05627 0.03236,-0.03792 0.04854,-0.08935 0.04854,-0.1543 0,-0.06535 -0.01618,-0.11678 -0.04854,-0.1543 -0.03196,-0.03751 -0.07545,-0.05627 -0.13047,-0.05627 m 0.24334,-0.38302 v 0.11134 c -0.03075,-0.01452 -0.0619,-0.02561 -0.09345,-0.03328 -0.03115,-0.0077 -0.06209,-0.0115 -0.09284,-0.0115 -0.08091,0 -0.14281,0.02723 -0.18569,0.08169 -0.04248,0.05446 -0.06675,0.13675 -0.07282,0.24687 0.02387,-0.03509 0.0538,-0.06192 0.08981,-0.08048 0.036,-0.01896 0.07565,-0.02844 0.11894,-0.02844 0.09102,10e-7 0.16283,0.02763 0.21542,0.0829 0.053,0.05486 0.0795,0.12969 0.0795,0.22449 0,0.09278 -0.02751,0.1672 -0.08253,0.22328 -0.05502,0.05607 -0.12824,0.08411 -0.21968,0.08411 -0.10478,0 -0.18488,-0.03993 -0.2403,-0.11981 -0.05543,-0.08027 -0.08314,-0.19645 -0.08314,-0.34853 0,-0.1428 0.03398,-0.25655 0.10195,-0.34127 0.06796,-0.08511 0.15918,-0.12767 0.27367,-0.12767 0.03075,2e-6 0.0617,0.003 0.09285,0.0091 0.03155,0.0061 0.06432,0.01513 0.0983,0.02723 m 0.6675,-0.01997 h 0.48121 v 0.10286 h -0.36895 v 0.22146 c 0.0178,-0.0061 0.03561,-0.01049 0.0534,-0.01331 0.0178,-0.0032 0.03561,-0.0048 0.0534,-0.0048 0.10114,10e-7 0.18124,0.02763 0.2403,0.0829 0.05907,0.05527 0.0886,0.13009 0.0886,0.22449 0,0.09722 -0.03035,0.17285 -0.09103,0.2269 -0.06069,0.05365 -0.14625,0.08048 -0.25669,0.08048 -0.03802,0 -0.07686,-0.0032 -0.1165,-0.0097 -0.03925,-0.0065 -0.0799,-0.01614 -0.12197,-0.02905 v -0.12283 c 0.03641,0.01977 0.07403,0.03449 0.11287,0.04417 0.03883,0.0097 0.0799,0.01452 0.12318,0.01452 0.06999,0 0.12541,-0.01835 0.16627,-0.05506 0.04086,-0.03671 0.06129,-0.08653 0.0613,-0.14946 -7e-6,-0.06293 -0.02043,-0.11275 -0.0613,-0.14946 -0.04086,-0.03671 -0.09628,-0.05506 -0.16627,-0.05506 -0.03277,0 -0.06554,0.0036 -0.0983,0.01089 -0.03237,0.0073 -0.06554,0.01856 -0.09952,0.03388 v -0.45381 m 1.1269,0.10649 -0.30948,0.48225 h 0.30948 v -0.48225 m -0.03216,-0.10649 h 0.15413 v 0.58874 h 0.12925 v 0.10165 h -0.12925 v 0.21299 h -0.12197 v -0.21299 h -0.409 v -0.11799 l 0.37684,-0.57241 m 0.74881,0.08047 c -0.06311,10e-7 -0.11064,0.03106 -0.1426,0.09318 -0.03155,0.06172 -0.04733,0.1547 -0.04733,0.27894 0,0.12384 0.01578,0.21682 0.04733,0.27894 0.03196,0.06172 0.07949,0.09258 0.1426,0.09258 0.06351,0 0.11105,-0.03086 0.1426,-0.09258 0.03196,-0.06212 0.04794,-0.1551 0.04794,-0.27894 0,-0.12424 -0.01598,-0.21722 -0.04794,-0.27894 -0.03155,-0.06212 -0.07909,-0.09318 -0.1426,-0.09318 m 0,-0.09681 c 0.10154,2e-6 0.17901,0.04014 0.23242,0.12041 0.0538,0.07987 0.0807,0.19605 0.0807,0.34853 0,0.15208 -0.0269,0.26825 -0.0807,0.34853 -0.0534,0.07987 -0.13087,0.11981 -0.23242,0.11981 -0.10154,0 -0.17922,-0.03993 -0.23302,-0.11981 -0.0534,-0.08027 -0.0801,-0.19645 -0.0801,-0.34853 0,-0.15248 0.0267,-0.26866 0.0801,-0.34853 0.0538,-0.08027 0.13147,-0.12041 0.23302,-0.12041 m 0.80646,0.41932 c -0.05501,10e-7 -0.09871,0.01876 -0.13107,0.05627 -0.03196,0.03751 -0.04794,0.08895 -0.04794,0.1543 0,0.06494 0.01598,0.11638 0.04794,0.1543 0.03236,0.03751 0.07606,0.05627 0.13107,0.05627 0.05502,0 0.09851,-0.01876 0.13047,-0.05627 0.03237,-0.03792 0.04855,-0.08935 0.04855,-0.1543 0,-0.06535 -0.01618,-0.11678 -0.04855,-0.1543 -0.03196,-0.03751 -0.07545,-0.05627 -0.13047,-0.05627 m 0.24334,-0.38302 v 0.11134 c -0.03075,-0.01452 -0.0619,-0.02561 -0.09345,-0.03328 -0.03115,-0.0077 -0.0621,-0.0115 -0.09284,-0.0115 -0.08092,0 -0.14281,0.02723 -0.18569,0.08169 -0.04248,0.05446 -0.06675,0.13675 -0.07282,0.24687 0.02387,-0.03509 0.05381,-0.06192 0.08981,-0.08048 0.03601,-0.01896 0.07565,-0.02844 0.11894,-0.02844 0.09103,10e-7 0.16283,0.02763 0.21542,0.0829 0.053,0.05486 0.0795,0.12969 0.0795,0.22449 0,0.09278 -0.02751,0.1672 -0.08253,0.22328 -0.05502,0.05607 -0.12824,0.08411 -0.21968,0.08411 -0.10477,0 -0.18488,-0.03993 -0.2403,-0.11981 -0.05543,-0.08027 -0.08314,-0.19645 -0.08314,-0.34853 0,-0.1428 0.03398,-0.25655 0.10194,-0.34127 0.06796,-0.08511 0.15919,-0.12767 0.27368,-0.12767 0.03075,2e-6 0.0617,0.003 0.09285,0.0091 0.03155,0.0061 0.06432,0.01513 0.0983,0.02723 m 0.6675,-0.01997 h 0.48122 v 0.10286 h -0.36895 v 0.22146 c 0.0178,-0.0061 0.03561,-0.01049 0.0534,-0.01331 0.0178,-0.0032 0.0356,-0.0048 0.0534,-0.0048 0.10114,10e-7 0.18124,0.02763 0.2403,0.0829 0.05907,0.05527 0.08859,0.13009 0.0886,0.22449 -8e-6,0.09722 -0.03035,0.17285 -0.09103,0.2269 -0.06069,0.05365 -0.14625,0.08048 -0.25669,0.08048 -0.03802,0 -0.07686,-0.0032 -0.1165,-0.0097 -0.03925,-0.0065 -0.0799,-0.01614 -0.12198,-0.02905 v -0.12283 c 0.03641,0.01977 0.07404,0.03449 0.11287,0.04417 0.03884,0.0097 0.07991,0.01452 0.12319,0.01452 0.06999,0 0.12541,-0.01835 0.16627,-0.05506 0.04086,-0.03671 0.06129,-0.08653 0.06129,-0.14946 0,-0.06293 -0.02042,-0.11275 -0.06129,-0.14946 -0.04086,-0.03671 -0.09628,-0.05506 -0.16627,-0.05506 -0.03277,0 -0.06554,0.0036 -0.0983,0.01089 -0.03237,0.0073 -0.06554,0.01856 -0.09952,0.03388 v -0.45381 m 1.1269,0.10649 -0.30947,0.48225 h 0.30947 v -0.48225 m -0.03215,-0.10649 h 0.15412 v 0.58874 h 0.12926 v 0.10165 h -0.12926 v 0.21299 h -0.12197 v -0.21299 h -0.409 v -0.11799 l 0.37685,-0.57241 m 0.76398,0.40298 c -0.05502,10e-7 -0.09871,0.01876 -0.13107,0.05627 -0.03196,0.03751 -0.04794,0.08895 -0.04794,0.1543 0,0.06494 0.01598,0.11638 0.04794,0.1543 0.03236,0.03751 0.07605,0.05627 0.13107,0.05627 0.05502,0 0.09851,-0.01876 0.13047,-0.05627 0.03236,-0.03792 0.04854,-0.08935 0.04855,-0.1543 -10e-6,-0.06535 -0.01619,-0.11678 -0.04855,-0.1543 -0.03196,-0.03751 -0.07545,-0.05627 -0.13047,-0.05627 m 0.24333,-0.38302 v 0.11134 c -0.03074,-0.01452 -0.06189,-0.02561 -0.09345,-0.03328 -0.03114,-0.0077 -0.06209,-0.0115 -0.09284,-0.0115 -0.08091,0 -0.1428,0.02723 -0.18569,0.08169 -0.04247,0.05446 -0.06675,0.13675 -0.07281,0.24687 0.02386,-0.03509 0.0538,-0.06192 0.0898,-0.08048 0.03601,-0.01896 0.07566,-0.02844 0.11894,-0.02844 0.09103,10e-7 0.16283,0.02763 0.21543,0.0829 0.05299,0.05486 0.07949,0.12969 0.07949,0.22449 0,0.09278 -0.02751,0.1672 -0.08253,0.22328 -0.05502,0.05607 -0.12824,0.08411 -0.21967,0.08411 -0.10478,0 -0.18488,-0.03993 -0.2403,-0.11981 -0.05543,-0.08027 -0.08314,-0.19645 -0.08314,-0.34853 0,-0.1428 0.03399,-0.25655 0.10195,-0.34127 0.06797,-0.08511 0.15919,-0.12767 0.27368,-0.12767 0.03074,2e-6 0.06169,0.003 0.09284,0.0091 0.03155,0.0061 0.06433,0.01513 0.0983,0.02723 m 0.27186,-0.01997 h 0.48121 v 0.10286 h -0.36895 v 0.22146 c 0.0178,-0.0061 0.03561,-0.01049 0.0534,-0.01331 0.01781,-0.0032 0.0356,-0.0048 0.0534,-0.0048 0.10114,10e-7 0.18124,0.02763 0.24031,0.0829 0.05906,0.05527 0.08859,0.13009 0.08859,0.22449 0,0.09722 -0.03034,0.17285 -0.09102,0.2269 -0.06069,0.05365 -0.14625,0.08048 -0.25669,0.08048 -0.03802,0 -0.07686,-0.0032 -0.1165,-0.0097 -0.03925,-0.0065 -0.0799,-0.01614 -0.12198,-0.02905 v -0.12283 c 0.03641,0.01977 0.07404,0.03449 0.11287,0.04417 0.03883,0.0097 0.0799,0.01452 0.12318,0.01452 0.07,0 0.12541,-0.01835 0.16627,-0.05506 0.04087,-0.03671 0.06129,-0.08653 0.06129,-0.14946 0,-0.06293 -0.02042,-0.11275 -0.06129,-0.14946 -0.04086,-0.03671 -0.09627,-0.05506 -0.16627,-0.05506 -0.03276,0 -0.06553,0.0036 -0.0983,0.01089 -0.03236,0.0073 -0.06554,0.01856 -0.09952,0.03388 v -0.45381 m 1.1548,0 h 0.58255 v 0.05204 l -0.3289,0.85135 h -0.12804 l 0.30948,-0.80052 h -0.43509 v -0.10286 m 1.0844,0.08047 c -0.06311,10e-7 -0.11065,0.03106 -0.14261,0.09318 -0.03156,0.06172 -0.04733,0.1547 -0.04733,0.27894 0,0.12384 0.01577,0.21682 0.04733,0.27894 0.03196,0.06172 0.0795,0.09258 0.14261,0.09258 0.06351,0 0.11104,-0.03086 0.1426,-0.09258 0.03196,-0.06212 0.04794,-0.1551 0.04794,-0.27894 0,-0.12424 -0.01598,-0.21722 -0.04794,-0.27894 -0.03156,-0.06212 -0.07909,-0.09318 -0.1426,-0.09318 m 0,-0.09681 c 0.10153,2e-6 0.179,0.04014 0.2324,0.12041 0.05381,0.07987 0.08072,0.19605 0.08072,0.34853 0,0.15208 -0.02691,0.26825 -0.08072,0.34853 -0.0534,0.07987 -0.13087,0.11981 -0.2324,0.11981 -0.10155,0 -0.17922,-0.03993 -0.23303,-0.11981 -0.0534,-0.08027 -0.0801,-0.19645 -0.0801,-0.34853 0,-0.15248 0.0267,-0.26866 0.0801,-0.34853 0.05381,-0.08027 0.13148,-0.12041 0.23303,-0.12041 m 0.80646,0.41932 c -0.05502,10e-7 -0.09871,0.01876 -0.13108,0.05627 -0.03195,0.03751 -0.04793,0.08895 -0.04793,0.1543 0,0.06494 0.01598,0.11638 0.04793,0.1543 0.03237,0.03751 0.07606,0.05627 0.13108,0.05627 0.05501,0 0.09851,-0.01876 0.13047,-0.05627 0.03235,-0.03792 0.04854,-0.08935 0.04854,-0.1543 0,-0.06535 -0.01619,-0.11678 -0.04854,-0.1543 -0.03196,-0.03751 -0.07546,-0.05627 -0.13047,-0.05627 m 0.24333,-0.38302 v 0.11134 c -0.03074,-0.01452 -0.0619,-0.02561 -0.09345,-0.03328 -0.03114,-0.0077 -0.06209,-0.0115 -0.09284,-0.0115 -0.08091,0 -0.14281,0.02723 -0.18569,0.08169 -0.04248,0.05446 -0.06675,0.13675 -0.07281,0.24687 0.02386,-0.03509 0.05379,-0.06192 0.0898,-0.08048 0.036,-0.01896 0.07566,-0.02844 0.11894,-0.02844 0.09102,10e-7 0.16283,0.02763 0.21542,0.0829 0.053,0.05486 0.07949,0.12969 0.07949,0.22449 0,0.09278 -0.0275,0.1672 -0.08252,0.22328 -0.05502,0.05607 -0.12825,0.08411 -0.21967,0.08411 -0.10478,0 -0.18488,-0.03993 -0.2403,-0.11981 -0.05543,-0.08027 -0.08314,-0.19645 -0.08314,-0.34853 0,-0.1428 0.03399,-0.25655 0.10195,-0.34127 0.06796,-0.08511 0.15918,-0.12767 0.27367,-0.12767 0.03075,2e-6 0.0617,0.003 0.09285,0.0091 0.03155,0.0061 0.06432,0.01513 0.0983,0.02723 m 0.27186,-0.01997 h 0.48121 v 0.10286 h -0.36895 v 0.22146 c 0.0178,-0.0061 0.03561,-0.01049 0.0534,-0.01331 0.0178,-0.0032 0.03561,-0.0048 0.0534,-0.0048 0.10114,10e-7 0.18124,0.02763 0.2403,0.0829 0.05907,0.05527 0.0886,0.13009 0.0886,0.22449 0,0.09722 -0.03034,0.17285 -0.09102,0.2269 -0.06069,0.05365 -0.14625,0.08048 -0.25669,0.08048 -0.03803,0 -0.07686,-0.0032 -0.11651,-0.0097 -0.03924,-0.0065 -0.07989,-0.01614 -0.12197,-0.02905 v -0.12283 c 0.03641,0.01977 0.07404,0.03449 0.11287,0.04417 0.03883,0.0097 0.0799,0.01452 0.12318,0.01452 0.06999,0 0.12541,-0.01835 0.16627,-0.05506 0.04086,-0.03671 0.06129,-0.08653 0.0613,-0.14946 -10e-6,-0.06293 -0.02044,-0.11275 -0.0613,-0.14946 -0.04086,-0.03671 -0.09628,-0.05506 -0.16627,-0.05506 -0.03276,0 -0.06554,0.0036 -0.0983,0.01089 -0.03237,0.0073 -0.06554,0.01856 -0.09952,0.03388 v -0.45381 m 1.1548,0 h 0.58255 v 0.05204 l -0.3289,0.85135 h -0.12804 l 0.30948,-0.80052 h -0.43509 v -0.10286 m 1.0996,0.40298 c -0.05502,1e-6 -0.09871,0.01876 -0.13107,0.05627 -0.03196,0.03751 -0.04794,0.08895 -0.04794,0.1543 0,0.06494 0.01598,0.11638 0.04794,0.1543 0.03236,0.03751 0.07605,0.05627 0.13107,0.05627 0.05502,0 0.09851,-0.01876 0.13047,-0.05627 0.03236,-0.03792 0.04854,-0.08935 0.04854,-0.1543 0,-0.06535 -0.01618,-0.11678 -0.04854,-0.1543 -0.03196,-0.03751 -0.07545,-0.05627 -0.13047,-0.05627 m 0.24334,-0.38302 v 0.11134 c -0.03075,-0.01452 -0.0619,-0.02561 -0.09345,-0.03328 -0.03115,-0.0077 -0.0621,-0.0115 -0.09285,-0.0115 -0.08091,0 -0.14281,0.02723 -0.18569,0.08169 -0.04248,0.05446 -0.06675,0.13675 -0.07281,0.24687 0.02386,-0.03509 0.0538,-0.06192 0.08981,-0.08048 0.036,-0.01896 0.07565,-0.02844 0.11894,-0.02844 0.09101,1e-6 0.16282,0.02763 0.21541,0.0829 0.053,0.05486 0.07949,0.12969 0.07949,0.22449 0,0.09278 -0.0275,0.1672 -0.08252,0.22328 -0.05502,0.05607 -0.12824,0.08411 -0.21967,0.08411 -0.10477,0 -0.18487,-0.03993 -0.2403,-0.11981 -0.05542,-0.08027 -0.08313,-0.19645 -0.08313,-0.34853 0,-0.1428 0.03398,-0.25655 0.10194,-0.34127 0.06796,-0.08511 0.15919,-0.12767 0.27368,-0.12767 0.03074,2e-6 0.06169,0.003 0.09284,0.0091 0.03156,0.0061 0.06432,0.01513 0.09831,0.02723 m 0.23969,-0.01997 h 0.58255 v 0.05204 l -0.3289,0.85135 h -0.12803 l 0.30947,-0.80052 h -0.43509 v -0.10286 m 0.82589,0.88463 v -0.11134 c 0.03074,0.01452 0.06189,0.02562 0.09344,0.03328 0.03156,0.0077 0.06251,0.0115 0.09285,0.0115 0.08091,0 0.1426,-0.02703 0.18508,-0.08108 0.04288,-0.05446 0.06735,-0.13695 0.07342,-0.24748 -0.02346,0.03469 -0.05319,0.06132 -0.0892,0.07987 -0.036,0.01856 -0.07585,0.02783 -0.11954,0.02783 -0.09062,0 -0.16243,-0.02723 -0.21542,-0.08169 -0.0526,-0.05486 -0.07889,-0.12969 -0.07889,-0.22448 0,-0.09278 0.02751,-0.1672 0.08252,-0.22328 0.05503,-0.05607 0.12825,-0.08411 0.21968,-0.08411 0.10477,2e-6 0.18467,0.04014 0.23969,0.12041 0.05542,0.07987 0.08313,0.19605 0.08314,0.34853 -1e-5,0.1424 -0.03399,0.25615 -0.10195,0.34127 -0.06756,0.08471 -0.15858,0.12707 -0.27307,0.12707 -0.03074,0 -0.0619,-0.003 -0.09345,-0.0091 -0.03156,-0.0061 -0.06432,-0.01513 -0.0983,-0.02723 m 0.24394,-0.38302 c 0.05501,0 0.09851,-0.01876 0.13046,-0.05627 0.03236,-0.03751 0.04855,-0.08895 0.04855,-0.1543 0,-0.06495 -0.01619,-0.11617 -0.04855,-0.15369 -0.03195,-0.03792 -0.07545,-0.05688 -0.13046,-0.05688 -0.05502,1e-6 -0.09871,0.01896 -0.13108,0.05688 -0.03195,0.03752 -0.04793,0.08874 -0.04793,0.15369 0,0.06535 0.01598,0.11678 0.04793,0.1543 0.03237,0.03751 0.07606,0.05627 0.13108,0.05627 m 0.54735,0.38302 v -0.11134 c 0.03074,0.01452 0.0619,0.02562 0.09345,0.03328 0.03155,0.0077 0.0625,0.0115 0.09285,0.0115 0.0809,0 0.1426,-0.02703 0.18508,-0.08108 0.04288,-0.05446 0.06735,-0.13695 0.07342,-0.24748 -0.02347,0.03469 -0.0532,0.06132 -0.0892,0.07987 -0.036,0.01856 -0.07586,0.02783 -0.11955,0.02783 -0.09062,0 -0.16242,-0.02723 -0.21542,-0.08169 -0.05259,-0.05486 -0.07888,-0.12969 -0.07888,-0.22448 0,-0.09278 0.0275,-0.1672 0.08252,-0.22328 0.05502,-0.05607 0.12825,-0.08411 0.21967,-0.08411 0.10478,2e-6 0.18468,0.04014 0.2397,0.12041 0.05542,0.07987 0.08313,0.19605 0.08313,0.34853 0,0.1424 -0.03398,0.25615 -0.10194,0.34127 -0.06757,0.08471 -0.15858,0.12707 -0.27308,0.12707 -0.03074,0 -0.06189,-0.003 -0.09345,-0.0091 -0.03155,-0.0061 -0.06432,-0.01513 -0.0983,-0.02723 m 0.24394,-0.38302 c 0.05502,0 0.09851,-0.01876 0.13046,-0.05627 0.03237,-0.03751 0.04855,-0.08895 0.04855,-0.1543 0,-0.06495 -0.01618,-0.11617 -0.04855,-0.15369 -0.03195,-0.03792 -0.07544,-0.05688 -0.13046,-0.05688 -0.05501,10e-7 -0.09871,0.01896 -0.13107,0.05688 -0.03196,0.03752 -0.04794,0.08874 -0.04794,0.15369 0,0.06535 0.01598,0.11678 0.04794,0.1543 0.03236,0.03751 0.07606,0.05627 0.13107,0.05627"
       inkscape:connector-curvature="0" />
    <rect
       id="rect6553"
       style="fill:url(#linearGradient1992);fill-rule:evenodd"
       rx="0.3125"
       ry="0.3125"
       height="11.704"
       width="9.9773998"
       y="19.740999"
       x="5.0518999" />
    <g
       id="g6935"
       style="fill:#939393"
       transform="matrix(0.30043,0,0,0.29957,-1.2393,19.268)">
      <path
         id="path2329"
         style="fill:#939393;fill-rule:evenodd"
         d="m 50.301,40.747 c 1.0356,-2.9825 0.17678,-8.8923 -6.5407,-13.488 h -12.551 c -6.7175,4.2426 -7.557,10.045 -6.0104,13.435 l 25.102,0.05345 z"
         inkscape:connector-curvature="0" />
      <path
         id="path2327"
         style="fill:#939393;fill-rule:evenodd"
         d="m 39.775,19.009 a 8.6621,8.6621 0 1 1 -17.324,0 8.6621,8.6621 0 1 1 17.324,0 z"
         transform="translate(6.4071,1.7424)"
         inkscape:connector-curvature="0" />
    </g>
    <rect
       id="rect6555"
       style="fill:none;stroke:#ffffff"
       rx="1.7776999"
       ry="1.7776999"
       height="22"
       width="32"
       y="17.5"
       x="3.5" />
  </g>
  <rect
     id="rect2373"
     style="fill:url(#linearGradient2934);fill-rule:evenodd;stroke:#939393;stroke-width:1.18623745"
     rx="3.530973"
     ry="3.4057288"
     height="29.722725"
     width="43.655926"
     y="8.4448538"
     x="2.2656803" />
  <path
     id="path2375"
     d="m 23.05093,16.036295 c 0.06155,0.641421 -0.3522,1.443982 -1.087736,1.334308 -0.411413,0.03489 -0.227366,-0.407068 -0.266882,-0.660402 0.469576,0.368128 0.927523,-0.293988 0.790531,-0.815458 v -1.902207 c 0.169571,0.05515 0.569061,-0.121416 0.564087,0.109614 v 1.934121 z m 1.574939,-1.182348 c 0.778088,-0.04303 1.16172,0.8448 1.016339,1.514359 -0.0269,0.778519 -0.952575,1.26274 -1.606964,0.871998 -0.925952,-0.55879 -0.624471,-2.460342 0.590685,-2.386273 z m -0.0465,2.020575 c 0.711606,-0.04794 0.751605,-1.294059 0.122941,-1.502094 -0.846283,-0.152698 -0.942991,1.479944 -0.122941,1.502094 z m 3.43502,0.429526 c -0.175125,-0.05425 -0.589894,0.132978 -0.541859,-0.146161 -0.02912,-0.539463 0.07336,-1.100871 -0.08694,-1.62046 -0.432554,-0.456546 -0.845455,0.23964 -0.723814,0.673763 v 1.092834 c -0.16189,-0.05745 -0.561852,0.125012 -0.547908,-0.109614 v -3.391201 c 0.16189,0.05745 0.561853,-0.125012 0.547908,0.109614 v 1.356814 c 0.259001,-0.644611 1.32348,-0.50013 1.328443,0.224612 0.04814,0.600479 0.01382,1.207247 0.02418,1.809799 z m 2.482824,-5e-6 c -0.175125,-0.05425 -0.589894,0.132979 -0.541847,-0.14616 -0.02912,-0.539463 0.07336,-1.100873 -0.08694,-1.620461 -0.432554,-0.456546 -0.845445,0.23964 -0.723802,0.673763 v 1.092834 c -0.16189,-0.05745 -0.561853,0.125012 -0.54791,-0.109614 V 14.93936 c 0.161891,0.05745 0.561853,-0.125012 0.54791,0.109614 -0.08003,0.521244 0.513735,-0.561337 0.899576,-0.160962 0.589244,0.260967 0.427791,0.992568 0.45302,1.520432 v 0.895599 z m 1.773108,-3.311535 c 0.716192,0.04266 1.557453,-0.172418 2.118867,0.404127 0.480755,0.605397 0.478108,1.526266 0.135705,2.198124 -0.310841,0.597657 -1.015227,0.762288 -1.632726,0.709237 -0.192707,-0.02688 -0.490597,0.05224 -0.621882,-0.03653 v -3.274979 z m 0.564075,2.801152 c 0.447359,0.02484 0.990116,-0.0092 1.20472,-0.481911 0.306481,-0.601753 0.180183,-1.636774 -0.601616,-1.769907 -0.206356,0.03282 -0.711276,-0.177622 -0.60314,0.201058 v 2.05082 z m 3.372391,-1.939837 c 0.778076,-0.04303 1.161732,0.8448 1.016338,1.514359 -0.0269,0.778519 -0.952586,1.26274 -1.607083,0.871998 -0.925951,-0.55879 -0.624481,-2.460341 0.590686,-2.386273 z m -0.04651,2.020575 c 0.711606,-0.04794 0.751606,-1.294059 0.122953,-1.502094 -0.846283,-0.152698 -0.942991,1.479945 -0.122953,1.502094 z m 3.315788,-0.61658 h -1.378899 c -0.11291,0.848371 1.017318,0.507155 1.18475,0.51143 0.128945,0.424217 -0.232932,0.598921 -0.617852,0.589441 -0.742188,0.118963 -1.229064,-0.671047 -1.112384,-1.341808 -0.0383,-0.726493 0.704611,-1.419095 1.411751,-1.093799 0.505096,0.235923 0.527134,0.848991 0.51254,1.334784 z m -0.505467,-0.415666 c 0.166899,-0.841608 -1.190305,-0.434849 -0.764641,0 h 0.764641 z"
     inkscape:connector-curvature="0" />
  <rect
     id="rect2377"
     style="opacity:0.39765996;fill:#8d8d8d;fill-rule:evenodd"
     rx="1.1816783"
     ry="1.1908144"
     height="2.3816288"
     width="17.725176"
     y="19.757591"
     x="21.696726" />
  <rect
     id="rect2379"
     style="opacity:0.39765996;fill:#8d8d8d;fill-rule:evenodd"
     rx="1.1816783"
     ry="1.1908144"
     height="2.3816288"
     width="14.18014"
     y="23.330032"
     x="21.696726" />
  <path
     id="rect2383"
     style="opacity:0.48537999;fill-rule:evenodd"
     d="m 7.5165861,30.438003 v 2.418545 H 9.8799427 V 30.437765 H 7.5165861 z m 3.5450349,0 v 2.418783 h 1.181678 v -2.418783 h -1.181678 z m 2.363357,0 v 2.418783 h 2.363356 v -2.418783 h -2.363356 z m 4.726713,0 v 2.418783 h 1.181678 v -2.418783 h -1.181678 z m 2.363357,0 v 2.418783 h 2.363356 v -2.418783 h -2.363356 z m 3.545035,0 v 2.418783 h 2.363356 v -2.418783 h -2.363356 z m 7.09007,0 v 2.418783 h 1.181678 v -2.418783 h -1.181678 z m 2.363355,0 v 2.418783 h 2.363357 v -2.418783 h -2.363357 z m -28.3602785,0.03692 v 4.837685 H 6.3349077 V 30.475515 H 5.1532295 z m 22.4518885,0 v 2.418783 h 1.181678 v -2.418544 h -1.181678 z"
     inkscape:connector-curvature="0" />
  <path
     id="path2413"
     d="m 8.0556678,34.612999 c 0.8683445,0.422834 -1.1250051,0.709868 0.015861,0.432967 -0.5104378,-0.540832 0.3090916,-0.664235 -0.4259123,-0.829187 0.1736358,-0.445139 1.0001606,0.220324 0.4100541,0.39622 z m 0.6916599,0.475837 c 1.0801367,-0.105779 -0.5221719,0.450663 0.040331,-0.17786 0.7165579,-0.342133 -0.2315262,-0.940517 0.01626,-0.780817 0.9084978,-0.129405 0.3495523,0.75756 -0.056591,0.958677 z M 10.093141,34.22933 c -0.7813965,0.656389 0.195131,0.935219 0,0 z m -0.04233,-0.131883 c 0.826182,0.516218 -0.239042,1.563421 -0.4384975,0.617652 0.1073794,-0.232399 0.3103324,-0.398637 0.4384975,-0.617652 z m 0.642147,0 c 0.317612,-0.180265 0.81153,0.262671 0.169855,0.127394 0.520091,0.336607 0.652771,1.239757 -0.09704,0.90359 1.19184,-0.423751 -0.418622,-0.333833 -0.07282,-1.030984 h -6e-6 z m 1.905692,0.09966 c -0.843162,0.294203 0.499544,1.374557 0.243793,0.31959 -0.003,-0.128393 -0.07972,-0.332213 -0.243793,-0.31959 z m 0,-0.119891 c 1.286849,0.28464 -0.693845,1.974846 -0.399903,0.381572 0.03096,-0.190292 0.185949,-0.408533 0.399903,-0.381572 z m 0.698042,0.02025 c 0.317611,-0.180266 0.81153,0.262669 0.169854,0.127393 0.520104,0.336595 0.652771,1.239757 -0.09704,0.90359 1.191841,-0.423763 -0.418656,-0.333821 -0.07282,-1.030983 h -10e-7 z m 1.041484,-4e-6 c 0.317612,-0.180265 0.811529,0.26267 0.169855,0.127394 0.520092,0.336595 0.652759,1.239756 -0.09704,0.90359 1.191841,-0.423764 -0.418656,-0.333833 -0.07282,-1.030984 h -3e-6 z m 0.999156,0 c 1.050241,-0.638586 0.477729,1.445291 0.276028,0.837904 0.237199,-0.419559 0.415904,-0.842381 -0.276028,-0.837904 z m 1.604601,1e-6 c 0.317612,-0.180265 0.811518,0.26267 0.169855,0.127394 0.520092,0.336607 0.652759,1.239756 -0.09705,0.90359 1.19184,-0.423752 -0.418621,-0.333833 -0.0728,-1.030984 h 2e-6 z m 1.067835,0.991401 c 0.75026,0.0075 -0.342734,-1.411591 0.479631,-0.837238 -0.243756,0.390778 0.395876,1.456247 -0.479631,0.837238 z m 1.358576,-0.891741 c -0.843139,0.294214 0.49953,1.374557 0.243792,0.31959 -0.003,-0.128394 -0.0797,-0.332213 -0.243792,-0.31959 z m 0,-0.119891 c 1.286848,0.28464 -0.693846,1.974845 -0.399903,0.38156 0.03095,-0.190292 0.185949,-0.408533 0.399903,-0.38156 z m 1.061443,0.519314 c -0.976598,0.680669 0.945556,0.577438 0,0 z m 0.320282,-0.474349 c -0.856966,0.254001 -0.155686,0.373093 -0.01856,0.66339 -0.454119,1.592357 -1.347941,-1.192482 0.01856,-0.663438 m 0.878542,-0.02474 c 0.317611,-0.180265 0.811541,0.262659 0.169866,0.127394 0.520105,0.336607 0.652759,1.239757 -0.09705,0.903638 1.230246,-0.444436 -0.403342,-0.301908 -0.07283,-1.030984 m 1.483124,0.131882 c -0.781396,0.656389 0.195131,0.935219 0,0 z m -0.04233,-0.131882 c 0.826158,0.51623 -0.239054,1.563301 -0.438509,0.617651 0.10739,-0.232399 0.310343,-0.398624 0.438509,-0.617651 z m 0.985566,0.09966 c -0.843151,0.294203 0.499531,1.374557 0.243792,0.31959 -0.003,-0.128393 -0.0797,-0.332212 -0.243792,-0.31959 z m 0,-0.119891 c 1.286848,0.284641 -0.693845,1.974846 -0.399904,0.381561 0.03095,-0.190292 0.18595,-0.408533 0.399904,-0.381561 z m 1.061443,0.519315 c -0.976586,0.680645 0.94552,0.577461 0,0 z m 0.320282,-0.474349 c -0.856965,0.253988 -0.155687,0.373093 -0.01857,0.66339 -0.454119,1.592356 -1.347941,-1.192482 0.01857,-0.663438 m 0.878542,-0.02474 c 0.317612,-0.180265 0.811542,0.262658 0.169866,0.127394 0.520092,0.336595 0.652772,1.239756 -0.09702,0.903637 1.230244,-0.444436 -0.403343,-0.301896 -0.07283,-1.030984 m 1.483123,0.131883 c -0.781372,0.656389 0.19512,0.935219 0,0 z m -0.04136,-0.13218 c 0.826147,0.516254 -0.239064,1.563301 -0.43852,0.617651 0.10739,-0.232399 0.310344,-0.398636 0.43852,-0.617651 z m 1.005526,0.49907 c -0.97661,0.680658 0.945555,0.57745 0,0 z m 0.32027,-0.474349 c -0.856953,0.254001 -0.155686,0.373083 -0.01857,0.663391 -0.454095,1.592357 -1.347941,-1.192481 0.01857,-0.663426 m 0.357812,-0.02474 c 0.317612,-0.180265 0.81153,0.26267 0.169855,0.127394 0.520104,0.336595 0.65277,1.239757 -0.09704,0.903638 1.230245,-0.444436 -0.403331,-0.301896 -0.07283,-1.030984"
     inkscape:connector-curvature="0" />
  <rect
     id="rect2415"
     style="fill:url(#linearGradient2915);fill-rule:evenodd"
     rx="0.4071236"
     ry="0.38352555"
     height="14.364793"
     width="12.998462"
     y="12.612704"
     x="5.1532292" />
  <path
     id="path2419"
     style="fill:#939393;fill-rule:evenodd"
     d="m 11.35704,16.258978 c -2.0266958,0.0279 -3.8370271,2.182048 -3.0884338,4.186665 0.042812,0.553883 0.9111448,1.242972 0.9674754,1.469702 -0.3615699,-0.01 -0.628251,0.329142 -0.9297681,0.494927 -1.1132236,0.801466 -2.0780995,2.075351 -1.9682034,3.520285 0.077873,0.29225 0.039714,0.909747 0.4053748,0.934682 3.3596291,0.01222 6.7192581,0.02445 10.0788891,0.03666 0.443755,-1.284412 -0.168,-2.689216 -1.03066,-3.643653 -0.480424,-0.524935 -1.040362,-1.003523 -1.658131,-1.342882 -0.513806,0.07444 0.189682,-0.269683 0.262214,-0.460035 1.528501,-1.578068 0.582367,-4.389223 -1.448265,-4.975461 -0.506939,-0.185767 -1.052875,-0.259597 -1.590538,-0.221491 z"
     inkscape:connector-curvature="0" />
  <rect
     id="rect2423"
     style="fill:none;stroke:#ffffff;stroke-width:1.18623745"
     rx="2.2995458"
     ry="2.2131286"
     height="27.388729"
     width="41.393009"
     y="9.6356678"
     x="3.380712" />
  <g
     id="g5278"
     transform="translate(41.326962,-25.373571)">
    <path
       inkscape:connector-curvature="0"
       id="path2262"
       style="fill:url(#linearGradient6015);fill-rule:evenodd;stroke:#42770c;stroke-linejoin:round"
       d="m -6.3336,60.032 v -5.0014 h 6.9665 v 5.0014 h 5.0014 v 7 H 0.6329 v 5 h -6.9726 l -0.027688,-5 h -4.9997 v -7 h 5.0335 z" />
    <path
       inkscape:connector-curvature="0"
       id="path2272"
       style="opacity:0.6;fill:none;stroke:url(#linearGradient3387)"
       d="m -5.3671,61.032 v -5 h 5.0014 v 5 h 4.9986 v 4.9259 l -4.9986,-0.01562 v 5.0897 h -5.0014 v -5 h -5 v -5 h 5 z" />
  </g>
</svg>
