<?xml version="1.0" encoding="UTF-8" standalone="no"?>
<!-- Created with Inkscape (http://www.inkscape.org/) -->
<svg xmlns:dc="http://purl.org/dc/elements/1.1/" xmlns:cc="http://web.resource.org/cc/" xmlns:rdf="http://www.w3.org/1999/02/22-rdf-syntax-ns#" xmlns:svg="http://www.w3.org/2000/svg" xmlns="http://www.w3.org/2000/svg" xmlns:xlink="http://www.w3.org/1999/xlink" xmlns:sodipodi="http://sodipodi.sourceforge.net/DTD/sodipodi-0.dtd" xmlns:inkscape="http://www.inkscape.org/namespaces/inkscape" version="1.0" width="48" height="48" id="svg1" sodipodi:version="0.32" inkscape:version="0.45.1" inkscape:output_extension="org.inkscape.output.svg.inkscape" sodipodi:docbase="/home/bertrand/download" sodipodi:docname="041012kino_icon.svg">
  <sodipodi:namedview id="base" pagecolor="#ffffff" bordercolor="#666666" borderopacity="1.0" inkscape:pageopacity="0.0" inkscape:pageshadow="2" inkscape:zoom="5.6568542" inkscape:cx="47.636193" inkscape:cy="41.078075" inkscape:window-width="1280" inkscape:window-height="982" showgrid="false" inkscape:grid-bbox="false" gridspacingx="1.0000000mm" gridspacingy="1.0000000mm" inkscape:window-x="0" inkscape:window-y="42" inkscape:current-layer="svg1"/>
  <defs id="defs3">
    <linearGradient id="linearGradient3184">
      <stop style="stop-color:#615c51;stop-opacity:1.0000000;" offset="0.0000000" id="stop3185"/>
      <stop style="stop-color:#37342e;stop-opacity:1.0000000;" offset="1.0000000" id="stop3186"/>
    </linearGradient>
    <linearGradient id="linearGradient888">
      <stop style="stop-color:#37342e;stop-opacity:1.0000000;" offset="0.0000000" id="stop889"/>
      <stop style="stop-color:#37342e;stop-opacity:1.0000000;" offset="1.0000000" id="stop890"/>
    </linearGradient>
    <linearGradient id="linearGradient891" xlink:href="#linearGradient3184" x1="6.7856765" y1="86.751068" x2="114.24961" y2="192.90602" gradientTransform="matrix(0.361757, 0, 0, 0.222273, 2.6791, 0.847827)" gradientUnits="userSpaceOnUse"/>
    <linearGradient inkscape:collect="always" xlink:href="#linearGradient3184" id="linearGradient2305" gradientUnits="userSpaceOnUse" gradientTransform="matrix(0.361757, 0, 0, 0.222273, 2.6791, 0.847827)" x1="6.7856765" y1="86.751068" x2="114.24961" y2="192.90602"/>
  </defs>
  <metadata id="metadata1024">
    <rdf:RDF>
      <cc:Work rdf:about="">
        <dc:format>image/svg+xml</dc:format>
        <dc:type rdf:resource="http://purl.org/dc/dcmitype/StillImage"/>
      </cc:Work>
    </rdf:RDF>
  </metadata>
  <g id="g2233" transform="translate(-3.38865, -1.09962)">
    <path id="path3266" d="M 7.6762563,2.9302137 L 7.5869429,3.2517413 L 5.7470904,9.941302 L 5.6577773,10.271761 L 5.988236,10.361074 L 33.934342,17.765139 L 5.8542664,17.800865 L 5.514876,17.800865 L 5.514876,18.140255 L 5.5238074,46.657969 L 5.5238074,46.908047 L 5.5238074,47.247436 L 5.6756399,47.247436 C 5.9234192,47.96345 6.5667629,48.506754 7.3725913,48.506754 L 48.974689,49.015839 C 49.481574,49.015839 49.956329,48.774597 50.323318,48.435301 C 50.610253,48.170021 50.804163,47.830754 50.912785,47.461788 L 51.037823,47.461788 L 51.037823,47.122399 L 51.037823,46.988429 L 51.037823,14.630245 L 51.037823,14.362305 L 50.787748,14.299786 L 7.9977838,3.0105956 L 7.6762563,2.9302137 z M 37.051374,18.158118 L 37.756947,18.345675 L 37.506869,18.345675 L 37.515801,18.372469 L 37.069236,18.372469 L 37.051374,18.158118 z M 6.1936565,18.479645 L 6.2025879,18.479645 L 6.2025879,46.613313 L 6.1936565,18.479645 z " style="fill:#000000;fill-opacity:0.09793815;fill-rule:evenodd;stroke:none;stroke-width:2.38104343;stroke-linecap:round;stroke-linejoin:round;stroke-opacity:1"/>
    <path id="path3265" d="M 7.0579416,2.3495942 L 6.9686285,2.6711218 L 5.1287758,9.3606824 L 5.0394626,9.6911414 L 5.3699216,9.7804547 L 33.316027,17.18452 L 5.2359517,17.220245 L 4.8965615,17.220245 L 4.8965615,17.559635 L 4.9054928,46.077351 L 4.9054928,46.327429 L 4.9054928,46.666819 L 5.0573253,46.666819 C 5.3051045,47.382833 5.9484483,47.926136 6.7542766,47.926136 L 48.356374,48.435222 C 48.863259,48.435222 49.338014,48.19398 49.705003,47.854684 C 49.991939,47.589404 50.185848,47.250136 50.294471,46.881171 L 50.419511,46.881171 L 50.419511,46.541781 L 50.419511,46.407811 L 50.419511,14.049627 L 50.419511,13.781687 L 50.169433,13.719168 L 7.3794691,2.4299761 L 7.0579416,2.3495942 z M 36.433059,17.577498 L 37.138632,17.765056 L 36.888557,17.765056 L 36.897486,17.79185 L 36.450921,17.79185 L 36.433059,17.577498 z M 5.5753421,17.899026 L 5.5842732,17.899026 L 5.5842732,46.032695 L 5.5753421,17.899026 z " style="fill:#000000;fill-opacity:0.09793815;fill-rule:evenodd;stroke:none;stroke-width:2.38104343;stroke-linecap:round;stroke-linejoin:round;stroke-opacity:1"/>
    <path id="path3187" d="M 6.4274904,1.8074515 L 6.338177,2.1289791 L 4.4983245,8.8185399 L 4.4090113,9.1489986 L 4.7394702,9.2383119 L 32.685579,16.642378 L 4.6055004,16.678104 L 4.2661101,16.678104 L 4.2661101,17.017494 L 4.2750415,45.535207 L 4.2750415,45.785286 L 4.2750415,46.124675 L 4.4268739,46.124675 C 4.6746532,46.840689 5.317997,47.383992 6.1238251,47.383992 L 47.725926,47.893075 C 48.232811,47.893075 48.707566,47.651836 49.074555,47.31254 C 49.36149,47.04726 49.5554,46.707992 49.664022,46.339027 L 49.789063,46.339027 L 49.789063,45.999638 L 49.789063,45.865668 L 49.789063,13.507484 L 49.789063,13.239544 L 49.538985,13.177025 L 6.7490179,1.8878334 L 6.4274904,1.8074515 z M 35.802611,17.035356 L 36.508184,17.222914 L 36.258108,17.222914 L 36.267038,17.249708 L 35.820472,17.249708 L 35.802611,17.035356 z M 4.9448907,17.356884 L 4.953822,17.356884 L 4.953822,45.490552 L 4.9448907,17.356884 z " style="fill:#000000;fill-opacity:0.09793815;fill-rule:evenodd;stroke:none;stroke-width:2.38104343;stroke-linecap:round;stroke-linejoin:round;stroke-opacity:1"/>
    <path id="path2805" style="fill:none;fill-opacity:0.75;fill-rule:evenodd;stroke:#eae8e3;stroke-width:0.68050778;stroke-linecap:round;stroke-linejoin:round" d="M 8.1500853,7.1850093 L 45.91471,17.30402"/>
    <rect transform="matrix(0.965926, 0.258819, -0.258819, 0.965926, 0, 0)" ry="0" rx="1.5689874" y="-0.021125317" x="6.6199222" height="6.6626387" width="43.701183" id="rect2806" style="fill:#423f38;fill-opacity:1;fill-rule:evenodd;stroke:none;stroke-width:2.5;stroke-linecap:butt;stroke-linejoin:miter;stroke-miterlimit:4;stroke-opacity:1"/>
    <path sodipodi:nodetypes="ccccc" id="path2807" style="fill:#eae8e3;fill-rule:evenodd;stroke-width:1pt" d="M 6.3998193,1.6929571 L 6.8310465,8.7061716 L 10.59128,9.7137241 L 10.218751,2.7231984 L 6.3998193,1.6929571 z "/>
    <path sodipodi:nodetypes="ccccc" id="path2808" d="M 6.3848761,1.6696921 L 6.4488853,2.4038093 L 10.26184,3.4254884 L 10.20525,2.7042217 L 6.3848761,1.6696921 z " style="fill:#fffdf8;fill-opacity:1;fill-rule:evenodd;stroke:none;stroke-width:2.5;stroke-linecap:butt;stroke-linejoin:miter;stroke-miterlimit:4;stroke-opacity:1"/>
    <path sodipodi:nodetypes="ccccc" id="path2809" d="M 6.786223,7.9952936 L 6.8310009,8.7025329 L 10.59151,9.7101592 L 10.550315,9.00388 L 6.786223,7.9952936 z " style="fill:#bab5ab;fill-opacity:1;fill-rule:evenodd;stroke:none;stroke-width:2.5;stroke-linecap:butt;stroke-linejoin:miter;stroke-miterlimit:4;stroke-opacity:1"/>
    <path sodipodi:nodetypes="ccccc" id="path2810" d="M 10.180954,2.6935373 L 10.244963,3.4276545 L 14.057918,4.4493335 L 14.001328,3.7280668 L 10.180954,2.6935373 z " style="fill:#7d7a71;fill-opacity:1;fill-rule:evenodd;stroke:none;stroke-width:2.5;stroke-linecap:butt;stroke-linejoin:miter;stroke-miterlimit:4;stroke-opacity:1"/>
    <path sodipodi:nodetypes="ccccc" id="path2811" d="M 10.546184,9.0099148 L 10.590962,9.7171541 L 14.351471,10.72478 L 14.310276,10.018501 L 10.546184,9.0099148 z " style="fill:#262420;fill-opacity:1;fill-rule:evenodd;stroke:none;stroke-width:2.5;stroke-linecap:butt;stroke-linejoin:miter;stroke-miterlimit:4;stroke-opacity:1"/>
    <path sodipodi:nodetypes="ccccc" id="path2812" style="fill:#eae8e3;fill-rule:evenodd;stroke-width:1pt" d="M 13.962741,3.7112784 L 14.393969,10.72449 L 18.154203,11.732043 L 17.781673,4.7415198 L 13.962741,3.7112784 z "/>
    <path sodipodi:nodetypes="ccccc" id="path2813" d="M 13.947799,3.6880108 L 14.011807,4.4221306 L 17.824763,5.44381 L 17.768173,4.7225431 L 13.947799,3.6880108 z " style="fill:#fffdf8;fill-opacity:1;fill-rule:evenodd;stroke:none;stroke-width:2.5;stroke-linecap:butt;stroke-linejoin:miter;stroke-miterlimit:4;stroke-opacity:1"/>
    <path sodipodi:nodetypes="ccccc" id="path2814" d="M 14.349145,10.013612 L 14.393923,10.720852 L 18.154433,11.728478 L 18.113238,11.022199 L 14.349145,10.013612 z " style="fill:#bab5ab;fill-opacity:1;fill-rule:evenodd;stroke:none;stroke-width:2.5;stroke-linecap:butt;stroke-linejoin:miter;stroke-miterlimit:4;stroke-opacity:1"/>
    <path sodipodi:nodetypes="ccccc" id="path2815" d="M 17.776672,4.7155433 L 17.840682,5.4496605 L 21.653636,6.4713397 L 21.597046,5.7500727 L 17.776672,4.7155433 z " style="fill:#7d7a71;fill-opacity:1;fill-rule:evenodd;stroke:none;stroke-width:2.5;stroke-linecap:butt;stroke-linejoin:miter;stroke-miterlimit:4;stroke-opacity:1"/>
    <path sodipodi:nodetypes="ccccc" id="path2816" d="M 18.141902,11.031921 L 18.18668,11.73916 L 21.947189,12.746786 L 21.905994,12.040507 L 18.141902,11.031921 z " style="fill:#262420;fill-opacity:1;fill-rule:evenodd;stroke:none;stroke-width:2.5;stroke-linecap:butt;stroke-linejoin:miter;stroke-miterlimit:4;stroke-opacity:1"/>
    <path sodipodi:nodetypes="ccccc" id="path2817" style="fill:#eae8e3;fill-rule:evenodd;stroke-width:1pt" d="M 21.523787,5.7372562 L 21.955014,12.750471 L 25.715248,13.758023 L 25.342719,6.7674976 L 21.523787,5.7372562 z "/>
    <path sodipodi:nodetypes="ccccc" id="path2818" d="M 21.508844,5.7139915 L 21.572853,6.4481087 L 25.385808,7.4697878 L 25.329218,6.7485209 L 21.508844,5.7139915 z " style="fill:#fffdf8;fill-opacity:1;fill-rule:evenodd;stroke:none;stroke-width:2.5;stroke-linecap:butt;stroke-linejoin:miter;stroke-miterlimit:4;stroke-opacity:1"/>
    <path sodipodi:nodetypes="ccccc" id="path2819" d="M 21.910191,12.039593 L 21.954969,12.746832 L 25.715478,13.754458 L 25.674283,13.048179 L 21.910191,12.039593 z " style="fill:#bab5ab;fill-opacity:1;fill-rule:evenodd;stroke:none;stroke-width:2.5;stroke-linecap:butt;stroke-linejoin:miter;stroke-miterlimit:4;stroke-opacity:1"/>
    <path sodipodi:nodetypes="ccccc" id="path2820" d="M 25.312014,6.7563589 L 25.376023,7.4904786 L 29.188978,8.5121578 L 29.132388,7.7908909 L 25.312014,6.7563589 z " style="fill:#7d7a71;fill-opacity:1;fill-rule:evenodd;stroke:none;stroke-width:2.5;stroke-linecap:butt;stroke-linejoin:miter;stroke-miterlimit:4;stroke-opacity:1"/>
    <path sodipodi:nodetypes="ccccc" id="path2821" d="M 25.677244,13.072739 L 25.722021,13.779978 L 29.48253,14.787604 L 29.441335,14.081325 L 25.677244,13.072739 z " style="fill:#262420;fill-opacity:1;fill-rule:evenodd;stroke:none;stroke-width:2.5;stroke-linecap:butt;stroke-linejoin:miter;stroke-miterlimit:4;stroke-opacity:1"/>
    <path sodipodi:nodetypes="ccccc" id="path2822" style="fill:#eae8e3;fill-rule:evenodd;stroke-width:1pt" d="M 29.064561,7.7578023 L 29.495788,14.771017 L 33.256019,15.778569 L 32.883493,8.7880434 L 29.064561,7.7578023 z "/>
    <path sodipodi:nodetypes="ccccc" id="path2823" d="M 29.049618,7.7345347 L 29.113626,8.4686545 L 32.926583,9.4903336 L 32.869992,8.7690667 L 29.049618,7.7345347 z " style="fill:#fffdf8;fill-opacity:1;fill-rule:evenodd;stroke:none;stroke-width:2.5;stroke-linecap:butt;stroke-linejoin:miter;stroke-miterlimit:4;stroke-opacity:1"/>
    <path sodipodi:nodetypes="ccccc" id="path2824" d="M 29.450964,14.060139 L 29.495742,14.767378 L 33.256252,15.775004 L 33.215056,15.068725 L 29.450964,14.060139 z " style="fill:#bab5ab;fill-opacity:1;fill-rule:evenodd;stroke:none;stroke-width:2.5;stroke-linecap:butt;stroke-linejoin:miter;stroke-miterlimit:4;stroke-opacity:1"/>
    <path sodipodi:nodetypes="ccccc" id="path2825" d="M 32.873057,8.7823361 L 32.937064,9.5164559 L 36.750022,10.538135 L 36.693431,9.8168655 L 32.873057,8.7823361 z " style="fill:#7d7a71;fill-opacity:1;fill-rule:evenodd;stroke:none;stroke-width:2.5;stroke-linecap:butt;stroke-linejoin:miter;stroke-miterlimit:4;stroke-opacity:1"/>
    <path sodipodi:nodetypes="ccccc" id="path2826" d="M 33.238285,15.098714 L 33.283066,15.805953 L 37.043573,16.813579 L 37.00238,16.107299 L 33.238285,15.098714 z " style="fill:#262420;fill-opacity:1;fill-rule:evenodd;stroke:none;stroke-width:2.5;stroke-linecap:butt;stroke-linejoin:miter;stroke-miterlimit:4;stroke-opacity:1"/>
    <path sodipodi:nodetypes="ccccc" id="path2827" style="fill:#eae8e3;fill-rule:evenodd;stroke-width:1pt" d="M 36.645877,9.7892112 L 37.077102,16.802423 L 40.837339,17.809976 L 40.464807,10.819453 L 36.645877,9.7892112 z "/>
    <path sodipodi:nodetypes="ccccc" id="path2828" d="M 36.630933,9.7659439 L 36.694942,10.500064 L 40.507897,11.521743 L 40.451309,10.800476 L 36.630933,9.7659439 z " style="fill:#fffdf8;fill-opacity:1;fill-rule:evenodd;stroke:none;stroke-width:2.5;stroke-linecap:butt;stroke-linejoin:miter;stroke-miterlimit:4;stroke-opacity:1"/>
    <path sodipodi:nodetypes="ccccc" id="path2829" d="M 37.032281,16.091545 L 37.077056,16.798785 L 40.837566,17.806411 L 40.796373,17.100132 L 37.032281,16.091545 z " style="fill:#bab5ab;fill-opacity:1;fill-rule:evenodd;stroke:none;stroke-width:2.5;stroke-linecap:butt;stroke-linejoin:miter;stroke-miterlimit:4;stroke-opacity:1"/>
    <path sodipodi:nodetypes="ccccc" id="path2830" d="M 40.439533,10.788044 L 40.503544,11.522161 L 44.3165,12.54384 L 44.259909,11.822574 L 40.439533,10.788044 z " style="fill:#7d7a71;fill-opacity:1;fill-rule:evenodd;stroke:none;stroke-width:2.5;stroke-linecap:butt;stroke-linejoin:miter;stroke-miterlimit:4;stroke-opacity:1"/>
    <path sodipodi:nodetypes="ccccc" id="path2831" d="M 40.804763,17.104422 L 40.849541,17.811661 L 44.610051,18.819287 L 44.568858,18.113008 L 40.804763,17.104422 z " style="fill:#262420;fill-opacity:1;fill-rule:evenodd;stroke:none;stroke-width:2.5;stroke-linecap:butt;stroke-linejoin:miter;stroke-miterlimit:4;stroke-opacity:1"/>
    <path sodipodi:nodetypes="ccccc" id="path2832" style="fill:#eae8e3;fill-rule:evenodd;stroke-width:1pt" d="M 44.215562,11.782938 L 44.645142,18.830278 L 46.912666,19.43786 L 48.625732,13.015306 L 44.215562,11.782938 z "/>
    <path sodipodi:nodetypes="ccccc" id="path2833" d="M 44.191978,11.791922 L 44.25599,12.526041 L 48.413546,13.640057 L 48.600205,12.983969 L 44.191978,11.791922 z " style="fill:#fffdf8;fill-opacity:1;fill-rule:evenodd;stroke:none;stroke-width:2.5;stroke-linecap:butt;stroke-linejoin:miter;stroke-miterlimit:4;stroke-opacity:1"/>
    <path sodipodi:nodetypes="ccccc" id="path2834" d="M 44.593324,18.117526 L 44.638104,18.824765 L 46.939103,19.441317 L 47.095185,18.809623 L 44.593324,18.117526 z " style="fill:#bab5ab;fill-opacity:1;fill-rule:evenodd;stroke:none;stroke-width:2.5;stroke-linecap:butt;stroke-linejoin:miter;stroke-miterlimit:4;stroke-opacity:1"/>
    <path sodipodi:nodetypes="ccccc" id="path2835" d="M 4.8438592,7.4720492 L 4.687965,8.1255185 L 6.8287661,8.6991449 L 6.7875716,7.9928657 L 4.8438592,7.4720492 z " style="fill:#262420;fill-opacity:1;fill-rule:evenodd;stroke:none;stroke-width:2.5;stroke-linecap:butt;stroke-linejoin:miter;stroke-miterlimit:4;stroke-opacity:1"/>
    <path sodipodi:nodetypes="ccccc" id="path2836" d="M 6.3844731,1.7238992 L 4.8391902,7.4909686 L 5.4878589,7.6647791 L 6.5320794,3.7676995 L 6.3844731,1.7238992 z " style="fill:#7d7a71;fill-opacity:1;fill-rule:evenodd;stroke:none;stroke-width:2.5;stroke-linecap:butt;stroke-linejoin:miter;stroke-miterlimit:4;stroke-opacity:1"/>
    <path id="path2837" d="M 47.8115,13.49559 L 46.4384,18.620072 L 47.08707,18.793883 L 48.460173,13.6694 L 47.8115,13.49559 z " style="fill:#bab5ab;fill-opacity:1;fill-rule:evenodd;stroke:none;stroke-width:2.5;stroke-linecap:butt;stroke-linejoin:miter;stroke-miterlimit:4;stroke-opacity:1"/>
    <path id="rect894" d="M 5.9372895,19.420587 C 5.1006052,19.420587 4.427029,20.094163 4.427029,20.930847 L 4.427029,45.053849 C 4.427029,45.89053 5.1006052,46.564106 5.9372895,46.564106 L 47.09383,46.564106 C 47.930515,46.564106 48.604093,45.89053 48.604093,45.053849 L 48.604093,20.930847 C 48.604093,20.094163 47.930515,19.420587 47.09383,19.420587 L 5.9372895,19.420587 z " style="fill:url(#linearGradient2305);fill-rule:evenodd;stroke:none;stroke-width:0.84179344pt;stroke-opacity:1"/>
    <path id="rect897" d="M 4.8943039,16.594204 C 4.730206,16.594204 4.5980983,16.726311 4.5980983,16.890409 L 4.5980983,20.635674 C 4.5980983,20.799772 4.730206,20.93188 4.8943039,20.93188 L 48.309637,20.93188 C 48.473736,20.93188 48.605846,20.799772 48.605846,20.635674 L 48.605846,16.890409 C 48.605846,16.726311 48.473736,16.594204 48.309637,16.594204 L 4.8943039,16.594204 z " style="fill:#423f38;fill-rule:evenodd;stroke-width:1.09018841pt"/>
    <path id="rect898" d="M 38.973934,13.013345 L 38.973934,23.276424 L 48.606648,23.276424 L 48.606648,13.013345 L 38.973934,13.013345 z " style="fill:#48443c;fill-opacity:1;fill-rule:evenodd;stroke-width:1.0867322pt"/>
    <path id="path899" style="fill:#bab5ab;fill-rule:evenodd;stroke:#000000;stroke-width:0.4183784pt" d="M 42.761473,19.17861 C 42.762102,18.514404 42.223838,17.975624 41.559628,17.975624 C 40.895425,17.975624 40.357154,18.514404 40.35779,19.17861 C 40.357154,19.842816 40.895425,20.381596 41.559628,20.381596 C 42.223838,20.381596 42.762102,19.842816 42.761473,19.17861 z "/>
    <path id="path902" style="fill:none;fill-opacity:0.75;fill-rule:evenodd;stroke:#eae8e3;stroke-width:0.68050748;stroke-linecap:round;stroke-linejoin:round" d="M 7.2940823,40.005483 L 46.390883,40.005483"/>
    <path id="path903" style="fill:none;fill-opacity:0.75;fill-rule:evenodd;stroke:#eae8e3;stroke-width:0.68050748;stroke-linejoin:round" d="M 7.2339309,33.870293 L 46.330733,33.870293"/>
    <path id="path906" style="fill:none;fill-opacity:0.75;fill-rule:evenodd;stroke:#eae8e3;stroke-width:0.68050748;stroke-linecap:round;stroke-linejoin:round" d="M 40.707081,34.336586 L 40.707081,39.509394"/>
    <path id="path929" d="M 47.84728,13.019224 L 47.84728,45.192806 L 48.602775,45.192806 L 48.602775,13.019224 L 47.84728,13.019224 z " style="fill:#262420;fill-opacity:1;fill-rule:evenodd;stroke:none;stroke-width:2.5;stroke-linecap:butt;stroke-linejoin:miter;stroke-miterlimit:4;stroke-opacity:1"/>
    <path id="path930" style="fill:none;fill-opacity:0.75;fill-rule:evenodd;stroke:#262420;stroke-width:0.67155093;stroke-linecap:butt;stroke-linejoin:miter;stroke-miterlimit:4" d="M 5.7141479,46.207694 L 47.271094,46.207694"/>
    <path id="path1014" style="fill:#bab5ab;fill-rule:evenodd;stroke:#000000;stroke-width:0.4183784pt" d="M 47.217991,19.396945 C 47.218624,18.732739 46.680356,18.193959 46.016147,18.193959 C 45.351943,18.193959 44.813676,18.732739 44.814308,19.396945 C 44.813676,20.06115 45.351943,20.599931 46.016147,20.599931 C 46.680356,20.599931 47.218624,20.06115 47.217991,19.396945 z "/>
    <path id="path1015" style="fill:#bab5ab;fill-rule:evenodd;stroke:#000000;stroke-width:0.4183784pt" d="M 47.217966,15.788008 C 47.218595,15.123802 46.680331,14.585023 46.016121,14.585023 C 45.351917,14.585023 44.81365,15.123802 44.814282,15.788008 C 44.81365,16.452214 45.351917,16.990994 46.016121,16.990994 C 46.680331,16.990994 47.218595,16.452214 47.217966,15.788008 z "/>
    <path id="path1016" d="M 41.834717,18.990948 C 41.834964,18.733952 41.626697,18.525487 41.369703,18.525487 C 41.112706,18.525487 40.904439,18.733952 40.904683,18.990948 C 40.904439,19.247943 41.112706,19.456408 41.369703,19.456408 C 41.626697,19.456408 41.834964,19.247943 41.834717,18.990948 z " style="fill:#eae8e3;fill-rule:evenodd;stroke-width:1pt"/>
    <path id="path1017" d="M 46.270702,19.216511 C 46.270946,18.959516 46.06268,18.75105 45.805685,18.75105 C 45.548688,18.75105 45.340419,18.959516 45.340666,19.216511 C 45.340419,19.473506 45.548688,19.681972 45.805685,19.681972 C 46.06268,19.681972 46.270946,19.473506 46.270702,19.216511 z " style="fill:#eae8e3;fill-rule:evenodd;stroke-width:1pt"/>
    <path id="path1018" d="M 46.300752,15.637649 C 46.300998,15.380655 46.092732,15.172189 45.835735,15.172189 C 45.57874,15.172189 45.370471,15.380655 45.370715,15.637649 C 45.370471,15.894645 45.57874,16.10311 45.835735,16.10311 C 46.092732,16.10311 46.300998,15.894645 46.300752,15.637649 z " style="fill:#eae8e3;fill-rule:evenodd;stroke-width:1pt"/>
    <path id="path1019" d="M 38.972315,13.68238 L 38.972315,23.212108 L 39.643866,23.212108 L 39.643866,13.68238 L 38.972315,13.68238 z " style="fill:#807d74;fill-opacity:1;fill-rule:evenodd;stroke:none;stroke-width:2.5;stroke-linecap:butt;stroke-linejoin:miter;stroke-miterlimit:4;stroke-opacity:1"/>
    <path id="path1021" d="M 38.972315,13.010829 L 38.972315,13.68238 L 47.840988,13.68238 L 47.840988,13.010829 L 38.972315,13.010829 z " style="fill:#807d74;fill-opacity:1;fill-rule:evenodd;stroke:none;stroke-width:2.5;stroke-linecap:butt;stroke-linejoin:miter;stroke-miterlimit:4;stroke-opacity:1"/>
    <path id="path2771" style="fill:none;fill-opacity:0.75;fill-rule:evenodd;stroke:#eae8e3;stroke-width:0.68050748;stroke-linecap:round;stroke-linejoin:round" d="M 7.076861,27.582005 L 46.173661,27.582005"/>
    <path id="rect2772" d="M 4.4396449,16.556938 L 4.4396449,23.21957 L 38.969918,23.21957 L 38.969918,16.556938 L 4.4396449,16.556938 z " style="fill:#423f38;fill-opacity:1;fill-rule:evenodd;stroke:none;stroke-width:2.5;stroke-linecap:butt;stroke-linejoin:miter;stroke-miterlimit:4;stroke-opacity:1"/>
    <path id="path2773" d="M 4.4396445,16.556938 L 6.6713318,23.21957 L 10.564211,23.21957 L 8.395093,16.563662 L 4.4396445,16.556938 z " style="fill:#eae8e3;fill-rule:evenodd;stroke-width:1pt"/>
    <path id="path2774" d="M 4.419189,16.538333 L 4.6710206,17.23087 L 8.6184804,17.23087 L 8.3771414,16.548826 L 4.419189,16.538333 z " style="fill:#fffdf8;fill-opacity:1;fill-rule:evenodd;stroke:none;stroke-width:2.5;stroke-linecap:butt;stroke-linejoin:miter;stroke-miterlimit:4;stroke-opacity:1"/>
    <path id="path2776" d="M 8.3509078,16.544793 L 8.6027395,17.23733 L 12.550199,17.23733 L 12.30886,16.555286 L 8.3509078,16.544793 z " style="fill:#7d7a71;fill-opacity:1;fill-rule:evenodd;stroke:none;stroke-width:2.5;stroke-linecap:butt;stroke-linejoin:miter;stroke-miterlimit:4;stroke-opacity:1"/>
    <path id="path2778" d="M 12.267243,16.549056 L 14.49893,23.211687 L 18.391809,23.211687 L 16.222691,16.55578 L 12.267243,16.549056 z " style="fill:#eae8e3;fill-rule:evenodd;stroke-width:1pt"/>
    <path id="path2779" d="M 12.246787,16.530451 L 12.498619,17.222987 L 16.446078,17.222987 L 16.204739,16.540944 L 12.246787,16.530451 z " style="fill:#fffdf8;fill-opacity:1;fill-rule:evenodd;stroke:none;stroke-width:2.5;stroke-linecap:butt;stroke-linejoin:miter;stroke-miterlimit:4;stroke-opacity:1"/>
    <path id="path2781" d="M 16.211138,16.531983 L 16.462969,17.22452 L 20.410429,17.22452 L 20.16909,16.542476 L 16.211138,16.531983 z " style="fill:#7d7a71;fill-opacity:1;fill-rule:evenodd;stroke:none;stroke-width:2.5;stroke-linecap:butt;stroke-linejoin:miter;stroke-miterlimit:4;stroke-opacity:1"/>
    <path id="path2783" d="M 20.09501,16.549056 L 22.326697,23.211688 L 26.219576,23.211688 L 24.050458,16.55578 L 20.09501,16.549056 z " style="fill:#eae8e3;fill-rule:evenodd;stroke-width:1pt"/>
    <path id="path2784" d="M 20.074554,16.530451 L 20.326386,17.222988 L 24.273846,17.222988 L 24.032506,16.540944 L 20.074554,16.530451 z " style="fill:#fffdf8;fill-opacity:1;fill-rule:evenodd;stroke:none;stroke-width:2.5;stroke-linecap:butt;stroke-linejoin:miter;stroke-miterlimit:4;stroke-opacity:1"/>
    <path id="path2786" d="M 24.017917,16.552968 L 24.269749,17.245506 L 28.217209,17.245506 L 27.97587,16.563462 L 24.017917,16.552968 z " style="fill:#7d7a71;fill-opacity:1;fill-rule:evenodd;stroke:none;stroke-width:2.5;stroke-linecap:butt;stroke-linejoin:miter;stroke-miterlimit:4;stroke-opacity:1"/>
    <path id="path2788" d="M 27.90179,16.549056 L 30.133477,23.211687 L 34.026359,23.211687 L 31.85724,16.55578 L 27.90179,16.549056 z " style="fill:#eae8e3;fill-rule:evenodd;stroke-width:1pt"/>
    <path id="path2789" d="M 27.881335,16.53045 L 28.133166,17.222987 L 32.080626,17.222987 L 31.839287,16.540943 L 27.881335,16.53045 z " style="fill:#fffdf8;fill-opacity:1;fill-rule:evenodd;stroke:none;stroke-width:2.5;stroke-linecap:butt;stroke-linejoin:miter;stroke-miterlimit:4;stroke-opacity:1"/>
    <path id="path2791" d="M 31.845684,16.552968 L 32.097515,17.245505 L 36.044973,17.245505 L 35.803634,16.563461 L 31.845684,16.552968 z " style="fill:#7d7a71;fill-opacity:1;fill-rule:evenodd;stroke:none;stroke-width:2.5;stroke-linecap:butt;stroke-linejoin:miter;stroke-miterlimit:4;stroke-opacity:1"/>
    <path id="path2793" d="M 35.750543,16.549056 L 37.927074,23.211687 L 38.979044,23.211687 L 38.974263,16.55578 L 35.750543,16.549056 z " style="fill:#eae8e3;fill-rule:evenodd;stroke-width:1pt"/>
    <path id="path2794" d="M 35.730089,16.53045 L 35.97873,17.222987 L 38.964023,17.222987 C 38.954847,17.22616 38.960796,16.550507 38.944236,16.540943 L 35.730089,16.53045 z " style="fill:#fffdf8;fill-opacity:1;fill-rule:evenodd;stroke:none;stroke-width:2.5;stroke-linecap:butt;stroke-linejoin:miter;stroke-miterlimit:4;stroke-opacity:1"/>
    <path id="path2802" d="M 4.4328295,16.590799 L 4.4328295,45.310091 L 5.1043805,45.310091 L 5.1043805,18.572495 L 4.4328295,16.590799 z " style="fill:#7d7a71;fill-opacity:1;fill-rule:evenodd;stroke:none;stroke-width:2.5;stroke-linecap:butt;stroke-linejoin:miter;stroke-miterlimit:4;stroke-opacity:1"/>
    <path id="path3050" d="M 6.1397986,1.522879 L 4.3046967,8.2132088 L 34.962362,16.343567 L 35.232241,16.283253 L 4.0789623,16.32194 L 4.087492,44.836786 L 4.087492,45.09268 L 4.1386704,45.09268 C 4.2640285,45.801165 4.8517056,46.346547 5.5972523,46.346547 L 47.205498,46.859217 C 47.993823,46.85922 48.829011,46.073946 48.900767,45.30499 L 48.926358,45.30499 L 48.926358,45.168514 L 48.926358,12.80709 L 6.1397986,1.522879 z " style="fill:none;fill-opacity:1;fill-rule:evenodd;stroke:#000000;stroke-width:0.67896551;stroke-linecap:butt;stroke-linejoin:miter;stroke-miterlimit:4;stroke-opacity:1"/>
  </g>
</svg>