<?xml version="1.0" encoding="UTF-8" standalone="no"?>
<!-- Created with Inkscape (http://www.inkscape.org/) -->

<svg
   xmlns:dc="http://purl.org/dc/elements/1.1/"
   xmlns:cc="http://creativecommons.org/ns#"
   xmlns:rdf="http://www.w3.org/1999/02/22-rdf-syntax-ns#"
   xmlns:svg="http://www.w3.org/2000/svg"
   xmlns="http://www.w3.org/2000/svg"
   xmlns:xlink="http://www.w3.org/1999/xlink"
   xmlns:sodipodi="http://sodipodi.sourceforge.net/DTD/sodipodi-0.dtd"
   xmlns:inkscape="http://www.inkscape.org/namespaces/inkscape"
   version="1.0"
   width="48"
   height="48"
   id="svg3367"
   inkscape:version="0.48.1 r9760"
   sodipodi:docname="tools-media-optical-format.svg">
  <metadata
     id="metadata120">
    <rdf:RDF>
      <cc:Work
         rdf:about="">
        <dc:format>image/svg+xml</dc:format>
        <dc:type
           rdf:resource="http://purl.org/dc/dcmitype/StillImage" />
        <dc:title></dc:title>
      </cc:Work>
    </rdf:RDF>
  </metadata>
  <sodipodi:namedview
     pagecolor="#ffffff"
     bordercolor="#666666"
     borderopacity="1"
     objecttolerance="10"
     gridtolerance="10"
     guidetolerance="10"
     inkscape:pageopacity="0"
     inkscape:pageshadow="2"
     inkscape:window-width="788"
     inkscape:window-height="732"
     id="namedview118"
     showgrid="false"
     inkscape:zoom="6.0208333"
     inkscape:cx="24"
     inkscape:cy="24"
     inkscape:window-x="361"
     inkscape:window-y="60"
     inkscape:window-maximized="0"
     inkscape:current-layer="svg3367" />
  <defs
     id="defs3369">
    <linearGradient
       id="linearGradient23419">
      <stop
         id="stop23421"
         style="stop-color:#000000;stop-opacity:1"
         offset="0" />
      <stop
         id="stop23423"
         style="stop-color:#000000;stop-opacity:0"
         offset="1" />
    </linearGradient>
    <linearGradient
       id="linearGradient3772">
      <stop
         id="stop3774"
         style="stop-color:#b4b4b4;stop-opacity:1"
         offset="0" />
      <stop
         id="stop3776"
         style="stop-color:#969696;stop-opacity:1"
         offset="1" />
    </linearGradient>
    <linearGradient
       x1="12.2744"
       y1="32.4165"
       x2="35.391201"
       y2="14.2033"
       id="linearGradient3263"
       gradientUnits="userSpaceOnUse">
      <stop
         id="stop3265"
         style="stop-color:#dedbde;stop-opacity:1"
         offset="0" />
      <stop
         id="stop3267"
         style="stop-color:#e6e6e6;stop-opacity:1"
         offset="0.5" />
      <stop
         id="stop3269"
         style="stop-color:#d2d2d2;stop-opacity:1"
         offset="1" />
    </linearGradient>
    <linearGradient
       id="linearGradient3428">
      <stop
         id="stop3430"
         style="stop-color:#aaaaaa;stop-opacity:1"
         offset="0" />
      <stop
         id="stop3432"
         style="stop-color:#d4d4d4;stop-opacity:1"
         offset="1" />
    </linearGradient>
    <linearGradient
       x1="10.609375"
       y1="17.886322"
       x2="9.7297754"
       y2="20.612656"
       id="linearGradient3354"
       xlink:href="#linearGradient3519"
       gradientUnits="userSpaceOnUse"
       spreadMethod="reflect" />
    <linearGradient
       x1="12.371647"
       y1="16.188046"
       x2="14.609327"
       y2="13.461712"
       id="linearGradient3352"
       xlink:href="#linearGradient3511"
       gradientUnits="userSpaceOnUse"
       spreadMethod="reflect" />
    <linearGradient
       x1="14.084608"
       y1="13.045606"
       x2="16.994024"
       y2="10.732353"
       id="linearGradient3350"
       xlink:href="#linearGradient3503"
       gradientUnits="userSpaceOnUse"
       spreadMethod="reflect" />
    <linearGradient
       x1="17.494959"
       y1="11.200086"
       x2="21.047453"
       y2="9.7956104"
       id="linearGradient3348"
       xlink:href="#linearGradient3495"
       gradientUnits="userSpaceOnUse"
       spreadMethod="reflect" />
    <linearGradient
       x1="20.580074"
       y1="10.774516"
       x2="24.27351"
       y2="9.8622112"
       id="linearGradient3346"
       xlink:href="#linearGradient3487"
       gradientUnits="userSpaceOnUse"
       spreadMethod="reflect" />
    <linearGradient
       id="linearGradient6036">
      <stop
         id="stop6038"
         style="stop-color:#ffffff;stop-opacity:1"
         offset="0" />
      <stop
         id="stop6040"
         style="stop-color:#ffffff;stop-opacity:0"
         offset="1" />
    </linearGradient>
    <linearGradient
       id="linearGradient3519">
      <stop
         id="stop3521"
         style="stop-color:#fcd9cd;stop-opacity:1"
         offset="0" />
      <stop
         id="stop3523"
         style="stop-color:#fcd9cd;stop-opacity:0"
         offset="1" />
    </linearGradient>
    <linearGradient
       x1="10.609375"
       y1="17.886322"
       x2="9.7297754"
       y2="20.612656"
       id="linearGradient3319"
       xlink:href="#linearGradient3519"
       gradientUnits="userSpaceOnUse"
       spreadMethod="reflect" />
    <linearGradient
       id="linearGradient3511">
      <stop
         id="stop3513"
         style="stop-color:#ebeec7;stop-opacity:1"
         offset="0" />
      <stop
         id="stop3515"
         style="stop-color:#ebeec7;stop-opacity:0"
         offset="1" />
    </linearGradient>
    <linearGradient
       x1="12.371647"
       y1="16.188046"
       x2="14.609327"
       y2="13.461712"
       id="linearGradient3317"
       xlink:href="#linearGradient3511"
       gradientUnits="userSpaceOnUse"
       spreadMethod="reflect" />
    <linearGradient
       id="linearGradient3503">
      <stop
         id="stop3505"
         style="stop-color:#c4ebdd;stop-opacity:1"
         offset="0" />
      <stop
         id="stop3507"
         style="stop-color:#c4ebdd;stop-opacity:0"
         offset="1" />
    </linearGradient>
    <linearGradient
       x1="14.084608"
       y1="13.045606"
       x2="16.994024"
       y2="10.732353"
       id="linearGradient3315"
       xlink:href="#linearGradient3503"
       gradientUnits="userSpaceOnUse"
       spreadMethod="reflect" />
    <linearGradient
       id="linearGradient3495">
      <stop
         id="stop3497"
         style="stop-color:#c1cbe4;stop-opacity:1"
         offset="0" />
      <stop
         id="stop3499"
         style="stop-color:#c1cbe4;stop-opacity:0"
         offset="1" />
    </linearGradient>
    <linearGradient
       x1="17.494959"
       y1="11.200086"
       x2="21.047453"
       y2="9.7956104"
       id="linearGradient3313"
       xlink:href="#linearGradient3495"
       gradientUnits="userSpaceOnUse"
       spreadMethod="reflect" />
    <linearGradient
       id="linearGradient3487">
      <stop
         id="stop3489"
         style="stop-color:#e6cde2;stop-opacity:1"
         offset="0" />
      <stop
         id="stop3491"
         style="stop-color:#e6cde2;stop-opacity:0"
         offset="1" />
    </linearGradient>
    <linearGradient
       x1="20.580074"
       y1="10.774516"
       x2="24.27351"
       y2="9.8622112"
       id="linearGradient3311"
       xlink:href="#linearGradient3487"
       gradientUnits="userSpaceOnUse"
       spreadMethod="reflect" />
    <linearGradient
       x1="10.50172"
       y1="3.6100161"
       x2="48.798885"
       y2="54.698483"
       id="linearGradient2453"
       xlink:href="#linearGradient6036"
       gradientUnits="userSpaceOnUse"
       gradientTransform="matrix(0.9849664,0,0,0.9849663,0.01902206,-0.6241532)" />
    <linearGradient
       x1="18.775953"
       y1="4.0378027"
       x2="18.203465"
       y2="45.962208"
       id="linearGradient2462"
       xlink:href="#linearGradient6036"
       gradientUnits="userSpaceOnUse"
       gradientTransform="matrix(0.4293444,0,0,0.4293442,13.546752,13.266392)" />
    <linearGradient
       x1="21.448364"
       y1="15.5"
       x2="21.448364"
       y2="32.509201"
       id="linearGradient2465"
       xlink:href="#linearGradient3428"
       gradientUnits="userSpaceOnUse"
       gradientTransform="matrix(0.9375,0,0,0.9375,1.5,1.5)" />
    <linearGradient
       x1="12.2744"
       y1="32.4165"
       x2="35.391201"
       y2="14.2033"
       id="linearGradient2470"
       xlink:href="#linearGradient3263"
       gradientUnits="userSpaceOnUse"
       gradientTransform="matrix(0,1.1714389,-1.1714389,0,51.060244,-4.11454)" />
    <linearGradient
       x1="-21.915663"
       y1="3"
       x2="-21.915663"
       y2="45.032898"
       id="linearGradient2472"
       xlink:href="#linearGradient3772"
       gradientUnits="userSpaceOnUse"
       gradientTransform="translate(50.26506,0)" />
    <radialGradient
       cx="23.334524"
       cy="41.63604"
       r="22.627417"
       fx="23.334524"
       fy="41.63604"
       id="radialGradient2475"
       xlink:href="#linearGradient23419"
       gradientUnits="userSpaceOnUse"
       gradientTransform="matrix(0.9722718,0,0,0.2872354,1.3124992,27.540524)" />
    <linearGradient
       x1="32.892288"
       y1="8.0590115"
       x2="36.358372"
       y2="5.4565363"
       id="linearGradient3598"
       xlink:href="#linearGradient8589"
       gradientUnits="userSpaceOnUse"
       gradientTransform="matrix(0.6371285,0,0,0.6445638,18.829693,18.744517)" />
    <linearGradient
       id="linearGradient8589">
      <stop
         id="stop8591"
         style="stop-color:#fefefe;stop-opacity:1"
         offset="0" />
      <stop
         id="stop8593"
         style="stop-color:#cbcbcb;stop-opacity:1"
         offset="1" />
    </linearGradient>
    <filter
       x="-0.14846256"
       y="-0.16434373"
       width="1.2969251"
       height="1.3286875"
       color-interpolation-filters="sRGB"
       id="filter3212">
      <feGaussianBlur
         stdDeviation="0.77391625"
         id="feGaussianBlur3214" />
    </filter>
    <linearGradient
       x1="24"
       y1="1.9999999"
       x2="24"
       y2="46.01725"
       id="linearGradient3602"
       xlink:href="#linearGradient3211"
       gradientUnits="userSpaceOnUse"
       gradientTransform="matrix(0.6363646,0,0,0.6279076,18.727264,16.930216)" />
    <linearGradient
       id="linearGradient3211">
      <stop
         id="stop3213"
         style="stop-color:#ffffff;stop-opacity:1"
         offset="0" />
      <stop
         id="stop3215"
         style="stop-color:#ffffff;stop-opacity:0"
         offset="1" />
    </linearGradient>
    <radialGradient
       cx="102"
       cy="112.3047"
       r="139.55859"
       id="radialGradient3605"
       xlink:href="#XMLID_8_"
       gradientUnits="userSpaceOnUse"
       gradientTransform="matrix(0.2340426,0,0,-0.2542968,19.02129,50.288672)" />
    <radialGradient
       cx="102"
       cy="112.3047"
       r="139.55859"
       id="XMLID_8_"
       gradientUnits="userSpaceOnUse">
      <stop
         id="stop41"
         style="stop-color:#b7b8b9;stop-opacity:1"
         offset="0" />
      <stop
         id="stop47"
         style="stop-color:#ececec;stop-opacity:1"
         offset="0.18851049" />
      <stop
         id="stop49"
         style="stop-color:#fafafa;stop-opacity:0"
         offset="0.25718147" />
      <stop
         id="stop51"
         style="stop-color:#ffffff;stop-opacity:0"
         offset="0.30111277" />
      <stop
         id="stop53"
         style="stop-color:#fafafa;stop-opacity:0"
         offset="0.53130001" />
      <stop
         id="stop55"
         style="stop-color:#ebecec;stop-opacity:0"
         offset="0.84490001" />
      <stop
         id="stop57"
         style="stop-color:#e1e2e3;stop-opacity:0"
         offset="1" />
    </radialGradient>
    <linearGradient
       x1="25.132275"
       y1="0.98520643"
       x2="25.132275"
       y2="47.013336"
       id="linearGradient3608"
       xlink:href="#linearGradient3600"
       gradientUnits="userSpaceOnUse"
       gradientTransform="matrix(0.6571436,0,0,0.6301241,18.228566,15.910352)" />
    <linearGradient
       id="linearGradient3600">
      <stop
         id="stop3602"
         style="stop-color:#f4f4f4;stop-opacity:1"
         offset="0" />
      <stop
         id="stop3604"
         style="stop-color:#dbdbdb;stop-opacity:1"
         offset="1" />
    </linearGradient>
    <linearGradient
       x1="-51.786404"
       y1="50.786446"
       x2="-51.786404"
       y2="2.9062471"
       id="linearGradient3610"
       xlink:href="#linearGradient3104"
       gradientUnits="userSpaceOnUse"
       gradientTransform="matrix(0.5306412,0,0,0.5897023,57.269618,15.208092)" />
    <linearGradient
       id="linearGradient3104">
      <stop
         id="stop3106"
         style="stop-color:#9a9a9a;stop-opacity:1"
         offset="0" />
      <stop
         id="stop3108"
         style="stop-color:#afafaf;stop-opacity:1"
         offset="1" />
    </linearGradient>
    <radialGradient
       cx="605.71429"
       cy="486.64789"
       r="117.14286"
       fx="605.71429"
       fy="486.64789"
       id="radialGradient3613"
       xlink:href="#linearGradient5060"
       gradientUnits="userSpaceOnUse"
       gradientTransform="matrix(0.01566318,0,0,0.00823529,35.610446,42.980566)" />
    <linearGradient
       id="linearGradient5060">
      <stop
         id="stop5062"
         style="stop-color:#000000;stop-opacity:1"
         offset="0" />
      <stop
         id="stop5064"
         style="stop-color:#000000;stop-opacity:0"
         offset="1" />
    </linearGradient>
    <radialGradient
       cx="605.71429"
       cy="486.64789"
       r="117.14286"
       fx="605.71429"
       fy="486.64789"
       id="radialGradient3616"
       xlink:href="#linearGradient5060"
       gradientUnits="userSpaceOnUse"
       gradientTransform="matrix(-0.01566318,0,0,0.00823529,33.389579,42.980566)" />
    <linearGradient
       x1="3.7797408"
       y1="106.37297"
       x2="3.7797408"
       y2="99.720741"
       id="linearGradient3619"
       xlink:href="#linearGradient5048"
       gradientUnits="userSpaceOnUse"
       gradientTransform="matrix(3.1586968,0,0,0.3008283,19.296394,16)" />
    <linearGradient
       id="linearGradient5048">
      <stop
         id="stop5050"
         style="stop-color:#000000;stop-opacity:0"
         offset="0" />
      <stop
         id="stop5056"
         style="stop-color:#000000;stop-opacity:1"
         offset="0.5" />
      <stop
         id="stop5052"
         style="stop-color:#000000;stop-opacity:0"
         offset="1" />
    </linearGradient>
    <linearGradient
       id="linearGradient5060-179">
      <stop
         id="stop2675"
         style="stop-color:#000000;stop-opacity:1"
         offset="0" />
      <stop
         id="stop2677"
         style="stop-color:#000000;stop-opacity:0"
         offset="1" />
    </linearGradient>
    <radialGradient
       cx="605.71429"
       cy="486.64789"
       r="117.14286"
       fx="605.71429"
       fy="486.64789"
       id="radialGradient3717"
       xlink:href="#linearGradient5060-179"
       gradientUnits="userSpaceOnUse"
       gradientTransform="matrix(0.03079083,0,0,0.02470588,24.610252,31.941642)" />
    <radialGradient
       inkscape:collect="always"
       xlink:href="#aigrd7"
       id="radialGradient2615"
       gradientUnits="userSpaceOnUse"
       gradientTransform="matrix(0.92188444,0,0,0.92188444,-0.17322209,-4.8500344)"
       cx="42.621101"
       cy="40.087399"
       fx="42.621101"
       fy="40.087399"
       r="34.826698" />
    <radialGradient
       gradientUnits="userSpaceOnUse"
       fy="40.087399"
       fx="42.621101"
       r="34.826698"
       cy="40.087399"
       cx="42.621101"
       id="aigrd7">
      <stop
         id="stop104"
         style="stop-color: rgb(255, 255, 0);"
         offset="0" />
      <stop
         id="stop106"
         style="stop-color: rgb(255, 243, 0);"
         offset="0.0333" />
      <stop
         id="stop108"
         style="stop-color: rgb(255, 170, 0);"
         offset="0.2447" />
      <stop
         id="stop110"
         style="stop-color: rgb(255, 110, 0);"
         offset="0.4437" />
      <stop
         id="stop112"
         style="stop-color: rgb(255, 62, 0);"
         offset="0.6242" />
      <stop
         id="stop114"
         style="stop-color: rgb(255, 28, 0);"
         offset="0.7828" />
      <stop
         id="stop116"
         style="stop-color: rgb(255, 8, 0);"
         offset="0.9135" />
      <stop
         id="stop118"
         style="stop-color: rgb(255, 0, 0);"
         offset="1" />
      <stop
         id="stop120"
         style="stop-color: rgb(74, 20, 134);"
         offset="1" />
    </radialGradient>
    <linearGradient
       inkscape:collect="always"
       xlink:href="#linearGradient3308"
       id="linearGradient3095"
       gradientUnits="userSpaceOnUse"
       x1="21.310946"
       y1="11.446488"
       x2="6.589735"
       y2="11.788887" />
    <linearGradient
       id="linearGradient3308">
      <stop
         id="stop3310"
         style="stop-color:#fc0000;stop-opacity:1"
         offset="0" />
      <stop
         id="stop3312"
         style="stop-color:#fc0000;stop-opacity:0"
         offset="1" />
    </linearGradient>
    <radialGradient
       inkscape:collect="always"
       xlink:href="#linearGradient3293"
       id="radialGradient3097"
       gradientUnits="userSpaceOnUse"
       cx="5.9628973"
       cy="10.957597"
       fx="5.9628973"
       fy="10.957597"
       r="1.5017668" />
    <linearGradient
       id="linearGradient3293">
      <stop
         id="stop3296"
         style="stop-color:#ffc64e;stop-opacity:1"
         offset="0" />
      <stop
         id="stop3839"
         style="stop-color:#f30000;stop-opacity:0.83064514"
         offset="0.30000001" />
      <stop
         id="stop3302"
         style="stop-color:#fb0000;stop-opacity:0.47580644"
         offset="0.43782738" />
      <stop
         id="stop3298"
         style="stop-color:#ffb56f;stop-opacity:0"
         offset="1" />
    </linearGradient>
    <radialGradient
       r="1.5017668"
       fy="10.957597"
       fx="5.9628973"
       cy="10.957597"
       cx="5.9628973"
       gradientUnits="userSpaceOnUse"
       id="radialGradient3299"
       xlink:href="#linearGradient3293"
       inkscape:collect="always" />
    <linearGradient
       x1="10.351493"
       y1="2.1772521"
       x2="10.351493"
       y2="18.417696"
       id="linearGradient3917"
       xlink:href="#linearGradient3290"
       gradientUnits="userSpaceOnUse"
       gradientTransform="matrix(2.3841083,0,0,2.4591314,46.809841,40.645851)" />
    <linearGradient
       id="linearGradient3290">
      <stop
         id="stop3292"
         style="stop-color:#a50000;stop-opacity:1"
         offset="0" />
      <stop
         id="stop3294"
         style="stop-color:#ff580a;stop-opacity:1"
         offset="1" />
    </linearGradient>
    <linearGradient
       x1="10.351493"
       y1="2.1772521"
       x2="10.351493"
       y2="18.417696"
       id="linearGradient3903"
       xlink:href="#linearGradient3290"
       gradientUnits="userSpaceOnUse"
       gradientTransform="matrix(2.3841083,0,0,2.4591314,46.809841,40.645851)" />
    <linearGradient
       id="linearGradient3610-9">
      <stop
         id="stop3612"
         style="stop-color:#a50000;stop-opacity:1"
         offset="0" />
      <stop
         id="stop3614"
         style="stop-color:#ff580a;stop-opacity:1"
         offset="1" />
    </linearGradient>
    <linearGradient
       x1="10.351493"
       y1="2.5798409"
       x2="10.351493"
       y2="18.417696"
       id="linearGradient3895"
       xlink:href="#linearGradient3290"
       gradientUnits="userSpaceOnUse"
       gradientTransform="matrix(2.3841083,0,0,2.4591314,46.809841,40.645851)" />
    <linearGradient
       id="linearGradient3617">
      <stop
         id="stop3619"
         style="stop-color:#a50000;stop-opacity:1"
         offset="0" />
      <stop
         id="stop3621"
         style="stop-color:#ff580a;stop-opacity:1"
         offset="1" />
    </linearGradient>
    <linearGradient
       x1="10.351493"
       y1="2.5798409"
       x2="10.351493"
       y2="18.417696"
       id="linearGradient3721-4"
       xlink:href="#linearGradient3290"
       gradientUnits="userSpaceOnUse"
       gradientTransform="matrix(2.3841083,0,0,2.4591314,46.809841,39.645851)" />
    <linearGradient
       id="linearGradient3624">
      <stop
         id="stop3626"
         style="stop-color:#a50000;stop-opacity:1"
         offset="0" />
      <stop
         id="stop3628"
         style="stop-color:#ff580a;stop-opacity:1"
         offset="1" />
    </linearGradient>
    <linearGradient
       x1="10.351493"
       y1="4.2104902"
       x2="10.351493"
       y2="18.417696"
       id="linearGradient3956"
       xlink:href="#linearGradient3203"
       gradientUnits="userSpaceOnUse"
       gradientTransform="matrix(2.3841083,0,0,2.4591314,46.809841,39.645851)" />
    <linearGradient
       id="linearGradient3203">
      <stop
         id="stop3205"
         style="stop-color:#ff3000;stop-opacity:1"
         offset="0" />
      <stop
         id="stop3211"
         style="stop-color:#ff7e00;stop-opacity:1"
         offset="0.27244934" />
      <stop
         id="stop3213-2"
         style="stop-color:#ffd200;stop-opacity:1"
         offset="0.62384999" />
      <stop
         id="stop3207"
         style="stop-color:#fff3b9;stop-opacity:1"
         offset="1" />
    </linearGradient>
    <linearGradient
       x1="10.351493"
       y1="5.4949298"
       x2="10.351493"
       y2="18.417696"
       id="linearGradient3940"
       xlink:href="#linearGradient3203"
       gradientUnits="userSpaceOnUse"
       gradientTransform="matrix(2.5299765,0,0,2.756407,45.295331,35.853737)" />
    <linearGradient
       id="linearGradient3637">
      <stop
         id="stop3639"
         style="stop-color:#ff3000;stop-opacity:1"
         offset="0" />
      <stop
         id="stop3641"
         style="stop-color:#ff7e00;stop-opacity:1"
         offset="0.27244934" />
      <stop
         id="stop3643"
         style="stop-color:#ffd200;stop-opacity:1"
         offset="0.62384999" />
      <stop
         id="stop3645"
         style="stop-color:#fff3b9;stop-opacity:1"
         offset="1" />
    </linearGradient>
    <linearGradient
       x1="10.351493"
       y1="3.8038428"
       x2="10.351493"
       y2="16.40992"
       id="linearGradient3964"
       xlink:href="#linearGradient3203"
       gradientUnits="userSpaceOnUse"
       gradientTransform="matrix(2.3841083,0,0,2.4591314,46.809841,39.645851)" />
    <linearGradient
       id="linearGradient3648">
      <stop
         id="stop3650"
         style="stop-color:#ff3000;stop-opacity:1"
         offset="0" />
      <stop
         id="stop3652"
         style="stop-color:#ff7e00;stop-opacity:1"
         offset="0.27244934" />
      <stop
         id="stop3654"
         style="stop-color:#ffd200;stop-opacity:1"
         offset="0.62384999" />
      <stop
         id="stop3656"
         style="stop-color:#fff3b9;stop-opacity:1"
         offset="1" />
    </linearGradient>
    <linearGradient
       y2="16.40992"
       x2="10.351493"
       y1="3.8038428"
       x1="10.351493"
       gradientTransform="matrix(2.3841083,0,0,2.4591314,46.809841,39.645851)"
       gradientUnits="userSpaceOnUse"
       id="linearGradient3666"
       xlink:href="#linearGradient3203"
       inkscape:collect="always" />
  </defs>
  <path
     d="m 46,39.499867 c 0.0011,3.589753 -9.848934,6.500001 -22,6.500001 -12.151066,0 -22.001133,-2.910248 -21.9999999,-6.500001 C 1.998867,35.910116 11.848934,32.999868 24,32.999868 c 12.151066,0 22.001133,2.910248 22,6.499999 l 0,0 z"
     id="path23417"
     style="opacity:0.3;fill:url(#radialGradient2475);fill-opacity:1;fill-rule:evenodd;stroke:none;stroke-width:2;marker:none;visibility:visible;display:inline;overflow:visible" />
  <path
     d="M 44.5,24 C 44.5,12.637039 35.362959,3.5 24,3.5 12.637038,3.5 3.5000001,12.63704 3.5000001,24 3.4999981,35.36296 12.637039,44.5 24,44.5 35.362958,44.499998 44.5,35.362961 44.5,24 z m -13,0 c 0,4.12813 -3.28927,7.5 -7.5,7.5 -4.29333,0 -7.5,-3.455313 -7.5,-7.5 0,-4.127303 3.041467,-7.5 7.5,-7.5 4.458533,0 7.5,3.45447 7.5,7.5 z"
     id="path2781"
     style="fill:url(#linearGradient2470);fill-rule:nonzero;stroke:url(#linearGradient2472);stroke-width:1;stroke-miterlimit:4;stroke-opacity:1" />
  <path
     d="m 24,16 c -4.416,0 -8,3.584 -8,8 0,4.416 3.584,8 8,8 4.416,0 8,-3.584 8,-8 0,-4.416 -3.584,-8 -8,-8 z m 0,4 c 2.208,0 4,1.792 4,4 0,2.208 -1.792,4 -4,4 -2.208,0 -4,-1.792 -4,-4 0,-2.208 1.792,-4 4,-4 z"
     id="path2474"
     style="opacity:0.5;fill:#ffffff;fill-opacity:1;fill-rule:nonzero;stroke:none;stroke-width:1;marker:none;visibility:visible;display:inline;overflow:visible;enable-background:accumulate" />
  <path
     d="m 24,16.5 c -4.14,0 -7.5,3.36 -7.5,7.5 0,4.14 3.36,7.5 7.5,7.5 4.14,0 7.5,-3.36 7.5,-7.5 0,-4.14 -3.36,-7.5 -7.5,-7.5 z m 0,3.75 c 2.07,0 3.75,1.68 3.75,3.75 0,2.07 -1.68,3.75 -3.75,3.75 -2.07,0 -3.75,-1.68 -3.75,-3.75 0,-2.07 1.68,-3.75 3.75,-3.75 z"
     id="path3418"
     style="fill:none;stroke:url(#linearGradient2465);stroke-width:1;stroke-linecap:butt;stroke-linejoin:round;stroke-miterlimit:4;stroke-opacity:1;stroke-dasharray:none;stroke-dashoffset:0;marker:none;visibility:visible;display:inline;overflow:visible;enable-background:accumulate" />
  <path
     d="m 24,15.499999 c -4.711429,0 -8.5,3.788571 -8.5,8.5 0,4.711429 3.788571,8.500001 8.5,8.500001 4.711431,0 8.5,-3.788572 8.5,-8.500001 0,-4.711429 -3.788569,-8.5 -8.5,-8.5 l 0,0 0,0 0,0 z"
     id="path3281"
     style="opacity:0.8;fill:none;stroke:url(#linearGradient2462);stroke-width:0.99999982;stroke-miterlimit:4;stroke-opacity:1" />
  <g
     id="g3527">
    <path
       d="M 15.856928,5.7307748 20.625,16.34375 C 21.660403,15.885186 22.795334,15.625 24,15.625 c 0.03206,0 0.06178,-3.6e-4 0.09375,0 L 24.10801,4.0047512 c -2.94215,-0.070687 -5.543041,0.6572865 -8.251083,1.7260236 l 10e-7,0 z"
       transform="matrix(0.9996011,0.02824295,-0.02824295,0.9996011,0.6924114,-0.6708346)"
       id="path3296"
       style="opacity:0.8;fill:url(#linearGradient3346);fill-opacity:1;fill-rule:nonzero;stroke:none" />
    <path
       d="m 12.121471,7.9060109 6.931026,9.3601041 c 0.913109,-0.669755 1.965938,-1.167064 3.142629,-1.425169 0.03132,-0.0069 0.06026,-0.01359 0.09157,-0.02009 L 19.857174,4.426276 c -2.888973,0.5613244 -5.31953,1.8556038 -7.735703,3.4797349 l 0,0 z"
       id="path3308"
       style="opacity:0.8;fill:url(#linearGradient3348);fill-opacity:1;fill-rule:nonzero;stroke:none" />
    <path
       d="m 8.2523933,11.646535 9.2137237,7.155818 c 0.70865,-0.883264 1.596891,-1.636119 2.666685,-2.18998 0.02847,-0.01474 0.05469,-0.02872 0.08325,-0.0431 L 14.86585,6.2506132 C 12.220599,7.5405321 10.165881,9.452393 8.2523933,11.646535 z"
       id="path3310"
       style="opacity:0.8;fill:url(#linearGradient3350);fill-opacity:1;fill-rule:nonzero;stroke:none" />
    <path
       d="m 5.6328855,16.073974 c 7.1748065,2.242248 7.8502625,7.031463 12.7767855,1.754127 L 10.499985,9.1321388 C 8.2787249,11.062747 6.9132871,13.459349 5.6328855,16.073974 z"
       id="path3312"
       style="opacity:0.8;fill:url(#linearGradient3352);fill-opacity:1;fill-rule:nonzero;stroke:none" />
    <path
       d="M 7.155289,13.193173 C 5.9722117,14.945185 5.2475768,16.829547 4.6301929,18.837116 L 15.96875,21.8125 C 16.184264,21.049497 16.486796,20.297733 16.9375,19.59375 16.95479,19.56675 16.98246,19.52673 17,19.5 L 7.155289,13.193173 z"
       id="path3314"
       style="opacity:0.8;fill:url(#linearGradient3354);fill-opacity:1;fill-rule:nonzero;stroke:none" />
  </g>
  <path
     d="m 24.000001,4.5000009 c -10.808572,0 -19.5000015,8.6914301 -19.5000015,19.5000001 0,10.808571 8.6914295,19.499998 19.5000015,19.499998 C 34.808573,43.499999 43.5,34.808572 43.5,24.000001 43.5,13.191431 34.808573,4.5000009 24.000001,4.5000009 l 0,0 0,0 z"
     id="path3272"
     style="opacity:0.4;fill:none;stroke:url(#linearGradient2453);stroke-width:0.99999994;stroke-miterlimit:4;stroke-opacity:1" />
  <g
     transform="matrix(-1,0,0,-1,48.999999,47.990833)"
     id="g3297">
    <path
       d="M 15.856928,5.7307748 20.625,16.34375 C 21.660403,15.885186 22.795334,15.625 24,15.625 c 0.03206,0 0.06178,-3.6e-4 0.09375,0 L 24.10801,4.0047512 c -2.94215,-0.070687 -5.543041,0.6572865 -8.251083,1.7260236 l 10e-7,0 z"
       transform="matrix(0.9996011,0.02824295,-0.02824295,0.9996011,0.6924114,-0.6708346)"
       id="path3299"
       style="opacity:0.8;fill:url(#linearGradient3311);fill-opacity:1;fill-rule:nonzero;stroke:none" />
    <path
       d="m 12.121471,7.9060109 6.931026,9.3601041 c 0.913109,-0.669755 1.965938,-1.167064 3.142629,-1.425169 0.03132,-0.0069 0.06026,-0.01359 0.09157,-0.02009 L 19.857174,4.426276 c -2.888973,0.5613244 -5.31953,1.8556038 -7.735703,3.4797349 l 0,0 z"
       id="path3301"
       style="opacity:0.8;fill:url(#linearGradient3313);fill-opacity:1;fill-rule:nonzero;stroke:none" />
    <path
       d="m 8.2523933,11.646535 9.2137237,7.155818 c 0.70865,-0.883264 1.596891,-1.636119 2.666685,-2.18998 0.02847,-0.01474 0.05469,-0.02872 0.08325,-0.0431 L 14.86585,6.2506132 C 12.220599,7.5405321 10.165881,9.452393 8.2523933,11.646535 z"
       id="path3303"
       style="opacity:0.8;fill:url(#linearGradient3315);fill-opacity:1;fill-rule:nonzero;stroke:none" />
    <path
       d="m 5.6328855,16.073974 c 7.1748065,2.242248 7.8502625,7.031463 12.7767855,1.754127 L 10.499985,9.1321388 C 8.2787249,11.062747 6.9132871,13.459349 5.6328855,16.073974 z"
       id="path3305"
       style="opacity:0.8;fill:url(#linearGradient3317);fill-opacity:1;fill-rule:nonzero;stroke:none" />
    <path
       d="M 7.155289,13.193173 C 5.9722117,14.945185 5.2475768,16.829547 4.6301929,18.837116 L 15.96875,21.8125 C 16.184264,21.049497 16.486796,20.297733 16.9375,19.59375 16.95479,19.56675 16.98246,19.52673 17,19.5 L 7.155289,13.193173 z"
       id="path3307"
       style="opacity:0.8;fill:url(#linearGradient3319);fill-opacity:1;fill-rule:nonzero;stroke:none" />
  </g>
  <path
     d="m 23.950002,46.000087 c 0,0 0,1.99989 0,1.99989 C 23.143387,48.003743 22,47.551903 22,46.999903 c 0,-0.552 0.900121,-0.999816 1.950002,-0.999816 z"
     id="path2881"
     style="opacity:0.15;fill:url(#radialGradient3616);fill-opacity:1;fill-rule:nonzero;stroke:none;stroke-width:1;marker:none;visibility:visible;display:inline;overflow:visible" />
  <path
     d="m 45.050024,46.000087 c 0,0 0,1.99989 0,1.99989 0.806614,0.0038 1.950002,-0.448074 1.950002,-1.000074 0,-0.552 -0.900122,-0.999816 -1.950002,-0.999816 z"
     id="path2883"
     style="opacity:0.15;fill:url(#radialGradient3613);fill-opacity:1;fill-rule:nonzero;stroke:none;stroke-width:1;marker:none;visibility:visible;display:inline;overflow:visible" />
  <g
     transform="matrix(0.38659927,0,0,0.46403231,-0.9724666,-2.026888)"
     style="opacity:0.4;fill:#ffffff;fill-rule:nonzero;stroke:none"
     id="g59" />
  <g
     transform="matrix(0.53347268,0,0,0.53347268,-29.598329,-1.0187066)"
     id="layer4"
     style="display:inline">
    <path
       d="m 73.34375,44.90625 c -1.479677,0.110248 -2.313686,1.582162 -3.413764,2.405429 -5.760891,5.386628 -10.749484,12.252962 -11.770524,20.266402 -0.616081,5.338389 0.05775,11.108742 3.104762,15.653927 1.794974,2.57295 4.517647,4.579125 7.61879,5.175542 3.638746,0.960375 7.58296,0.904535 11.083405,-0.556955 4.080903,-1.075434 6.823543,-4.943019 7.66095,-8.929905 C 89.209767,71.553057 86.330232,63.835 81.65625,58.15625 80.544645,56.772488 78.08594,57.683797 78.0625,59.4375 c 0.07881,1.018127 0.500445,3.581538 0.233337,3.488796 -0.984666,-3.347726 -3.966503,-5.945733 -3.959419,-9.597114 -0.104474,-2.131291 0.617893,-4.17248 1.101082,-6.204182 0.08284,-1.193344 -0.919712,-2.203301 -2.09375,-2.21875 z"
       inkscape:connector-curvature="0"
       id="path3909"
       style="opacity:0.1;fill:url(#linearGradient3917);fill-opacity:1;fill-rule:evenodd;stroke:none;display:inline" />
    <path
       inkscape:connector-curvature="0"
       d="m 73.21875,46 a 1.0074292,1.0074292 0 0 0 -0.53125,0.25 c -9.901576,8.5878 -14.60381,17.324648 -13.53125,27.4375 0.839148,7.912146 4.271064,11.486377 8.3125,13.21875 a 1.0074292,1.0074292 0 0 0 0.0625,0 c 1.872292,0.676672 3.895051,1.05525 6.0625,1.0625 0.02178,0.0015 0.04076,-0.0014 0.0625,0 2.569639,0.160684 4.835695,-0.692202 6.9375,-1.46875 a 1.0074292,1.0074292 0 0 0 0.03125,0 C 84.581702,84.848101 86.834852,80.557184 87,75.46875 87.165148,70.380316 85.300933,64.385738 80.9375,58.9375 A 1.0074292,1.0074292 0 0 0 79.15625,59.75 c 0.657448,3.773115 0.54419,6.42149 -0.03125,8.34375 -0.247034,0.825218 -0.599118,1.456128 -1,2.0625 0.426046,-5.212334 -1.204462,-8.266763 -2.71875,-10.75 -0.902694,-1.480303 -1.678415,-2.800986 -2,-4.59375 -0.321585,-1.792764 -0.189878,-4.104552 0.90625,-7.5 A 1.0074292,1.0074292 0 0 0 73.21875,46 z"
       id="path3901"
       style="opacity:0.15;fill:url(#linearGradient3903);fill-opacity:1;fill-rule:evenodd;stroke:none;display:inline" />
    <path
       d="M 73.340525,46.990019 C 63.572567,55.46193 59.11195,63.83067 60.146143,73.581775 c 0.813804,7.673184 3.911075,10.752443 7.71364,12.382423 1.784634,0.644991 3.708354,1.014954 5.78523,1.014954 2.329227,0.16098 4.479797,-0.638627 6.597189,-1.420934 7.013611,-2.92814 8.34979,-15.430409 -0.101491,-25.982786 1.348766,7.74061 -0.351896,11.280466 -3.349343,13.498869 3.149519,-14.257372 -7.974011,-12.072984 -3.450843,-26.084282 z"
       inkscape:connector-curvature="0"
       id="path3893"
       style="opacity:0.3;fill:url(#linearGradient3895);fill-opacity:1;fill-rule:evenodd;stroke:none;display:inline" />
    <path
       d="M 73.340525,45.990019 C 63.572567,54.46193 59.11195,62.83067 60.146143,72.581775 c 0.813804,7.673184 3.911075,10.752443 7.71364,12.382423 1.784634,0.644991 3.708354,1.014954 5.78523,1.014954 2.329227,0.16098 4.479797,-0.638627 6.597189,-1.420934 7.013611,-2.92814 8.34979,-15.430409 -0.101491,-25.982786 1.348766,7.74061 -0.351896,11.280466 -3.349343,13.498869 3.149519,-14.257372 -7.974011,-12.072984 -3.450843,-26.084282 z"
       inkscape:connector-curvature="0"
       id="path2421"
       style="opacity:0.7;fill:url(#linearGradient3721-4);fill-opacity:1;fill-rule:evenodd;stroke:none;display:inline" />
    <path
       inkscape:connector-curvature="0"
       d="m 70.8125,50.65625 c -6.85678,7.017596 -9.993071,13.891111 -9.15625,21.78125 0.769131,7.251972 3.318125,9.645215 6.71875,11.125 0.0187,0.0068 0.04377,-0.0067 0.0625,0 0.01327,0.0057 0.01796,0.02555 0.03125,0.03125 1.600676,0.567544 3.316748,0.875 5.1875,0.875 a 1.5041203,1.5041203 0 0 1 0.09375,0 c 1.909422,0.131966 3.819071,-0.511095 5.90625,-1.28125 0.02117,-0.0088 0.04144,-0.02219 0.0625,-0.03125 2.7993,-1.204809 4.639299,-4.407555 4.78125,-8.78125 0.09767,-3.009464 -0.713031,-6.519723 -2.46875,-10.03125 -0.06636,1.257704 -0.195084,2.450175 -0.5,3.46875 -0.730569,2.440469 -2.148434,4.214051 -3.84375,5.46875 A 1.5041203,1.5041203 0 0 1 75.3125,71.75 C 76.810438,64.969075 75.087978,62.732796 73.25,59.71875 72.331011,58.211727 71.345626,56.52521 70.9375,54.25 70.746695,53.186308 70.698538,51.976374 70.8125,50.65625 z"
       id="path3954"
       style="opacity:0.5;fill:url(#linearGradient3956);fill-opacity:1;fill-rule:evenodd;stroke:none;display:inline" />
    <path
       d="m 69.356465,54 c -4.30696,5.927954 -6.90713,11.740723 -6.246896,18.316109 0.759491,7.563977 2.738767,9.278216 5.816075,10.693878 1.523006,0.581404 3.078436,0.910117 4.84673,0.910117 a 3.6688738,3.8752868 0 0 1 0.21541,0 c 1.483225,0.108267 3.241227,-0.486429 5.49296,-1.365176 2.023722,-0.969653 3.640567,-3.598968 3.769679,-7.849761 0.03905,-1.285228 -0.370272,-2.855031 -0.646231,-4.323057 -0.982102,1.857495 -1.919002,3.781927 -3.338858,4.89188 a 3.6688738,3.8752868 0 0 1 -5.70837,-3.867998 C 75.040368,64.313063 73.599046,62.891645 71.618272,59.460703 70.824756,58.086241 69.966934,56.147891 69.356465,54 z"
       inkscape:connector-curvature="0"
       id="path4033"
       style="opacity:0.5;fill:url(#linearGradient3940);fill-opacity:1;fill-rule:evenodd;stroke:none;display:inline" />
    <path
       inkscape:connector-curvature="0"
       d="m 68.71875,59.03125 c -2.795904,4.255787 -3.930358,8.38424 -3.4375,13.03125 0.344342,3.246729 1.048459,5.007959 1.75,6.03125 0.66262,0.966519 1.415649,1.484996 2.625,2.03125 a 3.6561643,3.6561643 0 0 1 0.03125,0.03125 c 0.01865,0.0066 0.04382,-0.0065 0.0625,0 1.200193,0.418886 2.458586,0.65625 3.90625,0.65625 A 3.6561643,3.6561643 0 0 1 74,80.84375 l 0,-0.03125 c 0.907056,0.06269 2.353968,-0.314959 4.3125,-1.03125 0.969877,-0.433944 1.86647,-1.906506 2.25,-4.25 -0.242068,0.20537 -0.437798,0.502696 -0.6875,0.6875 A 3.6561643,3.6561643 0 0 1 74.6875,75.3125 3.6561643,3.6561643 0 0 1 71.75,70.96875 c 1.334094,-6.039231 0.323076,-6.149157 -1.625,-9.34375 -0.431819,-0.708127 -0.93085,-1.602041 -1.40625,-2.59375 z m 1.1875,21.1875 c 0.0072,0.0032 -0.0071,0.02809 0,0.03125 0.405003,0.180268 0.590891,0.34884 0.8125,0.53125 -0.226562,-0.181688 -0.399126,-0.385313 -0.8125,-0.5625 z"
       transform="translate(0,2)"
       id="path3962"
       style="opacity:0.5;fill:url(#linearGradient3666);fill-opacity:1;fill-rule:evenodd;stroke:none;display:inline" />
  </g>
</svg>
