<?xml version="1.0" encoding="UTF-8" standalone="no"?>
<!-- Created with Inkscape (http://www.inkscape.org/) -->
<svg id="svg5200" xmlns="http://www.w3.org/2000/svg" height="48" width="48" version="1.1" xmlns:xlink="http://www.w3.org/1999/xlink">
 <defs id="defs5202">
  <linearGradient id="linearGradient4731" y2="60.396" gradientUnits="userSpaceOnUse" x2="90.765" gradientTransform="matrix(.77273 0 0 .82353 -49.712 -6.5027)" y1="16.396" x1="90.443">
   <stop id="stop4170-5" style="stop-color:#fff" offset="0"/>
   <stop id="stop4172-4" style="stop-color:#c8c8c8" offset="1"/>
  </linearGradient>
 </defs>
 <g id="layer1">
  <rect id="rect5168" style="color:#000000;fill:#999" rx="2.7487" ry="2.1454" height="46" width="46" y="1" x="1"/>
  <path id="path4772" style="opacity:.15;color:#000000" d="m-773.59 903.75c-1.2189 0-2.1562 1.059-2.1562 2.25v25.312c0 1.191 0.93737 2.25 2.1562 2.25h0.0625c-0.0861 0.17335-0.21875 0.31948-0.21875 0.53125v6.125c0 0.77445 0.6607 1.3438 1.375 1.3438h12.062c0.71431 0 1.375-0.56928 1.375-1.3438v-6.125c0-0.21178-0.13265-0.3579-0.21875-0.53125h0.0625c1.2189 0 2.1562-1.059 2.1562-2.25v-25.312c0-1.191-0.93737-2.25-2.1562-2.25h-14.5zm7.2812 5.7188 0.21875 0.34375a0.90359 0.90359 0 0 0 -0.15625 0.0937 0.90359 0.90359 0 0 0 -0.0312 0 0.90359 0.90359 0 0 0 -0.21875 -0.0937c0.0645-0.11468 0.12323-0.22905 0.1875-0.34375zm3.375 3.0625h1.1875v1.375c-0.234 0.0669-0.48059 0.15828-0.6875 0.34375-0.10277-0.14206-0.12007-0.31645-0.25-0.375-0.12312-0.0555-0.16511-0.0481-0.25-0.0625v-1.2812zm-6.8125 3.0625c0.2224 0.11468 0.38812 0.3597 0.5 0.71875-0.0134-0.0429 0.00098 0.18292-0.0937 0.40625-0.0947 0.22333-0.26957 0.41189-0.3125 0.4375-0.0242 0.003-0.11277-0.0443-0.46875 0.125-0.0554 0.0263-0.10028 0.0817-0.15625 0.125-0.0221-0.0254-0.0434-0.0747-0.0625-0.0937-0.10301-0.10258-0.1753-0.14462-0.28125-0.25-0.28531-0.28379-0.34178-0.60039-0.3125-0.84375 0.0293-0.24336 0.12852-0.43102 0.4375-0.59375 0.24617-0.12964 0.5276-0.14593 0.75-0.0312zm3.375 10.75a0.90359 0.90359 0 0 0 0.15625 0.125l0.375 0.21875a0.90359 0.90359 0 0 0 0.0625 0.0312c-0.15095-0.0729 0.31219 0.33511 0.40625 0.53125 0.20111 0.4194 0.13515 0.75774-0.0312 1.0312-0.16178 0.26592-0.41666 0.45852-0.84375 0.46875-0.0142-0.00052-0.0174 0.00077-0.0312 0-0.36781-0.0204-0.61827-0.13908-0.75-0.25-0.13669-0.1151-0.21875-0.20916-0.21875-0.53125 0-0.54019 0.0793-0.76987 0.15625-0.90625 0.077-0.13638 0.20398-0.24151 0.46875-0.46875l-0.0312-0.0312c0.0928-0.053 0.18706-0.14017 0.28125-0.21875zm-3.5625 10.219h1.1875v1.1875h-1.1875v-1.1875zm6 0h1.1875v1.1875h-1.1875v-1.1875z" transform="translate(789.86 -897.65)"/>
  <path id="path4772-1" style="opacity:0.07;color:#000000" d="m-773.59 902.69c-1.8288 0-3.2188 1.5951-3.2188 3.3125v25.312c0 1.308 0.81096 2.5191 2 3.0312v5.875c0 1.3936 1.1869 2.4062 2.4375 2.4062h12.062c1.2507 0 2.4375-1.0126 2.4375-2.4062v-5.875c1.189-0.51211 2-1.7232 2-3.0312v-25.312c0-1.7174-1.39-3.3125-3.2188-3.3125h-14.5z" transform="translate(789.86 -897.65)"/>
  <path id="path4711" style="color:#000000;fill:url(#linearGradient4731)" d="m16.25 6.9999c-0.69564 0-1.25 0.60429-1.25 1.3438v25.312c0 0.73946 0.55436 1.3438 1.25 1.3438h14.5c0.69565 0 1.25-0.60429 1.25-1.3438v-25.312c0-0.73946-0.55435-1.3438-1.25-1.3438h-14.5zm7.2812 3 1.75 3h-1.1875v8.4062c0.16637 0 1.7948-1.6603 2.3438-2.4062 0.23717-0.32228 0.375-0.78695 0.375-1.2188 0-0.65123 0.21509-0.78125-0.28125-0.78125h-0.53125v-3.0312h3v3.0312h-0.5c-0.43251 0.0507-0.73084 0.27785-0.8125 1-0.12172 1.0769-0.58512 1.7891-2.2812 3.5l-1.3125 1.4375v5.0937l0.375 0.21875c0.26661 0.12878 0.63033 0.55761 0.8125 0.9375 0.64922 1.3539-0.23049 2.8125-1.7188 2.8125-1.0785-0.0395-1.875-0.60154-1.875-1.6875 0-1.2774 0.41785-1.6165 0.9375-2.0625 0.41719-0.20153 0.47425-0.3206 0.46875-0.96875-0.007-0.71629-0.07958-0.62885-1.4062-1.7812-2.0254-1.7595-2.2934-2.2032-2.5312-3.9687-0.17543-1.3022-0.05893-0.99913-0.5625-1.5-0.92689-0.92195-0.75966-2.2939 0.34375-2.875 0.99401-0.52347 2.1681 0.0534 2.5312 1.2188 0.17897 0.57429-0.23634 1.5625-0.8125 1.9062-0.52724 0.31456-0.74557-0.22196-0.625 0.9375 0.0669 0.64174 0.21173 1.396 0.34375 1.6562 0.22674 0.44704 2.446 2.5312 2.6875 2.5312v-12.406h-1.2188c0.56932-0.98857 1.136-2.0054 1.6875-3zm-6.0625 26c-0.25419 0-0.46875 0.19417-0.46875 0.4375v6.125c0 0.24333 0.21456 0.4375 0.46875 0.4375h12.062c0.25418 0 0.46875-0.19417 0.46875-0.4375v-6.125c0-0.24333-0.21457-0.4375-0.46875-0.4375h-12.062zm1.5312 2h3v3h-3v-3zm6 0h3v3h-3v-3z"/>
 </g>
</svg>
