<?xml version="1.0" encoding="UTF-8" standalone="no"?>
<!-- Created with Inkscape (http://www.inkscape.org/) -->
<svg id="svg3320" xmlns="http://www.w3.org/2000/svg" height="22" width="22" version="1.0" xmlns:xlink="http://www.w3.org/1999/xlink">
 <path id="path3288" style="fill:#fff;fill-rule:evenodd" d="m11 2c-4.6269 0-8.4326 3.508-8.9375 8h-2.0625l3 4 3-4h-1.9062c0.4872-3.39 3.3814-6 6.9062-6 3.866 0 7 3.134 7 7s-3.134 7-7 7c-2.1871 0-4.121-1.0257-5.4062-2.5938l-1.4375 1.4375c1.6431 1.933 4.1035 3.156 6.8437 3.156 4.9706 0 9-4.0294 9-9s-4.0294-9-9-9z"/>
 <path id="rect3740" style="color:#000000;fill:#fff" d="m10 6v5.5l3.6875 3.375 0.687-0.687-3.375-3.188v-5h-1z"/>
</svg>
