<?xml version="1.0" encoding="UTF-8" standalone="no"?>
<!-- Created with Inkscape (http://www.inkscape.org/) -->
<svg id="svg3320" xmlns="http://www.w3.org/2000/svg" height="22" width="22" version="1.0" xmlns:xlink="http://www.w3.org/1999/xlink">
 <path id="rect2196" style="stroke-linejoin:round;stroke:#fff;stroke-linecap:round;stroke-width:0.979;fill:none" d="m2.5016 3.493c-0.00542 5.0055-0.00761 10.012-0.012106 15.017 5.4249-0.02767 9.5708-0.05572 14.997-0.07564-0.04969-3.9884 0.03137-9.5492 0.02353-13.93h-6.9516l-1.1407-1.0157-6.9161 0.0035z"/>
 <path id="rect3936" style="color:#000000;fill:#fff" d="m5 6c-0.554 0-1 0.446-1 1v11c0 0.554 0.446 1 1 1h14c0.554 0 1-0.446 1-1v-11c0-0.554-0.446-1-1-1h-14zm7.5 2c0.30373 0 1.2855 2.5624 1.5312 2.75 0.24572 0.18756 2.8749 0.38403 2.9688 0.6875 0.09385 0.30347-2.1561 1.884-2.25 2.1875-0.09385 0.30347 0.99572 3.1874 0.75 3.375-0.24572 0.18756-2.6963-1.6875-3-1.6875-0.30373 0-2.7543 1.8751-3 1.6875-0.24572-0.18756 0.84386-3.0715 0.75-3.375-0.094-0.303-2.3439-1.884-2.25-2.187 0.0939-0.304 2.723-0.5 2.969-0.688 0.245-0.188 1.227-2.75 1.531-2.75z"/>
</svg>
