<?xml version="1.0" encoding="UTF-8" standalone="no"?>
<!-- Created with Inkscape (http://www.inkscape.org/) -->
<svg id="svg3320" xmlns="http://www.w3.org/2000/svg" height="22" width="22" version="1.0" xmlns:xlink="http://www.w3.org/1999/xlink">
 <path id="path1307" style="fill:#fff" d="m11 3c0.53992 0 2.2806 4.5668 2.7174 4.9001 0.43681 0.33331 5.1101 0.66084 5.2769 1.2002 0.16685 0.53931-3.4306 3.6893-3.5975 4.2286-0.16685 0.53932 1.3705 5.3085 0.93368 5.6418-0.436 0.333-4.79-2.287-5.33-2.287-0.53992 0-4.8938 2.62-5.3306 2.2867-0.43681-0.33332 1.1005-5.1025 0.93368-5.6418-0.1669-0.539-3.7643-3.6894-3.5975-4.2287 0.1669-0.5394 4.8402-0.8669 5.277-1.2002s2.1774-4.9001 2.7174-4.9001z"/>
</svg>
