<?xml version="1.0" encoding="UTF-8" standalone="no"?>
<!-- Created with Inkscape (http://www.inkscape.org/) -->
<svg id="svg3767" xmlns="http://www.w3.org/2000/svg" height="22" width="22" version="1.1">
 <g id="layer1" transform="translate(0,6)">
  <path id="path2922-6" style="color:#000000;fill:#fff" d="m11-4c-4.9706 0-9 4.0294-9 9s4.0294 9 9 9 9-4.0294 9-9-4.0294-9-9-9zm0 2c2.3123 0 4.3504 1.1466 5.625 2.875l-5.625 6.125-3-3-2 2 5 4 6.656-7.1562c0.219 0.6772 0.344 1.4063 0.344 2.1562 0 3.866-3.134 7-7 7s-7-3.134-7-7 3.134-7 7-7z"/>
 </g>
</svg>
