<?xml version="1.0" encoding="UTF-8" standalone="no"?>
<!-- Created with Inkscape (http://www.inkscape.org/) -->
<svg id="svg5200" xmlns="http://www.w3.org/2000/svg" height="48" width="48" version="1.1" xmlns:xlink="http://www.w3.org/1999/xlink">
 <defs id="defs5202">
  <linearGradient id="linearGradient4868" y2="59.396" gradientUnits="userSpaceOnUse" x2="41.745" gradientTransform="matrix(0.8 0 0 0.75 -6.9961 -4.2971)" y1="19.396" x1="41.745">
   <stop id="stop4170-5-9" style="stop-color:#fff" offset="0"/>
   <stop id="stop4172-4-0" style="stop-color:#c8c8c8" offset="1"/>
  </linearGradient>
 </defs>
 <g id="layer1">
  <rect id="rect5168" style="color:#000000;fill:#999" rx="2.7487" ry="2.1454" height="46" width="46" y="1" x="1"/>
  <path id="path4909" style="opacity:.15;color:#000000" d="m-769 961.56c-1.4421 0-2.6875 1.136-2.6875 2.5938v0.40625h-4.5625c-1.4421 0-2.6875 1.136-2.6875 2.5938v1.5a1.1046 1.1046 0 0 0 1 1.0938v1.5 14.406 6.4062c0 1.4612 1.1874 2.6875 2.6562 2.6875h18.875c1.4689 0 2.6562-1.2264 2.6562-2.6875v-6.4062-14.406-1.5a1.1046 1.1046 0 0 0 1 -1.0938v-1.5c0-1.4578-1.2454-2.5938-2.6875-2.5938h-4.4688v-0.40625c0-1.4578-1.2454-2.5938-2.6875-2.5938h-6.4062z" transform="translate(789.86 -951.65)"/>
  <path id="path4909-6" style="opacity:0.07;color:#000000" d="m-769 960.69c-1.7211 0-3.2154 1.2873-3.4688 3h-3.7812c-1.8813 0-3.5625 1.5157-3.5625 3.4688v1.5a1.9775 1.9775 0 0 0 1 1.7188v0.875 14.406 6.4062c0 1.9154 1.5896 3.5625 3.5312 3.5625h18.875c1.9417 0 3.5312-1.6471 3.5312-3.5625v-6.4062-14.406-0.875a1.9775 1.9775 0 0 0 1 -1.7188v-1.5c0-1.9531-1.6812-3.4688-3.5625-3.4688h-3.6875c-0.25333-1.7127-1.7476-3-3.4688-3h-6.4062z" transform="translate(789.86 -951.65)"/>
  <path id="path4810" style="color:#000000;fill:url(#linearGradient4868)" d="m20.844 11c-0.8864 0-1.5938 0.669-1.5938 1.5v1.5h-5.6562c-0.8864 0-1.5938 0.669-1.5938 1.5v1.5h1.5938 20.812 1.5938v-1.5c0-0.831-0.70735-1.5-1.5938-1.5h-5.5625v-1.5c0-0.831-0.70735-1.5-1.5938-1.5h-6.4062zm0.90625 2h4.5c0.4155 0 0.75 0.223 0.75 0.5v0.5h-6v-0.5c0-0.277 0.3345-0.5 0.75-0.5zm-8.75 5v1.5938 14.406 6.4062c0 0.88636 0.69193 1.5938 1.5625 1.5938h18.875c0.87057 0 1.5625-0.70739 1.5625-1.5938v-6.4062-14.406-1.5938h-1.5625-18.875-1.5625zm4 4c0.554 0 1 0.35922 1 0.8125v16.375c0 0.4533-0.446 0.8125-1 0.8125s-1-0.3592-1-0.8125v-16.375c0-0.45328 0.446-0.8125 1-0.8125zm5 0c0.554 0 1 0.35922 1 0.8125v16.375c0 0.4533-0.446 0.8125-1 0.8125s-1-0.3592-1-0.8125v-16.375c0-0.45328 0.446-0.8125 1-0.8125zm5 0c0.554 0 1 0.35922 1 0.8125v16.375c0 0.4533-0.446 0.8125-1 0.8125s-1-0.3592-1-0.8125v-16.375c0-0.45328 0.446-0.8125 1-0.8125zm5 0c0.554 0 1 0.35922 1 0.8125v16.375c0 0.4533-0.446 0.8125-1 0.8125s-1-0.3592-1-0.8125v-16.375c0-0.45328 0.446-0.8125 1-0.8125z"/>
 </g>
</svg>
